<svg width="182" height="28" fill="none" xmlns="http://www.w3.org/2000/svg"><path d="M6.43 27.09l-.078.494h.002l.075-.494zm-2.82-.72l.163-.472-.003-.001-.16.473zm-2.49-1.74l-.404.295.003.005.4-.3zM.85 10.56l-.434-.25-.005.008.438.242zm1.68-1.8l-.268-.422-.005.002.272.42zm2.22-.96l.14.48-.14-.48zm2.46-.48l.038.498h.004l-.043-.498zm4.62.03l-.06.497h.008l.007.001.044-.498zm2.28.42l.14-.48-.014-.004-.127.484zm2.37 1.02l.27-.42-.27.42zm1.56 1.68l-.433.252.002.004.43-.256zm-.21 13.98l-.402-.298-.005.006.406.292zm-2.34 1.77l-.187-.464.186.464zm-4.35-2.31l.044.498h.01l.01-.002-.065-.496zm1.41-.3l-.14-.48.14.48zm1.08-.69l-.398-.304-.003.004.4.3zm-.72-11.76l-.239.44.01.005.228-.445zM5.29 22.92l-.398.304.004.006.005.005.388-.315zm1.14.69l.14-.48-.006-.002-.135.482zm1.38.3l-.068.495.012.002.012.001.043-.498zm1.62 2.89c-.125 0-.248 0-.37-.003l-.015 1c.127.002.255.003.384.003v-1zm-1.105-.026c-.25-.012-.493-.029-.732-.05l-.086.997c.251.021.508.039.77.052l.048-1zm-1.46-.128a15.895 15.895 0 01-.36-.05l-.151.988c.126.02.254.038.384.054l.128-.992zm-.36-.05a13.513 13.513 0 01-.69-.126l-.205.979c.25.052.497.097.742.135l.154-.988zm-2.058-.479c-.222-.067-.447-.14-.674-.22l-.328.945c.24.083.476.16.711.232l.291-.957zm-.677-.22a5.948 5.948 0 01-.333-.125l-.378.926c.127.052.256.1.39.145l.32-.946zm-.964-.433a4.468 4.468 0 01-.572-.392l-.628.777c.217.177.45.337.699.48l.5-.865zm-1.07-.867a4.208 4.208 0 01-.217-.267l-.8.6c.086.114.176.224.27.33l.748-.663zm-.213-.262a3.939 3.939 0 01-.195-.292l-.856.517c.076.125.157.247.244.365l.807-.59zm-.502-.92a4.319 4.319 0 01-.198-.68l-.98.202c.06.29.141.568.244.836l.934-.359zm-.29-1.391a5.902 5.902 0 01-.012-.364h-1c0 .144.004.285.013.425l.998-.061zm-.012-.364v-.532h-1v.532h1zm0-1.598v-1.065h-1v1.066h1zm0-2.13v-1.064h-1v1.065h1zm0-2.13v-1.064h-1v1.065h1zm0-2.13v-.532h-1v.532h1zm0-.532c0-.212.011-.417.033-.615l-.994-.11a6.636 6.636 0 00-.039.725h1zm.314-1.793c.072-.188.157-.37.254-.545l-.876-.484c-.119.216-.223.44-.312.67l.934.36zm.249-.537c.097-.168.2-.327.31-.476l-.809-.59c-.13.18-.252.368-.367.566l.866.5zm1.07-1.298c.143-.12.292-.231.449-.332l-.544-.84a5.4 5.4 0 00-.55.408l.646.764zm.445-.33a6.17 6.17 0 01.487-.277l-.456-.89a7.17 7.17 0 00-.566.323l.535.844zm1.54-.724c.177-.062.362-.122.554-.178l-.284-.96c-.207.062-.407.126-.601.195l.332.943zm.554-.178c.198-.06.394-.113.585-.16l-.243-.97a15.51 15.51 0 00-.626.17l.284.96zm1.765-.395c.203-.03.4-.051.592-.067l-.078-.996c-.215.016-.433.04-.656.073l.142.99zm.596-.067c.178-.015.358-.028.542-.04l-.062-.998c-.19.012-.38.026-.566.042l.086.996zm1.63-.083c.18-.003.363-.005.547-.005v-1c-.19 0-.379.002-.565.005l.019 1zm.547-.005c.203 0 .4.002.59.006l.021-1a29.478 29.478 0 00-.61-.006v1zm1.763.06c.203.016.396.035.579.057l.116-.994a15.543 15.543 0 00-.618-.06l-.077.998zm.593.058c.177.016.36.037.55.064l.141-.99c-.206-.03-.407-.053-.603-.07l-.088.996zm1.65.271c.178.04.36.086.547.135l.254-.968c-.197-.051-.39-.099-.58-.142l-.222.975zm.534.131c.207.06.404.123.593.189l.328-.945c-.206-.071-.42-.14-.64-.204l-.28.96zm1.721.663c.187.096.36.195.518.297l.542-.84a6.998 6.998 0 00-.604-.347l-.456.89zm.518.297c.143.092.28.194.41.306l.649-.762a4.861 4.861 0 00-.517-.384l-.542.84zm1.111 1.069c.1.138.197.286.288.443l.864-.504a6.315 6.315 0 00-.343-.526l-.809.587zm.29.447c.104.173.194.357.27.552l.93-.366a4.797 4.797 0 00-.34-.698l-.86.511zm.558 1.771c.021.205.032.42.032.643h1c0-.256-.012-.505-.038-.747l-.994.104zm.032.643v.532h1v-.532h-1zm0 1.598v1.065h1v-1.066h-1zm0 2.13v1.065h1v-1.066h-1zm0 2.13v1.064h1v-1.065h-1zm0 2.13v.532h1v-.532h-1zm0 .532c0 .234-.015.459-.044.674l.99.135c.037-.262.054-.532.054-.809h-1zm-.427 1.933c-.097.195-.212.38-.344.559l.802.596c.167-.223.312-.459.436-.706l-.893-.449zm-.35.565c-.129.181-.272.35-.428.508l.711.703a5.2 5.2 0 00.53-.627l-.812-.584zm-1.5 1.307a5.52 5.52 0 01-.619.29l.372.93c.254-.102.496-.216.727-.342l-.48-.878zm-.619.29c-.153.062-.308.12-.465.177l.337.942c.168-.06.335-.124.5-.19l-.372-.928zm-1.414.477c-.317.088-.64.165-.97.233l.2.98a15.56 15.56 0 001.037-.25l-.267-.963zm-1.956.401a16.52 16.52 0 01-.997.109l.08.996a17.82 17.82 0 001.055-.114l-.138-.99zm-2 .16c-.167.005-.335.007-.504.007v1c.178 0 .354-.002.529-.007l-.025-1zm-.444-3.323c-.143 0-.28-.001-.413-.003l-.014 1c.137.002.28.003.427.003v-1zm-1.233-.03a12.912 12.912 0 01-.404-.028l-.086.996c.137.012.282.022.435.03l.055-.998zm-.38-.025a7.771 7.771 0 01-.328-.052l-.176.984a8.1 8.1 0 00.37.058l.135-.99zm-.982-.196a10.414 10.414 0 01-.325-.089l-.28.96c.12.035.239.067.356.098l.25-.969zm-.33-.09a2.52 2.52 0 01-.268-.091l-.375.927c.12.048.244.09.373.127l.27-.963zm-.717-.353a1.253 1.253 0 01-.17-.171l-.776.63c.091.113.193.216.305.31l.641-.769zm-.16-.16a1.288 1.288 0 01-.129-.205l-.894.449c.065.128.14.25.228.364l.794-.608zm-.271-.686a2.092 2.092 0 01-.017-.27h-1c0 .136.008.27.025.4l.992-.13zm-.017-.27v-.534h-1v.534h1zm0-1.603v-1.069h-1v1.069h1zm0-2.138v-1.068h-1v1.068h1zm0-2.137v-1.069h-1v1.069h1zm0-2.138v-.534h-1v.534h1zm0-.534c0-.184.017-.349.047-.496l-.98-.202a3.446 3.446 0 00-.067.698h1zm.462-1.274a1.62 1.62 0 01.376-.261l-.456-.89a2.622 2.622 0 00-.606.424l.686.727zm.376-.261c.103-.053.218-.103.346-.149l-.34-.94a3.803 3.803 0 00-.462.2l.456.889zm1.12-.353c.25-.046.524-.083.826-.11l-.09-.996c-.328.029-.635.07-.92.124l.184.982zm1.674-.157c.138-.003.281-.005.428-.005v-1c-.155 0-.306.002-.453.005l.025 1zm.428-.005c.147 0 .29.002.429.005l.026-1a22.43 22.43 0 00-.455-.005v1zm1.277.055c.301.028.575.067.824.116l.194-.98a9.23 9.23 0 00-.924-.132l-.094.996zm1.593.33c.127.048.241.1.342.155l.476-.88a3.873 3.873 0 00-.462-.21l-.356.935zm.352.16c.149.076.272.163.375.258l.68-.732a2.659 2.659 0 00-.599-.416l-.456.89zm.79 1.02c.031.143.048.305.048.485h1c0-.241-.022-.473-.07-.694l-.977.208zm.048.485v.534h1v-.534h-1zm0 1.603v1.069h1v-1.069h-1zm0 2.138v1.068h1v-1.068h-1zm0 2.137v1.069h1v-1.069h-1zm0 2.138v.534h1v-.534h-1zm0 .534c0 .096-.006.186-.017.27l.992.13a3.09 3.09 0 00.025-.4h-1zm-.159.751c-.036.073-.079.14-.128.205l.794.608c.088-.114.163-.236.228-.364l-.894-.449zm-.13.209a1.13 1.13 0 01-.154.166l.665.747c.107-.095.203-.2.288-.313l-.8-.6zm-.569.42c-.077.034-.16.063-.252.09l.28.96a3.25 3.25 0 00.363-.129l-.391-.92zm-.252.09a9.706 9.706 0 01-.33.09l.245.97c.121-.031.243-.064.365-.1l-.28-.96zm-.999.233c-.112.02-.224.037-.336.051l.13.992c.125-.016.25-.036.377-.057l-.17-.986zm-.316.05c-.122.01-.253.02-.395.028l.056.998c.152-.009.295-.019.43-.031l-.091-.996zm-1.2.054c-.129.002-.264.003-.405.003v1c.145 0 .285-.001.42-.003l-.014-1zM6.43 27.09l-.154.988h.004l.15-.988zm-2.82-.72l.328-.945-.006-.002-.322.947zm-2.49-1.74l-.807.59.007.01.8-.6zM.85 10.56l-.865-.501-.005.009-.005.008.875.484zm1.68-1.8l-.535-.845-.008.005.543.84zm2.22-.96l.283.959L4.75 7.8zm2.46-.48l.079.997h.006L7.21 7.32zm4.62.03l-.117.993.015.002.014.001.088-.996zm2.28.42l.28-.96-.013-.004-.014-.003-.253.967zm2.37 1.02l.542-.84-.542.84zm1.56 1.68l-.864.504.005.007.86-.511zm-.21 13.98l-.802-.597-.005.007-.005.007.812.583zm-2.34 1.77l-.371-.928.371.928zm-4.35-2.31l.09.996.02-.002.02-.002-.13-.992zm1.41-.3l-.28-.96.28.96zm1.08-.69l-.794-.608-.006.008.8.6zm-.72-11.76l-.476.88.01.005.01.005.456-.89zM5.29 22.92l-.794.607.009.012.009.012.776-.631zm1.14.69l.28-.96-.01-.003-.27.963zm1.38.3l-.135.99.024.004.024.002.087-.996zm1.62 2.39c-.121 0-.242 0-.36-.003l-.032 2c.13.002.26.003.392.003v-2zm-1.08-.026a19.133 19.133 0 01-.713-.048l-.172 1.993c.258.022.52.04.788.053l.098-1.998zm-1.42-.123a15.353 15.353 0 01-.35-.05l-.3 1.978c.13.02.262.038.395.055l.255-1.983zm-.346-.05c-.219-.033-.44-.074-.666-.12l-.41 1.957a16 16 0 00.768.14l.308-1.976zm-1.99-.462a17.726 17.726 0 01-.656-.214l-.656 1.89c.245.085.488.164.73.237l.582-1.913zm-.662-.216a5.38 5.38 0 01-.305-.113l-.757 1.85c.137.057.276.109.418.157l.644-1.894zm-.874-.392a3.96 3.96 0 01-.508-.348l-1.26 1.555c.239.193.493.368.763.524l1.003-1.73zm-.946-.766a3.686 3.686 0 01-.192-.235l-1.6 1.2c.094.125.192.246.296.362l1.496-1.327zm-.185-.226a3.466 3.466 0 01-.17-.254L.044 24.819c.084.137.173.271.268.402l1.614-1.181zm-.438-.804a3.816 3.816 0 01-.175-.6l-1.959.403c.065.315.154.62.267.914l1.867-.717zm-.259-1.242a5.404 5.404 0 01-.01-.333h-2c0 .154.005.306.014.456l1.996-.123zm-.01-.333v-.532h-2v.532h2zm0-1.598v-1.065h-2v1.066h2zm0-2.13v-1.064h-2v1.065h2zm0-2.13v-1.064h-2v1.065h2zm0-2.13v-.532h-2v.532h2zm0-.532c0-.194.01-.381.03-.56l-1.988-.22a7.133 7.133 0 00-.042.78h2zm.28-1.614c.064-.166.14-.327.225-.482l-1.75-.968a5.85 5.85 0 00-.342.733l1.868.718zm.215-.465c.09-.154.183-.298.282-.433L.379 9.45a6.911 6.911 0 00-.395.609l1.73 1.002zm.961-1.167c.126-.107.259-.205.397-.294L1.986 7.92a5.9 5.9 0 00-.6.445l1.289 1.529zm.39-.29c.137-.086.286-.171.447-.254L2.6 7.57a7.674 7.674 0 00-.606.345l1.07 1.69zm1.439-.674a9.65 9.65 0 01.528-.171l-.566-1.918c-.215.063-.424.13-.626.202l.664 1.887zm.528-.171c.193-.057.381-.108.566-.154l-.486-1.94a16.07 16.07 0 00-.646.176l.566 1.918zm1.695-.38c.193-.027.38-.048.56-.062L7.13 6.323c-.225.018-.454.044-.687.077l.284 1.98zm.567-.063c.174-.015.351-.028.53-.039l-.122-1.996c-.195.012-.388.026-.578.043l.17 1.992zm1.598-.081c.177-.003.356-.005.537-.005v-2c-.194 0-.385.002-.575.005l.038 2zm.537-.005c.2 0 .393.002.58.006l.042-2a30.095 30.095 0 00-.622-.006v2zm1.725.06c.197.015.383.032.558.053l.234-1.986a16 16 0 00-.638-.062l-.154 1.994zm.587.056c.167.015.341.035.522.061l.284-1.98a12.45 12.45 0 00-.63-.073l-.176 1.992zm1.582.26c.173.04.35.084.533.131l.506-1.934a19.32 19.32 0 00-.594-.146l-.445 1.95zm.506.124c.2.058.389.118.57.181l.655-1.89a13.927 13.927 0 00-.665-.211l-.56 1.92zm1.633.628c.174.089.332.18.475.272l1.084-1.68a7.506 7.506 0 00-.647-.372l-.912 1.78zm.475.272c.124.08.243.169.358.267l1.296-1.524a5.384 5.384 0 00-.57-.423l-1.084 1.68zm.977.942c.09.125.178.259.261.402l1.728-1.008a6.801 6.801 0 00-.37-.568l-1.619 1.174zm.265.41c.09.15.168.309.235.479l1.861-.732a5.307 5.307 0 00-.376-.77l-1.72 1.022zm.49 1.567c.02.187.03.384.03.591h2c0-.272-.013-.538-.04-.799l-1.99.208zm.03.591v.532h2v-.532h-2zm0 1.598v1.065h2v-1.066h-2zm0 2.13v1.065h2v-1.066h-2zm0 2.13v1.064h2v-1.065h-2zm0 2.13v.532h2v-.532h-2zm0 .532c0 .213-.014.415-.04.607l1.982.27a6.5 6.5 0 00.058-.877h-2zm-.373 1.709c-.085.168-.184.33-.3.484l1.605 1.194c.184-.247.345-.507.482-.78l-1.787-.898zm-.31.498c-.114.16-.24.308-.377.448l1.422 1.406a5.69 5.69 0 00.58-.688l-1.624-1.166zm-1.334 1.16a5.21 5.21 0 01-.564.264l.742 1.857c.272-.108.533-.23.782-.366l-.96-1.755zm-.564.264c-.148.06-.297.116-.448.17l.673 1.883c.174-.062.347-.127.518-.196l-.743-1.857zm-1.362.459c-.306.084-.618.16-.937.225l.4 1.96c.363-.075.72-.16 1.07-.258l-.533-1.927zm-1.892.388c-.316.044-.639.08-.967.105l.158 1.994c.367-.03.728-.068 1.085-.118l-.276-1.98zm-1.944.156c-.162.004-.326.006-.49.006v2c.18 0 .361-.002.54-.007l-.05-2zm-.43-3.324c-.141 0-.277 0-.407-.003l-.029 2c.14.002.286.003.435.003v-2zm-1.207-.03a12.271 12.271 0 01-.387-.026l-.174 1.992c.144.013.294.023.451.032l.11-1.997zm-.339-.02c-.1-.015-.203-.03-.307-.05l-.354 1.969c.131.024.262.044.39.062l.271-1.982zm-.925-.185a9.95 9.95 0 01-.31-.085l-.56 1.92c.125.036.249.07.372.102l.498-1.937zm-.32-.088a2.022 2.022 0 01-.215-.072l-.751 1.853c.138.056.28.104.426.145l.54-1.926zm-.531-.255a.749.749 0 01-.103-.103l-1.552 1.262c.112.138.237.263.373.377l1.282-1.536zm-.085-.08a.788.788 0 01-.078-.125l-1.788.897c.079.157.171.305.278.444l1.588-1.215zm-.171-.446a1.593 1.593 0 01-.013-.206h-2c0 .156.01.311.03.464l1.983-.258zM5.9 21.66v-.534h-2v.534h2zm0-1.603v-1.069h-2v1.069h2zm0-2.138v-1.068h-2v1.068h2zm0-2.137v-1.069h-2v1.069h2zm0-2.138v-.534h-2v.534h2zm0-.534c0-.154.014-.285.037-.395l-1.959-.405c-.054.26-.078.527-.078.8h2zm.306-.91a1.12 1.12 0 01.26-.18l-.913-1.78a3.12 3.12 0 00-.72.506L6.204 12.2zm.26-.18c.082-.042.177-.084.288-.124l-.68-1.88c-.18.065-.355.14-.52.224l.913 1.78zm.984-.306a8.07 8.07 0 01.778-.104L8.05 9.618a9.95 9.95 0 00-.968.13l.368 1.966zm1.594-.149c.134-.003.273-.005.416-.005v-2a17.7 17.7 0 00-.466.006l.05 1.999zm.416-.005c.143 0 .281.002.416.005l.052-1.999a17.91 17.91 0 00-.468-.006v2zm1.23.052c.287.027.544.064.774.11l.388-1.962a9.737 9.737 0 00-.975-.139l-.187 1.991zm1.462.3c.109.041.203.084.283.128l.95-1.76a4.354 4.354 0 00-.52-.237l-.713 1.87zm.301.138c.112.057.197.118.263.18l1.362-1.466a3.159 3.159 0 00-.711-.494l-.914 1.78zm.53.678c.023.106.037.232.037.382h2c0-.272-.025-.54-.08-.798l-1.956.416zm.037.382v.534h2v-.534h-2zm0 1.603v1.069h2v-1.069h-2zm0 2.138v1.068h2v-1.068h-2zm0 2.137v1.069h2v-1.069h-2zm0 2.138v.534h2v-.534h-2zm0 .534c0 .076-.005.144-.012.206l1.983.258a3.6 3.6 0 00.03-.464h-2zm-.106.527a.786.786 0 01-.078.125l1.588 1.215c.107-.139.2-.286.278-.443l-1.788-.897zm-.084.133a.628.628 0 01-.086.093l1.33 1.493c.131-.116.25-.245.356-.386l-1.6-1.2zm-.363.26a1.777 1.777 0 01-.197.07l.56 1.92c.143-.042.283-.09.418-.148l-.781-1.841zm-.197.07c-.105.03-.21.06-.314.086l.492 1.938c.127-.032.254-.067.382-.104l-.56-1.92zm-.944.22a7.576 7.576 0 01-.315.048l.258 1.984c.133-.018.265-.038.398-.06l-.341-1.971zm-.276.044c-.115.01-.241.02-.378.027l.113 1.997c.156-.009.305-.02.446-.032l-.181-1.992zm-1.161.053c-.128.002-.26.003-.399.003v2c.147 0 .29-.001.427-.003l-.028-2zM28.465 10.86h.5v-.5h-.5v.5zm-6 0h-.5v.5h.5v-.5zm0-3.33v-.5h-.5v.5h.5zm16.65 0h.5v-.5h-.5v.5zm0 3.33v.5h.5v-.5h-.5zm-5.97 0v-.5h-.5v.5h.5zm0 16.14v.5h.5V27h-.5zm-4.68 0h-.5v.5h.5V27zm0-16.64h-.5v1h.5v-1zm-1.5 0h-1v1h1v-1zm-2 0h-1v1h1v-1zm-2 0h-.5v1h.5v-1zm0 .5v-.416h-1v.416h1zm0-1.249V8.78h-1v.832h1zm0-1.665V7.53h-1v.416h1zm-.5.084h.52v-1h-.52v1zm1.561 0h1.04v-1h-1.04v1zm2.081 0h1.041v-1h-1.04v1zm2.082 0h1.04v-1h-1.04v1zm2.08 0h1.042v-1H30.27v1zm2.082 0h1.04v-1h-1.04v1zm2.081 0h1.041v-1h-1.04v1zm2.082 0h1.04v-1h-1.04v1zm2.08 0h.521v-1h-.52v1zm.021-.5v.416h1V7.53h-1zm0 1.249v.832h1V8.78h-1zm0 1.665v.416h1v-.416h-1zm.5-.084h-.497v1h.497v-1zm-1.492 0h-.995v1h.995v-1zm-1.99 0h-.995v1h.995v-1zm-1.99 0h-.498v1h.498v-1zm-.998.5v.504h1v-.504h-1zm0 1.513v1.009h1v-1.009h-1zm0 2.018v1.008h1v-1.008h-1zm0 2.017v1.009h1v-1.009h-1zm0 2.018v1.008h1v-1.008h-1zm0 2.017v1.009h1v-1.009h-1zm0 2.018v1.008h1v-1.008h-1zm0 2.017v1.009h1v-1.009h-1zm0 2.018V27h1v-.504h-1zm.5.004h-.585v1h.585v-1zm-1.755 0h-1.17v1h1.17v-1zm-2.34 0h-.585v1h.585v-1zm-.085.5v-.504h-1V27h1zm0-1.513v-1.009h-1v1.009h1zm0-2.018v-1.008h-1v1.008h1zm0-2.017v-1.009h-1v1.009h1zm0-2.018v-1.008h-1v1.008h1zm0-2.017v-1.009h-1v1.009h1zm0-2.018v-1.008h-1v1.008h1zm0-2.017v-1.009h-1v1.009h1zm0-2.018v-.504h-1v.504h1zm-.5-.504h1v-1h-1v1zm-6 0h-1v1h1v-1zm0-3.33v-1h-1v1h1zm16.65 0h1v-1h-1v1zm0 3.33v1h1v-1h-1zm-5.97 0v-1h-1v1h1zm0 16.14v1h1v-1h-1zm-4.68 0h-1v1h1v-1zm0-17.14h-.5v2h.5v-2zm-1.5 0h-1v2h1v-2zm-2 0h-1v2h1v-2zm-2 0h-.5v2h.5v-2zm.5 1v-.416h-2v.416h2zm0-1.249V8.78h-2v.832h2zm0-1.665V7.53h-2v.416h2zm-1 .584h.52v-2h-.52v2zm1.561 0h1.04v-2h-1.04v2zm2.081 0h1.041v-2h-1.04v2zm2.082 0h1.04v-2h-1.04v2zm2.08 0h1.042v-2H30.27v2zm2.082 0h1.04v-2h-1.04v2zm2.081 0h1.041v-2h-1.04v2zm2.082 0h1.04v-2h-1.04v2zm2.08 0h.521v-2h-.52v2zm-.479-1v.416h2V7.53h-2zm0 1.249v.832h2V8.78h-2zm0 1.665v.416h2v-.416h-2zm1-.584h-.497v2h.497v-2zm-1.492 0h-.995v2h.995v-2zm-1.99 0h-.995v2h.995v-2zm-1.99 0h-.498v2h.498v-2zm-1.498 1v.504h2v-.504h-2zm0 1.513v1.009h2v-1.009h-2zm0 2.018v1.008h2v-1.008h-2zm0 2.017v1.009h2v-1.009h-2zm0 2.018v1.008h2v-1.008h-2zm0 2.017v1.009h2v-1.009h-2zm0 2.018v1.008h2v-1.008h-2zm0 2.017v1.009h2v-1.009h-2zm0 2.018V27h2v-.504h-2zm1-.496h-.585v2h.585v-2zm-1.755 0h-1.17v2h1.17v-2zm-2.34 0h-.585v2h.585v-2zm.415 1v-.504h-2V27h2zm0-1.513v-1.009h-2v1.009h2zm0-2.018v-1.008h-2v1.008h2zm0-2.017v-1.009h-2v1.009h2zm0-2.018v-1.008h-2v1.008h2zm0-2.017v-1.009h-2v1.009h2zm0-2.018v-1.008h-2v1.008h2zm0-2.017v-1.009h-2v1.009h2zm0-2.018v-.504h-2v.504h2zM43.307 27.12l.108-.488-.013-.003-.013-.002-.082.493zm-.78-.12h-.5v.441l.438.055.062-.496zm0-3.66l.068-.495-.568-.078v.573h.5zm3.42-.75l.36.347.006-.006-.366-.341zm1.17-3.42l-.494-.076-.001.006.495.07zm.39-11.64v-.5h-.5v.5h.5zm14.16 0h.5v-.5h-.5v.5zm0 19.47v.5h.5V27h-.5zm-4.68 0h-.5v.5h.5V27zm0-16.17h.5v-.5h-.5v.5zm-5.25 0v-.5h-.5v.5h.5zm-1.02 11.28l-.474-.16-.001.005.475.155zm-2.61 4.08l-.272-.42-.004.003.276.417zm-3.78.55c-.073 0-.148-.002-.225-.007l-.064.998c.097.006.194.009.289.009v-1zm-.682-.063a5.114 5.114 0 01-.23-.045l-.216.976c.092.02.184.039.275.055l.171-.986zm-.256-.05l-.196-.033-.161.987.193.032.164-.986zm-.594-.095a9.466 9.466 0 00-.206-.028l-.124.992c.05.006.11.015.185.026l.145-.99zm.232.468v-.457h-1V27h1zm0-1.372v-.916h-1v.916h1zm0-1.83v-.458h-1v.457h1zm-.568.037c.1.014.195.026.287.037l.114-.994c-.085-.01-.173-.02-.265-.033l-.136.99zm.874.087c.106.005.208.008.304.008v-1c-.077 0-.162-.002-.253-.007l-.05.999zm.304.008c.242 0 .475-.015.699-.046l-.137-.99a4.115 4.115 0 01-.562.036v1zm2.08-.519c.217-.133.414-.291.59-.474l-.72-.694a1.982 1.982 0 01-.393.315l.523.853zm.596-.48c.121-.13.232-.279.334-.441l-.85-.53a1.886 1.886 0 01-.216.29l.732.68zm.768-1.364a8.95 8.95 0 00.273-.93l-.973-.233a7.72 7.72 0 01-.241.825l.94.338zm.46-1.862c.025-.15.049-.306.071-.465l-.99-.14c-.022.152-.044.298-.068.44l.986.165zm.07-.46c.024-.157.047-.32.069-.492l-.992-.126c-.02.163-.043.32-.065.467l.988.152zm.175-1.474c.028-.308.053-.634.076-.978l-.998-.066c-.022.336-.047.654-.074.954l.996.09zm.131-1.955c.015-.313.028-.639.04-.976l-1-.033a67.04 67.04 0 01-.039.961l1 .048zm.066-1.952c.006-.315.012-.64.016-.973l-1-.012c-.004.33-.01.652-.016.964l1 .021zm.023-1.947l.001-.487h-1v.484l1 .003zm.001-.487v-.487h-1v.487h1zm0-1.463v-.975h-1v.975h1zm0-1.95V7.53h-1v.487h1zm-.5.013h.506v-1h-.506v1zm1.517 0h1.012v-1h-1.012v1zm2.023 0h1.012v-1h-1.012v1zm2.023 0h1.011v-1H53.07v1zm2.023 0h1.011v-1h-1.011v1zm2.023 0h1.011v-1h-1.011v1zm2.023 0h1.01v-1h-1.01v1zm2.022 0h.506v-1h-.506v1zm.006-.5v.487h1V7.53h-1zm0 1.46v.974h1V8.99h-1zm0 1.947v.974h1v-.974h-1zm0 1.947v.974h1v-.974h-1zm0 1.947v.974h1v-.974h-1zm0 1.947v.974h1v-.974h-1zm0 1.947v.974h1v-.974h-1zm0 1.947v.974h1v-.974h-1zm0 1.947v.974h1v-.974h-1zm0 1.947v.974h1v-.974h-1zm0 1.947V27h1v-.487h-1zm.5-.013h-.585v1h.585v-1zm-1.755 0h-1.17v1h1.17v-1zm-2.34 0h-.585v1h.585v-1zm-.085.5v-.505h-1V27h1zm0-1.516v-1.01h-1v1.01h1zm0-2.021v-1.01h-1v1.01h1zm0-2.021V20.43h-1v1.01h1zm0-2.022v-1.01h-1v1.01h1zm0-2.02v-1.012h-1V17.4h1zm0-2.022v-1.01h-1v1.01h1zm0-2.021v-1.011h-1v1.01h1zm0-2.022v-.505h-1v.505h1zm-.5-1.005h-.438v1h.438v-1zm-1.313 0H54.8v1h.875v-1zm-1.75 0h-.874v1h.875v-1zm-1.75 0h-.437v1h.438v-1zm-.937.5v.675h1v-.675h-1zm0 2.025v.675h1v-.675h-1zm0 .675c0 .181 0 .36-.002.538l1 .01.002-.548h-1zm-.023 1.612c-.011.367-.026.724-.045 1.071l.999.054c.019-.355.034-.72.045-1.095l-1-.03zm-.117 2.139c-.03.366-.066.72-.106 1.062l.993.116c.042-.353.078-.719.11-1.096l-.997-.082zm-.25 2.115c-.059.364-.124.71-.194 1.04l.977.21c.075-.348.143-.712.204-1.092l-.988-.158zm-.449 2.058c-.05.172-.101.337-.155.497l.948.319c.058-.174.114-.354.168-.538l-.961-.278zm-.156.5c-.064.195-.13.383-.197.564l.938.349c.072-.195.142-.395.21-.602l-.951-.31zm-.661 1.65a7.64 7.64 0 01-.584.998l.819.574a8.7 8.7 0 00.661-1.128l-.896-.444zm-1.318 1.838c-.14.125-.282.234-.428.328l.544.84a4.51 4.51 0 00.55-.422l-.666-.746zm-.431.33a5.493 5.493 0 01-.391.236l.48.877c.157-.086.311-.179.462-.278l-.552-.834zm-1.225.607a6.086 6.086 0 01-.888.236l.186.983c.356-.068.7-.16 1.033-.276l-.33-.944zm-1.811.348a8.01 8.01 0 01-.469.013v1c.178 0 .353-.005.526-.015l-.057-.998zm-1.489.393l.217-.976-.026-.006-.027-.004-.164.986zm-.78-.12h-1v.883l.876.11.124-.993zm0-3.66l.135-.99-1.135-.156v1.146h1zm3.42-.75l.72.694.006-.006.006-.007-.732-.681zm1.17-3.42l-.988-.151-.002.011.99.14zm.39-11.64v-1h-1v1h1zm14.16 0h1v-1h-1v1zm0 19.47v1h1v-1h-1zm-4.68 0h-1v1h1v-1zm0-16.17h1v-1h-1v1zm-5.25 0v-1h-1v1h1zm-1.02 11.28l-.948-.32-.002.01.95.31zm-2.61 4.08l-.544-.84-.007.005.551.835zm-3.78.05c-.062 0-.127-.002-.193-.006l-.128 1.996c.108.006.215.01.321.01v-2zm-.596-.055a4.552 4.552 0 01-.207-.041l-.434 1.952c.1.022.2.042.298.06l.343-1.971zm-.26-.051l-.198-.033-.321 1.974.19.031.33-1.972zm-.603-.096l-.217-.03-.248 1.984.174.024.291-1.978zm.659.962v-.457h-2V27h2zm0-1.372v-.916h-2v.916h2zm0-1.83v-.458h-2v.457h2zm-1.135.533c.102.014.201.026.297.037l.228-1.987c-.08-.009-.166-.02-.255-.032l-.27 1.982zm.916.09c.113.006.223.009.329.009v-2a4.76 4.76 0 01-.227-.006l-.102 1.997zm.329.009c.263 0 .519-.016.767-.05l-.273-1.982c-.15.02-.314.032-.494.032v2zm2.341-.593a3.5 3.5 0 00.689-.553l-1.44-1.388c-.088.091-.185.17-.294.236l1.045 1.705zm.7-.566a3.38 3.38 0 00.393-.517l-1.697-1.058a1.389 1.389 0 01-.159.213l1.464 1.362zm.873-1.534c.109-.303.205-.631.289-.984l-1.945-.465c-.07.294-.146.55-.226.771l1.882.678zm.483-1.95c.026-.154.05-.314.073-.477l-1.98-.28c-.021.148-.043.29-.066.427l1.973.33zm.072-.466a23 23 0 00.07-.505l-1.984-.252a18.3 18.3 0 01-.063.455l1.977.302zm.178-1.504c.028-.314.054-.644.077-.991l-1.996-.132c-.022.333-.046.646-.073.942l1.992.18zm.133-1.978c.015-.315.028-.643.039-.982l-1.999-.067c-.01.331-.024.65-.038.955l1.998.095zm.066-1.964c.006-.317.012-.643.016-.978l-2-.024c-.004.33-.01.65-.016.96l2 .042zm.023-1.956l.001-.489h-2v.482l2 .007zm.001-.489v-.487h-2v.487h2zm0-1.463v-.975h-2v.975h2zm0-1.95V7.53h-2v.487h2zm-1 .513h.506v-2h-.506v2zm1.517 0h1.012v-2h-1.012v2zm2.023 0h1.012v-2h-1.012v2zm2.023 0h1.011v-2H53.07v2zm2.023 0h1.011v-2h-1.011v2zm2.023 0h1.011v-2h-1.011v2zm2.023 0h1.01v-2h-1.01v2zm2.022 0h.506v-2h-.506v2zm-.494-1v.487h2V7.53h-2zm0 1.46v.974h2V8.99h-2zm0 1.947v.974h2v-.974h-2zm0 1.947v.974h2v-.974h-2zm0 1.947v.974h2v-.974h-2zm0 1.947v.974h2v-.974h-2zm0 1.947v.974h2v-.974h-2zm0 1.947v.974h2v-.974h-2zm0 1.947v.974h2v-.974h-2zm0 1.947v.974h2v-.974h-2zm0 1.947V27h2v-.487h-2zm1-.513h-.585v2h.585v-2zm-1.755 0h-1.17v2h1.17v-2zm-2.34 0h-.585v2h.585v-2zm.415 1v-.505h-2V27h2zm0-1.516v-1.01h-2v1.01h2zm0-2.021v-1.01h-2v1.01h2zm0-2.021V20.43h-2v1.01h2zm0-2.022v-1.01h-2v1.01h2zm0-2.02v-1.012h-2V17.4h2zm0-2.022v-1.01h-2v1.01h2zm0-2.021v-1.011h-2v1.01h2zm0-2.022v-.505h-2v.505h2zm-1-1.505h-.438v2h.438v-2zm-1.313 0H54.8v2h.875v-2zm-1.75 0h-.874v2h.875v-2zm-1.75 0h-.437v2h.438v-2zm-1.437 1v.675h2v-.675h-2zm0 2.025v.675h2v-.675h-2zm0 .675c0 .18 0 .358-.002.534l2 .018.002-.552h-2zm-.023 1.597c-.01.363-.026.716-.044 1.06l1.997.107c.02-.36.035-.729.046-1.107l-1.999-.06zm-.116 2.112a32 32 0 01-.103 1.046l1.986.232c.042-.36.079-.73.11-1.113l-1.993-.165zm-.245 2.078c-.058.356-.12.694-.19 1.014l1.956.42c.077-.357.146-.73.208-1.118l-1.974-.316zm-.435 1.998c-.048.165-.097.324-.149.476l1.896.638c.06-.181.119-.367.174-.558l-1.921-.556zm-.151.484c-.062.19-.126.37-.19.545l1.875.697c.074-.201.146-.408.216-.62l-1.901-.622zm-.634 1.584a7.128 7.128 0 01-.546.932l1.638 1.148c.253-.362.486-.76.7-1.194l-1.792-.886zm-1.203 1.686a3.012 3.012 0 01-.367.282l1.088 1.678a4.94 4.94 0 00.61-.468l-1.33-1.492zm-.374.287a5.023 5.023 0 01-.355.213l.96 1.755c.17-.093.335-.193.497-.3l-1.102-1.669zm-1.114.55c-.259.091-.53.164-.816.218l.372 1.965c.38-.072.749-.17 1.105-.295l-.661-1.887zm-1.675.322c-.143.008-.29.012-.44.012v2c.187 0 .372-.005.555-.016l-.114-1.996zm22.6-18.698v-.5h-.5v.5h.5zm4.68 0h.5v-.5h-.5v.5zm0 13.32h-.5v1.73l.923-1.463-.423-.267zm8.4-13.32v-.5h-.276l-.147.233.423.267zm4.68 0h.5v-.5h-.5v.5zm0 19.47v.5h.5V27h-.5zm-4.68 0h-.5v.5h.5V27zm0-13.53h.5v-1.753l-.925 1.49.425.263zM72.046 27v.5h.278l.146-.236-.424-.264zm-4.68 0h-.5v.5h.5V27zm-.5-19.47v.487h1V7.53h-1zm0 1.46v.974h1V8.99h-1zm0 1.947v.974h1v-.974h-1zm0 1.947v.974h1v-.974h-1zm0 1.947v.974h1v-.974h-1zm0 1.947v.974h1v-.974h-1zm0 1.947v.974h1v-.974h-1zm0 1.947v.974h1v-.974h-1zm0 1.947v.974h1v-.974h-1zm0 1.947v.974h1v-.974h-1zm0 1.947V27h1v-.487h-1zm.5.987h.585v-1h-.585v1zm1.755 0h1.17v-1h-1.17v1zm2.34 0h.585v-1h-.585v1zm1.01-.236l.262-.423-.85-.527-.262.422.85.528zm.787-1.269l.525-.845-.85-.528-.525.846.85.527zm1.05-1.691l.525-.846-.85-.527-.525.846.85.527zm1.05-1.691l.525-.846-.85-.527-.525.845.85.528zm1.05-1.691l.525-.846-.85-.527-.525.845.85.528zm1.05-1.692l.525-.845-.85-.528-.525.846.85.527zm1.05-1.691l.525-.846-.85-.527-.525.846.85.527zm1.05-1.691l.525-.846-.85-.527-.525.845.85.528zm1.05-1.692l.262-.422-.85-.528-.262.423.85.527zm-.662-.686v.483h1v-.483h-1zm0 1.45v.966h1v-.966h-1zm0 1.932v.967h1v-.966h-1zm0 1.933v.967h1v-.967h-1zm0 1.933v.967h1v-.967h-1zm0 1.933v.966h1v-.966h-1zm0 1.933v.966h1v-.966h-1zm0 1.933V27h1v-.483h-1zm.5.983h.585v-1h-.585v1zm1.755 0h1.17v-1H82.2v1zm2.34 0h.585v-1h-.585v1zm1.085-.5v-.487h-1V27h1zm0-1.46v-.974h-1v.974h1zm0-1.947v-.974h-1v.974h1zm0-1.947v-.974h-1v.974h1zm0-1.947v-.974h-1v.974h1zm0-1.947v-.974h-1v.974h1zm0-1.947v-.974h-1v.974h1zm0-1.947v-.974h-1v.974h1zm0-1.947v-.974h-1v.974h1zm0-1.947V8.99h-1v.974h1zm0-1.947V7.53h-1v.487h1zm-.5-.987h-.585v1h.585v-1zm-1.755 0H82.2v1h1.17v-1zm-2.34 0h-.585v1h.585v-1zm-1.008.233l-.263.417.846.533.263-.416-.846-.534zm-.788 1.249l-.525.833.846.533.525-.833-.846-.533zm-1.05 1.665l-.525.832.846.534.525-.832-.846-.534zm-1.05 1.665l-.525.832.846.534.525-.832-.846-.534zm-1.05 1.665l-.525.832.846.534.525-.832-.846-.534zm-1.05 1.665l-.525.832.846.534.525-.832-.846-.534zm-1.05 1.665l-.525.832.846.534.525-.832-.846-.534zm-1.05 1.665l-.525.832.846.534.525-.832-.846-.534zm-1.05 1.665l-.262.416.846.534.262-.416-.846-.534zm.66.683v-.476h-1v.476h1zm0-1.427v-.952h-1v.952h1zm0-1.903v-.951h-1v.951h1zm0-1.903v-.951h-1v.951h1zm0-1.903v-.951h-1v.951h1zm0-1.903v-.951h-1v.951h1zm0-1.902v-.952h-1v.952h1zm0-1.903V7.53h-1v.476h1zm-.5-.976h-.584v1h.585v-1zm-1.754 0h-1.17v1h1.17v-1zm-2.34 0h-.585v1h.585v-1zm-.585.5v-1h-1v1h1zm4.68 0h1v-1h-1v1zm0 13.32h-1v3.46l1.845-2.927-.845-.533zm8.4-13.32v-1h-.552l-.294.467.846.533zm4.68 0h1v-1h-1v1zm0 19.47v1h1v-1h-1zm-4.68 0h-1v1h1v-1zm0-13.53h1V9.963l-1.85 2.98.85.527zM72.046 27v1h.556l.293-.473-.85-.527zm-4.68 0h-1v1h1v-1zm-1-19.47v.487h2V7.53h-2zm0 1.46v.974h2V8.99h-2zm0 1.947v.974h2v-.974h-2zm0 1.947v.974h2v-.974h-2zm0 1.947v.974h2v-.974h-2zm0 1.947v.974h2v-.974h-2zm0 1.947v.974h2v-.974h-2zm0 1.947v.974h2v-.974h-2zm0 1.947v.974h2v-.974h-2zm0 1.947v.974h2v-.974h-2zm0 1.947V27h2v-.487h-2zm1 1.487h.585v-2h-.585v2zm1.755 0h1.17v-2h-1.17v2zm2.34 0h.585v-2h-.585v2zm1.434-.473l.263-.422-1.7-1.055-.262.422 1.7 1.055zm.788-1.268l.525-.846-1.7-1.055-.524.846 1.699 1.055zm1.05-1.691l.525-.846-1.7-1.055-.525.846 1.7 1.055zm1.05-1.692l.525-.845-1.7-1.055-.525.846 1.7 1.055zm1.05-1.69l.525-.846-1.7-1.055-.525.845 1.7 1.055zm1.05-1.692l.525-.846-1.7-1.055-.525.846 1.7 1.055zm1.05-1.691l.525-.846-1.7-1.055-.524.846 1.699 1.055zm1.05-1.692l.525-.845-1.7-1.055-.525.846 1.7 1.054zm1.05-1.69l.262-.423-1.699-1.055-.263.422 1.7 1.055zm-1.587-.951v.483h2v-.483h-2zm0 1.45v.966h2v-.966h-2zm0 1.932v.967h2v-.966h-2zm0 1.933v.967h2v-.967h-2zm0 1.933v.967h2v-.967h-2zm0 1.933v.966h2v-.966h-2zm0 1.933v.966h2v-.966h-2zm0 1.933V27h2v-.483h-2zm1 1.483h.585v-2h-.585v2zm1.755 0h1.17v-2H82.2v2zm2.34 0h.585v-2h-.585v2zm1.585-1v-.487h-2V27h2zm0-1.46v-.974h-2v.974h2zm0-1.947v-.974h-2v.974h2zm0-1.947v-.974h-2v.974h2zm0-1.947v-.974h-2v.974h2zm0-1.947v-.974h-2v.974h2zm0-1.947v-.974h-2v.974h2zm0-1.947v-.974h-2v.974h2zm0-1.947v-.974h-2v.974h2zm0-1.947V8.99h-2v.974h2zm0-1.947V7.53h-2v.487h2zm-1-1.487h-.585v2h.585v-2zm-1.755 0H82.2v2h1.17v-2zm-2.34 0h-.585v2h.585v-2zm-1.431.467l-.263.416L81.03 8.48l.263-.417L79.6 6.997zm-.788 1.248l-.525.833 1.692 1.067.525-.833-1.692-1.067zm-1.05 1.665l-.525.833 1.692 1.067.525-.833-1.692-1.067zm-1.05 1.665l-.525.833 1.692 1.067.525-.833-1.692-1.067zm-1.05 1.665l-.525.833 1.692 1.067.525-.833-1.692-1.067zm-1.05 1.665l-.525.833 1.692 1.067.525-.833-1.692-1.067zm-1.05 1.665l-.525.833 1.692 1.067.525-.833-1.692-1.067zm-1.05 1.665l-.525.833 1.692 1.067.525-.833-1.692-1.067zm-1.05 1.665l-.262.417 1.691 1.066.263-.416-1.692-1.067zm1.584.95v-.476h-2v.476h2zm0-1.427v-.952h-2v.952h2zm0-1.903v-.951h-2v.951h2zm0-1.903v-.951h-2v.951h2zm0-1.903v-.951h-2v.951h2zm0-1.903v-.951h-2v.951h2zm0-1.902v-.952h-2v.952h2zm0-1.903V7.53h-2v.476h2zm-1-1.476h-.585v2h.585v-2zm-1.755 0h-1.17v2h1.17v-2zm-2.34 0h-.585v2h.585v-2zm34.077 13.03h.5v-.855l-.745.42.245.435zm-9.9.09l-.304.397.008.005.296-.402zm-1.68-12.12v-.5h-.5v.5h.5zm4.62 0h.5v-.5h-.5v.5zm.69 9.36l-.297.402.01.007.01.007.277-.416zm4.32.09l-.154-.476.154.476zm1.95-.99l.313.39.187-.15v-.24h-.5zm0-8.46v-.5h-.5v.5h.5zm4.68 0h.5v-.5h-.5v.5zm0 19.47v.5h.5V27h-.5zm-4.68 0h-.5v.5h.5V27zm-.245-7.876c-.136.077-.274.15-.415.22l.443.896c.157-.078.311-.159.462-.244l-.49-.872zm-1.278.593c-.291.108-.59.204-.9.287l.26.966c.339-.091.669-.197.989-.317l-.349-.936zm-1.826.493a12.06 12.06 0 01-.944.13l.099.996c.348-.035.688-.082 1.02-.141l-.175-.985zm-1.9.193c-.158.005-.319.007-.48.007v1c.171 0 .342-.003.511-.008l-.031-1zm-.48.007a8.62 8.62 0 01-.524-.016l-.061.998c.192.012.387.018.584.018v-1zm-1.553-.149a6.243 6.243 0 01-.984-.284l-.358.934c.365.14.746.25 1.142.33l.2-.98zm-1.898-.73a5.648 5.648 0 01-.423-.284l-.593.805c.16.12.327.23.498.334l.518-.855zm-.415-.278a3.129 3.129 0 01-.386-.35l-.731.682c.156.168.325.322.508.462l.609-.794zm-.973-1.223a4.79 4.79 0 01-.346-1.036l-.977.215c.1.451.239.87.42 1.251l.903-.43zm-.495-2.155a9.685 9.685 0 01-.017-.575h-1c0 .217.006.428.019.634l.998-.06zm-.017-.575v-.486h-1v.486h1zm0-1.457v-.971h-1v.971h1zm0-1.942v-.972h-1v.972h1zm0-1.943v-.971h-1v.971h1zm0-1.942V7.53h-1v.486h1zm-.5.014h.578v-1h-.578v1zm1.733 0h1.155v-1H92.18v1zm2.31 0h.577v-1h-.577v1zm.077-.5v.463h1V7.53h-1zm0 1.39v.926h1v-.927h-1zm0 1.852v.926h1v-.926h-1zm0 1.852v.927h1v-.927h-1zm0 1.853v.463h1v-.463h-1zm0 .463c0 .206.01.403.03.59l.995-.109a4.453 4.453 0 01-.025-.481h-1zm.407 1.813c.128.212.29.394.486.54l.594-.805a.864.864 0 01-.225-.253l-.855.518zm.506.553c.16.107.333.198.515.274l.384-.923a2.007 2.007 0 01-.344-.183l-.555.832zm1.6.538c.173.017.353.026.537.026v-1c-.153 0-.298-.007-.435-.021l-.102.995zm.537.026c.223 0 .444-.009.664-.026l-.078-.997a7.54 7.54 0 01-.586.023v1zm1.976-.234c.214-.052.427-.112.639-.18l-.31-.951c-.186.06-.374.113-.563.159l.234.972zm.639-.18c.189-.062.372-.128.547-.197l-.369-.93c-.155.062-.317.12-.487.175l.309.951zm1.609-.725c.177-.11.344-.227.499-.35l-.625-.781a4.188 4.188 0 01-.4.28l.526.85zm.686-.741v-.529h-1v.529h1zm0-1.586v-1.058h-1v1.058h1zm0-2.115V11.23h-1v1.058h1zm0-2.115V9.116h-1v1.058h1zm0-2.115V7.53h-1v.529h1zm-.5-.029h.585v-1h-.585v1zm1.755 0h1.17v-1h-1.17v1zm2.34 0h.585v-1h-.585v1zm.085-.5v.487h1V7.53h-1zm0 1.46v.974h1V8.99h-1zm0 1.947v.974h1v-.974h-1zm0 1.947v.974h1v-.974h-1zm0 1.947v.974h1v-.974h-1zm0 1.947v.974h1v-.974h-1zm0 1.947v.974h1v-.974h-1zm0 1.947v.974h1v-.974h-1zm0 1.947v.974h1v-.974h-1zm0 1.947v.974h1v-.974h-1zm0 1.947V27h1v-.487h-1zm.5-.013h-.585v1h.585v-1zm-1.755 0h-1.17v1h1.17v-1zm-2.34 0h-.585v1h.585v-1zm-.085.5v-.465h-1V27h1zm0-1.395v-.93h-1v.93h1zm0-1.86v-.93h-1v.93h1zm0-1.86v-.93h-1v.93h1zm0-1.86v-.465h-1v.465h1zm-.5-.465h1v-1.71l-1.49.838.49.872zm-9.9.09l-.609.793.008.006.008.006.593-.805zm-1.68-12.12v-1h-1v1h1zm4.62 0h1v-1h-1v1zm.69 9.36l-.594.804.02.015.02.013.554-.832zm4.32.09l-.309-.951.309.951zm1.95-.99l.625.78.375-.3v-.48h-1zm0-8.46v-1h-1v1h1zm4.68 0h1v-1h-1v1zm0 19.47v1h1v-1h-1zm-4.68 0h-1v1h1v-1zm-.49-8.312a8.286 8.286 0 01-.392.207l.887 1.793c.165-.081.326-.167.486-.256l-.981-1.744zm-1.208.56a9.58 9.58 0 01-.855.273l.52 1.932c.353-.095.698-.206 1.034-.331l-.699-1.874zm-1.739.47c-.293.052-.595.094-.906.125l.199 1.99c.36-.036.713-.084 1.058-.146l-.351-1.969zm-1.828.185a14.83 14.83 0 01-.465.007v2c.178 0 .353-.003.528-.008l-.063-2zm-.465.007c-.168 0-.332-.005-.493-.015l-.121 1.997c.202.012.407.018.614.018v-2zm-1.452-.139a5.747 5.747 0 01-.906-.261l-.714 1.868c.391.15.799.267 1.22.353l.4-1.96zm-1.74-.668a5.116 5.116 0 01-.384-.258l-1.187 1.61c.173.128.352.247.535.359l1.037-1.711zm-.369-.246a2.648 2.648 0 01-.324-.295l-1.463 1.364c.175.188.365.36.57.517l1.217-1.586zm-.825-1.042a4.294 4.294 0 01-.31-.928l-1.953.429c.106.484.257.939.457 1.36l1.806-.861zm-.448-1.97a9.257 9.257 0 01-.016-.545h-2c0 .226.007.447.02.664l1.996-.119zm-.016-.545v-.486h-2v.486h2zm0-1.457v-.971h-2v.971h2zm0-1.942v-.972h-2v.972h2zm0-1.943v-.971h-2v.971h2zm0-1.942V7.53h-2v.486h2zm-1 .514h.578v-2h-.578v2zm1.733 0h1.155v-2H92.18v2zm2.31 0h.577v-2h-.577v2zm-.423-1v.463h2V7.53h-2zm0 1.39v.926h2v-.927h-2zm0 1.852v.926h2v-.926h-2zm0 1.852v.927h2v-.927h-2zm0 1.853v.463h2v-.463h-2zm0 .463c0 .222.01.437.033.644l1.989-.217a3.952 3.952 0 01-.022-.427h-2zm.479 2.072c.16.263.364.495.617.682l1.189-1.608a.367.367 0 01-.095-.11l-1.711 1.036zm.657.71c.188.126.39.232.6.32l.768-1.847a1.497 1.497 0 01-.259-.137l-1.11 1.664zm1.826.62c.192.019.388.028.588.028v-2a3.83 3.83 0 01-.385-.019l-.203 1.99zm.588.028c.236 0 .47-.01.703-.027l-.156-1.994c-.18.014-.363.021-.547.021v2zm2.093-.248c.227-.055.453-.118.676-.191l-.618-1.902c-.175.057-.35.106-.527.149l.47 1.944zm.676-.191c.199-.065.392-.134.578-.208l-.739-1.858a7.673 7.673 0 01-.457.164l.618 1.902zm1.719-.775c.193-.12.375-.248.547-.385l-1.249-1.562a3.56 3.56 0 01-.352.247l1.054 1.7zm.922-1.166v-.529h-2v.529h2zm0-1.586v-1.058h-2v1.058h2zm0-2.115V11.23h-2v1.058h2zm0-2.115V9.116h-2v1.058h2zm0-2.115V7.53h-2v.529h2zm-1 .471h.585v-2h-.585v2zm1.755 0h1.17v-2h-1.17v2zm2.34 0h.585v-2h-.585v2zm-.415-1v.487h2V7.53h-2zm0 1.46v.974h2V8.99h-2zm0 1.947v.974h2v-.974h-2zm0 1.947v.974h2v-.974h-2zm0 1.947v.974h2v-.974h-2zm0 1.947v.974h2v-.974h-2zm0 1.947v.974h2v-.974h-2zm0 1.947v.974h2v-.974h-2zm0 1.947v.974h2v-.974h-2zm0 1.947v.974h2v-.974h-2zm0 1.947V27h2v-.487h-2zm1-.513h-.585v2h.585v-2zm-1.755 0h-1.17v2h1.17v-2zm-2.34 0h-.585v2h.585v-2zm.415 1v-.465h-2V27h2zm0-1.395v-.93h-2v.93h2zm0-1.86v-.93h-2v.93h2zm0-1.86v-.93h-2v.93h2zm0-1.86v-.465h-2v.465h2zm9.379-12.495v-.5h-.5v.5h.5zm4.68 0h.5v-.5h-.5v.5zm0 7.8h-.5v.5h.5v-.5zm8.28 0v.5h.5v-.5h-.5zm0-7.8v-.5h-.5v.5h.5zm4.68 0h.5v-.5h-.5v.5zm0 19.47v.5h.5V27h-.5zm-4.68 0h-.5v.5h.5V27zm0-8.34h.5v-.5h-.5v.5zm-8.28 0v-.5h-.5v.5h.5zm0 8.34v.5h.5V27h-.5zm-4.68 0h-.5v.5h.5V27zm-.5-19.47v.487h1V7.53h-1zm0 1.46v.974h1V8.99h-1zm0 1.947v.974h1v-.974h-1zm0 1.947v.974h1v-.974h-1zm0 1.947v.974h1v-.974h-1zm0 1.947v.974h1v-.974h-1zm0 1.947v.974h1v-.974h-1zm0 1.947v.974h1v-.974h-1zm0 1.947v.974h1v-.974h-1zm0 1.947v.974h1v-.974h-1zm0 1.947V27h1v-.487h-1zm.5.987h.585v-1h-.585v1zm1.755 0h1.17v-1h-1.17v1zm2.34 0h.585v-1h-.585v1zm1.085-.5v-.521h-1V27h1zm0-1.564v-1.042h-1v1.042h1zm0-2.085V22.31h-1v1.042h1zm0-2.085v-1.042h-1v1.042h1zm0-2.085v-.521h-1v.521h1zm-.5-.021h.517v-1h-.517v1zm1.552 0h1.035v-1h-1.035v1zm2.07 0h1.035v-1h-1.035v1zm2.07 0h1.035v-1h-1.035v1zm2.07 0h.518v-1h-.518v1zm.018-.5v.521h1v-.521h-1zm0 1.564v1.042h1v-1.042h-1zm0 2.085v1.042h1V22.31h-1zm0 2.085v1.042h1v-1.042h-1zm0 2.085V27h1v-.521h-1zm.5 1.021h.585v-1h-.585v1zm1.755 0h1.17v-1h-1.17v1zm2.34 0h.585v-1h-.585v1zm1.085-.5v-.487h-1V27h1zm0-1.46v-.974h-1v.974h1zm0-1.947v-.974h-1v.974h1zm0-1.947v-.974h-1v.974h1zm0-1.947v-.974h-1v.974h1zm0-1.947v-.974h-1v.974h1zm0-1.947v-.974h-1v.974h1zm0-1.947v-.974h-1v.974h1zm0-1.947v-.974h-1v.974h1zm0-1.947V8.99h-1v.974h1zm0-1.947V7.53h-1v.487h1zm-.5-.987h-.585v1h.585v-1zm-1.755 0h-1.17v1h1.17v-1zm-2.34 0h-.585v1h.585v-1zm-1.085.5v.487h1V7.53h-1zm0 1.462v.975h1v-.975h-1zm0 1.95v.976h1v-.975h-1zm0 1.95v.976h1v-.976h-1zm0 1.95v.488h1v-.488h-1zm.5-.012h-.518v1h.518v-1zm-1.553 0h-1.035v1h1.035v-1zm-2.07 0h-1.035v1h1.035v-1zm-2.07 0h-1.035v1h1.035v-1zm-2.07 0h-.517v1h.517v-1zm-.017.5v-.488h-1v.488h1zm0-1.463v-.975h-1v.976h1zm0-1.95v-.974h-1v.975h1zm0-1.95v-.975h-1v.975h1zm0-1.95V7.53h-1v.487h1zm-.5-.987h-.585v1h.585v-1zm-1.755 0h-1.17v1h1.17v-1zm-2.34 0h-.585v1h.585v-1zm-.585.5v-1h-1v1h1zm4.68 0h1v-1h-1v1zm0 7.8h-1v1h1v-1zm8.28 0v1h1v-1h-1zm0-7.8v-1h-1v1h1zm4.68 0h1v-1h-1v1zm0 19.47v1h1v-1h-1zm-4.68 0h-1v1h1v-1zm0-8.34h1v-1h-1v1zm-8.28 0v-1h-1v1h1zm0 8.34v1h1v-1h-1zm-4.68 0h-1v1h1v-1zm-1-19.47v.487h2V7.53h-2zm0 1.46v.974h2V8.99h-2zm0 1.947v.974h2v-.974h-2zm0 1.947v.974h2v-.974h-2zm0 1.947v.974h2v-.974h-2zm0 1.947v.974h2v-.974h-2zm0 1.947v.974h2v-.974h-2zm0 1.947v.974h2v-.974h-2zm0 1.947v.974h2v-.974h-2zm0 1.947v.974h2v-.974h-2zm0 1.947V27h2v-.487h-2zm1 1.487h.585v-2h-.585v2zm1.755 0h1.17v-2h-1.17v2zm2.34 0h.585v-2h-.585v2zm1.585-1v-.521h-2V27h2zm0-1.564v-1.042h-2v1.042h2zm0-2.085V22.31h-2v1.042h2zm0-2.085v-1.042h-2v1.042h2zm0-2.085v-.521h-2v.521h2zm-1 .479h.517v-2h-.517v2zm1.552 0h1.035v-2h-1.035v2zm2.07 0h1.035v-2h-1.035v2zm2.07 0h1.035v-2h-1.035v2zm2.07 0h.518v-2h-.518v2zm-.482-1v.521h2v-.521h-2zm0 1.564v1.042h2v-1.042h-2zm0 2.085v1.042h2V22.31h-2zm0 2.085v1.042h2v-1.042h-2zm0 2.085V27h2v-.521h-2zm1 1.521h.585v-2h-.585v2zm1.755 0h1.17v-2h-1.17v2zm2.34 0h.585v-2h-.585v2zm1.585-1v-.487h-2V27h2zm0-1.46v-.974h-2v.974h2zm0-1.947v-.974h-2v.974h2zm0-1.947v-.974h-2v.974h2zm0-1.947v-.974h-2v.974h2zm0-1.947v-.974h-2v.974h2zm0-1.947v-.974h-2v.974h2zm0-1.947v-.974h-2v.974h2zm0-1.947v-.974h-2v.974h2zm0-1.947V8.99h-2v.974h2zm0-1.947V7.53h-2v.487h2zm-1-1.487h-.585v2h.585v-2zm-1.755 0h-1.17v2h1.17v-2zm-2.34 0h-.585v2h.585v-2zm-1.585 1v.487h2V7.53h-2zm0 1.462v.975h2v-.975h-2zm0 1.95v.976h2v-.975h-2zm0 1.95v.976h2v-.976h-2zm0 1.95v.488h2v-.488h-2zm1-.512h-.518v2h.518v-2zm-1.553 0h-1.035v2h1.035v-2zm-2.07 0h-1.035v2h1.035v-2zm-2.07 0h-1.035v2h1.035v-2zm-2.07 0h-.517v2h.517v-2zm.483 1v-.488h-2v.488h2zm0-1.463v-.975h-2v.976h2zm0-1.95v-.974h-2v.975h2zm0-1.95v-.975h-2v.975h2zm0-1.95V7.53h-2v.487h2zm-1-1.487h-.585v2h.585v-2zm-1.755 0h-1.17v2h1.17v-2zm-2.34 0h-.585v2h.585v-2zm22.741 1v-.5h-.5v.5h.5zm4.68 0h.5v-.5h-.5v.5zm0 7.14h-.5v.5h.5v-.5zm9.39 1.44l-.342.365.006.005.336-.37zM135.733 27h-.5v.5h.5V27zm18-19.47v-.5h-.5v.5h.5zm4.68 0h.5v-.5h-.5v.5zm0 19.47v.5h.5V27h-.5zm-4.68 0h-.5v.5h.5V27zm-8.46-3.81l.255.43.011-.007-.266-.423zm.03-4.86l-.195.46.195-.46zm-4.92-.33v-.5h-.5v.5h.5zm0 5.67h-.5v.5h.5v-.5zm-5.15-16.14v.487h1V7.53h-1zm0 1.46v.974h1V8.99h-1zm0 1.947v.974h1v-.974h-1zm0 1.947v.974h1v-.974h-1zm0 1.947v.974h1v-.974h-1zm0 1.947v.974h1v-.974h-1zm0 1.947v.974h1v-.974h-1zm0 1.947v.974h1v-.974h-1zm0 1.947v.974h1v-.974h-1zm0 1.947v.974h1v-.974h-1zm0 1.947V27h1v-.487h-1zm.5.987h.448v-1h-.448v1zm1.344 0h.896v-1h-.896v1zm1.793 0h.896v-1h-.896v1zm1.792 0h.896v-1h-.896v1zm1.793 0h.448v-1h-.448v1zm.448 0c.177 0 .352-.002.523-.005l-.02-1c-.165.003-.332.005-.503.005v1zm1.574-.05a17.77 17.77 0 001.051-.102l-.127-.992c-.315.04-.646.072-.992.096l.068.998zm2.101-.276a10.62 10.62 0 001.043-.272l-.305-.953c-.29.093-.604.175-.942.245l.204.98zm2.064-.678c.351-.172.671-.368.958-.59l-.611-.791a4.563 4.563 0 01-.787.483l.44.898zm1.774-1.407c.237-.313.424-.654.562-1.024l-.937-.349a3.02 3.02 0 01-.422.77l.797.603zm.819-2.145c.018-.184.028-.372.028-.564h-1c0 .16-.008.314-.023.462l.995.102zm.028-.564v-.457h-1v.457h1zm0-1.372v-.915h-1v.915h1zm0-1.83v-.458h-1v.457h1zm0-.458c0-.272-.016-.532-.05-.781l-.991.133c.027.2.041.416.041.648h1zm-.578-2.327a3.126 3.126 0 00-.546-.654l-.672.741c.143.13.266.277.37.443l.848-.53zm-.54-.648a4.373 4.373 0 00-.648-.5l-.536.844c.183.116.349.245.5.386l.684-.73zm-2.11-1.133a7.272 7.272 0 00-.761-.165l-.162.986c.232.038.451.086.657.143l.266-.964zm-.761-.165a15.114 15.114 0 00-.555-.08l-.125.992c.182.023.354.048.518.074l.162-.986zm-1.658-.188a30.626 30.626 0 00-1.1-.06l-.037 1c.375.013.73.032 1.063.057l.074-.997zm-2.196-.086a51.485 51.485 0 00-.547-.003v1c.182 0 .361.001.536.003l.011-1zm-.547-.003h-.615v1h.615v-1zm-1.845 0h-.615v1h.615v-1zm-.115.5v-.446h-1v.446h1zm0-1.339v-.892h-1v.892h1zm0-1.785v-.892h-1v.892h1zm0-1.785V8.87h-1v.892h1zm0-1.785V7.53h-1v.446h1zm-.5-.946h-.585v1h.585v-1zm-1.755 0h-1.17v1h1.17v-1zm-2.34 0h-.585v1h.585v-1zm16.915.5v.487h1V7.53h-1zm0 1.46v.974h1V8.99h-1zm0 1.947v.974h1v-.974h-1zm0 1.947v.974h1v-.974h-1zm0 1.947v.974h1v-.974h-1zm0 1.947v.974h1v-.974h-1zm0 1.947v.974h1v-.974h-1zm0 1.947v.974h1v-.974h-1zm0 1.947v.974h1v-.974h-1zm0 1.947v.974h1v-.974h-1zm0 1.947V27h1v-.487h-1zm.5.987h.585v-1h-.585v1zm1.755 0h1.17v-1h-1.17v1zm2.34 0h.585v-1h-.585v1zm1.085-.5v-.487h-1V27h1zm0-1.46v-.974h-1v.974h1zm0-1.947v-.974h-1v.974h1zm0-1.947v-.974h-1v.974h1zm0-1.947v-.974h-1v.974h1zm0-1.947v-.974h-1v.974h1zm0-1.947v-.974h-1v.974h1zm0-1.947v-.974h-1v.974h1zm0-1.947v-.974h-1v.974h1zm0-1.947V8.99h-1v.974h1zm0-1.947V7.53h-1v.487h1zm-.5-.987h-.585v1h.585v-1zm-1.755 0h-1.17v1h1.17v-1zm-2.34 0h-.585v1h.585v-1zm-11.625 16.14h-.578v1h.578v-1zm-1.733 0h-.577v1h.577v-1zm-.077.5v-.473h-1v.473h1zm0-1.418v-.944h-1v.945h1zm0-1.89v-.944h-1v.945h1zm0-1.89V18h-1v.473h1zm-.5.028h.592v-1h-.592v1zm1.777 0h.593v-1h-.593v1zm.593 0c.222 0 .43.004.626.012l.04-1c-.21-.008-.432-.012-.666-.012v1zm1.832.14c.219.043.392.095.523.15l.39-.92a3.747 3.747 0 00-.716-.211l-.197.98zm.523.15a.877.877 0 01.218.128l.633-.774a1.881 1.881 0 00-.461-.274l-.39.92zm.446.516c.018.08.029.174.029.284h1c0-.173-.017-.341-.053-.503l-.976.22zm.029.284v.518h1v-.518h-1zm0 1.552v.518h1v-.518h-1zm0 .518c0 .129-.012.244-.034.348l.978.206a2.65 2.65 0 00.056-.554h-1zm-.319.9a1.32 1.32 0 01-.258.207l.533.846c.166-.104.316-.224.447-.362l-.722-.691zm-.246.2a2.183 2.183 0 01-.496.206l.282.96c.267-.079.51-.179.724-.306l-.51-.86zm-1.692.392a10.49 10.49 0 01-.633.018v1c.242 0 .473-.007.693-.02l-.06-.998zM135.733 7.53v-1h-1v1h1zm4.68 0h1v-1h-1v1zm0 7.14h-1v1h1v-1zm9.39 1.44l-.684.73.006.005.006.006.672-.741zM135.733 27h-1v1h1v-1zm18-19.47v-1h-1v1h1zm4.68 0h1v-1h-1v1zm0 19.47v1h1v-1h-1zm-4.68 0h-1v1h1v-1zm-8.46-3.81l.51.86.011-.007.012-.007-.533-.846zm.03-4.86l-.39.921.39-.921zm-4.92-.33v-1h-1v1h1zm0 5.67h-1v1h1v-1zm-5.65-16.14v.487h2V7.53h-2zm0 1.46v.974h2V8.99h-2zm0 1.947v.974h2v-.974h-2zm0 1.947v.974h2v-.974h-2zm0 1.947v.974h2v-.974h-2zm0 1.947v.974h2v-.974h-2zm0 1.947v.974h2v-.974h-2zm0 1.947v.974h2v-.974h-2zm0 1.947v.974h2v-.974h-2zm0 1.947v.974h2v-.974h-2zm0 1.947V27h2v-.487h-2zm1 1.487h.448v-2h-.448v2zm1.344 0h.896v-2h-.896v2zm1.793 0h.896v-2h-.896v2zm1.792 0h.896v-2h-.896v2zm1.793 0h.448v-2h-.448v2zm.448 0c.18 0 .358-.002.534-.005l-.041-2c-.161.003-.326.005-.493.005v2zm1.607-.052c.374-.025.734-.06 1.081-.104l-.254-1.984c-.304.04-.625.07-.962.093l.135 1.995zm2.17-.285c.383-.08.748-.175 1.094-.285l-.61-1.905a8.829 8.829 0 01-.891.232l.407 1.958zm2.181-.718a6.037 6.037 0 001.044-.643l-1.222-1.583c-.198.153-.43.297-.701.43l.879 1.796zm1.954-1.554a4.51 4.51 0 00.631-1.151l-1.874-.698a2.494 2.494 0 01-.352.642l1.595 1.207zm.917-2.395c.021-.202.031-.408.031-.616h-2c0 .144-.007.28-.021.41l1.99.206zm.031-.616v-.457h-2v.457h2zm0-1.372v-.915h-2v.915h2zm0-1.83v-.458h-2v.457h2zm0-.458c0-.292-.018-.575-.054-.848l-1.983.267c.024.175.037.369.037.581h2zm-.654-2.592a3.582 3.582 0 00-.635-.759l-1.343 1.482c.108.098.202.21.282.337l1.696-1.06zm-.622-.748a4.819 4.819 0 00-.722-.557l-1.072 1.688c.158.1.299.21.426.329l1.368-1.46zm-2.319-1.25a7.783 7.783 0 00-.814-.177l-.323 1.974c.216.035.417.079.605.13l.532-1.927zm-.814-.177c-.183-.03-.374-.057-.572-.082l-.25 1.984c.175.022.342.046.499.072l.323-1.974zm-1.702-.193a31.224 31.224 0 00-1.117-.06l-.075 1.998c.37.014.719.033 1.046.057l.146-1.995zm-2.226-.087a50.017 50.017 0 00-.553-.003v2c.181 0 .358 0 .531.003l.022-2zm-.553-.003h-.615v2h.615v-2zm-1.845 0h-.615v2h.615v-2zm.385 1v-.446h-2v.446h2zm0-1.339v-.892h-2v.892h2zm0-1.785v-.892h-2v.892h2zm0-1.785V8.87h-2v.892h2zm0-1.785V7.53h-2v.446h2zm-1-1.446h-.585v2h.585v-2zm-1.755 0h-1.17v2h1.17v-2zm-2.34 0h-.585v2h.585v-2zm16.415 1v.487h2V7.53h-2zm0 1.46v.974h2V8.99h-2zm0 1.947v.974h2v-.974h-2zm0 1.947v.974h2v-.974h-2zm0 1.947v.974h2v-.974h-2zm0 1.947v.974h2v-.974h-2zm0 1.947v.974h2v-.974h-2zm0 1.947v.974h2v-.974h-2zm0 1.947v.974h2v-.974h-2zm0 1.947v.974h2v-.974h-2zm0 1.947V27h2v-.487h-2zm1 1.487h.585v-2h-.585v2zm1.755 0h1.17v-2h-1.17v2zm2.34 0h.585v-2h-.585v2zm1.585-1v-.487h-2V27h2zm0-1.46v-.974h-2v.974h2zm0-1.947v-.974h-2v.974h2zm0-1.947v-.974h-2v.974h2zm0-1.947v-.974h-2v.974h2zm0-1.947v-.974h-2v.974h2zm0-1.947v-.974h-2v.974h2zm0-1.947v-.974h-2v.974h2zm0-1.947v-.974h-2v.974h2zm0-1.947V8.99h-2v.974h2zm0-1.947V7.53h-2v.487h2zm-1-1.487h-.585v2h.585v-2zm-1.755 0h-1.17v2h1.17v-2zm-2.34 0h-.585v2h.585v-2zm-11.625 16.14h-.578v2h.578v-2zm-1.733 0h-.577v2h.577v-2zm.423 1v-.473h-2v.473h2zm0-1.418v-.944h-2v.945h2zm0-1.89v-.944h-2v.945h2zm0-1.89V18h-2v.473h2zm-1 .528h.592v-2h-.592v2zm1.777 0h.593v-2h-.593v2zm.593 0c.216 0 .418.004.606.012l.081-1.999a17.138 17.138 0 00-.687-.013v2zm1.734.13c.196.039.334.082.426.121l.779-1.842a4.217 4.217 0 00-.812-.24l-.393 1.96zm.426.121a.384.384 0 01.096.054l1.266-1.548a2.384 2.384 0 00-.583-.348l-.779 1.842zm.153.165c.009.04.017.096.017.174h2c0-.205-.02-.41-.065-.612l-1.952.438zm.017.174v.518h2v-.518h-2zm0 1.552v.518h2v-.518h-2zm0 .518c0 .098-.009.178-.023.244l1.957.414c.045-.216.066-.436.066-.658h-2zm-.181.554a.82.82 0 01-.162.13l1.066 1.692c.197-.124.379-.27.542-.44l-1.446-1.382zm-.139.116c-.085.05-.209.106-.382.157l.564 1.918c.298-.087.581-.203.838-.355l-1.02-1.72zm-1.467.323c-.187.011-.387.017-.603.017v2c.251 0 .492-.007.723-.02l-.12-1.997zM164.127 7.53v-.5h-.5v.5h.5zm4.68 0h.5v-.5h-.5v.5zm0 13.32h-.5v1.73l.923-1.463-.423-.267zm8.4-13.32v-.5h-.275l-.148.233.423.267zm4.68 0h.5v-.5h-.5v.5zm0 19.47v.5h.5V27h-.5zm-4.68 0h-.5v.5h.5V27zm0-13.53h.5v-1.753l-.924 1.49.424.263zm-8.4 13.53v.5h.278l.147-.236-.425-.264zm-4.68 0h-.5v.5h.5V27zm4.41-22.83l-.326.379.004.003.322-.382zm-1.53-3.42v-.5h-.5v.5h.5zm3.75 0l.497-.058-.051-.442h-.446v.5zm.66 1.83l-.363.343.005.006.005.005.353-.354zm3.21 0l-.353-.354-.005.006-.005.005.363.343zm.69-1.83v-.5h-.445l-.051.442.496.058zm3.75 0h.5v-.5h-.5v.5zm-1.53 3.42l.323.382.004-.003-.327-.379zm-13.91 3.36v.487h1V7.53h-1zm0 1.46v.974h1V8.99h-1zm0 1.947v.974h1v-.974h-1zm0 1.947v.974h1v-.974h-1zm0 1.947v.974h1v-.974h-1zm0 1.947v.974h1v-.974h-1zm0 1.947v.974h1v-.974h-1zm0 1.947v.974h1v-.974h-1zm0 1.947v.974h1v-.974h-1zm0 1.947v.974h1v-.974h-1zm0 1.947V27h1v-.487h-1zm.5.987h.585v-1h-.585v1zm1.755 0h1.17v-1h-1.17v1zm2.34 0h.585v-1h-.585v1zm1.01-.236l.263-.423-.85-.527-.262.422.849.528zm.788-1.269l.525-.845-.85-.528-.525.846.85.527zm1.05-1.691l.525-.846-.85-.527-.525.846.85.527zm1.05-1.691l.525-.846-.85-.527-.525.845.85.528zm1.05-1.691l.525-.846-.85-.527-.525.845.85.528zm1.05-1.692l.525-.845-.85-.528-.525.846.85.527zm1.05-1.691l.525-.846-.85-.527-.525.846.85.527zm1.05-1.691l.525-.846-.85-.527-.525.845.85.528zm1.05-1.692l.262-.422-.849-.528-.263.423.85.527zm-.663-.686v.483h1v-.483h-1zm0 1.45v.966h1v-.966h-1zm0 1.932v.967h1v-.966h-1zm0 1.933v.967h1v-.967h-1zm0 1.933v.967h1v-.967h-1zm0 1.933v.966h1v-.966h-1zm0 1.933v.966h1v-.966h-1zm0 1.933V27h1v-.483h-1zm.5.983h.585v-1h-.585v1zm1.755 0h1.17v-1h-1.17v1zm2.34 0h.585v-1h-.585v1zm1.085-.5v-.487h-1V27h1zm0-1.46v-.974h-1v.974h1zm0-1.947v-.974h-1v.974h1zm0-1.947v-.974h-1v.974h1zm0-1.947v-.974h-1v.974h1zm0-1.947v-.974h-1v.974h1zm0-1.947v-.974h-1v.974h1zm0-1.947v-.974h-1v.974h1zm0-1.947v-.974h-1v.974h1zm0-1.947V8.99h-1v.974h1zm0-1.947V7.53h-1v.487h1zm-.5-.987h-.585v1h.585v-1zm-1.755 0h-1.17v1h1.17v-1zm-2.34 0h-.585v1h.585v-1zm-1.008.233l-.262.417.846.533.262-.416-.846-.534zm-.787 1.249l-.525.833.846.533.525-.833-.846-.533zm-1.05 1.665l-.525.832.846.534.525-.832-.846-.534zm-1.05 1.665l-.525.832.846.534.525-.832-.846-.534zm-1.05 1.665l-.525.832.846.534.525-.832-.846-.534zm-1.05 1.665l-.525.832.846.534.525-.832-.846-.534zm-1.05 1.665l-.525.832.846.534.525-.832-.846-.534zm-1.05 1.665l-.525.832.846.534.525-.832-.846-.534zm-1.05 1.665l-.263.416.846.534.263-.416-.846-.534zm.66.683v-.476h-1v.476h1zm0-1.427v-.952h-1v.952h1zm0-1.903v-.951h-1v.951h1zm0-1.903v-.951h-1v.951h1zm0-1.903v-.951h-1v.951h1zm0-1.903v-.951h-1v.951h1zm0-1.902v-.952h-1v.952h1zm0-1.903V7.53h-1v.476h1zm-.5-.976h-.585v1h.585v-1zm-1.755 0h-1.17v1h1.17v-1zm-2.34 0h-.585v1h.585v-1zm8.325-2.07c-.196 0-.388-.004-.573-.013l-.047.999c.202.01.409.014.62.014v-1zm-1.701-.13a6.641 6.641 0 01-1.076-.27l-.328.945c.385.134.798.237 1.238.31l.166-.985zm-2.05-.73a3.843 3.843 0 01-.426-.312l-.645.764c.168.142.347.273.537.393l.534-.846zm-.422-.309a4.56 4.56 0 01-.315-.299l-.725.688c.121.128.25.25.387.369l.653-.758zm-.831-.98a3.609 3.609 0 01-.343-.776l-.955.295c.107.349.253.68.437.991l.861-.51zm-.506-1.622a4.818 4.818 0 01-.02-.439h-1c0 .18.008.355.024.528l.996-.089zm-.52.061h.469v-1h-.469v1zm1.407 0h.937v-1h-.937v1zm1.875 0h.468v-1h-.468v1zm-.028-.442a7 7 0 00.08.526l.982-.191a6.078 6.078 0 01-.069-.45l-.993.115zm.432 1.597c.1.193.219.368.361.518l.727-.686a1.265 1.265 0 01-.2-.291l-.888.459zm.371.529c.136.135.289.25.459.345l.487-.873a1.08 1.08 0 01-.239-.18l-.707.708zm1.477.658c.159.019.325.028.496.028v-1a3.19 3.19 0 01-.378-.021l-.118.993zm.496.028c.17 0 .333-.009.49-.028l-.118-.993a3.038 3.038 0 01-.372.021v1zm1.5-.341c.169-.097.321-.215.454-.356l-.727-.686a.955.955 0 01-.224.174l.497.868zm.444-.345c.148-.149.273-.321.378-.514l-.877-.48a1.216 1.216 0 01-.208.286l.707.708zm.75-1.594c.034-.168.061-.346.083-.532l-.993-.116a5.539 5.539 0 01-.071.451l.981.197zm-.414-.09h.469v-1h-.469v1zm1.407 0h.937v-1h-.937v1zm1.875 0h.468v-1h-.468v1zm-.032-.5c0 .15-.006.297-.019.439l.996.09a5.74 5.74 0 00.023-.529h-1zm-.182 1.285c-.085.275-.2.534-.343.777l.86.509c.185-.312.331-.642.438-.99l-.955-.296zm-.86 1.457a4.325 4.325 0 01-.314.3l.653.757a5.47 5.47 0 00.387-.369l-.726-.688zm-.31.296a3.843 3.843 0 01-.426.311l.534.846c.189-.12.368-.25.537-.393l-.645-.764zm-1.4.772a6.668 6.668 0 01-1.076.27l.166.986a7.7 7.7 0 001.238-.31l-.328-.946zm-2.204.387c-.186.009-.377.013-.574.013v1c.212 0 .419-.005.621-.014l-.047-1zm-9.484 2.583v-1h-1v1h1zm4.68 0h1v-1h-1v1zm0 13.32h-1v3.46l1.846-2.927-.846-.533zm8.4-13.32v-1h-.551l-.295.467.846.533zm4.68 0h1v-1h-1v1zm0 19.47v1h1v-1h-1zm-4.68 0h-1v1h1v-1zm0-13.53h1V9.963l-1.849 2.98.849.527zm-8.4 13.53v1h.557l.293-.473-.85-.527zm-4.68 0h-1v1h1v-1zm4.41-22.83l-.653.757.009.008.644-.765zm-1.53-3.42v-1h-1v1h1zm3.75 0l.994-.116-.103-.884h-.891v1zm.66 1.83l-.727.687.01.01.01.01.707-.707zm3.21 0l-.707-.707-.01.01-.01.01.727.687zm.69-1.83v-1h-.89l-.103.884.993.116zm3.75 0h1v-1h-1v1zm-1.53 3.42l.645.765.009-.008-.654-.757zm-14.41 3.36v.487h2V7.53h-2zm0 1.46v.974h2V8.99h-2zm0 1.947v.974h2v-.974h-2zm0 1.947v.974h2v-.974h-2zm0 1.947v.974h2v-.974h-2zm0 1.947v.974h2v-.974h-2zm0 1.947v.974h2v-.974h-2zm0 1.947v.974h2v-.974h-2zm0 1.947v.974h2v-.974h-2zm0 1.947v.974h2v-.974h-2zm0 1.947V27h2v-.487h-2zm1 1.487h.585v-2h-.585v2zm1.755 0h1.17v-2h-1.17v2zm2.34 0h.585v-2h-.585v2zm1.435-.473l.262-.422-1.699-1.055-.262.422 1.699 1.055zm.787-1.268l.525-.846-1.699-1.055-.525.846 1.699 1.055zm1.05-1.691l.525-.846-1.699-1.055-.525.846 1.699 1.055zm1.05-1.692l.525-.845-1.699-1.055-.525.846 1.699 1.055zm1.05-1.69l.525-.846-1.699-1.055-.525.845 1.699 1.055zm1.05-1.692l.525-.846-1.699-1.055-.525.846 1.699 1.055zm1.05-1.691l.525-.846-1.699-1.055-.525.846 1.699 1.055zm1.05-1.692l.525-.845-1.699-1.055-.525.846 1.699 1.054zm1.05-1.69l.263-.423-1.699-1.055-.263.422 1.699 1.055zm-1.587-.951v.483h2v-.483h-2zm0 1.45v.966h2v-.966h-2zm0 1.932v.967h2v-.966h-2zm0 1.933v.967h2v-.967h-2zm0 1.933v.967h2v-.967h-2zm0 1.933v.966h2v-.966h-2zm0 1.933v.966h2v-.966h-2zm0 1.933V27h2v-.483h-2zm1 1.483h.585v-2h-.585v2zm1.755 0h1.17v-2h-1.17v2zm2.34 0h.585v-2h-.585v2zm1.585-1v-.487h-2V27h2zm0-1.46v-.974h-2v.974h2zm0-1.947v-.974h-2v.974h2zm0-1.947v-.974h-2v.974h2zm0-1.947v-.974h-2v.974h2zm0-1.947v-.974h-2v.974h2zm0-1.947v-.974h-2v.974h2zm0-1.947v-.974h-2v.974h2zm0-1.947v-.974h-2v.974h2zm0-1.947V8.99h-2v.974h2zm0-1.947V7.53h-2v.487h2zm-1-1.487h-.585v2h.585v-2zm-1.755 0h-1.17v2h1.17v-2zm-2.34 0h-.585v2h.585v-2zm-1.431.467l-.262.416 1.692 1.067.262-.417-1.692-1.066zm-.787 1.248l-.525.833 1.692 1.067.525-.833-1.692-1.067zm-1.05 1.665l-.525.833 1.692 1.067.525-.833-1.692-1.067zm-1.05 1.665l-.525.833 1.692 1.067.525-.833-1.692-1.067zm-1.05 1.665l-.525.833 1.692 1.067.525-.833-1.692-1.067zm-1.05 1.665l-.525.833 1.692 1.067.525-.833-1.692-1.067zm-1.05 1.665l-.525.833 1.692 1.067.525-.833-1.692-1.067zm-1.05 1.665l-.525.833 1.692 1.067.525-.833-1.692-1.067zm-1.05 1.665l-.263.417 1.692 1.066.263-.416-1.692-1.067zm1.583.95v-.476h-2v.476h2zm0-1.427v-.952h-2v.952h2zm0-1.903v-.951h-2v.951h2zm0-1.903v-.951h-2v.951h2zm0-1.903v-.951h-2v.951h2zm0-1.903v-.951h-2v.951h2zm0-1.902v-.952h-2v.952h2zm0-1.903V7.53h-2v.476h2zm-1-1.476h-.585v2h.585v-2zm-1.755 0h-1.17v2h1.17v-2zm-2.34 0h-.585v2h.585v-2zm8.325-2.07c-.189 0-.372-.004-.55-.013l-.094 1.998c.21.01.425.015.644.015v-2zm-1.618-.123a6.178 6.178 0 01-.996-.25l-.655 1.89c.414.144.855.254 1.319.332l.332-1.972zm-1.866-.66a3.37 3.37 0 01-.371-.272l-1.289 1.53c.186.157.384.3.592.432l1.068-1.69zm-.362-.264a3.784 3.784 0 01-.279-.265l-1.451 1.377c.133.14.274.274.423.402l1.307-1.514zm-.728-.856a3.117 3.117 0 01-.295-.67l-1.911.59c.119.386.281.753.485 1.099l1.721-1.019zm-.438-1.413a4.183 4.183 0 01-.018-.394h-2c0 .193.009.385.026.573l1.992-.179zm-1.018.606h.469v-2h-.469v2zm1.407 0h.937v-2h-.937v2zm1.875 0h.468v-2h-.468v2zm-.525-.885a7.2 7.2 0 00.087.565l1.963-.383a4.92 4.92 0 01-.063-.413l-1.987.231zm.485 1.77c.117.228.263.442.441.632l1.454-1.374a.773.773 0 01-.119-.177l-1.776.918zm.461.652c.17.17.361.312.569.429l.975-1.746a.615.615 0 01-.13-.097l-1.414 1.414zm1.771.801c.181.022.367.032.556.032v-2a2.53 2.53 0 01-.318-.018l-.238 1.986zm.556.032c.187 0 .371-.01.549-.031l-.236-1.986c-.092.01-.195.017-.313.017v2zm1.748-.407c.21-.12.402-.269.569-.446L173.9 1.893a.46.46 0 01-.108.084l.993 1.736zm.549-.426a2.73 2.73 0 00.464-.627l-1.754-.96a.752.752 0 01-.124.173l1.414 1.414zm.887-1.848a6.97 6.97 0 00.09-.574l-1.987-.23a4.81 4.81 0 01-.064.41l1.961.394zm-.904.311h.469v-2h-.469v2zm1.407 0h.937v-2h-.937v2zm1.875 0h.468v-2h-.468v2zm-.532-1c0 .136-.005.268-.017.394l1.992.179a6.38 6.38 0 00.025-.573h-2zm-.16 1.138a3.12 3.12 0 01-.296.67l1.722 1.018c.204-.346.366-.713.485-1.098l-1.911-.59zm-.744 1.26c-.086.09-.179.178-.279.265l1.307 1.514a6.02 6.02 0 00.422-.402l-1.45-1.377zm-.27.257a3.37 3.37 0 01-.371.271l1.067 1.691c.209-.131.407-.275.593-.432l-1.289-1.53zm-1.242.683a6.138 6.138 0 01-.995.249l.332 1.972a8.18 8.18 0 001.319-.331l-.656-1.89zm-2.064.36c-.177.008-.36.012-.55.012v2c.219 0 .434-.005.645-.015l-.095-1.998z" fill="#77C2F9" fill-opacity=".9"/></svg>