<svg width="273" height="41" fill="none" xmlns="http://www.w3.org/2000/svg"><path d="M9.644 40.135l-.077.494h.001l.076-.494zm-4.23-1.08l.163-.472-.003-.001-.16.473zm-3.735-2.61l-.404.295.004.005.4-.3zM1.274 15.34l-.433-.25-.005.008.438.242zm2.52-2.7l-.268-.422-.004.002.272.42zm3.33-1.44l.141.48-.141-.48zm3.69-.72l.039.498h.003l-.042-.498zm6.93.045l-.059.497h.007l.008.001.044-.498zm3.42.63l.14-.48-.014-.004-.126.484zm3.555 1.53l.27-.42-.27.42zm2.34 2.52l-.432.252.002.003.43-.255zm-.315 20.97l-.402-.298-.005.006.407.292zm-3.51 2.655l-.186-.464.186.464zm-6.525-3.465l.045.498h.01l.01-.002-.065-.496zm2.115-.45l-.14-.48.14.48zm1.62-1.035l-.398-.304-.002.004.4.3zm-1.08-17.64l-.238.44.01.005.228-.445zm-10.35-.045l-.229-.445.229.445zM7.934 33.88l-.398.304.005.006.005.005.388-.315zm1.71 1.035l.14-.48-.006-.002-.134.482zm2.07.45l-.068.495.012.002.012.001.044-.498zm2.43 4.585c-.378 0-.75-.006-1.113-.017l-.032 1c.375.011.756.017 1.145.017v-1zm-3.328-.168c-.374-.04-.74-.087-1.097-.141l-.15.988a25.9 25.9 0 001.14.148l.107-.995zm-1.096-.141a20.541 20.541 0 01-1.05-.192l-.204.98c.371.077.738.144 1.1.2l.154-.988zm-3.122-.726a27.803 27.803 0 01-1.02-.332l-.328.944c.355.124.708.239 1.057.345l.291-.957zm-1.024-.333a8.635 8.635 0 01-1.011-.415l-.439.899c.358.174.734.328 1.129.462l.321-.946zm-2.783-1.634a6.49 6.49 0 01-.712-.803l-.8.6c.249.332.523.64.821.926l.69-.723zm-.709-.798a6.161 6.161 0 01-.565-.937l-.899.44c.186.38.405.743.657 1.087l.807-.59zM.9 33.106a8.65 8.65 0 01-.07-1.116h-1c0 .428.026.843.078 1.246l.992-.13zM.83 31.99v-1.065h-1v1.065h1zm0-3.195v-2.13h-1v2.13h1zm0-4.26v-2.13h-1v2.13h1zm0-4.26V19.21h-1v1.065h1zm0-1.065c0-.326.017-.643.05-.95l-.994-.11a9.7 9.7 0 00-.056 1.06h1zm.487-2.779c.112-.292.244-.575.395-.85l-.875-.483c-.174.314-.325.64-.454.975l.934.358zm.39-.84c.15-.26.31-.506.48-.738l-.809-.589a9.37 9.37 0 00-.536.825l.865.502zm1.662-2.014c.221-.187.454-.36.697-.517l-.543-.84c-.279.18-.546.378-.8.592l.646.765zm.693-.515c.234-.148.484-.29.751-.427l-.456-.89c-.292.15-.569.307-.83.473l.535.844zm2.363-1.111c.269-.095.55-.185.841-.271l-.283-.96c-.307.091-.604.187-.89.288l.332.943zm.841-.271c.302-.09.598-.17.888-.243l-.243-.97c-.305.076-.614.16-.928.253l.283.96zm2.684-.6c.308-.045.61-.078.904-.102l-.079-.996c-.316.025-.639.06-.967.108l.142.99zm.907-.102c.27-.023.542-.043.82-.06l-.062-.998a35.28 35.28 0 00-.843.062l.085.996zm2.464-.125c.27-.005.545-.008.824-.008v-1c-.285 0-.566.003-.843.008l.019 1zm.824-.008c.306 0 .603.003.89.009l.022-1a44.95 44.95 0 00-.912-.009v1zm2.664.092c.307.024.6.052.877.085l.117-.994a23.068 23.068 0 00-.917-.088l-.077.997zm.892.086c.27.024.548.056.837.098l.142-.99a16.517 16.517 0 00-.891-.104l-.088.996zm2.507.412c.27.062.547.13.83.204l.253-.968c-.293-.076-.58-.147-.86-.211l-.223.975zm.817.2c.313.091.614.187.9.287l.329-.945c-.305-.106-.62-.206-.95-.302l-.28.96zm2.625 1.012c.287.147.553.3.799.458l.542-.84a10.29 10.29 0 00-.885-.508l-.456.89zm.799.458c.223.144.437.304.642.478l.648-.761a7.078 7.078 0 00-.748-.557l-.542.84zm1.733 1.666c.156.215.304.444.446.686l.864-.504a9.205 9.205 0 00-.5-.769l-.81.587zm.448.69c.162.272.303.56.422.864l.93-.366a6.957 6.957 0 00-.493-1.01l-.86.511zm.87 2.758c.033.318.05.648.05.991h1c0-.376-.019-.74-.056-1.094l-.994.104zm.05.991v1.065h1V19.21h-1zm0 3.195v2.13h1v-2.13h-1zm0 4.26v2.13h1v-2.13h-1zm0 4.26v1.065h1v-1.065h-1zm0 1.065c0 .362-.023.71-.069 1.045l.99.135c.053-.382.079-.775.079-1.18h-1zm-.667 3.012a5.912 5.912 0 01-.54.875l.803.596c.24-.324.451-.664.63-1.021l-.893-.45zm-.545.881a6.58 6.58 0 01-.668.792l.711.703c.28-.283.537-.587.77-.911l-.813-.584zm-2.334 2.034c-.3.164-.618.314-.955.449l.371.928a9.803 9.803 0 001.064-.5l-.48-.877zm-.955.449c-.349.14-.703.27-1.063.39l.318.949c.378-.127.75-.264 1.116-.41l-.371-.93zm-3.25.997c-.725.16-1.472.289-2.24.384l.122.992a24.841 24.841 0 002.335-.4l-.216-.976zm-4.512.565c-.377.015-.757.022-1.142.022v1c.397 0 .79-.007 1.18-.022l-.038-1zm-1.052-4.973c-.216 0-.423-.001-.624-.004l-.014 1c.205.002.418.004.638.004v-1zm-1.864-.045a19.704 19.704 0 01-.613-.043l-.087.996c.204.018.418.033.645.045l.055-.998zm-.589-.04c-.165-.023-.333-.05-.503-.08l-.176.984c.183.033.364.062.544.086l.135-.99zm-1.502-.299a15.85 15.85 0 01-.495-.136l-.28.96c.177.052.352.1.526.145l.25-.969zm-.5-.137a4.031 4.031 0 01-.428-.145l-.376.926c.17.07.348.13.534.181l.27-.962zm-1.168-.578a2.122 2.122 0 01-.29-.291l-.775.63c.126.156.268.299.424.43l.64-.769zm-.28-.28a2.181 2.181 0 01-.217-.347l-.894.449c.09.178.195.347.316.506l.795-.608zm-.455-1.148a3.388 3.388 0 01-.027-.438h-1c0 .194.011.383.035.567l.992-.13zm-.027-.438v-1.069h-1v1.069h1zm0-3.206v-2.138h-1v2.138h1zm0-4.275V22.37h-1v2.138h1zm0-4.275v-1.069h-1v1.069h1zm0-1.069c0-.29.026-.555.075-.794l-.98-.203a4.92 4.92 0 00-.095.997h1zm.771-2.092a2.68 2.68 0 01.622-.433l-.457-.89a3.68 3.68 0 00-.851.595l.686.728zm.622-.433c.312-.16.689-.3 1.136-.416l-.252-.968c-.502.13-.95.294-1.34.494l.456.89zm3.651-.767a24.12 24.12 0 011.296-.033v-1c-.473 0-.923.011-1.35.034l.054.999zm1.296-.033c.457 0 .89.012 1.296.035l.057-.998a23.814 23.814 0 00-1.353-.037v1zm3.81.404a5.35 5.35 0 011.127.436l.475-.88a6.346 6.346 0 00-1.338-.52l-.265.964zm1.136.44c.242.125.447.268.618.427l.681-.732a3.733 3.733 0 00-.842-.584l-.457.89zm1.317 1.7c.05.235.077.495.077.781h1c0-.347-.032-.677-.099-.99l-.978.21zm.077.781v1.069h1v-1.069h-1zm0 3.206v2.138h1V22.37h-1zm0 4.275v2.138h1v-2.138h-1zm0 4.275v1.069h1v-1.069h-1zm0 1.069c0 .154-.01.3-.028.438l.992.13c.024-.185.036-.374.036-.568h-1zm-.265 1.24a2.186 2.186 0 01-.218.346l.795.608c.121-.159.227-.328.316-.506l-.893-.449zm-.22.35a1.945 1.945 0 01-.264.286l.665.747a2.97 2.97 0 00.399-.433l-.8-.6zm-.955.712c-.125.053-.26.1-.405.143l.28.96c.18-.053.352-.113.516-.183l-.39-.92zm-.405.143c-.17.05-.338.095-.505.138l.245.97c.18-.046.36-.095.54-.148l-.28-.96zm-1.526.356c-.172.03-.344.056-.514.078l.13.992c.184-.024.369-.052.555-.085l-.17-.985zm-.495.076c-.185.017-.385.031-.6.044l.056.998c.225-.013.436-.028.635-.046l-.09-.996zm-1.817.084c-.196.003-.4.004-.612.004v1c.216 0 .425-.001.626-.004l-.014-1zm-5.202 5.184l-.154.988h.003l.15-.988zm-4.23-1.08l.327-.945-.006-.002-.321.947zm-3.735-2.61l-.807.59.007.01.8-.6zM1.274 15.34l-.866-.501-.005.009-.005.008.876.484zm2.52-2.7l-.535-.845-.009.005.544.84zm3.33-1.44l.283.959-.283-.959zm3.69-.72l.078.997h.007l-.085-.997zm6.93.045l-.117.993.014.002.015.001.088-.996zm3.42.63l.28-.96-.014-.004-.013-.003-.253.967zm3.555 1.53l.542-.84-.542.84zm2.34 2.52l-.864.504.004.007.86-.511zm-.315 20.97l-.803-.597-.005.007-.005.007.813.583zm-3.51 2.655l-.372-.928.372.928zm-6.525-3.465l.09.996.02-.002.019-.002-.13-.992zm2.115-.45l-.28-.96.28.96zm1.62-1.035l-.795-.608-.005.008.8.6zm-1.08-17.64l-.476.88.01.005.009.005.457-.89zm-10.35-.045l-.457-.89.457.89zM7.934 33.88l-.795.607.01.012.008.012.777-.631zm1.71 1.035l.28-.96-.01-.003-.27.963zm2.07.45l-.136.99.025.004.024.002.087-.996zm2.43 4.085c-.373 0-.739-.006-1.097-.017l-.064 1.999c.38.012.767.018 1.16.018v-2zm-3.275-.165a24.38 24.38 0 01-1.075-.139l-.3 1.978c.38.057.767.107 1.162.15l.213-1.989zm-1.072-.138a20.223 20.223 0 01-1.024-.187l-.409 1.958c.379.079.754.147 1.126.205l.307-1.976zm-3.053-.71c-.33-.1-.665-.21-1.003-.327L5.086 40c.361.125.72.242 1.076.35l.582-1.913zm-1.009-.329a8.142 8.142 0 01-.953-.39l-.877 1.797c.378.184.773.346 1.187.487l.643-1.894zm-2.599-1.522a5.993 5.993 0 01-.657-.741l-1.6 1.2c.265.354.557.683.876.988l1.381-1.447zm-.65-.731a5.67 5.67 0 01-.52-.861l-1.797.878c.2.408.434.796.703 1.163l1.614-1.18zm-1.092-2.813a8.15 8.15 0 01-.065-1.052h-2c0 .448.027.885.082 1.31l1.983-.258zM1.33 31.99v-1.065h-2v1.065h2zm0-3.195v-2.13h-2v2.13h2zm0-4.26v-2.13h-2v2.13h2zm0-4.26V19.21h-2v1.065h2zm0-1.065a8.2 8.2 0 01.047-.896l-1.988-.218a10.2 10.2 0 00-.06 1.114h2zm.454-2.6c.104-.27.226-.533.366-.786L.4 14.856a8.28 8.28 0 00-.484 1.037l1.868.717zm.356-.769c.142-.245.292-.476.45-.693L.973 13.97c-.2.276-.39.566-.565.869l1.731 1.002zm1.551-1.882c.205-.174.421-.333.647-.48L3.25 11.8c-.296.192-.58.402-.85.63l1.29 1.529zm.639-.474c.22-.14.457-.275.711-.405l-.912-1.78a10.96 10.96 0 00-.87.495l1.07 1.69zm2.26-1.062c.261-.092.534-.18.818-.264l-.567-1.918c-.315.093-.62.191-.914.295l.664 1.887zm.818-.264c.295-.087.584-.166.868-.237l-.486-1.94a22.99 22.99 0 00-.949.259l.567 1.918zm2.613-.585c.298-.042.59-.075.872-.097l-.157-1.994c-.328.026-.66.063-.999.112l.284 1.98zm.879-.098c.265-.022.534-.042.807-.059l-.123-1.996a37.28 37.28 0 00-.855.063l.171 1.992zm2.43-.123c.268-.005.54-.008.815-.008v-2c-.288 0-.572.003-.853.008l.038 2zm.815-.008c.303 0 .596.003.88.009l.042-2a45.955 45.955 0 00-.922-.009v2zm2.625.09c.301.024.587.051.858.083l.233-1.986a23.92 23.92 0 00-.937-.09l-.154 1.993zm.887.086c.26.023.53.054.81.095l.284-1.98c-.314-.045-.62-.08-.919-.107l-.175 1.992zm2.44.401c.264.06.536.127.814.2l.507-1.934a27.77 27.77 0 00-.876-.215l-.445 1.95zm.788.193c.306.09.598.182.877.28l.655-1.89a20.394 20.394 0 00-.972-.31l-.56 1.92zm2.537.977c.274.14.525.285.756.433l1.084-1.68c-.291-.188-.6-.365-.928-.533l-.912 1.78zm.756.433c.204.132.4.278.59.439l1.296-1.523a7.55 7.55 0 00-.802-.596l-1.084 1.68zm1.6 1.54c.145.2.284.415.418.644l1.727-1.008a9.746 9.746 0 00-.527-.81l-1.619 1.174zm.422.651c.148.249.277.513.387.792l1.861-.732a7.454 7.454 0 00-.529-1.082L26.2 15.716zm.802 2.556c.032.298.048.611.048.938h2c0-.392-.02-.774-.058-1.146L27 18.27zm.048.938v1.065h2V19.21h-2zm0 3.195v2.13h2v-2.13h-2zm0 4.26v2.13h2v-2.13h-2zm0 4.26v1.065h2v-1.065h-2zm0 1.065c0 .341-.022.667-.064.978l1.981.27c.055-.406.083-.822.083-1.248h-2zm-.614 2.788c-.14.278-.304.545-.494.8l1.605 1.194c.258-.347.484-.713.676-1.096l-1.787-.898zm-.504.814c-.187.26-.393.504-.617.732l1.422 1.406c.298-.302.572-.626.82-.972l-1.625-1.166zm-2.168 1.887a8.301 8.301 0 01-.9.422l.742 1.857c.39-.156.763-.33 1.118-.524l-.96-1.755zm-.9.422c-.34.136-.686.263-1.038.382l.638 1.895c.386-.13.767-.27 1.142-.42l-.743-1.857zm-3.173.974c-.71.157-1.44.283-2.194.376l.246 1.985c.813-.1 1.608-.237 2.382-.409l-.434-1.952zm-4.424.554c-.37.014-.743.021-1.122.021v2c.404 0 .803-.008 1.199-.023l-.077-1.998zm-1.032-4.974c-.213 0-.419-.001-.617-.004l-.028 2c.208.002.423.004.645.004v-2zm-1.836-.044a19.042 19.042 0 01-.598-.042l-.173 1.992c.209.018.43.034.66.047l.11-1.997zm-.55-.037a11.625 11.625 0 01-.481-.076l-.354 1.968c.19.035.379.064.566.09l.27-1.982zm-1.444-.287c-.158-.04-.318-.085-.48-.132l-.56 1.92c.182.053.362.103.542.149l.498-1.937zm-.49-.135a3.51 3.51 0 01-.376-.127l-.75 1.854a5.6 5.6 0 00.586.199l.54-1.926zm-.983-.48a1.618 1.618 0 01-.221-.223l-1.553 1.262c.148.18.312.347.492.497l1.282-1.535zm-.203-.2a1.678 1.678 0 01-.168-.267l-1.787.897c.104.207.226.402.366.585l1.589-1.215zm-.356-.909a2.888 2.888 0 01-.023-.373h-2c0 .214.013.425.04.632l1.983-.259zm-.023-.373v-1.069h-2v1.069h2zm0-3.206v-2.138h-2v2.138h2zm0-4.275V22.37h-2v2.138h2zm0-4.275v-1.069h-2v1.069h2zm0-1.069c0-.261.023-.491.065-.693l-1.959-.405a5.42 5.42 0 00-.106 1.098h2zm.615-1.729c.135-.128.301-.246.506-.351l-.913-1.78a4.179 4.179 0 00-.967.677l1.374 1.454zm.506-.351a5.05 5.05 0 011.034-.378L10 14.772a7.032 7.032 0 00-1.443.533l.913 1.78zm3.45-.713c.397-.021.82-.032 1.269-.032v-2c-.481 0-.94.012-1.377.035l.109 1.997zm1.269-.032c.449 0 .871.012 1.268.034l.113-1.997a24.307 24.307 0 00-1.381-.037v2zm3.677.386c.415.114.752.248 1.022.394l.951-1.76a6.84 6.84 0 00-1.444-.562l-.529 1.928zm1.04.404c.206.105.372.222.507.348l1.362-1.465a4.236 4.236 0 00-.955-.663l-.913 1.78zm1.057 1.358c.042.197.066.422.066.677h2c0-.377-.035-.743-.11-1.093l-1.956.416zm.066.677v1.069h2v-1.069h-2zm0 3.206v2.138h2V22.37h-2zm0 4.275v2.138h2v-2.138h-2zm0 4.275v1.069h2v-1.069h-2zm0 1.069c0 .134-.009.258-.023.373l1.983.259c.027-.207.04-.418.04-.632h-2zm-.212 1.015a1.673 1.673 0 01-.168.267l1.589 1.215c.14-.183.262-.378.366-.585l-1.787-.897zm-.173.275a1.447 1.447 0 01-.196.212l1.33 1.494a3.45 3.45 0 00.466-.506l-1.6-1.2zm-.75.551a3.168 3.168 0 01-.35.124l.56 1.92a5.16 5.16 0 00.571-.203l-.781-1.84zm-.35.124c-.164.048-.327.092-.488.133l.491 1.939c.185-.047.37-.098.557-.152l-.56-1.92zm-1.471.343a9.68 9.68 0 01-.494.075l.259 1.984c.191-.025.383-.055.576-.088l-.341-1.97zm-.455.071c-.179.016-.373.03-.583.042l.112 1.997c.23-.013.447-.029.652-.047l-.18-1.992zm-1.78.082a39.14 39.14 0 01-.604.004v2c.218 0 .43-.001.633-.004l-.028-2zm27.86-18.661h.5v-.5h-.5v.5zm-9 0h-.5v.5h.5v-.5zm0-4.995v-.5h-.5v.5h.5zm24.975 0h.5v-.5h-.5v.5zm0 4.995v.5h.5v-.5h-.5zm-8.955 0v-.5h-.5v.5h.5zm0 24.21v.5h.5V40h-.5zm-7.02 0h-.5v.5h.5V40zm0-24.71h-1.125v1h1.125v-1zm-3.375 0h-2.25v1h2.25v-1zm-4.5 0h-1.125v1h1.125v-1zm-.625.5v-1.249h-1v1.249h1zm0-3.746v-1.249h-1v1.249h1zm-.5-.749h1.04v-1h-1.04v1zm3.122 0H38.9v-1h-2.08v1zm4.162 0h2.081v-1h-2.08v1zm4.163 0h2.081v-1h-2.081v1zm4.162 0h2.081v-1h-2.08v1zm4.163 0h2.081v-1H53.47v1zm4.162 0h1.04v-1h-1.04v1zm.54-.5v1.249h1v-1.249h-1zm0 3.746v1.249h1v-1.249h-1zm.5.749h-1.118v1h1.119v-1zm-3.357 0h-2.239v1h2.239v-1zm-4.478 0h-1.12v1h1.12v-1zm-1.62.5v1.009h1V15.79h-1zm0 3.026v2.018h1v-2.018h-1zm0 4.035v2.018h1V22.85h-1zm0 4.035v2.018h1v-2.018h-1zm0 4.035v2.018h1V30.92h-1zm0 4.035v2.018h1v-2.018h-1zm0 4.035V40h1v-1.009h-1zm.5.509h-.877v1h.878v-1zm-2.632 0H45.33v1h1.755v-1zm-3.51 0h-.877v1h.877v-1zm-.377.5v-1.009h-1V40h1zm0-3.026v-2.018h-1v2.018h1zm0-4.035V30.92h-1v2.018h1zm0-4.035v-2.018h-1v2.018h1zm0-4.035V22.85h-1v2.018h1zm0-4.035v-2.018h-1v2.018h1zm0-4.035V15.79h-1v1.009h1zm-.5-1.009h1v-1h-1v1zm-9 0h-1v1h1v-1zm0-4.995v-1h-1v1h1zm24.975 0h1v-1h-1v1zm0 4.995v1h1v-1h-1zm-8.955 0v-1h-1v1h1zm0 24.21v1h1v-1h-1zm-7.02 0h-1v1h1v-1zm0-25.21h-1.125v2h1.125v-2zm-3.375 0h-2.25v2h2.25v-2zm-4.5 0h-1.125v2h1.125v-2zm-.125 1v-1.249h-2v1.249h2zm0-3.746v-1.249h-2v1.249h2zm-1-.249h1.04v-2h-1.04v2zm3.122 0H38.9v-2h-2.08v2zm4.162 0h2.081v-2h-2.08v2zm4.163 0h2.081v-2h-2.081v2zm4.162 0h2.081v-2h-2.08v2zm4.163 0h2.081v-2H53.47v2zm4.162 0h1.04v-2h-1.04v2zm.04-1v1.249h2v-1.249h-2zm0 3.746v1.249h2v-1.249h-2zm1 .249h-1.118v2h1.119v-2zm-3.357 0h-2.239v2h2.239v-2zm-4.478 0h-1.12v2h1.12v-2zm-2.12 1v1.009h2V15.79h-2zm0 3.026v2.018h2v-2.018h-2zm0 4.035v2.018h2V22.85h-2zm0 4.035v2.018h2v-2.018h-2zm0 4.035v2.018h2V30.92h-2zm0 4.035v2.018h2v-2.018h-2zm0 4.035V40h2v-1.009h-2zm1 .009h-.877v2h.878v-2zm-2.632 0H45.33v2h1.755v-2zm-3.51 0h-.877v2h.877v-2zm.123 1v-1.009h-2V40h2zm0-3.026v-2.018h-2v2.018h2zm0-4.035V30.92h-2v2.018h2zm0-4.035v-2.018h-2v2.018h2zm0-4.035V22.85h-2v2.018h2zm0-4.035v-2.018h-2v2.018h2zm0-4.035V15.79h-2v1.009h2zM64.96 40.18l.109-.488-.013-.003-.013-.002-.083.493zM63.79 40h-.5v.441l.438.055.063-.496zm0-5.49l.068-.495-.567-.078v.573h.5zm5.13-1.125l.36.347.007-.006-.367-.341zm1.755-5.13l-.494-.076v.006l.495.07zm.585-17.46v-.5h-.5v.5h.5zm21.24 0h.5v-.5h-.5v.5zM92.5 40v.5h.5V40h-.5zm-7.02 0h-.5v.5h.5V40zm0-24.255h.5v-.5h-.5v.5zm-7.874 0v-.5h-.5v.5h.5zm-1.53 16.92l-.474-.16-.002.005.476.155zm-3.915 6.12l-.272-.42-.004.003.275.417zm-5.67 1.075c-.116 0-.234-.004-.354-.011l-.064.998c.141.008.28.013.418.013v-1zm-1.066-.097a7.955 7.955 0 01-.356-.071l-.217.976c.135.03.269.057.401.08l.172-.985zm-.382-.076a68.392 68.392 0 00-.294-.049l-.16.987.29.048.164-.986zm-.887-.141a13.945 13.945 0 00-.303-.042l-.125.992c.076.01.17.023.283.04l.145-.99zm.135.454v-1.373h-1V40h1zm0-4.117V34.51h-1v1.373h1zm-.568-.878c.146.02.288.038.425.054l.114-.993c-.13-.015-.264-.032-.404-.051l-.135.99zm1.29.128c.155.008.303.012.442.012v-1c-.12 0-.251-.004-.392-.01l-.05.998zm.442.012c.353 0 .691-.022 1.014-.066l-.136-.991a6.425 6.425 0 01-.877.057v1zm2.99-.742c.307-.188.586-.412.836-.67l-.72-.695a3.22 3.22 0 01-.639.513l.523.852zm.842-.677c.316-.34.588-.773.824-1.284l-.909-.419c-.204.445-.423.78-.647 1.021l.731.682zm1.651-4.02c.086-.431.163-.892.233-1.381l-.99-.14c-.067.473-.142.915-.224 1.326l.981.196zm.232-1.375a33.5 33.5 0 00.132-.976l-.993-.12c-.04.334-.082.649-.128.944l.989.152zm.321-2.927a72.53 72.53 0 00.123-1.95l-.999-.05a71.976 71.976 0 01-.12 1.923l.996.077zm.201-3.896c.02-.621.035-1.27.046-1.946l-1-.016a132.31 132.31 0 01-.045 1.93l1 .032zm.066-3.89c.002-.32.002-.644.002-.973h-1c0 .328 0 .65-.002.967l1 .005zm.002-.973v-1.463h-1v1.463h1zm0-4.387v-1.463h-1v1.463h1zm-.5-.963h1.063v-1H71.26v1zm3.186 0h2.124v-1h-2.123v1zm4.249 0h2.124v-1h-2.124v1zm4.248 0h2.124v-1h-2.124v1zm4.248 0h2.124v-1H87.19v1zm4.248 0H92.5v-1h-1.062v1zm.562-.5v1.043h1v-1.043h-1zm0 3.13v2.085h1v-2.086h-1zm0 4.171v2.086h1v-2.086h-1zm0 4.172v2.087h1v-2.087h-1zm0 4.172v2.087h1V26.44h-1zm0 4.173v2.086h1v-2.086h-1zm0 4.172v2.086h1v-2.086h-1zm0 4.172V40h1v-1.043h-1zm.5.543h-.878v1h.877v-1zm-2.633 0h-1.755v1h1.755v-1zm-3.51 0h-.877v1h.877v-1zm-.377.5v-1.01h-1V40h1zm0-3.032v-2.021h-1v2.021h1zm0-4.042v-2.022h-1v2.022h1zm0-4.043v-2.021h-1v2.021h1zm0-4.042v-2.022h-1v2.022h1zm0-4.043v-2.021h-1v2.021h1zm0-4.042v-1.011h-1v1.01h1zm-.5-1.511h-.985v1h.985v-1zm-2.954 0H80.56v1h1.968v-1zm-3.937 0h-.984v1h.984v-1zm-1.484.5v1.013h1v-1.013h-1zm0 3.037v1.013h1v-1.013h-1zm0 1.013c0 .365-.003.724-.007 1.078l1 .013c.004-.358.007-.722.007-1.091h-1zm-.064 3.232c-.031.744-.073 1.46-.127 2.147l.997.078c.055-.7.097-1.428.129-2.183l-1-.042zm-.339 4.282c-.092.746-.2 1.45-.323 2.114l.983.182c.127-.685.238-1.41.332-2.173l-.992-.122zm-.794 4.187c-.097.352-.2.689-.307 1.01l.947.319c.115-.34.223-.695.324-1.064l-.964-.265zM75.6 32.51c-.096.295-.195.58-.298.855l.938.348a23.5 23.5 0 00.31-.893l-.95-.31zm-1.004 2.507a11.706 11.706 0 01-.896 1.53l.819.573a12.69 12.69 0 00.973-1.66l-.897-.443zM72.56 37.85a5.51 5.51 0 01-.672.515l.544.84c.274-.178.539-.382.794-.61l-.666-.745zm-.676.518a8.499 8.499 0 01-1.236.676l.406.914a9.493 9.493 0 001.381-.756l-.551-.834zm-3.964 1.41a12 12 0 01-1.43.082v1c.531 0 1.048-.03 1.549-.09l-.12-.993zm-2.96.402l.216-.976-.026-.006-.026-.004-.165.986zM63.79 40h-1v.883l.876.11.124-.993zm0-5.49l.135-.99-1.135-.156v1.146h1zm5.13-1.125l.72.694.005-.006.006-.007-.731-.681zm1.754-5.13l-.988-.151-.002.011.99.14zm.585-17.46v-1h-1v1h1zm21.24 0h1v-1h-1v1zM92.5 40v1h1v-1h-1zm-7.02 0h-1v1h1v-1zm0-24.255h1v-1h-1v1zm-7.874 0v-1h-1v1h1zm-1.53 16.92l-.948-.32-.003.01.95.31zm-3.915 6.12l-.544-.84-.008.005.552.835zm-5.67.575c-.105 0-.212-.003-.322-.01l-.128 1.995c.151.01.301.015.45.015v-2zm-.98-.09a7.392 7.392 0 01-.334-.066l-.433 1.952c.142.032.283.06.423.084l.344-1.97zm-.386-.076a66.7 66.7 0 00-.296-.05l-.321 1.975.288.047.329-1.972zm-.896-.143a16.577 16.577 0 00-.314-.043l-.248 1.984.271.038.291-1.979zm.562.949v-1.373h-2V40h2zm0-4.117V34.51h-2v1.373h2zm-1.136-.382c.15.02.295.038.436.055l.228-1.987a19.327 19.327 0 01-.393-.05l-.27 1.982zm1.332.131c.163.009.319.013.469.013v-2a6.98 6.98 0 01-.367-.01l-.102 1.997zm.469.013a7.92 7.92 0 001.082-.071l-.274-1.981a5.92 5.92 0 01-.808.052v2zm3.25-.815c.343-.21.655-.461.934-.75l-1.44-1.39c-.16.168-.34.312-.54.434l1.046 1.706zm.946-.764c.362-.388.662-.87.913-1.414l-1.817-.838c-.189.41-.38.697-.56.89l1.464 1.362zm1.776-4.262c.088-.442.168-.912.238-1.41l-1.98-.279a23.51 23.51 0 01-.219 1.299l1.961.39zm.236-1.398c.048-.313.093-.644.135-.992l-1.986-.238c-.04.329-.082.638-.126.928l1.977.302zm.326-2.963c.047-.614.089-1.269.124-1.963l-1.998-.1a70.247 70.247 0 01-.12 1.908l1.994.155zm.202-3.92c.02-.624.035-1.274.046-1.952l-2-.033c-.01.669-.026 1.31-.045 1.923l2 .062zm.066-3.904c.002-.32.002-.644.002-.974h-2c0 .327 0 .649-.002.965l2 .01zm.002-.974v-1.463h-2v1.463h2zm0-4.387v-1.463h-2v1.463h2zm-1-.463h1.063v-2H71.26v2zm3.186 0h2.124v-2h-2.123v2zm4.249 0h2.124v-2h-2.124v2zm4.248 0h2.124v-2h-2.124v2zm4.248 0h2.124v-2H87.19v2zm4.248 0H92.5v-2h-1.062v2zm.062-1v1.043h2v-1.043h-2zm0 3.13v2.085h2v-2.086h-2zm0 4.171v2.086h2v-2.086h-2zm0 4.172v2.087h2v-2.087h-2zm0 4.172v2.087h2V26.44h-2zm0 4.173v2.086h2v-2.086h-2zm0 4.172v2.086h2v-2.086h-2zm0 4.172V40h2v-1.043h-2zm1 .043h-.878v2h.877v-2zm-2.633 0h-1.755v2h1.755v-2zm-3.51 0h-.877v2h.877v-2zm.123 1v-1.01h-2V40h2zm0-3.032v-2.021h-2v2.021h2zm0-4.042v-2.022h-2v2.022h2zm0-4.043v-2.021h-2v2.021h2zm0-4.042v-2.022h-2v2.022h2zm0-4.043v-2.021h-2v2.021h2zm0-4.042v-1.011h-2v1.01h2zm-1-2.011h-.985v2h.985v-2zm-2.954 0H80.56v2h1.968v-2zm-3.937 0h-.984v2h.984v-2zm-1.984 1v1.013h2v-1.013h-2zm0 3.037v1.013h2v-1.013h-2zm0 1.013c0 .363-.003.72-.007 1.072l2 .025c.004-.36.007-.726.007-1.097h-2zm-.064 3.212c-.03.738-.072 1.448-.125 2.129l1.994.154c.055-.706.098-1.44.13-2.2l-1.999-.083zm-.335 4.241a34.24 34.24 0 01-.319 2.083l1.967.366c.13-.697.241-1.431.337-2.203l-1.985-.246zm-.78 4.115a18.22 18.22 0 01-.3.983l1.896.638c.118-.35.229-.713.332-1.09l-1.928-.53zm-.302.991c-.094.29-.192.568-.291.837l1.874.696c.11-.295.216-.598.318-.911l-1.901-.622zm-.978 2.442a11.184 11.184 0 01-.857 1.464l1.638 1.147c.364-.518.7-1.095 1.012-1.725l-1.793-.886zm-1.919 2.68c-.2.18-.404.336-.611.47l1.087 1.678a7.01 7.01 0 00.856-.655l-1.332-1.492zm-.618.474c-.37.244-.757.456-1.163.637l.811 1.828a9.99 9.99 0 001.454-.795l-1.103-1.67zm-3.749 1.33c-.438.053-.895.08-1.37.08v2c.55 0 1.086-.03 1.608-.093l-.238-1.986zm33.187-28.485v-.5h-.5v.5h.5zm7.02 0h.5v-.5h-.5v.5zm0 19.98h-.5v1.73l.923-1.463-.423-.267zm12.6-19.98v-.5h-.275l-.147.233.422.267zm7.02 0h.5v-.5h-.5v.5zm0 29.205v.5h.5V40h-.5zm-7.02 0h-.5v.5h.5V40zm0-20.295h.5v-1.753l-.924 1.49.424.263zM108.068 40v.5h.279l.146-.236-.425-.264zm-7.02 0h-.5v.5h.5V40zm-.5-29.205v1.043h1v-1.043h-1zm0 3.13v2.085h1v-2.086h-1zm0 4.171v2.086h1v-2.086h-1zm0 4.172v2.087h1v-2.087h-1zm0 4.172v2.087h1V26.44h-1zm0 4.173v2.086h1v-2.086h-1zm0 4.172v2.086h1v-2.086h-1zm0 4.172V40h1v-1.043h-1zm.5 1.543h.878v-1h-.878v1zm2.633 0h1.755v-1h-1.755v1zm3.51 0h.877v-1h-.877v1zm1.302-.236l.525-.846-.849-.527-.525.845.849.528zm1.575-2.537l1.05-1.691-.849-.528-1.05 1.691.849.528zm2.1-3.383l1.05-1.69-.849-.528-1.05 1.69.849.528zm2.1-3.382l1.05-1.691-.849-.528-1.05 1.691.849.528zm2.1-3.383l1.05-1.69-.849-.528-1.05 1.69.849.528zm2.1-3.382l1.05-1.691-.849-.528-1.05 1.691.849.528zm2.1-3.383l.525-.845-.849-.528-.525.846.849.527zm-.4-1.109v1.015h1v-1.015h-1zm0 3.044v2.03h1v-2.03h-1zm0 4.06v2.029h1v-2.03h-1zm0 4.058v2.03h1v-2.03h-1zm0 4.06v2.029h1v-2.03h-1zm0 4.058V40h1v-1.015h-1zm.5 1.515h.878v-1h-.878v1zm2.633 0h1.755v-1h-1.755v1zm3.51 0h.877v-1h-.877v1zm1.377-.5v-1.043h-1V40h1zm0-3.13v-2.085h-1v2.086h1zm0-4.171v-2.086h-1v2.086h1zm0-4.172V26.44h-1v2.087h1zm0-4.172v-2.087h-1v2.087h1zm0-4.173v-2.086h-1v2.086h1zm0-4.172v-2.086h-1v2.086h1zm0-4.172v-1.043h-1v1.043h1zm-.5-1.543h-.877v1h.877v-1zm-2.632 0h-1.755v1h1.755v-1zm-3.51 0h-.878v1h.878v-1zm-1.3.233l-.525.833.845.533.525-.832-.845-.534zm-1.575 2.498l-1.05 1.665.845.533 1.05-1.665-.845-.533zm-2.1 3.33l-1.05 1.665.845.533 1.05-1.665-.845-.533zm-2.1 3.33l-1.05 1.665.845.533 1.05-1.665-.845-.533zm-2.1 3.33l-1.05 1.665.845.533 1.05-1.665-.845-.533zm-2.1 3.33l-1.05 1.665.845.533 1.05-1.665-.845-.533zm-2.1 3.33l-.525.832.845.534.525-.833-.845-.533zm.397 1.099v-.999h-1v.999h1zm0-2.997V25.78h-1v1.998h1zm0-3.996v-1.998h-1v1.998h1zm0-3.996v-1.998h-1v1.998h1zm0-3.996v-1.998h-1v1.998h1zm0-3.996v-.999h-1v.999h1zm-.5-1.499h-.877v1h.877v-1zm-2.632 0h-1.755v1h1.755v-1zm-3.51 0h-.878v1h.878v-1zm-.878.5v-1h-1v1h1zm7.02 0h1v-1h-1v1zm0 19.98h-1v3.46l1.846-2.927-.846-.533zm12.6-19.98v-1h-.551l-.294.467.845.533zm7.02 0h1v-1h-1v1zm0 29.205v1h1v-1h-1zm-7.02 0h-1v1h1v-1zm0-20.295h1v-3.507l-1.849 2.98.849.527zM108.068 40v1h.557l.293-.472-.85-.528zm-7.02 0h-1v1h1v-1zm-1-29.205v1.043h2v-1.043h-2zm0 3.13v2.085h2v-2.086h-2zm0 4.171v2.086h2v-2.086h-2zm0 4.172v2.087h2v-2.087h-2zm0 4.172v2.087h2V26.44h-2zm0 4.173v2.086h2v-2.086h-2zm0 4.172v2.086h2v-2.086h-2zm0 4.172V40h2v-1.043h-2zm1 2.043h.878v-2h-.878v2zm2.633 0h1.755v-2h-1.755v2zm3.51 0h.877v-2h-.877v2zm1.727-.472l.525-.846-1.699-1.055-.525.845 1.699 1.056zm1.575-2.537l1.05-1.692-1.699-1.055-1.05 1.692 1.699 1.055zm2.1-3.383l1.05-1.691-1.699-1.055-1.05 1.691 1.699 1.055zm2.1-3.382l1.05-1.692-1.699-1.055-1.05 1.692 1.699 1.055zm2.1-3.383l1.05-1.691-1.699-1.055-1.05 1.691 1.699 1.055zm2.1-3.382l1.05-1.692-1.699-1.055-1.05 1.692 1.699 1.055zm2.1-3.383l.525-.845-1.699-1.056-.525.846 1.699 1.055zm-1.325-1.373v1.015h2v-1.015h-2zm0 3.044v2.03h2v-2.03h-2zm0 4.06v2.029h2v-2.03h-2zm0 4.058v2.03h2v-2.03h-2zm0 4.06v2.029h2v-2.03h-2zm0 4.058V40h2v-1.015h-2zm1 2.015h.878v-2h-.878v2zm2.633 0h1.755v-2h-1.755v2zm3.51 0h.877v-2h-.877v2zm1.877-1v-1.043h-2V40h2zm0-3.13v-2.085h-2v2.086h2zm0-4.171v-2.086h-2v2.086h2zm0-4.172V26.44h-2v2.087h2zm0-4.172v-2.087h-2v2.087h2zm0-4.173v-2.086h-2v2.086h2zm0-4.172v-2.086h-2v2.086h2zm0-4.172v-1.043h-2v1.043h2zm-1-2.043h-.877v2h.877v-2zm-2.632 0h-1.755v2h1.755v-2zm-3.51 0h-.878v2h.878v-2zm-1.723.467l-.525.832 1.691 1.067.525-.833-1.691-1.066zm-1.575 2.497l-1.05 1.665 1.691 1.067 1.05-1.665-1.691-1.067zm-2.1 3.33l-1.05 1.665 1.691 1.067 1.05-1.665-1.691-1.067zm-2.1 3.33l-1.05 1.665 1.691 1.067 1.05-1.665-1.691-1.067zm-2.1 3.33l-1.05 1.665 1.691 1.067 1.05-1.665-1.691-1.067zm-2.1 3.33l-1.05 1.665 1.691 1.067 1.05-1.665-1.691-1.067zm-2.1 3.33l-.525.833 1.691 1.066.525-.832-1.691-1.067zm1.32 1.366v-.999h-2v.999h2zm0-2.997V25.78h-2v1.998h2zm0-3.996v-1.998h-2v1.998h2zm0-3.996v-1.998h-2v1.998h2zm0-3.996v-1.998h-2v1.998h2zm0-3.996v-.999h-2v.999h2zm-1-1.999h-.877v2h.877v-2zm-2.632 0h-1.755v2h1.755v-2zm-3.51 0h-.878v2h.878v-2zm51.116 19.045h.5v-.855l-.745.42.245.435zm-14.85.135l-.304.397.008.006.296-.403zm-2.52-18.18v-.5h-.5v.5h.5zm6.93 0h.5v-.5h-.5v.5zm1.035 14.04l-.297.402.01.007.01.007.277-.416zm6.48.135l-.154-.476.154.476zm2.925-1.485l.313.39.187-.15v-.24h-.5zm0-12.69v-.5h-.5v.5h.5zm7.02 0h.5v-.5h-.5v.5zm0 29.205v.5h.5V40h-.5zm-7.02 0h-.5v.5h.5V40zm-.245-11.596c-.311.175-.63.339-.958.49l.42.908c.351-.163.694-.338 1.029-.526l-.491-.872zm-2.977 1.246a16.81 16.81 0 01-2.115.471l.156.988a17.772 17.772 0 002.24-.5l-.281-.959zm-4.28.69c-.358.017-.722.025-1.093.025v1c.386 0 .766-.009 1.14-.027l-.047-.998zm-1.093.025c-.272 0-.539-.008-.8-.024l-.061.998c.283.017.57.026.861.026v-1zm-2.378-.228a9.598 9.598 0 01-1.516-.438l-.357.934c.534.204 1.092.365 1.674.484l.199-.98zm-2.927-1.128a8.684 8.684 0 01-.653-.436l-.593.805c.236.173.478.336.728.487l.518-.855zm-.645-.43a4.929 4.929 0 01-.609-.554l-.732.682c.225.241.469.463.732.665l.609-.794zm-1.532-1.926a7.45 7.45 0 01-.538-1.608l-.977.214a8.46 8.46 0 00.612 1.824l.903-.43zm-.767-3.326a14.604 14.604 0 01-.026-.877h-1c0 .32.009.633.027.936l.999-.059zm-.026-.877v-.971h-1v.971h1zm0-2.914v-1.942h-1v1.942h1zm0-3.885V13.71h-1v1.942h1zm0-3.885v-.971h-1v.971h1zm-.5-.471h.867v-1h-.867v1zm2.599 0h1.733v-1h-1.733v1zm3.465 0h.866v-1h-.866v1zm.366-.5v.926h1v-.926h-1zm0 2.779v1.852h1v-1.852h-1zm0 3.705v1.852h1V17.28h-1zm0 3.705v.926h1v-.926h-1zm0 .926c0 .302.015.588.044.857l.994-.108a6.917 6.917 0 01-.038-.749h-1zm.574 2.59c.177.292.398.54.664.737l.595-.804a1.539 1.539 0 01-.404-.451l-.855.518zm.684.751c.227.151.471.28.73.388l.384-.923a3.209 3.209 0 01-.559-.297l-.555.832zm2.287.766c.251.025.511.038.78.038v-1a6.7 6.7 0 01-.679-.033l-.101.995zm.78.038c.327 0 .653-.013.976-.038l-.078-.997a11.62 11.62 0 01-.898.035v1zm2.905-.344c.316-.076.629-.164.94-.265l-.309-.952c-.287.094-.575.175-.865.245l.234.972zm.94-.265c.279-.091.548-.188.806-.29l-.37-.93c-.236.094-.485.184-.745.268l.309.951zm2.36-1.062c.257-.16.499-.33.723-.509l-.625-.78a6.498 6.498 0 01-.625.439l.527.85zm.91-.899v-1.058h-1v1.058h1zm0-3.172v-2.115h-1v2.114h1zm0-4.23v-2.115h-1v2.114h1zm0-4.23v-1.058h-1v1.057h1zm-.5-.558h.878v-1h-.878v1zm2.633 0h1.755v-1h-1.755v1zm3.51 0h.877v-1h-.877v1zm.377-.5v1.043h1v-1.043h-1zm0 3.13v2.085h1v-2.086h-1zm0 4.171v2.086h1v-2.086h-1zm0 4.172v2.087h1v-2.087h-1zm0 4.172v2.087h1V26.44h-1zm0 4.173v2.086h1v-2.086h-1zm0 4.172v2.086h1v-2.086h-1zm0 4.172V40h1v-1.043h-1zm.5.543h-.877v1h.877v-1zm-2.632 0h-1.755v1h1.755v-1zm-3.51 0h-.878v1h.878v-1zm-.378.5v-.93h-1V40h1zm0-2.79v-1.86h-1v1.86h1zm0-3.72v-1.86h-1v1.86h1zm0-3.72v-.93h-1v.93h1zm-.5-.93h1v-1.71l-1.49.838.49.872zm-14.85.135l-.609.793.008.006.008.006.593-.805zm-2.52-18.18v-1h-1v1h1zm6.93 0h1v-1h-1v1zm1.035 14.04l-.594.804.02.015.02.013.554-.832zm6.48.135l-.309-.951.309.951zm2.925-1.485l.625.78.375-.3v-.48h-1zm0-12.69v-1h-1v1h1zm7.02 0h1v-1h-1v1zm0 29.205v1h1v-1h-1zm-7.02 0h-1v1h1v-1zm-.49-12.032a12.7 12.7 0 01-.923.472l.84 1.816c.363-.169.718-.35 1.064-.544l-.981-1.744zm-2.873 1.202c-.653.192-1.337.345-2.052.458l.312 1.975a18.267 18.267 0 002.303-.514l-.563-1.919zm-4.163.67c-.35.017-.706.025-1.069.025v2c.394 0 .782-.01 1.164-.027l-.095-1.998zm-1.069.025c-.262 0-.519-.008-.77-.023l-.121 1.996c.293.018.59.027.891.027v-2zm-2.278-.218a9.099 9.099 0 01-1.437-.415l-.715 1.868c.561.214 1.146.383 1.753.507l.399-1.96zm-2.768-1.065a7.988 7.988 0 01-.615-.412l-1.187 1.61c.248.183.503.354.766.512l1.036-1.71zm-.6-.4a4.525 4.525 0 01-.548-.498l-1.462 1.364c.244.262.508.502.792.72l1.218-1.586zm-1.385-1.744a7 7 0 01-.501-1.5l-1.953.429a8.9 8.9 0 00.649 1.93l1.805-.86zm-.719-3.14a14.43 14.43 0 01-.025-.848h-2c0 .33.01.652.028.966l1.997-.119zm-.025-.848v-.971h-2v.971h2zm0-2.914v-1.942h-2v1.942h2zm0-3.885V13.71h-2v1.942h2zm0-3.885v-.971h-2v.971h2zm-1 .029h.867v-2h-.867v2zm2.599 0h1.733v-2h-1.733v2zm3.465 0h.866v-2h-.866v2zm-.134-1v.926h2v-.926h-2zm0 2.779v1.852h2v-1.852h-2zm0 3.705v1.852h2V17.28h-2zm0 3.705v.926h2v-.926h-2zm0 .926c0 .317.016.622.047.912l1.988-.218a6.624 6.624 0 01-.035-.694h-2zm.646 2.849c.208.343.472.642.795.88l1.189-1.608a1.046 1.046 0 01-.273-.308l-1.711 1.036zm.835.908c.255.17.527.314.815.434l.768-1.847a2.773 2.773 0 01-.474-.251l-1.109 1.664zm2.513.847c.269.028.547.041.831.041v-2c-.222 0-.431-.01-.628-.03l-.203 1.99zm.831.041c.34 0 .679-.013 1.015-.04l-.155-1.993c-.285.022-.571.033-.86.033v2zm3.022-.358c.329-.079.654-.17.978-.276l-.619-1.902c-.274.09-.55.167-.827.234l.468 1.944zm.978-.276c.289-.094.567-.194.836-.301l-.74-1.858c-.226.09-.464.175-.715.257l.619 1.902zm2.468-1.112c.274-.17.531-.35.772-.543l-1.249-1.562a5.89 5.89 0 01-.576.405l1.053 1.7zm1.147-1.324v-1.058h-2v1.058h2zm0-3.172v-2.115h-2v2.114h2zm0-4.23v-2.115h-2v2.114h2zm0-4.23v-1.058h-2v1.057h2zm-1-.058h.878v-2h-.878v2zm2.633 0h1.755v-2h-1.755v2zm3.51 0h.877v-2h-.877v2zm-.123-1v1.043h2v-1.043h-2zm0 3.13v2.085h2v-2.086h-2zm0 4.171v2.086h2v-2.086h-2zm0 4.172v2.087h2v-2.087h-2zm0 4.172v2.087h2V26.44h-2zm0 4.173v2.086h2v-2.086h-2zm0 4.172v2.086h2v-2.086h-2zm0 4.172V40h2v-1.043h-2zm1 .043h-.877v2h.877v-2zm-2.632 0h-1.755v2h1.755v-2zm-3.51 0h-.878v2h.878v-2zm.122 1v-.93h-2V40h2zm0-2.79v-1.86h-2v1.86h2zm0-3.72v-1.86h-2v1.86h2zm0-3.72v-.93h-2v.93h2zm14.568-18.975v-.5h-.5v.5h.5zm7.02 0h.5v-.5h-.5v.5zm0 11.7h-.5v.5h.5v-.5zm12.42 0v.5h.5v-.5h-.5zm0-11.7v-.5h-.5v.5h.5zm7.02 0h.5v-.5h-.5v.5zm0 29.205v.5h.5V40h-.5zm-7.02 0h-.5v.5h.5V40zm0-12.51h.5v-.5h-.5v.5zm-12.42 0v-.5h-.5v.5h.5zm0 12.51v.5h.5V40h-.5zm-7.02 0h-.5v.5h.5V40zm-.5-29.205v1.043h1v-1.043h-1zm0 3.13v2.085h1v-2.086h-1zm0 4.171v2.086h1v-2.086h-1zm0 4.172v2.087h1v-2.087h-1zm0 4.172v2.087h1V26.44h-1zm0 4.173v2.086h1v-2.086h-1zm0 4.172v2.086h1v-2.086h-1zm0 4.172V40h1v-1.043h-1zm.5 1.543h.877v-1h-.877v1zm2.632 0h1.755v-1h-1.755v1zm3.51 0h.878v-1h-.878v1zm1.378-.5v-1.042h-1V40h1zm0-3.127v-2.085h-1v2.085h1zm0-4.17v-2.086h-1v2.085h1zm0-4.17V27.49h-1v1.043h1zm-.5-.543h1.035v-1h-1.035v1zm3.105 0h2.07v-1h-2.07v1zm4.14 0h2.07v-1h-2.07v1zm4.14 0h1.035v-1h-1.035v1zm.535-.5v1.043h1V27.49h-1zm0 3.128v2.085h1v-2.086h-1zm0 4.17v2.085h1v-2.085h-1zm0 4.17V40h1v-1.042h-1zm.5 1.542h.877v-1h-.877v1zm2.632 0h1.755v-1h-1.755v1zm3.51 0h.878v-1h-.878v1zm1.378-.5v-1.043h-1V40h1zm0-3.13v-2.085h-1v2.086h1zm0-4.171v-2.086h-1v2.086h1zm0-4.172V26.44h-1v2.087h1zm0-4.172v-2.087h-1v2.087h1zm0-4.173v-2.086h-1v2.086h1zm0-4.172v-2.086h-1v2.086h1zm0-4.172v-1.043h-1v1.043h1zm-.5-1.543h-.878v1h.878v-1zm-2.633 0h-1.755v1h1.755v-1zm-3.51 0h-.877v1h.877v-1zm-1.377.5v.975h1v-.975h-1zm0 2.925v1.95h1v-1.95h-1zm0 3.9v1.95h1v-1.95h-1zm0 3.9v.975h1v-.975h-1zm.5.475h-1.035v1h1.035v-1zm-3.105 0h-2.07v1h2.07v-1zm-4.14 0h-2.07v1h2.07v-1zm-4.14 0h-1.035v1h1.035v-1zm-.535.5v-.975h-1v.975h1zm0-2.925v-1.95h-1v1.95h1zm0-3.9v-1.95h-1v1.95h1zm0-3.9v-.975h-1v.975h1zm-.5-1.475h-.878v1h.878v-1zm-2.633 0h-1.755v1h1.755v-1zm-3.51 0h-.877v1h.877v-1zm-.877.5v-1h-1v1h1zm7.02 0h1v-1h-1v1zm0 11.7h-1v1h1v-1zm12.42 0v1h1v-1h-1zm0-11.7v-1h-1v1h1zm7.02 0h1v-1h-1v1zm0 29.205v1h1v-1h-1zm-7.02 0h-1v1h1v-1zm0-12.51h1v-1h-1v1zm-12.42 0v-1h-1v1h1zm0 12.51v1h1v-1h-1zm-7.02 0h-1v1h1v-1zm-1-29.205v1.043h2v-1.043h-2zm0 3.13v2.085h2v-2.086h-2zm0 4.171v2.086h2v-2.086h-2zm0 4.172v2.087h2v-2.087h-2zm0 4.172v2.087h2V26.44h-2zm0 4.173v2.086h2v-2.086h-2zm0 4.172v2.086h2v-2.086h-2zm0 4.172V40h2v-1.043h-2zm1 2.043h.877v-2h-.877v2zm2.632 0h1.755v-2h-1.755v2zm3.51 0h.878v-2h-.878v2zm1.878-1v-1.042h-2V40h2zm0-3.127v-2.085h-2v2.085h2zm0-4.17v-2.086h-2v2.085h2zm0-4.17V27.49h-2v1.043h2zm-1-.043h1.035v-2h-1.035v2zm3.105 0h2.07v-2h-2.07v2zm4.14 0h2.07v-2h-2.07v2zm4.14 0h1.035v-2h-1.035v2zm.035-1v1.043h2V27.49h-2zm0 3.128v2.085h2v-2.086h-2zm0 4.17v2.085h2v-2.085h-2zm0 4.17V40h2v-1.042h-2zm1 2.042h.877v-2h-.877v2zm2.632 0h1.755v-2h-1.755v2zm3.51 0h.878v-2h-.878v2zm1.878-1v-1.043h-2V40h2zm0-3.13v-2.085h-2v2.086h2zm0-4.171v-2.086h-2v2.086h2zm0-4.172V26.44h-2v2.087h2zm0-4.172v-2.087h-2v2.087h2zm0-4.173v-2.086h-2v2.086h2zm0-4.172v-2.086h-2v2.086h2zm0-4.172v-1.043h-2v1.043h2zm-1-2.043h-.878v2h.878v-2zm-2.633 0h-1.755v2h1.755v-2zm-3.51 0h-.877v2h.877v-2zm-1.877 1v.975h2v-.975h-2zm0 2.925v1.95h2v-1.95h-2zm0 3.9v1.95h2v-1.95h-2zm0 3.9v.975h2v-.975h-2zm1-.025h-1.035v2h1.035v-2zm-3.105 0h-2.07v2h2.07v-2zm-4.14 0h-2.07v2h2.07v-2zm-4.14 0h-1.035v2h1.035v-2zm-.035 1v-.975h-2v.975h2zm0-2.925v-1.95h-2v1.95h2zm0-3.9v-1.95h-2v1.95h2zm0-3.9v-.975h-2v.975h2zm-1-1.975h-.878v2h.878v-2zm-2.633 0h-1.755v2h1.755v-2zm-3.51 0h-.877v2h.877v-2zm34.112 1v-.5h-.5v.5h.5zm7.02 0h.5v-.5h-.5v.5zm0 10.71h-.5v.5h.5v-.5zm14.085 2.16l-.342.365.006.005.336-.37zM203.599 40h-.5v.5h.5V40zm27-29.205v-.5h-.5v.5h.5zm7.02 0h.5v-.5h-.5v.5zm0 29.205v.5h.5V40h-.5zm-7.02 0h-.5v.5h.5V40zm-12.69-5.715l.255.43.012-.007-.267-.423zm.045-7.29l-.195.46.195-.46zm-7.38-.495V26h-.5v.5h.5zm0 8.505h-.5v.5h.5v-.5zm-7.475-24.21v1.043h1v-1.043h-1zm0 3.13v2.085h1v-2.086h-1zm0 4.171v2.086h1v-2.086h-1zm0 4.172v2.087h1v-2.087h-1zm0 4.172v2.087h1V26.44h-1zm0 4.173v2.086h1v-2.086h-1zm0 4.172v2.086h1v-2.086h-1zm0 4.172V40h1v-1.043h-1zm.5 1.543h.896v-1h-.896v1zm2.689 0h1.792v-1h-1.792v1zm3.585 0h1.792v-1h-1.792v1zm3.585 0h.896v-1h-.896v1zm.896 0c.333 0 .659-.004.978-.012l-.026-1c-.31.008-.627.012-.952.012v1zm2.929-.12a23.823 23.823 0 001.951-.253l-.173-.985a22.09 22.09 0 01-1.866.241l.088.996zm3.881-.706a11.108 11.108 0 001.869-.745l-.459-.889a10.09 10.09 0 01-1.701.677l.291.957zm3.559-1.916a5.863 5.863 0 001.258-1.669l-.894-.448a4.866 4.866 0 01-1.046 1.386l.682.731zm1.856-3.662c.044-.331.065-.673.065-1.026h-1c0 .312-.019.61-.056.895l.991.131zm.065-1.026v-1.372h-1v1.372h1zm0-4.117V27.58h-1v1.373h1zm0-1.373c0-.398-.024-.777-.072-1.139l-.991.134c.042.312.063.647.063 1.005h1zm-.829-3.358a4.375 4.375 0 00-.775-.928l-.672.741c.232.21.431.449.599.717l.848-.53zm-.769-.922a6.295 6.295 0 00-.934-.722l-.536.845c.287.182.549.384.786.607l.684-.73zm-3.06-1.641a10.738 10.738 0 00-1.116-.242l-.162.986a9.75 9.75 0 011.012.22l.266-.964zm-1.116-.242a22.414 22.414 0 00-.822-.119l-.125.992c.274.035.536.073.785.113l.162-.986zm-2.465-.28a45.895 45.895 0 00-1.64-.089l-.037 1c.565.02 1.1.05 1.604.087l.073-.998zm-3.278-.128a75.37 75.37 0 00-.818-.004v1c.275 0 .544.001.807.004l.011-1zm-.818-.004h-.922v1h.922v-1zm-2.767 0h-.923v1h.923v-1zm-.423.5v-.892h-1v.892h1zm0-2.677v-1.785h-1v1.785h1zm0-3.57v-1.785h-1v1.784h1zm0-3.57v-.893h-1v.893h1zm-.5-1.393h-.877v1h.877v-1zm-2.632 0h-1.755v1h1.755v-1zm-3.51 0h-.878v1h.878v-1zm25.622.5v1.043h1v-1.043h-1zm0 3.13v2.085h1v-2.086h-1zm0 4.171v2.086h1v-2.086h-1zm0 4.172v2.087h1v-2.087h-1zm0 4.172v2.087h1V26.44h-1zm0 4.173v2.086h1v-2.086h-1zm0 4.172v2.086h1v-2.086h-1zm0 4.172V40h1v-1.043h-1zm.5 1.543h.878v-1h-.878v1zm2.633 0h1.755v-1h-1.755v1zm3.51 0h.877v-1h-.877v1zm1.377-.5v-1.043h-1V40h1zm0-3.13v-2.085h-1v2.086h1zm0-4.171v-2.086h-1v2.086h1zm0-4.172V26.44h-1v2.087h1zm0-4.172v-2.087h-1v2.087h1zm0-4.173v-2.086h-1v2.086h1zm0-4.172v-2.086h-1v2.086h1zm0-4.172v-1.043h-1v1.043h1zm-.5-1.543h-.877v1h.877v-1zm-2.632 0h-1.755v1h1.755v-1zm-3.51 0h-.878v1h.878v-1zm-17.438 24.21h-.866v1h.866v-1zm-2.599 0h-.866v1h.866v-1zm-.366.5v-1.063h-1v1.063h1zm0-3.19V29.69h-1v2.127h1zm0-4.252V26.5h-1v1.063h1zm-.5-.563h.889v-1h-.889v1zm2.666 0h.889v-1h-.889v1zm.889 0c.336 0 .652.006.95.018l.04-1a24.778 24.778 0 00-.99-.018v1zm2.798.213c.34.069.616.15.832.242l.39-.92a5.332 5.332 0 00-1.025-.302l-.197.98zm.832.242c.156.066.283.143.388.229l.633-.774a2.578 2.578 0 00-.631-.375l-.39.92zm.816.95c.032.14.049.3.049.48h1c0-.244-.023-.478-.073-.7l-.976.22zm.049.48v.776h1v-.776h-1zm0 2.329v.776h1v-.776h-1zm0 .776c0 .209-.019.399-.056.573l.978.207c.053-.25.078-.51.078-.78h-1zm-.548 1.523a2.27 2.27 0 01-.433.349l.533.846c.232-.146.441-.314.623-.504l-.723-.691zm-.422.342a3.49 3.49 0 01-.801.334l.283.96a4.495 4.495 0 001.028-.434l-.51-.86zm-2.65.623c-.302.018-.623.027-.965.027v1c.359 0 .701-.01 1.025-.03l-.06-.997zm-11.405-23.683v-1h-1v1h1zm7.02 0h1v-1h-1v1zm0 10.71h-1v1h1v-1zm14.085 2.16l-.684.73.006.005.007.006.671-.741zM203.599 40h-1v1h1v-1zm27-29.205v-1h-1v1h1zm7.02 0h1v-1h-1v1zm0 29.205v1h1v-1h-1zm-7.02 0h-1v1h1v-1zm-12.69-5.715l.51.86.012-.007.011-.007-.533-.846zm.045-7.29l-.389.921.389-.921zm-7.38-.495v-1h-1v1h1zm0 8.505h-1v1h1v-1zm-7.975-24.21v1.043h2v-1.043h-2zm0 3.13v2.085h2v-2.086h-2zm0 4.171v2.086h2v-2.086h-2zm0 4.172v2.087h2v-2.087h-2zm0 4.172v2.087h2V26.44h-2zm0 4.173v2.086h2v-2.086h-2zm0 4.172v2.086h2v-2.086h-2zm0 4.172V40h2v-1.043h-2zm1 2.043h.896v-2h-.896v2zm2.689 0h1.792v-2h-1.792v2zm3.585 0h1.792v-2h-1.792v2zm3.585 0h.896v-2h-.896v2zm.896 0c.337 0 .667-.004.99-.012l-.051-2a35.94 35.94 0 01-.939.012v2zm2.973-.123a23.61 23.61 0 001.993-.258l-.345-1.97c-.567.1-1.175.179-1.824.236l.176 1.992zm3.982-.724a11.6 11.6 0 001.953-.78l-.918-1.777a9.585 9.585 0 01-1.616.643l.581 1.914zm3.755-2.029a6.363 6.363 0 001.364-1.811l-1.788-.896c-.229.457-.54.871-.94 1.244l1.364 1.463zm2.011-3.963c.046-.354.069-.718.069-1.091h-2c0 .291-.018.568-.052.83l1.983.261zm.069-1.091v-1.372h-2v1.372h2zm0-4.117V27.58h-2v1.373h2zm0-1.373c0-.418-.025-.82-.077-1.205l-1.982.266c.039.288.059.6.059.939h2zm-.905-3.623a4.886 4.886 0 00-.863-1.033l-1.343 1.482c.196.178.366.381.51.611l1.696-1.06zm-.851-1.021a6.792 6.792 0 00-1.008-.78l-1.072 1.689c.261.166.498.349.712.55l1.368-1.46zm-3.27-1.76a11.18 11.18 0 00-1.167-.253l-.323 1.974c.339.055.659.125.959.208l.531-1.928zm-1.167-.253a23.123 23.123 0 00-.841-.121l-.25 1.984c.269.034.525.071.768.11l.323-1.973zm-2.509-.284a46.449 46.449 0 00-1.658-.09l-.075 1.998c.56.02 1.089.05 1.586.086l.147-1.994zm-3.309-.13a76.49 76.49 0 00-.824-.004v2c.273 0 .54.001.802.004l.022-2zm-.824-.004h-.922v2h.922v-2zm-2.767 0h-.923v2h.923v-2zm.077 1v-.892h-2v.892h2zm0-2.677v-1.785h-2v1.785h2zm0-3.57v-1.785h-2v1.784h2zm0-3.57v-.893h-2v.893h2zm-1-1.893h-.877v2h.877v-2zm-2.632 0h-1.755v2h1.755v-2zm-3.51 0h-.878v2h.878v-2zm25.122 1v1.043h2v-1.043h-2zm0 3.13v2.085h2v-2.086h-2zm0 4.171v2.086h2v-2.086h-2zm0 4.172v2.087h2v-2.087h-2zm0 4.172v2.087h2V26.44h-2zm0 4.173v2.086h2v-2.086h-2zm0 4.172v2.086h2v-2.086h-2zm0 4.172V40h2v-1.043h-2zm1 2.043h.878v-2h-.878v2zm2.633 0h1.755v-2h-1.755v2zm3.51 0h.877v-2h-.877v2zm1.877-1v-1.043h-2V40h2zm0-3.13v-2.085h-2v2.086h2zm0-4.171v-2.086h-2v2.086h2zm0-4.172V26.44h-2v2.087h2zm0-4.172v-2.087h-2v2.087h2zm0-4.173v-2.086h-2v2.086h2zm0-4.172v-2.086h-2v2.086h2zm0-4.172v-1.043h-2v1.043h2zm-1-2.043h-.877v2h.877v-2zm-2.632 0h-1.755v2h1.755v-2zm-3.51 0h-.878v2h.878v-2zm-17.438 24.21h-.866v2h.866v-2zm-2.599 0h-.866v2h.866v-2zm.134 1v-1.063h-2v1.063h2zm0-3.19V29.69h-2v2.127h2zm0-4.252V26.5h-2v1.063h2zm-1-.063h.889v-2h-.889v2zm2.666 0h.889v-2h-.889v2zm.889 0c.33 0 .64.006.93.018l.08-1.999a24.93 24.93 0 00-1.01-.019v2zm2.7.204c.317.063.558.137.736.212l.779-1.842a5.84 5.84 0 00-1.122-.331l-.393 1.96zm.736.212c.116.05.202.103.266.155l1.265-1.549a3.069 3.069 0 00-.752-.448l-.779 1.842zm.523.598c.022.1.036.222.036.371h2a3.68 3.68 0 00-.085-.809l-1.951.438zm.036.371v.776h2v-.776h-2zm0 2.329v.776h2v-.776h-2zm0 .776c0 .177-.016.333-.045.47l1.957.413c.06-.286.088-.581.088-.883h-2zm-.409 1.177c-.09.094-.201.185-.339.272l1.066 1.692c.264-.166.506-.36.718-.581l-1.445-1.383zm-.316.258a3.03 3.03 0 01-.687.285l.565 1.918a5 5 0 001.142-.483l-1.02-1.72zm-2.425.554a15.6 15.6 0 01-.935.026v2c.368 0 .72-.01 1.055-.03l-.12-1.996zm31.217-23.184v-.5h-.5v.5h.5zm7.02 0h.5v-.5h-.5v.5zm0 19.98h-.5v1.73l.923-1.463-.423-.267zm12.6-19.98v-.5h-.276l-.147.233.423.267zm7.02 0h.5v-.5h-.5v.5zm0 29.205v.5h.5V40h-.5zm-7.02 0h-.5v.5h.5V40zm0-20.295h.5v-1.753l-.925 1.49.425.263zM253.211 40v.5h.278l.147-.236-.425-.264zm-7.02 0h-.5v.5h.5V40zm6.615-34.245l-.327.379.005.003.322-.382zm-2.295-5.13v-.5h-.5v.5h.5zm5.625 0l.497-.058-.052-.442h-.445v.5zm.99 2.745l-.363.343.004.006.005.005.354-.354zm4.815 0l-.354-.354-.005.006-.004.005.363.343zm1.035-2.745v-.5h-.445l-.052.442.497.058zm5.625 0h.5v-.5h-.5v.5zm-2.295 5.13l.322.382.005-.003-.327-.379zm-20.615 5.04v1.043h1v-1.043h-1zm0 3.13v2.085h1v-2.086h-1zm0 4.171v2.086h1v-2.086h-1zm0 4.172v2.087h1v-2.087h-1zm0 4.172v2.087h1V26.44h-1zm0 4.173v2.086h1v-2.086h-1zm0 4.172v2.086h1v-2.086h-1zm0 4.172V40h1v-1.043h-1zm.5 1.543h.878v-1h-.878v1zm2.633 0h1.755v-1h-1.755v1zm3.51 0h.877v-1h-.877v1zm1.302-.236l.525-.846-.85-.527-.525.845.85.528zm1.575-2.537l1.05-1.691-.85-.528-1.05 1.691.85.528zm2.1-3.383l1.05-1.69-.85-.528-1.05 1.69.85.528zm2.1-3.382l1.05-1.691-.85-.528-1.05 1.691.85.528zm2.1-3.383l1.05-1.69-.85-.528-1.05 1.69.85.528zm2.1-3.382l1.05-1.691-.85-.528-1.05 1.691.85.528zm2.1-3.383l.525-.845-.85-.528-.525.846.85.527zm-.4-1.109v1.015h1v-1.015h-1zm0 3.044v2.03h1v-2.03h-1zm0 4.06v2.029h1v-2.03h-1zm0 4.058v2.03h1v-2.03h-1zm0 4.06v2.029h1v-2.03h-1zm0 4.058V40h1v-1.015h-1zm.5 1.515h.878v-1h-.878v1zm2.633 0h1.755v-1h-1.755v1zm3.51 0h.877v-1h-.877v1zm1.377-.5v-1.043h-1V40h1zm0-3.13v-2.085h-1v2.086h1zm0-4.171v-2.086h-1v2.086h1zm0-4.172V26.44h-1v2.087h1zm0-4.172v-2.087h-1v2.087h1zm0-4.173v-2.086h-1v2.086h1zm0-4.172v-2.086h-1v2.086h1zm0-4.172v-1.043h-1v1.043h1zm-.5-1.543h-.877v1h.877v-1zm-2.632 0h-1.755v1h1.755v-1zm-3.51 0h-.878v1h.878v-1zm-1.301.233l-.525.833.846.533.525-.832-.846-.534zm-1.575 2.498l-1.05 1.665.846.533 1.05-1.665-.846-.533zm-2.1 3.33l-1.05 1.665.846.533 1.05-1.665-.846-.533zm-2.1 3.33l-1.05 1.665.846.533 1.05-1.665-.846-.533zm-2.1 3.33l-1.05 1.665.846.533 1.05-1.665-.846-.533zm-2.1 3.33l-1.05 1.665.846.533 1.05-1.665-.846-.533zm-2.1 3.33l-.525.832.846.534.525-.833-.846-.533zm.398 1.099v-.999h-1v.999h1zm0-2.997V25.78h-1v1.998h1zm0-3.996v-1.998h-1v1.998h1zm0-3.996v-1.998h-1v1.998h1zm0-3.996v-1.998h-1v1.998h1zm0-3.996v-.999h-1v.999h1zm-.5-1.499h-.877v1h.877v-1zm-2.632 0h-1.755v1h1.755v-1zm-3.51 0h-.878v1h.878v-1zm12.487-3.105c-.299 0-.59-.007-.872-.02l-.047.999c.299.014.605.021.919.021v-1zm-2.594-.199c-.599-.1-1.15-.24-1.655-.414l-.327.944a11.24 11.24 0 001.816.456l.166-.986zm-3.166-1.13a6.07 6.07 0 01-.668-.488l-.644.764c.243.205.502.395.778.569l.534-.846zm-.663-.485a6.43 6.43 0 01-.926-.977l-.796.605c.308.405.664.781 1.068 1.13l.654-.758zm-1.999-3.4a7.212 7.212 0 01-.123-1.351h-1c0 .533.047 1.046.141 1.539l.982-.189zm-.623-.851h1.406v-1h-1.406v1zm4.219 0h1.406v-1h-1.406v1zm.909-.442c.032.27.071.527.119.77l.981-.191a9.225 9.225 0 01-.106-.695l-.994.116zm.622 2.31c.141.272.307.515.502.72l.727-.686a2.162 2.162 0 01-.341-.494l-.888.46zm.511.73c.187.187.399.346.634.477l.488-.873a1.86 1.86 0 01-.414-.31l-.708.707zm2.069.916c.228.028.466.041.715.041v-1c-.213 0-.412-.011-.597-.034l-.118.993zm.715.041c.246 0 .481-.013.705-.04l-.118-.993a4.971 4.971 0 01-.587.033v1zm2.125-.479a2.7 2.7 0 00.624-.488l-.727-.686a1.71 1.71 0 01-.394.307l.497.867zm.614-.477a3.11 3.11 0 00.525-.714l-.877-.48c-.109.2-.229.36-.356.486l.708.708zm1.056-2.263a9.78 9.78 0 00.122-.778l-.994-.116a8.72 8.72 0 01-.108.697l.98.197zm-.375-.336h1.406v-1h-1.406v1zm4.219 0h1.406v-1h-1.406v1zm.906-.5c0 .475-.041.925-.123 1.35l.982.189a8.195 8.195 0 00.141-1.539h-1zm-1.196 3.774a6.43 6.43 0 01-.926.977l.654.758a7.46 7.46 0 001.068-1.13l-.796-.605zm-.921.974a6.07 6.07 0 01-.668.487l.534.846c.276-.174.535-.364.778-.569l-.644-.764zm-2.179 1.204c-.505.175-1.056.313-1.655.414l.166.986a11.24 11.24 0 001.816-.456l-.327-.944zm-3.377.593c-.282.013-.573.02-.872.02v1c.314 0 .62-.007.919-.021l-.047-.999zm-14.237 3.625v-1h-1v1h1zm7.02 0h1v-1h-1v1zm0 19.98h-1v3.46l1.846-2.927-.846-.533zm12.6-19.98v-1h-.552l-.294.467.846.533zm7.02 0h1v-1h-1v1zm0 29.205v1h1v-1h-1zm-7.02 0h-1v1h1v-1zm0-20.295h1v-3.507l-1.85 2.98.85.527zM253.211 40v1h.556l.294-.472-.85-.528zm-7.02 0h-1v1h1v-1zm6.615-34.245l-.653.757.008.008.645-.765zm-2.295-5.13v-1h-1v1h1zm5.625 0l.993-.116-.103-.884h-.89v1zm.99 2.745l-.727.687.01.01.01.01.707-.707zm4.815 0l-.707-.707-.01.01-.01.01.727.687zm1.035-2.745v-1h-.89l-.103.884.993.116zm5.625 0h1v-1h-1v1zm-2.295 5.13l.645.765.008-.008-.653-.757zm-21.115 5.04v1.043h2v-1.043h-2zm0 3.13v2.085h2v-2.086h-2zm0 4.171v2.086h2v-2.086h-2zm0 4.172v2.087h2v-2.087h-2zm0 4.172v2.087h2V26.44h-2zm0 4.173v2.086h2v-2.086h-2zm0 4.172v2.086h2v-2.086h-2zm0 4.172V40h2v-1.043h-2zm1 2.043h.878v-2h-.878v2zm2.633 0h1.755v-2h-1.755v2zm3.51 0h.877v-2h-.877v2zm1.727-.472l.525-.846-1.7-1.055-.525.845 1.7 1.056zm1.575-2.537l1.05-1.692-1.7-1.055-1.05 1.692 1.7 1.055zm2.1-3.383l1.05-1.691-1.7-1.055-1.05 1.691 1.7 1.055zm2.1-3.382l1.05-1.692-1.7-1.055-1.05 1.692 1.7 1.055zm2.1-3.383l1.05-1.691-1.7-1.055-1.05 1.691 1.7 1.055zm2.1-3.382l1.05-1.692-1.7-1.055-1.05 1.692 1.7 1.055zm2.1-3.383l.525-.845-1.7-1.056-.525.846 1.7 1.055zm-1.325-1.373v1.015h2v-1.015h-2zm0 3.044v2.03h2v-2.03h-2zm0 4.06v2.029h2v-2.03h-2zm0 4.058v2.03h2v-2.03h-2zm0 4.06v2.029h2v-2.03h-2zm0 4.058V40h2v-1.015h-2zm1 2.015h.878v-2h-.878v2zm2.633 0h1.755v-2h-1.755v2zm3.51 0h.877v-2h-.877v2zm1.877-1v-1.043h-2V40h2zm0-3.13v-2.085h-2v2.086h2zm0-4.171v-2.086h-2v2.086h2zm0-4.172V26.44h-2v2.087h2zm0-4.172v-2.087h-2v2.087h2zm0-4.173v-2.086h-2v2.086h2zm0-4.172v-2.086h-2v2.086h2zm0-4.172v-1.043h-2v1.043h2zm-1-2.043h-.877v2h.877v-2zm-2.632 0h-1.755v2h1.755v-2zm-3.51 0h-.878v2h.878v-2zm-1.724.467l-.525.832 1.692 1.067.525-.833-1.692-1.066zm-1.575 2.497l-1.05 1.665 1.692 1.067 1.05-1.665-1.692-1.067zm-2.1 3.33l-1.05 1.665 1.692 1.067 1.05-1.665-1.692-1.067zm-2.1 3.33l-1.05 1.665 1.692 1.067 1.05-1.665-1.692-1.067zm-2.1 3.33l-1.05 1.665 1.692 1.067 1.05-1.665-1.692-1.067zm-2.1 3.33l-1.05 1.665 1.692 1.067 1.05-1.665-1.692-1.067zm-2.1 3.33l-.525.833 1.692 1.066.525-.832-1.692-1.067zm1.321 1.366v-.999h-2v.999h2zm0-2.997V25.78h-2v1.998h2zm0-3.996v-1.998h-2v1.998h2zm0-3.996v-1.998h-2v1.998h2zm0-3.996v-1.998h-2v1.998h2zm0-3.996v-.999h-2v.999h2zm-1-1.999h-.877v2h.877v-2zm-2.632 0h-1.755v2h1.755v-2zm-3.51 0h-.878v2h.878v-2zm12.487-3.105c-.291 0-.574-.007-.849-.02l-.094 1.998c.307.015.622.022.943.022v-2zm-2.511-.192a9.77 9.77 0 01-1.574-.394l-.655 1.89a11.72 11.72 0 001.897.476l.332-1.972zm-2.982-1.06a5.489 5.489 0 01-.612-.448l-1.29 1.53c.262.22.54.423.834.608l1.068-1.69zm-.604-.44a6.008 6.008 0 01-.854-.902l-1.592 1.211c.33.434.711.835 1.14 1.205l1.306-1.514zm-1.834-3.117a6.678 6.678 0 01-.114-1.256h-2c0 .562.049 1.107.15 1.633l1.964-.377zm-1.114-.256h1.406v-2h-1.406v2zm4.219 0h1.406v-2h-1.406v2zm.413-.885c.033.282.074.552.124.81l1.963-.384a9.014 9.014 0 01-.101-.657l-1.986.231zm.674 2.482c.159.307.351.59.582.835l1.454-1.374a1.634 1.634 0 01-.259-.38l-1.777.919zm.602.855c.221.22.47.407.743.56l.975-1.746a1.363 1.363 0 01-.304-.228l-1.414 1.414zm2.362 1.059c.25.03.509.044.775.044v-2a4.52 4.52 0 01-.537-.03l-.238 1.986zm.775.044c.263 0 .518-.014.764-.043l-.236-1.986a4.468 4.468 0 01-.528.029v2zm2.373-.545c.275-.157.523-.35.739-.578l-1.454-1.374c-.076.08-.167.153-.278.217l.993 1.735zm.719-.558c.241-.241.443-.52.61-.827l-1.754-.96a1.63 1.63 0 01-.27.373l1.414 1.414zm1.193-2.517a9.66 9.66 0 00.128-.82l-1.986-.23a8.397 8.397 0 01-.102.655l1.96.395zm-.865.065h1.406v-2h-1.406v2zm4.219 0h1.406v-2h-1.406v2zm.406-1c0 .446-.039.864-.114 1.256l1.964.377a8.64 8.64 0 00.15-1.633h-2zm-1.094 3.471a5.958 5.958 0 01-.854.902l1.306 1.514c.429-.37.81-.771 1.14-1.205l-1.592-1.21zm-.846.894c-.189.16-.393.31-.612.447l1.068 1.691a7.6 7.6 0 00.834-.608l-1.29-1.53zm-2.02 1.114a9.744 9.744 0 01-1.574.394l.332 1.972a11.72 11.72 0 001.897-.476l-.655-1.89zm-3.236.567c-.275.012-.558.019-.849.019v2c.321 0 .636-.007.943-.022l-.094-1.997z" fill="#77C2F9" fill-opacity=".9"/></svg>