<svg width="304" height="45" fill="none" xmlns="http://www.w3.org/2000/svg"><path d="M11.15 44.15l-.077.494h.002l.075-.494zm-4.7-1.2l.164-.472-.003-.001-.161.473zm-4.15-2.9l-.404.295.004.005.4-.3zM1.85 16.6l-.433-.25-.005.008.438.242zm2.8-3l-.268-.422-.004.002.272.42zm3.7-1.6l.142.48L8.35 12zm4.1-.8l.04.498h.003l-.043-.498zm7.7.05l-.058.497h.007l.007.001.044-.498zm3.8.7l.14-.48-.013-.004-.127.484zm3.95 1.7l.271-.42-.271.42zm2.6 2.8l-.432.252.002.003.43-.255zm-.35 23.3l-.401-.298-.005.006.406.292zm-3.9 2.95l-.186-.464.186.464zM19 38.85l.045.498h.01l.01-.002L19 38.85zm2.35-.5l-.14-.48.14.48zm1.8-1.15l-.397-.304-.003.004.4.3zm-1.2-19.6l-.238.44.01.005.228-.445zM9.25 37.2l-.397.304.004.006.005.005.388-.315zm1.9 1.15l.14-.48-.005-.002-.135.482zm2.3.5l-.068.495.013.002.012.001.043-.498zm2.7 5.15c-.42 0-.833-.006-1.238-.02l-.032 1c.416.013.84.02 1.27.02v-1zm-3.703-.187a27.77 27.77 0 01-1.222-.157l-.15.988c.413.063.835.118 1.266.164l.106-.995zm-1.22-.157c-.385-.06-.774-.131-1.17-.213l-.204.978c.411.086.818.16 1.22.223l.154-.988zm-3.477-.808a30.93 30.93 0 01-1.136-.37l-.328.944c.395.137.786.265 1.173.383l.291-.957zm-1.14-.371a9.669 9.669 0 01-1.13-.463l-.438.898c.395.193.81.363 1.247.511l.322-.946zm-3.112-1.828a7.283 7.283 0 01-.798-.899l-.8.6c.275.367.577.707.907 1.022l.69-.723zm-.794-.894a6.907 6.907 0 01-.634-1.05l-.898.44c.205.42.447.82.724 1.2l.808-.59zm-1.326-3.407A9.664 9.664 0 011.3 35.1h-1c0 .473.029.932.087 1.377l.991-.13zM1.3 35.1v-.888h-1v.888h1zm0-2.663v-1.774h-1v1.774h1zm0-3.55v-1.774h-1v1.774h1zm0-3.55v-1.774h-1v1.774h1zm0-3.55V20.9h-1v.888h1zm0-.887c0-.364.019-.718.057-1.062l-.994-.11C.32 20.11.3 20.502.3 20.9h1zm.545-3.107a7.47 7.47 0 01.443-.951l-.876-.484a8.577 8.577 0 00-.5 1.076l.933.359zm.438-.942a9.5 9.5 0 01.535-.825l-.808-.588c-.21.288-.408.592-.593.911l.866.502zm1.858-2.253c.248-.209.508-.402.78-.578l-.543-.84c-.308.2-.602.418-.882.654l.645.764zm.777-.576c.26-.165.54-.324.838-.477l-.456-.89c-.323.166-.629.34-.918.523l.536.844zm2.636-1.24c.3-.106.613-.207.938-.303l-.284-.958c-.34.1-.669.206-.986.318l.332.943zm.938-.303c.335-.099.665-.189.989-.27l-.243-.97c-.338.085-.681.179-1.03.281l.284.96zm2.99-.668c.343-.05.68-.087 1.007-.113l-.078-.997c-.35.028-.708.068-1.071.12l.142.99zm1.01-.113c.3-.026.604-.048.912-.067l-.061-.998c-.316.02-.628.043-.936.069l.086.996zm2.741-.14c.302-.005.608-.008.917-.008v-1c-.316 0-.627.003-.935.009l.018 1zm.917-.008c.34 0 .671.003.992.01l.02-1c-.327-.007-.665-.01-1.012-.01v1zm2.965.102c.341.027.667.058.977.095l.116-.994c-.323-.038-.663-.07-1.017-.098l-.076.997zm.991.096c.3.027.612.063.933.109l.142-.99a18.408 18.408 0 00-.987-.115l-.088.996zm2.793.459c.301.068.61.144.924.227l.254-.968a30.891 30.891 0 00-.955-.234l-.223.975zm.911.223c.35.102.684.208 1.004.32l.328-.945a22.016 22.016 0 00-1.052-.335l-.28.96zm2.927 1.128c.32.164.618.335.892.512l.542-.84c-.305-.197-.63-.384-.978-.562l-.456.89zm.892.512c.25.162.49.34.72.536l.648-.762a7.805 7.805 0 00-.826-.614l-.542.84zm1.94 1.866c.175.24.341.495.5.766l.863-.504a10.156 10.156 0 00-.553-.85l-.81.588zm.501.77c.182.305.34.628.474.968l.93-.366a7.674 7.674 0 00-.544-1.113l-.86.51zm.974 3.088c.037.354.056.723.056 1.106h1c0-.416-.02-.819-.061-1.21l-.995.104zM31.1 20.9v.888h1V20.9h-1zm0 2.663v1.774h1v-1.774h-1zm0 3.55v1.774h1v-1.774h-1zm0 3.55v1.774h1v-1.774h-1zm0 3.55v.887h1v-.888h-1zm0 .887c0 .405-.026.794-.077 1.169l.991.134c.058-.421.086-.856.086-1.303h-1zm-.747 3.372a6.612 6.612 0 01-.604.98l.802.596a7.58 7.58 0 00.696-1.127l-.893-.449zm-.61.986a7.366 7.366 0 01-.747.887l.71.703c.31-.313.593-.648.85-1.006l-.812-.584zm-2.611 2.277a9.64 9.64 0 01-1.068.5l.372.93c.412-.166.804-.35 1.175-.553l-.48-.877zm-1.068.5c-.26.105-.521.204-.787.298l.337.942c.276-.099.55-.202.822-.31l-.372-.93zm-2.392.806c-.535.148-1.082.28-1.639.393l.2.98a25.57 25.57 0 001.706-.41l-.267-.963zm-3.303.678c-.55.076-1.11.137-1.68.183l.079.996a29.79 29.79 0 001.739-.189l-.138-.99zm-3.371.27c-.28.008-.563.011-.848.011v1c.293 0 .584-.004.873-.01l-.025-1zm-.748-5.539c-.24 0-.47-.002-.694-.005l-.014 1c.228.003.464.005.708.005v-1zm-2.074-.05a25.92 25.92 0 01-.683-.048l-.086.996c.225.02.463.036.714.05l.055-.998zm-.658-.045a13.423 13.423 0 01-.561-.09l-.177.985c.203.036.404.068.602.095l.136-.99zm-1.676-.333a17.792 17.792 0 01-.552-.152l-.28.96c.196.057.39.11.584.16l.248-.968zm-.557-.154a4.546 4.546 0 01-.481-.163l-.376.927c.186.076.382.142.587.2l.27-.964zm-1.318-.651a2.42 2.42 0 01-.329-.332l-.776.63c.138.17.293.327.464.47l.64-.768zm-.32-.32a2.477 2.477 0 01-.247-.395l-.893.448c.098.196.213.38.346.554l.794-.608zm-.516-1.303A3.874 3.874 0 019.1 35.1h-1c0 .213.013.421.04.623l.99-.13zM9.1 35.1v-.89h-1v.89h1zm0-2.672v-1.781h-1v1.781h1zm0-3.562v-1.782h-1v1.782h1zm0-3.563v-1.781h-1v1.781h1zm0-3.562v-.891h-1v.89h1zm0-.891c0-.326.03-.624.085-.894l-.98-.202A5.412 5.412 0 008.1 20.85h1zm.875-2.365c.196-.186.429-.35.703-.49l-.456-.89c-.35.18-.663.397-.934.652l.687.728zm.703-.49a6.22 6.22 0 011.274-.467l-.252-.968a7.208 7.208 0 00-1.478.545l.456.89zm4.08-.858c.453-.025.933-.037 1.442-.037v-1c-.525 0-1.023.013-1.496.038l.054.999zM16.2 17.1c.51 0 .99.013 1.444.039l.057-.998A25.544 25.544 0 0016.2 16.1v1zm4.248.451a6 6 0 011.264.489l.476-.88a6.994 6.994 0 00-1.476-.573l-.264.964zm1.274.494c.272.14.504.301.7.483l.68-.733a4.093 4.093 0 00-.924-.64l-.456.89zm1.492 1.926c.056.266.086.558.086.879h1c0-.382-.035-.745-.108-1.088l-.978.209zm.086.879v.89h1v-.89h-1zm0 2.672v1.781h1v-1.781h-1zm0 3.562v1.782h1v-1.782h-1zm0 3.563v1.781h1v-1.781h-1zm0 3.562v.891h1v-.89h-1zm0 .891c0 .173-.01.338-.03.494l.99.129c.027-.202.04-.41.04-.623h-1zm-.3 1.402c-.07.139-.152.27-.247.394l.794.608c.133-.174.248-.358.346-.554L23 36.502zm-.25.398a2.216 2.216 0 01-.3.326l.665.746c.161-.143.307-.3.435-.472l-.8-.6zm-1.083.808c-.141.06-.293.114-.457.162l.28.96a5.27 5.27 0 00.568-.201l-.391-.92zm-.457.162c-.189.055-.377.106-.563.154l.246.969c.198-.05.397-.105.597-.163l-.28-.96zm-1.701.397c-.192.033-.384.062-.574.087l.13.992c.204-.027.409-.058.615-.094l-.171-.985zm-.554.085c-.207.019-.43.035-.67.049l.057.998c.25-.014.484-.031.703-.051l-.09-.996zm-2.024.093a37.4 37.4 0 01-.681.005v1c.24 0 .472-.002.695-.005l-.014-1zM11.15 44.15l-.154.988H11l.15-.988zm-4.7-1.2l.328-.945-.006-.002-.322.947zm-4.15-2.9l-.807.59.007.01.8-.6zM1.85 16.6l-.865-.501-.005.009-.005.008.875.484zm2.8-3l-.535-.845-.008.005.543.84zm3.7-1.6l.283.959L8.35 12zm4.1-.8l.079.997h.006l-.085-.997zm7.7.05l-.117.993.015.002.014.001.088-.996zm3.8.7l.28-.96-.013-.004-.014-.003-.253.967zm3.95 1.7l.542-.84-.542.84zm2.6 2.8l-.864.504.005.007.859-.511zm-.35 23.3l-.802-.597-.005.007-.005.007.812.583zm-3.9 2.95l-.371-.928.371.928zM19 38.85l.09.996.02-.002.02-.002-.13-.992zm2.35-.5l-.28-.96.28.96zm1.8-1.15l-.794-.608-.006.008.8.6zm-1.2-19.6l-.476.88.01.005.01.005.456-.89zM9.25 37.2l-.794.607.009.012.009.012.776-.631zm1.9 1.15l.28-.96-.01-.003-.27.963zm2.3.5l-.135.99.024.004.024.002.087-.996zm2.7 4.65c-.415 0-.823-.006-1.222-.02l-.064 2c.422.013.85.02 1.286.02v-2zm-3.65-.184c-.41-.044-.81-.095-1.2-.155L11 45.14c.42.064.85.119 1.287.166l.213-1.989zm-1.196-.154a22.575 22.575 0 01-1.144-.209l-.409 1.958c.42.087.834.163 1.245.227l.308-1.976zm-3.408-.792a30.425 30.425 0 01-1.118-.365l-.656 1.89c.4.139.798.268 1.191.388l.583-1.913zm-1.124-.367a9.158 9.158 0 01-1.072-.439l-.877 1.798c.415.202.85.38 1.305.535l.644-1.894zm-2.93-1.716a6.77 6.77 0 01-.742-.837l-1.6 1.2c.291.388.612.75.962 1.084l1.38-1.447zm-.735-.828a6.407 6.407 0 01-.588-.973l-1.797.878c.219.448.476.873.771 1.277l1.614-1.181zm-1.233-3.176A9.166 9.166 0 011.8 35.1h-2c0 .493.03.974.09 1.441l1.984-.258zM1.8 35.1v-.888h-2v.888h2zm0-2.663v-1.774h-2v1.774h2zm0-3.55v-1.774h-2v1.774h2zm0-3.55v-1.774h-2v1.774h2zm0-3.55V20.9h-2v.888h2zm0-.887c0-.347.018-.683.054-1.008l-1.988-.218c-.044.4-.066.81-.066 1.226h2zm.512-2.928c.117-.306.255-.602.413-.888l-1.75-.968c-.203.367-.38.747-.53 1.139l1.867.717zm.403-.871c.16-.276.33-.536.507-.78l-1.616-1.178c-.221.303-.428.622-.621.956l1.73 1.002zm1.748-2.12c.232-.196.475-.377.73-.541l-1.086-1.68a9.16 9.16 0 00-.934.692l1.29 1.528zm.722-.536a9.96 9.96 0 01.8-.455l-.913-1.78c-.335.172-.655.354-.957.545l1.07 1.69zm2.535-1.191c.291-.103.596-.201.913-.295l-.566-1.918c-.348.103-.685.211-1.011.326l.664 1.887zm.913-.295c.33-.097.652-.185.97-.265l-.487-1.94a26.07 26.07 0 00-1.05.287l.567 1.918zm2.92-.653c.333-.048.658-.084.976-.11l-.158-1.993c-.361.029-.729.07-1.102.123l.284 1.98zm.982-.11c.296-.025.595-.047.9-.066l-.123-1.996c-.32.02-.636.043-.947.07l.17 1.992zm2.708-.137c.298-.006.6-.009.907-.009v-2c-.319 0-.634.003-.945.009l.038 2zm.907-.009c.338 0 .665.003.981.01l.041-2c-.33-.007-.672-.01-1.022-.01v2zm2.926.1c.336.027.655.058.957.093l.234-1.986a26.147 26.147 0 00-1.037-.1l-.154 1.994zm.986.096c.291.026.593.061.906.106l.284-1.98c-.346-.05-.685-.09-1.014-.118l-.176 1.992zm2.726.448c.295.068.598.142.909.223l.506-1.934a31.83 31.83 0 00-.97-.239l-.445 1.95zm.882.216c.342.1.668.204.98.312l.656-1.89c-.346-.12-.704-.234-1.076-.342l-.56 1.92zm2.839 1.093c.307.158.59.32.849.487l1.084-1.68c-.32-.207-.66-.402-1.021-.587l-.912 1.78zm.849.487c.232.15.454.315.667.496l1.296-1.523a8.277 8.277 0 00-.879-.653l-1.084 1.68zm1.807 1.74c.164.226.321.467.471.724l1.728-1.008a10.706 10.706 0 00-.58-.891l-1.619 1.174zm.476.731c.167.282.313.58.437.896l1.861-.732a8.166 8.166 0 00-.58-1.186L29.64 16.96zm.906 2.885c.035.336.053.687.053 1.054h2c0-.432-.021-.853-.064-1.262l-1.989.208zM30.6 20.9v.888h2V20.9h-2zm0 2.663v1.774h2v-1.774h-2zm0 3.55v1.774h2v-1.774h-2zm0 3.55v1.774h2v-1.774h-2zm0 3.55v.887h2v-.888h-2zm0 .887c0 .384-.024.75-.072 1.101l1.982.27c.06-.445.09-.903.09-1.371h-2zm-.693 3.148a6.115 6.115 0 01-.56.905l1.605 1.194c.283-.38.53-.781.742-1.201l-1.787-.898zm-.57.919c-.21.294-.443.57-.697.826l1.422 1.406a8.87 8.87 0 00.9-1.066l-1.624-1.166zm-2.445 2.13a9.334 9.334 0 01-1.013.475l.742 1.857c.43-.172.84-.365 1.23-.578l-.96-1.755zm-1.013.475c-.254.1-.51.198-.77.29l.673 1.884c.282-.1.562-.207.84-.317l-.743-1.857zm-2.34.787c-.524.145-1.06.274-1.606.385l.4 1.96c.59-.12 1.17-.26 1.74-.418l-.534-1.927zm-3.239.665c-.54.075-1.09.135-1.651.18l.158 1.993a30.222 30.222 0 001.769-.192l-.276-1.981zm-3.315.266c-.276.006-.554.01-.835.01v2c.297 0 .592-.004.886-.011l-.05-2zm-.735-5.54c-.237 0-.466-.002-.686-.005l-.029 2c.23.003.469.005.715.005v-2zm-2.046-.05c-.237-.013-.46-.028-.667-.046l-.174 1.992c.231.02.475.037.73.052l.111-1.997zm-.619-.04a13.079 13.079 0 01-.54-.086l-.353 1.968c.21.038.417.07.623.099l.27-1.982zm-1.618-.323a17.377 17.377 0 01-.537-.147l-.56 1.92c.201.059.401.113.6.164l.497-1.937zm-.547-.15a4.026 4.026 0 01-.429-.145l-.75 1.854c.204.083.418.155.64.217l.539-1.926zm-1.133-.554a1.911 1.911 0 01-.26-.264l-1.553 1.262c.159.195.337.375.532.537l1.281-1.535zm-.243-.24a1.97 1.97 0 01-.197-.316l-1.787.898c.112.223.244.434.396.632l1.588-1.215zm-.417-1.064A3.323 3.323 0 019.6 35.1h-2c0 .233.014.463.043.688l1.984-.259zM9.6 35.1v-.89h-2v.89h2zm0-2.672v-1.781h-2v1.781h2zm0-3.562v-1.782h-2v1.782h2zm0-3.563v-1.781h-2v1.781h2zm0-3.562v-.891h-2v.89h2zm0-.891c0-.297.027-.56.075-.793l-1.959-.405A5.91 5.91 0 007.6 20.85h2zm.718-2.002c.159-.15.352-.287.589-.408l-.914-1.78c-.388.2-.74.443-1.048.734l1.373 1.454zm.589-.408a5.72 5.72 0 011.17-.428l-.503-1.936a7.706 7.706 0 00-1.58.584l.913 1.78zm3.878-.804c.443-.024.914-.036 1.415-.036v-2c-.533 0-1.04.013-1.523.039l.108 1.997zM16.2 17.6c.501 0 .973.013 1.415.038l.114-1.997A26.849 26.849 0 0016.2 15.6v2zm4.116.433c.467.128.85.28 1.159.447l.95-1.76a7.49 7.49 0 00-1.58-.615l-.53 1.928zm1.177.457c.236.12.43.257.588.404l1.361-1.465a4.59 4.59 0 00-1.035-.719l-.914 1.78zm1.232 1.585c.048.227.075.485.075.775h2c0-.413-.038-.811-.12-1.192l-1.955.417zm.075.775v.89h2v-.89h-2zm0 2.672v1.781h2v-1.781h-2zm0 3.562v1.782h2v-1.782h-2zm0 3.563v1.781h2v-1.781h-2zm0 3.562v.891h2v-.89h-2zm0 .891c0 .153-.01.296-.027.43l1.984.258c.029-.225.043-.454.043-.688h-2zm-.247 1.178a1.974 1.974 0 01-.197.315l1.588 1.214c.152-.198.284-.41.396-.632l-1.787-.897zm-.203.322a1.62 1.62 0 01-.233.252l1.33 1.494c.186-.166.354-.348.503-.546l-1.6-1.2zm-.879.648c-.121.052-.255.1-.401.142l.56 1.92c.216-.063.424-.136.623-.22l-.782-1.842zm-.401.142c-.183.053-.365.103-.546.149l.492 1.938c.204-.051.409-.107.614-.167l-.56-1.92zm-1.646.384c-.186.032-.37.06-.553.084l.258 1.984c.211-.028.423-.06.636-.097l-.341-1.97zm-.514.08c-.2.018-.418.034-.652.047l.112 1.997c.254-.014.494-.032.72-.052l-.18-1.992zm-1.986.091c-.216.004-.44.005-.674.005v2c.242 0 .477-.002.702-.005l-.028-2zM47.877 17.1h.5v-.5h-.5v.5zm-10 0h-.5v.5h.5v-.5zm0-5.55v-.5h-.5v.5h.5zm27.75 0h.5v-.5h-.5v.5zm0 5.55v.5h.5v-.5h-.5zm-9.95 0v-.5h-.5v.5h.5zm0 26.9v.5h.5V44h-.5zm-7.8 0h-.5v.5h.5V44zm0-27.4h-.833v1h.833v-1zm-2.5 0H43.71v1h1.667v-1zm-3.333 0h-1.667v1h1.667v-1zm-3.334 0h-.833v1h.833v-1zm-.333.5v-1.388h-1V17.1h1zm0-4.163V11.55h-1v1.387h1zm-.5-.887h.991v-1h-.991v1zm2.973 0h1.982v-1H40.85v1zm3.965 0h1.982v-1h-1.982v1zm3.964 0h1.982v-1h-1.982v1zm3.964 0h1.982v-1h-1.982v1zm3.964 0h1.983v-1h-1.983v1zm3.965 0h1.982v-1h-1.982v1zm3.964 0h.991v-1h-.991v1zm.491-.5v1.387h1V11.55h-1zm0 4.162V17.1h1v-1.388h-1zm.5.888h-1.244v1h1.244v-1zm-3.731 0h-2.488v1h2.488v-1zm-4.975 0h-1.244v1h1.244v-1zm-1.744.5v.96h1v-.96h-1zm0 2.882v1.922h1v-1.922h-1zm0 3.843v1.921h1v-1.921h-1zm0 3.843v1.921h1v-1.921h-1zm0 3.843v1.921h1v-1.921h-1zm0 3.843v1.921h1v-1.921h-1zm0 3.842v1.922h1v-1.922h-1zm0 3.843V44h1v-.96h-1zm.5.461h-.975v1h.975v-1zm-2.925 0h-1.95v1h1.95v-1zm-3.9 0h-.975v1h.975v-1zm-.475.5v-.96h-1V44h1zm0-2.882v-1.922h-1v1.922h1zm0-3.843v-1.921h-1v1.921h1zm0-3.843v-1.921h-1v1.921h1zm0-3.843v-1.921h-1v1.921h1zm0-3.843v-1.921h-1v1.921h1zm0-3.842v-1.922h-1v1.922h1zm0-3.843V17.1h-1v.96h1zm-.5-.961h1v-1h-1v1zm-10 0h-1v1h1v-1zm0-5.55v-1h-1v1h1zm27.75 0h1v-1h-1v1zm0 5.55v1h1v-1h-1zm-9.95 0v-1h-1v1h1zm0 26.9v1h1v-1h-1zm-7.8 0h-1v1h1v-1zm0-27.9h-.833v2h.833v-2zm-2.5 0H43.71v2h1.667v-2zm-3.333 0h-1.667v2h1.667v-2zm-3.334 0h-.833v2h.833v-2zm.167 1v-1.388h-2V17.1h2zm0-4.163V11.55h-2v1.387h2zm-1-.387h.991v-2h-.991v2zm2.973 0h1.982v-2H40.85v2zm3.965 0h1.982v-2h-1.982v2zm3.964 0h1.982v-2h-1.982v2zm3.964 0h1.982v-2h-1.982v2zm3.964 0h1.983v-2h-1.983v2zm3.965 0h1.982v-2h-1.982v2zm3.964 0h.991v-2h-.991v2zm-.009-1v1.387h2V11.55h-2zm0 4.162V17.1h2v-1.388h-2zm1 .388h-1.244v2h1.244v-2zm-3.731 0h-2.488v2h2.488v-2zm-4.975 0h-1.244v2h1.244v-2zm-2.244 1v.96h2v-.96h-2zm0 2.882v1.922h2v-1.922h-2zm0 3.843v1.921h2v-1.921h-2zm0 3.843v1.921h2v-1.921h-2zm0 3.843v1.921h2v-1.921h-2zm0 3.843v1.921h2v-1.921h-2zm0 3.842v1.922h2v-1.922h-2zm0 3.843V44h2v-.96h-2zm1-.039h-.975v2h.975v-2zm-2.925 0h-1.95v2h1.95v-2zm-3.9 0h-.975v2h.975v-2zm.025 1v-.96h-2V44h2zm0-2.882v-1.922h-2v1.922h2zm0-3.843v-1.921h-2v1.921h2zm0-3.843v-1.921h-2v1.921h2zm0-3.843v-1.921h-2v1.921h2zm0-3.843v-1.921h-2v1.921h2zm0-3.842v-1.922h-2v1.922h2zm0-3.843V17.1h-2v.96h2zM72.613 44.2l.109-.488-.013-.003-.014-.002-.082.493zm-1.3-.2h-.5v.441l.438.055.062-.496zm0-6.1l.068-.495-.568-.078v.573h.5zm5.7-1.25l.36.347.006-.006-.366-.341zm1.95-5.7l-.494-.076v.006l.494.07zm.65-19.4v-.5h-.5v.5h.5zm23.6 0h.5v-.5h-.5v.5zm0 32.45v.5h.5V44h-.5zm-7.8 0h-.5v.5h.5V44zm0-26.95h.5v-.5h-.5v.5zm-8.75 0v-.5h-.5v.5h.5zm-1.7 18.8l-.474-.16-.001.005.475.155zm-4.35 6.8l-.272-.42-.003.003.275.417zm-6.3 1.25a6.24 6.24 0 01-.396-.013l-.064.998c.155.01.309.015.46.015v-1zm-1.193-.11a8.707 8.707 0 01-.398-.078l-.217.976c.15.033.297.063.443.088l.172-.985zm-.425-.083c-.114-.02-.223-.037-.326-.054l-.16.987.322.053.164-.986zm-.983-.157c-.13-.019-.242-.034-.337-.046l-.124.992c.085.01.19.025.315.044l.146-.99zm.101.45v-.763h-1V44h1zm0-2.288v-1.525h-1v1.526h1zm0-3.05V37.9h-1v.763h1zm-.567-.267c.162.022.32.042.471.06l.114-.994a21.94 21.94 0 01-.45-.056l-.135.99zm1.428.142c.172.008.335.013.49.013v-1a8.72 8.72 0 01-.44-.012l-.05.999zm.49.013c.389 0 .762-.024 1.118-.073l-.137-.99a7.189 7.189 0 01-.982.063v1zm3.291-.816a4.64 4.64 0 00.918-.737l-.72-.694a3.64 3.64 0 01-.72.579l.522.852zm.924-.743c.186-.2.358-.429.517-.684l-.848-.53a3.48 3.48 0 01-.4.532l.731.682zm1.21-2.158c.164-.456.312-.962.445-1.517l-.973-.232c-.126.525-.263.995-.413 1.41l.941.339zm.751-3.046c.042-.248.081-.504.118-.767l-.99-.14a29.3 29.3 0 01-.114.742l.986.165zm.117-.761c.053-.341.102-.702.147-1.083l-.992-.12c-.045.372-.093.722-.143 1.051l.989.152zm.357-3.248c.053-.676.098-1.398.137-2.165l-.999-.05a76.81 76.81 0 01-.135 2.138l.997.077zm.224-4.327c.02-.69.038-1.41.05-2.16l-1-.017a147.03 147.03 0 01-.05 2.146l1 .031zm.073-4.321l.002-1.08h-1c0 .364 0 .723-.002 1.075l1 .005zm.002-1.08v-.813h-1v.813h1zm0-2.438v-1.624h-1v1.625h1zm0-3.25v-.812h-1v.813h1zm-.5-.312h.984v-1h-.984v1zm2.95 0h1.967v-1h-1.967v1zm3.934 0h1.966v-1h-1.966v1zm3.933 0h1.967v-1H90.43v1zm3.933 0h1.967v-1h-1.967v1zm3.934 0h1.966v-1h-1.966v1zm3.933 0h.983v-1h-.983v1zm.483-.5v1.014h1V11.55h-1zm0 3.042v2.028h1v-2.028h-1zm0 4.056v2.029h1v-2.029h-1zm0 4.057v2.028h1v-2.028h-1zm0 4.056v2.028h1v-2.028h-1zm0 4.056v2.028h1v-2.028h-1zm0 4.056v2.029h1v-2.029h-1zm0 4.057v2.028h1V38.93h-1zm0 4.056V44h1v-1.014h-1zm.5.514h-.975v1h.975v-1zm-2.925 0h-1.95v1h1.95v-1zm-3.9 0h-.975v1h.975v-1zm-.475.5v-.962h-1V44h1zm0-2.888v-1.925h-1v1.925h1zm0-3.85v-1.925h-1v1.925h1zm0-3.85v-1.924h-1v1.925h1zm0-3.85v-1.925h-1v1.925h1zm0-3.85v-1.924h-1v1.924h1zm0-3.85v-1.924h-1v1.925h1zm0-3.85v-.962h-1v.962h1zm-.5-1.462H94.32v1h1.093v-1zm-3.281 0h-2.188v1h2.188v-1zm-4.375 0h-1.094v1h1.094v-1zm-1.594.5v1.125h1V17.05h-1zm0 3.375v1.125h1v-1.125h-1zm0 1.125c0 .303-.001.603-.004.9l1 .01c.003-.3.004-.604.004-.91h-1zm-.039 2.696a74.862 74.862 0 01-.074 1.794l.998.054c.032-.59.057-1.196.076-1.818l-1-.03zm-.196 3.582a52.53 52.53 0 01-.177 1.782l.993.116c.07-.585.13-1.19.18-1.815l-.996-.083zm-.42 3.551a33.589 33.589 0 01-.326 1.751l.977.21c.124-.574.236-1.175.336-1.803l-.987-.158zm-.756 3.47c-.084.29-.171.57-.263.842l.948.319c.096-.285.188-.58.276-.883l-.961-.278zm-.264.846c-.107.328-.218.646-.332.952l.938.348c.118-.32.233-.65.345-.99l-.951-.31zm-1.12 2.793a13.054 13.054 0 01-.999 1.707l.82.574c.383-.548.742-1.161 1.076-1.838l-.897-.443zm-2.273 3.164a6.182 6.182 0 01-.754.578l.544.84c.303-.197.595-.42.876-.672l-.666-.746zm-.757.58a9.49 9.49 0 01-.675.407l.48.877c.255-.139.503-.289.746-.449l-.551-.834zm-2.114 1.047c-.488.17-.998.307-1.53.407l.187.983a11.55 11.55 0 001.673-.447l-.33-.943zm-3.11.598c-.262.015-.53.023-.8.023v1c.29 0 .575-.008.857-.024l-.057-.998zm-2.5.323l.216-.976-.026-.006-.026-.004-.165.986zm-1.3-.2h-1v.883l.875.11.124-.993zm0-6.1l.134-.99-1.135-.156V37.9h1zm5.7-1.25l.72.694.005-.006.006-.007-.732-.681zm1.95-5.7l-.99-.151v.011l.99.14zm.65-19.4v-1h-1v1h1zm23.599 0h1v-1h-1v1zm0 32.45v1h1v-1h-1zm-7.8 0h-1v1h1v-1zm0-26.95h1v-1h-1v1zm-8.75 0v-1h-1v1h1zm-1.7 18.8l-.947-.32-.003.01.95.31zm-4.35 6.8l-.544-.84-.007.005.551.835zm-6.3.75c-.118 0-.24-.004-.365-.012l-.127 1.996c.166.01.33.016.492.016v-2zm-1.108-.102a8.12 8.12 0 01-.375-.074l-.434 1.952c.157.035.312.066.466.093l.344-1.97zm-.427-.084c-.116-.02-.225-.038-.329-.054l-.32 1.974.32.052.329-1.972zm-.993-.158c-.132-.02-.248-.036-.348-.048l-.248 1.984c.08.01.181.024.304.042l.292-1.978zm.528.944v-.763h-2V44h2zm0-2.288v-1.525h-2v1.526h2zm0-3.05V37.9h-2v.763h2zm-1.135.229c.166.022.326.043.482.06l.228-1.986c-.14-.017-.287-.035-.44-.056l-.27 1.982zm1.47.145c.18.01.351.014.515.014v-2c-.126 0-.263-.004-.413-.011l-.102 1.997zm.515.014c.41 0 .806-.025 1.187-.078l-.273-1.981a6.676 6.676 0 01-.914.059v2zm3.554-.89a5.135 5.135 0 001.016-.816l-1.44-1.388a3.139 3.139 0 01-.622.5l1.046 1.704zm1.028-.829c.211-.226.402-.481.575-.76l-1.697-1.058a2.979 2.979 0 01-.342.456l1.464 1.362zm1.314-2.33c.172-.476.325-1 .46-1.568l-1.944-.465c-.122.51-.255.962-.397 1.356l1.881.678zm.775-3.132c.042-.252.082-.512.12-.78l-1.98-.279a33.49 33.49 0 01-.113.729l1.972.33zm.118-.768c.053-.347.103-.713.149-1.098l-1.986-.239c-.044.367-.09.712-.14 1.035l1.977.302zm.36-3.284c.054-.681.1-1.407.138-2.178l-1.997-.1a78.456 78.456 0 01-.134 2.123l1.994.155zm.225-4.35c.022-.693.039-1.415.051-2.168l-2-.033a145.97 145.97 0 01-.05 2.139l2 .062zm.074-4.335l.002-1.082h-2c0 .363 0 .72-.002 1.072l2 .01zm.002-1.082v-.813h-2v.813h2zm0-2.438v-1.624h-2v1.625h2zm0-3.25v-.812h-2v.813h2zm-1 .188h.984v-2h-.984v2zm2.95 0h1.967v-2h-1.967v2zm3.934 0h1.966v-2h-1.966v2zm3.933 0h1.967v-2H90.43v2zm3.933 0h1.967v-2h-1.967v2zm3.934 0h1.966v-2h-1.966v2zm3.933 0h.983v-2h-.983v2zm-.017-1v1.014h2V11.55h-2zm0 3.042v2.028h2v-2.028h-2zm0 4.056v2.029h2v-2.029h-2zm0 4.057v2.028h2v-2.028h-2zm0 4.056v2.028h2v-2.028h-2zm0 4.056v2.028h2v-2.028h-2zm0 4.056v2.029h2v-2.029h-2zm0 4.057v2.028h2V38.93h-2zm0 4.056V44h2v-1.014h-2zm1 .014h-.975v2h.975v-2zm-2.925 0h-1.95v2h1.95v-2zm-3.9 0h-.975v2h.975v-2zm.025 1v-.962h-2V44h2zm0-2.888v-1.925h-2v1.925h2zm0-3.85v-1.925h-2v1.925h2zm0-3.85v-1.924h-2v1.925h2zm0-3.85v-1.925h-2v1.925h2zm0-3.85v-1.924h-2v1.924h2zm0-3.85v-1.924h-2v1.925h2zm0-3.85v-.962h-2v.962h2zm-1-1.962H94.32v2h1.093v-2zm-3.281 0h-2.188v2h2.188v-2zm-4.375 0h-1.094v2h1.094v-2zm-2.094 1v1.125h2V17.05h-2zm0 3.375v1.125h2v-1.125h-2zm0 1.125c0 .302-.001.6-.004.895l2 .019c.003-.301.004-.606.004-.914h-2zm-.038 2.681c-.019.61-.043 1.205-.075 1.782l1.997.108c.032-.594.058-1.204.077-1.83l-2-.06zm-.195 3.556a51.99 51.99 0 01-.175 1.765l1.986.233c.07-.591.13-1.203.182-1.833l-1.993-.165zm-.416 3.513a32.937 32.937 0 01-.321 1.725l1.955.42c.126-.583.24-1.193.34-1.829l-1.974-.316zm-.742 3.41a19.79 19.79 0 01-.257.821l1.896.638c.098-.292.192-.593.282-.903l-1.921-.555zm-.26.83c-.105.322-.213.633-.324.933l1.874.696c.121-.326.239-.662.352-1.008l-1.901-.622zm-1.092 2.727a12.542 12.542 0 01-.96 1.64l1.638 1.148c.4-.57.771-1.206 1.115-1.902l-1.793-.886zm-2.158 3.012a5.62 5.62 0 01-.693.532l1.088 1.678c.326-.21.638-.45.937-.717l-1.332-1.493zm-.7.536a8.961 8.961 0 01-.639.386l.96 1.754c.267-.146.527-.303.781-.47l-1.102-1.67zm-2.004.992c-.463.162-.948.292-1.456.388l.372 1.965a12.044 12.044 0 001.746-.466l-.662-1.887zm-2.973.571c-.252.015-.51.022-.772.022v2c.3 0 .595-.008.886-.025l-.114-1.997zm37.626-31.828v-.5h-.5v.5h.5zm7.8 0h.5v-.5h-.5v.5zm0 22.2h-.5v1.73l.923-1.463-.423-.267zm14-22.2v-.5h-.276l-.147.233.423.267zm7.8 0h.5v-.5h-.5v.5zm0 32.45v.5h.5V44h-.5zm-7.8 0h-.5v.5h.5V44zm0-22.55h.5v-1.753l-.925 1.49.425.263zm-14 22.55v.5h.278l.147-.236-.425-.264zm-7.8 0h-.5v.5h.5V44zm-.5-32.45v1.014h1V11.55h-1zm0 3.042v2.028h1v-2.028h-1zm0 4.056v2.029h1v-2.029h-1zm0 4.057v2.028h1v-2.028h-1zm0 4.056v2.028h1v-2.028h-1zm0 4.056v2.028h1v-2.028h-1zm0 4.056v2.029h1v-2.029h-1zm0 4.057v2.028h1V38.93h-1zm0 4.056V44h1v-1.014h-1zm.5 1.514h.975v-1h-.975v1zm2.925 0h1.95v-1h-1.95v1zm3.9 0h.975v-1h-.975v1zm1.4-.236l.5-.806-.85-.527-.5.805.85.528zm1.5-2.416l1-1.611-.85-.528-1 1.611.85.528zm2-3.222l1-1.61-.85-.528-1 1.61.85.528zm2-3.221l1-1.61-.85-.528-1 1.61.85.528zm2-3.222l1-1.61-.85-.528-1 1.61.85.528zm2-3.221l1-1.61-.85-.528-1 1.61.85.528zm2-3.221l1-1.611-.85-.528-1 1.611.85.527zm2-3.222l.5-.805-.85-.528-.5.806.85.527zm-.425-1.069v.94h1v-.94h-1zm0 2.819v1.879h1v-1.88h-1zm0 3.758v1.88h1v-1.88h-1zm0 3.758v1.88h1v-1.88h-1zm0 3.759v1.879h1v-1.88h-1zm0 3.758v1.88h1v-1.88h-1zm0 3.758V44h1v-.94h-1zm.5 1.44h.975v-1h-.975v1zm2.925 0h1.95v-1h-1.95v1zm3.9 0h.975v-1h-.975v1zm1.475-.5v-1.014h-1V44h1zm0-3.042V38.93h-1v2.028h1zm0-4.056v-2.029h-1v2.029h1zm0-4.057v-2.028h-1v2.028h1zm0-4.056v-2.028h-1v2.028h1zm0-4.056v-2.028h-1v2.028h1zm0-4.056v-2.029h-1v2.029h1zm0-4.057v-2.028h-1v2.028h1zm0-4.056V11.55h-1v1.014h1zm-.5-1.514h-.975v1h.975v-1zm-2.925 0h-1.95v1h1.95v-1zm-3.9 0h-.975v1h.975v-1zm-1.398.233l-.5.793.846.534.5-.793-.846-.534zm-1.5 2.379l-1 1.586.846.533 1-1.586-.846-.533zm-2 3.171l-1 1.586.846.533 1-1.585-.846-.534zm-2 3.172l-1 1.585.846.534 1-1.586-.846-.533zm-2 3.171l-1 1.586.846.533 1-1.585-.846-.534zm-2 3.172l-1 1.585.846.534 1-1.586-.846-.533zm-2 3.171l-1 1.586.846.533 1-1.586-.846-.533zm-2 3.171l-.5.793.846.534.5-.793-.846-.534zm.423 1.06v-.925h-1v.925h1zm0-2.775v-1.85h-1v1.85h1zm0-3.7v-1.85h-1v1.85h1zm0-3.7v-1.85h-1v1.85h1zm0-3.7v-1.85h-1v1.85h1zm0-3.7v-1.85h-1v1.85h1zm0-3.7v-.925h-1v.925h1zm-.5-1.425h-.975v1h.975v-1zm-2.925 0h-1.95v1h1.95v-1zm-3.9 0h-.975v1h.975v-1zm-.975.5v-1h-1v1h1zm7.8 0h1v-1h-1v1zm0 22.2h-1v3.46l1.846-2.927-.846-.533zm14-22.2v-1h-.552l-.294.467.846.533zm7.8 0h1v-1h-1v1zm0 32.45v1h1v-1h-1zm-7.8 0h-1v1h1v-1zm0-22.55h1v-3.507l-1.85 2.98.85.527zm-14 22.55v1h.556l.294-.472-.85-.528zm-7.8 0h-1v1h1v-1zm-1-32.45v1.014h2V11.55h-2zm0 3.042v2.028h2v-2.028h-2zm0 4.056v2.029h2v-2.029h-2zm0 4.057v2.028h2v-2.028h-2zm0 4.056v2.028h2v-2.028h-2zm0 4.056v2.028h2v-2.028h-2zm0 4.056v2.029h2v-2.029h-2zm0 4.057v2.028h2V38.93h-2zm0 4.056V44h2v-1.014h-2zm1 2.014h.975v-2h-.975v2zm2.925 0h1.95v-2h-1.95v2zm3.9 0h.975v-2h-.975v2zm1.825-.472l.5-.806-1.7-1.055-.5.805 1.7 1.056zm1.5-2.417l1-1.61-1.7-1.055-1 1.61 1.7 1.055zm2-3.221l1-1.61-1.7-1.056-1 1.611 1.7 1.055zm2-3.221l1-1.611-1.7-1.055-1 1.61 1.7 1.056zm2-3.222l1-1.61-1.7-1.055-1 1.61 1.7 1.055zm2-3.221l1-1.611-1.7-1.055-1 1.61 1.7 1.056zm2-3.222l1-1.61-1.7-1.055-1 1.61 1.7 1.055zm2-3.221l.5-.806-1.7-1.055-.5.806 1.7 1.055zm-1.35-1.333v.94h2v-.94h-2zm0 2.819v1.879h2v-1.88h-2zm0 3.758v1.88h2v-1.88h-2zm0 3.758v1.88h2v-1.88h-2zm0 3.759v1.879h2v-1.88h-2zm0 3.758v1.88h2v-1.88h-2zm0 3.758V44h2v-.94h-2zm1 1.94h.975v-2h-.975v2zm2.925 0h1.95v-2h-1.95v2zm3.9 0h.975v-2h-.975v2zm1.975-1v-1.014h-2V44h2zm0-3.042V38.93h-2v2.028h2zm0-4.056v-2.029h-2v2.029h2zm0-4.057v-2.028h-2v2.028h2zm0-4.056v-2.028h-2v2.028h2zm0-4.056v-2.028h-2v2.028h2zm0-4.056v-2.029h-2v2.029h2zm0-4.057v-2.028h-2v2.028h2zm0-4.056V11.55h-2v1.014h2zm-1-2.014h-.975v2h.975v-2zm-2.925 0h-1.95v2h1.95v-2zm-3.9 0h-.975v2h.975v-2zm-1.821.467l-.5.792 1.692 1.067.5-.793-1.692-1.066zm-1.5 2.378l-1 1.586 1.692 1.067 1-1.586-1.692-1.067zm-2 3.172l-1 1.585 1.692 1.067 1-1.586-1.692-1.066zm-2 3.171l-1 1.586 1.692 1.067 1-1.586-1.692-1.067zm-2 3.171l-1 1.586 1.692 1.067 1-1.586-1.692-1.067zm-2 3.172l-1 1.586 1.692 1.066 1-1.585-1.692-1.067zm-2 3.171l-1 1.586 1.692 1.067 1-1.586-1.692-1.067zm-2 3.172l-.5.793 1.692 1.066.5-.792-1.692-1.067zm1.346 1.326v-.925h-2v.925h2zm0-2.775v-1.85h-2v1.85h2zm0-3.7v-1.85h-2v1.85h2zm0-3.7v-1.85h-2v1.85h2zm0-3.7v-1.85h-2v1.85h2zm0-3.7v-1.85h-2v1.85h2zm0-3.7v-.925h-2v.925h2zm-1-1.925h-.975v2h.975v-2zm-2.925 0h-1.95v2h1.95v-2zm-3.9 0h-.975v2h.975v-2zm56.796 21.05h.5v-.855l-.745.42.245.435zm-16.5.15l-.305.397.008.006.297-.403zm-2.8-20.2v-.5h-.5v.5h.5zm7.7 0h.5v-.5h-.5v.5zm1.15 15.6l-.297.402.01.007.01.007.277-.416zm7.2.15l-.155-.476.155.476zm3.25-1.65l.312.39.188-.15v-.24h-.5zm0-14.1v-.5h-.5v.5h.5zm7.8 0h.5v-.5h-.5v.5zm0 32.45v.5h.5V44h-.5zm-7.8 0h-.5v.5h.5V44zm-.245-12.836c-.347.195-.703.377-1.069.547l.42.907c.389-.18.769-.374 1.139-.582l-.49-.872zm-3.32 1.39c-.752.22-1.538.395-2.356.525l.155.987a19.65 19.65 0 002.482-.553l-.281-.96zm-4.769.768c-.398.018-.804.028-1.216.028v1c.428 0 .849-.01 1.264-.03l-.048-.998zm-1.216.028c-.303 0-.601-.009-.893-.027l-.06.998c.312.02.63.029.953.029v-1zm-2.653-.255a10.72 10.72 0 01-1.694-.49l-.357.935c.591.226 1.208.404 1.851.535l.2-.98zm-3.271-1.26a9.605 9.605 0 01-.729-.488l-.594.806c.261.192.529.371.805.538l.518-.855zm-.721-.482a5.532 5.532 0 01-.684-.62l-.731.681c.248.266.516.51.806.733l.609-.794zm-1.719-2.16a8.328 8.328 0 01-.602-1.798l-.977.215c.161.73.385 1.403.676 2.014l.903-.43zm-.858-3.715a16.267 16.267 0 01-.028-.978h-1c0 .355.01.701.03 1.037l.998-.06zm-.028-.978v-1.08h-1v1.08h1zm0-3.238v-2.158h-1v2.159h1zm0-4.316v-2.159h-1v2.159h1zm0-4.317V11.55h-1v1.08h1zm-.5-.579h.963v-1h-.963v1zm2.888 0h1.925v-1h-1.925v1zm3.85 0h.962v-1h-.962v1zm.462-.5v1.03h1v-1.03h-1zm0 3.087v2.059h1v-2.059h-1zm0 4.117v2.058h1v-2.058h-1zm0 4.117V23.9h1v-1.03h-1zm0 1.029c0 .333.016.65.048.946l.994-.108a7.753 7.753 0 01-.042-.838h-1zm.629 2.849c.193.319.434.589.724.803l.594-.804c-.176-.13-.331-.3-.462-.517l-.856.518zm.744.817c.249.166.516.308.801.426l.384-.923a3.692 3.692 0 01-.631-.335l-.554.832zm2.515.842c.277.028.565.042.862.042v-1a7.5 7.5 0 01-.76-.037l-.102.995zm.862.042c.362 0 .722-.014 1.08-.042l-.078-.997a12.83 12.83 0 01-1.002.039v1zm3.215-.38a14.04 14.04 0 001.04-.294l-.31-.951c-.319.104-.641.194-.965.272l.235.973zm1.04-.294c.309-.101.607-.208.892-.322l-.37-.929c-.264.105-.541.205-.832.3l.31.95zm2.609-1.174c.285-.177.551-.364.798-.562l-.624-.78a7.17 7.17 0 01-.7.491l.526.85zm.986-.952v-.881h-1v.881h1zm0-2.644v-1.762h-1v1.762h1zm0-3.525V17.72h-1v1.762h1zm0-3.525v-1.762h-1v1.762h1zm0-3.525v-.881h-1v.881h1zm-.5-.381h.975v-1h-.975v1zm2.925 0h1.95v-1h-1.95v1zm3.9 0h.975v-1h-.975v1zm.475-.5v1.014h1V11.55h-1zm0 3.042v2.028h1v-2.028h-1zm0 4.056v2.029h1v-2.029h-1zm0 4.057v2.028h1v-2.028h-1zm0 4.056v2.028h1v-2.028h-1zm0 4.056v2.028h1v-2.028h-1zm0 4.056v2.029h1v-2.029h-1zm0 4.057v2.028h1V38.93h-1zm0 4.056V44h1v-1.014h-1zm.5.514h-.975v1h.975v-1zm-2.925 0h-1.95v1h1.95v-1zm-3.9 0h-.975v1h.975v-1zm-.475.5v-1.033h-1V44h1zm0-3.1v-2.067h-1V40.9h1zm0-4.133V34.7h-1v2.067h1zm0-4.134V31.6h-1v1.033h1zm-.5-1.033h1v-1.71l-1.49.838.49.872zm-16.5.15l-.609.793.008.006.008.006.593-.805zm-2.8-20.2v-1h-1v1h1zm7.7 0h1v-1h-1v1zm1.15 15.6l-.594.804.019.015.02.013.555-.832zm7.2.15l-.309-.951.309.951zm3.25-1.65l.625.78.375-.3v-.48h-1zm0-14.1v-1h-1v1h1zm7.8 0h1v-1h-1v1zm0 32.45v1h1v-1h-1zm-7.8 0h-1v1h1v-1zm-.49-13.272c-.336.19-.68.365-1.034.529l.84 1.815c.401-.186.793-.386 1.174-.6l-.98-1.744zm-3.216 1.346c-.73.214-1.495.385-2.293.51l.311 1.976c.88-.138 1.728-.327 2.545-.567l-.563-1.92zm-4.651.748c-.391.019-.788.028-1.193.028v2c.435 0 .865-.01 1.288-.03l-.095-1.998zm-1.193.028c-.294 0-.581-.009-.862-.026l-.122 1.997c.323.02.651.029.984.029v-2zm-2.553-.245a10.18 10.18 0 01-1.615-.466l-.715 1.868c.618.236 1.261.422 1.93.558l.4-1.96zm-3.112-1.197a9.298 9.298 0 01-.692-.463l-1.186 1.61c.273.201.553.389.842.564l1.036-1.71zm-.676-.451a5.03 5.03 0 01-.622-.566l-1.463 1.364c.267.287.556.55.867.788l1.218-1.586zm-1.571-1.979a7.767 7.767 0 01-.566-1.69l-1.953.429a9.85 9.85 0 00.713 2.122l1.806-.86zm-.811-3.53c-.018-.305-.027-.62-.027-.948h-2c0 .365.01.72.031 1.067l1.996-.119zm-.027-.948v-1.08h-2v1.08h2zm0-3.238v-2.158h-2v2.159h2zm0-4.316v-2.159h-2v2.159h2zm0-4.317V11.55h-2v1.08h2zm-1-.079h.963v-2h-.963v2zm2.888 0h1.925v-2h-1.925v2zm3.85 0h.962v-2h-.962v2zm-.038-1v1.03h2v-1.03h-2zm0 3.087v2.059h2v-2.059h-2zm0 4.117v2.058h2v-2.058h-2zm0 4.117V23.9h2v-1.03h-2zm0 1.029c0 .35.017.683.051 1l1.988-.216a7.461 7.461 0 01-.039-.784h-2zm.702 3.108c.224.37.508.69.854.946l1.188-1.608a1.273 1.273 0 01-.332-.374l-1.71 1.036zm.893.974c.277.185.574.342.887.472l.768-1.847c-.2-.083-.381-.18-.545-.29l-1.11 1.665zm2.743.923c.295.03.599.045.912.045v-2c-.251 0-.487-.012-.709-.034l-.203 1.99zm.912.045c.375 0 .748-.014 1.119-.043l-.156-1.994c-.319.024-.64.037-.963.037v2zm3.332-.394c.361-.088.721-.19 1.077-.305l-.618-1.902c-.308.1-.617.187-.928.262l.469 1.945zm1.077-.305c.319-.104.627-.214.923-.332l-.74-1.858c-.253.1-.52.197-.801.288l.618 1.902zm2.719-1.225c.3-.186.583-.384.847-.595l-1.25-1.562a6.63 6.63 0 01-.651.457l1.054 1.7zm1.222-1.376v-.881h-2v.881h2zm0-2.644v-1.762h-2v1.762h2zm0-3.525V17.72h-2v1.762h2zm0-3.525v-1.762h-2v1.762h2zm0-3.525v-.881h-2v.881h2zm-1 .119h.975v-2h-.975v2zm2.925 0h1.95v-2h-1.95v2zm3.9 0h.975v-2h-.975v2zm-.025-1v1.014h2V11.55h-2zm0 3.042v2.028h2v-2.028h-2zm0 4.056v2.029h2v-2.029h-2zm0 4.057v2.028h2v-2.028h-2zm0 4.056v2.028h2v-2.028h-2zm0 4.056v2.028h2v-2.028h-2zm0 4.056v2.029h2v-2.029h-2zm0 4.057v2.028h2V38.93h-2zm0 4.056V44h2v-1.014h-2zm1 .014h-.975v2h.975v-2zm-2.925 0h-1.95v2h1.95v-2zm-3.9 0h-.975v2h.975v-2zm.025 1v-1.033h-2V44h2zm0-3.1v-2.067h-2V40.9h2zm0-4.133V34.7h-2v2.067h2zm0-4.134V31.6h-2v1.033h2zm16.297-21.083v-.5h-.5v.5h.5zm7.8 0h.5v-.5h-.5v.5zm0 13h-.5v.5h.5v-.5zm13.8 0v.5h.5v-.5h-.5zm0-13v-.5h-.5v.5h.5zm7.8 0h.5v-.5h-.5v.5zm0 32.45v.5h.5V44h-.5zm-7.8 0h-.5v.5h.5V44zm0-13.9h.5v-.5h-.5v.5zm-13.8 0v-.5h-.5v.5h.5zm0 13.9v.5h.5V44h-.5zm-7.8 0h-.5v.5h.5V44zm-.5-32.45v1.014h1V11.55h-1zm0 3.042v2.028h1v-2.028h-1zm0 4.056v2.029h1v-2.029h-1zm0 4.057v2.028h1v-2.028h-1zm0 4.056v2.028h1v-2.028h-1zm0 4.056v2.028h1v-2.028h-1zm0 4.056v2.029h1v-2.029h-1zm0 4.057v2.028h1V38.93h-1zm0 4.056V44h1v-1.014h-1zm.5 1.514h.975v-1h-.975v1zm2.925 0h1.95v-1h-1.95v1zm3.9 0h.975v-1h-.975v1zm1.475-.5v-1.158h-1V44h1zm0-3.475v-2.317h-1v2.317h1zm0-4.633v-2.317h-1v2.317h1zm0-4.634V30.1h-1v1.158h1zm-.5-.658h1.15v-1h-1.15v1zm3.45 0h2.3v-1h-2.3v1zm4.6 0h2.3v-1h-2.3v1zm4.6 0h1.15v-1h-1.15v1zm.65-.5v1.158h1V30.1h-1zm0 3.475v2.317h1v-2.317h-1zm0 4.633v2.317h1v-2.317h-1zm0 4.634V44h1v-1.158h-1zm.5 1.658h.975v-1h-.975v1zm2.925 0h1.95v-1h-1.95v1zm3.9 0h.975v-1h-.975v1zm1.475-.5v-1.014h-1V44h1zm0-3.042V38.93h-1v2.028h1zm0-4.056v-2.029h-1v2.029h1zm0-4.057v-2.028h-1v2.028h1zm0-4.056v-2.028h-1v2.028h1zm0-4.056v-2.028h-1v2.028h1zm0-4.056v-2.029h-1v2.029h1zm0-4.057v-2.028h-1v2.028h1zm0-4.056V11.55h-1v1.014h1zm-.5-1.514h-.975v1h.975v-1zm-2.925 0h-1.95v1h1.95v-1zm-3.9 0h-.975v1h.975v-1zm-1.475.5v1.083h1V11.55h-1zm0 3.25v2.167h1V14.8h-1zm0 4.333V21.3h1v-2.167h-1zm0 4.334v1.083h1v-1.083h-1zm.5.583h-1.15v1h1.15v-1zm-3.45 0h-2.3v1h2.3v-1zm-4.6 0h-2.3v1h2.3v-1zm-4.6 0h-1.15v1h1.15v-1zm-.65.5v-1.083h-1v1.083h1zm0-3.25v-2.167h-1V21.3h1zm0-4.333V14.8h-1v2.167h1zm0-4.334V11.55h-1v1.083h1zm-.5-1.583h-.975v1h.975v-1zm-2.925 0h-1.95v1h1.95v-1zm-3.9 0h-.975v1h.975v-1zm-.975.5v-1h-1v1h1zm7.8 0h1v-1h-1v1zm0 13h-1v1h1v-1zm13.8 0v1h1v-1h-1zm0-13v-1h-1v1h1zm7.8 0h1v-1h-1v1zm0 32.45v1h1v-1h-1zm-7.8 0h-1v1h1v-1zm0-13.9h1v-1h-1v1zm-13.8 0v-1h-1v1h1zm0 13.9v1h1v-1h-1zm-7.8 0h-1v1h1v-1zm-1-32.45v1.014h2V11.55h-2zm0 3.042v2.028h2v-2.028h-2zm0 4.056v2.029h2v-2.029h-2zm0 4.057v2.028h2v-2.028h-2zm0 4.056v2.028h2v-2.028h-2zm0 4.056v2.028h2v-2.028h-2zm0 4.056v2.029h2v-2.029h-2zm0 4.057v2.028h2V38.93h-2zm0 4.056V44h2v-1.014h-2zm1 2.014h.975v-2h-.975v2zm2.925 0h1.95v-2h-1.95v2zm3.9 0h.975v-2h-.975v2zm1.975-1v-1.158h-2V44h2zm0-3.475v-2.317h-2v2.317h2zm0-4.633v-2.317h-2v2.317h2zm0-4.634V30.1h-2v1.158h2zm-1-.158h1.15v-2h-1.15v2zm3.45 0h2.3v-2h-2.3v2zm4.6 0h2.3v-2h-2.3v2zm4.6 0h1.15v-2h-1.15v2zm.15-1v1.158h2V30.1h-2zm0 3.475v2.317h2v-2.317h-2zm0 4.633v2.317h2v-2.317h-2zm0 4.634V44h2v-1.158h-2zm1 2.158h.975v-2h-.975v2zm2.925 0h1.95v-2h-1.95v2zm3.9 0h.975v-2h-.975v2zm1.975-1v-1.014h-2V44h2zm0-3.042V38.93h-2v2.028h2zm0-4.056v-2.029h-2v2.029h2zm0-4.057v-2.028h-2v2.028h2zm0-4.056v-2.028h-2v2.028h2zm0-4.056v-2.028h-2v2.028h2zm0-4.056v-2.029h-2v2.029h2zm0-4.057v-2.028h-2v2.028h2zm0-4.056V11.55h-2v1.014h2zm-1-2.014h-.975v2h.975v-2zm-2.925 0h-1.95v2h1.95v-2zm-3.9 0h-.975v2h.975v-2zm-1.975 1v1.083h2V11.55h-2zm0 3.25v2.167h2V14.8h-2zm0 4.333V21.3h2v-2.167h-2zm0 4.334v1.083h2v-1.083h-2zm1 .083h-1.15v2h1.15v-2zm-3.45 0h-2.3v2h2.3v-2zm-4.6 0h-2.3v2h2.3v-2zm-4.6 0h-1.15v2h1.15v-2zm-.15 1v-1.083h-2v1.083h2zm0-3.25v-2.167h-2V21.3h2zm0-4.333V14.8h-2v2.167h2zm0-4.334V11.55h-2v1.083h2zm-1-2.083h-.975v2h.975v-2zm-2.925 0h-1.95v2h1.95v-2zm-3.9 0h-.975v2h.975v-2zm37.902 1v-.5h-.5v.5h.5zm7.8 0h.5v-.5h-.5v.5zm0 11.9h-.5v.5h.5v-.5zm11.3.45l-.08.493.08-.493zm4.35 1.95l-.342.365.006.006.336-.371zM226.656 44h-.5v.5h.5V44zm30-32.45v-.5h-.5v.5h.5zm7.8 0h.5v-.5h-.5v.5zm0 32.45v.5h.5V44h-.5zm-7.8 0h-.5v.5h.5V44zm-14.1-6.35l.255.43.012-.007-.267-.423zm.05-8.1l-.195.46.195-.46zm-8.2-.55v-.5h-.5v.5h.5zm0 9.45h-.5v.5h.5v-.5zm-8.25-26.9v1.014h1V11.55h-1zm0 3.042v2.028h1v-2.028h-1zm0 4.056v2.029h1v-2.029h-1zm0 4.057v2.028h1v-2.028h-1zm0 4.056v2.028h1v-2.028h-1zm0 4.056v2.028h1v-2.028h-1zm0 4.056v2.029h1v-2.029h-1zm0 4.057v2.028h1V38.93h-1zm0 4.056V44h1v-1.014h-1zm.5 1.514h.996v-1h-.996v1zm2.988 0h1.991v-1h-1.991v1zm3.983 0h1.992v-1h-1.992v1zm3.983 0h.996v-1h-.996v1zm.996 0c.369 0 .731-.005 1.085-.014l-.026-1c-.345.01-.698.014-1.059.014v1zm3.25-.134a25.13 25.13 0 002.163-.28l-.173-.985a24.73 24.73 0 01-2.078.269l.088.996zm4.3-.781a12.25 12.25 0 002.067-.825l-.458-.888a11.35 11.35 0 01-1.899.756l.29.957zm3.933-2.116a6.462 6.462 0 001.386-1.84l-.894-.447a5.446 5.446 0 01-1.174 1.555l.682.732zm2.045-4.036a8.7 8.7 0 00.072-1.133h-1c0 .349-.021.683-.063 1.002l.991.13zm.072-1.133v-.762h-1v.762h1zm0-2.287v-1.526h-1v1.526h1zm0-3.05V30.2h-1v.762h1zm0-.763c0-.44-.026-.86-.08-1.258l-.991.134c.047.35.071.724.071 1.124h1zm-.913-3.701a4.777 4.777 0 00-.851-1.02l-.672.742c.261.236.486.505.675.808l.848-.53zm-.845-1.014a6.967 6.967 0 00-1.029-.796l-.536.845c.321.204.615.43.881.68l.684-.729zm-3.377-1.81a11.82 11.82 0 00-1.234-.268l-.161.986c.397.065.773.147 1.129.245l.266-.964zm-1.234-.268a25.454 25.454 0 00-.911-.132l-.126.992c.306.039.598.081.876.126l.161-.986zm-2.734-.31a50.728 50.728 0 00-1.82-.1l-.038 1c.63.023 1.224.056 1.785.097l.073-.997zm-3.638-.142c-.297-.003-.6-.005-.909-.005v1c.306 0 .605.002.898.005l.011-1zm-.909-.005h-1.025v1h1.025v-1zm-3.075 0h-1.025v1h1.025v-1zm-.525.5v-.992h-1v.992h1zm0-2.975v-1.983h-1v1.983h1zm0-3.967v-1.983h-1v1.983h1zm0-3.966v-.992h-1v.992h1zm-.5-1.492h-.975v1h.975v-1zm-2.925 0h-1.95v1h1.95v-1zm-3.9 0h-.975v1h.975v-1zm28.525.5v1.014h1V11.55h-1zm0 3.042v2.028h1v-2.028h-1zm0 4.056v2.029h1v-2.029h-1zm0 4.057v2.028h1v-2.028h-1zm0 4.056v2.028h1v-2.028h-1zm0 4.056v2.028h1v-2.028h-1zm0 4.056v2.029h1v-2.029h-1zm0 4.057v2.028h1V38.93h-1zm0 4.056V44h1v-1.014h-1zm.5 1.514h.975v-1h-.975v1zm2.925 0h1.95v-1h-1.95v1zm3.9 0h.975v-1h-.975v1zm1.475-.5v-1.014h-1V44h1zm0-3.042V38.93h-1v2.028h1zm0-4.056v-2.029h-1v2.029h1zm0-4.057v-2.028h-1v2.028h1zm0-4.056v-2.028h-1v2.028h1zm0-4.056v-2.028h-1v2.028h1zm0-4.056v-2.029h-1v2.029h1zm0-4.057v-2.028h-1v2.028h1zm0-4.056V11.55h-1v1.014h1zm-.5-1.514h-.975v1h.975v-1zm-2.925 0h-1.95v1h1.95v-1zm-3.9 0h-.975v1h.975v-1zm-19.375 26.9h-.962v1h.962v-1zm-2.887 0h-.963v1h.963v-1zm-.463.5v-1.181h-1v1.181h1zm0-3.544v-2.362h-1v2.362h1zm0-4.725V29h-1v1.181h1zm-.5-.681h.988v-1h-.988v1zm2.963 0h.987v-1h-.987v1zm.987 0c.374 0 .726.007 1.057.02l.041-1c-.346-.013-.712-.02-1.098-.02v1zm3.12.238c.38.077.69.169.935.273l.39-.921a5.885 5.885 0 00-1.128-.332l-.197.98zm.935.273c.177.074.324.162.445.261l.633-.774a2.819 2.819 0 00-.688-.409l-.39.922zm.94 1.093c.036.16.055.342.055.546h1c0-.267-.025-.523-.08-.765l-.975.22zm.055.546v.863h1v-.863h-1zm0 2.587v.863h1v-.863h-1zm0 .863c0 .235-.022.45-.063.648l.978.207c.058-.273.085-.558.085-.855h-1zm-.624 1.73a2.589 2.589 0 01-.492.397l.533.846c.255-.16.483-.344.681-.551l-.722-.692zm-.481.39a3.96 3.96 0 01-.902.377l.282.96a4.955 4.955 0 001.13-.477l-.51-.86zm-2.97.7c-.336.02-.694.03-1.075.03v1c.398 0 .777-.01 1.135-.032l-.06-.998zm-12.675-26.37v-1h-1v1h1zm7.8 0h1v-1h-1v1zm0 11.9h-1v1h1v-1zm11.3.45l-.161.987.161-.987zm4.35 1.95l-.684.73.006.005.007.006.671-.741zM226.656 44h-1v1h1v-1zm30-32.45v-1h-1v1h1zm7.8 0h1v-1h-1v1zm0 32.45v1h1v-1h-1zm-7.8 0h-1v1h1v-1zm-14.1-6.35l.51.86.012-.007.011-.007-.533-.846zm.05-8.1l-.389.921.389-.921zm-8.2-.55v-1h-1v1h1zm0 9.45h-1v1h1v-1zm-8.75-26.9v1.014h2V11.55h-2zm0 3.042v2.028h2v-2.028h-2zm0 4.056v2.029h2v-2.029h-2zm0 4.057v2.028h2v-2.028h-2zm0 4.056v2.028h2v-2.028h-2zm0 4.056v2.028h2v-2.028h-2zm0 4.056v2.029h2v-2.029h-2zm0 4.057v2.028h2V38.93h-2zm0 4.056V44h2v-1.014h-2zm1 2.014h.996v-2h-.996v2zm2.988 0h1.991v-2h-1.991v2zm3.983 0h1.992v-2h-1.992v2zm3.983 0h.996v-2h-.996v2zm.996 0c.373 0 .739-.005 1.098-.014l-.052-2c-.34.01-.689.014-1.046.014v2zm3.294-.136c.774-.068 1.51-.163 2.205-.285l-.345-1.97a24.54 24.54 0 01-2.037.263l.177 1.992zm4.402-.8a12.768 12.768 0 002.151-.86l-.918-1.777c-.529.274-1.133.516-1.814.723l.581 1.913zm4.128-2.23a6.961 6.961 0 001.492-1.98l-1.788-.896c-.261.52-.614.99-1.068 1.414l1.364 1.462zm2.2-4.336c.051-.389.076-.788.076-1.198h-2c0 .328-.02.64-.059.937l1.983.261zm.076-1.198v-.762h-2v.762h2zm0-2.287v-1.526h-2v1.526h2zm0-3.05V30.2h-2v.762h2zm0-.763c0-.46-.027-.901-.084-1.324l-1.982.266c.043.326.066.678.066 1.058h2zm-.989-3.966a5.288 5.288 0 00-.939-1.125l-1.343 1.482c.226.205.421.438.586.703l1.696-1.06zm-.927-1.114a7.42 7.42 0 00-1.103-.853l-1.072 1.689c.296.188.564.396.807.623l1.368-1.459zm-3.586-1.928c-.412-.113-.84-.206-1.286-.279l-.323 1.974c.381.062.74.14 1.077.233l.532-1.928zm-1.286-.279a25.847 25.847 0 00-.93-.134l-.25 1.984c.3.038.586.08.857.124l.323-1.974zm-2.778-.315a51.455 51.455 0 00-1.839-.1l-.074 1.999a49.42 49.42 0 011.766.096l.147-1.995zm-3.67-.143a82.766 82.766 0 00-.914-.005v2c.304 0 .601.002.892.005l.022-2zm-.914-.005h-1.025v2h1.025v-2zm-3.075 0h-1.025v2h1.025v-2zm-.025 1v-.992h-2v.992h2zm0-2.975v-1.983h-2v1.983h2zm0-3.967v-1.983h-2v1.983h2zm0-3.966v-.992h-2v.992h2zm-1-1.992h-.975v2h.975v-2zm-2.925 0h-1.95v2h1.95v-2zm-3.9 0h-.975v2h.975v-2zm28.025 1v1.014h2V11.55h-2zm0 3.042v2.028h2v-2.028h-2zm0 4.056v2.029h2v-2.029h-2zm0 4.057v2.028h2v-2.028h-2zm0 4.056v2.028h2v-2.028h-2zm0 4.056v2.028h2v-2.028h-2zm0 4.056v2.029h2v-2.029h-2zm0 4.057v2.028h2V38.93h-2zm0 4.056V44h2v-1.014h-2zm1 2.014h.975v-2h-.975v2zm2.925 0h1.95v-2h-1.95v2zm3.9 0h.975v-2h-.975v2zm1.975-1v-1.014h-2V44h2zm0-3.042V38.93h-2v2.028h2zm0-4.056v-2.029h-2v2.029h2zm0-4.057v-2.028h-2v2.028h2zm0-4.056v-2.028h-2v2.028h2zm0-4.056v-2.028h-2v2.028h2zm0-4.056v-2.029h-2v2.029h2zm0-4.057v-2.028h-2v2.028h2zm0-4.056V11.55h-2v1.014h2zm-1-2.014h-.975v2h.975v-2zm-2.925 0h-1.95v2h1.95v-2zm-3.9 0h-.975v2h.975v-2zm-19.375 26.9h-.962v2h.962v-2zm-2.887 0h-.963v2h.963v-2zm.037 1v-1.181h-2v1.181h2zm0-3.544v-2.362h-2v2.362h2zm0-4.725V29h-2v1.181h2zm-1-.181h.988v-2h-.988v2zm2.963 0h.987v-2h-.987v2zm.987 0c.368 0 .714.007 1.037.02l.081-1.999a27.732 27.732 0 00-1.118-.021v2zm3.022.229c.357.071.633.155.839.242l.779-1.842a6.372 6.372 0 00-1.225-.361l-.393 1.96zm.839.242c.138.058.242.123.322.188l1.266-1.548a3.31 3.31 0 00-.809-.482l-.779 1.842zm.646.743c.027.12.043.264.043.436h2c0-.3-.028-.592-.092-.874l-1.951.438zm.043.436v.863h2v-.863h-2zm0 2.587v.863h2v-.863h-2zm0 .863c0 .204-.019.385-.053.545l1.957.413c.066-.31.096-.63.096-.958h-2zm-.485 1.384a2.093 2.093 0 01-.398.32l1.066 1.692c.287-.18.547-.39.777-.629l-1.445-1.383zm-.375.306c-.199.118-.458.23-.788.327l.564 1.919a5.446 5.446 0 001.244-.526l-1.02-1.72zm-2.745.63c-.325.02-.673.03-1.045.03v2c.407 0 .796-.01 1.165-.033l-.12-1.997zm34.679-25.87v-.5h-.5v.5h.5zm7.8 0h.5v-.5h-.5v.5zm0 22.2h-.5v1.73l.923-1.463-.423-.267zm14-22.2v-.5h-.275l-.147.233.422.267zm7.8 0h.5v-.5h-.5v.5zm0 32.45v.5h.5V44h-.5zm-7.8 0h-.5v.5h.5V44zm0-22.55h.5v-1.753l-.924 1.49.424.263zm-14 22.55v.5h.279l.146-.236-.425-.264zm-7.8 0h-.5v.5h.5V44zm7.35-38.05l-.326.379.004.003.322-.382zm-2.55-5.7v-.5h-.5v.5h.5zm6.25 0l.497-.058-.051-.442h-.446v.5zm1.1 3.05l-.363.343.005.006.005.005.353-.354zm5.35 0l-.353-.354-.005.005-.005.006.363.343zm1.15-3.05v-.5h-.445l-.051.442.496.058zm6.25 0h.5v-.5h-.5v.5zm-2.55 5.7l.323.382.004-.003-.327-.379zm-22.85 5.6v1.014h1V11.55h-1zm0 3.042v2.028h1v-2.028h-1zm0 4.056v2.029h1v-2.029h-1zm0 4.057v2.028h1v-2.028h-1zm0 4.056v2.028h1v-2.028h-1zm0 4.056v2.028h1v-2.028h-1zm0 4.056v2.029h1v-2.029h-1zm0 4.057v2.028h1V38.93h-1zm0 4.056V44h1v-1.014h-1zm.5 1.514h.975v-1h-.975v1zm2.925 0h1.95v-1h-1.95v1zm3.9 0h.975v-1h-.975v1zm1.4-.236l.5-.806-.849-.527-.5.805.849.528zm1.5-2.416l1-1.611-.849-.528-1 1.611.849.528zm2-3.222l1-1.61-.849-.528-1 1.61.849.528zm2-3.221l1-1.61-.849-.528-1 1.61.849.528zm2-3.222l1-1.61-.849-.528-1 1.61.849.528zm2-3.221l1-1.61-.849-.528-1 1.61.849.528zm2-3.221l1-1.611-.849-.528-1 1.611.849.527zm2-3.222l.5-.805-.849-.528-.5.806.849.527zm-.425-1.069v.94h1v-.94h-1zm0 2.819v1.879h1v-1.88h-1zm0 3.758v1.88h1v-1.88h-1zm0 3.758v1.88h1v-1.88h-1zm0 3.759v1.879h1v-1.88h-1zm0 3.758v1.88h1v-1.88h-1zm0 3.758V44h1v-.94h-1zm.5 1.44h.975v-1h-.975v1zm2.925 0h1.95v-1h-1.95v1zm3.9 0h.975v-1h-.975v1zm1.475-.5v-1.014h-1V44h1zm0-3.042V38.93h-1v2.028h1zm0-4.056v-2.029h-1v2.029h1zm0-4.057v-2.028h-1v2.028h1zm0-4.056v-2.028h-1v2.028h1zm0-4.056v-2.028h-1v2.028h1zm0-4.056v-2.029h-1v2.029h1zm0-4.057v-2.028h-1v2.028h1zm0-4.056V11.55h-1v1.014h1zm-.5-1.514h-.975v1h.975v-1zm-2.925 0h-1.95v1h1.95v-1zm-3.9 0h-.975v1h.975v-1zm-1.397.233l-.5.793.845.534.5-.793-.845-.534zm-1.5 2.379l-1 1.586.845.533 1-1.586-.845-.533zm-2 3.171l-1 1.586.845.533 1-1.585-.845-.534zm-2 3.172l-1 1.585.845.534 1-1.586-.845-.533zm-2 3.171l-1 1.586.845.533 1-1.585-.845-.534zm-2 3.172l-1 1.585.845.534 1-1.586-.845-.533zm-2 3.171l-1 1.586.845.533 1-1.586-.845-.533zm-2 3.171l-.5.793.845.534.5-.793-.845-.534zm.422 1.06v-.925h-1v.925h1zm0-2.775v-1.85h-1v1.85h1zm0-3.7v-1.85h-1v1.85h1zm0-3.7v-1.85h-1v1.85h1zm0-3.7v-1.85h-1v1.85h1zm0-3.7v-1.85h-1v1.85h1zm0-3.7v-.925h-1v.925h1zm-.5-1.425h-.975v1h.975v-1zm-2.925 0h-1.95v1h1.95v-1zm-3.9 0h-.975v1h.975v-1zM288.83 7.6c-.332 0-.656-.007-.971-.022l-.047.999c.331.015.671.023 1.018.023v-1zm-2.891-.222a11.4 11.4 0 01-1.847-.463l-.328.945c.622.216 1.292.384 2.009.504l.166-.986zM282.4 6.114a6.726 6.726 0 01-.747-.546l-.645.764c.268.226.555.435.858.627l.534-.845zm-.743-.543a7.597 7.597 0 01-.548-.521l-.726.688c.194.204.401.401.621.59l.653-.757zm-1.454-1.715a6.357 6.357 0 01-.603-1.366l-.956.295c.172.557.405 1.084.698 1.58l.861-.509zm-.889-2.845a8.586 8.586 0 01-.034-.761h-1c0 .289.013.573.038.85l.996-.089zM278.78.75h.782v-1h-.782v1zm2.344 0h1.563v-1h-1.563v1zm3.125 0h.781v-1h-.781v1zm.285-.442c.035.3.078.583.131.852l.981-.192c-.047-.24-.087-.499-.119-.776l-.993.116zm.685 2.547c.154.3.336.564.548.788l.727-.686a2.45 2.45 0 01-.387-.561l-.888.459zm.558.799c.204.203.435.377.692.52l.487-.873a2.141 2.141 0 01-.472-.355l-.707.708zm2.265 1.001c.251.03.514.045.788.045v-1c-.239 0-.462-.013-.669-.038l-.119.993zm.788.045c.271 0 .531-.014.778-.044l-.118-.993a5.6 5.6 0 01-.66.037v1zm2.334-.524a2.93 2.93 0 00.68-.533l-.727-.686a1.925 1.925 0 01-.45.35l.497.869zm.67-.522c.221-.222.412-.484.574-.78l-.877-.48a2.406 2.406 0 01-.404.552l.707.708zm1.159-2.486c.054-.27.099-.558.134-.86l-.993-.116a9.606 9.606 0 01-.122.779l.981.197zM292.63.75h.782v-1h-.782v1zm2.344 0h1.563v-1h-1.563v1zm3.125 0h.781v-1h-.781v1zm.281-.5c0 .26-.011.514-.033.761l.996.09c.025-.278.037-.562.037-.851h-1zm-.319 2.24c-.149.483-.35.938-.603 1.366l.861.51a7.388 7.388 0 00.698-1.58l-.956-.296zm-1.509 2.56c-.17.179-.353.353-.548.521l.653.758c.22-.19.426-.387.62-.591l-.725-.688zm-.544.518a6.726 6.726 0 01-.747.546l.533.845c.304-.192.59-.4.859-.627l-.645-.764zm-2.439 1.347c-.564.196-1.179.35-1.847.463l.166.986c.716-.12 1.387-.288 2.009-.504l-.328-.945zm-3.767.663c-.315.015-.639.022-.972.022v1c.348 0 .688-.008 1.019-.023l-.047-1zM273.98 11.55v-1h-1v1h1zm7.8 0h1v-1h-1v1zm0 22.2h-1v3.46l1.846-2.927-.846-.533zm14-22.2v-1h-.551l-.294.467.845.533zm7.8 0h1v-1h-1v1zm0 32.45v1h1v-1h-1zm-7.8 0h-1v1h1v-1zm0-22.55h1v-3.507l-1.849 2.98.849.527zm-14 22.55v1h.557l.293-.472-.85-.528zm-7.8 0h-1v1h1v-1zm7.35-38.05l-.653.757.009.008.644-.765zm-2.55-5.7v-1h-1v1h1zm6.25 0l.994-.116-.103-.884h-.891v1zm1.1 3.05l-.727.687.01.01.01.01.707-.707zm5.35 0l-.707-.707-.01.01-.01.01.727.687zm1.15-3.05v-1h-.89l-.103.884.993.116zm6.25 0h1v-1h-1v1zm-2.55 5.7l.645.765.009-.008-.654-.757zm-23.35 5.6v1.014h2V11.55h-2zm0 3.042v2.028h2v-2.028h-2zm0 4.056v2.029h2v-2.029h-2zm0 4.057v2.028h2v-2.028h-2zm0 4.056v2.028h2v-2.028h-2zm0 4.056v2.028h2v-2.028h-2zm0 4.056v2.029h2v-2.029h-2zm0 4.057v2.028h2V38.93h-2zm0 4.056V44h2v-1.014h-2zm1 2.014h.975v-2h-.975v2zm2.925 0h1.95v-2h-1.95v2zm3.9 0h.975v-2h-.975v2zm1.825-.472l.5-.806-1.699-1.055-.5.805 1.699 1.056zm1.5-2.417l1-1.61-1.699-1.055-1 1.61 1.699 1.055zm2-3.221l1-1.61-1.699-1.056-1 1.611 1.699 1.055zm2-3.221l1-1.611-1.699-1.055-1 1.61 1.699 1.056zm2-3.222l1-1.61-1.699-1.055-1 1.61 1.699 1.055zm2-3.221l1-1.611-1.699-1.055-1 1.61 1.699 1.056zm2-3.222l1-1.61-1.699-1.055-1 1.61 1.699 1.055zm2-3.221l.5-.806-1.699-1.055-.5.806 1.699 1.055zm-1.35-1.333v.94h2v-.94h-2zm0 2.819v1.879h2v-1.88h-2zm0 3.758v1.88h2v-1.88h-2zm0 3.758v1.88h2v-1.88h-2zm0 3.759v1.879h2v-1.88h-2zm0 3.758v1.88h2v-1.88h-2zm0 3.758V44h2v-.94h-2zm1 1.94h.975v-2h-.975v2zm2.925 0h1.95v-2h-1.95v2zm3.9 0h.975v-2h-.975v2zm1.975-1v-1.014h-2V44h2zm0-3.042V38.93h-2v2.028h2zm0-4.056v-2.029h-2v2.029h2zm0-4.057v-2.028h-2v2.028h2zm0-4.056v-2.028h-2v2.028h2zm0-4.056v-2.028h-2v2.028h2zm0-4.056v-2.029h-2v2.029h2zm0-4.057v-2.028h-2v2.028h2zm0-4.056V11.55h-2v1.014h2zm-1-2.014h-.975v2h.975v-2zm-2.925 0h-1.95v2h1.95v-2zm-3.9 0h-.975v2h.975v-2zm-1.82.467l-.5.792 1.691 1.067.5-.793-1.691-1.066zm-1.5 2.378l-1 1.586 1.691 1.067 1-1.586-1.691-1.067zm-2 3.172l-1 1.585 1.691 1.067 1-1.586-1.691-1.066zm-2 3.171l-1 1.586 1.691 1.067 1-1.586-1.691-1.067zm-2 3.171l-1 1.586 1.691 1.067 1-1.586-1.691-1.067zm-2 3.172l-1 1.586 1.691 1.066 1-1.585-1.691-1.067zm-2 3.171l-1 1.586 1.691 1.067 1-1.586-1.691-1.067zm-2 3.172l-.5.793 1.691 1.066.5-.792-1.691-1.067zm1.345 1.326v-.925h-2v.925h2zm0-2.775v-1.85h-2v1.85h2zm0-3.7v-1.85h-2v1.85h2zm0-3.7v-1.85h-2v1.85h2zm0-3.7v-1.85h-2v1.85h2zm0-3.7v-1.85h-2v1.85h2zm0-3.7v-.925h-2v.925h2zm-1-1.925h-.975v2h.975v-2zm-2.925 0h-1.95v2h1.95v-2zm-3.9 0h-.975v2h.975v-2zM288.83 7.1c-.325 0-.641-.007-.948-.022l-.094 1.998c.34.016.687.024 1.042.024v-2zm-2.808-.215a10.936 10.936 0 01-1.767-.442l-.655 1.89c.652.226 1.349.4 2.09.524l.332-1.972zm-3.355-1.194a6.251 6.251 0 01-.692-.506l-1.289 1.53c.286.24.591.463.913.667l1.068-1.691zm-.683-.498a7.265 7.265 0 01-.513-.488l-1.45 1.377c.206.217.425.425.656.625l1.307-1.514zm-1.351-1.591a5.816 5.816 0 01-.555-1.26l-1.911.59c.183.594.431 1.157.745 1.688l1.721-1.018zm-.821-2.635a7.941 7.941 0 01-.032-.717h-2c0 .303.013.602.04.895l1.992-.178zm-1.032.283h.782v-2h-.782v2zm2.344 0h1.563v-2h-1.563v2zm3.125 0h.781v-2h-.781v2zm-.212-.885c.036.311.082.608.137.89l1.963-.382a9.892 9.892 0 01-.113-.739l-1.987.231zm.738 2.72c.172.333.38.638.628.902l1.454-1.374a1.954 1.954 0 01-.306-.447l-1.776.919zm.648.922c.238.238.506.439.802.604l.975-1.746a1.621 1.621 0 01-.362-.272l-1.415 1.414zm2.56 1.145c.272.032.555.048.847.048v-2c-.221 0-.424-.012-.61-.034l-.237 1.986zm.847.048c.289 0 .568-.015.837-.047l-.236-1.986a5.104 5.104 0 01-.601.033v2zm2.582-.59c.296-.17.563-.377.795-.623l-1.454-1.374a1.409 1.409 0 01-.334.26l.993 1.737zm.776-.603c.259-.26.477-.56.659-.893l-1.755-.96a1.89 1.89 0 01-.319.439l1.415 1.414zm1.295-2.74c.057-.286.104-.587.141-.902l-1.987-.23a8.854 8.854 0 01-.115.737l1.961.395zm-.853-.017h.782v-2h-.782v2zm2.344 0h1.563v-2h-1.563v2zm3.125 0h.781v-2h-.781v2zm-.219-1c0 .246-.01.485-.031.717l1.992.178c.026-.293.039-.592.039-.895h-2zm-.297 2.093a5.865 5.865 0 01-.555 1.259l1.721 1.018a7.83 7.83 0 00.745-1.687l-1.911-.59zm-1.393 2.362c-.159.167-.33.33-.513.488l1.307 1.514c.231-.2.45-.408.656-.625l-1.45-1.377zm-.504.48c-.214.181-.445.35-.692.506l1.067 1.691c.323-.204.628-.426.914-.667l-1.289-1.53zm-2.28 1.258c-.535.185-1.123.334-1.767.442l.332 1.972a12.938 12.938 0 002.09-.524l-.655-1.89zm-3.627.635c-.307.015-.623.022-.949.022v2c.356 0 .703-.008 1.043-.024l-.094-1.998z" fill="#77C2F9" fill-opacity=".9"/></svg>