<svg width="27" height="27" fill="none" xmlns="http://www.w3.org/2000/svg"><g clip-path="url(#a)" fill="#69C0FF"><path d="M23.365 7.862a2.57 2.57 0 0 1 2.597 2.596 2.571 2.571 0 0 1-2.597 2.596h-2.492a3.627 3.627 0 0 0 2.492 1.038c1.974 0 3.635-1.661 3.635-3.634 0-1.973-1.662-3.635-3.635-3.635a3.44 3.44 0 0 0-2.492 1.039h2.492z"/><path d="M17.654 22.92c0-.831-.727-1.558-1.558-1.558H13.5v-1.039h3.635c.83 0 1.557-.727 1.557-1.557 0-.831-.727-1.558-1.557-1.558h-2.596v-1.039h3.634c.83 0 1.558-.727 1.558-1.557 0-.831-.727-1.558-1.558-1.558H13.5v-1.039h9.866c.83 0 1.557-.726 1.557-1.557 0-.83-.727-1.558-1.558-1.558H12.67c2.285-2.18 4.777-4.985 3.635-6.127C15.162 1.631 12.046 4.54 5.192 8.59 2.077 10.458 0 12.742 0 16.689c0 4.257 3.53 7.788 7.788 7.788h8.308c.83 0 1.558-.727 1.558-1.558z"/></g><defs><clipPath id="a"><path fill="#fff" transform="rotate(90 13.5 13.5)" d="M0 0h27v27H0z"/></clipPath></defs></svg>