<svg width="409" height="38" fill="none" xmlns="http://www.w3.org/2000/svg"><path d="M.59 36.364h-.5v.408l.4.082.1-.49zm0-6.254l.113-.487-.613-.142v.629h.5zm18.815-7.844h.5v-.5h-.5v.5zm-14.151 0h-.5v.5h.5v-.5zm0-5.883v-.5h-.5v.5h.5zm14.151 0v.5h.5v-.5h-.5zm-1.166-6.996l-.317.387.317-.387zm-2.756-1.166l-.082.493.008.002h.008l.066-.495zM1.12 9.493h-.5v.63l.613-.143-.113-.487zm0-6.201l-.092-.491-.408.076v.415h.5zm19.663-.477l-.112.487.008.002.104-.489zm5.035 2.968l-.392.31.008.01.384-.32zm.795 26.129l.434.248.003-.005-.437-.243zm-2.756 2.968l.27.42.004-.002-.274-.418zm-5.459 2.067l.089.492.008-.001-.097-.491zm-6.678.083c-.308 0-.616-.003-.925-.008l-.018 1c.315.005.63.008.943.008v-1zm-2.774-.075a52.991 52.991 0 01-1.846-.132l-.089.996c.629.056 1.256.1 1.88.134l.055-.998zm-3.687-.328c-.61-.075-1.22-.16-1.834-.257l-.155.988c.624.098 1.246.185 1.866.262l.123-.993zm-3.66-.573a59.43 59.43 0 01-.908-.18l-.202.98c.309.063.617.124.924.182l.187-.982zm-.509.31v-.782h-1v.782h1zm0-2.345v-1.564h-1v1.564h1zm0-3.127v-.782h-1v.782h1zm-.613-.295c.288.067.571.131.85.194l.219-.976a117.33 117.33 0 01-.843-.192l-.226.974zm2.558.559c.593.12 1.165.23 1.716.33l.176-.985a73.539 73.539 0 01-1.693-.325l-.2.98zm3.444.613c.611.09 1.192.165 1.742.223l.105-.995a41.058 41.058 0 01-1.7-.217l-.147.99zm3.504.358c.308.013.605.02.889.02v-1c-.268 0-.55-.006-.845-.02l-.044 1zm.889.02c.316 0 .625-.005.925-.014l-.032-1c-.289.01-.586.014-.893.014v1zm2.777-.145a14.626 14.626 0 001.849-.327l-.242-.97c-.517.129-1.09.23-1.722.303l.115.994zm3.659-.976c.643-.322 1.18-.72 1.596-1.202l-.756-.654c-.316.365-.741.688-1.288.962l.448.894zm2.498-3.039a4.97 4.97 0 00.099-1.004h-1c0 .286-.027.552-.078.8l.979.204zm.099-1.004v-1.18h-1v1.18h1zm0-3.538v-1.179h-1v1.18h1zm-.5-1.679h-.884v1h.884v-1zm-2.653 0h-1.77v1h1.77v-1zm-3.538 0h-1.769v1h1.769v-1zm-3.538 0H7.907v1h1.77v-1zm-3.538 0h-.884v1h.884v-1zm-.384.5v-1.47h-1v1.47h1zm0-4.412v-1.471h-1v1.47h1zm-.5-.971h.884v-1h-.884v1zm2.653 0h1.77v-1h-1.77v1zm3.538 0h1.769v-1h-1.769v1zm3.538 0h1.769v-1h-1.77v1zm3.538 0h.884v-1h-.884v1zm1.384-.5v-1.007h-1v1.007h1zm0-3.021v-1.007h-1v1.007h1zm0-1.007c0-.312-.02-.61-.06-.893l-.99.14c.033.232.05.483.05.753h1zm-.698-2.641c-.182-.27-.4-.508-.651-.714l-.634.774c.177.145.33.311.458.5l.828-.56zM18.556 9a5.738 5.738 0 00-.678-.478l-.516.857c.195.117.382.249.56.395L18.556 9zm-2.202-1.117a6.578 6.578 0 00-.805-.158l-.132.992c.236.031.464.076.682.133l.255-.967zm-.789-.155a16.48 16.48 0 00-1.032-.137l-.102.995c.349.036.672.079.97.128l.164-.986zm-3.087-.26a42.06 42.06 0 00-1.023-.012v1c.346 0 .678.004.998.012l.025-1zm-1.023-.012a20.9 20.9 0 00-.893.02l.043.999a19.9 19.9 0 01.85-.019v-1zm-2.663.154a40.93 40.93 0 00-1.751.221l.145.99c.6-.089 1.17-.16 1.71-.217l-.104-.994zm-3.489.505c-.554.099-1.13.209-1.725.33l.2.98c.588-.12 1.155-.228 1.7-.326l-.175-.984zm-3.441.696c-.281.063-.566.128-.855.195l.226.974.847-.193-.218-.976zm-.242.682v-.775h-1v.775h1zm0-2.325v-1.55h-1v1.55h1zm0-3.1v-.776h-1v.775h1zm-.408-.285c.308-.057.613-.113.915-.166l-.175-.985c-.305.054-.613.11-.924.169l.184.982zm2.747-.472a79.915 79.915 0 011.838-.265l-.13-.991a77.89 77.89 0 00-1.862.268l.154.988zm3.68-.481a53.32 53.32 0 011.844-.158l-.067-.998c-.607.041-1.234.095-1.879.161l.102.995zm3.69-.245c.313-.008.62-.012.921-.012v-1c-.31 0-.625.004-.947.012l.026 1zm.921-.012c.363 0 .718.003 1.066.008l.015-1a71.733 71.733 0 00-1.081-.008v1zm3.191.077c.747.039 1.452.092 2.115.16l.101-.995a43.5 43.5 0 00-2.164-.163l-.052.998zm4.204.445c.36.064.701.133 1.026.207l.224-.974a21.565 21.565 0 00-1.076-.217l-.174.984zm1.034.209c.482.103.938.233 1.366.39l.344-.94a11.087 11.087 0 00-1.502-.428l-.208.978zm3.782 1.783c.351.302.673.637.965 1.006l.784-.62a8.246 8.246 0 00-1.097-1.145l-.652.759zm.973 1.016c.17.204.327.423.473.66l.851-.525a6.686 6.686 0 00-.556-.775l-.768.64zm1.16 2.158c.166.498.297 1.043.392 1.638l.988-.159a11.393 11.393 0 00-.431-1.795l-.95.316zm.56 3.339c.013.279.019.566.019.861h1c0-.31-.007-.611-.02-.906l-.999.045zm.019.861v.944h1v-.944h-1zm0 2.832v1.888h1v-1.888h-1zm0 3.776v1.889h1v-1.889h-1zm0 3.777v1.888h1v-1.888h-1zm0 3.776v.944h1v-.944h-1zm0 .944c0 .369-.02.727-.057 1.075l.994.108c.042-.385.063-.78.063-1.183h-1zm-.549 3.143a7.538 7.538 0 01-.448.96l.874.486c.194-.35.364-.713.508-1.087l-.934-.359zm-.445.955a8.912 8.912 0 01-.524.813l.81.587a9.91 9.91 0 00.582-.904l-.868-.496zm-1.827 2.223c-.243.206-.5.398-.77.575l.55.836c.303-.199.592-.415.867-.648l-.647-.763zm-.765.572a11.67 11.67 0 01-1.229.688l.438.9c.468-.228.912-.477 1.331-.746l-.54-.842zm-3.891 1.672c-.447.122-.912.23-1.395.325l.194.982c.505-.1.993-.214 1.464-.342l-.263-.965zm-1.387.324c-.27.049-.542.095-.816.137l.155.988c.28-.044.56-.09.839-.14l-.178-.985zm-2.456.354a36.91 36.91 0 01-1.65.143l.064.998a38.01 38.01 0 001.694-.147l-.108-.994zm-3.304.212a38.05 38.05 0 01-.829.009v1c.284 0 .567-.003.85-.009l-.021-1zM.59 36.364h-1v.815l.799.164.201-.979zm0-6.254l.226-.974-1.226-.285v1.259h1zm18.815-7.844h1v-1h-1v1zm-14.151 0h-1v1h1v-1zm0-5.883v-1h-1v1h1zm14.151 0v1h1v-1h-1zm-1.166-6.996l-.633.774.633-.774zm-2.756-1.166l-.164.986.016.003.016.002.132-.991zM1.12 9.493h-1v1.259l1.226-.285-.226-.974zm0-6.201l-.184-.983-.816.153v.83h1zm19.663-.477l-.224.975.008.001.008.002.208-.978zm5.035 2.968l-.784.62.008.01.008.01.768-.64zm.795 26.129l.868.496.006-.01-.874-.486zm-2.756 2.968l.54.841.009-.005-.549-.836zm-5.459 2.067l.178.984.007-.001.008-.002-.193-.981zm-6.678-.417c-.305 0-.61-.003-.916-.008l-.036 2c.318.005.635.008.952.008v-2zm-2.747-.075a52.752 52.752 0 01-1.829-.13l-.177 1.992a55.55 55.55 0 001.898.136l.108-1.998zm-3.653-.324a56.08 56.08 0 01-1.818-.255l-.31 1.976c.63.099 1.257.187 1.883.264l.245-1.985zm-3.627-.568c-.3-.057-.6-.117-.902-.178L.39 37.344c.31.063.621.125.931.184l.373-1.965zm-.103.801v-.782h-2v.782h2zm0-2.345v-1.564h-2v1.564h2zm0-3.127v-.782h-2v.782h2zm-1.226.192l.854.195.437-1.952c-.276-.062-.555-.125-.839-.191l-.452 1.948zm2.571.562c.597.121 1.172.232 1.728.331l.353-1.968a73.184 73.184 0 01-1.682-.323l-.399 1.96zm3.471.618c.617.091 1.205.166 1.763.225l.21-1.989a40.744 40.744 0 01-1.68-.215l-.293 1.979zm3.555.362c.315.014.619.021.911.021v-2a18.9 18.9 0 01-.823-.019l-.088 1.998zm.911.021c.322 0 .635-.005.94-.014l-.063-2c-.283.01-.575.014-.877.014v2zm2.835-.149c.685-.079 1.323-.19 1.911-.337l-.483-1.941c-.492.123-1.044.22-1.658.291l.23 1.987zm3.825-1.025c.69-.346 1.283-.782 1.75-1.322l-1.513-1.308c-.265.307-.634.592-1.133.843l.896 1.787zm2.763-3.384a5.43 5.43 0 00.11-1.106h-2c0 .255-.024.487-.068.7l1.958.406zm.11-1.106v-1.18h-2v1.18h2zm0-3.538v-1.179h-2v1.18h2zm-1-2.179h-.884v2h.884v-2zm-2.653 0h-1.77v2h1.77v-2zm-3.538 0h-1.769v2h1.769v-2zm-3.538 0H7.907v2h1.77v-2zm-3.538 0h-.884v2h.884v-2zm.116 1v-1.47h-2v1.47h2zm0-4.412v-1.471h-2v1.47h2zm-1-.471h.884v-2h-.884v2zm2.653 0h1.77v-2h-1.77v2zm3.538 0h1.769v-2h-1.769v2zm3.538 0h1.769v-2h-1.77v2zm3.538 0h.884v-2h-.884v2zm1.884-1v-1.007h-2v1.007h2zm0-3.021v-1.007h-2v1.007h2zm0-1.007c0-.332-.02-.654-.065-.963l-1.98.28c.03.207.045.434.045.683h2zm-.784-2.922c-.21-.31-.46-.583-.749-.82l-1.266 1.548c.14.114.259.245.36.394l1.655-1.122zm-.749-.82a6.241 6.241 0 00-.737-.52l-1.03 1.715c.173.104.34.222.5.353l1.267-1.548zM16.481 7.4a7.076 7.076 0 00-.866-.17l-.264 1.982c.216.03.423.07.621.122l.509-1.934zm-.834-.165a16.968 16.968 0 00-1.064-.141l-.203 1.99c.34.034.653.076.939.123l.328-1.972zm-3.156-.266a40.972 40.972 0 00-1.036-.013v2c.342 0 .67.004.985.012l.05-2zm-1.036-.013c-.294 0-.598.007-.914.02l.085 1.999c.29-.013.566-.019.829-.019v-2zm-2.715.156c-.562.059-1.153.134-1.772.225l.29 1.978a40.766 40.766 0 011.689-.213l-.207-1.99zm-3.525.51c-.558.1-1.137.211-1.736.333l.398 1.96a72.034 72.034 0 011.69-.323l-.352-1.97zm-3.462.701c-.282.063-.569.129-.859.196l.452 1.948c.285-.066.566-.13.843-.192l-.436-1.952zm.367 1.17v-.775h-2v.775h2zm0-2.325v-1.55h-2v1.55h2zm0-3.1v-.776h-2v.775h2zm-.816.207c.307-.057.61-.113.91-.166l-.349-1.97-.929.17.368 1.966zm2.732-.47a76.403 76.403 0 011.826-.263l-.26-1.983c-.61.08-1.235.17-1.874.27l.308 1.976zm3.654-.478c.63-.064 1.238-.116 1.827-.156l-.135-1.996c-.613.042-1.245.096-1.896.163l.204 1.99zm3.651-.242c.31-.008.613-.012.909-.012v-2c-.314 0-.633.004-.96.012l.051 2zm.909-.012c.36 0 .713.003 1.058.008l.03-2a72.221 72.221 0 00-1.088-.008v2zm3.166.077c.739.038 1.435.09 2.089.157l.203-1.99c-.69-.07-1.42-.125-2.189-.165l-.103 1.998zm4.142.438c.352.062.685.13 1.001.202l.448-1.95a22.07 22.07 0 00-1.102-.222l-.347 1.97zm1.017.205a9.59 9.59 0 011.298.37l.687-1.878a11.582 11.582 0 00-1.569-.448l-.416 1.956zm3.56 1.673c.327.28.626.593.899.937l1.568-1.24a8.75 8.75 0 00-1.163-1.214l-1.304 1.517zm.915.957c.154.185.297.385.431.602l1.703-1.05a7.184 7.184 0 00-.598-.832l-1.536 1.28zm1.07 1.996c.156.469.28.988.372 1.559l1.975-.317a11.892 11.892 0 00-.45-1.874l-1.898.632zm.535 3.203c.012.271.018.55.018.839h2c0-.316-.007-.626-.02-.928l-1.998.089zm.018.839v.944h2v-.944h-2zm0 2.832v1.888h2v-1.888h-2zm0 3.776v1.889h2v-1.889h-2zm0 3.777v1.888h2v-1.888h-2zm0 3.776v.944h2v-.944h-2zm0 .944c0 .352-.018.692-.054 1.02l1.988.217c.044-.404.066-.816.066-1.237h-2zm-.516 2.964c-.119.31-.258.608-.418.896l1.748.972c.206-.37.385-.755.537-1.151l-1.867-.717zm-.412.886c-.155.27-.32.526-.495.768l1.619 1.174c.219-.302.423-.619.612-.95l-1.736-.992zm-1.716 2.09a7.35 7.35 0 01-.72.538l1.097 1.672c.32-.21.625-.438.916-.685l-1.293-1.525zm-.713.533c-.367.236-.759.456-1.176.659l.875 1.798c.485-.236.946-.494 1.383-.775l-1.082-1.682zm-3.752 1.61c-.434.118-.887.224-1.359.317l.386 1.962a21.457 21.457 0 001.5-.35l-.527-1.93zm-1.343.314c-.267.048-.535.093-.805.135l.309 1.976c.284-.044.568-.092.85-.143l-.354-1.968zm-2.422.35a36.44 36.44 0 01-1.627.14l.127 1.995a38.583 38.583 0 001.716-.148l-.216-1.988zm-3.26.209a44.55 44.55 0 01-.819.008v2c.288 0 .574-.003.86-.009l-.042-2zm40.08-3.497h.5v-.5h-.5v.5zM42.92 30.64l-.264.425.004.002.26-.427zm.053-23.532l.261.426.005-.002-.266-.424zm9.646-2.491v.5h.5v-.5h-.5zm0-4.399v-.5h-.5v.5h.5zm8.162 0h.5v-.5h-.5v.5zm0 4.399h-.5v.5h.5v-.5zm9.593 2.491l-.265.424.002.001.263-.425zm2.12 21.518l.38.325-.38-.325zm-5.035 3.339l.163.473.005-.002-.168-.471zm-6.678 1.06v-.5h-.5v.5h.5zm0 4.505v.5h.5v-.5h-.5zm-8.162 0h-.5v.5h.5v-.5zm.106-27.454h.5v-.5h-.5v.5zm-3.922 1.166l-.302-.398.302.398zm0 15.264l-.284.412.008.005.008.005.268-.422zm3.922 1.007v.5h.5v-.5h-.5zm7.95.053h-.5v.5h.5v-.5zm3.869-1.06l-.277-.416-.007.004.284.412zm.053-15.264l.302-.398-.302.398zm-3.922-1.166v-.5h-.5v.5h.5zm-8.056 22.449c-.28 0-.555-.004-.828-.013l-.03 1c.282.009.569.013.858.013v-1zm-2.475-.12a20.621 20.621 0 01-1.63-.23l-.179.985c.555.1 1.124.18 1.709.24l.1-.995zm-3.227-.595a15.921 15.921 0 01-1.55-.517l-.366.93c.531.21 1.08.392 1.648.55l.268-.963zm-3.03-1.196a13.162 13.162 0 01-.707-.401l-.52.854c.248.15.5.294.759.431l.468-.884zm-.703-.399a8.88 8.88 0 01-.852-.6l-.623.782c.296.237.612.46.947.668l.528-.85zm-2.272-2.086a7.132 7.132 0 01-.936-1.824l-.945.326c.26.753.616 1.446 1.067 2.079l.814-.581zm-1.366-3.857a11.2 11.2 0 01-.048-1.052h-1c0 .392.018.775.053 1.147l.995-.095zm-.048-1.052v-1.047h-1v1.047h1zm0-3.14v-2.094h-1v2.094h1zm0-4.187v-1.047h-1v1.047h1zm0-1.047c0-.378.016-.744.047-1.097l-.996-.088c-.034.384-.051.78-.051 1.185h1zm.467-3.22c.23-.703.541-1.34.936-1.915l-.824-.566a8.425 8.425 0 00-1.063 2.171l.951.31zm2.388-3.473a8.47 8.47 0 01.881-.619l-.522-.852a9.47 9.47 0 00-.986.692l.627.78zm.886-.621c.229-.144.462-.281.7-.412l-.481-.876c-.255.14-.505.287-.75.44l.53.848zm2.167-1.114a15.658 15.658 0 011.538-.541l-.284-.96a16.66 16.66 0 00-1.635.577l.38.924zm3.126-.928a19.432 19.432 0 011.621-.244l-.108-.994c-.582.063-1.15.149-1.705.257l.192.981zm3.262-.36c.272-.008.547-.013.825-.013v-1c-.29 0-.575.005-.858.014l.033 1zm1.325-.513v-1.1h-1v1.1h1zm0-3.3V.219h-1v1.1h1zm-.5-.599h1.02v-1h-1.02v1zm3.06 0h2.041v-1h-2.04v1zm4.082 0h1.02v-1h-1.02v1zm.52-.5v1.1h1v-1.1h-1zm0 3.3v1.099h1v-1.1h-1zm.5 1.599c.277 0 .55.005.82.014l.034-1c-.282-.01-.566-.014-.854-.014v1zm2.452.13a19.2 19.2 0 011.613.245l.193-.981a20.196 20.196 0 00-1.697-.258l-.109.994zm3.191.633c.526.157 1.036.337 1.529.541l.383-.923a16.626 16.626 0 00-1.626-.576l-.286.958zm2.987 1.242c.237.13.47.267.698.41l.53-.848a14.973 14.973 0 00-.745-.438l-.483.876zm.7.411c.316.195.61.403.885.624l.626-.78a9.841 9.841 0 00-.985-.694l-.526.85zm2.352 2.18a7.44 7.44 0 01.957 1.912l.948-.318a8.44 8.44 0 00-1.085-2.167l-.82.573zm1.39 4.035c.033.354.049.72.049 1.098h1c0-.407-.017-.803-.053-1.189l-.996.091zm.049 1.098v1.047h1v-1.047h-1zm0 3.14v2.094h1v-2.094h-1zm0 4.187v1.047h1v-1.047h-1zm0 1.047c0 .48-.034.942-.102 1.384l.988.152a10.12 10.12 0 00.114-1.536h-1zm-.995 3.963a7.41 7.41 0 01-.793 1.118l.76.65c.343-.4.643-.823.9-1.268l-.867-.5zm-.793 1.118a9.922 9.922 0 01-.493.534l.71.705a11.2 11.2 0 00.543-.589l-.76-.65zm-1.59 1.49c-.382.287-.79.553-1.223.796l.49.872c.47-.265.916-.555 1.334-.87l-.6-.799zm-2.544 1.438a13.93 13.93 0 01-.689.265l.336.942c.25-.09.497-.184.737-.284l-.384-.923zm-.684.263c-.26.09-.521.173-.787.251l.282.96c.28-.083.557-.17.831-.265l-.326-.946zm-2.392.644c-.534.106-1.08.19-1.637.253l.112.994a20.863 20.863 0 001.72-.266l-.195-.98zm-3.292.374a23.3 23.3 0 01-.831.015v1c.291 0 .58-.005.867-.015l-.036-1zm-1.331.515v1.126h1v-1.126h-1zm0 3.379v1.126h1v-1.126h-1zm.5.626h-1.02v1h1.02v-1zm-3.06 0H55.68v1h2.04v-1zm-4.082 0h-1.02v1h1.02v-1zm-.52.5v-1.126h-1v1.126h1zm0-3.379v-1.126h-1v1.126h1zm-.394-24.575c-.38 0-.746.021-1.1.064l.12.992a8.17 8.17 0 01.98-.056v-1zm-3.252.673c-.346.167-.67.365-.972.595l.604.796c.249-.188.516-.352.803-.49l-.435-.9zm-.972.595a4.793 4.793 0 00-.73.678l.757.654a3.83 3.83 0 01.577-.536l-.604-.796zm-1.632 2.479c-.07.318-.103.65-.103.993h1c0-.277.027-.537.08-.78l-.977-.213zm-.103.993v1.166h1v-1.166h-1zm0 3.498v2.332h1v-2.332h-1zm0 4.664v1.166h1v-1.166h-1zm0 1.166c0 .33.035.65.106.955l.974-.227a3.196 3.196 0 01-.08-.728h-1zm1.028 2.658c.213.224.455.43.725.616l.568-.824a3.552 3.552 0 01-.566-.48l-.727.688zm.742.626c.31.197.64.367.988.51l.38-.925a5.366 5.366 0 01-.834-.43l-.535.845zm3.112 1.03c.347.037.706.055 1.077.055v-1c-.338 0-.662-.017-.972-.05l-.105.995zm1.577-.445v-1.09h-1v1.09h1zm0-3.27v-2.18h-1v2.18h1zm0-4.359v-2.18h-1v2.18h1zm0-4.359v-2.18h-1v2.18h1zm0-4.36v-1.089h-1v1.09h1zm7.95 16.401v-1.093h-1v1.093h1zm0-3.28V22.1h-1v2.187h1zm0-4.372v-2.186h-1v2.186h1zm0-4.372v-2.187h-1v2.187h1zm0-4.373v-1.093h-1v1.093h1zm-.5-.593c.343 0 .669.019.98.056l.12-.992a9.17 9.17 0 00-1.1-.064v1zm2.817.574c.287.138.554.302.803.49l.604-.796a5.721 5.721 0 00-.972-.595l-.435.9zm.803.49c.222.169.414.348.577.536l.756-.654a4.784 4.784 0 00-.729-.678l-.604.796zm1.259 1.895c.053.244.08.504.08.781h1c0-.343-.034-.675-.103-.993l-.977.212zm.08.781v1.166h1v-1.166h-1zm0 3.498v2.332h1v-2.332h-1zm0 4.664v1.166h1v-1.166h-1zm0 1.166c0 .261-.029.504-.084.73l.972.237c.075-.31.112-.632.112-.967h-1zm-.785 1.97a3.672 3.672 0 01-.582.476l.554.832c.276-.184.523-.386.74-.607l-.712-.7zm-.589.48c-.25.173-.519.323-.806.45l.404.915a5.91 5.91 0 00.97-.541l-.568-.824zm-2.624.92a8.666 8.666 0 01-.961.052v1c.37 0 .727-.019 1.072-.058l-.11-.993zm-9.017 6.011h1v-1h-1v1zM42.92 30.64l-.528.85.008.004.52-.854zm.053-23.532l.523.852.008-.005-.531-.847zm9.646-2.491v1h1v-1h-1zm0-4.399v-1h-1v1h1zm8.162 0h1v-1h-1v1zm0 4.399h-1v1h1v-1zm9.593 2.491l-.531.847.005.003.526-.85zm2.12 21.518l.76.65-.76-.65zm-5.035 3.339l.326.945.01-.003-.336-.942zm-6.678 1.06v-1h-1v1h1zm0 4.505v1h1v-1h-1zm-8.162 0h-1v1h1v-1zm.106-27.454h1v-1h-1v1zm-3.922 1.166l-.604-.797.604.797zm0 15.264l-.568.823.016.011.017.01.535-.844zm3.922 1.007v1h1v-1h-1zm7.95.053h-1v1h1v-1zm3.869-1.06l-.555-.832-.006.004-.007.005.568.823zm.053-15.264l.604-.797-.604.797zm-3.922-1.166v-1h-1v1h1zm-8.056 21.949c-.274 0-.545-.004-.812-.012l-.062 1.998c.288.01.58.014.874.014v-2zm-2.424-.118a20.107 20.107 0 01-1.59-.223l-.36 1.967c.569.104 1.151.186 1.749.246l.2-1.99zm-3.144-.579c-.52-.144-1.02-.311-1.501-.5l-.731 1.861a17.27 17.27 0 001.695.566l.537-1.927zm-2.93-1.155c-.232-.123-.46-.252-.681-.387l-1.04 1.708c.257.156.518.305.785.446l.936-1.768zm-.673-.382a8.357 8.357 0 01-.804-.566l-1.247 1.563c.312.25.644.483.995.701l1.056-1.698zm-2.129-1.953a6.628 6.628 0 01-.87-1.697l-1.89.654A8.627 8.627 0 0039.691 29l1.627-1.162zm-1.275-3.613a10.64 10.64 0 01-.046-1.005h-2c0 .407.018.805.055 1.194l1.991-.189zm-.046-1.005v-1.047h-2v1.047h2zm0-3.14v-2.094h-2v2.094h2zm0-4.187v-1.047h-2v1.047h2zm0-1.047c0-.364.015-.715.045-1.052l-1.992-.177c-.035.4-.053.81-.053 1.229h2zm.443-3.065a6.92 6.92 0 01.872-1.787l-1.649-1.132a8.906 8.906 0 00-1.125 2.3l1.902.619zm2.225-3.238c.256-.206.533-.4.83-.583L42.45 6.256a9.962 9.962 0 00-1.037.728l1.253 1.559zm.838-.588c.221-.138.446-.27.676-.397l-.963-1.752a15.67 15.67 0 00-.775.455l1.062 1.694zm2.093-1.075c.478-.197.975-.372 1.488-.524l-.566-1.918c-.579.171-1.14.369-1.685.593l.763 1.85zm3.03-.9a19.275 19.275 0 011.58-.237l-.215-1.988a20.93 20.93 0 00-1.747.263l.382 1.963zm3.184-.35c.266-.009.535-.013.808-.013v-2c-.295 0-.586.005-.875.015l.067 1.998zm1.808-1.013v-1.1h-2v1.1h2zm0-3.3V.219h-2v1.1h2zm-1-.099h1.02v-2h-1.02v2zm3.06 0h2.041v-2h-2.04v2zm4.082 0h1.02v-2h-1.02v2zm.02-1v1.1h2v-1.1h-2zm0 3.3v1.099h2v-1.1h-2zm1 2.099c.271 0 .539.005.803.014l.068-2c-.287-.01-.578-.014-.871-.014v2zm2.398.127c.538.059 1.062.139 1.57.239l.386-1.963a20.69 20.69 0 00-1.738-.264l-.218 1.988zm3.103.615c.51.152 1.003.327 1.48.524l.765-1.847c-.542-.225-1.1-.423-1.675-.594l-.57 1.917zm2.888 1.2c.229.127.453.258.673.396l1.062-1.694a15.773 15.773 0 00-.77-.453L69.17 7.56zm.678.4c.3.184.577.38.835.588l1.252-1.56c-.325-.26-.67-.504-1.035-.73L69.848 7.96zm2.206 2.04c.374.536.672 1.13.892 1.785l1.896-.636a8.941 8.941 0 00-1.15-2.294L72.054 10zm1.301 3.795c.031.337.047.688.047 1.052h2c0-.421-.018-.833-.055-1.235l-1.992.183zm.047 1.052v1.047h2v-1.047h-2zm0 3.14v2.094h2v-2.094h-2zm0 4.187v1.047h2v-1.047h-2zm0 1.047c0 .457-.033.893-.097 1.308l1.977.304c.08-.522.12-1.06.12-1.612h-2zm-.928 3.713c-.209.363-.455.71-.74 1.042l1.52 1.302a8.89 8.89 0 00.953-1.345l-1.733-.999zm-.74 1.042a9.35 9.35 0 01-.468.508l1.42 1.409c.196-.198.386-.403.567-.615l-1.518-1.302zm-1.51 1.416a10.48 10.48 0 01-1.169.76l.98 1.744c.49-.275.954-.577 1.391-.906l-1.203-1.598zm-2.437 1.376c-.215.09-.436.175-.663.256l.67 1.884c.26-.092.514-.19.762-.294l-.769-1.846zm-.654.253c-.252.087-.507.168-.764.243l.563 1.92c.287-.085.572-.176.853-.273l-.652-1.89zm-2.326.626c-.52.103-1.052.185-1.596.246l.224 1.988a21.26 21.26 0 001.76-.273l-.388-1.961zm-3.213.365c-.268.01-.54.014-.813.014v2c.297 0 .592-.005.885-.016l-.072-1.998zm-1.813 1.014v1.126h2v-1.126h-2zm0 3.379v1.126h2v-1.126h-2zm1 .126h-1.02v2h1.02v-2zm-3.06 0H55.68v2h2.04v-2zm-4.082 0h-1.02v2h1.02v-2zm-.02 1v-1.126h-2v1.126h2zm0-3.379v-1.126h-2v1.126h2zm-.894-25.075a9.67 9.67 0 00-1.16.067l.24 1.986c.29-.035.596-.053.92-.053v-2zm-3.47.723a6.223 6.223 0 00-1.056.646l1.208 1.594a4.23 4.23 0 01.718-.439l-.87-1.8zm-1.056.646a5.293 5.293 0 00-.805.75l1.512 1.309a3.29 3.29 0 01.501-.465L48.2 10.445zm-1.819 2.772a5.17 5.17 0 00-.114 1.099h2c0-.245.024-.469.069-.675l-1.955-.424zm-.114 1.099v1.166h2v-1.166h-2zm0 3.498v2.332h2v-2.332h-2zm0 4.664v1.166h2v-1.166h-2zm0 1.166c0 .366.038.723.12 1.068l1.947-.454a2.692 2.692 0 01-.067-.614h-2zm1.165 3.002c.239.252.508.479.804.683l1.136-1.646a3.046 3.046 0 01-.487-.412l-1.453 1.375zm.837.705c.336.213.692.396 1.066.55l.76-1.85a4.81 4.81 0 01-.756-.39l-1.07 1.69zm3.327 1.104c.366.039.743.058 1.13.058v-2c-.322 0-.628-.016-.919-.047l-.21 1.99zm2.13-.942v-1.09h-2v1.09h2zm0-3.27v-2.18h-2v2.18h2zm0-4.359v-2.18h-2v2.18h2zm0-4.359v-2.18h-2v2.18h2zm0-4.36v-1.089h-2v1.09h2zm7.95 16.401v-1.093h-2v1.093h2zm0-3.28V22.1h-2v2.187h2zm0-4.372v-2.186h-2v2.186h2zm0-4.372v-2.187h-2v2.187h2zm0-4.373v-1.093h-2v1.093h2zm-1-.093c.324 0 .63.018.92.053l.24-1.986a9.668 9.668 0 00-1.16-.067v2zm2.6.524c.257.124.496.27.718.439l1.208-1.594a6.222 6.222 0 00-1.056-.646l-.87 1.801zm.718.439c.197.15.363.305.502.465l1.511-1.31a5.289 5.289 0 00-.805-.749l-1.208 1.594zm1.072 1.602c.045.206.069.43.069.675h2a5.17 5.17 0 00-.114-1.1l-1.955.425zm.069.675v1.166h2v-1.166h-2zm0 3.498v2.332h2v-2.332h-2zm0 4.664v1.166h2v-1.166h-2zm0 1.166c0 .225-.025.428-.07.612l1.944.473c.085-.351.126-.714.126-1.085h-2zm-.641 1.62a3.16 3.16 0 01-.504.41l1.11 1.664c.301-.2.576-.424.82-.672l-1.426-1.402zm-.517.419a4.492 4.492 0 01-.724.404l.808 1.829c.371-.164.722-.36 1.052-.587l-1.136-1.646zm-2.395.835a8.164 8.164 0 01-.906.048v2c.387 0 .763-.02 1.128-.06l-.222-1.988zm37.647 6.507h.5v-.5h-.5v.5zm-9.699-2.385l-.264.425.004.002.26-.427zm.053-23.532l.261.426.004-.002-.265-.424zm9.646-2.491v.5h.5v-.5h-.5zm0-4.399v-.5h-.5v.5h.5zm8.162 0h.5v-.5h-.5v.5zm0 4.399h-.5v.5h.5v-.5zm9.593 2.491l-.266.424.003.001.263-.425zm2.12 21.518l.38.325-.38-.325zm-5.035 3.339l.163.473.005-.002-.168-.471zm-6.678 1.06v-.5h-.5v.5h.5zm0 4.505v.5h.5v-.5h-.5zm-8.162 0h-.5v.5h.5v-.5zm.106-27.454h.5v-.5h-.5v.5zm-3.922 1.166l-.302-.398.302.398zm0 15.264l-.284.412.008.005.008.005.268-.422zm3.922 1.007v.5h.5v-.5h-.5zm7.95.053h-.5v.5h.5v-.5zm3.869-1.06l-.277-.416-.007.004.284.412zm.053-15.264l.302-.398-.302.398zm-3.922-1.166v-.5h-.5v.5h.5zm-8.056 22.449c-.28 0-.555-.004-.828-.013l-.03 1c.282.009.569.013.858.013v-1zm-2.475-.12a20.612 20.612 0 01-1.63-.23l-.179.985c.555.1 1.124.18 1.709.24l.1-.995zm-3.227-.595a15.92 15.92 0 01-1.55-.517l-.366.93c.53.21 1.08.392 1.647.55l.269-.963zm-3.03-1.196a13.162 13.162 0 01-.707-.401l-.52.854c.248.15.5.294.759.431l.468-.884zm-.703-.399a8.866 8.866 0 01-.852-.6l-.624.782c.297.237.613.46.948.668l.528-.85zM87.52 28.13a7.128 7.128 0 01-.936-1.824l-.945.326a8.11 8.11 0 001.067 2.079l.814-.581zm-1.366-3.857a11.2 11.2 0 01-.048-1.052h-1c0 .392.017.775.053 1.147l.995-.095zm-.048-1.052v-1.047h-1v1.047h1zm0-3.14v-2.094h-1v2.094h1zm0-4.187v-1.047h-1v1.047h1zm0-1.047c0-.378.016-.744.047-1.097l-.996-.088c-.034.384-.051.78-.051 1.185h1zm.467-3.22c.23-.703.541-1.34.936-1.915l-.824-.566a8.428 8.428 0 00-1.063 2.171l.951.31zm2.388-3.473a8.47 8.47 0 01.881-.619l-.523-.852a9.56 9.56 0 00-.985.692l.627.78zm.885-.621c.23-.144.463-.281.701-.412l-.481-.876c-.255.14-.505.287-.75.44l.53.848zm2.168-1.114a15.656 15.656 0 011.537-.541l-.283-.96c-.562.167-1.107.359-1.635.577l.38.924zm3.126-.928a19.438 19.438 0 011.621-.244l-.108-.994c-.582.063-1.15.149-1.705.257l.192.981zm3.262-.36c.272-.008.547-.013.825-.013v-1c-.29 0-.575.005-.858.014l.033 1zm1.325-.513v-1.1h-1v1.1h1zm0-3.3V.219h-1v1.1h1zm-.5-.599h1.02v-1h-1.02v1zm3.061 0h2.04v-1h-2.04v1zm4.081 0h1.02v-1h-1.02v1zm.52-.5v1.1h1v-1.1h-1zm0 3.3v1.099h1v-1.1h-1zm.5 1.599c.277 0 .55.005.82.014l.034-1a25.02 25.02 0 00-.854-.014v1zm2.452.13c.552.06 1.09.142 1.612.245l.194-.981a20.196 20.196 0 00-1.697-.258l-.109.994zm3.191.633c.526.157 1.036.337 1.529.541l.383-.923a16.678 16.678 0 00-1.626-.576l-.286.958zm2.987 1.242c.237.13.469.267.697.41l.531-.848a14.973 14.973 0 00-.745-.438l-.483.876zm.7.411c.316.195.611.403.885.624l.626-.78a9.854 9.854 0 00-.985-.694l-.526.85zm2.352 2.18a7.47 7.47 0 01.957 1.912l.948-.318a8.462 8.462 0 00-1.085-2.167l-.82.573zm1.39 4.035c.033.354.049.72.049 1.098h1c0-.407-.018-.803-.053-1.189l-.996.091zm.049 1.098v1.047h1v-1.047h-1zm0 3.14v2.094h1v-2.094h-1zm0 4.187v1.047h1v-1.047h-1zm0 1.047c0 .48-.034.942-.102 1.384l.988.152a10.12 10.12 0 00.114-1.536h-1zm-.995 3.963a7.41 7.41 0 01-.793 1.118l.76.65c.342-.4.643-.823.9-1.268l-.867-.5zm-.793 1.118a9.564 9.564 0 01-.493.534l.71.705a11.2 11.2 0 00.543-.589l-.76-.65zm-1.59 1.49c-.382.287-.79.553-1.223.796l.49.872c.47-.265.915-.555 1.334-.87l-.601-.799zm-2.544 1.438c-.224.093-.454.181-.689.265l.336.942c.251-.09.497-.184.737-.284l-.384-.923zm-.684.263c-.259.09-.521.173-.787.251l.282.96c.28-.083.557-.17.831-.265l-.326-.946zm-2.392.644c-.534.106-1.08.19-1.637.253l.112.994a20.834 20.834 0 001.719-.266l-.194-.98zm-3.292.374c-.274.01-.551.015-.831.015v1c.291 0 .58-.005.867-.015l-.036-1zm-1.331.515v1.126h1v-1.126h-1zm0 3.379v1.126h1v-1.126h-1zm.5.626h-1.02v1h1.02v-1zm-3.061 0h-2.04v1h2.04v-1zm-4.081 0h-1.02v1h1.02v-1zm-.52.5v-1.126h-1v1.126h1zm0-3.379v-1.126h-1v1.126h1zm-.394-24.575c-.38 0-.746.021-1.1.064l.12.992c.311-.037.637-.056.98-.056v-1zm-3.252.673c-.346.167-.67.365-.972.595l.604.796c.249-.188.516-.352.803-.49l-.435-.9zm-.972.595a4.784 4.784 0 00-.73.678l.757.654a3.79 3.79 0 01.577-.536l-.604-.796zm-1.632 2.479c-.07.318-.103.65-.103.993h1c0-.277.027-.537.08-.78l-.977-.213zm-.103.993v1.166h1v-1.166h-1zm0 3.498v2.332h1v-2.332h-1zm0 4.664v1.166h1v-1.166h-1zm0 1.166c0 .33.035.65.106.955l.974-.227a3.19 3.19 0 01-.08-.728h-1zm1.028 2.658c.212.224.455.43.725.616l.568-.824a3.556 3.556 0 01-.567-.48l-.726.688zm.741.626c.311.197.641.367.989.51l.38-.925a5.36 5.36 0 01-.834-.43l-.535.845zm3.113 1.03c.347.037.706.055 1.077.055v-1c-.338 0-.662-.017-.972-.05l-.105.995zm1.577-.445v-1.09h-1v1.09h1zm0-3.27v-2.18h-1v2.18h1zm0-4.359v-2.18h-1v2.18h1zm0-4.359v-2.18h-1v2.18h1zm0-4.36v-1.089h-1v1.09h1zm7.95 16.401v-1.093h-1v1.093h1zm0-3.28V22.1h-1v2.187h1zm0-4.372v-2.186h-1v2.186h1zm0-4.372v-2.187h-1v2.187h1zm0-4.373v-1.093h-1v1.093h1zm-.5-.593c.343 0 .669.019.979.056l.12-.992a9.167 9.167 0 00-1.099-.064v1zm2.817.574c.287.138.554.302.803.49l.604-.796a5.7 5.7 0 00-.972-.595l-.435.9zm.803.49c.222.169.414.348.577.536l.756-.654a4.775 4.775 0 00-.729-.678l-.604.796zm1.259 1.895c.053.244.08.504.08.781h1a4.68 4.68 0 00-.103-.993l-.977.212zm.08.781v1.166h1v-1.166h-1zm0 3.498v2.332h1v-2.332h-1zm0 4.664v1.166h1v-1.166h-1zm0 1.166c0 .261-.029.504-.084.73l.972.237c.075-.31.112-.632.112-.967h-1zm-.785 1.97a3.695 3.695 0 01-.582.476l.554.832a4.69 4.69 0 00.741-.607l-.713-.7zm-.589.48c-.25.173-.519.323-.806.45l.404.915a5.95 5.95 0 00.97-.541l-.568-.824zm-2.624.92a8.661 8.661 0 01-.961.052v1c.37 0 .727-.019 1.072-.058l-.111-.993zm-9.017 6.011h1v-1h-1v1zm-9.699-2.385l-.528.85.008.004.52-.854zm.053-23.532l.523.852.008-.005-.531-.847zm9.646-2.491v1h1v-1h-1zm0-4.399v-1h-1v1h1zm8.162 0h1v-1h-1v1zm0 4.399h-1v1h1v-1zm9.593 2.491l-.531.847.005.003.526-.85zm2.12 21.518l.759.65-.759-.65zm-5.035 3.339l.326.945.009-.003-.335-.942zm-6.678 1.06v-1h-1v1h1zm0 4.505v1h1v-1h-1zm-8.162 0h-1v1h1v-1zm.106-27.454h1v-1h-1v1zm-3.922 1.166l-.604-.797.604.797zm0 15.264l-.568.823.016.011.017.01.535-.844zm3.922 1.007v1h1v-1h-1zm7.95.053h-1v1h1v-1zm3.869-1.06l-.555-.832-.006.004-.007.005.568.823zm.053-15.264l.604-.797-.604.797zm-3.922-1.166v-1h-1v1h1zm-8.056 21.949c-.274 0-.545-.004-.812-.012l-.062 1.998c.288.01.58.014.874.014v-2zm-2.424-.118a20.113 20.113 0 01-1.59-.223l-.36 1.967c.568.104 1.151.186 1.749.246l.2-1.99zm-3.144-.579c-.52-.144-1.02-.311-1.501-.5l-.731 1.861a17.27 17.27 0 001.695.566l.537-1.927zm-2.93-1.155c-.232-.123-.46-.252-.681-.387l-1.04 1.708c.257.156.518.305.785.446l.936-1.768zm-.673-.382a8.37 8.37 0 01-.804-.566l-1.248 1.563c.313.25.645.483.996.701l1.056-1.698zm-2.129-1.953a6.628 6.628 0 01-.87-1.697l-1.891.654A8.63 8.63 0 0086.3 29l1.628-1.162zm-1.275-3.613a10.83 10.83 0 01-.046-1.005h-2c0 .407.018.805.055 1.194l1.991-.189zm-.046-1.005v-1.047h-2v1.047h2zm0-3.14v-2.094h-2v2.094h2zm0-4.187v-1.047h-2v1.047h2zm0-1.047c0-.364.015-.715.045-1.052l-1.992-.177c-.036.4-.053.81-.053 1.229h2zm.443-3.065a6.92 6.92 0 01.872-1.787l-1.649-1.132a8.93 8.93 0 00-1.125 2.3l1.902.619zm2.225-3.238c.256-.206.532-.4.83-.583l-1.046-1.704a9.97 9.97 0 00-1.037.728l1.253 1.559zm.838-.588c.221-.138.446-.27.676-.397l-.963-1.752c-.263.144-.522.296-.775.455l1.062 1.694zm2.093-1.075c.478-.197.974-.372 1.488-.524l-.566-1.918c-.579.171-1.14.369-1.685.593l.763 1.85zm3.03-.9a19.275 19.275 0 011.58-.237L96.6 3.755c-.596.064-1.178.152-1.746.263l.382 1.963zm3.184-.35c.266-.009.535-.013.808-.013v-2c-.295 0-.587.005-.875.015l.067 1.998zm1.808-1.013v-1.1h-2v1.1h2zm0-3.3V.219h-2v1.1h2zm-1-.099h1.02v-2h-1.02v2zm3.061 0h2.04v-2h-2.04v2zm4.081 0h1.02v-2h-1.02v2zm.02-1v1.1h2v-1.1h-2zm0 3.3v1.099h2v-1.1h-2zm1 2.099c.271 0 .539.005.803.014l.068-2a25.5 25.5 0 00-.871-.014v2zm2.397.127a18.63 18.63 0 011.571.239l.386-1.963a20.68 20.68 0 00-1.738-.264l-.219 1.988zm3.104.615c.51.152 1.003.327 1.479.524l.766-1.847c-.542-.225-1.1-.423-1.675-.594l-.57 1.917zm2.888 1.2c.229.127.453.258.673.396l1.062-1.694a15.865 15.865 0 00-.77-.453l-.965 1.752zm.678.4c.299.184.577.38.835.588l1.252-1.56c-.325-.26-.67-.504-1.035-.73l-1.052 1.702zm2.205 2.04c.375.536.673 1.13.893 1.785l1.896-.636a8.927 8.927 0 00-1.15-2.294L118.662 10zm1.302 3.795c.031.337.047.688.047 1.052h2c0-.421-.018-.833-.055-1.235l-1.992.183zm.047 1.052v1.047h2v-1.047h-2zm0 3.14v2.094h2v-2.094h-2zm0 4.187v1.047h2v-1.047h-2zm0 1.047c0 .457-.033.893-.097 1.308l1.977.304c.081-.522.12-1.06.12-1.612h-2zm-.928 3.713a6.86 6.86 0 01-.739 1.042l1.518 1.302c.363-.423.681-.871.954-1.345l-1.733-.999zm-.739 1.042c-.15.175-.306.344-.469.508l1.419 1.409c.197-.198.387-.403.568-.615l-1.518-1.302zm-1.512 1.416a10.42 10.42 0 01-1.168.76l.981 1.744c.489-.275.953-.577 1.39-.906l-1.203-1.598zm-2.436 1.376c-.215.09-.436.175-.663.256l.67 1.884c.26-.092.514-.19.762-.294l-.769-1.846zm-.654.253c-.252.087-.507.168-.764.243l.563 1.92c.287-.085.571-.176.853-.273l-.652-1.89zm-2.326.626c-.52.103-1.052.185-1.596.246l.224 1.988a21.346 21.346 0 001.761-.273l-.389-1.961zm-3.213.365c-.268.01-.539.014-.813.014v2c.297 0 .592-.005.885-.016l-.072-1.998zm-1.813 1.014v1.126h2v-1.126h-2zm0 3.379v1.126h2v-1.126h-2zm1 .126h-1.02v2h1.02v-2zm-3.061 0h-2.04v2h2.04v-2zm-4.081 0h-1.02v2h1.02v-2zm-.02 1v-1.126h-2v1.126h2zm0-3.379v-1.126h-2v1.126h2zm-.894-25.075c-.398 0-.785.022-1.16.067l.24 1.986c.29-.035.596-.053.92-.053v-2zm-3.47.723a6.222 6.222 0 00-1.056.646l1.208 1.594c.222-.168.46-.315.718-.439l-.87-1.8zm-1.056.646a5.289 5.289 0 00-.805.75l1.511 1.309c.14-.16.305-.316.502-.465l-1.208-1.594zm-1.819 2.772a5.17 5.17 0 00-.114 1.099h2c0-.245.024-.469.069-.675l-1.955-.424zm-.114 1.099v1.166h2v-1.166h-2zm0 3.498v2.332h2v-2.332h-2zm0 4.664v1.166h2v-1.166h-2zm0 1.166c0 .366.038.723.119 1.068l1.948-.454a2.692 2.692 0 01-.067-.614h-2zm1.165 3.002c.238.252.508.479.804.683l1.136-1.646a3.054 3.054 0 01-.487-.412l-1.453 1.375zm.837.705c.336.213.692.396 1.066.55l.76-1.85a4.87 4.87 0 01-.756-.39l-1.07 1.69zm3.327 1.104c.366.039.743.058 1.13.058v-2a8.71 8.71 0 01-.919-.047l-.21 1.99zm2.13-.942v-1.09h-2v1.09h2zm0-3.27v-2.18h-2v2.18h2zm0-4.359v-2.18h-2v2.18h2zm0-4.359v-2.18h-2v2.18h2zm0-4.36v-1.089h-2v1.09h2zm7.95 16.401v-1.093h-2v1.093h2zm0-3.28V22.1h-2v2.187h2zm0-4.372v-2.186h-2v2.186h2zm0-4.372v-2.187h-2v2.187h2zm0-4.373v-1.093h-2v1.093h2zm-1-.093c.324 0 .63.018.919.053l.24-1.986a9.657 9.657 0 00-1.159-.067v2zm2.6.524c.257.124.496.27.718.439l1.208-1.594a6.215 6.215 0 00-1.056-.646l-.87 1.801zm.718.439c.197.15.363.305.501.465l1.512-1.31a5.272 5.272 0 00-.805-.749l-1.208 1.594zm1.072 1.602c.045.206.069.43.069.675h2a5.19 5.19 0 00-.114-1.1l-1.955.425zm.069.675v1.166h2v-1.166h-2zm0 3.498v2.332h2v-2.332h-2zm0 4.664v1.166h2v-1.166h-2zm0 1.166c0 .225-.025.428-.069.612l1.943.473c.085-.351.126-.714.126-1.085h-2zm-.641 1.62a3.19 3.19 0 01-.504.41l1.11 1.664c.301-.2.576-.424.819-.672l-1.425-1.402zm-.517.419a4.43 4.43 0 01-.724.404l.808 1.829c.371-.164.722-.36 1.052-.587l-1.136-1.646zm-2.395.835a8.178 8.178 0 01-.906.048v2c.387 0 .763-.02 1.128-.06l-.222-1.988zm24.927-23.915v-.5h-.5v.5h.5zm26.235 0h.5v-.5h-.5v.5zm0 5.883v.5h.5v-.5h-.5zm-17.967 0v-.5h-.5v.5h.5zm0 7.897h-.5v.5h.5v-.5zm16.218 0h.5v-.5h-.5v.5zm0 5.883v.5h.5v-.5h-.5zm-16.218 0v-.5h-.5v.5h.5zm0 8.851h-.5v.5h.5v-.5zm18.497 0h.5v-.5h-.5v.5zm0 5.883v.5h.5V37h-.5zm-26.765 0h-.5v.5h.5V37zm-.5-34.397v.955h1v-.955h-1zm0 2.866v1.91h1V5.47h-1zm0 3.822v1.911h1v-1.91h-1zm0 3.822v1.911h1v-1.91h-1zm0 3.822v1.911h1v-1.91h-1zm0 3.822v1.91h1v-1.91h-1zm0 3.822v1.91h1v-1.91h-1zm0 3.822v1.91h1v-1.91h-1zm0 3.822v1.91h1v-1.91h-1zm0 3.822V37h1v-.956h-1zm.5 1.455h.956v-1h-.956v1zm2.868 0h1.911v-1h-1.911v1zm3.823 0h1.912v-1h-1.912v1zm3.824 0h1.912v-1h-1.912v1zm3.823 0h1.912v-1h-1.912v1zm3.824 0h1.912v-1h-1.912v1zm3.823 0h1.912v-1h-1.912v1zm3.824 0h.956v-1h-.956v1zm1.456-.5v-1.47h-1V37h1zm0-4.412v-1.471h-1v1.47h1zm-.5-1.971h-.925v1h.925v-1zm-2.775 0h-1.849v1h1.849v-1zm-3.699 0h-1.85v1h1.85v-1zm-3.699 0h-1.85v1h1.85v-1zm-3.7 0h-1.85v1h1.85v-1zm-3.699 0h-.925v1h.925v-1zm-.425.5v-1.106h-1v1.106h1zm0-3.32v-2.212h-1v2.213h1zm0-4.425v-1.106h-1v1.106h1zm-.5-.606h1.014v-1h-1.014v1zm3.041 0h2.027v-1h-2.027v1zm4.054 0h2.028v-1h-2.028v1zm4.055 0h2.027v-1h-2.027v1zm4.054 0h1.014v-1h-1.014v1zm1.514-.5v-1.47h-1v1.47h1zm0-4.412v-1.471h-1v1.47h1zm-.5-1.971h-1.014v1h1.014v-1zm-3.041 0h-2.027v1h2.027v-1zm-4.054 0h-2.028v1h2.028v-1zm-4.055 0h-2.027v1h2.027v-1zm-4.054 0h-1.014v1h1.014v-1zm-.514.5v-.987h-1v.987h1zm0-2.961v-1.975h-1v1.975h1zm0-3.949v-.987h-1v.987h1zm-.5-.487h1.123v-1h-1.123v1zm3.369 0H147v-1h-2.246v1zm4.491 0h2.246v-1h-2.246v1zm4.492 0h2.246v-1h-2.246v1zm4.492 0h1.123v-1h-1.123v1zm1.623-.5v-1.47h-1v1.47h1zm0-4.412V2.603h-1v1.47h1zm-.5-1.971h-.937v1h.937v-1zm-2.811 0h-1.874v1h1.874v-1zm-3.748 0h-1.874v1h1.874v-1zm-3.748 0h-1.874v1h1.874v-1zm-3.748 0h-1.873v1h1.873v-1zm-3.747 0h-1.874v1h1.874v-1zm-3.748 0h-1.874v1h1.874v-1zm-3.748 0h-.937v1h.937v-1zm-.937.5v-1h-1v1h1zm26.235 0h1v-1h-1v1zm0 5.883v1h1v-1h-1zm-17.967 0v-1h-1v1h1zm0 7.897h-1v1h1v-1zm16.218 0h1v-1h-1v1zm0 5.883v1h1v-1h-1zm-16.218 0v-1h-1v1h1zm0 8.851h-1v1h1v-1zm18.497 0h1v-1h-1v1zm0 5.883v1h1v-1h-1zm-26.765 0h-1v1h1v-1zm-1-34.397v.955h2v-.955h-2zm0 2.866v1.91h2V5.47h-2zm0 3.822v1.911h2v-1.91h-2zm0 3.822v1.911h2v-1.91h-2zm0 3.822v1.911h2v-1.91h-2zm0 3.822v1.91h2v-1.91h-2zm0 3.822v1.91h2v-1.91h-2zm0 3.822v1.91h2v-1.91h-2zm0 3.822v1.91h2v-1.91h-2zm0 3.822V37h2v-.956h-2zm1 1.955h.956v-2h-.956v2zm2.868 0h1.911v-2h-1.911v2zm3.823 0h1.912v-2h-1.912v2zm3.824 0h1.912v-2h-1.912v2zm3.823 0h1.912v-2h-1.912v2zm3.824 0h1.912v-2h-1.912v2zm3.823 0h1.912v-2h-1.912v2zm3.824 0h.956v-2h-.956v2zm1.956-1v-1.47h-2V37h2zm0-4.412v-1.471h-2v1.47h2zm-1-2.471h-.925v2h.925v-2zm-2.775 0h-1.849v2h1.849v-2zm-3.699 0h-1.85v2h1.85v-2zm-3.699 0h-1.85v2h1.85v-2zm-3.7 0h-1.85v2h1.85v-2zm-3.699 0h-.925v2h.925v-2zm.075 1v-1.106h-2v1.106h2zm0-3.32v-2.212h-2v2.213h2zm0-4.425v-1.106h-2v1.106h2zm-1-.106h1.014v-2h-1.014v2zm3.041 0h2.027v-2h-2.027v2zm4.054 0h2.028v-2h-2.028v2zm4.055 0h2.027v-2h-2.027v2zm4.054 0h1.014v-2h-1.014v2zm2.014-1v-1.47h-2v1.47h2zm0-4.412v-1.471h-2v1.47h2zm-1-2.471h-1.014v2h1.014v-2zm-3.041 0h-2.027v2h2.027v-2zm-4.054 0h-2.028v2h2.028v-2zm-4.055 0h-2.027v2h2.027v-2zm-4.054 0h-1.014v2h1.014v-2zm-.014 1v-.987h-2v.987h2zm0-2.961v-1.975h-2v1.975h2zm0-3.949v-.987h-2v.987h2zm-1 .013h1.123v-2h-1.123v2zm3.369 0H147v-2h-2.246v2zm4.491 0h2.246v-2h-2.246v2zm4.492 0h2.246v-2h-2.246v2zm4.492 0h1.123v-2h-1.123v2zm2.123-1v-1.47h-2v1.47h2zm0-4.412V2.603h-2v1.47h2zm-1-2.471h-.937v2h.937v-2zm-2.811 0h-1.874v2h1.874v-2zm-3.748 0h-1.874v2h1.874v-2zm-3.748 0h-1.874v2h1.874v-2zm-3.748 0h-1.873v2h1.873v-2zm-3.747 0h-1.874v2h1.874v-2zm-3.748 0h-1.874v2h1.874v-2zm-3.748 0h-.937v2h.937v-2zm36.977 1v-.5h-.5v.5h.5zm8.268 0h.5v-.5h-.5v.5zm0 13.568h-.5v.5h.5v-.5zm3.763-.848l.255.43.011-.007-.266-.423zm3.127-3.392l-.411-.285-.003.004.414.281zm6.466-9.328v-.5h-.262l-.149.215.411.285zm9.275 0l.406.292.568-.792h-.974v.5zm-7.42 10.335l-.407-.292-.001.002.408.29zm-3.127 3.657l.331.375.001-.001-.332-.374zm-3.445 2.014l-.18-.467-.32.124v.343h.5zm0 .106h-.5v.394l.383.092.117-.486zm4.399 2.279l-.343.364.006.005.337-.369zm3.498 4.77l-.44.238.44-.238zM201.93 37v.5h.84l-.401-.738-.439.238zm-9.275 0l-.438.243.143.257h.295V37zm-5.618-10.123l-.438.242.438-.242zm-2.173-3.021l-.363.344.009.01.009.008.345-.362zm-2.279-1.431l.14-.48-.14.48zm-3.286-.371v-.5h-.5v.5h.5zm0 14.946v.5h.5V37h-.5zm-8.268 0h-.5v.5h.5V37zm-.5-34.397v.955h1v-.955h-1zm0 2.866V7.38h1V5.47h-1zm0 3.822v1.911h1v-1.91h-1zm0 3.822v1.911h1v-1.91h-1zm0 3.822v1.911h1v-1.91h-1zm0 3.822v1.91h1v-1.91h-1zm0 3.822v1.91h1v-1.91h-1zm0 3.822v1.91h1v-1.91h-1zm0 3.822v1.91h1v-1.91h-1zm0 3.822V37h1v-.956h-1zm.5 1.455h1.033v-1h-1.033v1zm3.1 0h2.067v-1h-2.067v1zm4.134 0h1.034v-1h-1.034v1zm1.534-.5v-.934h-1V37h1zm0-2.802v-1.869h-1v1.869h1zm0-3.737v-1.868h-1v1.868h1zm0-3.736v-1.869h-1v1.869h1zm0-3.737v-.934h-1v.934h1zm-.5-.434c.281 0 .55.006.807.017l.043-1a19.859 19.859 0 00-.85-.017v1zm2.391.178c.275.049.526.106.755.173l.28-.96a8.164 8.164 0 00-.861-.198l-.174.985zm.755.173c.195.057.385.128.57.212l.415-.91a5.277 5.277 0 00-.705-.262l-.28.96zm1.602.868c.155.13.306.272.454.427l.725-.688a6.592 6.592 0 00-.537-.506l-.642.767zm.472.445c.193.183.39.397.592.641l.771-.636a8.144 8.144 0 00-.674-.73l-.689.726zm1.622 2.112c.151.248.304.51.458.789l.875-.484a20.7 20.7 0 00-.48-.827l-.853.522zm.458.79l.469.843.874-.485-.468-.844-.875.486zm1.405 2.53l.936 1.688.875-.486-.937-1.687-.874.485zm1.873 3.375l.936 1.687.874-.485-.936-1.688-.874.486zm1.872 3.374l.468.844.875-.486-.468-.843-.875.485zm.906 1.101h1.159v-1h-1.159v1zm3.478 0h2.318v-1h-2.318v1zm4.637 0h1.16v-1h-1.16v1zm1.599-.738l-.508-.937-.879.477.508.936.879-.476zm-1.524-2.81l-1.016-1.872-.879.477 1.016 1.872.879-.476zm-2.031-3.745l-1.016-1.872-.879.476 1.016 1.873.879-.477zm-2.032-3.745l-.508-.936-.879.476.508.937.879-.477zm-.508-.936a29.05 29.05 0 00-.754-1.31l-.853.522c.244.398.487.82.728 1.264l.879-.476zm-2.528-3.788c-.352-.411-.71-.783-1.073-1.113l-.673.738c.329.3.658.642.986 1.026l.76-.65zm-1.067-1.108a9.131 9.131 0 00-1.029-.834l-.572.82c.325.227.63.474.916.742l.685-.728zm-3.372-2.03a12.056 12.056 0 00-1.253-.371l-.233.972c.4.096.783.21 1.148.341l.338-.941zm-.869.115v-.026h-1v.026h1zm0-.08v-.026h-1v.026h1zm-.321.44c.331-.127.649-.262.956-.405l-.425-.906c-.284.133-.58.26-.89.378l.359.934zm2.768-1.45a9.87 9.87 0 00.829-.655l-.663-.75a8.52 8.52 0 01-.744.588l.578.817zm.83-.656c.292-.26.59-.55.893-.872l-.727-.687c-.286.303-.563.574-.831.811l.665.748zm2.477-2.757c.238-.311.48-.64.725-.984l-.815-.58c-.239.337-.474.656-.704.957l.794.607zm.724-.982l.618-.862-.812-.583-.619.861.813.584zm1.855-2.584l1.236-1.723-.812-.583-1.237 1.723.813.583zm2.473-3.445l1.237-1.723-.813-.583-1.236 1.723.812.583zm2.473-3.445l.619-.861-.813-.584-.618.862.812.583zm.213-1.653h-1.16v1h1.16v-1zm-3.479 0h-2.318v1h2.318v-1zm-4.637 0h-1.159v1h1.159v-1zm-1.57.215l-.539.777.822.57.538-.777-.821-.57zm-1.617 2.332l-1.078 1.555.822.57 1.078-1.555-.822-.57zm-2.155 3.11l-1.078 1.554.822.57 1.078-1.555-.822-.57zm-2.156 3.109l-.538.777.821.57.539-.777-.822-.57zm-.541.78c-.225.33-.445.638-.661.924l.797.604c.227-.3.458-.622.691-.965l-.827-.562zm-2.138 2.594a5.9 5.9 0 01-.842.657l.533.846c.327-.206.655-.463.986-.768l-.677-.735zm-.83.65a4.665 4.665 0 01-.798.372l.339.94a5.54 5.54 0 00.968-.452l-.509-.86zm-2.577.74c-.295.025-.605.038-.931.038v1c.352 0 .691-.014 1.017-.042l-.086-.997zm-.431.538v-1.13h-1v1.13h1zm0-3.392v-2.261h-1v2.261h1zm0-4.523V5.995h-1v2.261h1zm0-4.522V2.603h-1v1.13h1zm-.5-1.631h-1.034v1h1.034v-1zm-3.101 0h-2.067v1h2.067v-1zm-4.134 0h-1.033v1h1.033v-1zm-1.033.5v-1h-1v1h1zm8.268 0h1v-1h-1v1zm0 13.568h-1v1h1v-1zm3.763-.848l.509.86.012-.007.011-.007-.532-.846zm3.127-3.392l-.822-.57-.005.007.827.563zm6.466-9.328v-1h-.524l-.298.43.822.57zm9.275 0l.812.583 1.137-1.583h-1.949v1zm-7.42 10.335l-.813-.583-.002.003.815.58zm-3.127 3.657l.662.749.002-.002-.664-.747zm-3.445 2.014l-.359-.933-.641.246v.687h1zm0 .106h-1v.788l.766.184.234-.972zm4.399 2.279l-.685.729.005.005.006.005.674-.739zm3.498 4.77l-.879.477.879-.477zM201.93 37v1h1.68l-.801-1.477-.879.477zm-9.275 0l-.875.485.286.515h.589v-1zm-5.618-10.123l-.876.484.001.001.875-.485zm-2.173-3.021l-.725.689.017.018.019.018.689-.725zm-2.279-1.431l.28-.96-.28.96zm-3.286-.371v-1h-1v1h1zm0 14.946v1h1v-1h-1zm-8.268 0h-1v1h1v-1zm-1-34.397v.955h2v-.955h-2zm0 2.866V7.38h2V5.47h-2zm0 3.822v1.911h2v-1.91h-2zm0 3.822v1.911h2v-1.91h-2zm0 3.822v1.911h2v-1.91h-2zm0 3.822v1.91h2v-1.91h-2zm0 3.822v1.91h2v-1.91h-2zm0 3.822v1.91h2v-1.91h-2zm0 3.822v1.91h2v-1.91h-2zm0 3.822V37h2v-.956h-2zm1 1.955h1.033v-2h-1.033v2zm3.1 0h2.067v-2h-2.067v2zm4.134 0h1.034v-2h-1.034v2zm2.034-1v-.934h-2V37h2zm0-2.802v-1.869h-2v1.869h2zm0-3.737v-1.868h-2v1.868h2zm0-3.736v-1.869h-2v1.869h2zm0-3.737v-.934h-2v.934h2zm-1 .066c.274 0 .536.005.786.016l.086-1.998a20.3 20.3 0 00-.872-.018v2zm2.304.17c.26.046.493.1.702.161l.56-1.92a8.613 8.613 0 00-.915-.21l-.347 1.97zm.702.161c.172.05.34.112.503.187l.829-1.82a5.773 5.773 0 00-.772-.287l-.56 1.92zm1.421.771c.14.117.277.247.413.389l1.45-1.378a7.054 7.054 0 00-.579-.544l-1.284 1.533zm.449.425c.176.167.359.365.55.596l1.543-1.271a8.615 8.615 0 00-.716-.775l-1.377 1.45zm1.54 2.01c.147.24.296.497.446.77l1.751-.968a22.514 22.514 0 00-.491-.846l-1.706 1.044zm.447.771l.468.844 1.749-.97-.468-.844-1.749.97zm1.405 2.531l.936 1.687 1.749-.97-.937-1.688-1.748.971zm1.872 3.374l.937 1.688 1.748-.971-.936-1.687-1.749.97zm1.873 3.375l.468.843 1.749-.97-.468-.844-1.749.97zM192.655 38h1.159v-2h-1.159v2zm3.478 0h2.318v-2h-2.318v2zm4.637 0h1.16v-2h-1.16v2zm2.039-1.477l-.508-.936-1.758.953.508.937 1.758-.954zm-1.524-2.809l-1.016-1.872-1.758.953 1.016 1.873 1.758-.954zm-2.032-3.745l-1.016-1.873-1.758.954 1.016 1.872 1.758-.953zm-2.032-3.745l-.507-.937-1.758.954.507.936 1.758-.953zm-.507-.937a29.657 29.657 0 00-.768-1.333L194.241 25c.239.39.477.804.715 1.242l1.758-.954zm-2.588-3.874a13.008 13.008 0 00-1.116-1.158l-1.347 1.478c.312.285.627.61.943.98l1.52-1.3zm-1.105-1.148a9.53 9.53 0 00-1.086-.88l-1.142 1.642c.305.212.591.444.859.696l1.369-1.458zm-3.545-2.135c-.42-.15-.855-.28-1.305-.387l-.467 1.944c.384.092.749.201 1.097.326l.675-1.883zm-.538.585v-.026h-2v.026h2zm0-.08v-.026h-2v.026h2zm-.641.907c.341-.13.67-.27.988-.42l-.849-1.81c-.273.127-.558.249-.857.364l.718 1.866zm2.877-1.51c.307-.216.597-.446.871-.688l-1.325-1.498a8.343 8.343 0 01-.701.554l1.155 1.633zm.873-.69a14.9 14.9 0 00.925-.902l-1.455-1.373c-.277.294-.544.554-.799.78l1.329 1.495zm2.543-2.826c.241-.317.486-.65.734-.998l-1.629-1.16a34.45 34.45 0 01-.695.944l1.59 1.214zm.732-.995l.618-.861-1.624-1.167-.619.862 1.625 1.166zm1.855-2.584l1.237-1.722-1.625-1.166-1.237 1.722 1.625 1.166zm2.473-3.445l1.237-1.722-1.625-1.166-1.236 1.722 1.624 1.166zm2.474-3.445l.618-.86-1.625-1.167-.618.861 1.625 1.166zm-.194-2.444h-1.16v2h1.16v-2zm-3.479 0h-2.318v2h2.318v-2zm-4.637 0h-1.159v2h1.159v-2zm-1.981.43l-.539.778 1.644 1.139.538-.777-1.643-1.14zm-1.617 2.332l-1.077 1.555 1.643 1.14 1.078-1.555-1.644-1.14zm-2.155 3.11l-1.078 1.554 1.644 1.14 1.078-1.555-1.644-1.14zm-2.155 3.109l-.539.777 1.643 1.14.539-.778-1.643-1.139zm-.544.784c-.221.324-.436.625-.647.903l1.595 1.207c.233-.307.468-.636.705-.984l-1.653-1.126zm-2.064 2.507a5.422 5.422 0 01-.769.602l1.065 1.692a7.304 7.304 0 001.059-.823l-1.355-1.471zm-.746.588a4.187 4.187 0 01-.712.332l.678 1.881a6.142 6.142 0 001.053-.493l-1.019-1.72zm-2.365.671c-.28.025-.576.037-.888.037v2c.365 0 .719-.014 1.061-.044l-.173-1.993zm.112 1.037v-1.13h-2v1.13h2zm0-3.392v-2.261h-2v2.261h2zm0-4.523V5.995h-2v2.261h2zm0-4.522V2.603h-2v1.13h2zm-1-2.131h-1.034v2h1.034v-2zm-3.101 0h-2.067v2h2.067v-2zm-4.134 0h-1.033v2h1.033v-2zm47.211 6.883h.5v-.5h-.5v.5zm-10.6 0h-.5v.5h.5v-.5zm0-5.883v-.5h-.5v.5h.5zm29.415 0h.5v-.5h-.5v.5zm0 5.883v.5h.5v-.5h-.5zm-10.547 0v-.5h-.5v.5h.5zm0 28.514v.5h.5V37h-.5zm-8.268 0h-.5v.5h.5V37zm0-29.014h-.883v1h.883v-1zm-2.65 0h-1.767v1h1.767v-1zm-3.533 0h-1.767v1h1.767v-1zm-3.534 0h-.883v1h.883v-1zm-.383.5v-1.47h-1v1.47h1zm0-4.412V2.603h-1v1.47h1zm-.5-.971h1.051v-1h-1.051v1zm3.152 0h2.101v-1h-2.101v1zm4.202 0h2.101v-1h-2.101v1zm4.202 0h2.101v-1h-2.101v1zm4.202 0h2.101v-1h-2.101v1zm4.202 0h2.101v-1h-2.101v1zm4.202 0h2.101v-1h-2.101v1zm4.203 0h1.05v-1h-1.05v1zm.55-.5v1.47h1v-1.47h-1zm0 4.412v1.471h1v-1.47h-1zm.5.971h-.879v1h.879v-1zm-2.637 0h-1.758v1h1.758v-1zm-3.515 0h-1.758v1h1.758v-1zm-3.516 0h-.879v1h.879v-1zm-1.379.5v1.018h1V8.486h-1zm0 3.055v2.037h1V11.54h-1zm0 4.073v2.037h1v-2.037h-1zm0 4.074v2.037h1v-2.037h-1zm0 4.073v2.037h1v-2.037h-1zm0 4.074v2.037h1v-2.037h-1zm0 4.073v2.037h1v-2.037h-1zm0 4.074V37h1v-1.018h-1zm.5.518h-1.033v1h1.033v-1zm-3.1 0h-2.067v1h2.067v-1zm-4.134 0h-1.034v1h1.034v-1zm-.534.5v-1.018h-1V37h1zm0-3.055v-2.037h-1v2.037h1zm0-4.073v-2.037h-1v2.037h1zm0-4.074v-2.037h-1v2.037h1zm0-4.073v-2.037h-1v2.037h1zm0-4.074v-2.037h-1v2.037h1zm0-4.073V11.54h-1v2.037h1zm0-4.074V8.486h-1v1.018h1zm-.5-1.018h1v-1h-1v1zm-10.6 0h-1v1h1v-1zm0-5.883v-1h-1v1h1zm29.415 0h1v-1h-1v1zm0 5.883v1h1v-1h-1zm-10.547 0v-1h-1v1h1zm0 28.514v1h1v-1h-1zm-8.268 0h-1v1h1v-1zm0-29.514h-.883v2h.883v-2zm-2.65 0h-1.767v2h1.767v-2zm-3.533 0h-1.767v2h1.767v-2zm-3.534 0h-.883v2h.883v-2zm.117 1v-1.47h-2v1.47h2zm0-4.412V2.603h-2v1.47h2zm-1-.471h1.051v-2h-1.051v2zm3.152 0h2.101v-2h-2.101v2zm4.202 0h2.101v-2h-2.101v2zm4.202 0h2.101v-2h-2.101v2zm4.202 0h2.101v-2h-2.101v2zm4.202 0h2.101v-2h-2.101v2zm4.202 0h2.101v-2h-2.101v2zm4.203 0h1.05v-2h-1.05v2zm.05-1v1.47h2v-1.47h-2zm0 4.412v1.471h2v-1.47h-2zm1 .471h-.879v2h.879v-2zm-2.637 0h-1.758v2h1.758v-2zm-3.515 0h-1.758v2h1.758v-2zm-3.516 0h-.879v2h.879v-2zm-1.879 1v1.018h2V8.486h-2zm0 3.055v2.037h2V11.54h-2zm0 4.073v2.037h2v-2.037h-2zm0 4.074v2.037h2v-2.037h-2zm0 4.073v2.037h2v-2.037h-2zm0 4.074v2.037h2v-2.037h-2zm0 4.073v2.037h2v-2.037h-2zm0 4.074V37h2v-1.018h-2zm1 .018h-1.033v2h1.033v-2zm-3.1 0h-2.067v2h2.067v-2zm-4.134 0h-1.034v2h1.034v-2zm-.034 1v-1.018h-2V37h2zm0-3.055v-2.037h-2v2.037h2zm0-4.073v-2.037h-2v2.037h2zm0-4.074v-2.037h-2v2.037h2zm0-4.073v-2.037h-2v2.037h2zm0-4.074v-2.037h-2v2.037h2zm0-4.073V11.54h-2v2.037h2zm0-4.074V8.486h-2v1.018h2zm28.136-6.901v-.5h-.5v.5h.5zm8.268 0h.5v-.5h-.5v.5zm0 23.532h-.5v1.73l.922-1.463-.422-.267zm14.84-23.532v-.5h-.276l-.147.233.423.267zm8.268 0h.5v-.5h-.5v.5zm0 34.397v.5h.5V37h-.5zm-8.268 0h-.5v.5h.5V37zm0-23.903h.5v-1.753l-.925 1.49.425.263zM256.679 37v.5h.278l.146-.236-.424-.264zm-8.268 0h-.5v.5h.5V37zm-.5-34.397v.955h1v-.955h-1zm0 2.866V7.38h1V5.47h-1zm0 3.822v1.911h1v-1.91h-1zm0 3.822v1.911h1v-1.91h-1zm0 3.822v1.911h1v-1.91h-1zm0 3.822v1.91h1v-1.91h-1zm0 3.822v1.91h1v-1.91h-1zm0 3.822v1.91h1v-1.91h-1zm0 3.822v1.91h1v-1.91h-1zm0 3.822V37h1v-.956h-1zm.5 1.455h1.033v-1h-1.033v1zm3.1 0h2.067v-1h-2.067v1zm4.134 0h1.034v-1h-1.034v1zm1.458-.236l.53-.854-.849-.527-.53.853.849.528zm1.59-2.561l1.06-1.708-.849-.527-1.06 1.707.849.528zm2.12-3.415l1.06-1.707-.849-.528-1.06 1.707.849.528zm2.12-3.415l1.06-1.707-.849-.527-1.06 1.707.849.527zm2.12-3.415l1.06-1.707-.849-.527-1.06 1.707.849.527zm2.12-3.414l1.06-1.707-.849-.528-1.06 1.707.849.528zm2.12-3.415l1.06-1.707-.849-.528-1.06 1.708.849.527zm2.12-3.415l.53-.853-.849-.528-.53.854.849.527zm-.394-1.117v.996h1v-.996h-1zm0 2.988v1.992h1v-1.992h-1zm0 3.984v1.992h1v-1.992h-1zm0 3.983v1.992h1v-1.992h-1zm0 3.984v1.992h1v-1.992h-1zm0 3.984v1.992h1V32.02h-1zm0 3.984V37h1v-.996h-1zm.5 1.496h1.033v-1h-1.033v1zm3.1 0h2.067v-1h-2.067v1zm4.134 0h1.034v-1h-1.034v1zm1.534-.5v-.956h-1V37h1zm0-2.866v-1.911h-1v1.91h1zm0-3.822V28.4h-1v1.91h1zm0-3.822v-1.911h-1v1.91h1zm0-3.822v-1.911h-1v1.91h1zm0-3.822v-1.91h-1v1.91h1zm0-3.822v-1.91h-1v1.91h1zm0-3.822v-1.91h-1v1.91h1zm0-3.822V5.47h-1v1.91h1zm0-3.822v-.955h-1v.955h1zm-.5-1.455h-1.034v1h1.034v-1zm-3.101 0h-2.067v1h2.067v-1zm-4.134 0h-1.033v1h1.033v-1zm-1.456.233l-.53.84.845.534.53-.84-.845-.534zm-1.59 2.522l-1.06 1.68.845.534 1.06-1.681-.845-.533zm-2.12 3.361l-1.06 1.681.845.534 1.06-1.681-.845-.534zm-2.12 3.362l-1.06 1.68.845.534 1.06-1.68-.845-.534zm-2.12 3.362l-1.06 1.68.845.534 1.06-1.68-.845-.534zm-2.12 3.361l-1.06 1.681.845.534 1.06-1.681-.845-.534zm-2.12 3.362l-1.06 1.681.845.533 1.06-1.68-.845-.534zm-2.12 3.362l-.53.84.845.534.53-.84-.845-.534zm.393 1.107v-.98h-1v.98h1zm0-2.942v-1.96h-1v1.96h1zm0-3.922v-1.96h-1v1.96h1zm0-3.921v-1.961h-1v1.96h1zm0-3.922V9.466h-1v1.962h1zm0-3.923v-1.96h-1v1.96h1zm0-3.921v-.981h-1v.98h1zm-.5-1.481h-1.034v1h1.034v-1zm-3.101 0h-2.067v1h2.067v-1zm-4.134 0h-1.033v1h1.033v-1zm-1.033.5v-1h-1v1h1zm8.268 0h1v-1h-1v1zm0 23.532h-1v3.46l1.845-2.927-.845-.533zm14.84-23.532v-1h-.552l-.294.467.846.533zm8.268 0h1v-1h-1v1zm0 34.397v1h1v-1h-1zm-8.268 0h-1v1h1v-1zm0-23.903h1V9.59l-1.85 2.98.85.527zM256.679 37v1h.556l.293-.472-.849-.528zm-8.268 0h-1v1h1v-1zm-1-34.397v.955h2v-.955h-2zm0 2.866V7.38h2V5.47h-2zm0 3.822v1.911h2v-1.91h-2zm0 3.822v1.911h2v-1.91h-2zm0 3.822v1.911h2v-1.91h-2zm0 3.822v1.91h2v-1.91h-2zm0 3.822v1.91h2v-1.91h-2zm0 3.822v1.91h2v-1.91h-2zm0 3.822v1.91h2v-1.91h-2zm0 3.822V37h2v-.956h-2zm1 1.955h1.033v-2h-1.033v2zm3.1 0h2.067v-2h-2.067v2zm4.134 0h1.034v-2h-1.034v2zm1.883-.472l.53-.854-1.699-1.055-.53.853 1.699 1.056zm1.59-2.562l1.06-1.707-1.699-1.055-1.06 1.707 1.699 1.055zm2.12-3.414l1.06-1.708-1.699-1.055-1.06 1.708 1.699 1.055zm2.12-3.415l1.06-1.707-1.699-1.055-1.06 1.707 1.699 1.055zm2.12-3.415l1.06-1.707-1.699-1.055-1.06 1.707 1.699 1.055zm2.12-3.414l1.06-1.708-1.699-1.055-1.06 1.708 1.699 1.055zm2.12-3.415l1.06-1.707-1.699-1.055-1.06 1.707 1.699 1.055zm2.12-3.415l.53-.854-1.699-1.055-.53.854 1.699 1.055zm-1.319-1.381v.996h2v-.996h-2zm0 2.988v1.992h2v-1.992h-2zm0 3.984v1.992h2v-1.992h-2zm0 3.983v1.992h2v-1.992h-2zm0 3.984v1.992h2v-1.992h-2zm0 3.984v1.992h2V32.02h-2zm0 3.984V37h2v-.996h-2zm1 1.996h1.033v-2h-1.033v2zm3.1 0h2.067v-2h-2.067v2zm4.134 0h1.034v-2h-1.034v2zm2.034-1v-.956h-2V37h2zm0-2.866v-1.911h-2v1.91h2zm0-3.822V28.4h-2v1.91h2zm0-3.822v-1.911h-2v1.91h2zm0-3.822v-1.911h-2v1.91h2zm0-3.822v-1.91h-2v1.91h2zm0-3.822v-1.91h-2v1.91h2zm0-3.822v-1.91h-2v1.91h2zm0-3.822V5.47h-2v1.91h2zm0-3.822v-.955h-2v.955h2zm-1-1.955h-1.034v2h1.034v-2zm-3.101 0h-2.067v2h2.067v-2zm-4.134 0h-1.033v2h1.033v-2zm-1.879.467l-.53.84 1.691 1.067.53-.84-1.691-1.067zm-1.59 2.52l-1.06 1.682 1.691 1.067 1.06-1.681-1.691-1.067zm-2.12 3.363l-1.06 1.68 1.691 1.067 1.06-1.68-1.691-1.067zm-2.12 3.361l-1.06 1.681 1.691 1.067 1.06-1.68-1.691-1.068zm-2.12 3.362l-1.06 1.68 1.691 1.068 1.06-1.681-1.691-1.067zm-2.12 3.362l-1.06 1.68 1.691 1.067 1.06-1.68-1.691-1.067zm-2.12 3.361l-1.06 1.681 1.691 1.067 1.06-1.68-1.691-1.068zm-2.12 3.362l-.53.84 1.691 1.067.53-.84-1.691-1.067zm1.316 1.374v-.98h-2v.98h2zm0-2.942v-1.96h-2v1.96h2zm0-3.922v-1.96h-2v1.96h2zm0-3.921v-1.961h-2v1.96h2zm0-3.922V9.466h-2v1.962h2zm0-3.923v-1.96h-2v1.96h2zm0-3.921v-.981h-2v.98h2zm-1-1.981h-1.034v2h1.034v-2zm-3.101 0h-2.067v2h2.067v-2zm-4.134 0h-1.033v2h1.033v-2zm43.35 1v-.5h-.5v.5h.5zm21.518.742l-.135.482.011.002.124-.484zm3.816 2.279l-.41.287.005.006.405-.293zm-.053 11.289l-.369-.338-.007.009.376.329zm-2.65 1.749l-.148-.477-.352.109v.368h.5zm0 .265h-.5v.45l.448.047.052-.497zm3.657 1.749l-.342.365.006.006.007.005.329-.376zm-1.643 14.575l-.232-.443.232.443zM292.794 37h-.5v.5h.5V37zm16.854-20.723l-.158-.474.158.474zm1.272-1.007l-.447-.224-.004.007-.003.007.454.21zm.053-5.618l-.447.224.004.008.004.007.439-.239zm-1.325-.901l-.134.482.007.002.127-.484zm-8.586-.265v-.5h-.5v.5h.5zm0 8.109h-.5v.5h.5v-.5zm10.176 13.833l-.238-.44.238.44zm.265-7.685l-.32.384.01.008.31-.392zm-10.441-.795v-.5h-.5v.5h.5zm0 9.169h-.5v.5h.5v-.5zm-8.768-28.514v.955h1v-.955h-1zm0 2.866V7.38h1V5.47h-1zm0 3.822v1.911h1v-1.91h-1zm0 3.822v1.911h1v-1.91h-1zm0 3.822v1.911h1v-1.91h-1zm0 3.822v1.91h1v-1.91h-1zm0 3.822v1.91h1v-1.91h-1zm0 3.822v1.91h1v-1.91h-1zm0 3.822v1.91h1v-1.91h-1zm0 3.822V37h1v-.956h-1zm.5 1.455h.894v-1h-.894v1zm2.683 0h1.789v-1h-1.789v1zm3.578 0h1.788v-1h-1.788v1zm3.577 0h1.789v-1h-1.789v1zm3.578 0h.894v-1h-.894v1zm.894 0c.301 0 .598-.002.889-.007l-.016-1c-.286.005-.577.007-.873.007v1zm2.671-.07a36.166 36.166 0 001.78-.142l-.105-.994c-.55.058-1.127.104-1.731.137l.056.999zm3.558-.385a20.087 20.087 0 001.766-.382l-.258-.966c-.518.138-1.078.26-1.677.362l.169.986zm3.499-.96c.294-.122.574-.252.839-.391l-.464-.886a9.324 9.324 0 01-.757.352l.382.925zm.839-.391a7.53 7.53 0 00.824-.5l-.573-.82c-.221.156-.46.3-.715.434l.464.886zm2.236-1.84a6.25 6.25 0 00.925-1.716l-.943-.334a5.227 5.227 0 01-.776 1.442l.794.608zm1.327-3.592a9.73 9.73 0 00.044-.947h-1c0 .295-.013.58-.039.853l.995.094zm.044-.947V27.99h-1v1.325h1zm0-3.975v-1.325h-1v1.325h1zm0-1.325c0-.369-.045-.73-.135-1.081l-.969.248c.069.269.104.546.104.833h1zm-1.134-2.972a6.84 6.84 0 00-.733-.743l-.658.752c.237.208.445.42.624.633l.767-.642zm-.721-.732a7.929 7.929 0 00-.851-.696l-.577.816c.253.18.502.382.745.61l.683-.73zm-2.848-1.668a6.381 6.381 0 00-1.098-.213l-.104.994c.316.034.625.094.925.18l.277-.96zm-.65.284v-.066h-1v.066h1zm0-.199v-.066h-1v.066h1zm-.352.412c.281-.088.553-.193.815-.318l-.428-.903a5.197 5.197 0 01-.683.265l.296.956zm2.268-1.282a6.96 6.96 0 00.61-.616l-.752-.658c-.167.19-.341.366-.522.526l.664.748zm.602-.607a5.92 5.92 0 00.515-.643l-.824-.567a4.951 4.951 0 01-.428.534l.737.676zm1.204-2.185a3.91 3.91 0 00.094-.856h-1c0 .217-.023.43-.07.64l.976.216zm.094-.856v-1.06h-1v1.06h1zm0-3.18V9.97h-1v1.06h1zm0-1.06c0-.413-.018-.808-.053-1.185l-.995.093c.032.343.048.707.048 1.092h1zm-.601-3.543a5.382 5.382 0 00-.607-1.096l-.81.586c.19.262.355.56.494.894l.923-.384zm-.602-1.09a4.935 4.935 0 00-.851-.928l-.648.762c.268.227.493.474.679.74l.82-.574zm-2.968-2.124c-.355-.133-.734-.25-1.135-.353l-.247.97c.37.094.714.2 1.033.32l.349-.937zm-1.123-.35a14.107 14.107 0 00-.962-.23l-.201.979c.319.066.617.137.893.214l.27-.962zm-2.893-.529a34.274 34.274 0 00-1.931-.158l-.055.999c.67.037 1.295.088 1.874.153l.112-.994zm-3.858-.224a61.739 61.739 0 00-.963-.007v1c.323 0 .639.002.947.007l.016-1zm-.963-.007h-1.162v1h1.162v-1zm-3.485 0h-2.323v1h2.323v-1zm-4.646 0h-2.323v1h2.323v-1zm-4.647 0h-1.161v1h1.161v-1zm12.778 13.992h-1.418v1h1.418v-1zm-4.253 0h-1.418v1h1.418v-1zm-.918.5v-1.014h-1v1.014h1zm0-3.04v-2.028h-1v2.027h1zm0-4.055V8.486h-1V9.5h1zm-.5-.514h1.378v-1h-1.378v1zm4.134 0h1.378v-1h-1.378v1zm1.378 0c.268 0 .521.003.76.01l.027-1c-.249-.007-.511-.01-.787-.01v1zm2.25.114c.28.037.509.082.69.133l.268-.964a6.128 6.128 0 00-.827-.16l-.131.991zm.697.135c.123.032.235.069.335.108l.369-.929a3.884 3.884 0 00-.45-.147l-.254.968zm.854.431a.816.816 0 01.151.21l.894-.448a1.84 1.84 0 00-.328-.46l-.717.698zm.159.225c.045.083.088.189.126.324l.963-.268a2.566 2.566 0 00-.211-.534l-.878.478zm.245 1.13c.008.135.012.28.012.433h1a8.47 8.47 0 00-.014-.49l-.998.057zm.012.433v.424h1v-.424h-1zm0 1.272v.424h1v-.424h-1zm0 .424c0 .18-.005.351-.015.512l.998.061a9.55 9.55 0 00.017-.573h-1zm-.162 1.48a2.33 2.33 0 01-.156.416l.894.448c.092-.183.166-.383.225-.598l-.963-.267zm-.163.43a1.08 1.08 0 01-.152.24l.765.643c.119-.141.218-.296.295-.463l-.908-.42zm-.651.611a2.66 2.66 0 01-.325.132l.316.948c.158-.052.308-.113.448-.182l-.439-.898zm-.325.132c-.174.057-.386.11-.64.152l.167.986a5.32 5.32 0 00.789-.19l-.316-.948zm-2.039.28c-.226.008-.465.012-.718.012v1c.264 0 .515-.004.754-.013l-.036-1zm-.506 14.534h-1.471v1h1.471v-1zm-4.412 0h-1.471v1h1.471v-1zm-.971.5v-1.146h-1v1.146h1zm0-3.438v-2.293h-1v2.293h1zm0-4.585v-1.146h-1v1.146h1zm-.5-.646h.874v-1h-.874v1zm2.623 0h1.749v-1h-1.749v1zm3.498 0h.875v-1h-.875v1zm.875 0c.308 0 .596.01.864.028l.07-.997c-.294-.02-.605-.031-.934-.031v1zm2.489.331c.274.101.482.22.636.348l.64-.768a3.136 3.136 0 00-.93-.518l-.346.938zm.646.356c.149.118.278.26.387.43l.841-.54a2.713 2.713 0 00-.608-.674l-.62.784zm.777 1.628c.026.21.04.437.04.683h1a6.7 6.7 0 00-.047-.807l-.993.124zm.04.683v.689h1v-.689h-1zm0 2.067v.689h1v-.689h-1zm0 .689c0 .207-.02.395-.058.564l.976.217c.056-.249.082-.51.082-.781h-1zm-.564 1.47a2.132 2.132 0 01-.446.316l.476.88c.243-.132.462-.287.654-.467l-.684-.73zm-.446.316a3.935 3.935 0 01-.909.334l.243.97a4.907 4.907 0 001.142-.424l-.476-.88zm-2.983.604c-.335.017-.692.025-1.072.025v1c.394 0 .768-.009 1.121-.026l-.049-.999zM292.794 2.603v-1h-1v1h1zm21.518.742l-.27.963.012.003.011.003.247-.969zm3.816 2.279l-.819.573.004.007.005.007.81-.587zm-.053 11.289l-.737-.676-.008.009-.008.009.753.658zm-2.65 1.749l-.297-.955-.703.218v.737h1zm0 .265h-1v.9l.895.095.105-.995zm3.657 1.749l-.683.73.012.012.012.01.659-.752zm-1.643 14.575l-.464-.886.464.886zM292.794 37h-1v1h1v-1zm16.854-20.723l-.316-.949.316.949zm1.272-1.007l-.895-.447-.007.014-.006.014.908.419zm.053-5.618l-.895.447.008.016.009.016.878-.479zm-1.325-.901l-.268.964.013.003.255-.967zm-8.586-.265v-1h-1v1h1zm0 8.109h-1v1h1v-1zm10.176 13.833l-.476-.88.476.88zm.265-7.685l-.64.768.01.009.01.008.62-.785zm-10.441-.795v-1h-1v1h1zm0 9.169h-1v1h1v-1zm-9.268-28.514v.955h2v-.955h-2zm0 2.866V7.38h2V5.47h-2zm0 3.822v1.911h2v-1.91h-2zm0 3.822v1.911h2v-1.91h-2zm0 3.822v1.911h2v-1.91h-2zm0 3.822v1.91h2v-1.91h-2zm0 3.822v1.91h2v-1.91h-2zm0 3.822v1.91h2v-1.91h-2zm0 3.822v1.91h2v-1.91h-2zm0 3.822V37h2v-.956h-2zm1 1.955h.894v-2h-.894v2zm2.683 0h1.789v-2h-1.789v2zm3.578 0h1.788v-2h-1.788v2zm3.577 0h1.789v-2h-1.789v2zm3.578 0h.894v-2h-.894v2zm.894 0c.304 0 .603-.002.898-.007l-.033-2a52.17 52.17 0 01-.865.007v2zm2.698-.071a36.471 36.471 0 001.805-.143l-.209-1.99a33.36 33.36 0 01-1.707.136l.111 1.997zm3.616-.392c.639-.11 1.242-.24 1.81-.39l-.515-1.933c-.503.134-1.047.252-1.634.352l.339 1.971zm3.605-.99c.307-.127.601-.264.88-.41l-.928-1.772a8.901 8.901 0 01-.716.334l.764 1.848zm.88-.41a8.18 8.18 0 00.879-.533l-1.146-1.639a6.112 6.112 0 01-.661.4l.928 1.772zm2.4-1.979a6.71 6.71 0 001-1.852l-1.885-.67a4.718 4.718 0 01-.702 1.305l1.587 1.217zm1.429-3.849c.031-.323.046-.655.046-.994h-2c0 .28-.013.549-.037.805l1.991.189zm.046-.994V27.99h-2v1.325h2zm0-3.975v-1.325h-2v1.325h2zm0-1.325c0-.41-.05-.812-.15-1.205l-1.938.496c.058.227.088.463.088.709h2zm-1.251-3.293a7.285 7.285 0 00-.787-.799l-1.317 1.506c.22.192.41.385.571.577l1.533-1.284zm-.762-.776a8.547 8.547 0 00-.904-.74l-1.155 1.634c.234.165.465.353.693.566l1.366-1.46zm-3.051-1.783a6.893 6.893 0 00-1.184-.23l-.21 1.989c.288.03.568.084.84.163l.554-1.922zm-.289.764v-.066h-2v.066h2zm0-.199v-.066h-2v.066h2zm-.704.89c.303-.095.597-.21.881-.344l-.856-1.807a4.683 4.683 0 01-.618.24l.593 1.91zm2.452-1.386a7.28 7.28 0 00.654-.66l-1.505-1.317a5.315 5.315 0 01-.476.481l1.327 1.496zm.639-.643a6.49 6.49 0 00.558-.697l-1.648-1.134a4.436 4.436 0 01-.384.48l1.474 1.35zm1.323-2.414a4.41 4.41 0 00.106-.965h-2c0 .18-.02.357-.058.53l1.952.435zm.106-.965v-1.06h-2v1.06h2zm0-3.18V9.97h-2v1.06h2zm0-1.06c0-.427-.018-.837-.055-1.231l-1.991.186c.03.326.046.674.046 1.045h2zm-.639-3.735c-.18-.432-.4-.833-.664-1.198l-1.62 1.174c.165.228.312.49.437.792l1.847-.768zm-.655-1.184a5.42 5.42 0 00-.936-1.023l-1.296 1.523c.237.202.434.418.594.646l1.638-1.146zm-3.202-2.307c-.374-.14-.769-.262-1.186-.368l-.494 1.938a9.5 9.5 0 01.981.304l.699-1.874zm-1.163-.362a14.705 14.705 0 00-.997-.24l-.402 1.96c.309.063.596.132.859.206l.54-1.926zm-2.972-.545a34.825 34.825 0 00-1.96-.16l-.11 1.997c.663.037 1.278.087 1.847.15l.223-1.987zm-3.907-.227a61.925 61.925 0 00-.97-.007v2c.321 0 .634.002.939.007l.031-2zm-.97-.007h-1.162v2h1.162v-2zm-3.485 0h-2.323v2h2.323v-2zm-4.646 0h-2.323v2h2.323v-2zm-4.647 0h-1.161v2h1.161v-2zm12.778 13.992h-1.418v2h1.418v-2zm-4.253 0h-1.418v2h1.418v-2zm-.418 1v-1.014h-2v1.014h2zm0-3.04v-2.028h-2v2.027h2zm0-4.055V8.486h-2V9.5h2zm-1-.014h1.378v-2h-1.378v2zm4.134 0h1.378v-2h-1.378v2zm1.378 0a25 25 0 01.746.01l.054-2c-.253-.007-.52-.01-.8-.01v2zm2.184.11c.265.035.469.076.622.119l.536-1.928a6.634 6.634 0 00-.895-.174l-.263 1.983zm.635.122a2.4 2.4 0 01.278.09l.739-1.858a4.35 4.35 0 00-.508-.166l-.509 1.934zm.624.297a.3.3 0 01.061.084l1.789-.894a2.304 2.304 0 00-.417-.585l-1.433 1.395zm.078.116c.023.042.053.112.083.218l1.927-.537a3.047 3.047 0 00-.254-.639l-1.756.958zm.185.92c.007.123.011.258.011.403h2c0-.18-.005-.353-.014-.52l-1.997.116zm.011.403v.424h2v-.424h-2zm0 1.272v.424h2v-.424h-2zm0 .424a8 8 0 01-.014.481l1.996.123c.012-.194.018-.396.018-.604h-2zm-.144 1.346a1.8 1.8 0 01-.122.327l1.789.894c.108-.216.194-.447.26-.687l-1.927-.534zm-.135.355a.568.568 0 01-.081.127l1.531 1.287c.147-.175.27-.368.366-.576l-1.816-.838zm-.417.371a2.153 2.153 0 01-.263.106l.632 1.898c.177-.06.348-.128.51-.208l-.879-1.796zm-.263.106c-.144.048-.33.094-.566.134l.334 1.972c.31-.052.6-.12.864-.208l-.632-1.898zm-1.899.255c-.219.008-.452.012-.7.012v2c.269 0 .526-.004.771-.013l-.071-1.999zm-.488 14.534h-1.471v2h1.471v-2zm-4.412 0h-1.471v2h1.471v-2zm-.471 1v-1.146h-2v1.146h2zm0-3.438v-2.293h-2v2.293h2zm0-4.585v-1.146h-2v1.146h2zm-1-.146h.874v-2h-.874v2zm2.623 0h1.749v-2h-1.749v2zm3.498 0h.875v-2h-.875v2zm.875 0c.298 0 .575.01.83.027l.138-1.995a13.974 13.974 0 00-.968-.032v2zm2.315.3c.234.086.389.18.49.263l1.28-1.536a3.627 3.627 0 00-1.077-.603l-.693 1.876zm.51.28c.104.082.196.182.276.307l1.683-1.08a3.254 3.254 0 00-.719-.797l-1.24 1.57zm.591 1.297c.023.186.036.393.036.621h2c0-.3-.017-.59-.051-.87l-1.985.249zm.036.621v.689h2v-.689h-2zm0 2.067v.689h2v-.689h-2zm0 .689c0 .175-.017.326-.046.455l1.953.434a4.09 4.09 0 00.093-.889h-2zm-.406 1.105a1.64 1.64 0 01-.342.242l.952 1.758c.277-.15.532-.329.758-.54l-1.368-1.46zm-.342.242c-.187.1-.445.2-.793.288l.486 1.94a5.394 5.394 0 001.259-.47l-.952-1.758zm-2.77.544c-.326.016-.675.024-1.047.024v2c.401 0 .783-.009 1.145-.027l-.098-1.997zm24.009-27.49v-.5h-.5v.5h.5zm8.268 0h.5v-.5h-.5v.5zm0 13.78h-.5v.5h.5v-.5zm14.628 0v.5h.5v-.5h-.5zm0-13.78v-.5h-.5v.5h.5zm8.268 0h.5v-.5h-.5v.5zm0 34.397v.5h.5V37h-.5zm-8.268 0h-.5v.5h.5V37zm0-14.734h.5v-.5h-.5v.5zm-14.628 0v-.5h-.5v.5h.5zm0 14.734v.5h.5V37h-.5zm-8.268 0h-.5v.5h.5V37zm-.5-34.397v.955h1v-.955h-1zm0 2.866V7.38h1V5.47h-1zm0 3.822v1.911h1v-1.91h-1zm0 3.822v1.911h1v-1.91h-1zm0 3.822v1.911h1v-1.91h-1zm0 3.822v1.91h1v-1.91h-1zm0 3.822v1.91h1v-1.91h-1zm0 3.822v1.91h1v-1.91h-1zm0 3.822v1.91h1v-1.91h-1zm0 3.822V37h1v-.956h-1zm.5 1.455h1.034v-1h-1.034v1zm3.101 0h2.067v-1h-2.067v1zm4.134 0h1.033v-1h-1.033v1zm1.533-.5v-.92h-1V37h1zm0-2.763v-1.841h-1v1.841h1zm0-3.683v-1.842h-1v1.842h1zm0-3.684v-1.84h-1v1.841h1zm0-3.683v-.921h-1v.92h1zm-.5-.421h.915v-1h-.915v1zm2.743 0h1.829v-1h-1.829v1zm3.657 0h1.829v-1h-1.829v1zm3.657 0h1.829v-1h-1.829v1zm3.657 0h.914v-1h-.914v1zm.414-.5v.92h1v-.92h-1zm0 2.763v1.841h1v-1.84h-1zm0 3.683v1.842h1v-1.842h-1zm0 3.684v1.841h1v-1.841h-1zm0 3.683V37h1v-.92h-1zm.5 1.421h1.034v-1h-1.034v1zm3.101 0h2.067v-1h-2.067v1zm4.134 0h1.033v-1h-1.033v1zm1.533-.5v-.956h-1V37h1zm0-2.866v-1.911h-1v1.91h1zm0-3.822V28.4h-1v1.91h1zm0-3.822v-1.911h-1v1.91h1zm0-3.822v-1.911h-1v1.91h1zm0-3.822v-1.91h-1v1.91h1zm0-3.822v-1.91h-1v1.91h1zm0-3.822v-1.91h-1v1.91h1zm0-3.822V5.47h-1v1.91h1zm0-3.822v-.955h-1v.955h1zm-.5-1.455h-1.033v1h1.033v-1zm-3.1 0h-2.067v1h2.067v-1zm-4.134 0h-1.034v1h1.034v-1zm-1.534.5v1.148h1V2.603h-1zm0 3.445v2.297h1V6.048h-1zm0 4.593v2.297h1v-2.297h-1zm0 4.594v1.148h1v-1.148h-1zm.5.648h-.914v1h.914v-1zm-2.742 0h-1.829v1h1.829v-1zm-3.657 0h-1.829v1h1.829v-1zm-3.657 0h-1.829v1h1.829v-1zm-3.657 0h-.915v1h.915v-1zm-.415.5v-1.148h-1v1.148h1zm0-3.445v-2.297h-1v2.297h1zm0-4.593V6.048h-1v2.297h1zm0-4.594V2.603h-1v1.148h1zm-.5-1.648h-1.033v1h1.033v-1zm-3.1 0h-2.067v1h2.067v-1zm-4.134 0h-1.034v1h1.034v-1zm-1.034.5v-1h-1v1h1zm8.268 0h1v-1h-1v1zm0 13.78h-1v1h1v-1zm14.628 0v1h1v-1h-1zm0-13.78v-1h-1v1h1zm8.268 0h1v-1h-1v1zm0 34.397v1h1v-1h-1zm-8.268 0h-1v1h1v-1zm0-14.734h1v-1h-1v1zm-14.628 0v-1h-1v1h1zm0 14.734v1h1v-1h-1zm-8.268 0h-1v1h1v-1zm-1-34.397v.955h2v-.955h-2zm0 2.866V7.38h2V5.47h-2zm0 3.822v1.911h2v-1.91h-2zm0 3.822v1.911h2v-1.91h-2zm0 3.822v1.911h2v-1.91h-2zm0 3.822v1.91h2v-1.91h-2zm0 3.822v1.91h2v-1.91h-2zm0 3.822v1.91h2v-1.91h-2zm0 3.822v1.91h2v-1.91h-2zm0 3.822V37h2v-.956h-2zm1 1.955h1.034v-2h-1.034v2zm3.101 0h2.067v-2h-2.067v2zm4.134 0h1.033v-2h-1.033v2zm2.033-1v-.92h-2V37h2zm0-2.763v-1.841h-2v1.841h2zm0-3.683v-1.842h-2v1.842h2zm0-3.684v-1.84h-2v1.841h2zm0-3.683v-.921h-2v.92h2zm-1 .079h.915v-2h-.915v2zm2.743 0h1.829v-2h-1.829v2zm3.657 0h1.829v-2h-1.829v2zm3.657 0h1.829v-2h-1.829v2zm3.657 0h.914v-2h-.914v2zm-.086-1v.92h2v-.92h-2zm0 2.763v1.841h2v-1.84h-2zm0 3.683v1.842h2v-1.842h-2zm0 3.684v1.841h2v-1.841h-2zm0 3.683V37h2v-.92h-2zm1 1.921h1.034v-2h-1.034v2zm3.101 0h2.067v-2h-2.067v2zm4.134 0h1.033v-2h-1.033v2zm2.033-1v-.956h-2V37h2zm0-2.866v-1.911h-2v1.91h2zm0-3.822V28.4h-2v1.91h2zm0-3.822v-1.911h-2v1.91h2zm0-3.822v-1.911h-2v1.91h2zm0-3.822v-1.91h-2v1.91h2zm0-3.822v-1.91h-2v1.91h2zm0-3.822v-1.91h-2v1.91h2zm0-3.822V5.47h-2v1.91h2zm0-3.822v-.955h-2v.955h2zm-1-1.955h-1.033v2h1.033v-2zm-3.1 0h-2.067v2h2.067v-2zm-4.134 0h-1.034v2h1.034v-2zm-2.034 1v1.148h2V2.603h-2zm0 3.445v2.297h2V6.048h-2zm0 4.593v2.297h2v-2.297h-2zm0 4.594v1.148h2v-1.148h-2zm1 .148h-.914v2h.914v-2zm-2.742 0h-1.829v2h1.829v-2zm-3.657 0h-1.829v2h1.829v-2zm-3.657 0h-1.829v2h1.829v-2zm-3.657 0h-.915v2h.915v-2zm.085 1v-1.148h-2v1.148h2zm0-3.445v-2.297h-2v2.297h2zm0-4.593V6.048h-2v2.297h2zm0-4.594V2.603h-2v1.148h2zm-1-2.148h-1.033v2h1.033v-2zm-3.1 0h-2.067v2h2.067v-2zm-4.134 0h-1.034v2h1.034v-2zm53.32 35.556l-.077.494h.002l.075-.494zm-4.982-1.272l.164-.472-.003-.001-.161.473zm-4.399-3.074l-.404.295.004.005.4-.3zm-.477-24.857l-.433-.25-.005.008.438.242zm2.968-3.18l-.267-.422-.005.002.272.42zm3.922-1.696l.142.48-.142-.48zm4.346-.848l.039.498h.004l-.043-.498zm8.162.053l-.058.497h.007l.007.001.044-.498zm4.028.742l.14-.48-.013-.004-.127.484zm4.187 1.802l.271-.42-.271.42zm2.756 2.968l-.432.252.002.004.43-.256zm-.371 24.698l-.401-.298-.005.006.406.292zm-4.134 3.127l-.186-.464.186.464zm-7.685-4.081l.045.498h.01l.01-.002-.065-.496zm2.491-.53l-.14-.48.14.48zm1.908-1.219l-.397-.304-.003.004.4.3zm-1.272-20.776l-.238.44.01.005.228-.445zm-12.19-.053l-.228-.445.228.445zm-1.272 20.829l-.397.304.004.006.005.005.388-.315zm2.014 1.219l.14-.48-.005-.002-.135.482zm2.438.53l-.068.495.013.002.012.001.043-.498zm2.862 5.489c-.446 0-.884-.007-1.313-.02l-.032.999c.44.014.889.021 1.345.021v-1zm-3.928-.198a29.313 29.313 0 01-1.297-.167l-.15.988c.437.067.884.125 1.34.173l.107-.994zm-1.295-.167a24.52 24.52 0 01-1.241-.227l-.204.98c.435.09.865.169 1.291.235l.154-.988zm-3.69-.858a33.194 33.194 0 01-1.205-.392l-.328.944c.418.145.832.28 1.242.405l.291-.957zm-1.208-.393a10.247 10.247 0 01-1.202-.493l-.438.9c.417.203.857.383 1.318.54l.322-.947zm-3.311-1.945a7.72 7.72 0 01-.849-.956l-.8.6c.29.387.61.747.958 1.08l.691-.724zm-.845-.951a7.315 7.315 0 01-.675-1.117l-.898.44c.217.444.472.867.766 1.267l.807-.59zm-1.411-3.626a10.319 10.319 0 01-.083-1.326h-1c0 .5.03.986.091 1.456l.992-.13zm-.083-1.326v-.94h-1v.94h1zm0-2.822v-1.882h-1v1.882h1zm0-3.763v-1.882h-1v1.882h1zm0-3.763v-1.882h-1v1.882h1zm0-3.763v-.941h-1v.94h1zm0-.941c0-.387.02-.763.06-1.129l-.994-.11c-.044.404-.066.817-.066 1.239h1zm.58-3.305a8 8 0 01.471-1.011l-.876-.484a9.107 9.107 0 00-.529 1.137l.934.358zm.466-1.002c.178-.309.368-.601.569-.877l-.808-.589a11.24 11.24 0 00-.627.964l.866.502zm1.976-2.396a8.18 8.18 0 01.831-.615l-.544-.84c-.325.21-.636.441-.932.691l.645.764zm.827-.613c.277-.176.575-.345.891-.507l-.456-.89c-.342.175-.665.36-.97.553l.535.844zm2.8-1.317c.319-.112.651-.22.996-.321l-.284-.96c-.36.107-.708.22-1.044.337l.332.944zm.996-.321c.356-.106.706-.201 1.049-.287l-.243-.97c-.358.09-.721.189-1.09.297l.284.96zm3.173-.71c.365-.052.722-.092 1.07-.12l-.078-.996c-.371.029-.749.071-1.134.126l.142.99zm1.074-.12c.317-.027.639-.05.967-.07l-.062-.999c-.335.02-.665.045-.991.073l.086.996zm2.907-.148c.32-.006.644-.009.972-.009v-1c-.334 0-.665.003-.991.01l.019 1zm.972-.009c.361 0 .712.004 1.052.01l.02-1c-.347-.006-.704-.01-1.072-.01v1zm3.145.109c.362.028.708.06 1.037.1l.116-.994a25.8 25.8 0 00-1.076-.103l-.077.997zm1.051.101c.319.028.65.067.991.116l.142-.99a19.36 19.36 0 00-1.045-.122l-.088.996zm2.965.487c.319.073.646.153.98.24l.254-.967c-.344-.09-.681-.173-1.011-.248l-.223.975zm.967.237c.371.108.726.221 1.066.339l.328-.945a23.322 23.322 0 00-1.114-.354l-.28.96zm3.108 1.198c.34.174.656.356.948.544l.542-.84a12.059 12.059 0 00-1.034-.594l-.456.89zm.948.544c.266.172.522.362.767.57l.648-.761a8.24 8.24 0 00-.873-.65l-.542.841zm2.065 1.985c.186.256.362.527.53.815l.864-.504a11.033 11.033 0 00-.584-.898l-.81.587zm.532.819c.194.325.362.668.504 1.03l.931-.366a8.18 8.18 0 00-.575-1.176l-.86.512zm1.037 3.285c.039.377.059.769.059 1.176h1c0-.44-.021-.866-.065-1.28l-.994.104zm.059 1.176v.94h1v-.94h-1zm0 2.822v1.882h1v-1.882h-1zm0 3.763v1.882h1v-1.882h-1zm0 3.763v1.882h1v-1.882h-1zm0 3.763v.941h1v-.94h-1zm0 .941c0 .43-.027.845-.081 1.243l.99.135c.061-.446.091-.905.091-1.378h-1zm-.794 3.588a7.128 7.128 0 01-.644 1.043l.802.596c.281-.377.526-.774.735-1.19l-.893-.45zm-.649 1.05a7.79 7.79 0 01-.796.942l.711.703c.327-.33.626-.684.897-1.062l-.812-.584zm-2.779 2.421c-.356.195-.734.373-1.135.533l.372.928c.435-.174.85-.368 1.243-.583l-.48-.878zm-1.135.533c-.275.11-.553.215-.835.316l.336.941c.294-.104.584-.214.871-.329l-.372-.928zm-2.538.854c-.569.157-1.149.297-1.74.418l.2.98a27.21 27.21 0 001.807-.434l-.267-.964zm-3.506.72c-.583.081-1.178.146-1.783.194l.079.996c.624-.05 1.238-.116 1.842-.2l-.138-.99zm-3.577.287a35.63 35.63 0 01-.899.011v1c.31 0 .619-.004.925-.012l-.026-1zm-.793-5.872c-.254 0-.499-.002-.736-.005l-.014 1c.242.003.492.005.75.005v-1zm-2.2-.053a23.108 23.108 0 01-.725-.051l-.086.996c.238.02.49.038.756.053l.055-.998zm-.7-.048a14.11 14.11 0 01-.596-.095l-.177.985c.215.038.427.072.637.1l.136-.99zm-1.779-.354c-.194-.05-.389-.103-.587-.161l-.28.96c.208.06.414.117.618.17l.249-.969zm-.592-.163a4.796 4.796 0 01-.513-.173l-.376.926c.197.08.403.15.619.21l.27-.963zm-1.409-.696a2.645 2.645 0 01-.352-.356l-.776.63c.145.18.308.344.488.493l.64-.767zm-.343-.345a2.705 2.705 0 01-.264-.423l-.894.449c.103.205.224.4.364.582l.794-.608zm-.553-1.395a4.033 4.033 0 01-.033-.527h-1c0 .225.014.444.041.657l.992-.13zm-.033-.527v-.944h-1v.944h1zm0-2.832v-1.888h-1v1.888h1zm0-3.776v-1.889h-1v1.889h1zm0-3.777v-1.888h-1v1.888h1zm0-3.776v-.944h-1v.944h1zm0-.944c0-.348.031-.665.091-.954l-.979-.202c-.076.363-.112.75-.112 1.156h1zm.937-2.53c.21-.197.459-.373.752-.523l-.456-.89a4.26 4.26 0 00-.983.687l.687.727zm.752-.523c.197-.101.416-.196.656-.283l-.339-.94c-.276.1-.534.21-.773.333l.456.89zm2.082-.658c.455-.086.953-.153 1.496-.201l-.089-.996c-.57.05-1.1.122-1.591.214l.184.983zm3.019-.285c.248-.006.504-.009.766-.009v-1c-.27 0-.534.003-.791.01l.025 1zm.766-.009c.263 0 .519.003.767.01l.027-1c-.258-.007-.523-.01-.794-.01v1zm2.292.098c.543.051 1.041.122 1.495.212l.194-.981a15.94 15.94 0 00-1.596-.226l-.093.995zm2.915.607c.239.09.455.19.65.295l.476-.88a6.42 6.42 0 00-.77-.35l-.356.935zm.66.3c.291.15.539.322.748.516l.681-.732a4.32 4.32 0 00-.973-.674l-.456.89zm1.597 2.062c.061.284.092.596.092.938h1c0-.403-.037-.786-.114-1.147l-.978.209zm.092.938v.944h1v-.944h-1zm0 2.832v1.888h1v-1.888h-1zm0 3.776v1.889h1v-1.889h-1zm0 3.777v1.888h1v-1.888h-1zm0 3.776v.944h1v-.944h-1zm0 .944c0 .185-.011.36-.033.527l.992.13a5.22 5.22 0 00.041-.657h-1zm-.322 1.5c-.074.149-.163.29-.264.422l.794.608c.14-.183.261-.377.364-.582l-.894-.449zm-.267.426a2.37 2.37 0 01-.322.35l.665.746a3.3 3.3 0 00.457-.496l-.8-.6zm-1.16.866a4.389 4.389 0 01-.488.173l.28.96c.209-.061.409-.131.598-.212l-.39-.92zm-.488.173c-.2.059-.4.113-.598.163l.246.97c.21-.054.421-.111.632-.173l-.28-.96zm-1.806.422a15.01 15.01 0 01-.61.092l.13.992c.216-.028.432-.061.65-.1l-.17-.984zm-.59.09c-.22.02-.457.037-.71.052l.056.998c.264-.015.512-.033.744-.054l-.09-.996zm-2.148.1a50.66 50.66 0 01-.722.004v1c.254 0 .5-.002.737-.005l-.015-1zm-6.128 6.016l-.154.988h.004l.15-.988zm-4.982-1.272l.328-.945-.006-.002-.322.947zm-4.399-3.074l-.807.59.007.01.8-.6zm-.477-24.857l-.865-.501-.005.009-.005.008.875.484zm2.968-3.18l-.535-.845-.008.005.543.84zm3.922-1.696l.283.959-.283-.959zm4.346-.848l.079.997h.006l-.085-.997zm8.162.053l-.117.993.015.002.014.001.088-.996zm4.028.742l.28-.96-.013-.004-.014-.003-.253.967zm4.187 1.802l.542-.84-.542.84zm2.756 2.968l-.864.504.005.007.859-.511zm-.371 24.698l-.802-.597-.005.007-.005.007.812.583zm-4.134 3.127l-.371-.928.371.928zm-7.685-4.081l.091.996.019-.002.019-.002-.129-.992zm2.491-.53l-.28-.96.28.96zm1.908-1.219l-.794-.608-.006.008.8.6zm-1.272-20.776l-.475.88.009.005.009.005.457-.89zm-12.19-.053l-.457-.89.457.89zm-1.272 20.829l-.794.607.009.012.009.012.776-.631zm2.014 1.219l.28-.96-.01-.003-.27.963zm2.438.53l-.135.99.024.004.024.002.087-.996zm2.862 4.989c-.441 0-.873-.007-1.298-.02l-.063 1.999c.446.014.9.021 1.361.021v-2zm-3.875-.195c-.435-.047-.86-.102-1.275-.165l-.3 1.978c.444.067.899.126 1.362.175l.213-1.988zm-1.271-.164c-.4-.062-.805-.136-1.215-.222l-.41 1.958a26.2 26.2 0 001.317.24l.308-1.976zm-3.621-.842a32.4 32.4 0 01-1.187-.387l-.656 1.89c.424.147.844.284 1.261.41l.582-1.913zm-1.193-.389a9.773 9.773 0 01-1.144-.468l-.877 1.797c.438.214.897.402 1.377.565l.644-1.894zm-3.127-1.832a7.244 7.244 0 01-.794-.895l-1.6 1.2c.307.41.645.79 1.013 1.141l1.381-1.446zm-.787-.886a6.865 6.865 0 01-.628-1.04l-1.797.878c.23.47.5.919.811 1.343l1.614-1.18zm-1.318-3.394a9.823 9.823 0 01-.079-1.262h-2c0 .52.032 1.027.096 1.52l1.983-.258zm-.079-1.262v-.94h-2v.94h2zm0-2.822v-1.882h-2v1.882h2zm0-3.763v-1.882h-2v1.882h2zm0-3.763v-1.882h-2v1.882h2zm0-3.763v-.941h-2v.94h2zm0-.941c0-.37.019-.728.057-1.074l-1.988-.219c-.046.423-.069.854-.069 1.293h2zm.546-3.125a7.65 7.65 0 01.442-.95l-1.75-.967c-.214.387-.4.787-.559 1.2l1.867.717zm.432-.932c.171-.294.351-.571.541-.832l-1.616-1.178c-.233.32-.451.656-.655 1.008l1.73 1.002zm1.866-2.264a7.74 7.74 0 01.78-.577l-1.086-1.68a9.653 9.653 0 00-.983.729l1.289 1.528zm.772-.572c.264-.168.548-.33.852-.485l-.912-1.78a12.82 12.82 0 00-1.01.575l1.07 1.69zm2.699-1.269c.31-.109.634-.213.971-.313l-.566-1.918c-.368.109-.724.224-1.069.345l.664 1.886zm.971-.313c.35-.103.693-.197 1.03-.281l-.486-1.94c-.365.091-.735.192-1.11.303l.566 1.918zm3.103-.694c.355-.05.701-.09 1.039-.116l-.158-1.994c-.381.03-.77.074-1.165.13l.284 1.98zm1.045-.117c.314-.027.632-.05.955-.07l-.123-1.996c-.338.02-.673.045-1.002.074l.17 1.992zm2.874-.146c.317-.006.638-.009.963-.009v-2c-.337 0-.671.003-1 .01l.037 1.999zm.963-.009c.358 0 .705.003 1.041.01l.042-2a52.4 52.4 0 00-1.083-.01v2zm3.106.107c.357.028.696.06 1.017.098l.234-1.986c-.35-.041-.716-.077-1.097-.106l-.154 1.994zm1.046.101c.31.027.631.065.964.113l.284-1.98a19.899 19.899 0 00-1.072-.125l-.176 1.992zm2.898.477c.313.071.635.15.965.236l.506-1.934a33.597 33.597 0 00-1.026-.252l-.445 1.95zm.938.229c.363.106.71.216 1.042.331l.655-1.89a23.803 23.803 0 00-1.137-.361l-.56 1.92zm3.02 1.163c.327.168.628.34.905.52l1.084-1.681a12.462 12.462 0 00-1.077-.619l-.912 1.78zm.905.52c.248.16.485.336.714.53l1.296-1.523a8.752 8.752 0 00-.926-.688l-1.084 1.68zm1.932 1.858c.175.241.342.499.502.773l1.728-1.008a11.337 11.337 0 00-.612-.94L405.5 7.528zm.507.78c.179.302.335.62.468.959l1.861-.733a8.622 8.622 0 00-.61-1.248l-1.719 1.022zm.969 3.082c.037.359.056.733.056 1.124h2c0-.456-.022-.9-.067-1.332l-1.989.208zm.056 1.124v.94h2v-.94h-2zm0 2.822v1.882h2v-1.882h-2zm0 3.763v1.882h2v-1.882h-2zm0 3.763v1.882h2v-1.882h-2zm0 3.763v.941h2v-.94h-2zm0 .941c0 .41-.026.8-.077 1.175l1.982.27c.064-.47.095-.951.095-1.445h-2zm-.741 3.363a6.68 6.68 0 01-.598.97l1.605 1.193c.297-.4.558-.822.78-1.265l-1.787-.898zm-.608.983a7.334 7.334 0 01-.746.883l1.422 1.406a9.31 9.31 0 00.948-1.123l-1.624-1.166zm-2.613 2.275a9.966 9.966 0 01-1.08.507l.742 1.856c.454-.18.886-.384 1.298-.609l-.96-1.754zm-1.08.507c-.27.107-.542.21-.818.309l.673 1.883c.299-.106.595-.218.887-.336l-.742-1.856zm-2.487.836a25.73 25.73 0 01-1.706.41l.401 1.96a27.698 27.698 0 001.839-.442l-.534-1.928zm-3.44.707a29.59 29.59 0 01-1.754.19l.158 1.994c.633-.05 1.257-.118 1.871-.203l-.275-1.981zm-3.521.282c-.293.007-.589.011-.887.011v2c.315 0 .627-.004.937-.012l-.05-2zm-.781-5.872c-.252 0-.494-.002-.728-.005l-.029 2c.244.003.497.005.757.005v-2zm-2.172-.052a23.238 23.238 0 01-.709-.05l-.174 1.992c.245.022.502.04.773.054l.11-1.997zm-.661-.045c-.189-.026-.38-.056-.575-.09L388 32.427c.221.04.44.074.658.104l.27-1.982zm-1.722-.342c-.188-.049-.378-.1-.571-.157l-.56 1.92c.213.062.424.12.633.174l.498-1.937zm-.581-.16a4.319 4.319 0 01-.461-.156l-.751 1.854c.215.087.44.163.672.228l.54-1.926zm-1.223-.6a2.077 2.077 0 01-.285-.287l-1.552 1.262c.166.204.352.391.555.561l1.282-1.535zm-.267-.263a2.137 2.137 0 01-.214-.344l-1.788.897c.117.233.255.454.414.661l1.588-1.214zm-.454-1.156a3.537 3.537 0 01-.029-.463h-2c0 .245.015.486.046.721l1.983-.258zm-.029-.463v-.944h-2v.944h2zm0-2.832v-1.888h-2v1.888h2zm0-3.776v-1.889h-2v1.889h2zm0-3.777v-1.888h-2v1.888h2zm0-3.776v-.944h-2v.944h2zm0-.944c0-.318.028-.601.08-.852l-1.958-.405c-.083.4-.122.82-.122 1.257h2zm.78-2.166c.173-.163.383-.311.638-.442l-.914-1.78c-.407.21-.775.464-1.097.768l1.373 1.454zm.638-.442c.176-.09.374-.177.597-.257l-.679-1.881a7.073 7.073 0 00-.832.358l.914 1.78zm1.946-.612a15.08 15.08 0 011.447-.194l-.177-1.992a17.24 17.24 0 00-1.639.22l.369 1.966zm2.938-.276c.244-.006.496-.009.754-.009v-2c-.274 0-.542.003-.804.01l.05 2zm.754-.009c.259 0 .51.003.754.01l.053-2c-.263-.007-.532-.01-.807-.01v2zm2.245.096c.529.05 1.01.118 1.444.204l.389-1.962a16.446 16.446 0 00-1.646-.233l-.187 1.991zm2.784.576c.22.084.417.174.591.268l.951-1.76a6.986 6.986 0 00-.83-.377l-.712 1.87zm.609.278c.255.13.464.277.636.438l1.362-1.465a4.815 4.815 0 00-1.084-.753l-.914 1.78zm1.337 1.72c.052.247.081.524.081.835h2a6 6 0 00-.125-1.25l-1.956.416zm.081.835v.944h2v-.944h-2zm0 2.832v1.888h2v-1.888h-2zm0 3.776v1.889h2v-1.889h-2zm0 3.777v1.888h2v-1.888h-2zm0 3.776v.944h2v-.944h-2zm0 .944c0 .165-.01.319-.029.463l1.984.258c.03-.235.045-.476.045-.721h-2zm-.268 1.275a2.21 2.21 0 01-.215.343l1.588 1.215a4.12 4.12 0 00.414-.66l-1.787-.898zm-.221.351c-.074.098-.158.19-.255.276l1.33 1.494a3.88 3.88 0 00.525-.57l-1.6-1.2zm-.956.706a3.887 3.887 0 01-.432.153l.56 1.92c.226-.066.445-.143.654-.232l-.782-1.84zm-.432.153c-.195.057-.388.11-.581.158l.492 1.939c.216-.055.432-.114.649-.177l-.56-1.92zm-1.752.409c-.197.034-.394.064-.588.09l.258 1.983c.223-.03.447-.064.672-.102l-.342-1.971zm-.549.085c-.214.02-.445.036-.694.05l.113 1.997c.269-.015.523-.033.762-.055l-.181-1.992zm-2.11.097c-.229.003-.467.005-.715.005v2c.257 0 .505-.002.744-.005l-.029-2z" fill="#77C2F9" fill-opacity=".9"/></svg>