<svg width="270" height="26" fill="none" xmlns="http://www.w3.org/2000/svg"><path d="M.05 24.58h-.5v.408l.4.082.1-.49zm0-4.13l.113-.487-.613-.142v.629h.5zm12.425-5.18h.5v-.5h-.5v.5zm-9.345 0h-.5v.5h.5v-.5zm0-3.885v-.5h-.5v.5h.5zm9.345 0v.5h.5v-.5h-.5zm-.77-4.62l-.317.387.317-.387zm-1.82-.77l-.082.493.008.002h.008l.066-.495zM.4 6.835h-.5v.63l.613-.143L.4 6.835zm0-4.095l-.092-.491-.408.076v.415h.5zm12.985-.315l-.112.487.008.002.104-.489zm3.325 1.96l-.392.31.008.01.384-.32zm.525 17.255l.434.248.003-.005-.437-.243zm-1.82 1.96l.27.42.004-.002-.274-.418zm-3.605 1.365l.089.492.008-.001-.097-.491zM7.4 24.85l-.456-.003-.013 1c.156.002.313.003.469.003v-1zm-1.367-.028a34.219 34.219 0 01-.911-.05l-.067.999c.313.02.625.038.937.05l.04-.999zm-1.82-.122a35.4 35.4 0 01-.908-.096l-.118.992c.311.038.622.07.933.1l.092-.996zM2.4 24.484c-.3-.043-.6-.09-.902-.141l-.167.986c.31.052.618.1.926.145l.143-.99zM.599 24.18c-.15-.03-.299-.059-.448-.09l-.202.98c.154.031.307.062.46.091l.19-.981zm-.049.4v-.516h-1v.516h1zm0-1.549V22h-1v1.032h1zm0-2.065v-.516h-1v.516h1zm-.613-.029c.19.044.378.087.563.128l.218-.976c-.182-.04-.367-.082-.555-.126l-.226.974zm1.694.37c.392.08.771.153 1.137.218l.176-.984a48.602 48.602 0 01-1.114-.214l-.2.98zm2.283.407c.406.06.792.109 1.158.148l.105-.995a25.58 25.58 0 01-1.116-.143l-.147.99zm2.332.238c.205.008.404.013.594.013v-1c-.175 0-.358-.004-.55-.013l-.044 1zm.594.013c.157 0 .311-.002.462-.005l-.023-1c-.143.003-.29.005-.439.005v1zm1.388-.052c.326-.026.637-.062.93-.108l-.155-.988a11.59 11.59 0 01-.855.1l.08.996zm1.864-.305c.333-.09.642-.2.923-.329l-.416-.909c-.225.103-.48.194-.77.273l.263.965zm1.797-.864a2.95 2.95 0 00.7-.816l-.869-.497a1.952 1.952 0 01-.465.54l.634.773zm1.048-1.836a3.53 3.53 0 00.038-.523h-1a2.6 2.6 0 01-.027.374l.99.149zm.038-.523v-.39h-1v.39h1zm0-1.168v-.779h-1v.779h1zm0-1.558v-.389h-1v.39h1zm-.5-.889h-.467v1h.467v-1zm-1.402 0h-.934v1h.934v-1zm-1.869 0H8.27v1h.934v-1zm-1.869 0h-.934v1h.934v-1zm-1.869 0h-.934v1h.934v-1zm-1.869 0H3.13v1h.467v-1zm.033.5v-.486h-1v.486h1zm0-1.457v-.971h-1v.971h1zm0-1.942v-.486h-1v.486h1zm-.5.014h.467v-1H3.13v1zm1.402 0h.934v-1h-.934v1zm1.869 0h.934v-1h-.934v1zm1.869 0h.934v-1H8.27v1zm1.869 0h.934v-1h-.934v1zm1.869 0h.467v-1h-.467v1zm.967-.5v-.665h-1v.665h1zm0-1.995v-.665h-1v.665h1zm0-.665c0-.213-.013-.417-.041-.613l-.99.14c.02.144.031.302.031.473h1zm-.49-1.84a2.372 2.372 0 00-.463-.507l-.634.774c.105.085.194.183.27.294l.827-.56zm-.463-.507a3.96 3.96 0 00-.468-.33l-.515.857c.12.073.238.155.35.247l.633-.774zm-1.519-.77a4.512 4.512 0 00-.552-.109l-.132.992c.15.02.292.048.43.084l.254-.967zm-.536-.106a11.056 11.056 0 00-.692-.092l-.102.995c.227.023.437.051.63.083l.164-.986zm-2.062-.174a26.915 26.915 0 00-.68-.008v1c.227 0 .445.003.655.008l.025-1zm-.68-.008c-.191 0-.39.004-.597.013l.043 1a11.9 11.9 0 01.554-.013v-1zm-1.776.102a28.09 28.09 0 00-1.164.148l.145.989a27.09 27.09 0 011.122-.142l-.103-.995zm-2.316.336a48.7 48.7 0 00-1.144.218l.2.98c.387-.078.76-.15 1.12-.214l-.176-.984zm-2.28.461l-.566.129.226.974.558-.127-.218-.976zm.047.616v-.512h-1v.512h1zm0-1.536V4.276h-1v1.023h1zm0-2.047V2.74h-1v.512h1zm-.408-.02c.152-.029.302-.057.452-.083l-.177-.985-.459.085.184.982zm1.357-.24c.307-.05.61-.097.906-.14l-.146-.99c-.302.045-.61.093-.923.144l.163.987zm1.813-.266c.31-.04.613-.075.909-.106l-.106-.995a44.73 44.73 0 00-.93.11l.127.991zm1.818-.192c.31-.025.614-.046.909-.061l-.053-.999c-.305.016-.617.037-.937.063l.081.997zm1.817-.095c.154-.003.304-.004.453-.004v-1c-.155 0-.312.002-.472.005l.02 1zm.453-.004c.158 0 .314 0 .468.002l.01-1a48.38 48.38 0 00-.478-.002v1zm1.4.022c.322.01.632.024.931.042l.06-.999a35.69 35.69 0 00-.958-.043l-.032 1zm1.856.111c.32.03.627.064.918.104l.134-.991a22.926 22.926 0 00-.96-.108l-.092.995zm1.823.25c.153.03.301.062.444.094l.224-.974c-.155-.036-.315-.07-.48-.101l-.188.982zm.452.096c.153.033.301.07.446.11L14 2.062a7.88 7.88 0 00-.51-.126l-.21.978zm1.297.423c.278.128.536.277.775.444l.575-.817c-.29-.204-.6-.382-.932-.535l-.418.908zm1.448 1.022c.102.107.199.219.292.336l.784-.62a5.68 5.68 0 00-.354-.407l-.722.691zm.3.346c.107.128.206.267.298.416l.851-.525a4.579 4.579 0 00-.38-.531l-.77.64zm.735 1.37c.107.319.191.67.253 1.055l.987-.159a7.684 7.684 0 00-.291-1.212l-.949.316zm.362 2.159c.008.181.012.368.012.561h1c0-.207-.004-.409-.013-.606l-1 .045zm.012.561v.499h1v-.499h-1zm0 1.496v.998h1v-.998h-1zm0 1.995v.998h1v-.998h-1zm0 1.995v.998h1v-.998h-1zm0 1.995v.998h1v-.998h-1zm0 1.995v.499h1v-.499h-1zm0 .499c0 .238-.012.468-.037.691l.994.109c.029-.261.043-.528.043-.8h-1zm-.351 2.015a4.805 4.805 0 01-.286.612l.874.486c.132-.238.247-.485.345-.74l-.933-.358zm-.283.607a5.722 5.722 0 01-.336.521l.81.588a6.7 6.7 0 00.394-.613l-.868-.496zm-1.169 1.423c-.155.132-.32.254-.491.367l.548.836c.206-.135.403-.282.59-.44l-.647-.763zm-.487.364a7.447 7.447 0 01-.39.234l.488.873a8.38 8.38 0 00.442-.265l-.54-.842zm-1.211.634a9.905 9.905 0 01-.866.318l.302.954c.33-.105.649-.222.953-.35l-.39-.922zm-1.763.563c-.15.035-.302.068-.457.098l.192.982c.167-.033.33-.068.491-.106l-.226-.974zm-.45.097c-.177.032-.355.062-.534.09l.154.988c.187-.03.373-.06.558-.094l-.178-.984zm-1.61.232c-.358.04-.718.07-1.082.094l.064.998c.378-.025.754-.057 1.126-.098l-.108-.994zm-2.167.14c-.18.003-.362.005-.544.005v1c.189 0 .377-.002.564-.006l-.02-1zM.05 24.58h-1v.815l.799.165.201-.98zm0-4.13l.226-.974-1.226-.285v1.259h1zm12.425-5.18h1v-1h-1v1zm-9.345 0h-1v1h1v-1zm0-3.885v-1h-1v1h1zm9.345 0v1h1v-1h-1zm-.77-4.62l-.633.774.633-.774zm-1.82-.77l-.164.986.016.003.016.002.132-.991zM.4 6.835h-1v1.259l1.226-.285L.4 6.835zm0-4.095l-.184-.983-.816.153v.83h1zm12.985-.315l-.224.975.008.001.008.002.208-.978zm3.325 1.96l-.784.62.008.01.008.01.768-.64zm.525 17.255l.868.496.006-.01-.874-.486zm-1.82 1.96l.54.841.009-.005-.549-.836zm-3.605 1.365l.178.984.007-.001.008-.002-.193-.981zM7.4 24.35c-.15 0-.3-.001-.449-.003l-.027 2c.159.002.317.003.476.003v-2zm-1.347-.027a34.087 34.087 0 01-.898-.049l-.134 1.996c.318.02.635.038.95.05l.082-1.997zm-1.794-.12a39.41 39.41 0 01-.895-.096l-.236 1.986c.315.038.63.071.945.1l.186-1.99zm-1.788-.214a31.536 31.536 0 01-.89-.14l-.334 1.973c.314.053.626.102.939.147l.285-1.98zm-1.777-.3A40.15 40.15 0 01.25 23.6l-.4 1.96.465.092.38-1.963zm.356.891v-.516h-2v.516h2zm0-1.549V22h-2v1.032h2zm0-2.065v-.516h-2v.516h2zm-1.226.458l.567.13.436-1.953-.551-.125-.452 1.948zm1.707.373c.396.08.78.154 1.149.22l.352-1.968c-.352-.063-.72-.134-1.102-.212l-.4 1.96zm2.31.411c.412.061.805.111 1.178.15l.21-1.988a26.693 26.693 0 01-1.095-.14l-.293 1.978zm2.383.243c.212.01.418.014.616.014v-2c-.167 0-.343-.004-.529-.012l-.087 1.998zm.616.014c.16 0 .319-.002.474-.005l-.047-2c-.139.003-.281.005-.427.005v2zm1.428-.053c.337-.027.66-.065.969-.114l-.312-1.975c-.252.04-.524.072-.817.095l.16 1.994zm1.955-.322a6.48 6.48 0 001-.356l-.832-1.818a4.5 4.5 0 01-.692.244l.524 1.93zm1.982-.959c.33-.27.607-.588.817-.954l-1.735-.995c-.08.14-.192.274-.349.402l1.267 1.547zm1.227-2.15a4.05 4.05 0 00.043-.596h-2c0 .11-.008.21-.021.3l1.978.297zm.043-.596v-.39h-2v.39h2zm0-1.168v-.779h-2v.779h2zm0-1.558v-.389h-2v.39h2zm-1-1.389h-.467v2h.467v-2zm-1.402 0h-.934v2h.934v-2zm-1.869 0H8.27v2h.934v-2zm-1.869 0h-.934v2h.934v-2zm-1.869 0h-.934v2h.934v-2zm-1.869 0H3.13v2h.467v-2zm.533 1v-.486h-2v.486h2zm0-1.457v-.971h-2v.971h2zm0-1.942v-.486h-2v.486h2zm-1 .514h.467v-2H3.13v2zm1.402 0h.934v-2h-.934v2zm1.869 0h.934v-2h-.934v2zm1.869 0h.934v-2H8.27v2zm1.869 0h.934v-2h-.934v2zm1.869 0h.467v-2h-.467v2zm1.467-1v-.665h-2v.665h2zm0-1.995v-.665h-2v.665h2zm0-.665c0-.234-.015-.462-.046-.683l-1.98.28c.017.119.026.252.026.403h2zm-.576-2.12a2.871 2.871 0 00-.56-.614l-1.267 1.548a.87.87 0 01.171.188L12.9 6.605zm-.56-.614a4.46 4.46 0 00-.527-.371L10.78 7.334c.1.06.197.128.29.205l1.267-1.548zm-1.709-.867a5.017 5.017 0 00-.613-.12l-.264 1.982c.13.018.252.042.369.072l.508-1.934zm-.58-.115c-.229-.038-.47-.07-.725-.096l-.203 1.99c.219.022.418.048.599.078l.328-1.972zm-2.133-.18a27.39 27.39 0 00-.692-.009v2c.223 0 .437.003.642.008l.05-2zm-.692-.009c-.2 0-.405.005-.618.014l.085 1.998c.187-.008.365-.012.533-.012v-2zm-1.828.105c-.376.04-.771.09-1.184.15l.29 1.979c.389-.057.756-.104 1.101-.14l-.207-1.989zm-2.352.34c-.372.067-.757.14-1.155.221l.398 1.96c.384-.078.753-.148 1.108-.212l-.351-1.969zm-2.301.466l-.57.13.452 1.948.554-.126-.436-1.952zM1.4 6.835v-.512h-2v.512h2zm0-1.536V4.276h-2v1.023h2zm0-2.047V2.74h-2v.512h2zm-.816.471c.15-.028.3-.056.448-.082L.678 1.672a67.64 67.64 0 00-.462.085l.368 1.966zm1.346-.237c.305-.05.604-.097.898-.14l-.292-1.979c-.305.045-.615.094-.93.146l.324 1.973zm1.796-.264c.306-.039.605-.074.898-.105l-.212-1.989c-.307.033-.62.07-.94.11l.254 1.984zm1.795-.19c.306-.025.604-.045.894-.06L6.31.975c-.31.016-.628.037-.952.064l.163 1.993zm1.786-.093c.15-.003.298-.004.443-.004v-2c-.158 0-.319.002-.482.005l.039 2zm.443-.004c.156 0 .31 0 .463.002l.02-2L7.75.935v2zm1.385.021c.316.01.622.024.916.042L10.17 1A36.1 36.1 0 009.2.957l-.065 2zm1.825.11c.314.03.613.063.897.101l.268-1.982c-.314-.042-.64-.079-.98-.11l-.185 1.991zm1.774.244c.148.028.29.058.427.09l.448-1.95a14.39 14.39 0 00-.497-.104l-.378 1.964zm.443.093c.142.03.28.065.413.102l.546-1.923a8.366 8.366 0 00-.543-.135l-.416 1.956zm1.191.388c.252.116.484.25.697.4l1.151-1.636a6.427 6.427 0 00-1.01-.58l-.838 1.816zm1.297.914c.09.095.178.195.26.3l1.57-1.24a6.175 6.175 0 00-.386-.443l-1.444 1.383zm.277.32c.09.11.176.228.256.358l1.703-1.049a5.076 5.076 0 00-.423-.59l-1.536 1.281zm.645 1.208c.096.29.175.615.233.976l1.975-.317a8.184 8.184 0 00-.31-1.291l-1.898.632zm.336 2.023c.008.174.012.354.012.539h2a14.3 14.3 0 00-.014-.628l-1.998.089zm.012.539v.499h2v-.499h-2zm0 1.496v.998h2v-.998h-2zm0 1.995v.998h2v-.998h-2zm0 1.995v.998h2v-.998h-2zm0 1.995v.998h2v-.998h-2zm0 1.995v.499h2v-.499h-2zm0 .499c0 .22-.011.433-.034.637l1.989.217c.03-.28.045-.564.045-.854h-2zm-.318 1.835c-.073.19-.158.373-.256.55l1.748.97c.144-.258.269-.526.375-.802l-1.867-.718zm-.25.539a5.2 5.2 0 01-.307.476l1.619 1.174c.152-.21.293-.429.424-.658l-1.736-.992zm-1.058 1.29c-.14.118-.287.228-.443.33l1.098 1.672c.223-.146.435-.305.638-.477l-1.293-1.526zm-.435.325a6.823 6.823 0 01-.363.217l.977 1.746c.16-.09.316-.183.468-.28l-1.082-1.683zm-1.135.594c-.26.11-.533.21-.822.302l.604 1.906c.345-.11.677-.231.997-.366l-.779-1.842zm-1.682.536c-.143.034-.29.065-.44.095l.386 1.962c.172-.034.341-.07.508-.109l-.454-1.948zm-.425.092c-.173.031-.347.06-.523.088l.309 1.976c.19-.03.38-.062.57-.096l-.355-1.968zm-1.575.227c-.35.038-.703.069-1.06.091l.128 1.997a25.53 25.53 0 001.149-.1l-.217-1.988zm-2.124.137c-.177.003-.355.005-.533.005v2c.192 0 .384-.002.575-.006l-.042-2zm26.476-1.97h.5v-.5h-.5v.5zM28.004 20.8l-.264.425.004.002.26-.427zm.035-15.54l.261.426.004-.002-.265-.424zm6.37-1.645v.5h.5v-.5h-.5zm0-2.905v-.5h-.5v.5h.5zm5.39 0h.5v-.5h-.5v.5zm0 2.905h-.5v.5h.5v-.5zm6.335 1.645l-.266.424.003.001.263-.425zm1.4 14.21l.38.325-.38-.325zm-3.325 2.205l.163.473.005-.002-.168-.471zm-4.41.7v-.5h-.5v.5h.5zm0 2.975v.5h.5v-.5h-.5zm-5.39 0h-.5v.5h.5v-.5zm.07-18.13h.5v-.5h-.5v.5zm-2.59.77l-.302-.398.302.398zm0 10.08l-.284.412.008.005.008.005.268-.422zm2.59.665v.5h.5v-.5h-.5zm5.25.035h-.5v.5h.5v-.5zm2.555-.7l-.278-.416-.006.004.284.412zm.035-10.08l.302-.398-.302.398zm-2.59-.77v-.5h-.5v.5h.5zm-5.32 14.655c-.183 0-.363-.003-.541-.008l-.032 1c.19.005.38.008.573.008v-1zm-1.617-.078c-.366-.037-.72-.087-1.063-.15l-.18.984c.371.068.752.121 1.142.16l.1-.994zm-2.103-.388a10.245 10.245 0 01-1.007-.336l-.366.931c.356.14.724.262 1.104.368l.269-.963zm-1.967-.776a8.823 8.823 0 01-.458-.26l-.52.854c.166.101.336.198.51.29l.468-.884zm-.454-.258a5.9 5.9 0 01-.37-.25l-.592.807c.14.102.284.2.434.293l.528-.85zm-1.034-.828a4.518 4.518 0 01-.54-.684l-.841.54c.19.298.41.576.659.835l.722-.691zm-.938-1.46a5.094 5.094 0 01-.252-.845l-.979.205c.074.352.174.688.302 1.01l.93-.37zm-.369-1.733a7.501 7.501 0 01-.013-.454h-1c0 .175.005.346.015.515l.998-.061zm-.013-.454v-.46h-1v.46h1zm0-1.383v-.921h-1v.921h1zm0-1.843v-.921h-1v.921h1zm0-1.843v-.461h-1v.46h1zm0-.461c0-.162.004-.32.013-.474l-.998-.057a9.26 9.26 0 00-.015.531h1zm.127-1.403c.062-.314.145-.61.249-.887l-.936-.351a6.535 6.535 0 00-.294 1.046l.981.192zm.646-1.703c.158-.256.34-.496.548-.718l-.73-.683a5.584 5.584 0 00-.67.878l.852.523zm1.23-1.32c.122-.09.25-.176.383-.258l-.523-.852a6.553 6.553 0 00-.451.303l.591.806zm.387-.26c.149-.093.3-.182.455-.267l-.482-.877c-.171.094-.339.193-.504.296l.531.848zm1.406-.723c.322-.132.655-.25.999-.351l-.283-.96c-.377.112-.743.24-1.097.387l.381.924zm2.032-.603c.342-.066.694-.12 1.057-.159l-.108-.994c-.39.042-.77.1-1.14.172l.191.981zm2.128-.234c.177-.006.357-.009.539-.009v-1c-.193 0-.384.003-.573.01l.034.999zm1.039-.509v-.726h-1v.726h1zm0-2.179V.71h-1v.726h1zm-.5-.226h.449v-1h-.45v1zm1.347 0h.899v-1h-.899v1zm1.797 0h.898v-1h-.898v1zm1.797 0h.449v-1h-.45v1zm-.051-.5v.726h1V.71h-1zm0 2.179v.726h1v-.726h-1zm.5 1.226c.18 0 .36.003.536.01l.034-1a16.7 16.7 0 00-.57-.01v1zm1.6.085c.36.04.71.093 1.051.16l.193-.982a13.5 13.5 0 00-1.134-.172l-.11.994zm2.078.412c.342.102.673.219.993.351l.383-.923a11.145 11.145 0 00-1.09-.387l-.286.959zm1.94.806c.153.084.303.173.451.266l.531-.848c-.164-.102-.33-.2-.5-.294l-.483.876zm.454.267c.134.083.262.17.385.26l.592-.806a6.814 6.814 0 00-.451-.304l-.526.85zm1.072.865c.211.222.396.461.557.717l.847-.532a5.619 5.619 0 00-.677-.872l-.727.687zm.963 1.531c.107.277.193.572.256.885l.98-.197a6.431 6.431 0 00-.303-1.048l-.933.36zm.374 1.815c.01.154.014.312.014.474h1c0-.18-.005-.359-.016-.533l-.998.059zm.014.474v.46h1v-.46h-1zm0 1.383v.921h1v-.921h-1zm0 1.843v.921h1v-.921h-1zm0 1.843v.461h1v-.46h-1zm0 .461c0 .152-.006.301-.016.447l.997.073c.013-.171.019-.344.019-.52h-1zm-.151 1.32c-.07.289-.165.563-.284.825l.91.414c.146-.32.26-.654.345-1.002l-.971-.237zm-.719 1.58a4.832 4.832 0 01-.27.345l.76.65c.115-.135.224-.274.325-.416l-.815-.58zm-.27.345a6.4 6.4 0 01-.317.343l.71.705a6.9 6.9 0 00.366-.398l-.759-.65zm-1.023.958c-.246.185-.51.357-.79.514l.49.872c.318-.178.618-.374.901-.587l-.601-.799zm-1.644.929c-.145.06-.293.118-.446.172l.336.942c.168-.06.333-.124.495-.19l-.385-.924zm-.441.17c-.169.058-.34.113-.512.163l.281.96c.188-.055.373-.114.557-.177l-.326-.946zm-1.557.42c-.348.068-.704.123-1.067.164l.112.994c.39-.044.773-.103 1.149-.178l-.194-.98zm-2.147.243c-.18.007-.36.01-.543.01v1c.194 0 .387-.003.578-.01l-.035-1zm-1.043.51v.744h1v-.744h-1zm0 2.231v.744h1v-.744h-1zm.5.244h-.45v1h.45v-1zm-1.348 0h-.898v1h.898v-1zm-1.796 0h-.899v1h.899v-1zm-1.797 0h-.45v1h.45v-1zm.05.5v-.744h-1v.744h1zm0-2.231v-.744h-1v.744h1zm-.43-16.399c-.256 0-.505.014-.745.043l.12.993c.197-.024.406-.036.626-.036v-1zm-2.22.462a3.953 3.953 0 00-.671.41l.604.796c.155-.117.322-.22.501-.306l-.435-.9zm-.671.41c-.19.143-.359.3-.508.472l.756.654c.1-.115.218-.225.356-.33l-.604-.796zm-1.141 1.736a3.256 3.256 0 00-.072.692h1c0-.172.017-.332.049-.48l-.977-.212zm-.072.692v.513h1v-.513h-1zm0 1.54v1.027h1V11.56h-1zm0 2.053v1.027h1v-1.027h-1zm0 2.054v.513h1v-.513h-1zm0 .513c0 .23.024.454.074.669l.974-.227a1.935 1.935 0 01-.048-.442h-1zm.725 1.872c.15.157.319.3.506.43l.568-.824a2.175 2.175 0 01-.347-.293l-.727.687zm.522.44c.214.136.44.252.68.35l.38-.924a3.377 3.377 0 01-.525-.27l-.535.844zm2.128.706c.236.025.48.037.73.037v-1a5.66 5.66 0 01-.624-.032l-.105.995zm1.23-.463v-.48h-1v.48h1zm0-1.44v-.959h-1v.96h1zm0-1.919v-.96h-1v.96h1zm0-1.919v-.96h-1v.96h1zm0-1.919v-.96h-1v.96h1zm0-1.919v-.96h-1v.96h1zm0-1.92V7.22h-1v.48h1zm5.25 11.071v-.481h-1v.481h1zm0-1.444v-.962h-1v.962h1zm0-1.925v-.962h-1v.962h1zm0-1.925v-.962h-1v.962h1zm0-1.925v-.962h-1v.962h1zm0-1.925v-.962h-1v.962h1zm0-1.925V7.22h-1v.481h1zm-.5.019c.22 0 .428.012.626.036l.12-.993a6.225 6.225 0 00-.746-.043v1zm1.786.362c.18.087.347.189.502.306l.604-.796a3.953 3.953 0 00-.67-.41l-.436.9zm.502.306c.138.105.256.215.355.33l.756-.654a3.331 3.331 0 00-.507-.472l-.604.796zm.768 1.152c.032.148.049.308.049.48h1c0-.238-.024-.469-.072-.692l-.977.212zm.049.48v.513h1v-.513h-1zm0 1.54v1.027h1V11.56h-1zm0 2.053v1.027h1v-1.027h-1zm0 2.054v.513h1v-.513h-1zm0 .513c0 .16-.018.307-.05.442l.971.237a2.86 2.86 0 00.079-.679h-1zm-.47 1.182c-.1.101-.218.199-.358.292l.555.832c.19-.127.364-.268.516-.423l-.713-.701zm-.364.296a3.074 3.074 0 01-.505.282l.404.914c.236-.104.46-.228.669-.372L42 17.658zm-1.655.58c-.195.02-.4.032-.616.032v1c.25 0 .492-.013.727-.04l-.111-.993zm-5.936 4.137h1v-1h-1v1zM28.004 20.8l-.528.85.008.004.52-.854zm.035-15.54l.523.852.008-.005-.531-.847zm6.37-1.645v1h1v-1h-1zm0-2.905v-1h-1v1h1zm5.39 0h1v-1h-1v1zm0 2.905h-1v1h1v-1zm6.335 1.645l-.531.847.005.003.526-.85zm1.4 14.21l.759.65-.76-.65zm-3.325 2.205l.326.945.01-.003-.336-.942zm-4.41.7v-1h-1v1h1zm0 2.975v1h1v-1h-1zm-5.39 0h-1v1h1v-1zm.07-18.13h1v-1h-1v1zm-2.59.77l-.605-.797.605.797zm0 10.08l-.568.823.016.011.017.01.535-.844zm2.59.665v1h1v-1h-1zm5.25.035h-1v1h1v-1zm2.555-.7l-.555-.832-.007.004-.006.005.568.823zm.035-10.08l.604-.797-.604.797zm-2.59-.77v-1h-1v1h1zm-5.32 14.155c-.178 0-.353-.003-.526-.008l-.062 1.999c.194.006.39.009.588.009v-2zm-1.567-.076a12.999 12.999 0 01-1.023-.144l-.36 1.968c.385.07.779.125 1.182.166l.2-1.99zm-2.02-.372a9.864 9.864 0 01-.957-.32l-.732 1.862c.373.147.757.275 1.153.385l.537-1.927zm-1.866-.736a8.35 8.35 0 01-.433-.245l-1.039 1.708c.175.107.354.208.536.305l.936-1.768zm-.424-.24a5.348 5.348 0 01-.339-.229l-1.182 1.613c.15.11.304.214.465.314l1.056-1.698zm-.937-.75a4.02 4.02 0 01-.48-.609l-1.683 1.082c.209.325.449.628.719.91l1.444-1.383zm-.834-1.299a4.59 4.59 0 01-.227-.762l-1.958.409c.079.378.187.743.326 1.093l1.859-.74zm-.334-1.579a6.927 6.927 0 01-.013-.423h-2c0 .184.005.366.016.546l1.997-.123zm-.013-.423v-.46h-2v.46h2zm0-1.383v-.921h-2v.921h2zm0-1.843v-.921h-2v.921h2zm0-1.843v-.461h-2v.46h2zm0-.461c0-.153.004-.301.012-.446L24.43 9.81a9.82 9.82 0 00-.016.56h2zm.118-1.308a5.03 5.03 0 01.226-.806l-1.872-.703a7.03 7.03 0 00-.317 1.126l1.963.383zm.581-1.536c.14-.228.303-.44.488-.638l-1.462-1.366a6.002 6.002 0 00-.73.957l1.704 1.047zm1.1-1.18c.11-.08.226-.159.349-.234l-1.046-1.704a6.86 6.86 0 00-.486.326l1.183 1.612zm.357-.239c.14-.088.283-.172.43-.252l-.964-1.753c-.18.099-.355.202-.528.31l1.062 1.695zm1.33-.683a9.68 9.68 0 01.95-.335l-.566-1.918c-.393.116-.775.25-1.146.404l.763 1.849zm1.938-.575c.327-.064.666-.115 1.015-.153l-.216-1.988c-.403.044-.797.103-1.182.178l.383 1.963zm2.049-.225c.171-.006.345-.009.522-.009v-2c-.199 0-.395.003-.59.01l.068 1.999zm1.522-1.009v-.726h-2v.726h2zm0-2.179V.71h-2v.726h2zm-1 .274h.449v-2h-.45v2zm1.347 0h.899v-2h-.899v2zm1.797 0h.898v-2h-.898v2zm1.797 0h.449v-2h-.45v2zm-.551-1v.726h2V.71h-2zm0 2.179v.726h2v-.726h-2zm1 1.726c.175 0 .348.003.519.009l.068-2c-.194-.006-.39-.009-.587-.009v2zm1.546.082c.347.038.683.089 1.009.153l.386-1.962a14.004 14.004 0 00-1.177-.18l-.218 1.989zm1.99.394c.325.097.64.209.944.334l.765-1.847a11.556 11.556 0 00-1.14-.404l-.57 1.917zm1.84.765c.145.08.288.164.428.251l1.062-1.694a11.474 11.474 0 00-.525-.31l-.965 1.753zm.433.255a5.4 5.4 0 01.352.237l1.184-1.612a7.34 7.34 0 00-.484-.326l-1.052 1.7zm.972.782c.188.2.354.412.496.64l1.694-1.064a6.12 6.12 0 00-.736-.95L46.58 6.893zm.86 1.368c.096.25.174.517.232.804l1.96-.395a6.929 6.929 0 00-.326-1.13l-1.866.721zm.34 1.664c.01.144.014.293.014.445h2c0-.19-.006-.378-.017-.563l-1.996.118zm.014.445v.46h2v-.46h-2zm0 1.383v.921h2v-.921h-2zm0 1.843v.921h2v-.921h-2zm0 1.843v.461h2v-.46h-2zm0 .461c0 .14-.005.277-.015.41l1.995.146c.013-.183.02-.369.02-.556h-2zm-.137 1.202a4.153 4.153 0 01-.253.736l1.82.828c.159-.35.284-.713.376-1.09l-1.943-.474zm-.64 1.408a4.296 4.296 0 01-.242.31l1.518 1.3c.125-.145.243-.296.354-.452l-1.63-1.158zm-.242.31a5.87 5.87 0 01-.293.316l1.42 1.41a7.86 7.86 0 00.391-.425l-1.518-1.302zm-.945.884c-.228.171-.472.33-.733.477l.98 1.744c.336-.19.655-.397.956-.623l-1.203-1.598zm-1.535.866a8.578 8.578 0 01-.422.163l.671 1.884c.177-.063.35-.13.52-.2l-.769-1.847zm-.412.16c-.162.055-.325.107-.49.156l.563 1.919c.195-.057.388-.119.579-.185l-.652-1.89zm-1.492.4c-.334.067-.675.12-1.025.16l.224 1.987c.403-.046.8-.107 1.19-.184l-.389-1.962zm-2.067.236c-.173.006-.348.009-.525.009v2c.2 0 .399-.003.596-.01l-.071-2zm-1.525 1.009v.744h2v-.744h-2zm0 2.231v.744h2v-.744h-2zm1-.256h-.45v2h.45v-2zm-1.348 0h-.898v2h.898v-2zm-1.796 0h-.899v2h.899v-2zm-1.797 0h-.45v2h.45v-2zm.55 1v-.744h-2v.744h2zm0-2.231v-.744h-2v.744h2zm-.93-16.899c-.275 0-.544.015-.805.047l.24 1.985a4.73 4.73 0 01.566-.032v-2zm-2.438.511a4.55 4.55 0 00-.756.462l1.21 1.594c.127-.097.266-.182.416-.255l-.87-1.8zm-.756.462c-.214.163-.41.343-.582.543l1.511 1.31a1.83 1.83 0 01.28-.26l-1.209-1.593zm-1.327 2.029a3.72 3.72 0 00-.083.798h2c0-.14.013-.263.037-.374l-1.954-.424zm-.083.798v.513h2v-.513h-2zm0 1.54v1.027h2V11.56h-2zm0 2.053v1.027h2v-1.027h-2zm0 2.054v.513h2v-.513h-2zm0 .513c0 .265.028.527.087.783l1.948-.455a1.437 1.437 0 01-.035-.328h-2zm.862 2.216c.175.185.372.35.585.497l1.135-1.646a1.678 1.678 0 01-.267-.226l-1.453 1.375zm.618.519c.239.151.491.281.756.39l.76-1.85a2.883 2.883 0 01-.446-.23l-1.07 1.69zm2.343.78c.254.027.515.04.782.04v-2a5.4 5.4 0 01-.571-.029l-.211 1.989zm1.782-.96v-.48h-2v.48h2zm0-1.44v-.959h-2v.96h2zm0-1.919v-.96h-2v.96h2zm0-1.919v-.96h-2v.96h2zm0-1.919v-.96h-2v.96h2zm0-1.919v-.96h-2v.96h2zm0-1.92V7.22h-2v.48h2zm5.25 11.071v-.481h-2v.481h2zm0-1.444v-.962h-2v.962h2zm0-1.925v-.962h-2v.962h2zm0-1.925v-.962h-2v.962h2zm0-1.925v-.962h-2v.962h2zm0-1.925v-.962h-2v.962h2zm0-1.925V7.22h-2v.481h2zm-1 .519c.201 0 .39.011.566.032l.24-1.985a6.724 6.724 0 00-.806-.047v2zm1.569.312c.15.073.288.158.416.255l1.21-1.594a4.451 4.451 0 00-.756-.462l-.87 1.801zm.416.255c.113.085.205.172.28.259l1.512-1.31c-.173-.2-.369-.38-.583-.543l-1.209 1.594zm.582.86c.024.11.038.234.038.373h2a3.8 3.8 0 00-.083-.798l-1.955.424zm.038.373v.513h2v-.513h-2zm0 1.54v1.027h2V11.56h-2zm0 2.053v1.027h2v-1.027h-2zm0 2.054v.513h2v-.513h-2zm0 .513c0 .123-.014.23-.036.323l1.943.474a3.38 3.38 0 00.093-.797h-2zm-.326.831a1.76 1.76 0 01-.279.227l1.11 1.664a3.75 3.75 0 00.594-.488l-1.425-1.403zm-.292.236c-.13.09-.27.168-.423.235l.808 1.83a4.54 4.54 0 00.75-.419l-1.135-1.646zm-1.427.493c-.175.02-.362.03-.56.03v2c.267 0 .528-.014.782-.042l-.222-1.988zm24.9 4.635h.5v-.5h-.5v.5zM58.782 20.8l-.264.425.005.002.26-.427zm.035-15.54l.262.426.004-.002-.266-.424zm6.37-1.645v.5h.5v-.5h-.5zm0-2.905v-.5h-.5v.5h.5zm5.39 0h.5v-.5h-.5v.5zm0 2.905h-.5v.5h.5v-.5zm6.335 1.645l-.265.424.002.001.263-.425zm1.4 14.21l.38.325-.38-.325zm-3.325 2.205l.163.473.005-.002-.168-.471zm-4.41.7v-.5h-.5v.5h.5zm0 2.975v.5h.5v-.5h-.5zm-5.39 0h-.5v.5h.5v-.5zm.07-18.13h.5v-.5h-.5v.5zm-2.59.77l-.302-.398.302.398zm0 10.08l-.284.412.008.005.009.005.267-.422zm2.59.665v.5h.5v-.5h-.5zm5.25.035h-.5v.5h.5v-.5zm2.555-.7l-.277-.416-.007.004.284.412zm.035-10.08l.302-.398-.302.398zm-2.59-.77v-.5h-.5v.5h.5zm-5.32 14.655c-.183 0-.363-.003-.54-.008l-.032 1c.189.005.38.008.572.008v-1zm-1.617-.078c-.365-.037-.72-.087-1.063-.15l-.179.984c.37.068.751.121 1.142.16l.1-.994zm-2.103-.388a10.334 10.334 0 01-1.007-.336l-.365.931c.356.14.724.262 1.104.368l.268-.963zm-1.967-.776a8.823 8.823 0 01-.458-.26l-.52.854c.167.101.337.198.51.29l.468-.884zm-.454-.258a5.926 5.926 0 01-.37-.25l-.591.807c.139.102.283.2.433.293l.528-.85zm-1.033-.828a4.518 4.518 0 01-.54-.684l-.842.54c.191.298.411.576.66.835l.721-.691zm-.938-1.46a5.094 5.094 0 01-.252-.845l-.979.205c.073.352.174.688.302 1.01l.929-.37zm-.37-1.733a7.469 7.469 0 01-.013-.454h-1c0 .175.005.346.016.515l.998-.061zm-.013-.454v-.46h-1v.46h1zm0-1.383v-.921h-1v.921h1zm0-1.843v-.921h-1v.921h1zm0-1.843v-.461h-1v.46h1zm0-.461c0-.162.005-.32.014-.474l-.999-.057a9.26 9.26 0 00-.015.531h1zm.128-1.403c.061-.314.144-.61.248-.887l-.936-.351a6.535 6.535 0 00-.294 1.046l.982.192zm.646-1.703c.158-.256.34-.496.548-.718l-.73-.683a5.466 5.466 0 00-.67.878l.852.523zm1.23-1.32c.121-.09.249-.176.383-.258l-.523-.852a6.553 6.553 0 00-.452.303l.592.806zm.387-.26c.148-.093.3-.182.454-.267l-.481-.877c-.172.094-.34.193-.504.296l.53.848zm1.406-.723c.321-.132.654-.25.998-.351l-.283-.96c-.377.112-.742.24-1.097.387l.382.924zm2.032-.603c.342-.066.694-.12 1.056-.159l-.108-.994c-.389.042-.769.1-1.14.172l.192.981zm2.127-.234c.178-.006.357-.009.54-.009v-1c-.194 0-.384.003-.573.01l.033.999zm1.04-.509v-.726h-1v.726h1zm0-2.179V.71h-1v.726h1zm-.5-.226h.448v-1h-.449v1zm1.347 0h.898v-1h-.898v1zm1.796 0h.899v-1h-.899v1zm1.797 0h.45v-1h-.45v1zm-.05-.5v.726h1V.71h-1zm0 2.179v.726h1v-.726h-1zm.5 1.226c.18 0 .359.003.535.01l.034-1a16.7 16.7 0 00-.57-.01v1zm1.6.085c.36.04.71.093 1.05.16l.194-.982a13.5 13.5 0 00-1.135-.172l-.109.994zm2.078.412c.341.102.672.219.992.351l.383-.923a11.145 11.145 0 00-1.09-.387l-.285.959zm1.939.806c.153.084.304.173.452.266l.53-.848c-.163-.102-.33-.2-.5-.294l-.482.876zm.454.267c.135.083.263.17.385.26l.592-.806a6.84 6.84 0 00-.45-.304l-.527.85zm1.073.865c.21.222.396.461.556.717l.847-.532a5.619 5.619 0 00-.676-.872l-.727.687zm.963 1.531c.107.277.192.572.255.885l.98-.197a6.431 6.431 0 00-.302-1.048l-.933.36zm.373 1.815c.01.154.014.312.014.474h1c0-.18-.005-.359-.015-.533l-.999.059zm.014.474v.46h1v-.46h-1zm0 1.383v.921h1v-.921h-1zm0 1.843v.921h1v-.921h-1zm0 1.843v.461h1v-.46h-1zm0 .461c0 .152-.005.301-.016.447l.998.073a7.42 7.42 0 00.018-.52h-1zm-.15 1.32a4.697 4.697 0 01-.285.825l.91.414a5.62 5.62 0 00.346-1.002l-.972-.237zm-.72 1.58a4.832 4.832 0 01-.27.345l.76.65c.116-.135.224-.274.326-.416l-.815-.58zm-.27.345a6.403 6.403 0 01-.317.343l.71.705c.127-.128.25-.26.367-.398l-.76-.65zm-1.023.958a7.041 7.041 0 01-.789.514l.49.872c.317-.178.618-.374.9-.587l-.6-.799zm-1.643.929c-.145.06-.294.118-.446.172l.335.942c.169-.06.334-.124.495-.19l-.384-.924zm-.442.17c-.168.058-.339.113-.512.163l.282.96c.187-.055.373-.114.556-.177l-.326-.946zm-1.557.42c-.348.068-.704.123-1.067.164l.112.994c.39-.044.773-.103 1.15-.178l-.195-.98zm-2.147.243c-.179.007-.36.01-.543.01v1c.195 0 .388-.003.579-.01l-.036-1zm-1.043.51v.744h1v-.744h-1zm0 2.231v.744h1v-.744h-1zm.5.244h-.449v1h.45v-1zm-1.347 0h-.899v1h.899v-1zm-1.797 0h-.898v1h.898v-1zm-1.797 0h-.449v1h.45v-1zm.051.5v-.744h-1v.744h1zm0-2.231v-.744h-1v.744h1zm-.43-16.399c-.257 0-.505.014-.746.043l.12.993c.198-.024.406-.036.626-.036v-1zm-2.221.462a3.946 3.946 0 00-.67.41l.604.796a2.95 2.95 0 01.5-.306l-.434-.9zm-.67.41c-.19.143-.36.3-.508.472l.756.654c.1-.115.217-.225.355-.33l-.604-.796zm-1.142 1.736a3.256 3.256 0 00-.072.692h1c0-.172.017-.332.05-.48l-.978-.212zm-.072.692v.513h1v-.513h-1zm0 1.54v1.027h1V11.56h-1zm0 2.053v1.027h1v-1.027h-1zm0 2.054v.513h1v-.513h-1zm0 .513c0 .23.024.454.075.669l.974-.227a1.941 1.941 0 01-.049-.442h-1zm.726 1.872c.149.157.318.3.505.43l.568-.824a2.179 2.179 0 01-.347-.293l-.726.687zm.522.44c.214.136.44.252.679.35l.38-.924a3.373 3.373 0 01-.524-.27l-.535.844zm2.128.706c.236.025.479.037.73.037v-1a5.66 5.66 0 01-.624-.032l-.106.995zm1.23-.463v-.48h-1v.48h1zm0-1.44v-.959h-1v.96h1zm0-1.919v-.96h-1v.96h1zm0-1.919v-.96h-1v.96h1zm0-1.919v-.96h-1v.96h1zm0-1.919v-.96h-1v.96h1zm0-1.92V7.22h-1v.48h1zm5.25 11.071v-.481h-1v.481h1zm0-1.444v-.962h-1v.962h1zm0-1.925v-.962h-1v.962h1zm0-1.925v-.962h-1v.962h1zm0-1.925v-.962h-1v.962h1zm0-1.925v-.962h-1v.962h1zm0-1.925V7.22h-1v.481h1zm-.5.019c.22 0 .428.012.626.036l.12-.993a6.226 6.226 0 00-.747-.043v1zm1.786.362c.18.087.346.189.501.306l.604-.796a3.953 3.953 0 00-.67-.41l-.435.9zm.501.306c.138.105.256.215.356.33l.756-.654a3.336 3.336 0 00-.508-.472l-.604.796zm.768 1.152c.032.148.05.308.05.48h1c0-.238-.024-.469-.073-.692l-.977.212zm.05.48v.513h1v-.513h-1zm0 1.54v1.027h1V11.56h-1zm0 2.053v1.027h1v-1.027h-1zm0 2.054v.513h1v-.513h-1zm0 .513c0 .16-.018.307-.051.442l.971.237a2.83 2.83 0 00.08-.679h-1zm-.47 1.182c-.1.101-.219.199-.358.292l.555.832c.19-.127.363-.268.516-.423l-.713-.701zm-.365.296a3.078 3.078 0 01-.504.282l.404.914a4.07 4.07 0 00.668-.372l-.568-.824zm-1.655.58c-.195.02-.4.032-.616.032v1c.25 0 .493-.013.727-.04l-.11-.993zm-5.936 4.137h1v-1h-1v1zM58.783 20.8l-.528.85.009.004.52-.854zm.035-15.54l.523.852.008-.005-.53-.847zm6.37-1.645v1h1v-1h-1zm0-2.905v-1h-1v1h1zm5.39 0h1v-1h-1v1zm0 2.905h-1v1h1v-1zm6.335 1.645l-.53.847.004.003.526-.85zm1.4 14.21l.76.65-.76-.65zm-3.325 2.205l.326.945.01-.003-.336-.942zm-4.41.7v-1h-1v1h1zm0 2.975v1h1v-1h-1zm-5.39 0h-1v1h1v-1zm.07-18.13h1v-1h-1v1zm-2.59.77l-.604-.797.604.797zm0 10.08l-.568.823.017.011.016.01.535-.844zm2.59.665v1h1v-1h-1zm5.25.035h-1v1h1v-1zm2.555-.7l-.554-.832-.007.004-.006.005.567.823zm.035-10.08l.605-.797-.605.797zm-2.59-.77v-1h-1v1h1zm-5.32 14.155c-.177 0-.353-.003-.525-.008l-.063 1.999c.194.006.39.009.588.009v-2zm-1.567-.076a12.999 12.999 0 01-1.023-.144l-.359 1.968c.385.07.778.125 1.181.166l.201-1.99zm-2.019-.372a9.864 9.864 0 01-.958-.32l-.731 1.862c.372.147.757.275 1.153.385l.536-1.927zm-1.867-.736a8.35 8.35 0 01-.432-.245l-1.04 1.708c.176.107.354.208.536.305l.936-1.768zm-.424-.24a5.348 5.348 0 01-.338-.229l-1.183 1.613c.15.11.305.214.465.314l1.056-1.698zm-.937-.75a4.02 4.02 0 01-.48-.609l-1.683 1.082c.21.325.45.628.72.91l1.444-1.383zm-.834-1.299a4.599 4.599 0 01-.227-.762l-1.958.409c.08.378.188.743.327 1.093l1.858-.74zm-.334-1.579a6.927 6.927 0 01-.013-.423h-2c0 .184.006.366.017.546l1.996-.123zm-.013-.423v-.46h-2v.46h2zm0-1.383v-.921h-2v.921h2zm0-1.843v-.921h-2v.921h2zm0-1.843v-.461h-2v.46h2zm0-.461c0-.153.005-.301.013-.446l-1.997-.114a9.82 9.82 0 00-.016.56h2zm.119-1.308a5.03 5.03 0 01.225-.806l-1.872-.703a7.03 7.03 0 00-.316 1.126l1.963.383zm.58-1.536c.141-.228.303-.44.488-.638l-1.46-1.366a6.007 6.007 0 00-.73.957l1.704 1.047zm1.1-1.18c.11-.08.227-.159.35-.234l-1.047-1.704a6.86 6.86 0 00-.486.326l1.184 1.612zm.357-.239c.14-.088.284-.172.43-.252l-.963-1.753c-.18.099-.356.202-.529.31l1.062 1.695zm1.331-.683a9.67 9.67 0 01.95-.335l-.566-1.918c-.393.116-.775.25-1.146.404l.762 1.849zm1.937-.575c.328-.064.666-.115 1.015-.153l-.215-1.988c-.403.044-.797.103-1.183.178l.383 1.963zm2.05-.225c.17-.006.345-.009.521-.009v-2c-.198 0-.395.003-.59.01l.068 1.999zm1.521-1.009v-.726h-2v.726h2zm0-2.179V.71h-2v.726h2zm-1 .274h.45v-2h-.45v2zm1.348 0h.898v-2h-.898v2zm1.796 0h.899v-2h-.899v2zm1.797 0h.45v-2h-.45v2zm-.55-1v.726h2V.71h-2zm0 2.179v.726h2v-.726h-2zm1 1.726c.175 0 .347.003.518.009l.068-2a17.2 17.2 0 00-.587-.009v2zm1.546.082c.346.038.682.089 1.008.153l.386-1.962a14.004 14.004 0 00-1.176-.18l-.219 1.989zm1.989.394c.326.097.64.209.944.334l.766-1.847c-.37-.153-.75-.288-1.14-.404l-.57 1.917zm1.84.765c.146.08.288.164.428.251l1.062-1.694a11.474 11.474 0 00-.525-.31l-.964 1.753zm.433.255c.124.076.24.155.352.237l1.184-1.612a7.287 7.287 0 00-.484-.326l-1.052 1.7zm.973.782c.188.2.353.412.496.64l1.694-1.064a6.12 6.12 0 00-.737-.95L77.36 6.893zm.86 1.368c.096.25.174.517.231.804l1.96-.395a6.929 6.929 0 00-.326-1.13l-1.866.721zm.34 1.664c.009.144.013.293.013.445h2c0-.19-.005-.378-.016-.563l-1.997.118zm.013.445v.46h2v-.46h-2zm0 1.383v.921h2v-.921h-2zm0 1.843v.921h2v-.921h-2zm0 1.843v.461h2v-.46h-2zm0 .461c0 .14-.005.277-.014.41l1.994.146c.014-.183.02-.369.02-.556h-2zm-.136 1.202a4.153 4.153 0 01-.254.736l1.82.828c.16-.35.285-.713.377-1.09l-1.944-.474zm-.641 1.408a4.296 4.296 0 01-.242.31l1.519 1.3a5.9 5.9 0 00.353-.452l-1.63-1.158zm-.242.31a5.87 5.87 0 01-.292.316l1.419 1.41c.136-.137.266-.279.392-.425l-1.519-1.302zm-.944.884a6.71 6.71 0 01-.734.477l.98 1.744c.336-.19.655-.397.956-.623l-1.202-1.598zm-1.535.866a8.618 8.618 0 01-.422.163l.67 1.884c.177-.063.35-.13.52-.2l-.768-1.847zm-.413.16c-.161.055-.324.107-.49.156l.564 1.919c.194-.057.387-.119.578-.185l-.652-1.89zm-1.491.4c-.334.067-.676.12-1.026.16l.224 1.987c.404-.046.8-.107 1.19-.184l-.388-1.962zm-2.068.236c-.173.006-.348.009-.525.009v2c.2 0 .4-.003.596-.01l-.07-2zm-1.525 1.009v.744h2v-.744h-2zm0 2.231v.744h2v-.744h-2zm1-.256h-.449v2h.45v-2zm-1.347 0h-.899v2h.899v-2zm-1.797 0h-.898v2h.898v-2zm-1.797 0h-.449v2h.45v-2zm.551 1v-.744h-2v.744h2zm0-2.231v-.744h-2v.744h2zm-.93-16.899a6.65 6.65 0 00-.806.047l.24 1.985a4.73 4.73 0 01.566-.032v-2zm-2.439.511a4.5 4.5 0 00-.755.462l1.209 1.594c.128-.097.266-.182.416-.255l-.87-1.8zm-.755.462c-.214.163-.41.343-.583.543l1.512 1.31a1.83 1.83 0 01.28-.26l-1.21-1.593zm-1.328 2.029c-.056.26-.083.527-.083.798h2c0-.14.014-.263.038-.374l-1.955-.424zm-.083.798v.513h2v-.513h-2zm0 1.54v1.027h2V11.56h-2zm0 2.053v1.027h2v-1.027h-2zm0 2.054v.513h2v-.513h-2zm0 .513c0 .265.028.527.088.783l1.947-.455a1.437 1.437 0 01-.035-.328h-2zm.863 2.216c.175.185.371.35.584.497l1.136-1.646a1.678 1.678 0 01-.268-.226l-1.452 1.375zm.617.519c.24.151.492.281.757.39l.76-1.85a2.883 2.883 0 01-.447-.23l-1.07 1.69zm2.343.78c.255.027.516.04.782.04v-2a5.4 5.4 0 01-.57-.029l-.212 1.989zm1.782-.96v-.48h-2v.48h2zm0-1.44v-.959h-2v.96h2zm0-1.919v-.96h-2v.96h2zm0-1.919v-.96h-2v.96h2zm0-1.919v-.96h-2v.96h2zm0-1.919v-.96h-2v.96h2zm0-1.92V7.22h-2v.48h2zm5.25 11.071v-.481h-2v.481h2zm0-1.444v-.962h-2v.962h2zm0-1.925v-.962h-2v.962h2zm0-1.925v-.962h-2v.962h2zm0-1.925v-.962h-2v.962h2zm0-1.925v-.962h-2v.962h2zm0-1.925V7.22h-2v.481h2zm-1 .519c.202 0 .39.011.567.032l.24-1.985a6.724 6.724 0 00-.807-.047v2zm1.57.312c.15.073.288.158.416.255l1.209-1.594a4.451 4.451 0 00-.755-.462l-.87 1.801zm.416.255c.113.085.205.172.28.259l1.511-1.31c-.173-.2-.368-.38-.582-.543l-1.21 1.594zm.582.86c.024.11.037.234.037.373h2c0-.27-.026-.537-.083-.798l-1.954.424zm.037.373v.513h2v-.513h-2zm0 1.54v1.027h2V11.56h-2zm0 2.053v1.027h2v-1.027h-2zm0 2.054v.513h2v-.513h-2zm0 .513c0 .123-.013.23-.036.323l1.943.474c.064-.26.093-.527.093-.797h-2zm-.326.831a1.748 1.748 0 01-.278.227l1.109 1.664c.216-.144.416-.306.595-.488l-1.426-1.403zm-.291.236c-.13.09-.27.168-.423.235l.808 1.83c.264-.117.514-.256.75-.419l-1.135-1.646zm-1.427.493c-.176.02-.362.03-.56.03v2c.266 0 .527-.014.782-.042l-.222-1.988zM87.568 2.285v-.5h-.5v.5h.5zm17.325 0h.5v-.5h-.5v.5zm0 3.885v.5h.5v-.5h-.5zm-11.865 0v-.5h-.5v.5h.5zm0 5.215h-.5v.5h.5v-.5zm10.71 0h.5v-.5h-.5v.5zm0 3.885v.5h.5v-.5h-.5zm-10.71 0v-.5h-.5v.5h.5zm0 5.845h-.5v.5h.5v-.5zm12.215 0h.5v-.5h-.5v.5zm0 3.885v.5h.5V25h-.5zm-17.675 0h-.5v.5h.5V25zm-.5-22.715v.516h1v-.516h-1zm0 1.549v1.032h1V3.834h-1zm0 2.065V6.93h1V5.9h-1zm0 2.065v1.032h1V7.964h-1zm0 2.065v1.032h1V10.03h-1zm0 2.065v1.032h1v-1.032h-1zm0 2.065v1.032h1V14.16h-1zm0 2.065v1.032h1v-1.032h-1zm0 2.065v1.032h1V18.29h-1zm0 2.065v1.032h1v-1.032h-1zm0 2.065v1.032h1V22.42h-1zm0 2.065V25h1v-.516h-1zm.5 1.016h.49v-1h-.49v1zm1.473 0h.982v-1h-.982v1zm1.964 0h.982v-1h-.982v1zm1.964 0h.981v-1h-.981v1zm1.963 0h.982v-1h-.982v1zm1.964 0h.982v-1h-.982v1zm1.964 0h.982v-1h-.982v1zm1.964 0h.982v-1h-.982v1zm1.964 0h.982v-1h-.982v1zm1.964 0h.491v-1h-.491v1zm.991-.5v-.486h-1V25h1zm0-1.457v-.971h-1v.971h1zm0-1.942v-.486h-1v.486h1zm-.5-.986h-.509v1h.509v-1zm-1.527 0h-1.018v1h1.018v-1zm-2.036 0h-1.018v1h1.018v-1zm-2.036 0h-1.018v1h1.018v-1zm-2.036 0h-1.017v1h1.017v-1zm-2.035 0h-1.018v1h1.018v-1zm-2.036 0h-.51v1h.51v-1zm-.01.5v-.487h-1v.487h1zm0-1.461v-.974h-1v.974h1zm0-1.949v-.974h-1v.974h1zm0-1.948v-.487h-1v.487h1zm-.5.013h.536v-1h-.535v1zm1.607 0h1.071v-1h-1.07v1zm2.142 0h1.071v-1h-1.07v1zm2.142 0h1.071v-1h-1.07v1zm2.142 0h1.071v-1h-1.071v1zm2.142 0h.536v-1h-.536v1zm1.036-.5v-.486h-1v.486h1zm0-1.457v-.971h-1v.971h1zm0-1.942v-.486h-1v.486h1zm-.5-.986h-.536v1h.536v-1zm-1.607 0h-1.071v1h1.071v-1zm-2.142 0h-1.07v1h1.07v-1zm-2.142 0h-1.07v1h1.07v-1zm-2.142 0h-1.07v1h1.07v-1zm-2.142 0h-.535v1h.535v-1zm-.035.5v-.435h-1v.435h1zm0-1.304v-.869h-1v.87h1zm0-1.738v-.87h-1v.87h1zm0-1.738V6.17h-1v.435h1zm-.5.065h.494v-1h-.494v1zm1.483 0h.989v-1h-.99v1zm1.977 0h.99v-1h-.99v1zm1.978 0h.989v-1h-.99v1zm1.977 0h.989v-1h-.989v1zm1.978 0h.989v-1h-.989v1zm1.977 0h.495v-1h-.495v1zm.995-.5v-.486h-1v.486h1zm0-1.457v-.971h-1v.971h1zm0-1.942v-.486h-1v.486h1zm-.5-.986h-.481v1h.481v-1zm-1.444 0h-.962v1h.962v-1zm-1.925 0h-.962v1h.962v-1zm-1.925 0h-.963v1h.963v-1zm-1.925 0h-.963v1h.963v-1zm-1.925 0h-.962v1h.962v-1zm-1.925 0h-.962v1h.962v-1zm-1.925 0h-.963v1h.963v-1zm-1.925 0h-.963v1h.963v-1zm-1.925 0h-.481v1h.481v-1zm-.481.5v-1h-1v1h1zm17.325 0h1v-1h-1v1zm0 3.885v1h1v-1h-1zm-11.865 0v-1h-1v1h1zm0 5.215h-1v1h1v-1zm10.71 0h1v-1h-1v1zm0 3.885v1h1v-1h-1zm-10.71 0v-1h-1v1h1zm0 5.845h-1v1h1v-1zm12.215 0h1v-1h-1v1zm0 3.885v1h1v-1h-1zm-17.675 0h-1v1h1v-1zm-1-22.715v.516h2v-.516h-2zm0 1.549v1.032h2V3.834h-2zm0 2.065V6.93h2V5.9h-2zm0 2.065v1.032h2V7.964h-2zm0 2.065v1.032h2V10.03h-2zm0 2.065v1.032h2v-1.032h-2zm0 2.065v1.032h2V14.16h-2zm0 2.065v1.032h2v-1.032h-2zm0 2.065v1.032h2V18.29h-2zm0 2.065v1.032h2v-1.032h-2zm0 2.065v1.032h2V22.42h-2zm0 2.065V25h2v-.516h-2zm1 1.516h.49v-2h-.49v2zm1.473 0h.982v-2h-.982v2zm1.964 0h.982v-2h-.982v2zm1.964 0h.981v-2h-.981v2zm1.963 0h.982v-2h-.982v2zm1.964 0h.982v-2h-.982v2zm1.964 0h.982v-2h-.982v2zm1.964 0h.982v-2h-.982v2zm1.964 0h.982v-2h-.982v2zm1.964 0h.491v-2h-.491v2zm1.491-1v-.486h-2V25h2zm0-1.457v-.971h-2v.971h2zm0-1.942v-.486h-2v.486h2zm-1-1.486h-.509v2h.509v-2zm-1.527 0h-1.018v2h1.018v-2zm-2.036 0h-1.018v2h1.018v-2zm-2.036 0h-1.018v2h1.018v-2zm-2.036 0h-1.017v2h1.017v-2zm-2.035 0h-1.018v2h1.018v-2zm-2.036 0h-.51v2h.51v-2zm.49 1v-.487h-2v.487h2zm0-1.461v-.974h-2v.974h2zm0-1.949v-.974h-2v.974h2zm0-1.948v-.487h-2v.487h2zm-1 .513h.536v-2h-.535v2zm1.607 0h1.071v-2h-1.07v2zm2.142 0h1.071v-2h-1.07v2zm2.142 0h1.071v-2h-1.07v2zm2.142 0h1.071v-2h-1.071v2zm2.142 0h.536v-2h-.536v2zm1.536-1v-.486h-2v.486h2zm0-1.457v-.971h-2v.971h2zm0-1.942v-.486h-2v.486h2zm-1-1.486h-.536v2h.536v-2zm-1.607 0h-1.071v2h1.071v-2zm-2.142 0h-1.07v2h1.07v-2zm-2.142 0h-1.07v2h1.07v-2zm-2.142 0h-1.07v2h1.07v-2zm-2.142 0h-.535v2h.535v-2zm.465 1v-.435h-2v.435h2zm0-1.304v-.869h-2v.87h2zm0-1.738v-.87h-2v.87h2zm0-1.738V6.17h-2v.435h2zm-1 .565h.494v-2h-.494v2zm1.483 0h.989v-2h-.99v2zm1.977 0h.99v-2h-.99v2zm1.978 0h.989v-2h-.99v2zm1.977 0h.989v-2h-.989v2zm1.978 0h.989v-2h-.989v2zm1.977 0h.495v-2h-.495v2zm1.495-1v-.486h-2v.486h2zm0-1.457v-.971h-2v.971h2zm0-1.942v-.486h-2v.486h2zm-1-1.486h-.481v2h.481v-2zm-1.444 0h-.962v2h.962v-2zm-1.925 0h-.962v2h.962v-2zm-1.925 0h-.963v2h.963v-2zm-1.925 0h-.963v2h.963v-2zm-1.925 0h-.962v2h.962v-2zm-1.925 0h-.962v2h.962v-2zm-1.925 0h-.963v2h.963v-2zm-1.925 0h-.963v2h.963v-2zm-1.925 0h-.481v2h.481v-2zm24.556 1v-.5h-.5v.5h.5zm5.46 0h.5v-.5h-.5v.5zm0 8.96h-.5v.5h.5v-.5zm2.485-.56l.255.43.011-.007-.266-.423zm2.065-2.24l-.411-.285-.002.004.413.281zm4.27-6.16v-.5h-.262l-.149.215.411.285zm6.125 0l.406.292.569-.792h-.975v.5zm-4.9 6.825l-.406-.292-.001.002.407.29zm-2.065 2.415l.331.374h.001l-.332-.374zm-2.275 1.33l-.179-.467-.321.124v.343h.5zm0 .07h-.5v.394l.383.092.117-.486zm2.905 1.505l-.342.364.005.005.337-.369zm2.31 3.15l-.439.238.439-.238zM133.01 25v.5h.84l-.4-.738-.44.238zm-6.125 0l-.437.243.143.257h.294V25zm-3.71-6.685l-.438.242h.001l.437-.242zm-1.435-1.995l-.362.344.008.01.01.009.344-.363zm-1.505-.945l.14-.48-.14.48zm-2.17-.245v-.5h-.5v.5h.5zm0 9.87v.5h.5V25h-.5zm-5.46 0h-.5v.5h.5V25zm-.5-22.715v.516h1v-.516h-1zm0 1.549v1.032h1V3.834h-1zm0 2.065V6.93h1V5.9h-1zm0 2.065v1.032h1V7.964h-1zm0 2.065v1.032h1V10.03h-1zm0 2.065v1.032h1v-1.032h-1zm0 2.065v1.032h1V14.16h-1zm0 2.065v1.032h1v-1.032h-1zm0 2.065v1.032h1V18.29h-1zm0 2.065v1.032h1v-1.032h-1zm0 2.065v1.032h1V22.42h-1zm0 2.065V25h1v-.516h-1zm.5 1.016h.455v-1h-.455v1zm1.365 0h.91v-1h-.91v1zm1.82 0h.91v-1h-.91v1zm1.82 0h.455v-1h-.455v1zm.955-.5v-.494h-1V25h1zm0-1.48v-.988h-1v.988h1zm0-1.974v-.988h-1v.988h1zm0-1.974v-.988h-1v.988h1zm0-1.974v-.988h-1v.988h1zm0-1.974v-.494h-1v.493h1zm-.5.006c.184 0 .359.004.526.01l.043-.998a13.349 13.349 0 00-.569-.012v1zm1.55.115c.176.031.336.068.48.11l.28-.96a5.456 5.456 0 00-.587-.135l-.173.985zm.48.11c.121.035.239.08.354.131l.414-.91a3.609 3.609 0 00-.488-.181l-.28.96zm.997.54c.097.082.192.171.286.27l.725-.69a4.696 4.696 0 00-.369-.346l-.642.766zm.304.288c.121.115.247.25.376.408l.772-.636a5.402 5.402 0 00-.46-.497l-.688.725zm1.043 1.36c.098.16.198.332.298.514l.876-.484a14.33 14.33 0 00-.321-.552l-.853.522zm.299.515l.232.417.874-.485-.232-.418-.874.486zm.696 1.253l.463.836.875-.486-.464-.835-.874.485zm.927 1.671l.464.836.874-.485-.464-.836-.874.485zm.928 1.672l.463.835.875-.485-.464-.836-.874.486zm.927 1.67l.232.419.874-.486-.232-.417-.874.485zm.669.676h.51v-1h-.51v1zm1.531 0h1.021v-1h-1.021v1zm2.042 0h1.021v-1h-1.021v1zm2.042 0h.51v-1h-.51v1zm.95-.738l-.252-.464-.879.477.252.463.879-.476zm-.755-1.392l-.503-.927-.879.477.503.927.879-.477zm-1.006-1.855l-.503-.927-.879.477.503.927.879-.477zm-1.007-1.855l-.503-.927-.879.477.503.927.879-.477zm-1.006-1.855l-.251-.463-.879.476.251.464.879-.477zm-.251-.463c-.082-.15-.164-.297-.246-.44l-.867.499c.078.135.156.274.234.417l.879-.476zm-.774-1.301a13.155 13.155 0 00-.592-.83l-.79.612c.182.235.364.49.546.767l.836-.549zm-1.264-1.614a8.07 8.07 0 00-.375-.367l-.674.74c.109.099.218.205.327.319l.722-.692zm-.37-.361a5.906 5.906 0 00-.339-.296l-.629.777c.098.079.192.161.284.247l.684-.728zm-1.076-.81a6.765 6.765 0 00-.796-.404l-.394.919c.239.102.465.217.678.344l.512-.859zm-1.629-.704a8.522 8.522 0 00-.425-.113l-.234.972c.128.03.253.064.375.1l.284-.959zm-.042.373v-.018h-1v.018h1zm0-.053v-.017h-1v.018h1zm-.32.45c.221-.086.435-.177.642-.273l-.425-.906a8.854 8.854 0 01-.576.245l.359.934zm1.865-.978c.198-.14.385-.288.561-.444l-.662-.75a5.535 5.535 0 01-.477.377l.578.817zm.562-.445a9.21 9.21 0 00.309-.288l-.7-.715a7.903 7.903 0 01-.273.255l.664.748zm.88-.893c.173-.195.349-.405.528-.63l-.783-.623c-.169.213-.333.41-.494.591l.749.662zm1.023-1.277c.078-.107.158-.217.238-.33l-.815-.579c-.077.108-.154.214-.229.316l.806.593zm.236-.327l.306-.427-.812-.583-.306.426.812.584zm.919-1.28l.612-.853-.812-.583-.612.853.812.583zm1.225-1.706l.612-.853-.812-.584-.612.853.812.584zm1.225-1.707l.612-.853-.812-.583-.612.853.812.583zm1.225-1.706l.306-.426-.812-.584-.306.427.812.583zm-.1-1.218h-.51v1h.51v-1zm-1.531 0h-1.021v1h1.021v-1zm-2.042 0h-1.021v1h1.021v-1zm-2.042 0h-.51v1h.51v-1zm-.921.215l-.267.385.822.57.267-.385-.822-.57zm-.8 1.155l-.534.77.822.57.533-.77-.821-.57zm-1.068 1.54l-.534.77.822.57.534-.77-.822-.57zm-1.067 1.54l-.534.77.822.57.533-.77-.821-.57zm-1.068 1.54l-.267.385.822.57.267-.385-.822-.57zm-.269.389c-.072.105-.143.206-.213.305l.813.581c.075-.104.151-.212.226-.324l-.826-.562zm-.658.892a8.317 8.317 0 01-.477.543l.72.694a8.79 8.79 0 00.534-.609l-.777-.628zm-.991 1.014a3.156 3.156 0 01-.269.192l.532.846a4.15 4.15 0 00.356-.252l-.619-.786zm-.258.185a2.924 2.924 0 01-.497.232l.339.94c.237-.085.46-.189.668-.312l-.51-.86zm-1.629.465a6.99 6.99 0 01-.601.025v1c.237 0 .466-.01.687-.028l-.086-.997zm-.101.525v-.56h-1v.56h1zm0-1.68v-1.12h-1v1.12h1zm0-2.24v-1.12h-1v1.12h1zm0-2.24v-1.12h-1v1.12h1zm0-2.24v-.56h-1v.56h1zm-.5-1.06h-.455v1h.455v-1zm-1.365 0h-.91v1h.91v-1zm-1.82 0h-.91v1h.91v-1zm-1.82 0h-.455v1h.455v-1zm-.455.5v-1h-1v1h1zm5.46 0h1v-1h-1v1zm0 8.96h-1v1h1v-1zm2.485-.56l.51.86.011-.007.012-.007-.533-.846zm2.065-2.24l-.822-.57-.005.007.827.563zm4.27-6.16v-1h-.524l-.298.43.822.57zm6.125 0l.812.583 1.137-1.583h-1.949v1zm-4.9 6.825l-.812-.583-.003.003.815.58zm-2.065 2.415l.663.749.001-.002-.664-.747zm-2.275 1.33l-.359-.933-.641.246v.687h1zm0 .07h-1v.788l.767.184.233-.972zm2.905 1.505l-.685.729.006.005.005.005.674-.739zm2.31 3.15l-.879.477.879-.477zM133.01 25v1h1.68l-.801-1.477-.879.477zm-6.125 0l-.874.485.285.515h.589v-1zm-3.71-6.685l-.875.484.001.001.874-.485zm-1.435-1.995l-.725.689.018.018.018.018.689-.725zm-1.505-.945l.28-.96-.28.96zm-2.17-.245v-1h-1v1h1zm0 9.87v1h1v-1h-1zm-5.46 0h-1v1h1v-1zm-1-22.715v.516h2v-.516h-2zm0 1.549v1.032h2V3.834h-2zm0 2.065V6.93h2V5.9h-2zm0 2.065v1.032h2V7.964h-2zm0 2.065v1.032h2V10.03h-2zm0 2.065v1.032h2v-1.032h-2zm0 2.065v1.032h2V14.16h-2zm0 2.065v1.032h2v-1.032h-2zm0 2.065v1.032h2V18.29h-2zm0 2.065v1.032h2v-1.032h-2zm0 2.065v1.032h2V22.42h-2zm0 2.065V25h2v-.516h-2zm1 1.516h.455v-2h-.455v2zm1.365 0h.91v-2h-.91v2zm1.82 0h.91v-2h-.91v2zm1.82 0h.455v-2h-.455v2zm1.455-1v-.494h-2V25h2zm0-1.48v-.988h-2v.988h2zm0-1.974v-.988h-2v.988h2zm0-1.974v-.988h-2v.988h2zm0-1.974v-.988h-2v.988h2zm0-1.974v-.494h-2v.493h2zm-1 .506c.177 0 .345.004.505.01l.085-1.998c-.19-.008-.387-.012-.59-.012v2zm1.463.107a4 4 0 01.427.098l.56-1.92a5.999 5.999 0 00-.64-.147l-.347 1.97zm.427.098c.098.029.194.064.287.106l.829-1.82a4.131 4.131 0 00-.556-.206l-.56 1.92zm.816.444c.082.068.163.145.244.23l1.45-1.378a4.945 4.945 0 00-.41-.386l-1.284 1.534zm.28.266c.105.1.217.22.335.363l1.544-1.271a6.008 6.008 0 00-.501-.542l-1.378 1.45zm.961 1.259c.095.154.191.319.288.495l1.75-.968c-.11-.2-.221-.39-.332-.571l-1.706 1.044zm.289.496l.232.418 1.748-.97-.232-.418-1.748.97zm.695 1.254l.464.835 1.749-.97-.464-.836-1.749.97zm.928 1.67l.464.837 1.748-.97-.463-.837-1.749.97zm.927 1.672l.464.836 1.749-.97-.464-.836-1.749.97zm.928 1.671l.232.418 1.748-.97-.231-.418-1.749.97zm1.106.933h.51v-2h-.51v2zm1.531 0h1.021v-2h-1.021v2zm2.042 0h1.021v-2h-1.021v2zm2.042 0h.51v-2h-.51v2zm1.389-1.477l-.251-.464-1.758.954.251.464 1.758-.954zm-.755-1.391l-.503-.928-1.758.954.503.928 1.758-.954zm-1.006-1.855l-.503-.928-1.758.954.503.928 1.758-.954zm-1.006-1.855l-.503-.928-1.758.954.503.928 1.758-.954zm-1.006-1.855l-.252-.464-1.758.954.252.464 1.758-.954zm-.252-.464a20.909 20.909 0 00-.251-.45l-1.734.997c.076.132.151.267.227.407l1.758-.954zm-.795-1.337a13.751 13.751 0 00-.614-.862l-1.581 1.225c.173.224.348.47.523.736l1.672-1.099zm-1.322-1.686a7.863 7.863 0 00-.398-.389l-1.348 1.478c.1.091.201.19.303.296l1.443-1.385zm-.387-.379a6.948 6.948 0 00-.367-.32l-1.259 1.554c.088.072.174.146.256.224l1.37-1.458zm-1.163-.874a7.325 7.325 0 00-.855-.435l-.788 1.839c.219.094.426.198.619.314l1.024-1.718zm-1.743-.754a8.914 8.914 0 00-.451-.12l-.466 1.944c.119.03.236.06.349.094l.568-1.918zm.316.852v-.018h-2v.018h2zm0-.053v-.017h-2v.018h2zm-.641.916c.232-.089.457-.184.675-.286l-.849-1.812a8.636 8.636 0 01-.544.232l.718 1.866zm1.974-1.036c.213-.15.414-.31.605-.478l-1.326-1.498a5.046 5.046 0 01-.434.343l1.155 1.633zm.606-.48c.109-.096.218-.198.326-.304l-1.399-1.43a8.456 8.456 0 01-.255.24l1.328 1.494zm.923-.934c.179-.203.36-.42.544-.65l-1.565-1.246c-.164.206-.323.396-.478.57l1.499 1.326zm1.05-1.313c.081-.11.162-.221.243-.335l-1.63-1.16c-.075.107-.15.21-.224.31l1.611 1.185zm.24-.332l.307-.426-1.625-1.167-.306.427 1.624 1.166zm.919-1.28l.613-.853-1.625-1.166-.612.853 1.624 1.167zm1.225-1.706l.613-.853-1.625-1.166-.613.853 1.625 1.166zm1.225-1.706l.613-.853-1.625-1.167-.612.854L132.291 5zm1.225-1.706l.306-.427-1.624-1.166-.306.426 1.624 1.167zm-.506-2.01h-.51v2h.51v-2zm-1.531 0h-1.021v2h1.021v-2zm-2.042 0h-1.021v2h1.021v-2zm-2.042 0h-.51v2h.51v-2zm-1.332.43l-.267.385 1.644 1.14.267-.385-1.644-1.14zm-.8 1.155l-.534.77 1.644 1.14.533-.77-1.643-1.14zm-1.068 1.54l-.534.77 1.644 1.14.534-.77-1.644-1.14zm-1.067 1.54l-.534.77 1.644 1.14.533-.77-1.643-1.14zm-1.068 1.54l-.267.385 1.644 1.14.267-.385-1.644-1.14zm-.272.392c-.069.102-.138.2-.206.296l1.627 1.163c.077-.108.155-.219.233-.333l-1.654-1.126zm-.633.86a7.958 7.958 0 01-.448.51l1.441 1.387c.187-.194.375-.409.562-.64l-1.555-1.258zm-.911.936a2.65 2.65 0 01-.227.16l1.066 1.693a4.62 4.62 0 00.398-.282l-1.237-1.571zm-.204.147c-.12.07-.257.135-.412.192l.678 1.881a4.4 4.4 0 00.754-.353l-1.02-1.72zm-1.418.397a6.442 6.442 0 01-.557.023v2c.25 0 .494-.01.73-.03l-.173-1.993zm.443 1.023v-.56h-2v.56h2zm0-1.68v-1.12h-2v1.12h2zm0-2.24v-1.12h-2v1.12h2zm0-2.24v-1.12h-2v1.12h2zm0-2.24v-.56h-2v.56h2zm-1-1.56h-.455v2h.455v-2zm-1.365 0h-.91v2h.91v-2zm-1.82 0h-.91v2h.91v-2zm-1.82 0h-.455v2h.455v-2zm31.405 4.885h.5v-.5h-.5v.5zm-7 0h-.5v.5h.5v-.5zm0-3.885v-.5h-.5v.5h.5zm19.425 0h.5v-.5h-.5v.5zm0 3.885v.5h.5v-.5h-.5zm-6.965 0v-.5h-.5v.5h.5zm0 18.83v.5h.5V25h-.5zm-5.46 0h-.5v.5h.5V25zm0-19.33h-.438v1h.438v-1zm-1.313 0h-.875v1h.875v-1zm-1.75 0h-.875v1h.875v-1zm-1.75 0h-.875v1h.875v-1zm-1.75 0h-.437v1h.437v-1zm.063.5v-.486h-1v.486h1zm0-1.457v-.971h-1v.971h1zm0-1.942v-.486h-1v.486h1zm-.5.014h.485v-1h-.485v1zm1.457 0h.971v-1h-.971v1zm1.942 0h.971v-1h-.971v1zm1.943 0h.971v-1h-.971v1zm1.942 0h.971v-1h-.971v1zm1.943 0h.971v-1h-.971v1zm1.942 0h.971v-1h-.971v1zm1.943 0h.971v-1h-.971v1zm1.942 0h.971v-1h-.971v1zm1.943 0h.971v-1h-.971v1zm1.942 0h.486v-1h-.486v1zm-.014-.5v.486h1v-.486h-1zm0 1.457v.971h1v-.971h-1zm0 1.942v.486h1v-.486h-1zm.5-.014h-.581v1h.581v-1zm-1.742 0h-1.16v1h1.16v-1zm-2.321 0h-1.161v1h1.161v-1zm-2.322 0h-.58v1h.58v-1zm-1.08.5v.523h1V6.17h-1zm0 1.57v1.045h1V7.74h-1zm0 2.091v1.046h1V9.832h-1zm0 2.093v1.046h1v-1.046h-1zm0 2.092v1.046h1v-1.046h-1zm0 2.092v1.046h1v-1.046h-1zm0 2.092v1.046h1V18.2h-1zm0 2.093v1.046h1v-1.046h-1zm0 2.092v1.046h1v-1.046h-1zm0 2.092V25h1v-.523h-1zm.5.023h-.455v1h.455v-1zm-1.365 0h-.91v1h.91v-1zm-1.82 0h-.91v1h.91v-1zm-1.82 0h-.455v1h.455v-1zm.045.5v-.523h-1V25h1zm0-1.57v-1.045h-1v1.046h1zm0-2.091v-1.046h-1v1.046h1zm0-2.093V18.2h-1v1.046h1zm0-2.092v-1.046h-1v1.046h1zm0-2.092v-1.046h-1v1.046h1zm0-2.092v-1.046h-1v1.046h1zm0-2.093V9.832h-1v1.046h1zm0-2.092V7.74h-1v1.046h1zm0-2.092V6.17h-1v.523h1zm-.5-.523h1v-1h-1v1zm-7 0h-1v1h1v-1zm0-3.885v-1h-1v1h1zm19.425 0h1v-1h-1v1zm0 3.885v1h1v-1h-1zm-6.965 0v-1h-1v1h1zm0 18.83v1h1v-1h-1zm-5.46 0h-1v1h1v-1zm0-19.83h-.438v2h.438v-2zm-1.313 0h-.875v2h.875v-2zm-1.75 0h-.875v2h.875v-2zm-1.75 0h-.875v2h.875v-2zm-1.75 0h-.437v2h.437v-2zm.563 1v-.486h-2v.486h2zm0-1.457v-.971h-2v.971h2zm0-1.942v-.486h-2v.486h2zm-1 .514h.485v-2h-.485v2zm1.457 0h.971v-2h-.971v2zm1.942 0h.971v-2h-.971v2zm1.943 0h.971v-2h-.971v2zm1.942 0h.971v-2h-.971v2zm1.943 0h.971v-2h-.971v2zm1.942 0h.971v-2h-.971v2zm1.943 0h.971v-2h-.971v2zm1.942 0h.971v-2h-.971v2zm1.943 0h.971v-2h-.971v2zm1.942 0h.486v-2h-.486v2zm-.514-1v.486h2v-.486h-2zm0 1.457v.971h2v-.971h-2zm0 1.942v.486h2v-.486h-2zm1-.514h-.581v2h.581v-2zm-1.742 0h-1.16v2h1.16v-2zm-2.321 0h-1.161v2h1.161v-2zm-2.322 0h-.58v2h.58v-2zm-1.58 1v.523h2V6.17h-2zm0 1.57v1.045h2V7.74h-2zm0 2.091v1.046h2V9.832h-2zm0 2.093v1.046h2v-1.046h-2zm0 2.092v1.046h2v-1.046h-2zm0 2.092v1.046h2v-1.046h-2zm0 2.092v1.046h2V18.2h-2zm0 2.093v1.046h2v-1.046h-2zm0 2.092v1.046h2v-1.046h-2zm0 2.092V25h2v-.523h-2zm1-.477h-.455v2h.455v-2zm-1.365 0h-.91v2h.91v-2zm-1.82 0h-.91v2h.91v-2zm-1.82 0h-.455v2h.455v-2zm.545 1v-.523h-2V25h2zm0-1.57v-1.045h-2v1.046h2zm0-2.091v-1.046h-2v1.046h2zm0-2.093V18.2h-2v1.046h2zm0-2.092v-1.046h-2v1.046h2zm0-2.092v-1.046h-2v1.046h2zm0-2.092v-1.046h-2v1.046h2zm0-2.093V9.832h-2v1.046h2zm0-2.092V7.74h-2v1.046h2zm0-2.092V6.17h-2v.523h2zm18.24-4.408v-.5h-.5v.5h.5zm5.46 0h.5v-.5h-.5v.5zm0 15.54h-.5v1.73l.923-1.463-.423-.267zm9.8-15.54v-.5h-.276l-.147.233.423.267zm5.46 0h.5v-.5h-.5v.5zm0 22.715v.5h.5V25h-.5zm-5.46 0h-.5v.5h.5V25zm0-15.785h.5V7.462l-.925 1.49.425.263zM169.165 25v.5h.278l.147-.236-.425-.264zm-5.46 0h-.5v.5h.5V25zm-.5-22.715v.516h1v-.516h-1zm0 1.549v1.032h1V3.834h-1zm0 2.065V6.93h1V5.9h-1zm0 2.065v1.032h1V7.964h-1zm0 2.065v1.032h1V10.03h-1zm0 2.065v1.032h1v-1.032h-1zm0 2.065v1.032h1V14.16h-1zm0 2.065v1.032h1v-1.032h-1zm0 2.065v1.032h1V18.29h-1zm0 2.065v1.032h1v-1.032h-1zm0 2.065v1.032h1V22.42h-1zm0 2.065V25h1v-.516h-1zm.5 1.016h.455v-1h-.455v1zm1.365 0h.91v-1h-.91v1zm1.82 0h.91v-1h-.91v1zm1.82 0h.455v-1h-.455v1zm.88-.236l.272-.439-.849-.527-.273.438.85.528zm.817-1.316l.544-.877-.85-.527-.544.877.85.527zm1.088-1.754l.545-.877-.85-.527-.544.877.849.527zm1.089-1.753l.545-.877-.85-.528-.544.877.849.527zm1.089-1.754l.545-.877-.85-.528-.544.877.849.528zm1.089-1.754l.545-.877-.85-.528-.544.877.849.528zm1.089-1.754l.544-.877-.849-.527-.545.876.85.528zm1.089-1.754l.544-.877-.849-.527-.545.877.85.527zm1.089-1.754l.544-.877-.849-.527-.545.877.85.527zm1.089-1.754l.272-.438-.85-.528-.272.439.85.527zm-.653-.702v.493h1v-.493h-1zm0 1.48v.986h1v-.986h-1zm0 1.973v.987h1v-.987h-1zm0 1.973v.987h1v-.987h-1zm0 1.973v.987h1v-.987h-1zm0 1.973v.987h1v-.987h-1zm0 1.974v.986h1v-.986h-1zm0 1.973v.986h1v-.986h-1zm0 1.973V25h1v-.493h-1zm.5.993h.455v-1h-.455v1zm1.365 0h.91v-1h-.91v1zm1.82 0h.91v-1h-.91v1zm1.82 0h.455v-1h-.455v1zm.955-.5v-.516h-1V25h1zm0-1.549V22.42h-1v1.032h1zm0-2.065v-1.032h-1v1.032h1zm0-2.065V18.29h-1v1.032h1zm0-2.065v-1.032h-1v1.032h1zm0-2.065V14.16h-1v1.032h1zm0-2.065v-1.032h-1v1.032h1zm0-2.065V10.03h-1v1.032h1zm0-2.065V7.964h-1v1.032h1zm0-2.065V5.9h-1v1.03h1zm0-2.065V3.834h-1v1.032h1zm0-2.065v-.516h-1v.516h1zm-.5-1.016h-.455v1h.455v-1zm-1.365 0h-.91v1h.91v-1zm-1.82 0h-.91v1h.91v-1zm-1.82 0h-.455v1h.455v-1zm-.878.233l-.272.432.846.533.272-.431-.846-.534zm-.817 1.295l-.544.864.846.533.544-.863-.846-.534zm-1.088 1.727l-.545.863.846.534.544-.864-.845-.533zm-1.089 1.727l-.545.863.846.533.545-.863-.846-.533zm-1.089 1.726l-.545.864.846.533.545-.863-.846-.534zm-1.089 1.727l-.545.863.846.534.545-.864-.846-.533zm-1.089 1.727l-.544.863.845.533.545-.863-.846-.533zm-1.089 1.726l-.544.864.846.533.544-.863-.846-.534zm-1.089 1.727l-.544.863.846.534.544-.864-.846-.533zm-1.089 1.727l-.272.431.846.534.272-.432-.846-.533zm.651.698v-.486h-1v.486h1zm0-1.457v-.971h-1v.971h1zm0-1.942v-.972h-1v.972h1zm0-1.943v-.971h-1v.971h1zm0-1.942v-.972h-1v.972h1zm0-1.943v-.971h-1v.971h1zm0-1.942v-.972h-1v.972h1zm0-1.943v-.971h-1v.971h1zm0-1.942v-.486h-1v.486h1zm-.5-.986h-.455v1h.455v-1zm-1.365 0h-.91v1h.91v-1zm-1.82 0h-.91v1h.91v-1zm-1.82 0h-.455v1h.455v-1zm-.455.5v-1h-1v1h1zm5.46 0h1v-1h-1v1zm0 15.54h-1v3.46l1.846-2.927-.846-.533zm9.8-15.54v-1h-.552l-.294.467.846.533zm5.46 0h1v-1h-1v1zm0 22.715v1h1v-1h-1zm-5.46 0h-1v1h1v-1zm0-15.785h1V5.708l-1.85 2.98.85.527zM169.165 25v1h.556l.294-.473-.85-.527zm-5.46 0h-1v1h1v-1zm-1-22.715v.516h2v-.516h-2zm0 1.549v1.032h2V3.834h-2zm0 2.065V6.93h2V5.9h-2zm0 2.065v1.032h2V7.964h-2zm0 2.065v1.032h2V10.03h-2zm0 2.065v1.032h2v-1.032h-2zm0 2.065v1.032h2V14.16h-2zm0 2.065v1.032h2v-1.032h-2zm0 2.065v1.032h2V18.29h-2zm0 2.065v1.032h2v-1.032h-2zm0 2.065v1.032h2V22.42h-2zm0 2.065V25h2v-.516h-2zm1 1.516h.455v-2h-.455v2zm1.365 0h.91v-2h-.91v2zm1.82 0h.91v-2h-.91v2zm1.82 0h.455v-2h-.455v2zm1.305-.473l.272-.438-1.699-1.055-.272.439 1.699 1.055zm.816-1.315l.545-.877-1.699-1.055-.545.877 1.699 1.055zm1.089-1.754l.545-.877-1.699-1.055-.545.877 1.699 1.055zm1.089-1.754l.545-.877-1.7-1.055-.544.877 1.699 1.055zm1.089-1.754l.544-.877-1.699-1.055-.544.877 1.699 1.055zm1.089-1.753l.544-.877-1.699-1.055-.544.877 1.699 1.055zm1.089-1.754l.544-.877-1.699-1.055-.544.877 1.699 1.055zm1.089-1.754l.544-.877-1.699-1.055-.545.877 1.7 1.055zm1.089-1.754l.544-.877-1.699-1.055-.545.877 1.7 1.055zm1.088-1.754l.273-.439-1.7-1.054-.272.438 1.699 1.055zm-1.577-.966v.493h2v-.493h-2zm0 1.48v.986h2v-.986h-2zm0 1.973v.987h2v-.987h-2zm0 1.973v.987h2v-.987h-2zm0 1.973v.987h2v-.987h-2zm0 1.973v.987h2v-.987h-2zm0 1.974v.986h2v-.986h-2zm0 1.973v.986h2v-.986h-2zm0 1.973V25h2v-.493h-2zm1 1.493h.455v-2h-.455v2zm1.365 0h.91v-2h-.91v2zm1.82 0h.91v-2h-.91v2zm1.82 0h.455v-2h-.455v2zm1.455-1v-.516h-2V25h2zm0-1.549V22.42h-2v1.032h2zm0-2.065v-1.032h-2v1.032h2zm0-2.065V18.29h-2v1.032h2zm0-2.065v-1.032h-2v1.032h2zm0-2.065V14.16h-2v1.032h2zm0-2.065v-1.032h-2v1.032h2zm0-2.065V10.03h-2v1.032h2zm0-2.065V7.964h-2v1.032h2zm0-2.065V5.9h-2v1.03h2zm0-2.065V3.834h-2v1.032h2zm0-2.065v-.516h-2v.516h2zm-1-1.516h-.455v2h.455v-2zm-1.365 0h-.91v2h.91v-2zm-1.82 0h-.91v2h.91v-2zm-1.82 0h-.455v2h.455v-2zm-1.301.467l-.272.431 1.692 1.067.272-.432-1.692-1.066zm-.816 1.295l-.545.863 1.692 1.067.544-.864-1.691-1.066zm-1.089 1.726l-.545.864 1.692 1.066.544-.863-1.691-1.067zM175.125 6.5l-.545.863 1.692 1.067.544-.863-1.691-1.067zm-1.089 1.727l-.545.863 1.692 1.067.545-.864-1.692-1.066zm-1.089 1.726l-.544.864 1.691 1.066.545-.863-1.692-1.067zm-1.089 1.727l-.544.863 1.691 1.067.545-.863-1.692-1.067zm-1.089 1.727l-.544.863 1.691 1.067.545-.864-1.692-1.066zm-1.089 1.726l-.544.864 1.692 1.066.544-.863-1.692-1.067zm-1.089 1.727l-.272.432 1.692 1.066.272-.431-1.692-1.067zm1.574.965v-.486h-2v.486h2zm0-1.457v-.971h-2v.971h2zm0-1.942v-.972h-2v.972h2zm0-1.943v-.971h-2v.971h2zm0-1.942v-.972h-2v.972h2zm0-1.943v-.971h-2v.971h2zm0-1.942v-.972h-2v.972h2zm0-1.943v-.971h-2v.971h2zm0-1.942v-.486h-2v.486h2zm-1-1.486h-.455v2h.455v-2zm-1.365 0h-.91v2h.91v-2zm-1.82 0h-.91v2h.91v-2zm-1.82 0h-.455v2h.455v-2zm28.855 1v-.5h-.5v.5h.5zm14.21.49l-.135.482.011.003.124-.485zm2.52 1.505l-.41.287.005.006.405-.293zm-.035 7.455l-.369-.338-.007.009.376.329zm-1.75 1.155l-.148-.478-.352.11v.368h.5zm0 .175h-.5v.45l.448.047.052-.497zm2.415 1.155l-.342.365.006.006.007.005.329-.376zm-1.085 9.625l-.232-.443.232.443zM193.015 25h-.5v.5h.5V25zm11.13-13.685l-.158-.474.158.474zm.84-.665l-.447-.224-.004.007-.003.008.454.209zm.035-3.71l-.447.224.004.008.004.007.439-.239zm-.875-.595l-.134.482.007.002.127-.484zm-5.67-.175v-.5h-.5v.5h.5zm0 5.355h-.5v.5h.5v-.5zm6.72 9.135l-.238-.44.238.44zm.175-5.075l-.32.384.01.008.31-.392zm-6.895-.525v-.5h-.5v.5h.5zm0 6.055h-.5v.5h.5v-.5zm-5.96-18.83v.516h1v-.516h-1zm0 1.549v1.032h1V3.834h-1zm0 2.065V6.93h1V5.9h-1zm0 2.065v1.032h1V7.964h-1zm0 2.065v1.032h1V10.03h-1zm0 2.065v1.032h1v-1.032h-1zm0 2.065v1.032h1V14.16h-1zm0 2.065v1.032h1v-1.032h-1zm0 2.065v1.032h1V18.29h-1zm0 2.065v1.032h1v-1.032h-1zm0 2.065v1.032h1V22.42h-1zm0 2.065V25h1v-.516h-1zm.5 1.016h.472v-1h-.472v1zm1.417 0h.945v-1h-.945v1zm1.89 0h.945v-1h-.945v1zm1.89 0h.945v-1h-.945v1zm1.89 0h.945v-1h-.945v1zm1.89 0h.473v-1h-.473v1zm.473 0c.2 0 .397-.002.59-.005l-.016-1c-.188.003-.38.005-.574.005v1zm1.773-.047c.411-.023.806-.054 1.184-.094l-.105-.994c-.36.038-.738.068-1.135.09l.056.998zm2.369-.256c.418-.072.812-.157 1.181-.255l-.257-.967c-.337.09-.702.169-1.093.236l.169.986zm2.347-.645a6.96 6.96 0 00.568-.264l-.464-.886c-.151.08-.313.155-.486.226l.382.924zm.568-.264c.198-.104.386-.218.563-.341l-.573-.82a4.08 4.08 0 01-.454.275l.464.886zm1.532-1.262c.271-.354.483-.748.636-1.18l-.942-.334c-.12.337-.283.638-.487.905l.793.609zm.911-2.46c.02-.208.03-.422.03-.641h-1c0 .19-.009.372-.025.547l.995.094zm.03-.641v-.438h-1v.438h1zm0-1.313v-.874h-1v.875h1zm0-1.75v-.437h-1v.438h1zm0-.437c0-.257-.031-.51-.094-.756l-.969.248c.042.163.063.332.063.508h1zm-.789-2.072a4.575 4.575 0 00-.502-.51l-.658.753c.15.132.281.265.394.4l.766-.643zm-.49-.498a5.398 5.398 0 00-.58-.475l-.577.817c.161.114.319.243.474.388l.683-.73zm-1.95-1.14a4.361 4.361 0 00-.754-.147l-.104.994c.199.021.393.059.582.113l.276-.96zm-.306.35v-.044h-1v.044h1zm0-.131v-.044h-1v.044h1zm-.352.434c.193-.06.38-.133.56-.219l-.428-.903c-.137.065-.28.12-.428.166l.296.955zm1.56-.882c.147-.13.286-.27.418-.422l-.752-.658c-.106.12-.216.231-.33.332l.664.748zm.41-.413c.132-.143.25-.29.355-.443l-.824-.567a3.02 3.02 0 01-.268.334l.737.676zm.836-1.52c.044-.199.066-.4.066-.603h-1c0 .13-.014.259-.042.385l.976.217zm.066-.603v-.7h-1v.7h1zm0-2.1v-.7h-1v.7h1zm0-.7c0-.135-.003-.268-.009-.398l-.999.043c.005.115.008.233.008.355h1zm-.085-1.2a5.452 5.452 0 00-.182-.807l-.955.296c.062.2.112.42.149.661l.988-.15zm-.511-1.593a3.478 3.478 0 00-.234-.37l-.81.586c.06.083.116.171.168.266l.876-.482zm-.23-.364a3.412 3.412 0 00-.59-.645l-.648.762c.166.141.305.294.419.457l.819-.574zm-2.039-1.465a7.49 7.49 0 00-.767-.238l-.247.97c.239.06.461.13.665.205l.349-.937zm-.755-.234a9.024 9.024 0 00-.431-.11l-.222.976c.134.03.262.063.383.096l.27-.962zm-1.293-.27a17.297 17.297 0 00-.859-.108l-.1.995c.286.029.555.063.808.101l.151-.989zm-1.715-.178c-.274-.017-.559-.03-.854-.04l-.034.999c.286.01.561.023.825.04l.063-.999zm-1.707-.059a41.664 41.664 0 00-.425-.002v1c.14 0 .279 0 .415.002l.01-1zm-.425-.002h-.46v1h.46v-1zm-1.381 0h-.92v1h.92v-1zm-1.841 0h-.92v1h.92v-1zm-1.841 0h-.92v1h.92v-1zm-1.841 0h-.92v1h.92v-1zm-1.841 0h-.46v1h.46v-1zm8.745 9.24h-.468v1h.468v-1zm-1.405 0h-.936v1h.936v-1zm-1.872 0h-.468v1h.468v-1zm.032.5v-.446h-1v.446h1zm0-1.339v-.892h-1v.892h1zm0-1.785V7.51h-1v.89h1zm0-1.785V6.17h-1v.446h1zm-.5.054h.455v-1h-.455v1zm1.365 0h.91v-1h-.91v1zm1.82 0h.455v-1h-.455v1zm.455 0c.176 0 .341.002.497.006l.027-1a21.75 21.75 0 00-.524-.006v1zm1.463.074c.18.024.323.052.433.083l.268-.964a4.241 4.241 0 00-.569-.11l-.132.991zm.44.085c.076.02.143.042.201.065l.37-.93a2.803 2.803 0 00-.317-.103l-.254.968zm.486.239c.03.031.052.063.069.096l.894-.448a1.368 1.368 0 00-.247-.346l-.716.698zm.077.111a.878.878 0 01.068.178l.964-.268a1.87 1.87 0 00-.154-.388l-.878.478zm.141.675c.005.086.008.177.008.276h1c0-.116-.003-.227-.009-.334l-.999.058zm.008.276v.28h1v-.28h-1zm0 .84v.28h1v-.28h-1zm0 .28c0 .116-.003.225-.01.327l.998.062c.008-.125.012-.254.012-.389h-1zm-.101.932a1.387 1.387 0 01-.091.244l.894.448c.066-.132.119-.275.16-.425l-.963-.267zm-.098.258a.555.555 0 01-.076.12l.765.644a1.55 1.55 0 00.219-.345l-.908-.418zm-.351.322a1.57 1.57 0 01-.193.079l.316.948c.111-.037.217-.08.317-.128l-.44-.899zm-.193.079a2.706 2.706 0 01-.398.094l.167.986c.199-.034.382-.077.547-.132l-.316-.948zm-1.299.176a13.26 13.26 0 01-.468.008v1c.176 0 .344-.003.504-.008l-.036-1zm-.328 9.598h-.486v1h.486v-1zm-1.457 0h-.971v1h.971v-1zm-1.943 0h-.485v1h.485v-1zm.015.5v-.505h-1v.505h1zm0-1.514v-1.009h-1v1.01h1zm0-2.018v-1.01h-1v1.01h1zm0-2.018v-.505h-1v.505h1zm-.5-.005h.577v-1h-.577v1zm1.732 0h1.155v-1h-1.155v1zm2.31 0h.578v-1h-.578v1zm.578 0c.2 0 .386.006.559.018l.069-.997a9.066 9.066 0 00-.628-.021v1zm1.585.208c.167.062.286.131.37.201l.64-.768a2.239 2.239 0 00-.664-.371l-.346.938zm.38.21a.976.976 0 01.218.242l.841-.54a1.972 1.972 0 00-.439-.487l-.62.784zm.45.962c.016.13.025.273.025.43h1c0-.193-.011-.378-.033-.554l-.992.124zm.025.43v.455h1v-.455h-1zm0 1.365v.455h1v-.455h-1zm0 .455c0 .126-.012.237-.034.335l.976.217c.039-.177.058-.362.058-.552h-1zm-.319.847a1.25 1.25 0 01-.259.183l.476.88c.172-.094.329-.204.467-.334l-.684-.73zm-.259.183a2.428 2.428 0 01-.561.205l.243.97a3.4 3.4 0 00.794-.295l-.476-.88zm-1.898.379c-.218.01-.451.016-.699.016v1c.263 0 .512-.006.748-.017l-.049-1zM193.015 2.285v-1h-1v1h1zm14.21.49l-.27.963.011.003.012.003.247-.969zm2.52 1.505l-.819.573.004.007.005.007.81-.587zm-.035 7.455l-.737-.676-.008.009-.008.008.753.659zm-1.75 1.155l-.297-.955-.703.218v.737h1zm0 .175h-1v.9l.895.095.105-.995zm2.415 1.155l-.683.73.012.012.012.01.659-.752zm-1.085 9.625l-.464-.886.464.886zM193.015 25h-1v1h1v-1zm11.13-13.685l-.316-.949.316.949zm.84-.665l-.895-.447-.007.014-.006.014.908.419zm.035-3.71l-.895.447.008.016.009.016.878-.479zm-.875-.595l-.268.964.013.003.255-.967zm-5.67-.175v-1h-1v1h1zm0 5.355h-1v1h1v-1zm6.72 9.135l-.476-.88.476.88zm.175-5.075l-.64.768.01.009.01.008.62-.785zm-6.895-.525v-1h-1v1h1zm0 6.055h-1v1h1v-1zm-6.46-18.83v.516h2v-.516h-2zm0 1.549v1.032h2V3.834h-2zm0 2.065V6.93h2V5.9h-2zm0 2.065v1.032h2V7.964h-2zm0 2.065v1.032h2V10.03h-2zm0 2.065v1.032h2v-1.032h-2zm0 2.065v1.032h2V14.16h-2zm0 2.065v1.032h2v-1.032h-2zm0 2.065v1.032h2V18.29h-2zm0 2.065v1.032h2v-1.032h-2zm0 2.065v1.032h2V22.42h-2zm0 2.065V25h2v-.516h-2zm1 1.516h.472v-2h-.472v2zm1.417 0h.945v-2h-.945v2zm1.89 0h.945v-2h-.945v2zm1.89 0h.945v-2h-.945v2zm1.89 0h.945v-2h-.945v2zm1.89 0h.473v-2h-.473v2zm.473 0c.202 0 .402-.002.598-.005l-.033-2c-.185.003-.373.005-.565.005v2zm1.801-.047c.418-.024.821-.056 1.209-.096l-.21-1.99c-.352.038-.722.067-1.11.089l.111 1.997zm2.426-.263c.431-.074.84-.163 1.225-.265l-.515-1.933a11.7 11.7 0 01-1.049.227l.339 1.97zm2.453-.676c.212-.087.415-.181.609-.283l-.928-1.772a5.302 5.302 0 01-.445.207l.764 1.848zm.609-.283a5.64 5.64 0 00.617-.375l-1.146-1.638a3.683 3.683 0 01-.399.241l.928 1.772zm1.697-1.401c.304-.397.541-.838.711-1.316l-1.885-.67c-.103.29-.242.545-.413.77l1.587 1.216zm1.012-2.717c.021-.224.032-.454.032-.688h-2c0 .175-.008.342-.023.5l1.991.188zm.032-.688v-.438h-2v.438h2zm0-1.313v-.874h-2v.875h2zm0-1.75v-.437h-2v.438h2zm0-.437c0-.298-.036-.592-.11-.88l-1.938.496c.032.122.048.25.048.384h2zm-.906-2.393a5.013 5.013 0 00-.556-.565l-1.317 1.506c.134.116.246.231.34.344l1.533-1.285zm-.531-.542a5.916 5.916 0 00-.633-.518l-1.155 1.633c.141.1.282.214.422.345l1.366-1.46zm-2.153-1.256a4.891 4.891 0 00-.84-.164l-.21 1.99c.171.018.336.05.496.096l.554-1.922zm.055.831v-.044h-2v.044h2zm0-.131v-.044h-2v.044h2zm-.704.911a4.8 4.8 0 00.627-.244l-.857-1.807a2.693 2.693 0 01-.363.14l.593 1.911zM210 12.86c.163-.144.317-.3.462-.466l-1.505-1.318a3.196 3.196 0 01-.284.288L210 12.86zm.447-.45c.146-.158.279-.324.398-.496l-1.648-1.134c-.062.09-.136.183-.224.28l1.474 1.35zm.955-1.749a3.27 3.27 0 00.078-.711h-2c0 .094-.01.186-.03.277l1.952.434zm.078-.711v-.7h-2v.7h2zm0-2.1v-.7h-2v.7h2zm0-.7a9.67 9.67 0 00-.009-.42l-1.998.087c.004.107.007.218.007.333h2zm-.09-1.276a6.049 6.049 0 00-.199-.878l-1.911.59c.054.175.099.37.132.59l1.978-.302zm-.568-1.758a4.138 4.138 0 00-.267-.423l-1.62 1.174c.047.065.092.136.135.213l1.752-.964zm-.258-.41a3.902 3.902 0 00-.676-.739l-1.296 1.524c.136.115.245.237.334.362l1.638-1.146zM208.29 2.06a7.916 7.916 0 00-.818-.254l-.494 1.938c.223.057.427.12.613.19l.699-1.874zm-.796-.248a9.201 9.201 0 00-.455-.115l-.443 1.95a7.4 7.4 0 01.359.091l.539-1.926zm-1.352-.283c-.28-.043-.575-.08-.884-.11l-.201 1.99c.279.027.54.06.784.097l.301-1.977zm-1.759-.182a29.691 29.691 0 00-.869-.041l-.067 1.999c.282.01.552.022.81.038l.126-1.996zm-1.733-.06a42.212 42.212 0 00-.43-.002v2c.139 0 .276 0 .41.002l.02-2zm-.43-.002h-.46v2h.46v-2zm-1.381 0h-.92v2h.92v-2zm-1.841 0h-.92v2h.92v-2zm-1.841 0h-.92v2h.92v-2zm-1.841 0h-.92v2h.92v-2zm-1.841 0h-.46v2h.46v-2zm8.745 9.24h-.468v2h.468v-2zm-1.405 0h-.936v2h.936v-2zm-1.872 0h-.468v2h.468v-2zm.532 1v-.446h-2v.446h2zm0-1.339v-.892h-2v.892h2zm0-1.785V7.51h-2v.89h2zm0-1.785V6.17h-2v.446h2zm-1 .554h.455v-2h-.455v2zm1.365 0h.91v-2h-.91v2zm1.82 0h.455v-2h-.455v2zm.455 0c.172 0 .333.002.484.006l.053-2c-.17-.004-.349-.006-.537-.006v2zm1.398.07c.164.021.283.046.364.069l.535-1.928a4.685 4.685 0 00-.637-.124l-.262 1.983zm.377.072c.059.016.107.031.145.047l.739-1.859a3.268 3.268 0 00-.375-.122l-.509 1.934zm.255.105l-.008-.01a.202.202 0 01-.012-.02l1.789-.894a1.882 1.882 0 00-.336-.472l-1.433 1.396zm-.003.002l.002.004a.555.555 0 01.024.069l1.926-.537a2.347 2.347 0 00-.196-.494l-1.756.958zm.081.464c.005.075.007.157.007.247h2c0-.124-.003-.246-.01-.363l-1.997.116zm.007.247v.28h2v-.28h-2zm0 .84v.28h2v-.28h-2zm0 .28c0 .107-.003.206-.009.297l1.996.123c.009-.136.013-.276.013-.42h-2zm-.083.798a.8.8 0 01-.057.155l1.789.894c.083-.165.146-.338.195-.515l-1.927-.534zm-.07.183a.039.039 0 01-.005.008l1.531 1.286a2.04 2.04 0 00.29-.456l-1.816-.838zm-.117.082a1.034 1.034 0 01-.131.053l.632 1.898c.13-.043.257-.094.379-.154l-.88-1.797zm-.131.053a2.23 2.23 0 01-.323.076l.334 1.972c.217-.037.426-.085.621-.15l-.632-1.898zm-1.159.151c-.14.005-.29.008-.45.008v2c.181 0 .355-.003.521-.009l-.071-1.999zm-.31 9.598h-.486v2h.486v-2zm-1.457 0h-.971v2h.971v-2zm-1.943 0h-.485v2h.485v-2zm.515 1v-.505h-2v.505h2zm0-1.514v-1.009h-2v1.01h2zm0-2.018v-1.01h-2v1.01h2zm0-2.018v-.505h-2v.505h2zm-1 .495h.577v-2h-.577v2zm1.732 0h1.155v-2h-1.155v2zm2.31 0h.578v-2h-.578v2zm.578 0c.19 0 .365.006.524.017l.139-1.995a9.577 9.577 0 00-.663-.022v2zm1.411.177c.127.047.193.09.224.116l1.28-1.536a2.747 2.747 0 00-.811-.456l-.693 1.876zm.244.133a.47.47 0 01.107.12l1.683-1.08a2.475 2.475 0 00-.55-.61l-1.24 1.57zm.264.632c.013.107.021.23.021.368h2c0-.21-.012-.417-.037-.616l-1.984.248zm.021.368v.455h2v-.455h-2zm0 1.365v.455h2v-.455h-2zm0 .455c0 .094-.009.168-.022.227l1.952.434c.048-.217.07-.438.07-.661h-2zm-.161.482a.73.73 0 01-.155.109l.952 1.758c.206-.111.398-.246.571-.408l-1.368-1.46zm-.155.109a1.95 1.95 0 01-.444.159l.485 1.94c.325-.081.634-.19.911-.34l-.952-1.76zm-1.684.318c-.209.01-.434.016-.675.016v2c.27 0 .528-.006.773-.018l-.098-1.998zm15.872-17.814v-.5h-.5v.5h.5zm5.46 0h.5v-.5h-.5v.5zm0 9.1h-.5v.5h.5v-.5zm9.66 0v.5h.5v-.5h-.5zm0-9.1v-.5h-.5v.5h.5zm5.46 0h.5v-.5h-.5v.5zm0 22.715v.5h.5V25h-.5zm-5.46 0h-.5v.5h.5V25zm0-9.73h.5v-.5h-.5v.5zm-9.66 0v-.5h-.5v.5h.5zm0 9.73v.5h.5V25h-.5zm-5.46 0h-.5v.5h.5V25zm-.5-22.715v.516h1v-.516h-1zm0 1.549v1.032h1V3.834h-1zm0 2.065V6.93h1V5.9h-1zm0 2.065v1.032h1V7.964h-1zm0 2.065v1.032h1V10.03h-1zm0 2.065v1.032h1v-1.032h-1zm0 2.065v1.032h1V14.16h-1zm0 2.065v1.032h1v-1.032h-1zm0 2.065v1.032h1V18.29h-1zm0 2.065v1.032h1v-1.032h-1zm0 2.065v1.032h1V22.42h-1zm0 2.065V25h1v-.516h-1zm.5 1.016h.455v-1h-.455v1zm1.365 0h.91v-1h-.91v1zm1.82 0h.91v-1h-.91v1zm1.82 0h.455v-1h-.455v1zm.955-.5v-.486h-1V25h1zm0-1.46v-.973h-1v.974h1zm0-1.945v-.973h-1v.973h1zm0-1.947v-.973h-1v.973h1zm0-1.945v-.973h-1v.973h1zm0-1.946v-.487h-1v.487h1zm-.5.013h.483v-1h-.483v1zm1.449 0h.966v-1h-.966v1zm1.932 0h.966v-1h-.966v1zm1.932 0h.966v-1h-.966v1zm1.932 0h.966v-1h-.966v1zm1.932 0h.483v-1h-.483v1zm-.017-.5v.487h1v-.487h-1zm0 1.46v.973h1v-.973h-1zm0 1.945v.973h1v-.973h-1zm0 1.947v.973h1v-.973h-1zm0 1.945v.974h1v-.974h-1zm0 1.947V25h1v-.486h-1zm.5.986h.455v-1h-.455v1zm1.365 0h.91v-1h-.91v1zm1.82 0h.91v-1h-.91v1zm1.82 0h.455v-1h-.455v1zm.955-.5v-.516h-1V25h1zm0-1.549V22.42h-1v1.032h1zm0-2.065v-1.032h-1v1.032h1zm0-2.065V18.29h-1v1.032h1zm0-2.065v-1.032h-1v1.032h1zm0-2.065V14.16h-1v1.032h1zm0-2.065v-1.032h-1v1.032h1zm0-2.065V10.03h-1v1.032h1zm0-2.065V7.964h-1v1.032h1zm0-2.065V5.9h-1v1.03h1zm0-2.065V3.834h-1v1.032h1zm0-2.065v-.516h-1v.516h1zm-.5-1.016h-.455v1h.455v-1zm-1.365 0h-.91v1h.91v-1zm-1.82 0h-.91v1h.91v-1zm-1.82 0h-.455v1h.455v-1zm-.955.5v.455h1v-.455h-1zm0 1.365v.91h1v-.91h-1zm0 1.82v.91h1v-.91h-1zm0 1.82v.91h1v-.91h-1zm0 1.82v.91h1v-.91h-1zm0 1.82v.455h1v-.455h-1zm.5-.045h-.483v1h.483v-1zm-1.449 0h-.966v1h.966v-1zm-1.932 0h-.966v1h.966v-1zm-1.932 0h-.966v1h.966v-1zm-1.932 0h-.966v1h.966v-1zm-1.932 0h-.483v1h.483v-1zm.017.5v-.455h-1v.455h1zm0-1.365v-.91h-1v.91h1zm0-1.82v-.91h-1v.91h1zm0-1.82v-.91h-1v.91h1zm0-1.82v-.91h-1v.91h1zm0-1.82v-.455h-1v.455h1zm-.5-.955h-.455v1h.455v-1zm-1.365 0h-.91v1h.91v-1zm-1.82 0h-.91v1h.91v-1zm-1.82 0h-.455v1h.455v-1zm-.455.5v-1h-1v1h1zm5.46 0h1v-1h-1v1zm0 9.1h-1v1h1v-1zm9.66 0v1h1v-1h-1zm0-9.1v-1h-1v1h1zm5.46 0h1v-1h-1v1zm0 22.715v1h1v-1h-1zm-5.46 0h-1v1h1v-1zm0-9.73h1v-1h-1v1zm-9.66 0v-1h-1v1h1zm0 9.73v1h1v-1h-1zm-5.46 0h-1v1h1v-1zm-1-22.715v.516h2v-.516h-2zm0 1.549v1.032h2V3.834h-2zm0 2.065V6.93h2V5.9h-2zm0 2.065v1.032h2V7.964h-2zm0 2.065v1.032h2V10.03h-2zm0 2.065v1.032h2v-1.032h-2zm0 2.065v1.032h2V14.16h-2zm0 2.065v1.032h2v-1.032h-2zm0 2.065v1.032h2V18.29h-2zm0 2.065v1.032h2v-1.032h-2zm0 2.065v1.032h2V22.42h-2zm0 2.065V25h2v-.516h-2zm1 1.516h.455v-2h-.455v2zm1.365 0h.91v-2h-.91v2zm1.82 0h.91v-2h-.91v2zm1.82 0h.455v-2h-.455v2zm1.455-1v-.486h-2V25h2zm0-1.46v-.973h-2v.974h2zm0-1.945v-.973h-2v.973h2zm0-1.947v-.973h-2v.973h2zm0-1.945v-.973h-2v.973h2zm0-1.946v-.487h-2v.487h2zm-1 .513h.483v-2h-.483v2zm1.449 0h.966v-2h-.966v2zm1.932 0h.966v-2h-.966v2zm1.932 0h.966v-2h-.966v2zm1.932 0h.966v-2h-.966v2zm1.932 0h.483v-2h-.483v2zm-.517-1v.487h2v-.487h-2zm0 1.46v.973h2v-.973h-2zm0 1.945v.973h2v-.973h-2zm0 1.947v.973h2v-.973h-2zm0 1.945v.974h2v-.974h-2zm0 1.947V25h2v-.486h-2zm1 1.486h.455v-2h-.455v2zm1.365 0h.91v-2h-.91v2zm1.82 0h.91v-2h-.91v2zm1.82 0h.455v-2h-.455v2zm1.455-1v-.516h-2V25h2zm0-1.549V22.42h-2v1.032h2zm0-2.065v-1.032h-2v1.032h2zm0-2.065V18.29h-2v1.032h2zm0-2.065v-1.032h-2v1.032h2zm0-2.065V14.16h-2v1.032h2zm0-2.065v-1.032h-2v1.032h2zm0-2.065V10.03h-2v1.032h2zm0-2.065V7.964h-2v1.032h2zm0-2.065V5.9h-2v1.03h2zm0-2.065V3.834h-2v1.032h2zm0-2.065v-.516h-2v.516h2zm-1-1.516h-.455v2h.455v-2zm-1.365 0h-.91v2h.91v-2zm-1.82 0h-.91v2h.91v-2zm-1.82 0h-.455v2h.455v-2zm-1.455 1v.455h2v-.455h-2zm0 1.365v.91h2v-.91h-2zm0 1.82v.91h2v-.91h-2zm0 1.82v.91h2v-.91h-2zm0 1.82v.91h2v-.91h-2zm0 1.82v.455h2v-.455h-2zm1-.545h-.483v2h.483v-2zm-1.449 0h-.966v2h.966v-2zm-1.932 0h-.966v2h.966v-2zm-1.932 0h-.966v2h.966v-2zm-1.932 0h-.966v2h.966v-2zm-1.932 0h-.483v2h.483v-2zm.517 1v-.455h-2v.455h2zm0-1.365v-.91h-2v.91h2zm0-1.82v-.91h-2v.91h2zm0-1.82v-.91h-2v.91h2zm0-1.82v-.91h-2v.91h2zm0-1.82v-.455h-2v.455h2zm-1-1.455h-.455v2h.455v-2zm-1.365 0h-.91v2h.91v-2zm-1.82 0h-.91v2h.91v-2zm-1.82 0h-.455v2h.455v-2zm35.439 23.82l-.077.494h.001l.076-.494zm-3.291-.84l.164-.472-.003-.001-.161.473zm-2.905-2.03l-.403.295.004.005.399-.3zm-.314-16.415l-.433-.25-.005.008.438.242zm1.96-2.1l-.268-.422-.004.002.272.42zm2.589-1.12l.142.48-.142-.48zm2.871-.56l.039.498h.003l-.042-.498zm5.389.035l-.058.497h.007l.008.001.043-.498zm2.66.49l.141-.48-.014-.004-.127.484zm2.766 1.19l.271-.42-.271.42zm1.82 1.96l-.432.252.002.004.43-.256zm-.246 16.31l-.401-.298-.005.006.406.292zm-2.729 2.065l-.186-.464.186.464zm-5.075-2.695l.045.498h.009l.01-.002-.064-.496zm1.644-.35l-.139-.48.139.48zm1.261-.805l-.398-.304-.002.004.4.3zm-.84-13.72l-.238.44.009.005.229-.445zm-8.05-.035l-.229-.445.229.445zm-.84 13.755l-.398.304.005.006.004.005.389-.315zm1.33.805l.14-.48-.006-.002-.134.482zm1.609.35l-.067.495.012.002.012.001.043-.498zm1.891 3.455c-.146 0-.289-.001-.432-.003l-.015 1c.147.002.296.003.447.003v-1zm-1.293-.03a22.949 22.949 0 01-.857-.058l-.086.996c.293.025.591.045.895.06l.048-.999zm-1.709-.15a18.27 18.27 0 01-.423-.06l-.151.99c.147.022.296.043.446.062l.128-.992zm-.422-.06c-.134-.02-.269-.043-.406-.068l-.179.984c.144.026.288.05.432.073l.153-.988zm-1.213-.236a18.969 18.969 0 01-.802-.207l-.271.962c.284.08.566.153.845.218l.228-.973zm-1.596-.449c-.13-.042-.262-.087-.394-.132l-.327.944c.137.048.275.094.411.139l.31-.95zm-.397-.133a6.817 6.817 0 01-.393-.147l-.378.925c.146.06.296.116.45.168l.321-.946zm-1.139-.512a5.338 5.338 0 01-.678-.465l-.629.778c.251.203.52.387.806.552l.501-.865zm-1.268-1.028a4.944 4.944 0 01-.258-.317l-.8.6c.098.131.201.258.31.38l.748-.663zm-.255-.312a4.985 4.985 0 01-.231-.347l-.856.517c.087.144.18.284.28.42l.807-.59zm-.596-1.094a5.126 5.126 0 01-.234-.804l-.98.201c.069.333.162.654.281.962l.933-.359zm-.344-1.646a6.71 6.71 0 01-.013-.43h-1c0 .166.004.33.014.491l.999-.061zm-.013-.43v-.497h-1v.497h1zm0-1.491v-.994h-1v.994h1zm0-1.988v-.994h-1v.994h1zm0-1.988v-.994h-1v.994h1zm0-1.988v-.994h-1v.994h1zm0-1.988V8.83h-1v.497h1zm0-.497a7.3 7.3 0 01.009-.365l-.999-.053c-.007.138-.01.277-.01.418h1zm.088-1.085c.042-.24.097-.473.166-.699l-.955-.294a6.409 6.409 0 00-.196.824l.985.169zm.422-1.365c.051-.108.104-.214.162-.318l-.875-.484a6.074 6.074 0 00-.193.38l.906.422zm.157-.31c.115-.198.237-.386.366-.563l-.808-.59c-.15.207-.291.425-.423.652l.865.502zm1.268-1.537c.169-.142.346-.273.531-.393l-.543-.84c-.221.143-.432.3-.633.47l.645.763zm.527-.39a7.23 7.23 0 01.575-.328l-.456-.89c-.23.118-.448.242-.654.373l.535.844zm1.815-.854c.208-.073.424-.143.649-.21l-.283-.959c-.241.072-.473.147-.698.226l.332.943zm.649-.21c.233-.068.462-.13.686-.187l-.243-.97c-.238.06-.48.126-.726.198l.283.96zm2.072-.463c.237-.034.469-.06.696-.078l-.079-.996c-.248.02-.502.047-.759.084l.142.99zm.699-.078c.208-.018.42-.033.635-.046l-.062-.999c-.222.014-.442.03-.658.049l.085.996zm1.909-.097c.21-.004.423-.006.639-.006v-1c-.222 0-.442.002-.658.006l.019 1zm.639-.006c.237 0 .467.002.69.007l.021-1c-.23-.005-.467-.007-.711-.007v1zm2.063.071c.238.019.464.04.678.066l.117-.994c-.229-.027-.468-.05-.718-.069l-.077.997zm.693.067c.207.018.422.043.645.075l.142-.99c-.24-.034-.473-.061-.7-.081l-.087.996zm1.935.318c.209.048.423.1.642.158l.253-.968c-.229-.06-.453-.115-.673-.165l-.222.975zm.629.154c.119.035.235.07.349.107l.303-.954a17.226 17.226 0 00-.372-.113l-.28.96zm1.036.345c.235.09.456.182.665.278l.419-.908a11.444 11.444 0 00-.728-.305l-.356.935zm1.297.603c.105.06.205.12.3.182l.543-.84a8.075 8.075 0 00-.346-.21l-.497.868zm.3.182c.17.11.333.23.489.363l.648-.761a5.593 5.593 0 00-.594-.442l-.543.84zm1.319 1.268c.119.164.233.339.341.524l.863-.504a7.108 7.108 0 00-.395-.607l-.809.587zm.343.528c.062.104.119.21.173.32l.899-.438a5.58 5.58 0 00-.213-.394l-.859.512zm.442 1.003c.071.23.127.471.169.724l.987-.163a6.652 6.652 0 00-.2-.856l-.956.295zm.248 1.475c.006.124.01.251.01.381h1c0-.146-.004-.29-.011-.43l-.999.049zm.01.381v.497h1V8.83h-1zm0 1.491v.994h1v-.994h-1zm0 1.988v.994h1v-.994h-1zm0 1.988v.994h1v-.994h-1zm0 1.988v.994h1v-.994h-1zm0 1.988v.497h1v-.497h-1zm0 .497c0 .137-.005.27-.013.401l.998.065a7.16 7.16 0 00.015-.466h-1zm-.121 1.188a4.77 4.77 0 01-.226.75l.929.369c.116-.292.207-.596.275-.91l-.978-.21zm-.576 1.445c-.068.11-.141.218-.22.324l.803.596a5.92 5.92 0 00.268-.394l-.851-.526zm-.225.33a4.9 4.9 0 01-.242.312l.764.645c.102-.12.199-.245.291-.373l-.813-.584zm-.797.873c-.196.17-.408.328-.637.473l.538.843c.268-.17.519-.357.754-.56l-.655-.756zm-1.341.859a7.13 7.13 0 01-.371.16l.371.93c.145-.059.287-.12.425-.185l-.425-.905zm-.371.16c-.135.055-.271.107-.409.157l.345.939c.146-.054.291-.11.435-.167l-.371-.928zm-1.238.436c-.277.085-.559.163-.845.234l.242.97c.302-.075.601-.157.895-.247l-.292-.957zm-1.702.425c-.285.055-.573.105-.867.148l.146.99c.308-.046.613-.098.913-.157l-.192-.981zm-1.74.256c-.29.03-.583.053-.88.07l.059.998c.311-.018.618-.042.921-.073l-.1-.995zm-1.762.104a24.04 24.04 0 01-.442.004v1c.154 0 .308-.001.461-.004l-.019-1zm-.372-3.881c-.167 0-.328-.001-.484-.003l-.014 1c.16.002.326.003.498.003v-1zm-1.444-.035c-.168-.01-.325-.02-.473-.033l-.087.996c.16.014.328.026.505.036l.055-.999zm-.449-.03a9.006 9.006 0 01-.386-.062l-.177.985c.144.026.287.048.428.067l.135-.99zm-1.155-.23a11.664 11.664 0 01-.382-.105l-.28.96c.138.04.276.078.413.113l.249-.968zm-.388-.107a3.035 3.035 0 01-.321-.108l-.375.927c.136.055.278.103.427.144l.269-.962zm-.867-.427a1.552 1.552 0 01-.209-.211l-.777.63a2.6 2.6 0 00.346.35l.64-.769zm-.2-.2a1.582 1.582 0 01-.158-.252l-.894.449c.073.145.159.282.257.41l.795-.607zm-.332-.84a2.415 2.415 0 01-.02-.326h-1c0 .155.009.307.028.456l.992-.13zm-.02-.326v-.499h-1v.499h1zm0-1.496v-.998h-1v.998h1zm0-1.995v-.998h-1v.998h1zm0-1.995v-.998h-1v.998h1zm0-1.995v-.998h-1v.998h1zm0-1.995v-.499h-1v.499h1zm0-.499c0-.22.019-.417.056-.595l-.979-.203c-.053.253-.077.52-.077.798h1zm.565-1.547c.126-.119.277-.225.458-.318l-.457-.89a2.975 2.975 0 00-.688.481l.687.727zm.458-.318c.123-.063.26-.123.413-.178l-.34-.94a4.54 4.54 0 00-.53.228l.457.89zm1.329-.419c.293-.055.617-.099.971-.13l-.089-.996a11.22 11.22 0 00-1.067.143l.185.983zm1.966-.185c.162-.004.33-.006.502-.006v-1c-.18 0-.356.002-.527.006l.025 1zm.502-.006c.172 0 .339.002.502.006l.026-1a20.196 20.196 0 00-.528-.006v1zm1.497.064c.354.033.677.08.97.137l.194-.98a10.684 10.684 0 00-1.07-.153l-.094.996zm1.881.39c.151.058.287.12.409.186l.475-.88a4.423 4.423 0 00-.528-.24l-.356.934zm.418.19a2 2 0 01.456.315l.681-.732a3.023 3.023 0 00-.68-.472l-.457.89zm.966 1.247c.038.174.058.369.058.584h1c0-.277-.026-.541-.079-.793l-.979.209zm.058.584v.499h1v-.499h-1zm0 1.496v.998h1v-.998h-1zm0 1.995v.998h1v-.998h-1zm0 1.995v.998h1v-.998h-1zm0 1.995v.998h1v-.998h-1zm0 1.995v.499h1v-.499h-1zm0 .499c0 .115-.007.224-.021.326l.992.13c.019-.149.029-.3.029-.456h-1zm-.195.914a1.514 1.514 0 01-.158.252l.795.608a2.64 2.64 0 00.257-.411l-.894-.449zm-.16.256a1.485 1.485 0 01-.19.206l.665.747a2.36 2.36 0 00.324-.353l-.799-.6zm-.697.518c-.093.04-.194.075-.303.107l.28.96c.143-.042.282-.09.413-.147l-.39-.92zm-.303.107a12.66 12.66 0 01-.39.106l.246.97c.141-.036.282-.075.424-.116l-.28-.96zm-1.175.274a9.365 9.365 0 01-.395.06l.129.992c.145-.02.291-.041.437-.066l-.171-.986zm-.376.058c-.143.013-.297.024-.463.034l.056.998c.176-.01.342-.022.498-.036l-.091-.996zm-1.405.065c-.152.002-.31.003-.474.003v1c.168 0 .331-.001.488-.003l-.014-1zm-4.044 4.143l-.154.988h.003l.151-.988zm-3.291-.84l.328-.945-.006-.002-.322.947zm-2.905-2.03l-.807.59.008.01.799-.6zm-.314-16.415l-.866-.501-.005.009-.005.008.876.484zm1.96-2.1l-.536-.845-.008.005.544.84zm2.589-1.12l.284.959-.284-.959zm2.871-.56l.078.997h.007l-.085-.997zm5.389.035l-.116.993.014.002.015.001.087-.996zm2.66.49l.28-.96-.013-.004-.013-.003-.254.967zm2.766 1.19l.542-.84-.542.84zm1.82 1.96l-.864.504.004.007.86-.511zm-.246 16.31l-.802-.597-.005.007-.005.007.812.583zm-2.729 2.065l-.372-.928.372.928zm-5.075-2.695l.09.996.019-.002.02-.002-.129-.992zm1.644-.35l-.28-.96.28.96zm1.261-.805l-.795-.607-.005.007.8.6zm-.84-13.72l-.476.88.009.005.01.005.457-.89zm-8.05-.035l-.457-.89.457.89zm-.84 13.755l-.795.608.009.011.009.012.777-.631zm1.33.805l.28-.96-.011-.003-.269.963zm1.609.35l-.135.99.025.004.024.002.086-.996zm1.891 2.955c-.143 0-.284-.001-.424-.003l-.031 2c.15.002.302.003.455.003v-2zm-1.268-.03a22.7 22.7 0 01-.839-.057l-.172 1.993c.299.026.603.046.913.061l.098-1.997zm-1.67-.146a17.865 17.865 0 01-.412-.058l-.301 1.978c.151.023.303.044.457.064l.256-1.984zm-.409-.057a15.08 15.08 0 01-.393-.067l-.359 1.968c.149.027.297.052.445.075l.307-1.976zm-1.176-.23c-.257-.06-.517-.127-.78-.202l-.543 1.925c.291.082.58.157.867.224l.456-1.947zm-1.555-.437a22.97 22.97 0 01-.385-.13l-.655 1.89c.141.049.281.096.42.141l.62-1.901zm-.391-.132a6.365 6.365 0 01-.365-.136l-.756 1.851c.156.064.315.124.478.179l.643-1.894zm-1.05-.47a4.766 4.766 0 01-.613-.421l-1.258 1.555c.271.22.561.418.869.596l1.002-1.73zm-1.144-.928a4.457 4.457 0 01-.232-.285l-1.6 1.2c.106.142.218.28.336.412l1.496-1.327zm-.225-.276a4.17 4.17 0 01-.207-.31l-1.712 1.035c.095.156.196.309.304.457l1.615-1.181zm-.533-.977a4.537 4.537 0 01-.211-.726l-1.959.403c.074.359.174.706.303 1.04l1.867-.717zm-.312-1.498a6.475 6.475 0 01-.012-.399h-2c0 .176.005.35.015.522l1.997-.123zm-.012-.399v-.497h-2v.497h2zm0-1.491v-.994h-2v.994h2zm0-1.988v-.994h-2v.994h2zm0-1.988v-.994h-2v.994h2zm0-1.988v-.994h-2v.994h2zm0-1.988V8.83h-2v.497h2zm0-.497c0-.115.002-.228.008-.339l-1.997-.105a8.17 8.17 0 00-.011.444h2zm.081-1c.038-.22.088-.432.151-.636l-1.911-.589a7.077 7.077 0 00-.211.887l1.971.337zm.383-1.239a4.53 4.53 0 01.146-.287l-1.751-.968a6.401 6.401 0 00-.208.41l1.813.845zm.136-.27a5.83 5.83 0 01.338-.52l-1.617-1.178a7.846 7.846 0 00-.452.696l1.731 1.002zm1.157-1.406a4.77 4.77 0 01.481-.355l-1.087-1.68a6.891 6.891 0 00-.684.507l1.29 1.528zm.473-.35c.165-.105.343-.207.535-.305l-.912-1.78a8.874 8.874 0 00-.694.395l1.071 1.69zm1.713-.804c.199-.07.407-.138.625-.202l-.567-1.918c-.248.073-.489.15-.722.233l.664 1.887zm.625-.202c.226-.067.448-.128.666-.182l-.486-1.94c-.246.061-.495.13-.747.204l.567 1.918zm2.001-.448c.227-.032.449-.057.664-.074l-.157-1.994c-.26.02-.524.05-.791.088l.284 1.98zm.671-.075c.204-.017.412-.032.622-.045l-.123-1.997c-.226.014-.449.03-.67.05l.171 1.992zm1.875-.095c.207-.004.417-.006.63-.006v-2c-.225 0-.448.002-.668.006l.038 2zm.63-.006c.234 0 .461.002.68.007l.041-2a34.789 34.789 0 00-.721-.007v2zm2.025.07c.231.018.45.039.658.063l.233-1.986a18.423 18.423 0 00-.738-.071l-.153 1.994zm.687.066c.197.018.403.042.618.072l.284-1.98c-.248-.035-.49-.063-.727-.084l-.175 1.992zm1.867.308c.204.046.413.097.627.153l.507-1.934a22.635 22.635 0 00-.688-.17l-.446 1.95zm.6.146c.116.034.229.068.339.103l.606-1.906c-.126-.04-.254-.079-.385-.117l-.56 1.92zm1 .333c.224.085.435.173.632.264l.838-1.816a11.88 11.88 0 00-.76-.318l-.71 1.87zm1.226.569c.097.055.189.112.277.168l1.085-1.68a8.3 8.3 0 00-.368-.224l-.994 1.736zm.277.168c.151.098.296.205.436.324l1.296-1.523a6.21 6.21 0 00-.647-.481l-1.085 1.68zm1.185 1.142c.109.15.214.31.314.482l1.727-1.008a7.66 7.66 0 00-.422-.649l-1.619 1.175zm.318.49c.055.091.106.186.154.284l1.797-.878a6.12 6.12 0 00-.232-.43l-1.719 1.023zm.394.895c.064.207.116.426.154.658l1.973-.326a6.914 6.914 0 00-.216-.922l-1.911.59zm.227 1.352c.006.116.009.234.009.356h2a8.59 8.59 0 00-.012-.456l-1.997.1zm.009.356v.497h2V8.83h-2zm0 1.491v.994h2v-.994h-2zm0 1.988v.994h2v-.994h-2zm0 1.988v.994h2v-.994h-2zm0 1.988v.994h2v-.994h-2zm0 1.988v.497h2v-.497h-2zm0 .497c0 .126-.004.249-.012.369l1.996.13c.01-.165.016-.331.016-.499h-2zm-.11 1.082c-.05.236-.118.459-.202.67l1.859.74c.126-.32.226-.65.299-.99l-1.956-.42zm-.513 1.289c-.06.098-.125.193-.195.287l1.605 1.194c.104-.14.201-.283.292-.43l-1.702-1.051zm-.205.3a4.58 4.58 0 01-.218.281l1.528 1.29c.11-.13.215-.265.315-.404l-1.625-1.166zm-.718.787c-.177.153-.37.297-.578.43l1.074 1.686c.289-.183.56-.385.813-.604l-1.309-1.512zm-1.226.784a6.29 6.29 0 01-.345.15l.743 1.857a9.15 9.15 0 00.451-.196l-.849-1.811zm-.345.15c-.13.052-.262.102-.395.151l.69 1.877c.15-.055.3-.112.448-.172l-.743-1.857zm-1.199.421a14.9 14.9 0 01-.819.227l.483 1.941c.312-.078.619-.163.922-.255l-.586-1.913zm-1.651.412c-.277.054-.558.102-.843.144l.29 1.98c.317-.047.629-.1.938-.161l-.385-1.963zm-1.695.25c-.282.028-.568.05-.858.068l.117 1.996c.318-.018.632-.043.942-.075l-.201-1.99zm-1.721.1c-.143.004-.287.005-.432.005v2c.157 0 .314-.002.47-.004l-.038-2zm-.362-3.88c-.165 0-.324-.001-.477-.003l-.028 2c.163.002.331.003.505.003v-2zm-1.416-.034c-.164-.01-.316-.02-.458-.032l-.173 1.992c.165.015.339.027.521.037l.11-1.997zm-.409-.027a8.798 8.798 0 01-.366-.058l-.353 1.969c.15.027.3.05.448.07l.271-1.98zm-1.099-.218a10.946 10.946 0 01-.366-.101l-.56 1.92c.143.042.286.081.428.118l.498-1.937zm-.377-.104a2.538 2.538 0 01-.268-.09l-.751 1.853c.155.063.315.117.48.163l.539-1.926zm-.681-.33a.987.987 0 01-.142-.143l-1.553 1.262c.124.152.262.291.413.417l1.282-1.535zm-.124-.12a1.015 1.015 0 01-.108-.172l-1.788.897c.087.173.19.337.307.49l1.589-1.215zm-.233-.6a1.92 1.92 0 01-.016-.262h-2c0 .175.01.35.032.52l1.984-.258zm-.016-.262v-.499h-2v.499h2zm0-1.496v-.998h-2v.998h2zm0-1.995v-.998h-2v.998h2zm0-1.995v-.998h-2v.998h2zm0-1.995v-.998h-2v.998h2zm0-1.995v-.499h-2v.499h2zm0-.499c0-.19.017-.353.046-.494l-1.959-.405c-.06.29-.087.59-.087.899h2zm.408-1.183a1.48 1.48 0 01.343-.237l-.913-1.78a3.468 3.468 0 00-.803.563l1.373 1.454zm.343-.237a2.97 2.97 0 01.355-.153l-.679-1.88a5.018 5.018 0 00-.589.253l.913 1.78zm1.193-.373c.275-.051.583-.093.923-.123l-.177-1.992c-.395.035-.767.084-1.115.15l.369 1.965zm1.886-.176c.158-.004.321-.006.49-.006v-2c-.184 0-.364.002-.54.007l.05 1.999zm.49-.006c.168 0 .331.002.489.006l.052-2a20.663 20.663 0 00-.541-.006v2zm1.45.062c.34.032.646.076.92.13l.388-1.962c-.35-.07-.724-.122-1.12-.16l-.188 1.992zm1.75.36c.133.05.249.103.349.158l.951-1.76a4.92 4.92 0 00-.588-.267l-.712 1.869zm.368.168c.143.073.255.153.344.235l1.361-1.464a3.502 3.502 0 00-.792-.55l-.913 1.779zm.705.905a2.3 2.3 0 01.047.48h2c0-.307-.029-.607-.09-.897l-1.957.417zm.047.48v.499h2v-.499h-2zm0 1.496v.998h2v-.998h-2zm0 1.995v.998h2v-.998h-2zm0 1.995v.998h2v-.998h-2zm0 1.995v.998h2v-.998h-2zm0 1.995v.499h2v-.499h-2zm0 .499c0 .095-.006.182-.017.262l1.984.258c.022-.17.033-.345.033-.52h-2zm-.142.69c-.03.06-.066.118-.108.172l1.589 1.215c.117-.153.22-.317.307-.49l-1.788-.897zm-.113.18a.932.932 0 01-.123.133l1.33 1.493c.145-.129.276-.27.393-.426l-1.6-1.2zm-.493.358a2.15 2.15 0 01-.248.087l.561 1.92c.161-.047.318-.102.469-.166l-.782-1.841zm-.248.087c-.124.036-.248.07-.371.101l.491 1.939c.147-.037.293-.077.441-.12l-.561-1.92zm-1.119.261a8.517 8.517 0 01-.375.057l.259 1.984c.152-.02.304-.043.457-.07l-.341-1.97zm-.336.053c-.136.012-.285.023-.446.032l.112 1.997c.181-.01.353-.022.515-.037l-.181-1.992zm-1.367.063c-.149.002-.305.003-.467.003v2c.17 0 .336-.001.495-.003l-.028-2z" fill="#77C2F9" fill-opacity=".9"/></svg>