<svg width="570" height="53" fill="none" xmlns="http://www.w3.org/2000/svg"><path d="M.22 51.112h-.5v.408l.4.082.1-.49zm0-8.732l.113-.487-.613-.142v.629h.5zm26.27-10.952h.5v-.5h-.5v.5zm-19.758 0h-.5v.5h.5v-.5zm0-8.214v-.5h-.5v.5h.5zm19.758 0v.5h.5v-.5h-.5zm-1.628-9.768l-.317.387.317-.387zm-3.848-1.628l-.082.493.008.002h.008l.066-.495zM.96 13.594h-.5v.63l.613-.143-.113-.487zm0-8.658l-.092-.491-.408.076v.415h.5zm27.454-.666l-.112.487.008.002.104-.489zm7.03 4.144l-.392.31.008.01.384-.32zm1.11 36.482l.434.248.003-.005-.437-.243zm-3.848 4.144l.27.42.004-.002-.274-.418zm-7.622 2.886l.089.492.008-.001-.097-.491zm-9.324.314c-.323 0-.647-.002-.971-.007l-.014 1c.329.005.657.007.985.007v-1zm-2.914-.06a73.618 73.618 0 01-1.94-.104l-.067.998c.657.044 1.313.08 1.967.106l.04-1zm-3.877-.26a76.464 76.464 0 01-1.933-.205l-.118.993c.654.078 1.307.147 1.958.208l.093-.996zm-3.86-.46a80.14 80.14 0 01-1.921-.3l-.167.986c.65.11 1.298.211 1.945.305l.143-.99zm-3.835-.647a83.493 83.493 0 01-.953-.19l-.202.979c.322.066.644.13.965.192l.19-.981zm-.554.299V50.02h-1v1.092h1zm0-3.275v-2.183h-1v2.183h1zm0-4.366V42.38h-1v1.091h1zm-.613-.604c.3.07.597.138.89.204l.22-.976a147.84 147.84 0 01-.884-.202l-.226.974zm2.672.594c.612.129 1.208.25 1.789.364l.192-.982a114.36 114.36 0 01-1.774-.36l-.207.978zm3.586.698c.621.109 1.223.208 1.805.296l.15-.988a79.395 79.395 0 01-1.782-.293l-.173.985zm3.62.547c.636.078 1.244.142 1.826.192l.085-.997a48.207 48.207 0 01-1.79-.187l-.121.992zm3.666.304c.318.01.627.016.925.016v-1c-.287 0-.584-.005-.891-.016l-.034 1zm.925.016c.328 0 .65-.004.964-.011l-.023-1c-.307.007-.62.011-.941.011v1zm2.89-.108c.677-.054 1.32-.129 1.926-.225l-.156-.987a24.37 24.37 0 01-1.85.215l.08.997zm3.84-.627c.68-.185 1.302-.406 1.866-.664l-.417-.91c-.507.233-1.077.436-1.712.608l.262.966zm3.591-1.72A5.68 5.68 0 0026.246 41l-.868-.497c-.274.478-.643.91-1.114 1.295l.633.774zm2.02-3.535c.049-.33.073-.67.073-1.022h-1c0 .305-.021.597-.063.874l.99.148zm.073-1.022v-.823h-1v.823h1zm0-2.47v-1.646h-1v1.646h1zm0-3.293v-.823h-1v.823h1zm-.5-1.323h-.988v1h.988v-1zm-2.964 0H21.55v1h1.976v-1zm-3.951 0h-1.976v1h1.976v-1zm-3.952 0h-1.976v1h1.976v-1zm-3.951 0H9.695v1h1.976v-1zm-3.952 0h-.988v1h.988v-1zm-.488.5v-1.027h-1v1.027h1zm0-3.08v-2.054h-1v2.054h1zm0-4.107v-1.027h-1v1.027h1zm-.5-.527h.988v-1h-.988v1zm2.964 0h1.976v-1H9.695v1zm3.951 0h1.976v-1h-1.976v1zm3.952 0h1.976v-1h-1.976v1zm3.951 0h1.976v-1H21.55v1zm3.952 0h.988v-1h-.988v1zm1.488-.5v-1.406h-1v1.406h1zm0-4.218V17.59h-1v1.406h1zm0-1.406c0-.427-.027-.833-.081-1.219l-.99.14c.047.334.071.694.071 1.079h1zm-.94-3.577a4.46 4.46 0 00-.871-.954l-.634.774c.262.214.488.461.677.741l.828-.56zm-.871-.954a7.828 7.828 0 00-.924-.65l-.515.856c.28.168.548.358.805.568l.634-.774zm-3-1.521a8.984 8.984 0 00-1.099-.216l-.132.992c.338.045.663.108.977.191l.254-.967zm-1.083-.213a22.8 22.8 0 00-1.43-.189l-.1.995c.49.05.945.11 1.366.18l.164-.986zm-4.283-.36c-.456-.011-.93-.017-1.423-.017v1c.485 0 .95.006 1.398.017l.025-1zm-1.423-.017c-.3 0-.61.005-.93.016l.034 1c.309-.01.607-.016.896-.016v-1zm-2.778.127a48.32 48.32 0 00-1.836.19l.121.993a48.695 48.695 0 011.799-.187l-.084-.996zm-3.66.44c-.586.088-1.19.187-1.815.296l.172.986a78.33 78.33 0 011.792-.293l-.15-.989zm-3.62.63c-.585.114-1.185.236-1.8.366l.208.978c.61-.129 1.203-.25 1.782-.362l-.19-.981zm-3.59.757c-.295.067-.594.135-.895.205l.226.974c.3-.07.596-.137.889-.203l-.22-.976zm-.282.692v-1.082h-1v1.082h1zm0-3.247V8.183h-1v2.164h1zm0-4.329V4.936h-1v1.082h1zm-.408-.59c.322-.06.642-.12.96-.177l-.178-.984c-.32.058-.641.117-.966.178l.184.982zm2.88-.507a116.32 116.32 0 011.925-.3l-.145-.99c-.636.094-1.283.195-1.942.303l.162.987zm3.855-.567a90.93 90.93 0 011.932-.227l-.105-.994a86.96 86.96 0 00-1.954.23l.127.991zm3.868-.409a68.068 68.068 0 011.938-.13l-.053-1c-.64.034-1.295.079-1.966.133l.081.997zm3.877-.202c.328-.006.65-.009.968-.009v-1c-.324 0-.653.003-.987.01l.019 1zm.968-.009c.336 0 .667.002.994.005l.01-1c-.33-.003-.665-.005-1.004-.005v1zm2.98.046c.683.022 1.343.052 1.981.09l.06-.999a74.744 74.744 0 00-2.01-.09l-.031.999zm3.956.238c.685.064 1.34.137 1.963.222l.135-.991a47.9 47.9 0 00-2.006-.227l-.092.996zm3.907.537c.33.064.65.131.96.202l.223-.974a28.736 28.736 0 00-.994-.21l-.19.982zm.967.204c.335.071.661.152.979.242l.273-.962c-.34-.096-.687-.182-1.044-.258l-.208.978zm2.86.933c.617.285 1.192.615 1.725.99l.575-.818a11.982 11.982 0 00-1.882-1.08l-.419.908zm3.23 2.283c.227.237.445.487.652.75l.784-.621c-.226-.287-.465-.56-.715-.821l-.722.692zm.66.76c.243.29.469.605.677.943l.851-.525a9.14 9.14 0 00-.76-1.06l-.768.641zm1.655 3.076c.235.706.421 1.479.556 2.318l.987-.158a15.708 15.708 0 00-.594-2.476l-.949.316zm.793 4.715c.017.393.026.797.026 1.212h1c0-.43-.01-.848-.027-1.256l-1 .044zm.026 1.212v1.055h1v-1.055h-1zm0 3.163v2.11h1V20.9h-1zm0 4.218v2.11h1v-2.11h-1zm0 4.218v2.11h1v-2.11h-1zm0 4.219v2.108h1v-2.108h-1zm0 4.218v1.054h1v-1.055h-1zm0 1.054c0 .258-.007.512-.02.763l.999.052c.014-.268.021-.54.021-.815h-1zm-.185 2.274a11.61 11.61 0 01-.348 1.472l.956.294c.158-.518.285-1.05.378-1.599l-.986-.167zm-.89 2.88c-.106.227-.22.451-.342.671l.874.486c.134-.24.259-.485.375-.734l-.906-.423zm-.34.666c-.23.405-.478.79-.742 1.153l.809.588c.286-.395.553-.81.802-1.245l-.868-.496zm-2.594 3.157c-.346.293-.71.566-1.093.817l.548.836c.417-.273.814-.57 1.192-.89l-.647-.763zm-1.09.814c-.275.177-.559.348-.852.512l.489.872c.31-.173.611-.354.904-.542l-.54-.842zm-2.644 1.385c-.596.252-1.223.483-1.88.69l.303.954c.684-.217 1.34-.458 1.967-.723l-.39-.921zm-3.818 1.22c-.322.075-.65.146-.985.211l.192.982c.346-.068.686-.141 1.02-.219l-.227-.974zm-.978.21c-.38.068-.76.133-1.143.192l.154.988c.39-.06.78-.126 1.167-.196l-.178-.984zm-3.443.497c-.764.083-1.535.15-2.312.199l.064.998c.792-.05 1.577-.118 2.356-.203l-.108-.994zm-4.631.297c-.386.008-.773.012-1.161.012v1c.395 0 .79-.004 1.182-.012l-.021-1zM.22 51.112h-1v.815l.799.165.201-.98zm0-8.732l.226-.974-1.226-.285v1.259h1zm26.27-10.952h1v-1h-1v1zm-19.758 0h-1v1h1v-1zm0-8.214v-1h-1v1h1zm19.758 0v1h1v-1h-1zm-1.628-9.768l-.633.774.633-.774zm-3.848-1.628l-.164.986.016.003.016.002.132-.991zM.96 13.594h-1v1.259l1.226-.285-.226-.974zm0-8.658l-.184-.983-.816.153v.83h1zm27.454-.666l-.224.975.008.001.008.002.208-.978zm7.03 4.144l-.784.62.008.01.008.01.768-.64zm1.11 36.482l.868.496.006-.01-.874-.486zm-3.848 4.144l.54.841.009-.005-.549-.836zm-7.622 2.886l.178.984.007-.001.008-.002-.193-.981zm-9.324-.186c-.321 0-.643-.002-.964-.007l-.028 2c.331.005.662.007.992.007v-2zm-2.893-.059a69.696 69.696 0 01-1.927-.104l-.134 1.995c.661.045 1.321.08 1.98.107l.08-1.998zm-3.852-.259a75.502 75.502 0 01-1.92-.204l-.236 1.986a77.97 77.97 0 001.97.21l.186-1.992zm-3.835-.456a79.7 79.7 0 01-1.909-.3l-.333 1.973a80 80 0 001.956.306l.286-1.979zm-3.81-.644a84.767 84.767 0 01-.949-.19l-.402 1.96c.324.066.647.13.97.193l.38-1.963zm-.15.79V50.02h-2v1.092h2zm0-3.275v-2.183h-2v2.183h2zm0-4.366V42.38h-2v1.091h2zm-1.226-.117c.3.07.599.138.893.205l.44-1.951-.881-.202-.452 1.948zm2.682.596c.614.13 1.213.252 1.796.366l.383-1.963a114.1 114.1 0 01-1.765-.36l-.414 1.957zm3.602.701c.625.11 1.23.21 1.817.299l.3-1.978c-.57-.086-1.16-.183-1.77-.29l-.347 1.969zm3.646.551a49.97 49.97 0 001.845.194l.17-1.993a47.456 47.456 0 01-1.771-.186l-.244 1.985zm3.71.308c.324.01.637.016.942.016v-2c-.28 0-.572-.005-.874-.015l-.068 1.999zm.942.016c.332 0 .657-.004.976-.011l-.046-2c-.303.008-.613.011-.93.011v2zm2.93-.11a25.856 25.856 0 001.964-.229l-.312-1.975a23.23 23.23 0 01-1.812.21l.16 1.995zm3.93-.643a12.41 12.41 0 001.944-.692l-.833-1.818c-.479.22-1.022.414-1.635.58l.524 1.93zm3.778-1.815a6.18 6.18 0 001.466-1.71l-1.736-.995a4.2 4.2 0 01-.997 1.158l1.267 1.547zm2.197-3.847c.053-.356.079-.722.079-1.097h-2c0 .282-.02.549-.057.8l1.978.297zm.079-1.097v-.823h-2v.823h2zm0-2.47v-1.646h-2v1.646h2zm0-3.293v-.823h-2v.823h2zm-1-1.823h-.988v2h.988v-2zm-2.964 0H21.55v2h1.976v-2zm-3.951 0h-1.976v2h1.976v-2zm-3.952 0h-1.976v2h1.976v-2zm-3.951 0H9.695v2h1.976v-2zm-3.952 0h-.988v2h.988v-2zm.012 1v-1.027h-2v1.027h2zm0-3.08v-2.054h-2v2.054h2zm0-4.107v-1.027h-2v1.027h2zm-1-.027h.988v-2h-.988v2zm2.964 0h1.976v-2H9.695v2zm3.951 0h1.976v-2h-1.976v2zm3.952 0h1.976v-2h-1.976v2zm3.951 0h1.976v-2H21.55v2zm3.952 0h.988v-2h-.988v2zm1.988-1v-1.406h-2v1.406h2zm0-4.218V17.59h-2v1.406h2zm0-1.406c0-.448-.028-.878-.086-1.289l-1.98.28c.043.309.066.645.066 1.009h2zm-1.026-3.857a4.957 4.957 0 00-.969-1.061L24.23 14.22c.224.184.417.394.58.634l1.655-1.121zm-.969-1.061a8.317 8.317 0 00-.982-.692l-1.03 1.714c.258.155.507.33.746.526l1.266-1.548zm-3.189-1.618a9.482 9.482 0 00-1.16-.227l-.264 1.982c.318.043.623.103.916.18l.508-1.935zm-1.128-.222a23.26 23.26 0 00-1.46-.193l-.203 1.99c.481.048.926.107 1.335.175l.328-1.972zm-4.352-.367c-.461-.011-.94-.017-1.436-.017v2c.48 0 .942.006 1.385.017l.05-2zm-1.436-.017c-.306 0-.621.005-.946.016l.066 1.999c.304-.01.597-.015.88-.015v-2zm-2.82.128c-.592.05-1.21.114-1.854.193l.241 1.985a47.964 47.964 0 011.78-.185l-.167-1.993zm-3.693.445c-.59.089-1.198.188-1.826.298l.345 1.97a78.378 78.378 0 011.78-.29l-.299-1.978zm-3.641.634c-.587.114-1.19.236-1.806.367l.413 1.956c.607-.128 1.199-.248 1.775-.36l-.382-1.963zm-3.604.76c-.296.066-.596.135-.898.205l.452 1.948c.298-.07.594-.137.886-.202l-.44-1.951zm.328 1.179v-1.082h-2v1.082h2zm0-3.247V8.183h-2v2.164h2zm0-4.329V4.936h-2v1.082h2zm-.816-.099c.321-.06.64-.119.956-.175l-.354-1.969c-.32.058-.644.117-.97.178l.368 1.966zm2.87-.505a116 116 0 011.916-.299l-.29-1.979c-.639.094-1.289.196-1.95.304l.324 1.974zM7.85 4.85a90.37 90.37 0 011.922-.225l-.211-1.99c-.642.07-1.297.146-1.965.232L7.85 4.85zm3.846-.407a67.592 67.592 0 011.923-.13l-.105-1.997c-.645.034-1.305.079-1.98.134l.162 1.993zm3.845-.2c.325-.006.645-.009.959-.009v-2c-.328 0-.66.003-.997.01l.038 2zm.959-.009c.334 0 .664.002.99.005l.019-2c-.332-.003-.668-.005-1.009-.005v2zm2.963.046c.68.022 1.335.051 1.969.089l.118-1.997a75.301 75.301 0 00-2.022-.091l-.064 1.999zm3.927.236c.678.063 1.326.136 1.942.22l.269-1.983a48.402 48.402 0 00-2.027-.229l-.184 1.992zm3.858.53c.325.063.64.13.942.199l.448-1.95a29.284 29.284 0 00-1.011-.212l-.379 1.963zm.958.202c.324.07.64.147.946.234l.546-1.924c-.35-.1-.709-.188-1.076-.266l-.416 1.956zm2.754.898c.591.273 1.14.588 1.647.945l1.151-1.635c-.61-.43-1.264-.804-1.96-1.126l-.838 1.816zm3.078 2.175c.217.226.424.464.622.713l1.568-1.24a11.955 11.955 0 00-.746-.857L34.038 8.32zm.638.733c.227.273.439.568.635.886l1.703-1.049a9.637 9.637 0 00-.802-1.117l-1.536 1.28zm1.565 2.915c.226.678.405 1.423.536 2.24l1.975-.317c-.146-.91-.35-1.762-.614-2.555l-1.897.632zm.767 4.58c.017.385.026.781.026 1.189h2c0-.436-.01-.862-.028-1.279l-1.998.09zm.026 1.189v1.055h2v-1.055h-2zm0 3.163v2.11h2V20.9h-2zm0 4.218v2.11h2v-2.11h-2zm0 4.218v2.11h2v-2.11h-2zm0 4.219v2.108h2v-2.108h-2zm0 4.218v1.054h2v-1.055h-2zm0 1.054c0 .25-.006.495-.019.737l1.997.104c.015-.277.022-.557.022-.841h-2zm-.178 2.19c-.083.486-.194.956-.333 1.409l1.911.587c.166-.538.297-1.092.394-1.66l-1.972-.336zm-.85 2.752c-.1.217-.21.43-.326.64l1.748.972c.14-.251.27-.506.39-.766l-1.811-.846zm-.32.63c-.223.39-.461.759-.714 1.108l1.619 1.174c.297-.41.574-.84.831-1.29l-1.736-.992zm-2.484 3.023c-.33.28-.679.54-1.045.78l1.098 1.673c.433-.285.847-.593 1.24-.927l-1.293-1.526zm-1.037.776c-.266.171-.541.336-.826.495l.977 1.746c.319-.179.63-.365.93-.559l-1.08-1.682zm-2.569 1.345c-.581.245-1.193.47-1.835.674l.604 1.906a23.023 23.023 0 002.01-.738l-.779-1.843zm-3.736 1.193c-.317.074-.64.143-.969.208l.386 1.962a30.75 30.75 0 001.036-.222l-.453-1.948zm-.953.205a46.86 46.86 0 01-1.132.19l.308 1.976a50.62 50.62 0 001.179-.198l-.355-1.968zm-3.41.492c-.756.082-1.52.148-2.289.197l.128 1.996c.799-.051 1.592-.12 2.379-.205l-.217-1.988zm-4.586.294c-.382.008-.766.012-1.151.012v2c.399 0 .796-.004 1.192-.012l-.041-2zm55.953-5.278h.5v-.5h-.5v.5zm-13.542-3.33l-.264.425.005.002.26-.427zm.074-32.856l.262.426.004-.002-.266-.424zm13.468-3.478v.5h.5v-.5h-.5zm0-6.142v-.5h-.5v.5h.5zm11.396 0h.5v-.5h-.5v.5zm0 6.142h-.5v.5h.5v-.5zm13.394 3.478l-.265.424.002.001.263-.425zm2.96 30.044l.38.325-.38-.325zm-7.03 4.662l.163.473.005-.002-.168-.471zm-9.324 1.48v-.5h-.5v.5h.5zm0 6.29v.5h.5v-.5h-.5zm-11.396 0h-.5v.5h.5v-.5zm.148-38.332h.5v-.5h-.5v.5zm-5.476 1.628l-.302-.398.302.398zm0 21.312l-.284.412.008.005.009.005.267-.422zm5.476 1.406v.5h.5v-.5h-.5zm11.1.074h-.5v.5h.5v-.5zm5.402-1.48l-.277-.416-.007.004.284.412zm.074-21.312l.303-.398-.303.398zm-5.476-1.628v-.5h-.5v.5h.5zM72.864 45.95c-.293 0-.583-.003-.871-.01l-.023 1c.295.007.594.01.894.01v-1zm-2.61-.093a31.13 31.13 0 01-1.727-.175l-.13.991c.584.076 1.178.136 1.784.181l.074-.997zm-3.439-.451a25.26 25.26 0 01-1.687-.386l-.257.967c.571.151 1.156.285 1.754.4l.19-.981zm-3.34-.89a21.235 21.235 0 01-1.604-.631l-.404.915c.545.24 1.105.46 1.68.66l.329-.945zm-3.148-1.393c-.252-.138-.5-.282-.745-.43l-.52.854c.258.157.519.307.784.453l.48-.877zm-.74-.428a12.852 12.852 0 01-.818-.552l-.592.807c.282.206.576.405.881.595l.528-.85zm-2.295-1.84a10.105 10.105 0 01-1.208-1.53l-.841.54a11.1 11.1 0 001.327 1.682l.722-.692zm-2.098-3.265a11.33 11.33 0 01-.56-1.878l-.979.204c.15.714.352 1.396.61 2.044l.93-.37zm-.818-3.836a16.15 16.15 0 01-.03-.994h-1c0 .358.01.71.032 1.055l.998-.061zm-.03-.994v-.974h-1v.974h1zm0-2.923v-1.949h-1v1.949h1zm0-3.897v-1.95h-1v1.949h1zm0-3.898v-.974h-1v.974h1zm0-.974c0-.352.01-.697.03-1.034l-1-.057c-.02.357-.03.72-.03 1.091h1zm.28-3.074c.135-.692.32-1.346.55-1.963l-.935-.352a13.24 13.24 0 00-.596 2.123l.981.192zm1.438-3.784a10.19 10.19 0 011.226-1.607l-.73-.683c-.51.545-.959 1.134-1.348 1.766l.852.524zm2.746-2.95c.27-.199.552-.389.848-.57l-.523-.852c-.318.195-.624.4-.917.615l.592.806zm.852-.572c.242-.152.488-.3.738-.44l-.494-.87c-.262.149-.52.303-.775.462l.53.848zm2.267-1.226a21.223 21.223 0 011.591-.657l-.344-.939c-.569.209-1.124.438-1.666.688l.42.908zm3.23-1.186a24.32 24.32 0 011.678-.409l-.202-.98c-.595.124-1.177.265-1.746.426l.27.963zm3.382-.702a29.12 29.12 0 011.722-.188l-.08-.997a30.11 30.11 0 00-1.78.194l.138.99zm3.455-.277c.287-.007.576-.011.868-.011v-1c-.3 0-.598.004-.894.011l.026 1zm1.368-.511v-.768h-1v.768h1zm0-2.303V2.947h-1v1.536h1zm0-3.071V.644h-1v.768h1zm-.5-.268h.95v-1h-.95v1zm2.85 0h1.899v-1h-1.9v1zm3.798 0h1.9v-1h-1.9v1zm3.799 0h.95v-1h-.95v1zm.45-.5v.768h1V.644h-1zm0 2.303v1.536h1V2.947h-1zm0 3.071v.768h1v-.768h-1zm.5 1.268c.29 0 .578.004.863.01l.026-.999c-.294-.007-.59-.011-.89-.011v1zm2.587.101c.582.047 1.152.11 1.712.188l.14-.99a29.355 29.355 0 00-1.772-.195l-.08.997zm3.406.483c.568.119 1.124.255 1.668.41l.273-.962a25.135 25.135 0 00-1.736-.427l-.205.98zm3.298.94c.54.2 1.068.418 1.582.656l.42-.907c-.539-.25-1.09-.479-1.656-.687l-.346.938zm3.103 1.44c.248.14.492.286.734.438l.53-.848c-.253-.158-.51-.312-.77-.46l-.494.87zm.736.44c.296.182.58.373.85.572l.593-.806a13.848 13.848 0 00-.917-.617l-.526.85zm2.38 1.918c.47.497.884 1.031 1.243 1.603l.847-.532a11.323 11.323 0 00-1.363-1.758l-.727.687zm2.151 3.42c.238.617.427 1.271.567 1.962l.98-.197a13.059 13.059 0 00-.615-2.125l-.932.36zm.826 4.004c.02.338.03.683.03 1.036h1c0-.372-.01-.737-.032-1.095l-.998.06zm.03 1.036v.974h1v-.974h-1zm0 2.923v1.949h1v-1.95h-1zm0 3.897v1.949h1v-1.949h-1zm0 3.898v.974h1v-.974h-1zm0 .974c0 .335-.011.664-.035.986l.997.072c.026-.347.038-.7.038-1.058h-1zm-.335 2.923a10.424 10.424 0 01-.634 1.843l.91.413c.293-.644.524-1.317.696-2.02l-.972-.236zm-1.606 3.53a10.9 10.9 0 01-.602.77l.759.65c.234-.272.453-.553.658-.84l-.815-.58zm-.602.77c-.224.26-.457.513-.699.756l.71.705c.259-.261.509-.531.748-.81l-.759-.651zm-2.252 2.109c-.541.407-1.118.783-1.73 1.127l.49.872c.65-.366 1.264-.766 1.841-1.2l-.601-.8zm-3.596 2.033c-.315.131-.639.256-.97.374l.335.942a21.17 21.17 0 001.02-.393l-.385-.923zm-.966.372a24.9 24.9 0 01-1.107.353l.282.96c.388-.114.772-.236 1.151-.367l-.326-.946zm-3.366.906c-.751.15-1.518.268-2.301.356l.112.993c.81-.09 1.604-.213 2.384-.368l-.195-.98zm-4.627.526a32.21 32.21 0 01-1.168.021v1c.405 0 .806-.007 1.203-.021l-.035-1zm-1.668.521v.786h1v-.786h-1zm0 2.359v1.572h1V48.81h-1zm0 3.145v.786h1v-.786h-1zm.5.286h-.95v1h.95v-1zm-2.849 0h-1.899v1h1.9v-1zm-3.798 0h-1.9v1h1.9v-1zm-3.799 0h-.95v1h.95v-1zm-.45.5v-.786h-1v.786h1zm0-2.359V48.81h-1v1.572h1zm0-3.145v-.786h-1v.786h1zm-.352-33.328c-.522 0-1.026.029-1.51.088l.12.992c.441-.053.905-.08 1.39-.08v-1zm-4.455.92c-.47.228-.912.498-1.323.81l.605.796a6.796 6.796 0 011.154-.705l-.436-.9zm-1.323.81a6.482 6.482 0 00-.988.918l.756.655c.238-.274.516-.534.837-.777l-.605-.796zm-2.204 3.345c-.094.43-.14.879-.14 1.345h1c0-.4.04-.778.117-1.132l-.978-.213zm-.14 1.345v1.085h1v-1.085h-1zm0 3.256v2.17h1v-2.17h-1zm0 4.341v2.171h1v-2.17h-1zm0 4.342v1.085h1v-1.085h-1zm0 1.085c0 .447.047.877.143 1.288l.974-.227a4.656 4.656 0 01-.117-1.061h-1zm1.382 3.575c.286.302.613.58.98.833l.568-.824a5.148 5.148 0 01-.822-.696l-.726.687zm.997.843c.424.269.874.5 1.349.696l.38-.925a7.688 7.688 0 01-1.194-.615l-.535.844zm4.26 1.408c.478.05.972.076 1.483.076v-1c-.478 0-.937-.023-1.377-.07l-.106.994zm1.983-.424V37.74h-1v1.014h1zm0-3.043v-2.03h-1v2.03h1zm0-4.058v-2.029h-1v2.03h1zm0-4.058v-2.028h-1v2.028h1zm0-4.057v-2.03h-1v2.03h1zm0-4.058v-2.029h-1v2.03h1zm0-4.058v-1.014h-1v1.014h1zm11.1 23.406V37.81h-1v1.018h1zm0-3.053V33.74h-1v2.035h1zm0-4.07v-2.034h-1v2.035h1zm0-4.07V25.6h-1v2.035h1zm0-4.07V21.53h-1v2.035h1zm0-4.07V17.46h-1v2.035h1zm0-4.07v-1.017h-1v1.018h1zm-.5-.517c.486 0 .95.027 1.392.08l.12-.992a12.614 12.614 0 00-1.512-.088v1zm4.02.82c.412.2.797.435 1.154.706l.605-.796a7.792 7.792 0 00-1.324-.81l-.435.9zm1.154.706c.32.243.599.503.837.777l.755-.655a6.482 6.482 0 00-.987-.918l-.605.796zm1.832 2.762c.077.354.116.731.116 1.132h1c0-.466-.045-.915-.139-1.345l-.977.213zm.116 1.132v1.085h1v-1.085h-1zm0 3.256v2.17h1v-2.17h-1zm0 4.341v2.171h1v-2.17h-1zm0 4.342v1.085h1v-1.085h-1zm0 1.085c0 .38-.041.734-.122 1.066l.972.237c.1-.416.15-.85.15-1.303h-1zm-1.153 2.89a5.31 5.31 0 01-.844.69l.555.832a6.31 6.31 0 001.002-.82l-.713-.702zm-.85.694c-.36.249-.746.464-1.159.646l.404.915c.468-.207.91-.453 1.322-.737l-.568-.824zm-3.755 1.319c-.434.048-.889.073-1.364.073v1c.51 0 1.001-.026 1.475-.08l-.11-.993zM72.864 46.45h1v-1h-1v1zm-13.542-3.33l-.528.85.009.004.52-.854zm.074-32.856l.523.853.008-.006-.53-.847zm13.468-3.478v1h1v-1h-1zm0-6.142v-1h-1v1h1zm11.396 0h1v-1h-1v1zm0 6.142h-1v1h1v-1zm13.394 3.478l-.53.847.004.003.526-.85zm2.96 30.044l.76.65-.76-.65zm-7.03 4.662l.326.945.01-.003-.336-.942zm-9.324 1.48v-1h-1v1h1zm0 6.29v1h1v-1h-1zm-11.396 0h-1v1h1v-1zm.148-38.332h1v-1h-1v1zm-5.476 1.628l-.604-.797.604.797zm0 21.312l-.567.823.016.011.016.01.535-.844zm5.476 1.406v1h1v-1h-1zm11.1.074h-1v1h1v-1zm5.402-1.48l-.554-.832-.007.004-.006.005.567.823zm.074-21.312l.605-.797-.605.797zm-5.476-1.628v-1h-1v1h1zM72.864 45.45c-.29 0-.576-.003-.86-.01l-.046 2c.3.007.602.01.906.01v-2zm-2.573-.092a30.65 30.65 0 01-1.7-.172l-.258 1.983c.593.077 1.197.138 1.812.184l.147-1.995zm-3.381-.443a24.83 24.83 0 01-1.654-.378l-.513 1.933c.582.155 1.178.29 1.787.409l.38-1.964zm-3.27-.872a20.796 20.796 0 01-1.567-.616l-.808 1.83c.558.246 1.13.471 1.718.675l.657-1.889zm-3.073-1.358a18.87 18.87 0 01-.725-.42l-1.04 1.71c.264.16.532.314.803.463l.962-1.753zm-.717-.414c-.274-.17-.536-.348-.786-.53l-1.182 1.612c.292.214.596.42.912.616l1.056-1.698zm-2.197-1.762a9.594 9.594 0 01-1.148-1.454l-1.683 1.081c.403.626.865 1.212 1.387 1.757l1.444-1.384zm-1.994-3.104a10.83 10.83 0 01-.535-1.795l-1.958.409c.154.74.366 1.45.635 2.126l1.858-.74zm-.784-3.682a15.89 15.89 0 01-.029-.963h-2c0 .368.011.73.033 1.086l1.996-.123zm-.029-.963v-.974h-2v.974h2zm0-2.923v-1.949h-2v1.949h2zm0-3.897v-1.95h-2v1.949h2zm0-3.898v-.974h-2v.974h2zm0-.974c0-.343.01-.678.028-1.006l-1.996-.114c-.021.367-.032.74-.032 1.12h2zm.27-2.978c.131-.667.307-1.294.529-1.884l-1.872-.703a13.75 13.75 0 00-.62 2.204l1.964.383zm1.374-3.618a9.59 9.59 0 011.166-1.528l-1.462-1.365a11.59 11.59 0 00-1.407 1.845l1.703 1.048zm2.616-2.81c.258-.19.53-.371.813-.546l-1.045-1.704c-.33.202-.647.415-.952.638l1.184 1.612zm.821-.55c.237-.149.477-.292.72-.43l-.988-1.739c-.268.152-.533.31-.794.474l1.062 1.694zm2.212-1.196a20.72 20.72 0 011.553-.641l-.688-1.878c-.581.213-1.15.447-1.703.703l.838 1.816zm3.157-1.16c.534-.15 1.082-.283 1.642-.4l-.404-1.958c-.606.125-1.2.27-1.781.434l.543 1.925zm3.314-.687a28.625 28.625 0 011.692-.184l-.158-1.994c-.614.049-1.217.114-1.81.197l.276 1.98zm3.398-.272c.283-.007.568-.011.856-.011v-2c-.304 0-.606.004-.906.011l.05 2zm1.856-1.011v-.768h-2v.768h2zm0-2.303V2.947h-2v1.536h2zm0-3.071V.644h-2v.768h2zm-1 .232h.95v-2h-.95v2zm2.85 0h1.899v-2h-1.9v2zm3.798 0h1.9v-2h-1.9v2zm3.799 0h.95v-2h-.95v2zm-.05-1v.768h2V.644h-2zm0 2.303v1.536h2V2.947h-2zm0 3.071v.768h2v-.768h-2zm1 1.768c.286 0 .57.004.85.01l.051-1.999a38.418 38.418 0 00-.902-.011v2zm2.547.1a27.03 27.03 0 011.682.185l.28-1.98c-.59-.084-1.192-.15-1.802-.2l-.16 1.994zm3.344.474c.557.116 1.101.25 1.633.4l.547-1.923a25.632 25.632 0 00-1.771-.435l-.409 1.958zm3.227.92c.528.194 1.043.408 1.545.64l.84-1.815a22.739 22.739 0 00-1.693-.702l-.692 1.876zm3.028 1.404c.242.137.48.28.716.427l1.062-1.694a21.64 21.64 0 00-.788-.472l-.99 1.739zm.721.43c.285.177.558.36.818.551l1.184-1.611c-.304-.224-.62-.437-.95-.64l-1.052 1.7zm2.28 1.837c.447.474.841.982 1.183 1.526l1.694-1.064a11.803 11.803 0 00-1.424-1.835l-1.453 1.373zm2.047 3.257c.228.59.409 1.216.543 1.881l1.961-.395a13.506 13.506 0 00-.638-2.206l-1.866.72zm.794 3.854c.02.327.029.663.029 1.006h2c0-.381-.011-.756-.032-1.124l-1.997.118zm.029 1.006v.974h2v-.974h-2zm0 2.923v1.949h2v-1.95h-2zm0 3.897v1.949h2v-1.949h-2zm0 3.898v.974h2v-.974h-2zm0 .974c0 .323-.011.64-.034.95l1.995.145c.026-.36.039-.725.039-1.095h-2zm-.321 2.805a9.845 9.845 0 01-.604 1.754l1.821.827a11.85 11.85 0 00.726-2.108l-1.943-.473zm-1.528 3.358c-.178.25-.369.495-.574.734l1.519 1.302c.243-.284.472-.577.685-.877l-1.63-1.159zm-.574.734c-.216.252-.44.495-.674.73l1.42 1.41c.268-.27.525-.55.773-.838l-1.519-1.302zm-2.173 2.035c-.522.394-1.08.757-1.675 1.091l.98 1.744a17.03 17.03 0 001.898-1.237l-1.203-1.598zm-3.487 1.971c-.307.128-.623.25-.946.365l.67 1.884c.356-.127.704-.26 1.045-.402l-.769-1.847zm-.937.362c-.357.123-.719.238-1.085.346l.563 1.919c.396-.116.787-.241 1.174-.375l-.652-1.89zm-3.3.888a27.34 27.34 0 01-2.26.349l.224 1.987a29.398 29.398 0 002.425-.374l-.389-1.962zm-4.548.517c-.38.013-.763.02-1.15.02v2c.41 0 .818-.007 1.221-.022l-.07-1.998zm-2.15 1.02v.786h2v-.786h-2zm0 2.359v1.572h2V48.81h-2zm0 3.145v.786h2v-.786h-2zm1-.214h-.95v2h.95v-2zm-2.849 0h-1.899v2h1.9v-2zm-3.798 0h-1.9v2h1.9v-2zm-3.799 0h-.95v2h.95v-2zm.05 1v-.786h-2v.786h2zm0-2.359V48.81h-2v1.572h2zm0-3.145v-.786h-2v.786h2zm-.852-33.828c-.54 0-1.065.03-1.57.091l.239 1.986c.42-.051.864-.077 1.331-.077v-2zm-4.672.97c-.5.242-.97.529-1.408.861l1.209 1.594a6.25 6.25 0 011.069-.654l-.87-1.8zm-1.408.861c-.397.301-.752.63-1.064.99l1.512 1.31a4.99 4.99 0 01.76-.706l-1.208-1.594zm-2.391 3.638c-.102.468-.15.952-.15 1.451h2c0-.368.035-.709.104-1.026l-1.954-.425zm-.15 1.451v1.085h2v-1.085h-2zm0 3.256v2.17h2v-2.17h-2zm0 4.341v2.171h2v-2.17h-2zm0 4.342v1.085h2v-1.085h-2zm0 1.085c0 .483.05.95.155 1.402l1.948-.455a4.157 4.157 0 01-.104-.947h-2zm1.518 3.919c.312.33.666.63 1.06.9l1.135-1.646a4.66 4.66 0 01-.743-.629l-1.452 1.375zm1.092.922c.45.284.925.53 1.427.736l.76-1.85a7.192 7.192 0 01-1.117-.576l-1.07 1.69zm4.475 1.482c.497.053 1.009.079 1.536.079v-2c-.462 0-.903-.023-1.325-.067l-.21 1.988zm2.536-.921V37.74h-2v1.014h2zm0-3.043v-2.03h-2v2.03h2zm0-4.058v-2.029h-2v2.03h2zm0-4.058v-2.028h-2v2.028h2zm0-4.057v-2.03h-2v2.03h2zm0-4.058v-2.029h-2v2.03h2zm0-4.058v-1.014h-2v1.014h2zm11.1 23.406V37.81h-2v1.018h2zm0-3.053V33.74h-2v2.035h2zm0-4.07v-2.034h-2v2.035h2zm0-4.07V25.6h-2v2.035h2zm0-4.07V21.53h-2v2.035h2zm0-4.07V17.46h-2v2.035h2zm0-4.07v-1.017h-2v1.018h2zm-1-.017c.467 0 .911.026 1.332.077l.24-1.986a13.108 13.108 0 00-1.572-.091v2zm3.803.771c.382.185.738.403 1.069.654l1.209-1.594a8.298 8.298 0 00-1.408-.86l-.87 1.8zm1.069.654c.295.224.547.46.76.705l1.512-1.31a6.987 6.987 0 00-1.063-.989l-1.21 1.594zm1.645 2.469c.07.317.105.658.105 1.026h2c0-.5-.049-.983-.15-1.45l-1.955.424zm.105 1.026v1.085h2v-1.085h-2zm0 3.256v2.17h2v-2.17h-2zm0 4.341v2.171h2v-2.17h-2zm0 4.342v1.085h2v-1.085h-2zm0 1.085c0 .343-.037.658-.108.948l1.943.473c.112-.457.165-.932.165-1.421h-2zm-1.009 2.54a4.81 4.81 0 01-.765.624l1.109 1.664c.4-.267.762-.562 1.082-.886l-1.426-1.403zm-.778.633c-.334.23-.692.43-1.077.6l.808 1.83c.496-.22.965-.48 1.404-.784l-1.135-1.646zm-3.526 1.233c-.415.046-.85.07-1.309.07v2c.527 0 1.037-.027 1.53-.082l-.221-1.988zm52.52 8.692h.5v-.5h-.5v.5zm-13.542-3.33l-.264.425.004.002.26-.427zm.074-32.856l.261.426.004-.002-.265-.424zm13.468-3.478v.5h.5v-.5h-.5zm0-6.142v-.5h-.5v.5h.5zm11.396 0h.5v-.5h-.5v.5zm0 6.142h-.5v.5h.5v-.5zm13.394 3.478l-.266.424.003.001.263-.425zm2.96 30.044l.38.325-.38-.325zm-7.03 4.662l.163.473.005-.002-.168-.471zm-9.324 1.48v-.5h-.5v.5h.5zm0 6.29v.5h.5v-.5h-.5zm-11.396 0h-.5v.5h.5v-.5zm.148-38.332h.5v-.5h-.5v.5zm-5.476 1.628l-.302-.398.302.398zm0 21.312l-.284.412.008.005.008.005.268-.422zm5.476 1.406v.5h.5v-.5h-.5zm11.1.074h-.5v.5h.5v-.5zm5.402-1.48l-.277-.416-.007.004.284.412zm.074-21.312l.302-.398-.302.398zm-5.476-1.628v-.5h-.5v.5h.5zM137.941 45.95c-.293 0-.584-.003-.871-.01l-.024 1c.296.007.594.01.895.01v-1zm-2.61-.093a31.169 31.169 0 01-1.728-.175l-.128.991a32 32 0 001.783.181l.073-.997zm-3.439-.451a25.256 25.256 0 01-1.688-.386l-.256.967c.571.151 1.156.285 1.754.4l.19-.981zm-3.34-.89a21.357 21.357 0 01-1.605-.631l-.403.915c.545.24 1.105.46 1.68.66l.328-.945zm-3.149-1.393c-.252-.138-.5-.282-.744-.43l-.52.854c.257.157.518.307.784.453l.48-.877zm-.74-.428a12.888 12.888 0 01-.818-.552l-.591.807c.282.206.575.405.881.595l.528-.85zm-2.294-1.84a10.102 10.102 0 01-1.208-1.53l-.842.54c.385.6.828 1.16 1.328 1.682l.722-.692zm-2.098-3.265a11.398 11.398 0 01-.56-1.878l-.979.204c.149.714.352 1.396.61 2.044l.929-.37zm-.818-3.836a16.15 16.15 0 01-.03-.994h-1c0 .358.011.71.032 1.055l.998-.061zm-.03-.994v-.974h-1v.974h1zm0-2.923v-1.949h-1v1.949h1zm0-3.897v-1.95h-1v1.949h1zm0-3.898v-.974h-1v.974h1zm0-.974c0-.352.01-.697.029-1.034l-.998-.057c-.021.357-.031.72-.031 1.091h1zm.28-3.074c.135-.692.319-1.346.55-1.963l-.936-.352c-.252.672-.451 1.38-.596 2.123l.982.192zm1.438-3.784a10.13 10.13 0 011.226-1.607l-.731-.683a11.112 11.112 0 00-1.347 1.766l.852.524zm2.745-2.95c.27-.199.553-.389.848-.57l-.522-.852c-.319.195-.624.4-.917.615l.591.806zm.852-.572c.243-.152.489-.3.738-.44l-.494-.87c-.262.149-.52.303-.775.462l.531.848zm2.268-1.226a21.121 21.121 0 011.591-.657l-.344-.939a22.3 22.3 0 00-1.666.688l.419.908zm3.231-1.186c.546-.154 1.105-.29 1.677-.409l-.203-.98c-.594.124-1.176.265-1.746.426l.272.963zm3.381-.702a29.124 29.124 0 011.721-.188l-.079-.997c-.604.048-1.198.113-1.78.194l.138.99zm3.454-.277c.287-.007.577-.011.869-.011v-1c-.3 0-.598.004-.894.011l.025 1zm1.369-.511v-.768h-1v.768h1zm0-2.303V2.947h-1v1.536h1zm0-3.071V.644h-1v.768h1zm-.5-.268h.95v-1h-.95v1zm2.849 0h1.899v-1h-1.899v1zm3.799 0h1.899v-1h-1.899v1zm3.798 0h.95v-1h-.95v1zm.45-.5v.768h1V.644h-1zm0 2.303v1.536h1V2.947h-1zm0 3.071v.768h1v-.768h-1zm.5 1.268c.29 0 .578.004.864.01l.025-.999a34.98 34.98 0 00-.889-.011v1zm2.587.101c.582.047 1.153.11 1.713.188l.139-.99a29.724 29.724 0 00-1.772-.195l-.08.997zm3.407.483c.568.119 1.124.255 1.667.41l.274-.962a25.132 25.132 0 00-1.737-.427l-.204.98zm3.298.94c.54.2 1.067.418 1.581.656l.421-.907a22.32 22.32 0 00-1.656-.687l-.346.938zm3.102 1.44c.248.14.493.286.734.438l.531-.848c-.253-.158-.51-.312-.77-.46l-.495.87zm.737.44c.296.182.579.373.85.572l.592-.806a13.865 13.865 0 00-.916-.617l-.526.85zm2.38 1.918c.47.497.884 1.031 1.243 1.603l.847-.532a11.323 11.323 0 00-1.363-1.758l-.727.687zm2.15 3.42c.239.617.428 1.271.567 1.962l.981-.197a13.059 13.059 0 00-.615-2.125l-.933.36zm.827 4.004c.02.338.03.683.03 1.036h1c0-.372-.011-.737-.032-1.095l-.998.06zm.03 1.036v.974h1v-.974h-1zm0 2.923v1.949h1v-1.95h-1zm0 3.897v1.949h1v-1.949h-1zm0 3.898v.974h1v-.974h-1zm0 .974c0 .335-.012.664-.035.986l.997.072c.025-.347.038-.7.038-1.058h-1zm-.335 2.923a10.426 10.426 0 01-.635 1.843l.911.413a11.41 11.41 0 00.695-2.02l-.971-.236zm-1.607 3.53c-.187.263-.387.52-.602.77l.76.65c.233-.272.453-.553.657-.84l-.815-.58zm-.602.77c-.223.26-.456.513-.698.756l.709.705c.26-.261.509-.531.749-.81l-.76-.651zm-2.251 2.109a15.52 15.52 0 01-1.731 1.127l.49.872a16.75 16.75 0 001.842-1.2l-.601-.8zm-3.596 2.033c-.316.131-.639.256-.971.374l.336.942c.347-.124.687-.255 1.019-.393l-.384-.923zm-.966.372a25.06 25.06 0 01-1.107.353l.281.96c.388-.114.772-.236 1.152-.367l-.326-.946zm-3.366.906c-.751.15-1.518.268-2.301.356l.112.993a28.836 28.836 0 002.383-.368l-.194-.98zm-4.627.526a32.21 32.21 0 01-1.168.021v1c.404 0 .805-.007 1.203-.021l-.035-1zm-1.668.521v.786h1v-.786h-1zm0 2.359v1.572h1V48.81h-1zm0 3.145v.786h1v-.786h-1zm.5.286h-.95v1h.95v-1zm-2.849 0h-1.899v1h1.899v-1zm-3.799 0h-1.899v1h1.899v-1zm-3.798 0h-.95v1h.95v-1zm-.45.5v-.786h-1v.786h1zm0-2.359V48.81h-1v1.572h1zm0-3.145v-.786h-1v.786h1zm-.352-33.328c-.523 0-1.026.029-1.511.088l.12.992c.442-.053.905-.08 1.391-.08v-1zm-4.455.92a7.773 7.773 0 00-1.323.81l.604.796a6.816 6.816 0 011.154-.705l-.435-.9zm-1.323.81a6.507 6.507 0 00-.988.918l.756.655c.237-.274.516-.534.836-.777l-.604-.796zm-2.205 3.345c-.093.43-.139.879-.139 1.345h1c0-.4.039-.778.116-1.132l-.977-.213zm-.139 1.345v1.085h1v-1.085h-1zm0 3.256v2.17h1v-2.17h-1zm0 4.341v2.171h1v-2.17h-1zm0 4.342v1.085h1v-1.085h-1zm0 1.085c0 .447.047.877.143 1.288l.974-.227a4.605 4.605 0 01-.117-1.061h-1zm1.381 3.575c.286.302.614.58.981.833l.568-.824a5.13 5.13 0 01-.822-.696l-.727.687zm.997.843c.425.269.874.5 1.35.696l.38-.925a7.71 7.71 0 01-1.195-.615l-.535.844zm4.261 1.408c.477.05.972.076 1.483.076v-1c-.478 0-.937-.023-1.378-.07l-.105.994zm1.983-.424V37.74h-1v1.014h1zm0-3.043v-2.03h-1v2.03h1zm0-4.058v-2.029h-1v2.03h1zm0-4.058v-2.028h-1v2.028h1zm0-4.057v-2.03h-1v2.03h1zm0-4.058v-2.029h-1v2.03h1zm0-4.058v-1.014h-1v1.014h1zm11.1 23.406V37.81h-1v1.018h1zm0-3.053V33.74h-1v2.035h1zm0-4.07v-2.034h-1v2.035h1zm0-4.07V25.6h-1v2.035h1zm0-4.07V21.53h-1v2.035h1zm0-4.07V17.46h-1v2.035h1zm0-4.07v-1.017h-1v1.018h1zm-.5-.517c.486 0 .949.027 1.391.08l.12-.992a12.62 12.62 0 00-1.511-.088v1zm4.02.82c.412.2.796.435 1.154.706l.604-.796a7.773 7.773 0 00-1.323-.81l-.435.9zm1.154.706c.32.243.598.503.836.777l.756-.655a6.507 6.507 0 00-.988-.918l-.604.796zm1.832 2.762c.077.354.116.731.116 1.132h1c0-.466-.046-.915-.139-1.345l-.977.213zm.116 1.132v1.085h1v-1.085h-1zm0 3.256v2.17h1v-2.17h-1zm0 4.341v2.171h1v-2.17h-1zm0 4.342v1.085h1v-1.085h-1zm0 1.085c0 .38-.042.734-.122 1.066l.971.237a5.5 5.5 0 00.151-1.303h-1zm-1.153 2.89a5.31 5.31 0 01-.844.69l.554.832c.375-.25.71-.523 1.003-.82l-.713-.702zm-.851.694c-.36.249-.746.464-1.158.646l.404.915a8.08 8.08 0 001.322-.737l-.568-.824zm-3.754 1.319a12.29 12.29 0 01-1.364.073v1c.509 0 1.001-.026 1.475-.08l-.111-.993zm-12.612 8.195h1v-1h-1v1zm-13.542-3.33l-.528.85.008.004.52-.854zm.074-32.856l.523.853.008-.006-.531-.847zm13.468-3.478v1h1v-1h-1zm0-6.142v-1h-1v1h1zm11.396 0h1v-1h-1v1zm0 6.142h-1v1h1v-1zm13.394 3.478l-.531.847.005.003.526-.85zm2.96 30.044l.759.65-.759-.65zm-7.03 4.662l.326.945.009-.003-.335-.942zm-9.324 1.48v-1h-1v1h1zm0 6.29v1h1v-1h-1zm-11.396 0h-1v1h1v-1zm.148-38.332h1v-1h-1v1zm-5.476 1.628l-.604-.797.604.797zm0 21.312l-.568.823.016.011.017.01.535-.844zm5.476 1.406v1h1v-1h-1zm11.1.074h-1v1h1v-1zm5.402-1.48l-.555-.832-.006.004-.007.005.568.823zm.074-21.312l.604-.797-.604.797zm-5.476-1.628v-1h-1v1h1zM137.941 45.45c-.289 0-.576-.003-.86-.01l-.046 2c.299.007.601.01.906.01v-2zm-2.573-.092c-.579-.043-1.146-.1-1.7-.172l-.258 1.983c.592.077 1.196.138 1.811.184l.147-1.995zm-3.381-.443a24.718 24.718 0 01-1.654-.378l-.514 1.933c.583.155 1.179.29 1.788.409l.38-1.964zm-3.271-.872a20.946 20.946 0 01-1.567-.616l-.807 1.83c.557.246 1.13.471 1.718.675l.656-1.889zm-3.072-1.358a18.122 18.122 0 01-.725-.42l-1.04 1.71c.264.16.531.314.803.463l.962-1.753zm-.717-.414c-.274-.17-.536-.348-.786-.53l-1.183 1.612c.293.214.597.42.913.616l1.056-1.698zm-2.197-1.762a9.653 9.653 0 01-1.149-1.454l-1.682 1.081c.402.626.865 1.212 1.387 1.757l1.444-1.384zm-1.994-3.104a10.84 10.84 0 01-.536-1.795l-1.958.409c.155.74.366 1.45.635 2.126l1.859-.74zm-.784-3.682a15.93 15.93 0 01-.029-.963h-2c0 .368.011.73.033 1.086l1.996-.123zm-.029-.963v-.974h-2v.974h2zm0-2.923v-1.949h-2v1.949h2zm0-3.897v-1.95h-2v1.949h2zm0-3.898v-.974h-2v.974h2zm0-.974c0-.343.009-.678.028-1.006l-1.997-.114a19.6 19.6 0 00-.031 1.12h2zm.271-2.978c.13-.667.306-1.294.527-1.884l-1.872-.703c-.263.7-.468 1.435-.618 2.204l1.963.383zm1.373-3.618a9.595 9.595 0 011.165-1.528l-1.461-1.365a11.616 11.616 0 00-1.408 1.845l1.704 1.048zm2.615-2.81c.259-.19.53-.371.814-.546l-1.046-1.704c-.33.202-.647.415-.951.638l1.183 1.612zm.822-.55c.236-.149.476-.292.719-.43l-.988-1.739c-.268.152-.532.31-.793.474l1.062 1.694zm2.211-1.196a20.63 20.63 0 011.554-.641l-.688-1.878c-.582.213-1.15.447-1.704.703l.838 1.816zm3.157-1.16c.535-.15 1.082-.283 1.643-.4l-.405-1.958c-.605.125-1.199.27-1.78.434l.542 1.925zm3.315-.687a28.554 28.554 0 011.692-.184l-.158-1.994c-.614.049-1.218.114-1.81.197l.276 1.98zm3.398-.272c.282-.007.568-.011.856-.011v-2c-.305 0-.607.004-.906.011l.05 2zm1.856-1.011v-.768h-2v.768h2zm0-2.303V2.947h-2v1.536h2zm0-3.071V.644h-2v.768h2zm-1 .232h.95v-2h-.95v2zm2.849 0h1.899v-2h-1.899v2zm3.799 0h1.899v-2h-1.899v2zm3.798 0h.95v-2h-.95v2zm-.05-1v.768h2V.644h-2zm0 2.303v1.536h2V2.947h-2zm0 3.071v.768h2v-.768h-2zm1 1.768c.286 0 .57.004.851.01l.051-1.999a35.493 35.493 0 00-.902-.011v2zm2.547.1c.573.045 1.133.107 1.683.185l.279-1.98a30.35 30.35 0 00-1.802-.2l-.16 1.994zm3.345.474c.557.116 1.101.25 1.633.4l.546-1.923a25.559 25.559 0 00-1.771-.435l-.408 1.958zm3.227.92a20.5 20.5 0 011.544.64l.841-1.815a22.667 22.667 0 00-1.694-.702l-.691 1.876zm3.028 1.404c.242.137.481.28.716.427l1.062-1.694c-.259-.163-.522-.32-.789-.472l-.989 1.739zm.721.43c.285.177.558.36.817.551l1.184-1.611c-.304-.224-.62-.437-.949-.64l-1.052 1.7zm2.279 1.837c.448.474.842.982 1.183 1.526l1.694-1.064a11.796 11.796 0 00-1.423-1.835l-1.454 1.373zm2.048 3.257c.228.59.409 1.216.543 1.881l1.961-.395a13.606 13.606 0 00-.638-2.206l-1.866.72zm.794 3.854c.019.327.029.663.029 1.006h2c0-.381-.011-.756-.033-1.124l-1.996.118zm.029 1.006v.974h2v-.974h-2zm0 2.923v1.949h2v-1.95h-2zm0 3.897v1.949h2v-1.949h-2zm0 3.898v.974h2v-.974h-2zm0 .974c0 .323-.011.64-.034.95l1.995.145c.026-.36.039-.725.039-1.095h-2zm-.321 2.805a9.925 9.925 0 01-.604 1.754l1.821.827a11.85 11.85 0 00.726-2.108l-1.943-.473zm-1.528 3.358c-.178.25-.37.495-.574.734l1.518 1.302c.244-.284.472-.577.686-.877l-1.63-1.159zm-.574.734c-.216.252-.44.495-.674.73l1.419 1.41c.268-.27.526-.55.773-.838l-1.518-1.302zm-2.173 2.035c-.523.394-1.081.757-1.675 1.091l.98 1.744a17.021 17.021 0 001.898-1.237l-1.203-1.598zm-3.487 1.971c-.308.128-.623.25-.946.365l.67 1.884c.356-.127.704-.26 1.045-.402l-.769-1.847zm-.937.362c-.358.123-.719.238-1.085.346l.563 1.919c.396-.116.787-.241 1.174-.375l-.652-1.89zm-3.3.888c-.738.146-1.491.262-2.26.349l.223 1.987a29.41 29.41 0 002.426-.374l-.389-1.962zm-4.548.517c-.38.013-.763.02-1.15.02v2c.41 0 .817-.007 1.221-.022l-.071-1.998zm-2.15 1.02v.786h2v-.786h-2zm0 2.359v1.572h2V48.81h-2zm0 3.145v.786h2v-.786h-2zm1-.214h-.95v2h.95v-2zm-2.849 0h-1.899v2h1.899v-2zm-3.799 0h-1.899v2h1.899v-2zm-3.798 0h-.95v2h.95v-2zm.05 1v-.786h-2v.786h2zm0-2.359V48.81h-2v1.572h2zm0-3.145v-.786h-2v.786h2zm-.852-33.828c-.541 0-1.065.03-1.571.091l.24 1.986c.42-.051.864-.077 1.331-.077v-2zm-4.672.97a8.3 8.3 0 00-1.408.861l1.208 1.594a6.298 6.298 0 011.07-.654l-.87-1.8zm-1.408.861c-.397.301-.753.63-1.064.99l1.512 1.31c.213-.247.465-.482.76-.706l-1.208-1.594zm-2.392 3.638c-.101.468-.15.952-.15 1.451h2c0-.368.036-.709.105-1.026l-1.955-.425zm-.15 1.451v1.085h2v-1.085h-2zm0 3.256v2.17h2v-2.17h-2zm0 4.341v2.171h2v-2.17h-2zm0 4.342v1.085h2v-1.085h-2zm0 1.085c0 .483.051.95.156 1.402l1.947-.455a4.198 4.198 0 01-.103-.947h-2zm1.518 3.919c.312.33.667.63 1.06.9l1.136-1.646c-.289-.2-.536-.41-.743-.629l-1.453 1.375zm1.093.922c.449.284.925.53 1.426.736l.761-1.85a7.168 7.168 0 01-1.117-.576l-1.07 1.69zm4.475 1.482c.496.053 1.008.079 1.536.079v-2c-.462 0-.903-.023-1.325-.067l-.211 1.988zm2.536-.921V37.74h-2v1.014h2zm0-3.043v-2.03h-2v2.03h2zm0-4.058v-2.029h-2v2.03h2zm0-4.058v-2.028h-2v2.028h2zm0-4.057v-2.03h-2v2.03h2zm0-4.058v-2.029h-2v2.03h2zm0-4.058v-1.014h-2v1.014h2zm11.1 23.406V37.81h-2v1.018h2zm0-3.053V33.74h-2v2.035h2zm0-4.07v-2.034h-2v2.035h2zm0-4.07V25.6h-2v2.035h2zm0-4.07V21.53h-2v2.035h2zm0-4.07V17.46h-2v2.035h2zm0-4.07v-1.017h-2v1.018h2zm-1-.017c.467 0 .911.026 1.331.077l.24-1.986a13.106 13.106 0 00-1.571-.091v2zm3.802.771c.383.185.739.403 1.07.654l1.208-1.594a8.262 8.262 0 00-1.408-.86l-.87 1.8zm1.07.654c.295.224.547.46.76.705l1.512-1.31a6.958 6.958 0 00-1.064-.989l-1.208 1.594zm1.645 2.469c.069.317.105.658.105 1.026h2c0-.5-.049-.983-.151-1.45l-1.954.424zm.105 1.026v1.085h2v-1.085h-2zm0 3.256v2.17h2v-2.17h-2zm0 4.341v2.171h2v-2.17h-2zm0 4.342v1.085h2v-1.085h-2zm0 1.085c0 .343-.038.658-.108.948l1.943.473c.111-.457.165-.932.165-1.421h-2zm-1.009 2.54a4.802 4.802 0 01-.766.624l1.11 1.664a6.84 6.84 0 001.081-.886l-1.425-1.403zm-.779.633c-.333.23-.692.43-1.076.6l.808 1.83c.496-.22.964-.48 1.404-.784l-1.136-1.646zm-3.526 1.233c-.414.046-.85.07-1.308.07v2c.526 0 1.037-.027 1.531-.082l-.223-1.988zm34.761-33.784v-.5h-.5v.5h.5zm36.63 0h.5v-.5h-.5v.5zm0 8.214v.5h.5v-.5h-.5zm-25.086 0v-.5h-.5v.5h.5zm0 11.026h-.5v.5h.5v-.5zm22.644 0h.5v-.5h-.5v.5zm0 8.214v.5h.5v-.5h-.5zm-22.644 0v-.5h-.5v.5h.5zm0 12.358h-.5v.5h.5v-.5zm25.826 0h.5v-.5h-.5v.5zm0 8.214v.5h.5V52h-.5zm-37.37 0h-.5v.5h.5V52zm-.5-48.026v1h1v-1h-1zm0 3.002v2h1v-2h-1zm0 4.002v2h1v-2h-1zm0 4.002v2.001h1V14.98h-1zm0 4.002v2.001h1v-2h-1zm0 4.002v2.001h1v-2h-1zm0 4.002v2.002h1v-2.002h-1zm0 4.003v2h1v-2h-1zm0 4.002v2h1v-2h-1zm0 4.002v2.001h1v-2.001h-1zm0 4.002v2.001h1v-2h-1zm0 4.002v2.001h1v-2h-1zm0 4.002V52h1v-1h-1zm.5 1.501h1.038v-1h-1.038v1zm3.114 0h2.076v-1h-2.076v1zm4.152 0h2.076v-1h-2.076v1zm4.152 0h2.076v-1h-2.076v1zm4.152 0h2.077v-1h-2.077v1zm4.153 0h2.076v-1h-2.076v1zm4.152 0h2.076v-1h-2.076v1zm4.152 0h2.076v-1h-2.076v1zm4.152 0h2.076v-1h-2.076v1zm4.153 0h1.038v-1h-1.038v1zm1.538-.5v-1.027h-1V52h1zm0-3.08v-2.054h-1v2.054h1zm0-4.107v-1.027h-1v1.027h1zm-.5-1.527h-1.077v1h1.077v-1zm-3.229 0h-2.152v1h2.152v-1zm-4.304 0h-2.152v1h2.152v-1zm-4.304 0h-2.153v1h2.153v-1zm-4.305 0h-2.152v1h2.152v-1zm-4.304 0h-2.152v1h2.152v-1zm-4.304 0h-1.076v1h1.076v-1zm-.576.5v-1.03h-1v1.03h1zm0-3.09v-2.06h-1v2.06h1zm0-4.119v-2.06h-1v2.06h1zm0-4.12v-1.029h-1v1.03h1zm-.5-.529h.943v-1h-.943v1zm2.83 0h1.887v-1h-1.887v1zm3.774 0h1.887v-1h-1.887v1zm3.774 0h1.887v-1h-1.887v1zm3.774 0h1.887v-1h-1.887v1zm3.774 0h1.887v-1h-1.887v1zm3.774 0h.944v-1h-.944v1zm1.444-.5v-1.027h-1v1.027h1zm0-3.08v-2.054h-1v2.054h1zm0-4.107v-1.027h-1v1.027h1zm-.5-1.527h-.944v1h.944v-1zm-2.831 0h-1.887v1h1.887v-1zm-3.774 0h-1.887v1h1.887v-1zm-3.774 0h-1.887v1h1.887v-1zm-3.774 0h-1.887v1h1.887v-1zm-3.774 0h-1.887v1h1.887v-1zm-3.774 0h-.943v1h.943v-1zm-.443.5v-.919h-1v.919h1zm0-2.756V18.62h-1v1.837h1zm0-3.676v-1.838h-1v1.838h1zm0-3.675v-.919h-1v.919h1zm-.5-.419h1.045v-1h-1.045v1zm3.135 0h2.091v-1h-2.091v1zm4.181 0h2.091v-1h-2.091v1zm4.181 0h2.091v-1h-2.091v1zm4.181 0h2.091v-1h-2.091v1zm4.181 0h2.091v-1h-2.091v1zm4.181 0h1.046v-1h-1.046v1zm1.546-.5v-1.027h-1v1.027h1zm0-3.08V7.054h-1v2.054h1zm0-4.107V3.974h-1v1.027h1zm-.5-1.527h-1.018v1h1.018v-1zm-3.053 0H216.8v1h2.035v-1zm-4.07 0h-2.035v1h2.035v-1zm-4.07 0h-2.035v1h2.035v-1zm-4.07 0h-2.035v1h2.035v-1zm-4.07 0h-2.035v1h2.035v-1zm-4.07 0h-2.035v1h2.035v-1zm-4.07 0h-2.035v1h2.035v-1zm-4.07 0h-2.035v1h2.035v-1zm-4.07 0h-1.017v1h1.017v-1zm-1.017.5v-1h-1v1h1zm36.63 0h1v-1h-1v1zm0 8.214v1h1v-1h-1zm-25.086 0v-1h-1v1h1zm0 11.026h-1v1h1v-1zm22.644 0h1v-1h-1v1zm0 8.214v1h1v-1h-1zm-22.644 0v-1h-1v1h1zm0 12.358h-1v1h1v-1zm25.826 0h1v-1h-1v1zm0 8.214v1h1v-1h-1zm-37.37 0h-1v1h1v-1zm-1-48.026v1h2v-1h-2zm0 3.002v2h2v-2h-2zm0 4.002v2h2v-2h-2zm0 4.002v2.001h2V14.98h-2zm0 4.002v2.001h2v-2h-2zm0 4.002v2.001h2v-2h-2zm0 4.002v2.002h2v-2.002h-2zm0 4.003v2h2v-2h-2zm0 4.002v2h2v-2h-2zm0 4.002v2.001h2v-2.001h-2zm0 4.002v2.001h2v-2h-2zm0 4.002v2.001h2v-2h-2zm0 4.002V52h2v-1h-2zm1 2.001h1.038v-2h-1.038v2zm3.114 0h2.076v-2h-2.076v2zm4.152 0h2.076v-2h-2.076v2zm4.152 0h2.076v-2h-2.076v2zm4.152 0h2.077v-2h-2.077v2zm4.153 0h2.076v-2h-2.076v2zm4.152 0h2.076v-2h-2.076v2zm4.152 0h2.076v-2h-2.076v2zm4.152 0h2.076v-2h-2.076v2zm4.153 0h1.038v-2h-1.038v2zm2.038-1v-1.027h-2V52h2zm0-3.08v-2.054h-2v2.054h2zm0-4.107v-1.027h-2v1.027h2zm-1-2.027h-1.077v2h1.077v-2zm-3.229 0h-2.152v2h2.152v-2zm-4.304 0h-2.152v2h2.152v-2zm-4.304 0h-2.153v2h2.153v-2zm-4.305 0h-2.152v2h2.152v-2zm-4.304 0h-2.152v2h2.152v-2zm-4.304 0h-1.076v2h1.076v-2zm-.076 1v-1.03h-2v1.03h2zm0-3.09v-2.06h-2v2.06h2zm0-4.119v-2.06h-2v2.06h2zm0-4.12v-1.029h-2v1.03h2zm-1-.029h.943v-2h-.943v2zm2.83 0h1.887v-2h-1.887v2zm3.774 0h1.887v-2h-1.887v2zm3.774 0h1.887v-2h-1.887v2zm3.774 0h1.887v-2h-1.887v2zm3.774 0h1.887v-2h-1.887v2zm3.774 0h.944v-2h-.944v2zm1.944-1v-1.027h-2v1.027h2zm0-3.08v-2.054h-2v2.054h2zm0-4.107v-1.027h-2v1.027h2zm-1-2.027h-.944v2h.944v-2zm-2.831 0h-1.887v2h1.887v-2zm-3.774 0h-1.887v2h1.887v-2zm-3.774 0h-1.887v2h1.887v-2zm-3.774 0h-1.887v2h1.887v-2zm-3.774 0h-1.887v2h1.887v-2zm-3.774 0h-.943v2h.943v-2zm.057 1v-.919h-2v.919h2zm0-2.756V18.62h-2v1.837h2zm0-3.676v-1.838h-2v1.838h2zm0-3.675v-.919h-2v.919h2zm-1 .081h1.045v-2h-1.045v2zm3.135 0h2.091v-2h-2.091v2zm4.181 0h2.091v-2h-2.091v2zm4.181 0h2.091v-2h-2.091v2zm4.181 0h2.091v-2h-2.091v2zm4.181 0h2.091v-2h-2.091v2zm4.181 0h1.046v-2h-1.046v2zm2.046-1v-1.027h-2v1.027h2zm0-3.08V7.054h-2v2.054h2zm0-4.107V3.974h-2v1.027h2zm-1-2.027h-1.018v2h1.018v-2zm-3.053 0H216.8v2h2.035v-2zm-4.07 0h-2.035v2h2.035v-2zm-4.07 0h-2.035v2h2.035v-2zm-4.07 0h-2.035v2h2.035v-2zm-4.07 0h-2.035v2h2.035v-2zm-4.07 0h-2.035v2h2.035v-2zm-4.07 0h-2.035v2h2.035v-2zm-4.07 0h-2.035v2h2.035v-2zm-4.07 0h-1.017v2h1.017v-2zm51.919 1v-.5h-.5v.5h.5zm11.544 0h.5v-.5h-.5v.5zm0 18.944h-.5v.5h.5v-.5zm5.254-1.184l.255.43.011-.007-.266-.423zm4.366-4.736l-.411-.285-.003.004.414.281zm9.028-13.024v-.5h-.262l-.149.215.411.285zm12.95 0l.406.292.568-.792h-.974v.5zm-10.36 14.43l-.407-.292-.001.002.408.29zm-4.366 5.106l.331.374h.001l-.332-.374zm-4.81 2.812l-.18-.467-.32.124v.343h.5zm0 .148h-.5v.394l.383.092.117-.486zm6.142 3.182l-.343.364.006.006.337-.37zm4.884 6.66l-.44.238.44-.238zM281.336 52v.5h.84l-.401-.738-.439.238zm-12.95 0l-.438.243.143.257h.295V52zm-7.844-14.134l-.438.242.438-.242zm-3.034-4.218l-.363.344.009.01.009.008.345-.362zm-3.182-1.998l.14-.48-.14.48zm-4.588-.518v-.5h-.5v.5h.5zm0 20.868v.5h.5V52h-.5zm-11.544 0h-.5v.5h.5V52zm-.5-48.026v1h1v-1h-1zm0 3.002v2h1v-2h-1zm0 4.002v2h1v-2h-1zm0 4.002v2.001h1V14.98h-1zm0 4.002v2.001h1v-2h-1zm0 4.002v2.001h1v-2h-1zm0 4.002v2.002h1v-2.002h-1zm0 4.003v2h1v-2h-1zm0 4.002v2h1v-2h-1zm0 4.002v2.001h1v-2.001h-1zm0 4.002v2.001h1v-2h-1zm0 4.002v2.001h1v-2h-1zm0 4.002V52h1v-1h-1zm.5 1.501h.962v-1h-.962v1zm2.886 0h1.924v-1h-1.924v1zm3.848 0h1.924v-1h-1.924v1zm3.848 0h.962v-1h-.962v1zm1.462-.5v-1.043h-1V52h1zm0-3.13v-2.087h-1v2.087h1zm0-4.174V42.61h-1v2.087h1zm0-4.173v-2.087h-1v2.087h1zm0-4.174v-2.087h-1v2.087h1zm0-4.174v-1.043h-1v1.043h1zm-.5-.543c.395 0 .774.008 1.136.023l.043-.999a27.73 27.73 0 00-1.179-.024v1zm3.373.252c.39.068.748.15 1.075.246l.28-.96c-.367-.107-.76-.197-1.181-.271l-.174.985zm1.075.246c.282.082.556.184.823.306l.414-.91a7.058 7.058 0 00-.957-.356l-.28.96zm2.309 1.25c.222.186.439.39.65.612l.725-.688a8.78 8.78 0 00-.733-.69l-.642.766zm.668.63c.276.262.557.566.843.913l.771-.636a11.153 11.153 0 00-.925-1.002l-.689.726zM259.46 37c.213.347.428.717.644 1.108l.875-.484a28.32 28.32 0 00-.666-1.147l-.853.522zm.644 1.109l.491.883.874-.485-.49-.884-.875.486zm1.471 2.65l.981 1.767.874-.486-.98-1.767-.875.486zm1.961 3.533l.981 1.767.874-.485-.98-1.767-.875.485zm1.961 3.534l.981 1.767.874-.486-.98-1.767-.875.486zm1.961 3.533l.49.884.875-.486-.49-.883-.875.485zm.928 1.141h1.079v-1h-1.079v1zm3.237 0h2.158v-1h-2.158v1zm4.317 0h2.158v-1h-2.158v1zm4.316 0h1.08v-1h-1.08v1zm1.519-.738l-.532-.98-.879.476.532.98.879-.476zm-1.596-2.942l-1.063-1.96-.879.476 1.063 1.96.879-.476zm-2.127-3.922l-1.064-1.96-.879.476 1.064 1.96.879-.476zm-2.128-3.922l-1.063-1.96-.879.476 1.063 1.96.879-.476zm-2.127-3.922l-.532-.98-.879.476.532.98.879-.476zm-.532-.98c-.17-.314-.34-.62-.512-.917l-.867.499c.167.29.334.588.5.894l.879-.476zm-1.612-2.71a26.87 26.87 0 00-1.225-1.72l-.79.612c.395.51.788 1.062 1.179 1.657l.836-.549zm-2.609-3.334a15.794 15.794 0 00-.766-.748l-.673.74c.239.218.478.452.717.7l.722-.692zm-.76-.742c-.222-.208-.45-.408-.687-.6l-.629.778c.217.176.428.36.631.55l.685-.728zm-2.18-1.64a13.629 13.629 0 00-1.617-.82l-.394.919c.527.225 1.026.479 1.5.76l.511-.858zm-3.318-1.431a16.953 16.953 0 00-.87-.233l-.233.972c.279.067.552.14.82.22l.283-.96zm-.486.253v-.037h-1v.037h1zm0-.111v-.037h-1v.037h1zm-.321.43a19.93 19.93 0 001.321-.562l-.424-.905c-.401.188-.82.366-1.256.533l.359.934zm3.822-2.003c.403-.285.783-.586 1.14-.902l-.663-.748c-.329.29-.68.569-1.055.834l.578.816zm1.141-.902c.208-.186.419-.383.632-.591l-.7-.715a16.21 16.21 0 01-.597.558l.665.748zm1.813-1.84a33.98 33.98 0 001.097-1.31l-.783-.622a32.11 32.11 0 01-1.063 1.27l.749.663zm2.13-2.662a48.7 48.7 0 00.498-.688l-.815-.58c-.164.231-.327.456-.488.676l.805.592zm.497-.686l.647-.902-.812-.584-.648.902.813.584zm1.942-2.706l1.295-1.804-.812-.583-1.295 1.804.812.583zm2.59-3.607l1.295-1.804-.812-.583-1.295 1.803.812.584zm2.59-3.608l1.295-1.804-.812-.583-1.295 1.804.812.583zm2.59-3.608l.648-.901-.813-.584-.647.902.812.583zm.242-1.693h-1.08v1h1.08v-1zm-3.238 0h-2.158v1h2.158v-1zm-4.317 0h-2.158v1h2.158v-1zm-4.316 0h-1.079v1h1.079v-1zm-1.49.215l-.565.814.822.57.565-.814-.822-.57zm-1.693 2.442l-1.129 1.628.822.57 1.129-1.628-.822-.57zm-2.257 3.256l-1.129 1.628.822.57 1.129-1.628-.822-.57zm-2.257 3.256l-1.129 1.628.822.57 1.129-1.628-.822-.57zm-2.257 3.256l-.564.814.822.57.564-.814-.822-.57zm-.567.818a31.43 31.43 0 01-.457.655l.814.582c.155-.218.312-.443.47-.675l-.827-.562zm-1.418 1.922c-.356.44-.702.835-1.04 1.186l.72.693a19.28 19.28 0 001.098-1.25l-.778-.629zm-2.183 2.234a7.17 7.17 0 01-.618.438l.533.846a8.29 8.29 0 00.703-.498l-.618-.786zm-.606.43c-.348.207-.73.386-1.148.536l.34.941a7.71 7.71 0 001.317-.616l-.509-.86zm-3.682 1.06c-.418.037-.857.055-1.317.055v1c.486 0 .954-.02 1.404-.058l-.087-.997zm-.817.555v-.947h-1v.947h1zm0-2.842v-1.894h-1v1.894h1zm0-3.788v-1.895h-1v1.895h1zm0-3.79v-1.894h-1V12.5h1zm0-3.788V6.816h-1V8.71h1zm0-3.789v-.947h-1v.947h1zm-.5-1.447h-.962v1h.962v-1zm-2.886 0h-1.924v1h1.924v-1zm-3.848 0h-1.924v1h1.924v-1zm-3.848 0h-.962v1h.962v-1zm-.962.5v-1h-1v1h1zm11.544 0h1v-1h-1v1zm0 18.944h-1v1h1v-1zm5.254-1.184l.509.86.012-.007.011-.007-.532-.846zm4.366-4.736l-.822-.57-.005.007.827.563zm9.028-13.024v-1h-.524l-.298.43.822.57zm12.95 0l.812.583 1.137-1.583h-1.949v1zm-10.36 14.43l-.813-.583-.002.003.815.58zm-4.366 5.106l.662.749.002-.002-.664-.747zm-4.81 2.812l-.359-.933-.641.246v.687h1zm0 .148h-1v.788l.766.184.234-.972zm6.142 3.182l-.685.729.005.005.006.005.674-.739zm4.884 6.66l-.879.477.879-.477zM281.336 52v1h1.68l-.801-1.477-.879.477zm-12.95 0l-.875.485.286.515h.589v-1zm-7.844-14.134l-.876.484.001.001.875-.485zm-3.034-4.218l-.725.689.017.018.019.018.689-.725zm-3.182-1.998l.28-.96-.28.96zm-4.588-.518v-1h-1v1h1zm0 20.868v1h1v-1h-1zm-11.544 0h-1v1h1v-1zm-1-48.026v1h2v-1h-2zm0 3.002v2h2v-2h-2zm0 4.002v2h2v-2h-2zm0 4.002v2.001h2V14.98h-2zm0 4.002v2.001h2v-2h-2zm0 4.002v2.001h2v-2h-2zm0 4.002v2.002h2v-2.002h-2zm0 4.003v2h2v-2h-2zm0 4.002v2h2v-2h-2zm0 4.002v2.001h2v-2.001h-2zm0 4.002v2.001h2v-2h-2zm0 4.002v2.001h2v-2h-2zm0 4.002V52h2v-1h-2zm1 2.001h.962v-2h-.962v2zm2.886 0h1.924v-2h-1.924v2zm3.848 0h1.924v-2h-1.924v2zm3.848 0h.962v-2h-.962v2zm1.962-1v-1.043h-2V52h2zm0-3.13v-2.087h-2v2.087h2zm0-4.174V42.61h-2v2.087h2zm0-4.173v-2.087h-2v2.087h2zm0-4.174v-2.087h-2v2.087h2zm0-4.174v-1.043h-2v1.043h2zm-1-.043c.388 0 .76.008 1.115.023l.085-1.998a28.087 28.087 0 00-1.2-.025v2zm3.286.244c.375.066.715.145 1.022.234l.56-1.92a11.633 11.633 0 00-1.235-.284l-.347 1.97zm1.022.234c.259.075.51.17.755.28l.83-1.82a7.681 7.681 0 00-1.025-.38l-.56 1.92zm2.128 1.154c.207.173.41.364.609.573l1.45-1.378a9.437 9.437 0 00-.775-.73l-1.284 1.535zm.645.609c.259.246.526.534.801.868l1.543-1.272a11.784 11.784 0 00-.967-1.046l-1.377 1.45zm2.215 2.887c.209.342.42.705.632 1.09l1.751-.968a31.425 31.425 0 00-.677-1.165l-1.706 1.043zm.633 1.091l.49.884 1.749-.97-.49-.884-1.749.97zm1.471 2.65l.98 1.767 1.749-.97-.98-1.767-1.749.97zm1.961 3.534l.98 1.767 1.749-.97-.98-1.768-1.749.97zm1.961 3.533l.98 1.767 1.749-.97-.98-1.767-1.749.97zm1.961 3.534l.49.883 1.749-.97-.49-.884-1.749.97zM268.386 53h1.079v-2h-1.079v2zm3.237 0h2.158v-2h-2.158v2zm4.317 0h2.158v-2h-2.158v2zm4.316 0h1.08v-2h-1.08v2zm1.959-1.477l-.532-.98-1.758.953.532.98 1.758-.953zm-1.596-2.941l-1.064-1.961-1.758.953 1.064 1.961 1.758-.953zm-2.128-3.922l-1.063-1.961-1.758.953 1.063 1.961 1.758-.953zm-2.127-3.922l-1.064-1.961-1.758.953 1.064 1.961 1.758-.953zm-2.128-3.922l-.531-.98-1.758.953.531.98 1.758-.953zm-.531-.98a45.676 45.676 0 00-.518-.928l-1.734.997c.165.286.329.581.494.884l1.758-.954zm-1.634-2.746a27.87 27.87 0 00-1.248-1.753l-1.581 1.225c.387.499.773 1.04 1.158 1.626l1.671-1.098zm-2.666-3.406a16.517 16.517 0 00-.79-.771l-1.347 1.478c.231.21.462.436.693.678l1.444-1.385zm-.779-.76a12.45 12.45 0 00-.714-.624l-1.259 1.554c.208.169.409.344.604.527l1.369-1.458zm-2.266-1.705c-.532-.317-1.091-.6-1.676-.851l-.788 1.838c.507.217.987.461 1.441.732l1.023-1.719zm-3.432-1.482a17.588 17.588 0 00-.895-.24l-.467 1.945c.271.065.536.136.795.213l.567-1.918zm-.128.733v-.037h-2v.037h2zm0-.111v-.037h-2v.037h2zm-.641.896c.467-.18.919-.371 1.354-.575l-.849-1.811c-.39.183-.797.356-1.223.52l.718 1.866zm3.93-2.06a13.99 13.99 0 001.183-.936l-1.325-1.498c-.315.279-.652.546-1.013.8l1.155 1.633zm1.185-.938a17.8 17.8 0 00.65-.607l-1.4-1.429c-.197.193-.39.373-.579.542l1.329 1.494zm1.856-1.881a34.2 34.2 0 001.113-1.33l-1.565-1.246c-.358.45-.707.866-1.047 1.251l1.499 1.325zm2.158-2.697c.166-.226.334-.458.503-.695l-1.63-1.16c-.163.23-.324.452-.484.67l1.611 1.185zm.5-.692l.647-.902-1.624-1.166-.648.902 1.625 1.166zm1.942-2.705l1.295-1.804-1.624-1.167-1.295 1.804 1.624 1.167zm2.59-3.608l1.295-1.804-1.624-1.166-1.295 1.804 1.624 1.166zm2.59-3.607l1.295-1.804-1.624-1.167-1.295 1.804 1.624 1.167zm2.59-3.608l.648-.902-1.625-1.166-.647.902 1.624 1.166zm-.164-2.485h-1.08v2h1.08v-2zm-3.238 0h-2.158v2h2.158v-2zm-4.317 0h-2.158v2h2.158v-2zm-4.316 0h-1.079v2h1.079v-2zm-1.901.43l-.565.814 1.644 1.14.564-.814-1.643-1.14zm-1.693 2.442l-1.129 1.628 1.644 1.14 1.129-1.628-1.644-1.14zm-2.257 3.256l-1.128 1.628 1.643 1.14 1.129-1.628-1.644-1.14zm-2.257 3.256l-1.129 1.628 1.644 1.14 1.129-1.628-1.644-1.14zm-2.257 3.256l-.564.814 1.643 1.14.565-.814-1.644-1.14zm-.569.821a38.99 38.99 0 01-.45.646l1.626 1.164c.158-.221.317-.45.477-.684l-1.653-1.126zm-1.394 1.89c-.348.43-.685.814-1.012 1.153l1.442 1.387a20.07 20.07 0 001.125-1.282l-1.555-1.258zm-2.103 2.155a6.827 6.827 0 01-.575.408l1.065 1.692a8.46 8.46 0 00.746-.529l-1.236-1.571zm-.552.394a6.197 6.197 0 01-1.062.495l.678 1.881c.499-.18.968-.398 1.403-.656l-1.019-1.72zm-3.47.991c-.402.035-.827.053-1.274.053v2c.5 0 .982-.02 1.447-.06l-.173-1.993zm-.274 1.053v-.947h-2v.947h2zm0-2.842v-1.894h-2v1.894h2zm0-3.788v-1.895h-2v1.895h2zm0-3.79v-1.894h-2V12.5h2zm0-3.788V6.816h-2V8.71h2zm0-3.789v-.947h-2v.947h2zm-1-1.947h-.962v2h.962v-2zm-2.886 0h-1.924v2h1.924v-2zm-3.848 0h-1.924v2h1.924v-2zm-3.848 0h-.962v2h.962v-2zm66.398 9.214h.5v-.5h-.5v.5zm-14.8 0h-.5v.5h.5v-.5zm0-8.214v-.5h-.5v.5h.5zm41.07 0h.5v-.5h-.5v.5zm0 8.214v.5h.5v-.5h-.5zm-14.726 0v-.5h-.5v.5h.5zm0 39.812v.5h.5V52h-.5zm-11.544 0h-.5v.5h.5V52zm0-40.312h-.925v1h.925v-1zm-2.775 0h-1.85v1h1.85v-1zm-3.7 0h-1.85v1h1.85v-1zm-3.7 0h-1.85v1h1.85v-1zm-3.7 0h-.925v1h.925v-1zm-.425.5v-1.027h-1v1.027h1zm0-3.08V7.054h-1v2.054h1zm0-4.107V3.974h-1v1.027h1zm-.5-.527h1.027v-1h-1.027v1zm3.08 0h2.054v-1h-2.054v1zm4.107 0h2.054v-1h-2.054v1zm4.107 0h2.054v-1h-2.054v1zm4.107 0h2.054v-1h-2.054v1zm4.107 0h2.054v-1h-2.054v1zm4.107 0h2.054v-1h-2.054v1zm4.107 0h2.054v-1h-2.054v1zm4.107 0h2.054v-1h-2.054v1zm4.107 0h2.054v-1h-2.054v1zm4.107 0h1.027v-1h-1.027v1zm.527-.5v1.027h1V3.974h-1zm0 3.08v2.054h1V7.054h-1zm0 4.107v1.027h1v-1.027h-1zm.5.527h-.921v1h.921v-1zm-2.761 0h-1.841v1h1.841v-1zm-3.682 0h-1.841v1h1.841v-1zm-3.681 0h-1.841v1h1.841v-1zm-3.682 0h-.92v1h.92v-1zm-1.42.5v.995h1v-.995h-1zm0 2.986v1.99h1v-1.99h-1zm0 3.981v1.99h1v-1.99h-1zm0 3.981v1.99h1v-1.99h-1zm0 3.982v1.99h1v-1.99h-1zm0 3.98v1.991h1V31.1h-1zm0 3.982v1.99h1v-1.99h-1zm0 3.981v1.99h1v-1.99h-1zm0 3.981v1.99h1v-1.99h-1zm0 3.981v1.991h1v-1.99h-1zm0 3.982V52h1v-.995h-1zm.5.495h-.962v1h.962v-1zm-2.886 0h-1.924v1h1.924v-1zm-3.848 0h-1.924v1h1.924v-1zm-3.848 0h-.962v1h.962v-1zm-.462.5v-.995h-1V52h1zm0-2.986v-1.99h-1v1.99h1zm0-3.981v-1.99h-1v1.99h1zm0-3.981v-1.99h-1v1.99h1zm0-3.981V35.08h-1v1.99h1zm0-3.982V31.1h-1v1.99h1zm0-3.98v-1.992h-1v1.991h1zm0-3.982v-1.99h-1v1.99h1zm0-3.981v-1.99h-1v1.99h1zm0-3.982v-1.99h-1v1.99h1zm0-3.98v-.996h-1v.995h1zm-.5-.996h1v-1h-1v1zm-14.8 0h-1v1h1v-1zm0-8.214v-1h-1v1h1zm41.07 0h1v-1h-1v1zm0 8.214v1h1v-1h-1zm-14.726 0v-1h-1v1h1zm0 39.812v1h1v-1h-1zm-11.544 0h-1v1h1v-1zm0-40.812h-.925v2h.925v-2zm-2.775 0h-1.85v2h1.85v-2zm-3.7 0h-1.85v2h1.85v-2zm-3.7 0h-1.85v2h1.85v-2zm-3.7 0h-.925v2h.925v-2zm.075 1v-1.027h-2v1.027h2zm0-3.08V7.054h-2v2.054h2zm0-4.107V3.974h-2v1.027h2zm-1-.027h1.027v-2h-1.027v2zm3.08 0h2.054v-2h-2.054v2zm4.107 0h2.054v-2h-2.054v2zm4.107 0h2.054v-2h-2.054v2zm4.107 0h2.054v-2h-2.054v2zm4.107 0h2.054v-2h-2.054v2zm4.107 0h2.054v-2h-2.054v2zm4.107 0h2.054v-2h-2.054v2zm4.107 0h2.054v-2h-2.054v2zm4.107 0h2.054v-2h-2.054v2zm4.107 0h1.027v-2h-1.027v2zm.027-1v1.027h2V3.974h-2zm0 3.08v2.054h2V7.054h-2zm0 4.107v1.027h2v-1.027h-2zm1 .027h-.921v2h.921v-2zm-2.761 0h-1.841v2h1.841v-2zm-3.682 0h-1.841v2h1.841v-2zm-3.681 0h-1.841v2h1.841v-2zm-3.682 0h-.92v2h.92v-2zm-1.92 1v.995h2v-.995h-2zm0 2.986v1.99h2v-1.99h-2zm0 3.981v1.99h2v-1.99h-2zm0 3.981v1.99h2v-1.99h-2zm0 3.982v1.99h2v-1.99h-2zm0 3.98v1.991h2V31.1h-2zm0 3.982v1.99h2v-1.99h-2zm0 3.981v1.99h2v-1.99h-2zm0 3.981v1.99h2v-1.99h-2zm0 3.981v1.991h2v-1.99h-2zm0 3.982V52h2v-.995h-2zm1-.005h-.962v2h.962v-2zm-2.886 0h-1.924v2h1.924v-2zm-3.848 0h-1.924v2h1.924v-2zm-3.848 0h-.962v2h.962v-2zm.038 1v-.995h-2V52h2zm0-2.986v-1.99h-2v1.99h2zm0-3.981v-1.99h-2v1.99h2zm0-3.981v-1.99h-2v1.99h2zm0-3.981V35.08h-2v1.99h2zm0-3.982V31.1h-2v1.99h2zm0-3.98v-1.992h-2v1.991h2zm0-3.982v-1.99h-2v1.99h2zm0-3.981v-1.99h-2v1.99h2zm0-3.982v-1.99h-2v1.99h2zm0-3.98v-.996h-2v.995h2zm39.68-9.21v-.5h-.5v.5h.5zm11.544 0h.5v-.5h-.5v.5zm0 32.856h-.5v1.73l.923-1.463-.423-.267zm20.72-32.856v-.5h-.276l-.147.233.423.267zm11.544 0h.5v-.5h-.5v.5zm0 48.026v.5h.5V52h-.5zm-11.544 0h-.5v.5h.5V52zm0-33.374h.5v-1.753l-.925 1.49.425.263zM357.778 52v.5h.278l.146-.236-.424-.264zm-11.544 0h-.5v.5h.5V52zm-.5-48.026v1h1v-1h-1zm0 3.002v2h1v-2h-1zm0 4.002v2h1v-2h-1zm0 4.002v2.001h1V14.98h-1zm0 4.002v2.001h1v-2h-1zm0 4.002v2.001h1v-2h-1zm0 4.002v2.002h1v-2.002h-1zm0 4.003v2h1v-2h-1zm0 4.002v2h1v-2h-1zm0 4.002v2.001h1v-2.001h-1zm0 4.002v2.001h1v-2h-1zm0 4.002v2.001h1v-2h-1zm0 4.002V52h1v-1h-1zm.5 1.501h.962v-1h-.962v1zm2.886 0h1.924v-1h-1.924v1zm3.848 0h1.924v-1h-1.924v1zm3.848 0h.962v-1h-.962v1zm1.386-.236l.518-.835-.849-.527-.518.834.849.528zm1.554-2.503l1.036-1.669-.849-.527-1.036 1.668.849.528zm2.072-3.338l1.036-1.668-.849-.528-1.036 1.669.849.527zm2.072-3.337l1.036-1.669-.849-.527-1.036 1.668.849.528zm2.072-3.337l1.036-1.67-.849-.527-1.036 1.669.849.528zm2.072-3.338l1.036-1.669-.849-.527-1.036 1.669.849.527zm2.072-3.337l1.036-1.669-.849-.527-1.036 1.668.849.528zm2.072-3.338l1.036-1.668-.849-.528-1.036 1.669.849.527zm2.072-3.337l1.036-1.669-.849-.527-1.036 1.668.849.528zm2.072-3.338l1.036-1.668-.849-.528-1.036 1.669.849.527zm2.072-3.337l.518-.834-.849-.528-.518.835.849.527zm-.406-1.098v1.043h1v-1.043h-1zm0 3.129v2.086h1v-2.086h-1zm0 4.172v2.085h1v-2.085h-1zm0 4.171v2.086h1v-2.086h-1zm0 4.172v2.086h1V34.27h-1zm0 4.172v2.086h1v-2.086h-1zm0 4.172v2.085h1v-2.085h-1zm0 4.171v2.086h1v-2.086h-1zm0 4.172V52h1v-1.043h-1zm.5 1.543h.962v-1h-.962v1zm2.886 0h1.924v-1h-1.924v1zm3.848 0h1.924v-1h-1.924v1zm3.848 0h.962v-1h-.962v1zm1.462-.5v-1h-1v1h1zm0-3.002v-2h-1v2h1zm0-4.002v-2h-1v2h1zm0-4.002v-2.001h-1v2.001h1zm0-4.002V34.99h-1v2h1zm0-4.002v-2.001h-1v2h1zm0-4.003v-2h-1v2h1zm0-4.002v-2h-1v2h1zm0-4.002v-2h-1v2h1zm0-4.002V14.98h-1v2.001h1zm0-4.002v-2.001h-1v2h1zm0-4.002V6.976h-1v2h1zm0-4.002V3.974h-1v1h1zm-.5-1.501h-.962v1h.962v-1zm-2.886 0h-1.924v1h1.924v-1zm-3.848 0h-1.924v1h1.924v-1zm-3.848 0h-.962v1h.962v-1zm-1.385.233l-.518.822.846.533.518-.821-.846-.534zm-1.554 2.464l-1.036 1.643.846.534 1.036-1.643-.846-.534zm-2.072 3.286l-1.036 1.643.846.533 1.036-1.642-.846-.534zm-2.072 3.286l-1.036 1.643.846.533 1.036-1.643-.846-.533zm-2.072 3.285l-1.036 1.643.846.534 1.036-1.643-.846-.534zm-2.072 3.286l-1.036 1.643.846.533 1.036-1.643-.846-.533zm-2.072 3.285l-1.036 1.643.846.534 1.036-1.643-.846-.534zm-2.072 3.286l-1.036 1.643.846.533 1.036-1.642-.846-.534zm-2.072 3.286l-1.036 1.643.846.533 1.036-1.643-.846-.533zm-2.072 3.285l-1.036 1.643.846.534 1.036-1.643-.846-.534zm-2.072 3.286l-.518.821.846.534.518-.822-.846-.533zm.405 1.088v-1.027h-1v1.027h1zm0-3.08v-2.054h-1v2.054h1zm0-4.107v-2.054h-1v2.054h1zm0-4.107v-2.054h-1v2.054h1zm0-4.107v-2.054h-1v2.054h1zm0-4.107v-2.054h-1v2.054h1zm0-4.107V11.16h-1v2.054h1zm0-4.107V7.054h-1v2.054h1zm0-4.107V3.974h-1v1.027h1zm-.5-1.527h-.962v1h.962v-1zm-2.886 0h-1.924v1h1.924v-1zm-3.848 0h-1.924v1h1.924v-1zm-3.848 0h-.962v1h.962v-1zm-.962.5v-1h-1v1h1zm11.544 0h1v-1h-1v1zm0 32.856h-1v3.46l1.845-2.927-.845-.533zm20.72-32.856v-1h-.552l-.294.467.846.533zm11.544 0h1v-1h-1v1zm0 48.026v1h1v-1h-1zm-11.544 0h-1v1h1v-1zm0-33.374h1v-3.507l-1.85 2.98.85.527zM357.778 52v1h.556l.293-.472-.849-.528zm-11.544 0h-1v1h1v-1zm-1-48.026v1h2v-1h-2zm0 3.002v2h2v-2h-2zm0 4.002v2h2v-2h-2zm0 4.002v2.001h2V14.98h-2zm0 4.002v2.001h2v-2h-2zm0 4.002v2.001h2v-2h-2zm0 4.002v2.002h2v-2.002h-2zm0 4.003v2h2v-2h-2zm0 4.002v2h2v-2h-2zm0 4.002v2.001h2v-2.001h-2zm0 4.002v2.001h2v-2h-2zm0 4.002v2.001h2v-2h-2zm0 4.002V52h2v-1h-2zm1 2.001h.962v-2h-.962v2zm2.886 0h1.924v-2h-1.924v2zm3.848 0h1.924v-2h-1.924v2zm3.848 0h.962v-2h-.962v2zm1.811-.472l.518-.835-1.699-1.055-.518.834 1.699 1.056zm1.554-2.504l1.036-1.668-1.699-1.055-1.036 1.668 1.699 1.055zm2.072-3.337l1.036-1.669-1.699-1.055-1.036 1.67 1.699 1.054zm2.072-3.337l1.036-1.67-1.699-1.054-1.036 1.669 1.699 1.055zm2.072-3.338l1.036-1.669-1.699-1.054-1.036 1.668 1.699 1.055zm2.072-3.337l1.036-1.669-1.699-1.055-1.036 1.669 1.699 1.055zm2.072-3.338l1.036-1.668-1.699-1.055-1.036 1.668 1.699 1.055zM372.613 30l1.036-1.669-1.699-1.055-1.036 1.67L372.613 30zm2.072-3.337l1.036-1.67-1.699-1.054-1.036 1.669 1.699 1.055zm2.072-3.338l1.036-1.668-1.699-1.055-1.036 1.668 1.699 1.055zm2.072-3.337l.518-.834-1.699-1.055-.518.834 1.699 1.055zm-1.331-1.362v1.043h2v-1.043h-2zm0 3.129v2.086h2v-2.086h-2zm0 4.172v2.085h2v-2.085h-2zm0 4.171v2.086h2v-2.086h-2zm0 4.172v2.086h2V34.27h-2zm0 4.172v2.086h2v-2.086h-2zm0 4.172v2.085h2v-2.085h-2zm0 4.171v2.086h2v-2.086h-2zm0 4.172V52h2v-1.043h-2zm1 2.043h.962v-2h-.962v2zm2.886 0h1.924v-2h-1.924v2zm3.848 0h1.924v-2h-1.924v2zm3.848 0h.962v-2h-.962v2zm1.962-1v-1h-2v1h2zm0-3.002v-2h-2v2h2zm0-4.002v-2h-2v2h2zm0-4.002v-2.001h-2v2.001h2zm0-4.002V34.99h-2v2h2zm0-4.002v-2.001h-2v2h2zm0-4.003v-2h-2v2h2zm0-4.002v-2h-2v2h2zm0-4.002v-2h-2v2h2zm0-4.002V14.98h-2v2.001h2zm0-4.002v-2.001h-2v2h2zm0-4.002V6.976h-2v2h2zm0-4.002V3.974h-2v1h2zm-1-2.001h-.962v2h.962v-2zm-2.886 0h-1.924v2h1.924v-2zm-3.848 0h-1.924v2h1.924v-2zm-3.848 0h-.962v2h.962v-2zm-1.808.467l-.518.821 1.691 1.067.518-.822-1.691-1.066zm-1.554 2.464l-1.036 1.643 1.691 1.066 1.036-1.642-1.691-1.067zm-2.072 3.285l-1.036 1.643 1.691 1.067 1.036-1.643-1.691-1.067zm-2.072 3.286l-1.036 1.643 1.691 1.067 1.036-1.643-1.691-1.067zm-2.072 3.286l-1.036 1.642 1.691 1.067 1.036-1.643-1.691-1.066zm-2.072 3.285l-1.036 1.643 1.691 1.067 1.036-1.643-1.691-1.067zm-2.072 3.286l-1.036 1.643 1.691 1.066 1.036-1.642-1.691-1.067zm-2.072 3.285l-1.036 1.643 1.691 1.067 1.036-1.643-1.691-1.067zm-2.072 3.286l-1.036 1.643 1.691 1.067 1.036-1.643-1.691-1.067zm-2.072 3.286l-1.036 1.642 1.691 1.067 1.036-1.643-1.691-1.066zm-2.072 3.285l-.518.822 1.691 1.066.518-.821-1.691-1.067zm1.328 1.355v-1.027h-2v1.027h2zm0-3.08v-2.054h-2v2.054h2zm0-4.107v-2.054h-2v2.054h2zm0-4.107v-2.054h-2v2.054h2zm0-4.107v-2.054h-2v2.054h2zm0-4.107v-2.054h-2v2.054h2zm0-4.107V11.16h-2v2.054h2zm0-4.107V7.054h-2v2.054h2zm0-4.107V3.974h-2v1.027h2zm-1-2.027h-.962v2h.962v-2zm-2.886 0h-1.924v2h1.924v-2zm-3.848 0h-1.924v2h1.924v-2zm-3.848 0h-.962v2h.962v-2zm61.007 1v-.5h-.5v.5h.5zm30.044 1.036l-.135.482.011.003.124-.485zm5.328 3.182l-.41.287.005.006.405-.293zm-.074 15.762l-.369-.338-.007.009.376.329zm-3.7 2.442l-.148-.477-.352.109v.368h.5zm0 .37h-.5v.45l.447.047.053-.497zm5.106 2.442l-.342.365.006.006.007.005.329-.376zm-2.294 20.35l-.232-.443.232.443zM408.203 52h-.5v.5h.5V52zm23.532-28.934l-.158-.474.158.474zm1.776-1.406l-.447-.224-.004.007-.003.008.454.209zm.074-7.844l-.447.224.004.008.004.007.439-.239zm-1.85-1.258l-.134.482.007.002.127-.484zm-11.988-.37v-.5h-.5v.5h.5zm0 11.322h-.5v.5h.5v-.5zm14.208 19.314l-.238-.44.238.44zm.37-10.73l-.32.384.01.008.31-.392zm-14.578-1.11v-.5h-.5v.5h.5zm0 12.802h-.5v.5h.5v-.5zM407.703 3.974v1h1v-1h-1zm0 3.002v2h1v-2h-1zm0 4.002v2h1v-2h-1zm0 4.002v2.001h1V14.98h-1zm0 4.002v2.001h1v-2h-1zm0 4.002v2.001h1v-2h-1zm0 4.002v2.002h1v-2.002h-1zm0 4.003v2h1v-2h-1zm0 4.002v2h1v-2h-1zm0 4.002v2.001h1v-2.001h-1zm0 4.002v2.001h1v-2h-1zm0 4.002v2.001h1v-2h-1zm0 4.002V52h1v-1h-1zm.5 1.501h.999v-1h-.999v1zm2.997 0h1.998v-1H411.2v1zm3.996 0h1.998v-1h-1.998v1zm3.996 0h1.998v-1h-1.998v1zm3.996 0h1.998v-1h-1.998v1zm3.996 0h.999v-1h-.999v1zm.999 0c.314 0 .624-.002.93-.006l-.012-1c-.302.004-.608.006-.918.006v1zm2.788-.053c.638-.026 1.257-.06 1.858-.104l-.072-.998a56.04 56.04 0 01-1.826.102l.04 1zm3.716-.275a38.333 38.333 0 001.852-.253l-.16-.987c-.576.093-1.177.175-1.804.246l.112.994zm3.694-.609a23.16 23.16 0 001.821-.488l-.299-.954c-.546.171-1.126.327-1.743.467l.221.975zm3.601-1.149c.3-.131.587-.269.863-.413l-.464-.886c-.254.133-.521.26-.8.383l.401.916zm.863-.413c.264-.138.518-.285.762-.44l-.536-.844c-.22.14-.45.272-.69.398l.464.886zm2.161-1.523a8.365 8.365 0 001.157-1.352l-.826-.565c-.293.43-.632.826-1.018 1.19l.687.727zm1.999-2.918c.218-.532.39-1.095.515-1.688l-.979-.206a8.66 8.66 0 01-.461 1.514l.925.38zm.744-3.421c.017-.284.026-.574.026-.869h-1c0 .276-.008.545-.024.808l.998.06zm.026-.869v-.925h-1v.925h1zm0-2.775v-1.85h-1v1.85h1zm0-3.7v-.925h-1v.925h1zm0-.925a5.89 5.89 0 00-.182-1.46l-.969.248c.1.392.151.795.151 1.212h1zm-1.538-4.023a9.2 9.2 0 00-1.001-1.015l-.658.752c.338.296.635.598.893.906l.766-.643zm-.989-1.004a10.975 10.975 0 00-1.167-.955l-.577.816a9.99 9.99 0 011.061.87l.683-.731zm-3.896-2.283a8.693 8.693 0 00-1.499-.291l-.105.994c.454.048.896.134 1.327.258l.277-.96zm-1.051.206v-.092h-1v.092h1zm0-.277v-.093h-1v.092h1zm-.352.384a8.451 8.451 0 001.112-.432l-.429-.904a7.36 7.36 0 01-.979.382l.296.954zm3.094-1.748c.291-.258.569-.539.834-.842l-.752-.658a8.422 8.422 0 01-.746.752l.664.748zm.826-.833a7.98 7.98 0 00.701-.876l-.824-.567a6.958 6.958 0 01-.614.767l.737.676zm1.633-2.96c.085-.378.127-.762.127-1.152h-1c0 .317-.034.628-.103.936l.976.217zm.127-1.152V18.7h-1v1.48h1zm0-4.44v-1.48h-1v1.48h1zm0-1.48c0-.278-.006-.551-.017-.817l-.999.043c.01.251.016.51.016.774h1zm-.173-2.455a11.078 11.078 0 00-.366-1.623l-.955.295c.14.454.252.947.333 1.479l.988-.15zm-1.018-3.182a7.01 7.01 0 00-.458-.724l-.81.586c.14.194.271.4.392.62l.876-.482zm-.454-.718a6.404 6.404 0 00-.538-.668l-.736.677c.167.18.318.369.455.565l.819-.574zm-1.826-1.77c-.441-.3-.928-.57-1.459-.81l-.412.911c.484.22.92.461 1.308.726l.563-.827zm-3.001-1.388a16.243 16.243 0 00-.787-.222l-.247.97c.255.064.501.134.739.207l.295-.955zm-.775-.218c-.283-.08-.578-.154-.885-.224l-.222.975c.293.067.572.137.837.211l.27-.962zm-2.668-.557a35.72 35.72 0 00-1.787-.224l-.101.995c.614.062 1.193.134 1.738.217l.15-.988zm-3.577-.37a61.385 61.385 0 00-1.789-.085l-.034 1c.61.02 1.197.048 1.76.084l.063-.998zm-3.578-.124a87.922 87.922 0 00-.894-.004v1c.299 0 .594.001.884.004l.01-1zm-.894-.004h-.973v1h.973v-1zm-2.919 0h-1.947v1h1.947v-1zm-3.893 0h-1.946v1h1.946v-1zm-3.892 0h-1.946v1h1.946v-1zm-3.893 0h-1.946v1h1.946v-1zm-3.892 0h-.973v1h.973v-1zm18.489 19.536h-.99v1h.99v-1zm-2.969 0h-1.98v1h1.98v-1zm-3.959 0h-.99v1h.99v-1zm-.49.5v-.944h-1v.944h1zm0-2.83v-1.887h-1v1.887h1zm0-3.774v-1.887h-1v1.886h1zm0-3.774v-.944h-1v.944h1zm-.5-.444h.962v-1h-.962v1zm2.886 0h1.924v-1h-1.924v1zm3.848 0h.962v-1h-.962v1zm.962 0c.376 0 .731.005 1.066.013l.027-1a47.027 47.027 0 00-1.093-.013v1zm3.167.161a7.4 7.4 0 01.991.19l.268-.963a8.4 8.4 0 00-1.128-.218l-.131.991zm.998.192c.179.048.343.101.49.16l.37-.93a5.313 5.313 0 00-.606-.197l-.254.967zm1.284.657c.104.106.185.22.246.342l.894-.448a2.368 2.368 0 00-.423-.592l-.717.698zm.254.357c.071.131.137.294.192.494l.964-.268a3.387 3.387 0 00-.278-.704l-.878.478zm.366 1.662c.011.192.017.397.017.615h1c0-.235-.006-.46-.019-.674l-.998.059zm.017.615v.592h1v-.592h-1zm0 1.776v.592h1v-.592h-1zm0 .592c0 .256-.007.498-.021.727l.998.061c.015-.251.023-.514.023-.788h-1zm-.234 2.119a3.521 3.521 0 01-.231.617l.894.448a4.43 4.43 0 00.301-.799l-.964-.266zm-.238.632a1.693 1.693 0 01-.241.378l.766.643a2.69 2.69 0 00.383-.603l-.908-.418zm-1.002.947c-.144.07-.303.135-.478.194l.316.948c.213-.07.414-.152.602-.244l-.44-.898zm-.478.194a6.261 6.261 0 01-.924.22l.167.986c.4-.068.758-.153 1.073-.258l-.316-.948zm-2.903.401c-.317.011-.654.017-1.009.017v1c.366 0 .714-.006 1.045-.018l-.036-.999zm-.713 20.293h-1.027v1h1.027v-1zm-3.08 0h-2.054v1h2.054v-1zm-4.107 0h-1.027v1h1.027v-1zm-.527.5v-1.067h-1v1.067h1zm0-3.2v-2.134h-1v2.134h1zm0-4.268v-2.133h-1v2.133h1zm0-4.267v-1.067h-1v1.067h1zm-.5-.567h1.221v-1h-1.221v1zm3.663 0h2.442v-1h-2.442v1zm4.884 0h1.221v-1h-1.221v1zm1.221 0c.435 0 .841.013 1.221.04l.069-.998a18.614 18.614 0 00-1.29-.042v1zm3.543.474c.4.148.711.324.947.52l.64-.768a4.183 4.183 0 00-1.241-.69l-.346.938zm.957.528c.226.179.42.394.584.649l.841-.54a3.617 3.617 0 00-.805-.893l-.62.784zm1.159 2.404c.038.301.057.627.057.978h1a8.78 8.78 0 00-.065-1.102l-.992.123zm.057.978v.962h1v-.962h-1zm0 2.886v.962h1v-.962h-1zm0 .962c0 .302-.029.578-.085.83l.976.217c.073-.33.109-.68.109-1.047h-1zm-.85 2.197a3.187 3.187 0 01-.664.471l.476.88c.326-.177.618-.384.872-.622l-.684-.73zm-.664.471a4.624 4.624 0 01-.631.278l.339.94c.278-.1.535-.212.768-.338l-.476-.88zm-2.03.635c-.443.078-.933.14-1.472.183l.081.997a17.043 17.043 0 001.565-.196l-.174-.984zm-2.972.259a36.73 36.73 0 01-.754.008v1c.266 0 .524-.003.776-.008l-.022-1zM408.203 3.974v-1h-1v1h1zm30.044 1.036l-.27.963.011.003.012.003.247-.969zm5.328 3.182l-.819.573.004.007.005.007.81-.587zm-.074 15.762l-.737-.676-.008.009-.008.009.753.658zm-3.7 2.442l-.297-.955-.703.218v.737h1zm0 .37h-1v.9l.895.095.105-.995zm5.106 2.442l-.683.73.012.012.012.01.659-.752zm-2.294 20.35l-.464-.886.464.886zM408.203 52h-1v1h1v-1zm23.532-28.934l-.316-.949.316.949zm1.776-1.406l-.895-.447-.007.014-.006.014.908.419zm.074-7.844l-.895.447.008.016.009.016.878-.479zm-1.85-1.258l-.268.964.013.003.255-.967zm-11.988-.37v-1h-1v1h1zm0 11.322h-1v1h1v-1zm14.208 19.314l-.476-.88.476.88zm.37-10.73l-.64.768.01.009.01.008.62-.785zm-14.578-1.11v-1h-1v1h1zm0 12.802h-1v1h1v-1zM407.203 3.974v1h2v-1h-2zm0 3.002v2h2v-2h-2zm0 4.002v2h2v-2h-2zm0 4.002v2.001h2V14.98h-2zm0 4.002v2.001h2v-2h-2zm0 4.002v2.001h2v-2h-2zm0 4.002v2.002h2v-2.002h-2zm0 4.003v2h2v-2h-2zm0 4.002v2h2v-2h-2zm0 4.002v2.001h2v-2.001h-2zm0 4.002v2.001h2v-2h-2zm0 4.002v2.001h2v-2h-2zm0 4.002V52h2v-1h-2zm1 2.001h.999v-2h-.999v2zm2.997 0h1.998v-2H411.2v2zm3.996 0h1.998v-2h-1.998v2zm3.996 0h1.998v-2h-1.998v2zm3.996 0h1.998v-2h-1.998v2zm3.996 0h.999v-2h-.999v2zm.999 0c.316 0 .628-.002.936-.006l-.025-2c-.299.004-.603.006-.911.006v2zm2.808-.054c.643-.026 1.268-.06 1.874-.104l-.145-1.995a55.24 55.24 0 01-1.809.1l.08 2zm3.752-.277a38.668 38.668 0 001.877-.257l-.321-1.974a37.48 37.48 0 01-1.78.243l.224 1.988zm3.749-.618a23.898 23.898 0 001.86-.498l-.599-1.909c-.531.167-1.099.319-1.704.456l.443 1.95zm3.691-1.179c.309-.135.607-.278.894-.428l-.928-1.772c-.243.128-.499.25-.769.368l.803 1.832zm.894-.428c.276-.145.542-.298.798-.46l-1.072-1.69a8.888 8.888 0 01-.654.378l.928 1.772zm2.272-1.602a8.767 8.767 0 001.226-1.434l-1.65-1.13a6.86 6.86 0 01-.949 1.11l1.373 1.454zm2.118-3.092a10.18 10.18 0 00.542-1.775l-1.957-.413c-.108.51-.253.986-.435 1.428l1.85.76zm.781-3.58c.018-.295.027-.595.027-.9h-2c0 .266-.008.525-.023.777l1.996.122zm.027-.9v-.925h-2v.925h2zm0-2.775v-1.85h-2v1.85h2zm0-3.7v-.925h-2v.925h2zm0-.925c0-.54-.066-1.068-.198-1.584l-1.937.496a4.4 4.4 0 01.135 1.088h2zm-1.654-4.344a9.745 9.745 0 00-1.056-1.07l-1.317 1.505c.321.28.6.564.84.85l1.533-1.285zm-1.031-1.048c-.393-.368-.8-.701-1.22-.998l-1.155 1.633c.342.241.678.516 1.009.825l1.366-1.46zm-4.1-2.398a9.175 9.175 0 00-1.584-.308l-.21 1.989c.425.044.838.125 1.241.24l.553-1.921zm-.689.686v-.092h-2v.092h2zm0-.277v-.093h-2v.092h2zm-.704.862a8.952 8.952 0 001.178-.458l-.857-1.808a6.871 6.871 0 01-.914.356l.593 1.91zm3.278-1.852c.307-.273.6-.569.878-.886l-1.505-1.317a7.791 7.791 0 01-.701.707l1.328 1.496zm.863-.87c.276-.3.525-.61.744-.93l-1.647-1.133a6.71 6.71 0 01-.571.712l1.474 1.352zm1.752-3.188a5.74 5.74 0 00.139-1.261h-2c0 .28-.03.556-.091.827l1.952.434zm.139-1.261V18.7h-2v1.48h2zm0-4.44v-1.48h-2v1.48h2zm0-1.48c0-.285-.006-.565-.018-.839l-1.998.086c.011.244.016.495.016.753h2zm-.178-2.53a11.673 11.673 0 00-.383-1.696l-1.911.59c.133.429.239.897.316 1.407l1.978-.301zm-1.075-3.348a7.503 7.503 0 00-.491-.777l-1.62 1.174c.128.176.247.365.358.567l1.753-.964zm-.482-.763a6.866 6.866 0 00-.58-.72l-1.472 1.354c.152.164.29.335.414.512l1.638-1.146zm-1.955-1.898c-.468-.318-.98-.6-1.534-.852l-.825 1.823a8.17 8.17 0 011.234.683l1.125-1.654zm-3.134-1.452a16.86 16.86 0 00-.811-.228L438 5.979c.247.063.485.13.715.2l.59-1.91zm-.789-.222a19.155 19.155 0 00-.908-.23l-.443 1.95c.285.066.555.134.812.206l.539-1.926zm-2.726-.57a36.296 36.296 0 00-1.813-.226l-.201 1.99c.606.06 1.177.132 1.713.214l.301-1.978zm-3.622-.373a61.613 61.613 0 00-1.804-.087l-.067 2c.606.02 1.187.048 1.745.083l.126-1.996zm-3.604-.126a88.47 88.47 0 00-.899-.004v2c.297 0 .59.001.878.004l.021-2zm-.899-.004h-.973v2h.973v-2zm-2.919 0h-1.947v2h1.947v-2zm-3.893 0h-1.946v2h1.946v-2zm-3.892 0h-1.946v2h1.946v-2zm-3.893 0h-1.946v2h1.946v-2zm-3.892 0h-.973v2h.973v-2zm18.489 19.536h-.99v2h.99v-2zm-2.969 0h-1.98v2h1.98v-2zm-3.959 0h-.99v2h.99v-2zm.01 1v-.944h-2v.944h2zm0-2.83v-1.887h-2v1.887h2zm0-3.774v-1.887h-2v1.886h2zm0-3.774v-.944h-2v.944h2zm-1 .056h.962v-2h-.962v2zm2.886 0h1.924v-2h-1.924v2zm3.848 0h.962v-2h-.962v2zm.962 0c.372 0 .723.005 1.053.013l.054-1.999a38.96 38.96 0 00-1.107-.014v2zm3.102.157c.381.05.686.11.922.176l.535-1.927a8.851 8.851 0 00-1.195-.232l-.262 1.983zm.935.18c.163.043.307.09.434.14l.739-1.858a5.772 5.772 0 00-.664-.216l-.509 1.934zm1.054.522a.84.84 0 01.156.216l1.789-.894a2.857 2.857 0 00-.512-.718l-1.433 1.396zm.173.248c.05.09.102.217.15.388l1.926-.537a3.868 3.868 0 00-.32-.809l-1.756.958zm.306 1.45c.01.182.016.377.016.587h2c0-.244-.007-.478-.02-.703l-1.996.117zm.016.587v.592h2v-.592h-2zm0 1.776v.592h2v-.592h-2zm0 .592c0 .247-.007.479-.02.696l1.996.123c.016-.262.024-.535.024-.819h-2zm-.216 1.985a2.86 2.86 0 01-.197.528l1.789.894a4.95 4.95 0 00.336-.888l-1.928-.534zm-.21.556c-.044.095-.1.183-.17.266l1.532 1.287c.183-.218.335-.457.454-.715l-1.816-.838zm-.768.708c-.122.06-.26.116-.416.168l.632 1.898c.232-.078.454-.167.663-.27l-.879-1.796zm-.416.168a5.769 5.769 0 01-.849.202l.334 1.972c.418-.07.802-.161 1.147-.276l-.632-1.898zm-2.762.376c-.311.011-.642.017-.992.017v2c.371 0 .726-.006 1.063-.018l-.071-1.999zm-.696 20.293h-1.027v2h1.027v-2zm-3.08 0h-2.054v2h2.054v-2zm-4.107 0h-1.027v2h1.027v-2zm-.027 1v-1.067h-2v1.067h2zm0-3.2v-2.134h-2v2.134h2zm0-4.268v-2.133h-2v2.133h2zm0-4.267v-1.067h-2v1.067h2zm-1-.067h1.221v-2h-1.221v2zm3.663 0h2.442v-2h-2.442v2zm4.884 0h1.221v-2h-1.221v2zm1.221 0c.424 0 .82.013 1.186.038l.139-1.995c-.418-.029-.86-.043-1.325-.043v2zm3.37.444a2.7 2.7 0 01.8.434l1.28-1.536a4.676 4.676 0 00-1.388-.775l-.692 1.877zm.82.45c.181.144.338.317.473.527l1.683-1.08a4.116 4.116 0 00-.917-1.016l-1.239 1.57zm.973 2.073c.035.279.053.584.053.917h2a9.26 9.26 0 00-.069-1.164l-1.984.247zm.053.917v.962h2v-.962h-2zm0 2.886v.962h2v-.962h-2zm0 .962c0 .27-.026.51-.073.722l1.952.433a5.33 5.33 0 00.121-1.155h-2zm-.692 1.832a2.695 2.695 0 01-.56.397l.952 1.758c.36-.195.687-.426.976-.696l-1.368-1.46zm-.56.397a4.128 4.128 0 01-.562.246l.677 1.882c.298-.107.578-.23.837-.37l-.952-1.758zm-1.879.581c-.425.075-.9.135-1.426.178l.163 1.993a17.534 17.534 0 001.611-.201l-.348-1.97zm-2.896.252c-.24.005-.488.008-.743.008v2c.269 0 .532-.003.788-.009l-.045-2zm34.241-38.804v-.5h-.5v.5h.5zm11.544 0h.5v-.5h-.5v.5zm0 19.24h-.5v.5h.5v-.5zm20.424 0v.5h.5v-.5h-.5zm0-19.24v-.5h-.5v.5h.5zm11.544 0h.5v-.5h-.5v.5zm0 48.026v.5h.5V52h-.5zm-11.544 0h-.5v.5h.5V52zm0-20.572h.5v-.5h-.5v.5zm-20.424 0v-.5h-.5v.5h.5zm0 20.572v.5h.5V52h-.5zm-11.544 0h-.5v.5h.5V52zm-.5-48.026v1h1v-1h-1zm0 3.002v2h1v-2h-1zm0 4.002v2h1v-2h-1zm0 4.002v2.001h1V14.98h-1zm0 4.002v2.001h1v-2h-1zm0 4.002v2.001h1v-2h-1zm0 4.002v2.002h1v-2.002h-1zm0 4.003v2h1v-2h-1zm0 4.002v2h1v-2h-1zm0 4.002v2.001h1v-2.001h-1zm0 4.002v2.001h1v-2h-1zm0 4.002v2.001h1v-2h-1zm0 4.002V52h1v-1h-1zm.5 1.501h.962v-1h-.962v1zm2.886 0h1.924v-1h-1.924v1zm3.848 0h1.924v-1h-1.924v1zm3.848 0h.962v-1h-.962v1zm1.462-.5v-1.029h-1V52h1zm0-3.086v-2.057h-1v2.057h1zm0-4.114v-2.057h-1V44.8h1zm0-4.115v-2.057h-1v2.057h1zm0-4.114v-2.057h-1v2.057h1zm0-4.114v-1.029h-1v1.029h1zm-.5-.529h1.022v-1h-1.022v1zm3.064 0h2.042v-1h-2.042v1zm4.085 0h2.042v-1h-2.042v1zm4.085 0h2.042v-1h-2.042v1zm4.084 0h2.043v-1h-2.043v1zm4.085 0h1.021v-1h-1.021v1zm.521-.5v1.029h1v-1.029h-1zm0 3.086v2.057h1v-2.057h-1zm0 4.114v2.057h1v-2.057h-1zm0 4.115V44.8h1v-2.057h-1zm0 4.114v2.057h1v-2.057h-1zm0 4.114V52h1v-1.029h-1zm.5 1.529h.962v-1h-.962v1zm2.886 0h1.924v-1h-1.924v1zm3.848 0h1.924v-1h-1.924v1zm3.848 0h.962v-1h-.962v1zm1.462-.5v-1h-1v1h1zm0-3.002v-2h-1v2h1zm0-4.002v-2h-1v2h1zm0-4.002v-2.001h-1v2.001h1zm0-4.002V34.99h-1v2h1zm0-4.002v-2.001h-1v2h1zm0-4.003v-2h-1v2h1zm0-4.002v-2h-1v2h1zm0-4.002v-2h-1v2h1zm0-4.002V14.98h-1v2.001h1zm0-4.002v-2.001h-1v2h1zm0-4.002V6.976h-1v2h1zm0-4.002V3.974h-1v1h1zm-.5-1.501h-.962v1h.962v-1zm-2.886 0h-1.924v1h1.924v-1zm-3.848 0h-1.924v1h1.924v-1zm-3.848 0h-.962v1h.962v-1zm-1.462.5v.962h1v-.962h-1zm0 2.886v1.924h1V6.86h-1zm0 3.848v1.924h1v-1.924h-1zm0 3.848v1.924h1v-1.924h-1zm0 3.848v1.924h1v-1.924h-1zm0 3.848v.962h1v-.962h-1zm.5.462h-1.021v1h1.021v-1zm-3.063 0h-2.043v1h2.043v-1zm-4.085 0h-2.042v1h2.042v-1zm-4.085 0h-2.042v1h2.042v-1zm-4.085 0h-2.042v1h2.042v-1zm-4.084 0h-1.022v1h1.022v-1zm-.522.5v-.962h-1v.962h1zm0-2.886v-1.924h-1v1.924h1zm0-3.848v-1.924h-1v1.924h1zm0-3.848v-1.924h-1v1.924h1zm0-3.848V6.86h-1v1.924h1zm0-3.848v-.962h-1v.962h1zm-.5-1.462h-.962v1h.962v-1zm-2.886 0h-1.924v1h1.924v-1zm-3.848 0h-1.924v1h1.924v-1zm-3.848 0h-.962v1h.962v-1zm-.962.5v-1h-1v1h1zm11.544 0h1v-1h-1v1zm0 19.24h-1v1h1v-1zm20.424 0v1h1v-1h-1zm0-19.24v-1h-1v1h1zm11.544 0h1v-1h-1v1zm0 48.026v1h1v-1h-1zm-11.544 0h-1v1h1v-1zm0-20.572h1v-1h-1v1zm-20.424 0v-1h-1v1h1zm0 20.572v1h1v-1h-1zm-11.544 0h-1v1h1v-1zm-1-48.026v1h2v-1h-2zm0 3.002v2h2v-2h-2zm0 4.002v2h2v-2h-2zm0 4.002v2.001h2V14.98h-2zm0 4.002v2.001h2v-2h-2zm0 4.002v2.001h2v-2h-2zm0 4.002v2.002h2v-2.002h-2zm0 4.003v2h2v-2h-2zm0 4.002v2h2v-2h-2zm0 4.002v2.001h2v-2.001h-2zm0 4.002v2.001h2v-2h-2zm0 4.002v2.001h2v-2h-2zm0 4.002V52h2v-1h-2zm1 2.001h.962v-2h-.962v2zm2.886 0h1.924v-2h-1.924v2zm3.848 0h1.924v-2h-1.924v2zm3.848 0h.962v-2h-.962v2zm1.962-1v-1.029h-2V52h2zm0-3.086v-2.057h-2v2.057h2zm0-4.114v-2.057h-2V44.8h2zm0-4.115v-2.057h-2v2.057h2zm0-4.114v-2.057h-2v2.057h2zm0-4.114v-1.029h-2v1.029h2zm-1-.029h1.022v-2h-1.022v2zm3.064 0h2.042v-2h-2.042v2zm4.085 0h2.042v-2h-2.042v2zm4.085 0h2.042v-2h-2.042v2zm4.084 0h2.043v-2h-2.043v2zm4.085 0h1.021v-2h-1.021v2zm.021-1v1.029h2v-1.029h-2zm0 3.086v2.057h2v-2.057h-2zm0 4.114v2.057h2v-2.057h-2zm0 4.115V44.8h2v-2.057h-2zm0 4.114v2.057h2v-2.057h-2zm0 4.114V52h2v-1.029h-2zm1 2.029h.962v-2h-.962v2zm2.886 0h1.924v-2h-1.924v2zm3.848 0h1.924v-2h-1.924v2zm3.848 0h.962v-2h-.962v2zm1.962-1v-1h-2v1h2zm0-3.002v-2h-2v2h2zm0-4.002v-2h-2v2h2zm0-4.002v-2.001h-2v2.001h2zm0-4.002V34.99h-2v2h2zm0-4.002v-2.001h-2v2h2zm0-4.003v-2h-2v2h2zm0-4.002v-2h-2v2h2zm0-4.002v-2h-2v2h2zm0-4.002V14.98h-2v2.001h2zm0-4.002v-2.001h-2v2h2zm0-4.002V6.976h-2v2h2zm0-4.002V3.974h-2v1h2zm-1-2.001h-.962v2h.962v-2zm-2.886 0h-1.924v2h1.924v-2zm-3.848 0h-1.924v2h1.924v-2zm-3.848 0h-.962v2h.962v-2zm-1.962 1v.962h2v-.962h-2zm0 2.886v1.924h2V6.86h-2zm0 3.848v1.924h2v-1.924h-2zm0 3.848v1.924h2v-1.924h-2zm0 3.848v1.924h2v-1.924h-2zm0 3.848v.962h2v-.962h-2zm1-.038h-1.021v2h1.021v-2zm-3.063 0h-2.043v2h2.043v-2zm-4.085 0h-2.042v2h2.042v-2zm-4.085 0h-2.042v2h2.042v-2zm-4.085 0h-2.042v2h2.042v-2zm-4.084 0h-1.022v2h1.022v-2zm-.022 1v-.962h-2v.962h2zm0-2.886v-1.924h-2v1.924h2zm0-3.848v-1.924h-2v1.924h2zm0-3.848v-1.924h-2v1.924h2zm0-3.848V6.86h-2v1.924h2zm0-3.848v-.962h-2v.962h2zm-1-1.962h-.962v2h.962v-2zm-2.886 0h-1.924v2h1.924v-2zm-3.848 0h-1.924v2h1.924v-2zm-3.848 0h-.962v2h.962v-2zm74.928 49.248l-.077.494h.002l.075-.494zm-6.956-1.776l.164-.472-.003-.001-.161.473zm-6.142-4.292l-.403.295.003.005.4-.3zm-.666-34.706l-.432-.25-.005.008.437.242zm4.144-4.44l-.267-.422-.004.002.271.42zm5.476-2.368l.142.48-.142-.48zm6.068-1.184l.04.498h.003l-.043-.498zm11.396.074l-.058.497h.007l.007.001.044-.498zm5.624 1.036l.14-.48-.013-.004-.127.484zm5.846 2.516l.271-.42-.271.42zm3.848 4.144l-.432.252.003.004.429-.256zm-.518 34.484l-.401-.298-.005.006.406.292zm-5.772 4.366l-.185-.464.185.464zm-10.73-5.698l.046.498h.009l.01-.002-.065-.496zm3.478-.74l-.14-.48.14.48zm2.664-1.702l-.397-.304-.003.004.4.3zm-1.776-29.008l-.237.44.009.005.228-.445zm-17.02-.074l-.228-.445.228.445zm-1.776 29.082l-.397.304.005.006.004.005.388-.315zm2.812 1.702l.14-.48-.005-.002-.135.482zm3.404.74l-.067.495.012.002.012.001.043-.498zm3.996 7.862c-.309 0-.616-.002-.92-.007l-.016 1c.31.005.622.007.936.007v-1zm-2.759-.066a49.204 49.204 0 01-1.833-.123l-.086.996c.611.053 1.235.095 1.87.126l.049-.999zm-3.658-.319a47.21 47.21 0 01-.907-.127l-.151.988c.307.047.617.09.93.13l.128-.99zm-.906-.127a33.45 33.45 0 01-.873-.148l-.179.984c.301.055.601.106.898.152l.154-.988zm-2.608-.51a39.646 39.646 0 01-1.718-.444l-.271.963c.593.167 1.18.319 1.761.455l.228-.974zm-3.418-.96a50.09 50.09 0 01-.843-.284l-.328.944c.289.1.576.197.861.29l.31-.95zm-.846-.285c-.295-.1-.583-.208-.863-.322l-.378.925c.299.122.605.237.92.343l.321-.946zm-2.509-1.127a11.818 11.818 0 01-1.504-1.031l-.628.777c.506.41 1.05.783 1.631 1.119l.501-.865zm-2.818-2.287a11.05 11.05 0 01-.576-.705l-.8.6c.199.265.409.522.628.769l.748-.664zm-.572-.7a10.194 10.194 0 01-.515-.773l-.856.517c.175.29.363.572.564.846l.807-.59zm-1.33-2.441a11.29 11.29 0 01-.521-1.789l-.98.202c.139.675.328 1.324.567 1.946l.934-.36zm-.765-3.648a15.31 15.31 0 01-.029-.942h-1c0 .34.01.675.031 1.004l.998-.062zm-.029-.942v-1.05h-1v1.05h1zm0-3.152v-2.102h-1v2.102h1zm0-4.204v-2.101h-1v2.101h1zm0-4.203v-2.101h-1v2.101h1zm0-4.203v-2.102h-1v2.102h1zm0-4.203v-1.051h-1v1.05h1zm0-1.051c0-.27.007-.538.021-.801l-.998-.053a16.04 16.04 0 00-.023.854h1zm.196-2.388c.091-.532.214-1.047.368-1.547l-.956-.294c-.167.542-.299 1.1-.397 1.672l.985.169zm.937-3.027c.111-.24.231-.475.359-.707l-.875-.484c-.139.252-.27.508-.391.769l.907.422zm.354-.699c.125-.216.254-.426.387-.631l-.838-.545a15.2 15.2 0 00-.414.675l.865.502zm1.258-1.824c.315-.385.648-.745.999-1.08l-.692-.723a13.2 13.2 0 00-1.081 1.169l.774.634zm2.121-2.028c.197-.145.398-.285.604-.418l-.543-.84c-.224.145-.443.296-.656.455l.595.803zm.6-.416c.393-.249.813-.488 1.26-.717l-.456-.89a16.97 16.97 0 00-1.339.763l.535.844zm3.95-1.859c.449-.158.915-.308 1.4-.451l-.283-.96c-.5.148-.983.304-1.449.468l.332.943zm1.4-.451c.247-.073.492-.143.735-.21l-.264-.964c-.249.068-.501.14-.754.214l.283.96zm2.215-.58a29.82 29.82 0 011.493-.298l-.17-.986c-.505.088-1.02.19-1.543.309l.22.975zm2.997-.513c.254-.029.505-.053.754-.073l-.079-.996c-.26.02-.522.045-.787.075l.112.994zm.757-.073c.445-.038.896-.071 1.355-.1l-.062-.997c-.466.028-.925.062-1.378.1l.085.997zm4.072-.207c.448-.009.902-.013 1.361-.013v-1c-.465 0-.925.004-1.38.013l.019 1zm1.361-.013c.506 0 .997.005 1.473.015l.02-1c-.483-.01-.98-.015-1.493-.015v1zm4.406.152c.509.04.994.086 1.456.14l.117-.993a37.546 37.546 0 00-1.496-.144l-.077.997zm1.47.142c.45.04.915.094 1.395.163l.142-.99c-.497-.071-.98-.128-1.449-.17l-.088.997zm4.167.684c.448.102.906.215 1.375.338l.253-.968c-.479-.125-.947-.24-1.406-.345l-.222.975zm1.361.334c.256.075.507.151.753.23l.303-.954c-.254-.08-.512-.16-.776-.236l-.28.96zm2.234.744c.507.192.987.393 1.441.603l.419-.908a23.69 23.69 0 00-1.504-.63l-.356.935zm2.822 1.312c.229.13.448.264.659.4l.542-.84a15.401 15.401 0 00-.704-.428l-.497.868zm.659.4c.38.245.743.515 1.092.812l.648-.762a11.354 11.354 0 00-1.198-.89l-.542.84zm2.937 2.822c.263.362.513.747.75 1.154l.864-.504a14.791 14.791 0 00-.805-1.237l-.809.587zm.753 1.158c.138.233.268.472.388.719l.898-.44c-.132-.27-.274-.534-.427-.79l-.859.51zm.988 2.242c.158.51.283 1.046.375 1.605l.987-.163a13.193 13.193 0 00-.406-1.737l-.956.295zm.549 3.254c.014.273.02.551.02.834h1c0-.299-.007-.593-.021-.883l-.999.05zm.02.834v1.05h1v-1.05h-1zm0 3.152v2.102h1v-2.102h-1zm0 4.204v2.101h1v-2.101h-1zm0 4.203v2.101h1v-2.101h-1zm0 4.203v2.102h1v-2.102h-1zm0 4.203v1.051h1v-1.05h-1zm0 1.051c0 .3-.009.595-.028.884l.998.065c.02-.312.03-.628.03-.949h-1zm-.266 2.628a10.41 10.41 0 01-.507 1.674l.93.37c.233-.588.418-1.2.554-1.834l-.977-.21zm-1.29 3.233c-.152.246-.316.487-.491.723l.803.596c.192-.258.371-.523.539-.794l-.851-.525zm-.496.73c-.171.238-.351.469-.539.692l.764.645c.205-.243.401-.495.588-.754l-.813-.584zm-1.773 1.94a12 12 0 01-1.412 1.05l.538.843a13.132 13.132 0 001.529-1.137l-.655-.756zm-2.963 1.9a16.38 16.38 0 01-.815.353l.371.928c.297-.118.586-.244.868-.376l-.424-.906zm-.815.353a34.19 34.19 0 01-.878.337l.344.938c.304-.111.606-.227.905-.347l-.371-.928zm-2.662.936c-.595.183-1.2.35-1.814.503l.241.97a36.042 36.042 0 001.866-.517l-.293-.956zm-3.654.911c-.61.12-1.23.226-1.858.318l.145.99a40.394 40.394 0 001.906-.326l-.193-.982zm-3.731.55c-.619.063-1.246.112-1.882.15l.059.998a47.56 47.56 0 001.924-.153l-.101-.995zm-3.77.222c-.313.006-.629.009-.946.009v1c.324 0 .645-.003.965-.009l-.019-1zm-.798-8.205c-.355 0-.698-.002-1.029-.007l-.015 1c.337.005.685.007 1.044.007v-1zm-3.082-.075c-.36-.02-.7-.043-1.018-.071l-.087.996c.33.029.681.053 1.05.074l.055-.999zm-.994-.068a20.186 20.186 0 01-.84-.133l-.177.984c.297.053.591.1.882.14l.135-.991zm-2.507-.498c-.272-.07-.547-.146-.825-.227l-.28.96c.288.084.574.162.857.235l.248-.968zm-.83-.228a6.902 6.902 0 01-.737-.25l-.376.926c.267.109.548.204.844.287l.269-.963zm-2.04-1.012a3.833 3.833 0 01-.519-.524l-.776.63c.195.24.413.46.654.662l.641-.768zm-.509-.513a3.936 3.936 0 01-.39-.622l-.893.449c.138.275.301.536.488.78l.795-.607zm-.812-2.042a5.81 5.81 0 01-.048-.762h-1c0 .306.019.603.056.891l.992-.13zm-.048-.762v-1.055h-1v1.055h1zm0-3.164v-2.108h-1v2.108h1zm0-4.218v-2.109h-1v2.11h1zm0-4.218V25.12h-1v2.11h1zm0-4.218v-2.109h-1v2.11h1zm0-4.218v-1.054h-1v1.055h1zm0-1.054c0-.497.045-.954.131-1.372l-.979-.202a7.76 7.76 0 00-.152 1.574h1zm1.37-3.675a4.719 4.719 0 011.097-.764l-.457-.89c-.5.257-.944.565-1.326.927l.686.727zm1.097-.764c.283-.146.596-.28.938-.404l-.339-.941a9.002 9.002 0 00-1.056.455l.457.89zm2.961-.938c.641-.12 1.343-.214 2.107-.282l-.089-.997c-.791.071-1.525.17-2.202.296l.184.983zm4.245-.4a41.74 41.74 0 011.075-.013v-1c-.375 0-.742.004-1.099.013l.024 1zm1.075-.013c.369 0 .728.005 1.077.014l.026-1a42.06 42.06 0 00-1.103-.014v1zm3.219.138a21.12 21.12 0 012.107.298l.194-.98a22.083 22.083 0 00-2.208-.314l-.093.996zm4.122.86c.34.129.65.27.932.422l.475-.88a8.767 8.767 0 00-1.051-.477l-.356.934zm.941.427c.421.216.783.467 1.089.752l.681-.732a5.841 5.841 0 00-1.313-.91l-.457.89zm2.333 3.014c.088.412.133.861.133 1.351h1c0-.55-.05-1.071-.154-1.56l-.979.209zm.133 1.351v1.055h1v-1.055h-1zm0 3.163v2.11h1V20.9h-1zm0 4.218v2.11h1v-2.11h-1zm0 4.218v2.11h1v-2.11h-1zm0 4.219v2.108h1v-2.108h-1zm0 4.218v1.054h1v-1.055h-1zm0 1.054c0 .266-.016.52-.047.762l.991.129c.038-.288.056-.585.056-.891h-1zm-.47 2.182c-.11.22-.239.427-.389.622l.795.608a4.91 4.91 0 00.488-.781l-.894-.449zm-.392.626a3.52 3.52 0 01-.476.517l.665.747c.227-.202.431-.424.611-.664l-.8-.6zm-1.701 1.273a6.329 6.329 0 01-.703.249l.28.96a7.48 7.48 0 00.814-.288l-.391-.92zm-.703.249c-.282.082-.562.159-.841.23l.246.969c.29-.074.582-.154.875-.239l-.28-.96zm-2.543.594c-.288.05-.575.093-.859.13l.129.992c.299-.04.599-.085.9-.137l-.17-.985zm-.84.128c-.309.028-.642.052-.998.072l.056.999c.366-.02.711-.046 1.033-.075l-.091-.996zm-3.013.14c-.324.004-.662.006-1.012.006v1c.355 0 .697-.002 1.026-.007l-.014-1zm-8.56 8.202l-.153.988h.003l.15-.988zm-6.956-1.776l.328-.945-.006-.002-.322.947zm-6.142-4.292l-.807.59.007.01.8-.6zm-.666-34.706l-.865-.501-.005.009-.005.008.875.484zm4.144-4.44l-.535-.845-.008.005.543.84zm5.476-2.368l.284.959-.284-.959zm6.068-1.184l.079.997h.007l-.086-.997zm11.396.074l-.116.993.014.002.014.001.088-.996zm5.624 1.036l.28-.96-.013-.004-.013-.003-.254.967zm5.846 2.516l.542-.84-.542.84zm3.848 4.144l-.863.504.004.007.859-.511zm-.518 34.484l-.802-.597-.005.007-.005.007.812.583zm-5.772 4.366l-.371-.928.371.928zm-10.73-5.698l.091.996.019-.002.02-.002-.13-.992zm3.478-.74l-.28-.96.28.96zm2.664-1.702l-.794-.608-.006.008.8.6zm-1.776-29.008l-.475.88.009.005.01.005.456-.89zm-17.02-.074l-.456-.89.456.89zm-1.776 29.082l-.794.607.009.012.009.012.776-.631zm2.812 1.702l.28-.96-.01-.003-.27.963zm3.404.74l-.135.99.024.004.025.002.086-.996zm3.996 7.362c-.307 0-.611-.002-.912-.007l-.031 2c.312.005.626.007.943.007v-2zm-2.734-.065a48.808 48.808 0 01-1.815-.122l-.172 1.992c.618.054 1.247.096 1.889.127l.098-1.997zm-3.619-.316c-.302-.039-.601-.08-.896-.126l-.301 1.978c.31.047.624.09.942.132l.255-1.984zm-.893-.125a33.302 33.302 0 01-.86-.146l-.359 1.968c.305.056.609.107.912.154l.307-1.976zm-2.571-.503a39.593 39.593 0 01-1.696-.438l-.543 1.925c.6.17 1.195.323 1.783.46l.456-1.947zm-3.377-.95c-.276-.09-.554-.183-.834-.28l-.655 1.89c.291.1.581.198.869.292l.62-1.901zm-.84-.282a15.036 15.036 0 01-.835-.311l-.756 1.851c.308.126.624.244.948.354l.643-1.894zm-2.42-1.086a11.227 11.227 0 01-1.439-.987l-1.258 1.555c.528.426 1.093.814 1.695 1.163l1.002-1.731zm-2.694-2.186c-.192-.216-.375-.44-.55-.673l-1.6 1.2c.208.276.425.543.654.8l1.496-1.327zm-.543-.663a10.03 10.03 0 01-.49-.737l-1.712 1.034c.182.303.379.597.588.884l1.614-1.181zm-1.267-2.326a10.908 10.908 0 01-.498-1.71l-1.959.404c.145.7.341 1.375.59 2.024l1.867-.718zm-.732-3.498a15.088 15.088 0 01-.028-.912h-2c0 .35.011.695.032 1.035l1.996-.123zm-.028-.912v-1.05h-2v1.05h2zm0-3.152v-2.102h-2v2.102h2zm0-4.204v-2.101h-2v2.101h2zm0-4.203v-2.101h-2v2.101h2zm0-4.203v-2.102h-2v2.102h2zm0-4.203v-1.051h-2v1.05h2zm0-1.051c0-.262.007-.52.021-.775l-1.998-.105c-.015.29-.023.584-.023.88h2zm.189-2.304c.088-.51.205-1.005.353-1.484l-1.912-.588a13.773 13.773 0 00-.412 1.735l1.971.337zm.897-2.9c.107-.23.221-.455.344-.676l-1.751-.968c-.145.262-.28.529-.406.8l1.813.844zm.334-.659c.121-.209.245-.412.374-.61l-1.678-1.089c-.147.227-.289.46-.427.697l1.731 1.002zm1.211-1.758c.303-.37.623-.715.958-1.037l-1.383-1.444c-.395.378-.769.783-1.122 1.213l1.547 1.268zm2.033-1.943c.188-.14.38-.273.578-.4l-1.087-1.68c-.232.15-.46.308-.682.473l1.191 1.607zm.569-.395c.38-.24.787-.472 1.221-.695l-.912-1.78c-.484.248-.944.51-1.379.785l1.07 1.69zm3.849-1.81c.44-.155.899-.303 1.376-.444l-.567-1.918c-.508.15-.999.308-1.472.475l.663 1.887zm1.376-.444c.244-.072.485-.14.725-.206l-.528-1.93c-.253.07-.507.142-.764.218l.567 1.918zm2.184-.571c.499-.113.988-.21 1.467-.294l-.34-1.97a30.38 30.38 0 00-1.568.313l.441 1.95zm2.941-.504c.249-.028.495-.052.738-.071l-.157-1.994c-.266.021-.533.047-.804.077l.223 1.988zm.745-.072c.44-.037.888-.07 1.343-.098l-.123-1.997c-.47.03-.934.063-1.391.103l.171 1.992zm4.039-.205a71.23 71.23 0 011.351-.013v-2c-.468 0-.932.004-1.389.013l.038 2zm1.351-.013c.503 0 .99.005 1.462.015l.042-2c-.487-.01-.988-.015-1.504-.015v2zm4.368.15c.503.04.981.086 1.436.14l.233-1.987a37.967 37.967 0 00-1.515-.146l-.154 1.994zm1.464.142c.44.039.896.092 1.368.16l.284-1.98c-.506-.072-.997-.13-1.476-.172l-.176 1.992zm4.1.674c.442.1.895.212 1.359.333l.507-1.934a46.56 46.56 0 00-1.421-.35l-.445 1.95zm1.332.326c.253.074.5.149.741.226l.606-1.906c-.257-.082-.52-.162-.787-.24l-.56 1.92zm2.197.731c.497.189.966.386 1.409.59l.837-1.816a23.34 23.34 0 00-1.536-.643l-.71 1.87zm2.75 1.279c.222.126.434.255.637.386l1.084-1.68a15.701 15.701 0 00-.727-.442l-.994 1.736zm.637.386c.361.233.707.49 1.039.772l1.296-1.523a11.764 11.764 0 00-1.251-.93l-1.084 1.681zm2.803 2.695c.253.349.494.72.724 1.113l1.727-1.008a15.36 15.36 0 00-.832-1.28l-1.619 1.175zm.728 1.12c.131.221.254.449.368.683l1.798-.878a11.341 11.341 0 00-.447-.827l-1.719 1.022zm.94 2.135c.151.488.271 1 .36 1.538l1.973-.326a13.78 13.78 0 00-.421-1.802l-1.912.59zm.528 3.131c.013.264.019.534.019.809h2c0-.307-.007-.61-.022-.908l-1.997.1zm.019.809v1.05h2v-1.05h-2zm0 3.152v2.102h2v-2.102h-2zm0 4.204v2.101h2v-2.101h-2zm0 4.203v2.101h2v-2.101h-2zm0 4.203v2.102h2v-2.102h-2zm0 4.203v1.051h2v-1.05h-2zm0 1.051c0 .29-.009.574-.027.852l1.996.13c.021-.323.031-.65.031-.982h-2zm-.255 2.523c-.12.555-.281 1.087-.482 1.594l1.859.739a12.09 12.09 0 00.578-1.913l-1.955-.42zm-1.226 3.075a9.944 9.944 0 01-.467.687l1.605 1.194c.2-.27.388-.546.563-.83l-1.701-1.051zm-.477.7c-.164.229-.335.45-.515.662l1.528 1.29c.214-.253.418-.515.612-.785l-1.625-1.166zm-1.694 1.855a11.54 11.54 0 01-1.354 1.006l1.075 1.687c.565-.36 1.095-.754 1.588-1.181l-1.309-1.512zm-2.848 1.825c-.255.12-.518.233-.789.342l.743 1.856c.305-.122.603-.25.894-.387l-.848-1.811zm-.789.342c-.286.114-.574.224-.865.331l.69 1.878a36.2 36.2 0 00.918-.352l-.743-1.858zm-2.622.922a35.08 35.08 0 01-1.789.496l.483 1.94a37.01 37.01 0 001.891-.523l-.585-1.913zm-3.604.899a38.97 38.97 0 01-1.835.314l.291 1.978a41.074 41.074 0 001.929-.33l-.385-1.962zm-3.685.542a44.06 44.06 0 01-1.861.148l.117 1.997c.656-.038 1.304-.09 1.945-.155l-.201-1.99zm-3.73.22c-.31.006-.622.009-.936.009v2c.327 0 .651-.003.974-.01l-.038-1.999zm-.788-8.205c-.353 0-.694-.002-1.022-.007l-.029 2c.339.005.689.007 1.051.007v-2zm-3.054-.074a32.1 32.1 0 01-1.003-.07l-.173 1.992c.336.03.691.054 1.066.075l.11-1.997zm-.955-.065a19.61 19.61 0 01-.819-.13l-.353 1.969c.303.055.604.102.902.143l.27-1.982zm-2.449-.487a25.793 25.793 0 01-.81-.222l-.56 1.92c.293.086.584.165.872.24l.498-1.938zm-.82-.225a6.479 6.479 0 01-.685-.232l-.751 1.854c.286.116.585.217.897.304l.539-1.926zm-1.855-.914a3.372 3.372 0 01-.451-.456l-1.552 1.262c.216.265.457.508.722.73l1.281-1.536zm-.432-.433a3.364 3.364 0 01-.34-.542l-1.787.897c.152.304.332.59.538.86l1.589-1.215zm-.713-1.803a5.313 5.313 0 01-.044-.697h-2c0 .326.02.645.061.956l1.983-.259zm-.044-.697v-1.055h-2v1.055h2zm0-3.164v-2.108h-2v2.108h2zm0-4.218v-2.109h-2v2.11h2zm0-4.218V25.12h-2v2.11h2zm0-4.218v-2.109h-2v2.11h2zm0-4.218v-1.054h-2v1.055h2zm0-1.054c0-.467.042-.89.121-1.27l-1.959-.405a8.311 8.311 0 00-.162 1.675h2zm1.214-3.312a4.22 4.22 0 01.981-.682l-.913-1.78a6.222 6.222 0 00-1.442 1.008l1.374 1.454zm.981-.682c.262-.135.555-.262.88-.38l-.679-1.88a9.469 9.469 0 00-1.114.48l.913 1.78zm2.825-.891a21.31 21.31 0 012.059-.276l-.178-1.992a23.74 23.74 0 00-2.25.302l.369 1.966zm4.166-.392c.344-.009.698-.013 1.062-.013v-2c-.379 0-.75.005-1.112.013l.05 2zm1.062-.013c.365 0 .719.005 1.064.013l.052-1.999c-.363-.01-.735-.014-1.116-.014v2zm3.172.136c.749.07 1.434.168 2.057.29l.388-1.961a22.592 22.592 0 00-2.258-.32l-.187 1.99zm3.991.829c.322.122.612.254.872.395l.951-1.76a9.26 9.26 0 00-1.111-.505l-.712 1.87zm.891.405c.384.197.707.423.977.673l1.361-1.465a6.32 6.32 0 00-1.425-.988l-.913 1.78zm2.072 2.673c.08.373.122.788.122 1.247h2a8 8 0 00-.165-1.664l-1.957.417zm.122 1.247v1.055h2v-1.055h-2zm0 3.163v2.11h2V20.9h-2zm0 4.218v2.11h2v-2.11h-2zm0 4.218v2.11h2v-2.11h-2zm0 4.219v2.108h2v-2.108h-2zm0 4.218v1.054h2v-1.055h-2zm0 1.054c0 .246-.014.478-.043.697l1.983.259a7.3 7.3 0 00.06-.956h-2zm-.417 1.958a3.43 3.43 0 01-.339.542l1.589 1.215c.206-.27.386-.556.538-.86l-1.788-.897zm-.345.55a3.025 3.025 0 01-.409.444l1.33 1.493a4.98 4.98 0 00.679-.737l-1.6-1.2zm-1.496 1.113a5.886 5.886 0 01-.648.229l.56 1.92a7.78 7.78 0 00.869-.308l-.781-1.84zm-.648.229c-.276.08-.551.156-.824.225l.492 1.939c.296-.076.594-.157.892-.244l-.56-1.92zm-2.489.581c-.281.049-.56.091-.838.127l.259 1.984c.305-.04.612-.087.921-.14l-.342-1.971zm-.799.123c-.303.028-.63.051-.981.071l.112 1.997c.371-.02.721-.046 1.05-.076l-.181-1.992zm-2.975.137a71.98 71.98 0 01-1.005.007v2c.357 0 .701-.002 1.033-.007l-.028-2z" fill="#77C2F9" fill-opacity=".9"/></svg>