<svg width="124" height="655" fill="none" xmlns="http://www.w3.org/2000/svg"><path d="M34.17 61.12v-.5h-.5v.5h.5zm6.4-2.48l-.389-.315-.001.001.39.314zm3.2-9.28l-.494-.082.493.082zm1.12-31.28v-.5h-.5v.5h.5zm37.76 0h.5v-.5h-.5v.5zm0 43.04h-.5v.5h.5v-.5zm7.6 0h.5v-.5h-.5v.5zm0 20.96v.5h.5v-.5h-.5zm-11.2 0h-.5v.5h.5v-.5zm0-12.08h.5v-.5h-.5v.5zm-33.68 0v-.5h-.5v.5h.5zm0 12.08v.5h.5v-.5h-.5zm-11.2 0h-.5v.5h.5v-.5zm36-20.88v.5h.5v-.5h-.5zm0-34.32h.5v-.5h-.5v.5zm-14.08 0v-.5h-.5v.5h.5zm-5.2 34.32l-.415-.28-.528.78h.942v-.5zm-17.22-.08v1.048h1V61.12h-1zm0 3.144v2.096h1v-2.096h-1zm0 4.192v2.096h1v-2.096h-1zm0 4.192v2.096h1v-2.096h-1zm0 4.192v2.096h1V76.84h-1zm0 4.192v1.048h1v-1.048h-1zm.5 1.548h.933v-1h-.934v1zm2.8 0h1.866v-1h-1.867v1zm3.733 0h1.866v-1h-1.866v1zm3.733 0h.933v-1h-.933v1zm1.433-.5v-1.007h-1v1.007h1zm0-3.02v-2.013h-1v2.013h1zm0-4.027V73.02h-1v2.013h1zm0-4.026V70h-1v1.007h1zm-.5-.507h1.053v-1h-1.053v1zm3.158 0h2.105v-1h-2.105v1zm4.21 0h2.105v-1h-2.105v1zm4.21 0h2.105v-1h-2.105v1zm4.21 0h2.105v-1h-2.105v1zm4.21 0h2.105v-1h-2.105v1zm4.21 0h2.105v-1h-2.105v1zm4.21 0h2.105v-1h-2.105v1zm4.21 0h1.052v-1h-1.052v1zm.552-.5v1.007h1V70h-1zm0 3.02v2.013h1V73.02h-1zm0 4.027v2.013h1v-2.013h-1zm0 4.026v1.007h1v-1.007h-1zm.5 1.507h.934v-1h-.934v1zm2.8 0h1.867v-1h-1.867v1zm3.734 0h1.866v-1h-1.866v1zm3.733 0h.933v-1h-.933v1zm1.433-.5v-1.048h-1v1.048h1zm0-3.144V76.84h-1v2.096h1zm0-4.192v-2.096h-1v2.096h1zm0-4.192v-2.096h-1v2.096h1zm0-4.192v-2.096h-1v2.096h1zm0-4.192V61.12h-1v1.048h1zm-.5-1.548h-.95v1h.95v-1zm-2.85 0h-1.9v1h1.9v-1zm-3.8 0h-.95v1h.95v-1zm-.45.5v-.978h-1v.978h1zm0-2.934v-1.957h-1v1.956h1zm0-3.913v-1.957h-1v1.957h1zm0-3.913v-1.956h-1v1.956h1zm0-3.913v-1.956h-1v1.956h1zm0-3.913v-1.956h-1v1.956h1zm0-3.912v-1.956h-1v1.956h1zm0-3.913v-1.956h-1v1.956h1zm0-3.913V28.84h-1v1.956h1zm0-3.912v-1.957h-1v1.957h1zm0-3.913v-1.956h-1v1.956h1zm0-3.913v-.978h-1v.978h1zm-.5-1.478H81.6v1h1.05v-1zm-3.146 0h-2.098v1h2.098v-1zm-4.196 0h-2.098v1h2.098v-1zm-4.195 0h-2.098v1h2.098v-1zm-4.196 0h-2.098v1h2.098v-1zm-4.196 0h-2.097v1h2.097v-1zm-4.195 0h-2.098v1h2.098v-1zm-4.196 0h-2.098v1h2.098v-1zm-4.195 0h-2.098v1h2.098v-1zm-4.196 0H44.89v1h1.05v-1zm-1.549.5v1.02h1v-1.02h-1zm0 3.06v2.04h1v-2.04h-1zm0 4.08v2.04h1v-2.04h-1zm0 4.08v1.02h1V29.3h-1zm0 1.02c0 .32 0 .639-.002.954l1 .003c.002-.316.002-.635.002-.957h-1zm-.016 2.859c-.007.648-.017 1.283-.03 1.905l1 .02c.013-.625.023-1.263.03-1.914l-1-.011zm-.078 3.808c-.02.65-.043 1.284-.069 1.902l1 .042c.026-.622.049-1.26.069-1.913l-1-.03zm-.16 3.803a142.49 142.49 0 01-.12 1.897l.996.072c.045-.619.085-1.257.122-1.914l-.999-.055zm-.274 3.79c-.06.654-.124 1.284-.194 1.887l.993.115c.071-.612.136-1.25.197-1.912l-.996-.09zm-.439 3.765c-.047.32-.096.63-.146.933l.986.164c.052-.309.102-.626.15-.952l-.99-.145zm-.146.933c-.07.415-.141.817-.216 1.208l.983.187c.076-.398.15-.809.22-1.23l-.987-.165zm-.745 3.596a24.9 24.9 0 01-.707 2.322l.94.342c.264-.729.51-1.534.736-2.415l-.969-.248zm-1.697 4.493a7.53 7.53 0 01-.653.958l.776.63c.261-.32.508-.683.742-1.085l-.864-.503zm-.654.96a6.95 6.95 0 01-.47.526l.712.703c.186-.189.365-.39.536-.602l-.778-.628zm-1.554 1.4c-.392.245-.81.44-1.256.584l.307.951a6.628 6.628 0 001.48-.688l-.531-.848zm-2.628.86a7.44 7.44 0 01-.709.033v1c.273 0 .54-.012.802-.037l-.093-.995zm-.709.033h-.28v1h.28v-1zm-.84 0h-.28v1h.28v-1zm35.72.08h-.964v1h.964v-1zm-2.892 0H65.35v1h1.928v-1zm-3.856 0h-1.928v1h1.928v-1zm-3.856 0h-1.928v1h1.928v-1zm-3.856 0h-1.928v1h1.928v-1zm-3.856 0h-.964v1h.964v-1zm-.55.78c.194-.286.382-.583.564-.893l-.862-.508c-.172.293-.349.573-.53.84l.828.561zm1.532-2.764c.279-.61.541-1.258.788-1.94l-.94-.34a24.98 24.98 0 01-.758 1.865l.91.415zm1.432-3.92c.187-.645.363-1.315.528-2.012l-.974-.23a39.21 39.21 0 01-.514 1.962l.96.28zm.96-4.04c.127-.661.245-1.342.353-2.044l-.988-.153c-.107.69-.223 1.36-.347 2.008l.982.188zm.639-4.092c.083-.668.158-1.352.227-2.054l-.995-.097a78.28 78.28 0 01-.225 2.027l.993.124zm.404-4.112c.05-.672.095-1.359.134-2.06l-.999-.054a101.06 101.06 0 01-.132 2.04l.997.074zm.228-4.118c.025-.675.045-1.361.06-2.06l-1-.021c-.015.694-.035 1.375-.06 2.044l1 .037zm.088-4.122c.002-.341.003-.685.003-1.032h-1c0 .344 0 .686-.003 1.025l1 .007zm.003-1.032v-.8h-1v.8h1zm0-2.4v-1.6h-1v1.6h1zm0-3.2v-.8h-1v.8h1zm-.5-.3h.88v-1h-.88v1zm2.64 0h1.76v-1h-1.76v1zm3.52 0h1.76v-1h-1.76v1zm3.52 0h1.76v-1h-1.76v1zm3.52 0h.88v-1h-.88v1zm.38-.5v.953h1v-.953h-1zm0 2.86v1.907h1V29.74h-1zm0 3.813v1.907h1v-1.907h-1zm0 3.814v1.906h1v-1.906h-1zm0 3.813v1.907h1V41.18h-1zm0 3.813V46.9h1v-1.907h-1zm0 3.814v1.906h1v-1.906h-1zm0 3.813v1.907h1V52.62h-1zm0 3.813v1.907h1v-1.907h-1zm0 3.814v.953h1v-.953h-1zm-35.5.873v-1h-1v1h1zm6.4-2.48l-.776-.63-.002.002.778.628zm3.2-9.28l-.986-.164.986.164zm1.12-31.28v-1h-1v1h1zm37.76 0h1v-1h-1v1zm0 43.04h-1v1h1v-1zm7.6 0h1v-1h-1v1zm0 20.96v1h1v-1h-1zm-11.2 0h-1v1h1v-1zm0-12.08h1v-1h-1v1zm-33.68 0v-1h-1v1h1zm0 12.08v1h1v-1h-1zm-11.2 0h-1v1h1v-1zm36-20.88v1h1v-1h-1zm0-34.32h1v-1h-1v1zm-14.08 0v-1h-1v1h1zm-5.2 34.32l-.828-.56-1.056 1.56h1.884v-1zm-17.72-.08v1.048h2V61.12h-2zm0 3.144v2.096h2v-2.096h-2zm0 4.192v2.096h2v-2.096h-2zm0 4.192v2.096h2v-2.096h-2zm0 4.192v2.096h2V76.84h-2zm0 4.192v1.048h2v-1.048h-2zm1 2.048h.934v-2h-.934v2zm2.8 0h1.867v-2h-1.867v2zm3.734 0h1.866v-2h-1.866v2zm3.733 0h.933v-2h-.933v2zm1.933-1v-1.007h-2v1.007h2zm0-3.02v-2.013h-2v2.013h2zm0-4.027V73.02h-2v2.013h2zm0-4.026V70h-2v1.007h2zm-1-.007h1.053v-2h-1.053v2zm3.158 0h2.105v-2h-2.105v2zm4.21 0h2.105v-2h-2.105v2zm4.21 0h2.105v-2h-2.105v2zm4.21 0h2.105v-2h-2.105v2zm4.21 0h2.105v-2h-2.105v2zm4.21 0h2.105v-2h-2.105v2zm4.21 0h2.105v-2h-2.105v2zm4.21 0h1.052v-2h-1.052v2zm.052-1v1.007h2V70h-2zm0 3.02v2.013h2V73.02h-2zm0 4.027v2.013h2v-2.013h-2zm0 4.026v1.007h2v-1.007h-2zm1 2.007h.934v-2h-.934v2zm2.8 0h1.867v-2h-1.867v2zm3.734 0h1.866v-2h-1.866v2zm3.733 0h.933v-2h-.933v2zm1.933-1v-1.048h-2v1.048h2zm0-3.144V76.84h-2v2.096h2zm0-4.192v-2.096h-2v2.096h2zm0-4.192v-2.096h-2v2.096h2zm0-4.192v-2.096h-2v2.096h2zm0-4.192V61.12h-2v1.048h2zm-1-2.048h-.95v2h.95v-2zm-2.85 0h-1.9v2h1.9v-2zm-3.8 0h-.95v2h.95v-2zm.05 1v-.978h-2v.978h2zm0-2.934v-1.957h-2v1.956h2zm0-3.913v-1.957h-2v1.957h2zm0-3.913v-1.956h-2v1.956h2zm0-3.913v-1.956h-2v1.956h2zm0-3.913v-1.956h-2v1.956h2zm0-3.912v-1.956h-2v1.956h2zm0-3.913v-1.956h-2v1.956h2zm0-3.913V28.84h-2v1.956h2zm0-3.912v-1.957h-2v1.957h2zm0-3.913v-1.956h-2v1.956h2zm0-3.913v-.978h-2v.978h2zm-1-1.978H81.6v2h1.05v-2zm-3.146 0h-2.098v2h2.098v-2zm-4.196 0h-2.098v2h2.098v-2zm-4.195 0h-2.098v2h2.098v-2zm-4.196 0h-2.098v2h2.098v-2zm-4.196 0h-2.097v2h2.097v-2zm-4.195 0h-2.098v2h2.098v-2zm-4.196 0h-2.098v2h2.098v-2zm-4.195 0h-2.098v2h2.098v-2zm-4.196 0H44.89v2h1.05v-2zm-2.049 1v1.02h2v-1.02h-2zm0 3.06v2.04h2v-2.04h-2zm0 4.08v2.04h2v-2.04h-2zm0 4.08v1.02h2V29.3h-2zm0 1.02c0 .32 0 .638-.002.952l2 .007c.002-.317.002-.636.002-.959h-2zm-.016 2.853c-.007.647-.017 1.28-.03 1.9l2 .041c.013-.626.023-1.266.03-1.918l-2-.023zm-.078 3.8a168.6 168.6 0 01-.068 1.895l1.998.084c.026-.624.05-1.264.07-1.92l-2-.06zm-.16 3.789c-.036.65-.076 1.28-.12 1.89l1.995.142c.045-.621.085-1.262.122-1.921l-1.997-.111zm-.272 3.772c-.06.651-.124 1.277-.193 1.876l1.987.23c.071-.617.137-1.258.198-1.925l-1.992-.181zm-.436 3.738a48.95 48.95 0 01-.144.924l1.973.328c.052-.312.102-.632.15-.96l-1.979-.292zm-.144.924c-.069.41-.14.81-.214 1.196l1.965.375c.077-.402.15-.817.222-1.243l-1.973-.328zm-.736 3.554a24.33 24.33 0 01-.693 2.275l1.88.684c.27-.747.52-1.568.75-2.462l-1.937-.497zm-1.645 4.366c-.2.344-.404.641-.609.893l1.552 1.262c.28-.344.541-.729.786-1.15l-1.729-1.005zm-.611.896a6.494 6.494 0 01-.436.49l1.422 1.405c.199-.2.389-.414.57-.64l-1.556-1.255zm-1.43 1.29a5.107 5.107 0 01-1.145.533l.615 1.903a7.127 7.127 0 001.59-.74l-1.06-1.696zm-2.41.788c-.213.02-.434.03-.662.03v2c.288 0 .57-.013.848-.039l-.185-1.991zm-.662.03h-.28v2h.28v-2zm-.84 0h-.28v2h.28v-2zm35.72.08h-.964v2h.964v-2zm-2.892 0H65.35v2h1.928v-2zm-3.856 0h-1.928v2h1.928v-2zm-3.856 0h-1.928v2h1.928v-2zm-3.856 0h-1.928v2h1.928v-2zm-3.856 0h-.964v2h.964v-2zm-.136 1.56c.2-.294.394-.601.581-.92l-1.724-1.014c-.167.284-.338.555-.513.813l1.656 1.122zm1.573-2.837c.285-.624.552-1.283.803-1.976l-1.88-.68a24.472 24.472 0 01-.743 1.827l1.82.83zm1.457-3.988c.19-.653.368-1.332.534-2.036l-1.946-.46a38.849 38.849 0 01-.508 1.937l1.92.559zm.971-4.086c.128-.666.247-1.353.356-2.06l-1.976-.307a56.784 56.784 0 01-.344 1.99l1.964.377zm.644-4.124c.083-.672.16-1.36.229-2.066l-1.99-.195a77.52 77.52 0 01-.224 2.015l1.985.246zm.407-4.135c.05-.676.095-1.366.134-2.07l-1.997-.11c-.038.691-.082 1.368-.131 2.03l1.994.15zm.229-4.138c.025-.677.044-1.366.06-2.068l-2-.042c-.015.691-.034 1.37-.06 2.036l2 .074zm.088-4.137c.002-.342.003-.687.003-1.035h-2c0 .343 0 .684-.003 1.022l2 .013zm.003-1.035v-.8h-2v.8h2zm0-2.4v-1.6h-2v1.6h2zm0-3.2v-.8h-2v.8h2zm-1 .2h.88v-2h-.88v2zm2.64 0h1.76v-2h-1.76v2zm3.52 0h1.76v-2h-1.76v2zm3.52 0h1.76v-2h-1.76v2zm3.52 0h.88v-2h-.88v2zm-.12-1v.953h2v-.953h-2zm0 2.86v1.907h2V29.74h-2zm0 3.813v1.907h2v-1.907h-2zm0 3.814v1.906h2v-1.906h-2zm0 3.813v1.907h2V41.18h-2zm0 3.813V46.9h2v-1.907h-2zm0 3.814v1.906h2v-1.906h-2zm0 3.813v1.907h2V52.62h-2zm0 3.813v1.907h2v-1.907h-2zm0 3.814v.953h2v-.953h-2zM38.022 152.32l.109-.488-.013-.003-.013-.002-.083.493zm-2.08-.32h-.5v.441l.438.055.062-.496zm0-9.76l.068-.495-.568-.078v.573h.5zm9.12-2l.36.347.006-.006-.366-.341zm3.12-9.12l-.494-.076v.006l.494.07zm1.04-31.04v-.5h-.5v.5h.5zm37.76 0h.5v-.5h-.5v.5zm0 51.92v.5h.5v-.5h-.5zm-12.48 0h-.5v.5h.5v-.5zm0-43.12h.5v-.5h-.5v.5zm-14 0v-.5h-.5v.5h.5zm-2.72 30.08l-.473-.16-.002.005.475.155zm-6.96 10.88l-.272-.42-.003.003.275.417zm-10.08 2.3c-.213 0-.431-.007-.653-.021l-.064.998c.242.015.482.023.717.023v-1zm-1.96-.179c-.214-.037-.431-.08-.651-.129l-.217.976c.234.052.466.098.695.138l.172-.985zm-.677-.134l-.521-.086-.161.987.517.085.165-.986zm-1.569-.25c-.206-.03-.383-.055-.532-.073l-.124.992c.14.017.309.041.51.071l.146-.99zm-.094.423v-1.22h-1V152h1zm0-3.66v-2.44h-1v2.44h1zm0-4.88v-1.22h-1v1.22h1zm-.567-.725c.258.036.507.067.748.095l.114-.994a38.147 38.147 0 01-.727-.091l-.135.99zm2.26.224c.27.014.526.021.767.021v-1c-.222 0-.46-.006-.717-.02l-.05.999zm.767.021c.298 0 .59-.009.875-.027l-.064-.998a12.56 12.56 0 01-.81.025v1zm2.62-.272a8.612 8.612 0 001.695-.565l-.417-.909c-.459.21-.957.377-1.498.499l.22.975zm3.232-1.51c.235-.189.458-.393.668-.611l-.72-.694a6.1 6.1 0 01-.575.525l.627.78zm.674-.617c.283-.304.546-.654.792-1.049l-.848-.529a5.822 5.822 0 01-.676.896l.732.682zm1.873-3.351a22.57 22.57 0 00.702-2.393l-.972-.233a21.642 21.642 0 01-.67 2.288l.94.338zm1.189-4.821c.066-.394.128-.8.188-1.219l-.99-.14c-.059.411-.12.809-.184 1.194l.986.165zm.187-1.213c.05-.333.1-.677.146-1.033l-.991-.131c-.046.35-.094.688-.144 1.012l.989.152zm.385-3.103a91.42 91.42 0 00.183-2.072l-.997-.077c-.056.717-.116 1.4-.181 2.049l.995.1zm.325-4.144c.04-.667.076-1.358.109-2.073l-1-.046c-.032.71-.068 1.397-.108 2.059l.999.06zm.192-4.145c.023-.673.043-1.363.06-2.073l-.999-.025c-.017.707-.038 1.395-.06 2.063l.999.035zm.103-4.144c.011-.675.02-1.366.026-2.072l-1-.009c-.006.704-.015 1.392-.026 2.065l1 .016zm.039-4.143l.001-1.037h-1l-.001 1.034 1 .003zm.001-1.037v-.867h-1v.867h1zm0-2.6v-1.733h-1v1.733h1zm0-3.467v-1.733h-1v1.733h1zm0-3.466v-.867h-1v.867h1zm-.5-.367h1.05v-1h-1.05v1zm3.147 0h2.098v-1h-2.098v1zm4.196 0h2.097v-1h-2.097v1zm4.195 0h2.098v-1H60.76v1zm4.196 0h2.097v-1h-2.097v1zm4.195 0h2.098v-1h-2.098v1zm4.196 0h2.098v-1h-2.098v1zm4.195 0h2.098v-1h-2.098v1zm4.196 0h2.098v-1h-2.098v1zm4.195 0h1.05v-1h-1.05v1zm.55-.5v.998h1v-.998h-1zm0 2.995v1.997h1v-1.997h-1zm0 3.994v1.997h1v-1.997h-1zm0 3.994v1.997h1v-1.997h-1zm0 3.994v1.997h1v-1.997h-1zm0 3.994v1.997h1v-1.997h-1zm0 3.994v1.997h1v-1.997h-1zm0 3.993v1.997h1v-1.997h-1zm0 3.994v1.997h1v-1.997h-1zm0 3.994v1.997h1v-1.997h-1zm0 3.994v1.997h1v-1.997h-1zm0 3.994v1.997h1v-1.997h-1zm0 3.994v1.997h1v-1.997h-1zm0 3.994V152h1v-.998h-1zm.5.498h-1.04v1h1.04v-1zm-3.12 0h-2.08v1h2.08v-1zm-4.16 0h-2.08v1h2.08v-1zm-4.16 0h-1.04v1h1.04v-1zm-.54.5v-.98h-1v.98h1zm0-2.94v-1.96h-1v1.96h1zm0-3.92v-1.96h-1v1.96h1zm0-3.92v-1.96h-1v1.96h1zm0-3.92v-1.96h-1v1.96h1zm0-3.92v-1.96h-1v1.96h1zm0-3.92v-1.96h-1v1.96h1zm0-3.92v-1.96h-1v1.96h1zm0-3.92v-1.96h-1v1.96h1zm0-3.92v-1.96h-1v1.96h1zm0-3.92v-1.96h-1v1.96h1zm0-3.92v-.98h-1v.98h1zm-.5-1.48h-.876v1h.875v-1zm-2.626 0h-1.75v1h1.75v-1zm-3.5 0h-1.75v1h1.75v-1zm-3.5 0h-1.75v1h1.75v-1zm-3.5 0h-.875v1h.875v-1zm-1.375.5v.9h1v-.9h-1zm0 2.7v1.8h1v-1.8h-1zm0 3.6v.9h1v-.9h-1zm0 .9c0 .323 0 .643-.003.961l1 .006c.002-.32.003-.642.003-.967h-1zm-.027 2.883c-.012.651-.03 1.291-.05 1.92l1 .034c.02-.634.038-1.279.05-1.935l-1-.019zm-.13 3.838c-.032.651-.07 1.289-.112 1.915l.998.067c.042-.632.08-1.276.113-1.932l-1-.05zm-.26 3.828a82.53 82.53 0 01-.19 1.906l.994.11c.07-.628.134-1.271.191-1.929l-.996-.087zm-.425 3.806a63.388 63.388 0 01-.288 1.892l.986.165c.105-.623.203-1.263.293-1.921l-.99-.136zm-.637 3.769a45.176 45.176 0 01-.42 1.859l.97.242c.152-.612.295-1.245.43-1.9l-.98-.201zm-.926 3.693c-.093.309-.19.61-.288.903l.947.32c.102-.304.202-.615.298-.932l-.957-.291zm-.29.908c-.114.349-.23.691-.35 1.026l.943.335c.122-.343.24-.693.358-1.051l-.95-.31zm-1.134 3.041c-.294.69-.6 1.339-.917 1.948l.887.462c.33-.634.647-1.307.95-2.018l-.92-.392zm-1.997 3.797c-.41.624-.835 1.189-1.276 1.698l.755.655c.473-.545.925-1.147 1.357-1.804l-.836-.549zm-2.782 3.164a9.644 9.644 0 01-.844.613l.544.84c.317-.206.627-.431.929-.675l-.63-.778zm-.847.616c-.239.157-.481.308-.728.452l.504.864c.263-.154.52-.314.775-.482l-.551-.834zm-2.253 1.232a15.91 15.91 0 01-1.603.611l.306.952a17.135 17.135 0 001.703-.649l-.406-.914zm-3.263 1.053c-.552.118-1.119.212-1.7.282l.12.993c.61-.073 1.206-.172 1.789-.297l-.21-.978zm-3.423.416c-.285.011-.574.016-.866.016v1c.305 0 .606-.006.904-.017l-.038-.999zm-3.586.196l.217-.976-.026-.006-.026-.004-.165.986zm-2.08-.32h-1v.883l.876.109.124-.992zm0-9.76l.136-.991-1.136-.155v1.146h1zm9.12-2l.72.694.006-.006.006-.007-.732-.681zm3.12-9.12l-.988-.151-.002.011.99.14zm1.04-31.04v-1h-1v1h1zm37.76 0h1v-1h-1v1zm0 51.92v1h1v-1h-1zm-12.48 0h-1v1h1v-1zm0-43.12h1v-1h-1v1zm-14 0v-1h-1v1h1zm-2.72 30.08l-.947-.319-.003.008.95.311zm-6.96 10.88l-.544-.839-.007.005.551.834zm-10.08 1.8c-.203 0-.41-.007-.621-.02l-.128 1.996c.253.016.503.024.75.024v-2zm-1.875-.172a13.147 13.147 0 01-.628-.124l-.434 1.952c.242.054.482.101.719.143l.343-1.971zm-.68-.134l-.523-.087-.322 1.974.516.085.329-1.972zm-1.578-.251a23.04 23.04 0 00-.543-.075l-.248 1.984c.134.017.3.04.5.069l.291-1.978zm.333.917v-1.22h-2V152h2zm0-3.66v-2.44h-2v2.44h2zm0-4.88v-1.22h-2v1.22h2zm-1.135-.229c.261.035.514.067.759.095l.227-1.987a30.416 30.416 0 01-.715-.09l-.27 1.982zm2.302.228c.278.014.542.021.793.021v-2c-.212 0-.443-.006-.691-.019l-.102 1.998zm.793.021c.309 0 .61-.009.907-.028l-.127-1.996c-.252.016-.512.024-.78.024v2zm2.73-.284a9.08 9.08 0 001.793-.599l-.833-1.818c-.425.195-.89.351-1.4.466l.44 1.951zm3.435-1.608c.252-.202.49-.42.715-.654l-1.44-1.388a5.622 5.622 0 01-.527.482l1.252 1.56zm.727-.667c.308-.33.59-.707.85-1.124l-1.697-1.058c-.203.325-.41.597-.617.82l1.464 1.362zm1.978-3.521c.265-.738.504-1.555.717-2.447l-1.945-.465c-.2.834-.418 1.578-.654 2.234l1.882.678zm1.211-4.908c.067-.399.13-.81.19-1.232l-1.98-.28c-.058.407-.119.801-.183 1.181l1.973.331zm.188-1.221c.051-.336.1-.683.148-1.043l-1.983-.261a49.3 49.3 0 01-.142 1.002l1.977.302zm.388-3.128a87.36 87.36 0 00.184-2.083l-1.994-.154a90.745 90.745 0 01-.18 2.037l1.99.2zm.327-4.164c.04-.67.076-1.363.11-2.08l-1.999-.092c-.032.708-.068 1.392-.108 2.052l1.997.12zm.192-4.158c.024-.674.044-1.367.061-2.078l-1.999-.049c-.017.705-.038 1.391-.06 2.058l1.998.069zm.104-4.153c.011-.676.02-1.368.026-2.075l-2-.018a290.1 290.1 0 01-.026 2.061l2 .032zm.039-4.15l.001-1.038h-2l-.001 1.032 2 .006zm.001-1.038v-.867h-2v.867h2zm0-2.6v-1.733h-2v1.733h2zm0-3.467v-1.733h-2v1.733h2zm0-3.466v-.867h-2v.867h2zm-1 .133h1.05v-2h-1.05v2zm3.147 0h2.098v-2h-2.098v2zm4.196 0h2.097v-2h-2.097v2zm4.195 0h2.098v-2H60.76v2zm4.196 0h2.097v-2h-2.097v2zm4.195 0h2.098v-2h-2.098v2zm4.196 0h2.098v-2h-2.098v2zm4.195 0h2.098v-2h-2.098v2zm4.196 0h2.098v-2h-2.098v2zm4.195 0h1.05v-2h-1.05v2zm.05-1v.998h2v-.998h-2zm0 2.995v1.997h2v-1.997h-2zm0 3.994v1.997h2v-1.997h-2zm0 3.994v1.997h2v-1.997h-2zm0 3.994v1.997h2v-1.997h-2zm0 3.994v1.997h2v-1.997h-2zm0 3.994v1.997h2v-1.997h-2zm0 3.993v1.997h2v-1.997h-2zm0 3.994v1.997h2v-1.997h-2zm0 3.994v1.997h2v-1.997h-2zm0 3.994v1.997h2v-1.997h-2zm0 3.994v1.997h2v-1.997h-2zm0 3.994v1.997h2v-1.997h-2zm0 3.994V152h2v-.998h-2zm1-.002h-1.04v2h1.04v-2zm-3.12 0h-2.08v2h2.08v-2zm-4.16 0h-2.08v2h2.08v-2zm-4.16 0h-1.04v2h1.04v-2zm-.04 1v-.98h-2v.98h2zm0-2.94v-1.96h-2v1.96h2zm0-3.92v-1.96h-2v1.96h2zm0-3.92v-1.96h-2v1.96h2zm0-3.92v-1.96h-2v1.96h2zm0-3.92v-1.96h-2v1.96h2zm0-3.92v-1.96h-2v1.96h2zm0-3.92v-1.96h-2v1.96h2zm0-3.92v-1.96h-2v1.96h2zm0-3.92v-1.96h-2v1.96h2zm0-3.92v-1.96h-2v1.96h2zm0-3.92v-.98h-2v.98h2zm-1-1.98h-.876v2h.875v-2zm-2.626 0h-1.75v2h1.75v-2zm-3.5 0h-1.75v2h1.75v-2zm-3.5 0h-1.75v2h1.75v-2zm-3.5 0h-.875v2h.875v-2zm-1.875 1v.9h2v-.9h-2zm0 2.7v1.8h2v-1.8h-2zm0 3.6v.9h2v-.9h-2zm0 .9c0 .322 0 .641-.003.958l2 .012c.002-.321.003-.644.003-.97h-2zm-.027 2.873c-.012.649-.029 1.287-.05 1.913l1.999.068c.021-.637.038-1.284.051-1.942l-2-.039zm-.13 3.823c-.032.648-.069 1.283-.111 1.906l1.995.135c.043-.635.081-1.282.114-1.941l-1.998-.1zm-.259 3.809c-.056.647-.12 1.278-.188 1.895l1.988.22c.07-.632.134-1.279.193-1.94l-1.993-.175zm-.421 3.782a63.358 63.358 0 01-.286 1.877l1.972.331c.106-.628.204-1.273.295-1.936l-1.981-.272zm-.632 3.737a45.03 45.03 0 01-.416 1.839l1.941.483a46.47 46.47 0 00.434-1.921l-1.959-.401zm-.914 3.648c-.092.304-.187.6-.284.889l1.895.638c.104-.308.205-.624.303-.945l-1.914-.582zm-.287.897c-.113.346-.228.684-.346 1.014l1.885.67c.123-.347.244-.701.362-1.062l-1.901-.622zm-1.119 3.001c-.289.679-.59 1.316-.9 1.913l1.773.924c.337-.646.66-1.331.967-2.053l-1.84-.784zm-1.954 3.718a15.449 15.449 0 01-1.237 1.645l1.51 1.311c.49-.564.955-1.183 1.398-1.857l-1.671-1.099zm-2.68 3.05c-.263.213-.53.407-.8.583l1.087 1.678c.332-.215.656-.45.971-.706l-1.258-1.555zm-.808.588c-.23.152-.465.298-.704.437l1.008 1.728c.27-.158.537-.324.798-.497l-1.102-1.668zm-2.18 1.192c-.502.223-1.02.42-1.553.592l.612 1.904a17.39 17.39 0 001.753-.668l-.812-1.828zm-3.165 1.021a18.29 18.29 0 01-1.655.274l.239 1.986a20.346 20.346 0 001.835-.304l-.419-1.956zm-3.336.405c-.28.011-.562.016-.848.016v2c.31 0 .618-.006.923-.017l-.075-1.999zm9.392 62.216l.414.28.454-.674-.805-.102-.063.496zm-7.52-3.2l.359-.348-.36.348zm2.16-26l.235.441.006-.003-.241-.438zm38-2.56h.5v-.5h-.5v.5zm0 51.92v.5h.5v-.5h-.5zm-12.48 0h-.5v.5h.5v-.5zm0-19.2h.5v-.5h-.5v.5zm-7.36 0v-.5h-.275l-.148.232.423.268zM51.622 234v.5h.275l.147-.232-.422-.268zm-14.24 0l-.415-.28-.526.78h.94v-.5zm33.76-27.44v.5h.5v-.5h-.5zm0-15.6h.5v-.5h-.5v.5zm-16.24 1.12l.263.425.005-.003-.268-.422zm-.08 13.36l-.3.4.006.005.007.005.287-.41zm-4.255 8.12l-.566.84.829.56.566-.84-.829-.56zm-1.7 2.52l-1.133 1.68.829.56 1.133-1.68-.829-.56zm-2.266 3.36l-1.134 1.68.83.56L47.43 220l-.83-.56zm-2.267 3.36l-1.133 1.68.829.56 1.133-1.68-.83-.56zm-2.267 3.36l-1.133 1.68.829.56 1.133-1.68-.829-.56zm-2.266 3.36l-1.134 1.68.83.56 1.133-1.68-.83-.56zm-2.267 3.36l-.567.84.83.56.566-.84-.83-.56zm-.152 1.62h.89v-1h-.89v1zm2.67 0h1.78v-1h-1.78v1zm3.56 0h1.78v-1h-1.78v1zm3.56 0h1.78v-1h-1.78v1zm3.56 0h.89v-1h-.89v1zm1.312-.232l.507-.8-.845-.536-.507.8.845.536zm1.52-2.4l1.014-1.6-.845-.536-1.014 1.6.845.536zm2.027-3.2l1.013-1.6-.845-.536-1.013 1.6.845.536zm2.026-3.2l1.014-1.6-.845-.536-1.013 1.6.844.536zm2.027-3.2l1.014-1.6-.845-.536-1.014 1.6.845.536zm2.027-3.2l1.013-1.6-.845-.536-1.013 1.6.845.536zm2.026-3.2l.507-.8-.845-.536-.506.8.844.536zm.085-.568h.92v-1h-.92v1zm2.76 0h1.84v-1h-1.84v1zm3.68 0h.92v-1h-.92v1zm.42-.5v.96h1v-.96h-1zm0 2.88v1.92h1v-1.92h-1zm0 3.84v1.92h1v-1.92h-1zm0 3.84v1.92h1v-1.92h-1zm0 3.84v1.92h1v-1.92h-1zm0 3.84v.96h1v-.96h-1zm.5 1.46h1.04v-1h-1.04v1zm3.12 0h2.08v-1h-2.08v1zm4.16 0h2.08v-1h-2.08v1zm4.16 0h1.04v-1h-1.04v1zm1.54-.5v-.998h-1V234h1zm0-2.995v-1.997h-1v1.997h1zm0-3.994v-1.997h-1v1.997h1zm0-3.994v-1.997h-1v1.997h1zm0-3.994v-1.997h-1v1.997h1zm0-3.994v-1.997h-1v1.997h1zm0-3.994v-1.997h-1v1.997h1zm0-3.993v-1.997h-1v1.997h1zm0-3.994v-1.997h-1v1.997h1zm0-3.994v-1.997h-1v1.997h1zm0-3.994v-1.997h-1v1.997h1zm0-3.994v-1.997h-1v1.997h1zm0-3.994v-1.997h-1v1.997h1zm0-3.994v-.998h-1v.998h1zm-.5-1.498h-.957v1h.957v-1zm-2.87 0h-1.914v1h1.914v-1zm-3.827 0h-1.913v1h1.913v-1zm-3.827 0h-1.913v1h1.913v-1zm-3.826 0h-1.914v1h1.914v-1zm-3.827 0h-1.913v1h1.913v-1zm-3.827 0h-.956v1h.956v-1zm-.956 0c-.328 0-.65.002-.97.006l.012 1c.315-.004.634-.006.958-.006v-1zm-2.907.054c-.666.026-1.312.061-1.937.105l.07.998a59.869 59.869 0 011.905-.104l-.038-.999zm-3.875.279c-.67.074-1.314.161-1.931.259l.158.988c.6-.096 1.227-.181 1.883-.253l-.11-.994zm-3.852.627c-.671.152-1.304.322-1.899.51l.303.953c.564-.179 1.17-.341 1.816-.487l-.22-.976zm-3.753 1.215c-.313.141-.61.291-.895.447l.483.876c.26-.143.535-.281.825-.413l-.413-.91zm-.889.444c-.265.142-.52.292-.765.45l.544.839c.22-.142.451-.278.692-.407l-.47-.882zm-2.163 1.557c-.434.42-.818.879-1.15 1.376l.831.555a7.41 7.41 0 011.014-1.212l-.695-.719zm-1.983 2.961a9.915 9.915 0 00-.507 1.703l.98.201a8.941 8.941 0 01.456-1.532l-.929-.372zm-.733 3.448a14.67 14.67 0 00-.025.875h1c0-.278.008-.55.023-.815l-.998-.06zm-.025.875v.86h1v-.86h-1zm0 2.58v1.72h1v-1.72h-1zm0 3.44v1.72h1v-1.72h-1zm0 3.44v.86h1v-.86h-1zm0 .86c0 .346.01.685.03 1.016l.997-.059a16.268 16.268 0 01-.027-.957h-1zm.293 3.043c.147.702.35 1.36.611 1.974l.92-.391a9.604 9.604 0 01-.552-1.788l-.98.205zm1.647 3.786c.21.281.437.547.68.799l.719-.696a7.201 7.201 0 01-.598-.702l-.8.599zm.68.799c.254.262.527.509.817.742l.625-.781a7.753 7.753 0 01-.723-.657l-.718.696zm2.666 1.908c.62.306 1.29.569 2.013.789l.291-.957a12.316 12.316 0 01-1.861-.728l-.443.896zm4.097 1.281c.342.06.694.113 1.054.159l.126-.992c-.345-.044-.68-.094-1.006-.152l-.174.985zm21.277-8.117h-.86v1h.86v-1zm-2.58 0h-1.72v1h1.72v-1zm-3.44 0h-1.72v1h1.72v-1zm-3.44 0h-.86v1h.86v-1zm-.86 0c-.262 0-.515-.003-.761-.009l-.024 1c.254.006.516.009.785.009v-1zm-2.271-.092a14.295 14.295 0 01-1.477-.206l-.196.98c.479.096 1.007.17 1.583.222l.09-.996zm-2.854-.616c-.23-.1-.426-.208-.589-.322l-.573.82c.226.158.482.297.764.42l.398-.918zm-.575-.312a2.698 2.698 0 01-.697-.787l-.858.514c.257.428.574.788.955 1.073l.6-.8zm-1.34-2.964a11.13 11.13 0 01-.06-1.196h-1c0 .461.021.895.066 1.304l.994-.108zm-.06-1.196v-1.22h-1v1.22h1zm0-3.66V196h-1v1.22h1zm0-1.22c0-.377.023-.725.067-1.044l-.99-.138a8.605 8.605 0 00-.077 1.182h1zm.754-2.871c.191-.25.42-.458.689-.624l-.526-.85c-.372.23-.692.519-.957.865l.794.609zm.694-.627a4.17 4.17 0 01.603-.314l-.393-.919c-.27.115-.52.245-.747.389l.537.844zm1.965-.727c.436-.092.92-.164 1.452-.216l-.097-.996c-.563.056-1.084.133-1.561.234l.206.978zm2.938-.305c.242-.007.492-.01.749-.01v-1c-.266 0-.524.003-.776.01l.027 1zm.749-.01h.86v-1h-.86v1zm2.58 0h1.72v-1h-1.72v1zm3.44 0h1.72v-1h-1.72v1zm3.44 0h.86v-1h-.86v1zm.36-.5v.975h1v-.975h-1zm0 2.925v1.95h1v-1.95h-1zm0 3.9v1.95h1v-1.95h-1zm0 3.9v1.95h1v-1.95h-1zm0 3.9v.975h1v-.975h-1zm-19.66 8.255l.829.559.908-1.346-1.611-.205-.126.992zm-7.52-3.2l.718-.696-.718.696zm2.16-26l.471.882.012-.006-.483-.876zm38-2.56h1v-1h-1v1zm0 51.92v1h1v-1h-1zm-12.48 0h-1v1h1v-1zm0-19.2h1v-1h-1v1zm-7.36 0v-1h-.55l-.295.465.845.535zM51.622 234v1h.55l.295-.465-.845-.535zm-14.24 0l-.83-.559-1.05 1.559h1.88v-1zm33.76-27.44v1h1v-1h-1zm0-15.6h1v-1h-1v1zm-16.24 1.12l.526.85.01-.006-.536-.844zm-.08 13.36l-.6.8.013.01.013.009.574-.819zm-4.67 7.841l-.566.84 1.658 1.118.567-.84-1.658-1.118zm-1.7 2.52l-1.133 1.68 1.658 1.118 1.134-1.68-1.658-1.118zm-2.266 3.36l-1.133 1.68 1.658 1.118 1.133-1.68-1.658-1.118zm-2.267 3.36l-1.133 1.68 1.658 1.118 1.133-1.68-1.658-1.118zm-2.266 3.36l-1.134 1.68 1.658 1.118 1.134-1.68-1.658-1.118zm-2.267 3.36l-1.133 1.68 1.658 1.118 1.133-1.68-1.658-1.118zm-2.267 3.36l-.566.84 1.658 1.118.566-.84-1.658-1.118zm.263 2.399h.89v-2h-.89v2zm2.67 0h1.78v-2h-1.78v2zm3.56 0h1.78v-2h-1.78v2zm3.56 0h1.78v-2h-1.78v2zm3.56 0h.89v-2h-.89v2zm1.735-.465l.506-.8-1.69-1.07-.506.8 1.69 1.07zm1.52-2.4l1.013-1.6-1.69-1.07-1.013 1.6 1.69 1.07zm2.026-3.2l1.014-1.6-1.69-1.07-1.013 1.6 1.69 1.07zm2.027-3.2l1.013-1.6-1.69-1.07-1.013 1.6 1.69 1.07zm2.027-3.2l1.013-1.6-1.69-1.07-1.013 1.6 1.69 1.07zm2.026-3.2l1.014-1.6-1.69-1.07-1.013 1.6 1.69 1.07zm2.027-3.2l.507-.8-1.69-1.07-.507.8 1.69 1.07zm-.338-.335h.92v-2h-.92v2zm2.76 0h1.84v-2h-1.84v2zm3.68 0h.92v-2h-.92v2zm-.08-1v.96h2v-.96h-2zm0 2.88v1.92h2v-1.92h-2zm0 3.84v1.92h2v-1.92h-2zm0 3.84v1.92h2v-1.92h-2zm0 3.84v1.92h2v-1.92h-2zm0 3.84v.96h2v-.96h-2zm1 1.96h1.04v-2h-1.04v2zm3.12 0h2.08v-2h-2.08v2zm4.16 0h2.08v-2h-2.08v2zm4.16 0h1.04v-2h-1.04v2zm2.04-1v-.998h-2V234h2zm0-2.995v-1.997h-2v1.997h2zm0-3.994v-1.997h-2v1.997h2zm0-3.994v-1.997h-2v1.997h2zm0-3.994v-1.997h-2v1.997h2zm0-3.994v-1.997h-2v1.997h2zm0-3.994v-1.997h-2v1.997h2zm0-3.993v-1.997h-2v1.997h2zm0-3.994v-1.997h-2v1.997h2zm0-3.994v-1.997h-2v1.997h2zm0-3.994v-1.997h-2v1.997h2zm0-3.994v-1.997h-2v1.997h2zm0-3.994v-1.997h-2v1.997h2zm0-3.994v-.998h-2v.998h2zm-1-1.998h-.957v2h.957v-2zm-2.87 0h-1.914v2h1.914v-2zm-3.827 0h-1.913v2h1.913v-2zm-3.827 0h-1.913v2h1.913v-2zm-3.826 0h-1.914v2h1.914v-2zm-3.827 0h-1.913v2h1.913v-2zm-3.827 0h-.956v2h.956v-2zm-.956 0c-.33 0-.655.002-.976.006l.024 2c.313-.004.63-.006.952-.006v-2zm-2.927.054c-.67.026-1.322.062-1.953.106l.142 1.995a58.846 58.846 0 011.889-.102l-.078-1.999zm-3.91.282c-.678.075-1.33.162-1.955.263l.316 1.975a38.53 38.53 0 011.859-.25l-.22-1.988zm-3.908.636c-.683.155-1.33.328-1.939.522l.605 1.906c.55-.174 1.141-.333 1.775-.477l-.44-1.951zm-3.849 1.247c-.323.147-.633.302-.93.465l.967 1.752c.247-.137.51-.269.79-.396l-.827-1.821zm-.918.459c-.277.148-.544.305-.8.472l1.087 1.678a8.84 8.84 0 01.656-.386l-.943-1.764zm-2.275 1.639c-.46.444-.866.93-1.218 1.457l1.663 1.111c.272-.407.587-.784.946-1.13l-1.39-1.438zm-2.099 3.134a10.432 10.432 0 00-.533 1.788l1.96.403c.105-.516.25-.998.43-1.447l-1.857-.744zm-.768 3.604a14.95 14.95 0 00-.026.905h2c0-.269.007-.531.023-.786l-1.997-.119zm-.026.905v.86h2v-.86h-2zm0 2.58v1.72h2v-1.72h-2zm0 3.44v1.72h2v-1.72h-2zm0 3.44v.86h2v-.86h-2zm0 .86c0 .356.01.704.03 1.045l1.996-.118c-.017-.3-.026-.609-.026-.927h-2zm.304 3.145a11.1 11.1 0 00.64 2.068l1.84-.783a9.097 9.097 0 01-.523-1.695l-1.957.41zm1.736 3.983c.222.298.463.581.721.848l1.437-1.392a6.625 6.625 0 01-.556-.653l-1.602 1.197zm.721.848c.27.277.557.539.864.784l1.25-1.561a7.178 7.178 0 01-.677-.615l-1.437 1.392zm2.803 2.009c.647.319 1.344.591 2.09.818l.581-1.914a11.699 11.699 0 01-1.785-.697l-.886 1.793zm4.232 1.324c.35.062.71.116 1.078.163l.252-1.984a20.729 20.729 0 01-.982-.148l-.348 1.969zm21.364-9.109h-.86v2h.86v-2zm-2.58 0h-1.72v2h1.72v-2zm-3.44 0h-1.72v2h1.72v-2zm-3.44 0h-.86v2h.86v-2zm-.86 0a30.2 30.2 0 01-.749-.009l-.049 2c.259.006.525.009.798.009v-2zm-2.226-.09a13.299 13.299 0 01-1.423-.199l-.394 1.961c.5.101 1.047.176 1.637.23l.18-1.992zm-2.7-.576a2.881 2.881 0 01-.5-.273l-1.148 1.638c.258.181.544.336.852.469l.796-1.834zm-.474-.254a2.197 2.197 0 01-.568-.644l-1.715 1.028c.286.479.646.889 1.083 1.216l1.2-1.6zm-1.143-2.618a10.602 10.602 0 01-.057-1.142h-2c0 .476.022.929.069 1.358l1.988-.216zm-.057-1.142v-1.22h-2v1.22h2zm0-3.66V196h-2v1.22h2zm0-1.22c0-.358.021-.682.062-.975l-1.98-.276a9.094 9.094 0 00-.082 1.251h2zm.65-2.567a2.07 2.07 0 01.556-.503l-1.053-1.7a4.065 4.065 0 00-1.09.986l1.588 1.217zm.567-.509c.15-.096.325-.188.53-.276l-.785-1.839a5.778 5.778 0 00-.82.427l1.075 1.688zm1.8-.66c.414-.087.88-.157 1.397-.208l-.195-1.99c-.578.056-1.117.136-1.615.241l.412 1.957zm2.848-.294a25 25 0 01.735-.01v-2c-.27 0-.533.003-.789.01l.054 2zm.735-.01h.86v-2h-.86v2zm2.58 0h1.72v-2h-1.72v2zm3.44 0h1.72v-2h-1.72v2zm3.44 0h.86v-2h-.86v2zm-.14-1v.975h2v-.975h-2zm0 2.925v1.95h2v-1.95h-2zm0 3.9v1.95h2v-1.95h-2zm0 3.9v1.95h2v-1.95h-2zm0 3.9v.975h2v-.975h-2zM41.89 346.08v-.5h-.5v.5h.5zm12.48 0h.5v-.5h-.5v.5zm0 20.48h-.5v.5h.5v-.5zm5.68-1.28l.255.43.011-.007-.266-.423zm4.72-5.12l-.411-.285-.003.004.414.281zm9.76-14.08v-.5h-.262l-.15.215.412.285zm14 0l.406.292.568-.792h-.974v.5zm-11.2 15.6l-.407-.292v.002l.407.29zm-4.72 5.52l.33.374h.002l-.332-.374zm-5.2 3.04l-.18-.467-.32.124v.343h.5zm0 .16h-.5v.394l.383.092.117-.486zm6.64 3.44l-.343.364.006.005.337-.369zm5.28 7.2l-.44.238.44-.238zm9.2 16.96v.5h.84l-.4-.738-.44.238zm-14 0l-.438.243.143.257h.295v-.5zm-8.48-15.28l-.438.242v.001l.438-.243zm-3.28-4.56l-.363.344.009.01.01.008.344-.362zM59.33 376l.14-.48-.14.48zm-4.96-.56v-.5h-.5v.5h.5zm0 22.56v.5h.5v-.5h-.5zm-12.48 0h-.5v.5h.5v-.5zm-.5-51.92v.998h1v-.998h-1zm0 2.995v1.997h1v-1.997h-1zm0 3.994v1.997h1v-1.997h-1zm0 3.994v1.997h1v-1.997h-1zm0 3.994v1.997h1v-1.997h-1zm0 3.994v1.997h1v-1.997h-1zm0 3.994v1.997h1v-1.997h-1zm0 3.993v1.997h1v-1.997h-1zm0 3.994v1.997h1v-1.997h-1zm0 3.994v1.997h1v-1.997h-1zm0 3.994v1.997h1v-1.997h-1zm0 3.994v1.997h1v-1.997h-1zm0 3.994v1.997h1v-1.997h-1zm0 3.994V398h1v-.998h-1zm.5 1.498h1.04v-1h-1.04v1zm3.12 0h2.08v-1h-2.08v1zm4.16 0h2.08v-1h-2.08v1zm4.16 0h1.04v-1h-1.04v1zm1.54-.5v-.94h-1v.94h1zm0-2.82v-1.88h-1v1.88h1zm0-3.76v-1.88h-1v1.88h1zm0-3.76v-1.88h-1v1.88h1zm0-3.76v-1.88h-1v1.88h1zm0-3.76v-1.88h-1v1.88h1zm0-3.76v-.94h-1v.94h1zm-.5-.44c.427 0 .837.008 1.23.025l.043-.999a30.57 30.57 0 00-1.273-.026v1zm3.653.273c.423.074.812.164 1.167.267l.28-.96a11.977 11.977 0 00-1.273-.292l-.174.985zm1.167.267c.306.089.605.2.895.332l.414-.91a7.678 7.678 0 00-1.03-.382l-.28.96zm2.51 1.359c.242.203.478.424.707.665l.725-.688a9.485 9.485 0 00-.79-.744l-.641.767zm.725.683c.3.285.604.614.914.991l.772-.636a12.16 12.16 0 00-.997-1.08l-.689.725zm2.49 3.24c.23.377.463.777.697 1.2l.875-.484c-.24-.435-.48-.848-.719-1.238l-.853.522zm.697 1.201l.53.955.875-.486-.53-.955-.875.486zm1.59 2.865l1.06 1.91.875-.486-1.06-1.91-.875.486zm2.12 3.82l1.06 1.91.875-.486-1.06-1.91-.875.486zm2.12 3.82l1.06 1.91.875-.486-1.06-1.91-.875.486zm2.12 3.82l.53.955.875-.486-.53-.955-.875.486zm.968 1.212h.875v-1h-.875v1zm2.625 0h1.75v-1h-1.75v1zm3.5 0h1.75v-1h-1.75v1zm3.5 0h1.75v-1h-1.75v1zm3.5 0h.875v-1h-.875v1zm1.314-.738l-.46-.848-.879.476.46.848.88-.476zm-1.38-2.544l-.92-1.696-.879.476.92 1.696.88-.476zm-1.84-3.392l-.92-1.696-.879.476.92 1.696.88-.476zm-1.84-3.392l-.92-1.696-.879.476.92 1.696.88-.476zm-1.84-3.392l-.92-1.696-.879.476.92 1.696.88-.476zm-1.84-3.392l-.46-.848-.879.476.46.848.88-.476zm-.46-.848a42.863 42.863 0 00-.553-.99l-.867.498c.181.314.361.637.541.968l.88-.476zm-1.74-2.927a29.214 29.214 0 00-1.323-1.857l-.79.612c.427.552.853 1.15 1.276 1.795l.836-.55zm-2.817-3.598a16.895 16.895 0 00-.826-.806l-.673.738c.26.237.519.49.777.76l.722-.692zm-.82-.801c-.239-.225-.485-.44-.74-.646l-.63.777c.236.191.464.39.685.597l.685-.728zm-2.35-1.767a14.718 14.718 0 00-1.743-.885l-.394.919c.57.244 1.113.52 1.626.825l.512-.859zm-3.577-1.544c-.307-.091-.62-.175-.939-.251l-.233.972c.302.073.598.152.888.238l.284-.959zm-.555.235v-.04h-1v.04h1zm0-.12v-.04h-1v.04h1zm-.321.427c.244-.094.483-.191.718-.29l-.39-.921a20.17 20.17 0 01-.687.277l.359.934zm2.123-.949a17.73 17.73 0 001.35-.776l-.536-.844c-.403.256-.828.5-1.274.732l.46.888zm2.627-1.68c.207-.164.407-.332.602-.504l-.663-.748c-.18.159-.366.315-.559.467l.62.785zm.603-.504c.225-.2.452-.413.682-.638l-.7-.714c-.22.214-.435.416-.647.604l.665.748zm1.956-1.985c.388-.438.783-.91 1.185-1.415l-.782-.623c-.393.493-.777.951-1.152 1.376l.75.662zm2.301-2.875c.178-.242.357-.49.538-.744l-.815-.58c-.178.25-.354.494-.528.731l.805.593zm.537-.742l.56-.78-.813-.584-.56.78.813.584zm1.68-2.34l1.12-1.56-.813-.584-1.12 1.56.813.584zm2.24-3.12l1.12-1.56-.813-.584-1.12 1.56.813.584zm2.24-3.12l1.12-1.56-.813-.584-1.12 1.56.813.584zm2.24-3.12l1.12-1.56-.813-.584-1.12 1.56.813.584zm2.24-3.12l.56-.78-.813-.584-.56.78.813.584zm.154-1.572h-.875v1h.875v-1zm-2.625 0h-1.75v1h1.75v-1zm-3.5 0h-1.75v1h1.75v-1zm-3.5 0h-1.75v1h1.75v-1zm-3.5 0h-.875v1h.875v-1zm-1.286.215l-.61.88.822.57.61-.88-.822-.57zm-1.83 2.64l-1.22 1.76.822.57 1.22-1.76-.822-.57zm-2.44 3.52l-1.22 1.76.822.57 1.22-1.76-.822-.57zm-2.44 3.52l-1.22 1.76.822.57 1.22-1.76-.822-.57zm-2.44 3.52l-.61.88.822.57.61-.88-.822-.57zm-.613.884c-.166.244-.331.48-.494.709l.813.582c.168-.235.337-.478.508-.729l-.827-.562zm-1.535 2.081c-.385.476-.76.904-1.127 1.284l.72.694c.39-.404.784-.854 1.184-1.349l-.777-.629zm-2.367 2.421c-.229.18-.453.339-.67.476l.532.846c.25-.158.503-.337.757-.537l-.619-.785zm-.66.469a7.292 7.292 0 01-1.246.582l.339.941c.508-.183.98-.404 1.417-.663l-.51-.86zm-3.996 1.151c-.454.039-.93.059-1.428.059v1c.525 0 1.03-.021 1.514-.063l-.086-.996zm-.928.559v-1.024h-1v1.024h1zm0-3.072v-2.048h-1v2.048h1zm0-4.096v-2.048h-1v2.048h1zm0-4.096v-2.048h-1v2.048h1zm0-4.096v-2.048h-1v2.048h1zm0-4.096v-1.024h-1v1.024h1zm-.5-1.524h-1.04v1h1.04v-1zm-3.12 0h-2.08v1h2.08v-1zm-4.16 0h-2.08v1h2.08v-1zm-4.16 0h-1.04v1h1.04v-1zm-1.04.5v-1h-1v1h1zm12.48 0h1v-1h-1v1zm0 20.48h-1v1h1v-1zm5.68-1.28l.51.86.011-.007.011-.007-.532-.846zm4.72-5.12l-.822-.57-.005.007.827.563zm9.76-14.08v-1h-.524l-.298.43.822.57zm14 0l.812.583 1.136-1.583H88.53v1zm-11.2 15.6l-.813-.583-.002.003.815.58zm-4.72 5.52l.662.749.002-.002-.664-.747zm-5.2 3.04l-.36-.933-.64.246v.687h1zm0 .16h-1v.788l.766.184.234-.972zm6.64 3.44l-.685.729.005.005.006.005.674-.739zm5.28 7.2l-.88.477.88-.477zm9.2 16.96v1h1.68l-.801-1.477-.88.477zm-14 0l-.875.485.286.515h.589v-1zm-8.48-15.28l-.876.484.001.001.875-.485zm-3.28-4.56l-.725.689.017.018.019.018.689-.725zM59.33 376l.28-.96-.28.96zm-4.96-.56v-1h-1v1h1zm0 22.56v1h1v-1h-1zm-12.48 0h-1v1h1v-1zm-1-51.92v.998h2v-.998h-2zm0 2.995v1.997h2v-1.997h-2zm0 3.994v1.997h2v-1.997h-2zm0 3.994v1.997h2v-1.997h-2zm0 3.994v1.997h2v-1.997h-2zm0 3.994v1.997h2v-1.997h-2zm0 3.994v1.997h2v-1.997h-2zm0 3.993v1.997h2v-1.997h-2zm0 3.994v1.997h2v-1.997h-2zm0 3.994v1.997h2v-1.997h-2zm0 3.994v1.997h2v-1.997h-2zm0 3.994v1.997h2v-1.997h-2zm0 3.994v1.997h2v-1.997h-2zm0 3.994V398h2v-.998h-2zm1 1.998h1.04v-2h-1.04v2zm3.12 0h2.08v-2h-2.08v2zm4.16 0h2.08v-2h-2.08v2zm4.16 0h1.04v-2h-1.04v2zm2.04-1v-.94h-2v.94h2zm0-2.82v-1.88h-2v1.88h2zm0-3.76v-1.88h-2v1.88h2zm0-3.76v-1.88h-2v1.88h2zm0-3.76v-1.88h-2v1.88h2zm0-3.76v-1.88h-2v1.88h2zm0-3.76v-.94h-2v.94h2zm-1 .06c.42 0 .824.008 1.208.025l.086-1.998a29.934 29.934 0 00-1.294-.027v2zm3.567.265c.407.072.778.157 1.113.255l.56-1.92a12.476 12.476 0 00-1.326-.305l-.347 1.97zm1.113.255c.283.083.56.185.827.307l.83-1.82a8.209 8.209 0 00-1.097-.407l-.56 1.92zm2.33 1.263c.226.189.448.398.665.626l1.45-1.378a10.2 10.2 0 00-.831-.782l-1.284 1.534zm.7.662c.283.268.574.583.873.945l1.544-1.271a12.578 12.578 0 00-1.039-1.124l-1.377 1.45zm2.409 3.138c.226.37.455.763.685 1.181l1.75-.968c-.243-.44-.486-.86-.73-1.257l-1.705 1.044zm.686 1.182l.53.955 1.749-.97-.53-.955-1.749.97zm1.59 2.865l1.06 1.91 1.749-.97-1.06-1.91-1.749.97zm2.12 3.82l1.06 1.91 1.749-.97-1.06-1.91-1.749.97zm2.12 3.82l1.06 1.91 1.749-.97-1.06-1.91-1.749.97zm2.12 3.82l.53.955 1.749-.97-.53-.955-1.749.97zM74.53 399h.875v-2h-.875v2zm2.625 0h1.75v-2h-1.75v2zm3.5 0h1.75v-2h-1.75v2zm3.5 0h1.75v-2h-1.75v2zm3.5 0h.875v-2h-.875v2zm1.754-1.477l-.46-.848-1.758.954.46.848 1.758-.954zm-1.38-2.544l-.92-1.696-1.758.954.92 1.696 1.758-.954zm-1.84-3.392l-.92-1.696-1.758.954.92 1.696 1.758-.954zm-1.84-3.392l-.92-1.696-1.758.954.92 1.696 1.758-.954zm-1.84-3.392l-.92-1.696-1.758.954.92 1.696 1.758-.954zm-1.84-3.392l-.46-.848-1.758.954.46.848 1.758-.954zm-.46-.848a47.189 47.189 0 00-.56-1.001l-1.733.997c.178.311.357.63.535.958l1.758-.954zm-1.763-2.962a29.9 29.9 0 00-1.345-1.89l-1.581 1.225c.42.541.838 1.129 1.255 1.763l1.67-1.098zm-2.873-3.67c-.28-.293-.564-.569-.85-.83l-1.347 1.478c.25.229.502.474.753.736l1.444-1.384zm-.839-.82a14.18 14.18 0 00-.767-.67l-1.26 1.555c.227.183.446.374.658.573l1.37-1.458zM72.3 371.28a15.274 15.274 0 00-1.803-.916l-.788 1.838a13.45 13.45 0 011.567.796l1.023-1.718zm-3.692-1.595a18.953 18.953 0 00-.964-.257l-.467 1.944c.294.071.582.148.863.231l.568-1.918zm-.197.715v-.04h-2v.04h2zm0-.12v-.04h-2v.04h2zm-.641.893c.248-.095.493-.194.733-.296l-.781-1.841c-.219.093-.442.183-.67.271l.718 1.866zm2.173-.971a18.2 18.2 0 001.389-.798l-1.074-1.688c-.39.248-.801.485-1.235.71l.92 1.776zm2.707-1.732c.214-.169.422-.343.623-.521l-1.325-1.498c-.173.153-.352.303-.538.449l1.24 1.57zm.625-.523c.231-.205.464-.423.7-.654l-1.4-1.428a18.54 18.54 0 01-.629.588l1.329 1.494zm1.999-2.027a35.14 35.14 0 001.2-1.434l-1.564-1.246c-.387.486-.766.938-1.134 1.355l1.498 1.325zm2.329-2.91c.18-.244.36-.494.542-.75l-1.63-1.16c-.176.248-.35.49-.523.725l1.61 1.185zm.54-.747l.56-.78-1.625-1.166-.56.78 1.625 1.166zm1.68-2.34l1.12-1.56-1.625-1.166-1.12 1.56 1.625 1.166zm2.24-3.12l1.12-1.56-1.625-1.166-1.12 1.56 1.625 1.166zm2.24-3.12l1.12-1.56-1.625-1.166-1.12 1.56 1.625 1.166zm2.24-3.12l1.12-1.56-1.625-1.166-1.12 1.56 1.625 1.166zm2.24-3.12l.56-.78-1.625-1.166-.56.78 1.625 1.166zm-.252-2.363h-.875v2h.875v-2zm-2.625 0h-1.75v2h1.75v-2zm-3.5 0h-1.75v2h1.75v-2zm-3.5 0h-1.75v2h1.75v-2zm-3.5 0h-.875v2h.875v-2zm-1.697.43l-.61.88 1.643 1.14.61-.88-1.643-1.14zm-1.83 2.64l-1.22 1.76 1.643 1.14 1.22-1.76-1.643-1.14zm-2.44 3.52l-1.22 1.76 1.643 1.14 1.22-1.76-1.643-1.14zm-2.44 3.52l-1.22 1.76 1.643 1.14 1.22-1.76-1.643-1.14zm-2.44 3.52l-.61.88 1.643 1.14.61-.88-1.643-1.14zm-.615.887a36.28 36.28 0 01-.488.7l1.627 1.164c.17-.239.342-.485.514-.738l-1.653-1.126zm-1.51 2.048a19.45 19.45 0 01-1.1 1.253l1.442 1.386c.4-.415.804-.876 1.212-1.381l-1.555-1.258zm-2.288 2.343c-.217.17-.426.319-.628.446l1.065 1.692a9.21 9.21 0 00.8-.567l-1.237-1.571zm-.605.432c-.35.207-.736.388-1.162.542l.678 1.881a8.802 8.802 0 001.503-.703l-1.02-1.72zm-3.786 1.083a16.01 16.01 0 01-1.384.057v2c.538 0 1.057-.021 1.557-.065l-.173-1.992zm-.384 1.057v-1.024h-2v1.024h2zm0-3.072v-2.048h-2v2.048h2zm0-4.096v-2.048h-2v2.048h2zm0-4.096v-2.048h-2v2.048h2zm0-4.096v-2.048h-2v2.048h2zm0-4.096v-1.024h-2v1.024h2zm-1-2.024h-1.04v2h1.04v-2zm-3.12 0h-2.08v2h2.08v-2zm-4.16 0h-2.08v2h2.08v-2zm-4.16 0h-1.04v2h1.04v-2zM54.44 480.24l-.077.494h.002l.075-.494zm-7.52-1.92l.164-.472-.003-.001-.161.473zm-6.64-4.64l-.404.295.004.005.4-.3zm-.72-37.52l-.433-.251-.005.009.438.242zm4.48-4.8l-.268-.422-.004.002.272.42zm5.92-2.56l.142.48-.142-.48zm6.56-1.28l.04.498h.003l-.043-.498zm12.32.08l-.058.497h.007l.007.001.044-.498zm6.08 1.12l.14-.48-.013-.004-.127.484zm6.32 2.72l.271-.42-.271.42zm4.16 4.48l-.432.252.002.004.43-.256zm-.56 37.28l-.401-.298-.005.006.406.292zm-6.24 4.72l-.186-.464.186.464zM67 471.76l.045.498.01-.001.01-.001-.065-.496zm3.76-.8l-.14-.48.14.48zm2.88-1.84l-.397-.304-.003.004.4.3zm-1.92-31.36l-.238.44.01.005.228-.445zm-18.4-.08l-.229-.445.229.445zm-1.92 31.44l-.397.304.004.006.005.005.388-.315zm3.04 1.84l.14-.48-.005-.001-.135.481zm3.68.8l-.068.495.012.002.013.001.043-.498zm4.32 8.54c-.335 0-.667-.003-.996-.008l-.015 1c.334.005.671.008 1.01.008v-1zm-2.985-.071a53.19 53.19 0 01-1.983-.134l-.086.997c.66.057 1.334.102 2.02.136l.05-.999zm-3.958-.345a46.77 46.77 0 01-.982-.138l-.15.988c.33.051.666.098 1.005.141l.127-.991zm-.98-.138a37.143 37.143 0 01-.945-.16l-.18.984c.326.059.65.114.971.164l.154-.988zm-2.822-.552a43.167 43.167 0 01-1.86-.48l-.271.962c.64.181 1.275.345 1.902.492l.228-.974zm-3.7-1.04a46.74 46.74 0 01-.911-.306l-.328.944c.311.108.621.213.93.313l.31-.951zm-.914-.307a17.42 17.42 0 01-.935-.349l-.379.925c.323.132.653.255.992.37l.322-.946zm-2.72-1.222a12.728 12.728 0 01-1.63-1.118l-.63.777c.547.442 1.133.844 1.758 1.206l.502-.865zm-3.057-2.48a12.271 12.271 0 01-.624-.765l-.8.6c.215.286.44.562.676.828l.748-.663zm-.62-.76c-.2-.273-.386-.552-.56-.839l-.855.517c.188.312.39.616.607.912l.807-.59zm-1.444-2.648a12.36 12.36 0 01-.565-1.941l-.98.202c.15.728.354 1.427.612 2.097l.933-.358zm-.83-3.956c-.02-.334-.03-.674-.03-1.021h-1c0 .367.01.728.033 1.083l.998-.062zm-.03-1.021v-.947h-1v.947h1zm0-2.84v-1.893h-1v1.893h1zm0-3.787v-1.893h-1v1.893h1zm0-3.786v-1.894h-1v1.894h1zm0-3.787v-1.893h-1v1.893h1zm0-3.787v-1.893h-1v1.893h1zm0-3.786v-.947h-1v.947h1zm0-.947c0-.293.008-.583.023-.868l-.999-.053c-.016.303-.024.61-.024.921h1zm.213-2.588c.098-.577.23-1.136.398-1.678l-.956-.294a14.35 14.35 0 00-.428 1.803l.986.169zm1.015-3.283c.12-.26.25-.516.39-.767l-.876-.484c-.15.272-.29.548-.42.829l.906.422zm.385-.758c.135-.235.275-.463.42-.685l-.84-.545c-.153.237-.302.48-.446.728l.866.502zm1.363-1.978a13.16 13.16 0 011.083-1.172l-.691-.723c-.41.393-.799.813-1.166 1.261l.774.634zm2.3-2.199c.214-.158.432-.31.656-.454l-.544-.84c-.24.156-.476.319-.707.49l.596.804zm.651-.452c.217-.137.442-.271.673-.403l-.494-.87c-.245.14-.483.282-.714.429l.535.844zm2.076-1.123c.462-.215.948-.42 1.458-.617l-.359-.933a24.59 24.59 0 00-1.52.643l.42.907zm2.957-1.145c.25-.08.503-.158.762-.234l-.284-.96c-.266.079-.527.16-.784.243l.306.951zm.762-.234c.267-.079.532-.155.795-.227l-.264-.964c-.27.073-.541.151-.815.231l.284.96zm2.397-.628a33.16 33.16 0 011.616-.323l-.17-.985c-.546.094-1.101.205-1.666.333l.22.975zm3.244-.555c.275-.031.547-.057.816-.079l-.078-.996c-.28.022-.564.049-.85.081l.112.994zm.82-.079c.48-.041.97-.077 1.465-.108l-.061-.998a62 62 0 00-1.49.11l.086.996zm4.405-.224c.484-.009.975-.014 1.472-.014v-1c-.503 0-1 .005-1.491.014l.019 1zm1.472-.014c.27 0 .535.001.797.004l.01-1a71.369 71.369 0 00-.807-.004v1zm2.388.037c.549.018 1.078.042 1.587.073l.06-.998a59.028 59.028 0 00-1.615-.074l-.032.999zm3.167.196c.27.026.531.054.787.084l.116-.994a50.63 50.63 0 00-.807-.086l-.096.996zm.801.085c.247.022.5.048.755.078l.117-.993a28.992 28.992 0 00-.784-.081l-.088.996zm2.263.293c.486.082.986.176 1.5.284l.205-.979a39.51 39.51 0 00-1.54-.291l-.165.986zm2.992.624c.244.06.492.123.742.189l.254-.968a45.086 45.086 0 00-.758-.192l-.238.971zm.729.185c.277.081.548.163.814.248l.303-.953a36.93 36.93 0 00-.837-.255l-.28.96zm2.418.805c.549.209 1.069.426 1.56.653l.42-.908a25.556 25.556 0 00-1.625-.68l-.355.935zm3.056 1.421c.248.142.486.287.715.434l.542-.84a16.185 16.185 0 00-.76-.462l-.497.868zm.715.434c.206.133.408.273.606.421l.597-.803c-.216-.16-.436-.313-.661-.458l-.542.84zm1.731 1.378c.35.337.683.702 1.001 1.093l.776-.631a13.37 13.37 0 00-1.081-1.181l-.696.719zm1.876 2.297c.134.207.265.419.392.637l.864-.504a16.295 16.295 0 00-.417-.677l-.839.544zm.394.641c.15.253.291.513.421.78l.899-.439a11.713 11.713 0 00-.46-.853l-.86.512zm1.073 2.433c.17.554.307 1.134.407 1.74l.986-.163a14.152 14.152 0 00-.438-1.872l-.955.295zm.595 3.528c.015.295.022.597.022.903h1c0-.322-.008-.64-.023-.953l-1 .05zm.022.903v.947h1v-.947h-1zm0 2.84v1.893h1v-1.893h-1zm0 3.787v1.893h1v-1.893h-1zm0 3.786v1.894h1v-1.894h-1zm0 3.787v1.893h1v-1.893h-1zm0 3.787v1.893h1v-1.893h-1zm0 3.786v.947h1v-.947h-1zm0 .947c0 .325-.01.645-.03.959l.997.064c.022-.336.033-.677.033-1.023h-1zm-.29 2.849a11.402 11.402 0 01-.548 1.817l.929.369c.251-.633.45-1.292.597-1.976l-.977-.21zm-1.398 3.508c-.166.268-.343.529-.533.785l.802.596c.207-.278.4-.563.581-.855l-.85-.526zm-.538.791c-.186.259-.38.509-.585.752l.764.645c.221-.263.432-.534.633-.813l-.812-.584zm-1.923 2.105c-.474.41-.984.79-1.532 1.139l.538.843a13.996 13.996 0 001.648-1.226l-.654-.756zm-3.213 2.06c-.287.134-.581.262-.884.383l.372.928c.32-.128.632-.263.936-.405l-.424-.906zm-.884.383c-.314.125-.63.247-.95.364l.345.939c.328-.121.654-.246.977-.375l-.372-.928zm-2.88 1.013c-.645.198-1.3.379-1.964.544l.242.971a40.39 40.39 0 002.014-.558l-.292-.957zm-3.954.986a41.31 41.31 0 01-2.011.344l.145.99c.695-.102 1.381-.22 2.058-.352l-.192-.982zm-4.037.595c-.67.068-1.35.122-2.037.162l.058.998a49.59 49.59 0 002.08-.165l-.102-.995zm-4.08.24c-.34.007-.68.01-1.023.01v1c.35 0 .696-.003 1.042-.01l-.02-1zm-.863-8.87c-.384 0-.756-.003-1.114-.008l-.014 1c.363.005.74.008 1.128.008v-1zm-3.334-.081c-.39-.021-.758-.047-1.103-.077l-.086.996c.356.031.734.058 1.133.08l.056-.999zm-1.078-.074c-.3-.041-.603-.089-.91-.144l-.177.984c.32.057.638.108.951.15l.136-.99zm-2.715-.54a26.434 26.434 0 01-.893-.245l-.28.96c.31.091.619.175.924.254l.25-.969zm-.898-.246a7.697 7.697 0 01-.802-.272l-.375.927c.287.116.59.219.907.307l.27-.962zm-2.22-1.102a4.2 4.2 0 01-.567-.572l-.776.63c.208.257.443.494.701.71l.641-.768zm-.558-.561a4.27 4.27 0 01-.425-.678l-.893.448c.148.296.323.575.524.838l.794-.608zm-.885-2.227a6.43 6.43 0 01-.052-.829h-1c0 .329.02.649.06.958l.992-.129zm-.052-.829v-.95h-1v.95h1zm0-2.85v-1.9h-1v1.9h1zm0-3.8v-1.9h-1v1.9h1zm0-3.8v-1.9h-1v1.9h1zm0-3.8v-1.9h-1v1.9h1zm0-3.8v-1.9h-1v1.9h1zm0-3.8v-.95h-1v.95h1zm0-.95c0-.261.011-.513.034-.754l-.996-.093a9.203 9.203 0 00-.038.847h1zm.337-2.199a4.54 4.54 0 01.676-1.27l-.796-.606a5.564 5.564 0 00-.824 1.546l.944.33zm1.72-2.26c.196-.135.406-.26.631-.376l-.456-.89a6.53 6.53 0 00-.744.445l.57.821zm.631-.376a8.674 8.674 0 011.02-.439l-.34-.941c-.407.147-.786.31-1.136.49l.456.89zm3.212-1.018a24.19 24.19 0 012.282-.306l-.089-.996c-.853.076-1.646.183-2.377.32l.184.982zm4.597-.433a48.73 48.73 0 011.163-.014v-1c-.406 0-.802.005-1.188.014l.025 1zm1.163-.014c.399 0 .787.005 1.165.015l.026-1a46.15 46.15 0 00-1.191-.015v1zm3.483.149c.827.078 1.587.186 2.282.324l.194-.981a23.645 23.645 0 00-2.382-.338l-.094.995zm4.468.932c.368.14.705.294 1.011.459l.476-.88a9.602 9.602 0 00-1.131-.514l-.356.935zm1.02.464c.224.115.433.239.626.372l.566-.825a6.719 6.719 0 00-.735-.437l-.457.89zm1.668 1.343c.286.368.513.783.68 1.246l.94-.338a5.475 5.475 0 00-.831-1.522l-.79.614zm.987 2.668c.022.238.034.486.034.744h1c0-.288-.013-.567-.039-.839l-.995.095zm.034.744v.95h1v-.95h-1zm0 2.85v1.9h1v-1.9h-1zm0 3.8v1.9h1v-1.9h-1zm0 3.8v1.9h1v-1.9h-1zm0 3.8v1.9h1v-1.9h-1zm0 3.8v1.9h1v-1.9h-1zm0 3.8v.95h1v-.95h-1zm0 .95c0 .289-.017.565-.052.829l.992.129c.04-.309.06-.629.06-.958h-1zm-.513 2.378c-.12.239-.261.465-.424.678l.794.608c.201-.263.376-.542.524-.838l-.894-.448zm-.427.682a3.864 3.864 0 01-.52.565l.664.747c.244-.217.463-.454.656-.712l-.8-.6zm-1.856 1.39c-.237.1-.492.191-.764.27l.28.96c.307-.09.599-.193.875-.31l-.391-.92zm-.764.27c-.305.089-.61.172-.911.249l.246.969c.313-.08.629-.166.945-.258l-.28-.96zm-2.754.643c-.312.054-.622.101-.93.141l.129.992c.322-.042.646-.091.971-.148l-.17-.985zm-.911.139c-.335.03-.695.057-1.081.078l.056.999c.396-.023.768-.049 1.115-.081l-.09-.996zm-3.261.151c-.35.005-.715.007-1.094.007v1c.383 0 .752-.003 1.108-.008l-.014-.999zm-9.254 8.827l-.154.988.004.001.15-.989zm-7.52-1.92l.328-.945-.007-.002-.321.947zm-6.64-4.64l-.807.591.007.009.8-.6zm-.72-37.52l-.865-.501-.006.009-.004.008.875.484zm4.48-4.8l-.535-.845-.008.005.543.84zm5.92-2.56l.283.959-.283-.959zm6.56-1.28l.079.997.006-.001-.085-.996zm12.32.08l-.117.993.015.002.014.001.088-.996zm6.08 1.12l.28-.96-.013-.004-.014-.003-.253.967zm6.32 2.72l.542-.84-.542.84zm4.16 4.48l-.864.504.004.007.86-.511zm-.56 37.28l-.802-.597-.006.007-.004.007.812.583zm-6.24 4.72l-.371-.928.37.928zM67 471.76l.09.996.02-.002.02-.002-.13-.992zm3.76-.8l-.28-.96.28.96zm2.88-1.84l-.794-.607-.006.007.8.6zm-1.92-31.36l-.476.88.01.005.01.005.456-.89zm-18.4-.08l-.457-.89.457.89zm-1.92 31.44l-.794.607.009.012.009.012.776-.631zm3.04 1.84l.28-.96-.01-.003-.27.963zm3.68.8l-.135.991.024.003.024.002.087-.996zm4.32 8.04c-.332 0-.662-.003-.988-.008l-.031 2c.337.005.676.008 1.019.008v-2zm-2.96-.07a52.12 52.12 0 01-1.965-.133l-.173 1.993c.667.057 1.347.103 2.04.137l.098-1.997zm-3.919-.342a45.49 45.49 0 01-.97-.137l-.302 1.978c.336.051.674.098 1.017.142l.255-1.983zm-.967-.136a36.35 36.35 0 01-.932-.158l-.36 1.968c.33.06.658.115.984.166l.308-1.976zm-2.786-.545a43.84 43.84 0 01-1.837-.474l-.543 1.925c.648.182 1.29.348 1.925.497l.456-1.948zm-3.657-1.028c-.3-.097-.6-.199-.903-.304l-.656 1.89c.314.109.627.214.939.316l.62-1.902zm-.91-.306a15.59 15.59 0 01-.906-.338l-.757 1.851c.332.136.672.263 1.02.381l.643-1.894zm-2.63-1.181a12.202 12.202 0 01-1.566-1.074l-1.258 1.555c.567.459 1.175.875 1.822 1.25l1.002-1.731zm-2.933-2.379a11.362 11.362 0 01-.598-.733l-1.6 1.2c.223.297.457.584.702.86l1.496-1.327zm-.591-.724c-.19-.26-.369-.527-.535-.802l-1.711 1.034c.196.325.407.642.632.95l1.614-1.182zm-1.38-2.532a11.838 11.838 0 01-.542-1.862l-1.96.404c.156.753.367 1.479.635 2.176l1.867-.718zm-.797-3.807a16.02 16.02 0 01-.03-.99h-2c0 .377.011.748.034 1.114l1.996-.124zm-.03-.99v-.947h-2v.947h2zm0-2.84v-1.893h-2v1.893h2zm0-3.787v-1.893h-2v1.893h2zm0-3.786v-1.894h-2v1.894h2zm0-3.787v-1.893h-2v1.893h2zm0-3.787v-1.893h-2v1.893h2zm0-3.786v-.947h-2v.947h2zm0-.947c0-.285.007-.565.022-.842l-1.997-.106a17.48 17.48 0 00-.025.948h2zm.205-2.504c.095-.556.223-1.094.384-1.615l-1.912-.588a14.776 14.776 0 00-.443 1.866l1.971.337zm.976-3.156c.116-.25.24-.495.374-.736l-1.75-.968c-.156.282-.301.568-.437.86l1.813.844zm.364-.719a15.3 15.3 0 01.407-.663l-1.678-1.089c-.158.244-.311.494-.46.75l1.731 1.002zm1.318-1.911c.329-.402.677-.778 1.042-1.128l-1.383-1.445a14.75 14.75 0 00-1.206 1.305l1.547 1.268zm2.211-2.115c.205-.151.415-.297.63-.435l-1.087-1.68c-.25.162-.495.331-.733.508l1.19 1.607zm.621-.43c.21-.133.427-.264.652-.391l-.988-1.739c-.252.143-.496.29-.734.44l1.07 1.69zm2.018-1.092c.452-.21.928-.411 1.428-.604l-.719-1.866c-.539.207-1.056.426-1.551.655l.842 1.815zm2.9-1.123c.246-.079.495-.156.75-.231l-.566-1.918c-.27.08-.536.162-.797.246l.614 1.903zm.75-.231c.264-.078.526-.153.786-.224l-.528-1.929c-.273.075-.548.153-.824.235l.566 1.918zm2.366-.619a32.347 32.347 0 011.591-.318l-.34-1.971c-.555.096-1.119.209-1.692.338l.441 1.951zm3.19-.546c.27-.031.536-.056.8-.077l-.158-1.994c-.286.023-.574.05-.866.083l.223 1.988zm.806-.078c.477-.041.962-.076 1.454-.106l-.123-1.997c-.508.032-1.008.068-1.502.111l.171 1.992zm4.372-.222c.482-.009.969-.014 1.463-.014v-2c-.506 0-1.007.005-1.5.014l.037 2zm1.463-.014c.268 0 .532.001.792.004l.02-2a72.274 72.274 0 00-.812-.004v2zm2.371.037c.545.018 1.07.042 1.574.072l.12-1.996a56.352 56.352 0 00-1.629-.075l-.065 1.999zm3.137.194c.265.025.523.053.775.082l.234-1.986c-.267-.031-.54-.061-.818-.087l-.191 1.991zm.804.085c.242.022.49.047.741.076l.233-1.986c-.27-.032-.536-.059-.798-.082l-.176 1.992zm2.224.288c.48.081.973.174 1.48.28l.41-1.957a38.304 38.304 0 00-1.56-.295l-.33 1.972zm2.955.617c.242.059.488.121.736.186l.506-1.934a45.845 45.845 0 00-.764-.195l-.478 1.943zm.709.179c.273.08.541.161.803.244l.606-1.906a37.453 37.453 0 00-.85-.258l-.56 1.92zm2.38.793c.54.204 1.048.418 1.529.639l.837-1.816a26.316 26.316 0 00-1.655-.693l-.71 1.87zm2.986 1.387c.24.138.47.278.692.42l1.084-1.68a17.446 17.446 0 00-.782-.476l-.994 1.736zm.692.42c.197.127.39.261.579.402l1.194-1.605a12.372 12.372 0 00-.689-.477l-1.084 1.68zm1.655 1.317c.334.323.654.673.96 1.049l1.552-1.261a13.964 13.964 0 00-1.122-1.226l-1.39 1.438zm1.804 2.211c.13.199.256.405.38.616l1.727-1.008a17.334 17.334 0 00-.43-.698l-1.677 1.09zm.383.623c.144.241.278.489.402.744l1.797-.877c-.148-.304-.308-.6-.48-.889l-1.719 1.022zm1.025 2.325c.164.531.295 1.089.391 1.674l1.974-.326a14.746 14.746 0 00-.454-1.938l-1.91.59zm.574 3.406c.014.287.02.58.02.878h2c0-.33-.007-.656-.023-.977l-1.998.099zm.02.878v.947h2v-.947h-2zm0 2.84v1.893h2v-1.893h-2zm0 3.787v1.893h2v-1.893h-2zm0 3.786v1.894h2v-1.894h-2zm0 3.787v1.893h2v-1.893h-2zm0 3.787v1.893h2v-1.893h-2zm0 3.786v.947h2v-.947h-2zm0 .947c0 .315-.009.624-.029.927l1.996.129c.023-.347.034-.699.034-1.056h-2zm-.277 2.744c-.13.605-.305 1.184-.525 1.737l1.859.738a12.84 12.84 0 00.621-2.055l-1.955-.42zm-1.336 3.35a10.6 10.6 0 01-.508.749l1.604 1.194c.216-.29.417-.587.606-.892l-1.702-1.051zm-.518.763a11.6 11.6 0 01-.561.72l1.528 1.29c.23-.272.449-.553.657-.844l-1.624-1.166zm-1.845 2.018c-.454.394-.945.759-1.472 1.095l1.075 1.687c.607-.387 1.176-.81 1.707-1.27l-1.31-1.512zm-3.097 1.985c-.278.13-.563.254-.857.372l.742 1.856c.329-.131.65-.27.963-.417l-.848-1.811zm-.857.372c-.31.123-.623.243-.938.359l.69 1.877c.333-.122.663-.249.99-.38l-.742-1.856zm-2.842.999c-.636.195-1.282.374-1.938.537l.483 1.941c.69-.172 1.37-.36 2.04-.565l-.585-1.913zm-3.903.974c-.654.128-1.316.241-1.988.34l.29 1.979a44.265 44.265 0 002.082-.357l-.385-1.962zm-3.992.587c-.663.067-1.335.121-2.015.161l.117 1.996a48.951 48.951 0 002.1-.167l-.202-1.99zm-4.039.238c-.335.007-.673.01-1.013.01v2c.352 0 .703-.003 1.051-.01l-.038-2zm-.853-8.87c-.382 0-.751-.003-1.107-.008l-.028 2c.366.005.744.008 1.135.008v-2zm-3.307-.08a35.289 35.289 0 01-1.086-.076l-.174 1.992c.363.032.746.059 1.15.081l.11-1.997zm-1.038-.071a21.75 21.75 0 01-.889-.141l-.354 1.969c.328.059.652.11.973.154l.27-1.982zm-2.657-.528c-.29-.074-.582-.155-.878-.241l-.56 1.92c.316.092.63.178.94.258l.498-1.937zm-.888-.244a6.989 6.989 0 01-.75-.254l-.75 1.854c.305.124.626.232.96.326l.54-1.926zm-2.035-1.004a3.676 3.676 0 01-.499-.504l-1.552 1.262c.23.282.486.541.77.777l1.28-1.535zm-.48-.48a3.766 3.766 0 01-.376-.6l-1.787.897c.162.324.354.63.574.917l1.588-1.214zm-.788-1.989a5.913 5.913 0 01-.047-.764h-2c0 .349.021.691.064 1.023l1.983-.259zm-.047-.764v-.95h-2v.95h2zm0-2.85v-1.9h-2v1.9h2zm0-3.8v-1.9h-2v1.9h2zm0-3.8v-1.9h-2v1.9h2zm0-3.8v-1.9h-2v1.9h2zm0-3.8v-1.9h-2v1.9h2zm0-3.8v-.95h-2v.95h2zm0-.95c0-.247.01-.483.032-.708l-1.992-.185a9.69 9.69 0 00-.04.893h2zm.309-2.034c.149-.427.35-.802.602-1.132l-1.592-1.212a6.069 6.069 0 00-.898 1.684l1.888.66zm1.533-2.014a5.02 5.02 0 01.575-.342l-.914-1.78a7.13 7.13 0 00-.8.479l1.14 1.643zm.575-.342c.287-.148.606-.286.96-.414l-.679-1.881c-.425.153-.824.325-1.195.515l.914 1.78zm3.075-.971a23.622 23.622 0 012.234-.3l-.177-1.992c-.867.078-1.676.186-2.425.326l.369 1.966zm4.517-.425c.373-.009.757-.014 1.15-.014v-2c-.409 0-.81.005-1.2.014l.05 2zm1.15-.014c.396 0 .78.005 1.153.015l.052-2c-.391-.01-.793-.015-1.204-.015v2zm3.437.147c.813.077 1.556.182 2.232.316l.388-1.962a24.266 24.266 0 00-2.433-.345l-.187 1.991zm4.337.901c.35.134.667.278.951.432l.951-1.76c-.37-.2-.767-.38-1.19-.541l-.713 1.869zm.97.442c.206.105.396.218.571.339l1.132-1.649a7.302 7.302 0 00-.79-.47l-.913 1.78zm1.5 1.205c.254.325.455.692.605 1.108l1.882-.676a5.977 5.977 0 00-.908-1.66l-1.578 1.228zm.885 2.409c.021.221.032.453.032.696h2c0-.302-.014-.598-.041-.886l-1.991.19zm.032.696v.95h2v-.95h-2zm0 2.85v1.9h2v-1.9h-2zm0 3.8v1.9h2v-1.9h-2zm0 3.8v1.9h2v-1.9h-2zm0 3.8v1.9h2v-1.9h-2zm0 3.8v1.9h2v-1.9h-2zm0 3.8v.95h2v-.95h-2zm0 .95c0 .269-.016.524-.048.764l1.984.259a7.97 7.97 0 00.064-1.023h-2zm-.46 2.153a3.773 3.773 0 01-.374.6l1.588 1.214c.22-.287.412-.593.574-.917l-1.787-.897zm-.38.607a3.38 3.38 0 01-.453.492l1.33 1.493c.268-.238.51-.5.723-.785l-1.6-1.2zm-1.651 1.229a6.227 6.227 0 01-.71.251l.56 1.92c.325-.095.635-.204.931-.33l-.781-1.841zm-.71.251c-.299.087-.597.169-.893.244l.492 1.938c.32-.081.64-.168.962-.262l-.56-1.92zm-2.699.63c-.305.053-.608.099-.91.138l.26 1.984c.329-.043.66-.094.992-.151l-.342-1.971zm-.87.134c-.329.03-.683.056-1.064.077l.112 1.997c.4-.023.778-.05 1.133-.082l-.182-1.992zm-3.223.149c-.348.005-.71.007-1.087.007v2c.385 0 .757-.003 1.115-.008l-.028-1.999zM47.163 510.08v-.5h-.5v.5h.5zm34.64 0h.5v-.5h-.5v.5zm0 8.88v.5h.5v-.5h-.5zm-22.16 0v-.5h-.5v.5h.5zm0 43.04v.5h.5v-.5h-.5zm-12.48 0h-.5v.5h.5v-.5zm-.5-51.92v.998h1v-.998h-1zm0 2.995v1.997h1v-1.997h-1zm0 3.994v1.997h1v-1.997h-1zm0 3.994v1.997h1v-1.997h-1zm0 3.994v1.997h1v-1.997h-1zm0 3.994v1.997h1v-1.997h-1zm0 3.994v1.997h1v-1.997h-1zm0 3.993v1.997h1v-1.997h-1zm0 3.994v1.997h1v-1.997h-1zm0 3.994v1.997h1v-1.997h-1zm0 3.994v1.997h1v-1.997h-1zm0 3.994v1.997h1v-1.997h-1zm0 3.994v1.997h1v-1.997h-1zm0 3.994V562h1v-.998h-1zm.5 1.498h1.04v-1h-1.04v1zm3.12 0h2.08v-1h-2.08v1zm4.16 0h2.08v-1h-2.08v1zm4.16 0h1.04v-1h-1.04v1zm1.54-.5v-.978h-1V562h1zm0-2.935v-1.956h-1v1.956h1zm0-3.912v-1.957h-1v1.957h1zm0-3.913v-1.956h-1v1.956h1zm0-3.913v-1.956h-1v1.956h1zm0-3.912v-1.957h-1v1.957h1zm0-3.913v-1.957h-1v1.957h1zm0-3.913v-1.956h-1v1.956h1zm0-3.913v-1.956h-1v1.956h1zm0-3.912v-1.957h-1v1.957h1zm0-3.913v-1.956h-1v1.956h1zm0-3.913v-.978h-1v.978h1zm-.5-.478h.923v-1h-.923v1zm2.77 0h1.847v-1h-1.847v1zm3.693 0h1.847v-1h-1.847v1zm3.694 0h1.846v-1H69.8v1zm3.693 0h1.847v-1h-1.847v1zm3.693 0h1.847v-1h-1.847v1zm3.694 0h.923v-1h-.923v1zm1.423-.5v-1.11h-1v1.11h1zm0-3.33v-2.22h-1v2.22h1zm0-4.44v-1.11h-1v1.11h1zm-.5-1.61h-.962v1h.962v-1zm-2.887 0h-1.924v1h1.924v-1zm-3.849 0h-1.924v1h1.924v-1zm-3.848 0h-1.925v1h1.925v-1zm-3.85 0h-1.924v1h1.925v-1zm-3.848 0h-1.925v1h1.925v-1zm-3.85 0h-1.924v1h1.925v-1zm-3.848 0h-1.925v1h1.925v-1zm-3.849 0H50.05v1h1.924v-1zm-3.849 0h-.962v1h.962v-1zm-.962.5v-1h-1v1h1zm34.64 0h1v-1h-1v1zm0 8.88v1h1v-1h-1zm-22.16 0v-1h-1v1h1zm0 43.04v1h1v-1h-1zm-12.48 0h-1v1h1v-1zm-1-51.92v.998h2v-.998h-2zm0 2.995v1.997h2v-1.997h-2zm0 3.994v1.997h2v-1.997h-2zm0 3.994v1.997h2v-1.997h-2zm0 3.994v1.997h2v-1.997h-2zm0 3.994v1.997h2v-1.997h-2zm0 3.994v1.997h2v-1.997h-2zm0 3.993v1.997h2v-1.997h-2zm0 3.994v1.997h2v-1.997h-2zm0 3.994v1.997h2v-1.997h-2zm0 3.994v1.997h2v-1.997h-2zm0 3.994v1.997h2v-1.997h-2zm0 3.994v1.997h2v-1.997h-2zm0 3.994V562h2v-.998h-2zm1 1.998h1.04v-2h-1.04v2zm3.12 0h2.08v-2h-2.08v2zm4.16 0h2.08v-2h-2.08v2zm4.16 0h1.04v-2h-1.04v2zm2.04-1v-.978h-2V562h2zm0-2.935v-1.956h-2v1.956h2zm0-3.912v-1.957h-2v1.957h2zm0-3.913v-1.956h-2v1.956h2zm0-3.913v-1.956h-2v1.956h2zm0-3.912v-1.957h-2v1.957h2zm0-3.913v-1.957h-2v1.957h2zm0-3.913v-1.956h-2v1.956h2zm0-3.913v-1.956h-2v1.956h2zm0-3.912v-1.957h-2v1.957h2zm0-3.913v-1.956h-2v1.956h2zm0-3.913v-.978h-2v.978h2zm-1 .022h.923v-2h-.923v2zm2.77 0h1.847v-2h-1.847v2zm3.693 0h1.847v-2h-1.847v2zm3.694 0h1.846v-2H69.8v2zm3.693 0h1.847v-2h-1.847v2zm3.693 0h1.847v-2h-1.847v2zm3.694 0h.923v-2h-.923v2zm1.923-1v-1.11h-2v1.11h2zm0-3.33v-2.22h-2v2.22h2zm0-4.44v-1.11h-2v1.11h2zm-1-2.11h-.962v2h.962v-2zm-2.887 0h-1.924v2h1.924v-2zm-3.849 0h-1.924v2h1.924v-2zm-3.848 0h-1.925v2h1.925v-2zm-3.85 0h-1.924v2h1.925v-2zm-3.848 0h-1.925v2h1.925v-2zm-3.85 0h-1.924v2h1.925v-2zm-3.848 0h-1.925v2h1.925v-2zm-3.849 0H50.05v2h1.924v-2zm-3.849 0h-.962v2h.962v-2zm6.314 135.16l-.077.494h.002l.075-.494zm-7.52-1.92l.164-.472-.003-.001-.161.473zm-6.64-4.64l-.404.295.004.005.4-.3zm-.72-37.52l-.433-.251-.005.009.438.242zm4.48-4.8l-.268-.422-.004.002.272.42zm5.92-2.56l.142.479-.142-.479zm6.56-1.28l.04.498h.003l-.043-.498zm12.32.08l-.058.497h.007l.007.001.044-.498zm6.08 1.12l.14-.48-.013-.004-.127.484zm6.32 2.72l.271-.42-.271.42zm4.16 4.48l-.432.252.002.004.43-.256zm-.56 37.28l-.401-.298-.005.006.406.292zm-6.24 4.72l-.186-.464.186.464zm-11.6-6.16l.045.498.01-.001.01-.001-.065-.496zm3.76-.8l-.14-.48.14.48zm2.88-1.84l-.397-.304-.003.004.4.3zm-1.92-31.36l-.238.44.01.005.228-.445zm-18.4-.08l-.229-.445.229.445zm-1.92 31.44l-.397.304.004.006.005.005.388-.315zm3.04 1.84l.14-.48-.005-.001-.135.481zm3.68.8l-.068.495.012.002.013.001.043-.498zm4.32 8.54c-.335 0-.667-.003-.996-.008l-.015 1c.334.005.671.008 1.01.008v-1zm-2.985-.071a53.19 53.19 0 01-1.983-.134l-.086.997c.66.057 1.334.102 2.02.136l.05-.999zm-3.958-.345a46.77 46.77 0 01-.982-.138l-.15.988c.33.051.666.098 1.005.141l.127-.991zm-.98-.138a37.143 37.143 0 01-.945-.16l-.18.984c.326.059.65.114.971.164l.154-.988zm-2.822-.552a41.748 41.748 0 01-1.86-.48l-.271.962c.64.181 1.275.345 1.902.492l.228-.974zm-3.7-1.04a46.74 46.74 0 01-.911-.306l-.328.944c.311.108.621.213.93.313l.31-.951zm-.914-.307c-.32-.109-.632-.226-.935-.35l-.379.926c.323.132.653.255.992.37l.322-.946zm-2.72-1.222a12.728 12.728 0 01-1.63-1.118l-.63.777c.547.442 1.133.844 1.758 1.206l.502-.865zm-3.057-2.48a12.271 12.271 0 01-.624-.765l-.8.6c.215.286.44.562.676.828l.748-.663zm-.62-.76c-.2-.273-.386-.552-.56-.839l-.855.517c.188.312.39.616.607.912l.807-.59zm-1.444-2.648a12.36 12.36 0 01-.565-1.941l-.98.202c.15.728.354 1.427.612 2.097l.933-.358zm-.83-3.956c-.02-.334-.03-.674-.03-1.021h-1c0 .367.01.728.033 1.083l.998-.062zm-.03-1.021v-.947h-1v.947h1zm0-2.84v-1.893h-1v1.893h1zm0-3.787v-1.893h-1v1.893h1zm0-3.786v-1.894h-1v1.894h1zm0-3.787v-1.893h-1v1.893h1zm0-3.787v-1.893h-1v1.893h1zm0-3.786v-.947h-1v.947h1zm0-.947c0-.293.008-.583.023-.868l-.999-.053c-.016.303-.024.61-.024.921h1zm.213-2.588c.098-.577.23-1.136.398-1.678l-.956-.294a14.35 14.35 0 00-.428 1.803l.986.169zm1.015-3.283c.12-.26.25-.516.39-.767l-.876-.484c-.15.272-.29.548-.42.829l.906.422zm.385-.758c.135-.235.275-.463.42-.685l-.84-.545c-.153.237-.302.48-.446.728l.866.502zm1.363-1.978a13.16 13.16 0 011.083-1.172l-.691-.723c-.41.393-.799.813-1.166 1.261l.774.634zm2.3-2.199c.214-.158.432-.31.656-.454l-.544-.84c-.24.156-.476.319-.707.49l.596.804zm.651-.452c.217-.137.442-.271.673-.403l-.494-.87c-.245.14-.483.282-.714.429l.535.844zm2.076-1.123c.462-.215.948-.42 1.458-.617l-.359-.933a24.59 24.59 0 00-1.52.643l.42.907zm2.957-1.145c.25-.08.503-.158.762-.235l-.284-.959c-.266.079-.527.16-.784.243l.306.951zm.762-.235c.267-.078.532-.154.795-.226l-.264-.964c-.27.073-.541.151-.815.231l.284.959zm2.397-.627a33.16 33.16 0 011.616-.323l-.17-.985c-.546.094-1.101.205-1.666.333l.22.975zm3.244-.555c.275-.031.547-.057.816-.079l-.078-.996c-.28.022-.564.049-.85.081l.112.994zm.82-.079c.48-.041.97-.077 1.465-.108l-.061-.998a62 62 0 00-1.49.11l.086.996zm4.405-.224c.484-.009.975-.014 1.472-.014v-1c-.503 0-1 .005-1.491.014l.019 1zm1.472-.014c.27 0 .535.001.797.004l.01-1a71.369 71.369 0 00-.807-.004v1zm2.388.037c.549.018 1.078.042 1.587.073l.06-.998a59.028 59.028 0 00-1.615-.074l-.032.999zm3.167.196c.27.026.531.054.787.084l.116-.994a50.63 50.63 0 00-.807-.086l-.096.996zm.801.085c.247.022.5.048.755.078l.117-.993a28.992 28.992 0 00-.784-.081l-.088.996zm2.263.293c.486.082.986.176 1.5.284l.205-.979a39.51 39.51 0 00-1.54-.291l-.165.986zm2.992.624c.244.06.492.123.742.189l.254-.968a45.086 45.086 0 00-.758-.192l-.238.971zm.729.185c.277.081.548.163.814.248l.303-.953a36.93 36.93 0 00-.837-.255l-.28.96zm2.418.805c.549.209 1.069.426 1.56.653l.42-.908a25.556 25.556 0 00-1.625-.68l-.355.935zm3.056 1.421c.248.142.486.287.715.434l.542-.84a16.185 16.185 0 00-.76-.462l-.497.868zm.715.434c.206.133.408.273.606.421l.597-.803c-.216-.16-.436-.313-.661-.458l-.542.84zm1.731 1.378c.35.337.683.702 1.001 1.093l.776-.631a13.37 13.37 0 00-1.081-1.181l-.696.719zm1.876 2.297c.134.207.265.419.392.637l.864-.504a16.295 16.295 0 00-.417-.677l-.839.544zm.394.641c.15.253.291.513.421.78l.899-.439a11.713 11.713 0 00-.46-.853l-.86.512zm1.073 2.433c.17.554.307 1.134.407 1.74l.986-.163a14.152 14.152 0 00-.438-1.872l-.955.295zm.595 3.528c.015.295.022.597.022.903h1c0-.322-.008-.64-.023-.953l-1 .05zm.022.903v.947h1v-.947h-1zm0 2.84v1.893h1v-1.893h-1zm0 3.787v1.893h1v-1.893h-1zm0 3.786v1.894h1v-1.894h-1zm0 3.787v1.893h1v-1.893h-1zm0 3.787v1.893h1v-1.893h-1zm0 3.786v.947h1v-.947h-1zm0 .947c0 .325-.01.645-.03.959l.997.064c.022-.336.033-.677.033-1.023h-1zm-.29 2.849a11.402 11.402 0 01-.548 1.817l.929.369c.251-.633.45-1.292.597-1.976l-.977-.21zm-1.398 3.508c-.166.268-.343.529-.533.785l.802.596c.207-.278.4-.563.581-.855l-.85-.526zm-.538.791c-.186.259-.38.509-.585.752l.764.645c.221-.263.432-.534.633-.813l-.812-.584zm-1.923 2.105c-.474.41-.984.79-1.532 1.139l.538.843a13.996 13.996 0 001.648-1.226l-.654-.756zm-3.213 2.06c-.287.134-.581.262-.884.383l.372.928c.32-.128.632-.263.936-.405l-.424-.906zm-.884.383c-.314.125-.63.247-.95.364l.345.939c.328-.121.654-.246.977-.375l-.372-.928zm-2.88 1.013c-.645.198-1.3.379-1.964.544l.242.971a40.39 40.39 0 002.014-.558l-.292-.957zm-3.954.986a41.31 41.31 0 01-2.011.344l.145.99c.695-.102 1.381-.22 2.058-.352l-.192-.982zm-4.037.595c-.67.068-1.35.122-2.037.162l.058.998a49.59 49.59 0 002.08-.165l-.102-.995zm-4.08.24c-.34.007-.68.01-1.023.01v1c.35 0 .696-.003 1.042-.01l-.02-1zm-.863-8.87c-.384 0-.756-.003-1.114-.008l-.014 1c.363.005.74.008 1.128.008v-1zm-3.334-.081c-.39-.021-.758-.047-1.103-.077l-.086.996c.356.031.734.058 1.133.08l.056-.999zm-1.078-.074c-.3-.041-.603-.089-.91-.144l-.177.984c.32.057.638.108.951.15l.136-.99zm-2.715-.54a29.02 29.02 0 01-.893-.245l-.28.96c.31.091.619.175.924.254l.25-.969zm-.898-.246a7.697 7.697 0 01-.802-.272l-.375.927c.287.116.59.218.907.307l.27-.962zm-2.22-1.102a4.2 4.2 0 01-.567-.572l-.776.63c.208.257.443.494.701.71l.641-.768zm-.558-.561a4.27 4.27 0 01-.425-.678l-.893.448c.148.296.323.575.524.838l.794-.608zm-.885-2.227a6.43 6.43 0 01-.052-.829h-1c0 .329.02.649.06.958l.992-.129zm-.052-.829v-.95h-1v.95h1zm0-2.85v-1.9h-1v1.9h1zm0-3.8v-1.9h-1v1.9h1zm0-3.8v-1.9h-1v1.9h1zm0-3.8v-1.9h-1v1.9h1zm0-3.8v-1.9h-1v1.9h1zm0-3.8v-.95h-1v.95h1zm0-.95c0-.261.011-.513.034-.754l-.996-.093a9.203 9.203 0 00-.038.847h1zm.337-2.199a4.54 4.54 0 01.676-1.27l-.796-.606a5.564 5.564 0 00-.824 1.546l.944.33zm1.72-2.26c.196-.135.406-.26.631-.376l-.456-.89a6.53 6.53 0 00-.744.445l.57.821zm.631-.376a8.674 8.674 0 011.02-.439l-.34-.941c-.407.147-.786.31-1.136.49l.456.89zm3.212-1.018a24.19 24.19 0 012.282-.306l-.089-.996c-.853.076-1.646.183-2.377.32l.184.982zm4.597-.433a48.73 48.73 0 011.163-.014v-1c-.406 0-.802.005-1.188.014l.025 1zm1.163-.014c.399 0 .787.005 1.165.015l.026-1a46.15 46.15 0 00-1.191-.015v1zm3.483.149c.827.078 1.587.186 2.282.324l.194-.981a23.645 23.645 0 00-2.382-.338l-.094.995zm4.468.932c.368.14.705.294 1.011.459l.476-.88a9.602 9.602 0 00-1.131-.514l-.356.935zm1.02.464c.224.115.433.239.626.372l.566-.825a6.719 6.719 0 00-.735-.437l-.457.89zm1.668 1.343c.286.368.513.783.68 1.246l.94-.338a5.475 5.475 0 00-.831-1.522l-.79.614zm.987 2.668c.022.238.034.486.034.744h1c0-.288-.013-.567-.039-.839l-.995.095zm.034.744v.95h1v-.95h-1zm0 2.85v1.9h1v-1.9h-1zm0 3.8v1.9h1v-1.9h-1zm0 3.8v1.9h1v-1.9h-1zm0 3.8v1.9h1v-1.9h-1zm0 3.8v1.9h1v-1.9h-1zm0 3.8v.95h1v-.95h-1zm0 .95c0 .289-.017.565-.052.829l.992.129c.04-.309.06-.629.06-.958h-1zm-.513 2.378c-.12.239-.261.465-.424.678l.794.608c.201-.263.376-.542.524-.838l-.894-.448zm-.427.682a3.864 3.864 0 01-.52.565l.664.747c.244-.217.463-.454.656-.712l-.8-.6zm-1.856 1.39c-.237.1-.492.191-.764.27l.28.96a7.84 7.84 0 00.875-.31l-.391-.92zm-.764.27c-.305.089-.61.172-.911.249l.246.969c.313-.08.629-.166.945-.258l-.28-.96zm-2.754.643c-.312.054-.622.101-.93.141l.129.992c.322-.042.646-.091.971-.148l-.17-.985zm-.911.139c-.335.03-.695.057-1.081.078l.056.999c.396-.023.768-.049 1.115-.081l-.09-.996zm-3.261.151c-.35.005-.715.007-1.094.007v1c.383 0 .752-.003 1.108-.008l-.014-.999zm-9.254 8.827l-.154.988.004.001.15-.989zm-7.52-1.92l.328-.945-.007-.002-.321.947zm-6.64-4.64l-.807.591.007.009.8-.6zm-.72-37.52l-.865-.501-.006.009-.004.008.875.484zm4.48-4.8l-.535-.845-.008.005.543.84zm5.92-2.56l.283.959-.283-.959zm6.56-1.28l.079.997.006-.001-.085-.996zm12.32.08l-.117.993.015.002.014.001.088-.996zm6.08 1.12l.28-.96-.013-.004-.014-.003-.253.967zm6.32 2.72l.542-.84-.542.84zm4.16 4.48l-.864.504.004.007.86-.511zm-.56 37.28l-.802-.597-.006.007-.004.007.812.583zm-6.24 4.72l-.371-.928.37.928zm-11.6-6.16l.09.996.02-.002.02-.002-.13-.992zm3.76-.8l-.28-.96.28.96zm2.88-1.84l-.794-.607-.006.007.8.6zm-1.92-31.36l-.476.88.01.005.01.005.456-.89zm-18.4-.08l-.457-.89.457.89zm-1.92 31.44l-.794.607.009.012.009.012.776-.631zm3.04 1.84l.28-.96-.01-.003-.27.963zm3.68.8l-.135.991.024.003.024.002.087-.996zm4.32 8.04c-.332 0-.662-.003-.988-.008l-.031 2c.337.005.676.008 1.019.008v-2zm-2.96-.071a50.127 50.127 0 01-1.965-.132l-.173 1.993c.667.057 1.347.103 2.04.137l.098-1.998zm-3.919-.341a45.49 45.49 0 01-.97-.137l-.302 1.978c.336.051.674.098 1.017.142l.255-1.983zm-.967-.136a36.35 36.35 0 01-.932-.158l-.36 1.968c.33.06.658.115.984.166l.308-1.976zm-2.786-.545a43.84 43.84 0 01-1.837-.474l-.543 1.925c.648.182 1.29.348 1.925.497l.456-1.948zm-3.657-1.028c-.3-.098-.6-.199-.903-.304l-.656 1.89c.314.109.627.214.939.316l.62-1.902zm-.91-.306a15.59 15.59 0 01-.906-.338l-.757 1.851c.332.136.672.263 1.02.381l.643-1.894zm-2.63-1.181a12.202 12.202 0 01-1.566-1.074l-1.258 1.555c.567.458 1.175.875 1.822 1.25l1.002-1.731zm-2.933-2.379c-.209-.235-.408-.48-.598-.733l-1.6 1.2c.223.297.457.584.702.86l1.496-1.327zm-.591-.724c-.19-.26-.369-.527-.535-.802l-1.711 1.034c.196.325.407.642.632.95l1.614-1.182zm-1.38-2.532a11.838 11.838 0 01-.542-1.862l-1.96.404c.156.753.367 1.479.635 2.176l1.867-.718zm-.797-3.807a16.02 16.02 0 01-.03-.99h-2c0 .377.011.748.034 1.114l1.996-.124zm-.03-.99v-.947h-2v.947h2zm0-2.84v-1.893h-2v1.893h2zm0-3.787v-1.893h-2v1.893h2zm0-3.786v-1.894h-2v1.894h2zm0-3.787v-1.893h-2v1.893h2zm0-3.787v-1.893h-2v1.893h2zm0-3.786v-.947h-2v.947h2zm0-.947c0-.285.007-.565.022-.842l-1.997-.105a17.94 17.94 0 00-.025.947h2zm.205-2.504c.095-.556.223-1.094.384-1.615l-1.912-.588a14.776 14.776 0 00-.443 1.866l1.971.337zm.976-3.156c.116-.25.24-.495.374-.736l-1.75-.968c-.156.282-.301.568-.437.86l1.813.844zm.364-.719a15.3 15.3 0 01.407-.663l-1.678-1.089c-.158.244-.311.494-.46.75l1.731 1.002zm1.318-1.911c.329-.403.677-.778 1.042-1.128l-1.383-1.445a14.75 14.75 0 00-1.206 1.305l1.547 1.268zm2.211-2.115c.205-.151.415-.297.63-.435l-1.087-1.68c-.25.162-.495.331-.733.508l1.19 1.607zm.621-.43c.21-.133.427-.264.652-.391l-.988-1.739c-.252.143-.496.29-.734.44l1.07 1.69zm2.018-1.093c.452-.209.928-.41 1.428-.603l-.719-1.866c-.539.207-1.056.426-1.551.655l.842 1.814zm2.9-1.122c.246-.079.495-.156.75-.231l-.566-1.918c-.27.08-.536.162-.797.246l.614 1.903zm.75-.231c.264-.078.526-.153.786-.224l-.528-1.929c-.273.075-.548.153-.824.235l.566 1.918zm2.366-.619a32.347 32.347 0 011.591-.318l-.34-1.971c-.555.096-1.119.209-1.692.338l.441 1.951zm3.19-.546c.27-.031.536-.056.8-.077l-.158-1.994c-.286.023-.574.05-.866.083l.223 1.988zm.806-.078c.477-.041.962-.076 1.454-.106l-.123-1.997c-.508.032-1.008.068-1.502.111l.171 1.992zm4.372-.222c.482-.009.969-.014 1.463-.014v-2c-.506 0-1.007.005-1.5.014l.037 2zm1.463-.014c.268 0 .532.001.792.004l.02-2a72.274 72.274 0 00-.812-.004v2zm2.371.037c.545.018 1.07.042 1.574.072l.12-1.996a56.352 56.352 0 00-1.629-.075l-.065 1.999zm3.137.193c.265.026.523.054.775.083l.234-1.986c-.267-.031-.54-.061-.818-.087l-.191 1.99zm.804.086c.242.022.49.047.741.076l.233-1.986c-.27-.032-.536-.059-.798-.082l-.176 1.992zm2.224.288c.48.081.973.174 1.48.28l.41-1.957a38.304 38.304 0 00-1.56-.295l-.33 1.972zm2.955.617c.242.059.488.121.736.186l.506-1.934a45.845 45.845 0 00-.764-.195l-.478 1.943zm.709.179c.273.08.541.161.803.244l.606-1.906a37.453 37.453 0 00-.85-.258l-.56 1.92zm2.38.793c.54.204 1.048.418 1.529.639l.837-1.816a26.316 26.316 0 00-1.655-.693l-.71 1.87zm2.986 1.387c.24.138.47.278.692.42l1.084-1.68a17.446 17.446 0 00-.782-.476l-.994 1.736zm.692.42c.197.127.39.261.579.402l1.194-1.605a12.372 12.372 0 00-.689-.477l-1.084 1.68zm1.655 1.317c.334.323.654.673.96 1.049l1.552-1.261a13.964 13.964 0 00-1.122-1.226l-1.39 1.438zm1.804 2.211c.13.199.256.405.38.616l1.727-1.008a17.334 17.334 0 00-.43-.698l-1.677 1.09zm.383.623c.144.241.278.489.402.744l1.797-.877c-.148-.304-.308-.6-.48-.889l-1.719 1.022zm1.025 2.325c.164.531.295 1.089.391 1.674l1.974-.326a14.746 14.746 0 00-.454-1.938l-1.91.59zm.574 3.406c.014.287.02.58.02.878h2c0-.33-.007-.656-.023-.977l-1.998.099zm.02.878v.947h2v-.947h-2zm0 2.84v1.893h2v-1.893h-2zm0 3.787v1.893h2v-1.893h-2zm0 3.786v1.894h2v-1.894h-2zm0 3.787v1.893h2v-1.893h-2zm0 3.787v1.893h2v-1.893h-2zm0 3.786v.947h2v-.947h-2zm0 .947c0 .315-.009.624-.029.927l1.996.129c.023-.347.034-.699.034-1.056h-2zm-.277 2.744c-.13.605-.305 1.184-.525 1.737l1.859.738a12.84 12.84 0 00.621-2.055l-1.955-.42zm-1.336 3.35a10.6 10.6 0 01-.508.749l1.604 1.194c.216-.29.417-.587.606-.892l-1.702-1.051zm-.518.763a11.6 11.6 0 01-.561.72l1.528 1.29c.23-.272.449-.553.657-.844l-1.624-1.166zm-1.845 2.018c-.454.394-.945.759-1.472 1.095l1.075 1.687c.607-.387 1.176-.81 1.707-1.27l-1.31-1.512zm-3.097 1.985c-.278.13-.563.254-.857.372l.742 1.856c.329-.131.65-.27.963-.417l-.848-1.811zm-.857.372c-.31.123-.623.243-.938.359l.69 1.877c.333-.122.663-.249.99-.38l-.742-1.856zm-2.842.999c-.636.195-1.282.374-1.938.537l.483 1.941c.69-.172 1.37-.36 2.04-.565l-.585-1.913zm-3.903.974c-.654.128-1.316.241-1.988.34l.29 1.979a44.265 44.265 0 002.082-.357l-.385-1.962zm-3.992.587c-.663.068-1.335.121-2.015.161l.117 1.996a48.951 48.951 0 002.1-.167l-.202-1.99zm-4.039.239c-.335.006-.673.009-1.013.009v2c.352 0 .703-.003 1.051-.01l-.038-1.999zm-.853-8.871c-.382 0-.751-.003-1.107-.008l-.028 2c.366.005.744.008 1.135.008v-2zm-3.307-.08a35.289 35.289 0 01-1.086-.076l-.174 1.992c.363.032.746.059 1.15.081l.11-1.997zm-1.038-.071a21.75 21.75 0 01-.889-.141l-.354 1.969c.328.059.652.11.973.154l.27-1.982zm-2.657-.528c-.29-.074-.582-.155-.878-.241l-.56 1.92c.316.092.63.178.94.258l.498-1.937zm-.888-.244a6.989 6.989 0 01-.75-.254l-.75 1.854c.305.124.626.232.96.326l.54-1.926zm-2.035-1.004a3.676 3.676 0 01-.499-.504l-1.552 1.262c.23.282.486.541.77.778l1.28-1.536zm-.48-.48a3.766 3.766 0 01-.376-.6l-1.787.897c.162.324.354.63.574.917l1.588-1.214zm-.788-1.989a5.913 5.913 0 01-.047-.764h-2c0 .349.021.691.064 1.023l1.983-.259zm-.047-.764v-.95h-2v.95h2zm0-2.85v-1.9h-2v1.9h2zm0-3.8v-1.9h-2v1.9h2zm0-3.8v-1.9h-2v1.9h2zm0-3.8v-1.9h-2v1.9h2zm0-3.8v-1.9h-2v1.9h2zm0-3.8v-.95h-2v.95h2zm0-.95c0-.247.01-.483.032-.708l-1.992-.185a9.69 9.69 0 00-.04.893h2zm.309-2.034c.149-.427.35-.802.602-1.132l-1.592-1.212a6.069 6.069 0 00-.898 1.684l1.888.66zm1.533-2.014a5.02 5.02 0 01.575-.342l-.914-1.78a7.277 7.277 0 00-.8.478l1.14 1.644zm.575-.342c.287-.148.606-.286.96-.414l-.679-1.881c-.425.153-.824.325-1.195.515l.914 1.78zm3.075-.971a23.622 23.622 0 012.234-.3l-.177-1.992c-.867.078-1.676.186-2.425.326l.369 1.966zm4.517-.425c.373-.009.757-.014 1.15-.014v-2c-.409 0-.81.005-1.2.014l.05 2zm1.15-.014c.396 0 .78.005 1.153.015l.052-2c-.391-.01-.793-.015-1.204-.015v2zm3.437.147c.813.077 1.556.182 2.232.316l.388-1.962a24.266 24.266 0 00-2.433-.345l-.187 1.991zm4.337.901c.35.134.667.278.951.432l.951-1.76c-.37-.2-.767-.38-1.19-.541l-.713 1.869zm.97.442c.206.105.396.218.571.339l1.132-1.649a7.302 7.302 0 00-.79-.47l-.913 1.78zm1.5 1.205c.254.325.455.692.605 1.108l1.882-.676a5.977 5.977 0 00-.908-1.66l-1.578 1.228zm.885 2.409c.021.221.032.453.032.696h2c0-.302-.014-.598-.041-.886l-1.991.19zm.032.696v.95h2v-.95h-2zm0 2.85v1.9h2v-1.9h-2zm0 3.8v1.9h2v-1.9h-2zm0 3.8v1.9h2v-1.9h-2zm0 3.8v1.9h2v-1.9h-2zm0 3.8v1.9h2v-1.9h-2zm0 3.8v.95h2v-.95h-2zm0 .95c0 .269-.016.524-.048.764l1.984.259a7.97 7.97 0 00.064-1.023h-2zm-.46 2.153a3.773 3.773 0 01-.374.6l1.588 1.214c.22-.287.412-.593.574-.917l-1.787-.897zm-.38.607a3.38 3.38 0 01-.453.492l1.33 1.493c.268-.238.51-.5.723-.785l-1.6-1.2zm-1.651 1.229a6.227 6.227 0 01-.71.251l.56 1.92c.325-.095.635-.204.931-.33l-.781-1.841zm-.71.251c-.299.087-.597.169-.893.244l.492 1.938c.32-.081.64-.168.962-.262l-.56-1.92zm-2.699.63c-.305.053-.608.099-.91.138l.26 1.984c.329-.043.66-.094.992-.151l-.342-1.971zm-.87.134c-.329.03-.683.056-1.064.077l.112 1.997c.4-.023.778-.05 1.133-.082l-.182-1.992zm-3.223.149c-.348.005-.71.007-1.087.007v2c.385 0 .757-.003 1.115-.008l-.028-1.999z" fill="#77C2F9" fill-opacity=".9"/><path stroke="#69C0FF" stroke-opacity=".7" stroke-dasharray="2 2" d="M.5 18v626m123-626v626"/></svg>