<svg width="179" height="21" fill="none" xmlns="http://www.w3.org/2000/svg"><path d="M.1.53v-.5h-.5v.5h.5zm12.3.39l-.115.487h.002L12.4.92zm2.43 1.38l-.399.302.006.007.005.006.388-.315zm-.06 9.39l-.395-.307-.005.007.4.3zm-2.61 1.53l-.121-.485h-.002l.123.485zm-7.38.45v-.5h-.5v.5h.5zm0 6.33v.5h.5V20h-.5zM.1 20h-.5v.5h.5V20zm10.23-9.96l.244.436.007-.003.006-.004-.257-.429zm.03-5.88l-.2.459.008.003.192-.462zm-5.58-.3v-.5h-.5v.5h.5zm0 6.6h-.5v.5h.5v-.5zM-.4.53v.487h1V.53h-1zm0 1.46v.974h1V1.99h-1zm0 1.947v.974h1v-.974h-1zm0 1.947v.974h1v-.974h-1zm0 1.947v.974h1V7.83h-1zm0 1.947v.974h1v-.974h-1zm0 1.947v.974h1v-.974h-1zm0 1.947v.974h1v-.974h-1zm0 1.947v.974h1v-.974h-1zm0 1.947v.974h1v-.974h-1zm0 1.947V20h1v-.487h-1zm.5.987h.585v-1H.1v1zm1.755 0h1.17v-1h-1.17v1zm2.34 0h.585v-1h-.585v1zM5.28 20v-.527h-1V20h1zm0-1.582v-1.055h-1v1.055h1zm0-2.11v-1.056h-1v1.056h1zm0-2.11v-.528h-1v.527h1zm-.5-.028h.645v-1H4.78v1zm1.935 0h.645v-1h-.645v1zm.645 0c.208 0 .412-.002.612-.005l-.016-1a37.41 37.41 0 01-.596.005v1zm1.839-.047a22.93 22.93 0 001.23-.099l-.108-.994c-.366.04-.758.072-1.177.095l.055.998zm2.466-.281c.216-.042.422-.088.618-.137l-.246-.97a9.804 9.804 0 01-.561.125l.189.982zm.616-.137c.136-.034.268-.07.397-.11l-.292-.956a7.079 7.079 0 01-.347.096l.242.97zm1.178-.4c.27-.122.52-.26.749-.413l-.558-.83c-.178.12-.378.23-.601.33l.41.912zm1.422-.975c.104-.108.2-.222.289-.34l-.8-.6a2.68 2.68 0 01-.21.247l.721.693zm.284-.333c.093-.12.179-.245.258-.377l-.858-.514c-.059.098-.122.19-.19.277l.79.614zm.632-1.191c.092-.267.162-.55.213-.847l-.986-.168c-.042.25-.1.48-.173.69l.946.325zM16.1 9.11a8.65 8.65 0 00.01-.421h-1c0 .128-.003.252-.009.372l.999.049zm.01-.421v-.461h-1v.461h1zm0-1.384v-.922h-1v.922h1zm0-1.845V5h-1v.461h1zm0-.461c0-.267-.013-.523-.04-.769l-.994.107c.023.207.034.428.034.662h1zm-.45-2.308a3.476 3.476 0 00-.442-.707l-.776.63c.12.149.226.316.315.505l.904-.428zm-.431-.694a3.447 3.447 0 00-.58-.596l-.63.776c.16.13.297.272.412.424l.798-.604zM13.25.646a6.978 6.978 0 00-.738-.213l-.226.974c.227.053.437.113.632.182l.332-.943zm-.736-.213a10.67 10.67 0 00-.581-.12l-.176.985c.187.034.362.07.527.109l.23-.974zm-1.74-.277A23.168 23.168 0 009.622.07l-.05 1c.392.019.76.046 1.103.08l.1-.994zM8.473.034A39.538 39.538 0 007.9.03v1c.19 0 .377.001.559.004l.014-1zM7.9.03h-.488v1H7.9v-1zm-1.463 0h-.974v1h.974v-1zm-1.95 0h-.974v1h.974v-1zm-1.95 0h-.974v1h.975v-1zm-1.95 0H.1v1h.488v-1zM7.75 9.96h-.742v1h.742v-1zm-2.228 0H4.78v1h.742v-1zm-.242.5v-.55h-1v.55h1zm0-1.65v-1.1h-1v1.1h1zm0-2.2v-1.1h-1v1.1h1zm0-2.2v-.55h-1v.55h1zm-.5-.05h.728v-1H4.78v1zm2.183 0h.727v-1h-.728v1zm.727 0c.235 0 .455.003.66.01l.03-1c-.216-.007-.446-.01-.69-.01v1zm1.936.118c.25.042.423.092.535.14l.398-.917a3.355 3.355 0 00-.766-.209l-.167.986zm.542.144c.08.033.14.072.188.114l.665-.746a1.658 1.658 0 00-.469-.292l-.384.924zm.387.506c.016.083.025.18.025.292h1a2.59 2.59 0 00-.043-.48l-.982.188zm.025.292v.39h1v-.39h-1zm0 1.17v.78h1v-.78h-1zm0 1.56v.39h1v-.39h-1zm0 .39c0 .13-.01.245-.03.349l.985.179c.03-.17.045-.346.045-.528h-1zm-.278.887a.984.984 0 01-.23.184l.515.858c.17-.102.322-.224.453-.368l-.738-.674zm-.216.177a2.078 2.078 0 01-.494.183l.246.97c.274-.07.522-.161.736-.28l-.488-.873zm-1.701.341c-.198.01-.41.015-.635.015v1c.24 0 .468-.005.684-.016l-.05-.999zM.1.53v-1h-1v1h1zm12.3.39l-.23.973.004.001L12.4.92zm2.43 1.38l-.797.604.01.013.01.014.777-.631zm-.06 9.39l-.79-.614-.005.007-.005.007.8.6zm-2.61 1.53l-.242-.97h-.004l.246.97zm-7.38.45v-1h-1v1h1zm0 6.33v1h1v-1h-1zM.1 20h-1v1h1v-1zm10.23-9.96l.489.873.013-.008.012-.007-.514-.858zm.03-5.88l-.399.917.007.003.007.003.385-.923zm-5.58-.3v-1h-1v1h1zm0 6.6h-1v1h1v-1zM-.9.53v.487h2V.53h-2zm0 1.46v.974h2V1.99h-2zm0 1.947v.974h2v-.974h-2zm0 1.947v.974h2v-.974h-2zm0 1.947v.974h2V7.83h-2zm0 1.947v.974h2v-.974h-2zm0 1.947v.974h2v-.974h-2zm0 1.947v.974h2v-.974h-2zm0 1.947v.974h2v-.974h-2zm0 1.947v.974h2v-.974h-2zm0 1.947V20h2v-.487h-2zM.1 21h.585v-2H.1v2zm1.755 0h1.17v-2h-1.17v2zm2.34 0h.585v-2h-.585v2zm1.585-1v-.527h-2V20h2zm0-1.582v-1.055h-2v1.055h2zm0-2.11v-1.056h-2v1.056h2zm0-2.11v-.528h-2v.527h2zm-1 .472h.645v-2H4.78v2zm1.935 0h.645v-2h-.645v2zm.645 0c.21 0 .418-.002.62-.005l-.032-2c-.191.004-.387.005-.588.005v2zm1.866-.048c.442-.024.862-.058 1.258-.1l-.217-1.99c-.357.04-.74.07-1.15.093l.11 1.997zm2.533-.29c.225-.043.44-.09.647-.143l-.492-1.938a9.25 9.25 0 01-.533.118l.378 1.964zm.643-.142c.144-.036.284-.074.422-.116l-.584-1.913c-.103.031-.21.06-.322.089l.485 1.94zm1.263-.43c.292-.131.567-.282.822-.453l-1.115-1.66c-.154.102-.329.2-.528.29l.82 1.823zm1.577-1.084c.117-.122.227-.251.328-.386l-1.6-1.2a2.14 2.14 0 01-.171.201l1.443 1.385zm.317-.372c.106-.136.203-.278.292-.427l-1.715-1.028c-.049.08-.1.156-.155.227l1.578 1.228zm.711-1.337a5.92 5.92 0 00.233-.924l-1.972-.336a3.92 3.92 0 01-.153.612l1.892.648zm.33-1.832c.006-.146.01-.294.01-.445h-2c0 .12-.003.236-.008.348l1.997.097zm.01-.445v-.461h-2v.461h2zm0-1.384v-.922h-2v.922h2zm0-1.845V5h-2v.461h2zm0-.461c0-.283-.014-.557-.042-.822l-1.989.213c.02.188.031.39.031.609h2zm-.497-2.522a3.974 3.974 0 00-.507-.809l-1.552 1.262c.094.115.178.248.251.403l1.808-.856zm-.486-.782a3.952 3.952 0 00-.663-.682l-1.26 1.553c.13.106.239.218.329.337l1.594-1.208zM13.417.174a7.479 7.479 0 00-.79-.228l-.453 1.948c.21.049.403.105.579.167l.664-1.887zm-.787-.227a11.174 11.174 0 00-.609-.125l-.35 1.968c.178.032.344.067.499.103l.46-1.946zm-1.805-.289a23.671 23.671 0 00-1.178-.087l-.1 1.997c.385.02.744.047 1.078.08l.2-1.99zM8.48-.466C8.29-.469 8.097-.47 7.9-.47v2c.188 0 .372.001.551.004l.03-2zM7.9-.47h-.488v2H7.9v-2zm-1.463 0h-.974v2h.974v-2zm-1.95 0h-.974v2h.974v-2zm-1.95 0h-.974v2h.975v-2zm-1.95 0H.1v2h.488v-2zM7.75 9.46h-.742v2h.742v-2zm-2.228 0H4.78v2h.742v-2zm.258 1v-.55h-2v.55h2zm0-1.65v-1.1h-2v1.1h2zm0-2.2v-1.1h-2v1.1h2zm0-2.2v-.55h-2v.55h2zm-1 .45h.728v-2H4.78v2zm2.183 0h.727v-2h-.728v2zm.727 0c.23 0 .445.003.644.01l.062-2a22.76 22.76 0 00-.706-.01v2zm1.853.111c.23.039.358.08.418.106l.798-1.834a3.843 3.843 0 00-.883-.244l-.333 1.972zm.432.112a.17.17 0 01.048.027l1.33-1.494a2.158 2.158 0 00-.608-.38l-.77 1.847zm.089.14c.009.047.016.112.016.197h2c0-.193-.016-.385-.052-.573l-1.964.375zm.016.197v.39h2v-.39h-2zm0 1.17v.78h2v-.78h-2zm0 1.56v.39h2v-.39h-2zm0 .39c0 .103-.008.189-.021.259l1.968.359a3.44 3.44 0 00.053-.618h-2zm-.148.55a.51.51 0 01-.116.093l1.028 1.715c.21-.126.4-.278.566-.46L9.931 9.09zm-.09.077a1.573 1.573 0 01-.373.136l.492 1.938c.303-.076.595-.182.858-.329L9.84 9.168zm-1.482.279a11.6 11.6 0 01-.61.014v2c.247 0 .484-.005.709-.017L8.36 9.447zM20.409.53v-.5h-.5v.5h.5zm14.85 0h.5v-.5h-.5v.5zm0 3.33v.5h.5v-.5h-.5zm-10.17 0v-.5h-.5v.5h.5zm0 4.47h-.5v.5h.5v-.5zm9.18 0h.5v-.5h-.5v.5zm0 3.33v.5h.5v-.5h-.5zm-9.18 0v-.5h-.5v.5h.5zm0 5.01h-.5v.5h.5v-.5zm10.47 0h.5v-.5h-.5v.5zm0 3.33v.5h.5V20h-.5zm-15.15 0h-.5v.5h.5V20zm-.5-19.47v.487h1V.53h-1zm0 1.46v.974h1V1.99h-1zm0 1.947v.974h1v-.974h-1zm0 1.947v.974h1v-.974h-1zm0 1.947v.974h1V7.83h-1zm0 1.947v.974h1v-.974h-1zm0 1.947v.974h1v-.974h-1zm0 1.947v.974h1v-.974h-1zm0 1.947v.974h1v-.974h-1zm0 1.947v.974h1v-.974h-1zm0 1.947V20h1v-.487h-1zm.5.987h.473v-1h-.473v1zm1.42 0h.947v-1h-.947v1zm1.894 0h.947v-1h-.947v1zm1.893 0h.947v-1h-.947v1zm1.894 0h.947v-1h-.947v1zm1.894 0h.947v-1h-.947v1zm1.894 0h.947v-1h-.947v1zm1.893 0h.947v-1h-.947v1zm1.894 0h.474v-1h-.474v1zm.974-.5v-.416h-1V20h1zm0-1.249v-.832h-1v.832h1zm0-1.665v-.416h-1v.416h1zm-.5-.916h-.524v1h.524v-1zm-1.57 0H32.94v1h1.047v-1zm-2.095 0h-1.047v1h1.047v-1zm-2.094 0h-1.047v1H29.8v-1zm-2.094 0H26.66v1h1.047v-1zm-2.094 0h-.523v1h.523v-1zm-.023.5v-.418h-1v.418h1zm0-1.253v-.835h-1v.835h1zm0-1.67v-.835h-1v.835h1zm0-1.67v-.417h-1v.418h1zm-.5.083h.459v-1h-.46v1zm1.377 0h.918v-1h-.918v1zm1.836 0h.918v-1h-.918v1zm1.836 0h.918v-1h-.918v1zm1.836 0h.918v-1h-.918v1zm1.836 0h.459v-1h-.46v1zm.959-.5v-.416h-1v.416h1zm0-1.249V9.58h-1v.832h1zm0-1.665V8.33h-1v.416h1zm-.5-.916h-.46v1h.46v-1zm-1.377 0h-.918v1h.918v-1zm-1.836 0h-.918v1h.918v-1zm-1.836 0h-.918v1h.918v-1zm-1.836 0h-.918v1h.918v-1zm-1.836 0h-.46v1h.46v-1zm.04.5v-.559h-1v.559h1zm0-1.676V5.536h-1v1.118h1zm0-2.235V3.86h-1v.559h1zm-.5-.059h.51v-1h-.51v1zm1.526 0h1.017v-1h-1.017v1zm2.034 0h1.017v-1h-1.017v1zm2.034 0H31.7v-1h-1.017v1zm2.034 0h1.017v-1h-1.017v1zm2.034 0h.509v-1h-.509v1zm1.009-.5v-.416h-1v.416h1zm0-1.249V1.78h-1v.832h1zm0-1.665V.53h-1v.416h1zm-.5-.916h-.53v1h.53v-1zm-1.592 0h-1.06v1h1.06v-1zm-2.12 0h-1.062v1h1.061v-1zm-2.122 0h-1.061v1h1.06v-1zm-2.122 0h-1.06v1h1.06v-1zm-2.121 0h-1.06v1h1.06v-1zm-2.122 0H22v1h1.06v-1zm-2.121 0h-.53v1h.53v-1zm-.53.5v-1h-1v1h1zm14.85 0h1v-1h-1v1zm0 3.33v1h1v-1h-1zm-10.17 0v-1h-1v1h1zm0 4.47h-1v1h1v-1zm9.18 0h1v-1h-1v1zm0 3.33v1h1v-1h-1zm-9.18 0v-1h-1v1h1zm0 5.01h-1v1h1v-1zm10.47 0h1v-1h-1v1zm0 3.33v1h1v-1h-1zm-15.15 0h-1v1h1v-1zm-1-19.47v.487h2V.53h-2zm0 1.46v.974h2V1.99h-2zm0 1.947v.974h2v-.974h-2zm0 1.947v.974h2v-.974h-2zm0 1.947v.974h2V7.83h-2zm0 1.947v.974h2v-.974h-2zm0 1.947v.974h2v-.974h-2zm0 1.947v.974h2v-.974h-2zm0 1.947v.974h2v-.974h-2zm0 1.947v.974h2v-.974h-2zm0 1.947V20h2v-.487h-2zm1 1.487h.473v-2h-.473v2zm1.42 0h.947v-2h-.947v2zm1.894 0h.947v-2h-.947v2zm1.893 0h.947v-2h-.947v2zm1.894 0h.947v-2h-.947v2zm1.894 0h.947v-2h-.947v2zm1.894 0h.947v-2h-.947v2zm1.893 0h.947v-2h-.947v2zm1.894 0h.474v-2h-.474v2zm1.474-1v-.416h-2V20h2zm0-1.249v-.832h-2v.832h2zm0-1.665v-.416h-2v.416h2zm-1-1.416h-.524v2h.524v-2zm-1.57 0H32.94v2h1.047v-2zm-2.095 0h-1.047v2h1.047v-2zm-2.094 0h-1.047v2H29.8v-2zm-2.094 0H26.66v2h1.047v-2zm-2.094 0h-.523v2h.523v-2zm.477 1v-.418h-2v.418h2zm0-1.253v-.835h-2v.835h2zm0-1.67v-.835h-2v.835h2zm0-1.67v-.417h-2v.418h2zm-1 .583h.459v-2h-.46v2zm1.377 0h.918v-2h-.918v2zm1.836 0h.918v-2h-.918v2zm1.836 0h.918v-2h-.918v2zm1.836 0h.918v-2h-.918v2zm1.836 0h.459v-2h-.46v2zm1.459-1v-.416h-2v.416h2zm0-1.249V9.58h-2v.832h2zm0-1.665V8.33h-2v.416h2zm-1-1.416h-.46v2h.46v-2zm-1.377 0h-.918v2h.918v-2zm-1.836 0h-.918v2h.918v-2zm-1.836 0h-.918v2h.918v-2zm-1.836 0h-.918v2h.918v-2zm-1.836 0h-.46v2h.46v-2zm.54 1v-.559h-2v.559h2zm0-1.676V5.536h-2v1.118h2zm0-2.235V3.86h-2v.559h2zm-1 .441h.51v-2h-.51v2zm1.526 0h1.017v-2h-1.017v2zm2.034 0h1.017v-2h-1.017v2zm2.034 0H31.7v-2h-1.017v2zm2.034 0h1.017v-2h-1.017v2zm2.034 0h.509v-2h-.509v2zm1.509-1v-.416h-2v.416h2zm0-1.249V1.78h-2v.832h2zm0-1.665V.53h-2v.416h2zm-1-1.416h-.53v2h.53v-2zm-1.592 0h-1.06v2h1.06v-2zm-2.12 0h-1.062v2h1.061v-2zm-2.122 0h-1.061v2h1.06v-2zm-2.122 0h-1.06v2h1.06v-2zm-2.121 0h-1.06v2h1.06v-2zm-2.122 0H22v2h1.06v-2zm-2.121 0h-.53v2h.53v-2zm18.08 20.11h-.5v.404l.396.085.104-.489zm0-3.54l.112-.487-.612-.14v.627h.5zm3.45.69l-.077.494.011.002.066-.496zm6.09-.27l.23.444.012-.006-.242-.438zm-.06-4.59l-.144.479.005.001.14-.48zm-6.75-.27h-.5v.5h.5v-.5zm0-3.33v-.5h-.5v.5h.5zm5.85-.18l.132.482-.132-.482zm.9-.51l.404.294.007-.008.005-.009-.416-.277zm-.48-3.78l.192-.462-.192.462zm-8.61.57h-.5v.64l.62-.155-.12-.485zm0-3.51l-.093-.491-.407.076V.92h.5zm12.33.18l-.23.444.007.003.223-.447zm1.08 7.59l.362.345.008-.009-.37-.336zm-1.44.84l-.121-.485-.379.095v.39h.5zm0 .09h-.5v.377l.363.104.137-.481zm.69 9.54l.247.435.002-.001-.249-.434zm-5.94.64c-.148 0-.296 0-.442-.002l-.01 1 .452.002v-1zm-1.327-.019a41.66 41.66 0 01-.882-.035l-.05.999c.296.015.598.027.903.036l.03-1zm-1.763-.09a34.35 34.35 0 01-.878-.076l-.1.995c.297.03.598.056.904.079l.074-.998zm-1.753-.175c-.295-.038-.585-.08-.87-.125l-.157.988c.295.047.595.09.9.129l.127-.992zm-1.733-.277a23.856 23.856 0 01-.43-.088l-.208.978c.147.031.296.062.447.091l.19-.982zm-.034.401v-.442h-1v.442h1zm0-1.328v-.885h-1v.886h1zm0-1.77V16.1h-1v.442h1zm-.611.045l.431.098.218-.976a99.67 99.67 0 01-.426-.096l-.223.974zm1.297.286c.304.065.594.124.87.177l.19-.981c-.269-.053-.554-.11-.854-.174l-.206.978zm1.745.339c.153.026.3.05.442.072l.154-.988a27.756 27.756 0 01-.426-.07l-.17.986zm.453.074c.245.032.496.06.752.085l.093-.996c-.243-.023-.481-.05-.713-.08l-.132.99zm2.255.174c.246.007.497.01.751.01v-1c-.245 0-.486-.003-.723-.01l-.028 1zm.751.01c.14 0 .277-.001.41-.004l-.018-1a16.62 16.62 0 01-.392.004v1zm1.237-.039c.302-.02.581-.05.837-.09l-.15-.988a9.343 9.343 0 01-.757.08l.07.998zm1.697-.284c.16-.052.31-.112.446-.183l-.46-.888c-.078.04-.176.081-.295.12l.309.95zm.458-.19c.173-.095.33-.206.47-.336l-.68-.733a1.372 1.372 0 01-.273.194l.483.876zm1.066-1.37a2.52 2.52 0 00.062-.567h-1c0 .128-.013.24-.036.341l.974.226zm.062-.567v-.473h-1v.473h1zm0-1.418v-.472h-1v.472h1zm0-.472c0-.188-.022-.372-.073-.547l-.96.278a1 1 0 01.033.269h1zm-.796-1.471a2.148 2.148 0 00-.495-.21l-.278.961c.109.032.196.07.264.11l.509-.861zm-.49-.208a5.457 5.457 0 00-.782-.164l-.142.99c.258.037.47.082.636.132l.288-.958zm-2.284-.28a21.72 21.72 0 00-.74-.011v1c.251 0 .488.003.71.01l.03-1zm-.74-.011h-.484v1h.484v-1zm-1.451 0H43.2v1h.968v-1zm-1.935 0h-.484v1h.484v-1zm.016.5v-.416h-1v.416h1zm0-1.249V9.58h-1v.832h1zm0-1.665V8.33h-1v.416h1zm-.5.084h.484v-1h-.484v1zm1.451 0h.968v-1H43.2v1zm1.935 0h.484v-1h-.484v1zm.484 0c.18 0 .35-.002.514-.007l-.03-1c-.152.005-.314.007-.484.007v1zm1.561-.088c.2-.029.385-.064.55-.11l-.262-.964a3.45 3.45 0 01-.427.083l.14.99zm.55-.11c.102-.027.2-.058.292-.092l-.344-.939a2.6 2.6 0 01-.21.067l.263.964zm.89-.41c.107-.083.204-.178.284-.288l-.81-.588a.431.431 0 01-.085.085l.612.791zm.295-.305c.07-.104.127-.217.172-.336l-.936-.355a.676.676 0 01-.068.137l.832.554zm.312-.99c.008-.099.012-.201.012-.307h-1c0 .08-.003.154-.009.223l.997.085zm.012-.307v-.383h-1v.383h1zm0-1.147V5.09h-1v.383h1zm0-.383c0-.164-.014-.324-.044-.477l-.981.196c.016.08.025.173.025.281h1zm-.568-1.41a1.686 1.686 0 00-.46-.282l-.384.924a.69.69 0 01.189.113l.655-.756zm-.46-.282a3.538 3.538 0 00-.742-.202l-.172.985c.237.042.41.09.53.14l.384-.923zm-2.125-.327a18.17 18.17 0 00-.677-.011v1c.229 0 .443.003.644.01l.033-1zm-.677-.011c-.171 0-.345.003-.523.009l.034 1c.166-.006.33-.009.49-.009v-1zm-1.562.074c-.333.03-.675.069-1.028.117l.134.99c.34-.045.667-.083.984-.111l-.09-.996zM41.8 3.41c-.329.057-.665.121-1.01.193l.203.979a31.7 31.7 0 01.979-.187L41.8 3.41zm-2.012.414l-.498.12.24.971c.164-.04.327-.08.487-.117l-.229-.974zm.122.606v-.439h-1v.439h1zm0-1.316v-.878h-1v.878h1zm0-1.755V.92h-1v.439h1zm-.407.052c.188-.035.375-.07.56-.102L39.89.324c-.19.034-.382.068-.574.105l.186.982zm1.685-.284c.38-.056.756-.107 1.128-.151l-.118-.993c-.382.046-.767.097-1.157.155l.147.989zm2.259-.268c.382-.034.76-.061 1.133-.082l-.055-.998c-.384.021-.773.049-1.166.083l.088.997zm2.267-.124c.19-.003.379-.005.566-.005v-1c-.194 0-.39.002-.585.006l.018 1zM46.28.73c.155 0 .308.001.457.003l.015-1a31.671 31.671 0 00-.472-.003v1zm1.368.032c.317.016.618.038.904.066l.096-.996c-.303-.029-.62-.052-.95-.068l-.05.998zm1.796.177c.313.05.602.108.868.174l.242-.97a11.159 11.159 0 00-.954-.191l-.156.987zm1.688.434c.137.054.263.111.378.171l.46-.888a5.218 5.218 0 00-.467-.212l-.37.929zm.385.174c.119.06.23.124.331.193l.56-.829a3.943 3.943 0 00-.444-.258l-.447.894zm.873.693c.147.188.264.402.35.645l.943-.337a3.29 3.29 0 00-.505-.923l-.788.615zm.512 1.399c.012.127.018.261.018.401h1c0-.17-.007-.334-.023-.495l-.995.094zm.018.401v.39h1v-.39h-1zm0 1.17v.78h1v-.78h-1zm0 1.56v.39h1v-.39h-1zm0 .39c0 .115-.01.225-.029.33l.984.178c.03-.166.045-.336.045-.508h-1zm-.265.928c-.058.09-.126.178-.205.266l.74.672c.115-.126.218-.26.308-.4l-.843-.538zm-.197.257a2.64 2.64 0 01-.26.24l.623.781a3.6 3.6 0 00.361-.331l-.724-.69zm-.863.591c-.107.043-.219.08-.336.109l.242.97c.16-.04.317-.09.468-.151l-.374-.928zm-.715.594v.023h1V9.53h-1zm0 .068v.022h1v-.022h-1zm.363.503c.169.048.328.1.477.156l.349-.938a7.487 7.487 0 00-.551-.18l-.275.962zm1.344.583c.28.185.495.39.652.61l.814-.582a3.432 3.432 0 00-.916-.863l-.55.835zm.984 1.398c.026.14.04.289.04.448h1c0-.215-.02-.425-.057-.629l-.983.181zm.04.448v.394h1v-.394h-1zm0 1.181v.788h1v-.788h-1zm0 1.575v.394h1v-.394h-1zm0 .394c0 .165-.01.323-.026.475l.994.11c.02-.19.031-.386.031-.585h-1zm-.246 1.372a3.002 3.002 0 01-.462.782l.776.631c.257-.316.462-.663.614-1.04l-.928-.373zm-1.141 1.415a4.74 4.74 0 01-.403.26l.498.867c.172-.1.336-.204.49-.316l-.585-.81zm-.4.258a5.57 5.57 0 01-.416.212l.418.909c.17-.079.334-.162.49-.251l-.492-.87zm-1.306.546a9.836 9.836 0 01-.94.235l.197.98c.364-.073.71-.159 1.035-.258l-.292-.957zm-1.908.39c-.314.039-.642.07-.986.092l.066.998a17.89 17.89 0 001.043-.098l-.123-.992zm-1.98.134c-.164.003-.33.005-.5.005v1c.176 0 .349-.002.52-.005l-.02-1zm-7.61-.155h-1v.809l.791.169.21-.978zm0-3.54l.223-.975-1.223-.28V16.1h1zm3.45.69l-.154.988.011.002.011.001.132-.991zm6.09-.27l.46.888.012-.006.011-.006-.483-.876zm-.06-4.59l-.287.958.008.002.28-.96zm-6.75-.27h-1v1h1v-1zm0-3.33v-1h-1v1h1zm5.85-.18l.263.965-.263-.965zm.9-.51l.809.588.012-.016.011-.017-.832-.555zm-.48-3.78l.385-.923-.385.923zm-8.61.57h-1v1.278l1.24-.307-.24-.971zm0-3.51l-.185-.983-.815.154V.92h1zm12.33.18l-.46.888.007.003.006.003.447-.894zm1.08 7.59l.724.69.008-.009.008-.008-.74-.673zm-1.44.84l-.242-.97-.758.19v.78h1zm0 .09h-1v.754l.725.207.275-.961zm.69 9.54l.493.87.005-.003-.498-.867zm-5.94.14c-.147 0-.293 0-.438-.002l-.018 2 .456.002v-2zm-1.312-.019a40 40 0 01-.872-.034l-.101 1.997c.3.015.606.027.915.037l.058-2zm-1.741-.088a34.233 34.233 0 01-.865-.075l-.199 1.99c.3.03.606.056.916.08l.148-1.995zm-1.726-.173c-.29-.037-.576-.078-.855-.123l-.315 1.975c.3.048.605.092.916.132l.254-1.984zm-1.702-.272a23.566 23.566 0 01-.42-.086l-.418 1.956c.15.032.303.063.456.093l.382-1.963zm.371.892v-.442h-2v.442h2zm0-1.328v-.885h-2v.886h2zm0-1.77V16.1h-2v.442h2zm-1.223.533l.434.098.437-1.952c-.14-.03-.28-.063-.425-.096l-.446 1.95zm1.305.288c.307.064.6.124.878.178l.382-1.963a55.07 55.07 0 01-.846-.172l-.414 1.957zm1.765.341c.155.027.305.052.45.074l.307-1.976c-.133-.02-.273-.044-.419-.069l-.338 1.971zm.471.077c.252.034.509.063.771.087l.187-1.99a17.764 17.764 0 01-.694-.08l-.264 1.983zm2.308.179c.25.006.505.01.764.01v-2c-.241 0-.477-.003-.71-.01l-.054 2zm.764.01c.144 0 .284-.001.42-.004l-.038-2c-.123.003-.25.004-.382.004v2zm1.271-.04c.313-.022.607-.053.878-.094l-.301-1.978a8.828 8.828 0 01-.716.077l.14 1.995zm1.817-.308c.181-.058.357-.128.522-.214l-.92-1.776a1.48 1.48 0 01-.219.088l.617 1.902zm.545-.226c.205-.113.397-.248.569-.408l-1.36-1.466a.871.871 0 01-.175.122l.966 1.752zm1.312-1.696a2.99 2.99 0 00.075-.68h-2c0 .094-.01.169-.023.228l1.948.452zm.075-.68v-.473h-2v.473h2zm0-1.418v-.472h-2v.472h2zm0-.472c0-.228-.027-.459-.093-.685L48.415 13c.006.02.014.06.014.13h2zm-1.042-1.902a2.644 2.644 0 00-.609-.258l-.558 1.92a.66.66 0 01.15.06l1.017-1.722zm-.6-.256a5.958 5.958 0 00-.854-.18l-.286 1.98a3.9 3.9 0 01.565.116l.574-1.916zm-2.413-.301c-.24-.007-.49-.011-.755-.011v2c.247 0 .479.003.696.01l.059-2zm-.755-.011h-.484v2h.484v-2zm-1.451 0H43.2v2h.968v-2zm-1.935 0h-.484v2h.484v-2zm.516 1v-.416h-2v.416h2zm0-1.249V9.58h-2v.832h2zm0-1.665V8.33h-2v.416h2zm-1 .584h.484v-2h-.484v2zm1.451 0h.968v-2H43.2v2zm1.935 0h.484v-2h-.484v2zm.484 0c.184 0 .36-.002.529-.008l-.06-1.999a13.87 13.87 0 01-.469.007v2zm1.631-.093c.216-.03.422-.07.612-.122l-.526-1.93a3 3 0 01-.365.071l.28 1.98zm.612-.122c.114-.031.225-.066.332-.105l-.688-1.878a2.105 2.105 0 01-.17.053l.526 1.93zm1.065-.498c.139-.107.27-.236.38-.389L47.69 7.052c.015-.02.022-.024.013-.016l1.224 1.581zm.404-.422c.093-.14.166-.287.223-.437l-1.87-.709a.19.19 0 01-.017.036l1.664 1.11zm.394-1.225a4.12 4.12 0 00.014-.35h-2c0 .067-.002.128-.007.18l1.993.17zm.014-.35v-.383h-2v.383h2zm0-1.147V5.09h-2v.383h2zm0-.383a2.93 2.93 0 00-.054-.575l-1.961.393a.933.933 0 01.015.182h2zM49 3.301a2.187 2.187 0 00-.595-.364l-.77 1.846c.036.015.05.027.054.03l1.31-1.512zm-.595-.364a4.03 4.03 0 00-.849-.233l-.344 1.97c.216.037.35.078.424.11l.769-1.847zm-2.302-.366c-.219-.007-.45-.011-.693-.011v2c.224 0 .433.003.627.01l.066-2zm-.693-.011c-.177 0-.357.003-.54.01l.067 1.998c.162-.005.32-.008.473-.008v-2zm-1.606.076c-.341.03-.692.07-1.052.12l.27 1.981c.331-.045.652-.081.96-.109l-.178-1.992zm-2.09.281c-.334.058-.676.124-1.025.196l.405 1.958c.33-.068.651-.13.964-.184l-.344-1.97zm-2.04.42c-.167.04-.335.08-.504.122l.48 1.942c.163-.04.323-.08.481-.117l-.457-1.946zm.736 1.093v-.439h-2v.439h2zm0-1.316v-.878h-2v.878h2zm0-1.755V.92h-2v.439h2zm-.815.544c.186-.035.371-.069.555-.101l-.346-1.97a46.78 46.78 0 00-.58.105l.371 1.966zm1.666-.281c.376-.056.747-.106 1.114-.15l-.236-1.985c-.387.046-.777.098-1.171.156l.293 1.979zm2.23-.265c.377-.034.749-.06 1.116-.08l-.11-1.997c-.39.021-.784.05-1.182.084l.176 1.993zm2.232-.122c.187-.003.373-.005.557-.005v-2c-.197 0-.395.002-.595.006l.038 2zm.557-.005c.153 0 .303.001.45.003l.03-2a32.17 32.17 0 00-.48-.003v2zm1.343.032c.31.015.604.037.882.063l.19-1.99a21.45 21.45 0 00-.971-.07l-.1 1.997zm1.742.171c.302.048.576.103.826.165l.484-1.94a11.66 11.66 0 00-.997-.2l-.313 1.975zm1.582.404c.123.049.234.1.333.151L52.2.212a5.721 5.721 0 00-.512-.233l-.74 1.858zm.346.157c.1.05.192.104.275.16l1.12-1.657a4.447 4.447 0 00-.5-.291l-.895 1.788zm.703.554c.112.144.204.31.274.505l1.883-.673a3.792 3.792 0 00-.581-1.063l-1.576 1.23zm.408 1.138c.01.11.016.229.016.354h2a5.76 5.76 0 00-.025-.542l-1.99.188zm.016.354v.39h2v-.39h-2zm0 1.17v.78h2v-.78h-2zm0 1.56v.39h2v-.39h-2zm0 .39c0 .087-.007.166-.02.24l1.967.358c.036-.197.053-.397.053-.598h-2zm-.186.658a1.48 1.48 0 01-.154.2l1.48 1.345c.133-.147.254-.303.36-.468l-1.686-1.077zM52.095 8a2.104 2.104 0 01-.21.194l1.247 1.563a4.1 4.1 0 00.411-.377L52.095 8zm-.688.472a2.067 2.067 0 01-.27.088l.485 1.94c.182-.045.36-.103.532-.172l-.747-1.856zM50.38 9.53v.023h2V9.53h-2zm0 .068v.022h2v-.022h-2zm.725.983c.158.046.305.094.441.144l.697-1.874a7.996 7.996 0 00-.588-.193l-.55 1.924zm1.207.52c.236.157.404.32.52.484l1.627-1.164a3.934 3.934 0 00-1.046-.989l-1.101 1.67zm.767 1.072c.02.108.031.226.031.357h2c0-.244-.02-.484-.064-.72l-1.967.363zm.031.357v.394h2v-.394h-2zm0 1.181v.788h2v-.788h-2zm0 1.575v.394h2v-.394h-2zm0 .394c0 .147-.008.287-.022.42l1.987.22c.024-.21.035-.423.035-.64h-2zm-.21 1.186a2.501 2.501 0 01-.385.652l1.551 1.263c.29-.355.52-.746.69-1.17l-1.855-.745zm-.969 1.196c-.11.08-.229.156-.358.23l.995 1.735a5.94 5.94 0 00.534-.344l-1.17-1.621zm-.354.228a5.092 5.092 0 01-.377.193l.834 1.817a7.11 7.11 0 00.53-.27l-.987-1.74zm-1.205.503a9.385 9.385 0 01-.892.223l.393 1.96c.379-.075.74-.165 1.083-.27l-.584-1.913zm-1.824.372c-.303.038-.622.067-.956.09l.131 1.995c.37-.024.727-.058 1.071-.1l-.246-1.985zm-1.928.13c-.16.003-.324.005-.49.005v2c.18 0 .355-.002.53-.005l-.04-2zM59.04 20h-.5v.412l.403.079.096-.491zm0-3.42l.115-.486-.616-.147v.633h.5zm1.23.27l-.099.49.005.001.094-.491zm2.61-.27l.282.413.004-.003-.286-.41zm1.02-1.26l.447.224.003-.007-.45-.217zm.42-.87l.45.217.111-.23-.122-.225-.44.238zM56.788.53v-.5h-.84l.4.738.44-.238zm4.89 0l.447-.224-.139-.276h-.309v.5zm4.89 9.78l-.448.224.139.276h.308v-.5zm.12 0v.5h.34l.124-.316-.465-.184zm3.87-9.78v-.5h-.34l-.125.316.465.184zm4.71 0l.455.206.319-.706h-.775v.5zm-7.05 15.63l-.456-.206-.001.003.457.203zm-2.43 3.15l-.28-.415.28.415zm-4.14.49c-.194 0-.401-.008-.622-.024l-.071.998c.242.017.473.026.692.026v-1zm-1.882-.177a20.613 20.613 0 01-.632-.114l-.193.982c.228.044.449.084.663.12l.162-.988zm-.229.377v-.427h-1V20h1zm0-1.282v-.855h-1v.855h1zm0-1.71v-.428h-1v.428h1zm-.615.058c.104.025.207.05.31.073l.224-.975-.303-.07-.231.972zm.934.21c.105.022.21.044.313.064l.197-.98-.304-.063-.206.98zm.318.065c.107.02.213.038.318.054l.147-.99a6.767 6.767 0 01-.278-.046l-.187.982zm.965.12c.11.006.22.009.328.009v-1a4.29 4.29 0 01-.275-.008l-.053 1zm.328.009c.146 0 .29-.008.428-.024l-.114-.993a2.756 2.756 0 01-.313.017v1zm1.29-.253c.141-.063.276-.137.403-.224l-.565-.826a1.542 1.542 0 01-.245.137l.407.913zm.407-.227a3.01 3.01 0 00.377-.313l-.697-.717a2.01 2.01 0 01-.253.21l.573.82zm.96-1.05c.078-.125.151-.258.22-.396l-.894-.448c-.057.114-.116.22-.177.319l.851.526zm.224-.403l.105-.217-.9-.435-.106.218.9.434zm.315-.652l.105-.218-.9-.434-.106.217.9.435zm.094-.673l-.235-.435-.88.476.236.435.88-.476zm-.706-1.305l-.47-.87-.88.476.47.87.88-.476zm-.94-1.74l-.471-.87-.88.476.47.87.88-.476zm-.942-1.74l-.47-.87-.88.476.47.87.88-.476zm-.941-1.74l-.471-.87-.88.476.471.87.88-.476zm-.942-1.74l-.47-.87-.88.476.47.87.88-.476zm-.94-1.74l-.471-.87-.88.476.47.87.88-.476zm-.942-1.74l-.47-.87-.88.476.47.87.88-.476zm-.941-1.74l-.236-.435-.88.476.236.435.88-.476zm-.675.303h.61v-1h-.61v1zm1.833 0h1.223v-1h-1.223v1zm2.445 0h.611v-1h-.61v1zm.164-.276l.245.489.894-.448-.244-.489-.895.448zm.734 1.467l.489.978.894-.448-.489-.978-.894.448zm.978 1.956l.489.978.894-.448-.489-.978-.894.448zm.978 1.956l.489.978.894-.448-.489-.978-.894.448zm.978 1.956l.489.978.894-.448-.489-.978-.894.448zm.978 1.956l.244.489.895-.448-.245-.489-.894.448zm.692.765h.03v-1h-.03v1zm.09 0h.03v-1h-.03v1zm.494-.316l.194-.489-.93-.368-.193.489.93.368zm.58-1.467l.388-.978-.93-.368-.387.978.93.368zm.775-1.956l.387-.978-.93-.368-.387.978.93.368zm.774-1.956l.387-.978-.93-.368-.387.978.93.368zm.774-1.956l.387-.978-.93-.368-.387.978.93.368zm.774-1.956l.193-.489-.93-.368-.193.489.93.368zm-.272-.173h.59v-1h-.59v1zm1.767 0h1.177v-1h-1.177v1zm2.355 0h.588v-1h-.588v1zm.133-.706l-.196.435.911.41.196-.433-.911-.412zm-.588 1.303l-.391.868.911.411.392-.868-.912-.411zm-.783 1.737l-.392.868.912.411.391-.868-.911-.411zM72.659 5.1l-.392.869.912.41.391-.868-.911-.41zm-.784 1.737l-.391.868.911.411.392-.868-.912-.411zm-.783 1.737l-.392.868.912.411.392-.868-.912-.411zm-.783 1.736l-.392.869.912.41.391-.868-.911-.41zm-.784 1.737l-.391.868.911.411.392-.868-.912-.411zm-.783 1.737l-.392.868.912.411.391-.868-.911-.411zm-.783 1.736l-.196.434.911.412.196-.435-.911-.41zm-.197.437c-.067.15-.136.295-.206.435l.895.447c.077-.154.152-.313.224-.476l-.913-.406zm-.675 1.265a6.81 6.81 0 01-.558.754l.759.651c.226-.264.44-.552.64-.864l-.841-.541zm-1.213 1.4a4.66 4.66 0 01-.365.273l.559.83c.151-.102.299-.213.442-.331l-.636-.771zm-.365.273a3.977 3.977 0 01-.413.243l.455.89c.181-.092.353-.193.517-.303l-.559-.83zm-1.328.598a7.295 7.295 0 01-.988.207l.14.99a8.287 8.287 0 001.124-.236l-.276-.961zm-2.013.297c-.168.007-.342.01-.52.01v1c.191 0 .378-.004.56-.011l-.04-1zm-3.13.21h-1v.823l.808.158.193-.981zm0-3.42l.232-.973-1.232-.293v1.266h1zm1.23.27l-.196.98.01.002.187-.982zm2.61-.27l.565.825.009-.006-.573-.819zm1.02-1.26l.895.447.006-.012-.9-.435zm.42-.87l.901.435.222-.46-.243-.45-.88.475zM56.788.53v-1h-1.677l.798 1.476.88-.476zm4.89 0l.895-.447-.276-.553h-.618v1zm4.89 9.78l-.894.447.276.553h.618v-1zm.12 0v1h.68l.25-.632-.93-.368zm3.87-9.78v-1h-.68l-.25.632.93.368zm4.71 0l.912.411.637-1.411h-1.548v1zm-7.05 15.63l-.911-.411-.002.005.913.406zm-2.43 3.15l-.558-.83.558.83zm-4.14-.01a8.28 8.28 0 01-.586-.022l-.142 1.995c.253.018.495.027.728.027v-2zm-1.8-.17c-.198-.032-.404-.07-.617-.111l-.385 1.962c.233.046.459.087.678.123l.323-1.974zm.19.87v-.427h-2V20h2zm0-1.282v-.855h-2v.855h2zm0-1.71v-.428h-2v.428h2zm-1.231.545c.105.025.21.05.315.073l.446-1.95a40.343 40.343 0 01-.298-.069l-.463 1.946zm.947.212l.318.066.393-1.962-.3-.06-.41 1.956zm.327.067c.114.022.226.041.338.058l.294-1.979a6.472 6.472 0 01-.257-.043l-.375 1.964zm1.032.128c.12.007.238.01.355.01v-2c-.08 0-.163-.002-.248-.007l-.107 1.997zm.355.01c.164 0 .326-.009.485-.027l-.228-1.987a2.25 2.25 0 01-.257.014v2zm1.493-.296a3.05 3.05 0 00.482-.269l-1.13-1.65c-.05.034-.105.065-.165.092l.813 1.827zm.491-.275c.155-.108.301-.23.438-.363l-1.393-1.435a1.56 1.56 0 01-.192.16l1.147 1.638zm1.098-1.195c.087-.14.167-.285.243-.437l-1.789-.894c-.05.101-.102.194-.155.28l1.701 1.05zm.25-.45l.104-.217-1.801-.87-.105.218 1.801.87zm.314-.652l.105-.217-1.801-.87-.105.218 1.801.87zm.084-1.128l-.235-.435-1.76.952.236.435 1.76-.952zm-.706-1.305l-.47-.87-1.76.952.471.87 1.76-.952zm-.941-1.74l-.47-.87-1.76.952.47.87 1.76-.952zm-.941-1.74l-.471-.87-1.76.952.471.87 1.76-.952zm-.942-1.74l-.47-.87-1.76.952.471.87 1.76-.952zm-.94-1.74l-.471-.87-1.76.952.471.87 1.76-.952zm-.942-1.74l-.47-.87-1.76.952.47.87 1.76-.952zm-.941-1.74l-.471-.87-1.76.952.472.87 1.759-.952zM57.903.49l-.235-.435-1.759.952.235.435 1.76-.952zM56.79 1.53h.61v-2h-.61v2zm1.833 0h1.223v-2h-1.223v2zm2.445 0h.611v-2h-.61v2zm-.283-.553l.245.49 1.788-.895-.244-.49-1.789.895zm.734 1.467l.489.978 1.788-.894-.489-.978-1.788.894zm.978 1.956l.489.978 1.788-.894-.489-.978-1.788.894zm.978 1.956l.489.978 1.788-.894-.489-.978-1.788.894zm.978 1.956l.489.978 1.788-.894-.489-.978-1.788.894zm.978 1.956l.244.49 1.789-.895-.245-.49-1.788.895zm1.138 1.042h.03v-2h-.03v2zm.09 0h.03v-2h-.03v2zm.96-.632l.194-.49-1.86-.735-.193.49 1.86.735zm.58-1.467l.388-.978-1.86-.736-.387.978 1.86.736zm.775-1.956l.387-.978-1.86-.736-.387.978 1.86.736zm.774-1.956l.387-.978-1.86-.736-.387.978 1.86.736zm.774-1.956l.387-.978-1.86-.736-.387.978 1.86.736zm.774-1.956l.193-.49-1.86-.735-.193.49 1.86.735zm-.737.143h.59v-2h-.59v2zm1.767 0h1.177v-2h-1.177v2zm2.355 0h.588v-2h-.588v2zM74.357.119l-.196.434 1.823.822.196-.434L74.357.12zm-.588 1.302l-.391.869 1.823.822.392-.868-1.824-.823zm-.783 1.737l-.392.868 1.824.823.391-.869-1.823-.822zm-.783 1.737l-.392.868 1.823.822.392-.868-1.823-.822zm-.784 1.736l-.391.869 1.823.822.392-.868-1.823-.823zm-.783 1.737l-.391.868 1.823.823.391-.869-1.823-.822zm-.783 1.737l-.392.868 1.823.822.392-.868-1.823-.822zm-.783 1.736l-.392.869 1.823.822.392-.868-1.823-.823zm-.784 1.737l-.392.868 1.824.823.391-.869-1.823-.822zm-.783 1.737l-.196.434 1.823.822.196-.434-1.823-.822zm-.198.439c-.064.143-.13.282-.196.415l1.79.894c.08-.162.158-.327.233-.497l-1.827-.812zm-.639 1.197a6.315 6.315 0 01-.517.7l1.518 1.302c.243-.283.47-.59.682-.92l-1.683-1.082zm-1.11 1.286a4.172 4.172 0 01-.326.244l1.117 1.658c.166-.11.326-.231.482-.36l-1.274-1.542zm-.326.244a3.491 3.491 0 01-.361.212l.91 1.78c.198-.1.387-.212.568-.334l-1.117-1.658zm-1.187.531a6.8 6.8 0 01-.92.192l.28 1.98a8.485 8.485 0 001.192-.25l-.552-1.922zm-1.895.278c-.162.007-.328.01-.5.01v2c.197 0 .39-.004.58-.011l-.08-1.999zm16.432.83l.109-.488-.013-.003-.013-.002-.082.493zM77.8 20h-.5v.441l.438.055.063-.496zm0-3.66l.068-.495-.567-.078v.573h.5zm3.42-.75l.36.347.006-.006-.365-.341zm1.17-3.42l-.494-.076v.006l.495.07zM82.78.53v-.5h-.5v.5h.5zm14.16 0h.5v-.5h-.5v.5zm0 19.47v.5h.5V20h-.5zm-4.68 0h-.5v.5h.5V20zm0-16.17h.5v-.5h-.5v.5zm-5.25 0v-.5h-.5v.5h.5zm-1.02 11.28l-.473-.16-.002.005.475.155zm-2.61 4.08l-.271-.42-.004.003.275.417zm-3.78.55a3.54 3.54 0 01-.225-.007l-.063.998c.097.006.193.009.288.009v-1zm-.681-.063a5.142 5.142 0 01-.23-.045l-.217.976c.093.02.184.039.275.055l.172-.986zm-.256-.05l-.197-.033-.16.987.192.032.165-.986zm-.594-.095a9.466 9.466 0 00-.207-.028l-.124.992c.05.006.11.015.185.026l.146-.99zM78.3 20v-.457h-1V20h1zm0-1.372v-.916h-1v.916h1zm0-1.83v-.458h-1v.457h1zm-.567.037c.099.014.194.026.287.037l.114-.994c-.085-.01-.174-.02-.266-.033l-.135.99zm.873.087c.107.005.208.008.305.008v-1c-.078 0-.162-.002-.254-.007l-.05.999zm.305.008c.241 0 .474-.015.698-.046l-.137-.99a4.115 4.115 0 01-.561.036v1zm2.08-.519c.216-.133.413-.291.59-.474l-.72-.694a1.982 1.982 0 01-.393.315l.522.853zm.595-.48a2.88 2.88 0 00.334-.441l-.849-.53a1.886 1.886 0 01-.216.29l.731.68zm.768-1.364c.102-.281.192-.592.273-.93l-.972-.233c-.074.31-.155.584-.242.825l.941.338zm.46-1.862c.025-.15.049-.306.072-.465l-.99-.14a17.53 17.53 0 01-.068.44l.986.165zm.07-.46c.025-.157.048-.32.07-.492l-.993-.126c-.02.163-.042.32-.065.467l.989.152zm.175-1.474c.029-.308.054-.635.076-.978l-.997-.066c-.023.336-.047.654-.075.954l.996.09zm.132-1.955c.014-.313.028-.639.039-.976l-1-.033a65.61 65.61 0 01-.038.961l.999.048zm.065-1.952c.007-.315.012-.64.016-.973l-1-.012c-.004.33-.009.652-.016.964l1 .021zm.024-1.947V4.43h-1v.484l1 .003zm0-.487v-.487h-1v.487h1zm0-1.462v-.976h-1v.975h1zm0-1.95V.53h-1v.488h1zm-.5.012h.506v-1h-.505v1zm1.518 0h1.011v-1h-1.011v1zm2.022 0h1.012v-1H86.32v1zm2.023 0h1.012v-1h-1.012v1zm2.023 0h1.012v-1h-1.012v1zm2.023 0H93.4v-1h-1.01v1zm2.023 0h1.011v-1h-1.011v1zm2.023 0h.505v-1h-.505v1zm.005-.5v.487h1V.53h-1zm0 1.46v.974h1V1.99h-1zm0 1.947v.974h1v-.974h-1zm0 1.947v.974h1v-.974h-1zm0 1.947v.974h1V7.83h-1zm0 1.947v.974h1v-.974h-1zm0 1.947v.974h1v-.974h-1zm0 1.947v.974h1v-.974h-1zm0 1.947v.974h1v-.974h-1zm0 1.947v.974h1v-.974h-1zm0 1.947V20h1v-.487h-1zm.5-.013h-.584v1h.585v-1zm-1.754 0h-1.17v1h1.17v-1zm-2.34 0h-.586v1h.585v-1zm-.086.5v-.505h-1V20h1zm0-1.516v-1.01h-1v1.01h1zm0-2.021v-1.01h-1v1.01h1zm0-2.021V13.43h-1v1.01h1zm0-2.022v-1.01h-1v1.01h1zm0-2.02V9.387h-1V10.4h1zm0-2.022v-1.01h-1v1.01h1zm0-2.021V5.346h-1v1.01h1zm0-2.022V3.83h-1v.505h1zm-.5-1.005h-.437v1h.438v-1zm-1.312 0h-.875v1h.875v-1zm-1.75 0h-.875v1h.875v-1zm-1.75 0h-.438v1h.438v-1zm-.938.5v.675h1V3.83h-1zm0 2.025v.675h1v-.675h-1zm0 .675c0 .181 0 .36-.002.538l1 .01c.002-.181.002-.364.002-.548h-1zm-.023 1.612c-.01.367-.026.724-.044 1.071l.998.054c.02-.355.034-.72.046-1.095l-1-.03zm-.117 2.139c-.03.366-.065.72-.105 1.062l.993.116a32.8 32.8 0 00.109-1.096l-.997-.082zm-.25 2.115c-.059.364-.123.71-.194 1.04l.977.21c.075-.348.143-.712.204-1.092l-.987-.158zm-.449 2.058c-.05.172-.1.337-.154.496l.947.32c.059-.174.115-.354.168-.538l-.96-.278zm-.156.5a14.19 14.19 0 01-.196.564l.937.349c.072-.195.142-.395.21-.602l-.95-.31zm-.66 1.65c-.186.375-.38.707-.585.998l.82.574c.236-.338.456-.715.66-1.128l-.896-.444zm-1.319 1.838c-.14.125-.282.234-.427.328l.543.84a4.52 4.52 0 00.55-.422l-.665-.746zm-.431.33a5.49 5.49 0 01-.39.236l.48.877a6.79 6.79 0 00.461-.278l-.551-.834zm-1.225.607a6.019 6.019 0 01-.888.236l.186.983a7.12 7.12 0 001.033-.276l-.33-.944zm-1.81.348c-.154.009-.31.013-.47.013v1a9.2 9.2 0 00.526-.015l-.057-.998zm-1.49.393l.217-.976-.026-.006-.026-.004-.165.986zM77.8 20h-1v.883l.876.11L77.8 20zm0-3.66l.136-.99-1.136-.156v1.146h1zm3.42-.75l.72.694.006-.006.006-.007-.731-.681zm1.17-3.42l-.988-.151-.002.011.99.14zM82.78.53v-1h-1v1h1zm14.16 0h1v-1h-1v1zm0 19.47v1h1v-1h-1zm-4.68 0h-1v1h1v-1zm0-16.17h1v-1h-1v1zm-5.25 0v-1h-1v1h1zm-1.02 11.28l-.947-.32-.003.01.95.31zm-2.61 4.08l-.543-.84-.008.005.552.835zm-3.78.05c-.062 0-.126-.002-.193-.006l-.127 1.996c.107.006.214.01.32.01v-2zm-.596-.055a4.552 4.552 0 01-.207-.041l-.433 1.952c.1.022.198.042.297.06l.343-1.971zm-.26-.051l-.198-.033-.32 1.974.19.031.329-1.972zm-.603-.096l-.217-.03-.248 1.984.174.024.291-1.978zm.66.962v-.457h-2V20h2zm0-1.372v-.916h-2v.916h2zm0-1.83v-.458h-2v.457h2zm-1.136.533c.102.014.201.026.298.037l.228-1.987a11.11 11.11 0 01-.255-.032l-.27 1.982zm.916.09c.114.006.223.009.33.009v-2a4.47 4.47 0 01-.228-.006l-.102 1.997zm.33.009c.262 0 .518-.016.766-.05l-.273-1.982c-.15.02-.313.032-.493.032v2zm2.34-.593a3.48 3.48 0 00.69-.553l-1.44-1.388c-.088.091-.186.17-.295.236l1.046 1.705zm.701-.566a3.27 3.27 0 00.392-.517l-1.697-1.058a1.39 1.39 0 01-.158.213l1.463 1.362zm.873-1.534c.108-.303.204-.631.288-.984l-1.945-.465c-.07.294-.146.55-.225.771l1.882.678zm.482-1.95c.026-.155.05-.314.074-.477l-1.98-.28c-.022.148-.043.29-.066.427l1.972.33zm.072-.466c.025-.162.048-.33.07-.505l-1.984-.252c-.02.16-.041.311-.063.455l1.977.302zm.178-1.504c.029-.314.055-.644.078-.991l-1.996-.132c-.022.333-.047.646-.073.941l1.991.182zm.133-1.977c.015-.316.028-.644.04-.984l-2-.066c-.01.331-.023.65-.038.955l1.998.095zm.066-1.965c.007-.317.012-.643.016-.978l-2-.024c-.004.33-.009.65-.016.96l2 .042zm.024-1.956V4.43h-2v.482l2 .007zm0-.489v-.487h-2v.487h2zm0-1.462v-.976h-2v.975h2zm0-1.95V.53h-2v.488h2zm-1 .512h.506v-2h-.505v2zm1.518 0h1.011v-2h-1.011v2zm2.022 0h1.012v-2H86.32v2zm2.023 0h1.012v-2h-1.012v2zm2.023 0h1.012v-2h-1.012v2zm2.023 0H93.4v-2h-1.01v2zm2.023 0h1.011v-2h-1.011v2zm2.023 0h.505v-2h-.505v2zm-.495-1v.487h2V.53h-2zm0 1.46v.974h2V1.99h-2zm0 1.947v.974h2v-.974h-2zm0 1.947v.974h2v-.974h-2zm0 1.947v.974h2V7.83h-2zm0 1.947v.974h2v-.974h-2zm0 1.947v.974h2v-.974h-2zm0 1.947v.974h2v-.974h-2zm0 1.947v.974h2v-.974h-2zm0 1.947v.974h2v-.974h-2zm0 1.947V20h2v-.487h-2zm1-.513h-.584v2h.585v-2zm-1.754 0h-1.17v2h1.17v-2zm-2.34 0h-.586v2h.585v-2zm.414 1v-.505h-2V20h2zm0-1.516v-1.01h-2v1.01h2zm0-2.021v-1.01h-2v1.01h2zm0-2.021V13.43h-2v1.01h2zm0-2.022v-1.01h-2v1.01h2zm0-2.02V9.387h-2V10.4h2zm0-2.022v-1.01h-2v1.01h2zm0-2.021V5.346h-2v1.01h2zm0-2.022V3.83h-2v.505h2zm-1-1.505h-.437v2h.438v-2zm-1.312 0h-.875v2h.875v-2zm-1.75 0h-.875v2h.875v-2zm-1.75 0h-.438v2h.438v-2zm-1.438 1v.675h2V3.83h-2zm0 2.025v.675h2v-.675h-2zm0 .675c0 .18 0 .358-.002.533l2 .02c.002-.183.002-.367.002-.553h-2zm-.023 1.597c-.01.363-.025.716-.044 1.06l1.997.107c.02-.36.035-.729.047-1.107l-2-.06zm-.115 2.112a31.1 31.1 0 01-.104 1.046l1.986.232c.043-.36.08-.73.111-1.113l-1.993-.165zm-.246 2.078c-.057.356-.12.694-.189 1.014l1.955.42c.077-.357.147-.73.209-1.118l-1.975-.316zm-.435 1.998a11.36 11.36 0 01-.148.476l1.895.638c.061-.181.12-.367.174-.558l-1.92-.556zm-.151.484c-.062.19-.125.37-.19.545l1.875.697c.075-.201.147-.408.216-.62l-1.901-.622zm-.634 1.584a7.128 7.128 0 01-.545.932l1.638 1.148c.253-.362.486-.76.7-1.194l-1.793-.886zm-1.202 1.686a3.004 3.004 0 01-.367.282l1.087 1.678a4.95 4.95 0 00.611-.468l-1.331-1.492zm-.375.287a5 5 0 01-.355.213l.96 1.755c.17-.093.336-.193.498-.3l-1.103-1.669zm-1.114.55a5.54 5.54 0 01-.816.218l.372 1.965c.38-.072.75-.17 1.106-.295l-.662-1.887zm-1.674.322c-.144.008-.29.012-.44.012v2c.186 0 .371-.005.554-.016l-.114-1.996zM102.639.53v-.5h-.5v.5h.5zm4.68 0h.5v-.5h-.5v.5zm0 7.14h-.5v.5h.5v-.5zm6.9.27l-.079.494.01.001.069-.495zm2.67 1.14l-.342.365.006.005.006.006.33-.376zM102.639 20h-.5v.5h.5V20zm9.75-3.81l.255.43.011-.007-.266-.423zm.03-4.86l-.195.46.195-.46zm-5.13-.33v-.5h-.5v.5h.5zm0 5.67h-.5v.5h.5v-.5zM102.139.53v.487h1V.53h-1zm0 1.46v.974h1V1.99h-1zm0 1.947v.974h1v-.974h-1zm0 1.947v.974h1v-.974h-1zm0 1.947v.974h1V7.83h-1zm0 1.947v.974h1v-.974h-1zm0 1.947v.974h1v-.974h-1zm0 1.947v.974h1v-.974h-1zm0 1.947v.974h1v-.974h-1zm0 1.947v.974h1v-.974h-1zm0 1.947V20h1v-.487h-1zm.5.987h.461v-1h-.461v1zm1.384 0h.922v-1h-.922v1zm1.845 0h.922v-1h-.922v1zm1.845 0h.922v-1h-.922v1zm1.845 0h.461v-1h-.461v1zm.461 0c.177 0 .352-.002.524-.005l-.02-1c-.165.003-.333.005-.504.005v1zm1.574-.05c.364-.025.715-.059 1.051-.102l-.127-.992c-.315.04-.645.072-.992.096l.068.998zm2.102-.276a10.77 10.77 0 001.043-.272l-.305-.953a9.356 9.356 0 01-.942.245l.204.98zm2.063-.678c.351-.172.671-.368.958-.59l-.611-.791a4.563 4.563 0 01-.787.483l.44.898zm1.774-1.407c.237-.313.424-.654.562-1.024l-.937-.349a2.989 2.989 0 01-.422.77l.797.603zm.819-2.145a5.49 5.49 0 00.028-.564h-1c0 .16-.008.314-.023.462l.995.102zm.028-.564v-.458h-1v.458h1zm0-1.373v-.915h-1v.915h1zm0-1.83v-.457h-1v.457h1zm0-.457c0-.276-.017-.54-.051-.793l-.991.135c.028.203.042.422.042.658h1zm-.597-2.36a3.078 3.078 0 00-.563-.656l-.66.752c.147.129.274.277.381.444l.842-.54zm-.551-.645a4.152 4.152 0 00-.666-.507l-.524.852c.187.115.355.243.506.385l.684-.73zm-2.167-1.12a7.446 7.446 0 00-.775-.15l-.139.99c.237.033.461.077.671.13l.243-.97zm-.766-.149a15.07 15.07 0 00-.585-.082l-.12.993c.193.024.375.05.547.077l.158-.988zm-1.749-.19a33.975 33.975 0 00-1.158-.058l-.035 1c.399.013.774.032 1.125.056l.068-.998zm-2.313-.083a58.135 58.135 0 00-.577-.003v1c.193 0 .382 0 .567.003l.01-1zm-.577-.003h-.585v1h.585v-1zm-1.755 0h-.585v1h.585v-1zm-.085.5v-.446h-1v.446h1zm0-1.339V5.44h-1v.892h1zm0-1.785v-.892h-1v.892h1zm0-1.785V1.87h-1v.892h1zm0-1.785V.53h-1v.446h1zm-.5-.946h-.585v1h.585v-1zm-1.755 0h-1.17v1h1.17v-1zm-2.34 0h-.585v1h.585v-1zm6.585 16.14h-.63v1h.63v-1zm-1.89 0h-.63v1h.63v-1zm-.13.5v-.473h-1v.473h1zm0-1.418v-.945h-1v.945h1zm0-1.89v-.944h-1v.945h1zm0-1.89V11h-1v.473h1zm-.5.028h.645v-1h-.645v1zm1.935 0h.645v-1h-.645v1zm.645 0c.222 0 .431.004.626.012l.041-1a16.592 16.592 0 00-.667-.012v1zm1.833.14c.219.043.391.095.522.15l.39-.92a3.726 3.726 0 00-.716-.211l-.196.98zm.522.15a.877.877 0 01.218.128l.633-.774a1.881 1.881 0 00-.461-.274l-.39.92zm.447.516c.018.08.028.174.028.284h1c0-.173-.016-.341-.053-.503l-.975.22zm.028.284v.518h1v-.518h-1zm0 1.553v.517h1v-.518h-1zm0 .517c0 .129-.012.244-.034.348l.979.206c.037-.178.055-.363.055-.554h-1zm-.319.9c-.07.073-.155.143-.257.207l.532.846c.166-.104.316-.224.447-.362l-.722-.691zm-.246.2a2.164 2.164 0 01-.496.206l.282.96c.267-.079.51-.179.724-.306l-.51-.86zm-1.692.392c-.197.012-.408.018-.633.018v1c.242 0 .473-.007.693-.02l-.06-.998zM102.639.53v-1h-1v1h1zm4.68 0h1v-1h-1v1zm0 7.14h-1v1h1v-1zm6.9.27l-.159.987.01.002.01.001.139-.99zm2.67 1.14l-.684.73.012.01.012.011.66-.751zM102.639 20h-1v1h1v-1zm9.75-3.81l.51.86.011-.007.012-.007-.533-.846zm.03-4.86l-.39.921.39-.921zm-5.13-.33v-1h-1v1h1zm0 5.67h-1v1h1v-1zM101.639.53v.487h2V.53h-2zm0 1.46v.974h2V1.99h-2zm0 1.947v.974h2v-.974h-2zm0 1.947v.974h2v-.974h-2zm0 1.947v.974h2V7.83h-2zm0 1.947v.974h2v-.974h-2zm0 1.947v.974h2v-.974h-2zm0 1.947v.974h2v-.974h-2zm0 1.947v.974h2v-.974h-2zm0 1.947v.974h2v-.974h-2zm0 1.947V20h2v-.487h-2zm1 1.487h.461v-2h-.461v2zm1.384 0h.922v-2h-.922v2zm1.845 0h.922v-2h-.922v2zm1.845 0h.922v-2h-.922v2zm1.845 0h.461v-2h-.461v2zm.461 0c.181 0 .359-.002.534-.005l-.041-2c-.161.003-.325.005-.493.005v2zm1.608-.052c.373-.025.734-.06 1.08-.104l-.254-1.984c-.304.04-.624.07-.962.093l.136 1.995zm2.169-.285c.383-.08.748-.175 1.094-.285l-.61-1.905a8.76 8.76 0 01-.891.232l.407 1.958zm2.182-.718a6.075 6.075 0 001.044-.643l-1.223-1.583a4.08 4.08 0 01-.7.43l.879 1.796zm1.953-1.554a4.53 4.53 0 00.632-1.151l-1.875-.698a2.494 2.494 0 01-.352.642l1.595 1.207zm.917-2.395c.021-.202.031-.408.031-.616h-2c0 .144-.007.28-.02.41l1.989.206zm.031-.616v-.458h-2v.458h2zm0-1.373v-.915h-2v.915h2zm0-1.83v-.457h-2v.457h2zm0-.457a6.33 6.33 0 00-.056-.86l-1.981.27c.024.178.037.374.037.59h2zm-.676-2.629c-.182-.284-.4-.54-.654-.762l-1.32 1.502c.112.098.208.21.29.338l1.684-1.078zm-.63-.74a4.607 4.607 0 00-.746-.568l-1.048 1.703c.159.098.301.206.426.324l1.368-1.46zm-2.387-1.242a7.935 7.935 0 00-.828-.16l-.278 1.981c.222.031.428.071.62.12l.486-1.94zm-.808-.156c-.193-.031-.394-.06-.604-.085l-.241 1.986c.187.022.363.047.527.073l.318-1.974zm-1.794-.196a34.63 34.63 0 00-1.176-.059l-.069 1.999c.394.013.763.032 1.107.056l.138-1.996zm-2.343-.084a58.84 58.84 0 00-.582-.003v2c.192 0 .379 0 .562.003l.02-2zm-.582-.003h-.585v2h.585v-2zm-1.755 0h-.585v2h.585v-2zm.415 1v-.446h-2v.446h2zm0-1.339V5.44h-2v.892h2zm0-1.785v-.892h-2v.892h2zm0-1.785V1.87h-2v.892h2zm0-1.785V.53h-2v.446h2zm-1-1.446h-.585v2h.585v-2zm-1.755 0h-1.17v2h1.17v-2zm-2.34 0h-.585v2h.585v-2zm6.585 16.14h-.63v2h.63v-2zm-1.89 0h-.63v2h.63v-2zm.37 1v-.473h-2v.473h2zm0-1.418v-.945h-2v.945h2zm0-1.89v-.944h-2v.945h2zm0-1.89V11h-2v.473h2zm-1 .528h.645v-2h-.645v2zm1.935 0h.645v-2h-.645v2zm.645 0c.216 0 .418.004.606.011l.081-1.998a17.065 17.065 0 00-.687-.013v2zm1.734.13c.196.039.334.082.426.121l.78-1.842a4.248 4.248 0 00-.813-.24l-.393 1.96zm.426.121a.419.419 0 01.097.054l1.265-1.548a2.378 2.378 0 00-.582-.348l-.78 1.842zm.154.165a.8.8 0 01.016.174h2c0-.205-.019-.41-.065-.612l-1.951.438zm.016.174v.518h2v-.518h-2zm0 1.553v.517h2v-.518h-2zm0 .517c0 .098-.009.178-.023.244l1.957.414c.045-.216.066-.436.066-.658h-2zm-.18.554a.86.86 0 01-.163.13l1.066 1.692c.197-.124.38-.27.542-.44l-1.445-1.382zm-.14.116c-.085.05-.209.106-.382.157l.565 1.918c.297-.087.58-.203.837-.355l-1.02-1.72zm-1.467.323c-.186.011-.387.017-.603.017v2c.251 0 .492-.007.723-.02l-.12-1.997zM127.184 3.86h.5v-.5h-.5v.5zm-6 0h-.5v.5h.5v-.5zm0-3.33v-.5h-.5v.5h.5zm16.65 0h.5v-.5h-.5v.5zm0 3.33v.5h.5v-.5h-.5zm-5.97 0v-.5h-.5v.5h.5zm0 16.14v.5h.5V20h-.5zm-4.68 0h-.5v.5h.5V20zm0-16.64h-.5v1h.5v-1zm-1.5 0h-1v1h1v-1zm-2 0h-1v1h1v-1zm-2 0h-.5v1h.5v-1zm0 .5v-.416h-1v.416h1zm0-1.249V1.78h-1v.832h1zm0-1.665V.53h-1v.416h1zm-.5.084h.52v-1h-.52v1zm1.561 0h1.041v-1h-1.041v1zm2.081 0h1.041v-1h-1.041v1zm2.081 0h1.041v-1h-1.041v1zm2.082 0h1.04v-1h-1.04v1zm2.081 0h1.041v-1h-1.041v1zm2.081 0h1.041v-1h-1.041v1zm2.081 0h1.041v-1h-1.041v1zm2.082 0h.52v-1h-.52v1zm.02-.5v.416h1V.53h-1zm0 1.249v.832h1V1.78h-1zm0 1.665v.416h1v-.416h-1zm.5-.084h-.498v1h.498v-1zm-1.493 0h-.995v1h.995v-1zm-1.99 0h-.995v1h.995v-1zm-1.99 0h-.497v1h.497v-1zm-.997.5v.504h1V3.86h-1zm0 1.513v1.009h1V5.373h-1zm0 2.018v1.008h1V7.391h-1zm0 2.017v1.009h1V9.408h-1zm0 2.018v1.008h1v-1.008h-1zm0 2.017v1.009h1v-1.009h-1zm0 2.018v1.008h1v-1.008h-1zm0 2.017v1.009h1v-1.009h-1zm0 2.018V20h1v-.504h-1zm.5.004h-.585v1h.585v-1zm-1.755 0h-1.17v1h1.17v-1zm-2.34 0h-.585v1h.585v-1zm-.085.5v-.504h-1V20h1zm0-1.513v-1.009h-1v1.009h1zm0-2.018v-1.008h-1v1.008h1zm0-2.017v-1.009h-1v1.009h1zm0-2.018v-1.008h-1v1.008h1zm0-2.017V9.408h-1v1.009h1zm0-2.018V7.391h-1v1.008h1zm0-2.017V5.373h-1v1.009h1zm0-2.018V3.86h-1v.504h1zm-.5-.504h1v-1h-1v1zm-6 0h-1v1h1v-1zm0-3.33v-1h-1v1h1zm16.65 0h1v-1h-1v1zm0 3.33v1h1v-1h-1zm-5.97 0v-1h-1v1h1zm0 16.14v1h1v-1h-1zm-4.68 0h-1v1h1v-1zm0-17.14h-.5v2h.5v-2zm-1.5 0h-1v2h1v-2zm-2 0h-1v2h1v-2zm-2 0h-.5v2h.5v-2zm.5 1v-.416h-2v.416h2zm0-1.249V1.78h-2v.832h2zm0-1.665V.53h-2v.416h2zm-1 .584h.52v-2h-.52v2zm1.561 0h1.041v-2h-1.041v2zm2.081 0h1.041v-2h-1.041v2zm2.081 0h1.041v-2h-1.041v2zm2.082 0h1.04v-2h-1.04v2zm2.081 0h1.041v-2h-1.041v2zm2.081 0h1.041v-2h-1.041v2zm2.081 0h1.041v-2h-1.041v2zm2.082 0h.52v-2h-.52v2zm-.48-1v.416h2V.53h-2zm0 1.249v.832h2V1.78h-2zm0 1.665v.416h2v-.416h-2zm1-.584h-.498v2h.498v-2zm-1.493 0h-.995v2h.995v-2zm-1.99 0h-.995v2h.995v-2zm-1.99 0h-.497v2h.497v-2zm-1.497 1v.504h2V3.86h-2zm0 1.513v1.009h2V5.373h-2zm0 2.018v1.008h2V7.391h-2zm0 2.017v1.009h2V9.408h-2zm0 2.018v1.008h2v-1.008h-2zm0 2.017v1.009h2v-1.009h-2zm0 2.018v1.008h2v-1.008h-2zm0 2.017v1.009h2v-1.009h-2zm0 2.018V20h2v-.504h-2zm1-.496h-.585v2h.585v-2zm-1.755 0h-1.17v2h1.17v-2zm-2.34 0h-.585v2h.585v-2zm.415 1v-.504h-2V20h2zm0-1.513v-1.009h-2v1.009h2zm0-2.018v-1.008h-2v1.008h2zm0-2.017v-1.009h-2v1.009h2zm0-2.018v-1.008h-2v1.008h2zm0-2.017V9.408h-2v1.009h2zm0-2.018V7.391h-2v1.008h2zm0-2.017V5.373h-2v1.009h2zm0-2.018V3.86h-2v.504h2zM147.186.53v-.5h-.348l-.121.327.469.173zm5.7 0l.47-.17-.119-.33h-.351v.5zm7.02 19.47v.5h.712l-.242-.67-.47.17zm-4.74 0l-.474.16.115.34h.359V20zm-1.74-5.13l.473-.16-.115-.34h-.358v.5zm-7.11 0v-.5h-.361l-.114.342.475.158zm-1.71 5.13v.5h.36l.114-.342-.474-.158zm-4.62 0l-.469-.173-.249.673h.718V20zm12.42-8.25v.5h.695l-.221-.66-.474.16zm-2.46-7.32l.474-.16-.115-.34h-.359v.5zm-.12 0v-.5h-.36l-.114.34.474.16zm-2.46 7.32l-.474-.16-.222.66h.696v-.5zM146.717.357l-.18.486.938.347.18-.487-.938-.346zm-.54 1.46l-.36.973.938.347.36-.973-.938-.347zm-.72 1.947l-.36.973.938.347.36-.973-.938-.347zm-.72 1.947l-.36.973.938.347.36-.973-.938-.347zm-.72 1.947l-.36.973.938.347.36-.973-.938-.347zm-.72 1.947l-.36.973.938.347.36-.973-.938-.347zm-.72 1.947l-.36.973.938.347.36-.973-.938-.347zm-.72 1.947l-.36.973.938.347.36-.973-.938-.347zm-.72 1.947l-.36.973.938.347.36-.973-.938-.347zm-.72 1.947l-.36.973.938.347.36-.973-.938-.347zm-.72 1.947l-.18.487.938.346.18-.486-.938-.347zm.289 1.16h.577v-1h-.577v1zm1.732 0h1.155v-1h-1.155v1zm2.31 0h.578v-1h-.578v1zm1.052-.342l.143-.427-.949-.317-.143.428.949.316zm.428-1.282l.285-.855-.949-.317-.285.855.949.317zm.57-1.71l.285-.855-.949-.317-.285.855.949.317zm.57-1.71l.142-.428-.949-.316-.142.427.949.317zm-.332-.086h.444v-1h-.444v1zm1.333 0h.889v-1h-.889v1zm1.777 0h.889v-1h-.889v1zm1.778 0h.889v-1h-.889v1zm1.777 0h.445v-1h-.445v1zm-.029-.34l.145.428.947-.321-.145-.428-.947.322zm.435 1.283l.29.855.947-.321-.29-.855-.947.321zm.58 1.71l.29.855.947-.321-.29-.855-.947.321zm.58 1.71l.145.428.947-.322-.145-.427-.947.321zm.619.767h.592v-1h-.592v1zm1.777 0h1.185v-1h-1.185v1zm2.37 0h.593v-1h-.593v1zm1.063-.67l-.175-.486-.941.339.175.487.941-.34zm-.526-1.46l-.351-.973-.941.339.351.973.941-.339zm-.702-1.947l-.351-.973-.941.339.351.973.941-.339zm-.702-1.947l-.351-.973-.941.339.351.973.941-.339zm-.702-1.947l-.351-.973-.941.339.351.973.941-.339zm-.702-1.947l-.351-.973-.941.339.351.973.941-.339zm-.702-1.947l-.351-.973-.941.339.351.973.941-.339zm-.702-1.947l-.351-.973-.941.339.351.973.941-.339zm-.702-1.947l-.351-.973-.941.339.351.973.941-.339zm-.702-1.947l-.351-.973-.941.339.351.973.941-.339zm-.702-1.947l-.176-.487-.941.34.176.486.941-.339zm-.646-.817h-.475v1h.475v-1zm-1.425 0h-.95v1h.95v-1zm-1.9 0h-.95v1h.95v-1zm-1.9 0h-.475v1h.475v-1zm4.745 11.22h-.42v1h.42v-1zm-1.26 0h-.84v1h.84v-1zm-1.68 0h-.84v1h.84v-1zm-1.68 0h-.42v1h.42v-1zm.054.66l.153-.458-.947-.319-.154.458.948.318zm.461-1.373l.307-.915-.947-.319-.308.915.948.319zm.615-1.83l.307-.915-.947-.319-.308.915.948.319zm.615-1.83l.307-.915-.947-.319-.308.915.948.319zm.615-1.83l.154-.458-.948-.318-.154.457.948.319zm-.32-.117h.03v-1h-.03v1zm.09 0h.03v-1h-.03v1zm-.444-.34l.154.457.947-.319-.153-.457-.948.318zm.461 1.372l.308.915.947-.319-.307-.915-.948.319zm.615 1.83l.308.915.947-.319-.307-.915-.948.319zm.615 1.83l.308.915.947-.319-.307-.915-.948.319zm.615 1.83l.154.457.948-.318-.154-.458-.948.319zM147.186.53v-1h-.697l-.241.653.938.347zm5.7 0l.941-.34-.239-.66h-.702v1zm7.02 19.47v1h1.423l-.483-1.34-.94.34zm-4.74 0l-.947.321.23.679h.717v-1zm-1.74-5.13l.947-.321-.23-.679h-.717v1zm-7.11 0v-1h-.721l-.228.684.949.316zm-1.71 5.13v1h.721l.227-.684-.948-.316zm-4.62 0l-.938-.347L138.55 21h1.436v-1zm12.42-8.25v1h1.391l-.443-1.319-.948.319zm-2.46-7.32l.948-.319-.229-.681h-.719v1zm-.12 0v-1h-.719l-.229.681.948.319zm-2.46 7.32l-.948-.319-.443 1.319h1.391v-1zM146.248.183l-.18.487 1.876.694.18-.487-1.876-.694zm-.54 1.46l-.36.974 1.876.694.36-.974-1.876-.694zm-.72 1.947l-.36.974 1.876.694.36-.974-1.876-.694zm-.72 1.947l-.36.974 1.876.694.36-.974-1.876-.694zm-.72 1.947l-.36.974 1.876.694.36-.974-1.876-.694zm-.72 1.947l-.36.974 1.876.694.36-.974-1.876-.694zm-.72 1.947l-.36.974 1.876.694.36-.974-1.876-.694zm-.72 1.947l-.36.974 1.876.694.36-.974-1.876-.694zm-.72 1.947l-.36.974 1.876.694.36-.974-1.876-.694zm-.72 1.947l-.36.974 1.876.694.36-.974-1.876-.694zm-.72 1.947l-.18.487 1.876.694.18-.487-1.876-.694zm.758 1.834h.577v-2h-.577v2zm1.732 0h1.155v-2h-1.155v2zm2.31 0h.578v-2h-.578v2zm1.526-.684l.143-.427-1.897-.633-.143.428 1.897.632zm.428-1.282l.285-.855-1.897-.633-.285.855 1.897.633zm.57-1.71l.285-.855-1.897-.633-.285.855 1.897.633zm.57-1.71l.142-.428-1.897-.632-.142.427 1.897.633zm-.806.256h.444v-2h-.444v2zm1.333 0h.889v-2h-.889v2zm1.777 0h.889v-2h-.889v2zm1.778 0h.889v-2h-.889v2zm1.777 0h.445v-2h-.445v2zm-.502-.679l.145.428 1.894-.643-.145-.427-1.894.642zm.435 1.283l.29.855 1.894-.643-.29-.855-1.894.643zm.58 1.71l.29.855 1.894-.643-.29-.855-1.894.643zm.58 1.71l.145.427 1.894-.642-.145-.428-1.894.643zM155.166 21h.592v-2h-.592v2zm1.777 0h1.185v-2h-1.185v2zm2.37 0h.593v-2h-.593v2zm1.533-1.34l-.175-.486-1.881.678.175.487 1.881-.678zm-.526-1.46l-.351-.973-1.881.678.351.974 1.881-.678zm-.702-1.946l-.351-.974-1.881.678.351.974 1.881-.678zm-.702-1.947l-.351-.974-1.881.678.351.974 1.881-.678zm-.702-1.947l-.351-.974-1.881.678.351.974 1.881-.678zm-.702-1.947l-.351-.974-1.881.678.351.974 1.881-.678zm-.702-1.947l-.351-.974-1.881.678.351.974 1.881-.678zm-.702-1.947l-.351-.974-1.881.678.351.974 1.881-.678zm-.702-1.947l-.351-.974-1.881.678.351.974 1.881-.678zm-.702-1.947l-.351-.974-1.881.678.351.974 1.881-.678zm-.702-1.947l-.175-.487-1.882.678.176.487 1.881-.678zM152.886-.47h-.475v2h.475v-2zm-1.425 0h-.95v2h.95v-2zm-1.9 0h-.95v2h.95v-2zm-1.9 0h-.475v2h.475v-2zm4.745 11.22h-.42v2h.42v-2zm-1.26 0h-.84v2h.84v-2zm-1.68 0h-.84v2h.84v-2zm-1.68 0h-.42v2h.42v-2zm.528 1.319l.153-.458-1.895-.637-.154.457 1.896.638zm.461-1.373l.307-.915-1.895-.637-.308.915 1.896.637zm.615-1.83l.307-.915-1.895-.637-.308.915 1.896.637zm.615-1.83l.307-.915-1.895-.637-.308.915 1.896.637zm.615-1.83l.154-.457-1.896-.638-.154.458 1.896.637zm-.794.224h.03v-2h-.03v2zm.09 0h.03v-2h-.03v2zm-.918-.681l.154.457 1.895-.637-.153-.458-1.896.638zm.461 1.372l.308.915 1.895-.637-.307-.915-1.896.637zm.615 1.83l.308.915 1.895-.637-.307-.915-1.896.637zm.615 1.83l.308.915 1.895-.637-.307-.915-1.896.637zm.615 1.83l.154.458 1.896-.638-.154-.457-1.896.637zm16.761-7.751h.5v-.5h-.5v.5zm-6 0h-.5v.5h.5v-.5zm0-3.33v-.5h-.5v.5h.5zm16.65 0h.5v-.5h-.5v.5zm0 3.33v.5h.5v-.5h-.5zm-5.97 0v-.5h-.5v.5h.5zm0 16.14v.5h.5V20h-.5zm-4.68 0h-.5v.5h.5V20zm0-16.64h-.5v1h.5v-1zm-1.5 0h-1v1h1v-1zm-2 0h-1v1h1v-1zm-2 0h-.5v1h.5v-1zm0 .5v-.416h-1v.416h1zm0-1.249V1.78h-1v.832h1zm0-1.665V.53h-1v.416h1zm-.5.084h.52v-1h-.52v1zm1.561 0h1.04v-1h-1.04v1zm2.081 0h1.041v-1h-1.041v1zm2.081 0h1.041v-1h-1.041v1zm2.082 0h1.04v-1h-1.04v1zm2.081 0h1.04v-1h-1.04v1zm2.081 0h1.041v-1h-1.041v1zm2.081 0h1.041v-1h-1.041v1zm2.082 0h.52v-1h-.52v1zm.02-.5v.416h1V.53h-1zm0 1.249v.832h1V1.78h-1zm0 1.665v.416h1v-.416h-1zm.5-.084h-.498v1h.498v-1zm-1.493 0h-.995v1h.995v-1zm-1.99 0h-.995v1h.995v-1zm-1.99 0h-.497v1h.497v-1zm-.997.5v.504h1V3.86h-1zm0 1.513v1.009h1V5.373h-1zm0 2.018v1.008h1V7.391h-1zm0 2.017v1.009h1V9.408h-1zm0 2.018v1.008h1v-1.008h-1zm0 2.017v1.009h1v-1.009h-1zm0 2.018v1.008h1v-1.008h-1zm0 2.017v1.009h1v-1.009h-1zm0 2.018V20h1v-.504h-1zm.5.004h-.585v1h.585v-1zm-1.755 0h-1.17v1h1.17v-1zm-2.34 0h-.585v1h.585v-1zm-.085.5v-.504h-1V20h1zm0-1.513v-1.009h-1v1.009h1zm0-2.018v-1.008h-1v1.008h1zm0-2.017v-1.009h-1v1.009h1zm0-2.018v-1.008h-1v1.008h1zm0-2.017V9.408h-1v1.009h1zm0-2.018V7.391h-1v1.008h1zm0-2.017V5.373h-1v1.009h1zm0-2.018V3.86h-1v.504h1zm-.5-.504h1v-1h-1v1zm-6 0h-1v1h1v-1zm0-3.33v-1h-1v1h1zm16.65 0h1v-1h-1v1zm0 3.33v1h1v-1h-1zm-5.97 0v-1h-1v1h1zm0 16.14v1h1v-1h-1zm-4.68 0h-1v1h1v-1zm0-17.14h-.5v2h.5v-2zm-1.5 0h-1v2h1v-2zm-2 0h-1v2h1v-2zm-2 0h-.5v2h.5v-2zm.5 1v-.416h-2v.416h2zm0-1.249V1.78h-2v.832h2zm0-1.665V.53h-2v.416h2zm-1 .584h.52v-2h-.52v2zm1.561 0h1.04v-2h-1.04v2zm2.081 0h1.041v-2h-1.041v2zm2.081 0h1.041v-2h-1.041v2zm2.082 0h1.04v-2h-1.04v2zm2.081 0h1.04v-2h-1.04v2zm2.081 0h1.041v-2h-1.041v2zm2.081 0h1.041v-2h-1.041v2zm2.082 0h.52v-2h-.52v2zm-.48-1v.416h2V.53h-2zm0 1.249v.832h2V1.78h-2zm0 1.665v.416h2v-.416h-2zm1-.584h-.498v2h.498v-2zm-1.493 0h-.995v2h.995v-2zm-1.99 0h-.995v2h.995v-2zm-1.99 0h-.497v2h.497v-2zm-1.497 1v.504h2V3.86h-2zm0 1.513v1.009h2V5.373h-2zm0 2.018v1.008h2V7.391h-2zm0 2.017v1.009h2V9.408h-2zm0 2.018v1.008h2v-1.008h-2zm0 2.017v1.009h2v-1.009h-2zm0 2.018v1.008h2v-1.008h-2zm0 2.017v1.009h2v-1.009h-2zm0 2.018V20h2v-.504h-2zm1-.496h-.585v2h.585v-2zm-1.755 0h-1.17v2h1.17v-2zm-2.34 0h-.585v2h.585v-2zm.415 1v-.504h-2V20h2zm0-1.513v-1.009h-2v1.009h2zm0-2.018v-1.008h-2v1.008h2zm0-2.017v-1.009h-2v1.009h2zm0-2.018v-1.008h-2v1.008h2zm0-2.017V9.408h-2v1.009h2zm0-2.018V7.391h-2v1.008h2zm0-2.017V5.373h-2v1.009h2zm0-2.018V3.86h-2v.504h2z" fill="#77C2F9" fill-opacity=".9"/></svg>