<svg width="269" height="31" fill="none" xmlns="http://www.w3.org/2000/svg"><path d="M.15.795v-.5h-.5v.5h.5zm18.45.585l-.115.487h.002l.113-.487zm3.645 2.07l-.399.302.006.007.005.006.388-.315zm-.09 14.085l-.395-.307-.005.007.4.3zM18.24 19.83l-.121-.485h-.002l.123.485zm-11.07.675v-.5h-.5v.5h.5zm0 9.495v.5h.5V30h-.5zM.15 30h-.5v.5h.5V30zm15.345-14.94l.244.436.007-.003.006-.004-.257-.429zm.045-8.82l-.2.459.008.003.192-.462zm-8.37-.45v-.5h-.5v.5h.5zm0 9.9h-.5v.5h.5v-.5zM-.35.795v1.043h1V.795h-1zm0 3.13V6.01h1V3.924h-1zm0 4.171v2.086h1V8.096h-1zm0 4.172v2.086h1v-2.086h-1zm0 4.172v2.087h1V16.44h-1zm0 4.173v2.086h1v-2.086h-1zm0 4.172v2.086h1v-2.086h-1zm0 4.172V30h1v-1.043h-1zm.5 1.543h.878v-1H.15v1zm2.633 0h1.754v-1H2.783v1zm3.51 0h.877v-1h-.877v1zM7.67 30v-1.187h-1V30h1zm0-3.56v-2.374h-1v2.373h1zm0-4.748v-1.187h-1v1.187h1zm-.5-.687h.967v-1H7.17v1zm2.902 0h.968v-1h-.967v1zm.968 0c.311 0 .616-.002.914-.007l-.016-1a52.61 52.61 0 01-.898.007v1zm2.745-.07a34.095 34.095 0 001.833-.147l-.11-.994c-.554.06-1.147.108-1.778.142l.055.999zm3.665-.418c.32-.061.624-.129.913-.202l-.246-.97a14.32 14.32 0 01-.856.19l.19.982zm.911-.202c.408-.102.795-.22 1.159-.355l-.348-.938a9.99 9.99 0 01-1.053.323l.242.97zm3.315-1.561c.334-.277.627-.584.879-.919l-.8-.6c-.203.27-.441.52-.717.75l.638.769zm.874-.912c.262-.338.486-.71.672-1.116l-.91-.416a4.61 4.61 0 01-.552.918l.79.614zm1.303-3.567c.042-.395.062-.809.062-1.24h-1c0 .4-.019.778-.056 1.136l.994.104zm.062-1.24v-1.384h-1v1.384h1zm0-4.151V7.5h-1v1.384h1zm0-1.384c0-.392-.019-.767-.057-1.126l-.995.106c.035.32.052.66.052 1.02h1zm-.65-3.355a4.966 4.966 0 00-.632-1.01l-.776.63a4 4 0 01.505.808l.904-.428zm-.622-.997a4.926 4.926 0 00-.827-.851l-.63.776c.255.208.475.434.66.679l.797-.604zm-2.85-1.944c-.34-.12-.7-.223-1.08-.311l-.226.974c.348.08.673.175.974.28l.332-.943zm-1.078-.31a15.753 15.753 0 00-.858-.177l-.176.984c.284.05.552.106.804.166l.23-.974zM16.138.481A34.515 34.515 0 0014.42.355l-.05.999c.592.03 1.148.071 1.667.123l.1-.995zm-3.432-.18a47.91 47.91 0 00-.856-.007v1c.287 0 .567.002.842.006l.014-1zM11.85.294h-.975v1h.975v-1zm-2.925 0h-1.95v1h1.95v-1zm-3.9 0h-1.95v1h1.95v-1zm-3.9 0H.15v1h.975v-1zm10.5 14.895h-1.114v1h1.114v-1zm-3.341 0H7.17v1h1.114v-1zm-.614.5v-1.237h-1v1.237h1zm0-3.713V9.502h-1v2.475h1zm0-4.95V5.79h-1v1.237h1zm-.5-.737h1.091v-1H7.17v1zm3.274 0h1.091v-1h-1.091v1zm1.091 0c.354 0 .687.005.997.015l.031-1a33.22 33.22 0 00-1.028-.015v1zm2.946.18c.386.066.667.145.86.229l.398-.918a4.79 4.79 0 00-1.091-.296l-.167.986zm.867.232c.142.059.258.132.352.216l.665-.747a2.235 2.235 0 00-.633-.393l-.384.924zm.73.944c.027.142.042.302.042.484h1c0-.235-.02-.46-.06-.672l-.982.188zm.042.484V9.3h1V8.13h-1zm0 3.51v1.17h1v-1.17h-1zm0 1.17c0 .208-.017.396-.048.568l.984.18c.043-.238.064-.488.064-.748h-1zm-.483 1.498a1.73 1.73 0 01-.4.323l.515.858c.235-.141.444-.31.624-.506l-.739-.675zm-.386.316c-.2.112-.464.214-.801.3l.245.969c.396-.1.748-.23 1.044-.397l-.488-.872zm-2.662.544c-.3.014-.622.022-.964.022v1c.357 0 .694-.008 1.014-.024l-.05-.998zM.15.795v-1h-1v1h1zm18.45.585l-.23.973.004.001.226-.974zm3.645 2.07l-.797.604.01.013.01.014.777-.631zm-.09 14.085l-.79-.614-.005.007-.005.007.8.6zM18.24 19.83l-.242-.97h-.004l.246.97zm-11.07.675v-1h-1v1h1zm0 9.495v1h1v-1h-1zM.15 30h-1v1h1v-1zm15.345-14.94l.489.872.013-.007.012-.008-.514-.857zm.045-8.82l-.399.917.007.003.007.003.385-.923zm-8.37-.45v-1h-1v1h1zm0 9.9h-1v1h1v-1zM-.85.795v1.043h2V.795h-2zm0 3.13V6.01h2V3.924h-2zm0 4.171v2.086h2V8.096h-2zm0 4.172v2.086h2v-2.086h-2zm0 4.172v2.087h2V16.44h-2zm0 4.173v2.086h2v-2.086h-2zm0 4.172v2.086h2v-2.086h-2zm0 4.172V30h2v-1.043h-2zM.15 31h.878v-2H.15v2zm2.633 0h1.754v-2H2.783v2zm3.51 0h.877v-2h-.877v2zm1.877-1v-1.187h-2V30h2zm0-3.56v-2.374h-2v2.373h2zm0-4.748v-1.187h-2v1.187h2zm-1-.187h.967v-2H7.17v2zm2.902 0h.968v-2h-.967v2zm.968 0c.314 0 .621-.002.922-.007l-.031-2c-.29.005-.587.007-.891.007v2zm2.772-.07a34.663 34.663 0 001.86-.15l-.217-1.988c-.545.059-1.129.106-1.752.14l.11 1.997zm3.733-.427c.327-.063.642-.133.941-.209l-.492-1.938c-.259.066-.534.127-.828.183l.379 1.964zm.938-.208c.424-.106.828-.23 1.21-.371l-.695-1.875a9.54 9.54 0 01-1 .306l.485 1.94zm3.513-1.662c.362-.3.683-.635.959-1.003l-1.6-1.2a3.94 3.94 0 01-.637.665l1.278 1.538zm.948-.99a6.11 6.11 0 00.732-1.214l-1.818-.832c-.14.306-.305.578-.492.82l1.578 1.227zm1.407-3.821c.043-.414.064-.845.064-1.292h-2c0 .384-.018.745-.054 1.084l1.99.208zm.064-1.292v-1.384h-2v1.384h2zm0-4.151V7.5h-2v1.384h2zm0-1.384c0-.408-.02-.801-.06-1.18l-1.989.214c.032.3.049.622.049.966h2zm-.698-3.57a5.463 5.463 0 00-.696-1.11L21.47 4.08c.167.207.315.441.44.707l1.808-.856zm-.675-1.084a5.428 5.428 0 00-.91-.937L20.87 3.462c.225.183.417.38.577.592l1.594-1.208zM19.96.733a10.716 10.716 0 00-1.133-.327l-.452 1.948c.332.077.639.166.921.265L19.96.733zM18.83.407a16.276 16.276 0 00-.885-.182l-.352 1.969c.276.049.535.102.777.16l.46-1.947zm-2.642-.422a35.011 35.011 0 00-1.742-.13l-.101 1.998c.585.03 1.132.07 1.642.122l.2-1.99zM12.714-.2c-.282-.004-.57-.006-.864-.006v2c.284 0 .563.002.834.006l.03-2zm-.864-.006h-.975v2h.975v-2zm-2.925 0h-1.95v2h1.95v-2zm-3.9 0h-1.95v2h1.95v-2zm-3.9 0H.15v2h.975v-2zm10.5 14.895h-1.114v2h1.114v-2zm-3.341 0H7.17v2h1.114v-2zm-.114 1v-1.237h-2v1.237h2zm0-3.713V9.502h-2v2.475h2zm0-4.95V5.79h-2v1.237h2zm-1-.237h1.091v-2H7.17v2zm3.274 0h1.091v-2h-1.091v2zm1.091 0c.35 0 .677.005.982.014l.062-1.999c-.328-.01-.676-.015-1.044-.015v2zm2.863.174c.364.061.602.132.743.193l.798-1.834a5.274 5.274 0 00-1.208-.331l-.333 1.972zm.757.2c.097.04.164.084.212.127l1.33-1.493a2.736 2.736 0 00-.772-.481l-.77 1.846zm.432.576c.02.106.033.235.033.39h2c0-.262-.021-.518-.069-.766l-1.964.376zm.033.39V9.3h2V8.13h-2zm0 3.51v1.17h2v-1.17h-2zm0 1.17c0 .181-.014.34-.04.478l1.968.359c.05-.27.072-.55.072-.837h-2zm-.352 1.161c-.076.083-.17.16-.288.232l1.03 1.715a3.31 3.31 0 00.735-.598l-1.477-1.349zm-.262.216a2.84 2.84 0 01-.68.252l.492 1.938a4.8 4.8 0 001.166-.444l-.978-1.745zm-2.441.481c-.292.015-.605.022-.94.022v2c.364 0 .71-.008 1.038-.024l-.098-1.998zM30.613.795v-.5h-.5v.5h.5zm22.275 0h.5v-.5h-.5v.5zm0 4.995v.5h.5v-.5h-.5zm-15.255 0v-.5h-.5v.5h.5zm0 6.705h-.5v.5h.5v-.5zm13.77 0h.5v-.5h-.5v.5zm0 4.995v.5h.5v-.5h-.5zm-13.77 0v-.5h-.5v.5h.5zm0 7.515h-.5v.5h.5v-.5zm15.705 0h.5v-.5h-.5v.5zm0 4.995v.5h.5V30h-.5zm-22.725 0h-.5v.5h.5V30zm-.5-29.205v1.043h1V.795h-1zm0 3.13V6.01h1V3.924h-1zm0 4.171v2.086h1V8.096h-1zm0 4.172v2.086h1v-2.086h-1zm0 4.172v2.087h1V16.44h-1zm0 4.173v2.086h1v-2.086h-1zm0 4.172v2.086h1v-2.086h-1zm0 4.172V30h1v-1.043h-1zm.5 1.543h.947v-1h-.947v1zm2.84 0h1.894v-1h-1.894v1zm3.788 0h1.894v-1H37.24v1zm3.788 0h1.893v-1H41.03v1zm3.787 0h1.894v-1h-1.894v1zm3.787 0h1.894v-1h-1.894v1zm3.788 0h.947v-1h-.947v1zm1.447-.5v-1.249h-1V30h1zm0-3.746v-1.249h-1v1.249h1zm-.5-1.749h-.982v1h.982v-1zm-2.945 0H48.43v1h1.963v-1zm-3.926 0h-1.963v1h1.963v-1zm-3.926 0h-1.963v1h1.963v-1zm-3.926 0h-.982v1h.981v-1zm-.482.5v-.94h-1v.94h1zm0-2.818v-1.879h-1v1.879h1zm0-3.758v-.939h-1v.94h1zm-.5-.439h1.147v-1h-1.147v1zm3.442 0h2.295v-1h-2.295v1zm4.59 0h2.295v-1h-2.295v1zm4.59 0h1.148v-1h-1.148v1zm1.648-.5v-1.249h-1v1.249h1zm0-3.746v-1.249h-1v1.249h1zm-.5-1.749h-1.148v1h1.148v-1zm-3.443 0h-2.295v1h2.295v-1zm-4.59 0h-2.295v1h2.295v-1zm-4.59 0h-1.147v1h1.147v-1zm-.647.5v-.838h-1v.838h1zm0-2.514V8.304h-1v1.677h1zm0-3.353V5.79h-1v.838h1zm-.5-.338h.953v-1h-.953v1zm2.86 0H42.4v-1h-1.907v1zm3.814 0h1.907v-1h-1.907v1zm3.814 0h1.907v-1H48.12v1zm3.813 0h.954v-1h-.953v1zm1.454-.5V4.541h-1V5.79h1zm0-3.746V.795h-1v1.249h1zm-.5-1.749h-.928v1h.928v-1zm-2.785 0h-1.856v1h1.856v-1zm-3.712 0h-1.856v1h1.856v-1zm-3.712 0h-1.857v1h1.856v-1zm-3.713 0H37.11v1h1.856v-1zm-3.712 0h-1.857v1h1.857v-1zm-3.713 0h-.928v1h.928v-1zm-.928.5v-1h-1v1h1zm22.275 0h1v-1h-1v1zm0 4.995v1h1v-1h-1zm-15.255 0v-1h-1v1h1zm0 6.705h-1v1h1v-1zm13.77 0h1v-1h-1v1zm0 4.995v1h1v-1h-1zm-13.77 0v-1h-1v1h1zm0 7.515h-1v1h1v-1zm15.705 0h1v-1h-1v1zm0 4.995v1h1v-1h-1zm-22.725 0h-1v1h1v-1zm-1-29.205v1.043h2V.795h-2zm0 3.13V6.01h2V3.924h-2zm0 4.171v2.086h2V8.096h-2zm0 4.172v2.086h2v-2.086h-2zm0 4.172v2.087h2V16.44h-2zm0 4.173v2.086h2v-2.086h-2zm0 4.172v2.086h2v-2.086h-2zm0 4.172V30h2v-1.043h-2zm1 2.043h.947v-2h-.947v2zm2.84 0h1.894v-2h-1.894v2zm3.788 0h1.894v-2H37.24v2zm3.788 0h1.893v-2H41.03v2zm3.787 0h1.894v-2h-1.894v2zm3.787 0h1.894v-2h-1.894v2zm3.788 0h.947v-2h-.947v2zm1.947-1v-1.249h-2V30h2zm0-3.746v-1.249h-2v1.249h2zm-1-2.249h-.982v2h.982v-2zm-2.945 0H48.43v2h1.963v-2zm-3.926 0h-1.963v2h1.963v-2zm-3.926 0h-1.963v2h1.963v-2zm-3.926 0h-.982v2h.981v-2zm.018 1v-.94h-2v.94h2zm0-2.818v-1.879h-2v1.879h2zm0-3.758v-.939h-2v.94h2zm-1 .061h1.147v-2h-1.147v2zm3.442 0h2.295v-2h-2.295v2zm4.59 0h2.295v-2h-2.295v2zm4.59 0h1.148v-2h-1.148v2zm2.148-1v-1.249h-2v1.249h2zm0-3.746v-1.249h-2v1.249h2zm-1-2.249h-1.148v2h1.148v-2zm-3.443 0h-2.295v2h2.295v-2zm-4.59 0h-2.295v2h2.295v-2zm-4.59 0h-1.147v2h1.147v-2zm-.147 1v-.838h-2v.838h2zm0-2.514V8.304h-2v1.677h2zm0-3.353V5.79h-2v.838h2zm-1 .162h.953v-2h-.953v2zm2.86 0H42.4v-2h-1.907v2zm3.814 0h1.907v-2h-1.907v2zm3.814 0h1.907v-2H48.12v2zm3.813 0h.954v-2h-.953v2zm1.954-1V4.541h-2V5.79h2zm0-3.746V.795h-2v1.249h2zm-1-2.249h-.928v2h.928v-2zm-2.785 0h-1.856v2h1.856v-2zm-3.712 0h-1.856v2h1.856v-2zm-3.712 0h-1.857v2h1.856v-2zm-3.713 0H37.11v2h1.856v-2zm-3.712 0h-1.857v2h1.857v-2zm-3.713 0h-.928v2h.928v-2zM58.529 29.46h-.5v.404l.395.085.105-.489zm0-5.31l.111-.487-.611-.14v.627h.5zm5.175 1.035l-.077.494.01.002.067-.496zm9.135-.405l.23.444.011-.006-.241-.438zm-.09-6.885l-.144.479.004.001.14-.48zm-10.125-.405h-.5v.5h.5v-.5zm0-4.995v-.5h-.5v.5h.5zm8.775-.27l.131.482-.131-.482zm1.35-.765l.404.294.006-.008.006-.009-.416-.277zm-.72-5.67l.192-.462-.192.462zm-12.915.855h-.5v.64l.62-.155-.12-.485zm0-5.265L59.02.889l-.407.076v.415h.5zm18.495.27l-.23.444.006.003.224-.447zm1.62 11.385l.362.345.008-.009-.37-.336zm-2.16 1.26l-.122-.485-.378.095v.39h.5zm0 .135h-.5v.377l.362.104.138-.481zm1.035 14.31l.246.435.003-.001-.25-.434zm-8.91 1.21c-.299 0-.595-.002-.889-.005l-.012 1c.298.003.598.005.9.005v-1zm-2.663-.051a58.616 58.616 0 01-1.77-.097l-.07.998a59.61 59.61 0 001.8.098l.04-1zm-3.535-.25a44.84 44.84 0 01-1.756-.216l-.142.99c.585.083 1.183.157 1.794.22l.104-.994zm-3.498-.504c-.292-.055-.58-.113-.865-.174l-.209.978c.293.062.589.122.889.178l.185-.982zm-.47.315v-1.328h-1v1.328h1zm0-3.983V24.15h-1v1.328h1zm-.61-.84c.447.103.878.2 1.292.29l.213-.978c-.41-.09-.838-.185-1.283-.286l-.223.974zm3.895.817c.47.087.908.162 1.314.225l.154-.988a46.505 46.505 0 01-1.287-.22l-.181.983zm1.325.227c.364.048.737.09 1.117.126l.094-.996a27.731 27.731 0 01-1.08-.122l-.131.992zm3.357.259c.366.01.74.015 1.119.015v-1c-.371 0-.735-.005-1.092-.015l-.027 1zm1.119.015c.431 0 .839-.008 1.222-.024l-.041-.999a29.06 29.06 0 01-1.181.023v1zm3.695-.305c.488-.107.912-.246 1.26-.426l-.46-.888c-.246.127-.58.242-1.014.338l.215.976zm1.271-.432c.244-.134.463-.29.656-.47l-.68-.732a2.31 2.31 0 01-.459.326l.483.876zm1.477-1.894c.059-.253.087-.518.087-.794h-1c0 .208-.021.397-.061.568l.974.226zm.087-.794v-.709h-1v.709h1zm0-2.126v-.709h-1v.709h1zm0-.709c0-.263-.032-.514-.1-.75l-.96.277c.038.133.06.29.06.473h1zm-1.072-1.991a2.972 2.972 0 00-.684-.29l-.279.961c.181.053.331.117.455.19l.508-.861zm-.68-.288a7.95 7.95 0 00-1.135-.239l-.143.99c.396.057.725.127.991.207l.287-.958zm-3.36-.41c-.349-.01-.716-.016-1.103-.016v1c.378 0 .736.005 1.073.015l.03-1zm-1.103-.016h-1.451v1h1.45v-1zm-4.354 0h-1.451v1h1.451v-1zm-.951.5v-1.249h-1v1.249h1zm0-3.746v-1.249h-1v1.249h1zm-.5-.749h1.451v-1h-1.451v1zm4.354 0h1.45v-1h-1.45v1zm1.45 0c.267 0 .522-.004.763-.01l-.03-1c-.23.007-.475.01-.732.01v1zm2.308-.13a6.26 6.26 0 00.794-.158l-.263-.964c-.185.05-.408.095-.67.132l.139.99zm.794-.158c.147-.04.286-.083.417-.132l-.344-.939a4.164 4.164 0 01-.336.107l.263.964zm1.248-.572c.144-.111.27-.238.375-.38l-.809-.59a.894.894 0 01-.178.18l.612.79zm.387-.398c.093-.14.17-.292.231-.454l-.935-.355c-.038.1-.081.184-.128.255l.832.554zm.426-1.367c.012-.141.018-.288.018-.44h-1c0 .127-.005.245-.015.356l.997.084zm.018-.44v-.574h-1v.574h1zm0-1.721v-.574h-1v.574h1zm0-.574c0-.233-.02-.455-.062-.666l-.98.196c.027.138.042.294.042.47h1zm-.767-1.927a2.282 2.282 0 00-.621-.38l-.385.924c.142.059.258.13.351.211l.655-.755zm-.621-.38a5.062 5.062 0 00-1.06-.287l-.173.985c.367.064.646.141.848.226l.385-.924zm-3.1-.472c-.317-.01-.652-.016-1.007-.016v1c.345 0 .67.005.973.015l.033-1zm-1.007-.016c-.377 0-.765.01-1.163.03l.048.998c.383-.019.755-.028 1.115-.028v-1zm-3.47.234c-.73.092-1.49.21-2.28.354l.18.984a39.97 39.97 0 012.224-.346l-.124-.992zm-4.533.82c-.367.083-.74.172-1.118.266l.241.97c.373-.092.74-.18 1.1-.262l-.223-.975zm-.497.751V5.329h-1v1.316h1zm0-3.949V1.38h-1v1.316h1zm-.408-.825c.283-.053.565-.104.845-.153l-.173-.985c-.284.05-.57.102-.857.156l.185.982zm2.538-.428c.572-.085 1.139-.16 1.699-.227l-.118-.993a61.02 61.02 0 00-1.728.231l.147.99zm3.403-.404c.576-.05 1.145-.092 1.708-.123L66.8-.082a52.63 52.63 0 00-1.74.125l.087.996zm3.417-.186c.287-.005.572-.008.855-.008v-1c-.29 0-.581.003-.874.008l.019 1zm.855-.008c.354 0 .699.004 1.033.012l.023-1a45.982 45.982 0 00-1.056-.012v1zm3.091.117c.738.061 1.414.147 2.027.256l.175-.985a23.168 23.168 0 00-2.119-.268l-.083.997zm3.972.75c.333.117.631.244.897.382l.46-.888a8.046 8.046 0 00-1.024-.438l-.332.943zm.903.385c.385.193.716.419.994.675l.678-.735a5.284 5.284 0 00-1.225-.834l-.447.894zm2.124 2.729c.079.375.12.786.12 1.234h1c0-.509-.047-.99-.142-1.44l-.978.206zm.12 1.234v1.17h1V6.06h-1zm0 3.51v1.17h1V9.57h-1zm0 1.17c0 .187-.016.367-.048.538l.984.18a3.97 3.97 0 00.064-.718h-1zm-.437 1.526a3.215 3.215 0 01-.333.433l.74.672a4.23 4.23 0 00.435-.567l-.842-.538zm-.325.424c-.133.14-.272.267-.417.383l.624.781a5.23 5.23 0 00.517-.474l-.724-.69zm-1.382.946a3.98 3.98 0 01-.538.174l.243.97c.23-.057.453-.13.668-.216l-.373-.928zm-.916.659v.034h1v-.034h-1zm0 .101v.034h1v-.034h-1zm.362.515c.26.074.504.154.735.24l.348-.938a11.01 11.01 0 00-.808-.264l-.275.962zm2.085.907c.443.292.788.619 1.045.978l.813-.582a4.897 4.897 0 00-1.307-1.231l-.55.835zm1.585 2.26c.041.226.063.464.063.717h1c0-.31-.026-.609-.08-.898l-.983.181zm.063.717v1.181h1v-1.181h-1zm0 3.544v1.181h1v-1.181h-1zm0 1.181a6.8 6.8 0 01-.04.74l.994.11c.03-.276.046-.56.046-.85h-1zm-.386 2.152c-.18.447-.423.86-.73 1.237l.775.632a5.8 5.8 0 00.883-1.497l-.928-.372zm-1.797 2.232c-.195.14-.403.274-.626.402l.498.868c.25-.145.489-.298.714-.46l-.586-.81zm-.624.401c-.3.17-.625.328-.975.473l.383.924a9.8 9.8 0 001.085-.527l-.493-.87zm-3.08 1.122c-.675.151-1.41.27-2.205.356l.107.994c.827-.09 1.6-.214 2.317-.374l-.218-.976zm-4.452.506c-.368.011-.745.017-1.131.017v1a39.9 39.9 0 001.161-.017l-.03-1zm-11.796-.473h-1v.809l.79.169.21-.978zm0-5.31l.222-.975-1.222-.28v1.255h1zm5.175 1.035l-.154.988.01.002.011.001.133-.991zm9.135-.405l.46.888.011-.006.012-.006-.483-.876zm-.09-6.885l-.288.958.009.002.279-.96zm-10.125-.405h-1v1h1v-1zm0-4.995v-1h-1v1h1zm8.775-.27l.263.965-.263-.965zm1.35-.765l.808.588.013-.016.01-.017-.831-.555zm-.72-5.67l.384-.923-.384.923zm-12.915.855h-1v1.278l1.24-.307-.24-.971zm0-5.265l-.185-.983-.815.154v.829h1zm18.495.27l-.46.888.006.003.007.003.447-.894zm1.62 11.385l.724.69.008-.009.008-.008-.74-.673zm-2.16 1.26l-.243-.97-.757.19v.78h1zm0 .135h-1v.754l.725.208.275-.962zm1.035 14.31l.493.87.004-.002-.497-.868zm-8.91.71c-.297 0-.591-.002-.882-.005l-.025 2c.3.003.602.005.907.005v-2zm-2.643-.05a57.872 57.872 0 01-1.755-.096l-.14 1.995c.594.041 1.2.074 1.816.099l.08-1.999zm-3.503-.248a45.193 45.193 0 01-1.737-.214l-.283 1.98c.59.084 1.195.159 1.813.223l.207-1.99zm-3.458-.499a35.802 35.802 0 01-.852-.17l-.418 1.955c.296.063.596.123.9.18l.37-1.965zm-.061.807v-1.328h-2v1.328h2zm0-3.983V24.15h-2v1.328h2zm-1.223-.352c.45.103.882.2 1.298.29l.426-1.954c-.41-.09-.835-.184-1.279-.286l-.445 1.95zm3.916.82c.474.088.917.164 1.328.228l.307-1.976c-.39-.06-.813-.133-1.272-.218l-.363 1.967zm1.35.231c.37.05.75.093 1.137.129l.186-1.991a27.18 27.18 0 01-1.06-.12l-.264 1.982zm3.409.264c.371.01.749.015 1.133.015v-2c-.367 0-.726-.005-1.078-.015l-.055 2zm1.133.015c.437 0 .852-.008 1.243-.024l-.083-1.999c-.36.015-.747.023-1.16.023v2zm3.803-.316c.514-.113.982-.264 1.381-.47l-.919-1.777c-.195.1-.483.204-.891.293l.429 1.954zm1.405-.483a3.81 3.81 0 00.754-.54l-1.36-1.467a1.814 1.814 0 01-.36.255l.966 1.752zm1.722-2.22a4 4 0 00.1-.906h-2c0 .175-.018.325-.048.455l1.948.452zm.1-.906v-.709h-2v.709h2zm0-2.126v-.709h-2v.709h2zm0-.709c0-.302-.037-.601-.12-.89l-1.921.556c.023.081.04.19.04.334h2zm-1.318-2.422a3.466 3.466 0 00-.798-.338l-.558 1.92c.147.043.258.092.34.14l1.016-1.722zm-.79-.336a8.435 8.435 0 00-1.208-.254l-.286 1.98c.38.054.684.12.92.19l.574-1.916zm-3.49-.431c-.353-.01-.726-.016-1.117-.016v2c.374 0 .727.005 1.058.015l.06-2zm-1.117-.016h-1.451v2h1.45v-2zm-4.354 0h-1.451v2h1.451v-2zm-.451 1v-1.249h-2v1.249h2zm0-3.746v-1.249h-2v1.249h2zm-1-.249h1.451v-2h-1.451v2zm4.354 0h1.45v-2h-1.45v2zm1.45 0c.272 0 .531-.004.778-.011l-.06-2a20.32 20.32 0 01-.717.011v2zm2.377-.135a7.1 7.1 0 00.857-.17l-.526-1.93c-.16.044-.362.085-.61.12l.28 1.98zm.857-.17a5.66 5.66 0 00.457-.145l-.688-1.878a3.673 3.673 0 01-.295.093l.526 1.93zm1.422-.66a2.39 2.39 0 00.473-.482l-1.617-1.176a.405.405 0 01-.08.077l1.224 1.582zm.497-.515c.116-.175.21-.361.283-.555l-1.87-.71a.769.769 0 01-.077.155l1.664 1.11zm.508-1.602a5.72 5.72 0 00.02-.483h-2c0 .114-.005.218-.013.313l1.993.17zm.02-.483v-.574h-2v.574h2zm0-1.721v-.574h-2v.574h2zm0-.574c0-.26-.022-.517-.072-.764l-1.961.392c.02.1.033.224.033.372h2zm-.94-2.305a2.78 2.78 0 00-.756-.463l-.769 1.846c.098.04.166.085.216.128l1.31-1.511zm-.756-.463a5.552 5.552 0 00-1.166-.319l-.345 1.97c.345.06.585.13.742.195l.77-1.846zm-3.276-.511c-.322-.01-.663-.016-1.023-.016v2c.34 0 .659.005.957.015l.066-1.999zm-1.023-.016c-.386 0-.782.01-1.188.03l.098 1.997c.375-.018.739-.027 1.09-.027v-2zm-3.532.238c-.74.093-1.51.212-2.308.358l.36 1.968c.765-.14 1.497-.254 2.196-.341l-.248-1.985zM60 5.406c-.37.084-.746.174-1.127.268l.481 1.942c.37-.092.734-.179 1.091-.26L60 5.406zm.114 1.239V5.329h-2v1.316h2zm0-3.949V1.38h-2v1.316h2zm-.815-.333c.28-.053.56-.104.838-.153L59.791.24c-.286.05-.574.103-.862.157l.37 1.966zm2.518-.425c.568-.084 1.13-.16 1.685-.226l-.237-1.986c-.574.069-1.155.147-1.741.233l.293 1.979zm3.374-.401c.57-.05 1.134-.09 1.691-.121l-.11-1.997c-.579.031-1.165.073-1.757.126l.176 1.992zm3.382-.184c.284-.005.566-.008.846-.008v-2c-.293 0-.587.003-.883.008l.037 2zm.846-.008c.35 0 .691.004 1.022.011l.046-1.999a46.486 46.486 0 00-1.068-.012v2zm3.05.115c.725.06 1.385.144 1.981.25l.35-1.969a23.669 23.669 0 00-2.165-.274l-.166 1.993zm3.847.723c.314.11.59.23.833.355l.92-1.776a8.556 8.556 0 00-1.087-.465l-.666 1.886zm.846.361a3.8 3.8 0 01.879.596l1.355-1.471a5.78 5.78 0 00-1.34-.913l-.894 1.788zm1.857 2.385c.072.337.11.713.11 1.131h2c0-.539-.05-1.055-.153-1.544l-1.957.413zm.11 1.131v1.17h2V6.06h-2zm0 3.51v1.17h2V9.57h-2zm0 1.17a2.5 2.5 0 01-.04.449l1.968.358c.048-.265.072-.534.072-.807h-2zm-.359 1.257a2.722 2.722 0 01-.281.365l1.48 1.346c.181-.2.344-.412.487-.635l-1.686-1.076zm-.265.348a3.65 3.65 0 01-.367.337l1.248 1.563c.2-.16.388-.333.567-.52l-1.448-1.38zm-1.207.827a3.6 3.6 0 01-.472.153l.485 1.94a5.59 5.59 0 00.734-.237l-.747-1.856zm-1.23 1.123v.034h2v-.034h-2zm0 .101v.034h2v-.034h-2zm.726.995c.248.071.48.147.698.228l.697-1.875c-.27-.1-.552-.192-.846-.275l-.549 1.923zm1.947.844c.4.263.697.55.913.851l1.627-1.163a5.398 5.398 0 00-1.439-1.358l-1.1 1.67zm1.368 1.934c.036.193.055.402.055.626h2a5.48 5.48 0 00-.088-.989l-1.967.363zm.055.626v1.181h2v-1.181h-2zm0 3.544v1.181h2v-1.181h-2zm0 1.181c0 .238-.013.467-.037.685l1.988.22c.033-.295.049-.597.049-.905h-2zm-.35 1.965c-.161.4-.378.77-.654 1.108l1.55 1.263a6.256 6.256 0 00.96-1.626l-1.856-.745zm-1.626 2.013a6.4 6.4 0 01-.582.374l.995 1.736c.266-.153.519-.316.758-.489l-1.17-1.62zm-.578.372c-.28.16-.586.308-.92.446l.766 1.848c.403-.167.783-.351 1.141-.554l-.987-1.74zm-2.941 1.07a19.51 19.51 0 01-2.151.346l.215 1.988a21.51 21.51 0 002.372-.383l-.436-1.952zm-4.36.493a36.74 36.74 0 01-1.115.017v2c.4 0 .793-.006 1.176-.017l-.06-2zM88.558 30h-.5v.412l.404.079.096-.491zm0-5.13l.116-.486-.616-.147v.633h.5zm1.845.405l-.098.49.004.001.094-.491zm3.915-.405l.282.413.005-.003-.287-.41zm1.53-1.89l.447.224.003-.007-.45-.217zm.63-1.305l.45.217.111-.23-.121-.225-.44.238zM85.183.795v-.5h-.84l.4.738.44-.238zm7.335 0l.447-.224-.138-.276h-.31v.5zm7.335 14.67l-.447.224.138.276h.309v-.5zm.18 0v.5h.34l.125-.316-.465-.184zm5.805-14.67v-.5h-.34l-.125.316.465.184zm7.065 0l.456.206.318-.706h-.774v.5zM102.328 24.24l-.456-.206-.001.003.457.203zm-3.645 4.725l-.28-.415.28.415zm-6.21.985c-.297 0-.614-.012-.95-.036l-.071.998c.357.025.698.038 1.02.038v-1zm-2.864-.268c-.307-.05-.625-.108-.955-.173l-.192.982c.339.066.667.125.986.178l.162-.987zm-.551.318v-1.282h-1V30h1zm0-3.848V24.87h-1v1.282h1zm-.616-.796c.156.037.31.074.464.109l.223-.975-.455-.106-.232.972zm1.395.313l.468.096.196-.98c-.152-.03-.304-.062-.458-.094l-.206.978zm.472.097c.157.03.313.057.467.08l.147-.99c-.14-.02-.283-.045-.427-.072l-.187.982zm1.414.176c.162.009.322.013.48.013v-1a7.68 7.68 0 01-.426-.012l-.054.999zm.48.013c.21 0 .414-.011.613-.034l-.114-.993a4.387 4.387 0 01-.5.027v1zm1.832-.357a3.66 3.66 0 00.565-.315l-.565-.826a2.564 2.564 0 01-.406.227l.406.914zm.57-.318a4.52 4.52 0 00.533-.443l-.696-.718c-.133.13-.27.242-.411.341l.573.82zm1.37-1.5a7.49 7.49 0 00.32-.576l-.894-.448a6.258 6.258 0 01-.277.498l.85.526zm.323-.583l.158-.326-.901-.435-.158.327.901.434zm.473-.978l.157-.327-.9-.434-.158.326.9.435zm.147-.782l-.471-.87-.88.476.471.87.88-.476zm-1.412-2.61l-.942-1.74-.88.476.942 1.74.88-.476zm-1.883-3.48l-.941-1.74-.88.476.942 1.74.88-.476zm-1.882-3.48l-.942-1.74-.88.476.942 1.74.88-.476zm-1.883-3.48l-.941-1.74-.88.476.942 1.74.88-.476zm-1.882-3.48l-.942-1.74-.88.476.942 1.74.88-.476zm-1.883-3.48l-.47-.87-.88.476.47.87.88-.476zm-.91-.132h.917v-1h-.917v1zm2.75 0h1.834v-1h-1.834v1zm3.668 0h.917v-1H91.6v1zm.47-.276l.458.916.894-.447-.458-.917-.894.448zm1.375 2.75l.917 1.834.894-.447-.917-1.834-.894.447zm1.834 3.668l.916 1.833.895-.447-.917-1.833-.894.447zm1.833 3.667l.917 1.834.895-.447-.917-1.834-.895.447zm1.834 3.668l.459.917.894-.448-.458-.916-.895.447zm.906 1.193h.045v-1h-.045v1zm.135 0h.045v-1h-.045v1zm.51-.316l.363-.917-.93-.368-.363.917.93.368zm1.088-2.75l.726-1.834-.93-.368-.726 1.833.93.368zm1.451-3.668l.726-1.834-.93-.368-.725 1.834.929.368zm1.452-3.668l.725-1.833-.93-.368-.725 1.833.93.368zm1.451-3.667l.363-.917-.93-.368-.363.917.93.368zm-.102-.601h.883v-1h-.883v1zm2.649 0h1.766v-1h-1.766v1zm3.533 0h.883v-1h-.883v1zm.427-.706l-.441.977.912.411.441-.976-.912-.412zm-1.322 2.931l-.881 1.954.911.411.882-1.954-.912-.411zm-1.762 3.908l-.882 1.953.912.411.881-1.953-.911-.411zm-1.763 3.907l-.881 1.954.911.411.882-1.954-.912-.411zm-1.762 3.907l-.882 1.954.912.412.881-1.954-.911-.412zm-1.763 3.908l-.881 1.954.911.411.882-1.954-.912-.411zm-1.762 3.908l-.441.976.912.412.44-.977-.911-.412zm-.442.979c-.102.228-.206.45-.313.664l.895.446c.114-.228.224-.462.332-.704l-.914-.406zm-1.03 1.931c-.273.424-.559.81-.858 1.159l.759.65c.332-.386.645-.81.94-1.268l-.841-.54zm-1.872 2.16a7.232 7.232 0 01-.566.422l.56.83c.22-.149.434-.31.643-.482l-.637-.77zm-.566.422a6.216 6.216 0 01-.645.38l.455.89c.263-.134.513-.281.75-.44l-.56-.83zm-2.063.93c-.466.134-.97.24-1.515.317l.14.99a12.19 12.19 0 001.651-.346l-.275-.961zm-3.078.454c-.256.01-.52.016-.79.016v1c.284 0 .56-.005.83-.016l-.04-1zM88.558 30h-1v.823l.807.158.193-.981zm0-5.13l.231-.973-1.231-.293v1.266h1zm1.845.405l-.196.98.009.002.187-.982zm3.915-.405l.564.825.01-.006-.574-.819zm1.53-1.89l.894.447.006-.012-.9-.435zm.63-1.305l.9.435.223-.46-.244-.45-.88.475zM85.183.795v-1h-1.678l.798 1.476.88-.476zm7.335 0l.894-.447-.276-.553h-.618v1zm7.335 14.67l-.895.447.277.553h.618v-1zm.18 0v1h.68l.25-.632-.93-.368zm5.805-14.67v-1h-.68l-.25.632.93.368zm7.065 0l.911.411.637-1.411h-1.548v1zM102.328 24.24l-.912-.411-.002.005.914.406zm-3.645 4.725l-.559-.83.559.83zm-6.21.485c-.284 0-.589-.011-.915-.035l-.142 1.995c.368.027.72.04 1.057.04v-2zm-2.783-.262a31.4 31.4 0 01-.94-.17l-.385 1.963c.344.068.678.128 1.002.181l.323-1.974zm-.132.812v-1.282h-2V30h2zm0-3.848V24.87h-2v1.282h2zm-1.232-.31c.157.038.313.075.468.11l.447-1.95-.452-.105-.463 1.946zm1.409.317l.472.097.392-1.962c-.15-.03-.301-.06-.453-.093l-.411 1.958zm.48.098c.164.031.326.059.488.083l.293-1.978a9.099 9.099 0 01-.406-.07l-.374 1.965zm1.482.184c.17.01.339.014.506.014v-2c-.13 0-.264-.004-.4-.01l-.106 1.996zm.506.014a5.9 5.9 0 00.67-.037l-.228-1.987a3.878 3.878 0 01-.442.024v2zm2.035-.4c.226-.101.441-.22.644-.36l-1.129-1.65c-.101.07-.21.13-.328.182l.813 1.828zm.653-.366a4.83 4.83 0 00.596-.493l-1.394-1.435c-.114.11-.23.207-.349.29l1.147 1.638zm1.51-1.646c.12-.196.234-.401.341-.616l-1.789-.894a5.83 5.83 0 01-.254.458l1.701 1.052zm.347-.628l.158-.326-1.801-.87-.158.326 1.801.87zm.473-.979l.157-.326-1.8-.87-.158.327 1.8.869zm.136-1.237l-.47-.87-1.76.952.471.87 1.76-.952zm-1.412-2.61l-.94-1.74-1.76.952.941 1.74 1.76-.952zm-1.882-3.48l-.941-1.74-1.76.952.942 1.74 1.759-.952zm-1.883-3.48l-.94-1.74-1.76.952.941 1.74 1.76-.952zm-1.882-3.48l-.941-1.74-1.76.952.942 1.74 1.759-.952zm-1.883-3.48l-.94-1.74-1.76.952.941 1.74 1.76-.952zm-1.882-3.48l-.47-.87-1.76.952.47.87 1.76-.952zm-1.35.606h.917v-2h-.917v2zm2.75 0h1.834v-2h-1.834v2zm3.668 0h.917v-2H91.6v2zm.022-.553l.459.917 1.789-.894-.459-.917-1.789.894zM93 3.992l.916 1.835 1.79-.895-.918-1.834L93 3.993zm1.833 3.668l.917 1.834 1.79-.894-.918-1.834-1.789.894zm1.834 3.668l.917 1.834 1.789-.895-.917-1.834-1.789.895zm1.834 3.667l.458.917 1.789-.894-.458-.917-1.79.894zm1.353 1.47h.045v-2h-.045v2zm.135 0h.045v-2h-.045v2zm.975-.632l.362-.917-1.86-.736-.362.917 1.86.736zm1.088-2.75l.726-1.834-1.86-.736-.726 1.833 1.86.736zm1.451-3.668l.726-1.834-1.86-.736-.725 1.834 1.859.736zm1.452-3.668l.725-1.833-1.86-.736-.725 1.833 1.86.736zm1.451-3.667l.363-.917-1.86-.736-.363.917 1.86.736zm-.567-.285h.883v-2h-.883v2zm2.649 0h1.766v-2h-1.766v2zm3.533 0h.883v-2h-.883v2zm-.029-1.411l-.44.977 1.823.822.44-.977-1.823-.822zm-1.322 2.93l-.881 1.954 1.823.823.881-1.954-1.823-.823zm-1.762 3.908l-.881 1.954 1.823.822.881-1.954-1.823-.822zm-1.763 3.907l-.881 1.954 1.823.822.881-1.953-1.823-.822zm-1.762 3.908l-.881 1.954 1.823.822.881-1.954-1.823-.822zm-1.763 3.908l-.881 1.953 1.823.823.881-1.954-1.823-.822zm-1.762 3.907l-.441.977 1.823.822.441-.977-1.823-.822zm-.443.982c-.099.222-.2.436-.303.643l1.789.894c.118-.235.231-.477.342-.725l-1.828-.812zm-.994 1.864a9.955 9.955 0 01-.817 1.103l1.518 1.302c.348-.405.675-.847.981-1.324l-1.682-1.081zm-1.769 2.044a6.787 6.787 0 01-.527.394l1.117 1.658a8.53 8.53 0 00.683-.51l-1.273-1.542zm-.527.394c-.184.124-.382.24-.594.348l.91 1.781c.28-.143.547-.3.801-.47l-1.117-1.66zm-1.921.863c-.442.127-.924.229-1.449.303l.281 1.98a12.694 12.694 0 001.72-.36l-.552-1.923zm-2.96.436c-.25.01-.507.015-.77.015v2c.289 0 .572-.005.85-.017l-.08-1.998zm24.628.745l.108-.488-.013-.003-.013-.002-.082.493zm-1.17-.18h-.5v.441l.438.055.062-.496zm0-5.49l.067-.495-.567-.078v.573h.5zm5.13-1.125l.36.347.006-.006-.366-.341zm1.755-5.13l-.495-.076v.006l.495.07zm.585-17.46v-.5h-.5v.5h.5zm21.24 0h.5v-.5h-.5v.5zm0 29.205v.5h.5V30h-.5zm-7.02 0h-.5v.5h.5V30zm0-24.255h.5v-.5h-.5v.5zm-7.875 0v-.5h-.5v.5h.5zm-1.53 16.92l-.474-.16-.002.005.476.155zm-3.915 6.12l-.272-.42-.004.003.276.417zm-5.67 1.075c-.116 0-.234-.004-.354-.011l-.064.997c.141.01.28.014.418.014v-1zm-1.066-.097a7.987 7.987 0 01-.356-.071l-.217.976c.135.03.269.057.401.08l.172-.985zm-.382-.076a54.125 54.125 0 00-.294-.049l-.161.987.291.048.164-.986zm-.886-.141a14.381 14.381 0 00-.304-.042l-.124.992c.076.01.17.023.282.04l.146-.99zm.134.454v-1.372h-1V30h1zm0-4.117V24.51h-1v1.372h1zm-.568-.878c.147.02.288.038.425.054l.114-.994a19.787 19.787 0 01-.404-.05l-.135.99zm1.29.128c.155.008.303.012.443.012v-1a7.86 7.86 0 01-.392-.01l-.051.998zm.443.012c.352 0 .69-.022 1.013-.066l-.136-.991a6.435 6.435 0 01-.877.057v1zm2.989-.742c.307-.188.586-.412.836-.67l-.72-.695a3.24 3.24 0 01-.639.513l.523.852zm.842-.677c.316-.34.588-.773.824-1.284l-.908-.419c-.205.445-.424.78-.648 1.021l.732.682zm1.651-4.02c.086-.431.164-.892.233-1.381l-.99-.14c-.067.473-.142.915-.224 1.326l.981.196zm.232-1.375c.047-.308.091-.633.132-.976l-.993-.12c-.04.334-.082.649-.128.944l.989.152zm.322-2.927c.047-.609.088-1.259.122-1.95l-.998-.05a75.97 75.97 0 01-.121 1.923l.997.077zm.2-3.896c.02-.621.035-1.27.046-1.946l-1-.016c-.011.671-.026 1.315-.045 1.93l.999.032zm.066-3.89c.002-.32.003-.644.003-.973h-1c0 .328-.001.65-.003.967l1 .005zm.003-.973V5.183h-1v1.462h1zm0-4.387V.795h-1v1.462h1zm-.5-.963h1.062v-1h-1.062v1zm3.186 0h2.124v-1h-2.124v1zm4.248 0h2.124v-1h-2.124v1zm4.248 0h2.124v-1h-2.124v1zm4.248 0h2.124v-1h-2.124v1zm4.248 0h1.062v-1h-1.062v1zm.562-.5v1.043h1V.795h-1zm0 3.13V6.01h1V3.924h-1zm0 4.171v2.086h1V8.096h-1zm0 4.172v2.086h1v-2.086h-1zm0 4.172v2.087h1V16.44h-1zm0 4.173v2.086h1v-2.086h-1zm0 4.172v2.086h1v-2.086h-1zm0 4.172V30h1v-1.043h-1zm.5.543h-.878v1h.878v-1zm-2.633 0h-1.755v1h1.755v-1zm-3.51 0h-.877v1h.877v-1zm-.377.5v-1.01h-1V30h1zm0-3.032v-2.021h-1v2.021h1zm0-4.042v-2.022h-1v2.022h1zm0-4.043v-2.021h-1v2.021h1zm0-4.042v-2.022h-1v2.022h1zm0-4.043V8.777h-1v2.021h1zm0-4.042V5.745h-1v1.01h1zm-.5-1.511h-.985v1h.985v-1zm-2.953 0h-1.969v1h1.969v-1zm-3.938 0h-.984v1h.984v-1zm-1.484.5v1.013h1V5.745h-1zm0 3.038v1.012h1V8.783h-1zm0 1.012c0 .365-.003.725-.007 1.079l1 .012c.004-.358.007-.722.007-1.091h-1zm-.064 3.232a60.92 60.92 0 01-.126 2.147l.997.078c.054-.7.097-1.428.128-2.183l-.999-.042zm-.339 4.283c-.092.745-.2 1.449-.323 2.113l.983.182c.128-.685.238-1.41.333-2.173l-.993-.122zm-.794 4.186c-.097.352-.199.689-.307 1.01l.948.319c.114-.34.222-.695.323-1.064l-.964-.265zm-.309 1.014c-.096.295-.195.58-.297.855l.937.348c.107-.288.211-.586.311-.893l-.951-.31zm-1.004 2.507a11.729 11.729 0 01-.896 1.53l.819.573c.347-.495.671-1.049.973-1.66l-.896-.443zm-2.035 2.833a5.56 5.56 0 01-.672.515l.544.84c.274-.178.539-.382.794-.61l-.666-.745zm-.676.518a8.54 8.54 0 01-1.235.676l.405.914a9.444 9.444 0 001.381-.756l-.551-.834zm-3.964 1.41a12 12 0 01-1.43.082v1c.531 0 1.048-.03 1.549-.09l-.119-.993zm-2.96.402l.217-.976-.026-.006-.027-.004-.164.986zm-1.17-.18h-1v.883l.876.11.124-.993zm0-5.49l.135-.99-1.135-.156v1.146h1zm5.13-1.125l.72.694.006-.006.006-.007-.732-.681zm1.755-5.13l-.989-.151-.001.011.99.14zm.585-17.46v-1h-1v1h1zm21.24 0h1v-1h-1v1zm0 29.205v1h1v-1h-1zm-7.02 0h-1v1h1v-1zm0-24.255h1v-1h-1v1zm-7.875 0v-1h-1v1h1zm-1.53 16.92l-.948-.32-.003.01.951.31zm-3.915 6.12l-.544-.84-.007.006.551.834zm-5.67.575a4.99 4.99 0 01-.322-.01l-.128 1.995c.152.01.301.015.45.015v-2zm-.98-.09a7.248 7.248 0 01-.333-.066l-.434 1.952c.142.032.283.06.424.084l.343-1.97zm-.386-.076a54.764 54.764 0 00-.296-.05l-.321 1.975.288.047.329-1.972zm-.896-.143a15.352 15.352 0 00-.314-.043l-.248 1.984.271.038.291-1.979zm.562.949v-1.372h-2V30h2zm0-4.117V24.51h-2v1.372h2zm-1.135-.382c.149.02.295.038.435.055l.228-1.987a18.72 18.72 0 01-.393-.05l-.27 1.982zm1.331.131c.163.009.319.013.469.013v-2a6.98 6.98 0 01-.367-.01l-.102 1.997zm.469.013a7.92 7.92 0 001.082-.071l-.274-1.981a5.904 5.904 0 01-.808.052v2zm3.25-.815c.343-.21.655-.461.935-.75l-1.44-1.39a2.723 2.723 0 01-.54.434l1.045 1.706zm.947-.764c.361-.388.661-.87.912-1.414l-1.816-.838c-.19.41-.381.697-.56.89l1.464 1.362zm1.776-4.262c.088-.442.167-.912.237-1.41l-1.98-.279a23.64 23.64 0 01-.219 1.299l1.962.39zm.235-1.398c.048-.313.093-.644.135-.992l-1.986-.238c-.04.329-.081.638-.126.928l1.977.302zm.326-2.963c.048-.614.089-1.269.124-1.963l-1.998-.1a70.3 70.3 0 01-.12 1.908l1.994.155zm.202-3.92c.02-.624.035-1.274.046-1.952l-2-.033c-.011.669-.026 1.31-.045 1.923l1.999.062zm.066-3.903c.002-.32.003-.645.003-.975h-2c0 .327-.001.648-.003.965l2 .01zm.003-.975V5.183h-2v1.462h2zm0-4.387V.795h-2v1.462h2zm-1-.463h1.062v-2h-1.062v2zm3.186 0h2.124v-2h-2.124v2zm4.248 0h2.124v-2h-2.124v2zm4.248 0h2.124v-2h-2.124v2zm4.248 0h2.124v-2h-2.124v2zm4.248 0h1.062v-2h-1.062v2zm.062-1v1.043h2V.795h-2zm0 3.13V6.01h2V3.924h-2zm0 4.171v2.086h2V8.096h-2zm0 4.172v2.086h2v-2.086h-2zm0 4.172v2.087h2V16.44h-2zm0 4.173v2.086h2v-2.086h-2zm0 4.172v2.086h2v-2.086h-2zm0 4.172V30h2v-1.043h-2zm1 .043h-.878v2h.878v-2zm-2.633 0h-1.755v2h1.755v-2zm-3.51 0h-.877v2h.877v-2zm.123 1v-1.01h-2V30h2zm0-3.032v-2.021h-2v2.021h2zm0-4.042v-2.022h-2v2.022h2zm0-4.043v-2.021h-2v2.021h2zm0-4.042v-2.022h-2v2.022h2zm0-4.043V8.777h-2v2.021h2zm0-4.042V5.745h-2v1.01h2zm-1-2.011h-.985v2h.985v-2zm-2.953 0h-1.969v2h1.969v-2zm-3.938 0h-.984v2h.984v-2zm-1.984 1v1.013h2V5.745h-2zm0 3.038v1.012h2V8.783h-2zm0 1.012c0 .363-.002.72-.007 1.072l2 .025c.004-.36.007-.726.007-1.097h-2zm-.064 3.212c-.03.738-.072 1.448-.125 2.129l1.994.154c.055-.706.098-1.44.13-2.2l-1.999-.083zm-.335 4.241a34.24 34.24 0 01-.319 2.083l1.967.366c.129-.697.241-1.431.337-2.203l-1.985-.246zm-.78 4.115a17.48 17.48 0 01-.299.983l1.895.638c.118-.35.229-.713.332-1.09l-1.928-.53zm-.302.991c-.094.29-.191.568-.291.837l1.875.696c.109-.295.215-.598.317-.911l-1.901-.622zm-.978 2.442a11.25 11.25 0 01-.856 1.464l1.638 1.147c.363-.518.7-1.095 1.011-1.725l-1.793-.886zm-1.919 2.68c-.2.18-.404.336-.611.47l1.088 1.678c.297-.193.582-.412.855-.655l-1.332-1.492zm-.618.475a8.03 8.03 0 01-1.163.636l.811 1.828a10 10 0 001.454-.796l-1.102-1.668zm-3.749 1.33c-.438.052-.895.079-1.37.079v2c.55 0 1.087-.03 1.608-.093l-.238-1.986zM153.959.795v-.5h-.5v.5h.5zm7.02 0h.5v-.5h-.5v.5zm0 10.71h-.5v.5h.5v-.5zm10.35.405l-.08.494.01.001.07-.495zm4.005 1.71l-.342.365.005.005.007.006.33-.376zM153.959 30h-.5v.5h.5V30zm14.625-5.715l.255.43.011-.007-.266-.423zm.045-7.29l-.195.46.195-.46zm-7.695-.495V16h-.5v.5h.5zm0 8.505h-.5v.5h.5v-.5zM153.459.795v1.043h1V.795h-1zm0 3.13V6.01h1V3.924h-1zm0 4.171v2.086h1V8.096h-1zm0 4.172v2.086h1v-2.086h-1zm0 4.172v2.087h1V16.44h-1zm0 4.173v2.086h1v-2.086h-1zm0 4.172v2.086h1v-2.086h-1zm0 4.172V30h1v-1.043h-1zm.5 1.543h.922v-1h-.922v1zm2.767 0h1.845v-1h-1.845v1zm3.69 0h1.845v-1h-1.845v1zm3.69 0h.923v-1h-.923v1zm.923 0a39 39 0 00.977-.012l-.026-1c-.31.008-.627.012-.951.012v1zm2.929-.12a22.957 22.957 0 001.95-.253l-.172-.985a22.17 22.17 0 01-1.867.241l.089.996zm3.88-.706a11.108 11.108 0 001.869-.745l-.459-.889c-.501.259-1.067.485-1.7.677l.29.957zm3.559-1.916a5.863 5.863 0 001.258-1.669l-.894-.448a4.866 4.866 0 01-1.046 1.386l.682.731zm1.856-3.662c.044-.331.066-.673.066-1.026h-1c0 .312-.019.61-.057.895l.991.131zm.066-1.026v-1.372h-1v1.372h1zm0-4.117V17.58h-1v1.373h1zm0-1.373c0-.404-.025-.79-.075-1.156l-.991.135c.044.317.066.657.066 1.021h1zm-.856-3.404a4.375 4.375 0 00-.799-.932l-.66.752c.238.21.443.448.616.719l.843-.539zm-.787-.92a5.978 5.978 0 00-.959-.73l-.524.851c.294.181.56.384.799.608l.684-.73zm-3.14-1.622a10.9 10.9 0 00-1.138-.22l-.139.991c.365.051.709.118 1.034.2l.243-.97zm-1.128-.218a22.953 22.953 0 00-.868-.121l-.12.993c.292.035.569.074.829.116l.159-.988zm-2.601-.282a50.51 50.51 0 00-1.729-.088l-.035 1c.601.02 1.166.05 1.695.086l.069-.998zm-3.456-.125a86.642 86.642 0 00-.862-.004v1c.29 0 .574.001.852.004l.01-1zm-.862-.004h-.878v1h.878v-1zm-2.633 0h-.877v1h.877v-1zm-.377.5v-.893h-1v.893h1zm0-2.678V7.044h-1v1.785h1zm0-3.57V3.474h-1v1.785h1zm0-3.57V.795h-1v.892h1zm-.5-1.392h-.878v1h.878v-1zm-2.633 0h-1.755v1h1.755v-1zm-3.51 0h-.877v1h.877v-1zm9.878 24.21h-.945v1h.945v-1zm-2.835 0h-.945v1h.945v-1zm-.445.5v-1.063h-1v1.063h1zm0-3.19V19.69h-1v2.127h1zm0-4.252V16.5h-1v1.063h1zm-.5-.563h.967v-1h-.967v1zm2.902 0h.968v-1h-.968v1zm.968 0c.335 0 .652.006.949.018l.04-1a24.764 24.764 0 00-.989-.018v1zm2.798.213c.34.069.615.15.832.242l.389-.92a5.332 5.332 0 00-1.025-.302l-.196.98zm.832.242c.155.066.283.143.387.229l.633-.774a2.56 2.56 0 00-.631-.375l-.389.92zm.816.95c.031.14.049.3.049.48h1c0-.244-.024-.478-.073-.7l-.976.22zm.049.48v.776h1v-.776h-1zm0 2.329v.776h1v-.776h-1zm0 .776c0 .209-.02.399-.057.573l.979.207c.052-.25.078-.51.078-.78h-1zm-.549 1.523c-.12.125-.264.242-.433.349l.533.846c.233-.146.441-.314.623-.504l-.723-.691zm-.421.342a3.48 3.48 0 01-.801.334l.282.96a4.522 4.522 0 001.029-.434l-.51-.86zm-2.651.623c-.302.018-.623.027-.964.027v1c.359 0 .7-.01 1.024-.03l-.06-.997zM153.959.795v-1h-1v1h1zm7.02 0h1v-1h-1v1zm0 10.71h-1v1h1v-1zm10.35.405l-.159.987.01.002.01.001.139-.99zm4.005 1.71l-.684.73.011.01.012.011.661-.751zM153.959 30h-1v1h1v-1zm14.625-5.715l.509.86.012-.007.011-.007-.532-.846zm.045-7.29l-.39.921.39-.921zm-7.695-.495v-1h-1v1h1zm0 8.505h-1v1h1v-1zM152.959.795v1.043h2V.795h-2zm0 3.13V6.01h2V3.924h-2zm0 4.171v2.086h2V8.096h-2zm0 4.172v2.086h2v-2.086h-2zm0 4.172v2.087h2V16.44h-2zm0 4.173v2.086h2v-2.086h-2zm0 4.172v2.086h2v-2.086h-2zm0 4.172V30h2v-1.043h-2zm1 2.043h.922v-2h-.922v2zm2.767 0h1.845v-2h-1.845v2zm3.69 0h1.845v-2h-1.845v2zm3.69 0h.923v-2h-.923v2zm.923 0c.336 0 .666-.004.99-.012l-.051-2a35.94 35.94 0 01-.939.012v2zm2.973-.123a23.664 23.664 0 001.993-.258l-.346-1.97c-.567.1-1.174.179-1.824.236l.177 1.992zm3.982-.724a11.59 11.59 0 001.952-.78l-.917-1.777a9.597 9.597 0 01-1.617.643l.582 1.914zm3.754-2.029a6.363 6.363 0 001.364-1.811l-1.788-.896c-.229.457-.54.871-.94 1.244l1.364 1.463zm2.011-3.963c.047-.354.07-.718.07-1.091h-2c0 .291-.018.568-.053.83l1.983.261zm.07-1.091v-1.372h-2v1.372h2zm0-4.117V17.58h-2v1.373h2zm0-1.373a9.11 9.11 0 00-.079-1.223l-1.982.27c.04.292.061.61.061.953h2zm-.935-3.673a4.86 4.86 0 00-.89-1.038l-1.321 1.502c.203.178.378.382.526.614l1.685-1.079zm-.866-1.017a6.516 6.516 0 00-1.039-.79l-1.048 1.703c.266.164.505.346.719.546l1.368-1.459zm-3.36-1.74a11.5 11.5 0 00-1.19-.23l-.278 1.98c.348.05.675.112.981.19l.487-1.94zm-1.171-.227a22.755 22.755 0 00-.887-.124l-.241 1.985c.287.035.557.073.811.113l.317-1.974zm-2.646-.288a51.388 51.388 0 00-1.746-.088l-.069 1.999c.596.02 1.155.048 1.678.084l.137-1.995zm-3.485-.126a87.66 87.66 0 00-.867-.004v2c.288 0 .571.001.847.004l.02-2zm-.867-.004h-.878v2h.878v-2zm-2.633 0h-.877v2h.877v-2zm.123 1v-.893h-2v.893h2zm0-2.678V7.044h-2v1.785h2zm0-3.57V3.474h-2v1.785h2zm0-3.57V.795h-2v.892h2zm-1-1.892h-.878v2h.878v-2zm-2.633 0h-1.755v2h1.755v-2zm-3.51 0h-.877v2h.877v-2zm9.878 24.21h-.945v2h.945v-2zm-2.835 0h-.945v2h.945v-2zm.055 1v-1.063h-2v1.063h2zm0-3.19V19.69h-2v2.127h2zm0-4.252V16.5h-2v1.063h2zm-1-.063h.967v-2h-.967v2zm2.902 0h.968v-2h-.968v2zm.968 0c.329 0 .639.006.929.018l.081-1.999c-.32-.013-.657-.019-1.01-.019v2zm2.699.204c.317.063.558.137.736.212l.779-1.842a5.84 5.84 0 00-1.122-.331l-.393 1.96zm.736.212c.116.05.202.103.266.155l1.266-1.549a3.094 3.094 0 00-.753-.448l-.779 1.842zm.523.598c.022.1.037.222.037.371h2a3.68 3.68 0 00-.086-.809l-1.951.438zm.037.371v.776h2v-.776h-2zm0 2.329v.776h2v-.776h-2zm0 .776c0 .177-.017.333-.046.47l1.957.413c.06-.286.089-.581.089-.883h-2zm-.41 1.177a1.79 1.79 0 01-.338.272l1.065 1.692c.265-.166.506-.36.718-.582l-1.445-1.382zm-.315.258a3.03 3.03 0 01-.687.285l.564 1.918a5 5 0 001.142-.483l-1.019-1.72zm-2.426.554a15.59 15.59 0 01-.934.026v2c.368 0 .719-.01 1.054-.03l-.12-1.996zM190.776 5.79h.5v-.5h-.5v.5zm-9 0h-.5v.5h.5v-.5zm0-4.995v-.5h-.5v.5h.5zm24.975 0h.5v-.5h-.5v.5zm0 4.995v.5h.5v-.5h-.5zm-8.955 0v-.5h-.5v.5h.5zm0 24.21v.5h.5V30h-.5zm-7.02 0h-.5v.5h.5V30zm0-24.71h-1.125v1h1.125v-1zm-3.375 0h-2.25v1h2.25v-1zm-4.5 0h-1.125v1h1.125v-1zm-.625.5V4.541h-1V5.79h1zm0-3.746V.795h-1v1.249h1zm-.5-.749h1.041v-1h-1.041v1zm3.122 0h2.081v-1h-2.081v1zm4.162 0h2.082v-1h-2.082v1zm4.163 0h2.081v-1h-2.081v1zm4.162 0h2.082v-1h-2.082v1zm4.163 0h2.081v-1h-2.081v1zm4.162 0h1.041v-1h-1.041v1zm.541-.5v1.249h1V.795h-1zm0 3.746V5.79h1V4.541h-1zm.5.749h-1.119v1h1.119v-1zm-3.358 0h-2.239v1h2.239v-1zm-4.478 0h-1.119v1h1.119v-1zm-1.619.5v1.009h1V5.79h-1zm0 3.026v2.018h1V8.816h-1zm0 4.035v2.018h1V12.85h-1zm0 4.035v2.018h1v-2.018h-1zm0 4.035v2.018h1V20.92h-1zm0 4.035v2.018h1v-2.018h-1zm0 4.035V30h1v-1.009h-1zm.5.509h-.878v1h.878v-1zm-2.633 0h-1.755v1h1.755v-1zm-3.51 0h-.877v1h.877v-1zm-.377.5v-1.009h-1V30h1zm0-3.026v-2.018h-1v2.018h1zm0-4.035V20.92h-1v2.018h1zm0-4.035v-2.018h-1v2.018h1zm0-4.035V12.85h-1v2.018h1zm0-4.035V8.816h-1v2.018h1zm0-4.035V5.79h-1v1.009h1zm-.5-1.009h1v-1h-1v1zm-9 0h-1v1h1v-1zm0-4.995v-1h-1v1h1zm24.975 0h1v-1h-1v1zm0 4.995v1h1v-1h-1zm-8.955 0v-1h-1v1h1zm0 24.21v1h1v-1h-1zm-7.02 0h-1v1h1v-1zm0-25.21h-1.125v2h1.125v-2zm-3.375 0h-2.25v2h2.25v-2zm-4.5 0h-1.125v2h1.125v-2zm-.125 1V4.541h-2V5.79h2zm0-3.746V.795h-2v1.249h2zm-1-.249h1.041v-2h-1.041v2zm3.122 0h2.081v-2h-2.081v2zm4.162 0h2.082v-2h-2.082v2zm4.163 0h2.081v-2h-2.081v2zm4.162 0h2.082v-2h-2.082v2zm4.163 0h2.081v-2h-2.081v2zm4.162 0h1.041v-2h-1.041v2zm.041-1v1.249h2V.795h-2zm0 3.746V5.79h2V4.541h-2zm1 .249h-1.119v2h1.119v-2zm-3.358 0h-2.239v2h2.239v-2zm-4.478 0h-1.119v2h1.119v-2zm-2.119 1v1.009h2V5.79h-2zm0 3.026v2.018h2V8.816h-2zm0 4.035v2.018h2V12.85h-2zm0 4.035v2.018h2v-2.018h-2zm0 4.035v2.018h2V20.92h-2zm0 4.035v2.018h2v-2.018h-2zm0 4.035V30h2v-1.009h-2zm1 .009h-.878v2h.878v-2zm-2.633 0h-1.755v2h1.755v-2zm-3.51 0h-.877v2h.877v-2zm.123 1v-1.009h-2V30h2zm0-3.026v-2.018h-2v2.018h2zm0-4.035V20.92h-2v2.018h2zm0-4.035v-2.018h-2v2.018h2zm0-4.035V12.85h-2v2.018h2zm0-4.035V8.816h-2v2.018h2zm0-4.035V5.79h-2v1.009h2zM220.779.795v-.5h-.349l-.12.327.469.173zm8.55 0l.47-.17-.119-.33h-.351v.5zM239.859 30v.5h.711l-.241-.67-.47.17zm-7.11 0l-.474.16.115.34h.359V30zm-2.61-7.695l.473-.16-.115-.34h-.358v.5zm-10.665 0v-.5h-.361l-.114.342.475.158zM216.909 30v.5h.36l.114-.342-.474-.158zm-6.93 0l-.469-.173-.249.673h.718V30zm18.63-12.375v.5h.695l-.221-.66-.474.16zm-3.69-10.98l.474-.16-.115-.34h-.359v.5zm-.18 0v-.5h-.36l-.114.34.474.16zm-3.69 10.98l-.474-.16-.222.66h.696v-.5zM220.31.622l-.338.912.938.347.338-.913-.938-.346zm-1.013 2.738l-.675 1.825.938.347.675-1.826-.938-.346zm-1.35 3.65l-.675 1.825.938.347.675-1.825-.938-.347zm-1.35 3.65l-.675 1.826.938.347.675-1.825-.938-.347zm-1.35 3.651l-.675 1.826.938.347.675-1.826-.938-.347zm-1.35 3.651l-.675 1.825.938.347.675-1.825-.938-.347zm-1.35 3.65l-.675 1.826.938.347.675-1.826-.938-.346zm-1.35 3.651l-.675 1.826.938.346.675-1.825-.938-.347zm-1.35 3.65l-.337.914.938.346.337-.912-.938-.347zm.132 1.587h.866v-1h-.866v1zm2.598 0h1.733v-1h-1.733v1zm3.465 0h.867v-1h-.867v1zm1.341-.342l.321-.962-.949-.316-.321.962.949.316zm.962-2.886l.641-1.923-.949-.317-.641 1.924.949.317zm1.282-3.847l.321-.962-.949-.316-.32.962.948.316zm-.153-.62h.888v-1h-.888v1zm2.666 0h1.777v-1h-1.777v1zm3.555 0h1.777v-1h-1.777v1zm3.555 0h.889v-1h-.889v1zm.415-.34l.326.962.947-.32-.326-.963-.947.322zm.979 2.886l.652 1.924.947-.321-.652-1.924-.947.321zm1.305 3.848l.326.962.947-.322-.326-.961-.947.32zm.8 1.301h.888v-1h-.888v1zm2.666 0h1.777v-1h-1.777v1zm3.555 0h.889v-1h-.889v1zm1.359-.67l-.329-.912-.941.339.329.913.941-.34zm-.987-2.738l-.658-1.825-.941.34.658 1.825.941-.34zm-1.316-3.65l-.659-1.826-.94.34.658 1.825.941-.34zm-1.317-3.65l-.658-1.826-.94.34.658 1.824.94-.339zm-1.316-3.651l-.658-1.826-.941.34.658 1.825.941-.34zm-1.316-3.651l-.658-1.825-.941.339.658 1.825.941-.34zm-1.316-3.65l-.659-1.826-.94.34.658 1.824.941-.339zm-1.317-3.651l-.658-1.826-.94.34.658 1.825.94-.34zm-1.316-3.65l-.329-.914-.941.34.329.912.941-.339zm-.799-1.244h-1.069v1h1.069v-1zm-3.207 0h-2.137v1h2.137v-1zm-4.275 0h-1.068v1h1.068v-1zm6.762 16.83h-.945v1h.945v-1zm-2.835 0h-1.89v1h1.89v-1zm-3.78 0h-.945v1h.945v-1zm-.471.66l.307-.916-.948-.318-.307.915.948.318zm.922-2.746l.615-1.83-.948-.318-.615 1.83.948.318zm1.23-3.66l.615-1.83-.948-.318-.615 1.83.948.318zm1.23-3.66l.308-.915-.948-.318-.308.915.948.318zm-.166-.574h.045v-1h-.045v1zm.135 0h.045v-1h-.045v1zm-.429-.34l.307.914.948-.318-.307-.915-.948.318zm.922 2.744l.615 1.83.948-.318-.615-1.83-.948.318zm1.23 3.66l.615 1.83.948-.318-.615-1.83-.948.318zm1.23 3.66l.308.915.948-.318-.308-.915-.948.318zM220.779.795v-1h-.697l-.241.653.938.347zm8.55 0l.94-.34-.238-.66h-.702v1zM239.859 30v1h1.423l-.483-1.34-.94.34zm-7.11 0l-.947.321.23.679h.717v-1zm-2.61-7.695l.947-.321-.231-.679h-.716v1zm-10.665 0v-1h-.721l-.228.684.949.316zM216.909 30v1h.72l.228-.684-.948-.316zm-6.93 0l-.938-.347-.498 1.347h1.436v-1zm18.63-12.375v1H230l-.443-1.319-.948.319zm-3.69-10.98l.948-.319-.229-.681h-.719v1zm-.18 0v-1h-.719l-.229.681.948.319zm-3.69 10.98l-.948-.319-.443 1.319h1.391v-1zM219.841.448l-.338.913 1.876.694.338-.913-1.876-.694zm-1.013 2.738l-.675 1.825 1.876.694.675-1.825-1.876-.694zm-1.35 3.65l-.675 1.826 1.876.694.675-1.826-1.876-.693zm-1.35 3.651l-.675 1.826 1.876.693.675-1.825-1.876-.694zm-1.35 3.651l-.675 1.825 1.876.694.675-1.825-1.876-.694zm-1.35 3.65l-.675 1.826 1.876.694.675-1.826-1.876-.693zm-1.35 3.651l-.675 1.826 1.876.693.675-1.825-1.876-.694zm-1.35 3.65l-.675 1.826 1.876.694.675-1.825-1.876-.694zm-1.35 3.652l-.337.912 1.876.694.337-.913-1.876-.694zm.601 2.259h.866v-2h-.866v2zm2.598 0h1.733v-2h-1.733v2zm3.465 0h.867v-2h-.867v2zm1.815-.684l.321-.962-1.897-.632-.321.962 1.897.632zm.962-2.885l.641-1.924-1.897-.633-.641 1.924 1.897.633zm1.283-3.848l.32-.962-1.897-.632-.321.962 1.898.632zm-.628-.278h.888v-2h-.888v2zm2.666 0h1.777v-2h-1.777v2zm3.555 0h1.777v-2h-1.777v2zm3.555 0h.889v-2h-.889v2zm-.058-.679l.326.962 1.894-.642-.326-.962-1.894.642zm.978 2.886l.653 1.924 1.894-.643-.653-1.924-1.894.643zm1.305 3.847l.327.962 1.894-.642-.327-.962-1.894.642zM232.749 31h.888v-2h-.888v2zm2.666 0h1.777v-2h-1.777v2zm3.555 0h.889v-2h-.889v2zm1.829-1.34l-.329-.912-1.881.678.329.913 1.881-.678zm-.987-2.737l-.658-1.825-1.881.678.658 1.825 1.881-.678zm-1.316-3.65l-.658-1.826-1.882.678.659 1.826 1.881-.679zm-1.316-3.651l-.658-1.826-1.882.679.658 1.825 1.882-.678zm-1.317-3.651l-.658-1.825-1.881.678.658 1.825 1.881-.678zm-1.316-3.65l-.658-1.826-1.881.678.658 1.826 1.881-.679zm-1.316-3.651l-.658-1.826-1.882.679.659 1.825 1.881-.678zm-1.316-3.65l-.658-1.826-1.882.678.658 1.825 1.882-.678zm-1.317-3.652l-.329-.912-1.881.678.329.913 1.881-.679zm-1.269-1.573h-1.069v2h1.069v-2zm-3.207 0h-2.137v2h2.137v-2zm-4.275 0h-1.068v2h1.068v-2zm6.762 16.83h-.945v2h.945v-2zm-2.835 0h-1.89v2h1.89v-2zm-3.78 0h-.945v2h.945v-2zm.003 1.319l.307-.915-1.896-.638-.307.915 1.896.638zm.922-2.745l.615-1.83-1.896-.638-.615 1.83 1.896.638zm1.23-3.66l.615-1.83-1.896-.638-.615 1.83 1.896.638zm1.23-3.66l.308-.915-1.896-.638-.308.915 1.896.638zm-.64-.234h.045v-2h-.045v2zm.135 0h.045v-2h-.045v2zm-.903-.681l.307.915 1.896-.638-.307-.915-1.896.638zm.922 2.745l.615 1.83 1.896-.638-.615-1.83-1.896.638zm1.23 3.66l.615 1.83 1.896-.638-.615-1.83-1.896.638zm1.23 3.66l.308.915 1.896-.638-.308-.915-1.896.638zM252.097 5.79h.5v-.5h-.5v.5zm-9 0h-.5v.5h.5v-.5zm0-4.995v-.5h-.5v.5h.5zm24.975 0h.5v-.5h-.5v.5zm0 4.995v.5h.5v-.5h-.5zm-8.955 0v-.5h-.5v.5h.5zm0 24.21v.5h.5V30h-.5zm-7.02 0h-.5v.5h.5V30zm0-24.71h-1.125v1h1.125v-1zm-3.375 0h-2.25v1h2.25v-1zm-4.5 0h-1.125v1h1.125v-1zm-.625.5V4.541h-1V5.79h1zm0-3.746V.795h-1v1.249h1zm-.5-.749h1.041v-1h-1.041v1zm3.122 0h2.081v-1h-2.081v1zm4.163 0h2.081v-1h-2.081v1zm4.162 0h2.081v-1h-2.081v1zm4.163 0h2.081v-1h-2.081v1zm4.162 0h2.081v-1h-2.081v1zm4.163 0h1.04v-1h-1.04v1zm.54-.5v1.249h1V.795h-1zm0 3.746V5.79h1V4.541h-1zm.5.749h-1.119v1h1.119v-1zm-3.358 0h-2.239v1h2.239v-1zm-4.477 0h-1.12v1h1.12v-1zm-1.62.5v1.009h1V5.79h-1zm0 3.026v2.018h1V8.816h-1zm0 4.035v2.018h1V12.85h-1zm0 4.035v2.018h1v-2.018h-1zm0 4.035v2.018h1V20.92h-1zm0 4.035v2.018h1v-2.018h-1zm0 4.035V30h1v-1.009h-1zm.5.509h-.877v1h.877v-1zm-2.632 0h-1.755v1h1.755v-1zm-3.51 0h-.878v1h.878v-1zm-.378.5v-1.009h-1V30h1zm0-3.026v-2.018h-1v2.018h1zm0-4.035V20.92h-1v2.018h1zm0-4.035v-2.018h-1v2.018h1zm0-4.035V12.85h-1v2.018h1zm0-4.035V8.816h-1v2.018h1zm0-4.035V5.79h-1v1.009h1zm-.5-1.009h1v-1h-1v1zm-9 0h-1v1h1v-1zm0-4.995v-1h-1v1h1zm24.975 0h1v-1h-1v1zm0 4.995v1h1v-1h-1zm-8.955 0v-1h-1v1h1zm0 24.21v1h1v-1h-1zm-7.02 0h-1v1h1v-1zm0-25.21h-1.125v2h1.125v-2zm-3.375 0h-2.25v2h2.25v-2zm-4.5 0h-1.125v2h1.125v-2zm-.125 1V4.541h-2V5.79h2zm0-3.746V.795h-2v1.249h2zm-1-.249h1.041v-2h-1.041v2zm3.122 0h2.081v-2h-2.081v2zm4.163 0h2.081v-2h-2.081v2zm4.162 0h2.081v-2h-2.081v2zm4.163 0h2.081v-2h-2.081v2zm4.162 0h2.081v-2h-2.081v2zm4.163 0h1.04v-2h-1.04v2zm.04-1v1.249h2V.795h-2zm0 3.746V5.79h2V4.541h-2zm1 .249h-1.119v2h1.119v-2zm-3.358 0h-2.239v2h2.239v-2zm-4.477 0h-1.12v2h1.12v-2zm-2.12 1v1.009h2V5.79h-2zm0 3.026v2.018h2V8.816h-2zm0 4.035v2.018h2V12.85h-2zm0 4.035v2.018h2v-2.018h-2zm0 4.035v2.018h2V20.92h-2zm0 4.035v2.018h2v-2.018h-2zm0 4.035V30h2v-1.009h-2zm1 .009h-.877v2h.877v-2zm-2.632 0h-1.755v2h1.755v-2zm-3.51 0h-.878v2h.878v-2zm.122 1v-1.009h-2V30h2zm0-3.026v-2.018h-2v2.018h2zm0-4.035V20.92h-2v2.018h2zm0-4.035v-2.018h-2v2.018h2zm0-4.035V12.85h-2v2.018h2zm0-4.035V8.816h-2v2.018h2zm0-4.035V5.79h-2v1.009h2z" fill="#77C2F9" fill-opacity=".9"/></svg>