<svg width="299" height="34" fill="none" xmlns="http://www.w3.org/2000/svg"><path d="M.5.55v-.5H0v.5h.5zM21 1.2l-.115.487h.002L21 1.2zm4.05 2.3l-.399.302.006.007.005.006.388-.315zm-.1 15.65l-.395-.307-.005.007.4.3zM20.6 21.7l-.121-.485h-.002l.123.485zm-12.3.75v-.5h-.5v.5h.5zM8.3 33v.5h.5V33h-.5zM.5 33H0v.5h.5V33zm17.05-16.6l.244.436.007-.003.006-.004-.257-.429zm.05-9.8l-.2.459.008.003.192-.462zm-9.3-.5v-.5h-.5v.5h.5zm0 11h-.5v.5h.5v-.5zM0 .55v1.014h1V.55H0zm0 3.042V5.62h1V3.592H0zm0 4.056v2.029h1V7.648H0zm0 4.057v2.028h1v-2.028H0zm0 4.056v2.028h1v-2.028H0zm0 4.056v2.028h1v-2.028H0zm0 4.056v2.029h1v-2.029H0zm0 4.057v2.028h1V27.93H0zm0 4.056V33h1v-1.014H0zM.5 33.5h.975v-1H.5v1zm2.925 0h1.95v-1h-1.95v1zm3.9 0H8.3v-1h-.975v1zM8.8 33v-.88h-1V33h1zm0-2.637v-1.759h-1v1.759h1zm0-3.517v-1.759h-1v1.759h1zm0-3.517v-.879h-1v.88h1zm-.5-.379h1.075v-1H8.3v1zm3.225 0H12.6v-1h-1.075v1zm1.075 0c.345 0 .684-.003 1.015-.008l-.016-1c-.325.005-.659.008-.999.008v1zm3.047-.078c.718-.04 1.396-.094 2.033-.163l-.108-.994c-.618.067-1.278.12-1.98.159l.055.998zm4.065-.463c.354-.068.69-.143 1.011-.224l-.246-.97a16.3 16.3 0 01-.954.212l.189.982zm1.01-.224a12.21 12.21 0 001.28-.393l-.347-.937c-.365.135-.757.255-1.176.36l.242.97zm3.66-1.724c.368-.305.691-.642.968-1.011l-.8-.6a4.977 4.977 0 01-.806.842l.639.77zm.963-1.004a6.18 6.18 0 00.74-1.23l-.91-.415c-.174.38-.38.724-.62 1.031l.79.614zm1.437-3.935c.045-.437.068-.895.068-1.372h-1c0 .446-.021.869-.063 1.268l.995.104zm.068-1.372v-.769h-1v.769h1zm0-2.306v-1.538h-1v1.538h1zm0-3.075V8h-1v.769h1zm0-.769c0-.434-.021-.849-.064-1.245l-.994.106c.039.358.058.737.058 1.139h1zm-.716-3.704a5.459 5.459 0 00-.696-1.111l-.776.63c.219.27.408.572.568.909l.904-.428zm-.686-1.098a5.421 5.421 0 00-.91-.936l-.63.777c.287.232.534.487.743.763l.797-.604zm-3.14-2.14a11.3 11.3 0 00-1.195-.345l-.226.974c.389.09.751.195 1.088.314l.332-.944zM21.114.712a17.46 17.46 0 00-.95-.195l-.176.984c.316.057.615.118.896.185l.23-.974zM18.259.258a38.289 38.289 0 00-1.906-.141l-.05.999c.659.033 1.277.079 1.855.137l.1-.995zM14.45.057C14.14.052 13.825.05 13.5.05v1c.319 0 .631.002.936.007l.014-1zM13.5.05h-1.083v1H13.5v-1zm-3.25 0H8.083v1h2.167v-1zm-4.333 0H3.75v1h2.167v-1zm-4.334 0H.5v1h1.083v-1zM13.25 16.6h-1.238v1h1.238v-1zm-3.713 0H8.3v1h1.237v-1zm-.737.5v-.917h-1v.917h1zm0-2.75v-1.833h-1v1.833h1zm0-3.667V8.85h-1v1.833h1zm0-3.666V6.1h-1v.917h1zM8.3 6.6h1.212v-1H8.3v1zm3.637 0h1.213v-1h-1.213v1zm1.213 0c.394 0 .764.005 1.11.016l.031-1A36.761 36.761 0 0013.15 5.6v1zm3.283.202c.43.072.748.16.968.257l.398-.918c-.323-.14-.728-.246-1.2-.325l-.166.986zm.975.26c.163.068.297.152.406.25l.666-.747c-.2-.179-.431-.32-.688-.427l-.384.924zm.844 1.09c.031.161.048.343.048.548h1c0-.258-.021-.504-.065-.737l-.983.188zm.048.548V10h1V8.7h-1zm0 3.9v1.3h1v-1.3h-1zm0 1.3c0 .234-.019.447-.054.64l.984.18c.047-.26.07-.534.07-.82h-1zm-.551 1.702a2.018 2.018 0 01-.456.37l.514.857a3.01 3.01 0 00.68-.553l-.738-.674zm-.443.362a3.746 3.746 0 01-.904.338l.246.97a4.712 4.712 0 001.146-.436l-.488-.872zm-2.982.611c-.335.017-.693.025-1.074.025v1c.395 0 .77-.009 1.123-.026l-.049-.999zM.5.55v-1h-1v1h1zM21 1.2l-.23.973.004.001L21 1.2zm4.05 2.3l-.797.604.01.013.01.014.777-.631zm-.1 15.65l-.79-.614-.005.007-.005.007.8.6zM20.6 21.7l-.242-.97h-.004l.246.97zm-12.3.75v-1h-1v1h1zM8.3 33v1h1v-1h-1zM.5 33h-1v1h1v-1zm17.05-16.6l.489.873.013-.008.012-.008-.514-.857zm.05-9.8l-.399.917.007.003.007.003.385-.923zm-9.3-.5v-1h-1v1h1zm0 11h-1v1h1v-1zM-.5.55v1.014h2V.55h-2zm0 3.042V5.62h2V3.592h-2zm0 4.056v2.029h2V7.648h-2zm0 4.057v2.028h2v-2.028h-2zm0 4.056v2.028h2v-2.028h-2zm0 4.056v2.028h2v-2.028h-2zm0 4.056v2.029h2v-2.029h-2zm0 4.057v2.028h2V27.93h-2zm0 4.056V33h2v-1.014h-2zM.5 34h.975v-2H.5v2zm2.925 0h1.95v-2h-1.95v2zm3.9 0H8.3v-2h-.975v2zM9.3 33v-.88h-2V33h2zm0-2.637v-1.759h-2v1.759h2zm0-3.517v-1.759h-2v1.759h2zm0-3.517v-.879h-2v.88h2zm-1 .121h1.075v-2H8.3v2zm3.225 0H12.6v-2h-1.075v2zm1.075 0c.348 0 .689-.003 1.023-.008l-.032-2c-.323.005-.653.008-.991.008v2zm3.074-.078c.726-.04 1.413-.095 2.06-.166l-.217-1.988c-.607.066-1.258.119-1.952.157l.11 1.997zm4.132-.472c.363-.07.71-.147 1.04-.23l-.492-1.94c-.29.074-.598.143-.926.206l.378 1.964zm1.037-.23c.467-.117.912-.253 1.333-.409l-.695-1.875c-.346.128-.72.243-1.123.344l.485 1.94zm3.86-1.824a6.478 6.478 0 001.047-1.096l-1.6-1.2a4.476 4.476 0 01-.726.758l1.278 1.538zm1.036-1.082c.315-.404.58-.848.8-1.328l-1.819-.832a4.674 4.674 0 01-.56.932l1.58 1.228zm1.54-4.19c.048-.456.071-.93.071-1.424h-2c0 .43-.02.835-.06 1.216l1.989.208zm.071-1.424v-.769h-2v.769h2zm0-2.306v-1.538h-2v1.538h2zm0-3.075V8h-2v.769h2zm0-.769c0-.45-.022-.883-.066-1.299l-1.989.214c.036.338.055.7.055 1.085h2zm-.765-3.918a5.957 5.957 0 00-.759-1.213l-1.552 1.262c.192.236.36.504.504.807l1.808-.856zm-.738-1.186a5.923 5.923 0 00-.993-1.022l-1.26 1.553c.256.208.475.434.659.677l1.594-1.208zM22.473.586c-.394-.14-.81-.259-1.247-.36l-.452 1.948c.372.087.717.186 1.035.298l.664-1.886zM21.23.226c-.31-.073-.637-.14-.978-.2l-.35 1.969c.307.054.597.114.868.178l.46-1.946zM18.309-.24a38.778 38.778 0 00-1.93-.143l-.101 1.998a36.79 36.79 0 011.83.135l.2-1.99zm-3.851-.203A66.068 66.068 0 0013.5-.45v2c.317 0 .626.002.929.007l.029-2zM13.5-.45h-1.083v2H13.5v-2zm-3.25 0H8.083v2h2.167v-2zm-4.333 0H3.75v2h2.167v-2zm-4.334 0H.5v2h1.083v-2zM13.25 16.1h-1.238v2h1.238v-2zm-3.713 0H8.3v2h1.237v-2zm-.237 1v-.917h-2v.917h2zm0-2.75v-1.833h-2v1.833h2zm0-3.667V8.85h-2v1.833h2zm0-3.666V6.1h-2v.917h2zm-1 .083h1.212v-2H8.3v2zm3.637 0h1.213v-2h-1.213v2zm1.213 0c.39 0 .754.005 1.094.016l.063-2A37.27 37.27 0 0013.15 5.1v2zm3.2.195c.41.069.683.149.851.222L18 5.683c-.375-.163-.823-.277-1.316-.36l-.333 1.972zm.865.228a.934.934 0 01.267.162l1.33-1.494a2.929 2.929 0 00-.827-.514l-.77 1.846zm.546.722c.024.127.039.277.039.455h2c0-.285-.023-.563-.074-.83l-1.965.375zm.039.455V10h2V8.7h-2zm0 3.9v1.3h2v-1.3h-2zm0 1.3c0 .207-.017.39-.046.55l1.968.36a5.11 5.11 0 00.078-.91h-2zm-.42 1.365a1.49 1.49 0 01-.345.277l1.03 1.716a3.57 3.57 0 00.792-.644l-1.477-1.349zm-.319.262c-.179.1-.433.202-.782.29l.492 1.94a5.225 5.225 0 001.268-.485l-.978-1.744zm-2.761.549a21.52 21.52 0 01-1.05.024v2a23.2 23.2 0 001.148-.027l-.098-1.997zM34.348.55v-.5h-.5v.5h.5zm24.75 0h.5v-.5h-.5v.5zm0 5.55v.5h.5v-.5h-.5zm-16.95 0v-.5h-.5v.5h.5zm0 7.45h-.5v.5h.5v-.5zm15.3 0h.5v-.5h-.5v.5zm0 5.55v.5h.5v-.5h-.5zm-15.3 0v-.5h-.5v.5h.5zm0 8.35h-.5v.5h.5v-.5zm17.45 0h.5v-.5h-.5v.5zm0 5.55v.5h.5V33h-.5zm-25.25 0h-.5v.5h.5V33zm-.5-32.45v1.014h1V.55h-1zm0 3.042V5.62h1V3.592h-1zm0 4.056v2.029h1V7.648h-1zm0 4.057v2.028h1v-2.028h-1zm0 4.056v2.028h1v-2.028h-1zm0 4.056v2.028h1v-2.028h-1zm0 4.056v2.029h1v-2.029h-1zm0 4.057v2.028h1V27.93h-1zm0 4.056V33h1v-1.014h-1zm.5 1.514H35.4v-1h-1.052v1zm3.156 0h2.104v-1h-2.104v1zm4.208 0h2.104v-1h-2.104v1zm4.209 0h2.104v-1H45.92v1zm4.208 0h2.104v-1H50.13v1zm4.208 0h2.104v-1h-2.104v1zm4.209 0h1.052v-1h-1.052v1zm1.552-.5v-1.387h-1V33h1zm0-4.163V27.45h-1v1.387h1zm-.5-1.887h-1.091v1h1.09v-1zm-3.272 0h-2.181v1h2.18v-1zm-4.363 0h-2.181v1h2.181v-1zm-4.362 0H45.42v1h2.18v-1zm-4.363 0h-1.09v1h1.09v-1zm-.59.5v-1.044h-1v1.044h1zm0-3.131V22.23h-1v2.088h1zm0-4.175V19.1h-1v1.044h1zm-.5-.544h.956v-1h-.956v1zm2.868 0h1.913v-1h-1.913v1zm3.825 0h1.913v-1H48.84v1zm3.825 0h1.913v-1h-1.913v1zm3.825 0h.957v-1h-.957v1zm1.457-.5v-1.388h-1V19.1h1zm0-4.163V13.55h-1v1.387h1zm-.5-1.887h-.957v1h.957v-1zm-2.87 0h-1.912v1h1.913v-1zm-3.824 0H48.84v1h1.913v-1zm-3.825 0h-1.913v1h1.913v-1zm-3.825 0h-.956v1h.956v-1zm-.456.5v-.931h-1v.931h1zm0-2.794V8.894h-1v1.862h1zm0-3.725V6.1h-1v.931h1zm-.5-.431h1.059v-1h-1.06v1zm3.178 0h2.118v-1h-2.118v1zm4.237 0h2.119v-1h-2.119v1zm4.238 0h2.118v-1h-2.118v1zm4.237 0h1.06v-1h-1.06v1zm1.56-.5V4.713h-1V6.1h1zm0-4.162V.55h-1v1.387h1zm-.5-1.888h-1.032v1h1.032v-1zm-3.094 0H53.94v1h2.063v-1zm-4.125 0h-2.063v1h2.063v-1zm-4.125 0H45.69v1h2.063v-1zm-4.125 0h-2.063v1h2.063v-1zm-4.125 0H37.44v1h2.063v-1zm-4.125 0h-1.031v1h1.03v-1zm-1.031.5v-1h-1v1h1zm24.75 0h1v-1h-1v1zm0 5.55v1h1v-1h-1zm-16.95 0v-1h-1v1h1zm0 7.45h-1v1h1v-1zm15.3 0h1v-1h-1v1zm0 5.55v1h1v-1h-1zm-15.3 0v-1h-1v1h1zm0 8.35h-1v1h1v-1zm17.45 0h1v-1h-1v1zm0 5.55v1h1v-1h-1zm-25.25 0h-1v1h1v-1zm-1-32.45v1.014h2V.55h-2zm0 3.042V5.62h2V3.592h-2zm0 4.056v2.029h2V7.648h-2zm0 4.057v2.028h2v-2.028h-2zm0 4.056v2.028h2v-2.028h-2zm0 4.056v2.028h2v-2.028h-2zm0 4.056v2.029h2v-2.029h-2zm0 4.057v2.028h2V27.93h-2zm0 4.056V33h2v-1.014h-2zm1 2.014H35.4v-2h-1.052v2zm3.156 0h2.104v-2h-2.104v2zm4.208 0h2.104v-2h-2.104v2zm4.209 0h2.104v-2H45.92v2zm4.208 0h2.104v-2H50.13v2zm4.208 0h2.104v-2h-2.104v2zm4.209 0h1.052v-2h-1.052v2zm2.052-1v-1.387h-2V33h2zm0-4.163V27.45h-2v1.387h2zm-1-2.387h-1.091v2h1.09v-2zm-3.272 0h-2.181v2h2.18v-2zm-4.363 0h-2.181v2h2.181v-2zm-4.362 0H45.42v2h2.18v-2zm-4.363 0h-1.09v2h1.09v-2zm-.09 1v-1.044h-2v1.044h2zm0-3.131V22.23h-2v2.088h2zm0-4.175V19.1h-2v1.044h2zm-1-.044h.956v-2h-.956v2zm2.868 0h1.913v-2h-1.913v2zm3.825 0h1.913v-2H48.84v2zm3.825 0h1.913v-2h-1.913v2zm3.825 0h.957v-2h-.957v2zm1.957-1v-1.388h-2V19.1h2zm0-4.163V13.55h-2v1.387h2zm-1-2.387h-.957v2h.957v-2zm-2.87 0h-1.912v2h1.913v-2zm-3.824 0H48.84v2h1.913v-2zm-3.825 0h-1.913v2h1.913v-2zm-3.825 0h-.956v2h.956v-2zm.044 1v-.931h-2v.931h2zm0-2.794V8.894h-2v1.862h2zm0-3.725V6.1h-2v.931h2zm-1 .069h1.059v-2h-1.06v2zm3.178 0h2.118v-2h-2.118v2zm4.237 0h2.119v-2h-2.119v2zm4.238 0h2.118v-2h-2.118v2zm4.237 0h1.06v-2h-1.06v2zm2.06-1V4.713h-2V6.1h2zm0-4.162V.55h-2v1.387h2zm-1-2.388h-1.032v2h1.032v-2zm-3.094 0H53.94v2h2.063v-2zm-4.125 0h-2.063v2h2.063v-2zm-4.125 0H45.69v2h2.063v-2zm-4.125 0h-2.063v2h2.063v-2zm-4.125 0H37.44v2h2.063v-2zm-4.125 0h-1.031v2h1.03v-2zM65.365 32.4h-.5v.404l.396.085.104-.489zm0-5.9l.112-.487-.612-.14v.627h.5zm5.75 1.15l-.077.494.011.002.066-.496zm10.15-.45l.23.444.012-.006-.242-.438zm-.1-7.65l-.143.479.004.001.14-.48zm-11.25-.45h-.5v.5h.5v-.5zm0-5.55v-.5h-.5v.5h.5zm9.75-.3l.132.482-.132-.482zm1.5-.85l.405.294.006-.008.005-.009-.416-.277zm-.8-6.3l.193-.462-.193.462zm-14.35.95h-.5v.64l.62-.155-.12-.485zm0-5.85l-.092-.491-.408.076V1.2h.5zm20.55.3l-.23.444.007.003.223-.447zm1.8 12.65l.362.345.008-.009-.37-.336zm-2.4 1.4l-.121-.485-.379.095v.39h.5zm0 .15h-.5v.377l.363.104.137-.481zm1.15 15.9l.247.435.002-.001-.249-.434zm-9.9 1.4c-.332 0-.661-.002-.987-.006l-.013 1c.33.004.664.006 1 .006v-1zm-2.96-.057a65.066 65.066 0 01-1.97-.107l-.069.997c.654.046 1.32.082 2 .11l.039-1zm-3.932-.277c-.666-.07-1.317-.15-1.953-.241l-.142.99c.649.093 1.313.174 1.992.245l.103-.994zm-3.891-.562a39.705 39.705 0 01-.962-.193l-.21.978c.325.07.654.135.987.198l.185-.983zm-.567.296v-1.475h-1V32.4h1zm0-4.425V26.5h-1v1.475h1zm-.611-.988c.497.114.976.221 1.436.321l.213-.977c-.457-.1-.932-.205-1.426-.318l-.223.974zm4.326.908a58.4 58.4 0 001.458.25l.154-.99c-.44-.067-.916-.149-1.43-.244l-.182.983zm1.47.25c.403.055.817.101 1.239.14l.093-.995c-.41-.038-.81-.084-1.2-.136l-.133.992zm3.723.288c.407.011.821.017 1.242.017v-1c-.412 0-.817-.005-1.214-.017l-.028 1zm1.242.017c.479 0 .93-.009 1.357-.026l-.042-1c-.41.017-.848.026-1.315.026v1zm4.095-.337c.538-.118 1.004-.272 1.385-.469l-.46-.888c-.278.144-.654.273-1.14.38l.215.977zm1.397-.475a3.6 3.6 0 00.718-.514l-.68-.732a2.62 2.62 0 01-.521.37l.483.876zm1.614-2.069c.064-.276.094-.566.094-.869h-1c0 .235-.024.45-.069.644l.975.225zm.094-.869v-.787h-1v.787h1zm0-2.363v-.787h-1v.787h1zm0-.787c0-.287-.034-.562-.108-.819l-.961.278c.044.154.07.333.07.541h1zm-1.163-2.165a3.247 3.247 0 00-.747-.315l-.28.96c.205.06.377.133.519.217l.508-.862zm-.743-.314a8.768 8.768 0 00-1.254-.263l-.143.99a7.8 7.8 0 011.11.23l.287-.957zm-3.72-.454a41.9 41.9 0 00-1.224-.017v1c.421 0 .82.005 1.194.017l.03-1zm-1.224-.017h-.806v1h.806v-1zm-2.418 0h-1.613v1h1.612v-1zm-3.225 0h-.807v1h.806v-1zm-.307.5v-1.388h-1V19.1h1zm0-4.163V13.55h-1v1.387h1zm-.5-.887h.806v-1h-.806v1zm2.419 0h1.612v-1h-1.612v1zm3.225 0h.806v-1h-.806v1zm.806 0c.296 0 .578-.004.846-.012l-.03-1a27.28 27.28 0 01-.816.012v1zm2.556-.144a7.14 7.14 0 00.876-.174l-.263-.964a6.145 6.145 0 01-.753.148l.14.99zm.876-.174c.161-.044.314-.092.459-.145l-.344-.939a4.724 4.724 0 01-.378.12l.263.964zm1.367-.626a2.03 2.03 0 00.406-.412l-.81-.588a1.05 1.05 0 01-.208.21l.612.79zm.417-.429c.101-.151.184-.317.252-.494l-.935-.354a1.46 1.46 0 01-.149.294l.832.554zm.465-1.492c.013-.156.02-.317.02-.485h-1c0 .142-.006.275-.017.4l.997.085zm.02-.485v-.637h-1v.637h1zm0-1.912V8.15h-1v.637h1zm0-.638a3.72 3.72 0 00-.069-.73l-.98.197c.031.157.048.334.048.533h1zm-.833-2.1a2.479 2.479 0 00-.675-.412l-.385.924c.162.067.296.15.405.244l.655-.755zm-.675-.412a5.568 5.568 0 00-1.167-.316l-.172.985a4.6 4.6 0 01.954.255l.385-.924zm-3.426-.52c-.35-.012-.723-.018-1.117-.018v1c.384 0 .745.006 1.084.017l.033-1zM76.015 5.1c-.281 0-.568.005-.86.015l.033 1c.282-.01.557-.015.827-.015v-1zm-2.573.122c-.55.05-1.116.114-1.7.193l.135.991c.57-.077 1.121-.14 1.655-.188l-.09-.996zm-3.386.456c-.544.095-1.102.201-1.674.32l.203.979c.562-.117 1.11-.221 1.643-.314l-.172-.985zm-3.334.687c-.273.064-.549.13-.827.2l.24.97c.275-.068.547-.133.816-.197l-.23-.973zm-.207.685V5.588h-1V7.05h1zm0-4.387V1.2h-1v1.463h1zm-.407-.972c.314-.059.627-.116.939-.17l-.173-.986c-.316.056-.633.114-.951.174l.185.982zm2.822-.476a66.755 66.755 0 011.889-.253L70.7-.03a68.98 68.98 0 00-1.918.257l.147.99zm3.784-.45a57.53 57.53 0 011.9-.135l-.056-.999c-.637.035-1.28.081-1.932.138l.088.997zm3.8-.206c.32-.006.636-.009.951-.009v-1c-.321 0-.644.003-.97.01l.02 1zm.951-.009c.394 0 .778.004 1.15.013l.023-1c-.38-.009-.772-.013-1.173-.013v1zm3.44.13a24.69 24.69 0 012.257.285l.175-.984a25.686 25.686 0 00-2.349-.297l-.083.996zm4.427.836a7.9 7.9 0 011.003.428l.46-.888a8.9 8.9 0 00-1.13-.483l-.333.943zm1.01.431c.432.216.803.47 1.117.76l.678-.736a5.814 5.814 0 00-1.348-.918l-.447.894zm2.389 3.07c.089.421.134.881.134 1.383h1c0-.562-.051-1.092-.156-1.59l-.978.207zm.134 1.383v1.3h1V6.4h-1zm0 3.9v1.3h1v-1.3h-1zm0 1.3c0 .211-.018.414-.053.608l.984.18c.046-.257.07-.52.07-.788h-1zm-.494 1.725c-.107.167-.232.33-.376.489l.74.672c.18-.198.34-.405.479-.622l-.843-.539zm-.368.48a4.7 4.7 0 01-.468.43l.624.782c.199-.16.388-.333.568-.522l-.724-.69zm-1.555 1.065a4.61 4.61 0 01-.604.195l.243.97a5.47 5.47 0 00.734-.238l-.373-.927zm-.983.68v.037h1v-.037h-1zm0 .112v.038h1v-.037h-1zm.363.519c.29.082.563.172.82.267l.349-.937a12.162 12.162 0 00-.894-.292l-.275.962zm2.332 1.014c.497.328.886.696 1.175 1.101l.813-.582a5.39 5.39 0 00-1.438-1.353l-.55.834zm1.784 2.549c.047.254.071.522.071.806h1c0-.34-.028-.67-.087-.988l-.984.182zm.071.806v1.313h1V20.55h-1zm0 3.938V25.8h1v-1.313h-1zm0 1.312c0 .286-.015.562-.044.829l.994.11c.034-.305.05-.618.05-.939h-1zm-.433 2.411a5.337 5.337 0 01-.82 1.39l.776.631a6.34 6.34 0 00.972-1.648l-.928-.373zm-2.015 2.505a7.938 7.938 0 01-.7.45l.497.868c.278-.16.54-.329.788-.508l-.585-.81zm-.698.45c-.227.128-.466.25-.718.365l.418.909c.276-.127.54-.262.793-.405l-.493-.87zm-2.243.939c-.497.151-1.03.284-1.598.398l.196.98c.597-.119 1.162-.26 1.694-.422l-.292-.956zm-3.237.66c-.53.066-1.083.118-1.661.157l.065.997a29.92 29.92 0 001.719-.16l-.123-.993zm-3.335.227a42.75 42.75 0 01-.839.008v1c.291 0 .577-.003.86-.008l-.02-1zM65.365 32.4h-1v.809l.791.169.21-.978zm0-5.9l.223-.975-1.223-.28V26.5h1zm5.75 1.15l-.153.988.01.002.011.001.132-.991zm10.15-.45l.46.888.012-.006.011-.006-.483-.876zm-.1-7.65l-.287.958.008.002.28-.96zm-11.25-.45h-1v1h1v-1zm0-5.55v-1h-1v1h1zm9.75-.3l.263.965-.263-.965zm1.5-.85l.809.588.012-.016.011-.017-.832-.555zm-.8-6.3l.385-.923-.385.923zm-14.35.95h-1v1.278l1.24-.307-.24-.971zm0-5.85L65.83.217l-.815.154V1.2h1zm20.55.3l-.46.888.007.003.006.003.447-.894zm1.8 12.65l.724.69.008-.009.008-.008-.74-.673zm-2.4 1.4l-.242-.97-.758.19v.78h1zm0 .15h-1v.754l.725.207.275-.961zm1.15 15.9l.494.87.004-.002-.498-.868zm-9.9.9c-.33 0-.657-.002-.981-.006l-.025 2c.332.004.668.006 1.006.006v-2zm-2.94-.057a64.323 64.323 0 01-1.954-.106l-.14 1.995c.659.046 1.33.083 2.014.11l.08-1.999zm-3.9-.275a50.754 50.754 0 01-1.934-.238l-.284 1.98c.656.093 1.326.176 2.01.247l.208-1.989zm-3.85-.555a40.6 40.6 0 01-.95-.19l-.419 1.955c.329.07.661.137.998.2l.37-1.965zm-.16.787v-1.475h-2V32.4h2zm0-4.425V26.5h-2v1.475h2zm-1.223-.5c.5.114.98.221 1.442.322l.425-1.954c-.454-.1-.928-.205-1.42-.318l-.447 1.95zm4.347.911c.526.097 1.017.181 1.472.252l.308-1.976a51.549 51.549 0 01-1.417-.243l-.363 1.967zm1.494.255c.411.055.83.102 1.26.143l.186-1.992a30.317 30.317 0 01-1.182-.133l-.264 1.982zm3.776.292c.412.011.83.017 1.256.017v-2c-.408 0-.808-.005-1.2-.016l-.056 1.999zm1.256.017c.485 0 .944-.009 1.377-.027l-.083-1.998c-.402.017-.834.025-1.294.025v2zm4.202-.349c.565-.124 1.076-.29 1.508-.513l-.92-1.776c-.227.118-.558.235-1.017.336l.429 1.953zm1.531-.525a4.12 4.12 0 00.817-.585l-1.36-1.466a2.192 2.192 0 01-.423.3l.966 1.75zm1.86-2.394a4.35 4.35 0 00.107-.982h-2c0 .202-.02.378-.056.53l1.949.452zm.107-.982v-.787h-2v.787h2zm0-2.363v-.787h-2v.787h2zm0-.787c0-.327-.039-.649-.128-.957l-1.922.555c.03.102.05.234.05.402h2zm-1.41-2.595a3.743 3.743 0 00-.861-.365l-.558 1.92c.171.05.303.108.404.167l1.016-1.722zm-.852-.363a9.271 9.271 0 00-1.327-.28l-.285 1.98c.425.062.768.135 1.037.216l.575-1.916zm-3.85-.475a41.901 41.901 0 00-1.238-.017v2c.417 0 .81.005 1.18.016l.059-1.999zm-1.238-.017h-.806v2h.806v-2zm-2.418 0h-1.613v2h1.612v-2zm-3.225 0h-.807v2h.806v-2zm.193 1v-1.388h-2V19.1h2zm0-4.163V13.55h-2v1.387h2zm-1-.387h.806v-2h-.806v2zm2.419 0h1.612v-2h-1.612v2zm3.225 0h.806v-2h-.806v2zm.806 0c.3 0 .588-.004.861-.012l-.06-2c-.252.008-.518.012-.8.012v2zm2.626-.149c.339-.048.653-.109.937-.186l-.526-1.93c-.184.05-.412.097-.69.136l.279 1.98zm.937-.186c.174-.047.34-.1.5-.158l-.688-1.878a4.18 4.18 0 01-.338.106l.526 1.93zm1.542-.713a2.56 2.56 0 00.504-.514l-1.618-1.176a.554.554 0 01-.11.108l1.224 1.582zm.527-.547a2.95 2.95 0 00.303-.595l-1.87-.708a.965.965 0 01-.097.193l1.664 1.11zm.547-1.728c.014-.17.021-.347.021-.527h-2c0 .13-.005.248-.014.358l1.993.169zm.021-.527v-.637h-2v.637h2zm0-1.912V8.15h-2v.637h2zm0-.638c0-.283-.024-.56-.077-.827l-1.961.392c.024.12.038.264.038.435h2zM81.56 5.673a2.98 2.98 0 00-.81-.496l-.77 1.846c.119.05.206.105.27.161l1.31-1.511zm-.81-.496a6.059 6.059 0 00-1.273-.348l-.344 1.97c.388.068.663.147.848.224l.769-1.846zm-3.602-.56a34.221 34.221 0 00-1.133-.017v2c.38 0 .735.006 1.067.017l.067-2zM76.016 4.6c-.287 0-.58.005-.877.015l.067 1.999c.276-.01.546-.014.81-.014v-2zm-2.617.124c-.558.05-1.132.115-1.723.196l.27 1.981a36.185 36.185 0 011.632-.185l-.18-1.992zm-3.428.461a55.66 55.66 0 00-1.689.323l.405 1.958a52.65 52.65 0 011.628-.31l-.344-1.97zm-3.363.693a89.98 89.98 0 00-.832.201l.48 1.942c.273-.068.543-.133.81-.196l-.458-1.947zm.408 1.172V5.588h-2V7.05h2zm0-4.387V1.2h-2v1.463h2zm-.814-.48c.312-.06.623-.116.932-.17l-.346-1.97c-.317.056-.636.114-.957.174l.37 1.966zm2.802-.473a66.269 66.269 0 011.875-.251l-.237-1.986c-.637.076-1.281.162-1.931.259l.293 1.978zm3.755-.446a56.921 56.921 0 011.883-.135l-.11-1.997a58.89 58.89 0 00-1.949.14l.176 1.992zm3.766-.205c.316-.006.63-.009.941-.009v-2c-.324 0-.65.003-.979.01l.038 1.999zm.941-.009c.39 0 .77.004 1.139.013l.046-2c-.385-.009-.78-.013-1.185-.013v2zm3.398.128c.81.068 1.546.161 2.212.28l.35-1.97a26.183 26.183 0 00-2.395-.303l-.166 1.993zm4.303.81a7.4 7.4 0 01.94.4l.92-1.776a9.395 9.395 0 00-1.194-.51l-.666 1.885zm.952.406c.395.198.726.426 1.003.68l1.354-1.471a6.312 6.312 0 00-1.462-.997l-.895 1.788zm2.123 2.726c.081.383.124.809.124 1.28h2a8.19 8.19 0 00-.167-1.693l-1.957.413zm.124 1.28v1.3h2V6.4h-2zm0 3.9v1.3h2v-1.3h-2zm0 1.3a2.9 2.9 0 01-.045.519l1.968.358c.052-.287.077-.58.077-.877h-2zm-.415 1.456a3.131 3.131 0 01-.325.421l1.48 1.346a5.14 5.14 0 00.53-.69l-1.686-1.077zm-.309.404a4.152 4.152 0 01-.418.384l1.248 1.564c.217-.174.423-.364.618-.568l-1.448-1.38zm-1.38.946a4.03 4.03 0 01-.538.174l.485 1.94c.274-.069.541-.155.8-.259l-.747-1.855zm-1.296 1.144v.037h2v-.037h-2zm0 .112v.038h2v-.037h-2zm.725 1c.278.079.54.164.784.255l.697-1.875a12.7 12.7 0 00-.931-.303l-.55 1.922zm2.195.95c.453.3.794.627 1.043.975l1.627-1.164a5.887 5.887 0 00-1.57-1.48l-1.1 1.67zm1.568 2.222c.04.222.062.46.062.716h2c0-.369-.03-.728-.096-1.078l-1.966.362zm.062.716v1.313h2V20.55h-2zm0 3.938V25.8h2v-1.313h-2zm0 1.312c0 .269-.014.526-.041.774l1.988.22c.036-.324.053-.656.053-.994h-2zm-.397 2.225c-.183.456-.43.875-.743 1.26l1.55 1.263c.44-.54.79-1.134 1.05-1.778l-1.857-.745zm-1.844 2.286a7.423 7.423 0 01-.656.422l.995 1.735c.292-.168.57-.347.832-.536l-1.171-1.621zm-.652.42c-.213.12-.44.236-.68.346l.835 1.817c.289-.132.566-.274.832-.424l-.987-1.74zm-2.142.895c-.48.147-.996.276-1.55.387l.392 1.961a18.278 18.278 0 001.742-.435l-.584-1.913zm-3.153.644c-.519.064-1.063.115-1.632.153l.131 1.995c.605-.04 1.188-.094 1.748-.163l-.247-1.985zm-3.282.222c-.272.005-.549.008-.83.008v2c.294 0 .584-.003.869-.008l-.04-2zM98.73 33h-.5v.411l.404.08.096-.491zm0-5.7l.116-.486-.616-.147v.633h.5zm2.05.45l-.098.49.004.001.094-.491zm4.35-.45l.282.413.005-.003-.287-.41zm1.7-2.1l.447.224.003-.007-.45-.217zm.7-1.45l.45.217.111-.23-.121-.225-.44.238zM94.981.55v-.5h-.84l.4.738.44-.238zm8.15 0l.447-.224-.138-.276h-.309v.5zm8.15 16.3l-.447.224.138.276h.309v-.5zm.2 0v.5h.34l.125-.316-.465-.184zm6.45-16.3v-.5h-.34l-.125.316.465.184zm7.85 0l.456.206.318-.706h-.774v.5zm-11.75 26.05l-.456-.206-.001.003.457.203zm-4.05 5.25l-.279-.415.279.415zm-6.9 1.15c-.331 0-.685-.013-1.06-.04l-.071.998c.396.028.773.042 1.131.042v-1zm-3.19-.299a34.2 34.2 0 01-1.064-.192l-.192.982c.376.073.74.14 1.094.197l.162-.987zm-.66.299v-1.425h-1V33h1zm0-4.275V27.3h-1v1.425h1zm-.616-.939c.173.041.344.082.515.12l.224-.974a60.492 60.492 0 01-.507-.118l-.232.972zm1.549.348c.174.037.347.072.519.106l.196-.98a51.328 51.328 0 01-.509-.105l-.206.979zm.523.107c.174.033.346.063.517.088l.146-.99a11.85 11.85 0 01-.476-.08l-.187.982zm1.564.195c.179.01.355.014.53.014v-1c-.156 0-.315-.004-.476-.013l-.054.999zm.53.014c.231 0 .456-.012.675-.037l-.114-.994c-.178.02-.365.031-.561.031v1zm2.013-.392a3.89 3.89 0 00.619-.345l-.564-.826a2.935 2.935 0 01-.461.257l.406.914zm.624-.348c.205-.144.4-.306.586-.487l-.697-.717a3.703 3.703 0 01-.463.384l.574.82zm1.507-1.65c.124-.201.241-.413.353-.636l-.894-.448a7.077 7.077 0 01-.31.558l.851.525zm.356-.643l.175-.362-.9-.435-.175.363.9.434zm.525-1.087l.175-.363-.9-.434-.175.362.9.435zm.165-.818l-.449-.829-.879.476.448.829.88-.476zm-1.345-2.486l-.896-1.657-.88.476.896 1.657.88-.476zm-1.793-3.314l-.896-1.657-.88.476.897 1.657.879-.476zm-1.793-3.314l-.896-1.657-.88.476.897 1.657.879-.476zm-1.793-3.314l-.896-1.658-.88.476.897 1.657.879-.475zm-1.792-3.315l-.897-1.657-.88.476.897 1.657.88-.476zm-1.793-3.314l-.897-1.657-.88.476.897 1.657.88-.476zm-1.793-3.314L95.42.312l-.88.476.448.828.88-.475zm-.888-.091H96v-1h-1.02v1zm3.056 0h2.038v-1h-2.038v1zm4.075 0h1.019v-1h-1.019v1zm.572-.276l.407.815.895-.448-.408-.815-.894.448zm1.222 2.445l.815 1.63.895-.448-.815-1.63-.895.448zm1.63 3.26l.815 1.63.895-.448-.815-1.63-.895.448zm1.63 3.26l.815 1.63.895-.448-.815-1.63-.895.448zm1.63 3.26l.815 1.63.895-.448-.815-1.63-.895.448zm1.63 3.26l.408.815.894-.448-.407-.815-.895.448zm.855 1.091h.05v-1h-.05v1zm.15 0h.05v-1h-.05v1zm.515-.316l.403-1.019-.93-.368-.403 1.019.93.368zm1.209-3.056l.806-2.038-.929-.368-.807 2.038.93.368zm1.613-4.075l.806-2.038-.93-.368-.806 2.038.93.368zm1.612-4.075l.806-2.038-.929-.368-.807 2.038.93.368zm1.613-4.075l.403-1.019-.93-.368-.403 1.019.93.368zm-.062-.703h.981v-1h-.981v1zm2.944 0h1.962v-1h-1.962v1zm3.925 0h.981v-1h-.981v1zm.525-.706l-.42.93.912.412.42-.93-.912-.412zm-1.259 2.791l-.839 1.861.911.411.84-1.86-.912-.412zm-1.678 3.722l-.84 1.86.912.412.839-1.86-.911-.412zm-1.679 3.721l-.839 1.861.911.411.84-1.86-.912-.412zM119.03 14.3l-.839 1.86.912.412.839-1.861-.912-.411zm-1.678 3.721l-.839 1.86.911.412.839-1.86-.911-.412zm-1.679 3.722l-.839 1.86.912.412.839-1.861-.912-.411zm-1.678 3.721l-.42.93.912.412.419-.93-.911-.412zm-.421.933c-.113.254-.229.5-.348.74l.894.446c.126-.252.249-.512.368-.78l-.914-.406zm-1.149 2.153c-.303.473-.623.903-.957 1.293l.759.652c.366-.428.713-.896 1.039-1.404l-.841-.54zm-2.09 2.412c-.207.17-.418.328-.633.473l.558.83c.244-.164.481-.341.711-.532l-.636-.771zm-.633.473a7.094 7.094 0 01-.724.425l.455.89c.291-.148.566-.31.827-.485l-.558-.83zm-2.308 1.04c-.521.15-1.085.268-1.692.354l.14.99a13.644 13.644 0 001.828-.382l-.276-.962zm-3.433.508c-.286.011-.579.017-.88.017v1c.313 0 .62-.006.92-.018l-.04-1zm-5.23.017h-1v.823l.807.158.193-.981zm0-5.7l.232-.973-1.232-.293V27.3h1zm2.05.45l-.196.98.009.002.187-.982zm4.35-.45l.565.825.008-.006-.573-.819zm1.7-2.1l.894.447.006-.012-.9-.435zm.7-1.45l.9.435.223-.46-.244-.45-.879.475zM94.981.55v-1h-1.678l.798 1.476.88-.476zm8.15 0l.894-.447-.276-.553h-.618v1zm8.15 16.3l-.895.447.277.553h.618v-1zm.2 0v1h.68l.25-.632-.93-.368zm6.45-16.3v-1h-.68l-.25.632.93.368zm7.85 0l.911.411.637-1.411h-1.548v1zm-11.75 26.05l-.912-.411-.002.005.914.406zm-4.05 5.25l-.559-.83.559.83zm-6.9.65c-.318 0-.659-.013-1.024-.039l-.142 1.995c.406.03.795.044 1.166.044v-2zm-3.11-.292a33.932 33.932 0 01-1.048-.19l-.385 1.963c.382.075.751.142 1.11.2l.323-1.973zm-.24.792v-1.425h-2V33h2zm0-4.275V27.3h-2v1.425h2zm-1.232-.452c.174.041.347.082.52.121l.446-1.95a59.507 59.507 0 01-.502-.117l-.464 1.946zm1.562.35l.524.108.392-1.962a60.85 60.85 0 01-.505-.103l-.411 1.957zm.533.11c.18.034.359.064.536.09l.294-1.978c-.15-.022-.302-.048-.456-.077l-.374 1.964zm1.63.202c.188.01.373.015.557.015v-2a8.62 8.62 0 01-.45-.012l-.107 1.997zm.557.015c.249 0 .493-.013.732-.04l-.228-1.988a4.431 4.431 0 01-.504.028v2zm2.217-.435c.245-.11.477-.24.698-.39l-1.13-1.65a2.367 2.367 0 01-.382.212l.814 1.828zm.706-.396c.228-.16.444-.339.648-.537l-1.393-1.435a3.234 3.234 0 01-.402.334l1.147 1.638zm1.646-1.797a8.53 8.53 0 00.375-.675l-1.789-.894a6.206 6.206 0 01-.287.518l1.701 1.051zm.381-.687l.175-.363-1.801-.87-.175.363 1.801.87zm.525-1.088l.175-.362-1.801-.87-.175.363 1.801.87zm.154-1.273l-.448-.828-1.759.951.448.829 1.759-.952zm-1.344-2.486l-.897-1.657-1.759.952.897 1.657 1.759-.951zm-1.793-3.314l-.897-1.657-1.759.952.897 1.657 1.759-.952zm-1.793-3.314l-.896-1.657-1.759.951.896 1.657 1.759-.951zm-1.793-3.314l-.896-1.658-1.76.952.897 1.657 1.759-.951zM99.894 7.53l-.896-1.657-1.76.952.897 1.657 1.76-.952zm-1.793-3.314l-.896-1.657-1.76.951.897 1.658 1.76-.952zM96.31.903l-.45-.829-1.759.952.448.828 1.76-.951zm-1.328.647H96v-2h-1.02v2zm3.056 0h2.038v-2h-2.038v2zm4.075 0h1.019v-2h-1.019v2zm.124-.553l.408.815 1.789-.894-.408-.815-1.789.894zm1.223 2.445l.815 1.63 1.789-.894-.815-1.63-1.789.894zm1.63 3.26l.815 1.63 1.789-.894-.815-1.63-1.789.894zm1.63 3.26l.815 1.63 1.789-.894-.815-1.63-1.789.894zm1.63 3.26l.815 1.63 1.789-.894-.815-1.63-1.789.894zm1.63 3.26l.407.815 1.789-.894-.407-.815-1.789.894zm1.302 1.368h.05v-2h-.05v2zm.15 0h.05v-2h-.05v2zm.98-.632l.403-1.019-1.86-.736-.403 1.02 1.86.735zm1.209-3.056l.806-2.038-1.859-.736-.807 2.038 1.86.736zm1.613-4.075l.806-2.038-1.86-.736-.806 2.038 1.86.736zm1.612-4.075l.806-2.038-1.859-.736-.807 2.038 1.86.736zm1.613-4.075l.403-1.02-1.86-.735-.403 1.019 1.86.736zm-.527-.387h.981v-2h-.981v2zm2.944 0h1.962v-2h-1.962v2zm3.925 0h.981v-2h-.981v2zm.069-1.411l-.419.93 1.823.823.419-.93-1.823-.823zm-1.259 2.79l-.839 1.862 1.823.822.839-1.86-1.823-.823zm-1.678 3.722l-.839 1.861 1.823.822.839-1.86-1.823-.823zm-1.679 3.722l-.839 1.86 1.823.823.839-1.86-1.823-.823zm-1.678 3.721l-.84 1.86 1.823.823.84-1.86-1.823-.823zm-1.679 3.722l-.839 1.86 1.823.823.839-1.861-1.823-.822zm-1.678 3.721l-.84 1.86 1.823.823.84-1.86-1.823-.823zm-1.679 3.722l-.42.93 1.823.822.42-.93-1.823-.822zm-.422.935c-.11.248-.223.487-.339.719l1.789.894c.13-.26.256-.527.378-.8l-1.828-.813zm-1.112 2.086c-.293.454-.598.867-.917 1.238l1.518 1.302a13.13 13.13 0 001.081-1.459l-1.682-1.081zm-1.989 2.296c-.194.16-.392.308-.594.445l1.117 1.658c.258-.173.508-.36.751-.56l-1.274-1.543zm-.594.445c-.209.14-.432.272-.671.394l.91 1.78c.307-.156.6-.328.878-.516l-1.117-1.658zm-2.166.974a12 12 0 01-1.624.34l.28 1.98a13.977 13.977 0 001.895-.398l-.551-1.922zm-3.316.488c-.278.011-.565.017-.859.017v2c.32 0 .633-.006.94-.019l-.081-1.998zm27.361.717l.108-.488-.013-.003-.013-.002-.082.493zm-1.3-.2h-.5v.441l.438.055.062-.496zm0-6.1l.067-.495-.567-.078v.573h.5zm5.7-1.25l.36.347.006-.006-.366-.341zm1.95-5.7l-.495-.076v.006l.495.07zm.65-19.4v-.5h-.5v.5h.5zm23.6 0h.5v-.5h-.5v.5zm0 32.45v.5h.5V33h-.5zm-7.8 0h-.5v.5h.5V33zm0-26.95h.5v-.5h-.5v.5zm-8.75 0v-.5h-.5v.5h.5zm-1.7 18.8l-.474-.16-.001.005.475.155zm-4.35 6.8l-.272-.42-.004.003.276.417zm-6.3 1.25c-.13 0-.262-.004-.397-.013l-.063.998c.155.01.308.015.46.015v-1zm-1.194-.11a8.87 8.87 0 01-.398-.078l-.217.976a9.8 9.8 0 00.444.088l.171-.985zm-.424-.083l-.326-.054-.161.987.323.053.164-.986zm-.984-.157a17.414 17.414 0 00-.336-.046l-.124.992c.085.01.189.025.315.044l.145-.99zm.102.45v-.763h-1V33h1zm0-2.288v-1.524h-1v1.524h1zm0-3.05V26.9h-1v.763h1zm-.568-.267c.163.023.32.042.472.06l.113-.994a22.372 22.372 0 01-.45-.056l-.135.99zm1.428.142c.172.009.335.013.49.013v-1a8.65 8.65 0 01-.439-.012l-.051.999zm.49.013c.389 0 .762-.024 1.119-.073l-.137-.99a7.196 7.196 0 01-.982.063v1zm3.292-.816c.337-.207.644-.453.918-.737l-.72-.694a3.616 3.616 0 01-.721.578l.523.853zm.924-.743c.186-.2.357-.429.517-.684l-.849-.53c-.13.21-.264.386-.4.532l.732.682zm1.209-2.159c.165-.456.313-.961.445-1.516l-.973-.232c-.125.525-.263.995-.412 1.41l.94.338zm.752-3.045c.041-.248.081-.504.118-.767l-.99-.14c-.036.255-.074.503-.114.742l.986.165zm.117-.761c.052-.341.101-.702.147-1.083l-.993-.12a34.97 34.97 0 01-.142 1.051l.988.152zm.357-3.248a79.64 79.64 0 00.136-2.165l-.999-.05c-.038.76-.083 1.472-.134 2.138l.997.077zm.223-4.327c.021-.69.038-1.41.051-2.16l-1-.017a146.83 146.83 0 01-.051 2.146l1 .031zm.073-4.321c.002-.354.003-.714.003-1.08h-1c0 .364-.001.722-.003 1.075l1 .005zm.003-1.08v-.813h-1v.813h1zm0-2.438V2.987h-1v1.625h1zm0-3.25V.55h-1v.813h1zm-.5-.312h.983v-1h-.983v1zm2.95 0h1.966v-1h-1.966v1zm3.933 0h1.967v-1h-1.967v1zm3.933 0h1.967v-1h-1.967v1zm3.934 0h1.966v-1h-1.966v1zm3.933 0h1.967v-1h-1.967v1zm3.933 0h.984v-1h-.984v1zm.484-.5v1.014h1V.55h-1zm0 3.042V5.62h1V3.592h-1zm0 4.056v2.029h1V7.648h-1zm0 4.057v2.028h1v-2.028h-1zm0 4.056v2.028h1v-2.028h-1zm0 4.056v2.028h1v-2.028h-1zm0 4.056v2.029h1v-2.029h-1zm0 4.057v2.028h1V27.93h-1zm0 4.056V33h1v-1.014h-1zm.5.514h-.975v1h.975v-1zm-2.925 0h-1.95v1h1.95v-1zm-3.9 0h-.975v1h.975v-1zm-.475.5v-.962h-1V33h1zm0-2.887v-1.925h-1v1.925h1zm0-3.85v-1.926h-1v1.925h1zm0-3.85v-1.925h-1v1.925h1zm0-3.85v-1.925h-1v1.924h1zm0-3.85v-1.925h-1v1.925h1zm0-3.85V8.938h-1v1.925h1zm0-3.85V6.05h-1v.963h1zm-.5-1.463h-1.094v1h1.094v-1zm-3.281 0h-2.188v1h2.188v-1zm-4.375 0h-1.094v1h1.094v-1zm-1.594.5v1.125h1V6.05h-1zm0 3.375v1.125h1V9.425h-1zm0 1.125c0 .303-.002.603-.004.9l1 .01c.002-.3.004-.604.004-.91h-1zm-.039 2.696a74.835 74.835 0 01-.075 1.794l.999.054c.032-.59.057-1.196.075-1.818l-.999-.03zm-.196 3.582c-.051.615-.11 1.209-.177 1.782l.993.116c.069-.585.129-1.19.18-1.815l-.996-.083zm-.421 3.551a33.075 33.075 0 01-.326 1.751l.978.21c.123-.574.235-1.175.336-1.803l-.988-.158zm-.756 3.47c-.084.29-.171.57-.262.841l.948.32c.096-.285.187-.58.275-.883l-.961-.278zm-.263.846c-.108.328-.218.646-.332.952l.937.348c.119-.32.234-.65.345-.99l-.95-.31zm-1.12 2.793a13.11 13.11 0 01-.999 1.707l.819.573c.383-.547.742-1.16 1.076-1.837l-.896-.443zm-2.273 3.164a6.213 6.213 0 01-.754.578l.544.84c.303-.197.594-.42.876-.672l-.666-.746zm-.758.58a9.41 9.41 0 01-.674.407l.48.878c.254-.14.503-.29.745-.45l-.551-.834zm-2.114 1.047c-.488.17-.997.307-1.529.407l.186.983c.579-.11 1.137-.258 1.674-.447l-.331-.943zm-3.11.598a14 14 0 01-.8.023v1c.29 0 .576-.008.857-.024l-.057-.998zm-2.5.323l.217-.976-.026-.006-.027-.004-.164.986zm-1.3-.2h-1v.883l.876.11.124-.993zm0-6.1l.135-.99-1.135-.156V26.9h1zm5.7-1.25l.72.694.006-.006.006-.007-.732-.681zm1.95-5.7l-.989-.151-.001.011.99.14zm.65-19.4v-1h-1v1h1zm23.6 0h1v-1h-1v1zm0 32.45v1h1v-1h-1zm-7.8 0h-1v1h1v-1zm0-26.95h1v-1h-1v1zm-8.75 0v-1h-1v1h1zm-1.7 18.8l-.948-.32-.003.01.951.31zm-4.35 6.8l-.544-.84-.007.006.551.834zm-6.3.75a5.7 5.7 0 01-.365-.012l-.127 1.996c.165.01.329.016.492.016v-2zm-1.108-.102a7.879 7.879 0 01-.375-.074l-.434 1.952c.156.035.312.066.466.093l.343-1.97zm-.428-.084a88.67 88.67 0 00-.328-.054l-.321 1.974.32.052.329-1.972zm-.993-.158c-.132-.02-.248-.036-.347-.048l-.248 1.984c.08.01.181.024.304.042l.291-1.978zm.529.944v-.763h-2V33h2zm0-2.288v-1.524h-2v1.524h2zm0-3.05V26.9h-2v.763h2zm-1.135.229c.165.022.326.043.482.06l.227-1.986c-.14-.017-.287-.035-.439-.056l-.27 1.982zm1.47.145c.179.01.351.014.515.014v-2c-.126 0-.264-.004-.413-.011l-.102 1.997zm.515.014c.41 0 .806-.025 1.187-.078l-.273-1.981a6.69 6.69 0 01-.914.059v2zm3.553-.89a5.133 5.133 0 001.017-.816l-1.44-1.388a3.16 3.16 0 01-.622.5l1.045 1.704zm1.029-.829a5.05 5.05 0 00.575-.76l-1.697-1.058a2.96 2.96 0 01-.342.456l1.464 1.362zm1.314-2.33c.171-.476.324-1 .46-1.568l-1.945-.465c-.122.51-.255.962-.397 1.356l1.882.678zm.774-3.132c.042-.252.082-.512.12-.78l-1.98-.279c-.036.251-.073.494-.113.729l1.973.33zm.118-.768c.053-.347.103-.713.149-1.098l-1.985-.239c-.044.367-.091.712-.141 1.035l1.977.302zm.361-3.284a80.93 80.93 0 00.138-2.178l-1.998-.1a75.673 75.673 0 01-.134 2.123l1.994.155zm.225-4.35c.021-.693.038-1.415.05-2.168l-1.999-.033a146.01 146.01 0 01-.05 2.139l1.999.062zm.073-4.335c.002-.355.003-.715.003-1.082h-2c0 .363-.001.72-.003 1.072l2 .01zm.003-1.082v-.813h-2v.813h2zm0-2.438V2.987h-2v1.625h2zm0-3.25V.55h-2v.813h2zm-1 .188h.983v-2h-.983v2zm2.95 0h1.966v-2h-1.966v2zm3.933 0h1.967v-2h-1.967v2zm3.933 0h1.967v-2h-1.967v2zm3.934 0h1.966v-2h-1.966v2zm3.933 0h1.967v-2h-1.967v2zm3.933 0h.984v-2h-.984v2zm-.016-1v1.014h2V.55h-2zm0 3.042V5.62h2V3.592h-2zm0 4.056v2.029h2V7.648h-2zm0 4.057v2.028h2v-2.028h-2zm0 4.056v2.028h2v-2.028h-2zm0 4.056v2.028h2v-2.028h-2zm0 4.056v2.029h2v-2.029h-2zm0 4.057v2.028h2V27.93h-2zm0 4.056V33h2v-1.014h-2zm1 .014h-.975v2h.975v-2zm-2.925 0h-1.95v2h1.95v-2zm-3.9 0h-.975v2h.975v-2zm.025 1v-.962h-2V33h2zm0-2.887v-1.925h-2v1.925h2zm0-3.85v-1.926h-2v1.925h2zm0-3.85v-1.925h-2v1.925h2zm0-3.85v-1.925h-2v1.924h2zm0-3.85v-1.925h-2v1.925h2zm0-3.85V8.938h-2v1.925h2zm0-3.85V6.05h-2v.963h2zm-1-1.963h-1.094v2h1.094v-2zm-3.281 0h-2.188v2h2.188v-2zm-4.375 0h-1.094v2h1.094v-2zm-2.094 1v1.125h2V6.05h-2zm0 3.375v1.125h2V9.425h-2zm0 1.125c0 .302-.002.6-.004.895l2 .019c.002-.301.004-.606.004-.914h-2zm-.039 2.681c-.018.61-.043 1.205-.074 1.782l1.997.108c.032-.594.057-1.204.076-1.83l-1.999-.06zm-.195 3.556c-.05.61-.108 1.198-.175 1.765l1.987.233c.069-.591.13-1.203.182-1.833l-1.994-.165zm-.416 3.513a31.839 31.839 0 01-.321 1.725l1.956.42c.125-.583.239-1.193.34-1.829l-1.975-.316zm-.742 3.41c-.082.284-.167.558-.256.821l1.896.638c.098-.292.192-.593.281-.903l-1.921-.555zm-.259.83c-.105.322-.214.633-.325.933l1.875.696c.121-.326.238-.662.351-1.008l-1.901-.622zm-1.092 2.727a12.632 12.632 0 01-.961 1.64l1.638 1.148c.4-.57.772-1.206 1.116-1.902l-1.793-.886zm-2.158 3.012a5.62 5.62 0 01-.693.532l1.088 1.678c.325-.21.637-.45.937-.717l-1.332-1.493zm-.7.537a8.981 8.981 0 01-.639.385l.959 1.754c.267-.146.528-.303.782-.47l-1.102-1.67zm-2.004.99c-.464.163-.949.293-1.457.39l.372 1.964a12 12 0 001.746-.466l-.661-1.887zm-2.973.572c-.253.015-.51.022-.772.022v2c.299 0 .594-.008.886-.025l-.114-1.997zM171.398.55v-.5h-.5v.5h.5zm7.8 0h.5v-.5h-.5v.5zm0 11.9h-.5v.5h.5v-.5zm11.5.45l-.079.494.01.001.069-.495zm4.45 1.9l-.342.365.006.005.006.006.33-.376zM171.398 33h-.5v.5h.5V33zm16.25-6.35l.255.43.012-.007-.267-.423zm.05-8.1l-.194.46.194-.46zm-8.55-.55v-.5h-.5v.5h.5zm0 9.45h-.5v.5h.5v-.5zm-8.25-26.9v1.014h1V.55h-1zm0 3.042V5.62h1V3.592h-1zm0 4.056v2.029h1V7.648h-1zm0 4.057v2.028h1v-2.028h-1zm0 4.056v2.028h1v-2.028h-1zm0 4.056v2.028h1v-2.028h-1zm0 4.056v2.029h1v-2.029h-1zm0 4.057v2.028h1V27.93h-1zm0 4.056V33h1v-1.014h-1zm.5 1.514h1.025v-1h-1.025v1zm3.075 0h2.05v-1h-2.05v1zm4.1 0h2.05v-1h-2.05v1zm4.1 0h1.025v-1h-1.025v1zm1.025 0c.369 0 .731-.005 1.085-.014l-.026-1c-.345.01-.698.014-1.059.014v1zm3.25-.134a25.13 25.13 0 002.163-.28l-.173-.985c-.649.114-1.341.204-2.078.269l.088.996zm4.301-.781c.756-.23 1.446-.504 2.067-.825l-.459-.888c-.56.289-1.192.541-1.899.756l.291.957zm3.932-2.116a6.462 6.462 0 001.386-1.84l-.894-.448a5.446 5.446 0 01-1.174 1.556l.682.732zm2.045-4.036c.049-.366.072-.744.072-1.133h-1c0 .349-.021.683-.063 1.002l.991.13zm.072-1.133v-.762h-1v.762h1zm0-2.288v-1.524h-1v1.524h1zm0-3.05V19.2h-1v.762h1zm0-.762c0-.447-.027-.872-.082-1.277l-.991.136c.049.354.073.735.073 1.141h1zm-.942-3.752a4.812 4.812 0 00-.877-1.024l-.661.752c.269.236.501.506.696.81l.842-.538zm-.866-1.013a6.556 6.556 0 00-1.056-.804l-.524.852c.33.203.628.43.896.682l.684-.73zm-3.464-1.787c-.4-.1-.819-.182-1.258-.243l-.139.99c.407.057.791.132 1.154.223l.243-.97zm-1.248-.242a25.213 25.213 0 00-.963-.134l-.12.992c.326.04.634.083.924.13l.159-.988zm-2.885-.313a56.295 56.295 0 00-1.92-.097l-.034 1c.668.022 1.297.054 1.885.095l.069-.998zm-3.837-.138a93.442 93.442 0 00-.958-.005v1c.323 0 .639.002.948.005l.01-1zm-.958-.005h-.975v1h.975v-1zm-2.925 0h-.975v1h.975v-1zm-.475.5v-.992h-1v.992h1zm0-2.975V7.492h-1v1.983h1zm0-3.967V3.525h-1v1.983h1zm0-3.966V.55h-1v.992h1zm-.5-1.492h-.975v1h.975v-1zm-2.925 0h-1.95v1h1.95v-1zm-3.9 0h-.975v1h.975v-1zm10.975 26.9h-1.05v1h1.05v-1zm-3.15 0h-1.05v1h1.05v-1zm-.55.5v-1.181h-1v1.181h1zm0-3.544v-2.362h-1v2.362h1zm0-4.725V18h-1v1.181h1zm-.5-.681h1.075v-1h-1.075v1zm3.225 0h1.075v-1h-1.075v1zm1.075 0c.374 0 .726.007 1.058.02l.04-1c-.346-.013-.712-.02-1.098-.02v1zm3.12.238c.381.077.69.169.936.273l.389-.921a5.885 5.885 0 00-1.128-.332l-.197.98zm.936.273c.176.074.323.162.444.261l.633-.774a2.819 2.819 0 00-.688-.409l-.389.922zm.939 1.093c.036.16.055.342.055.546h1c0-.267-.025-.523-.079-.765l-.976.22zm.055.546v.863h1v-.863h-1zm0 2.588v.862h1v-.863h-1zm0 .862c0 .235-.021.45-.063.648l.978.207c.058-.272.085-.558.085-.855h-1zm-.624 1.73c-.137.144-.3.276-.492.397l.533.846a3.59 3.59 0 00.682-.552l-.723-.69zm-.48.39a3.99 3.99 0 01-.903.377l.282.96a4.936 4.936 0 001.13-.477l-.509-.86zm-2.971.7c-.336.02-.694.03-1.075.03v1c.398 0 .777-.01 1.135-.032l-.06-.998zM171.398.55v-1h-1v1h1zm7.8 0h1v-1h-1v1zm0 11.9h-1v1h1v-1zm11.5.45l-.158.987.01.002.009.001.139-.99zm4.45 1.9l-.684.73.012.01.012.011.66-.751zM171.398 33h-1v1h1v-1zm16.25-6.35l.51.86.012-.007.011-.007-.533-.846zm.05-8.1l-.389.921.389-.921zm-8.55-.55v-1h-1v1h1zm0 9.45h-1v1h1v-1zm-8.75-26.9v1.014h2V.55h-2zm0 3.042V5.62h2V3.592h-2zm0 4.056v2.029h2V7.648h-2zm0 4.057v2.028h2v-2.028h-2zm0 4.056v2.028h2v-2.028h-2zm0 4.056v2.028h2v-2.028h-2zm0 4.056v2.029h2v-2.029h-2zm0 4.057v2.028h2V27.93h-2zm0 4.056V33h2v-1.014h-2zm1 2.014h1.025v-2h-1.025v2zm3.075 0h2.05v-2h-2.05v2zm4.1 0h2.05v-2h-2.05v2zm4.1 0h1.025v-2h-1.025v2zm1.025 0c.374 0 .739-.005 1.098-.014l-.051-2c-.341.01-.69.014-1.047.014v2zm3.294-.136a25.82 25.82 0 002.205-.285l-.345-1.97c-.634.11-1.312.199-2.036.263l.176 1.992zm4.402-.8a12.768 12.768 0 002.151-.86l-.918-1.777c-.529.274-1.132.516-1.814.723l.581 1.913zm4.128-2.23a6.943 6.943 0 001.492-1.98l-1.788-.896c-.261.52-.614.99-1.068 1.414l1.364 1.462zm2.2-4.336c.051-.389.076-.788.076-1.198h-2c0 .328-.02.64-.059.937l1.983.261zm.076-1.198v-.762h-2v.762h2zm0-2.288v-1.524h-2v1.524h2zm0-3.05V19.2h-2v.762h2zm0-.762c0-.467-.028-.915-.086-1.344l-1.982.27c.045.33.068.688.068 1.074h2zm-1.021-4.022c-.27-.422-.593-.8-.968-1.13l-1.321 1.503c.234.205.435.44.605.705l1.684-1.078zm-.945-1.108a7.05 7.05 0 00-1.136-.864l-1.048 1.703c.302.186.574.393.816.62l1.368-1.459zm-3.684-1.908a12.576 12.576 0 00-1.311-.252l-.278 1.98c.391.055.758.126 1.103.212l.486-1.94zm-1.291-.25c-.311-.05-.639-.095-.981-.137l-.241 1.986c.32.039.621.08.905.126l.317-1.974zm-2.93-.318a57.175 57.175 0 00-1.937-.098l-.068 2c.663.022 1.286.053 1.868.093l.137-1.995zm-3.866-.14a97.56 97.56 0 00-.963-.004v2c.322 0 .636.002.943.005l.02-2zm-.963-.004h-.975v2h.975v-2zm-2.925 0h-.975v2h.975v-2zm.025 1v-.992h-2v.992h2zm0-2.975V7.492h-2v1.983h2zm0-3.967V3.525h-2v1.983h2zm0-3.966V.55h-2v.992h2zm-1-1.992h-.975v2h.975v-2zm-2.925 0h-1.95v2h1.95v-2zm-3.9 0h-.975v2h.975v-2zm10.975 26.9h-1.05v2h1.05v-2zm-3.15 0h-1.05v2h1.05v-2zm-.05 1v-1.181h-2v1.181h2zm0-3.544v-2.362h-2v2.362h2zm0-4.725V18h-2v1.181h2zm-1-.181h1.075v-2h-1.075v2zm3.225 0h1.075v-2h-1.075v2zm1.075 0c.368 0 .714.007 1.037.02l.081-1.999a27.696 27.696 0 00-1.118-.021v2zm3.022.229c.357.071.633.155.839.242l.779-1.842a6.372 6.372 0 00-1.225-.361l-.393 1.96zm.839.242c.138.058.242.123.322.188l1.266-1.548a3.31 3.31 0 00-.809-.482l-.779 1.842zm.646.743c.027.12.043.264.043.436h2a4 4 0 00-.091-.874l-1.952.438zm.043.436v.863h2v-.863h-2zm0 2.588v.862h2v-.863h-2zm0 .862c0 .204-.019.385-.052.545l1.956.413c.066-.31.096-.63.096-.958h-2zm-.485 1.384a2.085 2.085 0 01-.397.32l1.065 1.692c.287-.18.548-.39.777-.629l-1.445-1.383zm-.374.306c-.2.118-.459.23-.789.327l.564 1.919a5.446 5.446 0 001.244-.526l-1.019-1.72zm-2.746.63c-.325.02-.673.03-1.045.03v2c.407 0 .796-.01 1.165-.033l-.12-1.997zM212.307 6.1h.5v-.5h-.5v.5zm-10 0h-.5v.5h.5v-.5zm0-5.55v-.5h-.5v.5h.5zm27.75 0h.5v-.5h-.5v.5zm0 5.55v.5h.5v-.5h-.5zm-9.95 0v-.5h-.5v.5h.5zm0 26.9v.5h.5V33h-.5zm-7.8 0h-.5v.5h.5V33zm0-27.4h-.834v1h.834v-1zm-2.5 0h-1.667v1h1.667v-1zm-3.334 0h-1.666v1h1.666v-1zm-3.333 0h-.833v1h.833v-1zm-.333.5V4.713h-1V6.1h1zm0-4.162V.55h-1v1.387h1zm-.5-.888h.991v-1h-.991v1zm2.973 0h1.982v-1h-1.982v1zm3.964 0h1.982v-1h-1.982v1zm3.964 0h1.983v-1h-1.983v1zm3.965 0h1.982v-1h-1.982v1zm3.964 0h1.982v-1h-1.982v1zm3.964 0h1.982v-1h-1.982v1zm3.965 0h.991v-1h-.991v1zm.491-.5v1.388h1V.55h-1zm0 4.162V6.1h1V4.713h-1zm.5.888h-1.244v1h1.244v-1zm-3.732 0h-2.487v1h2.487v-1zm-4.975 0h-1.243v1h1.243v-1zm-1.743.5v.96h1V6.1h-1zm0 2.882v1.922h1V8.982h-1zm0 3.843v1.921h1v-1.921h-1zm0 3.843v1.921h1v-1.921h-1zm0 3.843v1.921h1v-1.921h-1zm0 3.843v1.921h1v-1.921h-1zm0 3.842v1.922h1v-1.922h-1zm0 3.843V33h1v-.96h-1zm.5.461h-.975v1h.975v-1zm-2.925 0h-1.95v1h1.95v-1zm-3.9 0h-.975v1h.975v-1zm-.475.5v-.96h-1V33h1zm0-2.882v-1.922h-1v1.922h1zm0-3.843v-1.921h-1v1.921h1zm0-3.843v-1.921h-1v1.921h1zm0-3.843v-1.921h-1v1.921h1zm0-3.843v-1.921h-1v1.921h1zm0-3.842V8.982h-1v1.922h1zm0-3.843V6.1h-1v.96h1zm-.5-.961h1v-1h-1v1zm-10 0h-1v1h1v-1zm0-5.55v-1h-1v1h1zm27.75 0h1v-1h-1v1zm0 5.55v1h1v-1h-1zm-9.95 0v-1h-1v1h1zm0 26.9v1h1v-1h-1zm-7.8 0h-1v1h1v-1zm0-27.9h-.834v2h.834v-2zm-2.5 0h-1.667v2h1.667v-2zm-3.334 0h-1.666v2h1.666v-2zm-3.333 0h-.833v2h.833v-2zm.167 1V4.713h-2V6.1h2zm0-4.162V.55h-2v1.387h2zm-1-.388h.991v-2h-.991v2zm2.973 0h1.982v-2h-1.982v2zm3.964 0h1.982v-2h-1.982v2zm3.964 0h1.983v-2h-1.983v2zm3.965 0h1.982v-2h-1.982v2zm3.964 0h1.982v-2h-1.982v2zm3.964 0h1.982v-2h-1.982v2zm3.965 0h.991v-2h-.991v2zm-.009-1v1.387h2V.55h-2zm0 4.162V6.1h2V4.713h-2zm1 .388h-1.244v2h1.244v-2zm-3.732 0h-2.487v2h2.487v-2zm-4.975 0h-1.243v2h1.243v-2zm-2.243 1v.96h2V6.1h-2zm0 2.882v1.922h2V8.982h-2zm0 3.843v1.921h2v-1.921h-2zm0 3.843v1.921h2v-1.921h-2zm0 3.843v1.921h2v-1.921h-2zm0 3.843v1.921h2v-1.921h-2zm0 3.842v1.922h2v-1.922h-2zm0 3.843V33h2v-.96h-2zm1-.039h-.975v2h.975v-2zm-2.925 0h-1.95v2h1.95v-2zm-3.9 0h-.975v2h.975v-2zm.025 1v-.96h-2V33h2zm0-2.882v-1.922h-2v1.922h2zm0-3.843v-1.921h-2v1.921h2zm0-3.843v-1.921h-2v1.921h2zm0-3.843v-1.921h-2v1.921h2zm0-3.843v-1.921h-2v1.921h2zm0-3.842V8.982h-2v1.922h2zm0-3.843V6.1h-2v.96h2zM245.643.55v-.5h-.348l-.121.327.469.173zm9.5 0l.47-.17-.119-.33h-.351v.5zm11.7 32.45v.5h.712l-.242-.67-.47.17zm-7.9 0l-.474.16.116.34h.358V33zm-2.9-8.55l.473-.16-.115-.34h-.358v.5zm-11.85 0v-.5h-.36l-.114.342.474.158zm-2.85 8.55v.5h.36l.114-.342-.474-.158zm-7.7 0l-.469-.173-.249.673h.718V33zm20.7-13.75v.5h.695l-.221-.66-.474.16zm-4.1-12.2l.474-.16-.115-.34h-.359v.5zm-.2 0v-.5h-.359l-.115.34.474.16zm-4.1 12.2l-.474-.16-.222.66h.696v-.5zM245.174.377l-.333.901.938.347.333-.902-.938-.346zm-1 2.704l-.667 1.803.938.346.667-1.802-.938-.347zm-1.333 3.605l-.667 1.803.938.347.667-1.803-.938-.347zm-1.334 3.606l-.666 1.803.938.346.666-1.802-.938-.347zm-1.333 3.605l-.667 1.803.938.347.667-1.803-.938-.347zm-1.333 3.606l-.667 1.803.938.347.667-1.803-.938-.347zm-1.334 3.605l-.666 1.803.938.347.666-1.803-.938-.346zm-1.333 3.606l-.667 1.803.938.347.667-1.803-.938-.347zm-1.333 3.606l-.667 1.802.938.347.667-1.803-.938-.346zm-1.334 3.605l-.333.902.938.346.333-.901-.938-.347zm.136 1.575h.962v-1h-.962v1zm2.887 0h1.925v-1h-1.925v1zm3.85 0h.963v-1h-.963v1zm1.437-.342l.357-1.069-.949-.316-.356 1.069.948.316zm1.069-3.206l.713-2.138-.949-.316-.713 2.138.949.316zm1.425-4.275l.356-1.069-.948-.316-.357 1.069.949.316zm-.118-.727h.987v-1h-.987v1zm2.962 0h1.975v-1h-1.975v1zm3.95 0h1.975v-1h-1.975v1zm3.95 0h.988v-1h-.988v1zm.514-.34l.363 1.07.947-.322-.363-1.069-.947.322zm1.088 3.207l.725 2.137.947-.32-.725-2.138-.947.32zm1.45 4.275l.362 1.069.947-.322-.362-1.068-.947.32zm.836 1.408h.987v-1h-.987v1zm2.962 0h1.975v-1h-1.975v1zm3.95 0h.988v-1h-.988v1zm1.458-.67l-.325-.901-.94.34.325.9.94-.339zm-.975-2.704l-.65-1.803-.94.34.65 1.802.94-.339zm-1.3-3.605l-.65-1.803-.94.34.65 1.802.94-.34zm-1.3-3.606l-.65-1.803-.94.34.65 1.802.94-.339zm-1.3-3.605l-.65-1.803-.94.339.65 1.803.94-.34zm-1.3-3.606l-.65-1.803-.94.34.65 1.802.94-.339zm-1.3-3.606l-.65-1.802-.94.339.65 1.803.94-.34zm-1.3-3.605l-.65-1.803-.94.34.65 1.802.94-.34zm-1.3-3.606l-.65-1.802-.94.339.65 1.803.94-.34zm-1.3-3.605l-.325-.902-.94.34.325.901.94-.34zM255.143.05h-1.188v1h1.188v-1zm-3.563 0h-2.375v1h2.375v-1zm-4.75 0h-1.187v1h1.187v-1zm7.513 18.7h-1.05v1h1.05v-1zm-3.15 0h-2.1v1h2.1v-1zm-4.2 0h-1.05v1h1.05v-1zm-.576.66l.342-1.017-.948-.319-.342 1.017.948.318zm1.025-3.05l.683-2.034-.948-.319-.683 2.034.948.318zm1.367-4.067l.683-2.034-.948-.318-.683 2.033.948.319zm1.366-4.067l.342-1.017-.948-.318-.342 1.016.948.319zm-.132-.676h.05v-1h-.05v1zm.15 0h.05v-1h-.05v1zm-.424-.34l.342 1.016.948-.319-.342-1.016-.948.318zm1.025 3.05l.683 2.033.948-.319-.683-2.033-.948.318zm1.367 4.066l.683 2.033.948-.318-.683-2.034-.948.319zm1.366 4.067l.342 1.016.948-.318-.342-1.017-.948.319zM245.643.55v-1h-.696l-.242.653.938.347zm9.5 0l.941-.34-.239-.66h-.702v1zm11.7 32.45v1h1.424l-.483-1.34-.941.34zm-7.9 0l-.947.321.23.679h.717v-1zm-2.9-8.55l.947-.321-.23-.679h-.717v1zm-11.85 0v-1h-.721l-.228.684.949.316zm-2.85 8.55v1h.721l.228-.684-.949-.316zm-7.7 0l-.938-.347-.498 1.347h1.436v-1zm20.7-13.75v1h1.391l-.443-1.319-.948.319zm-4.1-12.2l.948-.319-.229-.681h-.719v1zm-.2 0v-1h-.719l-.229.681.948.319zm-4.1 12.2l-.948-.319-.443 1.319h1.391v-1zM244.705.203l-.333.902 1.876.693.333-.901-1.876-.694zm-1 2.704l-.667 1.803 1.876.694.667-1.803-1.876-.694zm-1.333 3.606l-.667 1.803 1.876.693.667-1.802-1.876-.694zm-1.334 3.605l-.666 1.803 1.876.694.666-1.803-1.876-.694zm-1.333 3.606l-.667 1.803 1.876.694.667-1.803-1.876-.694zm-1.333 3.605l-.667 1.803 1.876.694.667-1.803-1.876-.694zm-1.334 3.606l-.666 1.803 1.876.694.666-1.803-1.876-.694zm-1.333 3.606l-.667 1.802 1.876.694.667-1.803-1.876-.693zm-1.333 3.605l-.667 1.803 1.876.694.667-1.803-1.876-.694zm-1.334 3.606l-.333.901 1.876.694.333-.901-1.876-.694zm.605 2.248h.962v-2h-.962v2zm2.887 0h1.925v-2h-1.925v2zm3.85 0h.963v-2h-.963v2zm1.912-.684l.356-1.069-1.897-.632-.357 1.069 1.898.632zm1.068-3.206l.713-2.137-1.897-.633-.713 2.137 1.897.633zm1.425-4.275l.357-1.069-1.898-.632-.356 1.069 1.897.632zm-.592-.385h.987v-2h-.987v2zm2.962 0h1.975v-2h-1.975v2zm3.95 0h1.975v-2h-1.975v2zm3.95 0h.988v-2h-.988v2zm.041-.679l.362 1.069 1.894-.642-.362-1.07-1.894.643zm1.087 3.206l.725 2.138 1.894-.642-.725-2.138-1.894.642zm1.45 4.275l.363 1.07 1.894-.643-.363-1.069-1.894.642zm1.31 1.748h.987v-2h-.987v2zm2.962 0h1.975v-2h-1.975v2zm3.95 0h.988v-2h-.988v2zm1.929-1.34l-.325-.9-1.882.678.325.901 1.882-.678zm-.975-2.703l-.65-1.803-1.882.678.65 1.803 1.882-.678zm-1.3-3.606l-.65-1.803-1.882.679.65 1.802 1.882-.678zm-1.3-3.605l-.65-1.803-1.882.678.65 1.803 1.882-.678zm-1.3-3.606l-.65-1.803-1.882.679.65 1.802 1.882-.678zm-1.3-3.606l-.65-1.802-1.882.678.65 1.803 1.882-.679zm-1.3-3.605l-.65-1.803-1.882.679.65 1.802 1.882-.678zm-1.3-3.606l-.65-1.802-1.882.678.65 1.803 1.882-.679zm-1.3-3.605l-.65-1.803-1.882.678.65 1.803 1.882-.678zm-1.3-3.606l-.325-.901-1.882.678.325.902 1.882-.679zM255.143-.45h-1.188v2h1.188v-2zm-3.563 0h-2.375v2h2.375v-2zm-4.75 0h-1.187v2h1.187v-2zm7.513 18.7h-1.05v2h1.05v-2zm-3.15 0h-2.1v2h2.1v-2zm-4.2 0h-1.05v2h1.05v-2zm-.102 1.319l.342-1.017-1.896-.637-.342 1.016 1.896.638zm1.025-3.05l.683-2.034-1.896-.637-.683 2.033 1.896.638zm1.367-4.067l.683-2.033-1.896-.638-.683 2.034 1.896.637zm1.366-4.067l.342-1.016-1.896-.638-.342 1.017 1.896.637zm-.606-.335h.05v-2h-.05v2zm.15 0h.05v-2h-.05v2zm-.898-.681l.342 1.016 1.896-.637-.342-1.017-1.896.638zm1.025 3.05l.683 2.033 1.896-.637-.683-2.034-1.896.638zm1.367 4.066l.683 2.034 1.896-.638-.683-2.033-1.896.637zm1.366 4.067l.342 1.017 1.896-.638-.342-1.016-1.896.637zM280.441 6.1h.5v-.5h-.5v.5zm-10 0h-.5v.5h.5v-.5zm0-5.55v-.5h-.5v.5h.5zm27.75 0h.5v-.5h-.5v.5zm0 5.55v.5h.5v-.5h-.5zm-9.95 0v-.5h-.5v.5h.5zm0 26.9v.5h.5V33h-.5zm-7.8 0h-.5v.5h.5V33zm0-27.4h-.833v1h.833v-1zm-2.5 0h-1.666v1h1.666v-1zm-3.333 0h-1.667v1h1.667v-1zm-3.333 0h-.834v1h.834v-1zm-.334.5V4.713h-1V6.1h1zm0-4.162V.55h-1v1.387h1zm-.5-.888h.991v-1h-.991v1zm2.974 0h1.982v-1h-1.982v1zm3.964 0h1.982v-1h-1.982v1zm3.964 0h1.982v-1h-1.982v1zm3.964 0h1.983v-1h-1.983v1zm3.965 0h1.982v-1h-1.982v1zm3.964 0h1.982v-1h-1.982v1zm3.964 0h.991v-1h-.991v1zm.491-.5v1.388h1V.55h-1zm0 4.162V6.1h1V4.713h-1zm.5.888h-1.243v1h1.243v-1zm-3.731 0h-2.487v1h2.487v-1zm-4.975 0h-1.244v1h1.244v-1zm-1.744.5v.96h1V6.1h-1zm0 2.882v1.922h1V8.982h-1zm0 3.843v1.921h1v-1.921h-1zm0 3.843v1.921h1v-1.921h-1zm0 3.843v1.921h1v-1.921h-1zm0 3.843v1.921h1v-1.921h-1zm0 3.842v1.922h1v-1.922h-1zm0 3.843V33h1v-.96h-1zm.5.461h-.975v1h.975v-1zm-2.925 0h-1.95v1h1.95v-1zm-3.9 0h-.975v1h.975v-1zm-.475.5v-.96h-1V33h1zm0-2.882v-1.922h-1v1.922h1zm0-3.843v-1.921h-1v1.921h1zm0-3.843v-1.921h-1v1.921h1zm0-3.843v-1.921h-1v1.921h1zm0-3.843v-1.921h-1v1.921h1zm0-3.842V8.982h-1v1.922h1zm0-3.843V6.1h-1v.96h1zm-.5-.961h1v-1h-1v1zm-10 0h-1v1h1v-1zm0-5.55v-1h-1v1h1zm27.75 0h1v-1h-1v1zm0 5.55v1h1v-1h-1zm-9.95 0v-1h-1v1h1zm0 26.9v1h1v-1h-1zm-7.8 0h-1v1h1v-1zm0-27.9h-.833v2h.833v-2zm-2.5 0h-1.666v2h1.666v-2zm-3.333 0h-1.667v2h1.667v-2zm-3.333 0h-.834v2h.834v-2zm.166 1V4.713h-2V6.1h2zm0-4.162V.55h-2v1.387h2zm-1-.388h.991v-2h-.991v2zm2.974 0h1.982v-2h-1.982v2zm3.964 0h1.982v-2h-1.982v2zm3.964 0h1.982v-2h-1.982v2zm3.964 0h1.983v-2h-1.983v2zm3.965 0h1.982v-2h-1.982v2zm3.964 0h1.982v-2h-1.982v2zm3.964 0h.991v-2h-.991v2zm-.009-1v1.387h2V.55h-2zm0 4.162V6.1h2V4.713h-2zm1 .388h-1.243v2h1.243v-2zm-3.731 0h-2.487v2h2.487v-2zm-4.975 0h-1.244v2h1.244v-2zm-2.244 1v.96h2V6.1h-2zm0 2.882v1.922h2V8.982h-2zm0 3.843v1.921h2v-1.921h-2zm0 3.843v1.921h2v-1.921h-2zm0 3.843v1.921h2v-1.921h-2zm0 3.843v1.921h2v-1.921h-2zm0 3.842v1.922h2v-1.922h-2zm0 3.843V33h2v-.96h-2zm1-.039h-.975v2h.975v-2zm-2.925 0h-1.95v2h1.95v-2zm-3.9 0h-.975v2h.975v-2zm.025 1v-.96h-2V33h2zm0-2.882v-1.922h-2v1.922h2zm0-3.843v-1.921h-2v1.921h2zm0-3.843v-1.921h-2v1.921h2zm0-3.843v-1.921h-2v1.921h2zm0-3.843v-1.921h-2v1.921h2zm0-3.842V8.982h-2v1.922h2zm0-3.843V6.1h-2v.96h2z" fill="#77C2F9" fill-opacity=".9"/></svg>