<svg width="423" height="61" fill="none" xmlns="http://www.w3.org/2000/svg"><path d="M.18.974v-.5h-.5v.5h.5zm32.042 0h.5v-.5h-.5v.5zm0 8.214v.5h.5v-.5h-.5zm-20.498 0v-.5h-.5v.5h.5zm0 39.812v.5h.5V49h-.5zM.18 49h-.5v.5h.5V49zM-.32.974v1h1v-1h-1zm0 3.002v2h1v-2h-1zm0 4.002v2h1v-2h-1zm0 4.002v2.001h1V11.98h-1zm0 4.002v2.001h1v-2h-1zm0 4.002v2.001h1v-2h-1zm0 4.002v2.002h1v-2.002h-1zm0 4.003v2h1v-2h-1zm0 4.002v2h1v-2h-1zm0 4.002v2.001h1v-2.001h-1zm0 4.002v2.001h1v-2h-1zm0 4.002v2.001h1v-2h-1zm0 4.002V49h1v-1h-1zm.5 1.501h.962v-1H.18v1zm2.886 0H4.99v-1H3.066v1zm3.848 0h1.924v-1H6.914v1zm3.848 0h.962v-1h-.962v1zm1.462-.5v-.995h-1V49h1zm0-2.986v-1.99h-1v1.99h1zm0-3.981v-1.99h-1v1.99h1zm0-3.981v-1.99h-1v1.99h1zm0-3.981V32.08h-1v1.99h1zm0-3.982V28.1h-1v1.99h1zm0-3.98v-1.992h-1v1.991h1zm0-3.982v-1.99h-1v1.99h1zm0-3.981v-1.99h-1v1.99h1zm0-3.982v-1.99h-1v1.99h1zm0-3.98v-.996h-1v.995h1zm-.5-.496h1.025v-1h-1.025v1zm3.075 0h2.05v-1h-2.05v1zm4.1 0h2.05v-1h-2.05v1zm4.099 0h2.05v-1h-2.05v1zm4.1 0h2.05v-1h-2.05v1zm4.1 0h1.024v-1h-1.025v1zm1.524-.5V8.161h-1v1.027h1zm0-3.08V4.054h-1v2.054h1zm0-4.107V.974h-1v1.027h1zm-.5-1.527h-1.001v1h1.001v-1zm-3.004 0h-2.003v1h2.003v-1zm-4.005 0H23.21v1h2.003v-1zm-4.005 0h-2.003v1h2.003v-1zm-4.006 0H15.2v1h2.002v-1zm-4.005 0h-2.003v1h2.003v-1zm-4.005 0H7.189v1h2.003v-1zm-4.005 0H3.184v1h2.003v-1zm-4.006 0H.18v1h1.001v-1zM.18.974v-1h-1v1h1zm32.042 0h1v-1h-1v1zm0 8.214v1h1v-1h-1zm-20.498 0v-1h-1v1h1zm0 39.812v1h1v-1h-1zM.18 49h-1v1h1v-1zM-.82.974v1h2v-1h-2zm0 3.002v2h2v-2h-2zm0 4.002v2h2v-2h-2zm0 4.002v2.001h2V11.98h-2zm0 4.002v2.001h2v-2h-2zm0 4.002v2.001h2v-2h-2zm0 4.002v2.002h2v-2.002h-2zm0 4.003v2h2v-2h-2zm0 4.002v2h2v-2h-2zm0 4.002v2.001h2v-2.001h-2zm0 4.002v2.001h2v-2h-2zm0 4.002v2.001h2v-2h-2zm0 4.002V49h2v-1h-2zM.18 50h.962v-2H.18v2zm2.886 0H4.99v-2H3.066v2zm3.848 0h1.924v-2H6.914v2zm3.848 0h.962v-2h-.962v2zm1.962-1v-.995h-2V49h2zm0-2.986v-1.99h-2v1.99h2zm0-3.981v-1.99h-2v1.99h2zm0-3.981v-1.99h-2v1.99h2zm0-3.981V32.08h-2v1.99h2zm0-3.982V28.1h-2v1.99h2zm0-3.98v-1.992h-2v1.991h2zm0-3.982v-1.99h-2v1.99h2zm0-3.981v-1.99h-2v1.99h2zm0-3.982v-1.99h-2v1.99h2zm0-3.98v-.996h-2v.995h2zm-1 .004h1.025v-2h-1.025v2zm3.075 0h2.05v-2h-2.05v2zm4.1 0h2.05v-2h-2.05v2zm4.099 0h2.05v-2h-2.05v2zm4.1 0h2.05v-2h-2.05v2zm4.1 0h1.024v-2h-1.025v2zm2.024-1V8.161h-2v1.027h2zm0-3.08V4.054h-2v2.054h2zm0-4.107V.974h-2v1.027h2zm-1-2.027h-1.001v2h1.001v-2zm-3.004 0h-2.003v2h2.003v-2zm-4.005 0H23.21v2h2.003v-2zm-4.005 0h-2.003v2h2.003v-2zm-4.006 0H15.2v2h2.002v-2zm-4.005 0h-2.003v2h2.003v-2zm-4.005 0H7.189v2h2.003v-2zm-4.005 0H3.184v2h2.003v-2zm-4.006 0H.18v2h1.001v-2zm55.715 49.248l-.077.494h.002l.075-.494zm-6.956-1.776l.164-.472-.003-.001-.16.473zm-6.142-4.292l-.403.295.003.005.4-.3zm-.666-34.706l-.432-.25-.005.008.437.242zm4.144-4.44l-.267-.422-.004.002.271.42zm5.476-2.368l.142.48-.142-.48zM58.82.456l.04.498h.003L58.82.456zM70.216.53l-.058.497h.007l.007.001.044-.498zm5.624 1.036l.14-.48-.013-.004-.127.484zm5.846 2.516l.271-.42-.27.42zm3.848 4.144l-.431.252.002.004.43-.256zm-.518 34.484l-.4-.298-.006.006.406.292zm-5.772 4.366l-.185-.464.185.464zm-10.73-5.698l.046.498h.01l.009-.002-.065-.496zm3.478-.74l-.14-.48.14.48zm2.664-1.702l-.397-.304-.003.004.4.3zM72.88 9.928l-.237.44.009.005.228-.445zm-17.02-.074l-.228-.445.228.445zm-1.776 29.082l-.397.304.005.006.004.005.388-.315zm2.812 1.702l.14-.48-.005-.002-.135.482zm3.404.74l-.067.495.012.002.012.001.043-.498zm3.996 7.862c-.31 0-.616-.002-.92-.007l-.016 1c.31.005.622.007.936.007v-1zm-2.759-.066a49.076 49.076 0 01-1.833-.123l-.086.996c.611.053 1.235.095 1.87.126l.05-.999zm-3.658-.319a47.21 47.21 0 01-.907-.127l-.15.988c.306.047.616.09.93.13l.127-.99zm-.906-.127c-.289-.045-.58-.094-.873-.148l-.18.984c.302.055.602.106.9.152l.153-.988zm-2.608-.51a39.62 39.62 0 01-1.718-.444l-.271.963c.593.167 1.18.319 1.761.455l.228-.974zm-3.418-.96c-.28-.092-.56-.186-.843-.284l-.328.944c.289.1.576.197.861.29l.31-.95zm-.846-.285a15.22 15.22 0 01-.863-.322l-.378.925c.299.122.605.237.92.343l.321-.946zm-2.51-1.127a11.747 11.747 0 01-1.502-1.031l-.63.777c.507.41 1.051.783 1.632 1.119l.5-.865zm-2.817-2.287a10.912 10.912 0 01-.576-.705l-.8.6c.2.265.409.522.628.769l.748-.664zm-.572-.7a10.505 10.505 0 01-.515-.773l-.856.517c.175.29.363.572.564.846l.807-.59zm-1.33-2.441a11.375 11.375 0 01-.521-1.789l-.98.202c.14.675.328 1.324.567 1.946l.934-.36zm-.765-3.648a15.314 15.314 0 01-.029-.942h-1c0 .34.01.675.03 1.004l.999-.062zm-.029-.942v-1.05h-1v1.05h1zm0-3.152v-2.102h-1v2.102h1zm0-4.204v-2.101h-1v2.101h1zm0-4.203v-2.101h-1v2.101h1zm0-4.203v-2.102h-1v2.102h1zm0-4.203v-1.051h-1v1.05h1zm0-1.051c0-.27.007-.538.021-.801l-.998-.053a16.15 16.15 0 00-.023.854h1zm.196-2.388a12.3 12.3 0 01.368-1.547l-.956-.294c-.167.542-.3 1.1-.397 1.672l.985.169zm.937-3.027c.111-.24.23-.475.359-.707l-.875-.484c-.14.252-.27.508-.391.769l.907.422zm.354-.698c.125-.217.254-.427.387-.632l-.838-.545c-.143.22-.28.445-.414.675l.865.502zm1.258-1.825c.315-.385.648-.745.999-1.08l-.692-.723c-.38.364-.74.754-1.08 1.169l.773.634zm2.121-2.028c.197-.145.398-.285.604-.418l-.543-.84c-.224.145-.443.296-.656.455l.595.803zm.6-.416c.393-.249.813-.488 1.26-.717l-.456-.89c-.472.242-.918.496-1.34.763l.536.844zm3.95-1.859a28.85 28.85 0 011.4-.452l-.283-.959c-.5.148-.983.304-1.448.468l.331.943zm1.4-.452c.247-.072.492-.142.735-.209l-.264-.964c-.25.068-.5.14-.754.214l.283.96zm2.215-.579a29.663 29.663 0 011.493-.298l-.17-.986c-.505.088-1.02.19-1.543.309l.22.975zm2.997-.513c.254-.029.505-.053.754-.073l-.079-.996c-.26.02-.522.045-.787.075l.112.994zm.757-.073a56.63 56.63 0 011.355-.1l-.062-.997a57.65 57.65 0 00-1.378.1l.085.997zm4.072-.207a71.8 71.8 0 011.361-.013v-1c-.465 0-.925.004-1.38.013l.02 1zm1.361-.013c.506 0 .997.005 1.473.015l.02-1c-.483-.01-.98-.015-1.493-.015v1zm4.406.152c.51.04.994.086 1.456.14l.117-.993a37.533 37.533 0 00-1.496-.144l-.077.997zm1.47.142c.45.04.915.094 1.395.163l.142-.99c-.497-.071-.98-.128-1.449-.17l-.088.997zm4.167.684c.448.102.906.215 1.375.338l.253-.968c-.478-.125-.947-.24-1.406-.345l-.222.975zm1.361.334c.256.075.507.151.753.23l.303-.954c-.254-.08-.512-.16-.776-.236l-.28.96zm2.234.744a22.6 22.6 0 011.441.603l.419-.908c-.476-.22-.978-.43-1.504-.63l-.356.935zm2.822 1.312c.228.13.448.264.66.4l.541-.84a15.48 15.48 0 00-.704-.428l-.497.868zm.66.4c.379.245.743.515 1.09.812l.649-.762c-.382-.324-.78-.621-1.198-.89l-.542.84zm2.936 2.822c.263.362.513.747.75 1.154l.864-.504a14.857 14.857 0 00-.805-1.237l-.81.587zm.753 1.158c.138.233.268.472.388.718l.898-.438a10.95 10.95 0 00-.427-.792l-.86.512zm.988 2.242c.158.51.283 1.046.376 1.605l.986-.163c-.1-.602-.235-1.18-.406-1.737l-.956.295zm.55 3.254c.013.273.02.551.02.834h1c0-.299-.008-.593-.022-.883l-.999.05zm.02.834v1.05h1v-1.05h-1zm0 3.152v2.102h1v-2.102h-1zm0 4.204v2.101h1v-2.101h-1zm0 4.203v2.101h1v-2.101h-1zm0 4.203v2.102h1v-2.102h-1zm0 4.203v1.051h1v-1.05h-1zm0 1.051c0 .3-.01.595-.029.884l.998.065c.02-.312.03-.628.03-.949h-1zm-.267 2.628c-.126.582-.294 1.14-.507 1.674l.93.37c.233-.588.418-1.2.554-1.834l-.978-.21zm-1.29 3.233c-.152.246-.316.487-.49.723l.802.596c.192-.258.371-.523.539-.794l-.85-.525zm-.496.73c-.171.238-.35.469-.54.692l.765.645c.205-.243.401-.495.588-.754l-.813-.584zm-1.773 1.94a12 12 0 01-1.412 1.05l.538.843a13.035 13.035 0 001.529-1.137l-.655-.756zm-2.963 1.9a16.38 16.38 0 01-.815.353l.371.928c.297-.118.586-.244.868-.376l-.424-.906zm-.815.353c-.29.116-.583.228-.878.337l.344.938c.304-.111.606-.227.905-.347l-.371-.928zm-2.662.936c-.596.183-1.2.35-1.814.503l.241.97a36.042 36.042 0 001.866-.517l-.293-.956zm-3.654.911c-.61.12-1.23.226-1.858.318l.145.99a40.416 40.416 0 001.906-.326l-.193-.982zm-3.73.55c-.62.063-1.247.112-1.883.15l.059.998a47.56 47.56 0 001.924-.153l-.1-.995zm-3.771.222c-.313.006-.629.009-.946.009v1c.324 0 .645-.003.965-.009l-.02-1zm-.798-8.205c-.355 0-.698-.002-1.03-.007l-.014 1c.337.005.685.007 1.044.007v-1zm-3.082-.075c-.36-.02-.7-.043-1.018-.071l-.087.996c.33.029.68.053 1.05.074l.055-.999zm-.994-.068a20.239 20.239 0 01-.84-.133l-.177.984c.297.053.591.1.882.14l.135-.991zm-2.507-.498c-.272-.07-.547-.146-.825-.227l-.28.96c.288.084.574.162.856.235l.25-.968zm-.83-.228a6.967 6.967 0 01-.737-.25l-.376.926c.267.109.548.204.844.287l.27-.963zm-2.04-1.012a3.814 3.814 0 01-.519-.524l-.776.63c.195.24.413.46.654.662l.641-.768zm-.51-.513a3.917 3.917 0 01-.389-.622l-.893.449a4.9 4.9 0 00.488.78l.795-.607zm-.811-2.042a5.9 5.9 0 01-.048-.762h-1c0 .306.019.603.056.891l.992-.13zm-.048-.762v-1.055h-1v1.055h1zm0-3.164v-2.109h-1v2.11h1zm0-4.218v-2.109h-1v2.11h1zm0-4.218V22.12h-1v2.11h1zm0-4.218v-2.109h-1v2.11h1zm0-4.218v-1.054h-1v1.055h1zm0-1.054c0-.497.045-.954.131-1.372l-.98-.202a7.776 7.776 0 00-.15 1.574h1zm1.37-3.675a4.719 4.719 0 011.097-.764l-.457-.89c-.5.257-.944.565-1.326.927l.686.727zm1.097-.764a7.93 7.93 0 01.939-.404l-.34-.941c-.378.137-.73.288-1.056.455l.457.89zm2.96-.938c.642-.12 1.344-.214 2.108-.282l-.09-.997c-.79.071-1.524.17-2.201.296l.184.983zm4.246-.4c.35-.009.707-.013 1.075-.013v-1c-.375 0-.742.004-1.1.013l.025 1zm1.075-.013c.369 0 .728.005 1.077.014l.026-1c-.358-.01-.726-.014-1.103-.014v1zm3.219.138c.763.072 1.465.172 2.107.298l.194-.98a22.064 22.064 0 00-2.208-.314l-.093.996zm4.122.86c.34.129.65.27.932.422l.475-.88a8.784 8.784 0 00-1.05-.477l-.357.934zm.941.427c.42.216.783.467 1.089.752l.68-.732a5.822 5.822 0 00-1.312-.91l-.457.89zm2.334 3.014c.087.412.132.861.132 1.351h1c0-.55-.05-1.071-.154-1.56l-.978.209zm.132 1.351v1.055h1v-1.055h-1zm0 3.163v2.11h1V17.9h-1zm0 4.218v2.11h1v-2.11h-1zm0 4.218v2.11h1v-2.11h-1zm0 4.218v2.11h1v-2.11h-1zm0 4.218v1.055h1v-1.055h-1zm0 1.055a5.9 5.9 0 01-.047.762l.991.129c.038-.288.056-.585.056-.891h-1zm-.47 2.182c-.11.22-.24.427-.389.622l.795.608c.187-.245.35-.506.488-.781l-.894-.449zm-.392.626a3.513 3.513 0 01-.476.517l.665.747a4.52 4.52 0 00.611-.664l-.8-.6zm-1.701 1.273a6.372 6.372 0 01-.703.249l.28.96a7.36 7.36 0 00.814-.288l-.391-.92zm-.703.249c-.282.082-.562.159-.841.23l.246.969c.29-.074.582-.154.875-.239l-.28-.96zm-2.543.594c-.288.05-.575.093-.86.13l.13.992c.299-.04.599-.085.9-.137l-.17-.985zm-.84.128c-.309.028-.642.052-.998.072l.056.999c.366-.02.71-.046 1.033-.075l-.09-.996zm-3.013.14c-.324.004-.662.006-1.012.006v1c.355 0 .697-.002 1.026-.007l-.014-1zm-8.56 8.202l-.153.988h.003l.15-.988zm-6.956-1.776l.328-.945-.006-.002-.322.947zm-6.142-4.292l-.807.59.007.01.8-.6zm-.666-34.706l-.865-.501-.005.009-.005.008.875.484zm4.144-4.44l-.535-.845-.008.005.543.84zm5.476-2.368l.284.959-.284-.959zM58.82.456l.08.997h.006L58.82.455zM70.216.53l-.116.993.014.002.014.001.088-.996zm5.624 1.036l.28-.96-.013-.004L76.094.6l-.254.967zm5.846 2.516l.542-.84-.542.84zm3.848 4.144l-.863.504.004.007.86-.511zm-.518 34.484l-.802-.597-.005.007-.005.007.812.583zm-5.772 4.366l-.371-.928.371.928zm-10.73-5.698l.09.996.02-.002.02-.002-.13-.992zm3.478-.74l-.28-.96.28.96zm2.664-1.702l-.794-.608-.006.008.8.6zM72.88 9.928l-.475.88.01.005.009.005.456-.89zm-17.02-.074l-.456-.89.456.89zm-1.776 29.082l-.794.607.009.012.01.012.775-.631zm2.812 1.702l.28-.96-.01-.003-.27.963zm3.404.74l-.135.99.024.004.025.002.086-.996zm3.996 7.362c-.307 0-.61-.002-.912-.007l-.031 2c.312.005.626.007.943.007v-2zm-2.734-.065a48.879 48.879 0 01-1.815-.122l-.172 1.992c.618.054 1.247.096 1.889.127l.098-1.997zm-3.619-.316a39.91 39.91 0 01-.896-.126l-.301 1.978c.31.047.624.09.942.132l.255-1.984zm-.893-.125a33.143 33.143 0 01-.86-.146l-.36 1.968c.306.056.61.107.913.154l.307-1.976zm-2.57-.503a39.43 39.43 0 01-1.697-.438l-.543 1.925c.6.17 1.195.323 1.783.46l.456-1.947zm-3.378-.95c-.276-.09-.554-.183-.834-.28l-.655 1.89c.29.1.58.198.87.292l.62-1.901zm-.84-.282a14.701 14.701 0 01-.835-.311l-.756 1.851c.308.126.624.244.948.354l.643-1.894zm-2.42-1.086a11.231 11.231 0 01-1.439-.987l-1.258 1.555a13.24 13.24 0 001.695 1.163l1.002-1.731zm-2.694-2.186c-.192-.216-.375-.44-.55-.673l-1.6 1.2c.208.276.425.543.654.8l1.496-1.327zm-.543-.663a10.04 10.04 0 01-.49-.737l-1.712 1.034c.183.303.379.597.588.884l1.614-1.181zm-1.267-2.326a10.876 10.876 0 01-.498-1.71l-1.959.404c.145.7.341 1.375.59 2.024l1.867-.718zm-.732-3.498a14.77 14.77 0 01-.028-.912h-2c0 .35.01.695.032 1.035l1.996-.123zm-.028-.912v-1.05h-2v1.05h2zm0-3.152v-2.102h-2v2.102h2zm0-4.204v-2.101h-2v2.101h2zm0-4.203v-2.101h-2v2.101h2zm0-4.203v-2.102h-2v2.102h2zm0-4.203v-1.051h-2v1.05h2zm0-1.051c0-.262.007-.52.02-.775l-1.997-.105c-.015.29-.023.583-.023.88h2zm.19-2.304c.087-.51.204-1.005.352-1.484l-1.912-.588a13.96 13.96 0 00-.412 1.735l1.971.337zm.896-2.9c.106-.23.221-.455.344-.676l-1.75-.968c-.146.262-.281.529-.407.8l1.813.844zm.334-.659c.12-.209.245-.412.374-.61L42.694 7.25c-.147.227-.29.46-.427.697l1.73 1.002zm1.211-1.758c.303-.37.623-.715.958-1.037L44.784 4.71a13.61 13.61 0 00-1.121 1.213l1.546 1.268zm2.033-1.943c.188-.14.38-.273.578-.4l-1.087-1.68c-.232.15-.46.308-.682.473l1.19 1.607zm.57-.395c.38-.24.786-.472 1.22-.695l-.912-1.78c-.484.248-.944.51-1.379.785l1.07 1.69zm3.848-1.81c.44-.155.899-.303 1.376-.444L52.469.681c-.508.15-.999.308-1.472.475l.663 1.887zm1.376-.444c.244-.072.485-.14.725-.206l-.528-1.93a39.2 39.2 0 00-.764.218l.567 1.918zm2.183-.571c.5-.113.99-.21 1.468-.294l-.34-1.97a30.38 30.38 0 00-1.568.313l.44 1.95zm2.942-.504c.25-.028.495-.052.738-.071l-.157-1.994c-.266.021-.533.047-.804.077l.223 1.988zm.745-.072c.44-.037.888-.07 1.343-.098l-.123-1.997c-.47.03-.934.063-1.391.103l.17 1.992zm4.039-.205c.444-.009.895-.013 1.351-.013v-2c-.468 0-.932.004-1.39.013l.039 2zm1.351-.013c.503 0 .99.005 1.462.015l.042-2c-.487-.01-.988-.015-1.504-.015v2zm4.368.15c.503.04.981.086 1.436.14l.233-1.987a38.018 38.018 0 00-1.515-.146l-.154 1.994zm1.465.142c.44.039.895.092 1.367.16l.284-1.98c-.506-.072-.997-.13-1.476-.172l-.175 1.992zm4.099.674c.442.1.895.212 1.359.333L76.094.6a46.127 46.127 0 00-1.421-.35l-.445 1.95zm1.332.326c.253.074.5.149.742.226l.605-1.907c-.257-.081-.52-.161-.787-.239l-.56 1.92zm2.197.731c.497.189.966.386 1.409.59l.837-1.816c-.487-.225-1-.44-1.536-.643l-.71 1.87zm2.75 1.279c.222.126.434.255.637.386l1.084-1.68a16.09 16.09 0 00-.727-.442l-.994 1.736zm.637.386c.361.233.707.49 1.039.772l1.296-1.523a11.786 11.786 0 00-1.25-.93l-1.085 1.681zm2.803 2.695c.253.349.494.72.724 1.113l1.727-1.008a15.337 15.337 0 00-.832-1.28l-1.619 1.175zm.728 1.12c.131.221.254.449.368.683l1.798-.878a11.457 11.457 0 00-.447-.827l-1.72 1.022zm.94 2.135c.151.488.271 1 .36 1.538l1.973-.326a13.654 13.654 0 00-.421-1.802l-1.912.59zm.528 3.131c.013.264.02.534.02.809h2c0-.307-.008-.61-.023-.908l-1.997.1zm.02.809v1.05h2v-1.05h-2zm0 3.152v2.102h2v-2.102h-2zm0 4.204v2.101h2v-2.101h-2zm0 4.203v2.101h2v-2.101h-2zm0 4.203v2.102h2v-2.102h-2zm0 4.203v1.051h2v-1.05h-2zm0 1.051c0 .29-.01.574-.028.852l1.996.13c.021-.323.031-.65.031-.982h-2zm-.256 2.523a9.999 9.999 0 01-.482 1.594l1.859.739c.243-.614.436-1.252.578-1.913l-1.955-.42zm-1.226 3.075c-.145.234-.3.463-.467.687l1.605 1.194c.2-.27.388-.546.563-.83l-1.701-1.051zm-.477.7c-.163.229-.335.45-.515.662l1.528 1.29c.214-.253.418-.515.612-.785l-1.625-1.166zm-1.694 1.855a11.54 11.54 0 01-1.354 1.006l1.075 1.687a13.52 13.52 0 001.588-1.181L82.51 43.98zm-2.848 1.825c-.255.12-.518.233-.789.342l.743 1.856c.305-.122.603-.25.894-.387l-.848-1.811zm-.789.342c-.286.114-.574.224-.865.331l.69 1.878c.308-.114.614-.231.918-.352l-.743-1.858zm-2.622.922c-.587.18-1.184.345-1.79.496l.484 1.94c.64-.159 1.27-.333 1.891-.523l-.585-1.913zm-3.604.899a38.97 38.97 0 01-1.835.314l.29 1.978a40.967 40.967 0 001.93-.33l-.385-1.962zm-3.685.542c-.612.062-1.233.112-1.861.148l.117 1.997c.656-.038 1.304-.09 1.945-.155l-.2-1.99zm-3.73.22c-.31.006-.622.009-.936.009v2c.327 0 .651-.003.974-.01l-.038-1.999zm-.788-8.205c-.353 0-.694-.002-1.022-.007l-.029 2c.339.005.69.007 1.051.007v-2zm-3.054-.074c-.356-.02-.69-.043-1.003-.07l-.173 1.992c.336.03.691.054 1.066.075l.11-1.997zm-.955-.065c-.269-.037-.542-.08-.819-.13l-.353 1.969c.303.055.604.102.902.143l.27-1.982zm-2.45-.487a26.064 26.064 0 01-.809-.222l-.56 1.92c.293.086.584.165.872.24l.498-1.938zm-.819-.225a6.448 6.448 0 01-.685-.232l-.75 1.854c.285.116.584.217.896.304l.539-1.926zm-1.854-.914a3.314 3.314 0 01-.451-.456l-1.553 1.262c.216.265.457.508.722.73l1.282-1.536zm-.433-.433a3.41 3.41 0 01-.34-.542l-1.787.897a5.4 5.4 0 00.538.86l1.589-1.215zm-.713-1.803a5.386 5.386 0 01-.044-.697h-2c0 .326.02.645.06.956l1.984-.259zm-.044-.697v-1.055h-2v1.055h2zm0-3.164v-2.109h-2v2.11h2zm0-4.218v-2.109h-2v2.11h2zm0-4.218V22.12h-2v2.11h2zm0-4.218v-2.109h-2v2.11h2zm0-4.218v-1.054h-2v1.055h2zm0-1.054c0-.467.042-.89.12-1.27l-1.958-.405c-.11.53-.162 1.09-.162 1.675h2zm1.214-3.312c.27-.255.595-.484.981-.682l-.913-1.78a6.227 6.227 0 00-1.442 1.008l1.374 1.454zm.981-.682c.262-.135.555-.262.88-.38l-.679-1.88a9.512 9.512 0 00-1.114.48l.913 1.78zm2.825-.891c.623-.117 1.31-.21 2.059-.276l-.178-1.993a23.93 23.93 0 00-2.25.303l.369 1.966zm4.166-.392c.344-.009.698-.013 1.062-.013v-2c-.38 0-.75.004-1.112.013l.05 2zm1.062-.013c.365 0 .72.005 1.064.014l.052-2c-.363-.01-.735-.014-1.116-.014v2zm3.172.136c.75.07 1.434.168 2.056.29l.389-1.961a22.558 22.558 0 00-2.258-.32l-.187 1.99zm3.991.829c.322.122.612.254.872.395l.95-1.76a9.285 9.285 0 00-1.11-.504l-.712 1.868zm.89.405c.385.197.708.423.978.673l1.361-1.465a6.318 6.318 0 00-1.425-.988l-.913 1.78zm2.073 2.673c.08.373.122.788.122 1.247h2a8 8 0 00-.165-1.664l-1.957.417zm.122 1.247v1.055h2v-1.055h-2zm0 3.163v2.11h2V17.9h-2zm0 4.218v2.11h2v-2.11h-2zm0 4.218v2.11h2v-2.11h-2zm0 4.218v2.11h2v-2.11h-2zm0 4.218v1.055h2v-1.055h-2zm0 1.055c0 .246-.014.478-.043.697l1.983.259c.04-.311.06-.63.06-.956h-2zm-.417 1.958a3.403 3.403 0 01-.339.542l1.589 1.215a5.4 5.4 0 00.538-.86l-1.788-.897zm-.345.55a3.016 3.016 0 01-.409.444l1.33 1.493c.252-.224.479-.47.68-.737l-1.6-1.2zm-1.496 1.113a5.96 5.96 0 01-.648.229l.56 1.92c.303-.088.593-.19.87-.308l-.782-1.84zm-.648.229c-.276.08-.551.156-.824.225l.492 1.939c.296-.076.594-.157.892-.244l-.56-1.92zm-2.489.581c-.281.049-.56.091-.838.127l.259 1.984c.305-.04.612-.087.92-.14l-.34-1.971zm-.8.123a27.9 27.9 0 01-.98.071l.112 1.997c.371-.02.721-.046 1.05-.076l-.181-1.992zm-2.974.137c-.322.005-.657.007-1.005.007v2c.357 0 .701-.002 1.033-.007l-.028-2zM100.152.974v-.5h-.5v.5h.5zm30.34.962l-.115.487h.002l.113-.487zm5.994 3.404l-.398.302.005.007.005.006.388-.315zm-.148 23.162l-.394-.307-.006.007.4.3zm-6.438 3.774l-.121-.485h-.002l.123.485zm-18.204 1.11v-.5h-.5v.5h.5zm0 15.614v.5h.5V49h-.5zm-11.544 0h-.5v.5h.5V49zm25.234-24.568l.245.436.006-.003.007-.004-.258-.429zm.074-14.504l-.199.459.007.002.192-.461zm-13.764-.74v-.5h-.5v.5h.5zm0 16.28h-.5v.5h.5v-.5zM99.652.974v1h1v-1h-1zm0 3.002v2h1v-2h-1zm0 4.002v2h1v-2h-1zm0 4.002v2.001h1V11.98h-1zm0 4.002v2.001h1v-2h-1zm0 4.002v2.001h1v-2h-1zm0 4.002v2.002h1v-2.002h-1zm0 4.003v2h1v-2h-1zm0 4.002v2h1v-2h-1zm0 4.002v2.001h1v-2.001h-1zm0 4.002v2.001h1v-2h-1zm0 4.002v2.001h1v-2h-1zm0 4.002V49h1v-1h-1zm.5 1.501h.962v-1h-.962v1zm2.886 0h1.924v-1h-1.924v1zm3.848 0h1.924v-1h-1.924v1zm3.848 0h.962v-1h-.962v1zm1.462-.5v-.976h-1V49h1zm0-2.928v-1.951h-1v1.951h1zm0-3.903v-1.952h-1v1.952h1zm0-3.904v-1.951h-1v1.951h1zm0-3.903v-.976h-1v.976h1zm-.5-.476h.796v-1h-.796v1zm2.387 0h1.591v-1h-1.591v1zm3.182 0h.795v-1h-.795v1zm.795 0c.338 0 .671-.002.999-.005l-.01-1c-.325.003-.654.005-.989.005v1zm2.997-.049c.69-.023 1.356-.055 1.999-.095l-.062-.998c-.633.04-1.29.071-1.97.094l.033 1zm3.997-.255c.697-.069 1.362-.15 1.995-.242l-.144-.99c-.617.09-1.266.17-1.949.237l.098.995zm3.983-.593c.34-.071.669-.148.986-.228l-.246-.97c-.303.078-.619.15-.947.22l.207.978zm.985-.228c.322-.08.636-.168.941-.26l-.291-.957c-.288.088-.586.17-.893.247l.243.97zm2.782-.946c.63-.284 1.21-.602 1.739-.957l-.558-.83c-.478.32-1.008.612-1.591.875l.41.912zm3.279-2.243c.236-.245.454-.502.655-.77l-.8-.6a7.237 7.237 0 01-.576.678l.721.692zm.65-.763a8.57 8.57 0 00.586-.857l-.858-.514a7.535 7.535 0 01-.517.757l.789.614zm1.446-2.726a12.66 12.66 0 00.495-1.974l-.986-.168a11.652 11.652 0 01-.455 1.818l.946.324zm.708-3.978c.015-.327.023-.661.023-1.003h-1c0 .326-.007.644-.022.954l.999.049zm.023-1.003v-1.138h-1v1.138h1zm0-3.413v-2.276h-1v2.276h1zm0-4.551V12h-1v1.138h1zm0-1.138c0-.31-.007-.612-.022-.909l-.999.05c.014.279.021.565.021.859h1zm-.22-2.726a11.035 11.035 0 00-.462-1.79l-.942.334c.177.5.317 1.043.419 1.629l.985-.173zm-1.267-3.48a7.417 7.417 0 00-.549-.77l-.776.631c.171.21.33.433.476.668l.849-.528zm-.538-.756a7.618 7.618 0 00-.614-.713l-.716.699c.192.197.37.403.533.618l.797-.604zm-2.06-1.891a10.827 10.827 0 00-1.626-.864l-.396.918a9.781 9.781 0 011.476.784l.546-.838zm-3.343-1.471a17.575 17.575 0 00-.877-.227l-.226.974c.285.066.56.137.827.214l.276-.961zm-.875-.227c-.298-.07-.607-.137-.928-.2l-.192.982c.309.06.605.124.89.192l.23-.974zm-2.793-.504a44.27 44.27 0 00-1.871-.21l-.09.997c.641.058 1.25.126 1.827.204l.134-.991zm-3.743-.347a70.9 70.9 0 00-1.872-.082l-.031 1c.638.02 1.253.046 1.846.08l.057-.998zm-3.743-.12a99.22 99.22 0 00-.936-.004v1c.313 0 .622.001.926.004l.01-1zm-.936-.004h-.962v1h.962v-1zm-2.886 0h-1.924v1h1.924v-1zm-3.848 0h-1.924v1h1.924v-1zm-3.848 0h-1.924v1h1.924v-1zm-3.848 0h-1.924v1h1.924v-1zm-3.848 0h-.962v1h.962v-1zm17.908 24.494h-.915v1h.915v-1zm-2.747 0h-1.831v1h1.831v-1zm-3.663 0h-.916v1h.916v-1zm-.416.5v-1.017h-1v1.017h1zm0-3.052V20.38h-1v2.035h1zm0-4.07V16.31h-1v2.035h1zm0-4.07V12.24h-1v2.034h1zm0-4.07V9.188h-1v1.018h1zm-.5-.518h.898v-1h-.898v1zm2.692 0h1.795v-1h-1.795v1zm3.589 0h.897v-1h-.897v1zm.897 0c.284 0 .559.002.826.006l.014-1a59.544 59.544 0 00-.84-.006v1zm2.471.058c.601.031 1.144.075 1.629.132l.115-.994a27.712 27.712 0 00-1.691-.137l-.053.999zm3.202.405c.285.073.522.152.714.236l.399-.918a5.766 5.766 0 00-.865-.287l-.248.969zm.721.239c.264.11.486.248.669.412l.665-.747a3.345 3.345 0 00-.949-.589l-.385.924zm1.394 1.789c.049.256.074.541.074.857h1c0-.37-.03-.718-.092-1.045l-.982.188zm.074.857v.962h1v-.962h-1zm0 2.886v1.924h1v-1.924h-1zm0 3.848v.962h1v-.962h-1zm0 .962c0 .358-.028.689-.084.991l.984.18c.068-.37.1-.76.1-1.171h-1zm-.878 2.681c-.204.223-.445.42-.729.59l.515.858c.361-.217.68-.474.953-.774l-.739-.674zm-.716.583a4.607 4.607 0 01-.668.301l.345.94c.295-.11.566-.231.812-.369l-.489-.872zm-2.156.686c-.47.084-.992.15-1.566.197l.082.997c.6-.05 1.153-.12 1.659-.21l-.175-.984zm-3.162.277c-.259.006-.527.009-.802.009v1c.283 0 .557-.003.825-.009l-.023-1zM100.152.974v-1h-1v1h1zm30.34.962l-.23.973.004.001.226-.974zm5.994 3.404l-.797.604.01.013.011.014.776-.631zm-.148 23.162l-.789-.614-.005.007-.006.007.8.6zm-6.438 3.774l-.242-.97h-.004l.246.97zm-18.204 1.11v-1h-1v1h1zm0 15.614v1h1v-1h-1zm-11.544 0h-1v1h1v-1zm25.234-24.568l.489.873.013-.008.013-.008-.515-.857zm.074-14.504l-.398.917.007.003.007.003.384-.923zm-13.764-.74v-1h-1v1h1zm0 16.28h-1v1h1v-1zM99.152.974v1h2v-1h-2zm0 3.002v2h2v-2h-2zm0 4.002v2h2v-2h-2zm0 4.002v2.001h2V11.98h-2zm0 4.002v2.001h2v-2h-2zm0 4.002v2.001h2v-2h-2zm0 4.002v2.002h2v-2.002h-2zm0 4.003v2h2v-2h-2zm0 4.002v2h2v-2h-2zm0 4.002v2.001h2v-2.001h-2zm0 4.002v2.001h2v-2h-2zm0 4.002v2.001h2v-2h-2zm0 4.002V49h2v-1h-2zm1 2.001h.962v-2h-.962v2zm2.886 0h1.924v-2h-1.924v2zm3.848 0h1.924v-2h-1.924v2zm3.848 0h.962v-2h-.962v2zm1.962-1v-.976h-2V49h2zm0-2.928v-1.951h-2v1.951h2zm0-3.903v-1.952h-2v1.952h2zm0-3.904v-1.951h-2v1.951h2zm0-3.903v-.976h-2v.976h2zm-1 .024h.796v-2h-.796v2zm2.387 0h1.591v-2h-1.591v2zm3.182 0h.795v-2h-.795v2zm.795 0c.34 0 .674-.002 1.004-.005l-.02-2a96.32 96.32 0 01-.984.005v2zm3.014-.049a70.223 70.223 0 002.013-.096l-.125-1.996c-.627.04-1.279.07-1.955.093l.067 2zm4.029-.257c.704-.07 1.377-.151 2.019-.245l-.289-1.979a41.94 41.94 0 01-1.926.233l.196 1.99zm4.037-.601a24.58 24.58 0 001.007-.234l-.493-1.938a23.71 23.71 0 01-.927.215l.413 1.957zm1.003-.233c.331-.083.653-.172.966-.267l-.583-1.913c-.28.085-.569.165-.868.24l.485 1.94zm2.867-.975a12.3 12.3 0 001.811-.998l-1.114-1.66a10.31 10.31 0 01-1.518.834l.821 1.824zm3.434-2.352c.249-.26.481-.532.694-.817l-1.6-1.2c-.164.219-.343.43-.537.632l1.443 1.385zm.684-.803c.223-.287.43-.59.62-.907l-1.716-1.028a6.97 6.97 0 01-.483.707l1.579 1.228zm1.524-2.871c.22-.645.391-1.33.515-2.052l-1.972-.336a11.216 11.216 0 01-.435 1.74l1.892.648zm.734-4.116c.016-.335.024-.678.024-1.027h-2c0 .319-.007.628-.022.93l1.998.097zm.024-1.027v-1.138h-2v1.138h2zm0-3.413v-2.276h-2v2.276h2zm0-4.551V12h-2v1.138h2zm0-1.138c0-.317-.007-.629-.022-.933l-1.998.099c.014.27.02.548.02.834h2zm-.227-2.812a11.622 11.622 0 00-.483-1.87l-1.886.667c.167.472.301.987.399 1.548l1.97-.345zm-1.336-3.658a8.01 8.01 0 00-.585-.82l-1.552 1.26c.157.194.304.4.44.618l1.697-1.058zm-.564-.794a7.904 7.904 0 00-.655-.76l-1.431 1.397c.178.182.342.373.492.57l1.594-1.207zm-2.185-2.008c-.521-.34-1.089-.64-1.702-.904l-.791 1.837c.518.223.984.47 1.401.743l1.092-1.676zm-3.478-1.533a18.182 18.182 0 00-.902-.233l-.452 1.948c.277.064.544.133.802.208l.552-1.923zm-.898-.232c-.305-.072-.62-.14-.947-.204l-.384 1.963c.303.059.593.121.871.187l.46-1.946zm-2.841-.514a44.094 44.094 0 00-1.892-.211l-.181 1.992a42.15 42.15 0 011.806.201l.267-1.982zM124.1.1a71.442 71.442 0 00-1.885-.083l-.062 1.999c.633.02 1.244.047 1.832.08L124.1.1zm-3.768-.12a99.367 99.367 0 00-.94-.005v2c.312 0 .619.001.922.004l.018-2zm-.94-.005h-.962v2h.962v-2zm-2.886 0h-1.924v2h1.924v-2zm-3.848 0h-1.924v2h1.924v-2zm-3.848 0h-1.924v2h1.924v-2zm-3.848 0h-1.924v2h1.924v-2zm-3.848 0h-.962v2h.962v-2zm17.908 24.494h-.915v2h.915v-2zm-2.747 0h-1.831v2h1.831v-2zm-3.663 0h-.916v2h.916v-2zm.084 1v-1.017h-2v1.017h2zm0-3.052V20.38h-2v2.035h2zm0-4.07V16.31h-2v2.035h2zm0-4.07V12.24h-2v2.034h2zm0-4.07V9.188h-2v1.018h2zm-1-.018h.898v-2h-.898v2zm2.692 0h1.795v-2h-1.795v2zm3.589 0h.897v-2h-.897v2zm.897 0c.282 0 .555.002.819.006l.029-2a60.228 60.228 0 00-.848-.006v2zm2.445.057c.593.031 1.125.074 1.598.13l.23-1.987a27.59 27.59 0 00-1.723-.14l-.105 1.997zm3.104.39c.267.068.477.14.639.21l.797-1.834a6.272 6.272 0 00-.94-.313l-.496 1.937zm.653.216c.217.09.39.2.529.324l1.33-1.493a3.863 3.863 0 00-1.09-.677l-.769 1.846zm1.094 1.422a4 4 0 01.066.763h2c0-.396-.032-.777-.101-1.139l-1.965.376zm.066.763v.962h2v-.962h-2zm0 2.886v1.924h2v-1.924h-2zm0 3.848v.962h2v-.962h-2zm0 .962c0 .332-.026.632-.075.902l1.967.358c.073-.402.108-.822.108-1.26h-2zm-.747 2.344a2.746 2.746 0 01-.617.498l1.029 1.715c.4-.24.757-.527 1.065-.865l-1.477-1.348zm-.591.483a4.156 4.156 0 01-.596.269l.689 1.878a6.16 6.16 0 00.884-.401l-.977-1.745zm-2 .63c-.452.081-.958.145-1.519.192l.164 1.993c.612-.05 1.182-.122 1.706-.215l-.351-1.97zm-3.085.27c-.255.006-.519.009-.791.009v2c.286 0 .565-.003.836-.01l-.045-1.999zm26.364 16.327v-.5h-.5v.5h.5zm5.92-2.294l-.388-.315-.001.001.389.314zm2.96-8.584l-.493-.082.493.082zM156.093.974v-.5h-.5v.5h.5zm34.928 0h.5v-.5h-.5v.5zm0 39.812h-.5v.5h.5v-.5zm7.03 0h.5v-.5h-.5v.5zm0 19.388v.5h.5v-.5h-.5zm-10.36 0h-.5v.5h.5v-.5zm0-11.174h.5v-.5h-.5v.5zm-31.154 0v-.5h-.5v.5h.5zm0 11.174v.5h.5v-.5h-.5zm-10.36 0h-.5v.5h.5v-.5zm33.3-19.314v.5h.5v-.5h-.5zm0-31.746h.5v-.5h-.5v.5zm-13.024 0v-.5h-.5v.5h.5zm-4.81 31.746l-.414-.28-.529.78h.943v-.5zm-15.966-.074v.97h1v-.97h-1zm0 2.908v1.939h1v-1.939h-1zm0 3.878v1.939h1v-1.94h-1zm0 3.877v1.94h1v-1.94h-1zm0 3.878v1.939h1v-1.939h-1zm0 3.878v.969h1v-.97h-1zm.5 1.469h.863v-1h-.863v1zm2.59 0h1.726v-1h-1.726v1zm3.453 0h1.727v-1h-1.727v1zm3.453 0h.864v-1h-.864v1zm1.364-.5v-.931h-1v.931h1zm0-2.794v-1.862h-1v1.862h1zm0-3.724v-1.862h-1v1.862h1zm0-3.725V49h-1v.931h1zm-.5-.431h.973v-1h-.973v1zm2.92 0h1.948v-1h-1.948v1zm3.895 0h1.947v-1h-1.947v1zm3.894 0h1.947v-1h-1.947v1zm3.894 0h1.947v-1h-1.947v1zm3.894 0h1.948v-1h-1.948v1zm3.895 0h1.947v-1h-1.947v1zm3.894 0h1.947v-1h-1.947v1zm3.894 0h.974v-1h-.974v1zm.474-.5v.931h1V49h-1zm0 2.794v1.862h1v-1.862h-1zm0 3.724v1.862h1v-1.862h-1zm0 3.725v.931h1v-.931h-1zm.5 1.431h.863v-1h-.863v1zm2.59 0h1.726v-1h-1.726v1zm3.453 0h1.727v-1h-1.727v1zm3.453 0h.864v-1h-.864v1zm1.364-.5v-.97h-1v.97h1zm0-2.908v-1.939h-1v1.939h1zm0-3.878V51.45h-1v1.94h1zm0-3.877v-1.94h-1v1.94h1zm0-3.878v-1.939h-1v1.939h1zm0-3.878v-.969h-1v.97h1zm-.5-1.469h-.879v1h.879v-1zm-2.636 0h-1.758v1h1.758v-1zm-3.515 0h-.879v1h.879v-1zm-.379.5v-.995h-1v.995h1zm0-2.986v-1.99h-1v1.99h1zm0-3.981v-1.99h-1v1.99h1zm0-3.981v-1.99h-1v1.99h1zm0-3.982v-1.99h-1v1.99h1zm0-3.98v-1.991h-1v1.99h1zm0-3.982v-1.99h-1v1.99h1zm0-3.981v-1.99h-1v1.99h1zm0-3.981v-1.99h-1v1.99h1zm0-3.982V3.96h-1v1.99h1zm0-3.98V.973h-1v.995h1zm-.5-1.496h-.97v1h.97v-1zm-2.911 0h-1.94v1h1.94v-1zm-3.881 0h-1.94v1h1.94v-1zm-3.881 0h-1.94v1h1.94v-1zm-3.881 0h-1.94v1h1.94v-1zm-3.88 0h-1.941v1h1.941v-1zm-3.881 0h-1.941v1h1.941v-1zm-3.881 0h-1.941v1h1.941v-1zm-3.881 0h-1.941v1h1.941v-1zm-3.881 0h-.97v1h.97v-1zm-1.47.5v.944h1V.974h-1zm0 2.83v1.887h1V3.805h-1zm0 3.775v1.887h1V7.579h-1zm0 3.773v.944h1v-.944h-1zm0 .944c0 .372-.001.74-.003 1.103l1 .004c.002-.365.003-.734.003-1.107h-1zm-.024 3.305c-.011.753-.026 1.487-.045 2.2l1 .027c.019-.718.034-1.456.045-2.213l-1-.014zm-.118 4.4c-.03.757-.066 1.49-.106 2.197l.998.057c.041-.713.077-1.45.108-2.214l-1-.04zm-.254 4.389c-.06.762-.127 1.49-.2 2.185l.995.105a86.34 86.34 0 00.202-2.212l-.997-.078zm-.467 4.358a51.1 51.1 0 01-.166 1.078l.986.164c.059-.355.116-.722.17-1.101l-.99-.141zm-.166 1.078a48.67 48.67 0 01-.2 1.116l.983.188a50.9 50.9 0 00.203-1.14l-.986-.164zm-.689 3.324c-.202.79-.42 1.504-.653 2.144l.939.342a23.91 23.91 0 00.683-2.238l-.969-.248zm-1.565 4.146a6.956 6.956 0 01-.601.88l.776.631c.243-.298.472-.635.689-1.008l-.864-.503zm-.602.882a6.062 6.062 0 01-.909.916l.628.778a7.042 7.042 0 001.059-1.066l-.778-.628zm-3.203 1.985a6.559 6.559 0 01-1.292.123v1a7.58 7.58 0 001.488-.142l-.196-.98zm-1.292.123h-.259v1h.259v-1zm-.777 0h-.259v1h.259v-1zm33.041.074h-1.115v1h1.115v-1zm-3.344 0h-2.229v1h2.229v-1zm-4.459 0h-2.229v1h2.229v-1zm-4.458 0h-2.229v1h2.229v-1zm-4.459 0h-1.114v1h1.114v-1zm-.7.78c.179-.265.354-.541.523-.828l-.862-.508c-.159.27-.322.529-.489.776l.828.56zm1.42-2.562c.258-.566.501-1.165.73-1.797l-.941-.34a23.06 23.06 0 01-.699 1.722l.91.415zm1.326-3.632c.174-.596.337-1.217.489-1.862l-.973-.23c-.149.63-.308 1.234-.476 1.812l.96.28zm.889-3.74c.117-.612.226-1.242.327-1.891l-.988-.154a52.519 52.519 0 01-.321 1.856l.982.189zm.591-3.787a74.62 74.62 0 00.211-1.901l-.996-.098a72.174 72.174 0 01-.207 1.875l.992.124zm.375-3.805c.046-.623.088-1.258.123-1.907l-.998-.054c-.036.642-.076 1.27-.122 1.886l.997.075zm.21-3.811c.023-.625.042-1.26.055-1.906l-.999-.021c-.014.641-.032 1.271-.055 1.89l.999.037zm.082-3.814c.002-.316.003-.634.003-.955h-1c0 .319-.001.635-.003.948l1 .007zm.003-.955v-1.48h-1v1.48h1zm0-4.44v-1.48h-1v1.48h1zm-.5-.98h1.085v-1h-1.085v1zm3.256 0h2.17v-1h-2.17v1zm4.341 0h2.171v-1h-2.171v1zm4.341 0h1.086v-1h-1.086v1zm.586-.5v.992h1v-.992h-1zm0 2.976v1.984h1V12.09h-1zm0 3.968v1.985h1v-1.985h-1zm0 3.969v1.984h1v-1.984h-1zm0 3.968v1.984h1v-1.984h-1zm0 3.968v1.984h1v-1.984h-1zm0 3.968v1.985h1V31.93h-1zm0 3.969v1.984h1V35.9h-1zm0 3.968v.992h1v-.992h-1zm-32.8.918v-1h-1v1h1zm5.92-2.294l-.776-.63-.003.002.779.628zm2.96-8.584l-.987-.164.987.164zM156.093.974v-1h-1v1h1zm34.928 0h1v-1h-1v1zm0 39.812h-1v1h1v-1zm7.03 0h1v-1h-1v1zm0 19.388v1h1v-1h-1zm-10.36 0h-1v1h1v-1zm0-11.174h1v-1h-1v1zm-31.154 0v-1h-1v1h1zm0 11.174v1h1v-1h-1zm-10.36 0h-1v1h1v-1zm33.3-19.314v1h1v-1h-1zm0-31.746h1v-1h-1v1zm-13.024 0v-1h-1v1h1zm-4.81 31.746l-.828-.56-1.057 1.56h1.885v-1zm-16.466-.074v.97h2v-.97h-2zm0 2.908v1.939h2v-1.939h-2zm0 3.878v1.939h2v-1.94h-2zm0 3.877v1.94h2v-1.94h-2zm0 3.878v1.939h2v-1.939h-2zm0 3.878v.969h2v-.97h-2zm1 1.969h.863v-2h-.863v2zm2.59 0h1.726v-2h-1.726v2zm3.453 0h1.727v-2h-1.727v2zm3.453 0h.864v-2h-.864v2zm1.864-1v-.931h-2v.931h2zm0-2.794v-1.862h-2v1.862h2zm0-3.724v-1.862h-2v1.862h2zm0-3.725V49h-2v.931h2zm-1 .069h.973v-2h-.973v2zm2.92 0h1.948v-2h-1.948v2zm3.895 0h1.947v-2h-1.947v2zm3.894 0h1.947v-2h-1.947v2zm3.894 0h1.947v-2h-1.947v2zm3.894 0h1.948v-2h-1.948v2zm3.895 0h1.947v-2h-1.947v2zm3.894 0h1.947v-2h-1.947v2zm3.894 0h.974v-2h-.974v2zm-.026-1v.931h2V49h-2zm0 2.794v1.862h2v-1.862h-2zm0 3.724v1.862h2v-1.862h-2zm0 3.725v.931h2v-.931h-2zm1 1.931h.863v-2h-.863v2zm2.59 0h1.726v-2h-1.726v2zm3.453 0h1.727v-2h-1.727v2zm3.453 0h.864v-2h-.864v2zm1.864-1v-.97h-2v.97h2zm0-2.908v-1.939h-2v1.939h2zm0-3.878V51.45h-2v1.94h2zm0-3.877v-1.94h-2v1.94h2zm0-3.878v-1.939h-2v1.939h2zm0-3.878v-.969h-2v.97h2zm-1-1.969h-.879v2h.879v-2zm-2.636 0h-1.758v2h1.758v-2zm-3.515 0h-.879v2h.879v-2zm.121 1v-.995h-2v.995h2zm0-2.986v-1.99h-2v1.99h2zm0-3.981v-1.99h-2v1.99h2zm0-3.981v-1.99h-2v1.99h2zm0-3.982v-1.99h-2v1.99h2zm0-3.98v-1.991h-2v1.99h2zm0-3.982v-1.99h-2v1.99h2zm0-3.981v-1.99h-2v1.99h2zm0-3.981v-1.99h-2v1.99h2zm0-3.982V3.96h-2v1.99h2zm0-3.98V.973h-2v.995h2zm-1-1.996h-.97v2h.97v-2zm-2.911 0h-1.94v2h1.94v-2zm-3.881 0h-1.94v2h1.94v-2zm-3.881 0h-1.94v2h1.94v-2zm-3.881 0h-1.94v2h1.94v-2zm-3.88 0h-1.941v2h1.941v-2zm-3.881 0h-1.941v2h1.941v-2zm-3.881 0h-1.941v2h1.941v-2zm-3.881 0h-1.941v2h1.941v-2zm-3.881 0h-.97v2h.97v-2zm-1.97 1v.944h2V.974h-2zm0 2.83v1.887h2V3.805h-2zm0 3.775v1.887h2V7.579h-2zm0 3.773v.944h2v-.944h-2zm0 .944c0 .371-.001.738-.003 1.1l2 .01c.002-.366.003-.736.003-1.11h-2zm-.024 3.297a206.23 206.23 0 01-.044 2.196l1.999.053c.019-.72.034-1.46.045-2.22l-2-.029zm-.117 4.388c-.031.755-.066 1.484-.107 2.188l1.997.115c.041-.716.077-1.457.108-2.222l-1.998-.081zm-.254 4.37a78.169 78.169 0 01-.198 2.171l1.989.21c.075-.708.142-1.45.203-2.225l-1.994-.157zm-.463 4.326c-.053.369-.107.724-.165 1.067l1.973.328c.06-.359.117-.73.172-1.113l-1.98-.282zm-.165 1.067c-.063.38-.129.748-.197 1.104l1.965.376c.071-.373.139-.757.205-1.152l-1.973-.328zm-.679 3.281a22.596 22.596 0 01-.639 2.098l1.879.684c.253-.694.485-1.456.697-2.285l-1.937-.497zm-1.513 4.02a6.4 6.4 0 01-.557.816l1.552 1.262a8.38 8.38 0 00.733-1.073l-1.728-1.006zm-.56.82c-.262.325-.54.604-.833.84l1.257 1.556a7.55 7.55 0 001.133-1.141l-1.557-1.256zm-2.912 1.808a6.08 6.08 0 01-1.193.113v2a8.06 8.06 0 001.587-.152l-.394-1.961zm-1.193.113h-.259v2h.259v-2zm-.777 0h-.259v2h.259v-2zm33.041.074h-1.115v2h1.115v-2zm-3.344 0h-2.229v2h2.229v-2zm-4.459 0h-2.229v2h2.229v-2zm-4.458 0h-2.229v2h2.229v-2zm-4.459 0h-1.114v2h1.114v-2zm-.286 1.56c.186-.274.365-.559.54-.855l-1.724-1.014c-.154.261-.311.51-.472.748l1.656 1.122zm1.461-2.635c.264-.579.512-1.19.745-1.834l-1.881-.68a22.616 22.616 0 01-.684 1.685l1.82.83zm1.351-3.7a37.97 37.97 0 00.495-1.886l-1.946-.46a36.071 36.071 0 01-.469 1.788l1.92.559zm.9-3.785c.119-.618.229-1.254.33-1.909l-1.976-.306a51.292 51.292 0 01-.318 1.838l1.964.377zm.596-3.82c.078-.622.148-1.26.212-1.913l-1.99-.195a75.495 75.495 0 01-.206 1.862l1.984.246zm.377-3.829a89.99 89.99 0 00.124-1.916l-1.997-.11a92.66 92.66 0 01-.121 1.877l1.994.149zm.212-3.83c.023-.627.042-1.265.055-1.914l-1.999-.042a122.19 122.19 0 01-.055 1.882l1.999.074zm.082-3.829c.002-.317.003-.636.003-.958h-2c0 .317-.001.632-.003.945l2 .013zm.003-.958v-1.48h-2v1.48h2zm0-4.44v-1.48h-2v1.48h2zm-1-.48h1.085v-2h-1.085v2zm3.256 0h2.17v-2h-2.17v2zm4.341 0h2.171v-2h-2.171v2zm4.341 0h1.086v-2h-1.086v2zm.086-1v.992h2v-.992h-2zm0 2.976v1.984h2V12.09h-2zm0 3.968v1.985h2v-1.985h-2zm0 3.969v1.984h2v-1.984h-2zm0 3.968v1.984h2v-1.984h-2zm0 3.968v1.984h2v-1.984h-2zm0 3.968v1.985h2V31.93h-2zm0 3.969v1.984h2V35.9h-2zm0 3.968v.992h2v-.992h-2zM208.58.974v-.5h-.5v.5h.5zm11.544 0h.5v-.5h-.5v.5zm0 32.856h-.5v1.73l.923-1.463-.423-.267zM240.844.974v-.5h-.276l-.147.233.423.267zm11.544 0h.5v-.5h-.5v.5zm0 48.026v.5h.5V49h-.5zm-11.544 0h-.5v.5h.5V49zm0-33.374h.5v-1.753l-.925 1.49.425.263zM220.124 49v.5h.278l.146-.236-.424-.264zm-11.544 0h-.5v.5h.5V49zm-.5-48.026v1h1v-1h-1zm0 3.002v2h1v-2h-1zm0 4.002v2h1v-2h-1zm0 4.002v2.001h1V11.98h-1zm0 4.002v2.001h1v-2h-1zm0 4.002v2.001h1v-2h-1zm0 4.002v2.002h1v-2.002h-1zm0 4.003v2h1v-2h-1zm0 4.002v2h1v-2h-1zm0 4.002v2.001h1v-2.001h-1zm0 4.002v2.001h1v-2h-1zm0 4.002v2.001h1v-2h-1zm0 4.002V49h1v-1h-1zm.5 1.501h.962v-1h-.962v1zm2.886 0h1.924v-1h-1.924v1zm3.848 0h1.924v-1h-1.924v1zm3.848 0h.962v-1h-.962v1zm1.386-.236l.518-.835-.849-.527-.518.834.849.528zm1.554-2.503l1.036-1.669-.849-.527-1.036 1.668.849.528zm2.072-3.338l1.036-1.668-.849-.528-1.036 1.669.849.527zm2.072-3.337l1.036-1.669-.849-.527-1.036 1.668.849.528zm2.072-3.337l1.036-1.67-.849-.527-1.036 1.669.849.528zm2.072-3.338l1.036-1.669-.849-.527-1.036 1.669.849.527zm2.072-3.337l1.036-1.669-.849-.527-1.036 1.668.849.528zm2.072-3.338l1.036-1.668-.849-.528-1.036 1.669.849.527zm2.072-3.337l1.036-1.669-.849-.527-1.036 1.668.849.528zm2.072-3.338l1.036-1.668-.849-.528-1.036 1.669.849.527zm2.072-3.337l.518-.834-.849-.528-.518.835.849.527zm-.406-1.098v1.043h1v-1.043h-1zm0 3.129v2.086h1v-2.086h-1zm0 4.172v2.085h1v-2.085h-1zm0 4.171v2.086h1v-2.086h-1zm0 4.172v2.086h1V31.27h-1zm0 4.172v2.086h1v-2.086h-1zm0 4.172v2.085h1v-2.085h-1zm0 4.171v2.086h1v-2.086h-1zm0 4.172V49h1v-1.043h-1zm.5 1.543h.962v-1h-.962v1zm2.886 0h1.924v-1h-1.924v1zm3.848 0h1.924v-1h-1.924v1zm3.848 0h.962v-1h-.962v1zm1.462-.5v-1h-1v1h1zm0-3.002v-2h-1v2h1zm0-4.002v-2h-1v2h1zm0-4.002v-2.001h-1v2.001h1zm0-4.002V31.99h-1v2h1zm0-4.002v-2.001h-1v2h1zm0-4.002v-2.002h-1v2.002h1zm0-4.003v-2h-1v2h1zm0-4.002v-2h-1v2h1zm0-4.002V11.98h-1v2.001h1zm0-4.002V7.978h-1v2h1zm0-4.002V3.976h-1v2h1zm0-4.002V.974h-1v1h1zm-.5-1.501h-.962v1h.962v-1zm-2.886 0h-1.924v1h1.924v-1zm-3.848 0h-1.924v1h1.924v-1zm-3.848 0h-.962v1h.962v-1zm-1.385.233l-.518.822.846.533.518-.821-.846-.534zm-1.554 2.464l-1.036 1.643.846.534 1.036-1.643-.846-.534zm-2.072 3.286L235.759 8.1l.846.533 1.036-1.642-.846-.534zm-2.072 3.286l-1.036 1.643.846.533 1.036-1.643-.846-.533zm-2.072 3.285l-1.036 1.643.846.534 1.036-1.643-.846-.534zm-2.072 3.286l-1.036 1.643.846.533 1.036-1.643-.846-.533zm-2.072 3.285l-1.036 1.643.846.534 1.036-1.643-.846-.534zm-2.072 3.286l-1.036 1.643.846.533 1.036-1.642-.846-.534zm-2.072 3.286l-1.036 1.643.846.533 1.036-1.643-.846-.533zm-2.072 3.285l-1.036 1.643.846.534 1.036-1.643-.846-.534zm-2.072 3.286l-.518.821.846.534.518-.822-.846-.533zm.405 1.088v-1.027h-1v1.027h1zm0-3.08v-2.054h-1v2.054h1zm0-4.107v-2.054h-1v2.054h1zm0-4.107v-2.054h-1v2.054h1zm0-4.107v-2.054h-1v2.054h1zm0-4.107v-2.054h-1v2.054h1zm0-4.107V8.16h-1v2.054h1zm0-4.107V4.054h-1v2.054h1zm0-4.107V.974h-1v1.027h1zm-.5-1.527h-.962v1h.962v-1zm-2.886 0h-1.924v1h1.924v-1zm-3.848 0h-1.924v1h1.924v-1zm-3.848 0h-.962v1h.962v-1zm-.962.5v-1h-1v1h1zm11.544 0h1v-1h-1v1zm0 32.856h-1v3.46l1.845-2.927-.845-.533zM240.844.974v-1h-.552l-.294.467.846.533zm11.544 0h1v-1h-1v1zm0 48.026v1h1v-1h-1zm-11.544 0h-1v1h1v-1zm0-33.374h1v-3.507l-1.85 2.98.85.527zM220.124 49v1h.556l.293-.472-.849-.528zm-11.544 0h-1v1h1v-1zm-1-48.026v1h2v-1h-2zm0 3.002v2h2v-2h-2zm0 4.002v2h2v-2h-2zm0 4.002v2.001h2V11.98h-2zm0 4.002v2.001h2v-2h-2zm0 4.002v2.001h2v-2h-2zm0 4.002v2.002h2v-2.002h-2zm0 4.003v2h2v-2h-2zm0 4.002v2h2v-2h-2zm0 4.002v2.001h2v-2.001h-2zm0 4.002v2.001h2v-2h-2zm0 4.002v2.001h2v-2h-2zm0 4.002V49h2v-1h-2zm1 2.001h.962v-2h-.962v2zm2.886 0h1.924v-2h-1.924v2zm3.848 0h1.924v-2h-1.924v2zm3.848 0h.962v-2h-.962v2zm1.811-.472l.518-.835-1.699-1.055-.518.834 1.699 1.056zm1.554-2.504l1.036-1.668-1.699-1.055-1.036 1.668 1.699 1.055zm2.072-3.337l1.036-1.669-1.699-1.055-1.036 1.67 1.699 1.054zm2.072-3.337l1.036-1.67-1.699-1.054-1.036 1.669 1.699 1.055zm2.072-3.338l1.036-1.669-1.699-1.054-1.036 1.668 1.699 1.055zm2.072-3.337l1.036-1.669-1.699-1.055-1.036 1.669 1.699 1.055zm2.072-3.338l1.036-1.668-1.699-1.055-1.036 1.668 1.699 1.055zM234.959 27l1.036-1.669-1.699-1.055-1.036 1.67L234.959 27zm2.072-3.337l1.036-1.67-1.699-1.054-1.036 1.669 1.699 1.055zm2.072-3.338l1.036-1.668-1.699-1.055-1.036 1.668 1.699 1.055zm2.072-3.337l.518-.834-1.699-1.056-.518.835 1.699 1.055zm-1.331-1.362v1.043h2v-1.043h-2zm0 3.129v2.086h2v-2.086h-2zm0 4.172v2.085h2v-2.085h-2zm0 4.171v2.086h2v-2.086h-2zm0 4.172v2.086h2V31.27h-2zm0 4.172v2.086h2v-2.086h-2zm0 4.172v2.085h2v-2.085h-2zm0 4.171v2.086h2v-2.086h-2zm0 4.172V49h2v-1.043h-2zm1 2.043h.962v-2h-.962v2zm2.886 0h1.924v-2h-1.924v2zm3.848 0h1.924v-2h-1.924v2zm3.848 0h.962v-2h-.962v2zm1.962-1v-1h-2v1h2zm0-3.002v-2h-2v2h2zm0-4.002v-2h-2v2h2zm0-4.002v-2.001h-2v2.001h2zm0-4.002V31.99h-2v2h2zm0-4.002v-2.001h-2v2h2zm0-4.002v-2.002h-2v2.002h2zm0-4.003v-2h-2v2h2zm0-4.002v-2h-2v2h2zm0-4.002V11.98h-2v2.001h2zm0-4.002V7.978h-2v2h2zm0-4.002V3.976h-2v2h2zm0-4.002V.974h-2v1h2zm-1-2.001h-.962v2h.962v-2zm-2.886 0h-1.924v2h1.924v-2zm-3.848 0h-1.924v2h1.924v-2zm-3.848 0h-.962v2h.962v-2zm-1.808.467l-.518.821 1.691 1.067.518-.822-1.691-1.066zm-1.554 2.464l-1.036 1.643 1.691 1.066 1.036-1.642-1.691-1.067zm-2.072 3.285l-1.036 1.643 1.691 1.067 1.036-1.643-1.691-1.067zM234.3 9.476l-1.036 1.643 1.691 1.067 1.036-1.643-1.691-1.067zm-2.072 3.286l-1.036 1.642 1.691 1.067 1.036-1.643-1.691-1.066zm-2.072 3.285l-1.036 1.643 1.691 1.067 1.036-1.643-1.691-1.067zm-2.072 3.286l-1.036 1.643 1.691 1.066 1.036-1.642-1.691-1.067zm-2.072 3.285l-1.036 1.643 1.691 1.067 1.036-1.643-1.691-1.067zm-2.072 3.286l-1.036 1.643 1.691 1.067 1.036-1.643-1.691-1.067zm-2.072 3.286l-1.036 1.642 1.691 1.067 1.036-1.643-1.691-1.066zm-2.072 3.285l-.518.822 1.691 1.066.518-.821-1.691-1.067zm1.328 1.355v-1.027h-2v1.027h2zm0-3.08v-2.054h-2v2.054h2zm0-4.107v-2.054h-2v2.054h2zm0-4.107v-2.054h-2v2.054h2zm0-4.107v-2.054h-2v2.054h2zm0-4.107v-2.054h-2v2.054h2zm0-4.107V8.16h-2v2.054h2zm0-4.107V4.054h-2v2.054h2zm0-4.107V.974h-2v1.027h2zm-1-2.027h-.962v2h.962v-2zm-2.886 0h-1.924v2h1.924v-2zm-3.848 0h-1.924v2h1.924v-2zm-3.848 0h-.962v2h.962v-2zm56.937 1v-.5h-.5v.5h.5zm16.428 0l.473-.163-.117-.337h-.356v.5zm11.84 34.336l-.473.163.476 1.38.47-1.382-.473-.161zM306.439.974v-.5h-.358l-.115.339.473.161zm15.466 0h.5v-.5h-.5v.5zm0 48.026v.5h.5V49h-.5zm-10.434 0h-.5v.5h.5V49zm0-35.52h.5v-.5h-.5v.5zm-.222 0v-.5h-.358l-.115.338.473.162zM299.113 49v.5h.357l.116-.338-.473-.162zm-9.25 0l-.472.166.118.334h.354V49zm-12.506-35.52l.471-.166-.117-.334h-.354v.5zm-.296 0v-.5h-.5v.5h.5zm0 35.52v.5h.5V49h-.5zm-10.582 0h-.5v.5h.5V49zm-.5-48.026v1h1v-1h-1zm0 3.002v2h1v-2h-1zm0 4.002v2h1v-2h-1zm0 4.002v2.001h1V11.98h-1zm0 4.002v2.001h1v-2h-1zm0 4.002v2.001h1v-2h-1zm0 4.002v2.002h1v-2.002h-1zm0 4.003v2h1v-2h-1zm0 4.002v2h1v-2h-1zm0 4.002v2.001h1v-2.001h-1zm0 4.002v2.001h1v-2h-1zm0 4.002v2.001h1v-2h-1zm0 4.002V49h1v-1h-1zm.5 1.501h.882v-1h-.882v1zm2.645 0h1.764v-1h-1.764v1zm3.528 0h1.763v-1h-1.763v1zm3.527 0h.882v-1h-.882v1zm1.382-.5v-.987h-1V49h1zm0-2.96v-1.973h-1v1.973h1zm0-3.947V40.12h-1v1.973h1zm0-3.946v-1.974h-1v1.974h1zm0-3.947v-1.973h-1V34.2h1zm0-3.947V28.28h-1v1.973h1zm0-3.946v-1.974h-1v1.974h1zm0-3.947v-1.973h-1v1.973h1zm0-3.947V16.44h-1v1.973h1zm0-3.946v-.987h-1v.987h1zm-.5-.487h.074v-1h-.074v1zm.222 0h.074v-1h-.074v1zm-.398-.334l.348.987.943-.332-.348-.987-.943.332zm1.042 2.96l.695 1.973.943-.332-.694-1.973-.944.332zm1.39 3.947l.695 1.973.943-.332-.695-1.973-.943.332zm1.389 3.946l.695 1.974.944-.332-.695-1.974-.944.332zm1.39 3.947l.695 1.973.943-.332-.695-1.973-.943.332zm1.39 3.947l.694 1.973.944-.332-.695-1.973-.943.332zm1.389 3.946l.695 1.974.943-.332-.695-1.974-.943.332zm1.39 3.947l.694 1.973.944-.332-.695-1.973-.943.332zm1.389 3.947l.695 1.973.943-.332-.694-1.973-.944.332zm1.39 3.946l.347.987.943-.332-.347-.987-.943.332zm.819 1.321h1.156v-1h-1.156v1zm3.469 0h2.312v-1h-2.312v1zm4.625 0h1.156v-1h-1.156v1zm1.629-.338l.337-.987-.946-.323-.337.986.946.324zm1.011-2.96l.675-1.974-.947-.323-.674 1.973.946.324zm1.349-3.947l.674-1.973-.946-.324-.675 1.974.947.323zm1.348-3.947l.674-1.973-.946-.323-.674 1.973.946.323zm1.349-3.946l.674-1.974-.946-.323-.675 1.973.947.324zm1.348-3.947l.674-1.973-.946-.324-.674 1.974.946.323zm1.349-3.947l.674-1.973-.947-.323-.674 1.973.947.323zm1.348-3.946l.674-1.974-.946-.323-.674 1.973.946.324zm1.348-3.947l.675-1.973-.947-.324-.674 1.974.946.323zm1.349-3.947l.337-.986-.946-.324-.337.987.946.323zm-.136-.648h.055v-1h-.055v1zm.166 0h.056v-1h-.056v1zm-.444-.5v.987h1v-.987h-1zm0 2.96v1.973h1V16.44h-1zm0 3.947v1.973h1v-1.973h-1zm0 3.946v1.974h1v-1.974h-1zm0 3.947v1.973h1V28.28h-1zm0 3.947V34.2h1v-1.973h-1zm0 3.946v1.974h1v-1.974h-1zm0 3.947v1.973h1V40.12h-1zm0 3.947v1.973h1v-1.973h-1zm0 3.946V49h1v-.987h-1zm.5 1.487h.869v-1h-.869v1zm2.608 0h1.739v-1h-1.739v1zm3.478 0h1.739v-1h-1.739v1zm3.478 0h.87v-1h-.87v1zm1.37-.5v-1h-1v1h1zm0-3.002v-2h-1v2h1zm0-4.002v-2h-1v2h1zm0-4.002v-2.001h-1v2.001h1zm0-4.002V31.99h-1v2h1zm0-4.002v-2.001h-1v2h1zm0-4.002v-2.002h-1v2.002h1zm0-4.003v-2h-1v2h1zm0-4.002v-2h-1v2h1zm0-4.002V11.98h-1v2.001h1zm0-4.002V7.978h-1v2h1zm0-4.002V3.976h-1v2h1zm0-4.002V.974h-1v1h1zm-.5-1.501h-.967v1h.967v-1zm-2.9 0h-1.933v1h1.933v-1zm-3.867 0h-1.933v1h1.933v-1zm-3.866 0h-1.933v1h1.933v-1zm-3.867 0h-.966v1h.966v-1zm-1.439.339l-.325.954.946.322.325-.954-.946-.322zm-.975 2.861l-.649 1.908.946.322.65-1.907-.947-.323zm-1.299 3.815l-.649 1.908.946.322.65-1.907-.947-.323zm-1.299 3.815l-.65 1.908.947.322.65-1.907-.947-.323zm-1.299 3.816l-.65 1.907.947.322.649-1.907-.946-.322zm-1.299 3.815l-.65 1.907.947.323.649-1.908-.946-.322zm-1.299 3.815l-.65 1.907.947.323.649-1.908-.946-.322zm-1.299 3.815l-.65 1.907.947.323.649-1.908-.946-.322zm-1.3 3.815l-.649 1.908.946.322.65-1.908-.947-.322zm-1.299 3.815l-.324.954.946.322.325-.954-.947-.322zm.622.952l-.329-.954-.946.326.329.954.946-.326zm-.987-2.861l-.658-1.908-.945.326.657 1.908.946-.326zm-1.316-3.815l-.657-1.908-.946.326.658 1.908.945-.326zm-1.315-3.816l-.658-1.907-.945.326.657 1.907.946-.326zm-1.316-3.815l-.658-1.907-.945.326.658 1.907.945-.326zm-1.315-3.815l-.658-1.907-.946.326.658 1.907.946-.326zm-1.316-3.815l-.658-1.907-.945.325.658 1.908.945-.326zm-1.315-3.815l-.658-1.908-.946.326.658 1.908.946-.326zm-1.316-3.815l-.658-1.908-.945.326.658 1.908.945-.326zm-1.316-3.815L283.38.81l-.946.326.329.954.945-.326zm-.801-1.291h-1.027v1h1.027v-1zm-3.08 0h-2.054v1h2.054v-1zm-4.107 0h-2.054v1h2.054v-1zm-4.107 0h-2.054v1h2.054v-1zm-4.107 0h-1.027v1h1.027v-1zm-1.027.5v-1h-1v1h1zm16.428 0l.945-.326-.232-.674h-.713v1zm11.84 34.336l-.946.326.952 2.759.94-2.763-.946-.322zM306.439.974v-1h-.716l-.231.678.947.322zm15.466 0h1v-1h-1v1zm0 48.026v1h1v-1h-1zm-10.434 0h-1v1h1v-1zm0-35.52h1v-1h-1v1zm-.222 0v-1h-.715l-.231.677.946.323zM299.113 49v1h.715l.231-.677-.946-.323zm-9.25 0l-.943.332.235.668h.708v-1zm-12.506-35.52l.943-.332-.235-.668h-.708v1zm-.296 0v-1h-1v1h1zm0 35.52v1h1v-1h-1zm-10.582 0h-1v1h1v-1zm-1-48.026v1h2v-1h-2zm0 3.002v2h2v-2h-2zm0 4.002v2h2v-2h-2zm0 4.002v2.001h2V11.98h-2zm0 4.002v2.001h2v-2h-2zm0 4.002v2.001h2v-2h-2zm0 4.002v2.002h2v-2.002h-2zm0 4.003v2h2v-2h-2zm0 4.002v2h2v-2h-2zm0 4.002v2.001h2v-2.001h-2zm0 4.002v2.001h2v-2h-2zm0 4.002v2.001h2v-2h-2zm0 4.002V49h2v-1h-2zm1 2.001h.882v-2h-.882v2zm2.645 0h1.764v-2h-1.764v2zm3.528 0h1.763v-2h-1.763v2zm3.527 0h.882v-2h-.882v2zm1.882-1v-.987h-2V49h2zm0-2.96v-1.973h-2v1.973h2zm0-3.947V40.12h-2v1.973h2zm0-3.946v-1.974h-2v1.974h2zm0-3.947v-1.973h-2V34.2h2zm0-3.947V28.28h-2v1.973h2zm0-3.946v-1.974h-2v1.974h2zm0-3.947v-1.973h-2v1.973h2zm0-3.947V16.44h-2v1.973h2zm0-3.946v-.987h-2v.987h2zm-1 .013h.074v-2h-.074v2zm.222 0h.074v-2h-.074v2zm-.869-.668l.347.987 1.886-.664-.347-.987-1.886.664zm1.042 2.96l.695 1.973 1.886-.664-.695-1.973-1.886.664zm1.389 3.947l.695 1.973 1.887-.664-.695-1.973-1.887.664zm1.39 3.946l.695 1.974 1.886-.664-.695-1.974-1.886.664zm1.389 3.947l.695 1.973 1.887-.664-.695-1.973-1.887.664zm1.39 3.947l.695 1.973 1.886-.664-.695-1.973-1.886.664zm1.39 3.946l.694 1.974 1.887-.664-.695-1.974-1.886.664zm1.389 3.947l.695 1.973 1.886-.664-.694-1.973-1.887.664zm1.39 3.947l.694 1.973 1.887-.664-.695-1.973-1.886.664zm1.389 3.946l.348.987 1.886-.664-.347-.987-1.887.664zM289.863 50h1.156v-2h-1.156v2zm3.469 0h2.312v-2h-2.312v2zm4.625 0h1.156v-2h-1.156v2zm2.102-.677l.337-.986-1.892-.647-.337.987 1.892.646zm1.011-2.96l.675-1.973-1.893-.647-.674 1.974 1.892.646zm1.349-3.946l.674-1.974-1.892-.646-.675 1.973 1.893.647zm1.348-3.947l.675-1.973-1.893-.647-.674 1.973 1.892.647zm1.349-3.947l.674-1.973-1.893-.647-.674 1.974 1.893.646zm1.348-3.946l.674-1.974-1.892-.646-.674 1.973 1.892.647zm1.349-3.947l.674-1.973-1.893-.647-.674 1.973 1.893.647zm1.348-3.947l.674-1.973-1.892-.647-.674 1.974 1.892.646zm1.349-3.946l.674-1.974-1.893-.646-.674 1.973 1.893.647zm1.348-3.947l.337-.987-1.892-.646-.338.986 1.893.647zm-.609-.31h.055v-2h-.055v2zm.166 0h.056v-2h-.056v2zm-.944-1v.987h2v-.987h-2zm0 2.96v1.973h2V16.44h-2zm0 3.947v1.973h2v-1.973h-2zm0 3.946v1.974h2v-1.974h-2zm0 3.947v1.973h2V28.28h-2zm0 3.947V34.2h2v-1.973h-2zm0 3.946v1.974h2v-1.974h-2zm0 3.947v1.973h2V40.12h-2zm0 3.947v1.973h2v-1.973h-2zm0 3.946V49h2v-.987h-2zm1 1.987h.869v-2h-.869v2zm2.608 0h1.739v-2h-1.739v2zm3.478 0h1.739v-2h-1.739v2zm3.478 0h.87v-2h-.87v2zm1.87-1v-1h-2v1h2zm0-3.002v-2h-2v2h2zm0-4.002v-2h-2v2h2zm0-4.002v-2.001h-2v2.001h2zm0-4.002V31.99h-2v2h2zm0-4.002v-2.001h-2v2h2zm0-4.002v-2.002h-2v2.002h2zm0-4.003v-2h-2v2h2zm0-4.002v-2h-2v2h2zm0-4.002V11.98h-2v2.001h2zm0-4.002V7.978h-2v2h2zm0-4.002V3.976h-2v2h2zm0-4.002V.974h-2v1h2zm-1-2.001h-.967v2h.967v-2zm-2.9 0h-1.933v2h1.933v-2zm-3.867 0h-1.933v2h1.933v-2zm-3.866 0h-1.933v2h1.933v-2zm-3.867 0h-.966v2h.966v-2zm-1.913.678l-.325.953 1.894.645.324-.954-1.893-.644zm-.974 2.861l-.65 1.908 1.894.644.649-1.907-1.893-.645zm-1.299 3.815l-.65 1.908 1.893.644.65-1.907-1.893-.645zm-1.299 3.815l-.65 1.908 1.893.644.65-1.907-1.893-.645zm-1.299 3.815l-.65 1.908 1.893.645.65-1.908-1.893-.645zm-1.3 3.815l-.649 1.908 1.893.645.65-1.908-1.894-.645zm-1.299 3.816l-.649 1.907 1.893.645.65-1.908-1.894-.645zm-1.299 3.815l-.649 1.907 1.893.645.649-1.908-1.893-.644zm-1.299 3.815l-.649 1.907 1.893.645.649-1.908-1.893-.644zm-1.299 3.815l-.325.954 1.893.644.325-.953-1.893-.645zm1.567.95l-.329-.954-1.89.652.328.954 1.891-.652zm-.986-2.861l-.658-1.908-1.891.652.658 1.908 1.891-.652zm-1.316-3.815l-.658-1.908-1.891.652.658 1.907 1.891-.651zm-1.316-3.816l-.657-1.907-1.891.652.658 1.907 1.89-.651zm-1.315-3.815l-.658-1.907-1.891.652.658 1.907 1.891-.652zm-1.316-3.815l-.657-1.907-1.891.652.658 1.907 1.89-.652zm-1.315-3.815l-.658-1.907-1.891.651.658 1.908 1.891-.652zm-1.316-3.815l-.658-1.908-1.89.652.657 1.908 1.891-.652zm-1.315-3.815l-.658-1.908-1.891.652.658 1.908 1.891-.652zm-1.316-3.815l-.329-.954-1.891.652.329.954 1.891-.652zm-1.274-1.628h-1.027v2h1.027v-2zm-3.08 0h-2.054v2h2.054v-2zm-4.107 0h-2.054v2h2.054v-2zm-4.107 0h-2.054v2h2.054v-2zm-4.107 0h-1.027v2h1.027v-2zm83.827 49.47l-.059.497h.002l.057-.497zm-5.55-1.11l.129-.483h-.003l-.126.483zm-5.624-2.294l-.278.416.01.006.268-.422zm-3.7-4.07l.434-.248-.006-.01-.428.258zm35.964-40.108h.5V1.44l-.416-.07-.084.492zm0 8.658l-.118.486.618.149v-.635h-.5zm-19.388-1.924l-.048-.498h-.002l.05.498zm-3.108.74l.161.473.009-.003-.17-.47zm22.792 30.044h.5v-.63l-.613.143.113.487zm0 8.732l.1.49.4-.082v-.408h-.5zm-15.54 1.128c-.497 0-.981-.005-1.454-.016l-.022 1c.481.01.972.016 1.476.016v-1zm-4.35-.155a40.158 40.158 0 01-1.44-.138l-.113.994c.476.054.967.101 1.475.14l.078-.996zm-1.438-.138a30.346 30.346 0 01-1.379-.195l-.162.987c.487.08.961.147 1.424.202l.117-.994zm-4.12-.751a51.1 51.1 0 01-1.359-.345l-.259.966c.471.126.933.243 1.387.352l.231-.973zm-1.362-.346a28.82 28.82 0 01-.723-.198l-.277.96c.244.071.493.14.747.206l.253-.968zm-2.146-.654a20.053 20.053 0 01-1.382-.547l-.404.915c.46.203.944.394 1.452.574l.334-.942zm-2.706-1.203a13.3 13.3 0 01-.631-.375l-.535.844c.219.139.445.273.679.404l.487-.873zm-.621-.369a10.278 10.278 0 01-1.051-.803l-.657.754c.367.32.751.613 1.153.881l.555-.832zm-2.824-2.775a13.37 13.37 0 01-.719-1.127l-.869.496c.243.425.501.828.773 1.211l.815-.58zm-.725-1.136a9.621 9.621 0 01-.365-.669l-.896.445c.125.252.26.498.404.738l.857-.514zm-.935-2.084a11.197 11.197 0 01-.36-1.49l-.985.168c.096.561.226 1.103.392 1.625l.953-.303zm-.528-3.025a15.197 15.197 0 01-.019-.776h-1c0 .28.007.556.021.828l.998-.052zm-.019-.776v-1.055h-1v1.055h1zm0-3.164v-2.109h-1v2.11h1zm0-4.218v-2.109h-1v2.11h1zm0-4.218V22.12h-1v2.11h1zm0-4.218v-2.109h-1v2.11h1zm0-4.218v-1.054h-1v1.055h1zm0-1.054c0-.31.007-.616.023-.915l-.998-.052c-.017.317-.025.64-.025.967h1zm.225-2.726c.106-.612.251-1.197.434-1.756l-.951-.31a13.721 13.721 0 00-.469 1.894l.986.172zm1.125-3.417c.275-.534.593-1.041.953-1.52l-.799-.601a11.54 11.54 0 00-1.043 1.663l.889.458zm2.149-2.865c.424-.406.889-.789 1.394-1.147l-.579-.815c-.542.385-1.045.798-1.507 1.24l.692.722zm2.941-2.1a17.555 17.555 0 011.656-.776l-.378-.926c-.615.251-1.198.525-1.75.82l.472.882zm3.387-1.396c.568-.177 1.162-.34 1.781-.485l-.23-.974c-.641.152-1.257.32-1.849.504l.298.955zm3.596-.857a37.798 37.798 0 011.838-.273l-.123-.993c-.648.08-1.277.174-1.887.281l.172.985zm3.687-.463c.604-.05 1.225-.09 1.863-.118l-.046-1c-.649.03-1.282.07-1.899.121l.082.997zM356.24.74c.309-.005.622-.007.939-.007v-1c-.321 0-.639.002-.953.007l.014 1zm.939-.007c.307 0 .622.004.947.01l.022-.999a43.848 43.848 0 00-.969-.011v1zm2.846.088c.608.035 1.241.08 1.9.137l.085-.996a70.779 70.779 0 00-1.928-.14l-.057 1zm3.799.32c.613.066 1.245.14 1.896.221l.125-.992c-.657-.082-1.295-.157-1.915-.223l-.106.994zm3.79.474c.615.086 1.246.18 1.892.279l.152-.989c-.65-.1-1.285-.193-1.905-.28l-.139.99zm3.78.58l.945.159.168-.986-.95-.16-.163.987zm.529-.334v1.082h1V1.862h-1zm0 3.247v2.164h1V5.11h-1zm0 4.329v1.082h1V9.438h-1zm.617.596a98.46 98.46 0 00-.934-.22l-.225.973c.306.071.614.144.924.219l.235-.972zm-2.808-.634a84.539 84.539 0 00-1.884-.373l-.183.983a82.44 82.44 0 011.861.368l.206-.978zm-3.777-.702a68.478 68.478 0 00-1.903-.277l-.13.991c.614.08 1.239.172 1.875.274l.158-.988zM362.14 8.2a53.853 53.853 0 00-1.921-.156l-.063.998c.616.039 1.244.09 1.885.154l.099-.996zm-3.848-.24a42.822 42.822 0 00-.965-.011v1c.31 0 .624.004.942.01l.023-.999zm-.965-.011c-.377 0-.737.002-1.081.006l.012 1c.34-.004.696-.006 1.069-.006v-1zm-3.248.072c-.4.02-.764.047-1.092.078l.095.996c.311-.03.661-.055 1.05-.076l-.053-.998zm-1.094.078c-.274.028-.55.066-.83.115l.173.985a9.85 9.85 0 01.756-.104l-.099-.996zm-2.445.505c-.259.08-.521.167-.784.263l.341.94c.248-.09.493-.172.735-.246l-.292-.957zm-.775.26c-.298.101-.58.218-.847.352l.447.894c.224-.112.464-.212.723-.3l-.323-.946zm-2.352 1.456a4.989 4.989 0 00-1.001 1.587l.929.37c.195-.49.462-.912.801-1.272l-.729-.685zm-1.421 3.372c-.029.29-.043.59-.043.899h1c0-.28.012-.546.038-.8l-.995-.1zm-.043.899v1.021h1V14.59h-1zm0 3.064v2.042h1v-2.042h-1zm0 4.084v2.043h1v-2.043h-1zm0 4.085v2.043h1v-2.043h-1zm0 4.085v2.042h1v-2.042h-1zm0 4.085v1.021h1v-1.021h-1zm0 1.021c0 .352.024.693.073 1.022l.989-.148a5.98 5.98 0 01-.062-.874h-1zm.744 2.985a5.69 5.69 0 001.348 1.572l.634-.773a4.685 4.685 0 01-1.115-1.296l-.867.497zm3.074 2.628a12.1 12.1 0 001.866.664l.262-.965a11.102 11.102 0 01-1.712-.608l-.416.909zm3.78 1.066c.606.096 1.248.17 1.926.225l.08-.997a24.392 24.392 0 01-1.851-.215l-.155.987zm3.851.322c.315.007.637.011.965.011v-1c-.321 0-.635-.004-.942-.01l-.023.999zm.965.011c.298 0 .606-.005.924-.016l-.033-1c-.308.01-.605.016-.891.016v1zm2.764-.128c.582-.05 1.191-.114 1.827-.192l-.122-.992c-.625.076-1.221.139-1.79.187l.085.997zm3.641-.443a79.704 79.704 0 001.806-.296l-.173-.985c-.615.108-1.209.205-1.783.293l.15.988zm3.603-.63c.58-.114 1.177-.235 1.788-.364l-.207-.979c-.606.129-1.198.249-1.773.361l.192.982zm3.571-.754c.293-.066.59-.134.89-.204l-.226-.974c-.298.07-.593.136-.885.202l.221.976zm.277-.691v1.091h1V39.38h-1zm0 3.274v2.183h1v-2.183h-1zm0 4.366v1.092h1V47.02h-1zm.399.602a80.42 80.42 0 01-.954.19l.19.982c.322-.062.643-.126.965-.192l-.201-.98zm-2.867.538a77.15 77.15 0 01-1.921.3l.143.99a81.081 81.081 0 001.945-.304l-.167-.986zm-3.849.555c-.645.077-1.29.145-1.932.205l.093.996c.651-.06 1.304-.13 1.958-.208l-.119-.993zm-3.87.36c-.648.044-1.295.08-1.94.106l.041.999a74.515 74.515 0 001.967-.106l-.068-.998zm-3.882.158c-.324.005-.648.007-.971.007v1c.328 0 .656-.002.985-.007l-.014-1zm-6.817.211l-.117.993h.003l.114-.993zm-5.55-1.11l.259-.966-.007-.002-.252.968zm-5.624-2.294l-.555.832.01.007.01.006.535-.845zm-3.7-4.07l.868-.496-.005-.01-.006-.008-.857.514zm35.964-40.108h1v-.844l-.832-.142-.168.986zm0 8.658l-.235.972 1.235.298v-1.27h-1zm-19.388-1.924l-.095-.996-.005.001.1.995zm-3.108.74l.322.947.01-.004.009-.003-.341-.94zm22.792 30.044h1v-1.259l-1.226.285.226.974zm0 8.732l.201.98.799-.165v-.815h-1zm-15.54.628c-.493 0-.974-.005-1.443-.016l-.044 2c.484.01.98.016 1.487.016v-2zm-4.312-.154a39.558 39.558 0 01-1.421-.136l-.227 1.987c.482.056.98.103 1.493.143l.155-1.994zm-1.418-.135a31.51 31.51 0 01-1.356-.192l-.325 1.973c.495.081.977.15 1.448.205l.233-1.986zm-4.062-.742a49.115 49.115 0 01-1.345-.34l-.519 1.93c.476.128.943.247 1.401.356l.463-1.946zm-1.352-.343a27.472 27.472 0 01-.71-.195l-.555 1.922c.249.072.502.141.76.209l.505-1.936zm-2.104-.641a19.457 19.457 0 01-1.349-.534l-.807 1.83c.473.209.968.405 1.486.589l.67-1.885zm-2.63-1.17a12.47 12.47 0 01-.607-.36l-1.07 1.69c.226.143.461.283.702.418l.975-1.747zm-.588-.347a9.885 9.885 0 01-.999-.764l-1.314 1.508c.383.333.784.64 1.204.92l1.109-1.664zm-2.694-2.648a13.177 13.177 0 01-.692-1.086l-1.737.992c.251.438.517.856.8 1.253l1.629-1.16zm-.703-1.105a9.125 9.125 0 01-.346-.633l-1.792.89c.131.263.272.52.423.772l1.715-1.029zm-.887-1.977a10.609 10.609 0 01-.344-1.424l-1.971.338c.1.582.236 1.146.408 1.691l1.907-.605zm-.505-2.9a14.179 14.179 0 01-.019-.75h-2c0 .288.007.573.021.853l1.998-.103zm-.019-.75v-1.055h-2v1.055h2zm0-3.164v-2.109h-2v2.11h2zm0-4.218v-2.109h-2v2.11h2zm0-4.218V22.12h-2v2.11h2zm0-4.218v-2.109h-2v2.11h2zm0-4.218v-1.054h-2v1.055h2zm0-1.054c0-.302.007-.598.022-.889l-1.997-.105a19.14 19.14 0 00-.025.994h2zm.217-2.64c.103-.59.242-1.152.417-1.687l-1.901-.62c-.206.63-.367 1.284-.486 1.963l1.97.344zm1.077-3.274c.263-.51.566-.993.909-1.45l-1.599-1.2a12.138 12.138 0 00-1.088 1.734l1.778.916zm2.05-2.732c.407-.39.852-.756 1.338-1.1L339.43 3.36c-.562.398-1.083.827-1.563 1.286l1.382 1.446zm2.832-2.022c.503-.27 1.04-.52 1.609-.754l-.756-1.85c-.63.257-1.229.537-1.797.841l.944 1.763zm3.3-1.359a25.533 25.533 0 011.747-.476l-.46-1.946a27.72 27.72 0 00-1.883.513l.596 1.91zm3.534-.841a37.09 37.09 0 011.813-.27l-.247-1.985c-.656.082-1.293.176-1.911.285l.345 1.97zm3.64-.458a51.815 51.815 0 011.845-.117l-.091-1.998c-.654.03-1.293.07-1.917.122l.163 1.993zm3.692-.171c.307-.005.618-.007.932-.007v-2c-.324 0-.644.002-.96.007l.028 2zm.932-.007c.303 0 .615.004.936.01l.044-1.999a44.289 44.289 0 00-.98-.011v2zm2.817.087c.603.035 1.232.08 1.887.136l.169-1.993a71.165 71.165 0 00-1.941-.14l-.115 1.997zm3.774.318c.61.066 1.24.14 1.888.22l.249-1.984c-.66-.083-1.301-.157-1.923-.224l-.214 1.988zm3.774.472c.613.086 1.242.179 1.886.278l.304-1.977c-.652-.1-1.289-.194-1.911-.282l-.279 1.98zm3.769.579c.31.05.624.104.941.158l.337-1.972-.952-.16-.326 1.974zm.11-.828v1.082h2V1.862h-2zm0 3.247v2.164h2V5.11h-2zm0 4.329v1.082h2V9.438h-2zm1.234.11c-.315-.076-.628-.15-.938-.222l-.451 1.949c.304.07.611.143.92.217l.469-1.944zm-2.823-.638a82.06 82.06 0 00-1.894-.375l-.366 1.966c.607.113 1.224.235 1.85.367l.41-1.958zm-3.8-.705a68.562 68.562 0 00-1.917-.28l-.261 1.983c.61.08 1.23.17 1.861.272l.317-1.975zm-3.845-.503a54.412 54.412 0 00-1.938-.158l-.126 1.996c.609.038 1.231.089 1.867.152l.197-1.99zm-3.886-.243a43.326 43.326 0 00-.976-.011v2c.306 0 .617.004.931.01l.045-1.999zm-.976-.011c-.379 0-.741.002-1.087.006l.024 2a89.93 89.93 0 011.063-.006v-2zm-3.275.072c-.405.022-.776.049-1.112.08l.189 1.992a24.98 24.98 0 011.03-.075l-.107-1.997zm-1.117.081a11.94 11.94 0 00-.866.12l.345 1.97c.244-.043.484-.076.72-.1l-.199-1.99zm-2.542.524a16.31 16.31 0 00-.808.271l.683 1.88c.241-.088.477-.167.71-.238l-.585-1.913zm-.789.264a7.25 7.25 0 00-.909.378l.894 1.79c.202-.102.421-.193.66-.274l-.645-1.894zm-2.555 1.587a5.491 5.491 0 00-1.102 1.744l1.858.741c.173-.434.408-.803.701-1.115l-1.457-1.37zm-1.554 3.665a9.467 9.467 0 00-.046.949h2c0-.264.012-.513.036-.75l-1.99-.2zm-.046.949v1.021h2V14.59h-2zm0 3.064v2.042h2v-2.042h-2zm0 4.084v2.043h2v-2.043h-2zm0 4.085v2.043h2v-2.043h-2zm0 4.085v2.042h2v-2.042h-2zm0 4.085v1.021h2v-1.021h-2zm0 1.021c0 .375.026.74.079 1.097l1.978-.297a5.354 5.354 0 01-.057-.8h-2zm.81 3.234a6.172 6.172 0 001.466 1.71l1.267-1.547a4.189 4.189 0 01-.998-1.158l-1.735.995zm3.3 2.833c.592.272 1.241.501 1.943.692l.524-1.93a10.59 10.59 0 01-1.634-.58l-.833 1.818zm3.91 1.106c.62.098 1.275.174 1.964.23l.16-1.994a23.875 23.875 0 01-1.813-.211l-.311 1.975zm3.917.328c.32.007.645.011.977.011v-2c-.317 0-.627-.004-.93-.01l-.047 1.999zm.977.011c.304 0 .618-.006.941-.016l-.067-2c-.303.01-.594.016-.874.016v2zm2.807-.13a49.44 49.44 0 001.845-.194l-.244-1.985c-.619.077-1.21.138-1.771.186l.17 1.993zm3.674-.446c.586-.09 1.191-.19 1.816-.299l-.346-1.97c-.611.108-1.201.205-1.771.291l.301 1.978zm3.622-.634c.584-.114 1.183-.236 1.797-.366l-.414-1.957c-.604.128-1.193.248-1.766.36l.383 1.963zm3.586-.758c.294-.066.592-.134.893-.204l-.452-1.948-.882.202.441 1.95zm-.333-1.178v1.091h2V39.38h-2zm0 3.274v2.183h2v-2.183h-2zm0 4.366v1.092h2V47.02h-2zm.798.112a63.56 63.56 0 01-.948.19l.38 1.963c.323-.062.647-.127.971-.193l-.403-1.96zm-2.85.535c-.638.108-1.274.207-1.909.299l.286 1.98a81.58 81.58 0 001.957-.307l-.334-1.972zm-3.824.551c-.641.077-1.281.145-1.92.204l.186 1.992a78.014 78.014 0 001.971-.21l-.237-1.986zm-3.844.359c-.644.043-1.286.078-1.927.104l.081 1.998a74.612 74.612 0 001.98-.107l-.134-1.995zm-3.856.156c-.322.005-.643.007-.964.007v2c.33 0 .66-.002.991-.007l-.027-2zm34.532-18.381l.414.28.455-.674-.806-.102-.063.496zm-6.956-2.96l.359-.348-.359.348zm1.998-24.05l.236.441.005-.003-.241-.438zm35.15-2.368h.5v-.5h-.5v.5zm0 48.026v.5h.5V49h-.5zm-11.544 0h-.5v.5h.5V49zm0-17.76h.5v-.5h-.5v.5zm-6.808 0v-.5h-.275l-.148.233.423.267zM393.267 49v.5h.275l.147-.233-.422-.267zm-13.172 0l-.415-.28-.526.78h.941V49zm31.228-25.382v.5h.5v-.5h-.5zm0-14.43h.5v-.5h-.5v.5zm-15.022 1.036l.263.425.005-.003-.268-.422zm-.074 12.358l-.3.4.006.005.007.005.287-.41zm-3.967 7.49l-.524.777.829.56.524-.777-.829-.56zm-1.572 2.331l-1.049 1.554.83.56 1.048-1.554-.829-.56zm-2.097 3.108l-1.048 1.554.829.56 1.048-1.554-.829-.56zm-2.096 3.108l-1.049 1.554.829.56 1.049-1.554-.829-.56zm-2.097 3.108l-1.048 1.554.828.56 1.049-1.554-.829-.56zm-2.097 3.108l-1.048 1.554.829.56 1.048-1.554-.829-.56zm-2.097 3.108l-.524.777.829.56.525-.777-.83-.56zm-.109 1.557h1.098v-1h-1.098v1zm3.293 0h2.195v-1h-2.195v1zm4.391 0h2.195v-1h-2.195v1zm4.39 0h1.098v-1h-1.098v1zm1.52-.233l.563-.888-.845-.535-.563.889.845.535zm1.687-2.664l1.125-1.776-.845-.535-1.124 1.776.844.535zm2.25-3.552l1.125-1.776-.845-.535-1.125 1.776.845.535zm2.25-3.552L401 37.723l-.844-.535-1.125 1.776.845.535zm2.249-3.552l1.125-1.776-.845-.535-1.125 1.776.845.535zm2.25-3.552l.562-.888-.845-.535-.562.888.845.535zm.14-.655h.851v-1h-.851v1zm2.553 0h1.702v-1h-1.702v1zm3.404 0h.851v-1h-.851v1zm.351-.5v1.11h1v-1.11h-1zm0 3.33v2.22h1v-2.22h-1zm0 4.44v2.22h1v-2.22h-1zm0 4.44v2.22h1v-2.22h-1zm0 4.44V49h1v-1.11h-1zm.5 1.61h.962v-1h-.962v1zm2.886 0h1.924v-1h-1.924v1zm3.848 0h1.924v-1h-1.924v1zm3.848 0h.962v-1h-.962v1zm1.462-.5v-1h-1v1h1zm0-3.002v-2h-1v2h1zm0-4.002v-2h-1v2h1zm0-4.002v-2.001h-1v2.001h1zm0-4.002V31.99h-1v2h1zm0-4.002v-2.001h-1v2h1zm0-4.002v-2.002h-1v2.002h1zm0-4.003v-2h-1v2h1zm0-4.002v-2h-1v2h1zm0-4.002V11.98h-1v2.001h1zm0-4.002V7.978h-1v2h1zm0-4.002V3.976h-1v2h1zm0-4.002V.974h-1v1h1zm-.5-1.501h-1.062v1h1.062v-1zm-3.186 0h-2.124v1h2.124v-1zm-4.247 0h-2.124v1h2.124v-1zm-4.248 0h-2.124v1h2.124v-1zm-4.248 0h-2.123v1h2.123v-1zm-4.247 0h-1.062v1h1.062v-1zm-1.062 0c-.303 0-.602.002-.898.005l.012 1c.292-.003.587-.005.886-.005v-1zm-2.691.05c-.616.024-1.214.056-1.792.097l.07.998c.568-.04 1.155-.072 1.761-.096l-.039-1zm-3.586.258c-.621.069-1.217.149-1.788.24l.158.988a35.848 35.848 0 011.74-.234l-.11-.994zm-3.568.581c-.621.14-1.208.298-1.759.473l.302.953a20.665 20.665 0 011.677-.45l-.22-.976zm-3.478 1.126c-.29.131-.567.27-.831.415l.483.876c.24-.132.493-.26.761-.38l-.413-.911zm-.825.412a9.478 9.478 0 00-1.051.65l.581.814a8.57 8.57 0 01.942-.582l-.472-.882zm-2.837 2.384a8.054 8.054 0 00-1.16 2.203l.945.327a7.039 7.039 0 011.016-1.93l-.801-.6zm-1.665 4.61c-.036.393-.054.8-.054 1.217h1c0-.389.017-.764.05-1.125l-.996-.093zm-.054 1.217v1.193h1v-1.193h-1zm0 3.58v2.386h1v-2.386h-1zm0 4.773v1.193h1v-1.193h-1zm0 1.193c0 .321.009.635.027.942l.998-.06c-.017-.285-.025-.58-.025-.882h-1zm.272 2.822a9.73 9.73 0 00.568 1.833l.92-.391a8.77 8.77 0 01-.509-1.647l-.979.205zm1.53 3.517c.195.262.406.509.633.743l.718-.696a6.666 6.666 0 01-.55-.645l-.801.598zm.633.743c.236.243.489.473.758.69l.626-.781a7.144 7.144 0 01-.666-.605l-.718.696zm2.476 1.773c.574.284 1.197.527 1.867.731l.291-.957a11.24 11.24 0 01-1.715-.67l-.443.896zm3.799 1.188c.317.055.643.105.977.147l.126-.992c-.319-.04-.628-.087-.929-.14l-.174.985zm19.688-7.583h-1.193v1h1.193v-1zm-3.58 0h-2.386v1h2.386v-1zm-4.773 0h-1.193v1h1.193v-1zm-1.193 0c-.499 0-.966-.012-1.402-.035l-.054.998a26.7 26.7 0 001.456.037v-1zm-4.112-.434c-.497-.144-.875-.318-1.151-.512l-.574.82c.392.274.879.488 1.446.653l.279-.96zm-1.138-.502a2.465 2.465 0 01-.635-.717l-.858.514c.24.399.537.736.893 1.003l.6-.8zm-1.225-2.716a10.454 10.454 0 01-.055-1.102h-1c0 .427.02.83.061 1.21l.994-.108zm-.055-1.102v-1.129h-1v1.129h1zm0-3.386V13.85h-1v1.129h1zm0-1.128c0-.348.021-.668.062-.96l-.991-.139a7.978 7.978 0 00-.071 1.099h1zm.69-2.633c.174-.228.382-.417.627-.568l-.526-.85a3.312 3.312 0 00-.895.81l.794.608zm.632-.571a4.634 4.634 0 011.162-.505l-.286-.958a5.627 5.627 0 00-1.413.62l.537.843zm3.828-.92c.431-.025.891-.038 1.38-.038v-1c-.506 0-.986.013-1.439.04l.059.998zm1.38-.038h1.193v-1h-1.193v1zm3.58 0h2.386v-1h-2.386v1zm4.773 0h1.193v-1h-1.193v1zm.693-.5v.902h1v-.902h-1zm0 2.706v1.803h1v-1.803h-1zm0 3.607v1.804h1V15.5h-1zm0 3.608v1.803h1V19.11h-1zm0 3.607v.902h1v-.902h-1zm-18.148 7.636l.829.56.908-1.347-1.611-.205-.126.992zm-6.956-2.96l.718-.696-.718.696zm1.998-24.05l.471.882.012-.006-.483-.876zm35.15-2.368h1v-1h-1v1zm0 48.026v1h1v-1h-1zm-11.544 0h-1v1h1v-1zm0-17.76h1v-1h-1v1zm-6.808 0v-1h-.551l-.294.465.845.535zM393.267 49v1h.55l.295-.465-.845-.535zm-13.172 0l-.829-.56-1.052 1.56h1.881v-1zm31.228-25.382v1h1v-1h-1zm0-14.43h1v-1h-1v1zm-15.022 1.036l.526.85.011-.006-.537-.844zm-.074 12.358l-.6.8.013.01.013.01.574-.82zm-4.381 7.21l-.524.778 1.658 1.118.524-.777-1.658-1.118zm-1.573 2.332l-1.048 1.554 1.658 1.118 1.048-1.554-1.658-1.118zm-2.096 3.108l-1.049 1.554 1.658 1.118 1.049-1.554-1.658-1.118zm-2.097 3.108l-1.048 1.554 1.658 1.118 1.048-1.554-1.658-1.118zm-2.097 3.108l-1.048 1.554 1.658 1.118 1.048-1.554-1.658-1.118zm-2.096 3.108l-1.049 1.554 1.658 1.118 1.049-1.554-1.658-1.118zm-2.097 3.108l-.524.777 1.658 1.118.524-.777-1.658-1.118zm.305 2.336h1.098v-2h-1.098v2zm3.293 0h2.195v-2h-2.195v2zm4.391 0h2.195v-2h-2.195v2zm4.39 0h1.098v-2h-1.098v2zm1.943-.465l.562-.888-1.69-1.07-.562.888 1.69 1.07zm1.687-2.664l1.125-1.776-1.69-1.07-1.125 1.776 1.69 1.07zm2.249-3.552l1.125-1.776-1.689-1.07-1.125 1.776 1.689 1.07zm2.25-3.552l1.125-1.776-1.69-1.07-1.125 1.776 1.69 1.07zm2.25-3.552l1.124-1.776-1.689-1.07-1.125 1.776 1.69 1.07zm2.249-3.552l.563-.888-1.69-1.07-.562.888 1.689 1.07zm-.282-.423h.851v-2h-.851v2zm2.553 0h1.702v-2h-1.702v2zm3.404 0h.851v-2h-.851v2zm-.149-1v1.11h2v-1.11h-2zm0 3.33v2.22h2v-2.22h-2zm0 4.44v2.22h2v-2.22h-2zm0 4.44v2.22h2v-2.22h-2zm0 4.44V49h2v-1.11h-2zm1 2.11h.962v-2h-.962v2zm2.886 0h1.924v-2h-1.924v2zm3.848 0h1.924v-2h-1.924v2zm3.848 0h.962v-2h-.962v2zm1.962-1v-1h-2v1h2zm0-3.002v-2h-2v2h2zm0-4.002v-2h-2v2h2zm0-4.002v-2.001h-2v2.001h2zm0-4.002V31.99h-2v2h2zm0-4.002v-2.001h-2v2h2zm0-4.002v-2.002h-2v2.002h2zm0-4.003v-2h-2v2h2zm0-4.002v-2h-2v2h2zm0-4.002V11.98h-2v2.001h2zm0-4.002V7.978h-2v2h2zm0-4.002V3.976h-2v2h2zm0-4.002V.974h-2v1h2zm-1-2.001h-1.062v2h1.062v-2zm-3.186 0h-2.124v2h2.124v-2zm-4.247 0h-2.124v2h2.124v-2zm-4.248 0h-2.124v2h2.124v-2zm-4.248 0h-2.123v2h2.123v-2zm-4.247 0h-1.062v2h1.062v-2zm-1.062 0c-.305 0-.606.002-.904.005l.024 2c.289-.003.583-.005.88-.005v-2zm-2.71.05c-.621.024-1.224.057-1.809.098l.142 1.995c.561-.04 1.143-.07 1.744-.094l-.077-1.999zm-3.622.261c-.628.07-1.232.15-1.813.244l.317 1.975a35.233 35.233 0 011.716-.23l-.22-1.989zm-3.623.59c-.634.144-1.234.305-1.8.484l.604 1.906c.507-.16 1.052-.307 1.637-.439l-.441-1.95zm-3.575 1.158c-.301.137-.59.281-.865.433l.966 1.752c.227-.126.469-.247.726-.363l-.827-1.822zm-.854.427c-.39.209-.759.437-1.106.685l1.163 1.627a8 8 0 01.886-.548l-.943-1.764zm-3.001 2.526a8.533 8.533 0 00-1.232 2.338l1.889.655a6.559 6.559 0 01.944-1.795l-1.601-1.198zm-1.762 4.862c-.038.41-.057.832-.057 1.264h2c0-.375.016-.734.048-1.08l-1.991-.184zm-.057 1.264v1.193h2v-1.193h-2zm0 3.58v2.386h2v-2.386h-2zm0 4.773v1.193h2v-1.193h-2zm0 1.193c0 .33.009.654.028.971l1.996-.118c-.016-.276-.024-.56-.024-.853h-2zm.282 2.925c.143.68.341 1.324.598 1.926l1.84-.783a8.294 8.294 0 01-.48-1.554l-1.958.41zm1.62 3.714c.208.278.432.542.674.79l1.436-1.39a6.143 6.143 0 01-.508-.598l-1.602 1.198zm.674.79c.25.26.519.504.805.733l1.25-1.561a6.615 6.615 0 01-.619-.563l-1.436 1.392zm2.613 1.874c.602.297 1.25.55 1.944.761l.582-1.913a10.84 10.84 0 01-1.64-.64l-.886 1.792zm3.934 1.232c.326.057.659.108 1.001.151l.252-1.984c-.311-.04-.613-.085-.905-.137l-.348 1.97zm19.775-8.575h-1.193v2h1.193v-2zm-3.58 0h-2.386v2h2.386v-2zm-4.773 0h-1.193v2h1.193v-2zm-1.193 0c-.491 0-.949-.012-1.375-.035l-.108 1.998c.466.025.961.037 1.483.037v-2zm-3.973-.414c-.461-.134-.785-.288-1.004-.441l-1.147 1.638c.45.315.991.549 1.593.724l.558-1.92zm-.977-.422a1.973 1.973 0 01-.506-.575l-1.715 1.029c.269.45.609.837 1.021 1.146l1.2-1.6zm-1.028-2.37a9.908 9.908 0 01-.052-1.048h-2c0 .443.021.864.064 1.264l1.988-.216zm-.052-1.048v-1.129h-2v1.129h2zm0-3.386V13.85h-2v1.129h2zm0-1.128c0-.328.02-.624.057-.892l-1.981-.275a8.41 8.41 0 00-.076 1.167h2zm.586-2.329c.138-.18.301-.327.494-.447l-1.053-1.7a3.83 3.83 0 00-1.028.93l1.587 1.217zm.505-.453a4.128 4.128 0 011.036-.448l-.572-1.917a6.107 6.107 0 00-1.538.677l1.074 1.688zm3.588-.843c.42-.024.87-.037 1.351-.037v-2c-.515 0-1.004.013-1.468.04l.117 1.997zm1.351-.037h1.193v-2h-1.193v2zm3.58 0h2.386v-2h-2.386v2zm4.773 0h1.193v-2h-1.193v2zm.193-1v.902h2v-.902h-2zm0 2.706v1.803h2v-1.803h-2zm0 3.607v1.804h2V15.5h-2zm0 3.608v1.803h2V19.11h-2zm0 3.607v.902h2v-.902h-2z" fill="#77C2F9" fill-opacity=".9"/></svg>