<svg width="201" height="30" fill="none" xmlns="http://www.w3.org/2000/svg"><path d="M.45 1.285v-.5h-.5v.5h.5zm15.155 0h.5v-.5h-.5v.5zm0 3.885v.5h.5v-.5h-.5zm-9.695 0v-.5h-.5v.5h.5zm0 18.83v.5h.5V24h-.5zM.45 24h-.5v.5h.5V24zm-.5-22.715v.516h1v-.516h-1zm0 1.549v1.032h1V2.834h-1zm0 2.065V5.93h1V4.9h-1zm0 2.065v1.032h1V6.964h-1zm0 2.065v1.032h1V9.03h-1zm0 2.065v1.032h1v-1.032h-1zm0 2.065v1.032h1V13.16h-1zm0 2.065v1.032h1v-1.032h-1zm0 2.065v1.032h1V17.29h-1zm0 2.065v1.032h1v-1.032h-1zm0 2.065v1.032h1V21.42h-1zm0 2.065V24h1v-.516h-1zm.5 1.016h.455v-1H.45v1zm1.365 0h.91v-1h-.91v1zm1.82 0h.91v-1h-.91v1zm1.82 0h.455v-1h-.455v1zm.955-.5v-.523h-1V24h1zm0-1.57v-1.045h-1v1.046h1zm0-2.091v-1.046h-1v1.046h1zm0-2.093V17.2h-1v1.046h1zm0-2.092v-1.046h-1v1.046h1zm0-2.092v-1.046h-1v1.046h1zm0-2.092v-1.046h-1v1.046h1zm0-2.093V8.832h-1v1.046h1zm0-2.092V6.74h-1v1.046h1zm0-2.092V5.17h-1v.523h1zm-.5-.023h.485v-1H5.91v1zm1.454 0h.97v-1h-.97v1zm1.94 0h.969v-1h-.97v1zm1.938 0h.97v-1h-.97v1zm1.94 0h.969v-1h-.97v1zm1.938 0h.485v-1h-.485v1zm.985-.5v-.486h-1v.486h1zm0-1.457v-.971h-1v.971h1zm0-1.942v-.486h-1v.486h1zm-.5-.986h-.474v1h.474v-1zm-1.42 0h-.948v1h.947v-1zm-1.895 0h-.947v1h.947v-1zm-1.894 0h-.948v1h.947v-1zM8.5.785h-.947v1H8.5v-1zm-1.894 0H5.66v1h.947v-1zm-1.895 0h-.947v1h.947v-1zm-1.894 0H1.87v1h.947v-1zm-1.894 0H.45v1h.474v-1zm-.474.5v-1h-1v1h1zm15.155 0h1v-1h-1v1zm0 3.885v1h1v-1h-1zm-9.695 0v-1h-1v1h1zm0 18.83v1h1v-1h-1zM.45 24h-1v1h1v-1zm-1-22.715v.516h2v-.516h-2zm0 1.549v1.032h2V2.834h-2zm0 2.065V5.93h2V4.9h-2zm0 2.065v1.032h2V6.964h-2zm0 2.065v1.032h2V9.03h-2zm0 2.065v1.032h2v-1.032h-2zm0 2.065v1.032h2V13.16h-2zm0 2.065v1.032h2v-1.032h-2zm0 2.065v1.032h2V17.29h-2zm0 2.065v1.032h2v-1.032h-2zm0 2.065v1.032h2V21.42h-2zm0 2.065V24h2v-.516h-2zM.45 25h.455v-2H.45v2zm1.365 0h.91v-2h-.91v2zm1.82 0h.91v-2h-.91v2zm1.82 0h.455v-2h-.455v2zm1.455-1v-.523h-2V24h2zm0-1.57v-1.045h-2v1.046h2zm0-2.091v-1.046h-2v1.046h2zm0-2.093V17.2h-2v1.046h2zm0-2.092v-1.046h-2v1.046h2zm0-2.092v-1.046h-2v1.046h2zm0-2.092v-1.046h-2v1.046h2zm0-2.093V8.832h-2v1.046h2zm0-2.092V6.74h-2v1.046h2zm0-2.092V5.17h-2v.523h2zm-1 .477h.485v-2H5.91v2zm1.454 0h.97v-2h-.97v2zm1.94 0h.969v-2h-.97v2zm1.938 0h.97v-2h-.97v2zm1.94 0h.969v-2h-.97v2zm1.938 0h.485v-2h-.485v2zm1.485-1v-.486h-2v.486h2zm0-1.457v-.971h-2v.971h2zm0-1.942v-.486h-2v.486h2zm-1-1.486h-.474v2h.474v-2zm-1.42 0h-.948v2h.947v-2zm-1.895 0h-.947v2h.947v-2zm-1.894 0h-.948v2h.947v-2zM8.5.285h-.947v2H8.5v-2zm-1.894 0H5.66v2h.947v-2zm-1.895 0h-.947v2h.947v-2zm-1.894 0H1.87v2h.947v-2zm-1.894 0H.45v2h.474v-2zm26.351 23.82l-.076.494h.001l.075-.494zm-3.29-.84l.164-.472-.003-.001-.16.473zm-2.905-2.03l-.403.295.003.005.4-.3zM20.765 4.82l-.433-.25-.004.008.437.242zm1.96-2.1l-.267-.422-.004.002.271.42zm2.59-1.12l.142.48-.142-.48zm2.87-.56l.04.498h.003l-.043-.498zm5.39.035l-.058.497h.007l.007.001.044-.498zm2.66.49l.14-.48-.013-.004-.127.484zM39 2.755l.271-.42-.27.42zm1.82 1.96l-.432.252.003.004.43-.256zm-.245 16.31l-.401-.298-.005.006.406.292zm-2.73 2.065l-.185-.464.185.464zm-5.075-2.695l.046.498h.01l.009-.002-.065-.496zm1.645-.35l-.14-.48.14.48zm1.26-.805l-.397-.304-.003.004.4.3zm-.84-13.72l-.238.44.01.005.228-.445zm-8.05-.035l-.228-.445.228.445zm-.84 13.755l-.397.304.005.006.004.005.388-.315zm1.33.805l.14-.48-.005-.002-.135.482zm1.61.35l-.067.495.012.002.012.001.043-.498zm1.89 3.455c-.145 0-.288-.001-.431-.003l-.015 1c.147.002.296.003.446.003v-1zm-1.292-.03a22.808 22.808 0 01-.857-.058l-.086.996c.292.025.59.045.894.06l.05-.999zm-1.71-.15a18.696 18.696 0 01-.422-.06l-.15.99c.146.022.295.043.445.062l.128-.992zm-.42-.06c-.135-.02-.27-.043-.407-.068l-.18.984c.145.026.29.05.433.073l.153-.988zm-1.215-.236a19.33 19.33 0 01-.801-.207l-.271.962c.284.08.565.153.844.218l.228-.973zm-1.595-.449c-.13-.042-.262-.087-.394-.132l-.328.944c.138.048.275.094.412.139l.31-.95zm-.397-.133a6.936 6.936 0 01-.393-.147l-.378.925c.146.06.296.116.45.168l.321-.946zm-1.14-.512a5.288 5.288 0 01-.677-.465l-.629.778c.25.203.52.387.805.552l.502-.865zm-1.267-1.028a4.984 4.984 0 01-.259-.317l-.8.6c.099.131.202.258.31.38l.749-.663zm-.255-.312a4.71 4.71 0 01-.23-.347l-.857.517c.087.144.18.284.28.42l.807-.59zm-.596-1.094a5.127 5.127 0 01-.234-.804l-.98.201c.069.333.162.654.28.962l.934-.359zm-.345-1.646a7.015 7.015 0 01-.013-.43h-1c0 .166.005.33.015.491l.998-.061zm-.013-.43v-.497h-1v.497h1zm0-1.491v-.994h-1v.994h1zm0-1.988v-.994h-1v.994h1zm0-1.988v-.994h-1v.994h1zm0-1.988v-.994h-1v.994h1zm0-1.988V7.83h-1v.497h1zm0-.497c0-.123.003-.245.01-.365l-.999-.053a7.9 7.9 0 00-.01.418h1zm.09-1.085a5.55 5.55 0 01.165-.699l-.956-.294a6.544 6.544 0 00-.195.824l.985.169zm.421-1.365c.05-.108.104-.214.162-.318l-.875-.484a6.186 6.186 0 00-.193.38l.906.422zm.157-.31a6.39 6.39 0 01.366-.563l-.808-.59c-.15.207-.291.425-.423.652l.865.502zm1.268-1.537c.168-.142.345-.273.53-.393l-.542-.84c-.221.143-.432.3-.633.47l.645.763zm.527-.39c.179-.114.37-.223.575-.328l-.456-.89c-.23.118-.448.242-.654.373l.535.844zm1.815-.854c.207-.073.424-.143.649-.21l-.283-.959c-.24.072-.473.147-.698.226l.332.943zm.649-.21c.233-.068.462-.13.686-.187L25.9.922c-.238.06-.48.126-.726.198l.283.96zm2.072-.463c.237-.034.47-.06.696-.078l-.079-.996c-.249.02-.502.048-.76.084l.143.99zm.699-.078a26.5 26.5 0 01.634-.046l-.061-.999c-.223.014-.442.03-.658.049l.085.996zm1.909-.097c.21-.004.423-.006.638-.006v-1c-.221 0-.44.002-.657.006l.019 1zm.638-.006c.238 0 .468.002.691.007l.02-1c-.23-.005-.467-.007-.71-.007v1zm2.064.071c.237.019.463.04.678.066l.117-.994a17.99 17.99 0 00-.718-.069l-.077.997zm.692.067c.208.018.423.043.646.075l.142-.99c-.24-.034-.473-.061-.7-.081l-.088.996zm1.936.318c.208.048.422.1.642.158l.253-.968c-.229-.06-.453-.115-.673-.165l-.222.975zm.628.154c.12.035.236.07.35.107l.303-.954a16.32 16.32 0 00-.373-.113l-.28.96zm1.037.345c.235.09.456.182.665.278l.419-.908a11.43 11.43 0 00-.729-.305l-.355.935zm1.297.603c.105.06.204.12.3.182l.542-.84a7.632 7.632 0 00-.345-.21l-.497.868zm.3.182c.17.11.333.23.489.363l.648-.761a5.606 5.606 0 00-.595-.442l-.542.84zm1.319 1.268c.119.164.232.339.34.524l.864-.504a7.282 7.282 0 00-.395-.607l-.81.587zm.343.528c.061.104.12.21.173.32l.898-.438a5.415 5.415 0 00-.212-.394l-.86.512zm.442 1.003c.07.23.127.471.17.724l.986-.163a6.49 6.49 0 00-.2-.856l-.956.295zm.248 1.475c.006.124.01.251.01.381h1c0-.146-.004-.29-.011-.43l-.999.049zm.01.381v.497h1V7.83h-1zm0 1.491v.994h1v-.994h-1zm0 1.988v.994h1v-.994h-1zm0 1.988v.994h1v-.994h-1zm0 1.988v.994h1v-.994h-1zm0 1.988v.497h1v-.497h-1zm0 .497c0 .137-.005.27-.013.401l.997.065a7.16 7.16 0 00.015-.466h-1zm-.121 1.188a4.709 4.709 0 01-.227.75l.93.369a5.7 5.7 0 00.275-.91l-.978-.21zm-.576 1.445c-.068.11-.142.218-.22.324l.803.596a5.56 5.56 0 00.267-.394l-.85-.526zm-.225.33a5.293 5.293 0 01-.242.312l.764.645a6.08 6.08 0 00.29-.373l-.812-.584zm-.797.873c-.196.17-.408.328-.637.473l.538.843c.268-.17.52-.357.754-.56l-.655-.756zm-1.34.859c-.121.056-.245.11-.372.16l.371.93c.145-.059.286-.12.425-.185l-.425-.905zm-.372.16c-.135.055-.271.107-.409.157l.345.939c.146-.054.291-.11.435-.167l-.371-.928zm-1.238.436c-.278.085-.56.163-.845.234l.241.97c.303-.075.602-.157.896-.247l-.292-.957zm-1.702.425c-.285.055-.574.105-.867.148l.145.99a20 20 0 00.914-.157l-.192-.981zm-1.74.256c-.29.03-.583.053-.88.07l.059.998c.31-.018.617-.042.921-.073l-.1-.995zm-1.762.104c-.147.003-.294.004-.443.004v1c.155 0 .309-.001.461-.004l-.018-1zm-.373-3.881c-.167 0-.328-.001-.483-.003l-.014 1c.16.002.326.003.497.003v-1zm-1.443-.035c-.168-.01-.326-.02-.473-.033l-.087.996c.16.014.328.026.505.036l.055-.999zm-.45-.03a9.175 9.175 0 01-.386-.062l-.176.985c.144.026.287.048.428.067l.135-.99zm-1.155-.23a12.474 12.474 0 01-.382-.105l-.28.96c.14.04.277.078.413.113l.25-.968zm-.387-.107a3.01 3.01 0 01-.32-.108l-.376.927c.136.055.278.103.427.144l.27-.962zm-.867-.427a1.54 1.54 0 01-.21-.211l-.776.63c.103.127.219.243.345.35l.641-.769zm-.2-.2a1.582 1.582 0 01-.158-.252l-.894.449c.073.145.159.282.257.41l.795-.607zm-.332-.84a2.533 2.533 0 01-.02-.326h-1c0 .155.009.307.028.456l.992-.13zm-.02-.326v-.499h-1v.499h1zm0-1.496v-.998h-1v.998h1zm0-1.995v-.998h-1v.998h1zm0-1.995v-.998h-1v.998h1zm0-1.995V9.29h-1v.998h1zm0-1.995v-.499h-1v.499h1zm0-.499c0-.22.019-.417.056-.595l-.98-.203c-.052.253-.077.52-.077.798h1zm.565-1.547c.126-.119.277-.225.458-.318l-.457-.89a2.972 2.972 0 00-.688.481l.687.727zm.458-.318c.123-.063.26-.123.413-.178l-.34-.94a4.523 4.523 0 00-.53.228l.457.89zm1.328-.419c.294-.055.618-.099.972-.13l-.09-.996c-.38.034-.736.081-1.066.143l.184.983zm1.966-.185c.163-.004.33-.006.502-.006v-1c-.18 0-.355.002-.526.006l.024 1zm.502-.006c.173 0 .34.002.503.006l.026-1a20.206 20.206 0 00-.529-.006v1zm1.498.064c.353.033.677.08.97.137l.194-.98a10.697 10.697 0 00-1.07-.153l-.094.996zm1.88.39c.152.058.288.12.41.186l.475-.88a4.423 4.423 0 00-.528-.24l-.356.934zm.419.19c.18.093.33.198.456.315l.68-.732a3.015 3.015 0 00-.68-.472l-.456.89zm.966 1.247c.037.174.057.369.057.584h1c0-.277-.025-.541-.079-.793l-.978.209zm.057.584v.499h1v-.499h-1zm0 1.496v.998h1V9.29h-1zm0 1.995v.998h1v-.998h-1zm0 1.995v.998h1v-.998h-1zm0 1.995v.998h1v-.998h-1zm0 1.995v.499h1v-.499h-1zm0 .499c0 .115-.007.224-.02.326l.992.13c.019-.149.028-.3.028-.456h-1zm-.194.914a1.582 1.582 0 01-.158.252l.794.608c.1-.13.185-.266.258-.411l-.894-.449zm-.16.256a1.402 1.402 0 01-.19.206l.665.747c.12-.107.228-.225.324-.353l-.8-.6zm-.698.518c-.093.04-.193.075-.303.107l.28.96c.144-.042.282-.09.414-.147l-.39-.92zm-.303.107c-.13.038-.26.073-.389.106l.246.97c.14-.036.282-.075.423-.116l-.28-.96zm-1.174.274a9.586 9.586 0 01-.395.06l.129.992c.145-.02.29-.041.437-.066l-.171-.986zm-.376.058c-.143.013-.297.024-.463.034l.056.998c.176-.01.342-.022.498-.036l-.091-.996zm-1.405.065a34.4 34.4 0 01-.475.003v1c.17 0 .332-.001.49-.003l-.015-1zm-4.045 4.143l-.153.988h.003l.15-.988zm-3.29-.84l.328-.945-.006-.002-.322.947zm-2.905-2.03l-.807.59.007.01.8-.6zM20.765 4.82l-.865-.501-.005.009-.005.008.875.484zm1.96-2.1l-.535-.845-.008.005.543.84zm2.59-1.12l.284.959-.284-.959zm2.87-.56l.079.997h.007l-.086-.997zm5.39.035l-.117.993.015.002.014.001.088-.996zm2.66.49l.28-.96-.013-.004-.013-.003-.254.967zM39 2.755l.542-.84-.542.84zm1.82 1.96l-.864.504.005.007.86-.511zm-.245 16.31l-.802-.597-.005.007-.005.007.812.583zm-2.73 2.065l-.371-.928.371.928zm-5.075-2.695l.09.996.02-.002.02-.002-.13-.992zm1.645-.35l-.28-.96.28.96zm1.26-.805l-.794-.607-.006.007.8.6zm-.84-13.72l-.475.88.01.005.009.005.456-.89zm-8.05-.035l-.457-.89.457.89zm-.84 13.755l-.794.608.009.011.01.012.775-.631zm1.33.805l.28-.96-.01-.003-.27.963zm1.61.35l-.135.99.024.004.025.002.086-.996zm1.89 2.955c-.142 0-.283-.001-.423-.003l-.031 2c.15.002.302.003.454.003v-2zm-1.267-.03a22.604 22.604 0 01-.839-.057l-.172 1.993c.299.026.603.046.913.061l.098-1.997zm-1.67-.146c-.14-.018-.277-.037-.412-.058l-.301 1.978c.15.023.303.044.457.064l.256-1.984zm-.409-.057c-.13-.02-.26-.043-.393-.067l-.36 1.968c.15.027.298.052.446.075l.307-1.976zm-1.177-.23c-.256-.06-.516-.127-.78-.202l-.542 1.925c.291.082.58.157.866.224l.456-1.947zm-1.554-.437a21.536 21.536 0 01-.385-.13l-.655 1.89c.14.049.28.096.42.141l.62-1.901zm-.391-.132a6.358 6.358 0 01-.365-.136l-.756 1.851c.156.064.315.124.478.179l.643-1.894zm-1.05-.47a4.799 4.799 0 01-.613-.421l-1.258 1.555c.271.22.561.418.869.596l1.002-1.73zm-1.144-.928a4.464 4.464 0 01-.233-.285l-1.6 1.2c.107.142.22.28.337.412l1.496-1.327zm-.226-.276a4.19 4.19 0 01-.206-.31L19.97 21.37c.095.156.196.309.304.457l1.614-1.181zm-.532-.977a4.622 4.622 0 01-.212-.726l-1.959.403c.074.359.175.706.304 1.04l1.867-.717zm-.313-1.498a6.474 6.474 0 01-.012-.399h-2c0 .176.006.35.016.522l1.996-.123zm-.012-.399v-.497h-2v.497h2zm0-1.491v-.994h-2v.994h2zm0-1.988v-.994h-2v.994h2zm0-1.988v-.994h-2v.994h2zm0-1.988v-.994h-2v.994h2zm0-1.988V7.83h-2v.497h2zm0-.497c0-.115.003-.228.01-.339l-1.998-.105a8.483 8.483 0 00-.012.444h2zm.082-1c.038-.22.088-.432.151-.636l-1.911-.589c-.09.289-.16.585-.211.887l1.971.337zm.383-1.239a4.64 4.64 0 01.146-.287l-1.75-.968a6.626 6.626 0 00-.21.41l1.813.845zm.136-.27c.106-.184.219-.357.337-.52l-1.616-1.178a7.915 7.915 0 00-.452.696l1.73 1.002zm1.157-1.406c.153-.128.313-.247.48-.355l-1.086-1.68a6.72 6.72 0 00-.684.507l1.29 1.528zm.472-.35c.166-.105.344-.207.536-.305l-.912-1.78a8.777 8.777 0 00-.694.395l1.07 1.69zm1.714-.804c.199-.07.407-.138.625-.202L25.032.641c-.248.073-.489.15-.722.233l.664 1.887zm.625-.202c.226-.067.448-.128.666-.182l-.486-1.94c-.246.061-.495.13-.747.204l.567 1.918zm2-.448c.228-.032.45-.057.665-.074L28.107.043c-.26.02-.524.05-.791.088l.284 1.98zm.672-.075c.204-.017.411-.032.622-.045L28.77-.006c-.226.014-.45.03-.67.05l.17 1.992zm1.875-.095c.207-.004.417-.006.63-.006v-2c-.226 0-.448.002-.668.006l.038 2zm.63-.006c.234 0 .46.002.68.007l.041-2a34.87 34.87 0 00-.722-.007v2zm2.024.07c.232.018.451.039.659.063l.233-1.986a18.514 18.514 0 00-.738-.071L32.8 2.005zm.687.066c.198.018.404.042.619.072l.283-1.98a13.45 13.45 0 00-.726-.084l-.176 1.992zm1.868.308c.204.046.413.097.627.153l.507-1.934a22.365 22.365 0 00-.689-.17l-.445 1.95zm.6.146c.116.034.229.068.339.103l.605-1.906c-.126-.04-.254-.079-.384-.117l-.56 1.92zm1 .333c.224.085.435.173.632.264l.838-1.816a11.908 11.908 0 00-.76-.318l-.71 1.87zm1.226.569c.097.055.19.112.277.168l1.084-1.68a8.067 8.067 0 00-.367-.224l-.994 1.736zm.277.168c.151.098.296.205.436.324l1.296-1.523a6.099 6.099 0 00-.648-.481l-1.084 1.68zm1.185 1.142c.109.15.213.31.313.482l1.728-1.008a7.763 7.763 0 00-.422-.649l-1.619 1.175zm.318.49c.055.091.106.186.154.284l1.797-.878a5.919 5.919 0 00-.232-.43l-1.72 1.023zm.394.895c.064.207.115.426.154.658l1.973-.326a6.993 6.993 0 00-.216-.922l-1.91.59zm.227 1.352c.005.116.008.234.008.356h2a9.25 9.25 0 00-.01-.455l-1.998.099zm.008.356v.497h2V7.83h-2zm0 1.491v.994h2v-.994h-2zm0 1.988v.994h2v-.994h-2zm0 1.988v.994h2v-.994h-2zm0 1.988v.994h2v-.994h-2zm0 1.988v.497h2v-.497h-2zm0 .497c0 .126-.004.249-.011.369l1.995.13c.011-.165.016-.331.016-.499h-2zm-.109 1.082c-.05.236-.118.459-.202.67l1.858.74c.127-.32.226-.65.3-.99l-1.956-.42zm-.513 1.289c-.06.098-.125.193-.195.287l1.605 1.194c.103-.14.2-.283.292-.43l-1.702-1.051zm-.205.3a5.01 5.01 0 01-.218.281l1.528 1.29c.11-.13.215-.265.315-.404l-1.625-1.166zm-.718.787c-.178.153-.37.297-.579.43l1.075 1.686a6.88 6.88 0 00.813-.604l-1.31-1.512zm-1.226.784a6.437 6.437 0 01-.345.15l.743 1.857c.153-.062.303-.127.45-.196l-.848-1.811zm-.345.15c-.13.052-.262.102-.395.151l.69 1.877c.15-.055.3-.112.448-.172l-.743-1.857zm-1.199.421a14.9 14.9 0 01-.819.227l.483 1.941c.312-.078.619-.163.921-.255l-.585-1.913zm-1.651.412c-.277.054-.558.102-.843.144l.29 1.98c.316-.047.629-.1.937-.161l-.384-1.963zm-1.695.25c-.282.028-.568.05-.858.068l.117 1.996c.317-.018.632-.043.942-.075l-.2-1.99zm-1.72.1a15.61 15.61 0 01-.434.005v2c.158 0 .315-.002.47-.004l-.037-2zm-.364-3.88c-.164 0-.323-.001-.476-.003l-.028 2c.162.002.33.003.504.003v-2zm-1.415-.034a14.65 14.65 0 01-.458-.032l-.173 1.992c.165.015.338.027.52.037l.11-1.997zm-.41-.027a8.802 8.802 0 01-.365-.058l-.354 1.969c.151.027.3.05.45.07l.27-1.98zm-1.098-.218c-.12-.031-.243-.065-.367-.101l-.56 1.92c.144.042.287.081.429.118l.498-1.937zm-.377-.104a2.513 2.513 0 01-.268-.09l-.751 1.853c.154.063.315.117.48.163l.539-1.926zm-.682-.33a1.035 1.035 0 01-.142-.143l-1.552 1.262c.124.152.262.291.413.417l1.281-1.535zm-.123-.12a1.076 1.076 0 01-.108-.172l-1.788.897c.087.173.19.337.307.49l1.589-1.215zm-.234-.6a2.039 2.039 0 01-.016-.262h-2c0 .175.01.35.033.52l1.983-.258zm-.016-.262v-.499h-2v.499h2zm0-1.496v-.998h-2v.998h2zm0-1.995v-.998h-2v.998h2zm0-1.995v-.998h-2v.998h2zm0-1.995V9.29h-2v.998h2zm0-1.995v-.499h-2v.499h2zm0-.499c0-.19.017-.353.046-.494l-1.958-.405c-.06.29-.088.59-.088.899h2zm.409-1.183c.089-.084.2-.164.343-.237l-.914-1.78a3.473 3.473 0 00-.802.563l1.373 1.454zm.343-.237a2.97 2.97 0 01.355-.153l-.68-1.88a5.03 5.03 0 00-.589.253l.914 1.78zm1.192-.373a9.88 9.88 0 01.924-.123l-.178-1.992c-.394.035-.766.084-1.114.15l.368 1.965zm1.887-.176c.158-.004.321-.006.49-.006v-2c-.184 0-.364.002-.54.007l.05 1.999zm.49-.006c.167 0 .33.002.489.006l.052-2a20.704 20.704 0 00-.542-.006v2zm1.45.062c.34.032.645.076.92.13l.388-1.962c-.35-.07-.724-.122-1.12-.16l-.188 1.992zm1.75.36c.133.05.248.103.349.158l.95-1.76a4.902 4.902 0 00-.587-.267l-.712 1.869zm.367.168c.144.073.256.153.344.235l1.362-1.464a3.517 3.517 0 00-.792-.55L34.38 6.41zm.706.905c.03.136.046.295.046.48h2a4.3 4.3 0 00-.09-.897l-1.956.417zm.046.48v.499h2v-.499h-2zm0 1.496v.998h2V9.29h-2zm0 1.995v.998h2v-.998h-2zm0 1.995v.998h2v-.998h-2zm0 1.995v.998h2v-.998h-2zm0 1.995v.499h2v-.499h-2zm0 .499c0 .095-.005.182-.016.262l1.983.258c.023-.17.033-.345.033-.52h-2zm-.14.69c-.032.06-.067.118-.109.172l1.589 1.215a3.09 3.09 0 00.307-.49l-1.788-.897zm-.115.18a.899.899 0 01-.122.133l1.33 1.493c.145-.129.276-.27.392-.426l-1.6-1.2zm-.492.358a2.52 2.52 0 01-.248.087l.56 1.92c.162-.047.318-.102.47-.166l-.782-1.841zm-.248.087c-.125.036-.249.07-.372.101l.492 1.939c.146-.037.293-.077.44-.12l-.56-1.92zm-1.12.261c-.125.022-.25.041-.374.057l.259 1.984c.152-.02.304-.043.457-.07l-.341-1.97zm-.335.053c-.137.012-.285.023-.446.032l.112 1.997c.181-.01.353-.022.515-.037l-.181-1.992zm-1.367.063c-.15.002-.305.003-.468.003v2c.171 0 .337-.001.496-.003l-.028-2zM47.734 1.285v-.5h-.5v.5h.5zm14.35.455l-.115.487h.002l.113-.487zm2.835 1.61l-.398.302.005.007.005.006.388-.315zm-.07 10.955l-.395-.307-.005.007.4.3zm-3.045 1.785l-.121-.485h-.002l.123.485zm-8.61.525v-.5h-.5v.5h.5zm0 7.385v.5h.5V24h-.5zm-5.46 0h-.5v.5h.5V24zM59.67 12.38l.245.436.006-.003.006-.004-.257-.429zm.035-6.86l-.2.459.008.003.192-.462zm-6.51-.35v-.5h-.5v.5h.5zm0 7.7h-.5v.5h.5v-.5zm-5.96-11.585v.516h1v-.516h-1zm0 1.549v1.032h1V2.834h-1zm0 2.065V5.93h1V4.9h-1zm0 2.065v1.032h1V6.964h-1zm0 2.065v1.032h1V9.03h-1zm0 2.065v1.032h1v-1.032h-1zm0 2.065v1.032h1V13.16h-1zm0 2.065v1.032h1v-1.032h-1zm0 2.065v1.032h1V17.29h-1zm0 2.065v1.032h1v-1.032h-1zm0 2.065v1.032h1V21.42h-1zm0 2.065V24h1v-.516h-1zm.5 1.016h.455v-1h-.455v1zm1.365 0h.91v-1h-.91v1zm1.82 0h.91v-1h-.91v1zm1.82 0h.455v-1h-.455v1zm.955-.5v-.462h-1V24h1zm0-1.385v-.923h-1v.923h1zm0-1.846v-.923h-1v.923h1zm0-1.846V18h-1v.923h1zm0-1.846v-.462h-1v.462h1zm-.5.038h.376v-1h-.376v1zm1.129 0h.752v-1h-.752v1zm1.505 0h.376v-1h-.376v1zm.376 0c.16 0 .32 0 .475-.002l-.01-1a44.35 44.35 0 01-.465.002v1zm1.427-.023c.328-.011.646-.026.953-.046l-.063-.998c-.297.019-.605.034-.924.045l.034.999zm1.907-.122c.333-.033.652-.072.956-.116l-.145-.99c-.287.043-.59.08-.91.11l.099.996zm1.912-.285c.164-.034.323-.071.477-.11l-.246-.97c-.14.036-.286.07-.437.102l.206.978zm.475-.11c.157-.04.31-.081.459-.127l-.292-.956c-.132.04-.268.078-.41.113l.243.97zm1.36-.463c.31-.14.598-.297.862-.474l-.558-.83c-.212.142-.45.274-.713.392l.41.912zm1.634-1.118c.118-.124.228-.253.33-.389l-.8-.6a3.198 3.198 0 01-.252.296l.722.693zm.325-.382a4.32 4.32 0 00.295-.432l-.858-.514a3.32 3.32 0 01-.227.332l.79.614zm.725-1.366c.105-.306.186-.631.245-.975l-.986-.168a5.31 5.31 0 01-.205.82l.946.323zm.349-1.954c.007-.16.011-.321.011-.487h-1c0 .15-.003.296-.01.438l.999.049zm.011-.487v-.538h-1v.538h1zm0-1.614V8.114h-1v1.077h1zm0-2.153V6.5h-1v.538h1zm0-.538c0-.15-.003-.298-.01-.443l-1 .05c.007.127.01.258.01.393h1zm-.108-1.335a5.517 5.517 0 00-.23-.888l-.942.333c.078.222.141.464.187.728l.985-.173zm-.635-1.74a3.843 3.843 0 00-.279-.39l-.776.63c.074.09.142.187.206.29l.849-.53zm-.268-.377a3.826 3.826 0 00-.312-.362l-.716.698c.084.086.16.175.23.268l.798-.604zm-1.04-.956a5.367 5.367 0 00-.81-.43l-.395.918c.244.105.463.222.658.35l.546-.838zm-1.653-.728a8.623 8.623 0 00-.428-.111l-.226.974c.13.03.257.063.378.098l.276-.961zm-.426-.11a11.799 11.799 0 00-.449-.097l-.192.981c.143.028.28.058.411.089l.23-.974zm-1.346-.244a20.873 20.873 0 00-.896-.1l-.091.996c.3.027.584.059.853.095l.134-.99zm-1.79-.166c-.288-.017-.585-.03-.893-.04l-.031 1c.3.01.588.022.866.038l.057-.998zM57.278.787a47.04 47.04 0 00-.445-.002v1c.147 0 .293 0 .436.002l.01-1zm-.445-.002h-.455v1h.455v-1zm-1.365 0h-.91v1h.91v-1zm-1.82 0h-.91v1h.91v-1zm-1.82 0h-.91v1h.91v-1zm-1.82 0h-.91v1h.91v-1zm-1.82 0h-.455v1h.455v-1zm8.47 11.585h-.433v1h.433v-1zm-1.3 0h-.865v1h.866v-1zm-1.732 0h-.433v1h.433v-1zm.067.5v-.481h-1v.481h1zm0-1.444v-.962h-1v.962h1zm0-1.925V8.54h-1v.96h1zm0-1.925v-.962h-1v.962h1zm0-1.925V5.17h-1v.481h1zm-.5.019h.425v-1h-.425v1zm1.273 0h.85v-1h-.85v1zm1.698 0h.424v-1h-.424v1zm.424 0c.133 0 .262 0 .387.003l.014-1a28.36 28.36 0 00-.4-.003v1zm1.155.027c.28.015.531.035.754.06l.115-.992c-.248-.03-.52-.051-.817-.067l-.052.999zm1.463.184c.125.032.223.065.298.098l.398-.918a2.986 2.986 0 00-.448-.15l-.248.97zm.305.1c.1.042.18.093.242.149l.666-.747a1.85 1.85 0 00-.523-.325l-.385.924zm.502.653c.02.103.03.22.03.356h1c0-.189-.015-.37-.048-.544l-.983.188zm.03.356v.455h1V6.99h-1zm0 1.365v.91h1v-.91h-1zm0 1.82v.455h1v-.455h-1zm0 .455c0 .156-.012.296-.035.422l.984.179c.035-.192.051-.393.051-.601h-1zm-.346 1.09a1.26 1.26 0 01-.286.231l.514.858c.192-.115.363-.253.51-.414l-.738-.675zm-.273.224a1.927 1.927 0 01-.278.125l.345.939c.15-.056.291-.119.422-.192l-.49-.872zm-.938.295a7.708 7.708 0 01-.716.09l.082.996a8.2 8.2 0 00.81-.102l-.175-.984zm-1.454.127a15.11 15.11 0 01-.374.004v1c.136 0 .267-.001.396-.004l-.022-1zM47.734 1.285v-1h-1v1h1zm14.35.455l-.23.973.004.001.226-.974zm2.835 1.61l-.797.604.01.013.011.014.776-.631zm-.07 10.955l-.79-.614-.005.007-.005.007.8.6zm-3.045 1.785l-.242-.97h-.004l.246.97zm-8.61.525v-1h-1v1h1zm0 7.385v1h1v-1h-1zm-5.46 0h-1v1h1v-1zM59.67 12.38l.489.872.013-.007.013-.007-.515-.858zm.035-6.86l-.398.917.007.003.007.003.384-.923zm-6.51-.35v-1h-1v1h1zm0 7.7h-1v1h1v-1zm-6.46-11.585v.516h2v-.516h-2zm0 1.549v1.032h2V2.834h-2zm0 2.065V5.93h2V4.9h-2zm0 2.065v1.032h2V6.964h-2zm0 2.065v1.032h2V9.03h-2zm0 2.065v1.032h2v-1.032h-2zm0 2.065v1.032h2V13.16h-2zm0 2.065v1.032h2v-1.032h-2zm0 2.065v1.032h2V17.29h-2zm0 2.065v1.032h2v-1.032h-2zm0 2.065v1.032h2V21.42h-2zm0 2.065V24h2v-.516h-2zm1 1.516h.455v-2h-.455v2zm1.365 0h.91v-2h-.91v2zm1.82 0h.91v-2h-.91v2zm1.82 0h.455v-2h-.455v2zm1.455-1v-.462h-2V24h2zm0-1.385v-.923h-2v.923h2zm0-1.846v-.923h-2v.923h2zm0-1.846V18h-2v.923h2zm0-1.846v-.462h-2v.462h2zm-1 .538h.376v-2h-.376v2zm1.129 0h.752v-2h-.752v2zm1.505 0h.376v-2h-.376v2zm.376 0c.162 0 .322 0 .48-.002l-.02-2-.46.002v2zm1.444-.023c.332-.012.655-.027.967-.047l-.125-1.996a30.39 30.39 0 01-.91.044l.068 1.999zm1.94-.124c.34-.034.666-.073.978-.12l-.289-1.978c-.279.04-.574.077-.886.107l.196 1.99zm1.965-.294c.17-.035.337-.074.498-.115l-.493-1.938c-.133.034-.272.066-.418.097l.413 1.956zm.494-.114a9.72 9.72 0 00.483-.134l-.584-1.912a7.793 7.793 0 01-.384.106l.485 1.94zm1.444-.492c.333-.15.645-.321.934-.515l-1.114-1.66a4.34 4.34 0 01-.64.351l.82 1.824zm1.789-1.228a4.94 4.94 0 00.37-.435l-1.6-1.2c-.066.086-.136.17-.214.25l1.444 1.385zm.358-.421c.12-.153.23-.314.33-.482l-1.716-1.028c-.06.1-.124.194-.192.282l1.578 1.228zm.804-1.51a6.77 6.77 0 00.264-1.054l-1.971-.336a4.736 4.736 0 01-.185.741l1.892.648zm.375-2.093c.008-.167.012-.338.012-.511h-2c0 .143-.003.28-.01.414l1.998.097zm.012-.511v-.538h-2v.538h2zm0-1.614V8.114h-2v1.077h2zm0-2.153V6.5h-2v.538h2zm0-.538c0-.158-.004-.314-.011-.468l-1.998.1c.006.118.01.241.01.368h2zm-.115-1.42a6.02 6.02 0 00-.251-.97l-1.886.667c.069.193.125.408.167.647l1.97-.345zm-.705-1.92a4.33 4.33 0 00-.315-.442L64.143 3.98c.06.074.117.153.17.238L66.01 3.16zm-.294-.415a4.34 4.34 0 00-.352-.41l-1.432 1.397c.07.071.132.145.19.22l1.594-1.207zM64.55 1.673a5.867 5.867 0 00-.884-.47l-.791 1.837c.22.095.414.198.583.309l1.092-1.676zm-1.787-.79a9.124 9.124 0 00-.453-.117l-.452 1.948a8.2 8.2 0 01.353.091l.552-1.922zm-.449-.116a9.594 9.594 0 00-.468-.1l-.384 1.962c.137.027.268.055.392.084l.46-1.946zM60.92.515c-.292-.04-.598-.074-.917-.103l-.181 1.992c.293.026.57.057.831.093L60.92.515zm-1.828-.17c-.292-.017-.594-.03-.906-.04l-.062 2c.296.008.58.02.853.037l.115-1.997zM57.284.287a47.547 47.547 0 00-.45-.002v2c.146 0 .29 0 .43.002l.02-2zm-.45-.002h-.455v2h.455v-2zm-1.365 0h-.91v2h.91v-2zm-1.82 0h-.91v2h.91v-2zm-1.82 0h-.91v2h.91v-2zm-1.82 0h-.91v2h.91v-2zm-1.82 0h-.455v2h.455v-2zm8.47 11.585h-.433v2h.433v-2zm-1.3 0h-.865v2h.866v-2zm-1.732 0h-.433v2h.433v-2zm.567 1v-.481h-2v.481h2zm0-1.444v-.962h-2v.962h2zm0-1.925V8.54h-2v.96h2zm0-1.925v-.962h-2v.962h2zm0-1.925V5.17h-2v.481h2zm-1 .519h.425v-2h-.425v2zm1.273 0h.85v-2h-.85v2zm1.698 0h.424v-2h-.424v2zm.424 0c.131 0 .258 0 .38.003l.028-2a28.92 28.92 0 00-.408-.003v2zm1.13.026c.27.015.51.034.721.059l.23-1.987a13.69 13.69 0 00-.848-.069l-.104 1.997zm1.364.17c.106.026.178.052.223.071l.797-1.834a3.484 3.484 0 00-.524-.175l-.496 1.937zm.237.077a.357.357 0 01.102.06l1.33-1.493a2.35 2.35 0 00-.663-.413l-.77 1.846zm.202.285a1.4 1.4 0 01.022.262h2c0-.216-.017-.43-.057-.638l-1.965.376zm.022.262v.455h2V6.99h-2zm0 1.365v.91h2v-.91h-2zm0 1.82v.455h2v-.455h-2zm0 .455c0 .13-.01.24-.027.332l1.967.359c.041-.225.06-.456.06-.691h-2zm-.216.753a.762.762 0 01-.173.14l1.029 1.715c.23-.139.44-.307.622-.506l-1.478-1.348zm-.147.125c-.05.028-.118.06-.206.092l.689 1.877c.171-.063.337-.137.494-.225l-.977-1.745zm-.781.239a7.232 7.232 0 01-.67.084l.164 1.993c.304-.025.59-.06.857-.108l-.351-1.97zm-1.379.119c-.116.003-.237.004-.362.004v2c.14 0 .275-.002.407-.004l-.045-2zm12.481 8.249v-.5h-.5v.5h.5zm2.8-1.085l-.388-.315v.001l.388.314zm1.4-4.06l-.493-.082.493.082zm.49-13.685v-.5h-.5v.5h.5zm16.52 0h.5v-.5h-.5v.5zm0 18.83h-.5v.5h.5v-.5zm3.325 0h.5v-.5h-.5v.5zm0 9.17v.5h.5v-.5h-.5zm-4.9 0h-.5v.5h.5v-.5zm0-5.285h.5v-.5h-.5v.5zm-14.734 0v-.5h-.5v.5h.5zm0 5.285v.5h.5v-.5h-.5zm-4.9 0h-.5v.5h.5v-.5zm15.75-9.135v.5h.5v-.5h-.5zm0-15.015h.5v-.5h-.5v.5zm-6.16 0v-.5h-.5v.5h.5zM76.817 20.15l-.413-.28-.529.78h.942v-.5zm-7.814-.035v.459h1v-.459h-1zm0 1.376v.916h1v-.916h-1zm0 1.834v.916h1v-.916h-1zm0 1.834v.917h1v-.918h-1zm0 1.834v.917h1v-.918h-1zm0 1.834v.458h1v-.459h-1zm.5.958h.612v-1h-.612v1zm1.837 0h1.225v-1H71.34v1zm2.45 0h.612v-1h-.612v1zm1.112-.5v-.44h-1v.44h1zm0-1.321v-.881h-1v.88h1zm0-1.762v-.88h-1v.88h1zm0-1.762V24h-1v.44h1zm-.5.06h.527v-1h-.526v1zm1.58 0h1.052v-1H75.98v1zm2.104 0h1.053v-1h-1.053v1zm2.105 0h1.053v-1H80.19v1zm2.105 0h1.053v-1h-1.053v1zm2.105 0h1.053v-1H84.4v1zm2.105 0h1.053v-1h-1.053v1zm2.105 0h.526v-1h-.526v1zm.026-.5v.44h1V24h-1zm0 1.321v.881h1v-.88h-1zm0 1.762v.88h1v-.88h-1zm0 1.762v.44h1v-.44h-1zm.5.94h.613v-1h-.612v1zm1.838 0H92.2v-1h-1.225v1zm2.45 0h.612v-1h-.612v1zm1.112-.5v-.459h-1v.459h1zm0-1.375v-.918h-1v.918h1zm0-1.834v-.918h-1v.918h1zm0-1.835v-.916h-1v.916h1zm0-1.834v-.916h-1v.916h1zm0-1.834v-.458h-1v.459h1zm-.5-.958h-.415v1h.415v-1zm-1.246 0h-.832v1h.832v-1zm-1.663 0h-.415v1h.415v-1zm.085.5v-.523h-1v.523h1zm0-1.57V17.5h-1v1.046h1zm0-2.091v-1.046h-1v1.046h1zm0-2.093v-1.046h-1v1.046h1zm0-2.092v-1.046h-1v1.046h1zm0-2.092V9.13h-1v1.046h1zm0-2.092V7.039h-1v1.046h1zm0-2.093V4.946h-1v1.046h1zm0-2.092V2.854h-1V3.9h1zm0-2.092v-.523h-1v.523h1zm-.5-1.023h-.517v1h.517v-1zm-1.55 0h-1.032v1h1.033v-1zm-2.064 0h-1.033v1H87.1v-1zm-2.065 0H84v1h1.033v-1zm-2.065 0h-1.033v1h1.033v-1zm-2.065 0H79.87v1h1.033v-1zm-2.065 0h-1.033v1h1.033v-1zm-2.065 0H75.74v1h1.033v-1zm-2.065 0h-.517v1h.517v-1zm-1.017.5v.446h1v-.446h-1zm0 1.339v.892h1v-.892h-1zm0 1.785V5.3h1v-.89h-1zm0 1.785v.446h1v-.446h-1zm0 .446v.52l1 .005V6.64h-1zm-.01 1.56c-.006.355-.013.7-.022 1.037l1 .027c.009-.341.016-.691.021-1.05l-1-.015zm-.056 2.074c-.015.357-.031.701-.05 1.034l.998.058c.02-.34.036-.69.051-1.052l-1-.04zm-.12 2.065c-.028.359-.06.701-.094 1.027l.995.105c.035-.336.067-.687.096-1.053l-.997-.079zm-.219 2.045c-.025.174-.05.342-.078.504l.987.164c.028-.17.055-.346.081-.527l-.99-.141zm-.078.504c-.03.18-.06.353-.093.522l.982.187c.034-.176.067-.358.098-.545l-.987-.164zm-.32 1.55a10.66 10.66 0 01-.302.99l.94.341c.12-.329.23-.69.33-1.083l-.968-.248zm-.713 1.894a2.994 2.994 0 01-.261.383l.776.63c.124-.153.24-.324.349-.51l-.865-.503zm-.263.384a2.6 2.6 0 01-.39.394l.629.778c.195-.158.375-.34.54-.544l-.779-.628zm-1.361.846a2.84 2.84 0 01-.56.053v1a3.9 3.9 0 00.756-.072l-.196-.98zm-.56.053h-.122v1h.123v-1zm-.367 0h-.123v1h.123v-1zm15.627.035h-.527v1h.528v-1zm-1.581 0h-1.054v1h1.054v-1zm-2.109 0h-1.054v1h1.054v-1zm-2.108 0h-1.055v1h1.055v-1zm-2.11 0h-.526v1h.527v-1zm-.112.78c.102-.151.201-.31.296-.475l-.867-.499c-.083.146-.17.283-.258.414l.829.56zm.788-1.465a12.6 12.6 0 00.385-1.021l-.95-.314c-.11.335-.228.648-.354.94l.919.395zm.688-2.06c.086-.334.166-.684.24-1.047l-.98-.198c-.071.347-.147.68-.228.996l.968.25zm.428-2.1c.054-.34.103-.692.147-1.055l-.993-.12c-.043.35-.09.691-.142 1.02l.988.156zm.26-2.112c.031-.344.059-.696.083-1.058l-.998-.066c-.023.353-.05.698-.081 1.033l.996.091zm.141-2.116c.015-.345.027-.697.036-1.057l-1-.025c-.008.354-.02.7-.035 1.038l1 .044zm.053-2.114c.002-.174.002-.35.002-.528h-1l-.001.52 1 .008zm.002-.528v-.7h-1v.7h1zm0-2.1v-.7h-1v.7h1zm-.5-.2h.514v-1h-.513v1zm1.54 0h1.027v-1h-1.027v1zm2.054 0h1.026v-1h-1.026v1zm2.053 0h.513v-1h-.513v1zm.013-.5v.47h1v-.47h-1zm0 1.408v.938h1v-.938h-1zm0 1.877v.938h1V8.42h-1zm0 1.876v.939h1v-.939h-1zm0 1.877v.939h1v-.939h-1zm0 1.877v.939h1v-.939h-1zm0 1.877v.939h1v-.939h-1zm0 1.877v.938h1v-.938h-1zm0 1.877v.469h1v-.47h-1zm-15.25.434v-1h-1v1h1zm2.8-1.085l-.776-.63-.002.002.778.628zm1.4-4.06l-.986-.164.987.164zm.49-13.685v-1h-1v1h1zm16.52 0h1v-1h-1v1zm0 18.83h-1v1h1v-1zm3.325 0h1v-1h-1v1zm0 9.17v1h1v-1h-1zm-4.9 0h-1v1h1v-1zm0-5.285h1v-1h-1v1zm-14.734 0v-1h-1v1h1zm0 5.285v1h1v-1h-1zm-4.9 0h-1v1h1v-1zm15.75-9.135v1h1v-1h-1zm0-15.015h1v-1h-1v1zm-6.16 0v-1h-1v1h1zM76.817 20.15l-.827-.56-1.057 1.56h1.884v-1zm-8.314-.035v.459h2v-.459h-2zm0 1.376v.916h2v-.916h-2zm0 1.834v.916h2v-.916h-2zm0 1.834v.917h2v-.918h-2zm0 1.834v.917h2v-.918h-2zm0 1.834v.458h2v-.459h-2zm1 1.458h.612v-2h-.612v2zm1.837 0h1.225v-2H71.34v2zm2.45 0h.612v-2h-.612v2zm1.612-1v-.44h-2v.44h2zm0-1.321v-.881h-2v.88h2zm0-1.762v-.88h-2v.88h2zm0-1.762V24h-2v.44h2zm-1 .56h.527v-2h-.526v2zm1.58 0h1.052v-2H75.98v2zm2.104 0h1.053v-2h-1.053v2zm2.105 0h1.053v-2H80.19v2zm2.105 0h1.053v-2h-1.053v2zm2.105 0h1.053v-2H84.4v2zm2.105 0h1.053v-2h-1.053v2zm2.105 0h.526v-2h-.526v2zm-.474-1v.44h2V24h-2zm0 1.321v.881h2v-.88h-2zm0 1.762v.88h2v-.88h-2zm0 1.762v.44h2v-.44h-2zm1 1.44h.613v-2h-.612v2zm1.838 0H92.2v-2h-1.225v2zm2.45 0h.612v-2h-.612v2zm1.612-1v-.459h-2v.459h2zm0-1.375v-.918h-2v.918h2zm0-1.834v-.918h-2v.918h2zm0-1.835v-.916h-2v.916h2zm0-1.834v-.916h-2v.916h2zm0-1.834v-.458h-2v.459h2zm-1-1.458h-.415v2h.415v-2zm-1.246 0h-.832v2h.832v-2zm-1.663 0h-.415v2h.415v-2zm.585 1v-.523h-2v.523h2zm0-1.57V17.5h-2v1.046h2zm0-2.091v-1.046h-2v1.046h2zm0-2.093v-1.046h-2v1.046h2zm0-2.092v-1.046h-2v1.046h2zm0-2.092V9.13h-2v1.046h2zm0-2.092V7.039h-2v1.046h2zm0-2.093V4.946h-2v1.046h2zm0-2.092V2.854h-2V3.9h2zm0-2.092v-.523h-2v.523h2zm-1-1.523h-.517v2h.517v-2zm-1.55 0h-1.032v2h1.033v-2zm-2.064 0h-1.033v2H87.1v-2zm-2.065 0H84v2h1.033v-2zm-2.065 0h-1.033v2h1.033v-2zm-2.065 0H79.87v2h1.033v-2zm-2.065 0h-1.033v2h1.033v-2zm-2.065 0H75.74v2h1.033v-2zm-2.065 0h-.517v2h.517v-2zm-1.517 1v.446h2v-.446h-2zm0 1.339v.892h2v-.892h-2zm0 1.785V5.3h2v-.89h-2zm0 1.785v.446h2v-.446h-2zm0 .446v.518l2 .01V6.64h-2zm-.01 1.552c-.006.353-.013.697-.022 1.032l2 .053c.009-.343.016-.695.021-1.056l-2-.03zm-.056 2.061c-.014.355-.03.697-.05 1.027l1.997.114c.02-.342.037-.695.052-1.06l-1.999-.08zm-.119 2.047a34.31 34.31 0 01-.092 1.013l1.989.21c.036-.34.068-.695.097-1.066l-1.994-.157zm-.215 2.013c-.024.17-.05.335-.076.493l1.973.328c.029-.174.057-.353.083-.538l-1.98-.283zm-.076.493c-.03.175-.06.346-.09.51l1.963.375c.035-.18.068-.366.1-.557l-1.973-.328zm-.312 1.507a9.92 9.92 0 01-.287.943l1.88.684c.126-.347.24-.724.344-1.13l-1.937-.497zm-.66 1.767c-.076.13-.149.235-.218.32l1.553 1.26c.143-.176.273-.368.393-.574l-1.729-1.006zm-.22.322a2.098 2.098 0 01-.315.319l1.257 1.556c.225-.182.43-.39.615-.62l-1.557-1.255zm-1.07.67a2.34 2.34 0 01-.461.043v2c.29 0 .576-.026.854-.082l-.394-1.961zm-.461.043h-.123v2h.123v-2zm-.368 0h-.123v2h.123v-2zm15.627.035h-.527v2h.528v-2zm-1.581 0h-1.054v2h1.054v-2zm-2.109 0h-1.054v2h1.054v-2zm-2.108 0h-1.055v2h1.055v-2zm-2.11 0h-.526v2h.527v-2zm.302 1.56c.11-.162.215-.33.316-.506l-1.734-.997a6.192 6.192 0 01-.238.382l1.656 1.122zm.833-1.547c.145-.336.278-.69.4-1.063l-1.899-.627c-.106.323-.22.623-.338.9l1.837.79zm.713-2.133c.089-.344.17-.702.246-1.073l-1.96-.396c-.07.34-.143.663-.223.97l1.937.5zm.438-2.146c.055-.347.105-.705.15-1.073l-1.986-.242c-.042.346-.089.68-.14 1.003l1.976.312zm.264-2.145c.031-.348.06-.705.084-1.07l-1.996-.133c-.023.35-.05.69-.08 1.02l1.992.183zm.143-2.14c.015-.348.027-.704.036-1.067l-2-.05c-.008.351-.02.694-.034 1.029l1.998.088zm.053-2.132c.002-.176.002-.353.002-.532h-2l-.001.517 2 .015zm.002-.532v-.7h-2v.7h2zm0-2.1v-.7h-2v.7h2zm-1 .3h.514v-2h-.513v2zm1.54 0h1.027v-2h-1.027v2zm2.054 0h1.026v-2h-1.026v2zm2.053 0h.513v-2h-.513v2zm-.487-1v.47h2v-.47h-2zm0 1.408v.938h2v-.938h-2zm0 1.877v.938h2V8.42h-2zm0 1.876v.939h2v-.939h-2zm0 1.877v.939h2v-.939h-2zm0 1.877v.939h2v-.939h-2zm0 1.877v.939h2v-.939h-2zm0 1.877v.938h2v-.938h-2zm0 1.877v.469h2v-.47h-2zM99.017 1.285v-.5h-.5v.5h.5zm5.46 0h.5v-.5h-.5v.5zm0 15.54h-.5v1.73l.923-1.463-.423-.267zm9.8-15.54v-.5h-.275l-.148.233.423.267zm5.46 0h.5v-.5h-.5v.5zm0 22.715v.5h.5V24h-.5zm-5.46 0h-.5v.5h.5V24zm0-15.785h.5V6.462l-.924 1.49.424.263zM104.477 24v.5h.278l.147-.236-.425-.264zm-5.46 0h-.5v.5h.5V24zm-.5-22.715v.516h1v-.516h-1zm0 1.549v1.032h1V2.834h-1zm0 2.065V5.93h1V4.9h-1zm0 2.065v1.032h1V6.964h-1zm0 2.065v1.032h1V9.03h-1zm0 2.065v1.032h1v-1.032h-1zm0 2.065v1.032h1V13.16h-1zm0 2.065v1.032h1v-1.032h-1zm0 2.065v1.032h1V17.29h-1zm0 2.065v1.032h1v-1.032h-1zm0 2.065v1.032h1V21.42h-1zm0 2.065V24h1v-.516h-1zm.5 1.016h.455v-1h-.455v1zm1.365 0h.91v-1h-.91v1zm1.82 0h.91v-1h-.91v1zm1.82 0h.455v-1h-.455v1zm.88-.236l.272-.439-.849-.527-.272.438.849.528zm.817-1.316l.544-.877-.849-.527-.545.877.85.527zm1.089-1.754l.544-.877-.849-.527-.545.877.85.527zm1.089-1.753l.544-.877-.85-.528-.544.877.85.527zm1.089-1.754l.544-.877-.85-.528-.544.877.85.528zm1.088-1.754l.545-.877-.85-.528-.544.877.849.528zm1.089-1.754l.545-.877-.85-.527-.544.876.849.528zm1.089-1.754l.545-.877-.85-.527-.544.877.849.527zm1.089-1.754l.545-.877-.85-.527-.545.877.85.527zm1.089-1.754l.272-.438-.849-.528-.273.439.85.527zm-.653-.702v.493h1v-.493h-1zm0 1.48v.986h1v-.986h-1zm0 1.973v.987h1v-.987h-1zm0 1.973v.987h1v-.987h-1zm0 1.973v.987h1v-.987h-1zm0 1.973v.987h1v-.987h-1zm0 1.974v.986h1v-.986h-1zm0 1.973v.986h1v-.986h-1zm0 1.973V24h1v-.493h-1zm.5.993h.455v-1h-.455v1zm1.365 0h.91v-1h-.91v1zm1.82 0h.91v-1h-.91v1zm1.82 0h.455v-1h-.455v1zm.955-.5v-.516h-1V24h1zm0-1.549V21.42h-1v1.032h1zm0-2.065v-1.032h-1v1.032h1zm0-2.065V17.29h-1v1.032h1zm0-2.065v-1.032h-1v1.032h1zm0-2.065V13.16h-1v1.032h1zm0-2.065v-1.032h-1v1.032h1zm0-2.065V9.03h-1v1.032h1zm0-2.065V6.964h-1v1.032h1zm0-2.065V4.9h-1v1.03h1zm0-2.065V2.834h-1v1.032h1zm0-2.065v-.516h-1v.516h1zm-.5-1.016h-.455v1h.455v-1zm-1.365 0h-.91v1h.91v-1zm-1.82 0h-.91v1h.91v-1zm-1.82 0h-.455v1h.455v-1zm-.878.233l-.272.432.846.533.272-.431-.846-.534zm-.816 1.295l-.545.864.846.533.545-.863-.846-.534zm-1.089 1.727l-.545.863.846.534.545-.864-.846-.533zm-1.089 1.727l-.544.863.845.533.545-.863-.846-.533zm-1.089 1.726l-.544.864.846.533.544-.863-.846-.534zm-1.089 1.727l-.544.863.846.534.544-.864-.846-.533zm-1.089 1.727l-.544.863.846.533.544-.863-.846-.533zm-1.089 1.726l-.544.864.846.533.544-.863-.846-.534zm-1.088 1.727l-.545.863.846.534.544-.864-.845-.533zm-1.089 1.727l-.273.431.846.534.273-.432-.846-.533zm.65.698v-.486h-1v.486h1zm0-1.457v-.971h-1v.971h1zm0-1.942v-.972h-1v.972h1zm0-1.943v-.971h-1v.971h1zm0-1.942v-.972h-1v.972h1zm0-1.943v-.971h-1v.971h1zm0-1.942v-.972h-1v.972h1zm0-1.943v-.971h-1v.971h1zm0-1.942v-.486h-1v.486h1zm-.5-.986h-.455v1h.455v-1zm-1.365 0h-.91v1h.91v-1zm-1.82 0h-.91v1h.91v-1zm-1.82 0h-.455v1h.455v-1zm-.455.5v-1h-1v1h1zm5.46 0h1v-1h-1v1zm0 15.54h-1v3.46l1.846-2.927-.846-.533zm9.8-15.54v-1h-.551l-.294.467.845.533zm5.46 0h1v-1h-1v1zm0 22.715v1h1v-1h-1zm-5.46 0h-1v1h1v-1zm0-15.785h1V4.708l-1.849 2.98.849.527zM104.477 24v1h.557l.293-.473-.85-.527zm-5.46 0h-1v1h1v-1zm-1-22.715v.516h2v-.516h-2zm0 1.549v1.032h2V2.834h-2zm0 2.065V5.93h2V4.9h-2zm0 2.065v1.032h2V6.964h-2zm0 2.065v1.032h2V9.03h-2zm0 2.065v1.032h2v-1.032h-2zm0 2.065v1.032h2V13.16h-2zm0 2.065v1.032h2v-1.032h-2zm0 2.065v1.032h2V17.29h-2zm0 2.065v1.032h2v-1.032h-2zm0 2.065v1.032h2V21.42h-2zm0 2.065V24h2v-.516h-2zm1 1.516h.455v-2h-.455v2zm1.365 0h.91v-2h-.91v2zm1.82 0h.91v-2h-.91v2zm1.82 0h.455v-2h-.455v2zm1.305-.473l.272-.438-1.699-1.055-.272.439 1.699 1.055zm.817-1.315l.544-.877-1.699-1.055-.545.877 1.7 1.055zm1.089-1.754l.544-.877-1.699-1.055-.545.877 1.7 1.055zm1.088-1.754l.545-.877-1.699-1.055-.545.877 1.699 1.055zm1.089-1.754l.545-.877-1.699-1.055-.545.877 1.699 1.055zm1.089-1.753l.545-.877-1.7-1.055-.544.877 1.699 1.055zm1.089-1.754l.545-.877-1.7-1.055-.544.877 1.699 1.055zm1.089-1.754l.544-.877-1.699-1.055-.544.877 1.699 1.055zm1.089-1.754l.544-.877-1.699-1.055-.544.877 1.699 1.055zm1.089-1.754l.272-.439-1.699-1.054-.272.438 1.699 1.055zm-1.578-.966v.493h2v-.493h-2zm0 1.48v.986h2v-.986h-2zm0 1.973v.987h2v-.987h-2zm0 1.973v.987h2v-.987h-2zm0 1.973v.987h2v-.987h-2zm0 1.973v.987h2v-.987h-2zm0 1.974v.986h2v-.986h-2zm0 1.973v.986h2v-.986h-2zm0 1.973V24h2v-.493h-2zm1 1.493h.455v-2h-.455v2zm1.365 0h.91v-2h-.91v2zm1.82 0h.91v-2h-.91v2zm1.82 0h.455v-2h-.455v2zm1.455-1v-.516h-2V24h2zm0-1.549V21.42h-2v1.032h2zm0-2.065v-1.032h-2v1.032h2zm0-2.065V17.29h-2v1.032h2zm0-2.065v-1.032h-2v1.032h2zm0-2.065V13.16h-2v1.032h2zm0-2.065v-1.032h-2v1.032h2zm0-2.065V9.03h-2v1.032h2zm0-2.065V6.964h-2v1.032h2zm0-2.065V4.9h-2v1.03h2zm0-2.065V2.834h-2v1.032h2zm0-2.065v-.516h-2v.516h2zm-1-1.516h-.455v2h.455v-2zm-1.365 0h-.91v2h.91v-2zm-1.82 0h-.91v2h.91v-2zm-1.82 0h-.455v2h.455v-2zm-1.3.467l-.273.431 1.692 1.067.272-.432-1.691-1.066zm-.817 1.295l-.545.863 1.692 1.067.545-.864-1.692-1.066zm-1.089 1.726l-.544.864 1.691 1.066.545-.863-1.692-1.067zM110.437 5.5l-.544.863 1.691 1.067.545-.863-1.692-1.067zm-1.089 1.727l-.544.863 1.691 1.067.545-.864-1.692-1.066zm-1.089 1.726l-.544.864 1.692 1.066.544-.863-1.692-1.067zm-1.089 1.727l-.544.863 1.692 1.067.544-.863-1.692-1.067zm-1.088 1.727l-.545.863 1.692 1.067.544-.864-1.691-1.066zm-1.089 1.726l-.545.864 1.692 1.066.544-.863-1.691-1.067zm-1.089 1.727l-.272.432 1.691 1.066.272-.431-1.691-1.067zm1.573.965v-.486h-2v.486h2zm0-1.457v-.971h-2v.971h2zm0-1.942v-.972h-2v.972h2zm0-1.943v-.971h-2v.971h2zm0-1.942v-.972h-2v.972h2zm0-1.943v-.971h-2v.971h2zm0-1.942v-.972h-2v.972h2zm0-1.943v-.971h-2v.971h2zm0-1.942v-.486h-2v.486h2zm-1-1.486h-.455v2h.455v-2zm-1.365 0h-.91v2h.91v-2zm-1.82 0h-.91v2h.91v-2zm-1.82 0h-.455v2h.455v-2zm26.93 1v-.5h-.5v.5h.5zm7.77 0l.473-.163-.116-.337h-.357v.5zm5.6 16.24l-.473.163.476 1.38.47-1.382-.473-.161zm5.53-16.24v-.5h-.358l-.115.339.473.161zm7.315 0h.5v-.5h-.5v.5zm0 22.715v.5h.5V24h-.5zm-4.935 0h-.5v.5h.5V24zm0-16.8h.5v-.5h-.5v.5zm-.105 0v-.5h-.357l-.116.338.473.162zm-5.74 16.8v.5h.358l.115-.338-.473-.162zm-4.375 0l-.471.166.117.334h.354V24zm-5.915-16.8l.472-.166-.118-.334h-.354v.5zm-.14 0v-.5h-.5v.5h.5zm0 16.8v.5h.5V24h-.5zm-5.005 0h-.5v.5h.5V24zm-.5-22.715v.516h1v-.516h-1zm0 1.549v1.032h1V2.834h-1zm0 2.065V5.93h1V4.9h-1zm0 2.065v1.032h1V6.964h-1zm0 2.065v1.032h1V9.03h-1zm0 2.065v1.032h1v-1.032h-1zm0 2.065v1.032h1V13.16h-1zm0 2.065v1.032h1v-1.032h-1zm0 2.065v1.032h1V17.29h-1zm0 2.065v1.032h1v-1.032h-1zm0 2.065v1.032h1V21.42h-1zm0 2.065V24h1v-.516h-1zm.5 1.016h.417v-1h-.417v1zm1.251 0h.835v-1h-.835v1zm1.669 0h.834v-1h-.834v1zm1.668 0h.417v-1h-.417v1zm.917-.5v-.525h-1V24h1zm0-1.575v-1.05h-1v1.05h1zm0-2.1v-1.05h-1v1.05h1zm0-2.1v-1.05h-1v1.05h1zm0-2.1v-1.05h-1v1.05h1zm0-2.1v-1.05h-1v1.05h1zm0-2.1v-1.05h-1v1.05h1zm0-2.1v-1.05h-1v1.05h1zm0-2.1V7.2h-1v.525h1zm-.5-.025h.035v-1h-.035v1zm.105 0h.035v-1h-.035v1zm-.436-.334l.164.467.943-.332-.164-.467-.943.332zm.492 1.4l.329.933.943-.332-.328-.933-.944.332zm.658 1.867l.328.933.944-.332-.329-.933-.943.332zm.657 1.866l.329.934.943-.332-.329-.934-.943.332zm.657 1.867l.329.933.943-.332-.329-.933-.943.332zm.657 1.867l.329.933.943-.332-.328-.933-.944.332zm.658 1.866l.328.934.943-.332-.328-.934-.943.332zm.657 1.867l.328.933.944-.332-.329-.933-.943.332zm.657 1.867l.329.933.943-.332-.329-.933-.943.332zm.657 1.866l.165.467.943-.332-.165-.467-.943.332zm.636.801h.547v-1h-.547v1zm1.641 0h1.094v-1h-1.094v1zm2.187 0h.547v-1h-.547v1zm1.02-.338l.16-.467-.947-.323-.159.466.946.324zm.479-1.4l.319-.934-.947-.323-.319.933.947.324zm.637-1.867l.319-.933-.946-.324-.319.934.946.323zm.638-1.867l.319-.933-.946-.323-.319.933.946.323zm.638-1.866l.319-.934-.946-.323-.319.933.946.324zm.638-1.867l.319-.933-.947-.324-.319.934.947.323zm.638-1.867l.318-.933-.946-.323-.319.933.947.323zm.637-1.866l.319-.934-.946-.323-.319.933.946.324zm.638-1.867l.319-.933-.946-.324-.319.934.946.323zm.638-1.867l.159-.466-.946-.324-.159.467.946.323zm-.314-.128h.026v-1h-.026v1zm.079 0h.026v-1h-.026v1zm-.474-.5v.525h1V7.2h-1zm0 1.575v1.05h1v-1.05h-1zm0 2.1v1.05h1v-1.05h-1zm0 2.1v1.05h1v-1.05h-1zm0 2.1v1.05h1v-1.05h-1zm0 2.1v1.05h1v-1.05h-1zm0 2.1v1.05h1v-1.05h-1zm0 2.1v1.05h1v-1.05h-1zm0 2.1V24h1v-.525h-1zm.5 1.025h.617v-1h-.617v1zm1.851 0h1.234v-1h-1.234v1zm2.467 0h.617v-1H152v1zm1.117-.5v-.516h-1V24h1zm0-1.549V21.42h-1v1.032h1zm0-2.065v-1.032h-1v1.032h1zm0-2.065V17.29h-1v1.032h1zm0-2.065v-1.032h-1v1.032h1zm0-2.065V13.16h-1v1.032h1zm0-2.065v-1.032h-1v1.032h1zm0-2.065V9.03h-1v1.032h1zm0-2.065V6.964h-1v1.032h1zm0-2.065V4.9h-1v1.03h1zm0-2.065V2.834h-1v1.032h1zm0-2.065v-.516h-1v.516h1zm-.5-1.016h-.457v1h.457v-1zm-1.371 0h-.915v1h.915v-1zm-1.829 0h-.915v1h.915v-1zm-1.829 0h-.914v1h.914v-1zm-1.829 0h-.457v1h.457v-1zm-.93.339l-.154.45.947.323.153-.45-.946-.323zm-.461 1.353l-.307.902.946.323.308-.902-.947-.323zm-.614 1.805l-.308.902.947.322.307-.902-.946-.322zm-.615 1.804l-.307.902.947.323.307-.903-.947-.322zm-.614 1.804l-.308.903.947.322.307-.902-.946-.322zm-.615 1.805l-.307.902.947.322.307-.902-.947-.322zm-.614 1.804l-.307.903.946.322.307-.902-.946-.323zm-.615 1.805l-.307.902.947.322.307-.902-.947-.322zm-.614 1.804l-.307.902.946.323.308-.902-.947-.323zm-.615 1.805l-.153.45.946.323.154-.45-.947-.323zm.793.449l-.156-.451-.945.326.155.451.946-.326zm-.467-1.353l-.311-.903-.945.326.311.903.945-.326zm-.622-1.805l-.311-.902-.946.326.312.902.945-.326zm-.622-1.804l-.311-.902-.946.326.311.902.946-.326zm-.623-1.805l-.311-.902-.945.326.311.902.945-.326zm-.622-1.804l-.311-.902-.945.326.311.902.945-.326zm-.622-1.805l-.311-.902-.945.326.311.902.945-.326zm-.622-1.804l-.311-.902-.946.326.311.902.946-.326zm-.622-1.804l-.312-.903-.945.326.311.903.946-.326zm-.623-1.805l-.155-.451-.946.326.156.451.945-.326zm-.628-.788h-.485v1h.485v-1zm-1.457 0h-.971v1h.971v-1zm-1.942 0h-.971v1h.971v-1zm-1.943 0h-.971v1h.971v-1zm-1.942 0h-.486v1h.486v-1zm-.486.5v-1h-1v1h1zm7.77 0l.946-.326-.233-.674h-.713v1zm5.6 16.24l-.945.326.951 2.759.941-2.763-.947-.322zm5.53-16.24v-1h-.716l-.23.678.946.322zm7.315 0h1v-1h-1v1zm0 22.715v1h1v-1h-1zm-4.935 0h-1v1h1v-1zm0-16.8h1v-1h-1v1zm-.105 0v-1h-.715l-.231.677.946.323zm-5.74 16.8v1h.715l.231-.677-.946-.323zm-4.375 0l-.943.332.235.668h.708v-1zm-5.915-16.8l.943-.332-.235-.668h-.708v1zm-.14 0v-1h-1v1h1zm0 16.8v1h1v-1h-1zm-5.005 0h-1v1h1v-1zm-1-22.715v.516h2v-.516h-2zm0 1.549v1.032h2V2.834h-2zm0 2.065V5.93h2V4.9h-2zm0 2.065v1.032h2V6.964h-2zm0 2.065v1.032h2V9.03h-2zm0 2.065v1.032h2v-1.032h-2zm0 2.065v1.032h2V13.16h-2zm0 2.065v1.032h2v-1.032h-2zm0 2.065v1.032h2V17.29h-2zm0 2.065v1.032h2v-1.032h-2zm0 2.065v1.032h2V21.42h-2zm0 2.065V24h2v-.516h-2zm1 1.516h.417v-2h-.417v2zm1.251 0h.835v-2h-.835v2zm1.669 0h.834v-2h-.834v2zm1.668 0h.417v-2h-.417v2zm1.417-1v-.525h-2V24h2zm0-1.575v-1.05h-2v1.05h2zm0-2.1v-1.05h-2v1.05h2zm0-2.1v-1.05h-2v1.05h2zm0-2.1v-1.05h-2v1.05h2zm0-2.1v-1.05h-2v1.05h2zm0-2.1v-1.05h-2v1.05h2zm0-2.1v-1.05h-2v1.05h2zm0-2.1V7.2h-2v.525h2zm-1 .475h.035v-2h-.035v2zm.105 0h.035v-2h-.035v2zm-.908-.668l.164.467 1.887-.664-.165-.467-1.886.664zm.493 1.4l.328.933 1.887-.664-.329-.933-1.886.664zm.657 1.867l.329.933 1.886-.664-.328-.933-1.887.664zm.657 1.866l.329.934 1.886-.664-.328-.934-1.887.664zm.657 1.867l.329.933 1.887-.664-.329-.933-1.887.664zm.658 1.867l.328.933 1.887-.664-.329-.933-1.886.664zm.657 1.866l.329.934 1.886-.664-.329-.934-1.886.664zm.657 1.867l.329.933 1.886-.664-.328-.933-1.887.664zm.657 1.867l.329.933 1.886-.664-.328-.933-1.887.664zm.658 1.866l.164.467 1.886-.664-.164-.467-1.886.664zM137.462 25h.547v-2h-.547v2zm1.641 0h1.094v-2h-1.094v2zm2.187 0h.547v-2h-.547v2zm1.493-.677l.16-.466-1.893-.647-.159.467 1.892.646zm.479-1.4l.319-.933-1.893-.647-.319.934 1.893.646zm.638-1.866l.318-.934-1.892-.646-.319.933 1.893.647zm.637-1.867l.319-.933-1.892-.647-.319.933 1.892.647zm.638-1.867l.319-.933-1.893-.647-.318.934 1.892.646zm.638-1.866l.319-.934-1.893-.646-.319.933 1.893.647zm.638-1.867l.319-.933-1.893-.647-.319.933 1.893.647zm.637-1.867l.319-.933-1.892-.647-.319.934 1.892.646zm.638-1.866l.319-.934-1.892-.646-.319.933 1.892.647zm.638-1.867l.159-.467-1.892-.646-.16.466 1.893.647zm-.787.21h.026v-2h-.026v2zm.079 0h.026v-2h-.026v2zm-.974-1v.525h2V7.2h-2zm0 1.575v1.05h2v-1.05h-2zm0 2.1v1.05h2v-1.05h-2zm0 2.1v1.05h2v-1.05h-2zm0 2.1v1.05h2v-1.05h-2zm0 2.1v1.05h2v-1.05h-2zm0 2.1v1.05h2v-1.05h-2zm0 2.1v1.05h2v-1.05h-2zm0 2.1V24h2v-.525h-2zm1 1.525h.617v-2h-.617v2zm1.851 0h1.234v-2h-1.234v2zM152 25h.617v-2H152v2zm1.617-1v-.516h-2V24h2zm0-1.549V21.42h-2v1.032h2zm0-2.065v-1.032h-2v1.032h2zm0-2.065V17.29h-2v1.032h2zm0-2.065v-1.032h-2v1.032h2zm0-2.065V13.16h-2v1.032h2zm0-2.065v-1.032h-2v1.032h2zm0-2.065V9.03h-2v1.032h2zm0-2.065V6.964h-2v1.032h2zm0-2.065V4.9h-2v1.03h2zm0-2.065V2.834h-2v1.032h2zm0-2.065v-.516h-2v.516h2zm-1-1.516h-.457v2h.457v-2zm-1.371 0h-.915v2h.915v-2zm-1.829 0h-.915v2h.915v-2zm-1.829 0h-.914v2h.914v-2zm-1.829 0h-.457v2h.457v-2zm-1.403.678l-.154.45 1.893.645.154-.45-1.893-.645zm-.461 1.353l-.308.902 1.894.645.307-.902-1.893-.645zm-.615 1.804l-.307.903 1.893.644.307-.902-1.893-.645zm-.614 1.805l-.307.902 1.893.645.307-.902-1.893-.645zm-.615 1.804l-.307.903 1.893.644.308-.902-1.894-.645zm-.614 1.805l-.307.902 1.893.645.307-.902-1.893-.645zm-.615 1.804l-.307.902 1.893.645.308-.902-1.894-.645zm-.614 1.805l-.307.902 1.893.645.307-.903-1.893-.644zm-.614 1.804l-.308.902 1.894.645.307-.902-1.893-.645zm-.615 1.805l-.153.45 1.893.645.153-.45-1.893-.645zm1.739.447l-.156-.451-1.891.652.156.451 1.891-.652zm-.467-1.353l-.311-.902-1.891.651.311.903 1.891-.652zm-.622-1.805l-.311-.902-1.891.652.311.902 1.891-.652zm-.623-1.804l-.311-.902-1.89.651.311.903 1.89-.652zm-.622-1.805l-.311-.902-1.891.652.311.902 1.891-.652zm-.622-1.804l-.311-.902-1.891.652.311.902 1.891-.652zm-.622-1.805l-.311-.902-1.891.652.311.902 1.891-.652zm-.622-1.804l-.312-.902-1.89.652.311.902 1.891-.652zm-.623-1.804l-.311-.903-1.891.652.312.903 1.89-.652zm-.622-1.805l-.155-.451-1.891.652.155.451 1.891-.652zM134.172.285h-.485v2h.485v-2zm-1.457 0h-.971v2h.971v-2zm-1.942 0h-.971v2h.971v-2zm-1.943 0h-.971v2h.971v-2zm-1.942 0h-.486v2h.486v-2zm39.648 23.925l-.059.497h.002l.057-.497zm-2.625-.525l.129-.483h-.003l-.126.483zm-2.66-1.085l-.278.416.01.006.268-.422zm-1.75-1.925l.434-.248-.006-.01-.428.258zm17.01-18.97h.5v-.422l-.416-.07-.084.492zm0 4.095l-.118.486.618.15V5.8h-.5zm-9.17-.91l-.048-.498h-.002l.05.498zm-1.47.35l.161.473.01-.003-.171-.47zm10.78 14.21h.5v-.63l-.613.143.113.487zm0 4.13l.1.49.4-.082v-.408h-.5zm-7.35.27a30.9 30.9 0 01-.682-.007l-.022 1c.229.005.464.007.704.007v-1zm-2.037-.073c-.232-.018-.456-.04-.672-.064l-.113.994c.228.026.464.048.707.067l.078-.997zm-.67-.064a13.82 13.82 0 01-.64-.09l-.162.986c.234.039.462.071.685.098l.117-.994zm-1.918-.35c-.207-.05-.419-.103-.636-.16l-.259.965c.225.06.446.116.663.168l.232-.973zm-.639-.162a13.4 13.4 0 01-.667-.192l-.304.952c.23.074.47.143.718.208l.253-.968zm-1.936-.697a6.437 6.437 0 01-.583-.326l-.535.844c.211.134.436.26.675.378l.443-.896zm-.573-.32a4.66 4.66 0 01-.47-.36l-.657.754c.182.16.373.305.572.438l.555-.832zm-1.267-1.246a6.106 6.106 0 01-.326-.511l-.868.496c.118.208.245.407.379.595l.815-.58zm-.332-.52a4.089 4.089 0 01-.162-.298l-.896.444c.062.126.129.249.201.368l.857-.514zm-.417-.93a5.107 5.107 0 01-.161-.67l-.986.17c.047.276.112.544.194.803l.953-.303zm-.237-1.365a6.812 6.812 0 01-.009-.353h-1c0 .137.003.272.01.405l.999-.052zm-.009-.353v-.499h-1v.499h1zm0-1.496v-.998h-1v.998h1zm0-1.995v-.998h-1v.998h1zm0-1.995v-.998h-1v.998h1zm0-1.995V9.29h-1v.998h1zm0-1.995v-.499h-1v.499h1zm0-.499c0-.163.004-.323.014-.48l-.998-.06a8.697 8.697 0 00-.016.54h1zm.135-1.417a5.49 5.49 0 01.261-.894l-.932-.363a6.467 6.467 0 00-.309 1.057l.98.2zm.673-1.718c.162-.258.349-.501.562-.729l-.731-.682a5.738 5.738 0 00-.678.88l.847.531zm1.253-1.35a6.54 6.54 0 01.793-.508l-.479-.878a7.425 7.425 0 00-.916.588l.602.799zm1.661-.915c.287-.115.593-.22.917-.316l-.282-.96c-.352.104-.688.22-1.007.348l.372.928zm1.866-.555c.31-.066.633-.124.97-.174l-.147-.989c-.356.053-.7.115-1.032.185l.209.978zm1.954-.293c.32-.031.651-.056.992-.074l-.053-.998c-.355.018-.7.044-1.035.076l.096.996zm1.991-.108c.165-.003.332-.004.502-.004v-1c-.175 0-.348.001-.519.004l.017 1zm.502-.004c.143 0 .29.002.442.005l.022-1a20.973 20.973 0 00-.464-.005v1zm1.331.041c.285.017.582.038.891.064l.085-.996c-.318-.027-.624-.05-.919-.066l-.057.998zm1.784.15c.288.032.585.066.892.105l.124-.993a56.101 56.101 0 00-.91-.106l-.106.995zm1.784.223c.289.041.587.085.891.132l.152-.988c-.308-.048-.61-.092-.904-.134l-.139.99zm1.781.274l.446.075.168-.986a89.834 89.834 0 00-.451-.076l-.163.987zm.03-.418v.512h1v-.512h-1zm0 1.536v1.023h1V3.241h-1zm0 2.047V5.8h1v-.512h-1zm.617.026a48.602 48.602 0 00-.444-.105l-.226.974.435.103.235-.972zm-1.336-.302a39.87 39.87 0 00-.897-.177l-.183.983c.287.053.579.11.875.173l.205-.979zm-1.799-.334c-.307-.049-.61-.093-.907-.132l-.13.991c.288.038.581.08.879.129l.158-.988zm-1.82-.238a28.03 28.03 0 00-.917-.075l-.064.998c.288.018.582.042.882.072l.099-.995zm-1.84-.115a20.6 20.6 0 00-.462-.005v1c.145 0 .291.002.44.005l.022-1zm-.462-.005c-.179 0-.351.001-.515.003l.013 1c.159-.002.326-.003.502-.003v-1zm-1.55.034a12.8 12.8 0 00-.528.038l.095.996c.143-.014.305-.026.486-.035l-.053-.999zm-.53.038a5.64 5.64 0 00-.411.057l.172.985c.115-.02.228-.035.338-.046l-.099-.996zm-1.207.25a7.875 7.875 0 00-.384.128l.342.94a6.65 6.65 0 01.334-.112l-.292-.956zm-.374.125a3.41 3.41 0 00-.434.18l.447.894c.094-.047.197-.09.309-.128l-.322-.946zm-1.22.757c-.226.241-.402.52-.527.834l.929.37c.081-.202.19-.374.326-.519l-.728-.685zm-.742 1.75a4.434 4.434 0 00-.022.451h1c0-.124.005-.241.017-.352l-.995-.1zm-.022.451v.483h1v-.483h-1zm0 1.449v.966h1v-.966h-1zm0 1.932v.966h1v-.966h-1zm0 1.932v.966h1v-.966h-1zm0 1.932v.966h1v-.966h-1zm0 1.932v.483h1v-.483h-1zm0 .483c0 .178.012.353.037.523l.989-.149a2.613 2.613 0 01-.026-.374h-1zm.387 1.543c.177.31.412.582.699.816l.634-.773a1.963 1.963 0 01-.466-.54l-.867.497zm1.572 1.351c.282.13.59.238.924.329l.262-.965a4.975 4.975 0 01-.769-.273l-.417.91zm1.857.526c.294.046.605.082.931.108l.08-.997a11.23 11.23 0 01-.855-.1l-.156.989zm1.856.155c.151.003.306.005.463.005v-1c-.15 0-.296-.002-.439-.005l-.024 1zm.463.005c.19 0 .388-.005.594-.014l-.044-.999c-.192.009-.376.013-.55.013v1zm1.768-.104a27.83 27.83 0 001.157-.147l-.146-.99a25.58 25.58 0 01-1.116.143l.105.994zm2.304-.336c.365-.065.744-.138 1.137-.218l-.2-.98c-.385.079-.757.15-1.114.214l.177.984zm2.268-.46c.185-.041.372-.084.563-.128l-.226-.974c-.188.043-.373.086-.555.126l.218.976zm-.05-.615v.516h1v-.516h-1zm0 1.549v1.032h1V21h-1zm0 2.065v.516h1v-.516h-1zm.399.026l-.448.09.19.982c.153-.03.306-.06.459-.092l-.201-.98zm-1.347.253c-.301.05-.602.098-.902.141l.143.99c.308-.044.616-.093.926-.145l-.167-.986zm-1.807.26c-.304.037-.606.069-.908.097l.093.996c.31-.03.621-.062.933-.1l-.118-.992zm-1.817.17c-.305.02-.608.037-.911.05l.041.998c.311-.012.624-.03.937-.05l-.067-.998zm-1.822.074l-.456.003v1l.469-.003-.013-1zm-3.221.363l-.117.993h.003l.114-.993zm-2.625-.525l.259-.966-.007-.002-.252.968zm-2.66-1.085l-.555.832.01.007.01.006.535-.845zm-1.75-1.925l.868-.496-.005-.01-.006-.009-.857.515zm17.01-18.97h1V.861l-.832-.142-.168.986zm0 4.095l-.235.972 1.235.298V5.8h-1zm-9.17-.91l-.095-.996-.005.001.1.995zm-1.47.35l.322.947.01-.004.009-.003-.341-.94zm10.78 14.21h1v-1.259l-1.226.285.226.974zm0 4.13l.201.98.799-.165v-.815h-1zm-7.35-.23c-.23 0-.453-.002-.671-.007l-.044 2c.233.005.471.007.715.007v-2zm-1.999-.071a18.183 18.183 0 01-.653-.063l-.227 1.987c.235.027.477.05.725.07l.155-1.994zm-.649-.062a13.781 13.781 0 01-.618-.088l-.325 1.974c.242.04.478.073.709.1l.234-1.986zm-1.861-.34c-.203-.048-.41-.1-.622-.158l-.518 1.932c.229.061.455.119.676.171l.464-1.945zm-.629-.16a11.78 11.78 0 01-.64-.185l-.61 1.905c.24.077.489.149.745.216l.505-1.936zm-1.84-.662a5.853 5.853 0 01-.537-.3l-1.07 1.69c.227.144.467.278.72.403l.887-1.793zm-.518-.287a4.048 4.048 0 01-.418-.32l-1.314 1.508c.198.172.405.331.623.476l1.109-1.664zm-1.137-1.12a5.565 5.565 0 01-.299-.47l-1.737.993c.127.222.263.434.407.637l1.629-1.16zm-.31-.488a3.592 3.592 0 01-.143-.262l-1.792.889c.068.137.141.271.22.402l1.715-1.029zm-.369-.823a4.671 4.671 0 01-.146-.603l-1.971.338c.051.298.121.588.211.87l1.906-.605zm-.215-1.24a5.845 5.845 0 01-.008-.327h-2c0 .145.003.289.011.43l1.997-.102zm-.008-.327v-.499h-2v.499h2zm0-1.496v-.998h-2v.998h2zm0-1.995v-.998h-2v.998h2zm0-1.995v-.998h-2v.998h2zm0-1.995V9.29h-2v.998h2zm0-1.995v-.499h-2v.499h2zm0-.499c0-.154.004-.303.013-.45l-1.996-.12a8.915 8.915 0 00-.017.57h2zm.125-1.317c.059-.289.138-.56.237-.813l-1.864-.725a7.005 7.005 0 00-.333 1.137l1.96.401zm.607-1.552c.145-.231.312-.45.503-.654l-1.462-1.364a6.315 6.315 0 00-.736.956l1.695 1.062zm1.13-1.216c.221-.167.465-.323.732-.47l-.959-1.755c-.347.19-.674.4-.977.628l1.204 1.597zm1.546-.85c.272-.11.562-.21.872-.301L163.481.64c-.366.108-.716.229-1.051.363l.744 1.856zm1.784-.53c.299-.064.612-.12.94-.17l-.294-1.978c-.366.055-.72.118-1.063.191l.417 1.956zm1.898-.286c.313-.03.636-.054.97-.071l-.106-1.998c-.361.02-.713.046-1.056.079l.192 1.99zm1.951-.105c.162-.003.327-.004.494-.004v-2c-.178 0-.353.001-.527.004l.033 2zm.494-.004c.139 0 .283.002.431.005l.044-2a21.486 21.486 0 00-.475-.005v2zm1.302.04c.28.017.573.038.878.064l.17-1.993c-.322-.028-.633-.05-.933-.067l-.115 1.996zm1.759.149c.285.03.58.065.884.103l.249-1.985c-.315-.04-.622-.075-.92-.107l-.213 1.989zm1.768.22c.288.041.583.085.885.131l.304-1.977a71.73 71.73 0 00-.91-.134l-.279 1.98zm1.77.272l.443.075.336-1.972-.453-.076-.326 1.973zm-.389-.911v.512h2v-.512h-2zm0 1.536v1.023h2V3.241h-2zm0 2.047V5.8h2v-.512h-2zm1.234-.46c-.15-.036-.3-.072-.449-.106l-.45 1.948.43.102.469-1.944zm-1.35-.305c-.307-.064-.61-.124-.908-.18l-.366 1.966c.283.053.571.11.863.171l.411-1.957zm-1.823-.338a32.88 32.88 0 00-.921-.135l-.261 1.983c.284.037.572.08.866.126l.316-1.974zm-1.849-.242a26.117 26.117 0 00-.936-.077l-.126 1.996c.281.018.57.042.864.07l.198-1.99zm-1.879-.118a20.977 20.977 0 00-.473-.005v2c.141 0 .284.002.428.005l.045-2zm-.473-.005c-.181 0-.355.001-.521.003l.025 2c.157-.002.322-.003.496-.003v-2zm-1.577.035c-.197.01-.381.024-.548.04l.189 1.99c.135-.012.29-.024.465-.033l-.106-1.997zm-.553.04a6.232 6.232 0 00-.448.062l.345 1.97c.103-.018.204-.032.302-.042l-.199-1.99zm-1.304.268a8.647 8.647 0 00-.408.137l.683 1.88c.106-.039.209-.073.31-.104l-.585-1.913zm-.389.13a3.978 3.978 0 00-.496.207l.895 1.789a1.79 1.79 0 01.246-.102l-.645-1.894zm-1.422.889c-.272.288-.48.622-.627.99l1.858.741a1.1 1.1 0 01.226-.361l-1.457-1.37zm-.876 2.041a5.174 5.174 0 00-.024.502h2c0-.108.005-.209.014-.302l-1.99-.2zm-.024.502v.483h2v-.483h-2zm0 1.449v.966h2v-.966h-2zm0 1.932v.966h2v-.966h-2zm0 1.932v.966h2v-.966h-2zm0 1.932v.966h2v-.966h-2zm0 1.932v.483h2v-.483h-2zm0 .483c0 .202.014.4.043.597l1.978-.297a1.986 1.986 0 01-.021-.3h-2zm.453 1.792c.21.366.486.684.816.954l1.267-1.547a1.462 1.462 0 01-.348-.402l-1.735.995zm1.798 1.557c.31.142.645.26 1.001.356l.524-1.93a4.526 4.526 0 01-.692-.244l-.833 1.818zm1.987.564c.308.049.631.087.969.114l.16-1.994a10.802 10.802 0 01-.818-.095l-.311 1.975zm1.923.162c.155.003.313.005.474.005v-2c-.146 0-.289-.002-.428-.005l-.046 2zm.474.005c.198 0 .403-.005.616-.014l-.087-1.998c-.186.008-.363.012-.529.012v2zm1.82-.106c.374-.04.767-.09 1.179-.15l-.293-1.98a23.55 23.55 0 01-1.095.14l.209 1.99zm2.34-.342c.37-.066.752-.14 1.149-.22l-.399-1.96c-.383.078-.75.149-1.103.212l.353 1.968zm2.289-.464c.186-.041.375-.084.567-.129l-.452-1.948-.551.125.436 1.952zm-.659-1.103v.516h2v-.516h-2zm0 1.549v1.032h2V21h-2zm0 2.065v.516h2v-.516h-2zm.798-.463c-.147.03-.295.06-.442.088l.38 1.963c.155-.03.31-.06.465-.093l-.403-1.959zm-1.329.249c-.298.05-.595.097-.891.14l.286 1.979c.312-.045.625-.094.938-.147l-.333-1.972zm-1.783.257c-.3.036-.598.067-.895.095l.186 1.991c.314-.029.629-.063.945-.1l-.236-1.986zm-1.792.167c-.3.02-.599.036-.897.049l.081 1.998c.316-.013.633-.03.95-.051l-.134-1.996zm-1.795.073l-.449.003v2l.476-.003-.027-2zm16.339-8.167l.415.28.454-.674-.806-.102-.063.496zm-3.29-1.4l.36-.348-.36.348zm.945-11.375l.236.441.006-.003-.242-.438zm16.625-1.12h.5v-.5h-.5v.5zm0 22.715v.5h.5V24h-.5zm-5.46 0h-.5v.5h.5V24zm0-8.4h.5v-.5h-.5v.5zm-3.22 0v-.5h-.275l-.147.232.422.268zm-5.32 8.4v.5h.276l.147-.233-.423-.267zm-6.23 0l-.414-.28-.526.78h.94V24zm14.77-12.005v.5h.5v-.5h-.5zm0-6.825h.5v-.5h-.5v.5zm-7.105.49l.264.425.005-.003-.269-.422zm-.035 5.845l-.3.4.007.005.007.005.286-.41zm-2.094 3.395l-.298.441.829.56.298-.441-.829-.56zm-.893 1.323l-.595.882.829.56.595-.882-.829-.56zm-1.19 1.764l-.595.882.829.56.595-.882-.829-.56zm-1.19 1.764l-.595.882.829.56.595-.882-.829-.56zm-1.19 1.764l-.595.882.829.56.595-.882-.829-.56zm-1.19 1.764l-.297.441.829.56.297-.441-.829-.56zm.117 1.221h.52v-1h-.52v1zm1.558 0h1.038v-1h-1.038v1zm2.077 0h1.038v-1h-1.038v1zm2.076 0h.519v-1h-.519v1zm.942-.233l.266-.42-.845-.535-.266.42.845.535zm.798-1.26l.532-.84-.845-.535-.532.84.845.535zm1.064-1.68l.532-.84-.845-.534-.532.84.845.535zm1.064-1.68l.532-.84-.845-.534-.532.84.845.535zm1.064-1.68l.532-.84-.845-.534-.532.84.845.535zm1.064-1.68l.266-.42-.845-.535-.266.42.845.536zm-.157-.187h.403v-1h-.403v1zm1.208 0h.805v-1h-.805v1zm1.61 0h.402v-1h-.402v1zm-.098-.5v.525h1V15.6h-1zm0 1.575v1.05h1v-1.05h-1zm0 2.1v1.05h1v-1.05h-1zm0 2.1v1.05h1v-1.05h-1zm0 2.1V24h1v-.525h-1zm.5 1.025h.455v-1h-.455v1zm1.365 0h.91v-1h-.91v1zm1.82 0h.91v-1h-.91v1zm1.82 0h.455v-1h-.455v1zm.955-.5v-.516h-1V24h1zm0-1.549V21.42h-1v1.032h1zm0-2.065v-1.032h-1v1.032h1zm0-2.065V17.29h-1v1.032h1zm0-2.065v-1.032h-1v1.032h1zm0-2.065V13.16h-1v1.032h1zm0-2.065v-1.032h-1v1.032h1zm0-2.065V9.03h-1v1.032h1zm0-2.065V6.964h-1v1.032h1zm0-2.065V4.9h-1v1.03h1zm0-2.065V2.834h-1v1.032h1zm0-2.065v-.516h-1v.516h1zm-.5-1.016h-.502v1h.502v-1zm-1.506 0h-1.005v1h1.005v-1zm-2.009 0h-1.005v1h1.005v-1zm-2.009 0h-1.005v1h1.005v-1zm-2.009 0h-1.005v1h1.005v-1zm-2.009 0h-.503v1h.503v-1zm-.503 0c-.193 0-.382.001-.569.004l.016 1c.181-.003.366-.004.553-.004v-1zm-1.71.044c-.398.021-.779.05-1.144.088l.103.995c.346-.036.711-.064 1.095-.085l-.054-.998zm-2.289.242c-.406.07-.787.151-1.143.246l.259.966c.322-.086.672-.161 1.052-.226l-.168-.986zm-2.272.63a6.02 6.02 0 00-.55.266l.483.876c.141-.078.294-.152.459-.223l-.392-.92zm-.544.263a4.96 4.96 0 00-.527.326l.582.813a3.91 3.91 0 01.416-.257l-.471-.882zm-1.429 1.202a4.08 4.08 0 00-.586 1.113l.944.328c.109-.314.257-.593.443-.841l-.801-.6zm-.839 2.314a6.524 6.524 0 00-.027.6h1c0-.176.008-.346.023-.508l-.996-.092zm-.027.6v.564h1V6.08h-1zm0 1.693v1.129h1V7.773h-1zm0 2.258v.564h1v-.564h-1zm0 .564c0 .157.005.31.014.461l.998-.06a6.54 6.54 0 01-.012-.401h-1zm.135 1.389c.068.323.162.63.284.916l.92-.391a3.96 3.96 0 01-.226-.73l-.978.205zm.77 1.767c.099.133.206.258.321.377l.719-.696a2.843 2.843 0 01-.239-.28l-.801.6zm.321.377c.12.123.248.24.384.348l.625-.78a3.06 3.06 0 01-.29-.264l-.719.696zm1.244.891c.286.142.594.262.923.362l.291-.957a5.066 5.066 0 01-.771-.301l-.443.896zm1.868.585c.154.028.313.052.474.072l.126-.992a9.057 9.057 0 01-.426-.064l-.174.984zm9.357-4.109h-.564v1h.564v-1zm-1.693 0h-1.128v1h1.128v-1zm-2.257 0h-.565v1h.565v-1zm-.565 0c-.231 0-.447-.005-.649-.016l-.053.998c.221.012.455.018.702.018v-1zm-1.871-.195a1.6 1.6 0 01-.467-.205l-.573.82c.215.15.474.262.761.346l.279-.96zm-.454-.195a.899.899 0 01-.232-.264l-.858.514c.13.216.293.402.49.55l.6-.8zm-.475-1.102a4.641 4.641 0 01-.025-.493h-1c0 .21.01.41.031.6l.994-.107zm-.025-.493v-.534h-1v.534h1zm0-1.601v-.534h-1v.534h1zm0-.534c0-.154.01-.293.027-.418l-.99-.138a3.97 3.97 0 00-.037.556h1zm.272-1.085a.83.83 0 01.227-.205l-.527-.85a1.84 1.84 0 00-.493.447l.793.608zm.232-.208a1.93 1.93 0 01.483-.209l-.286-.958a2.92 2.92 0 00-.734.323l.537.844zm1.684-.394c.198-.012.411-.018.637-.018v-1c-.244 0-.476.006-.695.02l.058.998zm.637-.018h.565v-1h-.565v1zm1.694 0h1.128v-1h-1.128v1zm2.257 0h.564v-1h-.564v1zm.064-.5v.569h1V5.17h-1zm0 1.706v1.138h1V6.876h-1zm0 2.275v1.138h1V9.15h-1zm0 2.275v.569h1v-.569h-1zm-8.32 3.754l.829.56.909-1.347-1.612-.205-.126.992zm-3.29-1.4l.719-.696-.719.696zm.945-11.375l.472.882.012-.006-.484-.876zm16.625-1.12h1v-1h-1v1zm0 22.715v1h1v-1h-1zm-5.46 0h-1v1h1v-1zm0-8.4h1v-1h-1v1zm-3.22 0v-1h-.55l-.294.465.844.535zm-5.32 8.4v1h.551l.294-.465-.845-.535zm-6.23 0l-.829-.56-1.051 1.56h1.88v-1zm14.77-12.005v1h1v-1h-1zm0-6.825h1v-1h-1v1zm-7.105.49l.527.85.01-.006-.537-.844zm-.035 5.845l-.6.8.014.01.013.01.573-.82zm-2.509 3.116l-.297.44 1.658 1.12.297-.442-1.658-1.118zm-.892 1.323l-.595.882 1.658 1.118.595-.882-1.658-1.118zm-1.19 1.764l-.595.882 1.658 1.118.595-.882-1.658-1.118zm-1.19 1.764l-.595.882 1.658 1.118.595-.882-1.658-1.118zm-1.19 1.764l-.595.882 1.658 1.118.595-.882-1.658-1.118zM179.608 23l-.298.44 1.658 1.12.298-.442L179.608 23zm.531 2h.52v-2h-.52v2zm1.558 0h1.038v-2h-1.038v2zm2.077 0h1.038v-2h-1.038v2zm2.076 0h.519v-2h-.519v2zm1.364-.465l.266-.42-1.689-1.07-.266.42 1.689 1.07zm.798-1.26l.532-.84-1.689-1.07-.532.84 1.689 1.07zm1.064-1.68l.532-.84-1.689-1.07-.532.84 1.689 1.07zm1.064-1.68l.532-.84-1.689-1.07-.532.84 1.689 1.07zm1.064-1.68l.532-.84-1.689-1.07-.532.84 1.689 1.07zm1.064-1.68l.266-.42-1.689-1.07-.266.42 1.689 1.07zm-.579.045h.403v-2h-.403v2zm1.208 0h.805v-2h-.805v2zm1.61 0h.402v-2h-.402v2zm-.598-1v.525h2V15.6h-2zm0 1.575v1.05h2v-1.05h-2zm0 2.1v1.05h2v-1.05h-2zm0 2.1v1.05h2v-1.05h-2zm0 2.1V24h2v-.525h-2zm1 1.525h.455v-2h-.455v2zm1.365 0h.91v-2h-.91v2zm1.82 0h.91v-2h-.91v2zm1.82 0h.455v-2h-.455v2zm1.455-1v-.516h-2V24h2zm0-1.549V21.42h-2v1.032h2zm0-2.065v-1.032h-2v1.032h2zm0-2.065V17.29h-2v1.032h2zm0-2.065v-1.032h-2v1.032h2zm0-2.065V13.16h-2v1.032h2zm0-2.065v-1.032h-2v1.032h2zm0-2.065V9.03h-2v1.032h2zm0-2.065V6.964h-2v1.032h2zm0-2.065V4.9h-2v1.03h2zm0-2.065V2.834h-2v1.032h2zm0-2.065v-.516h-2v.516h2zm-1-1.516h-.502v2h.502v-2zm-1.506 0h-1.005v2h1.005v-2zm-2.009 0h-1.005v2h1.005v-2zm-2.009 0h-1.005v2h1.005v-2zm-2.009 0h-1.005v2h1.005v-2zm-2.009 0h-.503v2h.503v-2zm-.503 0c-.195 0-.388.002-.577.005l.032 2c.178-.004.36-.005.545-.005v-2zm-1.737.044c-.406.022-.795.052-1.168.09l.205 1.99a22.06 22.06 0 011.071-.083L188.587.33zm-2.345.25a12.9 12.9 0 00-1.189.255l.517 1.932c.305-.081.64-.154 1.007-.216l-.335-1.972zm-2.385.661a6.553 6.553 0 00-.596.29l.967 1.75c.124-.068.262-.135.413-.2l-.784-1.84zm-.584.283a5.168 5.168 0 00-.581.36l1.163 1.627a3.23 3.23 0 01.361-.223l-.943-1.764zm-1.593 1.344a4.563 4.563 0 00-.659 1.249l1.89.655c.093-.268.217-.501.37-.706l-1.601-1.198zm-.937 2.567a7.207 7.207 0 00-.029.646h2c0-.162.007-.316.021-.462l-1.992-.184zm-.029.646v.564h2V6.08h-2zm0 1.693v1.129h2V7.773h-2zm0 2.258v.564h2v-.564h-2zm0 .564c0 .166.005.33.015.49l1.996-.118a6.367 6.367 0 01-.011-.372h-2zm.145 1.492c.074.352.178.69.314 1.009l1.84-.783a3.41 3.41 0 01-.196-.637l-1.958.41zm.86 1.963c.112.15.232.292.362.426l1.437-1.392a2.332 2.332 0 01-.197-.23l-1.602 1.196zm.362.426c.135.138.278.269.43.39l1.25-1.56a2.546 2.546 0 01-.243-.222l-1.437 1.392zm1.381.992c.313.154.647.284 1 .391l.582-1.913a4.604 4.604 0 01-.696-.271l-.886 1.793zm2.003.629c.163.028.329.053.498.075l.252-1.984a8.426 8.426 0 01-.402-.06l-.348 1.969zm9.444-5.102h-.564v2h.564v-2zm-1.693 0h-1.128v2h1.128v-2zm-2.257 0h-.565v2h.565v-2zm-.565 0c-.223 0-.431-.005-.622-.016l-.107 1.998c.231.012.474.018.729.018v-2zm-1.731-.175a1.112 1.112 0 01-.32-.134l-1.147 1.638c.273.191.587.323.908.417l.559-1.92zm-.294-.115a.411.411 0 01-.103-.121l-1.715 1.028a2.4 2.4 0 00.618.693l1.2-1.6zm-.278-.756a4.095 4.095 0 01-.022-.439h-2c0 .226.011.444.034.655l1.988-.216zm-.022-.439v-.534h-2v.534h2zm0-1.601v-.534h-2v.534h2zm0-.534c0-.134.009-.25.022-.35l-1.981-.275a4.56 4.56 0 00-.041.625h2zm.169-.781a.337.337 0 01.093-.084l-1.053-1.7c-.243.15-.453.34-.627.567l1.587 1.217zm.103-.09c.071-.045.185-.1.358-.152l-.572-1.916a3.407 3.407 0 00-.859.38l1.073 1.688zm1.446-.317c.187-.011.389-.017.607-.017v-2c-.252 0-.494.007-.725.02l.118 1.997zm.607-.017h.565v-2h-.565v2zm1.694 0h1.128v-2h-1.128v2zm2.257 0h.564v-2h-.564v2zm-.436-1v.569h2V5.17h-2zm0 1.706v1.138h2V6.876h-2zm0 2.275v1.138h2V9.15h-2zm0 2.275v.569h2v-.569h-2z" fill="#77C2F9" fill-opacity=".9"/></svg>