<svg width="304" height="44" fill="none" xmlns="http://www.w3.org/2000/svg"><path d="M.71.603v-.5h-.5v.5h.5zm22.949 0h.5v-.5h-.5v.5zm0 5.883v.5h.5v-.5h-.5zm-14.681 0v-.5h-.5v.5h.5zm0 28.514v.5h.5V35h-.5zM.71 35h-.5v.5h.5V35zM.21.603v.955h1V.603h-1zm0 2.866V5.38h1V3.47h-1zm0 3.822v1.911h1v-1.91h-1zm0 3.822v1.911h1v-1.91h-1zm0 3.822v1.911h1v-1.91h-1zm0 3.822v1.91h1v-1.91h-1zm0 3.822v1.91h1v-1.91h-1zm0 3.822v1.91h1v-1.91h-1zm0 3.822v1.91h1v-1.91h-1zm0 3.822V35h1v-.956h-1zm.5 1.455h1.034v-1H.71v1zm3.1 0h2.068v-1H3.81v1zm4.134 0h1.034v-1H7.944v1zm1.534-.5v-1.018h-1V35h1zm0-3.055v-2.037h-1v2.037h1zm0-4.073v-2.037h-1v2.037h1zm0-4.074v-2.037h-1v2.037h1zm0-4.073v-2.037h-1v2.037h1zm0-4.074v-2.037h-1v2.037h1zm0-4.073V9.54h-1v2.037h1zm0-4.074V6.486h-1v1.018h1zm-.5-.518h.918v-1h-.918v1zm2.753 0h1.835v-1H11.73v1zm3.67 0h1.835v-1h-1.835v1zm3.67 0h1.835v-1h-1.835v1zm3.67 0h.918v-1h-.918v1zm1.418-.5v-1.47h-1v1.47h1zm0-4.412V.603h-1v1.47h1zm-.5-1.971h-.956v1h.956v-1zm-2.869 0h-1.912v1h1.912v-1zm-3.825 0h-1.912v1h1.912v-1zm-3.824 0h-1.913v1h1.913v-1zm-3.825 0H7.403v1h1.913v-1zm-3.825 0H3.579v1H5.49v-1zm-3.825 0H.71v1h.956v-1zm-.956.5v-1h-1v1h1zm22.949 0h1v-1h-1v1zm0 5.883v1h1v-1h-1zm-14.681 0v-1h-1v1h1zm0 28.514v1h1v-1h-1zM.71 35h-1v1h1v-1zM-.29.603v.955h2V.603h-2zm0 2.866V5.38h2V3.47h-2zm0 3.822v1.911h2v-1.91h-2zm0 3.822v1.911h2v-1.91h-2zm0 3.822v1.911h2v-1.91h-2zm0 3.822v1.91h2v-1.91h-2zm0 3.822v1.91h2v-1.91h-2zm0 3.822v1.91h2v-1.91h-2zm0 3.822v1.91h2v-1.91h-2zm0 3.822V35h2v-.956h-2zM.71 36h1.034v-2H.71v2zm3.1 0h2.068v-2H3.81v2zm4.134 0h1.034v-2H7.944v2zm2.034-1v-1.018h-2V35h2zm0-3.055v-2.037h-2v2.037h2zm0-4.073v-2.037h-2v2.037h2zm0-4.074v-2.037h-2v2.037h2zm0-4.073v-2.037h-2v2.037h2zm0-4.074v-2.037h-2v2.037h2zm0-4.073V9.54h-2v2.037h2zm0-4.074V6.486h-2v1.018h2zm-1-.018h.918v-2h-.918v2zm2.753 0h1.835v-2H11.73v2zm3.67 0h1.835v-2h-1.835v2zm3.67 0h1.835v-2h-1.835v2zm3.67 0h.918v-2h-.918v2zm1.918-1v-1.47h-2v1.47h2zm0-4.412V.603h-2v1.47h2zm-1-2.471h-.956v2h.956v-2zm-2.869 0h-1.912v2h1.912v-2zm-3.825 0h-1.912v2h1.912v-2zm-3.824 0h-1.913v2h1.913v-2zm-3.825 0H7.403v2h1.913v-2zm-3.825 0H3.579v2H5.49v-2zm-3.825 0H.71v2h.956v-2zm39.665 35.556l-.077.494h.002l.075-.494zm-4.982-1.272l.164-.472-.003-.001-.16.473zm-4.399-3.074l-.403.295.003.005.4-.3zm-.477-24.857l-.433-.25-.004.008.437.242zm2.968-3.18l-.267-.422-.004.002.271.42zm3.922-1.696l.142.48-.142-.48zM42.71.232l.04.498h.003L42.71.232zm8.162.053l-.058.497h.007l.007.001.044-.498zm4.028.742l.14-.48-.013-.004-.127.484zm4.187 1.802l.271-.42-.27.42zm2.756 2.968l-.432.252.002.004.43-.256zm-.37 24.698l-.402-.298-.005.006.406.292zm-4.135 3.127l-.186-.464.186.464zm-7.685-4.081l.045.498h.01l.01-.002-.065-.496zm2.491-.53l-.14-.48.14.48zm1.908-1.219l-.397-.304-.003.004.4.3zM52.78 7.016l-.238.44.01.005.228-.445zm-12.19-.053l-.228-.445.228.445zm-1.272 20.829l-.397.304.005.006.004.005.388-.315zm2.014 1.219l.14-.48-.005-.002-.135.482zm2.438.53l-.067.495.012.002.012.001.043-.498zm2.862 5.489c-.446 0-.884-.007-1.313-.02l-.032.999c.44.014.89.021 1.345.021v-1zm-3.928-.198a29.42 29.42 0 01-1.297-.167l-.15.988c.437.067.884.125 1.34.173l.107-.994zm-1.295-.167a24.405 24.405 0 01-1.24-.227l-.205.98c.435.09.865.169 1.291.235l.154-.988zm-3.69-.858a32.9 32.9 0 01-1.205-.392l-.328.944c.418.145.832.28 1.242.405l.292-.957zm-1.208-.393a10.273 10.273 0 01-1.202-.493l-.438.9c.417.203.857.383 1.318.54l.322-.947zM33.2 31.469a7.75 7.75 0 01-.849-.956l-.8.6c.29.387.61.747.958 1.08l.69-.724zm-.845-.951a7.351 7.351 0 01-.674-1.117l-.899.44c.217.444.472.866.766 1.267l.807-.59zm-1.41-3.626a10.283 10.283 0 01-.084-1.326h-1c0 .5.03.986.092 1.456l.991-.13zm-.084-1.326v-.94h-1v.94h1zm0-2.822v-1.882h-1v1.882h1zm0-3.763v-1.882h-1v1.882h1zm0-3.763v-1.882h-1v1.882h1zm0-3.763v-.941h-1v.94h1zm0-.941c0-.387.02-.763.06-1.129l-.994-.11c-.044.404-.066.817-.066 1.239h1zm.58-3.305c.134-.348.29-.685.47-1.011l-.874-.484a9.066 9.066 0 00-.53 1.137l.934.358zm.466-1.002c.178-.309.368-.601.57-.877l-.809-.589a11.24 11.24 0 00-.627.964l.866.502zm1.976-2.396c.264-.222.54-.428.83-.615l-.542-.84c-.326.21-.637.441-.933.691l.645.764zm.827-.613c.278-.176.575-.345.891-.507l-.456-.89c-.341.175-.665.36-.97.553l.535.844zm2.8-1.317c.319-.112.65-.22.996-.321L38.22.6c-.36.107-.708.22-1.044.337l.332.944zm.996-.321c.356-.106.706-.201 1.05-.287l-.243-.97c-.358.09-.722.189-1.09.297l.283.96zm3.173-.71a16.93 16.93 0 011.07-.12l-.078-.996c-.37.029-.749.071-1.134.126l.142.99zm1.074-.12c.317-.027.64-.05.967-.07l-.062-.999c-.335.02-.665.045-.99.073l.085.996zM45.66.582c.32-.006.644-.009.972-.009v-1c-.334 0-.664.003-.99.01l.018 1zm.972-.009c.362 0 .712.004 1.052.01l.02-1c-.347-.006-.704-.01-1.072-.01v1zm3.145.109c.363.028.708.06 1.037.1l.117-.994c-.343-.04-.702-.075-1.077-.103l-.077.997zm1.051.101c.32.028.65.067.991.116l.142-.99a19.355 19.355 0 00-1.045-.122l-.088.996zm2.965.487c.32.073.646.153.98.24l.254-.967c-.344-.09-.681-.173-1.011-.248l-.223.975zm.967.237c.37.108.726.221 1.066.34L56.153.9a23.331 23.331 0 00-1.114-.354l-.28.96zm3.108 1.198c.34.174.656.356.948.544l.542-.84a11.994 11.994 0 00-1.034-.594l-.456.89zm.948.544c.267.172.522.362.767.57l.648-.761a8.234 8.234 0 00-.873-.65l-.542.841zm2.065 1.985c.186.256.362.527.53.815l.864-.504a10.775 10.775 0 00-.584-.898l-.81.587zm.532.819c.194.325.362.668.504 1.03l.93-.366a8.108 8.108 0 00-.574-1.176l-.86.512zm1.037 3.285c.04.377.06.769.06 1.176h1c0-.44-.022-.866-.065-1.28l-.995.104zm.06 1.176v.94h1v-.94h-1zm0 2.822v1.882h1v-1.882h-1zm0 3.763v1.882h1v-1.882h-1zm0 3.763v1.882h1v-1.882h-1zm0 3.763v.941h1v-.94h-1zm0 .941c0 .43-.028.845-.082 1.243l.99.135c.061-.446.091-.905.091-1.378h-1zm-.795 3.588a7.042 7.042 0 01-.644 1.043l.802.596c.281-.377.526-.774.735-1.19l-.893-.45zm-.649 1.05a7.7 7.7 0 01-.796.942l.711.703c.327-.33.626-.684.897-1.062l-.812-.584zm-2.779 2.421a10.45 10.45 0 01-1.135.533l.372.928c.435-.174.85-.368 1.243-.583l-.48-.878zm-1.135.533c-.275.11-.553.215-.835.316l.337.941c.293-.104.583-.214.87-.329l-.372-.928zm-2.538.854c-.569.157-1.148.297-1.74.418l.2.98a27.07 27.07 0 001.807-.434l-.267-.964zm-3.505.72c-.584.081-1.179.146-1.784.194l.08.996c.623-.05 1.237-.116 1.841-.2l-.137-.99zm-3.577.287c-.298.007-.598.011-.9.011v1c.31 0 .619-.004.925-.012l-.025-1zm-.794-5.872c-.254 0-.499-.002-.735-.005l-.015 1c.242.003.492.005.75.005v-1zm-2.2-.053a22.875 22.875 0 01-.724-.051l-.087.996c.238.02.49.038.756.053l.056-.998zm-.7-.048a14.175 14.175 0 01-.596-.095l-.177.985c.215.038.427.072.638.1l.135-.99zm-1.78-.354c-.193-.05-.388-.103-.586-.161l-.28.96c.208.06.414.117.618.17l.249-.969zm-.591-.163a4.823 4.823 0 01-.513-.173l-.376.926c.197.08.403.15.62.21l.269-.963zm-1.408-.696a2.596 2.596 0 01-.353-.356l-.776.63c.145.18.308.344.488.493l.64-.767zm-.344-.345a2.658 2.658 0 01-.264-.423l-.894.449c.103.205.224.4.364.582l.794-.608zm-.553-1.395a4.069 4.069 0 01-.033-.527h-1c0 .225.014.444.041.657l.992-.13zm-.033-.527v-.944h-1v.944h1zm0-2.832v-1.888h-1v1.888h1zm0-3.776v-1.889h-1v1.889h1zm0-3.777v-1.888h-1v1.888h1zm0-3.776v-.944h-1v.944h1zm0-.944c0-.348.031-.665.091-.954l-.98-.202a5.72 5.72 0 00-.11 1.156h1zm.937-2.53c.21-.197.46-.373.753-.523l-.457-.89c-.37.19-.698.418-.983.687l.687.727zm.753-.523c.197-.101.415-.196.655-.283l-.34-.94a6.6 6.6 0 00-.772.333l.457.89zM42.9 6.75a15.3 15.3 0 011.495-.201l-.089-.996c-.57.05-1.1.122-1.59.214l.184.983zm3.018-.285c.248-.006.504-.009.766-.009v-1c-.27 0-.534.003-.791.01l.025 1zm.766-.009c.263 0 .519.003.768.01l.026-1a30.31 30.31 0 00-.794-.01v1zm2.292.098c.543.051 1.04.122 1.495.212l.194-.981a15.942 15.942 0 00-1.595-.226l-.094.995zm2.915.607c.239.09.455.19.65.295l.476-.88a6.433 6.433 0 00-.77-.35l-.356.935zm.66.3c.29.15.539.322.748.516l.68-.732a4.309 4.309 0 00-.971-.674l-.457.89zm1.597 2.062c.06.284.092.596.092.938h1c0-.403-.037-.786-.114-1.147l-.978.209zm.092.938v.944h1v-.944h-1zm0 2.832v1.888h1v-1.888h-1zm0 3.776v1.889h1v-1.889h-1zm0 3.777v1.888h1v-1.888h-1zm0 3.776v.944h1v-.944h-1zm0 .944c0 .185-.011.36-.033.527l.992.13c.028-.213.041-.432.041-.657h-1zm-.321 1.5a2.6 2.6 0 01-.265.422l.794.608c.14-.183.261-.377.364-.582l-.893-.449zm-.268.426a2.382 2.382 0 01-.322.35l.665.746a3.3 3.3 0 00.457-.496l-.8-.6zm-1.16.866a4.409 4.409 0 01-.488.173l.28.96a5.39 5.39 0 00.598-.212l-.39-.92zm-.488.173c-.2.059-.4.113-.598.163l.246.97c.21-.054.42-.111.632-.173l-.28-.96zm-1.806.422a15.01 15.01 0 01-.61.092l.13.992c.216-.028.433-.061.65-.1l-.17-.984zm-.59.09c-.22.02-.456.037-.71.052l.056.998c.264-.015.512-.033.744-.054l-.09-.996zm-2.147.1c-.232.002-.473.004-.723.004v1c.255 0 .5-.002.737-.005l-.014-1zm-6.129 6.016l-.154.988h.004l.15-.988zm-4.982-1.272l.328-.945-.006-.002-.322.947zm-4.399-3.074l-.807.59.007.01.8-.6zm-.477-24.857l-.865-.501-.005.009-.005.008.875.484zm2.968-3.18l-.535-.845-.008.005.543.84zm3.922-1.696l.284.959-.284-.959zM42.71.232l.079.997h.007L42.71.232zm8.162.053l-.117.993.015.002.014.001.088-.996zm4.028.742l.28-.96-.013-.004-.013-.003-.254.967zm4.187 1.802l.542-.84-.542.84zm2.756 2.968l-.864.504.005.007.86-.511zm-.37 24.698l-.803-.597-.005.007-.005.007.812.583zm-4.135 3.127l-.371-.928.371.928zm-7.685-4.081l.09.996.02-.002.02-.002-.13-.992zm2.491-.53l-.28-.96.28.96zm1.908-1.219l-.794-.608-.006.008.8.6zM52.78 7.016l-.475.88.009.005.01.005.456-.89zm-12.19-.053l-.457-.89.457.89zm-1.272 20.829l-.794.607.009.012.01.012.775-.631zm2.014 1.219l.28-.96-.01-.003-.27.963zm2.438.53l-.135.99.024.004.025.002.086-.996zm2.862 4.989c-.44 0-.873-.007-1.297-.02l-.064 1.999c.446.014.9.021 1.361.021v-2zm-3.875-.195c-.435-.047-.86-.102-1.274-.165l-.301 1.978a31.2 31.2 0 001.362.175l.213-1.988zm-1.271-.164a23.95 23.95 0 01-1.215-.222l-.41 1.958c.444.092.883.173 1.318.24l.307-1.976zm-3.62-.842a31.465 31.465 0 01-1.188-.387l-.656 1.89c.424.147.844.284 1.26.41l.583-1.913zm-1.194-.389a9.778 9.778 0 01-1.144-.468l-.877 1.797c.438.214.897.402 1.378.565l.643-1.894zm-3.127-1.832a7.236 7.236 0 01-.794-.895l-1.6 1.2c.307.41.645.79 1.013 1.141l1.381-1.446zm-.787-.886a6.86 6.86 0 01-.628-1.04l-1.797.878c.23.47.5.919.811 1.344l1.614-1.181zm-1.318-3.394a9.77 9.77 0 01-.079-1.262h-2c0 .52.032 1.027.096 1.52l1.983-.258zm-.079-1.262v-.94h-2v.94h2zm0-2.822v-1.882h-2v1.882h2zm0-3.763v-1.882h-2v1.882h2zm0-3.763v-1.882h-2v1.882h2zm0-3.763v-.941h-2v.94h2zm0-.941c0-.37.02-.728.058-1.074l-1.989-.22c-.047.423-.07.854-.07 1.293h2zm.547-3.125c.125-.327.272-.643.441-.95l-1.75-.967a9.58 9.58 0 00-.558 1.2l1.867.717zm.432-.932c.17-.294.35-.571.54-.832l-1.616-1.178c-.233.32-.451.656-.655 1.008l1.73 1.002zm1.866-2.264a7.48 7.48 0 01.78-.577l-1.087-1.68a9.666 9.666 0 00-.983.729l1.29 1.528zm.771-.572c.264-.168.548-.33.852-.485l-.912-1.78a12.8 12.8 0 00-1.01.575l1.07 1.69zm2.7-1.269c.31-.109.633-.213.97-.313L38.08.121c-.368.109-.724.224-1.069.345l.664 1.886zm.97-.313c.35-.103.693-.197 1.03-.281l-.486-1.94c-.365.091-.735.192-1.11.303l.567 1.918zm3.103-.694c.355-.05.701-.09 1.039-.116L42.63-.765c-.382.03-.77.074-1.166.13l.284 1.98zm1.046-.117c.313-.027.631-.05.955-.07l-.123-1.996c-.34.02-.674.045-1.003.074l.17 1.992zm2.874-.146c.316-.006.637-.009.962-.009v-2c-.337 0-.67.003-1 .01l.038 1.999zm.962-.009c.358 0 .705.003 1.041.01l.042-2a52.29 52.29 0 00-1.083-.01v2zm3.106.107c.357.028.696.06 1.017.098l.234-1.986c-.35-.041-.716-.077-1.097-.106l-.154 1.994zm1.046.101c.31.027.631.065.964.113l.284-1.98a19.85 19.85 0 00-1.072-.125l-.176 1.992zm2.898.477c.314.071.635.15.965.236L55.153.06a33.274 33.274 0 00-1.027-.252l-.445 1.95zm.938.229c.363.106.71.216 1.042.331l.656-1.89A23.822 23.822 0 0055.18.067l-.56 1.92zm3.02 1.163c.327.168.628.34.905.52l1.084-1.681a12.487 12.487 0 00-1.077-.619l-.912 1.78zm.905.52c.248.16.486.336.714.53l1.296-1.523a8.727 8.727 0 00-.926-.688l-1.084 1.68zm1.932 1.858c.175.241.343.499.502.773l1.728-1.008a11.282 11.282 0 00-.612-.94l-1.618 1.175zm.507.78c.179.302.335.62.468.959l1.861-.733a8.594 8.594 0 00-.61-1.248l-1.72 1.022zm.969 3.082c.037.359.056.733.056 1.124h2c0-.456-.022-.9-.067-1.332l-1.99.208zm.056 1.124v.94h2v-.94h-2zm0 2.822v1.882h2v-1.882h-2zm0 3.763v1.882h2v-1.882h-2zm0 3.763v1.882h2v-1.882h-2zm0 3.763v.941h2v-.94h-2zm0 .941c0 .41-.026.8-.077 1.175l1.982.27c.064-.47.095-.951.095-1.445h-2zm-.741 3.363a6.55 6.55 0 01-.598.97l1.605 1.193c.297-.4.558-.822.78-1.265l-1.787-.898zm-.608.983a7.358 7.358 0 01-.746.883l1.423 1.406c.345-.35.66-.724.947-1.123l-1.624-1.166zm-2.613 2.275a9.946 9.946 0 01-1.08.507l.743 1.856a11.97 11.97 0 001.297-.609l-.96-1.754zm-1.08.507c-.27.107-.542.21-.818.309l.673 1.883c.299-.106.595-.218.888-.336l-.743-1.856zm-2.487.836c-.557.154-1.126.291-1.706.41l.4 1.96a27.677 27.677 0 001.84-.442l-.534-1.928zm-3.44.707a29.59 29.59 0 01-1.754.19l.158 1.994c.634-.05 1.257-.118 1.871-.203l-.275-1.981zm-3.521.282c-.293.007-.589.011-.887.011v2c.315 0 .627-.004.937-.012l-.05-2zm-.78-5.872c-.252 0-.495-.002-.73-.005l-.028 2c.244.003.497.005.757.005v-2zm-2.173-.052a23.779 23.779 0 01-.71-.05l-.172 1.992c.244.021.501.04.772.054l.11-1.997zm-.66-.045c-.19-.026-.381-.056-.576-.09l-.353 1.968c.221.04.44.074.658.104l.27-1.982zm-1.723-.342a17.52 17.52 0 01-.57-.157l-.56 1.92c.212.062.423.12.632.174l.498-1.937zm-.581-.16a4.325 4.325 0 01-.46-.156l-.752 1.854c.215.087.44.163.673.228l.539-1.926zm-1.223-.6a2.096 2.096 0 01-.285-.287l-1.552 1.262c.166.204.352.391.556.561l1.28-1.535zm-.267-.263a2.164 2.164 0 01-.214-.344l-1.788.897c.117.233.255.454.414.661l1.588-1.214zm-.454-1.156a3.574 3.574 0 01-.029-.463h-2c0 .245.015.486.046.721l1.983-.258zm-.029-.463v-.944h-2v.944h2zm0-2.832v-1.888h-2v1.888h2zm0-3.776v-1.889h-2v1.889h2zm0-3.777v-1.888h-2v1.888h2zm0-3.776v-.944h-2v.944h2zm0-.944c0-.318.029-.601.08-.852l-1.958-.405c-.083.4-.122.82-.122 1.257h2zm.78-2.166c.173-.163.383-.311.638-.442l-.914-1.78c-.407.21-.775.464-1.097.768l1.373 1.454zm.638-.442c.176-.09.374-.177.597-.257l-.68-1.881a7.1 7.1 0 00-.83.358l.913 1.78zm1.946-.612a15.08 15.08 0 011.447-.194l-.177-1.992c-.584.052-1.13.125-1.639.22l.369 1.966zm2.938-.276c.244-.006.496-.009.754-.009v-2c-.274 0-.542.003-.803.01l.05 2zm.754-.009c.259 0 .51.003.755.01l.052-2c-.263-.007-.532-.01-.807-.01v2zm2.245.096c.529.05 1.01.118 1.445.204l.388-1.962a16.44 16.44 0 00-1.646-.233l-.187 1.991zm2.784.576a4.9 4.9 0 01.59.268l.952-1.76a6.939 6.939 0 00-.83-.377l-.712 1.87zm.61.278c.254.13.463.277.636.437l1.36-1.463a4.808 4.808 0 00-1.084-.753l-.914 1.78zm1.336 1.72a4 4 0 01.081.835h2a6 6 0 00-.125-1.25l-1.956.416zm.081.835v.944h2v-.944h-2zm0 2.832v1.888h2v-1.888h-2zm0 3.776v1.889h2v-1.889h-2zm0 3.777v1.888h2v-1.888h-2zm0 3.776v.944h2v-.944h-2zm0 .944c0 .165-.01.319-.029.463l1.984.258c.03-.235.045-.476.045-.721h-2zm-.268 1.275a2.216 2.216 0 01-.215.343l1.589 1.215c.158-.207.296-.428.413-.66l-1.787-.898zm-.22.351c-.075.098-.159.19-.256.276l1.33 1.494c.195-.173.37-.363.525-.57l-1.6-1.2zm-.957.706a3.896 3.896 0 01-.432.153l.56 1.92a5.8 5.8 0 00.654-.232l-.782-1.84zm-.432.153c-.195.057-.388.11-.58.158l.491 1.939c.216-.055.432-.114.65-.177l-.56-1.92zm-1.751.409a14.16 14.16 0 01-.59.09l.26 1.983c.222-.03.446-.064.67-.102l-.34-1.971zm-.55.085c-.213.02-.444.036-.693.05l.112 1.997c.269-.015.523-.033.762-.055l-.181-1.992zm-2.11.097c-.228.003-.467.005-.715.005v2c.257 0 .505-.002.744-.005l-.029-2zM72.313.603v-.5h-.5v.5h.5zm21.73.689l-.115.487h.002l.113-.487zm4.293 2.438l-.399.302.005.007.006.006.388-.315zm-.106 16.589l-.395-.307-.005.007.4.3zm-4.611 2.703l-.121-.485h-.002l.123.485zm-13.038.795v-.5h-.5v.5h.5zm0 11.183v.5h.5V35h-.5zm-8.268 0h-.5v.5h.5V35zm18.073-17.596l.244.436.007-.003.006-.004-.257-.429zm.053-10.388l-.2.459.008.003.192-.462zm-9.858-.53v-.5h-.5v.5h.5zm0 11.66h-.5v.5h.5v-.5zM71.812.603v.955h1V.603h-1zm0 2.866V5.38h1V3.47h-1zm0 3.822v1.911h1v-1.91h-1zm0 3.822v1.911h1v-1.91h-1zm0 3.822v1.911h1v-1.91h-1zm0 3.822v1.91h1v-1.91h-1zm0 3.822v1.91h1v-1.91h-1zm0 3.822v1.91h1v-1.91h-1zm0 3.822v1.91h1v-1.91h-1zm0 3.822V35h1v-.956h-1zm.5 1.455h1.033v-1h-1.033v1zm3.1 0h2.067v-1h-2.067v1zm4.134 0h1.034v-1h-1.034v1zm1.534-.5v-.932h-1V35h1zm0-2.796V30.34h-1v1.864h1zm0-3.727v-1.864h-1v1.864h1zm0-3.728v-.932h-1v.932h1zm-.5-.432h1.14v-1h-1.14v1zm3.418 0h1.14v-1h-1.14v1zm1.14 0c.366 0 .724-.003 1.075-.008l-.016-1a73.03 73.03 0 01-1.06.008v1zm3.228-.082c.76-.042 1.478-.1 2.153-.174l-.108-.994c-.655.072-1.355.128-2.1.17l.055.998zm4.305-.491c.374-.072.73-.151 1.07-.237l-.246-.97a17.98 17.98 0 01-1.013.225l.189.982zm1.068-.237c.478-.12.93-.258 1.355-.415l-.348-.938a11.9 11.9 0 01-1.25.383l.243.97zm3.87-1.821a6.303 6.303 0 001.02-1.067l-.8-.6a5.305 5.305 0 01-.86.898l.64.769zm1.014-1.06a6.52 6.52 0 00.781-1.297l-.91-.416a5.514 5.514 0 01-.66 1.099l.79.614zm1.517-4.156c.049-.462.073-.946.073-1.451h-1c0 .474-.023.923-.067 1.347l.994.104zm.073-1.451v-.815h-1v.815h1zm0-2.445v-1.63h-1v1.63h1zm0-3.26V8.5h-1v.815h1zm0-.814c0-.459-.022-.898-.067-1.317l-.995.107c.041.38.062.783.062 1.21h1zm-.757-3.914a5.756 5.756 0 00-.733-1.171l-.776.63c.233.288.435.61.606.97l.903-.429zm-.723-1.158a5.717 5.717 0 00-.96-.987l-.63.777c.306.248.57.52.793.814l.797-.604zm-3.316-2.26c-.396-.139-.817-.26-1.262-.363l-.226.974c.413.096.798.207 1.157.333l.332-.943zm-1.26-.363A18.485 18.485 0 0093.15.598l-.176.985c.336.06.653.125.952.196l.23-.974zM91.133.323a40.562 40.562 0 00-2.018-.15l-.05 1c.698.035 1.354.083 1.968.145l.1-.995zM87.099.11a69.467 69.467 0 00-1.007-.007v1c.338 0 .669.002.992.007l.015-1zM86.092.103h-1.149v1h1.149v-1zm-3.445 0H80.35v1h2.297v-1zm-4.594 0h-2.296v1h2.296v-1zm-4.593 0h-1.148v1h1.148v-1zm12.367 17.543h-1.312v1h1.312v-1zm-3.936 0H80.58v1h1.311v-1zm-.811.5v-.972h-1v.972h1zm0-2.915v-1.943h-1v1.943h1zm0-3.887V9.401h-1v1.943h1zm0-3.886v-.972h-1v.972h1zm-.5-.472h1.285v-1H80.58v1zm3.856 0h1.285v-1h-1.285v1zm1.285 0c.418 0 .81.006 1.177.017l.031-1a38.959 38.959 0 00-1.208-.017v1zm3.485.214c.457.077.796.172 1.032.275l.4-.918c-.34-.147-.767-.259-1.266-.343l-.166.986zm1.04.278c.175.073.32.164.439.27L91.35 7a2.545 2.545 0 00-.72-.447l-.384.924zm.913 1.177c.033.173.05.368.05.587h1c0-.272-.021-.531-.068-.775l-.982.188zm.05.587v1.378h1V9.242h-1zm0 4.134v1.378h1v-1.378h-1zm0 1.378c0 .25-.02.477-.057.684l.984.18c.05-.274.074-.562.074-.864h-1zm-.591 1.825a2.169 2.169 0 01-.49.396l.514.858c.27-.162.509-.355.714-.58l-.738-.674zm-.477.389a4 4 0 01-.966.361l.246.97a4.987 4.987 0 001.208-.459l-.489-.872zm-3.174.652a23.27 23.27 0 01-1.14.026v1c.418 0 .815-.01 1.19-.028l-.05-.998zM72.312.603v-1h-1v1h1zm21.73.689l-.23.973.004.001.226-.974zm4.293 2.438l-.797.604.01.013.01.014.777-.631zm-.106 16.589l-.79-.614-.005.007-.005.007.8.6zm-4.611 2.703l-.243-.97h-.004l.247.97zm-13.038.795v-1h-1v1h1zm0 11.183v1h1v-1h-1zm-8.268 0h-1v1h1v-1zm18.073-17.596l.488.872.013-.007.013-.007-.514-.858zm.053-10.388l-.399.917.007.003.007.003.385-.923zm-9.858-.53v-1h-1v1h1zm0 11.66h-1v1h1v-1zM71.312.603v.955h2V.603h-2zm0 2.866V5.38h2V3.47h-2zm0 3.822v1.911h2v-1.91h-2zm0 3.822v1.911h2v-1.91h-2zm0 3.822v1.911h2v-1.91h-2zm0 3.822v1.91h2v-1.91h-2zm0 3.822v1.91h2v-1.91h-2zm0 3.822v1.91h2v-1.91h-2zm0 3.822v1.91h2v-1.91h-2zm0 3.822V35h2v-.956h-2zm1 1.955h1.033v-2h-1.033v2zm3.1 0h2.067v-2h-2.067v2zm4.134 0h1.034v-2h-1.034v2zm2.034-1v-.932h-2V35h2zm0-2.796V30.34h-2v1.864h2zm0-3.727v-1.864h-2v1.864h2zm0-3.728v-.932h-2v.932h2zm-1 .068h1.14v-2h-1.14v2zm3.418 0h1.14v-2h-1.14v2zm1.14 0c.368 0 .73-.003 1.083-.008l-.032-2a66.76 66.76 0 01-1.051.008v2zm3.255-.083c.769-.042 1.496-.1 2.18-.176l-.216-1.988a38.53 38.53 0 01-2.073.167l.11 1.997zm4.372-.5c.383-.073.75-.154 1.1-.243l-.494-1.938a17.18 17.18 0 01-.984.218l.378 1.964zm1.095-.242a13.4 13.4 0 001.408-.431l-.695-1.876c-.37.137-.768.26-1.198.367l.485 1.94zm4.068-1.921c.416-.346.784-.73 1.1-1.152l-1.6-1.2a4.808 4.808 0 01-.778.813l1.278 1.539zm1.09-1.138c.33-.424.61-.891.841-1.396l-1.819-.832a5.02 5.02 0 01-.6 1l1.578 1.228zm1.62-4.41c.05-.482.075-.983.075-1.504h-2c0 .458-.022.89-.064 1.295l1.989.208zm.075-1.504v-.815h-2v.815h2zm0-2.445v-1.63h-2v1.63h2zm0-3.26V8.5h-2v.815h2zm0-.814c0-.475-.023-.932-.07-1.37l-1.989.213c.039.361.059.746.059 1.157h2zm-.805-4.128a6.257 6.257 0 00-.797-1.273l-1.552 1.262c.206.254.388.542.542.868l1.807-.857zm-.776-1.246a6.215 6.215 0 00-1.043-1.073l-1.26 1.553c.276.224.51.467.709.728l1.594-1.208zM95.583.697a12.439 12.439 0 00-1.315-.38l-.452 1.95c.396.091.764.197 1.104.317l.663-1.887zM94.272.32a18.968 18.968 0 00-1.034-.213l-.35 1.97c.327.058.635.121.924.19l.46-1.947zm-3.09-.493a41.051 41.051 0 00-2.042-.152l-.1 1.998c.69.035 1.338.083 1.942.144l.2-1.99zM87.107-.39c-.33-.005-.669-.007-1.014-.007v2c.336 0 .664.002.985.007l.03-2zm-1.014-.007h-1.149v2h1.149v-2zm-3.445 0H80.35v2h2.297v-2zm-4.594 0h-2.296v2h2.296v-2zm-4.593 0h-1.148v2h1.148v-2zm12.367 17.543h-1.312v2h1.312v-2zm-3.936 0H80.58v2h1.311v-2zm-.311 1v-.972h-2v.972h2zm0-2.915v-1.943h-2v1.943h2zm0-3.887V9.401h-2v1.943h2zm0-3.886v-.972h-2v.972h2zm-1 .028h1.285v-2H80.58v2zm3.856 0h1.285v-2h-1.285v2zm1.285 0c.413 0 .8.006 1.162.017l.062-2a39.424 39.424 0 00-1.224-.017v2zm3.401.207c.437.074.732.16.917.24l.797-1.834c-.39-.17-.86-.29-1.38-.378l-.334 1.972zm.931.246c.13.054.226.117.3.182l1.33-1.493a3.044 3.044 0 00-.86-.535l-.77 1.846zm.615.81c.026.138.042.301.042.493h2c0-.299-.024-.59-.078-.87l-1.964.377zm.042.493v1.378h2V9.242h-2zm0 4.134v1.378h2v-1.378h-2zm0 1.378c0 .223-.018.42-.05.595l1.968.359c.056-.307.082-.626.082-.954h-2zm-.462 1.488c-.1.11-.225.213-.378.305l1.03 1.715c.308-.186.586-.409.826-.672l-1.478-1.348zm-.352.29c-.196.11-.47.218-.844.313l.492 1.938a5.48 5.48 0 001.33-.507l-.978-1.744zm-2.954.588c-.346.017-.718.026-1.115.026v2c.426 0 .83-.01 1.214-.028l-.099-1.998zm18.333 11.997v-.5h-.5v.5h.5zm4.24-1.643l-.388-.315-.001.001.389.314zm2.12-6.148l-.493-.082.493.082zm.742-20.723v-.5h-.5v.5h.5zm25.016 0h.5v-.5h-.5v.5zm0 28.514h-.5v.5h.5v-.5zm5.035 0h.5v-.5h-.5v.5zm0 13.886v.5h.5v-.5h-.5zm-7.42 0h-.5v.5h.5v-.5zm0-8.003h.5v-.5h-.5v.5zm-22.313 0v-.5h-.5v.5h.5zm0 8.003v.5h.5v-.5h-.5zm-7.42 0h-.5v.5h.5v-.5zm23.85-13.833v.5h.5v-.5h-.5zm0-22.737h.5v-.5h-.5v.5zm-9.328 0v-.5h-.5v.5h.5zm-3.445 22.737l-.414-.28-.528.78h.942v-.5zm-11.577-.053v1.157h1v-1.157h-1zm0 3.472v2.314h1v-2.314h-1zm0 4.628v2.315h1v-2.315h-1zm0 4.629v1.157h1v-1.157h-1zm.5 1.657h.928v-1h-.928v1zm2.783 0h1.855v-1h-1.855v1zm3.71 0h.927v-1h-.927v1zm1.427-.5v-1h-1v1h1zm0-3.001v-2h-1v2h1zm0-4.002v-1h-1v1h1zm-.5-.5h.93v-1h-.93v1zm2.789 0h1.86v-1h-1.86v1zm3.719 0h1.86v-1h-1.86v1zm3.719 0h1.859v-1h-1.859v1zm3.719 0h1.859v-1h-1.859v1zm3.719 0h1.859v-1h-1.859v1zm3.719 0h.929v-1h-.929v1zm.429-.5v1h1v-1h-1zm0 3.001v2h1v-2h-1zm0 4.002v1h1v-1h-1zm.5 1.5h.928v-1h-.928v1zm2.783 0h1.855v-1h-1.855v1zm3.71 0h.927v-1h-.927v1zm1.427-.5v-1.157h-1v1.157h1zm0-3.471v-2.315h-1v2.315h1zm0-4.63V32.59h-1v2.314h1zm0-4.628v-1.157h-1v1.157h1zm-.5-1.657h-1.258v1h1.258v-1zm-3.776 0h-1.259v1h1.259v-1zm-.759.5v-1.018h-1v1.018h1zm0-3.055v-2.037h-1v2.037h1zm0-4.074v-2.036h-1v2.036h1zm0-4.073v-2.037h-1v2.037h1zm0-4.073v-2.037h-1v2.037h1zm0-4.074V7.731h-1v2.037h1zm0-4.073V3.658h-1v2.037h1zm0-4.074V.603h-1v1.018h1zm-.5-1.518h-1.042v1h1.042v-1zm-3.127 0h-2.084v1h2.084v-1zm-4.169 0h-2.085v1h2.085v-1zm-4.169 0h-2.085v1h2.085v-1zm-4.17 0h-2.084v1h2.084v-1zm-4.169 0h-2.085v1h2.085v-1zm-4.169 0h-1.043v1h1.043v-1zm-1.543.5v1.014h1V.603h-1zm0 3.04v2.028h1V3.644h-1zm0 4.055v1.014h1V7.698h-1zm0 1.014c0 .356-.001.706-.003 1.051l1 .006c.002-.347.003-.7.003-1.057h-1zm-.03 3.153a116.76 116.76 0 01-.061 2.098l1 .038c.025-.679.046-1.384.061-2.116l-1-.02zm-.163 4.192c-.044.735-.096 1.43-.156 2.087l.996.09a69.39 69.39 0 00.158-2.116l-.998-.06zm-.388 4.16c-.048.358-.1.7-.154 1.027l.986.164c.057-.337.11-.69.159-1.056l-.991-.135zm-.154 1.027c-.046.273-.093.539-.142.796l.982.188c.051-.266.1-.539.146-.82l-.986-.164zm-.49 2.368a16.307 16.307 0 01-.464 1.523l.939.342c.178-.49.342-1.028.493-1.616l-.968-.249zm-1.107 2.934a4.735 4.735 0 01-.418.613l.776.63c.179-.22.348-.468.506-.74l-.864-.503zm-.419.614a4.224 4.224 0 01-.629.635l.628.778c.281-.227.541-.49.779-.785l-.778-.628zm-2.211 1.372c-.281.056-.58.085-.898.085v1c.379 0 .744-.034 1.094-.105l-.196-.98zm-.898.085h-.185v1h.185v-1zm-.556 0h-.186v1h.186v-1zm23.664.053h-1.064v1h1.064v-1zm-3.193 0h-2.129v1h2.129v-1zm-4.258 0h-2.128v1h2.128v-1zm-4.257 0h-1.065v1h1.065v-1zm-.651.78c.181-.267.355-.55.52-.847l-.873-.487c-.153.274-.311.532-.475.774l.828.56zm1.358-2.63c.228-.575.437-1.19.628-1.846l-.96-.28a19.84 19.84 0 01-.598 1.758l.93.369zm1.102-3.726c.131-.605.251-1.237.358-1.898l-.988-.16c-.104.645-.22 1.26-.347 1.845l.977.213zm.624-3.805a55.65 55.65 0 00.192-1.913l-.996-.083a58.572 58.572 0 01-.189 1.878l.993.118zm.324-3.829c.034-.62.061-1.259.081-1.913l-.999-.03c-.02.646-.047 1.276-.08 1.889l.998.054zm.119-3.829c.003-.316.004-.635.004-.958h-1c0 .32-.001.636-.004.949l1 .01zm.004-.958v-1.06h-1v1.06h1zm0-3.18v-1.06h-1v1.06h1zm-.5-.56h1.166v-1h-1.166v1zm3.498 0h2.332v-1h-2.332v1zm4.664 0h1.166v-1h-1.166v1zm.666-.5v.947h1v-.947h-1zm0 2.842v1.895h1V9.275h-1zm0 3.79v1.894h1v-1.894h-1zm0 3.79v1.894h1v-1.895h-1zm0 3.789v1.894h1v-1.894h-1zm0 3.79v1.894h1v-1.895h-1zm0 3.789v.947h1v-.947h-1zm-23.35.894v-1h-1v1h1zm4.24-1.643l-.776-.63-.002.002.778.628zm2.12-6.148l-.986-.164.986.164zm.742-20.723v-1h-1v1h1zm25.016 0h1v-1h-1v1zm0 28.514h-1v1h1v-1zm5.035 0h1v-1h-1v1zm0 13.886v1h1v-1h-1zm-7.42 0h-1v1h1v-1zm0-8.003h1v-1h-1v1zm-22.313 0v-1h-1v1h1zm0 8.003v1h1v-1h-1zm-7.42 0h-1v1h1v-1zm23.85-13.833v1h1v-1h-1zm0-22.737h1v-1h-1v1zm-9.328 0v-1h-1v1h1zm-3.445 22.737l-.828-.56-1.056 1.56h1.884v-1zm-12.077-.053v1.157h2v-1.157h-2zm0 3.472v2.314h2v-2.314h-2zm0 4.628v2.315h2v-2.315h-2zm0 4.629v1.157h2v-1.157h-2zm1 2.157h.928v-2h-.928v2zm2.783 0h1.855v-2h-1.855v2zm3.71 0h.927v-2h-.927v2zm1.927-1v-1h-2v1h2zm0-3.001v-2h-2v2h2zm0-4.002v-1h-2v1h2zm-1 0h.93v-2h-.93v2zm2.789 0h1.86v-2h-1.86v2zm3.719 0h1.86v-2h-1.86v2zm3.719 0h1.859v-2h-1.859v2zm3.719 0h1.859v-2h-1.859v2zm3.719 0h1.859v-2h-1.859v2zm3.719 0h.929v-2h-.929v2zm-.071-1v1h2v-1h-2zm0 3.001v2h2v-2h-2zm0 4.002v1h2v-1h-2zm1 2h.928v-2h-.928v2zm2.783 0h1.855v-2h-1.855v2zm3.71 0h.927v-2h-.927v2zm1.927-1v-1.157h-2v1.157h2zm0-3.471v-2.315h-2v2.315h2zm0-4.63V32.59h-2v2.314h2zm0-4.628v-1.157h-2v1.157h2zm-1-2.157h-1.258v2h1.258v-2zm-3.776 0h-1.259v2h1.259v-2zm-.259 1v-1.018h-2v1.018h2zm0-3.055v-2.037h-2v2.037h2zm0-4.074v-2.036h-2v2.036h2zm0-4.073v-2.037h-2v2.037h2zm0-4.073v-2.037h-2v2.037h2zm0-4.074V7.731h-2v2.037h2zm0-4.073V3.658h-2v2.037h2zm0-4.074V.603h-2v1.018h2zm-1-2.018h-1.042v2h1.042v-2zm-3.127 0h-2.084v2h2.084v-2zm-4.169 0h-2.085v2h2.085v-2zm-4.169 0h-2.085v2h2.085v-2zm-4.17 0h-2.084v2h2.084v-2zm-4.169 0h-2.085v2h2.085v-2zm-4.169 0h-1.043v2h1.043v-2zm-2.043 1v1.014h2V.603h-2zm0 3.04v2.028h2V3.644h-2zm0 4.055v1.014h2V7.698h-2zm0 1.014c0 .355-.001.704-.003 1.048l2 .013c.002-.349.003-.702.003-1.061h-2zm-.03 3.143c-.015.723-.035 1.42-.06 2.089l1.998.076c.026-.682.046-1.39.061-2.125l-1.999-.04zm-.162 4.172a68.89 68.89 0 01-.155 2.071l1.992.181c.061-.672.114-1.383.16-2.131l-1.997-.12zm-.384 4.123c-.048.354-.099.69-.152 1.012l1.973.328c.057-.342.11-.7.161-1.071l-1.982-.269zm-.152 1.012c-.045.27-.092.531-.14.784l1.964.376c.052-.27.101-.547.149-.832l-1.973-.328zm-.482 2.326c-.14.549-.291 1.04-.449 1.476l1.879.684c.185-.507.353-1.062.508-1.663l-1.938-.497zm-1.054 2.806a4.297 4.297 0 01-.374.55l1.552 1.26c.198-.243.381-.512.551-.804l-1.729-1.006zm-.376.552a3.684 3.684 0 01-.554.56l1.256 1.556a5.7 5.7 0 00.855-.86l-1.557-1.256zm-1.921 1.196a4.07 4.07 0 01-.799.075v2c.409 0 .807-.037 1.193-.114l-.394-1.961zm-.799.075h-.185v2h.185v-2zm-.556 0h-.186v2h.186v-2zm23.664.053h-1.064v2h1.064v-2zm-3.193 0h-2.129v2h2.129v-2zm-4.258 0h-2.128v2h2.128v-2zm-4.257 0h-1.065v2h1.065v-2zm-.237 1.56c.19-.28.371-.574.543-.883l-1.747-.974a9.99 9.99 0 01-.452.736l1.656 1.122zm1.409-2.725c.234-.592.448-1.222.643-1.891l-1.92-.56c-.18.616-.374 1.187-.583 1.714l1.86.737zm1.126-3.805a36.77 36.77 0 00.362-1.924l-1.974-.32a33.89 33.89 0 01-.343 1.82l1.955.424zm.631-3.852a54.42 54.42 0 00.194-1.93l-1.993-.167a54.641 54.641 0 01-.187 1.861l1.986.236zm.327-3.86c.035-.626.062-1.268.082-1.926l-1.999-.06c-.02.642-.046 1.268-.08 1.876l1.997.11zm.12-3.852c.003-.318.004-.638.004-.963h-2c0 .318-.001.633-.004.944l2 .019zm.004-.963v-1.06h-2v1.06h2zm0-3.18v-1.06h-2v1.06h2zm-1-.06h1.166v-2h-1.166v2zm3.498 0h2.332v-2h-2.332v2zm4.664 0h1.166v-2h-1.166v2zm.166-1v.947h2v-.947h-2zm0 2.842v1.895h2V9.275h-2zm0 3.79v1.894h2v-1.894h-2zm0 3.79v1.894h2v-1.895h-2zm0 3.789v1.894h2v-1.894h-2zm0 3.79v1.894h2v-1.895h-2zm0 3.789v.947h2v-.947h-2zM149.969.603v-.5h-.5v.5h.5zm8.268 0h.5v-.5h-.5v.5zm0 23.532h-.5v1.73l.923-1.463-.423-.267zM173.077.603v-.5h-.276l-.147.233.423.267zm8.268 0h.5v-.5h-.5v.5zm0 34.397v.5h.5V35h-.5zm-8.268 0h-.5v.5h.5V35zm0-23.903h.5V9.344l-.925 1.49.425.263zM158.237 35v.5h.278l.147-.236-.425-.264zm-8.268 0h-.5v.5h.5V35zm-.5-34.397v.955h1V.603h-1zm0 2.866V5.38h1V3.47h-1zm0 3.822v1.911h1v-1.91h-1zm0 3.822v1.911h1v-1.91h-1zm0 3.822v1.911h1v-1.91h-1zm0 3.822v1.91h1v-1.91h-1zm0 3.822v1.91h1v-1.91h-1zm0 3.822v1.91h1v-1.91h-1zm0 3.822v1.91h1v-1.91h-1zm0 3.822V35h1v-.956h-1zm.5 1.455h1.034v-1h-1.034v1zm3.101 0h2.067v-1h-2.067v1zm4.134 0h1.033v-1h-1.033v1zm1.458-.236l.53-.854-.85-.527-.53.853.85.528zm1.59-2.561l1.06-1.708-.85-.527-1.06 1.707.85.528zm2.12-3.415l1.06-1.707-.85-.528-1.06 1.707.85.528zm2.12-3.415l1.06-1.707-.85-.527-1.06 1.707.85.527zm2.12-3.415l1.06-1.707-.85-.527-1.06 1.707.85.527zm2.12-3.414l1.06-1.707-.85-.528-1.06 1.707.85.528zm2.12-3.415l1.06-1.707-.85-.528-1.06 1.708.85.527zm2.12-3.415l.53-.853-.85-.528-.53.854.85.527zm-.395-1.117v.996h1v-.996h-1zm0 2.988v1.992h1v-1.992h-1zm0 3.984v1.992h1v-1.992h-1zm0 3.983v1.992h1v-1.992h-1zm0 3.984v1.992h1v-1.992h-1zm0 3.984v1.992h1V30.02h-1zm0 3.984V35h1v-.996h-1zm.5 1.496h1.034v-1h-1.034v1zm3.101 0h2.067v-1h-2.067v1zm4.134 0h1.033v-1h-1.033v1zm1.533-.5v-.956h-1V35h1zm0-2.866v-1.911h-1v1.91h1zm0-3.822V26.4h-1v1.91h1zm0-3.822v-1.911h-1v1.91h1zm0-3.822v-1.911h-1v1.91h1zm0-3.822v-1.91h-1v1.91h1zm0-3.822v-1.91h-1v1.91h1zm0-3.822v-1.91h-1v1.91h1zm0-3.822V3.47h-1v1.91h1zm0-3.822V.603h-1v.955h1zm-.5-1.455h-1.033v1h1.033v-1zm-3.1 0h-2.067v1h2.067v-1zm-4.134 0h-1.034v1h1.034v-1zm-1.457.233l-.53.84.846.534.53-.84-.846-.534zm-1.59 2.522l-1.06 1.68.846.534 1.06-1.681-.846-.533zm-2.12 3.361l-1.06 1.681.846.534 1.06-1.681-.846-.534zm-2.12 3.362l-1.06 1.68.846.534 1.06-1.68-.846-.534zm-2.12 3.362l-1.06 1.68.846.534 1.06-1.68-.846-.534zm-2.12 3.361l-1.06 1.681.846.534 1.06-1.681-.846-.534zm-2.12 3.362l-1.06 1.681.846.533 1.06-1.68-.846-.534zm-2.12 3.362l-.53.84.846.534.53-.84-.846-.534zm.393 1.107v-.98h-1v.98h1zm0-2.942v-1.96h-1v1.96h1zm0-3.922v-1.96h-1v1.96h1zm0-3.921v-1.961h-1v1.96h1zm0-3.922V7.466h-1v1.962h1zm0-3.923v-1.96h-1v1.96h1zm0-3.921V.602h-1v.98h1zm-.5-1.481h-1.033v1h1.033v-1zm-3.1 0h-2.067v1h2.067v-1zm-4.134 0h-1.034v1h1.034v-1zm-1.034.5v-1h-1v1h1zm8.268 0h1v-1h-1v1zm0 23.532h-1v3.46l1.846-2.927-.846-.533zM173.077.603v-1h-.551l-.295.467.846.533zm8.268 0h1v-1h-1v1zm0 34.397v1h1v-1h-1zm-8.268 0h-1v1h1v-1zm0-23.903h1V7.59l-1.849 2.98.849.527zM158.237 35v1h.556l.294-.472-.85-.528zm-8.268 0h-1v1h1v-1zm-1-34.397v.955h2V.603h-2zm0 2.866V5.38h2V3.47h-2zm0 3.822v1.911h2v-1.91h-2zm0 3.822v1.911h2v-1.91h-2zm0 3.822v1.911h2v-1.91h-2zm0 3.822v1.91h2v-1.91h-2zm0 3.822v1.91h2v-1.91h-2zm0 3.822v1.91h2v-1.91h-2zm0 3.822v1.91h2v-1.91h-2zm0 3.822V35h2v-.956h-2zm1 1.955h1.034v-2h-1.034v2zm3.101 0h2.067v-2h-2.067v2zm4.134 0h1.033v-2h-1.033v2zm1.883-.472l.53-.854-1.699-1.055-.53.853 1.699 1.056zm1.59-2.562l1.06-1.707-1.699-1.055-1.06 1.707 1.699 1.055zm2.12-3.414l1.06-1.708-1.699-1.055-1.06 1.708 1.699 1.055zm2.12-3.415l1.06-1.707-1.699-1.055-1.06 1.707 1.699 1.055zm2.12-3.415l1.06-1.707-1.699-1.055-1.06 1.707 1.699 1.055zm2.12-3.414l1.06-1.708-1.699-1.055-1.06 1.708 1.699 1.055zm2.12-3.415l1.06-1.708-1.699-1.054-1.06 1.707 1.699 1.055zm2.12-3.415l.53-.854-1.699-1.055-.53.854 1.699 1.055zm-1.32-1.381v.996h2v-.996h-2zm0 2.988v1.992h2v-1.992h-2zm0 3.984v1.992h2v-1.992h-2zm0 3.983v1.992h2v-1.992h-2zm0 3.984v1.992h2v-1.992h-2zm0 3.984v1.992h2V30.02h-2zm0 3.984V35h2v-.996h-2zm1 1.996h1.034v-2h-1.034v2zm3.101 0h2.067v-2h-2.067v2zm4.134 0h1.033v-2h-1.033v2zm2.033-1v-.956h-2V35h2zm0-2.866v-1.911h-2v1.91h2zm0-3.822V26.4h-2v1.91h2zm0-3.822v-1.911h-2v1.91h2zm0-3.822v-1.911h-2v1.91h2zm0-3.822v-1.91h-2v1.91h2zm0-3.822v-1.91h-2v1.91h2zm0-3.822v-1.91h-2v1.91h2zm0-3.822V3.47h-2v1.91h2zm0-3.822V.603h-2v.955h2zm-1-1.955h-1.033v2h1.033v-2zm-3.1 0h-2.067v2h2.067v-2zm-4.134 0h-1.034v2h1.034v-2zm-1.88.467l-.53.84 1.692 1.067.53-.84L172.231.07zm-1.59 2.52l-1.06 1.682 1.692 1.067 1.06-1.681-1.692-1.067zm-2.12 3.363l-1.06 1.68 1.692 1.067 1.06-1.68-1.692-1.067zm-2.12 3.361l-1.06 1.681 1.692 1.067 1.06-1.68-1.692-1.068zm-2.12 3.362l-1.06 1.68 1.692 1.068 1.06-1.681-1.692-1.067zm-2.12 3.362l-1.06 1.68 1.692 1.067 1.06-1.68-1.692-1.067zm-2.12 3.361l-1.06 1.681 1.692 1.067 1.06-1.68-1.692-1.068zm-2.12 3.362l-.53.84 1.692 1.067.53-.84-1.692-1.067zm1.316 1.374v-.98h-2v.98h2zm0-2.942v-1.96h-2v1.96h2zm0-3.922v-1.96h-2v1.96h2zm0-3.921v-1.961h-2v1.96h2zm0-3.922V7.466h-2v1.962h2zm0-3.923v-1.96h-2v1.96h2zm0-3.921V.602h-2v.98h2zm-1-1.981h-1.033v2h1.033v-2zm-3.1 0h-2.067v2h2.067v-2zm-4.134 0h-1.034v2h1.034v-2zm40.435 1v-.5h-.5v.5h.5zm11.766 0l.472-.163-.116-.337h-.356v.5zm8.48 24.592l-.473.163.476 1.38.47-1.382-.473-.161zM220.058.603v-.5h-.358l-.116.339.474.161zm11.077 0h.5v-.5h-.5v.5zm0 34.397v.5h.5V35h-.5zm-7.473 0h-.5v.5h.5V35zm0-25.44h.5v-.5h-.5v.5zm-.159 0v-.5h-.358l-.116.338.474.162zM214.811 35v.5h.357l.116-.338-.473-.162zm-6.625 0l-.472.166.117.334h.355V35zm-8.957-25.44l.471-.166-.117-.334h-.354v.5zm-.212 0v-.5h-.5v.5h.5zm0 25.44v.5h.5V35h-.5zm-7.579 0h-.5v.5h.5V35zm-.5-34.397v.955h1V.603h-1zm0 2.866V5.38h1V3.47h-1zm0 3.822v1.911h1v-1.91h-1zm0 3.822v1.911h1v-1.91h-1zm0 3.822v1.911h1v-1.91h-1zm0 3.822v1.91h1v-1.91h-1zm0 3.822v1.91h1v-1.91h-1zm0 3.822v1.91h1v-1.91h-1zm0 3.822v1.91h1v-1.91h-1zm0 3.822V35h1v-.956h-1zm.5 1.455h.947v-1h-.947v1zm2.842 0h1.894v-1h-1.894v1zm3.789 0h.948v-1h-.948v1zm1.448-.5v-1.06h-1V35h1zm0-3.18V29.7h-1v2.12h1zm0-4.24v-2.12h-1v2.12h1zm0-4.24v-2.12h-1v2.12h1zm0-4.24v-2.12h-1v2.12h1zm0-4.24v-2.12h-1v2.12h1zm0-4.24V9.56h-1v1.06h1zm-.5-.56h.053v-1h-.053v1zm.159 0h.053v-1h-.053v1zm-.419-.334l.32.909.943-.332-.32-.91-.943.333zm.96 2.726l.639 1.817.944-.332-.64-1.817-.943.332zm1.279 3.634l.64 1.817.943-.332-.64-1.817-.943.332zm1.28 3.634l.64 1.818.943-.333-.64-1.817-.943.332zm1.279 3.635l.64 1.817.943-.332-.639-1.817-.944.332zm1.28 3.634l.64 1.817.943-.332-.64-1.817-.943.332zm1.279 3.634l.64 1.817.943-.332-.639-1.817-.944.332zm1.28 3.634l.32.909.943-.332-.32-.909-.943.333zm.792 1.243h.828v-1h-.828v1zm2.484 0h1.656v-1h-1.656v1zm3.312 0h.829v-1h-.829v1zm1.302-.338l.31-.909-.946-.323-.311.908.947.324zm.931-2.726l.621-1.817-.946-.323-.621 1.817.946.323zm1.242-3.634l.621-1.817-.947-.324-.621 1.817.947.324zm1.241-3.635l.621-1.817-.946-.323-.621 1.817.946.323zm1.242-3.634l.621-1.817-.946-.323-.621 1.817.946.323zm1.242-3.634l.621-1.817-.947-.324-.62 1.818.946.323zm1.242-3.635l.62-1.817-.946-.323-.621 1.817.947.323zm1.241-3.634l.311-.908-.947-.324-.31.909.946.323zm-.162-.57h.039v-1h-.039v1zm.119 0h.04v-1h-.04v1zm-.46-.5v1.06h1V9.56h-1zm0 3.18v2.12h1v-2.12h-1zm0 4.24v2.12h1v-2.12h-1zm0 4.24v2.12h1v-2.12h-1zm0 4.24v2.12h1v-2.12h-1zm0 4.24v2.12h1V29.7h-1zm0 4.24V35h1v-1.06h-1zm.5 1.56h.934v-1h-.934v1zm2.802 0h1.868v-1h-1.868v1zm3.736 0h.935v-1h-.935v1zm1.435-.5v-.956h-1V35h1zm0-2.866v-1.911h-1v1.91h1zm0-3.822V26.4h-1v1.91h1zm0-3.822v-1.911h-1v1.91h1zm0-3.822v-1.911h-1v1.91h1zm0-3.822v-1.91h-1v1.91h1zm0-3.822v-1.91h-1v1.91h1zm0-3.822v-1.91h-1v1.91h1zm0-3.822V3.47h-1v1.91h1zm0-3.822V.603h-1v.955h1zm-.5-1.455h-.924v1h.924v-1zm-2.77 0h-1.846v1h1.846v-1zm-3.692 0h-1.846v1h1.846v-1zm-3.692 0h-.923v1h.923v-1zm-1.397.339l-.349 1.024.947.323.349-1.025-.947-.322zm-1.047 3.074l-.697 2.05.946.322.698-2.05-.947-.322zm-1.395 4.098l-.698 2.05.947.322.697-2.05-.946-.322zm-1.396 4.1l-.698 2.048.947.323.698-2.05-.947-.322zm-1.396 4.098l-.697 2.05.946.322.698-2.05-.947-.322zm-1.395 4.098l-.698 2.05.947.322.697-2.05-.946-.322zm-1.396 4.1l-.349 1.024.947.322.349-1.025-.947-.322zm.597 1.022l-.303-.878-.945.326.303.878.945-.326zm-.908-2.635l-.606-1.756-.945.326.605 1.756.946-.326zm-1.212-3.513l-.605-1.757-.946.326.606 1.757.945-.326zm-1.211-3.513l-.606-1.757-.945.326.605 1.757.946-.326zm-1.212-3.513l-.605-1.757-.946.326.606 1.757.945-.326zm-1.211-3.513l-.606-1.757-.945.326.606 1.757.945-.326zm-1.211-3.514l-.606-1.756-.946.326.606 1.756.946-.326zm-1.212-3.513l-.303-.878-.945.326.303.878.945-.326zm-.775-1.215h-.981v1h.981v-1zm-2.942 0h-1.961v1h1.961v-1zm-3.922 0h-1.961v1h1.961v-1zm-3.922 0h-.98v1h.98v-1zm-.98.5v-1h-1v1h1zm11.766 0l.945-.326-.232-.674h-.713v1zm8.48 24.592l-.946.326.951 2.759.941-2.763-.946-.322zM220.058.603v-1h-.716l-.231.678.947.322zm11.077 0h1v-1h-1v1zm0 34.397v1h1v-1h-1zm-7.473 0h-1v1h1v-1zm0-25.44h1v-1h-1v1zm-.159 0v-1h-.716l-.231.677.947.323zM214.811 35v1h.715l.231-.677-.946-.323zm-6.625 0l-.944.332.235.668h.709v-1zm-8.957-25.44l.943-.332-.235-.668h-.708v1zm-.212 0v-1h-1v1h1zm0 25.44v1h1v-1h-1zm-7.579 0h-1v1h1v-1zm-1-34.397v.955h2V.603h-2zm0 2.866V5.38h2V3.47h-2zm0 3.822v1.911h2v-1.91h-2zm0 3.822v1.911h2v-1.91h-2zm0 3.822v1.911h2v-1.91h-2zm0 3.822v1.91h2v-1.91h-2zm0 3.822v1.91h2v-1.91h-2zm0 3.822v1.91h2v-1.91h-2zm0 3.822v1.91h2v-1.91h-2zm0 3.822V35h2v-.956h-2zm1 1.955h.947v-2h-.947v2zm2.842 0h1.894v-2h-1.894v2zm3.789 0h.948v-2h-.948v2zm1.948-1v-1.06h-2V35h2zm0-3.18V29.7h-2v2.12h2zm0-4.24v-2.12h-2v2.12h2zm0-4.24v-2.12h-2v2.12h2zm0-4.24v-2.12h-2v2.12h2zm0-4.24v-2.12h-2v2.12h2zm0-4.24V9.56h-2v1.06h2zm-1-.06h.053v-2h-.053v2zm.159 0h.053v-2h-.053v2zm-.891-.668l.32.909 1.887-.665-.32-.908-1.887.664zm.96 2.726l.64 1.817 1.886-.664-.64-1.817-1.886.664zm1.28 3.634l.639 1.817 1.887-.664-.64-1.817-1.886.664zm1.279 3.634l.64 1.817 1.886-.664-.639-1.817-1.887.664zm1.28 3.635l.639 1.817 1.887-.664-.64-1.817-1.886.664zm1.279 3.634l.64 1.817 1.887-.664-.64-1.817-1.887.664zm1.28 3.634l.64 1.817 1.886-.664-.64-1.817-1.886.664zm1.279 3.634l.32.91 1.887-.665-.32-.909-1.887.664zM208.186 36h.828v-2h-.828v2zm2.484 0h1.656v-2h-1.656v2zm3.312 0h.829v-2h-.829v2zm1.775-.677l.31-.908-1.892-.647-.311.909 1.893.646zm.931-2.725l.621-1.817-1.893-.647-.62 1.817 1.892.647zm1.242-3.635l.621-1.817-1.893-.646-.621 1.817 1.893.646zm1.242-3.634l.62-1.817-1.892-.647-.621 1.817 1.893.647zm1.241-3.634l.621-1.817-1.892-.647-.621 1.817 1.892.647zm1.242-3.634l.621-1.818-1.893-.646-.621 1.817 1.893.646zm1.242-3.635l.621-1.817-1.893-.647-.621 1.818 1.893.646zm1.241-3.634l.311-.909-1.893-.646-.31.908 1.892.647zm-.635-.232h.039v-2h-.039v2zm.119 0h.04v-2h-.04v2zm-.96-1v1.06h2V9.56h-2zm0 3.18v2.12h2v-2.12h-2zm0 4.24v2.12h2v-2.12h-2zm0 4.24v2.12h2v-2.12h-2zm0 4.24v2.12h2v-2.12h-2zm0 4.24v2.12h2V29.7h-2zm0 4.24V35h2v-1.06h-2zm1 2.06h.934v-2h-.934v2zm2.802 0h1.868v-2h-1.868v2zm3.736 0h.935v-2h-.935v2zm1.935-1v-.956h-2V35h2zm0-2.866v-1.911h-2v1.91h2zm0-3.822V26.4h-2v1.91h2zm0-3.822v-1.911h-2v1.91h2zm0-3.822v-1.911h-2v1.91h2zm0-3.822v-1.91h-2v1.91h2zm0-3.822v-1.91h-2v1.91h2zm0-3.822v-1.91h-2v1.91h2zm0-3.822V3.47h-2v1.91h2zm0-3.822V.603h-2v.955h2zm-1-1.955h-.924v2h.924v-2zm-2.77 0h-1.846v2h1.846v-2zm-3.692 0h-1.846v2h1.846v-2zm-3.692 0h-.923v2h.923v-2zm-1.87.678l-.349 1.024 1.893.645.349-1.025-1.893-.644zm-1.047 3.074l-.698 2.049 1.894.645.697-2.05-1.893-.644zm-1.395 4.098l-.698 2.05 1.893.644.698-2.049-1.893-.645zm-1.396 4.099l-.698 2.05 1.893.644.698-2.05-1.893-.644zm-1.396 4.099l-.698 2.049 1.894.645.697-2.05-1.893-.644zm-1.395 4.098l-.698 2.05 1.893.644.698-2.049-1.893-.645zm-1.396 4.099l-.349 1.025 1.893.644.349-1.024-1.893-.645zm1.543 1.021l-.303-.878-1.891.652.303.878 1.891-.652zm-.909-2.635l-.605-1.756-1.891.652.606 1.756 1.89-.652zm-1.211-3.513l-.606-1.757-1.891.652.606 1.757 1.891-.652zm-1.212-3.513l-.605-1.757-1.891.652.606 1.757 1.89-.652zm-1.211-3.513l-.606-1.757-1.89.652.605 1.757 1.891-.652zm-1.211-3.513l-.606-1.757-1.891.652.606 1.757 1.891-.652zm-1.212-3.514l-.606-1.756-1.89.652.605 1.756 1.891-.652zm-1.211-3.513l-.303-.878-1.891.652.303.878 1.891-.652zm-1.248-1.552h-.981v2h.981v-2zm-2.942 0h-1.961v2h1.961v-2zm-3.922 0h-1.961v2h1.961v-2zm-3.922 0h-.98v2h.98v-2zm59.793 35.715l-.058.497h.001l.057-.497zm-3.975-.795l.13-.483h-.004l-.126.483zm-4.028-1.643l-.277.416.01.006.267-.422zm-2.65-2.915l.434-.248-.005-.01-.429.258zm25.758-28.726h.5V.817l-.416-.07-.084.492zm0 6.201l-.117.486.617.149V7.44h-.5zM253.43 6.062l-.047-.498h-.003l.05.498zm-2.226.53l.161.473.01-.003-.171-.47zm16.324 21.518h.5v-.63l-.613.143.113.487zm0 6.254l.101.49.399-.082v-.408h-.5zm-11.13.666c-.354 0-.7-.004-1.038-.011l-.021 1c.344.007.698.011 1.059.011v-1zm-3.104-.11a28.884 28.884 0 01-1.026-.099l-.114.994c.343.039.697.073 1.062.101l.078-.997zm-1.024-.099a21.486 21.486 0 01-.982-.139l-.162.987c.351.058.693.106 1.027.146l.117-.994zm-2.935-.535a35.996 35.996 0 01-.969-.246l-.259.966c.338.09.671.175.997.253l.231-.973zm-.973-.247a19.745 19.745 0 01-1.022-.296l-.305.953c.345.11.703.214 1.075.31l.252-.967zm-2.98-1.075a9.818 9.818 0 01-.906-.506l-.535.844c.311.198.644.384.998.559l.443-.896zm-.897-.5a7.301 7.301 0 01-.737-.564l-.657.754c.267.233.547.447.84.642l.554-.832zm-1.985-1.951a9.684 9.684 0 01-.508-.796l-.868.496c.176.308.363.601.561.88l.815-.58zm-.513-.805a6.728 6.728 0 01-.475-.957l-.928.373c.154.383.336.749.545 1.098l.858-.514zm-.985-3.05c-.038-.35-.057-.714-.057-1.092h-1c0 .412.021.812.063 1.2l.994-.107zm-.057-1.092v-.944h-1v.944h1zm0-2.832v-1.888h-1v1.888h1zm0-3.776v-1.889h-1v1.889h1zm0-3.777v-1.888h-1v1.888h1zm0-3.776v-.944h-1v.944h1zm0-.944c0-.356.015-.701.044-1.036l-.997-.086a13.25 13.25 0 00-.047 1.122h1zm.427-3.045a7.726 7.726 0 01.837-1.838l-.847-.531a8.736 8.736 0 00-.946 2.073l.956.296zm2.127-3.39a9.268 9.268 0 011.648-1.208l-.503-.864a10.26 10.26 0 00-1.825 1.338l.68.733zm3.521-2.088a17.164 17.164 0 012.002-.612l-.236-.971a18.2 18.2 0 00-2.119.647l.353.936zm4.076-1.012c.668-.1 1.37-.178 2.106-.235l-.078-.997c-.757.059-1.482.14-2.175.243l.147.989zm4.234-.34c.35-.009.706-.013 1.068-.013v-1c-.37 0-.733.004-1.091.012l.023 1zm1.068-.013c.289 0 .59.004.901.013l.029-1c-.321-.008-.63-.013-.93-.013v1zm2.709.107c.574.042 1.177.095 1.809.16l.103-.994a58.964 58.964 0 00-1.84-.163l-.072.997zm3.617.371c.581.075 1.182.158 1.805.25l.146-.99a98.119 98.119 0 00-1.824-.252l-.127.992zm3.608.53l.9.15.168-.985c-.306-.052-.609-.103-.907-.151l-.161.986zm.484-.342v.775h1V1.24h-1zm0 2.325v1.55h1v-1.55h-1zm0 3.1v.776h1v-.775h-1zm.617.29c-.3-.073-.598-.143-.894-.21l-.222.975c.291.067.585.135.882.207l.234-.972zm-2.69-.593a56.704 56.704 0 00-1.81-.329l-.162.987c.58.095 1.172.203 1.777.323l.195-.981zm-3.632-.595a42.01 42.01 0 00-1.835-.192l-.081.997c.581.048 1.178.11 1.79.187l.126-.992zm-3.681-.296a31.2 31.2 0 00-.926-.014v1c.294 0 .593.004.897.014l.029-1zm-.926-.014c-.27 0-.529.001-.775.004l.012 1c.242-.003.497-.004.763-.004v-1zm-2.333.051c-.288.016-.551.035-.788.057l.095.996c.22-.021.469-.04.746-.054l-.053-.999zm-.791.057c-.199.02-.401.048-.604.084l.172.985c.18-.032.358-.056.532-.073l-.1-.996zm-1.778.368a11.52 11.52 0 00-.569.19l.342.94c.175-.064.348-.122.519-.174l-.292-.956zm-.559.187c-.453.154-.86.358-1.215.616l.587.81c.265-.192.579-.353.95-.48l-.322-.946zm-2.691 2.915a5.91 5.91 0 00-.139 1.321h1c0-.406.039-.771.114-1.097l-.975-.224zm-.139 1.321v.914h1v-.914h-1zm0 2.743v1.828h1v-1.828h-1zm0 3.657v1.828h1v-1.828h-1zm0 3.657v1.828h1v-1.828h-1zm0 3.657v.914h1v-.914h-1zm0 .914c0 .348.033.683.099 1.004l.979-.203a3.974 3.974 0 01-.078-.801h-1zm1.001 2.84c.417.482.953.881 1.596 1.203l.449-.893c-.548-.275-.972-.598-1.288-.963l-.757.654zm3.407 1.852c.564.141 1.181.25 1.848.326l.115-.993a13.631 13.631 0 01-1.722-.303l-.241.97zm3.7.458c.3.01.609.014.925.014v-1c-.306 0-.604-.005-.893-.014l-.032 1zm.925.014c.284 0 .581-.007.889-.02l-.044-1c-.295.014-.576.02-.845.02v1zm2.651-.155c.55-.058 1.131-.133 1.742-.223l-.146-.99c-.599.09-1.166.162-1.701.218l.105.995zm3.47-.507a73.782 73.782 0 001.716-.329l-.199-.98c-.586.12-1.15.228-1.693.325l.176.984zm3.424-.694c.279-.063.563-.127.85-.194l-.226-.974-.842.192.218.976zm.237-.681v.782h1v-.782h-1zm0 2.345v1.564h1v-1.564h-1zm0 3.127v.782h1v-.782h-1zm.399.292a57.2 57.2 0 01-.909.18l.187.982c.307-.058.615-.119.924-.182l-.202-.98zm-2.734.496c-.613.096-1.224.182-1.834.257l.123.992c.62-.076 1.242-.163 1.866-.261l-.155-.988zm-3.675.453c-.617.055-1.232.099-1.846.132l.054.998a54.237 54.237 0 001.881-.134l-.089-.996zm-3.695.199a51.02 51.02 0 01-.925.008v1c.314 0 .628-.003.943-.009l-.018-1zm-5.112.296l-.117.993h.004l.113-.993zm-3.975-.795l.259-.966-.006-.002-.253.968zm-4.028-1.643l-.555.832.01.006.01.007.535-.845zm-2.65-2.915l.868-.496-.005-.01-.005-.008-.858.514zm25.758-28.726h1V.395l-.832-.142-.168.986zm0 6.201l-.234.972 1.234.298V7.44h-1zM253.43 6.062l-.095-.996-.004.001.099.995zm-2.226.53l.322.947.01-.004.01-.003-.342-.94zm16.324 21.518h1v-1.259l-1.226.285.226.974zm0 6.254l.202.98.798-.165v-.815h-1zm-11.13.166c-.351 0-.693-.004-1.027-.011l-.043 2c.348.007.705.011 1.07.011v-2zm-3.066-.11a25.596 25.596 0 01-1.007-.096l-.227 1.988c.349.04.708.074 1.079.103l.155-1.994zm-1.004-.095c-.31-.037-.629-.082-.959-.136l-.324 1.974c.358.058.708.108 1.049.148l.234-1.986zm-2.877-.525a36.42 36.42 0 01-.956-.243l-.518 1.932c.343.092.68.177 1.011.256l.463-1.945zm-.962-.245a18.91 18.91 0 01-.997-.288l-.609 1.905c.354.113.721.22 1.101.319l.505-1.936zm-2.885-1.039a9.389 9.389 0 01-.861-.48l-1.07 1.689c.328.207.676.402 1.044.584l.887-1.793zm-.841-.468a6.697 6.697 0 01-.687-.525l-1.314 1.508c.283.247.58.474.891.681l1.11-1.664zm-1.856-1.825a9.159 9.159 0 01-.481-.754l-1.736.992c.184.322.38.63.588.922l1.629-1.16zm-.491-.772a6.213 6.213 0 01-.44-.887l-1.856.746c.164.407.357.797.581 1.17l1.715-1.03zm-.916-2.846a9.624 9.624 0 01-.055-1.039h-2c0 .428.022.847.066 1.255l1.989-.216zm-.055-1.039v-.944h-2v.944h2zm0-2.832v-1.888h-2v1.888h2zm0-3.776v-1.889h-2v1.889h2zm0-3.777v-1.888h-2v1.888h2zm0-3.776v-.944h-2v.944h2zm0-.944c0-.342.014-.673.042-.993l-1.993-.172c-.033.38-.049.768-.049 1.165h2zm.404-2.897a7.284 7.284 0 01.784-1.72l-1.695-1.063a9.258 9.258 0 00-.999 2.192l1.91.59zm1.99-3.172a8.768 8.768 0 011.559-1.142l-1.006-1.729c-.708.412-1.347.88-1.913 1.405l1.36 1.466zm3.357-1.986a16.685 16.685 0 011.944-.594l-.472-1.943c-.77.187-1.496.408-2.177.665l.705 1.872zm3.974-.986a30.001 30.001 0 012.071-.23l-.156-1.995c-.767.06-1.504.142-2.209.247l.294 1.978zm4.172-.335a45.45 45.45 0 011.056-.012v-2c-.373 0-.741.004-1.103.013l.047 1.999zm1.056-.012c.284 0 .58.004.887.013l.057-1.999c-.325-.01-.639-.014-.944-.014v2zm2.673.106c.568.04 1.166.094 1.793.159l.207-1.99a59.49 59.49 0 00-1.856-.164l-.144 1.995zm3.589.368c.578.074 1.176.157 1.796.248l.292-1.978a98.036 98.036 0 00-1.834-.254l-.254 1.984zm3.591.528c.295.048.594.098.897.15l.336-1.972-.91-.152-.323 1.974zm.065-.836v.775h2V1.24h-2zm0 2.325v1.55h2v-1.55h-2zm0 3.1v.776h2v-.775h-2zm1.235-.196a71.732 71.732 0 00-.901-.211l-.444 1.95c.289.066.581.134.876.205l.469-1.944zm-2.711-.597a56.974 56.974 0 00-1.826-.332l-.324 1.973c.574.095 1.161.201 1.761.32l.389-1.961zm-3.667-.6a42.456 42.456 0 00-1.856-.195l-.163 1.993c.574.047 1.163.109 1.769.185l.25-1.984zm-3.728-.3a29.91 29.91 0 00-.941-.015v2c.289 0 .583.004.882.013l.059-1.999zm-.941-.015c-.272 0-.532.002-.781.005l.024 2c.24-.004.492-.005.757-.005v-2zm-2.36.052a19.77 19.77 0 00-.809.058l.19 1.992c.212-.02.454-.038.725-.053l-.106-1.997zm-.813.059c-.212.021-.426.05-.641.088l.344 1.97a6.84 6.84 0 01.496-.068l-.199-1.99zm-1.876.387c-.196.06-.394.126-.593.198l.684 1.88c.168-.061.332-.116.494-.166l-.585-1.912zm-.573.191a5.045 5.045 0 00-1.348.686l1.175 1.618c.219-.159.488-.298.817-.41l-.644-1.894zm-3.017 3.278c-.104.452-.152.93-.152 1.432h2c0-.374.036-.701.101-.985l-1.949-.447zm-.152 1.432v.914h2v-.914h-2zm0 2.743v1.828h2v-1.828h-2zm0 3.657v1.828h2v-1.828h-2zm0 3.657v1.828h2v-1.828h-2zm0 3.657v.914h2v-.914h-2zm0 .914c0 .38.036.748.11 1.106l1.958-.407a3.435 3.435 0 01-.068-.699h-2zm1.123 3.168c.467.54 1.06.976 1.75 1.322l.897-1.787c-.5-.25-.869-.536-1.134-.843l-1.513 1.308zm3.664 2.01c.589.146 1.227.258 1.911.337l.23-1.987a13.111 13.111 0 01-1.658-.291l-.483 1.94zm3.805.471c.306.01.62.015.941.015v-2c-.301 0-.594-.005-.877-.013l-.064 1.998zm.941.015c.292 0 .596-.007.911-.02l-.087-1.999c-.289.013-.563.019-.824.019v2zm2.703-.158a42.669 42.669 0 001.763-.225l-.292-1.979a40.69 40.69 0 01-1.681.215l.21 1.989zm3.506-.512c.556-.099 1.132-.21 1.728-.331l-.399-1.96c-.582.119-1.143.226-1.681.323l.352 1.968zm3.445-.698l.854-.195-.452-1.948c-.284.066-.563.13-.838.19l.436 1.953zm-.372-1.169v.782h2v-.782h-2zm0 2.345v1.564h2v-1.564h-2zm0 3.127v.782h2v-.782h-2zm.799-.197c-.301.061-.602.12-.902.178l.373 1.965c.31-.06.621-.12.932-.184l-.403-1.96zm-2.711.491a58.36 58.36 0 01-1.818.255l.245 1.985a57.84 57.84 0 001.883-.264l-.31-1.976zm-3.642.449c-.612.054-1.221.098-1.829.13l.108 1.998c.631-.035 1.264-.08 1.898-.136l-.177-1.992zm-3.66.197c-.306.005-.611.008-.916.008v2c.317 0 .635-.003.952-.009l-.036-2zm24.507-12.878l.415.28.454-.674-.806-.102-.063.496zm-4.982-2.12l.359-.348-.359.348zm1.431-17.225l.236.441.006-.003-.242-.438zM303.445.603h.5v-.5h-.5v.5zm0 34.397v.5h.5V35h-.5zm-8.268 0h-.5v.5h.5V35zm0-12.72h.5v-.5h-.5v.5zm-4.876 0v-.5h-.275l-.147.232.422.268zM282.245 35v.5h.275l.148-.233-.423-.267zm-9.434 0l-.414-.28-.526.78h.94V35zm22.366-18.179v.5h.5v-.5h-.5zm0-10.335h.5v-.5h-.5v.5zm-10.759.742l.263.425.006-.003-.269-.422zm-.053 8.851l-.3.4.007.005.006.005.287-.41zm-2.958 5.285l-.563.835.829.56.563-.835-.829-.56zm-1.69 2.505l-1.126 1.67.829.558 1.126-1.67-.829-.558zm-2.252 3.339l-1.126 1.67.829.558 1.126-1.67-.829-.558zm-2.253 3.339l-1.126 1.67.829.558 1.126-1.67-.829-.558zm-2.252 3.339l-.563.834.829.56.563-.835-.829-.56zm-.149 1.614h1.179v-1h-1.179v1zm3.538 0h2.358v-1h-2.358v1zm4.717 0h1.179v-1h-1.179v1zm1.602-.233l.503-.795-.845-.535-.503.796.845.535zm1.51-2.385l1.007-1.59-.845-.535-1.007 1.59.845.535zm2.014-3.18l1.007-1.59-.845-.534-1.007 1.59.845.535zm2.014-3.18l1.007-1.59-.845-.534-1.007 1.59.845.535zm2.014-3.18l.504-.794-.845-.535-.504.794.845.536zm.081-.562h1.219v-1h-1.219v1zm3.657 0h1.219v-1h-1.219v1zm.719-.5v1.06h1v-1.06h-1zm0 3.18v2.12h1v-2.12h-1zm0 4.24v2.12h1V29.7h-1zm0 4.24V35h1v-1.06h-1zm.5 1.56h1.034v-1h-1.034v1zm3.101 0h2.067v-1h-2.067v1zm4.134 0h1.033v-1h-1.033v1zm1.533-.5v-.956h-1V35h1zm0-2.866v-1.911h-1v1.91h1zm0-3.822V26.4h-1v1.91h1zm0-3.822v-1.911h-1v1.91h1zm0-3.822v-1.911h-1v1.91h1zm0-3.822v-1.91h-1v1.91h1zm0-3.822v-1.91h-1v1.91h1zm0-3.822v-1.91h-1v1.91h1zm0-3.822V3.47h-1v1.91h1zm0-3.822V.603h-1v.955h1zm-.5-1.455h-.951v1h.951v-1zm-2.852 0h-1.901v1h1.901v-1zm-3.803 0h-1.901v1h1.901v-1zm-3.802 0h-1.902v1h1.902v-1zm-3.803 0h-.951v1h.951v-1zm-.951 0c-.291 0-.577.002-.858.007l.016 1c.276-.005.556-.007.842-.007v-1zm-2.577.066a35.54 35.54 0 00-1.719.133l.103.994a34.42 34.42 0 011.67-.129l-.054-.998zm-3.435.364c-.609.103-1.178.225-1.708.367l.258.966a17.835 17.835 0 011.617-.347l-.167-.986zm-3.384.936a8.813 8.813 0 00-.809.392l.483.876c.221-.122.461-.239.718-.349l-.392-.92zm-.804.389a6.963 6.963 0 00-.768.476l.581.813c.204-.145.423-.281.659-.407l-.472-.882zm-2.078 1.748a5.887 5.887 0 00-.851 1.616l.944.327a4.96 4.96 0 01.707-1.344l-.8-.6zm-1.22 3.373a9.45 9.45 0 00-.04.885h1c0-.275.012-.539.036-.793l-.996-.092zm-.04.885v.855h1v-.855h-1zm0 2.564v1.71h1v-1.71h-1zm0 3.418v.855h1v-.855h-1zm0 .855c0 .477.028.932.083 1.367l.992-.127a9.72 9.72 0 01-.075-1.24h-1zm.928 4.027c.239.42.524.801.856 1.144l.718-.696a4.657 4.657 0 01-.705-.943l-.869.495zm.856 1.144c.341.352.731.665 1.166.938l.531-.847a5.22 5.22 0 01-.979-.787l-.718.696zm3.869 2.018c.445.104.915.187 1.409.25l.126-.992a12.783 12.783 0 01-1.307-.232l-.228.974zm14.828-5.569h-.854v1h.854v-1zm-2.564 0h-1.709v1h1.709v-1zm-3.418 0h-.855v1h.855v-1zm-.855 0c-.355 0-.687-.008-.996-.025l-.054.998c.329.018.68.027 1.05.027v-1zm-2.905-.305c-.346-.1-.602-.22-.783-.347l-.574.82c.297.207.662.366 1.077.487l.28-.96zm-.77-.337a1.623 1.623 0 01-.418-.473l-.858.514c.181.3.405.556.676.759l.6-.8zm-.821-1.847a7.122 7.122 0 01-.039-.774h-1c0 .31.015.605.045.882l.994-.108zm-.039-.774v-.808h-1v.808h1zm0-2.425v-.808h-1v.808h1zm0-.808c0-.243.015-.466.043-.669l-.99-.137a5.758 5.758 0 00-.053.806h1zm.465-1.8c.114-.149.251-.272.411-.372l-.526-.85a2.524 2.524 0 00-.679.614l.794.608zm.417-.375c.204-.13.466-.247.796-.346l-.286-.958c-.396.118-.748.27-1.047.46l.537.844zm2.673-.637c.306-.018.632-.027.98-.027v-1c-.365 0-.711.01-1.038.029l.058.998zm.98-.027h.855v-1h-.855v1zm2.564 0h1.709v-1h-1.709v1zm3.419 0h.854v-1h-.854v1zm.354-.5v.861h1v-.861h-1zm0 2.584v1.722h1V9.07h-1zm0 3.445v1.722h1v-1.722h-1zm0 3.445v.861h1v-.861h-1zm-12.856 5.684l.829.56.909-1.347-1.612-.205-.126.992zm-4.982-2.12l.718-.696-.718.696zm1.431-17.225l.472.882.011-.006-.483-.876zM303.445.603h1v-1h-1v1zm0 34.397v1h1v-1h-1zm-8.268 0h-1v1h1v-1zm0-12.72h1v-1h-1v1zm-4.876 0v-1h-.55l-.295.465.845.535zM282.245 35v1h.551l.294-.465-.845-.535zm-9.434 0l-.829-.56L270.93 36h1.881v-1zm22.366-18.179v1h1v-1h-1zm0-10.335h1v-1h-1v1zm-10.759.742l.527.85.01-.006-.537-.844zm-.053 8.851l-.6.8.013.01.014.01.573-.82zm-3.373 5.006l-.563.834 1.658 1.119.563-.835-1.658-1.118zm-1.689 2.504l-1.126 1.67 1.658 1.118 1.126-1.67-1.658-1.118zm-2.253 3.339l-1.126 1.67 1.658 1.118 1.126-1.67-1.658-1.118zm-2.252 3.339l-1.126 1.67 1.658 1.118 1.126-1.67-1.658-1.118zm-2.253 3.339l-.563.835 1.658 1.118.563-.834-1.658-1.119zm.266 2.394h1.179v-2h-1.179v2zm3.538 0h2.358v-2h-2.358v2zm4.717 0h1.179v-2h-1.179v2zm2.024-.465l.503-.795-1.689-1.07-.504.795 1.69 1.07zm1.51-2.385l1.007-1.59-1.689-1.07-1.007 1.59 1.689 1.07zm2.014-3.18l1.007-1.59-1.689-1.07-1.007 1.59 1.689 1.07zm2.014-3.18l1.007-1.59-1.689-1.07-1.007 1.59 1.689 1.07zm2.014-3.18l.504-.795-1.69-1.07-.503.795 1.689 1.07zm-.341-.33h1.219v-2h-1.219v2zm3.657 0h1.219v-2h-1.219v2zm.219-1v1.06h2v-1.06h-2zm0 3.18v2.12h2v-2.12h-2zm0 4.24v2.12h2V29.7h-2zm0 4.24V35h2v-1.06h-2zm1 2.06h1.034v-2h-1.034v2zm3.101 0h2.067v-2h-2.067v2zm4.134 0h1.033v-2h-1.033v2zm2.033-1v-.956h-2V35h2zm0-2.866v-1.911h-2v1.91h2zm0-3.822V26.4h-2v1.91h2zm0-3.822v-1.911h-2v1.91h2zm0-3.822v-1.911h-2v1.91h2zm0-3.822v-1.91h-2v1.91h2zm0-3.822v-1.91h-2v1.91h2zm0-3.822v-1.91h-2v1.91h2zm0-3.822V3.47h-2v1.91h2zm0-3.822V.603h-2v.955h2zm-1-1.955h-.951v2h.951v-2zm-2.852 0h-1.901v2h1.901v-2zm-3.803 0h-1.901v2h1.901v-2zm-3.802 0h-1.902v2h1.902v-2zm-3.803 0h-.951v2h.951v-2zm-.951 0c-.293 0-.582.002-.866.007l.032 2c.273-.005.551-.007.834-.007v-2zm-2.604.066a36.65 36.65 0 00-1.743.135l.205 1.99c.521-.054 1.07-.096 1.646-.128L285.63-.33zm-3.492.37a19.28 19.28 0 00-1.753.378l.516 1.932c.48-.128 1.004-.24 1.572-.337L282.138.04zm-3.496.97c-.3.128-.585.266-.855.414l.966 1.752c.206-.114.43-.223.673-.327l-.784-1.84zm-.843.408c-.29.155-.565.325-.824.51l1.163 1.627a5.43 5.43 0 01.604-.373l-.943-1.764zm-2.243 1.89a6.424 6.424 0 00-.924 1.75l1.89.656a4.38 4.38 0 01.635-1.208l-1.601-1.199zm-1.318 3.626a10.11 10.11 0 00-.042.931h2c0-.26.011-.509.033-.747l-1.991-.184zm-.042.931v.855h2v-.855h-2zm0 2.564v1.71h2v-1.71h-2zm0 3.418v.855h2v-.855h-2zm0 .855c0 .496.029.973.087 1.43l1.984-.254a9.23 9.23 0 01-.071-1.176h-2zm.993 4.274c.26.456.57.872.932 1.245l1.436-1.392a4.182 4.182 0 01-.63-.842l-1.738.99zm.932 1.245c.371.383.792.72 1.259 1.013l1.063-1.694a4.748 4.748 0 01-.886-.71l-1.436 1.39zm4.114 2.156c.463.11.95.195 1.46.26l.252-1.984a12.254 12.254 0 01-1.255-.223l-.457 1.947zm14.942-6.555h-.854v2h.854v-2zm-2.564 0h-1.709v2h1.709v-2zm-3.418 0h-.855v2h.855v-2zm-.855 0c-.347 0-.67-.008-.969-.024l-.108 1.997c.34.018.699.027 1.077.027v-2zm-2.766-.285c-.31-.09-.512-.19-.635-.276l-1.147 1.638c.354.248.773.427 1.224.558l.558-1.92zm-.609-.257a1.133 1.133 0 01-.289-.33l-1.715 1.028c.21.351.477.657.804.902l1.2-1.6zm-.624-1.5a6.837 6.837 0 01-.036-.721h-2c0 .326.016.638.048.936l1.988-.216zm-.036-.721v-.808h-2v.808h2zm0-2.425v-.808h-2v.808h2zm0-.808c0-.223.014-.423.038-.6l-1.981-.275a6.35 6.35 0 00-.057.875h2zm.362-1.495a1 1 0 01.278-.252l-1.053-1.7a3.033 3.033 0 00-.813.735l1.588 1.217zm.288-.258c.156-.1.374-.2.671-.289l-.572-1.916a4.67 4.67 0 00-1.173.517l1.074 1.688zm2.435-.56c.294-.017.611-.026.95-.026v-2c-.373 0-.73.01-1.068.03l.118 1.996zm.95-.026h.855v-2h-.855v2zm2.564 0h1.709v-2h-1.709v2zm3.419 0h.854v-2h-.854v2zm-.146-1v.861h2v-.861h-2zm0 2.584v1.722h2V9.07h-2zm0 3.445v1.722h2v-1.722h-2zm0 3.445v.861h2v-.861h-2z" fill="#77C2F9" fill-opacity=".9"/></svg>