<svg width="40" height="40" fill="none" xmlns="http://www.w3.org/2000/svg"><path d="M13.46 3.73C6.323 3.73.54 8.107.54 13.512c0 2.92 1.676 5.568 4.379 7.352v5.892l5.838-3.622c.865.162 1.784.216 2.702.216 7.082 0 12.865-4.432 12.865-9.838 0-5.405-5.784-9.784-12.865-9.784z" fill="#fff"/><path d="M34.806 29.961l-.225.148v5.263l-5.074-3.148-.165-.103-.19.036c-.825.155-1.71.208-2.611.208-3.47 0-6.59-1.065-8.834-2.764-2.242-1.697-3.585-4.006-3.585-6.517.026-2.543 1.384-4.867 3.627-6.571 2.243-1.706 5.35-2.77 8.792-2.77 3.468 0 6.59 1.065 8.833 2.764 2.243 1.698 3.585 4.008 3.585 6.52 0 2.714-1.557 5.22-4.153 6.934z" fill="#fff" stroke="url(#a)"/><path d="M33.514 24.649a1.568 1.568 0 100-3.135 1.568 1.568 0 000 3.135zm-6.974 0a1.568 1.568 0 100-3.135 1.568 1.568 0 000 3.135zm-6.918 0a1.568 1.568 0 100-3.135 1.568 1.568 0 000 3.135z" fill="#076A29"/><defs><linearGradient id="a" x1="26.5" y1="13.5" x2="32" y2="38" gradientUnits="userSpaceOnUse"><stop stop-color="#0C8C33"/><stop offset="1" stop-color="#056327"/></linearGradient></defs></svg>