<svg width="300" height="36" viewBox="0 0 300 36" fill="none" xmlns="http://www.w3.org/2000/svg">
<path d="M11.939 35.159L11.8621 35.6531L11.8638 35.6533L11.939 35.159ZM6.957 33.887L7.12089 33.4146L7.11779 33.4136L6.957 33.887ZM2.558 30.813L2.15446 31.1083L2.158 31.113L2.558 30.813ZM2.081 5.956L1.6482 5.70543L1.64338 5.71416L2.081 5.956ZM5.049 2.776L4.78146 2.35357L4.77737 2.35621L5.049 2.776ZM8.971 1.08L9.11267 1.55951L8.971 1.08ZM13.317 0.231999L13.3564 0.730459L13.3597 0.730172L13.317 0.231999ZM21.479 0.284998L21.4206 0.781573L21.4278 0.782424L21.4351 0.783063L21.479 0.284998ZM25.507 1.027L25.6471 0.546815L25.6337 0.543312L25.507 1.027ZM29.694 2.829L29.9651 2.40885L29.9651 2.40885L29.694 2.829ZM32.45 5.797L32.0181 6.04894L32.0202 6.05254L32.45 5.797ZM32.079 30.495L31.6777 30.1966L31.6728 30.2034L32.079 30.495ZM27.945 33.622L27.7593 33.1578L27.945 33.622ZM20.26 29.541L20.3053 30.0389L20.315 30.0381L20.3247 30.0368L20.26 29.541ZM22.751 29.011L22.611 28.531L22.751 29.011ZM24.659 27.792L24.2618 27.4883L24.259 27.492L24.659 27.792ZM23.387 7.016L23.1492 7.45595L23.1586 7.46078L23.387 7.016ZM11.197 6.963L10.9686 6.51821L11.197 6.963ZM9.925 27.792L9.52782 28.0957L9.5323 28.1016L9.53694 28.1073L9.925 27.792ZM11.939 29.011L12.079 28.531L12.0738 28.5295L11.939 29.011ZM14.377 29.541L14.3094 30.0364L14.3215 30.0381L14.3337 30.0391L14.377 29.541ZM17.239 35.03C16.7931 35.03 16.3552 35.0232 15.9255 35.0095L15.8938 36.009C16.3345 36.023 16.7829 36.03 17.239 36.03V35.03ZM13.3106 34.832C12.8683 34.7847 12.4362 34.7289 12.0142 34.6647L11.8638 35.6533C12.301 35.7198 12.7478 35.7775 13.2041 35.8264L13.3106 34.832ZM12.0159 34.6649C11.6075 34.6014 11.194 34.5259 10.7752 34.4384L10.5707 35.4173C11.0057 35.5082 11.4362 35.5868 11.8621 35.6531L12.0159 34.6649ZM8.32641 33.8074C7.92881 33.6864 7.52697 33.5555 7.12089 33.4146L6.79311 34.3594C7.21094 34.5043 7.62501 34.6393 8.0353 34.7641L8.32641 33.8074ZM7.11779 33.4136C6.69383 33.2696 6.29337 33.1054 5.91602 32.9213L5.47758 33.8201C5.89493 34.0236 6.3346 34.2037 6.79621 34.3604L7.11779 33.4136ZM3.80665 31.4694C3.49841 31.1751 3.21557 30.8564 2.958 30.513L2.158 31.113C2.44841 31.5002 2.76783 31.8602 3.11615 32.1927L3.80665 31.4694ZM2.96152 30.5177C2.703 30.1644 2.47835 29.7924 2.28731 29.4014L1.38881 29.8403C1.60593 30.2848 1.86124 30.7075 2.15449 31.1083L2.96152 30.5177ZM1.5511 26.8925C1.49587 26.468 1.468 26.0259 1.468 25.566H0.468C0.468 26.0663 0.498317 26.5516 0.559459 27.0215L1.5511 26.8925ZM1.468 25.566V24.6252H0.468V25.566H1.468ZM1.468 22.7438V20.8623H0.468V22.7438H1.468ZM1.468 18.9808V17.0993H0.468V18.9808H1.468ZM1.468 15.2177V13.3362H0.468V15.2177H1.468ZM1.468 11.4547V10.514H0.468V11.4547H1.468ZM1.468 10.514C1.468 10.1268 1.4882 9.75052 1.52835 9.38497L0.534329 9.2758C0.490022 9.67922 0.468 10.092 0.468 10.514H1.468ZM2.04768 7.2094C2.18144 6.86108 2.33841 6.52395 2.51862 6.19784L1.64338 5.71416C1.44085 6.08064 1.26442 6.45961 1.11415 6.85089L2.04768 7.2094ZM2.51371 6.20652C2.69233 5.89799 2.88215 5.606 3.08305 5.33033L2.27489 4.74137C2.05259 5.0464 1.84376 5.36784 1.64829 5.70548L2.51371 6.20652ZM4.48994 3.81117C4.75373 3.58856 5.03058 3.38346 5.32063 3.19578L4.77737 2.35621C4.4519 2.56681 4.14108 2.79708 3.845 3.04695L4.48994 3.81117ZM5.31653 3.19841C5.59444 3.0224 5.89149 2.85321 6.20796 2.69101L5.75185 1.80109C5.41028 1.97615 5.08673 2.16026 4.78147 2.35359L5.31653 3.19841ZM8.11705 1.88064C8.4358 1.76851 8.76765 1.66145 9.11267 1.55951L8.82933 0.600489C8.46898 0.706957 8.12091 0.81921 7.7852 0.937306L8.11705 1.88064ZM9.11267 1.55951C9.46862 1.45434 9.81847 1.35873 10.1622 1.27264L9.9193 0.302595C9.5614 0.392228 9.19808 0.491541 8.82933 0.600489L9.11267 1.55951ZM12.2861 0.850155C12.651 0.797836 13.0078 0.757968 13.3564 0.730448L13.2776 -0.26645C12.9069 -0.237181 12.5291 -0.194903 12.1442 -0.139723L12.2861 0.850155ZM13.3597 0.730172C13.6771 0.702964 13.9994 0.679278 14.3266 0.659123L14.2652 -0.338985C13.9302 -0.318352 13.5999 -0.294085 13.2743 -0.266174L13.3597 0.730172ZM16.2669 0.582098C16.5868 0.576033 16.9108 0.572998 17.239 0.572998V-0.427002C16.9046 -0.427002 16.5743 -0.42391 16.2479 -0.417723L16.2669 0.582098ZM17.239 0.572998C17.6004 0.572998 17.9509 0.576524 18.2906 0.583562L18.3113 -0.416224C17.9643 -0.423413 17.6069 -0.427002 17.239 -0.427002V0.572998ZM20.3836 0.681578C20.7464 0.709571 21.0921 0.742924 21.4206 0.781573L21.5374 -0.211576C21.1945 -0.251926 20.8355 -0.286532 20.4606 -0.315459L20.3836 0.681578ZM21.4351 0.783063C21.7542 0.81122 22.0845 0.849733 22.426 0.898712L22.568 -0.0911636C22.2097 -0.142537 21.8613 -0.183208 21.5229 -0.213066L21.4351 0.783063ZM24.4001 1.27005C24.7192 1.3429 25.0459 1.4231 25.3803 1.51068L25.6337 0.543312C25.2896 0.45319 24.9526 0.370454 24.6227 0.295135L24.4001 1.27005ZM25.367 1.507C25.7376 1.6151 26.0929 1.72814 26.4327 1.84605L26.7605 0.901291C26.4038 0.777546 26.0326 0.659469 25.647 0.546998L25.367 1.507ZM28.4748 2.70505C28.8153 2.87948 29.1312 3.06092 29.4229 3.24915L29.9651 2.40885C29.6431 2.20112 29.2981 2.00326 28.9307 1.81502L28.4748 2.70505ZM29.4229 3.24915C29.6894 3.42105 29.9449 3.61102 30.1895 3.81919L30.8376 3.05763C30.5598 2.82121 30.2689 2.6049 29.9651 2.40885L29.4229 3.24915ZM31.4882 5.23413C31.6736 5.48971 31.8503 5.76124 32.0181 6.04893L32.8819 5.54506C32.6981 5.23003 32.5034 4.93056 32.2976 4.64688L31.4882 5.23413ZM32.0202 6.05254C32.2136 6.37777 32.3816 6.72129 32.5241 7.0835L33.4547 6.71747C33.2929 6.30626 33.1014 5.91413 32.8798 5.54146L32.0202 6.05254ZM33.0568 9.33822C33.0962 9.71506 33.116 10.1069 33.116 10.514H34.116C34.116 10.0745 34.0946 9.64787 34.0514 9.23437L33.0568 9.33822ZM33.116 10.514V11.4548H34.116V10.514H33.116ZM33.116 13.3362V15.2177H34.116V13.3362H33.116ZM33.116 17.0993V18.9808H34.116V17.0993H33.116ZM33.116 20.8623V22.7438H34.116V20.8623H33.116ZM33.116 24.6253V25.566H34.116V24.6253H33.116ZM33.116 25.566C33.116 25.9964 33.0887 26.4105 33.0345 26.8088L34.0253 26.9436C34.086 26.4981 34.116 26.0388 34.116 25.566H33.116ZM32.3216 29.1539C32.1389 29.5174 31.9244 29.865 31.6778 30.1966L32.4802 30.7934C32.761 30.4158 33.0061 30.0189 33.2151 29.6029L32.3216 29.1539ZM31.6728 30.2034C31.4319 30.539 31.1666 30.8532 30.8767 31.1464L31.5878 31.8495C31.9146 31.519 32.2137 31.1647 32.4852 30.7866L31.6728 30.2034ZM28.8939 32.6253C28.5379 32.82 28.1598 32.9976 27.7593 33.1578L28.1307 34.0862C28.5663 33.912 28.9807 33.7176 29.3737 33.5027L28.8939 32.6253ZM27.7593 33.1578C27.484 33.2679 27.2056 33.3732 26.9242 33.4736L27.2604 34.4154C27.5535 34.3108 27.8436 34.2011 28.1307 34.0862L27.7593 33.1578ZM25.2206 34.0121C24.6523 34.1695 24.0724 34.3087 23.481 34.4297L23.6814 35.4094C24.2947 35.284 24.8967 35.1395 25.4875 34.9758L25.2206 34.0121ZM21.7154 34.7318C21.1315 34.813 20.5371 34.8776 19.9322 34.9256L20.0113 35.9225C20.6353 35.8729 21.2492 35.8062 21.853 35.7223L21.7154 34.7318ZM18.1383 35.0187C17.8409 35.0262 17.5412 35.03 17.239 35.03V36.03C17.5495 36.03 17.8576 36.0261 18.1636 36.0184L18.1383 35.0187ZM17.345 29.147C17.0911 29.147 16.8459 29.1453 16.6094 29.1419L16.5952 30.1418C16.8368 30.1453 17.0867 30.147 17.345 30.147V29.147ZM15.1453 29.0937C14.8886 29.0796 14.647 29.0626 14.4203 29.0429L14.3337 30.0391C14.572 30.0598 14.8242 30.0775 15.0902 30.0922L15.1453 29.0937ZM14.4446 29.0456C14.2486 29.0189 14.0501 28.9875 13.8488 28.9513L13.6721 29.9356C13.8867 29.9741 14.0992 30.0077 14.3094 30.0364L14.4446 29.0456ZM12.6655 28.692C12.4722 28.6423 12.2767 28.5887 12.079 28.531L11.799 29.491C12.0067 29.5516 12.2126 29.6081 12.4166 29.6605L12.6655 28.692ZM12.0738 28.5295C11.8908 28.4783 11.7199 28.4202 11.5606 28.3556L11.185 29.2824C11.3815 29.3621 11.588 29.432 11.8042 29.4925L12.0738 28.5295ZM10.6654 27.8326C10.5339 27.7228 10.4167 27.6042 10.3131 27.4767L9.53694 28.1073C9.68223 28.2861 9.84503 28.4505 10.0247 28.6004L10.6654 27.8326ZM10.3222 27.4883C10.2206 27.3554 10.1325 27.2146 10.0576 27.0654L9.16386 27.514C9.26685 27.7192 9.38825 27.9132 9.52782 28.0957L10.3222 27.4883ZM9.76888 26.0933C9.74715 25.9265 9.736 25.7508 9.736 25.566H8.736C8.736 25.791 8.74957 26.0099 8.77726 26.2225L9.76888 26.0933ZM9.736 25.566V24.6219H8.736V25.566H9.736ZM9.736 22.7338V20.8457H8.736V22.7338H9.736ZM9.736 18.9576V17.0694H8.736V18.9576H9.736ZM9.736 15.1813V13.2932H8.736V15.1813H9.736ZM9.736 11.4051V10.461H8.736V11.4051H9.736ZM9.736 10.461C9.736 10.1135 9.76708 9.79612 9.82678 9.50736L8.84749 9.30489C8.77235 9.66835 8.736 10.0542 8.736 10.461H9.736ZM10.6727 7.93182C10.8826 7.73359 11.1323 7.5583 11.4254 7.40778L10.9686 6.51821C10.5995 6.70777 10.2707 6.93602 9.98613 7.20479L10.6727 7.93182ZM11.4254 7.40778C11.6223 7.30667 11.8406 7.21235 12.0811 7.12547L11.7414 6.18494C11.4655 6.2846 11.2076 6.39548 10.9686 6.51821L11.4254 7.40778ZM13.5074 6.74955C13.9617 6.66442 14.46 6.59735 15.0028 6.54894L14.914 5.55289C14.3442 5.60371 13.8137 5.67476 13.3232 5.76665L13.5074 6.74955ZM16.5256 6.46525C16.7741 6.45909 17.0296 6.456 17.292 6.456V5.456C17.0217 5.456 16.758 5.45918 16.5008 5.46556L16.5256 6.46525ZM17.292 6.456C17.5548 6.456 17.8106 6.45926 18.0594 6.46577L18.0856 5.46612C17.8276 5.45936 17.5631 5.456 17.292 5.456V6.456ZM19.5837 6.55418C20.1265 6.60528 20.6246 6.67606 21.0785 6.76584L21.2725 5.78485C20.7807 5.68756 20.2487 5.61236 19.6774 5.55858L19.5837 6.55418ZM22.4992 7.16096C22.7375 7.25174 22.9539 7.35025 23.1492 7.45585L23.6248 6.57615C23.3867 6.44748 23.1299 6.33114 22.8552 6.22648L22.4992 7.16096ZM23.1586 7.46078C23.4497 7.61025 23.6979 7.78303 23.9068 7.97726L24.5877 7.24486C24.3053 6.98239 23.98 6.75846 23.6154 6.57122L23.1586 7.46078ZM24.7559 9.52271C24.8165 9.8068 24.848 10.119 24.848 10.461H25.848C25.848 10.0579 25.8109 9.67511 25.734 9.31435L24.7559 9.52271ZM24.848 10.461V11.4051H25.848V10.461H24.848ZM24.848 13.2932V15.1813H25.848V13.2932H24.848ZM24.848 17.0694V18.9576H25.848V17.0694H24.848ZM24.848 20.8457V22.7338H25.848V20.8457H24.848ZM24.848 24.6219V25.566H25.848V24.6219H24.848ZM24.848 25.566C24.848 25.7508 24.8369 25.9265 24.8151 26.0933L25.8067 26.2225C25.8344 26.0099 25.848 25.791 25.848 25.566H24.848ZM24.5264 27.0654C24.4515 27.2146 24.3634 27.3554 24.2618 27.4883L25.0562 28.0957C25.1958 27.9132 25.3172 27.7192 25.4201 27.514L24.5264 27.0654ZM24.259 27.492C24.1649 27.6174 24.0578 27.7339 23.9368 27.8416L24.6018 28.5884C24.7716 28.4373 24.9242 28.2718 25.059 28.092L24.259 27.492ZM23.0985 28.3585C22.9478 28.4225 22.7855 28.4801 22.611 28.531L22.891 29.491C23.1001 29.43 23.2997 29.3595 23.4892 29.279L23.0985 28.3585ZM22.611 28.531C22.4105 28.5895 22.2113 28.6438 22.0132 28.6941L22.2591 29.6634C22.4689 29.6102 22.6795 29.5527 22.891 29.491L22.611 28.531ZM20.8047 28.9526C20.6003 28.988 20.3971 29.0189 20.1953 29.0452L20.3247 30.0368C20.5405 30.0086 20.7574 29.9757 20.9754 29.9379L20.8047 28.9526ZM20.2147 29.0431C19.9951 29.063 19.7585 29.0802 19.5045 29.0945L19.5607 30.0929C19.8245 30.078 20.0728 30.0601 20.3053 30.0389L20.2147 29.0431ZM18.0674 29.1421C17.8359 29.1454 17.5951 29.147 17.345 29.147V30.147C17.5994 30.147 17.845 30.1453 18.0816 30.142L18.0674 29.1421ZM11.939 35.159L11.7853 36.1471L11.7886 36.1476L11.939 35.159ZM6.957 33.887L7.28478 32.9422L7.27858 32.9401L6.957 33.887ZM2.558 30.813L1.75091 31.4035L1.758 31.413L2.558 30.813ZM2.081 5.956L1.21557 5.45496L1.21058 5.46359L1.20576 5.47231L2.081 5.956ZM5.049 2.776L4.51392 1.93114L4.50575 1.93643L5.049 2.776ZM8.971 1.08L9.25435 2.03901L8.971 1.08ZM13.317 0.231999L13.3957 1.22892L13.4024 1.22835L13.317 0.231999ZM21.479 0.284998L21.3622 1.27815L21.3766 1.27985L21.3911 1.28113L21.479 0.284998ZM25.507 1.027L25.787 0.0669985L25.7737 0.0631275L25.7604 0.0596256L25.507 1.027ZM29.694 2.829L30.2361 1.9887L29.694 2.829ZM32.45 5.797L31.5862 6.30089L31.5905 6.30807L32.45 5.797ZM32.079 30.495L31.2765 29.8983L31.2715 29.905L31.2667 29.9118L32.079 30.495ZM27.945 33.622L27.5736 32.6935L27.945 33.622ZM20.26 29.541L20.3505 30.5369L20.37 30.5351L20.3893 30.5326L20.26 29.541ZM22.751 29.011L22.471 28.051L22.751 29.011ZM24.659 27.792L23.8646 27.1845L23.859 27.192L24.659 27.792ZM23.387 7.016L22.9115 7.89571L22.9208 7.90074L22.9302 7.90557L23.387 7.016ZM11.197 6.963L10.7402 6.07343L11.197 6.963ZM9.925 27.792L9.13064 28.3994L9.13959 28.4112L9.14889 28.4226L9.925 27.792ZM11.939 29.011L12.219 28.0509L12.2086 28.048L11.939 29.011ZM14.377 29.541L14.2419 30.5318L14.2661 30.5351L14.2904 30.5372L14.377 29.541ZM17.239 34.53C16.7982 34.53 16.3656 34.5232 15.9414 34.5098L15.8779 36.5088C16.3241 36.5229 16.7778 36.53 17.239 36.53V34.53ZM13.3638 34.3349C12.9286 34.2883 12.5038 34.2334 12.0894 34.1704L11.7886 36.1476C12.2333 36.2153 12.6875 36.2739 13.1509 36.3235L13.3638 34.3349ZM12.0927 34.1709C11.6931 34.1087 11.2881 34.0348 10.8775 33.949L10.4684 35.9067C10.9116 35.9993 11.3506 36.0795 11.7853 36.1471L12.0927 34.1709ZM8.47197 33.3291C8.08071 33.21 7.68498 33.0811 7.28477 32.9422L6.62923 34.8318C7.05293 34.9788 7.47311 35.1157 7.88975 35.2425L8.47197 33.3291ZM7.27858 32.9401C6.87345 32.8025 6.49259 32.6462 6.13523 32.4719L5.25836 34.2694C5.69571 34.4828 6.15498 34.6707 6.63542 34.8339L7.27858 32.9401ZM4.1519 31.1077C3.8637 30.8326 3.59915 30.5345 3.358 30.213L1.758 31.413C2.06482 31.8221 2.40254 32.2027 2.7709 32.5544L4.1519 31.1077ZM3.36503 30.2225C3.12389 29.8929 2.91457 29.5462 2.73657 29.1819L0.939557 30.0598C1.16971 30.5309 1.44035 30.979 1.75097 31.4035L3.36503 30.2225ZM2.04692 26.8279C1.99465 26.4262 1.968 26.0058 1.968 25.566H-0.0319999C-0.0319999 26.0865 -0.000459194 26.5934 0.0636394 27.086L2.04692 26.8279ZM1.968 25.566V24.6252H-0.0319999V25.566H1.968ZM1.968 22.7438V20.8623H-0.0319999V22.7438H1.968ZM1.968 18.9808V17.0993H-0.0319999V18.9808H1.968ZM1.968 15.2177V13.3362H-0.0319999V15.2177H1.968ZM1.968 11.4547V10.514H-0.0319999V11.4547H1.968ZM1.968 10.514C1.968 10.1442 1.9873 9.78617 2.02536 9.43955L0.0373173 9.22121C-0.00906861 9.64357 -0.0319999 10.0746 -0.0319999 10.514H1.968ZM2.51444 7.38865C2.63996 7.06182 2.78718 6.7456 2.95624 6.43968L1.20576 5.47231C0.992068 5.85899 0.805905 6.25887 0.647388 6.67164L2.51444 7.38865ZM2.94643 6.45704C3.11662 6.16307 3.29693 5.8858 3.48713 5.62481L1.87081 4.44688C1.63781 4.7666 1.41948 5.10276 1.21557 5.45496L2.94643 6.45704ZM4.81242 4.19329C5.06005 3.98431 5.31992 3.79178 5.59225 3.61557L4.50575 1.93643C4.16256 2.15849 3.83475 2.40134 3.52252 2.66483L4.81242 4.19329ZM5.58405 3.62082C5.84829 3.45347 6.13209 3.29174 6.43601 3.13597L5.52379 1.35612C5.16968 1.53761 4.83288 1.72919 4.51395 1.93118L5.58405 3.62082ZM8.28297 2.35231C8.59325 2.24316 8.91699 2.13869 9.25435 2.03901L8.68765 0.12098C8.31964 0.229712 7.96346 0.344562 7.61928 0.46564L8.28297 2.35231ZM9.25435 2.03901C9.6039 1.93574 9.94701 1.84198 10.2837 1.75766L9.79783 -0.182425C9.43287 -0.0910225 9.0628 0.0101414 8.68765 0.12098L9.25435 2.03901ZM12.3571 1.34509C12.712 1.29421 13.0582 1.25554 13.3957 1.2289L13.2383 -0.764899C12.8565 -0.734756 12.4681 -0.691274 12.0732 -0.634662L12.3571 1.34509ZM13.4024 1.22835C13.7157 1.20149 14.0341 1.17809 14.3574 1.15818L14.2344 -0.838039C13.8956 -0.817167 13.5613 -0.792608 13.2316 -0.764348L13.4024 1.22835ZM16.2764 1.08201C16.593 1.076 16.9139 1.073 17.239 1.073V-0.927002C16.9016 -0.927002 16.568 -0.923882 16.2385 -0.917633L16.2764 1.08201ZM17.239 1.073C17.5972 1.073 17.9442 1.07649 18.2802 1.08345L18.3216 -0.916117C17.971 -0.923382 17.6101 -0.927002 17.239 -0.927002V1.073ZM20.3452 1.1801C20.7019 1.20762 21.0409 1.24035 21.3622 1.27815L21.5958 -0.708152C21.2457 -0.749352 20.88 -0.784584 20.499 -0.813977L20.3452 1.1801ZM21.3911 1.28113C21.7006 1.30843 22.0219 1.34587 22.3551 1.39365L22.639 -0.586101C22.2723 -0.638672 21.9149 -0.680422 21.5669 -0.711131L21.3911 1.28113ZM24.2888 1.75751C24.6025 1.82912 24.9241 1.90805 25.2536 1.99437L25.7604 0.0596256C25.4114 -0.031764 25.0693 -0.115767 24.7339 -0.192322L24.2888 1.75751ZM25.227 1.987C25.5902 2.09292 25.9374 2.20344 26.2688 2.31843L26.9244 0.428911C26.5593 0.302249 26.1801 0.181651 25.787 0.0669985L25.227 1.987ZM28.2468 3.15006C28.5738 3.31758 28.8752 3.49082 29.1519 3.66929L30.2361 1.9887C29.899 1.77122 29.5396 1.56516 29.1586 1.37001L28.2468 3.15006ZM29.1519 3.66929C29.3996 3.82914 29.6375 4.00592 29.8655 4.19997L31.1617 2.67685C30.8673 2.42631 30.5587 2.19682 30.2361 1.9887L29.1519 3.66929ZM31.0835 5.52776C31.2587 5.76929 31.4264 6.02684 31.5862 6.30087L33.3138 5.29313C33.122 4.96443 32.9183 4.65099 32.7023 4.35325L31.0835 5.52776ZM31.5905 6.30807C31.7697 6.60959 31.9259 6.92881 32.0588 7.26652L33.92 6.53446C33.7486 6.09874 33.5452 5.68231 33.3095 5.28592L31.5905 6.30807ZM32.5595 9.39014C32.597 9.74866 32.616 10.1231 32.616 10.514H34.616C34.616 10.0582 34.5938 9.61427 34.5487 9.18245L32.5595 9.39014ZM32.616 10.514V11.4548H34.616V10.514H32.616ZM32.616 13.3362V15.2177H34.616V13.3362H32.616ZM32.616 17.0993V18.9808H34.616V17.0993H32.616ZM32.616 20.8623V22.7438H34.616V20.8623H32.616ZM32.616 24.6253V25.566H34.616V24.6253H32.616ZM32.616 25.566C32.616 25.9752 32.59 26.3668 32.539 26.7414L34.5208 27.011C34.5846 26.5418 34.616 26.06 34.616 25.566H32.616ZM31.8748 28.9294C31.7053 29.2667 31.5061 29.5895 31.2765 29.8983L32.8815 31.0917C33.1793 30.6912 33.4397 30.2696 33.6619 29.8274L31.8748 28.9294ZM31.2667 29.9118C31.041 30.2261 30.7926 30.5203 30.5212 30.7948L31.9434 32.201C32.2886 31.8519 32.6047 31.4775 32.8913 31.0782L31.2667 29.9118ZM28.654 32.1866C28.3164 32.3712 27.9565 32.5404 27.5736 32.6935L28.3164 34.5505C28.7695 34.3692 29.2022 34.1664 29.6136 33.9414L28.654 32.1866ZM27.5736 32.6935C27.3042 32.8013 27.0317 32.9044 26.7562 33.0027L27.4285 34.8863C27.7275 34.7796 28.0235 34.6677 28.3164 34.5505L27.5736 32.6935ZM25.0872 33.5303C24.5301 33.6845 23.9613 33.8211 23.3808 33.9398L23.7816 35.8993C24.4058 35.7716 25.0189 35.6244 25.621 35.4577L25.0872 33.5303ZM21.6466 34.2366C21.0727 34.3163 20.488 34.3799 19.8926 34.4272L20.0509 36.4209C20.6844 36.3706 21.308 36.3029 21.9219 36.2176L21.6466 34.2366ZM18.1257 34.5189C17.8326 34.5263 17.537 34.53 17.239 34.53V36.53C17.5536 36.53 17.866 36.5261 18.1762 36.5182L18.1257 34.5189ZM17.345 28.647C17.0933 28.647 16.8505 28.6453 16.6166 28.642L16.5881 30.6418C16.8322 30.6453 17.0845 30.647 17.345 30.647V28.647ZM15.1729 28.5945C14.9208 28.5806 14.6844 28.564 14.4636 28.5448L14.2904 30.5372C14.5345 30.5585 14.792 30.5765 15.0626 30.5914L15.1729 28.5945ZM14.5121 28.5502C14.3234 28.5244 14.1317 28.4941 13.9372 28.4592L13.5837 30.4277C13.805 30.4674 14.0244 30.5022 14.2419 30.5318L14.5121 28.5502ZM12.7899 28.2077C12.602 28.1594 12.4117 28.1072 12.219 28.051L11.659 29.971C11.8717 30.033 12.0828 30.091 12.2922 30.1448L12.7899 28.2077ZM12.2086 28.048C12.0422 28.0014 11.8891 27.9493 11.7484 27.8922L10.9972 29.7458C11.2123 29.833 11.4367 29.9088 11.6694 29.974L12.2086 28.048ZM10.9857 27.4487C10.8783 27.359 10.7839 27.2633 10.7011 27.1614L9.14889 28.4226C9.31501 28.6271 9.50061 28.8143 9.70429 28.9842L10.9857 27.4487ZM10.7194 27.1846C10.6367 27.0765 10.5653 26.9623 10.5045 26.8411L8.717 27.7383C8.83405 27.9715 8.97209 28.1921 9.13064 28.3994L10.7194 27.1846ZM10.2647 26.0287C10.2459 25.8847 10.236 25.7307 10.236 25.566H8.236C8.236 25.8111 8.25078 26.0517 8.28146 26.2871L10.2647 26.0287ZM10.236 25.566V24.6219H8.236V25.566H10.236ZM10.236 22.7338V20.8457H8.236V22.7338H10.236ZM10.236 18.9576V17.0694H8.236V18.9576H10.236ZM10.236 15.1813V13.2932H8.236V15.1813H10.236ZM10.236 11.4051V10.461H8.236V11.4051H10.236ZM10.236 10.461C10.236 10.1431 10.2644 9.86001 10.3164 9.60859L8.35785 9.20365C8.27498 9.60446 8.236 10.0246 8.236 10.461H10.236ZM11.016 8.29534C11.1886 8.13238 11.3987 7.98356 11.6538 7.85256L10.7402 6.07343C10.3331 6.2825 9.96478 6.53723 9.64283 6.84127L11.016 8.29534ZM11.6538 7.85256C11.8297 7.76226 12.0281 7.67623 12.251 7.59574L11.5716 5.71467C11.278 5.82072 11.0003 5.93988 10.7402 6.07343L11.6538 7.85256ZM13.5995 7.241C14.0358 7.15925 14.5179 7.09417 15.0472 7.04696L14.8696 5.05487C14.2863 5.10689 13.7397 5.17993 13.2312 5.2752L13.5995 7.241ZM16.538 6.9651C16.7822 6.95904 17.0335 6.956 17.292 6.956V4.956C17.0178 4.956 16.75 4.95922 16.4884 4.96571L16.538 6.9651ZM17.292 6.956C17.5507 6.956 17.8022 6.95921 18.0464 6.9656L18.0987 4.96629C17.8361 4.95942 17.5672 4.956 17.292 4.956V6.956ZM19.5368 7.05198C20.0655 7.10174 20.5465 7.1703 20.9814 7.25634L21.3695 5.29435C20.8587 5.19331 20.3098 5.1159 19.7242 5.06078L19.5368 7.05198ZM22.3212 7.6282C22.5413 7.71204 22.7374 7.80163 22.9115 7.89571L23.8625 6.13629C23.6032 5.9961 23.3261 5.87083 23.0332 5.75924L22.3212 7.6282ZM22.9302 7.90557C23.1845 8.03615 23.3941 8.18334 23.5663 8.34346L24.9281 6.87866C24.6091 6.58207 24.2452 6.33256 23.8438 6.12643L22.9302 7.90557ZM24.2669 9.62688C24.3193 9.87264 24.348 10.1496 24.348 10.461H26.348C26.348 10.0273 26.308 9.60927 26.223 9.21017L24.2669 9.62688ZM24.348 10.461V11.4051H26.348V10.461H24.348ZM24.348 13.2932V15.1813H26.348V13.2932H24.348ZM24.348 17.0694V18.9576H26.348V17.0694H24.348ZM24.348 20.8457V22.7338H26.348V20.8457H24.348ZM24.348 24.6219V25.566H26.348V24.6219H24.348ZM24.348 25.566C24.348 25.7307 24.3381 25.8847 24.3193 26.0287L26.3025 26.2871C26.3332 26.0517 26.348 25.8111 26.348 25.566H24.348ZM24.0795 26.8411C24.0187 26.9623 23.9473 27.0765 23.8646 27.1845L25.4534 28.3994C25.6119 28.1921 25.75 27.9715 25.867 27.7383L24.0795 26.8411ZM23.859 27.192C23.7853 27.2902 23.7009 27.3822 23.6043 27.4682L24.9344 28.9618C25.1285 28.789 25.3038 28.599 25.459 28.392L23.859 27.192ZM22.9031 27.8983C22.7719 27.954 22.6281 28.0052 22.471 28.051L23.031 29.971C23.2575 29.9049 23.4756 29.828 23.6846 29.7393L22.9031 27.8983ZM22.471 28.051C22.2761 28.1079 22.0825 28.1607 21.8902 28.2094L22.3821 30.148C22.5976 30.0933 22.8139 30.0343 23.031 29.971L22.471 28.051ZM20.7194 28.4599C20.5217 28.4942 20.3255 28.524 20.1307 28.5494L20.3893 30.5326C20.6122 30.5035 20.836 30.4695 21.0607 30.4306L20.7194 28.4599ZM20.1695 28.5451C19.9563 28.5645 19.7254 28.5812 19.4764 28.5953L19.5888 30.5921C19.8576 30.577 20.1116 30.5586 20.3505 30.5369L20.1695 28.5451ZM18.0604 28.6421C17.8313 28.6454 17.5929 28.647 17.345 28.647V30.647C17.6016 30.647 17.8495 30.6453 18.0886 30.6419L18.0604 28.6421ZM50.8696 6.486H51.3696V5.986H50.8696V6.486ZM40.2696 6.486H39.7696V6.986H40.2696V6.486ZM40.2696 0.602998V0.102998H39.7696V0.602998H40.2696ZM69.6846 0.602998H70.1846V0.102998H69.6846V0.602998ZM69.6846 6.486V6.986H70.1846V6.486H69.6846ZM59.1376 6.486V5.986H58.6376V6.486H59.1376ZM59.1376 35V35.5H59.6376V35H59.1376ZM50.8696 35H50.3696V35.5H50.8696V35ZM50.8696 5.986H49.9862V6.986H50.8696V5.986ZM48.2196 5.986H46.4529V6.986H48.2196V5.986ZM44.6862 5.986H42.9196V6.986H44.6862V5.986ZM41.1529 5.986H40.2696V6.986H41.1529V5.986ZM40.7696 6.486V5.01525H39.7696V6.486H40.7696ZM40.7696 2.07375V0.602998H39.7696V2.07375H40.7696ZM40.2696 1.103H41.3201V0.102998H40.2696V1.103ZM43.4212 1.103H45.5223V0.102998H43.4212V1.103ZM47.6233 1.103H49.7244V0.102998H47.6233V1.103ZM51.8255 1.103H53.9265V0.102998H51.8255V1.103ZM56.0276 1.103H58.1287V0.102998H56.0276V1.103ZM60.2298 1.103H62.3308V0.102998H60.2298V1.103ZM64.4319 1.103H66.533V0.102998H64.4319V1.103ZM68.634 1.103H69.6846V0.102998H68.634V1.103ZM69.1846 0.602998V2.07375H70.1846V0.602998H69.1846ZM69.1846 5.01525V6.486H70.1846V5.01525H69.1846ZM69.6846 5.986H68.8057V6.986H69.6846V5.986ZM67.0478 5.986H65.29V6.986H67.0478V5.986ZM63.5322 5.986H61.7743V6.986H63.5322V5.986ZM60.0165 5.986H59.1376V6.986H60.0165V5.986ZM58.6376 6.486V7.50435H59.6376V6.486H58.6376ZM58.6376 9.54107V11.5778H59.6376V9.54107H58.6376ZM58.6376 13.6145V15.6512H59.6376V13.6145H58.6376ZM58.6376 17.6879V19.7246H59.6376V17.6879H58.6376ZM58.6376 21.7614V23.7981H59.6376V21.7614H58.6376ZM58.6376 25.8348V27.8715H59.6376V25.8348H58.6376ZM58.6376 29.9082V31.9449H59.6376V29.9082H58.6376ZM58.6376 33.9816V35H59.6376V33.9816H58.6376ZM59.1376 34.5H58.1041V35.5H59.1376V34.5ZM56.0371 34.5H53.9701V35.5H56.0371V34.5ZM51.9031 34.5H50.8696V35.5H51.9031V34.5ZM51.3696 35V33.9816H50.3696V35H51.3696ZM51.3696 31.9449V29.9082H50.3696V31.9449H51.3696ZM51.3696 27.8715V25.8348H50.3696V27.8715H51.3696ZM51.3696 23.7981V21.7614H50.3696V23.7981H51.3696ZM51.3696 19.7246V17.6879H50.3696V19.7246H51.3696ZM51.3696 15.6512V13.6145H50.3696V15.6512H51.3696ZM51.3696 11.5778V9.54107H50.3696V11.5778H51.3696ZM51.3696 7.50435V6.486H50.3696V7.50435H51.3696ZM50.8696 6.486H51.8696V5.486H50.8696V6.486ZM40.2696 6.486H39.2696V7.486H40.2696V6.486ZM40.2696 0.602998V-0.397002H39.2696V0.602998H40.2696ZM69.6846 0.602998H70.6846V-0.397002H69.6846V0.602998ZM69.6846 6.486V7.486H70.6846V6.486H69.6846ZM59.1376 6.486V5.486H58.1376V6.486H59.1376ZM59.1376 35V36H60.1376V35H59.1376ZM50.8696 35H49.8696V36H50.8696V35ZM50.8696 5.486H49.9862V7.486H50.8696V5.486ZM48.2196 5.486H46.4529V7.486H48.2196V5.486ZM44.6862 5.486H42.9196V7.486H44.6862V5.486ZM41.1529 5.486H40.2696V7.486H41.1529V5.486ZM41.2696 6.486V5.01525H39.2696V6.486H41.2696ZM41.2696 2.07375V0.602998H39.2696V2.07375H41.2696ZM40.2696 1.603H41.3201V-0.397002H40.2696V1.603ZM43.4212 1.603H45.5223V-0.397002H43.4212V1.603ZM47.6233 1.603H49.7244V-0.397002H47.6233V1.603ZM51.8255 1.603H53.9265V-0.397002H51.8255V1.603ZM56.0276 1.603H58.1287V-0.397002H56.0276V1.603ZM60.2298 1.603H62.3308V-0.397002H60.2298V1.603ZM64.4319 1.603H66.533V-0.397002H64.4319V1.603ZM68.634 1.603H69.6846V-0.397002H68.634V1.603ZM68.6846 0.602998V2.07375H70.6846V0.602998H68.6846ZM68.6846 5.01525V6.486H70.6846V5.01525H68.6846ZM69.6846 5.486H68.8057V7.486H69.6846V5.486ZM67.0478 5.486H65.29V7.486H67.0478V5.486ZM63.5322 5.486H61.7743V7.486H63.5322V5.486ZM60.0165 5.486H59.1376V7.486H60.0165V5.486ZM58.1376 6.486V7.50435H60.1376V6.486H58.1376ZM58.1376 9.54107V11.5778H60.1376V9.54107H58.1376ZM58.1376 13.6145V15.6512H60.1376V13.6145H58.1376ZM58.1376 17.6879V19.7246H60.1376V17.6879H58.1376ZM58.1376 21.7614V23.7981H60.1376V21.7614H58.1376ZM58.1376 25.8348V27.8715H60.1376V25.8348H58.1376ZM58.1376 29.9082V31.9449H60.1376V29.9082H58.1376ZM58.1376 33.9816V35H60.1376V33.9816H58.1376ZM59.1376 34H58.1041V36H59.1376V34ZM56.0371 34H53.9701V36H56.0371V34ZM51.9031 34H50.8696V36H51.9031V34ZM51.8696 35V33.9816H49.8696V35H51.8696ZM51.8696 31.9449V29.9082H49.8696V31.9449H51.8696ZM51.8696 27.8715V25.8348H49.8696V27.8715H51.8696ZM51.8696 23.7981V21.7614H49.8696V23.7981H51.8696ZM51.8696 19.7246V17.6879H49.8696V19.7246H51.8696ZM51.8696 15.6512V13.6145H49.8696V15.6512H51.8696ZM51.8696 11.5778V9.54107H49.8696V11.5778H51.8696ZM51.8696 7.50435V6.486H49.8696V7.50435H51.8696ZM77.0901 0.602998V0.102998H76.5901V0.602998H77.0901ZM98.6081 1.345L98.4732 1.82661L98.4846 1.8295L98.6081 1.345ZM102.424 3.624L102.014 3.91077L102.019 3.91725L102.424 3.624ZM102.371 14.913L102.002 14.575L101.995 14.5837L102.371 14.913ZM99.7211 16.662L99.5729 16.1845L99.2211 16.2936V16.662H99.7211ZM99.7211 16.927H99.2211V17.3771L99.6687 17.4243L99.7211 16.927ZM103.378 18.676L103.037 19.0411L103.043 19.0468L103.049 19.0523L103.378 18.676ZM101.735 33.251L101.503 32.8081L101.735 33.251ZM77.0901 35H76.5901V35.5H77.0901V35ZM93.9441 14.277L93.786 13.8027L93.9441 14.277ZM95.2161 13.27L94.7689 13.0464L94.7654 13.0534L94.7621 13.0605L95.2161 13.27ZM95.2691 7.652L94.8219 7.87561L94.8259 7.88359L94.8301 7.89142L95.2691 7.652ZM93.9441 6.751L93.8102 7.2328L93.8168 7.23453L93.9441 6.751ZM85.3581 6.486V5.986H84.8581V6.486H85.3581ZM85.3581 14.595H84.8581V15.095H85.3581V14.595ZM95.5341 28.428L95.2959 27.9884L95.5341 28.428ZM95.7991 20.743L95.4789 21.1272L95.4893 21.1354L95.7991 20.743ZM85.3581 19.948V19.448H84.8581V19.948H85.3581ZM85.3581 29.117H84.8581V29.617H85.3581V29.117ZM76.5901 0.602998V1.55847H77.5901V0.602998H76.5901ZM76.5901 3.46941V5.38036H77.5901V3.46941H76.5901ZM76.5901 7.2913V9.20225H77.5901V7.2913H76.5901ZM76.5901 11.1132V13.0241H77.5901V11.1132H76.5901ZM76.5901 14.9351V16.846H77.5901V14.9351H76.5901ZM76.5901 18.757V20.6679H77.5901V18.757H76.5901ZM76.5901 22.5789V24.4898H77.5901V22.5789H76.5901ZM76.5901 26.4007V28.3117H77.5901V26.4007H76.5901ZM76.5901 30.2226V32.1336H77.5901V30.2226H76.5901ZM76.5901 34.0445V35H77.5901V34.0445H76.5901ZM77.0901 35.5H77.9845V34.5H77.0901V35.5ZM79.7732 35.5H81.562V34.5H79.7732V35.5ZM83.3507 35.5H85.1395V34.5H83.3507V35.5ZM86.9282 35.5H88.717V34.5H86.9282V35.5ZM90.5057 35.5H91.4001V34.5H90.5057V35.5ZM91.4001 35.5C91.7015 35.5 91.998 35.4976 92.2896 35.4928L92.273 34.4929C91.9871 34.4976 91.6962 34.5 91.4001 34.5V35.5ZM94.0707 35.4298C94.6896 35.3954 95.2832 35.3483 95.8512 35.2884L95.7464 34.2939C95.1961 34.3519 94.619 34.3977 94.0152 34.4313L94.0707 35.4298ZM97.6295 35.0448C98.2553 34.9371 98.844 34.81 99.3951 34.6631L99.1375 33.6968C98.6187 33.8351 98.0597 33.9561 97.46 34.0593L97.6295 35.0448ZM101.128 34.0845C101.423 33.9628 101.702 33.8326 101.967 33.6939L101.503 32.8081C101.267 32.9318 101.015 33.0494 100.746 33.1605L101.128 34.0845ZM101.967 33.6939C102.258 33.5414 102.533 33.375 102.791 33.1944L102.218 32.3749C101.997 32.5298 101.759 32.6742 101.503 32.8081L101.967 33.6939ZM104.203 31.8539C104.596 31.3406 104.904 30.7677 105.128 30.1383L104.185 29.8037C103.995 30.339 103.736 30.8187 103.409 31.2456L104.203 31.8539ZM105.531 28.2618C105.56 27.9553 105.574 27.6397 105.574 27.315H104.574C104.574 27.6102 104.561 27.8943 104.535 28.1676L105.531 28.2618ZM105.574 27.315V25.99H104.574V27.315H105.574ZM105.574 23.34V22.015H104.574V23.34H105.574ZM105.574 22.015C105.574 21.6465 105.529 21.2858 105.439 20.934L104.471 21.1819C104.539 21.4508 104.574 21.7281 104.574 22.015H105.574ZM104.44 19.0427C104.224 18.7855 103.98 18.538 103.707 18.2997L103.049 19.0523C103.286 19.26 103.494 19.4711 103.673 19.685L104.44 19.0427ZM103.72 18.3109C103.445 18.0538 103.161 17.8215 102.869 17.6146L102.291 18.4312C102.545 18.6102 102.793 18.8133 103.037 19.0411L103.72 18.3109ZM100.871 16.6433C100.514 16.5403 100.148 16.4691 99.7734 16.4297L99.6687 17.4243C99.9855 17.4576 100.294 17.5176 100.594 17.6042L100.871 16.6433ZM100.221 16.927V16.8607H99.2211V16.927H100.221ZM100.221 16.7282V16.662H99.2211V16.7282H100.221ZM99.8693 17.1395C100.15 17.0524 100.422 16.9467 100.684 16.8224L100.256 15.9187C100.037 16.0225 99.8093 16.1111 99.5729 16.1845L99.8693 17.1395ZM102.137 15.858C102.351 15.6688 102.554 15.4634 102.747 15.2423L101.995 14.5837C101.828 14.7745 101.654 14.9498 101.474 15.11L102.137 15.858ZM102.74 15.2509C102.931 15.0419 103.103 14.8279 103.254 14.6084L102.43 14.0415C102.308 14.2196 102.165 14.3975 102.003 14.5751L102.74 15.2509ZM103.943 13.0665C104.006 12.7851 104.037 12.4993 104.037 12.21H103.037C103.037 12.4267 103.014 12.6395 102.967 12.8492L103.943 13.0665ZM104.037 12.21V11.15H103.037V12.21H104.037ZM104.037 9.03V7.97H103.037V9.03H104.037ZM104.037 7.97C104.037 7.55732 104.02 7.16225 103.984 6.78507L102.989 6.87803C103.021 7.22138 103.037 7.58527 103.037 7.97H104.037ZM103.436 4.42715C103.27 4.02724 103.068 3.66105 102.829 3.33075L102.019 3.91725C102.209 4.17939 102.374 4.47651 102.513 4.81078L103.436 4.42715ZM102.834 3.33727C102.596 2.99781 102.312 2.68849 101.983 2.40893L101.335 3.17062C101.603 3.39828 101.829 3.6451 102.014 3.91073L102.834 3.33727ZM99.8665 1.21255C99.5111 1.07992 99.1326 0.962717 98.7316 0.86049L98.4846 1.8295C98.8545 1.92379 99.1984 2.03058 99.5169 2.14944L99.8665 1.21255ZM98.7429 0.863515C98.4414 0.779106 98.1207 0.702136 97.781 0.632389L97.5799 1.61195C97.8993 1.67753 98.1969 1.74911 98.4733 1.82648L98.7429 0.863515ZM95.8502 0.334233C95.2495 0.266816 94.6057 0.214288 93.919 0.176455L93.864 1.17494C94.5344 1.21188 95.1592 1.26296 95.7386 1.32799L95.8502 0.334233ZM91.9917 0.11035C91.6782 0.105447 91.3573 0.102998 91.0291 0.102998V1.103C91.3523 1.103 91.668 1.10541 91.9761 1.11023L91.9917 0.11035ZM91.0291 0.102998H89.8675V1.103H91.0291V0.102998ZM87.5443 0.102998H85.2212V1.103H87.5443V0.102998ZM82.898 0.102998H80.5748V1.103H82.898V0.102998ZM78.2517 0.102998H77.0901V1.103H78.2517V0.102998ZM91.0291 14.095H89.6113V15.095H91.0291V14.095ZM86.7758 14.095H85.3581V15.095H86.7758V14.095ZM85.8581 14.595V13.5814H84.8581V14.595H85.8581ZM85.8581 11.5541V9.52687H84.8581V11.5541H85.8581ZM85.8581 7.49962V6.486H84.8581V7.49962H85.8581ZM85.3581 6.986H86.7361V5.986H85.3581V6.986ZM89.4921 6.986H90.8701V5.986H89.4921V6.986ZM90.8701 6.986C91.1383 6.986 91.3916 6.98923 91.63 6.99565L91.6569 5.99601C91.4086 5.98932 91.1463 5.986 90.8701 5.986V6.986ZM93.12 7.10039C93.4 7.13746 93.6287 7.18233 93.8103 7.23276L94.0779 6.26924C93.8388 6.20283 93.5619 6.15017 93.2513 6.10904L93.12 7.10039ZM93.8168 7.23453C93.9406 7.26712 94.0521 7.30359 94.152 7.34332L94.5216 6.41412C94.3799 6.35778 94.2296 6.30911 94.0713 6.26746L93.8168 7.23453ZM94.6715 7.66628C94.7357 7.73218 94.785 7.80178 94.8219 7.87561L95.7163 7.42839C95.6315 7.25875 95.5211 7.10528 95.3878 6.96848L94.6715 7.66628ZM94.8301 7.89142C94.875 7.97372 94.9182 8.08002 94.9558 8.21511L95.9191 7.94666C95.8654 7.75401 95.7963 7.57439 95.708 7.41257L94.8301 7.89142ZM95.0752 9.02138C95.0831 9.15612 95.0871 9.30026 95.0871 9.454H96.0871C96.0871 9.28304 96.0826 9.11942 96.0735 8.9633L95.0752 9.02138ZM95.0871 9.454V9.878H96.0871V9.454H95.0871ZM95.0871 10.726V11.15H96.0871V10.726H95.0871ZM95.0871 11.15C95.0871 11.3306 95.0821 11.5012 95.0722 11.6617L96.0703 11.7231C96.0816 11.5401 96.0871 11.3491 96.0871 11.15H95.0871ZM94.9247 12.6295C94.8797 12.7919 94.8271 12.93 94.7689 13.0464L95.6633 13.4936C95.7547 13.3108 95.829 13.1109 95.8884 12.8964L94.9247 12.6295ZM94.7621 13.0605C94.7226 13.1462 94.6721 13.2256 94.61 13.2996L95.3755 13.9429C95.4944 13.8015 95.5929 13.6468 95.6701 13.4795L94.7621 13.0605ZM94.1108 13.6712C94.0141 13.7186 93.9061 13.7626 93.786 13.8027L94.1022 14.7513C94.2601 14.6987 94.4099 14.6382 94.5506 14.5693L94.1108 13.6712ZM93.786 13.8027C93.6123 13.8605 93.4001 13.9121 93.1459 13.9551L93.3128 14.9411C93.604 14.8918 93.8683 14.8293 94.1022 14.7513L93.786 13.8027ZM91.7471 14.0829C91.5215 14.0909 91.2822 14.095 91.0291 14.095V15.095C91.2928 15.095 91.5441 15.0908 91.7828 15.0823L91.7471 14.0829ZM91.2411 28.617H89.7703V29.617H91.2411V28.617ZM86.8288 28.617H85.3581V29.617H86.8288V28.617ZM85.8581 29.117V27.9709H84.8581V29.117H85.8581ZM85.8581 25.6786V23.3864H84.8581V25.6786H85.8581ZM85.8581 21.0941V19.948H84.8581V21.0941H85.8581ZM85.3581 20.448H86.2326V19.448H85.3581V20.448ZM87.9816 20.448H89.7306V19.448H87.9816V20.448ZM91.4796 20.448H92.3541V19.448H91.4796V20.448ZM92.3541 20.448C92.6626 20.448 92.9507 20.4574 93.2186 20.4761L93.2879 19.4785C92.9941 19.4581 92.6827 19.448 92.3541 19.448V20.448ZM94.8427 20.779C95.1173 20.8803 95.3252 20.999 95.479 21.1271L96.1192 20.3589C95.8591 20.1422 95.5449 19.9722 95.1888 19.8408L94.8427 20.779ZM95.4893 21.1354C95.6381 21.253 95.7669 21.3951 95.8759 21.565L96.7176 21.025C96.5508 20.765 96.3478 20.5392 96.1089 20.3506L95.4893 21.1354ZM96.2664 22.7628C96.2926 22.9721 96.3061 23.1997 96.3061 23.446H97.3061C97.3061 23.1635 97.2906 22.8942 97.2587 22.6389L96.2664 22.7628ZM96.3061 23.446V24.135H97.3061V23.446H96.3061ZM96.3061 25.513V26.202H97.3061V25.513H96.3061ZM96.3061 26.202C96.3061 26.4094 96.286 26.5967 96.2485 26.7658L97.2247 26.9826C97.2798 26.7344 97.3061 26.4737 97.3061 26.202H96.3061ZM95.7422 27.6717C95.6189 27.7873 95.4712 27.8934 95.2959 27.9884L95.7722 28.8676C96.0153 28.736 96.2343 28.5811 96.4261 28.4013L95.7422 27.6717ZM95.2959 27.9884C95.0634 28.1143 94.7633 28.2274 94.387 28.3216L94.6299 29.2917C95.0634 29.1831 95.447 29.0438 95.7722 28.8676L95.2959 27.9884ZM92.3127 28.5922C91.978 28.6087 91.6208 28.617 91.2411 28.617V29.617C91.6352 29.617 92.0089 29.6084 92.362 29.591L92.3127 28.5922ZM77.0901 0.602998V-0.397002H76.0901V0.602998H77.0901ZM98.6081 1.345L98.3385 2.30796L98.3497 2.31112L98.3611 2.31401L98.6081 1.345ZM102.424 3.624L101.605 4.19746L101.609 4.20402L101.614 4.21051L102.424 3.624ZM102.371 14.913L101.634 14.2373L101.626 14.2458L101.619 14.2545L102.371 14.913ZM99.7211 16.662L99.4247 15.7069L98.7211 15.9253V16.662H99.7211ZM99.7211 16.927H98.7211V17.8273L99.6164 17.9215L99.7211 16.927ZM103.378 18.676L102.695 19.4063L102.707 19.4176L102.72 19.4286L103.378 18.676ZM101.735 33.251L101.271 32.3652L101.735 33.251ZM77.0901 35H76.0901V36H77.0901V35ZM93.9441 14.277L93.6279 13.3283V13.3283L93.9441 14.277ZM95.2161 13.27L94.3217 12.8228L94.3147 12.8368L94.3081 12.8509L95.2161 13.27ZM95.2691 7.652L94.3747 8.09921L94.3826 8.11518L94.3912 8.13085L95.2691 7.652ZM93.9441 6.751L93.6764 7.71461L93.6896 7.71807L93.9441 6.751ZM85.3581 6.486V5.486H84.3581V6.486H85.3581ZM85.3581 14.595H84.3581V15.595H85.3581V14.595ZM95.5341 28.428L95.0578 27.5487L95.5341 28.428ZM95.7991 20.743L95.1589 21.5112L95.1691 21.5197L95.1794 21.5279L95.7991 20.743ZM85.3581 19.948V18.948H84.3581V19.948H85.3581ZM85.3581 29.117H84.3581V30.117H85.3581V29.117ZM76.0901 0.602998V1.55847H78.0901V0.602998H76.0901ZM76.0901 3.46941V5.38036H78.0901V3.46941H76.0901ZM76.0901 7.2913V9.20225H78.0901V7.2913H76.0901ZM76.0901 11.1132V13.0241H78.0901V11.1132H76.0901ZM76.0901 14.9351V16.846H78.0901V14.9351H76.0901ZM76.0901 18.757V20.6679H78.0901V18.757H76.0901ZM76.0901 22.5789V24.4898H78.0901V22.5789H76.0901ZM76.0901 26.4007V28.3117H78.0901V26.4007H76.0901ZM76.0901 30.2226V32.1336H78.0901V30.2226H76.0901ZM76.0901 34.0445V35H78.0901V34.0445H76.0901ZM77.0901 36H77.9845V34H77.0901V36ZM79.7732 36H81.562V34H79.7732V36ZM83.3507 36H85.1395V34H83.3507V36ZM86.9282 36H88.717V34H86.9282V36ZM90.5057 36H91.4001V34H90.5057V36ZM91.4001 36C91.7042 36 92.0034 35.9976 92.2979 35.9927L92.2647 33.993C91.9817 33.9977 91.6935 34 91.4001 34V36ZM94.0985 35.929C94.7249 35.8942 95.3267 35.8464 95.9037 35.7856L95.6939 33.7966C95.1525 33.8537 94.5838 33.8989 93.9874 33.9321L94.0985 35.929ZM97.7143 35.5375C98.3531 35.4276 98.9567 35.2974 99.5239 35.1462L99.0087 33.2137C98.5061 33.3477 97.9619 33.4656 97.3752 33.5665L97.7143 35.5375ZM101.32 34.5465C101.627 34.4195 101.92 34.283 102.199 34.1368L101.271 32.3652C101.049 32.4814 100.811 32.5927 100.555 32.6985L101.32 34.5465ZM102.199 34.1368C102.508 33.9749 102.801 33.7975 103.078 33.6041L101.932 31.9652C101.729 32.1072 101.509 32.2407 101.271 32.3652L102.199 34.1368ZM104.6 32.1581C105.026 31.6015 105.359 30.9821 105.599 30.3056L103.714 29.6364C103.541 30.1246 103.306 30.5577 103.012 30.9414L104.6 32.1581ZM106.028 28.309C106.059 27.9858 106.074 27.6544 106.074 27.315H104.074C104.074 27.5955 104.062 27.8638 104.037 28.1205L106.028 28.309ZM106.074 27.315V25.99H104.074V27.315H106.074ZM106.074 23.34V22.015H104.074V23.34H106.074ZM106.074 22.015C106.074 21.6056 106.024 21.2033 105.924 20.8101L103.986 21.3058C104.044 21.5333 104.074 21.769 104.074 22.015H106.074ZM104.823 18.7216C104.589 18.4428 104.326 18.177 104.037 17.9234L102.72 19.4286C102.94 19.621 103.129 19.8138 103.29 20.0062L104.823 18.7216ZM104.061 17.9457C103.771 17.674 103.47 17.4272 103.157 17.2063L102.003 18.8395C102.236 19.0046 102.467 19.1931 102.695 19.4063L104.061 17.9457ZM101.01 16.1629C100.624 16.0516 100.229 15.9749 99.8258 15.9325L99.6164 17.9215C99.9044 17.9518 100.184 18.0063 100.456 18.0847L101.01 16.1629ZM100.721 16.927V16.8607H98.7211V16.927H100.721ZM100.721 16.7282V16.662H98.7211V16.7282H100.721ZM100.017 17.6171C100.32 17.523 100.614 17.4088 100.898 17.2742L100.042 15.4669C99.8445 15.5604 99.639 15.6404 99.4247 15.7069L100.017 17.6171ZM102.469 16.232C102.699 16.0283 102.917 15.8079 103.124 15.5715L101.619 14.2545C101.465 14.43 101.306 14.5903 101.142 14.736L102.469 16.232ZM103.108 15.5887C103.314 15.3642 103.501 15.132 103.666 14.8919L102.018 13.7581C101.91 13.9155 101.782 14.0753 101.634 14.2373L103.108 15.5887ZM104.431 13.1752C104.502 12.8579 104.537 12.5357 104.537 12.21H102.537C102.537 12.3903 102.518 12.5667 102.479 12.7405L104.431 13.1752ZM104.537 12.21V11.15H102.537V12.21H104.537ZM104.537 9.03V7.97H102.537V9.03H104.537ZM104.537 7.97C104.537 7.54335 104.519 7.13269 104.482 6.7386L102.491 6.92451C102.521 7.25094 102.537 7.59924 102.537 7.97H104.537ZM103.898 4.23533C103.718 3.8026 103.498 3.40188 103.234 3.03749L101.614 4.21051C101.779 4.43856 101.926 4.70115 102.051 5.00259L103.898 4.23533ZM103.243 3.05054C102.98 2.67417 102.666 2.33359 102.307 2.02809L101.011 3.55146C101.248 3.75317 101.445 3.96875 101.605 4.19746L103.243 3.05054ZM100.041 0.744098C99.6675 0.604585 99.2717 0.482182 98.8551 0.375983L98.3611 2.31401C98.7154 2.40433 99.0421 2.50592 99.3421 2.61789L100.041 0.744098ZM98.8777 0.382033C98.5637 0.294104 98.2314 0.21444 97.8816 0.142608L97.4793 2.10173C97.7885 2.16522 98.0747 2.23411 98.3385 2.30796L98.8777 0.382033ZM95.9059 -0.162646C95.2947 -0.231256 94.6413 -0.284507 93.9465 -0.322788L93.8365 1.67418C94.4988 1.71067 95.1141 1.76103 95.6828 1.82487L95.9059 -0.162646ZM91.9995 -0.389588C91.6833 -0.394535 91.3598 -0.397002 91.0291 -0.397002V1.603C91.3499 1.603 91.6629 1.60539 91.9683 1.61017L91.9995 -0.389588ZM91.0291 -0.397002H89.8675V1.603H91.0291V-0.397002ZM87.5443 -0.397002H85.2212V1.603H87.5443V-0.397002ZM82.898 -0.397002H80.5748V1.603H82.898V-0.397002ZM78.2517 -0.397002H77.0901V1.603H78.2517V-0.397002ZM91.0291 13.595H89.6113V15.595H91.0291V13.595ZM86.7758 13.595H85.3581V15.595H86.7758V13.595ZM86.3581 14.595V13.5814H84.3581V14.595H86.3581ZM86.3581 11.5541V9.52687H84.3581V11.5541H86.3581ZM86.3581 7.49962V6.486H84.3581V7.49962H86.3581ZM85.3581 7.486H86.7361V5.486H85.3581V7.486ZM89.4921 7.486H90.8701V5.486H89.4921V7.486ZM90.8701 7.486C91.1343 7.486 91.3831 7.48918 91.6165 7.49546L91.6704 5.49619C91.4171 5.48937 91.1502 5.486 90.8701 5.486V7.486ZM93.0544 7.59606C93.319 7.6311 93.5237 7.67208 93.6764 7.71452L94.2117 5.78748C93.9439 5.71307 93.6429 5.65653 93.3169 5.61337L93.0544 7.59606ZM93.6896 7.71807C93.7962 7.74612 93.8882 7.7765 93.9672 7.80792L94.7064 5.94951C94.5438 5.88487 94.3741 5.8301 94.1986 5.78392L93.6896 7.71807ZM94.3134 8.01518C94.3431 8.04563 94.3617 8.0733 94.3747 8.09921L96.1635 7.20478C96.0547 6.98723 95.9138 6.79183 95.746 6.61959L94.3134 8.01518ZM94.3912 8.13085C94.4144 8.17339 94.4445 8.24302 94.4742 8.34934L96.4007 7.81243C96.339 7.59101 96.2569 7.37472 96.147 7.17315L94.3912 8.13085ZM94.5761 9.05042C94.5833 9.17447 94.5871 9.30887 94.5871 9.454H96.5871C96.5871 9.27444 96.5824 9.10106 96.5727 8.93426L94.5761 9.05042ZM94.5871 9.454V9.878H96.5871V9.454H94.5871ZM94.5871 10.726V11.15H96.5871V10.726H94.5871ZM94.5871 11.15C94.5871 11.3214 94.5823 11.4817 94.5731 11.631L96.5694 11.7538C96.5813 11.5596 96.5871 11.3583 96.5871 11.15H94.5871ZM94.4428 12.4961C94.4051 12.6324 94.3633 12.7396 94.3217 12.8228L96.1105 13.7172C96.2185 13.5012 96.3037 13.2704 96.3703 13.0299L94.4428 12.4961ZM94.3081 12.8509C94.2874 12.8958 94.261 12.9376 94.2271 12.978L95.7584 14.2646C95.9055 14.0895 96.028 13.8971 96.124 13.6891L94.3081 12.8509ZM93.8909 13.2222C93.8162 13.2588 93.7291 13.2946 93.6279 13.3283L94.2603 15.2257C94.4371 15.1667 94.6077 15.0981 94.7705 15.0184L93.8909 13.2222ZM93.6279 13.3283C93.4844 13.3762 93.2981 13.4223 93.0625 13.4622L93.3963 15.4341C93.706 15.3817 93.9962 15.3137 94.2603 15.2257L93.6279 13.3283ZM91.7293 13.5832C91.5102 13.591 91.2769 13.595 91.0291 13.595V15.595C91.2981 15.595 91.5553 15.5907 91.8006 15.5819L91.7293 13.5832ZM91.2411 28.117H89.7703V30.117H91.2411V28.117ZM86.8288 28.117H85.3581V30.117H86.8288V28.117ZM86.3581 29.117V27.9709H84.3581V29.117H86.3581ZM86.3581 25.6786V23.3864H84.3581V25.6786H86.3581ZM86.3581 21.0941V19.948H84.3581V21.0941H86.3581ZM85.3581 20.948H86.2326V18.948H85.3581V20.948ZM87.9816 20.948H89.7306V18.948H87.9816V20.948ZM91.4796 20.948H92.3541V18.948H91.4796V20.948ZM92.3541 20.948C92.6525 20.948 92.9289 20.9571 93.184 20.9749L93.3225 18.9797C93.0158 18.9584 92.6928 18.948 92.3541 18.948V20.948ZM94.6696 21.2481C94.9034 21.3343 95.0583 21.4274 95.1589 21.5112L96.4393 19.9748C96.1261 19.7138 95.7587 19.5181 95.3619 19.3717L94.6696 21.2481ZM95.1794 21.5279C95.2833 21.6099 95.375 21.7102 95.455 21.835L97.1384 20.7551C96.9427 20.4499 96.7026 20.1823 96.4187 19.9581L95.1794 21.5279ZM95.7703 22.8247C95.7935 23.0111 95.8061 23.2178 95.8061 23.446H97.8061C97.8061 23.1453 97.7896 22.8552 97.7549 22.5769L95.7703 22.8247ZM95.8061 23.446V24.135H97.8061V23.446H95.8061ZM95.8061 25.513V26.202H97.8061V25.513H95.8061ZM95.8061 26.202C95.8061 26.3772 95.7891 26.5279 95.7604 26.6574L97.7128 27.091C97.7767 26.8032 97.8061 26.5058 97.8061 26.202H95.8061ZM95.4003 27.3069C95.3112 27.3904 95.1992 27.4721 95.0578 27.5487L96.0104 29.3073C96.2873 29.1573 96.542 28.978 96.768 28.7662L95.4003 27.3069ZM95.0578 27.5487C94.8716 27.6496 94.6132 27.7495 94.2656 27.8366L94.7513 29.7767C95.2135 29.661 95.6389 29.5085 96.0104 29.3073L95.0578 27.5487ZM92.2881 28.0928C91.9625 28.1088 91.6136 28.117 91.2411 28.117V30.117C91.6425 30.117 92.0244 30.1082 92.3866 30.0904L92.2881 28.0928ZM113.383 0.602998V0.102998H112.883V0.602998H113.383ZM139.618 0.602998H140.118V0.102998H139.618V0.602998ZM139.618 6.486V6.986H140.118V6.486H139.618ZM121.651 6.486V5.986H121.151V6.486H121.651ZM121.651 14.383H121.151V14.883H121.651V14.383ZM137.869 14.383H138.369V13.883H137.869V14.383ZM137.869 20.266V20.766H138.369V20.266H137.869ZM121.651 20.266V19.766H121.151V20.266H121.651ZM121.651 29.117H121.151V29.617H121.651V29.117ZM140.148 29.117H140.648V28.617H140.148V29.117ZM140.148 35V35.5H140.648V35H140.148ZM113.383 35H112.883V35.5H113.383V35ZM112.883 0.602998V1.55847H113.883V0.602998H112.883ZM112.883 3.46941V5.38036H113.883V3.46941H112.883ZM112.883 7.2913V9.20225H113.883V7.2913H112.883ZM112.883 11.1132V13.0241H113.883V11.1132H112.883ZM112.883 14.9351V16.846H113.883V14.9351H112.883ZM112.883 18.757V20.6679H113.883V18.757H112.883ZM112.883 22.5789V24.4898H113.883V22.5789H112.883ZM112.883 26.4007V28.3117H113.883V26.4007H112.883ZM112.883 30.2226V32.1336H113.883V30.2226H112.883ZM112.883 34.0445V35H113.883V34.0445H112.883ZM113.383 35.5H114.339V34.5H113.383V35.5ZM116.25 35.5H118.162V34.5H116.25V35.5ZM120.074 35.5H121.986V34.5H120.074V35.5ZM123.897 35.5H125.809V34.5H123.897V35.5ZM127.721 35.5H129.633V34.5H127.721V35.5ZM131.545 35.5H133.456V34.5H131.545V35.5ZM135.368 35.5H137.28V34.5H135.368V35.5ZM139.192 35.5H140.148V34.5H139.192V35.5ZM140.648 35V33.5293H139.648V35H140.648ZM140.648 30.5877V29.117H139.648V30.5877H140.648ZM140.148 28.617H139.223V29.617H140.148V28.617ZM137.373 28.617H135.523V29.617H137.373V28.617ZM133.674 28.617H131.824V29.617H133.674V28.617ZM129.974 28.617H128.125V29.617H129.974V28.617ZM126.275 28.617H124.425V29.617H126.275V28.617ZM122.576 28.617H121.651V29.617H122.576V28.617ZM122.151 29.117V28.0106H121.151V29.117H122.151ZM122.151 25.7979V23.5851H121.151V25.7979H122.151ZM122.151 21.3724V20.266H121.151V21.3724H122.151ZM121.651 20.766H122.664V19.766H121.651V20.766ZM124.692 20.766H126.719V19.766H124.692V20.766ZM128.746 20.766H130.773V19.766H128.746V20.766ZM132.801 20.766H134.828V19.766H132.801V20.766ZM136.855 20.766H137.869V19.766H136.855V20.766ZM138.369 20.266V18.7952H137.369V20.266H138.369ZM138.369 15.8537V14.383H137.369V15.8537H138.369ZM137.869 13.883H136.855V14.883H137.869V13.883ZM134.828 13.883H132.801V14.883H134.828V13.883ZM130.773 13.883H128.746V14.883H130.773V13.883ZM126.719 13.883H124.692V14.883H126.719V13.883ZM122.664 13.883H121.651V14.883H122.664V13.883ZM122.151 14.383V13.3959H121.151V14.383H122.151ZM122.151 11.4216V9.44737H121.151V11.4216H122.151ZM122.151 7.47312V6.486H121.151V7.47312H122.151ZM121.651 6.986H122.774V5.986H121.651V6.986ZM125.019 6.986H127.265V5.986H125.019V6.986ZM129.511 6.986H131.757V5.986H129.511V6.986ZM134.003 6.986H136.249V5.986H134.003V6.986ZM138.495 6.986H139.618V5.986H138.495V6.986ZM140.118 6.486V5.01525H139.118V6.486H140.118ZM140.118 2.07375V0.602998H139.118V2.07375H140.118ZM139.618 0.102998H138.681V1.103H139.618V0.102998ZM136.807 0.102998H134.933V1.103H136.807V0.102998ZM133.059 0.102998H131.185V1.103H133.059V0.102998ZM129.311 0.102998H127.437V1.103H129.311V0.102998ZM125.563 0.102998H123.689V1.103H125.563V0.102998ZM121.815 0.102998H119.941V1.103H121.815V0.102998ZM118.067 0.102998H116.194V1.103H118.067V0.102998ZM114.32 0.102998H113.383V1.103H114.32V0.102998ZM113.383 0.602998V-0.397002H112.383V0.602998H113.383ZM139.618 0.602998H140.618V-0.397002H139.618V0.602998ZM139.618 6.486V7.486H140.618V6.486H139.618ZM121.651 6.486V5.486H120.651V6.486H121.651ZM121.651 14.383H120.651V15.383H121.651V14.383ZM137.869 14.383H138.869V13.383H137.869V14.383ZM137.869 20.266V21.266H138.869V20.266H137.869ZM121.651 20.266V19.266H120.651V20.266H121.651ZM121.651 29.117H120.651V30.117H121.651V29.117ZM140.148 29.117H141.148V28.117H140.148V29.117ZM140.148 35V36H141.148V35H140.148ZM113.383 35H112.383V36H113.383V35ZM112.383 0.602998V1.55847H114.383V0.602998H112.383ZM112.383 3.46941V5.38036H114.383V3.46941H112.383ZM112.383 7.2913V9.20225H114.383V7.2913H112.383ZM112.383 11.1132V13.0241H114.383V11.1132H112.383ZM112.383 14.9351V16.846H114.383V14.9351H112.383ZM112.383 18.757V20.6679H114.383V18.757H112.383ZM112.383 22.5789V24.4898H114.383V22.5789H112.383ZM112.383 26.4007V28.3117H114.383V26.4007H112.383ZM112.383 30.2226V32.1336H114.383V30.2226H112.383ZM112.383 34.0445V35H114.383V34.0445H112.383ZM113.383 36H114.339V34H113.383V36ZM116.25 36H118.162V34H116.25V36ZM120.074 36H121.986V34H120.074V36ZM123.897 36H125.809V34H123.897V36ZM127.721 36H129.633V34H127.721V36ZM131.545 36H133.456V34H131.545V36ZM135.368 36H137.28V34H135.368V36ZM139.192 36H140.148V34H139.192V36ZM141.148 35V33.5293H139.148V35H141.148ZM141.148 30.5877V29.117H139.148V30.5877H141.148ZM140.148 28.117H139.223V30.117H140.148V28.117ZM137.373 28.117H135.523V30.117H137.373V28.117ZM133.674 28.117H131.824V30.117H133.674V28.117ZM129.974 28.117H128.125V30.117H129.974V28.117ZM126.275 28.117H124.425V30.117H126.275V28.117ZM122.576 28.117H121.651V30.117H122.576V28.117ZM122.651 29.117V28.0106H120.651V29.117H122.651ZM122.651 25.7979V23.5851H120.651V25.7979H122.651ZM122.651 21.3724V20.266H120.651V21.3724H122.651ZM121.651 21.266H122.664V19.266H121.651V21.266ZM124.692 21.266H126.719V19.266H124.692V21.266ZM128.746 21.266H130.773V19.266H128.746V21.266ZM132.801 21.266H134.828V19.266H132.801V21.266ZM136.855 21.266H137.869V19.266H136.855V21.266ZM138.869 20.266V18.7952H136.869V20.266H138.869ZM138.869 15.8537V14.383H136.869V15.8537H138.869ZM137.869 13.383H136.855V15.383H137.869V13.383ZM134.828 13.383H132.801V15.383H134.828V13.383ZM130.773 13.383H128.746V15.383H130.773V13.383ZM126.719 13.383H124.692V15.383H126.719V13.383ZM122.664 13.383H121.651V15.383H122.664V13.383ZM122.651 14.383V13.3959H120.651V14.383H122.651ZM122.651 11.4216V9.44737H120.651V11.4216H122.651ZM122.651 7.47312V6.486H120.651V7.47312H122.651ZM121.651 7.486H122.774V5.486H121.651V7.486ZM125.019 7.486H127.265V5.486H125.019V7.486ZM129.511 7.486H131.757V5.486H129.511V7.486ZM134.003 7.486H136.249V5.486H134.003V7.486ZM138.495 7.486H139.618V5.486H138.495V7.486ZM140.618 6.486V5.01525H138.618V6.486H140.618ZM140.618 2.07375V0.602998H138.618V2.07375H140.618ZM139.618 -0.397002H138.681V1.603H139.618V-0.397002ZM136.807 -0.397002H134.933V1.603H136.807V-0.397002ZM133.059 -0.397002H131.185V1.603H133.059V-0.397002ZM129.311 -0.397002H127.437V1.603H129.311V-0.397002ZM125.563 -0.397002H123.689V1.603H125.563V-0.397002ZM121.815 -0.397002H119.941V1.603H121.815V-0.397002ZM118.067 -0.397002H116.194V1.603H118.067V-0.397002ZM114.32 -0.397002H113.383V1.603H114.32V-0.397002ZM168.15 21.856H168.65V21.0011L167.905 21.4202L168.15 21.856ZM150.66 22.015L150.356 22.4117L150.364 22.4175L150.66 22.015ZM147.692 0.602998V0.102998H147.192V0.602998H147.692ZM155.854 0.602998H156.354V0.102998H155.854V0.602998ZM157.073 17.139L156.776 17.5411L156.786 17.5483L156.796 17.555L157.073 17.139ZM164.705 17.298L164.551 16.8225L164.705 17.298ZM168.15 15.549L168.463 15.9394L168.65 15.7893V15.549H168.15ZM168.15 0.602998V0.102998H167.65V0.602998H168.15ZM176.418 0.602998H176.918V0.102998H176.418V0.602998ZM176.418 35V35.5H176.918V35H176.418ZM168.15 35H167.65V35.5H168.15V35ZM167.905 21.4202C167.659 21.5587 167.409 21.6909 167.154 21.817L167.597 22.7133C167.868 22.5794 168.134 22.4389 168.395 22.2918L167.905 21.4202ZM165.592 22.4918C165.068 22.6878 164.526 22.8609 163.969 23.0109L164.228 23.9766C164.816 23.8186 165.387 23.6359 165.942 23.4286L165.592 22.4918ZM162.3 23.3821C161.749 23.4805 161.183 23.5587 160.603 23.6167L160.702 24.6118C161.307 24.5513 161.899 24.4696 162.476 24.3665L162.3 23.3821ZM158.888 23.7277C158.605 23.7366 158.318 23.741 158.027 23.741V24.741C158.328 24.741 158.625 24.7364 158.919 24.7272L158.888 23.7277ZM158.027 23.741C157.705 23.741 157.389 23.7315 157.079 23.7127L157.018 24.7108C157.349 24.731 157.686 24.741 158.027 24.741V23.741ZM155.209 23.4706C154.58 23.3424 153.98 23.1688 153.409 22.9503L153.052 23.8843C153.676 24.1232 154.329 24.3117 155.009 24.4504L155.209 23.4706ZM151.733 22.1317C151.467 21.9708 151.208 21.7977 150.957 21.6125L150.364 22.4175C150.639 22.6206 150.923 22.8104 151.214 22.987L151.733 22.1317ZM150.965 21.6184C150.703 21.4175 150.46 21.197 150.236 20.9568L149.505 21.6388C149.767 21.9195 150.05 22.1772 150.356 22.4116L150.965 21.6184ZM149.134 19.318C148.864 18.7496 148.649 18.1129 148.494 17.4054L147.517 17.6199C147.687 18.3926 147.924 19.1029 148.232 19.7481L149.134 19.318ZM148.222 15.3682C148.202 15.0335 148.192 14.6874 148.192 14.33H147.192C147.192 14.706 147.203 15.0719 147.224 15.4275L148.222 15.3682ZM148.192 14.33V13.1861H147.192V14.33H148.192ZM148.192 10.8982V8.61041H147.192V10.8982H148.192ZM148.192 6.32258V4.03475H147.192V6.32258H148.192ZM148.192 1.74691V0.602998H147.192V1.74691H148.192ZM147.692 1.103H148.713V0.102998H147.692V1.103ZM150.753 1.103H152.794V0.102998H150.753V1.103ZM154.834 1.103H155.854V0.102998H154.834V1.103ZM155.354 0.602998V1.69391H156.354V0.602998H155.354ZM155.354 3.87575V6.05758H156.354V3.87575H155.354ZM155.354 8.23941V10.4212H156.354V8.23941H155.354ZM155.354 12.6031V13.694H156.354V12.6031H155.354ZM155.354 13.694C155.354 14.0465 155.371 14.38 155.405 14.694L156.399 14.5854C156.37 14.3121 156.354 14.0152 156.354 13.694H155.354ZM156.017 16.698C156.22 17.0332 156.472 17.3167 156.776 17.5411L157.37 16.7369C157.18 16.596 157.013 16.4127 156.872 16.18L156.017 16.698ZM156.796 17.555C157.058 17.7298 157.34 17.8794 157.64 18.0043L158.024 17.0809C157.781 16.9797 157.557 16.8603 157.351 16.723L156.796 17.555ZM159.449 18.4424C159.741 18.4723 160.045 18.487 160.359 18.487V17.487C160.076 17.487 159.807 17.4737 159.551 17.4476L159.449 18.4424ZM160.359 18.487C160.742 18.487 161.123 18.4722 161.502 18.4426L161.424 17.4457C161.071 17.4732 160.716 17.487 160.359 17.487V18.487ZM163.76 18.0846C164.129 17.9956 164.496 17.8919 164.86 17.7735L164.551 16.8225C164.211 16.9329 163.869 17.0296 163.525 17.1124L163.76 18.0846ZM164.86 17.7735C165.187 17.6671 165.502 17.5539 165.804 17.4338L165.434 16.5046C165.154 16.6163 164.859 16.7222 164.551 16.8225L164.86 17.7735ZM167.62 16.5321C167.92 16.3457 168.202 16.1483 168.463 15.9394L167.838 15.1586C167.61 15.3407 167.362 15.5153 167.093 15.6821L167.62 16.5321ZM168.65 15.549V14.6149H167.65V15.549H168.65ZM168.65 12.7466V10.8784H167.65V12.7466H168.65ZM168.65 9.01012V7.14187H167.65V9.01012H168.65ZM168.65 5.27362V3.40537H167.65V5.27362H168.65ZM168.65 1.53712V0.602998H167.65V1.53712H168.65ZM168.15 1.103H169.184V0.102998H168.15V1.103ZM171.251 1.103H173.318V0.102998H171.251V1.103ZM175.385 1.103H176.418V0.102998H175.385V1.103ZM175.918 0.602998V1.55847H176.918V0.602998H175.918ZM175.918 3.46941V5.38036H176.918V3.46941H175.918ZM175.918 7.2913V9.20225H176.918V7.2913H175.918ZM175.918 11.1132V13.0241H176.918V11.1132H175.918ZM175.918 14.9351V16.846H176.918V14.9351H175.918ZM175.918 18.757V20.6679H176.918V18.757H175.918ZM175.918 22.5789V24.4898H176.918V22.5789H175.918ZM175.918 26.4007V28.3117H176.918V26.4007H175.918ZM175.918 30.2226V32.1336H176.918V30.2226H175.918ZM175.918 34.0445V35H176.918V34.0445H175.918ZM176.418 34.5H175.385V35.5H176.418V34.5ZM173.318 34.5H171.251V35.5H173.318V34.5ZM169.184 34.5H168.15V35.5H169.184V34.5ZM168.65 35V33.9047H167.65V35H168.65ZM168.65 31.714V29.5233H167.65V31.714H168.65ZM168.65 27.3327V25.142H167.65V27.3327H168.65ZM168.65 22.9513V21.856H167.65V22.9513H168.65ZM168.15 21.856H169.15V20.1462L167.66 20.9844L168.15 21.856ZM150.66 22.015L150.051 22.8082L150.059 22.8142L150.067 22.8201L150.66 22.015ZM147.692 0.602998V-0.397002H146.692V0.602998H147.692ZM155.854 0.602998H156.854V-0.397002H155.854V0.602998ZM157.073 17.139L156.479 17.9432L156.498 17.9576L156.519 17.9711L157.073 17.139ZM164.705 17.298L164.396 16.347V16.347L164.705 17.298ZM168.15 15.549L168.775 16.3299L169.15 16.0296V15.549H168.15ZM168.15 0.602998V-0.397002H167.15V0.602998H168.15ZM176.418 0.602998H177.418V-0.397002H176.418V0.602998ZM176.418 35V36H177.418V35H176.418ZM168.15 35H167.15V36H168.15V35ZM167.66 20.9844C167.422 21.1185 167.179 21.2467 166.932 21.3689L167.819 23.1614C168.097 23.0237 168.371 22.8791 168.641 22.7276L167.66 20.9844ZM165.417 22.0234C164.908 22.2137 164.382 22.382 163.839 22.5281L164.358 24.4594C164.961 24.2974 165.547 24.11 166.117 23.8969L165.417 22.0234ZM162.213 22.8899C161.675 22.9859 161.121 23.0624 160.553 23.1192L160.752 25.1093C161.369 25.0476 161.973 24.9642 162.564 24.8587L162.213 22.8899ZM158.873 23.228C158.594 23.2366 158.312 23.241 158.027 23.241V25.241C158.333 25.241 158.635 25.2363 158.935 25.227L158.873 23.228ZM158.027 23.241C157.715 23.241 157.409 23.2318 157.109 23.2136L156.988 25.2099C157.329 25.2307 157.676 25.241 158.027 25.241V23.241ZM155.309 22.9807C154.705 22.8577 154.132 22.6916 153.588 22.4833L152.873 24.3513C153.524 24.6004 154.203 24.7964 154.909 24.9403L155.309 22.9807ZM151.992 21.704C151.739 21.551 151.493 21.3863 151.253 21.2099L150.067 22.8201C150.355 23.032 150.651 23.2303 150.955 23.4147L151.992 21.704ZM151.269 21.2219C151.029 21.0377 150.807 20.8358 150.602 20.6158L149.139 21.9798C149.42 22.2807 149.724 22.557 150.051 22.8082L151.269 21.2219ZM149.586 19.103C149.333 18.573 149.131 17.9731 148.982 17.2981L147.029 17.7272C147.206 18.5325 147.455 19.2795 147.78 19.9632L149.586 19.103ZM148.721 15.3386C148.702 15.0143 148.692 14.6782 148.692 14.33H146.692C146.692 14.7153 146.703 15.0911 146.725 15.4571L148.721 15.3386ZM148.692 14.33V13.1861H146.692V14.33H148.692ZM148.692 10.8982V8.61041H146.692V10.8982H148.692ZM148.692 6.32258V4.03475H146.692V6.32258H148.692ZM148.692 1.74691V0.602998H146.692V1.74691H148.692ZM147.692 1.603H148.713V-0.397002H147.692V1.603ZM150.753 1.603H152.794V-0.397002H150.753V1.603ZM154.834 1.603H155.854V-0.397002H154.834V1.603ZM154.854 0.602998V1.69391H156.854V0.602998H154.854ZM154.854 3.87575V6.05758H156.854V3.87575H154.854ZM154.854 8.23941V10.4212H156.854V8.23941H154.854ZM154.854 12.6031V13.694H156.854V12.6031H154.854ZM154.854 13.694C154.854 14.0622 154.872 14.414 154.908 14.7482L156.896 14.5312C156.869 14.2782 156.854 13.9995 156.854 13.694H154.854ZM155.589 16.957C155.823 17.3435 156.119 17.677 156.479 17.9432L157.668 16.3348C157.534 16.2356 157.41 16.1025 157.3 15.921L155.589 16.957ZM156.519 17.9711C156.809 18.1646 157.119 18.3293 157.448 18.466L158.216 16.6192C158.001 16.5299 157.806 16.4255 157.628 16.3069L156.519 17.9711ZM159.398 18.9398C159.709 18.9716 160.029 18.987 160.359 18.987V16.987C160.092 16.987 159.839 16.9745 159.601 16.9502L159.398 18.9398ZM160.359 18.987C160.755 18.987 161.149 18.9717 161.541 18.9411L161.385 16.9472C161.045 16.9737 160.704 16.987 160.359 16.987V18.987ZM163.877 18.5706C164.259 18.4786 164.638 18.3714 165.014 18.249L164.396 16.347C164.069 16.4534 163.739 16.5466 163.408 16.6263L163.877 18.5706ZM165.014 18.249C165.351 18.1395 165.676 18.0227 165.989 17.8983L165.249 16.0401C164.979 16.1475 164.695 16.2498 164.396 16.347L165.014 18.249ZM167.883 16.9571C168.2 16.7609 168.497 16.552 168.775 16.3299L167.526 14.7681C167.315 14.9369 167.083 15.1001 166.83 15.257L167.883 16.9571ZM169.15 15.549V14.6149H167.15V15.549H169.15ZM169.15 12.7466V10.8784H167.15V12.7466H169.15ZM169.15 9.01012V7.14187H167.15V9.01012H169.15ZM169.15 5.27362V3.40537H167.15V5.27362H169.15ZM169.15 1.53712V0.602998H167.15V1.53712H169.15ZM168.15 1.603H169.184V-0.397002H168.15V1.603ZM171.251 1.603H173.318V-0.397002H171.251V1.603ZM175.385 1.603H176.418V-0.397002H175.385V1.603ZM175.418 0.602998V1.55847H177.418V0.602998H175.418ZM175.418 3.46941V5.38036H177.418V3.46941H175.418ZM175.418 7.2913V9.20225H177.418V7.2913H175.418ZM175.418 11.1132V13.0241H177.418V11.1132H175.418ZM175.418 14.9351V16.846H177.418V14.9351H175.418ZM175.418 18.757V20.6679H177.418V18.757H175.418ZM175.418 22.5789V24.4898H177.418V22.5789H175.418ZM175.418 26.4007V28.3117H177.418V26.4007H175.418ZM175.418 30.2226V32.1336H177.418V30.2226H175.418ZM175.418 34.0445V35H177.418V34.0445H175.418ZM176.418 34H175.385V36H176.418V34ZM173.318 34H171.251V36H173.318V34ZM169.184 34H168.15V36H169.184V34ZM169.15 35V33.9047H167.15V35H169.15ZM169.15 31.714V29.5233H167.15V31.714H169.15ZM169.15 27.3327V25.142H167.15V27.3327H169.15ZM169.15 22.9513V21.856H167.15V22.9513H169.15ZM195.601 0.602998V0.102998H195.253L195.132 0.429576L195.601 0.602998ZM205.671 0.602998L206.142 0.433407L206.023 0.102998H205.671V0.602998ZM218.073 35V35.5H218.785L218.544 34.8304L218.073 35ZM209.699 35L209.226 35.1606L209.341 35.5H209.699V35ZM206.625 25.937L207.099 25.7764L206.984 25.437H206.625V25.937ZM194.064 25.937V25.437H193.704L193.59 25.7789L194.064 25.937ZM191.043 35V35.5H191.404L191.518 35.1581L191.043 35ZM182.881 35L182.412 34.8266L182.163 35.5H182.881V35ZM204.823 20.425V20.925H205.519L205.297 20.2657L204.823 20.425ZM200.477 7.493L200.951 7.33372L200.837 6.993H200.477V7.493ZM200.265 7.493V6.993H199.906L199.791 7.33372L200.265 7.493ZM195.919 20.425L195.445 20.2657L195.224 20.925H195.919V20.425ZM195.132 0.429576L194.779 1.38505L195.717 1.73189L196.07 0.77642L195.132 0.429576ZM194.072 3.29599L193.366 5.20694L194.304 5.55378L195.01 3.64284L194.072 3.29599ZM192.659 7.11788L191.952 9.02883L192.89 9.37567L193.597 7.46473L192.659 7.11788ZM191.246 10.9398L190.539 12.8507L191.477 13.1976L192.184 11.2866L191.246 10.9398ZM189.832 14.7617L189.126 16.6726L190.064 17.0195L190.77 15.1085L189.832 14.7617ZM188.419 18.5836L187.712 20.4945L188.65 20.8413L189.357 18.9304L188.419 18.5836ZM187.006 22.4054L186.299 24.3164L187.237 24.6632L187.944 22.7523L187.006 22.4054ZM185.592 26.2273L184.886 28.1383L185.824 28.4851L186.53 26.5742L185.592 26.2273ZM184.179 30.0492L183.472 31.9602L184.41 32.307L185.117 30.3961L184.179 30.0492ZM182.766 33.8711L182.412 34.8266L183.35 35.1734L183.704 34.218L182.766 33.8711ZM182.881 35.5H183.902V34.5H182.881V35.5ZM185.942 35.5H187.983V34.5H185.942V35.5ZM190.023 35.5H191.043V34.5H190.023V35.5ZM191.518 35.1581L191.895 34.0252L190.947 33.709L190.569 34.8419L191.518 35.1581ZM192.651 31.7595L193.406 29.4937L192.457 29.1775L191.702 31.4433L192.651 31.7595ZM194.161 27.228L194.539 26.0951L193.59 25.7789L193.212 26.9118L194.161 27.228ZM194.064 26.437H195.111V25.437H194.064V26.437ZM197.205 26.437H199.298V25.437H197.205V26.437ZM201.392 26.437H203.485V25.437H201.392V26.437ZM205.579 26.437H206.625V25.437H205.579V26.437ZM206.152 26.0976L206.536 27.2305L207.483 26.9093L207.099 25.7764L206.152 26.0976ZM207.305 29.4962L208.073 31.762L209.02 31.4408L208.252 29.175L207.305 29.4962ZM208.842 34.0277L209.226 35.1606L210.173 34.8394L209.789 33.7065L208.842 34.0277ZM209.699 35.5H210.746V34.5H209.699V35.5ZM212.84 35.5H214.933V34.5H212.84V35.5ZM217.027 35.5H218.073V34.5H217.027V35.5ZM218.544 34.8304L218.199 33.8749L217.259 34.2141L217.603 35.1696L218.544 34.8304ZM217.51 31.964L216.821 30.053L215.881 30.3922L216.57 32.3032L217.51 31.964ZM216.132 28.1421L215.443 26.2312L214.503 26.5703L215.192 28.4813L216.132 28.1421ZM214.754 24.3202L214.065 22.4093L213.125 22.7485L213.814 24.6594L214.754 24.3202ZM213.376 20.4983L212.687 18.5874L211.747 18.9266L212.436 20.8375L213.376 20.4983ZM211.998 16.6764L211.309 14.7655L210.369 15.1047L211.058 17.0156L211.998 16.6764ZM210.62 12.8545L209.931 10.9436L208.991 11.2828L209.68 13.1937L210.62 12.8545ZM209.242 9.03266L208.553 7.12172L207.613 7.4609L208.302 9.37184L209.242 9.03266ZM207.864 5.21078L207.175 3.29983L206.235 3.63901L206.924 5.54996L207.864 5.21078ZM206.486 1.38889L206.142 0.433407L205.201 0.772588L205.546 1.72807L206.486 1.38889ZM205.671 0.102998H204.832V1.103H205.671V0.102998ZM203.154 0.102998H201.476V1.103H203.154V0.102998ZM199.797 0.102998H198.119V1.103H199.797V0.102998ZM196.441 0.102998H195.601V1.103H196.441V0.102998ZM204.823 19.925H203.71V20.925H204.823V19.925ZM201.484 19.925H199.258V20.925H201.484V19.925ZM197.032 19.925H195.919V20.925H197.032V19.925ZM196.393 20.5843L196.756 19.5066L195.808 19.1881L195.445 20.2657L196.393 20.5843ZM197.48 17.3513L198.204 15.1959L197.256 14.8774L196.532 17.0327L197.48 17.3513ZM198.929 13.0406L199.653 10.8853L198.705 10.5667L197.981 12.7221L198.929 13.0406ZM200.377 8.72994L200.739 7.65228L199.791 7.33372L199.429 8.41138L200.377 8.72994ZM200.265 7.993H200.318V6.993H200.265V7.993ZM200.424 7.993H200.477V6.993H200.424V7.993ZM200.003 7.65228L200.366 8.72994L201.314 8.41138L200.951 7.33372L200.003 7.65228ZM201.09 10.8853L201.814 13.0406L202.762 12.7221L202.038 10.5667L201.09 10.8853ZM202.539 15.1959L203.263 17.3513L204.211 17.0327L203.487 14.8774L202.539 15.1959ZM203.987 19.5066L204.349 20.5843L205.297 20.2657L204.935 19.1881L203.987 19.5066ZM195.601 0.602998V-0.397002H194.905L194.663 0.256154L195.601 0.602998ZM205.671 0.602998L206.612 0.263816L206.374 -0.397002H205.671V0.602998ZM218.073 35V36H219.497L219.014 34.6608L218.073 35ZM209.699 35L208.752 35.3212L208.983 36H209.699V35ZM206.625 25.937L207.572 25.6158L207.342 24.937H206.625V25.937ZM194.064 25.937V24.937H193.344L193.116 25.6208L194.064 25.937ZM191.043 35V36H191.764L191.992 35.3162L191.043 35ZM182.881 35L181.943 34.6532L181.445 36H182.881V35ZM204.823 20.425V21.425H206.214L205.771 20.1064L204.823 20.425ZM200.477 7.493L201.425 7.17444L201.196 6.493H200.477V7.493ZM200.265 7.493V6.493H199.546L199.317 7.17444L200.265 7.493ZM195.919 20.425L194.971 20.1064L194.528 21.425H195.919V20.425ZM194.663 0.256154L194.31 1.21163L196.186 1.90531L196.539 0.949841L194.663 0.256154ZM193.603 3.12257L192.897 5.03352L194.773 5.7272L195.479 3.81626L193.603 3.12257ZM192.19 6.94446L191.483 8.8554L193.359 9.54909L194.066 7.63815L192.19 6.94446ZM190.777 10.7663L190.07 12.6773L191.946 13.371L192.653 11.46L190.777 10.7663ZM189.363 14.5882L188.657 16.4992L190.533 17.1929L191.239 15.2819L189.363 14.5882ZM187.95 18.4101L187.243 20.3211L189.119 21.0148L189.826 19.1038L187.95 18.4101ZM186.537 22.232L185.83 24.143L187.706 24.8367L188.413 22.9257L186.537 22.232ZM185.123 26.0539L184.417 27.9649L186.293 28.6585L186.999 26.7476L185.123 26.0539ZM183.71 29.8758L183.003 31.7867L184.879 32.4804L185.586 30.5695L183.71 29.8758ZM182.297 33.6977L181.943 34.6532L183.819 35.3468L184.173 34.3914L182.297 33.6977ZM182.881 36H183.902V34H182.881V36ZM185.942 36H187.983V34H185.942V36ZM190.023 36H191.043V34H190.023V36ZM191.992 35.3162L192.37 34.1834L190.472 33.5509L190.095 34.6838L191.992 35.3162ZM193.125 31.9176L193.88 29.6519L191.983 29.0194L191.228 31.2851L193.125 31.9176ZM194.635 27.3861L195.013 26.2532L193.116 25.6208L192.738 26.7536L194.635 27.3861ZM194.064 26.937H195.111V24.937H194.064V26.937ZM197.205 26.937H199.298V24.937H197.205V26.937ZM201.392 26.937H203.485V24.937H201.392V26.937ZM205.579 26.937H206.625V24.937H205.579V26.937ZM205.678 26.2582L206.063 27.3911L207.957 26.7487L207.572 25.6158L205.678 26.2582ZM206.831 29.6568L207.6 31.9226L209.494 31.2802L208.725 29.0144L206.831 29.6568ZM208.368 34.1883L208.752 35.3212L210.646 34.6788L210.262 33.5459L208.368 34.1883ZM209.699 36H210.746V34H209.699V36ZM212.84 36H214.933V34H212.84V36ZM217.027 36H218.073V34H217.027V36ZM219.014 34.6608L218.67 33.7053L216.788 34.3837L217.133 35.3392L219.014 34.6608ZM217.981 31.7944L217.292 29.8835L215.41 30.5618L216.099 32.4728L217.981 31.7944ZM216.603 27.9725L215.914 26.0616L214.032 26.7399L214.721 28.6509L216.603 27.9725ZM215.225 24.1506L214.536 22.2397L212.654 22.918L213.343 24.829L215.225 24.1506ZM213.847 20.3287L213.158 18.4178L211.276 19.0962L211.965 21.0071L213.847 20.3287ZM212.469 16.5068L211.78 14.5959L209.898 15.2743L210.587 17.1852L212.469 16.5068ZM211.091 12.685L210.402 10.774L208.52 11.4524L209.209 13.3633L211.091 12.685ZM209.713 8.86307L209.024 6.95213L207.142 7.63049L207.831 9.54143L209.713 8.86307ZM208.335 5.04118L207.646 3.13024L205.764 3.8086L206.453 5.71955L208.335 5.04118ZM206.957 1.2193L206.612 0.263816L204.731 0.942179L205.075 1.89766L206.957 1.2193ZM205.671 -0.397002H204.832V1.603H205.671V-0.397002ZM203.154 -0.397002H201.476V1.603H203.154V-0.397002ZM199.797 -0.397002H198.119V1.603H199.797V-0.397002ZM196.441 -0.397002H195.601V1.603H196.441V-0.397002ZM204.823 19.425H203.71V21.425H204.823V19.425ZM201.484 19.425H199.258V21.425H201.484V19.425ZM197.032 19.425H195.919V21.425H197.032V19.425ZM196.867 20.7436L197.229 19.6659L195.334 19.0288L194.971 20.1064L196.867 20.7436ZM197.954 17.5106L198.678 15.3552L196.782 14.7181L196.058 16.8734L197.954 17.5106ZM199.402 13.1999L200.127 11.0446L198.231 10.4074L197.507 12.5628L199.402 13.1999ZM200.851 8.88922L201.213 7.81155L199.317 7.17444L198.955 8.25211L200.851 8.88922ZM200.265 8.493H200.318V6.493H200.265V8.493ZM200.424 8.493H200.477V6.493H200.424V8.493ZM199.529 7.81155L199.892 8.88922L201.787 8.25211L201.425 7.17444L199.529 7.81155ZM200.616 11.0446L201.34 13.1999L203.236 12.5628L202.512 10.4074L200.616 11.0446ZM202.065 15.3552L202.789 17.5106L204.685 16.8734L203.96 14.7181L202.065 15.3552ZM203.513 19.6659L203.875 20.7436L205.771 20.1064L205.409 19.0288L203.513 19.6659ZM224.538 0.602998V0.102998H224.038V0.602998H224.538ZM250.773 0.602998H251.273V0.102998H250.773V0.602998ZM250.773 6.486V6.986H251.273V6.486H250.773ZM232.806 6.486V5.986H232.306V6.486H232.806ZM232.806 14.383H232.306V14.883H232.806V14.383ZM249.024 14.383H249.524V13.883H249.024V14.383ZM249.024 20.266V20.766H249.524V20.266H249.024ZM232.806 20.266V19.766H232.306V20.266H232.806ZM232.806 29.117H232.306V29.617H232.806V29.117ZM251.303 29.117H251.803V28.617H251.303V29.117ZM251.303 35V35.5H251.803V35H251.303ZM224.538 35H224.038V35.5H224.538V35ZM224.038 0.602998V1.55847H225.038V0.602998H224.038ZM224.038 3.46941V5.38036H225.038V3.46941H224.038ZM224.038 7.2913V9.20225H225.038V7.2913H224.038ZM224.038 11.1132V13.0241H225.038V11.1132H224.038ZM224.038 14.9351V16.846H225.038V14.9351H224.038ZM224.038 18.757V20.6679H225.038V18.757H224.038ZM224.038 22.5789V24.4898H225.038V22.5789H224.038ZM224.038 26.4007V28.3117H225.038V26.4007H224.038ZM224.038 30.2226V32.1336H225.038V30.2226H224.038ZM224.038 34.0445V35H225.038V34.0445H224.038ZM224.538 35.5H225.494V34.5H224.538V35.5ZM227.405 35.5H229.317V34.5H227.405V35.5ZM231.229 35.5H233.141V34.5H231.229V35.5ZM235.053 35.5H236.964V34.5H235.053V35.5ZM238.876 35.5H240.788V34.5H238.876V35.5ZM242.7 35.5H244.611V34.5H242.7V35.5ZM246.523 35.5H248.435V34.5H246.523V35.5ZM250.347 35.5H251.303V34.5H250.347V35.5ZM251.803 35V33.5293H250.803V35H251.803ZM251.803 30.5877V29.117H250.803V30.5877H251.803ZM251.303 28.617H250.378V29.617H251.303V28.617ZM248.528 28.617H246.678V29.617H248.528V28.617ZM244.829 28.617H242.979V29.617H244.829V28.617ZM241.129 28.617H239.28V29.617H241.129V28.617ZM237.43 28.617H235.58V29.617H237.43V28.617ZM233.731 28.617H232.806V29.617H233.731V28.617ZM233.306 29.117V28.0106H232.306V29.117H233.306ZM233.306 25.7979V23.5851H232.306V25.7979H233.306ZM233.306 21.3724V20.266H232.306V21.3724H233.306ZM232.806 20.766H233.819V19.766H232.806V20.766ZM235.847 20.766H237.874V19.766H235.847V20.766ZM239.901 20.766H241.928V19.766H239.901V20.766ZM243.956 20.766H245.983V19.766H243.956V20.766ZM248.01 20.766H249.024V19.766H248.01V20.766ZM249.524 20.266V18.7952H248.524V20.266H249.524ZM249.524 15.8537V14.383H248.524V15.8537H249.524ZM249.024 13.883H248.01V14.883H249.024V13.883ZM245.983 13.883H243.956V14.883H245.983V13.883ZM241.928 13.883H239.901V14.883H241.928V13.883ZM237.874 13.883H235.847V14.883H237.874V13.883ZM233.819 13.883H232.806V14.883H233.819V13.883ZM233.306 14.383V13.3959H232.306V14.383H233.306ZM233.306 11.4216V9.44737H232.306V11.4216H233.306ZM233.306 7.47312V6.486H232.306V7.47312H233.306ZM232.806 6.986H233.929V5.986H232.806V6.986ZM236.175 6.986H238.42V5.986H236.175V6.986ZM240.666 6.986H242.912V5.986H240.666V6.986ZM245.158 6.986H247.404V5.986H245.158V6.986ZM249.65 6.986H250.773V5.986H249.65V6.986ZM251.273 6.486V5.01525H250.273V6.486H251.273ZM251.273 2.07375V0.602998H250.273V2.07375H251.273ZM250.773 0.102998H249.836V1.103H250.773V0.102998ZM247.962 0.102998H246.088V1.103H247.962V0.102998ZM244.214 0.102998H242.34V1.103H244.214V0.102998ZM240.466 0.102998H238.592V1.103H240.466V0.102998ZM236.718 0.102998H234.844V1.103H236.718V0.102998ZM232.97 0.102998H231.096V1.103H232.97V0.102998ZM229.223 0.102998H227.349V1.103H229.223V0.102998ZM225.475 0.102998H224.538V1.103H225.475V0.102998ZM224.538 0.602998V-0.397002H223.538V0.602998H224.538ZM250.773 0.602998H251.773V-0.397002H250.773V0.602998ZM250.773 6.486V7.486H251.773V6.486H250.773ZM232.806 6.486V5.486H231.806V6.486H232.806ZM232.806 14.383H231.806V15.383H232.806V14.383ZM249.024 14.383H250.024V13.383H249.024V14.383ZM249.024 20.266V21.266H250.024V20.266H249.024ZM232.806 20.266V19.266H231.806V20.266H232.806ZM232.806 29.117H231.806V30.117H232.806V29.117ZM251.303 29.117H252.303V28.117H251.303V29.117ZM251.303 35V36H252.303V35H251.303ZM224.538 35H223.538V36H224.538V35ZM223.538 0.602998V1.55847H225.538V0.602998H223.538ZM223.538 3.46941V5.38036H225.538V3.46941H223.538ZM223.538 7.2913V9.20225H225.538V7.2913H223.538ZM223.538 11.1132V13.0241H225.538V11.1132H223.538ZM223.538 14.9351V16.846H225.538V14.9351H223.538ZM223.538 18.757V20.6679H225.538V18.757H223.538ZM223.538 22.5789V24.4898H225.538V22.5789H223.538ZM223.538 26.4007V28.3117H225.538V26.4007H223.538ZM223.538 30.2226V32.1336H225.538V30.2226H223.538ZM223.538 34.0445V35H225.538V34.0445H223.538ZM224.538 36H225.494V34H224.538V36ZM227.405 36H229.317V34H227.405V36ZM231.229 36H233.141V34H231.229V36ZM235.053 36H236.964V34H235.053V36ZM238.876 36H240.788V34H238.876V36ZM242.7 36H244.611V34H242.7V36ZM246.523 36H248.435V34H246.523V36ZM250.347 36H251.303V34H250.347V36ZM252.303 35V33.5293H250.303V35H252.303ZM252.303 30.5877V29.117H250.303V30.5877H252.303ZM251.303 28.117H250.378V30.117H251.303V28.117ZM248.528 28.117H246.678V30.117H248.528V28.117ZM244.829 28.117H242.979V30.117H244.829V28.117ZM241.129 28.117H239.28V30.117H241.129V28.117ZM237.43 28.117H235.58V30.117H237.43V28.117ZM233.731 28.117H232.806V30.117H233.731V28.117ZM233.806 29.117V28.0106H231.806V29.117H233.806ZM233.806 25.7979V23.5851H231.806V25.7979H233.806ZM233.806 21.3724V20.266H231.806V21.3724H233.806ZM232.806 21.266H233.819V19.266H232.806V21.266ZM235.847 21.266H237.874V19.266H235.847V21.266ZM239.901 21.266H241.928V19.266H239.901V21.266ZM243.956 21.266H245.983V19.266H243.956V21.266ZM248.01 21.266H249.024V19.266H248.01V21.266ZM250.024 20.266V18.7952H248.024V20.266H250.024ZM250.024 15.8537V14.383H248.024V15.8537H250.024ZM249.024 13.383H248.01V15.383H249.024V13.383ZM245.983 13.383H243.956V15.383H245.983V13.383ZM241.928 13.383H239.901V15.383H241.928V13.383ZM237.874 13.383H235.847V15.383H237.874V13.383ZM233.819 13.383H232.806V15.383H233.819V13.383ZM233.806 14.383V13.3959H231.806V14.383H233.806ZM233.806 11.4216V9.44737H231.806V11.4216H233.806ZM233.806 7.47312V6.486H231.806V7.47312H233.806ZM232.806 7.486H233.929V5.486H232.806V7.486ZM236.175 7.486H238.42V5.486H236.175V7.486ZM240.666 7.486H242.912V5.486H240.666V7.486ZM245.158 7.486H247.404V5.486H245.158V7.486ZM249.65 7.486H250.773V5.486H249.65V7.486ZM251.773 6.486V5.01525H249.773V6.486H251.773ZM251.773 2.07375V0.602998H249.773V2.07375H251.773ZM250.773 -0.397002H249.836V1.603H250.773V-0.397002ZM247.962 -0.397002H246.088V1.603H247.962V-0.397002ZM244.214 -0.397002H242.34V1.603H244.214V-0.397002ZM240.466 -0.397002H238.592V1.603H240.466V-0.397002ZM236.718 -0.397002H234.844V1.603H236.718V-0.397002ZM232.97 -0.397002H231.096V1.603H232.97V-0.397002ZM229.223 -0.397002H227.349V1.603H229.223V-0.397002ZM225.475 -0.397002H224.538V1.603H225.475V-0.397002ZM259.536 0.602998V0.102998H259.036V0.602998H259.536ZM271.302 0.602998L271.775 0.440002L271.659 0.102998H271.302V0.602998ZM279.782 25.195L279.31 25.358L279.785 26.7374L280.256 25.3562L279.782 25.195ZM288.156 0.602998V0.102998H287.798L287.683 0.441827L288.156 0.602998ZM299.233 0.602998H299.733V0.102998H299.233V0.602998ZM299.233 35V35.5H299.733V35H299.233ZM291.76 35H291.26V35.5H291.76V35ZM291.76 9.56H292.26V9.06H291.76V9.56ZM291.601 9.56V9.06H291.244L291.128 9.39834L291.601 9.56ZM282.909 35V35.5H283.267L283.383 35.1617L282.909 35ZM276.284 35L275.813 35.166L275.93 35.5H276.284V35ZM267.327 9.56L267.799 9.39395L267.681 9.06H267.327V9.56ZM267.115 9.56V9.06H266.615V9.56H267.115ZM267.115 35V35.5H267.615V35H267.115ZM259.536 35H259.036V35.5H259.536V35ZM259.036 0.602998V1.55847H260.036V0.602998H259.036ZM259.036 3.46941V5.38036H260.036V3.46941H259.036ZM259.036 7.2913V9.20225H260.036V7.2913H259.036ZM259.036 11.1132V13.0241H260.036V11.1132H259.036ZM259.036 14.9351V16.846H260.036V14.9351H259.036ZM259.036 18.757V20.6679H260.036V18.757H259.036ZM259.036 22.5789V24.4898H260.036V22.5789H259.036ZM259.036 26.4007V28.3117H260.036V26.4007H259.036ZM259.036 30.2226V32.1336H260.036V30.2226H259.036ZM259.036 34.0445V35H260.036V34.0445H259.036ZM259.536 35.5H260.484V34.5H259.536V35.5ZM262.378 35.5H264.273V34.5H262.378V35.5ZM266.168 35.5H267.115V34.5H266.168V35.5ZM267.615 35V33.94H266.615V35H267.615ZM267.615 31.82V29.7H266.615V31.82H267.615ZM267.615 27.58V25.46H266.615V27.58H267.615ZM267.615 23.34V21.22H266.615V23.34H267.615ZM267.615 19.1V16.98H266.615V19.1H267.615ZM267.615 14.86V12.74H266.615V14.86H267.615ZM267.615 10.62V9.56H266.615V10.62H267.615ZM267.115 10.06H267.168V9.06H267.115V10.06ZM267.274 10.06H267.327V9.06H267.274V10.06ZM266.856 9.72605L267.176 10.6346L268.119 10.3025L267.799 9.39395L266.856 9.72605ZM267.815 12.4518L268.455 14.2689L269.398 13.9368L268.759 12.1197L267.815 12.4518ZM269.095 16.0861L269.735 17.9032L270.678 17.5711L270.038 15.7539L269.095 16.0861ZM270.375 19.7203L271.014 21.5375L271.958 21.2054L271.318 19.3882L270.375 19.7203ZM271.654 23.3546L272.294 25.1718L273.237 24.8397L272.597 23.0225L271.654 23.3546ZM272.934 26.9889L273.573 28.8061L274.517 28.4739L273.877 26.6568L272.934 26.9889ZM274.213 30.6232L274.853 32.4403L275.796 32.1082L275.157 30.2911L274.213 30.6232ZM275.493 34.2575L275.813 35.166L276.756 34.834L276.436 33.9254L275.493 34.2575ZM276.284 35.5H277.112V34.5H276.284V35.5ZM278.769 35.5H280.425V34.5H278.769V35.5ZM282.081 35.5H282.909V34.5H282.081V35.5ZM283.383 35.1617L283.693 34.2531L282.747 33.9298L282.436 34.8383L283.383 35.1617ZM284.314 32.4359L284.935 30.6188L283.988 30.2955L283.367 32.1126L284.314 32.4359ZM285.556 28.8017L286.176 26.9845L285.23 26.6612L284.609 28.4783L285.556 28.8017ZM286.797 25.1674L287.418 23.3502L286.472 23.0269L285.851 24.8441L286.797 25.1674ZM288.039 21.5331L288.66 19.7159L287.714 19.3926L287.093 21.2098L288.039 21.5331ZM289.281 17.8988L289.901 16.0817L288.955 15.7583L288.334 17.5755L289.281 17.8988ZM290.522 14.2645L291.143 12.4474L290.197 12.1241L289.576 13.9412L290.522 14.2645ZM291.764 10.6302L292.074 9.72166L291.128 9.39834L290.818 10.3069L291.764 10.6302ZM291.601 10.06H291.641V9.06H291.601V10.06ZM291.721 10.06H291.76V9.06H291.721V10.06ZM291.26 9.56V10.62H292.26V9.56H291.26ZM291.26 12.74V14.86H292.26V12.74H291.26ZM291.26 16.98V19.1H292.26V16.98H291.26ZM291.26 21.22V23.34H292.26V21.22H291.26ZM291.26 25.46V27.58H292.26V25.46H291.26ZM291.26 29.7V31.82H292.26V29.7H291.26ZM291.26 33.94V35H292.26V33.94H291.26ZM291.76 35.5H292.694V34.5H291.76V35.5ZM294.563 35.5H296.431V34.5H294.563V35.5ZM298.299 35.5H299.233V34.5H298.299V35.5ZM299.733 35V34.0445H298.733V35H299.733ZM299.733 32.1336V30.2226H298.733V32.1336H299.733ZM299.733 28.3117V26.4007H298.733V28.3117H299.733ZM299.733 24.4898V22.5789H298.733V24.4898H299.733ZM299.733 20.6679V18.757H298.733V20.6679H299.733ZM299.733 16.846V14.9351H298.733V16.846H299.733ZM299.733 13.0241V11.1132H298.733V13.0241H299.733ZM299.733 9.20225V7.29131H298.733V9.20225H299.733ZM299.733 5.38036V3.46942H298.733V5.38036H299.733ZM299.733 1.55847V0.602998H298.733V1.55847H299.733ZM299.233 0.102998H298.31V1.103H299.233V0.102998ZM296.464 0.102998H294.618V1.103H296.464V0.102998ZM292.772 0.102998H290.926V1.103H292.772V0.102998ZM289.079 0.102998H288.156V1.103H289.079V0.102998ZM287.683 0.441827L287.334 1.46649L288.281 1.78884L288.63 0.764168L287.683 0.441827ZM286.636 3.51583L285.938 5.56516L286.885 5.8875L287.583 3.83817L286.636 3.51583ZM285.241 7.61449L284.543 9.66383L285.489 9.98617L286.187 7.93684L285.241 7.61449ZM283.845 11.7132L283.147 13.7625L284.094 14.0848L284.792 12.0355L283.845 11.7132ZM282.449 15.8118L281.751 17.8612L282.698 18.1835L283.396 16.1342L282.449 15.8118ZM281.054 19.9105L280.356 21.9598L281.302 22.2822L282 20.2328L281.054 19.9105ZM279.658 24.0092L279.309 25.0338L280.256 25.3562L280.605 24.3315L279.658 24.0092ZM280.255 25.032L279.952 24.1537L279.007 24.4797L279.31 25.358L280.255 25.032ZM279.346 22.3971L278.741 20.6406L277.795 20.9666L278.401 22.7231L279.346 22.3971ZM278.135 18.884L277.529 17.1274L276.584 17.4534L277.19 19.21L278.135 18.884ZM276.924 15.3709L276.318 13.6143L275.373 13.9403L275.978 15.6969L276.924 15.3709ZM275.712 11.8577L275.106 10.1011L274.161 10.4271L274.767 12.1837L275.712 11.8577ZM274.501 8.34458L273.895 6.58801L272.95 6.914L273.555 8.67057L274.501 8.34458ZM273.289 4.83143L272.684 3.07486L271.738 3.40085L272.344 5.15742L273.289 4.83143ZM272.078 1.31829L271.775 0.440002L270.83 0.765993L271.133 1.64428L272.078 1.31829ZM271.302 0.102998H270.322V1.103H271.302V0.102998ZM268.361 0.102998H266.4V1.103H268.361V0.102998ZM264.439 0.102998H262.478V1.103H264.439V0.102998ZM260.517 0.102998H259.536V1.103H260.517V0.102998ZM259.536 0.602998V-0.397002H258.536V0.602998H259.536ZM271.302 0.602998L272.248 0.277007L272.015 -0.397002H271.302V0.602998ZM279.782 25.195L278.837 25.521L279.788 28.2798L280.729 25.5173L279.782 25.195ZM288.156 0.602998V-0.397002H287.44L287.21 0.280656L288.156 0.602998ZM299.233 0.602998H300.233V-0.397002H299.233V0.602998ZM299.233 35V36H300.233V35H299.233ZM291.76 35H290.76V36H291.76V35ZM291.76 9.56H292.76V8.56H291.76V9.56ZM291.601 9.56V8.56H290.886L290.655 9.23668L291.601 9.56ZM282.909 35V36H283.624L283.856 35.3233L282.909 35ZM276.284 35L275.341 35.3321L275.576 36H276.284V35ZM267.327 9.56L268.271 9.2279L268.035 8.56H267.327V9.56ZM267.115 9.56V8.56H266.115V9.56H267.115ZM267.115 35V36H268.115V35H267.115ZM259.536 35H258.536V36H259.536V35ZM258.536 0.602998V1.55847H260.536V0.602998H258.536ZM258.536 3.46941V5.38036H260.536V3.46941H258.536ZM258.536 7.2913V9.20225H260.536V7.2913H258.536ZM258.536 11.1132V13.0241H260.536V11.1132H258.536ZM258.536 14.9351V16.846H260.536V14.9351H258.536ZM258.536 18.757V20.6679H260.536V18.757H258.536ZM258.536 22.5789V24.4898H260.536V22.5789H258.536ZM258.536 26.4007V28.3117H260.536V26.4007H258.536ZM258.536 30.2226V32.1336H260.536V30.2226H258.536ZM258.536 34.0445V35H260.536V34.0445H258.536ZM259.536 36H260.484V34H259.536V36ZM262.378 36H264.273V34H262.378V36ZM266.168 36H267.115V34H266.168V36ZM268.115 35V33.94H266.115V35H268.115ZM268.115 31.82V29.7H266.115V31.82H268.115ZM268.115 27.58V25.46H266.115V27.58H268.115ZM268.115 23.34V21.22H266.115V23.34H268.115ZM268.115 19.1V16.98H266.115V19.1H268.115ZM268.115 14.86V12.74H266.115V14.86H268.115ZM268.115 10.62V9.56H266.115V10.62H268.115ZM267.115 10.56H267.168V8.56H267.115V10.56ZM267.274 10.56H267.327V8.56H267.274V10.56ZM266.384 9.8921L266.704 10.8007L268.59 10.1365L268.271 9.2279L266.384 9.8921ZM267.344 12.6178L267.984 14.435L269.87 13.7708L269.23 11.9536L267.344 12.6178ZM268.623 16.2521L269.263 18.0692L271.15 17.405L270.51 15.5879L268.623 16.2521ZM269.903 19.8864L270.543 21.7035L272.429 21.0393L271.789 19.2222L269.903 19.8864ZM271.182 23.5207L271.822 25.3378L273.709 24.6736L273.069 22.8565L271.182 23.5207ZM272.462 27.155L273.102 28.9721L274.988 28.3079L274.349 26.4908L272.462 27.155ZM273.742 30.7892L274.381 32.6064L276.268 31.9422L275.628 30.125L273.742 30.7892ZM275.021 34.4235L275.341 35.3321L277.228 34.6679L276.908 33.7593L275.021 34.4235ZM276.284 36H277.112V34H276.284V36ZM278.769 36H280.425V34H278.769V36ZM282.081 36H282.909V34H282.081V36ZM283.856 35.3233L284.166 34.4147L282.273 33.7681L281.963 34.6767L283.856 35.3233ZM284.787 32.5976L285.408 30.7805L283.515 30.1338L282.894 31.951L284.787 32.5976ZM286.029 28.9633L286.65 27.1462L284.757 26.4995L284.136 28.3167L286.029 28.9633ZM287.27 25.329L287.891 23.5119L285.999 22.8653L285.378 24.6824L287.27 25.329ZM288.512 21.6947L289.133 19.8776L287.24 19.231L286.62 21.0481L288.512 21.6947ZM289.754 18.0605L290.375 16.2433L288.482 15.5967L287.861 17.4138L289.754 18.0605ZM290.996 14.4262L291.616 12.609L289.724 11.9624L289.103 13.7795L290.996 14.4262ZM292.237 10.7919L292.548 9.88331L290.655 9.23668L290.345 10.1453L292.237 10.7919ZM291.601 10.56H291.641V8.56H291.601V10.56ZM291.721 10.56H291.76V8.56H291.721V10.56ZM290.76 9.56V10.62H292.76V9.56H290.76ZM290.76 12.74V14.86H292.76V12.74H290.76ZM290.76 16.98V19.1H292.76V16.98H290.76ZM290.76 21.22V23.34H292.76V21.22H290.76ZM290.76 25.46V27.58H292.76V25.46H290.76ZM290.76 29.7V31.82H292.76V29.7H290.76ZM290.76 33.94V35H292.76V33.94H290.76ZM291.76 36H292.694V34H291.76V36ZM294.563 36H296.431V34H294.563V36ZM298.299 36H299.233V34H298.299V36ZM300.233 35V34.0445H298.233V35H300.233ZM300.233 32.1336V30.2226H298.233V32.1336H300.233ZM300.233 28.3117V26.4007H298.233V28.3117H300.233ZM300.233 24.4898V22.5789H298.233V24.4898H300.233ZM300.233 20.6679V18.757H298.233V20.6679H300.233ZM300.233 16.846V14.9351H298.233V16.846H300.233ZM300.233 13.0241V11.1132H298.233V13.0241H300.233ZM300.233 9.20225V7.29131H298.233V9.20225H300.233ZM300.233 5.38036V3.46942H298.233V5.38036H300.233ZM300.233 1.55847V0.602998H298.233V1.55847H300.233ZM299.233 -0.397002H298.31V1.603H299.233V-0.397002ZM296.464 -0.397002H294.618V1.603H296.464V-0.397002ZM292.772 -0.397002H290.926V1.603H292.772V-0.397002ZM289.079 -0.397002H288.156V1.603H289.079V-0.397002ZM287.21 0.280656L286.861 1.30532L288.754 1.95001L289.103 0.925339L287.21 0.280656ZM286.163 3.35466L285.465 5.40399L287.358 6.04867L288.056 3.99934L286.163 3.35466ZM284.767 7.45332L284.069 9.50266L285.963 10.1473L286.661 8.09801L284.767 7.45332ZM283.372 11.552L282.674 13.6013L284.567 14.246L285.265 12.1967L283.372 11.552ZM281.976 15.6507L281.278 17.7L283.171 18.3447L283.869 16.2953L281.976 15.6507ZM280.58 19.7493L279.882 21.7987L281.776 22.4433L282.474 20.394L280.58 19.7493ZM279.185 23.848L278.836 24.8727L280.729 25.5173L281.078 24.4927L279.185 23.848ZM280.728 24.869L280.425 23.9907L278.534 24.6427L278.837 25.521L280.728 24.869ZM279.819 22.2341L279.213 20.4776L277.323 21.1296L277.928 22.8861L279.819 22.2341ZM278.608 18.721L278.002 16.9644L276.111 17.6164L276.717 19.373L278.608 18.721ZM277.396 15.2079L276.791 13.4513L274.9 14.1033L275.506 15.8598L277.396 15.2079ZM276.185 11.6947L275.579 9.93815L273.688 10.5901L274.294 12.3467L276.185 11.6947ZM274.973 8.18158L274.368 6.42501L272.477 7.07699L273.083 8.83356L274.973 8.18158ZM273.762 4.66844L273.156 2.91187L271.266 3.56385L271.871 5.32042L273.762 4.66844ZM272.551 1.15529L272.248 0.277007L270.357 0.928988L270.66 1.80728L272.551 1.15529ZM271.302 -0.397002H270.322V1.603H271.302V-0.397002ZM268.361 -0.397002H266.4V1.603H268.361V-0.397002ZM264.439 -0.397002H262.478V1.603H264.439V-0.397002ZM260.517 -0.397002H259.536V1.603H260.517V-0.397002Z" fill="#77C2F9" fill-opacity="0.9"/>
</svg>
