<svg width="198" height="25" viewBox="0 0 198 25" fill="none" xmlns="http://www.w3.org/2000/svg">
<path d="M8.205 24.105L8.12815 24.5991L8.12978 24.5993L8.205 24.105ZM4.915 23.265L5.07889 22.7926L5.07579 22.7916L4.915 23.265ZM2.01 21.235L1.60646 21.5303L1.61 21.535L2.01 21.235ZM1.695 4.82L1.2622 4.56943L1.25738 4.57816L1.695 4.82ZM3.655 2.72L3.38746 2.29757L3.38337 2.30021L3.655 2.72ZM6.245 1.6L6.38667 2.07951L6.245 1.6ZM9.115 1.04L9.15435 1.53846L9.1577 1.53817L9.115 1.04ZM14.505 1.075L14.4466 1.57157L14.4538 1.57242L14.4611 1.57306L14.505 1.075ZM17.165 1.565L17.3051 1.08482L17.2917 1.08131L17.165 1.565ZM19.93 2.755L20.2011 2.33485V2.33485L19.93 2.755ZM21.75 4.715L21.3181 4.96694L21.3202 4.97054L21.75 4.715ZM21.505 21.025L21.1037 20.7266L21.0988 20.7334L21.505 21.025ZM18.775 23.09L18.5893 22.6258L18.775 23.09ZM13.7 20.395L13.7453 20.8929L13.755 20.8921L13.7647 20.8908L13.7 20.395ZM15.345 20.045L15.205 19.565L15.345 20.045ZM16.605 19.24L16.2078 18.9363L16.205 18.94L16.605 19.24ZM15.765 5.52L15.5272 5.95995L15.5366 5.96478L15.765 5.52ZM7.715 5.485L7.4866 5.04021L7.715 5.485ZM6.875 19.24L6.47782 19.5437L6.4823 19.5496L6.48694 19.5553L6.875 19.24ZM8.205 20.045L8.34501 19.565L8.33982 19.5635L8.205 20.045ZM9.815 20.395L9.74744 20.8904L9.75953 20.8921L9.77169 20.8931L9.815 20.395ZM11.705 23.85C11.5599 23.85 11.4161 23.8489 11.2737 23.8467L11.2583 24.8466C11.4059 24.8489 11.5548 24.85 11.705 24.85V23.85ZM10.4129 23.8192C10.1211 23.805 9.83538 23.7857 9.55565 23.7615L9.46946 24.7578C9.76206 24.7831 10.0603 24.8032 10.364 24.818L10.4129 23.8192ZM8.70358 23.6701C8.56073 23.6517 8.41961 23.6319 8.28022 23.6107L8.12978 24.5993C8.27684 24.6217 8.4255 24.6426 8.57576 24.6619L8.70358 23.6701ZM8.28185 23.6109C8.14743 23.59 8.01212 23.5671 7.8759 23.5422L7.69609 24.5259C7.84084 24.5524 7.98486 24.5768 8.12815 24.5991L8.28185 23.6109ZM7.06802 23.3736C6.80409 23.3117 6.53698 23.2428 6.26667 23.1666L5.99545 24.1291C6.2796 24.2092 6.56112 24.2819 6.84001 24.3472L7.06802 23.3736ZM5.47282 22.9252C5.34222 22.8826 5.2109 22.8384 5.07889 22.7926L4.75111 23.7374C4.88896 23.7852 5.02622 23.8314 5.16288 23.8759L5.47282 22.9252ZM5.07579 22.7916C4.94091 22.7458 4.80986 22.6968 4.68262 22.6448L4.3043 23.5705C4.45079 23.6304 4.60077 23.6863 4.75421 23.7384L5.07579 22.7916ZM3.93625 22.2801C3.69364 22.1396 3.468 21.9846 3.25889 21.8155L2.62997 22.593C2.88063 22.7957 3.14916 22.9798 3.43511 23.1454L3.93625 22.2801ZM2.66842 21.2517C2.5783 21.1501 2.49216 21.0446 2.41 20.935L1.61 21.535C1.70849 21.6663 1.81195 21.7931 1.92037 21.9153L2.66842 21.2517ZM2.41352 20.9397C2.33117 20.8272 2.25427 20.7118 2.18277 20.5934L1.32681 21.1104C1.41363 21.2542 1.50687 21.3941 1.60648 21.5303L2.41352 20.9397ZM1.81761 19.8463C1.71954 19.5911 1.64131 19.3231 1.58332 19.0417L0.603901 19.2435C0.672477 19.5763 0.765768 19.897 0.884176 20.2051L1.81761 19.8463ZM1.47301 18.1995C1.46436 18.0593 1.46 17.9161 1.46 17.77H0.46C0.46 17.936 0.464951 18.0997 0.474913 18.2611L1.47301 18.1995ZM1.46 17.77V17.273H0.46V17.77H1.46ZM1.46 16.279V15.285H0.46V16.279H1.46ZM1.46 14.291V13.297H0.46V14.291H1.46ZM1.46 12.303V11.309H0.46V12.303H1.46ZM1.46 10.315V9.321H0.46V10.315H1.46ZM1.46 8.327V7.83H0.46V8.327H1.46ZM1.46 7.83C1.46 7.7065 1.46319 7.58484 1.46953 7.465L0.470922 7.41217C0.46363 7.55002 0.46 7.6893 0.46 7.83H1.46ZM1.54896 6.745C1.59012 6.50445 1.64547 6.27169 1.71481 6.04649L0.759102 5.75219C0.676722 6.01971 0.611513 6.2945 0.563287 6.57635L1.54896 6.745ZM1.97089 5.37998C2.02107 5.27219 2.07498 5.16615 2.13262 5.06184L1.25738 4.57816C1.1886 4.70261 1.12425 4.82921 1.06432 4.95794L1.97089 5.37998ZM2.12771 5.07052C2.24281 4.87172 2.36493 4.68389 2.49397 4.50683L1.68581 3.91787C1.53537 4.12429 1.39424 4.34157 1.26229 4.56948L2.12771 5.07052ZM3.39533 3.53338C3.56404 3.391 3.74111 3.25983 3.92663 3.13978L3.38337 2.30021C3.16243 2.44318 2.95139 2.59952 2.75039 2.76915L3.39533 3.53338ZM3.92253 3.14241C4.10141 3.02912 4.29307 2.91992 4.4978 2.81499L4.04169 1.92507C3.81187 2.04286 3.59371 2.16698 3.38747 2.29759L3.92253 3.14241ZM5.73742 2.28891C5.94504 2.21588 6.16143 2.14606 6.38667 2.07951L6.10333 1.12049C5.86275 1.19157 5.63015 1.26658 5.40557 1.34558L5.73742 2.28891ZM6.38667 2.07951C6.61956 2.0107 6.84831 1.94819 7.07292 1.89194L6.82998 0.921896C6.59124 0.981688 6.34901 1.0479 6.10333 1.12049L6.38667 2.07951ZM8.45834 1.61631C8.69592 1.58224 8.92791 1.55632 9.15435 1.53845L9.07565 0.541551C8.82705 0.561176 8.57396 0.589504 8.31641 0.626431L8.45834 1.61631ZM9.1577 1.53817C9.36594 1.52032 9.57743 1.50478 9.79218 1.49155L9.7307 0.493444C9.50819 0.507151 9.28872 0.523275 9.0723 0.541826L9.1577 1.53817ZM11.0663 1.44098C11.2764 1.43699 11.4893 1.435 11.705 1.435V0.434999C11.4831 0.434999 11.2639 0.43705 11.0473 0.441157L11.0663 1.44098ZM11.705 1.435C11.9426 1.435 12.1729 1.43732 12.3959 1.44194L12.4166 0.442153C12.1863 0.437379 11.949 0.434999 11.705 0.434999V1.435ZM13.7686 1.5062C14.0061 1.52453 14.2321 1.54634 14.4466 1.57157L14.5634 0.578424C14.3345 0.55149 14.0951 0.528423 13.8455 0.509162L13.7686 1.5062ZM14.4611 1.57306C14.6685 1.59137 14.8836 1.61644 15.1063 1.64837L15.2482 0.658498C15.0088 0.624166 14.7757 0.596941 14.5489 0.576934L14.4611 1.57306ZM16.3962 1.89106C16.6051 1.93874 16.8191 1.99127 17.0383 2.04869L17.2917 1.08131C17.0628 1.02137 16.8385 0.9663 16.6188 0.916142L16.3962 1.89106ZM17.025 2.045C17.1441 2.07975 17.2608 2.11525 17.3749 2.15152L17.6777 1.19846C17.5557 1.15972 17.4315 1.1219 17.305 1.085L17.025 2.045ZM18.0618 2.39017C18.2962 2.47925 18.5177 2.57199 18.7264 2.66828L19.1453 1.76025C18.9141 1.65359 18.6713 1.55201 18.417 1.45539L18.0618 2.39017ZM19.359 2.99295C19.4633 3.05264 19.5632 3.11339 19.6589 3.17515L20.2011 2.33485C20.0899 2.26311 19.9748 2.19322 19.8559 2.12514L19.359 2.99295ZM19.6589 3.17515C19.8285 3.28457 19.9913 3.40554 20.1472 3.53822L20.7953 2.77666C20.6062 2.61574 20.4081 2.46841 20.2011 2.33485L19.6589 3.17515ZM20.9774 4.44302C21.0964 4.60702 21.21 4.78159 21.3181 4.96694L22.1819 4.46306C22.0578 4.25038 21.9262 4.04787 21.7868 3.85576L20.9774 4.44302ZM21.3202 4.97054C21.3821 5.07454 21.4398 5.18151 21.4935 5.2915L22.3922 4.85278C22.3265 4.71836 22.2557 4.58724 22.1798 4.45946L21.3202 4.97054ZM21.7625 5.97431C21.8334 6.20387 21.8899 6.44513 21.9318 6.69845L22.9184 6.53541C22.8696 6.23984 22.8029 5.95439 22.7181 5.67939L21.7625 5.97431ZM22.0107 7.4488C22.0169 7.57336 22.02 7.70042 22.02 7.83H23.02C23.02 7.68443 23.0165 7.54085 23.0095 7.39926L22.0107 7.4488ZM22.02 7.83V8.327H23.02V7.83H22.02ZM22.02 9.321V10.315H23.02V9.321H22.02ZM22.02 11.309V12.303H23.02V11.309H22.02ZM22.02 13.297V14.291H23.02V13.297H22.02ZM22.02 15.285V16.279H23.02V15.285H22.02ZM22.02 17.273V17.77H23.02V17.273H22.02ZM22.02 17.77C22.02 17.9065 22.0157 18.0402 22.0072 18.1713L23.0052 18.2359C23.0151 18.0827 23.02 17.9274 23.02 17.77H22.02ZM21.8997 18.9575C21.8435 19.2189 21.7679 19.4687 21.6731 19.7074L22.6024 20.0766C22.7184 19.7847 22.8099 19.4815 22.8774 19.1674L21.8997 18.9575ZM21.3233 20.4034C21.2552 20.5136 21.1821 20.6213 21.1038 20.7266L21.9062 21.3234C22.0015 21.1952 22.0908 21.0638 22.174 20.929L21.3233 20.4034ZM21.0988 20.7334C21.0219 20.8406 20.9411 20.9443 20.8564 21.0446L21.6205 21.6897C21.7221 21.5693 21.819 21.4449 21.9112 21.3166L21.0988 20.7334ZM20.3019 21.6057C20.1054 21.7758 19.8932 21.9337 19.6648 22.0793L20.2023 22.9225C20.4704 22.7516 20.722 22.5647 20.9565 22.3616L20.3019 21.6057ZM18.961 22.4647C18.8407 22.5211 18.7168 22.5747 18.5893 22.6258L18.9607 23.5542C19.1055 23.4963 19.2471 23.435 19.3852 23.3703L18.961 22.4647ZM18.5893 22.6258C18.4543 22.6798 18.3182 22.732 18.181 22.7824L18.5259 23.721C18.672 23.6674 18.8169 23.6118 18.9607 23.5542L18.5893 22.6258ZM17.3512 23.0614C17.074 23.1462 16.7925 23.2242 16.5065 23.2954L16.7481 24.2658C17.0509 24.1904 17.3495 24.1077 17.6438 24.0176L17.3512 23.0614ZM15.6496 23.4857C15.3649 23.5415 15.076 23.591 14.783 23.634L14.9282 24.6234C15.2367 24.5781 15.5413 24.526 15.8419 24.4671L15.6496 23.4857ZM13.9091 23.742C13.6199 23.7712 13.3268 23.7946 13.0299 23.8119L13.0883 24.8102C13.399 24.792 13.7061 24.7676 14.0097 24.7369L13.9091 23.742ZM12.1472 23.8459C12.0007 23.8486 11.8533 23.85 11.705 23.85V24.85C11.8595 24.85 12.0132 24.8486 12.1661 24.8457L12.1472 23.8459ZM11.775 19.965C11.6081 19.965 11.447 19.9639 11.2917 19.9617L11.2774 20.9616C11.4378 20.9639 11.6037 20.965 11.775 20.965V19.965ZM10.3318 19.9301C10.1638 19.9208 10.006 19.9097 9.85832 19.8969L9.77169 20.8931C9.93103 20.907 10.0994 20.9188 10.2766 20.9286L10.3318 19.9301ZM9.88256 19.8996C9.7556 19.8823 9.62683 19.8619 9.49623 19.8384L9.31945 20.8227C9.46348 20.8486 9.60614 20.8711 9.74744 20.8904L9.88256 19.8996ZM8.72701 19.6699C8.60118 19.6375 8.47384 19.6026 8.345 19.565L8.065 20.525C8.20387 20.5655 8.34159 20.6033 8.47815 20.6384L8.72701 19.6699ZM8.33982 19.5635C8.22461 19.5313 8.11777 19.4949 8.01889 19.4548L7.64329 20.3816C7.77939 20.4368 7.92182 20.4849 8.07019 20.5265L8.33982 19.5635ZM7.47273 19.1364C7.39406 19.0708 7.3244 19.0002 7.26306 18.9247L6.48694 19.5553C6.58996 19.6821 6.70521 19.7984 6.83201 19.9042L7.47273 19.1364ZM7.27218 18.9363C7.21153 18.857 7.15899 18.773 7.11433 18.684L6.2206 19.1326C6.29338 19.2776 6.3792 19.4148 6.47782 19.5437L7.27218 18.9363ZM6.94029 18.0963C6.92695 17.9939 6.92 17.8852 6.92 17.77H5.92C5.92 17.9254 5.92937 18.0773 5.94867 18.2255L6.94029 18.0963ZM6.92 17.77V17.2712H5.92V17.77H6.92ZM6.92 16.2738V15.2762H5.92V16.2738H6.92ZM6.92 14.2787V13.2812H5.92V14.2787H6.92ZM6.92 12.2838V11.2862H5.92V12.2838H6.92ZM6.92 10.2887V9.29125H5.92V10.2887H6.92ZM6.92 8.29375V7.795H5.92V8.29375H6.92ZM6.92 7.795C6.92 7.57556 6.93963 7.37763 6.97643 7.19962L5.99715 6.99715C5.9449 7.24985 5.92 7.51633 5.92 7.795H6.92ZM7.48538 6.24825C7.61131 6.12932 7.76275 6.02255 7.9434 5.92978L7.4866 5.04021C7.22992 5.17202 6.99941 5.33174 6.79878 5.52121L7.48538 6.24825ZM7.9434 5.92978C8.06629 5.86668 8.20371 5.80721 8.35655 5.75201L8.01685 4.81147C7.82863 4.87945 7.65159 4.95549 7.4866 5.04021L7.9434 5.92978ZM9.27201 5.51095C9.56591 5.45588 9.88946 5.41226 10.2434 5.38071L10.1545 4.38466C9.77365 4.41862 9.41786 4.46622 9.08785 4.52805L9.27201 5.51095ZM11.2381 5.32606C11.4007 5.32202 11.568 5.32 11.74 5.32V4.32C11.5602 4.32 11.3846 4.32211 11.2133 4.32636L11.2381 5.32606ZM11.74 5.32C11.9122 5.32 12.0796 5.32214 12.2424 5.3264L12.2685 4.32674C12.0966 4.32224 11.9204 4.32 11.74 4.32V5.32ZM13.2375 5.38409C13.5911 5.41738 13.9142 5.46337 14.2075 5.52138L14.4016 4.54039C14.0704 4.47487 13.7133 4.42446 13.3312 4.38849L13.2375 5.38409ZM15.1183 5.77442C15.2694 5.83201 15.4055 5.89403 15.5272 5.95985L16.0028 5.08015C15.8383 4.99126 15.6619 4.9114 15.4743 4.83993L15.1183 5.77442ZM15.5366 5.96478C15.7163 6.05707 15.8671 6.16248 15.9926 6.27916L16.6735 5.54676C16.4746 5.36185 16.2467 5.20528 15.9934 5.07522L15.5366 5.96478ZM16.5029 7.21075C16.5401 7.38534 16.56 7.57954 16.56 7.795H17.56C17.56 7.5184 17.5345 7.25366 17.481 7.0024L16.5029 7.21075ZM16.56 7.795V8.29375H17.56V7.795H16.56ZM16.56 9.29125V10.2887H17.56V9.29125H16.56ZM16.56 11.2862V12.2837H17.56V11.2862H16.56ZM16.56 13.2812V14.2787H17.56V13.2812H16.56ZM16.56 15.2762V16.2737H17.56V15.2762H16.56ZM16.56 17.2712V17.77H17.56V17.2712H16.56ZM16.56 17.77C16.56 17.8852 16.5531 17.9939 16.5397 18.0963L17.5313 18.2255C17.5506 18.0773 17.56 17.9254 17.56 17.77H16.56ZM16.3657 18.684C16.321 18.773 16.2685 18.857 16.2078 18.9363L17.0022 19.5437C17.1008 19.4148 17.1866 19.2776 17.2594 19.1326L16.3657 18.684ZM16.205 18.94C16.1498 19.0136 16.0867 19.0822 16.0151 19.146L16.6802 19.8928C16.8005 19.7856 16.909 19.668 17.005 19.54L16.205 18.94ZM15.5081 19.4578C15.4152 19.4972 15.3143 19.5331 15.205 19.565L15.485 20.525C15.629 20.483 15.7671 20.4342 15.8989 20.3783L15.5081 19.4578ZM15.205 19.565C15.0745 19.6031 14.9448 19.6384 14.816 19.6711L15.062 20.6404C15.2024 20.6048 15.3434 20.5663 15.485 20.525L15.205 19.565ZM14.0307 19.8391C13.898 19.8621 13.7662 19.8821 13.6353 19.8992L13.7647 20.8908C13.9096 20.8719 14.0552 20.8498 14.2014 20.8245L14.0307 19.8391ZM13.6547 19.8971C13.5119 19.91 13.3576 19.9212 13.1915 19.9306L13.2477 20.929C13.4237 20.9191 13.5895 20.9071 13.7453 20.8929L13.6547 19.8971ZM12.2497 19.9618C12.0976 19.9639 11.9394 19.965 11.775 19.965V20.965C11.9438 20.965 12.1067 20.9639 12.2638 20.9617L12.2497 19.9618ZM8.205 24.105L8.05129 25.0931L8.05456 25.0936L8.205 24.105ZM4.915 23.265L5.24278 22.3202L5.23658 22.3181L4.915 23.265ZM2.01 21.235L1.20291 21.8256L1.21 21.835L2.01 21.235ZM1.695 4.82L0.829574 4.31896L0.82458 4.32759L0.819759 4.33631L1.695 4.82ZM3.655 2.72L3.11992 1.87514L3.11175 1.88043L3.655 2.72ZM6.245 1.6L6.52835 2.55902L6.245 1.6ZM9.115 1.04L9.1937 2.03692L9.2004 2.03635L9.115 1.04ZM14.505 1.075L14.3882 2.06815L14.4026 2.06985L14.4171 2.07113L14.505 1.075ZM17.165 1.565L17.445 0.604999L17.4317 0.601129L17.4184 0.597627L17.165 1.565ZM19.93 2.755L20.4721 1.9147L20.4721 1.9147L19.93 2.755ZM21.75 4.715L20.8862 5.21889L20.8905 5.22608L21.75 4.715ZM21.505 21.025L20.7025 20.4283L20.6976 20.435L20.6927 20.4418L21.505 21.025ZM18.775 23.09L18.4036 22.1615L18.775 23.09ZM13.7 20.395L13.7905 21.3909L13.81 21.3891L13.8293 21.3866L13.7 20.395ZM15.345 20.045L15.065 19.085L15.345 20.045ZM16.605 19.24L15.8106 18.6325L15.805 18.64L16.605 19.24ZM15.765 5.52L15.2895 6.39971L15.2988 6.40474L15.3082 6.40957L15.765 5.52ZM7.715 5.485L7.2582 4.59543L7.715 5.485ZM6.875 19.24L6.08064 19.8475L6.08959 19.8592L6.09889 19.8706L6.875 19.24ZM8.205 20.045L8.48502 19.0849L8.47463 19.082L8.205 20.045ZM9.815 20.395L9.67989 21.3858L9.70406 21.3891L9.72837 21.3912L9.815 20.395ZM11.705 23.35C11.5624 23.35 11.4213 23.3489 11.2814 23.3468L11.2505 25.3465C11.4008 25.3488 11.5523 25.35 11.705 25.35V23.35ZM10.4374 23.3198C10.1516 23.3058 9.87204 23.287 9.59874 23.2634L9.42636 25.2559C9.72539 25.2818 10.0298 25.3023 10.3396 25.3174L10.4374 23.3198ZM8.76749 23.1742C8.62834 23.1563 8.49099 23.137 8.35544 23.1164L8.05456 25.0936C8.20546 25.1166 8.35789 25.138 8.51185 25.1578L8.76749 23.1742ZM8.35871 23.1169C8.22872 23.0967 8.09775 23.0745 7.96581 23.0504L7.60618 25.0178C7.75521 25.045 7.90358 25.0701 8.05129 25.0931L8.35871 23.1169ZM7.18202 22.8867C6.92557 22.8267 6.66566 22.7596 6.40228 22.6854L5.85984 24.6104C6.15091 24.6924 6.43964 24.767 6.726 24.834L7.18202 22.8867ZM5.62779 22.4498C5.50021 22.4082 5.37188 22.365 5.24277 22.3202L4.58723 24.2098C4.72799 24.2586 4.86822 24.3058 5.00791 24.3513L5.62779 22.4498ZM5.23658 22.3181C5.11098 22.2755 4.9894 22.2301 4.87177 22.182L4.11515 24.0333C4.27125 24.0971 4.4307 24.1566 4.59342 24.2119L5.23658 22.3181ZM4.18683 21.8474C3.96588 21.7194 3.76168 21.5791 3.57335 21.4268L2.31551 22.9817C2.58694 23.2013 2.87692 23.4 3.18454 23.5781L4.18683 21.8474ZM3.04244 20.9199C2.96148 20.8286 2.884 20.7337 2.81 20.635L1.21 21.835C1.31666 21.9772 1.42878 22.1146 1.54634 22.2471L3.04244 20.9199ZM2.81703 20.6445C2.74332 20.5438 2.67459 20.4406 2.61075 20.3349L0.89883 21.369C0.993305 21.5254 1.09471 21.6776 1.20297 21.8255L2.81703 20.6445ZM2.28433 19.667C2.19643 19.4382 2.12573 19.1965 2.07304 18.9408L0.114189 19.3444C0.18806 19.7029 0.288881 20.0499 0.417458 20.3844L2.28433 19.667ZM1.97206 18.1687C1.96406 18.039 1.96 17.9062 1.96 17.77H-0.04C-0.04 17.9459 -0.0347528 18.1199 -0.0241368 18.2919L1.97206 18.1687ZM1.96 17.77V17.273H-0.04V17.77H1.96ZM1.96 16.279V15.285H-0.04V16.279H1.96ZM1.96 14.291V13.297H-0.04V14.291H1.96ZM1.96 12.303V11.309H-0.04V12.303H1.96ZM1.96 10.315V9.321H-0.04V10.315H1.96ZM1.96 8.327V7.83H-0.04V8.327H1.96ZM1.96 7.83C1.96 7.71511 1.96296 7.60225 1.96883 7.49141L-0.0283797 7.38576C-0.0361481 7.53261 -0.04 7.6807 -0.04 7.83H1.96ZM2.0418 6.82933C2.07943 6.60943 2.12984 6.39767 2.19267 6.19365L0.281246 5.60504C0.192349 5.89372 0.122208 6.18952 0.0704491 6.49202L2.0418 6.82933ZM2.42418 5.59101C2.46948 5.49368 2.51816 5.39792 2.57024 5.30369L0.819759 4.33631C0.745418 4.47083 0.675832 4.60771 0.611028 4.74691L2.42418 5.59101ZM2.56043 5.32104C2.66709 5.13679 2.77971 4.96369 2.89805 4.80132L1.28173 3.62339C1.12059 3.84449 0.969953 4.07649 0.829574 4.31896L2.56043 5.32104ZM3.7178 3.91549C3.87037 3.78674 4.03045 3.66815 4.19825 3.55957L3.11175 1.88043C2.87309 2.03486 2.64507 2.20377 2.42791 2.38704L3.7178 3.91549ZM4.19005 3.56482C4.35526 3.46019 4.53368 3.35845 4.72585 3.25996L3.81364 1.48011C3.57127 1.60433 3.33985 1.73591 3.11995 1.87518L4.19005 3.56482ZM5.90335 2.76058C6.10249 2.69053 6.31077 2.6233 6.52835 2.55902L5.96165 0.640981C5.71342 0.714324 5.4727 0.79193 5.23965 0.873913L5.90335 2.76058ZM6.52835 2.55902C6.75484 2.4921 6.97684 2.43144 7.19439 2.37696L6.70851 0.436875C6.4627 0.498437 6.21374 0.566502 5.96165 0.640981L6.52835 2.55902ZM8.5293 2.11125C8.7569 2.07861 8.97834 2.0539 9.1937 2.0369L9.0363 0.0431013C8.77662 0.0636015 8.51298 0.0931339 8.24545 0.131492L8.5293 2.11125ZM9.2004 2.03635C9.40454 2.01885 9.61205 2.0036 9.82293 1.99061L9.69996 -0.00560951C9.47357 0.00833607 9.25011 0.0247517 9.0296 0.0436525L9.2004 2.03635ZM11.0757 1.94089C11.2826 1.93696 11.4924 1.935 11.705 1.935V-0.0650015C11.4801 -0.0650015 11.2577 -0.0629215 11.0378 -0.058753L11.0757 1.94089ZM11.705 1.935C11.9393 1.935 12.1662 1.93728 12.3856 1.94183L12.427 -0.0577402C12.193 -0.0625896 11.9523 -0.0650015 11.705 -0.0650015V1.935ZM13.7301 2.00472C13.9616 2.02258 14.1809 2.04377 14.3882 2.06815L14.6218 0.0818481C14.3857 0.0540638 14.1397 0.0303717 13.884 0.010644L13.7301 2.00472ZM14.4171 2.07113C14.6149 2.08858 14.821 2.11257 15.0353 2.14331L15.3192 0.163561C15.0714 0.128031 14.8293 0.0997276 14.5929 0.0788689L14.4171 2.07113ZM16.2849 2.37852C16.4884 2.42496 16.6973 2.47623 16.9116 2.53237L17.4184 0.597627C17.1846 0.536413 16.9552 0.480079 16.7301 0.428684L16.2849 2.37852ZM16.885 2.525C17.0004 2.55867 17.1133 2.59302 17.2235 2.62805L17.8291 0.721935C17.7032 0.681947 17.5752 0.642973 17.445 0.604999L16.885 2.525ZM17.8842 2.85756C18.1087 2.94287 18.3195 3.03119 18.517 3.12229L19.3548 1.30623C19.1123 1.19439 18.8588 1.08839 18.5946 0.987994L17.8842 2.85756ZM19.1106 3.42686C19.2075 3.48236 19.2999 3.53853 19.3879 3.59529L20.4721 1.9147C20.3532 1.83797 20.2306 1.7635 20.1043 1.69123L19.1106 3.42686ZM19.3879 3.59529C19.5388 3.69265 19.6838 3.80045 19.8231 3.919L21.1193 2.39588C20.9136 2.22084 20.6979 2.06034 20.4721 1.9147L19.3879 3.59529ZM20.5727 4.73664C20.6815 4.8866 20.7861 5.04719 20.8862 5.21887L22.6138 4.21113C22.4817 3.98478 22.3411 3.7683 22.1915 3.56213L20.5727 4.73664ZM20.8905 5.22608C20.9452 5.31819 20.9965 5.41309 21.0442 5.51086L22.8415 4.63342C22.7699 4.48679 22.6926 4.34359 22.6095 4.20392L20.8905 5.22608ZM21.2848 6.12178C21.3486 6.32861 21.4001 6.54777 21.4385 6.77997L23.4117 6.45389C23.3594 6.1372 23.2877 5.82964 23.1958 5.53193L21.2848 6.12178ZM21.5113 7.47356C21.5171 7.58961 21.52 7.70841 21.52 7.83H23.52C23.52 7.67644 23.5163 7.52459 23.5089 7.3745L21.5113 7.47356ZM21.52 7.83V8.327H23.52V7.83H21.52ZM21.52 9.321V10.315H23.52V9.321H21.52ZM21.52 11.309V12.303H23.52V11.309H21.52ZM21.52 13.297V14.291H23.52V13.297H21.52ZM21.52 15.285V16.279H23.52V15.285H21.52ZM21.52 17.273V17.77H23.52V17.273H21.52ZM21.52 17.77C21.52 17.896 21.5161 18.019 21.5083 18.139L23.5041 18.2682C23.5147 18.1039 23.52 17.9378 23.52 17.77H21.52ZM21.4108 18.8525C21.3603 19.0876 21.2926 19.3108 21.2084 19.5228L23.0671 20.2612C23.1936 19.9427 23.2931 19.6128 23.3662 19.2724L21.4108 18.8525ZM20.8979 20.1407C20.8375 20.2385 20.7724 20.3344 20.7025 20.4283L22.3075 21.6217C22.4112 21.4822 22.5085 21.3389 22.5994 21.1918L20.8979 20.1407ZM20.6927 20.4418C20.6233 20.5384 20.5505 20.6318 20.4743 20.7221L22.0026 22.0122C22.1127 21.8818 22.2176 21.7471 22.3173 21.6082L20.6927 20.4418ZM19.9746 21.2277C19.7971 21.3813 19.6046 21.5247 19.396 21.6576L20.471 23.3442C20.7591 23.1606 21.0302 22.9591 21.2838 22.7396L19.9746 21.2277ZM18.7489 22.0119C18.6376 22.0641 18.5225 22.114 18.4036 22.1615L19.1464 24.0185C19.2999 23.9571 19.4502 23.892 19.5973 23.8231L18.7489 22.0119ZM18.4036 22.1615C18.273 22.2138 18.1413 22.2643 18.0085 22.3131L18.6984 24.1903C18.8488 24.1351 18.9982 24.0778 19.1464 24.0185L18.4036 22.1615ZM17.2049 22.5833C16.9363 22.6655 16.6632 22.7412 16.3857 22.8102L16.8689 24.751C17.1801 24.6735 17.4872 24.5884 17.7901 24.4958L17.2049 22.5833ZM15.5534 22.9951C15.2767 23.0493 14.9956 23.0974 14.7104 23.1393L15.0008 25.1181C15.317 25.0717 15.6295 25.0182 15.9381 24.9577L15.5534 22.9951ZM13.8588 23.2446C13.5768 23.2731 13.2908 23.2958 13.0007 23.3128L13.1175 25.3094C13.4351 25.2908 13.7493 25.2658 14.0599 25.2344L13.8588 23.2446ZM12.1378 23.3459C11.9945 23.3486 11.8502 23.35 11.705 23.35V25.35C11.8626 25.35 12.0194 25.3485 12.1755 25.3456L12.1378 23.3459ZM11.775 19.465C11.6103 19.465 11.4516 19.4639 11.2988 19.4617L11.2703 21.4615C11.4332 21.4638 11.6015 21.465 11.775 21.465V19.465ZM10.3593 19.4308C10.196 19.4218 10.0435 19.4111 9.90163 19.3988L9.72837 21.3912C9.89355 21.4056 10.0672 21.4178 10.2491 21.4278L10.3593 19.4308ZM9.95011 19.4042C9.83034 19.3878 9.70851 19.3686 9.58462 19.3463L9.23106 21.3148C9.3818 21.3419 9.53141 21.3656 9.67989 21.3858L9.95011 19.4042ZM8.85144 19.1856C8.73097 19.1546 8.60883 19.1211 8.485 19.085L7.925 21.005C8.06889 21.047 8.2118 21.0862 8.35372 21.1227L8.85144 19.1856ZM8.47463 19.082C8.37601 19.0544 8.28696 19.024 8.20669 18.9914L7.45548 20.845C7.6102 20.9077 7.77042 20.9618 7.93537 21.008L8.47463 19.082ZM7.79309 18.7525C7.73848 18.707 7.69161 18.6593 7.65111 18.6094L6.09889 19.8706C6.22275 20.023 6.36079 20.1622 6.51165 20.2881L7.79309 18.7525ZM7.66936 18.6325C7.6277 18.5781 7.5918 18.5207 7.56119 18.4597L5.77373 19.3569C5.86058 19.5299 5.96304 19.6937 6.08064 19.8475L7.66936 18.6325ZM7.4361 18.0317C7.42574 17.9521 7.42 17.8651 7.42 17.77H5.42C5.42 17.9455 5.43058 18.1191 5.45286 18.2901L7.4361 18.0317ZM7.42 17.77V17.2712H5.42V17.77H7.42ZM7.42 16.2738V15.2762H5.42V16.2738H7.42ZM7.42 14.2787V13.2812H5.42V14.2787H7.42ZM7.42 12.2838V11.2862H5.42V12.2838H7.42ZM7.42 10.2887V9.29125H5.42V10.2887H7.42ZM7.42 8.29375V7.795H5.42V8.29375H7.42ZM7.42 7.795C7.42 7.60518 7.43699 7.44152 7.46608 7.30085L5.5075 6.89591C5.44753 7.18596 5.42 7.48671 5.42 7.795H7.42ZM7.82868 6.61177C7.91727 6.5281 8.02916 6.44782 8.17181 6.37457L7.2582 4.59543C6.96351 4.74676 6.69345 4.93296 6.45548 5.15769L7.82868 6.61177ZM8.17181 6.37457C8.27363 6.32228 8.39125 6.27109 8.5264 6.22228L7.84701 4.34121C7.6411 4.41558 7.44424 4.49989 7.2582 4.59543L8.17181 6.37457ZM9.36409 6.0024C9.63994 5.95071 9.94737 5.90909 10.2878 5.87873L10.1101 3.88663C9.71575 3.9218 9.34384 3.97139 8.99577 4.0366L9.36409 6.0024ZM11.2505 5.8259C11.4088 5.82198 11.5719 5.82 11.74 5.82V3.82C11.5563 3.82 11.3766 3.82216 11.2009 3.82652L11.2505 5.8259ZM11.74 5.82C11.908 5.82 12.0711 5.82209 12.2293 5.82623L12.2816 3.82691C12.1051 3.82229 11.9246 3.82 11.74 3.82V5.82ZM13.1906 5.88189C13.53 5.91384 13.8362 5.95761 14.1105 6.01188L14.4986 4.0499C14.1484 3.98062 13.7744 3.928 13.378 3.89069L13.1906 5.88189ZM14.9403 6.24166C15.0732 6.29231 15.189 6.34542 15.2895 6.39971L16.2405 4.64029C16.0548 4.53988 15.8581 4.4511 15.6523 4.37269L14.9403 6.24166ZM15.3082 6.40957C15.4511 6.48297 15.5634 6.5628 15.6522 6.64536L17.0139 5.18056C16.7783 4.96153 16.5119 4.77939 16.2218 4.63043L15.3082 6.40957ZM16.0139 7.31493C16.0429 7.45119 16.06 7.61012 16.06 7.795H18.06C18.06 7.48783 18.0317 7.18781 17.97 6.89822L16.0139 7.31493ZM16.06 7.795V8.29375H18.06V7.795H16.06ZM16.06 9.29125V10.2887H18.06V9.29125H16.06ZM16.06 11.2862V12.2837H18.06V11.2862H16.06ZM16.06 13.2812V14.2787H18.06V13.2812H16.06ZM16.06 15.2762V16.2737H18.06V15.2762H16.06ZM16.06 17.2712V17.77H18.06V17.2712H16.06ZM16.06 17.77C16.06 17.8651 16.0543 17.9521 16.0439 18.0317L18.0271 18.2901C18.0494 18.1191 18.06 17.9455 18.06 17.77H16.06ZM15.9188 18.4597C15.8882 18.5207 15.8523 18.5781 15.8106 18.6325L17.3994 19.8475C17.517 19.6937 17.6194 19.5299 17.7063 19.3569L15.9188 18.4597ZM15.805 18.64C15.7702 18.6864 15.7298 18.7305 15.6826 18.7726L17.0127 20.2662C17.1574 20.1373 17.2886 19.9952 17.405 19.84L15.805 18.64ZM15.3128 18.9976C15.2393 19.0287 15.157 19.0582 15.065 19.085L15.625 21.005C15.7863 20.9579 15.943 20.9027 16.0942 20.8386L15.3128 18.9976ZM15.065 19.085C14.94 19.1214 14.816 19.1553 14.693 19.1865L15.1849 21.125C15.3312 21.0879 15.4779 21.0479 15.625 21.005L15.065 19.085ZM13.9454 19.3465C13.8194 19.3683 13.6945 19.3872 13.5707 19.4034L13.8293 21.3866C13.9813 21.3668 14.1338 21.3436 14.2867 21.3171L13.9454 19.3465ZM13.6095 19.3991C13.4731 19.4115 13.3245 19.4223 13.1634 19.4314L13.2758 21.4282C13.4567 21.418 13.6284 21.4056 13.7905 21.3909L13.6095 19.3991ZM12.2426 19.4618C12.0931 19.4639 11.9372 19.465 11.775 19.465V21.465C11.9459 21.465 12.1112 21.4639 12.2709 21.4616L12.2426 19.4618ZM33.9139 5.17H34.4139V4.67H33.9139V5.17ZM26.9139 5.17H26.4139V5.67H26.9139V5.17ZM26.9139 1.285V0.784998H26.4139V1.285H26.9139ZM46.3389 1.285H46.8389V0.784998H46.3389V1.285ZM46.3389 5.17V5.67H46.8389V5.17H46.3389ZM39.3739 5.17V4.67H38.8739V5.17H39.3739ZM39.3739 24V24.5H39.8739V24H39.3739ZM33.9139 24H33.4139V24.5H33.9139V24ZM33.9139 4.67H33.4764V5.67H33.9139V4.67ZM32.6014 4.67H31.7264V5.67H32.6014V4.67ZM30.8514 4.67H29.9764V5.67H30.8514V4.67ZM29.1014 4.67H28.2264V5.67H29.1014V4.67ZM27.3514 4.67H26.9139V5.67H27.3514V4.67ZM27.4139 5.17V4.68437H26.4139V5.17H27.4139ZM27.4139 3.71312V2.74187H26.4139V3.71312H27.4139ZM27.4139 1.77062V1.285H26.4139V1.77062H27.4139ZM26.9139 1.785H27.3995V0.784998H26.9139V1.785ZM28.3707 1.785H29.342V0.784998H28.3707V1.785ZM30.3132 1.785H31.2845V0.784998H30.3132V1.785ZM32.2557 1.785H33.227V0.784998H32.2557V1.785ZM34.1982 1.785H35.1695V0.784998H34.1982V1.785ZM36.1407 1.785H37.112V0.784998H36.1407V1.785ZM38.0832 1.785H39.0545V0.784998H38.0832V1.785ZM40.0257 1.785H40.997V0.784998H40.0257V1.785ZM41.9682 1.785H42.9395V0.784998H41.9682V1.785ZM43.9107 1.785H44.882V0.784998H43.9107V1.785ZM45.8532 1.785H46.3389V0.784998H45.8532V1.785ZM45.8389 1.285V1.77062H46.8389V1.285H45.8389ZM45.8389 2.74187V3.71312H46.8389V2.74187H45.8389ZM45.8389 4.68437V5.17H46.8389V4.68437H45.8389ZM46.3389 4.67H45.7585V5.67H46.3389V4.67ZM44.5976 4.67H43.4368V5.67H44.5976V4.67ZM42.276 4.67H41.1151V5.67H42.276V4.67ZM39.9543 4.67H39.3739V5.67H39.9543V4.67ZM38.8739 5.17V5.69305H39.8739V5.17H38.8739ZM38.8739 6.73917V7.78528H39.8739V6.73917H38.8739ZM38.8739 8.83139V9.8775H39.8739V8.83139H38.8739ZM38.8739 10.9236V11.9697H39.8739V10.9236H38.8739ZM38.8739 13.0158V14.0619H39.8739V13.0158H38.8739ZM38.8739 15.1081V16.1542H39.8739V15.1081H38.8739ZM38.8739 17.2003V18.2464H39.8739V17.2003H38.8739ZM38.8739 19.2925V20.3386H39.8739V19.2925H38.8739ZM38.8739 21.3847V22.4308H39.8739V21.3847H38.8739ZM38.8739 23.4769V24H39.8739V23.4769H38.8739ZM39.3739 23.5H38.9189V24.5H39.3739V23.5ZM38.0089 23.5H37.0989V24.5H38.0089V23.5ZM36.1889 23.5H35.2789V24.5H36.1889V23.5ZM34.3689 23.5H33.9139V24.5H34.3689V23.5ZM34.4139 24V23.4769H33.4139V24H34.4139ZM34.4139 22.4308V21.3847H33.4139V22.4308H34.4139ZM34.4139 20.3386V19.2925H33.4139V20.3386H34.4139ZM34.4139 18.2464V17.2003H33.4139V18.2464H34.4139ZM34.4139 16.1542V15.1081H33.4139V16.1542H34.4139ZM34.4139 14.0619V13.0158H33.4139V14.0619H34.4139ZM34.4139 11.9697V10.9236H33.4139V11.9697H34.4139ZM34.4139 9.8775V8.83139H33.4139V9.8775H34.4139ZM34.4139 7.78528V6.73916H33.4139V7.78528H34.4139ZM34.4139 5.69305V5.17H33.4139V5.69305H34.4139ZM33.9139 5.17H34.9139V4.17H33.9139V5.17ZM26.9139 5.17H25.9139V6.17H26.9139V5.17ZM26.9139 1.285V0.284998H25.9139V1.285H26.9139ZM46.3389 1.285H47.3389V0.284998H46.3389V1.285ZM46.3389 5.17V6.17H47.3389V5.17H46.3389ZM39.3739 5.17V4.17H38.3739V5.17H39.3739ZM39.3739 24V25H40.3739V24H39.3739ZM33.9139 24H32.9139V25H33.9139V24ZM33.9139 4.17H33.4764V6.17H33.9139V4.17ZM32.6014 4.17H31.7264V6.17H32.6014V4.17ZM30.8514 4.17H29.9764V6.17H30.8514V4.17ZM29.1014 4.17H28.2264V6.17H29.1014V4.17ZM27.3514 4.17H26.9139V6.17H27.3514V4.17ZM27.9139 5.17V4.68437H25.9139V5.17H27.9139ZM27.9139 3.71312V2.74187H25.9139V3.71312H27.9139ZM27.9139 1.77062V1.285H25.9139V1.77062H27.9139ZM26.9139 2.285H27.3995V0.284998H26.9139V2.285ZM28.3707 2.285H29.342V0.284998H28.3707V2.285ZM30.3132 2.285H31.2845V0.284998H30.3132V2.285ZM32.2557 2.285H33.227V0.284998H32.2557V2.285ZM34.1982 2.285H35.1695V0.284998H34.1982V2.285ZM36.1407 2.285H37.112V0.284998H36.1407V2.285ZM38.0832 2.285H39.0545V0.284998H38.0832V2.285ZM40.0257 2.285H40.997V0.284998H40.0257V2.285ZM41.9682 2.285H42.9395V0.284998H41.9682V2.285ZM43.9107 2.285H44.882V0.284998H43.9107V2.285ZM45.8532 2.285H46.3389V0.284998H45.8532V2.285ZM45.3389 1.285V1.77062H47.3389V1.285H45.3389ZM45.3389 2.74187V3.71312H47.3389V2.74187H45.3389ZM45.3389 4.68437V5.17H47.3389V4.68437H45.3389ZM46.3389 4.17H45.7585V6.17H46.3389V4.17ZM44.5976 4.17H43.4368V6.17H44.5976V4.17ZM42.276 4.17H41.1151V6.17H42.276V4.17ZM39.9543 4.17H39.3739V6.17H39.9543V4.17ZM38.3739 5.17V5.69305H40.3739V5.17H38.3739ZM38.3739 6.73917V7.78528H40.3739V6.73917H38.3739ZM38.3739 8.83139V9.8775H40.3739V8.83139H38.3739ZM38.3739 10.9236V11.9697H40.3739V10.9236H38.3739ZM38.3739 13.0158V14.0619H40.3739V13.0158H38.3739ZM38.3739 15.1081V16.1542H40.3739V15.1081H38.3739ZM38.3739 17.2003V18.2464H40.3739V17.2003H38.3739ZM38.3739 19.2925V20.3386H40.3739V19.2925H38.3739ZM38.3739 21.3847V22.4308H40.3739V21.3847H38.3739ZM38.3739 23.4769V24H40.3739V23.4769H38.3739ZM39.3739 23H38.9189V25H39.3739V23ZM38.0089 23H37.0989V25H38.0089V23ZM36.1889 23H35.2789V25H36.1889V23ZM34.3689 23H33.9139V25H34.3689V23ZM34.9139 24V23.4769H32.9139V24H34.9139ZM34.9139 22.4308V21.3847H32.9139V22.4308H34.9139ZM34.9139 20.3386V19.2925H32.9139V20.3386H34.9139ZM34.9139 18.2464V17.2003H32.9139V18.2464H34.9139ZM34.9139 16.1542V15.1081H32.9139V16.1542H34.9139ZM34.9139 14.0619V13.0158H32.9139V14.0619H34.9139ZM34.9139 11.9697V10.9236H32.9139V11.9697H34.9139ZM34.9139 9.8775V8.83139H32.9139V9.8775H34.9139ZM34.9139 7.78528V6.73916H32.9139V7.78528H34.9139ZM34.9139 5.69305V5.17H32.9139V5.69305H34.9139ZM51.2293 1.285V0.784998H50.7293V1.285H51.2293ZM65.4393 1.775L65.3044 2.25661L65.3158 2.25951L65.4393 1.775ZM67.9593 3.28L67.5496 3.56677L67.5543 3.57325L67.9593 3.28ZM67.9243 10.735L67.5556 10.397L67.548 10.4057L67.9243 10.735ZM66.1743 11.89L66.0261 11.4125L65.6743 11.5216V11.89H66.1743ZM66.1743 12.065H65.6743V12.5151L66.122 12.5623L66.1743 12.065ZM68.5893 13.22L68.2477 13.5851L68.2538 13.5908L68.26 13.5963L68.5893 13.22ZM67.5043 22.845L67.2723 22.4021L67.5043 22.845ZM51.2293 24H50.7293V24.5H51.2293V24ZM62.3593 10.315L62.2012 9.84066V9.84066L62.3593 10.315ZM63.1993 9.65L62.7521 9.42639L62.7486 9.43338L62.7453 9.44047L63.1993 9.65ZM63.2343 5.94L62.7871 6.16361L62.7911 6.17159L62.7953 6.17942L63.2343 5.94ZM62.3593 5.345L62.2255 5.8268L62.232 5.82854L62.3593 5.345ZM56.6893 5.17V4.67H56.1893V5.17H56.6893ZM56.6893 10.525H56.1893V11.025H56.6893V10.525ZM63.4093 19.66L63.1712 19.2204L63.4093 19.66ZM63.5843 14.585L63.2641 14.9692L63.2745 14.9774L63.5843 14.585ZM56.6893 14.06V13.56H56.1893V14.06H56.6893ZM56.6893 20.115H56.1893V20.615H56.6893V20.115ZM50.7293 1.285V1.80125H51.7293V1.285H50.7293ZM50.7293 2.83375V3.86625H51.7293V2.83375H50.7293ZM50.7293 4.89875V5.93125H51.7293V4.89875H50.7293ZM50.7293 6.96375V7.99625H51.7293V6.96375H50.7293ZM50.7293 9.02875V10.0613H51.7293V9.02875H50.7293ZM50.7293 11.0938V12.1263H51.7293V11.0938H50.7293ZM50.7293 13.1588V14.1912H51.7293V13.1588H50.7293ZM50.7293 15.2238V16.2563H51.7293V15.2238H50.7293ZM50.7293 17.2888V18.3213H51.7293V17.2888H50.7293ZM50.7293 19.3538V20.3862H51.7293V19.3538H50.7293ZM50.7293 21.4187V22.4512H51.7293V21.4187H50.7293ZM50.7293 23.4837V24H51.7293V23.4837H50.7293ZM51.2293 24.5H51.7018V23.5H51.2293V24.5ZM52.6468 24.5H53.5918V23.5H52.6468V24.5ZM54.5368 24.5H55.4818V23.5H54.5368V24.5ZM56.4268 24.5H57.3718V23.5H56.4268V24.5ZM58.3168 24.5H59.2618V23.5H58.3168V24.5ZM60.2068 24.5H60.6793V23.5H60.2068V24.5ZM60.6793 24.5C60.8792 24.5 61.076 24.4984 61.2695 24.4952L61.253 23.4953C61.0651 23.4984 60.8739 23.5 60.6793 23.5V24.5ZM62.4523 24.4534C62.8636 24.4305 63.2584 24.3992 63.6366 24.3593L63.5317 23.3648C63.1713 23.4028 62.793 23.4329 62.3968 23.4549L62.4523 24.4534ZM64.8219 24.1969C65.2396 24.1251 65.6334 24.0401 66.0028 23.9416L65.7452 22.9753C65.4081 23.0652 65.0439 23.144 64.6523 23.2114L64.8219 24.1969ZM67.1686 23.5524C67.3672 23.4701 67.5566 23.3821 67.7363 23.2879L67.2723 22.4021C67.1211 22.4813 66.9592 22.5568 66.7862 22.6284L67.1686 23.5524ZM67.7363 23.2879C67.9347 23.184 68.1224 23.0704 68.2992 22.9468L67.7261 22.1273C67.5861 22.2252 67.435 22.3169 67.2723 22.4021L67.7363 23.2879ZM69.2687 22.0257C69.5398 21.672 69.7516 21.2779 69.9048 20.8463L68.9625 20.5117C68.8426 20.8491 68.6799 21.1501 68.475 21.4174L69.2687 22.0257ZM70.1799 19.5663C70.1996 19.3582 70.2093 19.1444 70.2093 18.925H69.2093C69.2093 19.1149 69.2009 19.2972 69.1843 19.472L70.1799 19.5663ZM70.2093 18.925V18.4875H69.2093V18.925H70.2093ZM70.2093 17.6125V16.7375H69.2093V17.6125H70.2093ZM70.2093 15.8625V15.425H69.2093V15.8625H70.2093ZM70.2093 15.425C70.2093 15.1678 70.1781 14.9154 70.1151 14.6691L69.1463 14.9169C69.1881 15.0804 69.2093 15.2494 69.2093 15.425H70.2093ZM69.4205 13.3531C69.2721 13.1759 69.1043 13.0063 68.9185 12.8437L68.26 13.5963C68.4109 13.7283 68.5418 13.8615 68.6541 13.9954L69.4205 13.3531ZM68.9309 12.8549C68.7441 12.6801 68.5508 12.5218 68.3508 12.3804L67.7736 13.197C67.9341 13.3105 68.0922 13.4397 68.2477 13.5851L68.9309 12.8549ZM66.9809 11.7145C66.735 11.6437 66.4835 11.5948 66.2266 11.5677L66.122 12.5623C66.3214 12.5832 66.5152 12.621 66.704 12.6754L66.9809 11.7145ZM66.6743 12.065V12.0212H65.6743V12.065H66.6743ZM66.6743 11.9338V11.89H65.6743V11.9338H66.6743ZM66.3225 12.3675C66.5154 12.3076 66.7023 12.235 66.8829 12.1494L66.4547 11.2457C66.3175 11.3107 66.1747 11.3663 66.0261 11.4125L66.3225 12.3675ZM67.8826 11.4861C68.029 11.3562 68.1683 11.2155 68.3006 11.0643L67.548 10.4057C67.4423 10.5265 67.3326 10.6372 67.2189 10.7381L67.8826 11.4861ZM68.2929 11.0729C68.4242 10.9296 68.5426 10.7821 68.6472 10.6301L67.8234 10.0632C67.7473 10.1738 67.6584 10.2852 67.5557 10.3971L68.2929 11.0729ZM69.1282 9.55252C69.1723 9.35448 69.1943 9.15342 69.1943 8.95H68.1943C68.1943 9.08074 68.1802 9.20891 68.1521 9.33519L69.1282 9.55252ZM69.1943 8.95V8.25H68.1943V8.95H69.1943ZM69.1943 6.85V6.15H68.1943V6.85H69.1943ZM69.1943 6.15C69.1943 6.01465 69.1915 5.88198 69.1859 5.75201L68.1868 5.79517C68.1918 5.91009 68.1943 6.02836 68.1943 6.15H69.1943ZM69.1097 4.94926C69.0665 4.66567 69.0062 4.39675 68.9279 4.1434L67.9725 4.43859C68.0346 4.63969 68.0845 4.85985 68.1211 5.09996L69.1097 4.94926ZM68.5983 3.35687C68.5271 3.2274 68.4491 3.10393 68.3643 2.98674L67.5543 3.57325C67.6141 3.65578 67.6701 3.74422 67.7221 3.83885L68.5983 3.35687ZM68.3689 2.99327C68.2032 2.75656 68.0056 2.54168 67.7782 2.34825L67.1302 3.10994C67.2966 3.25147 67.4357 3.40385 67.5497 3.56673L68.3689 2.99327ZM66.3297 1.52843C66.0887 1.43851 65.8329 1.35935 65.5628 1.29049L65.3158 2.25951C65.5548 2.32042 65.776 2.38918 65.9801 2.46533L66.3297 1.52843ZM65.5741 1.29352C65.436 1.25485 65.2923 1.21859 65.143 1.18467L64.9214 2.15981C65.0559 2.19037 65.1835 2.22261 65.3045 2.25648L65.5741 1.29352ZM64.2812 1.02342C64.0099 0.982109 63.7236 0.946315 63.4225 0.915919L63.3221 1.91086C63.6083 1.93975 63.8778 1.97351 64.1307 2.01202L64.2812 1.02342ZM62.566 0.846401C62.292 0.829108 62.0073 0.815492 61.712 0.805521L61.6783 1.80495C61.9646 1.81462 62.2395 1.82778 62.5031 1.84442L62.566 0.846401ZM60.8598 0.78713C60.72 0.785708 60.5782 0.784998 60.4343 0.784998V1.785C60.5749 1.785 60.7134 1.78569 60.8496 1.78708L60.8598 0.78713ZM60.4343 0.784998H59.974V1.785H60.4343V0.784998ZM59.0535 0.784998H58.133V1.785H59.0535V0.784998ZM57.2125 0.784998H56.292V1.785H57.2125V0.784998ZM55.3715 0.784998H54.451V1.785H55.3715V0.784998ZM53.5305 0.784998H52.61V1.785H53.5305V0.784998ZM51.6895 0.784998H51.2293V1.785H51.6895V0.784998ZM60.4343 10.025H59.9662V11.025H60.4343V10.025ZM59.0299 10.025H58.0937V11.025H59.0299V10.025ZM57.1574 10.025H56.6893V11.025H57.1574V10.025ZM57.1893 10.525V10.0787H56.1893V10.525H57.1893ZM57.1893 9.18625V8.29375H56.1893V9.18625H57.1893ZM57.1893 7.40125V6.50875H56.1893V7.40125H57.1893ZM57.1893 5.61625V5.17H56.1893V5.61625H57.1893ZM56.6893 5.67H57.1443V4.67H56.6893V5.67ZM58.0543 5.67H58.9643V4.67H58.0543V5.67ZM59.8743 5.67H60.3293V4.67H59.8743V5.67ZM60.3293 5.67C60.5051 5.67 60.6708 5.67212 60.8265 5.67631L60.8535 4.67667C60.6878 4.67221 60.513 4.67 60.3293 4.67V5.67ZM61.7928 5.74407C61.9725 5.76786 62.1154 5.79617 62.2255 5.82676L62.4931 4.86324C62.3255 4.81667 62.1344 4.78058 61.9241 4.75272L61.7928 5.74407ZM62.232 5.82854C62.308 5.84851 62.375 5.87053 62.4338 5.89394L62.8034 4.96474C62.7028 4.92472 62.5969 4.8905 62.4865 4.86146L62.232 5.82854ZM62.7181 6.06793C62.7487 6.0994 62.7708 6.13113 62.7871 6.16361L63.6815 5.71639C63.6174 5.58809 63.5341 5.4725 63.4344 5.37013L62.7181 6.06793ZM62.7953 6.17942C62.8176 6.22027 62.8417 6.27801 62.8638 6.35746L63.8271 6.089C63.7889 5.95201 63.7389 5.82093 63.6732 5.70057L62.7953 6.17942ZM62.9368 6.85417C62.9417 6.93952 62.9443 7.0314 62.9443 7.13H63.9443C63.9443 7.01418 63.9413 6.90281 63.9351 6.79609L62.9368 6.85417ZM62.9443 7.13V7.41H63.9443V7.13H62.9443ZM62.9443 7.97V8.25H63.9443V7.97H62.9443ZM62.9443 8.25C62.9443 8.36617 62.9411 8.47527 62.9348 8.57749L63.9329 8.63888C63.9406 8.51426 63.9443 8.38458 63.9443 8.25H62.9443ZM62.8432 9.18171C62.816 9.28009 62.7849 9.3608 62.7521 9.42639L63.6465 9.87361C63.7125 9.7416 63.7653 9.59908 63.8069 9.44863L62.8432 9.18171ZM62.7453 9.44047C62.7256 9.4832 62.7005 9.52288 62.669 9.56033L63.4346 10.2036C63.5227 10.0988 63.5959 9.98383 63.6533 9.85953L62.7453 9.44047ZM62.3947 9.76244C62.3383 9.79007 62.2741 9.81636 62.2012 9.84066L62.5174 10.7893C62.6281 10.7524 62.7341 10.7097 62.8345 10.6605L62.3947 9.76244ZM62.2012 9.84066C62.0967 9.87547 61.9654 9.90768 61.8039 9.93503L61.9708 10.921C62.1694 10.8874 62.3527 10.8442 62.5174 10.7893L62.2012 9.84066ZM60.9024 10.0171C60.7557 10.0223 60.5996 10.025 60.4343 10.025V11.025C60.6102 11.025 60.7782 11.0222 60.9381 11.0165L60.9024 10.0171ZM60.5743 19.615H60.0887V20.615H60.5743V19.615ZM59.1174 19.615H58.1462V20.615H59.1174V19.615ZM57.1749 19.615H56.6893V20.615H57.1749V19.615ZM57.1893 20.115V19.6104H56.1893V20.115H57.1893ZM57.1893 18.6012V17.5921H56.1893V18.6012H57.1893ZM57.1893 16.5829V15.5737H56.1893V16.5829H57.1893ZM57.1893 14.5646V14.06H56.1893V14.5646H57.1893ZM56.6893 14.56H57.2668V13.56H56.6893V14.56ZM58.4218 14.56H59.5768V13.56H58.4218V14.56ZM60.7318 14.56H61.3093V13.56H60.7318V14.56ZM61.3093 14.56C61.5096 14.56 61.6959 14.5661 61.8685 14.5781L61.9377 13.5805C61.7393 13.5667 61.5298 13.56 61.3093 13.56V14.56ZM62.894 14.7681C63.0614 14.8299 63.1807 14.8995 63.2642 14.9691L63.9044 14.2009C63.7146 14.0427 63.4891 13.9217 63.2401 13.8299L62.894 14.7681ZM63.2745 14.9774C63.3575 15.043 63.43 15.1227 63.4921 15.2195L64.3338 14.6796C64.2138 14.4925 64.0672 14.3292 63.8941 14.1926L63.2745 14.9774ZM63.7244 15.9398C63.7407 16.0703 63.7493 16.2135 63.7493 16.37H64.7493C64.7493 16.1773 64.7387 15.9924 64.7167 15.8159L63.7244 15.9398ZM63.7493 16.37V16.825H64.7493V16.37H63.7493ZM63.7493 17.735V18.19H64.7493V17.735H63.7493ZM63.7493 18.19C63.7493 18.316 63.7371 18.4273 63.7153 18.5255L64.6915 18.7423C64.7309 18.565 64.7493 18.3803 64.7493 18.19H63.7493ZM63.4306 19.0367C63.3608 19.1021 63.2754 19.1639 63.1712 19.2204L63.6474 20.0996C63.8195 20.0065 63.9762 19.8959 64.1145 19.7663L63.4306 19.0367ZM63.1712 19.2204C63.0333 19.295 62.8493 19.3652 62.6106 19.425L62.8534 20.3951C63.1495 20.3209 63.417 20.2245 63.6474 20.0996L63.1712 19.2204ZM61.2736 19.5988C61.0556 19.6096 60.8226 19.615 60.5743 19.615V20.615C60.8371 20.615 61.0866 20.6092 61.3229 20.5976L61.2736 19.5988ZM51.2293 1.285V0.284998H50.2293V1.285H51.2293ZM65.4393 1.775L65.1697 2.73796L65.1809 2.74112L65.1923 2.74401L65.4393 1.775ZM67.9593 3.28L67.1401 3.85346L67.1447 3.86002L67.1494 3.86651L67.9593 3.28ZM67.9243 10.735L67.1871 10.0593L67.1793 10.0678L67.1717 10.0765L67.9243 10.735ZM66.1743 11.89L65.8779 10.9349L65.1743 11.1533V11.89H66.1743ZM66.1743 12.065H65.1743V12.9653L66.0696 13.0595L66.1743 12.065ZM68.5893 13.22L67.9061 13.9503L67.9183 13.9616L67.9308 13.9726L68.5893 13.22ZM67.5043 22.845L67.0403 21.9592V21.9592L67.5043 22.845ZM51.2293 24H50.2293V25H51.2293V24ZM62.3593 10.315L62.0431 9.36632H62.0431L62.3593 10.315ZM63.1993 9.65L62.3049 9.20279L62.2979 9.21676L62.2913 9.23094L63.1993 9.65ZM63.2343 5.94L62.3399 6.38721L62.3479 6.40318L62.3564 6.41885L63.2343 5.94ZM62.3593 5.345L62.0916 6.30861L62.1048 6.31207L62.3593 5.345ZM56.6893 5.17V4.17H55.6893V5.17H56.6893ZM56.6893 10.525H55.6893V11.525H56.6893V10.525ZM63.4093 19.66L62.933 18.7807L63.4093 19.66ZM63.5843 14.585L62.9441 15.3532L62.9543 15.3617L62.9647 15.3699L63.5843 14.585ZM56.6893 14.06V13.06H55.6893V14.06H56.6893ZM56.6893 20.115H55.6893V21.115H56.6893V20.115ZM50.2293 1.285V1.80125H52.2293V1.285H50.2293ZM50.2293 2.83375V3.86625H52.2293V2.83375H50.2293ZM50.2293 4.89875V5.93125H52.2293V4.89875H50.2293ZM50.2293 6.96375V7.99625H52.2293V6.96375H50.2293ZM50.2293 9.02875V10.0613H52.2293V9.02875H50.2293ZM50.2293 11.0938V12.1263H52.2293V11.0938H50.2293ZM50.2293 13.1588V14.1912H52.2293V13.1588H50.2293ZM50.2293 15.2238V16.2563H52.2293V15.2238H50.2293ZM50.2293 17.2888V18.3213H52.2293V17.2888H50.2293ZM50.2293 19.3538V20.3862H52.2293V19.3538H50.2293ZM50.2293 21.4187V22.4512H52.2293V21.4187H50.2293ZM50.2293 23.4837V24H52.2293V23.4837H50.2293ZM51.2293 25H51.7018V23H51.2293V25ZM52.6468 25H53.5918V23H52.6468V25ZM54.5368 25H55.4818V23H54.5368V25ZM56.4268 25H57.3718V23H56.4268V25ZM58.3168 25H59.2618V23H58.3168V25ZM60.2068 25H60.6793V23H60.2068V25ZM60.6793 25C60.8819 25 61.0814 24.9984 61.2778 24.9951L61.2447 22.9954C61.0597 22.9985 60.8712 23 60.6793 23V25ZM62.4801 24.9526C62.8989 24.9293 63.3019 24.8974 63.689 24.8565L63.4793 22.8676C63.1278 22.9046 62.7578 22.9341 62.3691 22.9557L62.4801 24.9526ZM64.9066 24.6897C65.3374 24.6156 65.746 24.5275 66.1316 24.4247L65.6164 22.4922C65.2954 22.5778 64.9461 22.6535 64.5675 22.7186L64.9066 24.6897ZM67.3598 24.0144C67.5713 23.9268 67.7743 23.8325 67.9683 23.7308L67.0403 21.9592C66.9034 22.0309 66.7551 22.1001 66.595 22.1664L67.3598 24.0144ZM67.9683 23.7308C68.1845 23.6176 68.3906 23.493 68.5857 23.3565L67.4395 21.7176C67.3179 21.8026 67.1851 21.8833 67.0403 21.9592L67.9683 23.7308ZM69.6655 22.3299C69.9698 21.933 70.206 21.4923 70.376 21.0136L68.4913 20.3444C68.3882 20.6348 68.2499 20.8892 68.0782 21.1132L69.6655 22.3299ZM70.6777 19.6134C70.6989 19.3887 70.7093 19.1591 70.7093 18.925H68.7093C68.7093 19.1002 68.7015 19.2667 68.6866 19.4249L70.6777 19.6134ZM70.7093 18.925V18.4875H68.7093V18.925H70.7093ZM70.7093 17.6125V16.7375H68.7093V17.6125H70.7093ZM70.7093 15.8625V15.425H68.7093V15.8625H70.7093ZM70.7093 15.425C70.7093 15.1269 70.6731 14.8329 70.5994 14.5451L68.6619 15.0408C68.6931 15.1629 68.7093 15.2903 68.7093 15.425H70.7093ZM69.8038 13.032C69.6372 12.8332 69.451 12.6452 69.2478 12.4674L67.9308 13.9726C68.0642 14.0893 68.1767 14.2042 68.2709 14.3166L69.8038 13.032ZM69.2725 12.4897C69.0701 12.3004 68.8591 12.1274 68.6394 11.9721L67.4849 13.6053C67.6258 13.7048 67.7663 13.8194 67.9061 13.9503L69.2725 12.4897ZM67.1193 11.2341C66.8449 11.155 66.5646 11.1006 66.279 11.0705L66.0696 13.0595C66.2403 13.0775 66.4053 13.1097 66.5655 13.1558L67.1193 11.2341ZM67.1743 12.065V12.0212H65.1743V12.065H67.1743ZM67.1743 11.9338V11.89H65.1743V11.9338H67.1743ZM66.4707 12.8451C66.6858 12.7783 66.8948 12.6971 67.0971 12.6012L66.2406 10.7939C66.1251 10.8486 66.0043 10.8957 65.8779 10.9349L66.4707 12.8451ZM68.2144 11.8601C68.3772 11.7157 68.5312 11.5599 68.6769 11.3935L67.1717 10.0765C67.0793 10.1821 66.9844 10.2777 66.8871 10.3641L68.2144 11.8601ZM68.6615 11.4107C68.8071 11.2518 68.9403 11.0862 69.0591 10.9136L67.4115 9.77978C67.3496 9.86968 67.2754 9.96297 67.1871 10.0593L68.6615 11.4107ZM69.6162 9.66119C69.6683 9.42727 69.6943 9.18976 69.6943 8.95H67.6943C67.6943 9.0444 67.6842 9.13613 67.664 9.22652L69.6162 9.66119ZM69.6943 8.95V8.25H67.6943V8.95H69.6943ZM69.6943 6.85V6.15H67.6943V6.85H69.6943ZM69.6943 6.15C69.6943 6.0078 69.6914 5.86793 69.6854 5.73043L67.6873 5.81675C67.6919 5.92415 67.6943 6.03521 67.6943 6.15H69.6943ZM69.604 4.87391C69.5574 4.56857 69.492 4.27528 69.4057 3.9958L67.4948 4.58618C67.5488 4.76116 67.5935 4.95695 67.6268 5.1753L69.604 4.87391ZM69.0364 3.11588C68.9556 2.96899 68.8666 2.82801 68.7692 2.69349L67.1494 3.86651C67.1966 3.93171 67.2416 4.00263 67.284 4.07984L69.0364 3.11588ZM68.7785 2.70654C68.587 2.43292 68.36 2.18678 68.1021 1.96741L66.8063 3.49078C66.9421 3.60636 67.0519 3.7275 67.1401 3.85346L68.7785 2.70654ZM66.5045 1.05999C66.2451 0.963179 65.972 0.878812 65.6863 0.805984L65.1923 2.74401C65.4157 2.80096 65.6197 2.86451 65.8053 2.93378L66.5045 1.05999ZM65.7089 0.812035C65.5623 0.770969 65.4105 0.732705 65.2538 0.697098L64.8106 2.64738C64.9377 2.67626 65.0573 2.7065 65.1697 2.73796L65.7089 0.812035ZM64.3565 0.529115C64.076 0.486407 63.7813 0.449595 63.4728 0.418447L63.2719 2.40833C63.5506 2.43647 63.8117 2.46921 64.0554 2.50633L64.3565 0.529115ZM62.5975 0.347394C62.3182 0.32977 62.0287 0.315928 61.7289 0.305806L61.6614 2.30467C61.9432 2.31418 62.2132 2.32712 62.4716 2.34342L62.5975 0.347394ZM60.8648 0.287156C60.7234 0.285717 60.5799 0.284998 60.4343 0.284998V2.285C60.5733 2.285 60.71 2.28568 60.8445 2.28705L60.8648 0.287156ZM60.4343 0.284998H59.974V2.285H60.4343V0.284998ZM59.0535 0.284998H58.133V2.285H59.0535V0.284998ZM57.2125 0.284998H56.292V2.285H57.2125V0.284998ZM55.3715 0.284998H54.451V2.285H55.3715V0.284998ZM53.5305 0.284998H52.61V2.285H53.5305V0.284998ZM51.6895 0.284998H51.2293V2.285H51.6895V0.284998ZM60.4343 9.525H59.9662V11.525H60.4343V9.525ZM59.0299 9.525H58.0937V11.525H59.0299V9.525ZM57.1574 9.525H56.6893V11.525H57.1574V9.525ZM57.6893 10.525V10.0787H55.6893V10.525H57.6893ZM57.6893 9.18625V8.29375H55.6893V9.18625H57.6893ZM57.6893 7.40125V6.50875H55.6893V7.40125H57.6893ZM57.6893 5.61625V5.17H55.6893V5.61625H57.6893ZM56.6893 6.17H57.1443V4.17H56.6893V6.17ZM58.0543 6.17H58.9643V4.17H58.0543V6.17ZM59.8743 6.17H60.3293V4.17H59.8743V6.17ZM60.3293 6.17C60.5011 6.17 60.6623 6.17207 60.8131 6.17613L60.8669 4.17685C60.6963 4.17226 60.517 4.17 60.3293 4.17V6.17ZM61.7272 6.23974C61.8915 6.2615 62.0103 6.28592 62.0917 6.30852L62.6269 4.38148C62.4305 4.32691 62.2154 4.28693 61.9897 4.25705L61.7272 6.23974ZM62.1048 6.31207C62.1635 6.32752 62.2111 6.34344 62.2491 6.35854L62.9882 4.50014C62.8667 4.45181 62.7414 4.4115 62.6138 4.37792L62.1048 6.31207ZM62.3599 6.41683C62.3584 6.41528 62.3553 6.4118 62.3513 6.40632C62.3474 6.40079 62.3434 6.39432 62.3399 6.38721L64.1287 5.49278C64.0406 5.31658 63.9268 5.15906 63.7925 5.02123L62.3599 6.41683ZM62.3564 6.41885C62.3564 6.41883 62.3571 6.4202 62.3585 6.42317C62.3599 6.42615 62.3618 6.4306 62.3642 6.43668C62.369 6.44897 62.3753 6.46698 62.3822 6.49168L64.3088 5.95477C64.2626 5.78901 64.1995 5.62127 64.1122 5.46115L62.3564 6.41885ZM62.4376 6.88321C62.4419 6.95787 62.4443 7.04 62.4443 7.13H64.4443C64.4443 7.00557 64.4411 6.88446 64.4342 6.76705L62.4376 6.88321ZM62.4443 7.13V7.41H64.4443V7.13H62.4443ZM62.4443 7.97V8.25H64.4443V7.97H62.4443ZM62.4443 8.25C62.4443 8.35696 62.4413 8.45578 62.4357 8.54679L64.4319 8.66957C64.4403 8.53376 64.4443 8.39379 64.4443 8.25H62.4443ZM62.3614 9.04825C62.3413 9.1206 62.3211 9.1704 62.3049 9.20279L64.0937 10.0972C64.1763 9.932 64.2399 9.75858 64.2888 9.58209L62.3614 9.04825ZM62.2913 9.23094C62.2904 9.23289 62.2894 9.23492 62.2862 9.23867L63.8174 10.5253C63.9338 10.3868 64.0311 10.2341 64.1073 10.0691L62.2913 9.23094ZM62.1748 9.31339C62.1404 9.33024 62.0971 9.34832 62.0431 9.36632L62.6755 11.2637C62.8051 11.2205 62.932 11.1696 63.0544 11.1096L62.1748 9.31339ZM62.0431 9.36632C61.9688 9.39108 61.8634 9.41783 61.7204 9.44204L62.0542 11.414C62.2714 11.3772 62.4807 11.3286 62.6755 11.2637L62.0431 9.36632ZM60.8846 9.51743C60.7444 9.52243 60.5944 9.525 60.4343 9.525V11.525C60.6155 11.525 60.7895 11.5221 60.9559 11.5162L60.8846 9.51743ZM60.5743 19.115H60.0887V21.115H60.5743V19.115ZM59.1174 19.115H58.1462V21.115H59.1174V19.115ZM57.1749 19.115H56.6893V21.115H57.1749V19.115ZM57.6893 20.115V19.6104H55.6893V20.115H57.6893ZM57.6893 18.6012V17.5921H55.6893V18.6012H57.6893ZM57.6893 16.5829V15.5737H55.6893V16.5829H57.6893ZM57.6893 14.5646V14.06H55.6893V14.5646H57.6893ZM56.6893 15.06H57.2668V13.06H56.6893V15.06ZM58.4218 15.06H59.5768V13.06H58.4218V15.06ZM60.7318 15.06H61.3093V13.06H60.7318V15.06ZM61.3093 15.06C61.4995 15.06 61.6742 15.0658 61.8338 15.0769L61.9724 13.0817C61.7611 13.067 61.5399 13.06 61.3093 13.06V15.06ZM62.7209 15.2372C62.8476 15.2839 62.9138 15.3279 62.9441 15.3532L64.2245 13.8168C63.9816 13.6144 63.7029 13.4677 63.4131 13.3608L62.7209 15.2372ZM62.9647 15.3699C63.0027 15.3999 63.038 15.4377 63.0712 15.4895L64.7546 14.4096C64.6057 14.1774 64.422 13.9723 64.2039 13.8001L62.9647 15.3699ZM63.2283 16.0018C63.2417 16.1093 63.2493 16.2316 63.2493 16.37H65.2493C65.2493 16.1592 65.2377 15.9534 65.2129 15.754L63.2283 16.0018ZM63.2493 16.37V16.825H65.2493V16.37H63.2493ZM63.2493 17.735V18.19H65.2493V17.735H63.2493ZM63.2493 18.19C63.2493 18.2839 63.2402 18.3585 63.2272 18.4171L65.1796 18.8507C65.2278 18.6338 65.2493 18.4125 65.2493 18.19H63.2493ZM63.0887 18.6719C63.0531 18.7052 63.0034 18.7426 62.933 18.7807L63.8856 20.5393C64.0915 20.4278 64.2839 20.2928 64.4564 20.1311L63.0887 18.6719ZM62.933 18.7807C62.8415 18.8303 62.6992 18.8874 62.4891 18.94L62.9749 20.8801C63.2996 20.7988 63.6088 20.6892 63.8856 20.5393L62.933 18.7807ZM61.249 19.0994C61.0402 19.1097 60.8154 19.115 60.5743 19.115V21.115C60.8443 21.115 61.1021 21.1091 61.3475 21.097L61.249 19.0994ZM75.1961 1.285V0.784998H74.6961V1.285H75.1961ZM92.5211 1.285H93.0211V0.784998H92.5211V1.285ZM92.5211 5.17V5.67H93.0211V5.17H92.5211ZM80.6561 5.17V4.67H80.1561V5.17H80.6561ZM80.6561 10.385H80.1561V10.885H80.6561V10.385ZM91.3661 10.385H91.8661V9.885H91.3661V10.385ZM91.3661 14.27V14.77H91.8661V14.27H91.3661ZM80.6561 14.27V13.77H80.1561V14.27H80.6561ZM80.6561 20.115H80.1561V20.615H80.6561V20.115ZM92.8711 20.115H93.3711V19.615H92.8711V20.115ZM92.8711 24V24.5H93.3711V24H92.8711ZM75.1961 24H74.6961V24.5H75.1961V24ZM74.6961 1.285V1.80125H75.6961V1.285H74.6961ZM74.6961 2.83375V3.86625H75.6961V2.83375H74.6961ZM74.6961 4.89875V5.93125H75.6961V4.89875H74.6961ZM74.6961 6.96375V7.99625H75.6961V6.96375H74.6961ZM74.6961 9.02875V10.0613H75.6961V9.02875H74.6961ZM74.6961 11.0938V12.1263H75.6961V11.0938H74.6961ZM74.6961 13.1588V14.1912H75.6961V13.1588H74.6961ZM74.6961 15.2238V16.2563H75.6961V15.2238H74.6961ZM74.6961 17.2888V18.3213H75.6961V17.2888H74.6961ZM74.6961 19.3538V20.3862H75.6961V19.3538H74.6961ZM74.6961 21.4187V22.4512H75.6961V21.4187H74.6961ZM74.6961 23.4837V24H75.6961V23.4837H74.6961ZM75.1961 24.5H75.6871V23.5H75.1961V24.5ZM76.669 24.5H77.651V23.5H76.669V24.5ZM78.6329 24.5H79.6148V23.5H78.6329V24.5ZM80.5968 24.5H81.5787V23.5H80.5968V24.5ZM82.5607 24.5H83.5426V23.5H82.5607V24.5ZM84.5246 24.5H85.5065V23.5H84.5246V24.5ZM86.4885 24.5H87.4704V23.5H86.4885V24.5ZM88.4523 24.5H89.4343V23.5H88.4523V24.5ZM90.4162 24.5H91.3982V23.5H90.4162V24.5ZM92.3801 24.5H92.8711V23.5H92.3801V24.5ZM93.3711 24V23.5144H92.3711V24H93.3711ZM93.3711 22.5431V21.5719H92.3711V22.5431H93.3711ZM93.3711 20.6006V20.115H92.3711V20.6006H93.3711ZM92.8711 19.615H92.3621V20.615H92.8711V19.615ZM91.3442 19.615H90.3263V20.615H91.3442V19.615ZM89.3084 19.615H88.2905V20.615H89.3084V19.615ZM87.2726 19.615H86.2546V20.615H87.2726V19.615ZM85.2367 19.615H84.2188V20.615H85.2367V19.615ZM83.2009 19.615H82.183V20.615H83.2009V19.615ZM81.1651 19.615H80.6561V20.615H81.1651V19.615ZM81.1561 20.115V19.6279H80.1561V20.115H81.1561ZM81.1561 18.6537V17.6796H80.1561V18.6537H81.1561ZM81.1561 16.7054V15.7312H80.1561V16.7054H81.1561ZM81.1561 14.7571V14.27H80.1561V14.7571H81.1561ZM80.6561 14.77H81.1916V13.77H80.6561V14.77ZM82.2626 14.77H83.3336V13.77H82.2626V14.77ZM84.4046 14.77H85.4756V13.77H84.4046V14.77ZM86.5466 14.77H87.6176V13.77H86.5466V14.77ZM88.6886 14.77H89.7596V13.77H88.6886V14.77ZM90.8306 14.77H91.3661V13.77H90.8306V14.77ZM91.8661 14.27V13.7844H90.8661V14.27H91.8661ZM91.8661 12.8131V11.8419H90.8661V12.8131H91.8661ZM91.8661 10.8706V10.385H90.8661V10.8706H91.8661ZM91.3661 9.885H90.8306V10.885H91.3661V9.885ZM89.7596 9.885H88.6886V10.885H89.7596V9.885ZM87.6176 9.885H86.5466V10.885H87.6176V9.885ZM85.4756 9.885H84.4046V10.885H85.4756V9.885ZM83.3336 9.885H82.2626V10.885H83.3336V9.885ZM81.1916 9.885H80.6561V10.885H81.1916V9.885ZM81.1561 10.385V9.95041H80.1561V10.385H81.1561ZM81.1561 9.08125V8.21208H80.1561V9.08125H81.1561ZM81.1561 7.34291V6.47375H80.1561V7.34291H81.1561ZM81.1561 5.60458V5.17H80.1561V5.60458H81.1561ZM80.6561 5.67H81.1505V4.67H80.6561V5.67ZM82.1392 5.67H83.128V4.67H82.1392V5.67ZM84.1167 5.67H85.1055V4.67H84.1167V5.67ZM86.0942 5.67H87.083V4.67H86.0942V5.67ZM88.0717 5.67H89.0605V4.67H88.0717V5.67ZM90.0492 5.67H91.038V4.67H90.0492V5.67ZM92.0267 5.67H92.5211V4.67H92.0267V5.67ZM93.0211 5.17V4.68437H92.0211V5.17H93.0211ZM93.0211 3.71312V2.74187H92.0211V3.71312H93.0211ZM93.0211 1.77062V1.285H92.0211V1.77062H93.0211ZM92.5211 0.784998H92.0398V1.785H92.5211V0.784998ZM91.0773 0.784998H90.1148V1.785H91.0773V0.784998ZM89.1523 0.784998H88.1898V1.785H89.1523V0.784998ZM87.2273 0.784998H86.2648V1.785H87.2273V0.784998ZM85.3023 0.784998H84.3398V1.785H85.3023V0.784998ZM83.3773 0.784998H82.4148V1.785H83.3773V0.784998ZM81.4523 0.784998H80.4898V1.785H81.4523V0.784998ZM79.5273 0.784998H78.5648V1.785H79.5273V0.784998ZM77.6023 0.784998H76.6398V1.785H77.6023V0.784998ZM75.6773 0.784998H75.1961V1.785H75.6773V0.784998ZM75.1961 1.285V0.284998H74.1961V1.285H75.1961ZM92.5211 1.285H93.5211V0.284998H92.5211V1.285ZM92.5211 5.17V6.17H93.5211V5.17H92.5211ZM80.6561 5.17V4.17H79.6561V5.17H80.6561ZM80.6561 10.385H79.6561V11.385H80.6561V10.385ZM91.3661 10.385H92.3661V9.385H91.3661V10.385ZM91.3661 14.27V15.27H92.3661V14.27H91.3661ZM80.6561 14.27V13.27H79.6561V14.27H80.6561ZM80.6561 20.115H79.6561V21.115H80.6561V20.115ZM92.8711 20.115H93.8711V19.115H92.8711V20.115ZM92.8711 24V25H93.8711V24H92.8711ZM75.1961 24H74.1961V25H75.1961V24ZM74.1961 1.285V1.80125H76.1961V1.285H74.1961ZM74.1961 2.83375V3.86625H76.1961V2.83375H74.1961ZM74.1961 4.89875V5.93125H76.1961V4.89875H74.1961ZM74.1961 6.96375V7.99625H76.1961V6.96375H74.1961ZM74.1961 9.02875V10.0613H76.1961V9.02875H74.1961ZM74.1961 11.0938V12.1263H76.1961V11.0938H74.1961ZM74.1961 13.1588V14.1912H76.1961V13.1588H74.1961ZM74.1961 15.2238V16.2563H76.1961V15.2238H74.1961ZM74.1961 17.2888V18.3213H76.1961V17.2888H74.1961ZM74.1961 19.3538V20.3862H76.1961V19.3538H74.1961ZM74.1961 21.4187V22.4512H76.1961V21.4187H74.1961ZM74.1961 23.4837V24H76.1961V23.4837H74.1961ZM75.1961 25H75.6871V23H75.1961V25ZM76.669 25H77.651V23H76.669V25ZM78.6329 25H79.6148V23H78.6329V25ZM80.5968 25H81.5787V23H80.5968V25ZM82.5607 25H83.5426V23H82.5607V25ZM84.5246 25H85.5065V23H84.5246V25ZM86.4885 25H87.4704V23H86.4885V25ZM88.4523 25H89.4343V23H88.4523V25ZM90.4162 25H91.3982V23H90.4162V25ZM92.3801 25H92.8711V23H92.3801V25ZM93.8711 24V23.5144H91.8711V24H93.8711ZM93.8711 22.5431V21.5719H91.8711V22.5431H93.8711ZM93.8711 20.6006V20.115H91.8711V20.6006H93.8711ZM92.8711 19.115H92.3621V21.115H92.8711V19.115ZM91.3442 19.115H90.3263V21.115H91.3442V19.115ZM89.3084 19.115H88.2905V21.115H89.3084V19.115ZM87.2726 19.115H86.2546V21.115H87.2726V19.115ZM85.2367 19.115H84.2188V21.115H85.2367V19.115ZM83.2009 19.115H82.183V21.115H83.2009V19.115ZM81.1651 19.115H80.6561V21.115H81.1651V19.115ZM81.6561 20.115V19.6279H79.6561V20.115H81.6561ZM81.6561 18.6537V17.6796H79.6561V18.6537H81.6561ZM81.6561 16.7054V15.7312H79.6561V16.7054H81.6561ZM81.6561 14.7571V14.27H79.6561V14.7571H81.6561ZM80.6561 15.27H81.1916V13.27H80.6561V15.27ZM82.2626 15.27H83.3336V13.27H82.2626V15.27ZM84.4046 15.27H85.4756V13.27H84.4046V15.27ZM86.5466 15.27H87.6176V13.27H86.5466V15.27ZM88.6886 15.27H89.7596V13.27H88.6886V15.27ZM90.8306 15.27H91.3661V13.27H90.8306V15.27ZM92.3661 14.27V13.7844H90.3661V14.27H92.3661ZM92.3661 12.8131V11.8419H90.3661V12.8131H92.3661ZM92.3661 10.8706V10.385H90.3661V10.8706H92.3661ZM91.3661 9.385H90.8306V11.385H91.3661V9.385ZM89.7596 9.385H88.6886V11.385H89.7596V9.385ZM87.6176 9.385H86.5466V11.385H87.6176V9.385ZM85.4756 9.385H84.4046V11.385H85.4756V9.385ZM83.3336 9.385H82.2626V11.385H83.3336V9.385ZM81.1916 9.385H80.6561V11.385H81.1916V9.385ZM81.6561 10.385V9.95041H79.6561V10.385H81.6561ZM81.6561 9.08125V8.21208H79.6561V9.08125H81.6561ZM81.6561 7.34291V6.47375H79.6561V7.34291H81.6561ZM81.6561 5.60458V5.17H79.6561V5.60458H81.6561ZM80.6561 6.17H81.1505V4.17H80.6561V6.17ZM82.1392 6.17H83.128V4.17H82.1392V6.17ZM84.1167 6.17H85.1055V4.17H84.1167V6.17ZM86.0942 6.17H87.083V4.17H86.0942V6.17ZM88.0717 6.17H89.0605V4.17H88.0717V6.17ZM90.0492 6.17H91.038V4.17H90.0492V6.17ZM92.0267 6.17H92.5211V4.17H92.0267V6.17ZM93.5211 5.17V4.68437H91.5211V5.17H93.5211ZM93.5211 3.71312V2.74187H91.5211V3.71312H93.5211ZM93.5211 1.77062V1.285H91.5211V1.77062H93.5211ZM92.5211 0.284998H92.0398V2.285H92.5211V0.284998ZM91.0773 0.284998H90.1148V2.285H91.0773V0.284998ZM89.1523 0.284998H88.1898V2.285H89.1523V0.284998ZM87.2273 0.284998H86.2648V2.285H87.2273V0.284998ZM85.3023 0.284998H84.3398V2.285H85.3023V0.284998ZM83.3773 0.284998H82.4148V2.285H83.3773V0.284998ZM81.4523 0.284998H80.4898V2.285H81.4523V0.284998ZM79.5273 0.284998H78.5648V2.285H79.5273V0.284998ZM77.6023 0.284998H76.6398V2.285H77.6023V0.284998ZM75.6773 0.284998H75.1961V2.285H75.6773V0.284998ZM111.363 15.32H111.863V14.4651L111.118 14.8842L111.363 15.32ZM99.8134 15.425L99.5088 15.8217L99.5168 15.8275L99.8134 15.425ZM97.8534 1.285V0.784998H97.3534V1.285H97.8534ZM103.243 1.285H103.743V0.784998H103.243V1.285ZM104.048 12.205L103.751 12.6071L103.761 12.6143L103.771 12.621L104.048 12.205ZM109.088 12.31L108.934 11.8345L109.088 12.31ZM111.363 11.155L111.676 11.5454L111.863 11.3953V11.155H111.363ZM111.363 1.285V0.784998H110.863V1.285H111.363ZM116.823 1.285H117.323V0.784998H116.823V1.285ZM116.823 24V24.5H117.323V24H116.823ZM111.363 24H110.863V24.5H111.363V24ZM111.118 14.8842C110.958 14.9742 110.796 15.0601 110.63 15.142L111.073 16.0383C111.255 15.9486 111.433 15.8544 111.609 15.7558L111.118 14.8842ZM109.615 15.5808C109.273 15.7083 108.921 15.821 108.558 15.9187L108.818 16.8844C109.211 16.7787 109.593 16.6564 109.965 16.5176L109.615 15.5808ZM107.47 16.1606C107.111 16.2248 106.742 16.2759 106.362 16.3138L106.462 17.3088C106.866 17.2685 107.26 17.2139 107.646 17.1451L107.47 16.1606ZM105.242 16.3863C105.056 16.3921 104.868 16.395 104.678 16.395V17.395C104.878 17.395 105.077 17.3919 105.273 17.3858L105.242 16.3863ZM104.678 16.395C104.54 16.395 104.402 16.3923 104.267 16.3869L104.227 17.3861C104.376 17.392 104.527 17.395 104.678 17.395V16.395ZM103.452 16.3193C103.178 16.284 102.911 16.2365 102.653 16.1768L102.428 17.1512C102.72 17.2185 103.019 17.2718 103.325 17.3111L103.452 16.3193ZM101.878 15.9532C101.622 15.8638 101.375 15.7608 101.137 15.6445L100.698 16.5432C100.973 16.677 101.256 16.7949 101.548 16.8971L101.878 15.9532ZM100.44 15.2505C100.328 15.178 100.218 15.102 100.11 15.0225L99.5168 15.8275C99.6408 15.9189 99.7672 16.0063 99.896 16.0897L100.44 15.2505ZM100.118 15.0284C100.008 14.9438 99.9028 14.8537 99.8033 14.7581L99.1107 15.4794C99.2369 15.6006 99.3696 15.7146 99.5089 15.8216L100.118 15.0284ZM99.2706 14.1208C99.1198 13.8954 98.9866 13.6477 98.8717 13.3764L97.9509 13.7665C98.0888 14.0921 98.2514 14.3959 98.4395 14.6769L99.2706 14.1208ZM98.599 12.5574C98.5303 12.2869 98.4756 11.9986 98.4354 11.6921L97.4439 11.8221C97.4888 12.1643 97.5506 12.4916 97.6298 12.8035L98.599 12.5574ZM98.3619 10.8011C98.3562 10.6541 98.3534 10.5037 98.3534 10.35H97.3534C97.3534 10.516 97.3565 10.6792 97.3626 10.8394L98.3619 10.8011ZM98.3534 10.35V9.89675H97.3534V10.35H98.3534ZM98.3534 8.99025V8.08375H97.3534V8.99025H98.3534ZM98.3534 7.17725V6.27075H97.3534V7.17725H98.3534ZM98.3534 5.36425V4.45775H97.3534V5.36425H98.3534ZM98.3534 3.55125V2.64475H97.3534V3.55125H98.3534ZM98.3534 1.73825V1.285H97.3534V1.73825H98.3534ZM97.8534 1.785H98.3026V0.784998H97.8534V1.785ZM99.2009 1.785H100.099V0.784998H99.2009V1.785ZM100.998 1.785H101.896V0.784998H100.998V1.785ZM102.794 1.785H103.243V0.784998H102.794V1.785ZM102.743 1.285V1.82531H103.743V1.285H102.743ZM102.743 2.90594V3.98656H103.743V2.90594H102.743ZM102.743 5.06719V6.14781H103.743V5.06719H102.743ZM102.743 7.22844V8.30906H103.743V7.22844H102.743ZM102.743 9.38969V9.93H103.743V9.38969H102.743ZM102.743 9.93C102.743 10.1681 102.755 10.3946 102.778 10.6088L103.772 10.5003C103.753 10.3267 103.743 10.1368 103.743 9.93H102.743ZM103.206 12.0017C103.35 12.2405 103.532 12.4447 103.751 12.6071L104.346 11.8029C104.239 11.724 104.143 11.62 104.061 11.4837L103.206 12.0017ZM103.771 12.621C103.954 12.7428 104.15 12.8467 104.358 12.9332L104.741 12.0098C104.59 11.947 104.452 11.8733 104.326 11.789L103.771 12.621ZM105.6 13.2347C105.799 13.255 106.006 13.265 106.218 13.265V12.265C106.037 12.265 105.864 12.2565 105.702 12.2399L105.6 13.2347ZM106.218 13.265C106.476 13.265 106.732 13.2551 106.986 13.2352L106.908 12.2382C106.68 12.2561 106.45 12.265 106.218 12.265V13.265ZM108.504 12.9945C108.752 12.9347 108.998 12.865 109.243 12.7855L108.934 11.8345C108.714 11.9061 108.492 11.9687 108.269 12.0224L108.504 12.9945ZM109.243 12.7855C109.462 12.7142 109.674 12.6382 109.877 12.5574L109.507 11.6283C109.325 11.7006 109.134 11.7693 108.934 11.8345L109.243 12.7855ZM111.102 11.9485C111.306 11.8222 111.498 11.6879 111.676 11.5454L111.051 10.7646C110.906 10.8803 110.748 10.9917 110.576 11.0985L111.102 11.9485ZM111.863 11.155V10.6615H110.863V11.155H111.863ZM111.863 9.6745V8.6875H110.863V9.6745H111.863ZM111.863 7.7005V6.7135H110.863V7.7005H111.863ZM111.863 5.7265V4.7395H110.863V5.7265H111.863ZM111.863 3.7525V2.7655H110.863V3.7525H111.863ZM111.863 1.7785V1.285H110.863V1.7785H111.863ZM111.363 1.785H111.818V0.784998H111.363V1.785ZM112.728 1.785H113.638V0.784998H112.728V1.785ZM114.548 1.785H115.458V0.784998H114.548V1.785ZM116.368 1.785H116.823V0.784998H116.368V1.785ZM116.323 1.285V1.80125H117.323V1.285H116.323ZM116.323 2.83375V3.86625H117.323V2.83375H116.323ZM116.323 4.89875V5.93125H117.323V4.89875H116.323ZM116.323 6.96375V7.99625H117.323V6.96375H116.323ZM116.323 9.02875V10.0613H117.323V9.02875H116.323ZM116.323 11.0938V12.1263H117.323V11.0938H116.323ZM116.323 13.1588V14.1912H117.323V13.1588H116.323ZM116.323 15.2238V16.2563H117.323V15.2238H116.323ZM116.323 17.2888V18.3213H117.323V17.2888H116.323ZM116.323 19.3538V20.3862H117.323V19.3538H116.323ZM116.323 21.4187V22.4512H117.323V21.4187H116.323ZM116.323 23.4837V24H117.323V23.4837H116.323ZM116.823 23.5H116.368V24.5H116.823V23.5ZM115.458 23.5H114.548V24.5H115.458V23.5ZM113.638 23.5H112.728V24.5H113.638V23.5ZM111.818 23.5H111.363V24.5H111.818V23.5ZM111.863 24V23.4575H110.863V24H111.863ZM111.863 22.3725V21.2875H110.863V22.3725H111.863ZM111.863 20.2025V19.1175H110.863V20.2025H111.863ZM111.863 18.0325V16.9475H110.863V18.0325H111.863ZM111.863 15.8625V15.32H110.863V15.8625H111.863ZM111.363 15.32H112.363V13.6102L110.873 14.4484L111.363 15.32ZM99.8134 15.425L99.2044 16.2181L99.2122 16.2242L99.2202 16.2301L99.8134 15.425ZM97.8534 1.285V0.284998H96.8534V1.285H97.8534ZM103.243 1.285H104.243V0.284998H103.243V1.285ZM104.048 12.205L103.454 13.0092L103.474 13.0236L103.494 13.0371L104.048 12.205ZM109.088 12.31L108.779 11.359L109.088 12.31ZM111.363 11.155L111.988 11.9359L112.363 11.6356V11.155H111.363ZM111.363 1.285V0.284998H110.363V1.285H111.363ZM116.823 1.285H117.823V0.284998H116.823V1.285ZM116.823 24V25H117.823V24H116.823ZM111.363 24H110.363V25H111.363V24ZM110.873 14.4484C110.721 14.534 110.566 14.6158 110.408 14.6939L111.295 16.4865C111.484 16.3929 111.671 16.2946 111.854 16.1916L110.873 14.4484ZM109.44 15.1124C109.114 15.2342 108.777 15.3421 108.428 15.4359L108.947 17.3672C109.355 17.2575 109.753 17.1305 110.14 16.9859L109.44 15.1124ZM107.383 15.6684C107.036 15.7302 106.68 15.7796 106.313 15.8162L106.511 17.8063C106.928 17.7648 107.335 17.7085 107.734 17.6373L107.383 15.6684ZM105.226 15.8866C105.046 15.8922 104.863 15.895 104.678 15.895V17.895C104.884 17.895 105.087 17.8919 105.288 17.8856L105.226 15.8866ZM104.678 15.895C104.546 15.895 104.416 15.8924 104.287 15.8873L104.208 17.8857C104.363 17.8919 104.52 17.895 104.678 17.895V15.895ZM103.516 15.8234C103.257 15.7901 103.007 15.7454 102.766 15.6897L102.316 17.6384C102.624 17.7096 102.939 17.7657 103.261 17.8071L103.516 15.8234ZM102.043 15.4813C101.806 15.3982 101.577 15.3027 101.356 15.1951L100.479 16.9926C100.771 17.1351 101.073 17.2605 101.383 17.369L102.043 15.4813ZM100.712 14.8308C100.608 14.7638 100.506 14.6935 100.407 14.6199L99.2202 16.2301C99.3522 16.3273 99.4868 16.4204 99.6241 16.5094L100.712 14.8308ZM100.422 14.6318C100.327 14.5583 100.236 14.4802 100.15 14.3974L98.7644 15.8401C98.9039 15.9741 99.0506 16.1001 99.2044 16.2181L100.422 14.6318ZM99.6861 13.8427C99.5539 13.6452 99.4354 13.4254 99.332 13.1814L97.4905 13.9615C97.6399 14.3143 97.8173 14.6462 98.0239 14.955L99.6861 13.8427ZM99.0836 12.4343C99.0202 12.1845 98.969 11.9158 98.9312 11.6272L96.9482 11.8871C96.9954 12.2472 97.0607 12.5939 97.1451 12.9266L99.0836 12.4343ZM98.8615 10.7819C98.8561 10.6415 98.8534 10.4976 98.8534 10.35H96.8534C96.8534 10.5221 96.8566 10.6917 96.863 10.8586L98.8615 10.7819ZM98.8534 10.35V9.89675H96.8534V10.35H98.8534ZM98.8534 8.99025V8.08375H96.8534V8.99025H98.8534ZM98.8534 7.17725V6.27075H96.8534V7.17725H98.8534ZM98.8534 5.36425V4.45775H96.8534V5.36425H98.8534ZM98.8534 3.55125V2.64475H96.8534V3.55125H98.8534ZM98.8534 1.73825V1.285H96.8534V1.73825H98.8534ZM97.8534 2.285H98.3026V0.284998H97.8534V2.285ZM99.2009 2.285H100.099V0.284998H99.2009V2.285ZM100.998 2.285H101.896V0.284998H100.998V2.285ZM102.794 2.285H103.243V0.284998H102.794V2.285ZM102.243 1.285V1.82531H104.243V1.285H102.243ZM102.243 2.90594V3.98656H104.243V2.90594H102.243ZM102.243 5.06719V6.14781H104.243V5.06719H102.243ZM102.243 7.22844V8.30906H104.243V7.22844H102.243ZM102.243 9.38969V9.93H104.243V9.38969H102.243ZM102.243 9.93C102.243 10.1838 102.255 10.4285 102.281 10.663L104.269 10.446C104.253 10.2927 104.243 10.1211 104.243 9.93H102.243ZM102.778 12.2608C102.953 12.5508 103.178 12.805 103.454 13.0092L104.643 11.4008C104.593 11.3637 104.54 11.3098 104.489 11.2247L102.778 12.2608ZM103.494 13.0371C103.705 13.1776 103.929 13.2966 104.166 13.3949L104.933 11.5481C104.811 11.4972 104.701 11.4385 104.603 11.3729L103.494 13.0371ZM105.549 13.7321C105.767 13.7543 105.99 13.765 106.218 13.765V11.765C106.052 11.765 105.897 11.7572 105.752 11.7424L105.549 13.7321ZM106.218 13.765C106.489 13.765 106.757 13.7546 107.025 13.7337L106.869 11.7397C106.654 11.7566 106.437 11.765 106.218 11.765V13.765ZM108.621 13.4806C108.882 13.4177 109.141 13.3445 109.397 13.261L108.779 11.359C108.571 11.4266 108.362 11.4857 108.152 11.5363L108.621 13.4806ZM109.397 13.261C109.627 13.1866 109.848 13.107 110.061 13.022L109.322 11.1637C109.151 11.2318 108.97 11.2969 108.779 11.359L109.397 13.261ZM111.366 12.3736C111.586 12.2374 111.793 12.0916 111.988 11.9359L110.739 10.3741C110.611 10.4765 110.469 10.5765 110.312 10.6735L111.366 12.3736ZM112.363 11.155V10.6615H110.363V11.155H112.363ZM112.363 9.6745V8.6875H110.363V9.6745H112.363ZM112.363 7.7005V6.7135H110.363V7.7005H112.363ZM112.363 5.7265V4.7395H110.363V5.7265H112.363ZM112.363 3.7525V2.7655H110.363V3.7525H112.363ZM112.363 1.7785V1.285H110.363V1.7785H112.363ZM111.363 2.285H111.818V0.284998H111.363V2.285ZM112.728 2.285H113.638V0.284998H112.728V2.285ZM114.548 2.285H115.458V0.284998H114.548V2.285ZM116.368 2.285H116.823V0.284998H116.368V2.285ZM115.823 1.285V1.80125H117.823V1.285H115.823ZM115.823 2.83375V3.86625H117.823V2.83375H115.823ZM115.823 4.89875V5.93125H117.823V4.89875H115.823ZM115.823 6.96375V7.99625H117.823V6.96375H115.823ZM115.823 9.02875V10.0613H117.823V9.02875H115.823ZM115.823 11.0938V12.1263H117.823V11.0938H115.823ZM115.823 13.1588V14.1912H117.823V13.1588H115.823ZM115.823 15.2238V16.2563H117.823V15.2238H115.823ZM115.823 17.2888V18.3213H117.823V17.2888H115.823ZM115.823 19.3538V20.3862H117.823V19.3538H115.823ZM115.823 21.4187V22.4512H117.823V21.4187H115.823ZM115.823 23.4837V24H117.823V23.4837H115.823ZM116.823 23H116.368V25H116.823V23ZM115.458 23H114.548V25H115.458V23ZM113.638 23H112.728V25H113.638V23ZM111.818 23H111.363V25H111.818V23ZM112.363 24V23.4575H110.363V24H112.363ZM112.363 22.3725V21.2875H110.363V22.3725H112.363ZM112.363 20.2025V19.1175H110.363V20.2025H112.363ZM112.363 18.0325V16.9475H110.363V18.0325H112.363ZM112.363 15.8625V15.32H110.363V15.8625H112.363ZM129.491 1.285V0.784998H129.143L129.023 1.11158L129.491 1.285ZM136.141 1.285L136.612 1.11541L136.493 0.784998H136.141V1.285ZM144.331 24V24.5H145.043L144.802 23.8304L144.331 24ZM138.801 24L138.328 24.1606L138.443 24.5H138.801V24ZM136.771 18.015L137.245 17.8544L137.13 17.515H136.771V18.015ZM128.476 18.015V17.515H128.116L128.002 17.8569L128.476 18.015ZM126.481 24V24.5H126.842L126.956 24.1581L126.481 24ZM121.091 24L120.623 23.8266L120.373 24.5H121.091V24ZM135.581 14.375V14.875H136.277L136.055 14.2157L135.581 14.375ZM132.711 5.835L133.185 5.67572L133.071 5.335H132.711V5.835ZM132.571 5.835V5.335H132.212L132.098 5.67572L132.571 5.835ZM129.701 14.375L129.228 14.2157L129.006 14.875H129.701V14.375ZM129.023 1.11158L128.848 1.58481L129.785 1.93165L129.96 1.45842L129.023 1.11158ZM128.498 2.53126L128.148 3.47772L129.085 3.82457L129.435 2.87811L128.498 2.53126ZM127.798 4.42418L127.448 5.37064L128.385 5.71748L128.735 4.77102L127.798 4.42418ZM127.098 6.3171L126.748 7.26356L127.685 7.6104L128.035 6.66394L127.098 6.3171ZM126.398 8.21001L126.048 9.15647L126.985 9.50332L127.335 8.55686L126.398 8.21001ZM125.698 10.1029L125.348 11.0494L126.285 11.3962L126.635 10.4498L125.698 10.1029ZM124.998 11.9958L124.648 12.9423L125.585 13.2892L125.935 12.3427L124.998 11.9958ZM124.298 13.8888L123.948 14.8352L124.885 15.1821L125.235 14.2356L124.298 13.8888ZM123.598 15.7817L123.248 16.7281L124.185 17.075L124.535 16.1285L123.598 15.7817ZM122.898 17.6746L122.548 18.6211L123.485 18.9679L123.835 18.0214L122.898 17.6746ZM122.198 19.5675L121.848 20.514L122.785 20.8608L123.135 19.9144L122.198 19.5675ZM121.498 21.4604L121.148 22.4069L122.085 22.7537L122.435 21.8073L121.498 21.4604ZM120.798 23.3533L120.623 23.8266L121.56 24.1734L121.735 23.7002L120.798 23.3533ZM121.091 24.5H121.541V23.5H121.091V24.5ZM122.439 24.5H123.337V23.5H122.439V24.5ZM124.236 24.5H125.134V23.5H124.236V24.5ZM126.032 24.5H126.481V23.5H126.032V24.5ZM126.956 24.1581L127.122 23.6594L126.173 23.3431L126.007 23.8419L126.956 24.1581ZM127.455 22.6619L127.787 21.6644L126.838 21.3481L126.506 22.3456L127.455 22.6619ZM128.12 20.6669L128.452 19.6694L127.503 19.3531L127.171 20.3506L128.12 20.6669ZM128.785 18.6719L128.951 18.1731L128.002 17.8569L127.836 18.3556L128.785 18.6719ZM128.476 18.515H128.995V17.515H128.476V18.515ZM130.032 18.515H131.069V17.515H130.032V18.515ZM132.106 18.515H133.142V17.515H132.106V18.515ZM134.179 18.515H135.216V17.515H134.179V18.515ZM136.253 18.515H136.771V17.515H136.253V18.515ZM136.298 18.1756L136.467 18.6744L137.414 18.3531L137.245 17.8544L136.298 18.1756ZM136.805 19.6719L137.144 20.6694L138.091 20.3481L137.752 19.3506L136.805 19.6719ZM137.482 21.6669L137.82 22.6644L138.767 22.3431L138.429 21.3456L137.482 21.6669ZM138.159 23.6619L138.328 24.1606L139.275 23.8394L139.106 23.3406L138.159 23.6619ZM138.801 24.5H139.262V23.5H138.801V24.5ZM140.184 24.5H141.106V23.5H140.184V24.5ZM142.027 24.5H142.949V23.5H142.027V24.5ZM143.871 24.5H144.331V23.5H143.871V24.5ZM144.802 23.8304L144.631 23.3572L143.691 23.6964L143.861 24.1696L144.802 23.8304ZM144.29 22.4107L143.949 21.4643L143.008 21.8034L143.349 22.7499L144.29 22.4107ZM143.607 20.5178L143.266 19.5713L142.326 19.9105L142.667 20.857L143.607 20.5178ZM142.925 18.6249L142.584 17.6784L141.643 18.0176L141.984 18.9641L142.925 18.6249ZM142.242 16.732L141.901 15.7855L140.96 16.1247L141.302 17.0712L142.242 16.732ZM141.56 14.8391L141.219 13.8926L140.278 14.2318L140.619 15.1782L141.56 14.8391ZM140.877 12.9461L140.536 11.9997L139.596 12.3389L139.937 13.2853L140.877 12.9461ZM140.195 11.0532L139.854 10.1068L138.913 10.4459L139.254 11.3924L140.195 11.0532ZM139.512 9.16031L139.171 8.21385L138.23 8.55303L138.572 9.49949L139.512 9.16031ZM138.83 7.26739L138.489 6.32093L137.548 6.66011L137.889 7.60657L138.83 7.26739ZM138.147 5.37447L137.806 4.42801L136.865 4.76719L137.207 5.71365L138.147 5.37447ZM137.465 3.48155L137.124 2.53509L136.183 2.87427L136.524 3.82073L137.465 3.48155ZM136.782 1.58863L136.612 1.11541L135.671 1.45459L135.842 1.92782L136.782 1.58863ZM136.141 0.784998H135.587V1.785H136.141V0.784998ZM134.479 0.784998H133.371V1.785H134.479V0.784998ZM132.262 0.784998H131.154V1.785H132.262V0.784998ZM130.046 0.784998H129.491V1.785H130.046V0.784998ZM135.581 13.875H135.091V14.875H135.581V13.875ZM134.111 13.875H133.131V14.875H134.111V13.875ZM132.151 13.875H131.171V14.875H132.151V13.875ZM130.191 13.875H129.701V14.875H130.191V13.875ZM130.175 14.5343L130.319 14.1073L129.371 13.7887L129.228 14.2157L130.175 14.5343ZM130.606 13.2533L130.893 12.3993L129.945 12.0807L129.658 12.9347L130.606 13.2533ZM131.18 11.5453L131.467 10.6913L130.519 10.3727L130.232 11.2267L131.18 11.5453ZM131.754 9.83728L132.041 8.98328L131.093 8.66472L130.806 9.51872L131.754 9.83728ZM132.328 8.12928L132.615 7.27528L131.667 6.95672L131.38 7.81072L132.328 8.12928ZM132.902 6.42128L133.045 5.99428L132.098 5.67572L131.954 6.10272L132.902 6.42128ZM132.571 6.335H132.606V5.335H132.571V6.335ZM132.676 6.335H132.711V5.335H132.676V6.335ZM132.238 5.99428L132.381 6.42128L133.329 6.10272L133.185 5.67572L132.238 5.99428ZM132.668 7.27528L132.955 8.12928L133.903 7.81072L133.616 6.95672L132.668 7.27528ZM133.242 8.98328L133.529 9.83728L134.477 9.51872L134.19 8.66472L133.242 8.98328ZM133.816 10.6913L134.103 11.5453L135.051 11.2267L134.764 10.3727L133.816 10.6913ZM134.39 12.3993L134.677 13.2533L135.625 12.9347L135.338 12.0807L134.39 12.3993ZM134.964 14.1073L135.108 14.5343L136.055 14.2157L135.912 13.7887L134.964 14.1073ZM129.491 1.285V0.284998H128.795L128.554 0.938154L129.491 1.285ZM136.141 1.285L137.082 0.945817L136.844 0.284998H136.141V1.285ZM144.331 24V25H145.755L145.272 23.6608L144.331 24ZM138.801 24L137.854 24.3212L138.085 25H138.801V24ZM136.771 18.015L137.718 17.6938L137.488 17.015H136.771V18.015ZM128.476 18.015V17.015H127.756L127.528 17.6988L128.476 18.015ZM126.481 24V25H127.202L127.43 24.3162L126.481 24ZM121.091 24L120.154 23.6532L119.656 25H121.091V24ZM135.581 14.375V15.375H136.973L136.529 14.0564L135.581 14.375ZM132.711 5.835L133.659 5.51644L133.43 4.835H132.711V5.835ZM132.571 5.835V4.835H131.853L131.624 5.51644L132.571 5.835ZM129.701 14.375L128.754 14.0564L128.31 15.375H129.701V14.375ZM128.554 0.938154L128.379 1.41138L130.254 2.10507L130.429 1.63184L128.554 0.938154ZM128.029 2.35784L127.679 3.3043L129.554 3.99799L129.904 3.05153L128.029 2.35784ZM127.329 4.25076L126.979 5.19722L128.854 5.8909L129.204 4.94445L127.329 4.25076ZM126.629 6.14368L126.279 7.09013L128.154 7.78382L128.504 6.83736L126.629 6.14368ZM125.929 8.03659L125.579 8.98305L127.454 9.67674L127.804 8.73028L125.929 8.03659ZM125.229 9.92951L124.879 10.876L126.754 11.5697L127.104 10.6232L125.229 9.92951ZM124.529 11.8224L124.179 12.7689L126.054 13.4626L126.404 12.5161L124.529 11.8224ZM123.829 13.7153L123.479 14.6618L125.354 15.3555L125.704 14.409L123.829 13.7153ZM123.129 15.6083L122.779 16.5547L124.654 17.2484L125.004 16.3019L123.129 15.6083ZM122.429 17.5012L122.079 18.4476L123.954 19.1413L124.304 18.1949L122.429 17.5012ZM121.729 19.3941L121.379 20.3405L123.254 21.0342L123.604 20.0878L121.729 19.3941ZM121.029 21.287L120.679 22.2335L122.554 22.9272L122.904 21.9807L121.029 21.287ZM120.329 23.1799L120.154 23.6532L122.029 24.3468L122.204 23.8736L120.329 23.1799ZM121.091 25H121.541V23H121.091V25ZM122.439 25H123.337V23H122.439V25ZM124.236 25H125.134V23H124.236V25ZM126.032 25H126.481V23H126.032V25ZM127.43 24.3162L127.596 23.8175L125.699 23.185L125.533 23.6838L127.43 24.3162ZM127.929 22.82L128.261 21.8225L126.364 21.19L126.032 22.1875L127.929 22.82ZM128.594 20.825L128.926 19.8275L127.029 19.195L126.697 20.1925L128.594 20.825ZM129.259 18.83L129.425 18.3312L127.528 17.6988L127.362 18.1975L129.259 18.83ZM128.476 19.015H128.995V17.015H128.476V19.015ZM130.032 19.015H131.069V17.015H130.032V19.015ZM132.106 19.015H133.142V17.015H132.106V19.015ZM134.179 19.015H135.216V17.015H134.179V19.015ZM136.253 19.015H136.771V17.015H136.253V19.015ZM135.824 18.3362L135.994 18.835L137.888 18.1925L137.718 17.6938L135.824 18.3362ZM136.332 19.8325L136.67 20.83L138.564 20.1875L138.226 19.19L136.332 19.8325ZM137.009 21.8275L137.347 22.825L139.241 22.1825L138.903 21.185L137.009 21.8275ZM137.685 23.8225L137.854 24.3212L139.748 23.6788L139.579 23.18L137.685 23.8225ZM138.801 25H139.262V23H138.801V25ZM140.184 25H141.106V23H140.184V25ZM142.027 25H142.949V23H142.027V25ZM143.871 25H144.331V23H143.871V25ZM145.272 23.6608L145.102 23.1876L143.22 23.866L143.391 24.3392L145.272 23.6608ZM144.76 22.2411L144.419 21.2947L142.538 21.973L142.879 22.9195L144.76 22.2411ZM144.078 20.3482L143.737 19.4018L141.855 20.0801L142.196 21.0266L144.078 20.3482ZM143.395 18.4553L143.054 17.5088L141.173 18.1872L141.514 19.1337L143.395 18.4553ZM142.713 16.5624L142.372 15.6159L140.49 16.2943L140.831 17.2407L142.713 16.5624ZM142.03 14.6695L141.689 13.723L139.808 14.4014L140.149 15.3478L142.03 14.6695ZM141.348 12.7765L141.007 11.8301L139.125 12.5085L139.466 13.4549L141.348 12.7765ZM140.665 10.8836L140.324 9.93717L138.443 10.6155L138.784 11.562L140.665 10.8836ZM139.983 8.99072L139.642 8.04426L137.76 8.72262L138.101 9.66908L139.983 8.99072ZM139.3 7.0978L138.959 6.15134L137.078 6.8297L137.419 7.77616L139.3 7.0978ZM138.618 5.20488L138.277 4.25842L136.395 4.93678L136.736 5.88324L138.618 5.20488ZM137.935 3.31196L137.594 2.3655L135.713 3.04386L136.054 3.99032L137.935 3.31196ZM137.253 1.41904L137.082 0.945817L135.201 1.62418L135.371 2.09741L137.253 1.41904ZM136.141 0.284998H135.587V2.285H136.141V0.284998ZM134.479 0.284998H133.371V2.285H134.479V0.284998ZM132.262 0.284998H131.154V2.285H132.262V0.284998ZM130.046 0.284998H129.491V2.285H130.046V0.284998ZM135.581 13.375H135.091V15.375H135.581V13.375ZM134.111 13.375H133.131V15.375H134.111V13.375ZM132.151 13.375H131.171V15.375H132.151V13.375ZM130.191 13.375H129.701V15.375H130.191V13.375ZM130.649 14.6936L130.793 14.2666L128.897 13.6294L128.754 14.0564L130.649 14.6936ZM131.08 13.4126L131.367 12.5586L129.471 11.9214L129.184 12.7754L131.08 13.4126ZM131.654 11.7046L131.941 10.8506L130.045 10.2134L129.758 11.0674L131.654 11.7046ZM132.228 9.99656L132.515 9.14256L130.619 8.50544L130.332 9.35944L132.228 9.99656ZM132.802 8.28856L133.089 7.43456L131.193 6.79744L130.906 7.65144L132.802 8.28856ZM133.376 6.58056L133.519 6.15356L131.624 5.51644L131.48 5.94344L133.376 6.58056ZM132.571 6.835H132.606V4.835H132.571V6.835ZM132.676 6.835H132.711V4.835H132.676V6.835ZM131.764 6.15356L131.907 6.58056L133.803 5.94344L133.659 5.51644L131.764 6.15356ZM132.194 7.43456L132.481 8.28856L134.377 7.65144L134.09 6.79744L132.194 7.43456ZM132.768 9.14256L133.055 9.99656L134.951 9.35944L134.664 8.50544L132.768 9.14256ZM133.342 10.8506L133.629 11.7046L135.525 11.0674L135.238 10.2134L133.342 10.8506ZM133.916 12.5586L134.203 13.4126L136.099 12.7754L135.812 11.9214L133.916 12.5586ZM134.49 14.2666L134.634 14.6936L136.529 14.0564L136.386 13.6294L134.49 14.2666ZM148.6 1.285V0.784998H148.1V1.285H148.6ZM165.925 1.285H166.425V0.784998H165.925V1.285ZM165.925 5.17V5.67H166.425V5.17H165.925ZM154.06 5.17V4.67H153.56V5.17H154.06ZM154.06 10.385H153.56V10.885H154.06V10.385ZM164.77 10.385H165.27V9.885H164.77V10.385ZM164.77 14.27V14.77H165.27V14.27H164.77ZM154.06 14.27V13.77H153.56V14.27H154.06ZM154.06 20.115H153.56V20.615H154.06V20.115ZM166.275 20.115H166.775V19.615H166.275V20.115ZM166.275 24V24.5H166.775V24H166.275ZM148.6 24H148.1V24.5H148.6V24ZM148.1 1.285V1.80125H149.1V1.285H148.1ZM148.1 2.83375V3.86625H149.1V2.83375H148.1ZM148.1 4.89875V5.93125H149.1V4.89875H148.1ZM148.1 6.96375V7.99625H149.1V6.96375H148.1ZM148.1 9.02875V10.0613H149.1V9.02875H148.1ZM148.1 11.0938V12.1263H149.1V11.0938H148.1ZM148.1 13.1588V14.1912H149.1V13.1588H148.1ZM148.1 15.2238V16.2563H149.1V15.2238H148.1ZM148.1 17.2888V18.3213H149.1V17.2888H148.1ZM148.1 19.3538V20.3862H149.1V19.3538H148.1ZM148.1 21.4187V22.4512H149.1V21.4187H148.1ZM148.1 23.4837V24H149.1V23.4837H148.1ZM148.6 24.5H149.091V23.5H148.6V24.5ZM150.073 24.5H151.055V23.5H150.073V24.5ZM152.037 24.5H153.019V23.5H152.037V24.5ZM154.001 24.5H154.983V23.5H154.001V24.5ZM155.965 24.5H156.947V23.5H155.965V24.5ZM157.929 24.5H158.911V23.5H157.929V24.5ZM159.893 24.5H160.875V23.5H159.893V24.5ZM161.857 24.5H162.839V23.5H161.857V24.5ZM163.821 24.5H164.802V23.5H163.821V24.5ZM165.784 24.5H166.275V23.5H165.784V24.5ZM166.775 24V23.5144H165.775V24H166.775ZM166.775 22.5431V21.5719H165.775V22.5431H166.775ZM166.775 20.6006V20.115H165.775V20.6006H166.775ZM166.275 19.615H165.766V20.615H166.275V19.615ZM164.749 19.615H163.731V20.615H164.749V19.615ZM162.713 19.615H161.695V20.615H162.713V19.615ZM160.677 19.615H159.659V20.615H160.677V19.615ZM158.641 19.615H157.623V20.615H158.641V19.615ZM156.605 19.615H155.587V20.615H156.605V19.615ZM154.569 19.615H154.06V20.615H154.569V19.615ZM154.56 20.115V19.6279H153.56V20.115H154.56ZM154.56 18.6537V17.6796H153.56V18.6537H154.56ZM154.56 16.7054V15.7312H153.56V16.7054H154.56ZM154.56 14.7571V14.27H153.56V14.7571H154.56ZM154.06 14.77H154.596V13.77H154.06V14.77ZM155.667 14.77H156.738V13.77H155.667V14.77ZM157.809 14.77H158.88V13.77H157.809V14.77ZM159.951 14.77H161.022V13.77H159.951V14.77ZM162.093 14.77H163.164V13.77H162.093V14.77ZM164.235 14.77H164.77V13.77H164.235V14.77ZM165.27 14.27V13.7844H164.27V14.27H165.27ZM165.27 12.8131V11.8419H164.27V12.8131H165.27ZM165.27 10.8706V10.385H164.27V10.8706H165.27ZM164.77 9.885H164.235V10.885H164.77V9.885ZM163.164 9.885H162.093V10.885H163.164V9.885ZM161.022 9.885H159.951V10.885H161.022V9.885ZM158.88 9.885H157.809V10.885H158.88V9.885ZM156.738 9.885H155.667V10.885H156.738V9.885ZM154.596 9.885H154.06V10.885H154.596V9.885ZM154.56 10.385V9.95041H153.56V10.385H154.56ZM154.56 9.08125V8.21208H153.56V9.08125H154.56ZM154.56 7.34291V6.47375H153.56V7.34291H154.56ZM154.56 5.60458V5.17H153.56V5.60458H154.56ZM154.06 5.67H154.555V4.67H154.06V5.67ZM155.544 5.67H156.532V4.67H155.544V5.67ZM157.521 5.67H158.51V4.67H157.521V5.67ZM159.499 5.67H160.487V4.67H159.499V5.67ZM161.476 5.67H162.465V4.67H161.476V5.67ZM163.454 5.67H164.442V4.67H163.454V5.67ZM165.431 5.67H165.925V4.67H165.431V5.67ZM166.425 5.17V4.68437H165.425V5.17H166.425ZM166.425 3.71312V2.74187H165.425V3.71312H166.425ZM166.425 1.77062V1.285H165.425V1.77062H166.425ZM165.925 0.784998H165.444V1.785H165.925V0.784998ZM164.482 0.784998H163.519V1.785H164.482V0.784998ZM162.557 0.784998H161.594V1.785H162.557V0.784998ZM160.632 0.784998H159.669V1.785H160.632V0.784998ZM158.707 0.784998H157.744V1.785H158.707V0.784998ZM156.782 0.784998H155.819V1.785H156.782V0.784998ZM154.857 0.784998H153.894V1.785H154.857V0.784998ZM152.932 0.784998H151.969V1.785H152.932V0.784998ZM151.007 0.784998H150.044V1.785H151.007V0.784998ZM149.082 0.784998H148.6V1.785H149.082V0.784998ZM148.6 1.285V0.284998H147.6V1.285H148.6ZM165.925 1.285H166.925V0.284998H165.925V1.285ZM165.925 5.17V6.17H166.925V5.17H165.925ZM154.06 5.17V4.17H153.06V5.17H154.06ZM154.06 10.385H153.06V11.385H154.06V10.385ZM164.77 10.385H165.77V9.385H164.77V10.385ZM164.77 14.27V15.27H165.77V14.27H164.77ZM154.06 14.27V13.27H153.06V14.27H154.06ZM154.06 20.115H153.06V21.115H154.06V20.115ZM166.275 20.115H167.275V19.115H166.275V20.115ZM166.275 24V25H167.275V24H166.275ZM148.6 24H147.6V25H148.6V24ZM147.6 1.285V1.80125H149.6V1.285H147.6ZM147.6 2.83375V3.86625H149.6V2.83375H147.6ZM147.6 4.89875V5.93125H149.6V4.89875H147.6ZM147.6 6.96375V7.99625H149.6V6.96375H147.6ZM147.6 9.02875V10.0613H149.6V9.02875H147.6ZM147.6 11.0938V12.1263H149.6V11.0938H147.6ZM147.6 13.1588V14.1912H149.6V13.1588H147.6ZM147.6 15.2238V16.2563H149.6V15.2238H147.6ZM147.6 17.2888V18.3213H149.6V17.2888H147.6ZM147.6 19.3538V20.3862H149.6V19.3538H147.6ZM147.6 21.4187V22.4512H149.6V21.4187H147.6ZM147.6 23.4837V24H149.6V23.4837H147.6ZM148.6 25H149.091V23H148.6V25ZM150.073 25H151.055V23H150.073V25ZM152.037 25H153.019V23H152.037V25ZM154.001 25H154.983V23H154.001V25ZM155.965 25H156.947V23H155.965V25ZM157.929 25H158.911V23H157.929V25ZM159.893 25H160.875V23H159.893V25ZM161.857 25H162.839V23H161.857V25ZM163.821 25H164.802V23H163.821V25ZM165.784 25H166.275V23H165.784V25ZM167.275 24V23.5144H165.275V24H167.275ZM167.275 22.5431V21.5719H165.275V22.5431H167.275ZM167.275 20.6006V20.115H165.275V20.6006H167.275ZM166.275 19.115H165.766V21.115H166.275V19.115ZM164.749 19.115H163.731V21.115H164.749V19.115ZM162.713 19.115H161.695V21.115H162.713V19.115ZM160.677 19.115H159.659V21.115H160.677V19.115ZM158.641 19.115H157.623V21.115H158.641V19.115ZM156.605 19.115H155.587V21.115H156.605V19.115ZM154.569 19.115H154.06V21.115H154.569V19.115ZM155.06 20.115V19.6279H153.06V20.115H155.06ZM155.06 18.6537V17.6796H153.06V18.6537H155.06ZM155.06 16.7054V15.7312H153.06V16.7054H155.06ZM155.06 14.7571V14.27H153.06V14.7571H155.06ZM154.06 15.27H154.596V13.27H154.06V15.27ZM155.667 15.27H156.738V13.27H155.667V15.27ZM157.809 15.27H158.88V13.27H157.809V15.27ZM159.951 15.27H161.022V13.27H159.951V15.27ZM162.093 15.27H163.164V13.27H162.093V15.27ZM164.235 15.27H164.77V13.27H164.235V15.27ZM165.77 14.27V13.7844H163.77V14.27H165.77ZM165.77 12.8131V11.8419H163.77V12.8131H165.77ZM165.77 10.8706V10.385H163.77V10.8706H165.77ZM164.77 9.385H164.235V11.385H164.77V9.385ZM163.164 9.385H162.093V11.385H163.164V9.385ZM161.022 9.385H159.951V11.385H161.022V9.385ZM158.88 9.385H157.809V11.385H158.88V9.385ZM156.738 9.385H155.667V11.385H156.738V9.385ZM154.596 9.385H154.06V11.385H154.596V9.385ZM155.06 10.385V9.95041H153.06V10.385H155.06ZM155.06 9.08125V8.21208H153.06V9.08125H155.06ZM155.06 7.34291V6.47375H153.06V7.34291H155.06ZM155.06 5.60458V5.17H153.06V5.60458H155.06ZM154.06 6.17H154.555V4.17H154.06V6.17ZM155.544 6.17H156.532V4.17H155.544V6.17ZM157.521 6.17H158.51V4.17H157.521V6.17ZM159.499 6.17H160.487V4.17H159.499V6.17ZM161.476 6.17H162.465V4.17H161.476V6.17ZM163.454 6.17H164.442V4.17H163.454V6.17ZM165.431 6.17H165.925V4.17H165.431V6.17ZM166.925 5.17V4.68437H164.925V5.17H166.925ZM166.925 3.71312V2.74187H164.925V3.71312H166.925ZM166.925 1.77062V1.285H164.925V1.77062H166.925ZM165.925 0.284998H165.444V2.285H165.925V0.284998ZM164.482 0.284998H163.519V2.285H164.482V0.284998ZM162.557 0.284998H161.594V2.285H162.557V0.284998ZM160.632 0.284998H159.669V2.285H160.632V0.284998ZM158.707 0.284998H157.744V2.285H158.707V0.284998ZM156.782 0.284998H155.819V2.285H156.782V0.284998ZM154.857 0.284998H153.894V2.285H154.857V0.284998ZM152.932 0.284998H151.969V2.285H152.932V0.284998ZM151.007 0.284998H150.044V2.285H151.007V0.284998ZM149.082 0.284998H148.6V2.285H149.082V0.284998ZM171.713 1.285V0.784998H171.213V1.285H171.713ZM179.483 1.285L179.955 1.122L179.839 0.784998H179.483V1.285ZM185.083 17.525L184.61 17.688L185.086 19.0674L185.556 17.6862L185.083 17.525ZM190.613 1.285V0.784998H190.255L190.139 1.12383L190.613 1.285ZM197.928 1.285H198.428V0.784998H197.928V1.285ZM197.928 24V24.5H198.428V24H197.928ZM192.993 24H192.493V24.5H192.993V24ZM192.993 7.2H193.493V6.7H192.993V7.2ZM192.888 7.2V6.7H192.53L192.415 7.03834L192.888 7.2ZM187.148 24V24.5H187.505L187.621 24.1617L187.148 24ZM182.773 24L182.301 24.166L182.419 24.5H182.773V24ZM176.858 7.2L177.329 7.03395L177.212 6.7H176.858V7.2ZM176.718 7.2V6.7H176.218V7.2H176.718ZM176.718 24V24.5H177.218V24H176.718ZM171.713 24H171.213V24.5H171.713V24ZM171.213 1.285V1.80125H172.213V1.285H171.213ZM171.213 2.83375V3.86625H172.213V2.83375H171.213ZM171.213 4.89875V5.93125H172.213V4.89875H171.213ZM171.213 6.96375V7.99625H172.213V6.96375H171.213ZM171.213 9.02875V10.0613H172.213V9.02875H171.213ZM171.213 11.0938V12.1263H172.213V11.0938H171.213ZM171.213 13.1588V14.1912H172.213V13.1588H171.213ZM171.213 15.2238V16.2563H172.213V15.2238H171.213ZM171.213 17.2888V18.3213H172.213V17.2888H171.213ZM171.213 19.3538V20.3862H172.213V19.3538H171.213ZM171.213 21.4187V22.4512H172.213V21.4187H171.213ZM171.213 23.4837V24H172.213V23.4837H171.213ZM171.713 24.5H172.13V23.5H171.713V24.5ZM172.964 24.5H173.798V23.5H172.964V24.5ZM174.632 24.5H175.466V23.5H174.632V24.5ZM176.301 24.5H176.718V23.5H176.301V24.5ZM177.218 24V23.475H176.218V24H177.218ZM177.218 22.425V21.375H176.218V22.425H177.218ZM177.218 20.325V19.275H176.218V20.325H177.218ZM177.218 18.225V17.175H176.218V18.225H177.218ZM177.218 16.125V15.075H176.218V16.125H177.218ZM177.218 14.025V12.975H176.218V14.025H177.218ZM177.218 11.925V10.875H176.218V11.925H177.218ZM177.218 9.825V8.775H176.218V9.825H177.218ZM177.218 7.725V7.2H176.218V7.725H177.218ZM176.718 7.7H176.753V6.7H176.718V7.7ZM176.823 7.7H176.858V6.7H176.823V7.7ZM176.386 7.36605L176.55 7.83272L177.494 7.50062L177.329 7.03395L176.386 7.36605ZM176.879 8.76605L177.208 9.69938L178.151 9.36728L177.822 8.43395L176.879 8.76605ZM177.536 10.6327L177.865 11.566L178.808 11.2339L178.479 10.3006L177.536 10.6327ZM178.193 12.4994L178.522 13.4327L179.465 13.1006L179.137 12.1673L178.193 12.4994ZM178.851 14.366L179.179 15.2994L180.123 14.9673L179.794 14.0339L178.851 14.366ZM179.508 16.2327L179.836 17.166L180.78 16.834L180.451 15.9006L179.508 16.2327ZM180.165 18.0994L180.494 19.0327L181.437 18.7006L181.108 17.7673L180.165 18.0994ZM180.822 19.9661L181.151 20.8994L182.094 20.5673L181.766 19.634L180.822 19.9661ZM181.48 21.8327L181.808 22.7661L182.751 22.434L182.423 21.5006L181.48 21.8327ZM182.137 23.6994L182.301 24.166L183.244 23.834L183.08 23.3673L182.137 23.6994ZM182.773 24.5H183.32V23.5H182.773V24.5ZM184.413 24.5H185.507V23.5H184.413V24.5ZM186.601 24.5H187.148V23.5H186.601V24.5ZM187.621 24.1617L187.78 23.695L186.834 23.3717L186.675 23.8383L187.621 24.1617ZM188.099 22.7617L188.418 21.8283L187.472 21.505L187.153 22.4383L188.099 22.7617ZM188.737 20.895L189.056 19.9617L188.11 19.6383L187.791 20.5717L188.737 20.895ZM189.375 19.0283L189.694 18.095L188.747 17.7717L188.428 18.705L189.375 19.0283ZM190.013 17.1617L190.331 16.2283L189.385 15.905L189.066 16.8383L190.013 17.1617ZM190.65 15.295L190.969 14.3617L190.023 14.0383L189.704 14.9717L190.65 15.295ZM191.288 13.4283L191.607 12.495L190.661 12.1717L190.342 13.105L191.288 13.4283ZM191.926 11.5617L192.245 10.6283L191.298 10.305L190.98 11.2383L191.926 11.5617ZM192.564 9.69499L192.883 8.76166L191.936 8.43834L191.617 9.37167L192.564 9.69499ZM193.201 7.82832L193.361 7.36166L192.415 7.03834L192.255 7.505L193.201 7.82832ZM192.888 7.7H192.914V6.7H192.888V7.7ZM192.966 7.7H192.993V6.7H192.966V7.7ZM192.493 7.2V7.725H193.493V7.2H192.493ZM192.493 8.775V9.825H193.493V8.775H192.493ZM192.493 10.875V11.925H193.493V10.875H192.493ZM192.493 12.975V14.025H193.493V12.975H192.493ZM192.493 15.075V16.125H193.493V15.075H192.493ZM192.493 17.175V18.225H193.493V17.175H192.493ZM192.493 19.275V20.325H193.493V19.275H192.493ZM192.493 21.375V22.425H193.493V21.375H192.493ZM192.493 23.475V24H193.493V23.475H192.493ZM192.993 24.5H193.61V23.5H192.993V24.5ZM194.843 24.5H196.077V23.5H194.843V24.5ZM197.311 24.5H197.928V23.5H197.311V24.5ZM198.428 24V23.4837H197.428V24H198.428ZM198.428 22.4513V21.4188H197.428V22.4513H198.428ZM198.428 20.3862V19.3538H197.428V20.3862H198.428ZM198.428 18.3212V17.2887H197.428V18.3212H198.428ZM198.428 16.2562V15.2237H197.428V16.2562H198.428ZM198.428 14.1912V13.1587H197.428V14.1912H198.428ZM198.428 12.1262V11.0937H197.428V12.1262H198.428ZM198.428 10.0612V9.02875H197.428V10.0612H198.428ZM198.428 7.99625V6.96375H197.428V7.99625H198.428ZM198.428 5.93125V4.89875H197.428V5.93125H198.428ZM198.428 3.86625V2.83375H197.428V3.86625H198.428ZM198.428 1.80125V1.285H197.428V1.80125H198.428ZM197.928 0.784998H197.471V1.785H197.928V0.784998ZM196.556 0.784998H195.642V1.785H196.556V0.784998ZM194.727 0.784998H193.813V1.785H194.727V0.784998ZM192.899 0.784998H191.984V1.785H192.899V0.784998ZM191.07 0.784998H190.613V1.785H191.07V0.784998ZM190.139 1.12383L189.986 1.57494L190.932 1.89728L191.086 1.44617L190.139 1.12383ZM189.679 2.47716L189.371 3.37938L190.318 3.70173L190.625 2.7995L189.679 2.47716ZM189.064 4.28161L188.757 5.18383L189.704 5.50617L190.011 4.60395L189.064 4.28161ZM188.45 6.08605L188.142 6.98827L189.089 7.31061L189.396 6.40839L188.45 6.08605ZM187.835 7.8905L187.528 8.79272L188.475 9.11506L188.782 8.21284L187.835 7.8905ZM187.221 9.69494L186.914 10.5972L187.86 10.9195L188.167 10.0173L187.221 9.69494ZM186.606 11.4994L186.299 12.4016L187.246 12.7239L187.553 11.8217L186.606 11.4994ZM185.992 13.3038L185.685 14.2061L186.631 14.5284L186.939 13.6262L185.992 13.3038ZM185.377 15.1083L185.07 16.0105L186.017 16.3328L186.324 15.4306L185.377 15.1083ZM184.763 16.9127L184.609 17.3638L185.556 17.6862L185.71 17.2351L184.763 16.9127ZM185.555 17.362L185.4 16.9109L184.454 17.2369L184.61 17.688L185.555 17.362ZM185.089 16.0087L184.778 15.1064L183.832 15.4324L184.143 16.3347L185.089 16.0087ZM184.466 14.2042L184.155 13.302L183.21 13.628L183.521 14.5302L184.466 14.2042ZM183.844 12.3998L183.533 11.4976L182.588 11.8236L182.899 12.7258L183.844 12.3998ZM183.222 10.5953L182.911 9.69312L181.966 10.0191L182.277 10.9213L183.222 10.5953ZM182.6 8.79089L182.289 7.88867L181.343 8.21466L181.654 9.11688L182.6 8.79089ZM181.978 6.98645L181.666 6.08422L180.721 6.41022L181.032 7.31244L181.978 6.98645ZM181.355 5.182L181.044 4.27978L180.099 4.60577L180.41 5.50799L181.355 5.182ZM180.733 3.37756L180.422 2.47533L179.477 2.80132L179.788 3.70355L180.733 3.37756ZM180.111 1.57311L179.955 1.122L179.01 1.44799L179.166 1.8991L180.111 1.57311ZM179.483 0.784998H178.997V1.785H179.483V0.784998ZM178.026 0.784998H177.055V1.785H178.026V0.784998ZM176.083 0.784998H175.112V1.785H176.083V0.784998ZM174.141 0.784998H173.17V1.785H174.141V0.784998ZM172.198 0.784998H171.713V1.785H172.198V0.784998ZM171.713 1.285V0.284998H170.713V1.285H171.713ZM179.483 1.285L180.428 0.959007L180.196 0.284998H179.483V1.285ZM185.083 17.525L184.137 17.851L185.089 20.6098L186.029 17.8473L185.083 17.525ZM190.613 1.285V0.284998H189.897L189.666 0.962657L190.613 1.285ZM197.928 1.285H198.928V0.284998H197.928V1.285ZM197.928 24V25H198.928V24H197.928ZM192.993 24H191.993V25H192.993V24ZM192.993 7.2H193.993V6.2H192.993V7.2ZM192.888 7.2V6.2H192.173L191.941 6.87668L192.888 7.2ZM187.148 24V25H187.863L188.094 24.3233L187.148 24ZM182.773 24L181.829 24.3321L182.065 25H182.773V24ZM176.858 7.2L177.801 6.8679L177.566 6.2H176.858V7.2ZM176.718 7.2V6.2H175.718V7.2H176.718ZM176.718 24V25H177.718V24H176.718ZM171.713 24H170.713V25H171.713V24ZM170.713 1.285V1.80125H172.713V1.285H170.713ZM170.713 2.83375V3.86625H172.713V2.83375H170.713ZM170.713 4.89875V5.93125H172.713V4.89875H170.713ZM170.713 6.96375V7.99625H172.713V6.96375H170.713ZM170.713 9.02875V10.0613H172.713V9.02875H170.713ZM170.713 11.0938V12.1263H172.713V11.0938H170.713ZM170.713 13.1588V14.1912H172.713V13.1588H170.713ZM170.713 15.2238V16.2563H172.713V15.2238H170.713ZM170.713 17.2888V18.3213H172.713V17.2888H170.713ZM170.713 19.3538V20.3862H172.713V19.3538H170.713ZM170.713 21.4187V22.4512H172.713V21.4187H170.713ZM170.713 23.4837V24H172.713V23.4837H170.713ZM171.713 25H172.13V23H171.713V25ZM172.964 25H173.798V23H172.964V25ZM174.632 25H175.466V23H174.632V25ZM176.301 25H176.718V23H176.301V25ZM177.718 24V23.475H175.718V24H177.718ZM177.718 22.425V21.375H175.718V22.425H177.718ZM177.718 20.325V19.275H175.718V20.325H177.718ZM177.718 18.225V17.175H175.718V18.225H177.718ZM177.718 16.125V15.075H175.718V16.125H177.718ZM177.718 14.025V12.975H175.718V14.025H177.718ZM177.718 11.925V10.875H175.718V11.925H177.718ZM177.718 9.825V8.775H175.718V9.825H177.718ZM177.718 7.725V7.2H175.718V7.725H177.718ZM176.718 8.2H176.753V6.2H176.718V8.2ZM176.823 8.2H176.858V6.2H176.823V8.2ZM175.914 7.5321L176.079 7.99877L177.965 7.33457L177.801 6.8679L175.914 7.5321ZM176.407 8.9321L176.736 9.86543L178.622 9.20123L178.294 8.2679L176.407 8.9321ZM177.065 10.7988L177.393 11.7321L179.28 11.0679L178.951 10.1346L177.065 10.7988ZM177.722 12.6654L178.05 13.5988L179.937 12.9346L179.608 12.0012L177.722 12.6654ZM178.379 14.5321L178.708 15.4654L180.594 14.8012L180.266 13.8679L178.379 14.5321ZM179.036 16.3988L179.365 17.3321L181.251 16.6679L180.923 15.7346L179.036 16.3988ZM179.693 18.2654L180.022 19.1988L181.909 18.5346L181.58 17.6012L179.693 18.2654ZM180.351 20.1321L180.679 21.0654L182.566 20.4012L182.237 19.4679L180.351 20.1321ZM181.008 21.9988L181.337 22.9321L183.223 22.2679L182.894 21.3346L181.008 21.9988ZM181.665 23.8654L181.829 24.3321L183.716 23.6679L183.552 23.2012L181.665 23.8654ZM182.773 25H183.32V23H182.773V25ZM184.413 25H185.507V23H184.413V25ZM186.601 25H187.148V23H186.601V25ZM188.094 24.3233L188.253 23.8566L186.361 23.21L186.201 23.6767L188.094 24.3233ZM188.572 22.9233L188.891 21.99L186.999 21.3434L186.68 22.2767L188.572 22.9233ZM189.21 21.0566L189.529 20.1233L187.636 19.4767L187.318 20.41L189.21 21.0566ZM189.848 19.19L190.167 18.2566L188.274 17.61L187.955 18.5434L189.848 19.19ZM190.486 17.3233L190.805 16.39L188.912 15.7433L188.593 16.6767L190.486 17.3233ZM191.123 15.4566L191.442 14.5233L189.55 13.8767L189.231 14.81L191.123 15.4566ZM191.761 13.59L192.08 12.6566L190.188 12.01L189.869 12.9433L191.761 13.59ZM192.399 11.7233L192.718 10.79L190.825 10.1433L190.506 11.0767L192.399 11.7233ZM193.037 9.85665L193.356 8.92331L191.463 8.27668L191.144 9.21001L193.037 9.85665ZM193.675 7.98998L193.834 7.52332L191.941 6.87668L191.782 7.34335L193.675 7.98998ZM192.888 8.2H192.914V6.2H192.888V8.2ZM192.966 8.2H192.993V6.2H192.966V8.2ZM191.993 7.2V7.725H193.993V7.2H191.993ZM191.993 8.775V9.825H193.993V8.775H191.993ZM191.993 10.875V11.925H193.993V10.875H191.993ZM191.993 12.975V14.025H193.993V12.975H191.993ZM191.993 15.075V16.125H193.993V15.075H191.993ZM191.993 17.175V18.225H193.993V17.175H191.993ZM191.993 19.275V20.325H193.993V19.275H191.993ZM191.993 21.375V22.425H193.993V21.375H191.993ZM191.993 23.475V24H193.993V23.475H191.993ZM192.993 25H193.61V23H192.993V25ZM194.843 25H196.077V23H194.843V25ZM197.311 25H197.928V23H197.311V25ZM198.928 24V23.4837H196.928V24H198.928ZM198.928 22.4513V21.4188H196.928V22.4513H198.928ZM198.928 20.3862V19.3538H196.928V20.3862H198.928ZM198.928 18.3212V17.2887H196.928V18.3212H198.928ZM198.928 16.2562V15.2237H196.928V16.2562H198.928ZM198.928 14.1912V13.1587H196.928V14.1912H198.928ZM198.928 12.1262V11.0937H196.928V12.1262H198.928ZM198.928 10.0612V9.02875H196.928V10.0612H198.928ZM198.928 7.99625V6.96375H196.928V7.99625H198.928ZM198.928 5.93125V4.89875H196.928V5.93125H198.928ZM198.928 3.86625V2.83375H196.928V3.86625H198.928ZM198.928 1.80125V1.285H196.928V1.80125H198.928ZM197.928 0.284998H197.471V2.285H197.928V0.284998ZM196.556 0.284998H195.642V2.285H196.556V0.284998ZM194.727 0.284998H193.813V2.285H194.727V0.284998ZM192.899 0.284998H191.984V2.285H192.899V0.284998ZM191.07 0.284998H190.613V2.285H191.07V0.284998ZM189.666 0.962657L189.512 1.41377L191.406 2.05845L191.559 1.60734L189.666 0.962657ZM189.205 2.31599L188.898 3.21821L190.791 3.8629L191.098 2.96067L189.205 2.31599ZM188.591 4.12043L188.284 5.02266L190.177 5.66734L190.484 4.76512L188.591 4.12043ZM187.976 5.92488L187.669 6.8271L189.562 7.47178L189.87 6.56956L187.976 5.92488ZM187.362 7.72932L187.055 8.63155L188.948 9.27623L189.255 8.37401L187.362 7.72932ZM186.747 9.53377L186.44 10.436L188.333 11.0807L188.641 10.1785L186.747 9.53377ZM186.133 11.3382L185.826 12.2404L187.719 12.8851L188.026 11.9829L186.133 11.3382ZM185.519 13.1427L185.211 14.0449L187.105 14.6896L187.412 13.7873L185.519 13.1427ZM184.904 14.9471L184.597 15.8493L186.49 16.494L186.797 15.5918L184.904 14.9471ZM184.29 16.7515L184.136 17.2027L186.029 17.8473L186.183 17.3962L184.29 16.7515ZM186.028 17.199L185.873 16.7479L183.982 17.3999L184.137 17.851L186.028 17.199ZM185.561 15.8457L185.25 14.9435L183.36 15.5954L183.671 16.4977L185.561 15.8457ZM184.939 14.0412L184.628 13.139L182.737 13.791L183.048 14.6932L184.939 14.0412ZM184.317 12.2368L184.006 11.3346L182.115 11.9865L182.426 12.8888L184.317 12.2368ZM183.695 10.4323L183.384 9.53012L181.493 10.1821L181.804 11.0843L183.695 10.4323ZM183.073 8.6279L182.761 7.72568L180.871 8.37766L181.182 9.27988L183.073 8.6279ZM182.45 6.82345L182.139 5.92123L180.248 6.57321L180.56 7.47543L182.45 6.82345ZM181.828 5.01901L181.517 4.11678L179.626 4.76877L179.937 5.67099L181.828 5.01901ZM181.206 3.21456L180.895 2.31234L179.004 2.96432L179.315 3.86654L181.206 3.21456ZM180.584 1.41012L180.428 0.959007L178.537 1.61099L178.693 2.0621L180.584 1.41012ZM179.483 0.284998H178.997V2.285H179.483V0.284998ZM178.026 0.284998H177.055V2.285H178.026V0.284998ZM176.083 0.284998H175.112V2.285H176.083V0.284998ZM174.141 0.284998H173.17V2.285H174.141V0.284998ZM172.198 0.284998H171.713V2.285H172.198V0.284998Z" fill="#77C2F9" fill-opacity="0.9"/>
</svg>
