<svg width="198" height="25" fill="none" xmlns="http://www.w3.org/2000/svg"><path d="M8.205 24.105l-.077.494h.002l.075-.494zm-3.29-.84l.164-.472-.003-.001-.161.473zm-2.905-2.03l-.404.295.004.005.4-.3zM1.695 4.82l-.433-.25-.005.008.438.242zm1.96-2.1l-.268-.422-.004.002.272.42zm2.59-1.12l.142.48-.142-.48zm2.87-.56l.04.498h.003l-.043-.498zm5.39.035l-.058.497h.007l.007.001.044-.498zm2.66.49l.14-.48-.013-.004-.127.484zm2.765 1.19l.271-.42-.271.42zm1.82 1.96l-.432.252.002.004.43-.256zm-.245 16.31l-.401-.298-.005.006.406.292zm-2.73 2.065l-.186-.464.186.464zM13.7 20.395l.045.498h.01l.01-.002-.065-.496zm1.645-.35l-.14-.48.14.48zm1.26-.805l-.397-.304-.003.004.4.3zm-.84-13.72l-.238.44.01.005.228-.445zm-8.05-.035l-.228-.445.228.445zm-.84 13.755l-.397.304.004.006.005.005.388-.315zm1.33.805l.14-.48-.005-.002-.135.482zm1.61.35l-.068.495.013.002.012.001.043-.498zm1.89 3.455c-.145 0-.289-.001-.431-.003l-.016 1c.148.002.297.003.447.003v-1zm-1.292-.03a22.81 22.81 0 01-.857-.058l-.087.996c.293.025.591.045.895.06l.049-.999zm-1.71-.15a18.724 18.724 0 01-.423-.06l-.15.99c.147.022.295.043.446.062l.128-.992zm-.421-.06c-.135-.02-.27-.043-.406-.068l-.18.984c.145.026.289.05.432.073l.154-.988zm-1.214-.236a18.64 18.64 0 01-.801-.207l-.272.962c.285.08.566.153.845.218l.228-.973zm-1.595-.449c-.13-.042-.262-.087-.394-.132l-.328.944c.138.048.275.094.412.139l.31-.95zm-.397-.133a6.924 6.924 0 01-.393-.147l-.379.925c.147.06.297.116.45.168l.322-.946zm-1.14-.512a5.295 5.295 0 01-.677-.465l-.629.778c.25.203.52.387.805.552l.501-.865zm-1.268-1.028a4.964 4.964 0 01-.258-.317l-.8.6c.098.131.202.258.31.38l.748-.663zm-.254-.312a4.695 4.695 0 01-.231-.347l-.856.517c.087.144.18.284.28.42l.807-.59zm-.596-1.094a5.118 5.118 0 01-.235-.804l-.98.201c.07.333.163.654.281.962l.934-.359zM1.473 18.2a6.975 6.975 0 01-.013-.43h-1c0 .166.005.33.015.491l.998-.061zm-.013-.43v-.497h-1v.497h1zm0-1.491v-.994h-1v.994h1zm0-1.988v-.994h-1v.994h1zm0-1.988v-.994h-1v.994h1zm0-1.988v-.994h-1v.994h1zm0-1.988V7.83h-1v.497h1zm0-.497c0-.123.003-.245.01-.365l-1-.053a7.91 7.91 0 00-.01.418h1zm.089-1.085c.041-.24.096-.473.166-.699l-.956-.294a6.552 6.552 0 00-.196.824l.986.169zm.422-1.365c.05-.108.104-.214.162-.318l-.876-.484a6.157 6.157 0 00-.193.38l.907.422zm.157-.31c.115-.198.237-.386.366-.563l-.808-.59c-.15.207-.292.425-.424.652l.866.502zm1.267-1.537a5.22 5.22 0 01.532-.393l-.544-.84c-.22.143-.432.3-.633.47l.645.763zm.528-.39c.178-.114.37-.223.575-.328l-.456-.89c-.23.118-.448.242-.655.373l.536.844zm1.814-.854a13.4 13.4 0 01.65-.21l-.284-.959c-.24.072-.473.147-.697.226l.331.943zm.65-.21c.233-.068.461-.13.686-.187L6.83.922c-.239.06-.481.126-.727.198l.284.96zm2.071-.463c.238-.034.47-.06.696-.078L9.076.542c-.249.02-.502.048-.76.084l.142.99zm.7-.078c.208-.018.42-.033.634-.046L9.731.493c-.223.014-.442.03-.659.049l.086.996zm1.908-.097c.21-.004.423-.006.639-.006v-1c-.222 0-.441.002-.658.006l.02 1zm.639-.006c.238 0 .468.002.69.007l.022-1a32.89 32.89 0 00-.712-.007v1zm2.064.071c.237.019.463.04.678.066l.116-.994c-.229-.027-.468-.05-.718-.069l-.076.997zm.692.067c.207.018.423.043.645.075l.142-.99a12.94 12.94 0 00-.7-.081l-.087.996zm1.935.318c.21.048.423.1.642.158l.254-.968c-.23-.06-.454-.115-.673-.165l-.223.975zm.629.154c.12.035.236.07.35.107l.303-.954a16.475 16.475 0 00-.373-.113l-.28.96zm1.037.345c.234.09.456.182.664.278l.42-.908a11.43 11.43 0 00-.729-.305l-.355.935zm1.297.603c.104.06.204.12.3.182l.542-.84a7.632 7.632 0 00-.345-.21l-.497.868zm.3.182c.17.11.332.23.488.363l.648-.761a5.606 5.606 0 00-.594-.442l-.542.84zm1.318 1.268c.12.164.233.339.341.524l.864-.504a7.282 7.282 0 00-.395-.607l-.81.587zm.343.528c.062.104.12.21.174.32l.898-.438a5.493 5.493 0 00-.212-.394l-.86.512zm.442 1.003c.071.23.128.471.17.724l.986-.163a6.49 6.49 0 00-.2-.856l-.956.295zm.249 1.475c.006.124.009.251.009.381h1c0-.146-.003-.29-.01-.43l-1 .049zm.009.381v.497h1V7.83h-1zm0 1.491v.994h1v-.994h-1zm0 1.988v.994h1v-.994h-1zm0 1.988v.994h1v-.994h-1zm0 1.988v.994h1v-.994h-1zm0 1.988v.497h1v-.497h-1zm0 .497a6.2 6.2 0 01-.013.401l.998.065a7.16 7.16 0 00.015-.466h-1zm-.12 1.188a4.709 4.709 0 01-.227.75l.93.369a5.7 5.7 0 00.274-.91l-.977-.21zm-.577 1.445c-.068.11-.14.218-.22.324l.803.596c.096-.128.185-.26.268-.394l-.85-.526zm-.224.33a4.914 4.914 0 01-.243.312l.764.645a6.08 6.08 0 00.291-.373l-.812-.584zm-.797.873a5.45 5.45 0 01-.637.473l.537.843c.268-.17.52-.357.754-.56l-.654-.756zm-1.341.859c-.12.056-.244.11-.372.16l.372.93c.145-.059.286-.12.424-.185l-.424-.905zm-.372.16c-.135.055-.27.107-.408.157l.345.939c.146-.054.29-.11.435-.167l-.372-.928zm-1.238.436a15.86 15.86 0 01-.845.234l.242.97c.303-.075.601-.157.896-.247l-.293-.957zm-1.701.425c-.285.055-.574.105-.867.148l.145.99c.309-.046.613-.098.914-.157l-.192-.981zm-1.74.256c-.29.03-.583.053-.88.07l.058.998c.311-.018.618-.042.922-.073l-.1-.995zm-1.763.104a21.58 21.58 0 01-.442.004v1c.155 0 .308-.001.461-.004l-.019-1zm-.372-3.881c-.167 0-.328-.001-.483-.003l-.015 1a40 40 0 00.498.003v-1zm-1.443-.035c-.168-.01-.326-.02-.474-.033l-.086.996c.159.014.327.026.505.036l.055-.999zm-.45-.03a9.182 9.182 0 01-.386-.062l-.177.985c.144.026.287.048.428.067l.136-.99zm-1.155-.23a12.404 12.404 0 01-.382-.105l-.28.96c.139.04.277.078.413.113l.249-.968zm-.387-.107a3.008 3.008 0 01-.321-.108l-.376.927c.136.055.279.103.427.144l.27-.962zm-.867-.427a1.538 1.538 0 01-.21-.211l-.776.63c.103.127.218.243.345.35l.64-.769zm-.2-.2a1.582 1.582 0 01-.159-.252l-.893.449c.072.145.158.282.257.41l.794-.607zm-.333-.84a2.526 2.526 0 01-.02-.326h-1c0 .155.01.307.029.456l.991-.13zm-.02-.326v-.499h-1v.499h1zm0-1.496v-.998h-1v.998h1zm0-1.995v-.998h-1v.998h1zm0-1.995v-.998h-1v.998h1zm0-1.995V9.29h-1v.998h1zm0-1.995v-.499h-1v.499h1zm0-.499c0-.22.02-.417.056-.595l-.979-.203c-.052.253-.077.52-.077.798h1zm.565-1.547c.126-.119.278-.225.458-.318l-.456-.89a2.973 2.973 0 00-.688.481l.686.727zm.458-.318a3.53 3.53 0 01.414-.178l-.34-.94a4.527 4.527 0 00-.53.228l.456.89zm1.329-.419c.294-.055.617-.099.971-.13l-.088-.996c-.381.034-.737.081-1.067.143l.184.983zm1.966-.185c.163-.004.33-.006.502-.006v-1c-.18 0-.355.002-.527.006l.025 1zm.502-.006c.172 0 .34.002.502.006l.026-1a20.206 20.206 0 00-.528-.006v1zm1.498.064c.353.033.676.08.97.137l.194-.98a10.697 10.697 0 00-1.07-.153l-.095.996zm1.88.39c.151.058.287.12.41.186l.475-.88a4.423 4.423 0 00-.529-.24l-.356.934zm.419.19c.18.093.33.198.456.315l.68-.732a3.015 3.015 0 00-.68-.472l-.456.89zm.966 1.247c.037.174.057.369.057.584h1c0-.277-.025-.541-.079-.793l-.978.209zm.057.584v.499h1v-.499h-1zm0 1.496v.998h1V9.29h-1zm0 1.995v.998h1v-.998h-1zm0 1.995v.998h1v-.998h-1zm0 1.995v.998h1v-.998h-1zm0 1.995v.499h1v-.499h-1zm0 .499c0 .115-.007.224-.02.326l.991.13c.02-.149.029-.3.029-.456h-1zm-.194.914a1.582 1.582 0 01-.158.252l.794.608c.099-.13.185-.266.257-.411l-.893-.449zm-.161.256a1.403 1.403 0 01-.19.206l.665.747c.12-.107.229-.225.325-.353l-.8-.6zm-.697.518c-.093.04-.194.075-.303.107l.28.96c.144-.042.282-.09.414-.147l-.39-.92zm-.303.107c-.13.038-.26.073-.389.106l.246.97c.14-.036.281-.075.423-.116l-.28-.96zm-1.174.274a9.586 9.586 0 01-.396.06l.13.992c.145-.02.29-.041.436-.066l-.17-.986zm-.376.058c-.143.013-.297.024-.463.034l.056.998c.176-.01.341-.022.497-.036l-.09-.996zm-1.405.065a34.4 34.4 0 01-.475.003v1c.169 0 .332-.001.489-.003l-.014-1zm-4.045 4.143l-.154.988h.004l.15-.988zm-3.29-.84l.328-.945-.006-.002-.322.947zm-2.905-2.03l-.807.59.007.01.8-.6zM1.695 4.82L.83 4.319l-.005.009-.005.008.875.484zm1.96-2.1l-.535-.845-.008.005.543.84zm2.59-1.12l.283.959-.283-.959zm2.87-.56l.079.997H9.2l-.085-.997zm5.39.035l-.117.993.015.002.014.001.088-.996zm2.66.49l.28-.96-.013-.004-.014-.003-.253.967zm2.765 1.19l.542-.84-.542.84zm1.82 1.96l-.864.504.005.007.859-.511zm-.245 16.31l-.802-.597-.005.007-.005.007.812.583zm-2.73 2.065l-.371-.928.371.928zM13.7 20.395l.09.996.02-.002.02-.002-.13-.992zm1.645-.35l-.28-.96.28.96zm1.26-.805l-.794-.607-.006.007.8.6zm-.84-13.72l-.476.88.01.005.01.005.456-.89zm-8.05-.035l-.457-.89.457.89zm-.84 13.755l-.794.608.009.011.009.012.776-.631zm1.33.805l.28-.96-.01-.003-.27.963zm1.61.35l-.135.99.024.004.024.002.087-.996zm1.89 2.955c-.143 0-.284-.001-.424-.003l-.03 2c.15.002.301.003.454.003v-2zm-1.268-.03a22.608 22.608 0 01-.838-.057l-.173 1.993c.3.026.604.046.914.061l.097-1.997zm-1.67-.146a17.027 17.027 0 01-.412-.058l-.3 1.978c.15.023.303.044.457.064l.255-1.984zm-.408-.057c-.13-.02-.261-.043-.393-.067l-.36 1.968c.15.027.298.052.445.075l.308-1.976zm-1.177-.23a17.99 17.99 0 01-.78-.202L5.86 24.61c.29.082.58.157.866.224l.456-1.947zm-1.554-.437a21.618 21.618 0 01-.385-.13l-.656 1.89c.141.049.281.096.42.141l.62-1.901zm-.391-.132a6.366 6.366 0 01-.365-.136l-.757 1.851c.156.064.316.124.478.179l.644-1.894zm-1.05-.47a4.798 4.798 0 01-.614-.421l-1.257 1.555c.27.22.56.418.869.596l1.002-1.73zm-1.145-.928a4.477 4.477 0 01-.232-.285l-1.6 1.2c.107.142.219.28.336.412l1.496-1.327zm-.225-.276a4.201 4.201 0 01-.206-.31L.899 21.37a6.2 6.2 0 00.304.457l1.614-1.181zm-.533-.977a4.62 4.62 0 01-.211-.726l-1.959.403c.074.359.175.706.303 1.04l1.867-.717zm-.312-1.498a6.474 6.474 0 01-.012-.399h-2c0 .176.005.35.016.522l1.996-.123zm-.012-.399v-.497h-2v.497h2zm0-1.491v-.994h-2v.994h2zm0-1.988v-.994h-2v.994h2zm0-1.988v-.994h-2v.994h2zm0-1.988v-.994h-2v.994h2zm0-1.988V7.83h-2v.497h2zm0-.497c0-.115.003-.228.009-.339l-1.997-.105a8.409 8.409 0 00-.012.444h2zm.082-1c.037-.22.088-.432.15-.636l-1.91-.589a7.052 7.052 0 00-.212.887l1.972.337zm.382-1.239a4.65 4.65 0 01.146-.287L.82 4.336a6.66 6.66 0 00-.209.41l1.813.845zm.136-.27a5.9 5.9 0 01.338-.52L1.282 3.623a7.902 7.902 0 00-.452.696l1.73 1.002zm1.158-1.406a4.72 4.72 0 01.48-.355L3.112 1.88a6.718 6.718 0 00-.684.507l1.29 1.528zm.472-.35c.165-.105.344-.207.536-.305l-.912-1.78a8.782 8.782 0 00-.694.395l1.07 1.69zm1.713-.804c.2-.07.408-.138.625-.202L5.962.641c-.249.073-.49.15-.722.233l.663 1.887zm.625-.202c.227-.067.449-.128.666-.182L6.71.437c-.246.061-.495.13-.747.204l.566 1.918zm2.001-.448c.228-.032.45-.057.665-.074L9.036.043c-.26.02-.523.05-.79.088l.283 1.98zm.671-.075c.205-.017.412-.032.623-.045L9.7-.006c-.226.014-.45.03-.67.05l.17 1.992zm1.876-.095c.207-.004.416-.006.629-.006v-2c-.225 0-.447.002-.667.006l.038 2zm.629-.006c.234 0 .461.002.68.007l.042-2a34.87 34.87 0 00-.722-.007v2zm2.025.07c.232.018.45.039.658.063l.234-1.986a18.49 18.49 0 00-.738-.071l-.154 1.994zm.687.066c.198.018.404.042.618.072l.284-1.98a13.45 13.45 0 00-.726-.084l-.176 1.992zm1.868.308c.203.046.412.097.627.153l.506-1.934a22.436 22.436 0 00-.688-.17l-.445 1.95zm.6.146c.115.034.228.068.338.103L17.83.722c-.126-.04-.254-.079-.384-.117l-.56 1.92zm1 .333c.224.085.434.173.632.264l.838-1.816a11.957 11.957 0 00-.76-.318l-.71 1.87zm1.226.569c.096.055.189.112.277.168l1.084-1.68a8.067 8.067 0 00-.368-.224l-.993 1.736zm.277.168c.15.098.296.205.435.324l1.296-1.523a6.099 6.099 0 00-.647-.481l-1.084 1.68zm1.185 1.142c.108.15.213.31.313.482l1.728-1.008a7.788 7.788 0 00-.422-.649l-1.62 1.175zm.317.49c.055.091.107.186.154.284l1.797-.878a5.919 5.919 0 00-.232-.43L20.89 5.227zm.395.895c.064.207.115.426.154.658l1.973-.326a6.977 6.977 0 00-.216-.922l-1.911.59zm.226 1.352c.006.116.009.234.009.356h2a9.25 9.25 0 00-.011-.455l-1.998.099zm.009.356v.497h2V7.83h-2zm0 1.491v.994h2v-.994h-2zm0 1.988v.994h2v-.994h-2zm0 1.988v.994h2v-.994h-2zm0 1.988v.994h2v-.994h-2zm0 1.988v.497h2v-.497h-2zm0 .497c0 .126-.004.249-.012.369l1.996.13c.01-.165.016-.331.016-.499h-2zm-.11 1.082c-.05.236-.117.459-.202.67l1.86.74c.126-.32.225-.65.298-.99l-1.955-.42zm-.512 1.289c-.06.098-.126.193-.195.287l1.605 1.194a6.06 6.06 0 00.291-.43l-1.701-1.051zm-.205.3c-.07.097-.143.19-.219.281l1.529 1.29c.11-.13.215-.265.314-.404l-1.624-1.166zm-.718.787c-.178.153-.37.297-.579.43l1.075 1.686a6.88 6.88 0 00.813-.604l-1.31-1.512zm-1.226.784a6.437 6.437 0 01-.345.15l.742 1.857c.154-.062.304-.127.451-.196l-.848-1.811zm-.345.15c-.131.052-.263.102-.395.151l.69 1.877c.15-.055.3-.112.447-.172l-.742-1.857zm-1.2.421c-.268.083-.54.158-.818.227l.483 1.941c.311-.078.618-.163.921-.255l-.585-1.913zm-1.65.412c-.277.054-.558.102-.844.144l.29 1.98c.317-.047.63-.1.938-.161l-.385-1.963zm-1.695.25c-.282.028-.568.05-.858.068l.117 1.996c.317-.018.631-.043.942-.075l-.201-1.99zm-1.721.1c-.143.004-.288.005-.433.005v2c.158 0 .314-.002.47-.004l-.037-2zm-.363-3.88c-.165 0-.323-.001-.476-.003l-.029 2c.163.002.332.003.505.003v-2zm-1.416-.034c-.163-.01-.316-.02-.457-.032l-.174 1.992c.166.015.34.027.521.037l.11-1.997zm-.409-.027a8.807 8.807 0 01-.365-.058l-.354 1.969c.15.027.3.05.449.07l.27-1.98zm-1.099-.218c-.12-.031-.242-.065-.366-.101l-.56 1.92c.144.042.287.081.429.118l.497-1.937zm-.376-.104a2.51 2.51 0 01-.268-.09l-.752 1.853c.155.063.315.117.48.163l.54-1.926zm-.682-.33a1.035 1.035 0 01-.142-.143L6.1 19.871c.124.152.262.291.413.417l1.281-1.535zm-.124-.12a1.079 1.079 0 01-.108-.172l-1.787.897c.087.173.189.337.307.49l1.588-1.215zm-.233-.6a2.028 2.028 0 01-.016-.262h-2c0 .175.01.35.033.52l1.983-.258zm-.016-.262v-.499h-2v.499h2zm0-1.496v-.998h-2v.998h2zm0-1.995v-.998h-2v.998h2zm0-1.995v-.998h-2v.998h2zm0-1.995V9.29h-2v.998h2zm0-1.995v-.499h-2v.499h2zm0-.499c0-.19.017-.353.046-.494l-1.958-.405c-.06.29-.088.59-.088.899h2zm.409-1.183c.088-.084.2-.164.343-.237l-.914-1.78a3.473 3.473 0 00-.803.563L7.83 6.612zm.343-.237a3.03 3.03 0 01.354-.153l-.679-1.88a5.025 5.025 0 00-.589.253l.914 1.78zm1.192-.373c.276-.051.583-.093.924-.123l-.178-1.992c-.394.035-.766.084-1.114.15l.368 1.965zm1.886-.176c.159-.004.322-.006.49-.006v-2c-.184 0-.363.002-.54.007l.05 1.999zm.49-.006c.168 0 .331.002.49.006l.052-2a20.704 20.704 0 00-.542-.006v2zm1.45.062c.34.032.646.076.92.13l.39-1.962c-.35-.07-.725-.122-1.121-.16l-.187 1.992zm1.75.36c.133.05.249.103.35.158l.95-1.76a4.846 4.846 0 00-.588-.267l-.712 1.869zm.368.168c.143.073.255.153.344.235l1.362-1.464a3.514 3.514 0 00-.792-.55l-.914 1.779zm.706.905c.029.136.046.295.046.48h2a4.3 4.3 0 00-.09-.897l-1.956.417zm.046.48v.499h2v-.499h-2zm0 1.496v.998h2V9.29h-2zm0 1.995v.998h2v-.998h-2zm0 1.995v.998h2v-.998h-2zm0 1.995v.998h2v-.998h-2zm0 1.995v.499h2v-.499h-2zm0 .499c0 .095-.006.182-.016.262l1.983.258a4.02 4.02 0 00.033-.52h-2zm-.141.69c-.03.06-.067.118-.108.172l1.588 1.215a3.09 3.09 0 00.307-.49l-1.787-.897zm-.114.18a.904.904 0 01-.122.133l1.33 1.493a2.88 2.88 0 00.392-.426l-1.6-1.2zm-.492.358c-.074.03-.156.06-.248.087l.56 1.92c.161-.047.318-.102.47-.166l-.782-1.841zm-.248.087c-.125.036-.249.07-.372.101l.492 1.939c.146-.037.293-.077.44-.12l-.56-1.92zm-1.12.261c-.126.022-.25.041-.374.057l.258 1.984c.152-.02.305-.043.458-.07l-.342-1.97zm-.335.053a13.99 13.99 0 01-.447.032l.113 1.997c.18-.01.352-.022.514-.037l-.18-1.992zm-1.367.063c-.15.002-.306.003-.468.003v2c.17 0 .336-.001.496-.003l-.028-2zM33.913 5.17h.5v-.5h-.5v.5zm-7 0h-.5v.5h.5v-.5zm0-3.885v-.5h-.5v.5h.5zm19.426 0h.5v-.5h-.5v.5zm0 3.885v.5h.5v-.5h-.5zm-6.965 0v-.5h-.5v.5h.5zm0 18.83v.5h.5V24h-.5zm-5.46 0h-.5v.5h.5V24zm0-19.33h-.438v1h.438v-1zm-1.313 0h-.875v1h.875v-1zm-1.75 0h-.875v1h.875v-1zm-1.75 0h-.875v1h.875v-1zm-1.75 0h-.437v1h.437v-1zm.063.5v-.486h-1v.486h1zm0-1.457v-.971h-1v.971h1zm0-1.942v-.486h-1v.486h1zm-.5.014h.485v-1h-.485v1zm1.457 0h.971v-1h-.971v1zm1.942 0h.972v-1h-.972v1zm1.943 0h.971v-1h-.971v1zm1.942 0h.971v-1h-.97v1zm1.943 0h.971v-1h-.971v1zm1.942 0h.971v-1h-.97v1zm1.943 0h.971v-1h-.971v1zm1.942 0h.971v-1h-.97v1zm1.943 0h.971v-1h-.971v1zm1.942 0h.486v-1h-.486v1zm-.014-.5v.486h1v-.486h-1zm0 1.457v.971h1v-.971h-1zm0 1.942v.486h1v-.486h-1zm.5-.014h-.58v1h.58v-1zm-1.741 0h-1.161v1h1.16v-1zm-2.322 0h-1.16v1h1.16v-1zm-2.322 0h-.58v1h.58v-1zm-1.08.5v.523h1V5.17h-1zm0 1.57v1.045h1V6.74h-1zm0 2.091v1.046h1V8.832h-1zm0 2.093v1.046h1v-1.046h-1zm0 2.092v1.046h1v-1.046h-1zm0 2.092v1.046h1v-1.046h-1zm0 2.092v1.046h1V17.2h-1zm0 2.093v1.046h1v-1.046h-1zm0 2.092v1.046h1v-1.046h-1zm0 2.092V24h1v-.523h-1zm.5.023h-.455v1h.455v-1zm-1.365 0h-.91v1h.91v-1zm-1.82 0h-.91v1h.91v-1zm-1.82 0h-.455v1h.455v-1zm.045.5v-.523h-1V24h1zm0-1.57v-1.045h-1v1.046h1zm0-2.091v-1.046h-1v1.046h1zm0-2.093V17.2h-1v1.046h1zm0-2.092v-1.046h-1v1.046h1zm0-2.092v-1.046h-1v1.046h1zm0-2.092v-1.046h-1v1.046h1zm0-2.093V8.832h-1v1.046h1zm0-2.092V6.74h-1v1.046h1zm0-2.092V5.17h-1v.523h1zm-.5-.523h1v-1h-1v1zm-7 0h-1v1h1v-1zm0-3.885v-1h-1v1h1zm19.425 0h1v-1h-1v1zm0 3.885v1h1v-1h-1zm-6.965 0v-1h-1v1h1zm0 18.83v1h1v-1h-1zm-5.46 0h-1v1h1v-1zm0-19.83h-.438v2h.438v-2zm-1.313 0h-.875v2h.875v-2zm-1.75 0h-.875v2h.875v-2zm-1.75 0h-.875v2h.875v-2zm-1.75 0h-.437v2h.437v-2zm.563 1v-.486h-2v.486h2zm0-1.457v-.971h-2v.971h2zm0-1.942v-.486h-2v.486h2zm-1 .514h.485v-2h-.485v2zm1.457 0h.971v-2h-.971v2zm1.942 0h.972v-2h-.972v2zm1.943 0h.971v-2h-.971v2zm1.942 0h.971v-2h-.97v2zm1.943 0h.971v-2h-.971v2zm1.942 0h.971v-2h-.97v2zm1.943 0h.971v-2h-.971v2zm1.942 0h.971v-2h-.97v2zm1.943 0h.971v-2h-.971v2zm1.942 0h.486v-2h-.486v2zm-.514-1v.486h2v-.486h-2zm0 1.457v.971h2v-.971h-2zm0 1.942v.486h2v-.486h-2zm1-.514h-.58v2h.58v-2zm-1.741 0h-1.161v2h1.16v-2zm-2.322 0h-1.16v2h1.16v-2zm-2.322 0h-.58v2h.58v-2zm-1.58 1v.523h2V5.17h-2zm0 1.57v1.045h2V6.74h-2zm0 2.091v1.046h2V8.832h-2zm0 2.093v1.046h2v-1.046h-2zm0 2.092v1.046h2v-1.046h-2zm0 2.092v1.046h2v-1.046h-2zm0 2.092v1.046h2V17.2h-2zm0 2.093v1.046h2v-1.046h-2zm0 2.092v1.046h2v-1.046h-2zm0 2.092V24h2v-.523h-2zm1-.477h-.455v2h.455v-2zm-1.365 0h-.91v2h.91v-2zm-1.82 0h-.91v2h.91v-2zm-1.82 0h-.455v2h.455v-2zm.545 1v-.523h-2V24h2zm0-1.57v-1.045h-2v1.046h2zm0-2.091v-1.046h-2v1.046h2zm0-2.093V17.2h-2v1.046h2zm0-2.092v-1.046h-2v1.046h2zm0-2.092v-1.046h-2v1.046h2zm0-2.092v-1.046h-2v1.046h2zm0-2.093V8.832h-2v1.046h2zm0-2.092V6.74h-2v1.046h2zm0-2.092V5.17h-2v.523h2zm16.315-4.408v-.5h-.5v.5h.5zm14.21.49l-.135.482.012.003.123-.485zm2.52 1.505l-.41.287.005.006.405-.293zm-.035 7.455l-.368-.338-.008.009.376.329zm-1.75 1.155l-.148-.478-.352.11v.368h.5zm0 .175h-.5v.45l.448.047.052-.497zm2.415 1.155l-.341.365.006.006.006.005.33-.376zm-1.085 9.625l-.232-.443.232.443zM51.23 24h-.5v.5h.5V24zm11.13-13.685l-.158-.474.158.474zm.84-.665l-.447-.224-.003.007-.004.007.454.21zm.035-3.71l-.447.224.004.008.004.007.44-.239zm-.875-.595l-.134.482.007.002.127-.484zm-5.67-.175v-.5h-.5v.5h.5zm0 5.355h-.5v.5h.5v-.5zm6.72 9.135l-.238-.44.238.44zm.175-5.075l-.32.384.01.008.31-.392zm-6.895-.525v-.5h-.5v.5h.5zm0 6.055h-.5v.5h.5v-.5zm-5.96-18.83v.516h1v-.516h-1zm0 1.549v1.032h1V2.834h-1zm0 2.065V5.93h1V4.9h-1zm0 2.065v1.032h1V6.964h-1zm0 2.065v1.032h1V9.03h-1zm0 2.065v1.032h1v-1.032h-1zm0 2.065v1.032h1V13.16h-1zm0 2.065v1.032h1v-1.032h-1zm0 2.065v1.032h1V17.29h-1zm0 2.065v1.032h1v-1.032h-1zm0 2.065v1.032h1V21.42h-1zm0 2.065V24h1v-.516h-1zm.5 1.016h.473v-1h-.473v1zm1.418 0h.945v-1h-.945v1zm1.89 0h.945v-1h-.945v1zm1.89 0h.945v-1h-.945v1zm1.89 0h.945v-1h-.945v1zm1.89 0h.472v-1h-.472v1zm.472 0c.2 0 .397-.002.59-.005l-.016-1c-.188.003-.38.005-.574.005v1zm1.773-.047a24.08 24.08 0 001.185-.094l-.105-.994c-.36.038-.739.068-1.135.09l.055.998zm2.37-.256a13.4 13.4 0 001.18-.255l-.257-.967c-.337.09-.701.169-1.093.236l.17.986zm2.347-.645c.198-.082.388-.17.567-.264l-.464-.886c-.15.08-.313.155-.486.226l.383.924zm.567-.264c.199-.104.386-.218.563-.341l-.573-.82a4.15 4.15 0 01-.454.275l.464.886zm1.533-1.262c.27-.354.483-.748.636-1.18l-.942-.334c-.12.337-.283.638-.488.905l.794.609zm.91-2.46c.02-.208.03-.422.03-.641h-1c0 .19-.008.372-.025.547l.996.094zm.03-.641v-.438h-1v.438h1zm0-1.313v-.874h-1v.875h1zm0-1.75v-.437h-1v.438h1zm0-.437c0-.257-.03-.51-.094-.756l-.969.248c.042.163.063.332.063.508h1zm-.788-2.072a4.628 4.628 0 00-.503-.51l-.658.753c.15.132.282.265.394.4l.767-.643zm-.49-.498a5.478 5.478 0 00-.58-.475l-.577.817c.16.114.318.243.474.388l.683-.73zm-1.95-1.14a4.383 4.383 0 00-.754-.147l-.105.994c.2.021.393.059.582.113l.277-.96zm-.307.35v-.044h-1v.044h1zm0-.131v-.044h-1v.044h1zm-.352.434c.193-.06.38-.133.56-.219l-.427-.903a3.26 3.26 0 01-.429.166l.297.955zm1.56-.882c.147-.13.286-.27.419-.422l-.753-.658c-.106.12-.215.231-.33.332l.665.748zm.41-.413c.132-.143.25-.29.355-.443l-.824-.567c-.076.11-.165.222-.267.334l.737.676zm.836-1.52c.044-.199.066-.4.066-.603h-1c0 .13-.014.259-.042.385l.976.218zm.066-.603v-.7h-1v.7h1zm0-2.1v-.7h-1v.7h1zm0-.7a8.66 8.66 0 00-.008-.398l-1 .043c.006.115.008.233.008.355h1zm-.084-1.2a5.568 5.568 0 00-.182-.807l-.956.296c.063.2.113.42.15.661l.988-.15zm-.512-1.593a3.543 3.543 0 00-.234-.37l-.81.586c.06.083.116.171.168.266l.876-.482zm-.23-.364a3.426 3.426 0 00-.59-.645l-.648.762c.167.141.306.294.42.457l.819-.574zM66.33 1.528a7.481 7.481 0 00-.767-.238l-.247.97c.239.06.46.13.664.205l.35-.937zm-.756-.234a8.968 8.968 0 00-.431-.11l-.222.976c.135.03.262.063.383.096l.27-.962zm-1.293-.27a17.17 17.17 0 00-.859-.108l-.1.995c.286.029.556.063.809.101l.15-.989zM62.566.845c-.274-.017-.559-.03-.854-.04l-.034.999c.287.01.562.023.825.04l.063-.999zM60.86.787l-.426-.002v1c.14 0 .28 0 .416.002l.01-1zm-.426-.002h-.46v1h.46v-1zm-1.38 0h-.921v1h.92v-1zm-1.842 0h-.92v1h.92v-1zm-1.84 0h-.921v1h.92v-1zm-1.841 0h-.921v1h.92v-1zm-1.841 0h-.46v1h.46v-1zm8.744 9.24h-.468v1h.468v-1zm-1.404 0h-.936v1h.936v-1zm-1.873 0h-.468v1h.468v-1zm.032.5v-.446h-1v.446h1zm0-1.339v-.892h-1v.892h1zm0-1.785V6.51h-1v.89h1zm0-1.785V5.17h-1v.446h1zm-.5.054h.455v-1h-.455v1zm1.365 0h.91v-1h-.91v1zm1.82 0h.455v-1h-.455v1zm.455 0c.176 0 .342.002.498.006l.026-1a21.69 21.69 0 00-.524-.006v1zm1.464.074c.18.024.322.052.432.083l.268-.964a4.22 4.22 0 00-.569-.11l-.131.991zm.439.085c.076.02.143.042.202.065l.37-.93a2.75 2.75 0 00-.318-.103l-.254.968zm.486.239c.03.031.053.063.07.096l.894-.448a1.378 1.378 0 00-.248-.346l-.716.698zm.077.111a.815.815 0 01.069.178l.963-.268a1.842 1.842 0 00-.154-.388l-.878.478zm.142.675c.005.086.007.177.007.276h1c0-.116-.003-.227-.009-.334l-.998.058zm.007.276v.28h1v-.28h-1zm0 .84v.28h1v-.28h-1zm0 .28c0 .116-.003.225-.01.327l.999.062c.008-.125.011-.254.011-.389h-1zm-.1.932c-.028.098-.06.179-.092.244l.895.448a2.35 2.35 0 00.16-.425l-.964-.267zm-.099.258a.529.529 0 01-.076.12l.766.644a1.53 1.53 0 00.218-.344l-.908-.42zm-.35.322c-.057.028-.12.054-.194.079l.316.948c.111-.037.217-.08.317-.128l-.44-.899zm-.194.079a2.698 2.698 0 01-.397.094l.167.986c.198-.034.382-.077.546-.132l-.316-.948zm-1.299.176a13.66 13.66 0 01-.468.008v1c.176 0 .344-.003.504-.008l-.036-1zm-.328 9.598h-.485v1h.485v-1zm-1.457 0h-.97v1h.97v-1zm-1.942 0h-.486v1h.486v-1zm.014.5v-.505h-1v.505h1zm0-1.514v-1.009h-1v1.01h1zm0-2.018v-1.01h-1v1.01h1zm0-2.018v-.505h-1v.505h1zm-.5-.005h.578v-1h-.578v1zm1.733 0h1.155v-1h-1.155v1zm2.31 0h.577v-1h-.577v1zm.577 0c.2 0 .387.006.56.018l.069-.997a9.076 9.076 0 00-.629-.021v1zm1.585.208c.167.062.287.131.37.201l.64-.768a2.238 2.238 0 00-.664-.371l-.346.938zm.38.21a.977.977 0 01.218.242l.842-.54a1.973 1.973 0 00-.44-.487l-.62.784zm.45.962c.017.13.025.274.025.43h1c0-.193-.01-.378-.032-.554l-.993.124zm.025.43v.455h1v-.455h-1zm0 1.365v.455h1v-.455h-1zm0 .455c0 .126-.012.237-.034.335l.977.217c.039-.177.057-.362.057-.552h-1zm-.318.847c-.07.065-.156.127-.26.183l.476.88c.172-.094.33-.204.468-.334l-.684-.73zm-.26.183a2.428 2.428 0 01-.56.205l.242.97a3.37 3.37 0 00.794-.295l-.476-.88zm-1.897.379c-.218.01-.451.016-.7.016v1c.263 0 .513-.006.749-.017l-.05-1zM51.229 1.285v-1h-1v1h1zm14.21.49l-.27.963.012.003.011.003.247-.969zm2.52 1.505l-.819.573.005.007.004.007.81-.587zm-.035 7.455l-.737-.676-.008.009-.007.008.752.659zm-1.75 1.155l-.296-.955-.704.218v.737h1zm0 .175h-1v.9l.896.095.104-.995zm2.415 1.155l-.683.73.012.012.013.01.658-.752zm-1.085 9.625l-.464-.886.464.886zM51.23 24h-1v1h1v-1zm11.13-13.685l-.316-.949.316.949zm.84-.665l-.894-.447-.007.014-.007.014.908.419zm.035-3.71l-.894.447.008.016.008.016.878-.479zm-.875-.595l-.267.964.013.003.254-.967zm-5.67-.175v-1h-1v1h1zm0 5.355h-1v1h1v-1zm6.72 9.135l-.476-.88.476.88zm.175-5.075l-.64.768.01.009.01.008.62-.785zm-6.895-.525v-1h-1v1h1zm0 6.055h-1v1h1v-1zm-6.46-18.83v.516h2v-.516h-2zm0 1.549v1.032h2V2.834h-2zm0 2.065V5.93h2V4.9h-2zm0 2.065v1.032h2V6.964h-2zm0 2.065v1.032h2V9.03h-2zm0 2.065v1.032h2v-1.032h-2zm0 2.065v1.032h2V13.16h-2zm0 2.065v1.032h2v-1.032h-2zm0 2.065v1.032h2V17.29h-2zm0 2.065v1.032h2v-1.032h-2zm0 2.065v1.032h2V21.42h-2zm0 2.065V24h2v-.516h-2zm1 1.516h.473v-2h-.473v2zm1.418 0h.945v-2h-.945v2zm1.89 0h.945v-2h-.945v2zm1.89 0h.945v-2h-.945v2zm1.89 0h.945v-2h-.945v2zm1.89 0h.472v-2h-.472v2zm.472 0c.203 0 .402-.002.599-.005l-.033-2c-.185.003-.374.005-.566.005v2zm1.801-.047c.419-.024.822-.056 1.209-.096l-.21-1.99a22.59 22.59 0 01-1.11.089l.111 1.997zm2.427-.263c.43-.074.839-.163 1.225-.265l-.516-1.933c-.32.086-.67.162-1.049.227l.34 1.97zm2.453-.676a7.45 7.45 0 00.608-.283l-.928-1.772a5.302 5.302 0 01-.445.207l.765 1.848zm.608-.283a5.55 5.55 0 00.618-.375l-1.147-1.638a3.668 3.668 0 01-.399.241l.928 1.772zm1.697-1.401c.305-.397.541-.838.711-1.316l-1.885-.67a2.78 2.78 0 01-.413.77l1.587 1.216zm1.013-2.717a7.33 7.33 0 00.031-.688h-2c0 .175-.008.342-.022.5l1.99.188zm.031-.688v-.438h-2v.438h2zm0-1.313v-.874h-2v.875h2zm0-1.75v-.437h-2v.438h2zm0-.437c0-.298-.036-.592-.11-.88l-1.937.496c.031.122.047.25.047.384h2zm-.905-2.393a5.135 5.135 0 00-.556-.565l-1.317 1.506c.133.116.246.231.34.344l1.533-1.285zm-.532-.542a5.987 5.987 0 00-.633-.518l-1.154 1.633c.14.1.281.214.421.345l1.366-1.46zm-2.153-1.256a4.872 4.872 0 00-.84-.164l-.21 1.99c.171.018.336.05.496.096l.554-1.922zm.055.831v-.044h-2v.044h2zm0-.131v-.044h-2v.044h2zm-.703.911c.215-.067.424-.148.626-.244l-.856-1.807a2.747 2.747 0 01-.363.14l.593 1.911zm1.743-.985c.163-.144.317-.3.463-.466l-1.505-1.318a3.214 3.214 0 01-.285.288l1.327 1.496zm.448-.45c.145-.158.278-.324.397-.496L67.412 9.78c-.062.09-.137.183-.225.28l1.475 1.35zm.954-1.749c.052-.234.078-.471.078-.711h-2c0 .094-.01.186-.03.277l1.952.434zm.078-.711v-.7h-2v.7h2zm0-2.1v-.7h-2v.7h2zm0-.7a9.67 9.67 0 00-.009-.42l-1.998.087c.005.107.007.218.007.333h2zm-.09-1.276a6.088 6.088 0 00-.198-.878l-1.911.59c.054.175.099.37.132.59l1.977-.302zm-.568-1.758a4.038 4.038 0 00-.267-.423l-1.62 1.174c.048.065.093.136.135.213l1.752-.964zm-.258-.41a3.925 3.925 0 00-.676-.739l-1.296 1.524c.136.115.246.236.334.362l1.638-1.146zM66.504 1.06a7.972 7.972 0 00-.818-.254l-.494 1.938c.224.057.428.12.613.19l.7-1.874zM65.71.812a9.457 9.457 0 00-.455-.115l-.443 1.95c.127.03.246.06.359.091L65.71.812zM64.356.529a17.68 17.68 0 00-.883-.11l-.201 1.99c.279.027.54.06.783.097L64.356.53zM62.598.347c-.28-.017-.57-.031-.87-.041l-.067 1.999c.282.01.552.022.81.038l.127-1.996zm-1.733-.06a42.31 42.31 0 00-.43-.002v2c.138 0 .275 0 .41.002l.02-2zm-.43-.002h-.461v2h.46v-2zm-1.382 0h-.92v2h.92v-2zm-1.84 0h-.921v2h.92v-2zm-1.842 0h-.92v2h.92v-2zm-1.84 0h-.921v2h.92v-2zm-1.841 0h-.46v2h.46v-2zm8.744 9.24h-.468v2h.468v-2zm-1.404 0h-.936v2h.936v-2zm-1.873 0h-.468v2h.468v-2zm.532 1v-.446h-2v.446h2zm0-1.339v-.892h-2v.892h2zm0-1.785V6.51h-2v.89h2zm0-1.785V5.17h-2v.446h2zm-1 .554h.455v-2h-.455v2zm1.365 0h.91v-2h-.91v2zm1.82 0h.455v-2h-.455v2zm.455 0c.172 0 .333.002.484.006l.054-2c-.17-.004-.35-.006-.538-.006v2zm1.398.07c.165.021.283.046.365.069l.535-1.928a4.71 4.71 0 00-.637-.124l-.263 1.983zm.378.072c.059.016.106.031.144.047l.74-1.859a3.252 3.252 0 00-.375-.122l-.51 1.934zm.255.105a.143.143 0 01-.02-.03l1.789-.894a1.878 1.878 0 00-.337-.472L62.36 6.417zm-.004.002a.117.117 0 01.008.018c.005.012.011.03.018.055l1.927-.537a2.344 2.344 0 00-.197-.494l-1.756.958zm.082.464a4.3 4.3 0 01.006.247h2c0-.124-.003-.246-.01-.363l-1.996.116zm.006.247v.28h2v-.28h-2zm0 .84v.28h2v-.28h-2zm0 .28c0 .107-.003.206-.008.297l1.996.123c.008-.136.012-.276.012-.42h-2zm-.083.798a.871.871 0 01-.056.155l1.789.894c.082-.165.146-.338.195-.515l-1.928-.534zm-.07.183a.03.03 0 01-.005.008l1.531 1.286c.117-.138.214-.29.29-.456l-1.816-.838zm-.116.082a1.067 1.067 0 01-.132.053l.633 1.898c.13-.043.256-.094.378-.154l-.88-1.797zm-.132.053a2.14 2.14 0 01-.323.076l.334 1.972c.217-.037.427-.085.621-.15l-.632-1.898zm-1.158.151c-.14.005-.29.008-.45.008v2c.18 0 .354-.003.52-.009l-.07-1.999zm-.31 9.598h-.486v2h.485v-2zm-1.458 0h-.97v2h.97v-2zm-1.942 0h-.486v2h.486v-2zm.514 1v-.505h-2v.505h2zm0-1.514v-1.009h-2v1.01h2zm0-2.018v-1.01h-2v1.01h2zm0-2.018v-.505h-2v.505h2zm-1 .495h.578v-2h-.578v2zm1.733 0h1.155v-2h-1.155v2zm2.31 0h.577v-2h-.577v2zm.577 0c.19 0 .365.006.525.017l.138-1.995a9.574 9.574 0 00-.663-.022v2zm1.412.177c.127.047.193.09.223.116l1.28-1.536a2.738 2.738 0 00-.81-.456l-.693 1.876zm.244.133c.038.03.073.068.106.12l1.684-1.08a2.473 2.473 0 00-.551-.61l-1.24 1.57zm.263.632c.014.107.021.23.021.368h2c0-.21-.011-.417-.036-.616l-1.985.248zm.021.368v.455h2v-.455h-2zm0 1.365v.455h2v-.455h-2zm0 .455c0 .094-.009.168-.022.227l1.953.434c.048-.217.07-.438.07-.661h-2zm-.16.482a.743.743 0 01-.156.109l.953 1.758a2.71 2.71 0 00.57-.408l-1.367-1.46zm-.156.109c-.091.05-.234.106-.444.159l.486 1.94a3.86 3.86 0 00.91-.34l-.952-1.76zm-1.684.318c-.209.01-.434.016-.675.016v2c.27 0 .528-.006.773-.018l-.098-1.998zM75.196 1.285v-.5h-.5v.5h.5zm17.325 0h.5v-.5h-.5v.5zm0 3.885v.5h.5v-.5h-.5zm-11.865 0v-.5h-.5v.5h.5zm0 5.215h-.5v.5h.5v-.5zm10.71 0h.5v-.5h-.5v.5zm0 3.885v.5h.5v-.5h-.5zm-10.71 0v-.5h-.5v.5h.5zm0 5.845h-.5v.5h.5v-.5zm12.215 0h.5v-.5h-.5v.5zm0 3.885v.5h.5V24h-.5zm-17.675 0h-.5v.5h.5V24zm-.5-22.715v.516h1v-.516h-1zm0 1.549v1.032h1V2.834h-1zm0 2.065V5.93h1V4.9h-1zm0 2.065v1.032h1V6.964h-1zm0 2.065v1.032h1V9.03h-1zm0 2.065v1.032h1v-1.032h-1zm0 2.065v1.032h1V13.16h-1zm0 2.065v1.032h1v-1.032h-1zm0 2.065v1.032h1V17.29h-1zm0 2.065v1.032h1v-1.032h-1zm0 2.065v1.032h1V21.42h-1zm0 2.065V24h1v-.516h-1zm.5 1.016h.491v-1h-.49v1zm1.473 0h.982v-1h-.982v1zm1.964 0h.982v-1h-.982v1zm1.964 0h.982v-1h-.982v1zm1.964 0h.982v-1h-.982v1zm1.964 0h.981v-1h-.981v1zm1.963 0h.982v-1h-.981v1zm1.964 0h.982v-1h-.982v1zm1.964 0h.982v-1h-.982v1zm1.964 0h.491v-1h-.49v1zm.991-.5v-.486h-1V24h1zm0-1.457v-.971h-1v.971h1zm0-1.942v-.486h-1v.486h1zm-.5-.986h-.509v1h.51v-1zm-1.527 0h-1.018v1h1.018v-1zm-2.036 0H88.29v1h1.018v-1zm-2.035 0h-1.018v1h1.018v-1zm-2.036 0h-1.018v1h1.018v-1zm-2.036 0h-1.018v1h1.018v-1zm-2.036 0h-.509v1h.51v-1zm-.009.5v-.487h-1v.487h1zm0-1.461v-.974h-1v.974h1zm0-1.949v-.974h-1v.974h1zm0-1.948v-.487h-1v.487h1zm-.5.013h.536v-1h-.536v1zm1.607 0h1.07v-1h-1.07v1zm2.142 0h1.07v-1h-1.07v1zm2.142 0h1.07v-1h-1.07v1zm2.142 0h1.07v-1h-1.07v1zm2.142 0h.535v-1h-.535v1zm1.035-.5v-.486h-1v.486h1zm0-1.457v-.971h-1v.971h1zm0-1.942v-.486h-1v.486h1zm-.5-.986h-.535v1h.535v-1zm-1.606 0h-1.071v1h1.07v-1zm-2.142 0h-1.071v1h1.07v-1zm-2.142 0h-1.071v1h1.07v-1zm-2.142 0h-1.071v1h1.07v-1zm-2.142 0h-.536v1h.536v-1zm-.036.5V9.95h-1v.435h1zm0-1.304v-.869h-1v.87h1zm0-1.738v-.87h-1v.87h1zm0-1.738V5.17h-1v.435h1zm-.5.065h.494v-1h-.494v1zm1.483 0h.989v-1h-.989v1zm1.978 0h.989v-1h-.99v1zm1.977 0h.989v-1h-.989v1zm1.978 0h.989v-1h-.99v1zm1.977 0h.989v-1h-.989v1zm1.978 0h.494v-1h-.494v1zm.994-.5v-.486h-1v.486h1zm0-1.457v-.971h-1v.971h1zm0-1.942v-.486h-1v.486h1zm-.5-.986h-.481v1h.481v-1zm-1.444 0h-.962v1h.962v-1zm-1.925 0h-.962v1h.962v-1zm-1.925 0h-.962v1h.962v-1zm-1.925 0h-.962v1h.962v-1zm-1.925 0h-.962v1h.962v-1zm-1.925 0h-.962v1h.962v-1zm-1.925 0h-.962v1h.962v-1zm-1.925 0h-.962v1h.962v-1zm-1.925 0h-.48v1h.48v-1zm-.48.5v-1h-1v1h1zm17.324 0h1v-1h-1v1zm0 3.885v1h1v-1h-1zm-11.865 0v-1h-1v1h1zm0 5.215h-1v1h1v-1zm10.71 0h1v-1h-1v1zm0 3.885v1h1v-1h-1zm-10.71 0v-1h-1v1h1zm0 5.845h-1v1h1v-1zm12.215 0h1v-1h-1v1zm0 3.885v1h1v-1h-1zm-17.675 0h-1v1h1v-1zm-1-22.715v.516h2v-.516h-2zm0 1.549v1.032h2V2.834h-2zm0 2.065V5.93h2V4.9h-2zm0 2.065v1.032h2V6.964h-2zm0 2.065v1.032h2V9.03h-2zm0 2.065v1.032h2v-1.032h-2zm0 2.065v1.032h2V13.16h-2zm0 2.065v1.032h2v-1.032h-2zm0 2.065v1.032h2V17.29h-2zm0 2.065v1.032h2v-1.032h-2zm0 2.065v1.032h2V21.42h-2zm0 2.065V24h2v-.516h-2zm1 1.516h.491v-2h-.49v2zm1.473 0h.982v-2h-.982v2zm1.964 0h.982v-2h-.982v2zm1.964 0h.982v-2h-.982v2zm1.964 0h.982v-2h-.982v2zm1.964 0h.981v-2h-.981v2zm1.963 0h.982v-2h-.981v2zm1.964 0h.982v-2h-.982v2zm1.964 0h.982v-2h-.982v2zm1.964 0h.491v-2h-.49v2zm1.491-1v-.486h-2V24h2zm0-1.457v-.971h-2v.971h2zm0-1.942v-.486h-2v.486h2zm-1-1.486h-.509v2h.51v-2zm-1.527 0h-1.018v2h1.018v-2zm-2.036 0H88.29v2h1.018v-2zm-2.035 0h-1.018v2h1.018v-2zm-2.036 0h-1.018v2h1.018v-2zm-2.036 0h-1.018v2h1.018v-2zm-2.036 0h-.509v2h.51v-2zm.491 1v-.487h-2v.487h2zm0-1.461v-.974h-2v.974h2zm0-1.949v-.974h-2v.974h2zm0-1.948v-.487h-2v.487h2zm-1 .513h.536v-2h-.536v2zm1.607 0h1.07v-2h-1.07v2zm2.142 0h1.07v-2h-1.07v2zm2.142 0h1.07v-2h-1.07v2zm2.142 0h1.07v-2h-1.07v2zm2.142 0h.535v-2h-.535v2zm1.535-1v-.486h-2v.486h2zm0-1.457v-.971h-2v.971h2zm0-1.942v-.486h-2v.486h2zm-1-1.486h-.535v2h.535v-2zm-1.606 0h-1.071v2h1.07v-2zm-2.142 0h-1.071v2h1.07v-2zm-2.142 0h-1.071v2h1.07v-2zm-2.142 0h-1.071v2h1.07v-2zm-2.142 0h-.536v2h.536v-2zm.464 1V9.95h-2v.435h2zm0-1.304v-.869h-2v.87h2zm0-1.738v-.87h-2v.87h2zm0-1.738V5.17h-2v.435h2zm-1 .565h.494v-2h-.494v2zm1.483 0h.989v-2h-.989v2zm1.978 0h.989v-2h-.99v2zm1.977 0h.989v-2h-.989v2zm1.978 0h.989v-2h-.99v2zm1.977 0h.989v-2h-.989v2zm1.978 0h.494v-2h-.494v2zm1.494-1v-.486h-2v.486h2zm0-1.457v-.971h-2v.971h2zm0-1.942v-.486h-2v.486h2zm-1-1.486h-.481v2h.481v-2zm-1.444 0h-.962v2h.962v-2zm-1.925 0h-.962v2h.962v-2zm-1.925 0h-.962v2h.962v-2zm-1.925 0h-.962v2h.962v-2zm-1.925 0h-.962v2h.962v-2zm-1.925 0h-.962v2h.962v-2zm-1.925 0h-.962v2h.962v-2zm-1.925 0h-.962v2h.962v-2zm-1.925 0h-.48v2h.48v-2zm35.686 15.035h.5v-.855l-.745.42.245.435zm-11.55.105l-.304.397.008.006.296-.403zm-1.96-14.14v-.5h-.5v.5h.5zm5.39 0h.5v-.5h-.5v.5zm.805 10.92l-.297.402.01.007.01.007.277-.416zm5.04.105l-.154-.476.154.476zm2.275-1.155l.313.39.187-.15v-.24h-.5zm0-9.87v-.5h-.5v.5h.5zm5.46 0h.5v-.5h-.5v.5zm0 22.715v.5h.5V24h-.5zm-5.46 0h-.5v.5h.5V24zm-.245-9.116c-.16.09-.322.176-.488.258l.443.896c.182-.09.36-.184.536-.282l-.491-.872zm-1.503.697c-.342.127-.694.24-1.057.338l.26.965c.393-.105.775-.228 1.147-.366l-.35-.937zm-2.145.58a14.42 14.42 0 01-1.108.153l.1.995c.404-.04.798-.095 1.184-.164l-.176-.984zm-2.228.225c-.186.006-.374.009-.564.009v1c.2 0 .399-.003.595-.01l-.031-.999zm-.564.009c-.138 0-.276-.003-.411-.008l-.04 1c.149.005.3.008.451.008v-1zm-1.226-.076a8.188 8.188 0 01-.799-.142l-.225.974c.292.067.591.12.897.16l.127-.992zm-1.574-.366a6.77 6.77 0 01-.741-.308l-.439.898c.275.134.558.252.85.354l.33-.944zm-1.438-.702a6.678 6.678 0 01-.33-.228l-.593.805c.124.09.25.178.379.262l.544-.84zm-.322-.223a3.78 3.78 0 01-.315-.27l-.692.721c.126.122.259.236.398.343l.609-.794zm-.847-.907a4.467 4.467 0 01-.4-.745l-.92.39c.138.326.3.63.489.91l.83-.555zm-.672-1.564a7.453 7.453 0 01-.164-.865l-.991.13c.045.342.107.67.186.982l.969-.247zm-.237-1.756a11.648 11.648 0 01-.009-.451h-1c0 .166.004.33.01.49l.999-.039zm-.009-.451v-.453h-1v.453h1zm0-1.36v-.906h-1v.906h1zm0-1.813v-.906h-1v.906h1zm0-1.813v-.906h-1v.906h1zm0-1.813v-.906h-1v.906h1zm0-1.813v-.453h-1v.453h1zm-.5.047h.45v-1h-.45v1zm1.348 0h.898v-1h-.898v1zm1.797 0h.898v-1h-.898v1zm1.796 0h.449v-1h-.449v1zm-.051-.5v.54h1v-.54h-1zm0 1.62v1.082h1V2.906h-1zm0 2.162v1.08h1v-1.08h-1zm0 2.161V8.31h1V7.23h-1zm0 2.162v.54h1v-.54h-1zm0 .54c0 .238.012.465.035.679l.994-.109a5.255 5.255 0 01-.029-.57h-1zm.463 2.072c.144.239.326.443.545.605l.595-.804a1.082 1.082 0 01-.285-.32l-.855.519zm.565.619c.183.122.379.226.587.312l.383-.923a2.402 2.402 0 01-.415-.221l-.555.832zm1.829.614c.199.02.406.03.618.03v-1a4.97 4.97 0 01-.516-.025l-.102.995zm.618.03c.258 0 .514-.01.768-.03l-.078-.997a8.813 8.813 0 01-.69.027v1zm2.286-.27c.248-.06.494-.13.739-.21l-.309-.95c-.22.071-.442.134-.665.187l.235.973zm.739-.21a9.6 9.6 0 00.634-.228l-.37-.929a9.675 9.675 0 01-.573.207l.309.95zm1.859-.837a5.82 5.82 0 00.574-.403l-.625-.78a4.929 4.929 0 01-.475.333l.526.85zm.761-.793v-.493h-1v.493h1zm0-1.48v-.988h-1v.988h1zm0-1.975v-.987h-1V7.7h1zm0-1.974V4.74h-1v.987h1zm0-1.974v-.986h-1v.986h1zm0-1.973v-.494h-1v.494h1zm-.5.006h.455v-1h-.455v1zm1.365 0h.91v-1h-.91v1zm1.82 0h.91v-1h-.91v1zm1.82 0h.455v-1h-.455v1zm-.045-.5v.516h1v-.516h-1zm0 1.549v1.032h1V2.834h-1zm0 2.065V5.93h1V4.9h-1zm0 2.065v1.032h1V6.964h-1zm0 2.065v1.032h1V9.03h-1zm0 2.065v1.032h1v-1.032h-1zm0 2.065v1.032h1V13.16h-1zm0 2.065v1.032h1v-1.032h-1zm0 2.065v1.032h1V17.29h-1zm0 2.065v1.032h1v-1.032h-1zm0 2.065v1.032h1V21.42h-1zm0 2.065V24h1v-.516h-1zm.5.016h-.455v1h.455v-1zm-1.365 0h-.91v1h.91v-1zm-1.82 0h-.91v1h.91v-1zm-1.82 0h-.455v1h.455v-1zm.045.5v-.543h-1V24h1zm0-1.628v-1.084h-1v1.084h1zm0-2.17v-1.085h-1v1.085h1zm0-2.17v-1.084h-1v1.084h1zm0-2.17v-.542h-1v.543h1zm-.5-.542h1v-1.71l-1.49.838.49.872zm-11.55.105l-.609.793.008.006.008.006.593-.805zm-1.96-14.14v-1h-1v1h1zm5.39 0h1v-1h-1v1zm.805 10.92l-.594.804.02.015.02.013.554-.832zm5.04.105l-.309-.951.309.951zm2.275-1.155l.625.78.375-.3v-.48h-1zm0-9.87v-1h-1v1h1zm5.46 0h1v-1h-1v1zm0 22.715v1h1v-1h-1zm-5.46 0h-1v1h1v-1zm-.49-9.552a9.771 9.771 0 01-.465.246l.887 1.792c.189-.093.376-.191.559-.294l-.981-1.744zm-1.433.664c-.326.122-.663.23-1.012.324l.519 1.931c.408-.11.806-.236 1.193-.381l-.7-1.874zm-2.057.556c-.347.062-.703.112-1.07.148l.198 1.99a15.94 15.94 0 001.223-.169l-.351-1.969zm-2.157.219c-.18.005-.363.008-.548.008v2c.206 0 .409-.003.61-.01l-.062-1.998zm-.548.008c-.132 0-.262-.003-.391-.008l-.079 1.999c.155.006.312.009.47.009v-2zm-1.162-.072a7.677 7.677 0 01-.75-.133l-.45 1.948c.308.072.623.128.945.17l.255-1.985zm-1.473-.342a6.423 6.423 0 01-.687-.286l-.877 1.798c.292.142.594.268.904.376l.66-1.888zm-1.331-.65a5.542 5.542 0 01-.305-.211l-1.187 1.61c.132.097.267.19.404.28l1.088-1.68zm-.29-.2a3.329 3.329 0 01-.272-.234l-1.386 1.443c.14.134.287.26.44.378l1.218-1.586zm-.736-.788a3.968 3.968 0 01-.354-.662l-1.841.78c.149.353.326.685.533.994l1.662-1.112zm-.602-1.409a6.95 6.95 0 01-.153-.807l-1.983.26c.047.36.113.707.197 1.04l1.939-.493zm-.222-1.652c-.006-.14-.009-.284-.009-.432h-2c0 .172.004.342.01.509l1.999-.077zm-.009-.432v-.453h-2v.453h2zm0-1.36v-.906h-2v.906h2zm0-1.813v-.906h-2v.906h2zm0-1.813v-.906h-2v.906h2zm0-1.813v-.906h-2v.906h2zm0-1.813v-.453h-2v.453h2zm-1 .547h.45v-2h-.45v2zm1.348 0h.898v-2h-.898v2zm1.797 0h.898v-2h-.898v2zm1.796 0h.449v-2h-.449v2zm-.551-1v.54h2v-.54h-2zm0 1.62v1.082h2V2.906h-2zm0 2.162v1.08h2v-1.08h-2zm0 2.161V8.31h2V7.23h-2zm0 2.162v.54h2v-.54h-2zm0 .54c0 .254.012.498.038.733l1.988-.217a4.965 4.965 0 01-.026-.516h-2zm.535 2.33c.175.29.4.545.676.75l1.189-1.61a.59.59 0 01-.154-.175l-1.711 1.036zm.716.777c.211.14.435.26.672.358l.767-1.847a1.923 1.923 0 01-.33-.175l-1.109 1.664zm2.055.695c.218.022.441.033.669.033v-2a4.59 4.59 0 01-.466-.023l-.203 1.99zm.669.033c.271 0 .539-.01.807-.031l-.156-1.994a8.305 8.305 0 01-.651.025v2zm2.403-.284c.261-.063.52-.136.776-.22l-.618-1.902a8.376 8.376 0 01-.627.177l.469 1.945zm.776-.22c.23-.074.451-.154.664-.239l-.739-1.858a8.939 8.939 0 01-.543.195l.618 1.902zm1.969-.887a6.45 6.45 0 00.622-.438l-1.249-1.562a4.55 4.55 0 01-.427.3l1.054 1.7zm.997-1.219v-.493h-2v.493h2zm0-1.48v-.988h-2v.988h2zm0-1.975v-.987h-2V7.7h2zm0-1.974V4.74h-2v.987h2zm0-1.974v-.986h-2v.986h2zm0-1.973v-.494h-2v.494h2zm-1 .506h.455v-2h-.455v2zm1.365 0h.91v-2h-.91v2zm1.82 0h.91v-2h-.91v2zm1.82 0h.455v-2h-.455v2zm-.545-1v.516h2v-.516h-2zm0 1.549v1.032h2V2.834h-2zm0 2.065V5.93h2V4.9h-2zm0 2.065v1.032h2V6.964h-2zm0 2.065v1.032h2V9.03h-2zm0 2.065v1.032h2v-1.032h-2zm0 2.065v1.032h2V13.16h-2zm0 2.065v1.032h2v-1.032h-2zm0 2.065v1.032h2V17.29h-2zm0 2.065v1.032h2v-1.032h-2zm0 2.065v1.032h2V21.42h-2zm0 2.065V24h2v-.516h-2zm1-.484h-.455v2h.455v-2zm-1.365 0h-.91v2h.91v-2zm-1.82 0h-.91v2h.91v-2zm-1.82 0h-.455v2h.455v-2zm.545 1v-.543h-2V24h2zm0-1.628v-1.084h-2v1.084h2zm0-2.17v-1.085h-2v1.085h2zm0-2.17v-1.084h-2v1.084h2zm0-2.17v-.542h-2v.543h2zm17.128-14.577v-.5h-.348l-.12.327.468.173zm6.65 0l.471-.17-.119-.33h-.352v.5zM144.331 24v.5h.712l-.241-.67-.471.17zm-5.53 0l-.473.16.115.34h.358V24zm-2.03-5.985l.474-.16-.115-.34h-.359v.5zm-8.295 0v-.5h-.36l-.114.342.474.158zM126.481 24v.5h.361l.114-.342-.475-.158zm-5.39 0l-.468-.173-.25.673h.718V24zm14.49-9.625v.5h.696l-.222-.66-.474.16zm-2.87-8.54l.474-.16-.114-.34h-.36v.5zm-.14 0v-.5h-.359l-.114.34.473.16zm-2.87 8.54l-.473-.16-.222.66h.695v-.5zm-.678-13.263l-.175.473.937.347.175-.474-.937-.346zm-.525 1.42l-.35.946.937.347.35-.947-.937-.347zm-.7 1.892l-.35.947.937.346.35-.946-.937-.347zm-.7 1.893l-.35.947.937.346.35-.946-.937-.347zm-.7 1.893l-.35.946.937.347.35-.946-.937-.347zm-.7 1.893l-.35.946.937.347.35-.946-.937-.347zm-.7 1.893l-.35.946.937.347.35-.946-.937-.347zm-.7 1.893l-.35.946.937.347.35-.946-.937-.347zm-.7 1.893l-.35.946.937.347.35-.947-.937-.346zm-.7 1.893l-.35.946.937.347.35-.947-.937-.346zm-.7 1.892l-.35.947.937.347.35-.947-.937-.347zm-.7 1.893l-.35.947.937.347.35-.947-.937-.347zm-.7 1.893l-.175.474.937.346.175-.473-.937-.347zm.293 1.147h.45v-1h-.45v1zm1.348 0h.898v-1h-.898v1zm1.797 0h.898v-1h-.898v1zm1.796 0h.449v-1h-.449v1zm.924-.342l.166-.499-.949-.316-.166.499.949.316zm.499-1.496l.332-.998-.949-.316-.332.998.949.316zm.665-1.995l.332-.998-.949-.316-.332.998.949.316zm.665-1.995l.166-.499-.949-.316-.166.499.949.316zm-.309-.157h.519v-1h-.519v1zm1.556 0h1.037v-1h-1.037v1zm2.074 0h1.036v-1h-1.036v1zm2.073 0h1.037v-1h-1.037v1zm2.074 0h.518v-1h-.518v1zm.045-.34l.169.5.947-.322-.169-.499-.947.322zm.507 1.497l.339.997.947-.32-.339-.998-.947.32zm.677 1.995l.338.997.947-.32-.338-.998-.947.32zm.677 1.995l.169.499.947-.322-.169-.498-.947.32zm.642.838h.461v-1h-.461v1zm1.383 0h.922v-1h-.922v1zm1.843 0h.922v-1h-.922v1zm1.844 0h.46v-1h-.46v1zm.931-.67l-.171-.473-.94.34.17.473.941-.34zm-.512-1.42l-.341-.946-.941.34.341.946.941-.34zm-.683-1.892l-.341-.947-.94.34.341.946.94-.34zm-.682-1.893l-.341-.947-.941.34.341.946.941-.34zm-.683-1.893l-.341-.946-.941.339.342.946.94-.339zm-.682-1.893l-.341-.946-.941.339.341.946.941-.339zm-.683-1.893l-.341-.946-.94.339.341.946.94-.339zm-.682-1.893l-.341-.946-.941.339.341.946.941-.339zm-.683-1.893l-.341-.946-.941.339.342.946.94-.339zm-.682-1.893l-.341-.946-.941.34.341.946.941-.34zm-.683-1.893l-.341-.946-.941.34.342.946.94-.34zm-.682-1.892l-.341-.947-.941.34.341.946.941-.34zm-.683-1.893l-.17-.474-.941.34.171.473.94-.34zm-.641-.804h-.554v1h.554v-1zm-1.662 0h-1.108v1h1.108v-1zm-2.217 0h-1.108v1h1.108v-1zm-2.216 0h-.555v1h.555v-1zm5.535 13.09h-.49v1h.49v-1zm-1.47 0h-.98v1h.98v-1zm-1.96 0h-.98v1h.98v-1zm-1.96 0h-.49v1h.49v-1zm-.016.66l.144-.428-.948-.318-.143.427.947.318zm.431-1.282l.287-.854-.948-.318-.287.854.948.318zm.574-1.708l.287-.854-.948-.318-.287.854.948.318zm.574-1.708l.287-.854-.948-.318-.287.854.948.318zm.574-1.708l.287-.854-.948-.318-.287.854.948.318zm.574-1.708l.143-.427-.947-.318-.144.427.948.318zm-.331-.086h.035v-1h-.035v1zm.105 0h.035v-1h-.035v1zm-.438-.34l.143.426.948-.318-.144-.427-.947.318zm.43 1.28l.287.854.948-.318-.287-.854-.948.318zm.574 1.708l.287.854.948-.318-.287-.854-.948.318zm.574 1.708l.287.854.948-.318-.287-.854-.948.318zm.574 1.708l.287.854.948-.318-.287-.854-.948.318zm.574 1.708l.144.427.947-.318-.143-.427-.948.318zm-5.473-12.822v-1h-.696l-.241.653.937.347zm6.65 0l.941-.34-.238-.66h-.703v1zM144.331 24v1h1.424l-.483-1.34-.941.34zm-5.53 0l-.947.321.231.679h.716v-1zm-2.03-5.985l.947-.321-.23-.679h-.717v1zm-8.295 0v-1h-.72l-.228.684.948.316zM126.481 24v1h.721l.228-.684-.949-.316zm-5.39 0l-.937-.347-.498 1.347h1.435v-1zm14.49-9.625v1h1.392l-.444-1.319-.948.319zm-2.87-8.54l.948-.319-.229-.681h-.719v1zm-.14 0v-1h-.718l-.229.681.947.319zm-2.87 8.54l-.947-.319-.444 1.319h1.391v-1zM128.554.938l-.175.473 1.875.694.175-.473-1.875-.694zm-.525 1.42l-.35.946 1.875.694.35-.946-1.875-.694zm-.7 1.893l-.35.946 1.875.694.35-.947-1.875-.693zm-.7 1.893l-.35.946 1.875.694.35-.947-1.875-.693zm-.7 1.893l-.35.946 1.875.694.35-.947-1.875-.693zm-.7 1.893l-.35.946 1.875.694.35-.947-1.875-.693zm-.7 1.892l-.35.947 1.875.694.35-.947-1.875-.694zm-.7 1.893l-.35.947 1.875.693.35-.946-1.875-.694zm-.7 1.893l-.35.947 1.875.693.35-.946-1.875-.694zm-.7 1.893l-.35.947 1.875.693.35-.946-1.875-.694zm-.7 1.893l-.35.947 1.875.693.35-.946-1.875-.694zm-.7 1.893l-.35.947 1.875.693.35-.946-1.875-.694zm-.7 1.893l-.175.473 1.875.694.175-.473-1.875-.694zm.762 1.82h.45v-2h-.45v2zm1.348 0h.898v-2h-.898v2zm1.797 0h.898v-2h-.898v2zm1.796 0h.449v-2h-.449v2zm1.398-.684l.166-.498-1.897-.633-.166.499 1.897.632zm.499-1.496l.332-.997-1.897-.633-.332.997 1.897.633zm.665-1.995l.332-.997-1.897-.633-.332.997 1.897.633zm.665-1.995l.166-.499-1.897-.632-.166.498 1.897.633zm-.783.185h.519v-2h-.519v2zm1.556 0h1.037v-2h-1.037v2zm2.074 0h1.036v-2h-1.036v2zm2.073 0h1.037v-2h-1.037v2zm2.074 0h.518v-2h-.518v2zm-.429-.679l.17.499 1.894-.643-.17-.498-1.894.642zm.508 1.497l.338.997 1.894-.642-.338-.998-1.894.642zm.677 1.995l.338.997 1.894-.642-.338-.998-1.894.643zm.676 1.995l.169.498 1.894-.642-.169-.499-1.894.643zM138.801 25h.461v-2h-.461v2zm1.383 0h.922v-2h-.922v2zm1.843 0h.922v-2h-.922v2zm1.844 0h.46v-2h-.46v2zm1.401-1.34l-.17-.472-1.882.678.171.473 1.881-.678zm-.512-1.419l-.341-.946-1.881.678.341.947 1.881-.679zm-.682-1.893l-.341-.946-1.882.678.341.947 1.882-.679zm-.683-1.893l-.341-.946-1.881.678.341.947 1.881-.679zm-.682-1.893l-.341-.946-1.882.678.341.947 1.882-.679zm-.683-1.893l-.341-.946-1.881.678.341.947 1.881-.679zm-.682-1.893l-.341-.946-1.882.678.341.947 1.882-.678zm-.683-1.892l-.341-.947-1.881.679.341.946 1.881-.678zm-.682-1.893l-.341-.947-1.882.679.341.946 1.882-.678zm-.683-1.893l-.341-.947-1.881.679.341.946 1.881-.678zm-.682-1.893l-.341-.947-1.882.679.341.946 1.882-.678zm-.683-1.893l-.341-.946-1.881.678.341.946 1.881-.678zm-.682-1.893l-.171-.473-1.881.678.17.473 1.882-.678zM136.141.285h-.554v2h.554v-2zm-1.662 0h-1.108v2h1.108v-2zm-2.217 0h-1.108v2h1.108v-2zm-2.216 0h-.555v2h.555v-2zm5.535 13.09h-.49v2h.49v-2zm-1.47 0h-.98v2h.98v-2zm-1.96 0h-.98v2h.98v-2zm-1.96 0h-.49v2h.49v-2zm.458 1.319l.144-.427-1.896-.638-.143.427 1.895.638zm.431-1.281l.287-.854-1.896-.638-.287.854 1.896.638zm.574-1.708l.287-.854-1.896-.638-.287.854 1.896.638zm.574-1.708l.287-.854-1.896-.638-.287.854 1.896.638zm.574-1.708l.287-.854-1.896-.638-.287.854 1.896.638zm.574-1.708l.143-.427-1.895-.638-.144.427 1.896.638zm-.805.254h.035v-2h-.035v2zm.105 0h.035v-2h-.035v2zm-.912-.681l.143.427 1.896-.638-.144-.427-1.895.638zm.43 1.28l.287.855 1.896-.638-.287-.854-1.896.638zm.574 1.709l.287.854 1.896-.638-.287-.854-1.896.638zm.574 1.708l.287.854 1.896-.638-.287-.854-1.896.638zm.574 1.708l.287.854 1.896-.638-.287-.854-1.896.638zm.574 1.708l.144.427 1.895-.638-.143-.427-1.896.638zM148.6 1.285v-.5h-.5v.5h.5zm17.325 0h.5v-.5h-.5v.5zm0 3.885v.5h.5v-.5h-.5zm-11.865 0v-.5h-.5v.5h.5zm0 5.215h-.5v.5h.5v-.5zm10.71 0h.5v-.5h-.5v.5zm0 3.885v.5h.5v-.5h-.5zm-10.71 0v-.5h-.5v.5h.5zm0 5.845h-.5v.5h.5v-.5zm12.215 0h.5v-.5h-.5v.5zm0 3.885v.5h.5V24h-.5zM148.6 24h-.5v.5h.5V24zm-.5-22.715v.516h1v-.516h-1zm0 1.549v1.032h1V2.834h-1zm0 2.065V5.93h1V4.9h-1zm0 2.065v1.032h1V6.964h-1zm0 2.065v1.032h1V9.03h-1zm0 2.065v1.032h1v-1.032h-1zm0 2.065v1.032h1V13.16h-1zm0 2.065v1.032h1v-1.032h-1zm0 2.065v1.032h1V17.29h-1zm0 2.065v1.032h1v-1.032h-1zm0 2.065v1.032h1V21.42h-1zm0 2.065V24h1v-.516h-1zm.5 1.016h.491v-1h-.491v1zm1.473 0h.982v-1h-.982v1zm1.964 0h.982v-1h-.982v1zm1.964 0h.982v-1h-.982v1zm1.964 0h.982v-1h-.982v1zm1.964 0h.982v-1h-.982v1zm1.964 0h.982v-1h-.982v1zm1.964 0h.982v-1h-.982v1zm1.964 0h.981v-1h-.981v1zm1.963 0h.491v-1h-.491v1zm.991-.5v-.486h-1V24h1zm0-1.457v-.971h-1v.971h1zm0-1.942v-.486h-1v.486h1zm-.5-.986h-.509v1h.509v-1zm-1.526 0h-1.018v1h1.018v-1zm-2.036 0h-1.018v1h1.018v-1zm-2.036 0h-1.018v1h1.018v-1zm-2.036 0h-1.018v1h1.018v-1zm-2.036 0h-1.018v1h1.018v-1zm-2.036 0h-.509v1h.509v-1zm-.009.5v-.487h-1v.487h1zm0-1.461v-.974h-1v.974h1zm0-1.949v-.974h-1v.974h1zm0-1.948v-.487h-1v.487h1zm-.5.013h.536v-1h-.536v1zm1.607 0h1.071v-1h-1.071v1zm2.142 0h1.071v-1h-1.071v1zm2.142 0h1.071v-1h-1.071v1zm2.142 0h1.071v-1h-1.071v1zm2.142 0h.535v-1h-.535v1zm1.035-.5v-.486h-1v.486h1zm0-1.457v-.971h-1v.971h1zm0-1.942v-.486h-1v.486h1zm-.5-.986h-.535v1h.535v-1zm-1.606 0h-1.071v1h1.071v-1zm-2.142 0h-1.071v1h1.071v-1zm-2.142 0h-1.071v1h1.071v-1zm-2.142 0h-1.071v1h1.071v-1zm-2.142 0h-.536v1h.536v-1zm-.036.5V9.95h-1v.435h1zm0-1.304v-.869h-1v.87h1zm0-1.738v-.87h-1v.87h1zm0-1.738V5.17h-1v.435h1zm-.5.065h.495v-1h-.495v1zm1.484 0h.988v-1h-.988v1zm1.977 0h.989v-1h-.989v1zm1.978 0h.988v-1h-.988v1zm1.977 0h.989v-1h-.989v1zm1.978 0h.988v-1h-.988v1zm1.977 0h.494v-1h-.494v1zm.994-.5v-.486h-1v.486h1zm0-1.457v-.971h-1v.971h1zm0-1.942v-.486h-1v.486h1zm-.5-.986h-.481v1h.481v-1zm-1.443 0h-.963v1h.963v-1zm-1.925 0h-.963v1h.963v-1zm-1.925 0h-.963v1h.963v-1zm-1.925 0h-.963v1h.963v-1zm-1.925 0h-.963v1h.963v-1zm-1.925 0h-.963v1h.963v-1zm-1.925 0h-.963v1h.963v-1zm-1.925 0h-.963v1h.963v-1zm-1.925 0h-.482v1h.482v-1zm-.482.5v-1h-1v1h1zm17.325 0h1v-1h-1v1zm0 3.885v1h1v-1h-1zm-11.865 0v-1h-1v1h1zm0 5.215h-1v1h1v-1zm10.71 0h1v-1h-1v1zm0 3.885v1h1v-1h-1zm-10.71 0v-1h-1v1h1zm0 5.845h-1v1h1v-1zm12.215 0h1v-1h-1v1zm0 3.885v1h1v-1h-1zM148.6 24h-1v1h1v-1zm-1-22.715v.516h2v-.516h-2zm0 1.549v1.032h2V2.834h-2zm0 2.065V5.93h2V4.9h-2zm0 2.065v1.032h2V6.964h-2zm0 2.065v1.032h2V9.03h-2zm0 2.065v1.032h2v-1.032h-2zm0 2.065v1.032h2V13.16h-2zm0 2.065v1.032h2v-1.032h-2zm0 2.065v1.032h2V17.29h-2zm0 2.065v1.032h2v-1.032h-2zm0 2.065v1.032h2V21.42h-2zm0 2.065V24h2v-.516h-2zm1 1.516h.491v-2h-.491v2zm1.473 0h.982v-2h-.982v2zm1.964 0h.982v-2h-.982v2zm1.964 0h.982v-2h-.982v2zm1.964 0h.982v-2h-.982v2zm1.964 0h.982v-2h-.982v2zm1.964 0h.982v-2h-.982v2zm1.964 0h.982v-2h-.982v2zm1.964 0h.981v-2h-.981v2zm1.963 0h.491v-2h-.491v2zm1.491-1v-.486h-2V24h2zm0-1.457v-.971h-2v.971h2zm0-1.942v-.486h-2v.486h2zm-1-1.486h-.509v2h.509v-2zm-1.526 0h-1.018v2h1.018v-2zm-2.036 0h-1.018v2h1.018v-2zm-2.036 0h-1.018v2h1.018v-2zm-2.036 0h-1.018v2h1.018v-2zm-2.036 0h-1.018v2h1.018v-2zm-2.036 0h-.509v2h.509v-2zm.491 1v-.487h-2v.487h2zm0-1.461v-.974h-2v.974h2zm0-1.949v-.974h-2v.974h2zm0-1.948v-.487h-2v.487h2zm-1 .513h.536v-2h-.536v2zm1.607 0h1.071v-2h-1.071v2zm2.142 0h1.071v-2h-1.071v2zm2.142 0h1.071v-2h-1.071v2zm2.142 0h1.071v-2h-1.071v2zm2.142 0h.535v-2h-.535v2zm1.535-1v-.486h-2v.486h2zm0-1.457v-.971h-2v.971h2zm0-1.942v-.486h-2v.486h2zm-1-1.486h-.535v2h.535v-2zm-1.606 0h-1.071v2h1.071v-2zm-2.142 0h-1.071v2h1.071v-2zm-2.142 0h-1.071v2h1.071v-2zm-2.142 0h-1.071v2h1.071v-2zm-2.142 0h-.536v2h.536v-2zm.464 1V9.95h-2v.435h2zm0-1.304v-.869h-2v.87h2zm0-1.738v-.87h-2v.87h2zm0-1.738V5.17h-2v.435h2zm-1 .565h.495v-2h-.495v2zm1.484 0h.988v-2h-.988v2zm1.977 0h.989v-2h-.989v2zm1.978 0h.988v-2h-.988v2zm1.977 0h.989v-2h-.989v2zm1.978 0h.988v-2h-.988v2zm1.977 0h.494v-2h-.494v2zm1.494-1v-.486h-2v.486h2zm0-1.457v-.971h-2v.971h2zm0-1.942v-.486h-2v.486h2zm-1-1.486h-.481v2h.481v-2zm-1.443 0h-.963v2h.963v-2zm-1.925 0h-.963v2h.963v-2zm-1.925 0h-.963v2h.963v-2zm-1.925 0h-.963v2h.963v-2zm-1.925 0h-.963v2h.963v-2zm-1.925 0h-.963v2h.963v-2zm-1.925 0h-.963v2h.963v-2zm-1.925 0h-.963v2h.963v-2zm-1.925 0h-.482v2h.482v-2zm22.631 1v-.5h-.5v.5h.5zm7.77 0l.472-.163-.116-.337h-.356v.5zm5.6 16.24l-.473.163.476 1.38.47-1.382-.473-.161zm5.53-16.24v-.5h-.358l-.116.339.474.161zm7.315 0h.5v-.5h-.5v.5zm0 22.715v.5h.5V24h-.5zm-4.935 0h-.5v.5h.5V24zm0-16.8h.5v-.5h-.5v.5zm-.105 0v-.5h-.358l-.115.338.473.162zm-5.74 16.8v.5h.357l.116-.338-.473-.162zm-4.375 0l-.472.166.118.334h.354V24zm-5.915-16.8l.471-.166-.117-.334h-.354v.5zm-.14 0v-.5h-.5v.5h.5zm0 16.8v.5h.5V24h-.5zm-5.005 0h-.5v.5h.5V24zm-.5-22.715v.516h1v-.516h-1zm0 1.549v1.032h1V2.834h-1zm0 2.065V5.93h1V4.9h-1zm0 2.065v1.032h1V6.964h-1zm0 2.065v1.032h1V9.03h-1zm0 2.065v1.032h1v-1.032h-1zm0 2.065v1.032h1V13.16h-1zm0 2.065v1.032h1v-1.032h-1zm0 2.065v1.032h1V17.29h-1zm0 2.065v1.032h1v-1.032h-1zm0 2.065v1.032h1V21.42h-1zm0 2.065V24h1v-.516h-1zm.5 1.016h.417v-1h-.417v1zm1.251 0h.834v-1h-.834v1zm1.668 0h.834v-1h-.834v1zm1.669 0h.417v-1h-.417v1zm.917-.5v-.525h-1V24h1zm0-1.575v-1.05h-1v1.05h1zm0-2.1v-1.05h-1v1.05h1zm0-2.1v-1.05h-1v1.05h1zm0-2.1v-1.05h-1v1.05h1zm0-2.1v-1.05h-1v1.05h1zm0-2.1v-1.05h-1v1.05h1zm0-2.1v-1.05h-1v1.05h1zm0-2.1V7.2h-1v.525h1zm-.5-.025h.035v-1h-.035v1zm.105 0h.035v-1h-.035v1zm-.437-.334l.164.467.944-.332-.165-.467-.943.332zm.493 1.4l.329.933.943-.332-.329-.933-.943.332zm.657 1.867l.329.933.943-.332-.329-.933-.943.332zm.657 1.866l.329.934.943-.332-.328-.934-.944.332zm.658 1.867l.328.933.944-.332-.329-.933-.943.332zm.657 1.867l.328.933.944-.332-.329-.933-.943.332zm.657 1.866l.329.934.943-.332-.329-.934-.943.332zm.657 1.867l.329.933.943-.332-.328-.933-.944.332zm.658 1.867l.328.933.943-.332-.328-.933-.943.332zm.657 1.866l.164.467.943-.332-.164-.467-.943.332zm.636.801h.547v-1h-.547v1zm1.64 0h1.094v-1h-1.094v1zm2.188 0h.547v-1h-.547v1zm1.02-.338l.159-.467-.946-.323-.159.466.946.324zm.478-1.4l.319-.934-.946-.323-.319.933.946.324zm.638-1.867l.319-.933-.946-.324-.319.934.946.323zm.638-1.867l.319-.933-.947-.323-.319.933.947.323zm.638-1.866l.318-.934-.946-.323-.319.933.947.324zm.637-1.867l.319-.933-.946-.324-.319.934.946.323zm.638-1.867l.319-.933-.946-.323-.319.933.946.323zm.638-1.866l.319-.934-.947-.323-.318.933.946.324zm.638-1.867l.319-.933-.947-.324-.319.934.947.323zm.637-1.867l.16-.466-.946-.324-.16.467.946.323zm-.313-.128h.026v-1h-.026v1zm.078 0h.027v-1h-.027v1zm-.473-.5v.525h1V7.2h-1zm0 1.575v1.05h1v-1.05h-1zm0 2.1v1.05h1v-1.05h-1zm0 2.1v1.05h1v-1.05h-1zm0 2.1v1.05h1v-1.05h-1zm0 2.1v1.05h1v-1.05h-1zm0 2.1v1.05h1v-1.05h-1zm0 2.1v1.05h1v-1.05h-1zm0 2.1V24h1v-.525h-1zm.5 1.025h.617v-1h-.617v1zm1.85 0h1.234v-1h-1.234v1zm2.468 0h.617v-1h-.617v1zm1.117-.5v-.516h-1V24h1zm0-1.549V21.42h-1v1.032h1zm0-2.065v-1.032h-1v1.032h1zm0-2.065V17.29h-1v1.032h1zm0-2.065v-1.032h-1v1.032h1zm0-2.065V13.16h-1v1.032h1zm0-2.065v-1.032h-1v1.032h1zm0-2.065V9.03h-1v1.032h1zm0-2.065V6.964h-1v1.032h1zm0-2.065V4.9h-1v1.03h1zm0-2.065V2.834h-1v1.032h1zm0-2.065v-.516h-1v.516h1zm-.5-1.016h-.457v1h.457v-1zm-1.372 0h-.914v1h.914v-1zm-1.829 0h-.914v1h.914v-1zm-1.828 0h-.915v1h.915v-1zm-1.829 0h-.457v1h.457v-1zm-.931.339l-.153.45.946.323.154-.45-.947-.323zm-.46 1.353l-.308.902.947.323.307-.902-.946-.323zm-.615 1.805l-.307.902.947.322.307-.902-.947-.322zm-.614 1.804l-.308.902.947.323.307-.903-.946-.322zm-.615 1.804l-.307.903.947.322.307-.902-.947-.322zm-.614 1.805l-.307.902.946.322.307-.902-.946-.322zm-.615 1.804l-.307.903.947.322.307-.902-.947-.323zm-.614 1.805l-.307.902.946.322.308-.902-.947-.322zm-.615 1.804l-.307.902.947.323.307-.902-.947-.323zm-.614 1.805l-.154.45.947.323.154-.45-.947-.323zm.792.449l-.155-.451-.946.326.156.451.945-.326zm-.466-1.353l-.311-.903-.946.326.311.903.946-.326zm-.623-1.805l-.311-.902-.945.326.311.902.945-.326zm-.622-1.804l-.311-.902-.945.326.311.902.945-.326zm-.622-1.805l-.311-.902-.945.326.311.902.945-.326zm-.622-1.804l-.311-.902-.946.326.311.902.946-.326zm-.622-1.805l-.312-.902-.945.326.311.902.946-.326zm-.623-1.804l-.311-.902-.945.326.311.902.945-.326zm-.622-1.804l-.311-.903-.945.326.311.903.945-.326zm-.622-1.805l-.156-.451-.945.326.156.451.945-.326zm-.628-.788h-.486v1h.486v-1zm-1.457 0h-.971v1h.971v-1zm-1.943 0h-.971v1h.971v-1zm-1.942 0h-.971v1h.971v-1zm-1.943 0h-.485v1h.485v-1zm-.485.5v-1h-1v1h1zm7.77 0l.945-.326-.232-.674h-.713v1zm5.6 16.24l-.946.326.952 2.759.94-2.763-.946-.322zm5.53-16.24v-1h-.716l-.231.678.947.322zm7.315 0h1v-1h-1v1zm0 22.715v1h1v-1h-1zm-4.935 0h-1v1h1v-1zm0-16.8h1v-1h-1v1zm-.105 0v-1h-.715l-.232.677.947.323zm-5.74 16.8v1h.715l.231-.677-.946-.323zm-4.375 0l-.944.332.236.668h.708v-1zm-5.915-16.8l.943-.332-.235-.668h-.708v1zm-.14 0v-1h-1v1h1zm0 16.8v1h1v-1h-1zm-5.005 0h-1v1h1v-1zm-1-22.715v.516h2v-.516h-2zm0 1.549v1.032h2V2.834h-2zm0 2.065V5.93h2V4.9h-2zm0 2.065v1.032h2V6.964h-2zm0 2.065v1.032h2V9.03h-2zm0 2.065v1.032h2v-1.032h-2zm0 2.065v1.032h2V13.16h-2zm0 2.065v1.032h2v-1.032h-2zm0 2.065v1.032h2V17.29h-2zm0 2.065v1.032h2v-1.032h-2zm0 2.065v1.032h2V21.42h-2zm0 2.065V24h2v-.516h-2zm1 1.516h.417v-2h-.417v2zm1.251 0h.834v-2h-.834v2zm1.668 0h.834v-2h-.834v2zm1.669 0h.417v-2h-.417v2zm1.417-1v-.525h-2V24h2zm0-1.575v-1.05h-2v1.05h2zm0-2.1v-1.05h-2v1.05h2zm0-2.1v-1.05h-2v1.05h2zm0-2.1v-1.05h-2v1.05h2zm0-2.1v-1.05h-2v1.05h2zm0-2.1v-1.05h-2v1.05h2zm0-2.1v-1.05h-2v1.05h2zm0-2.1V7.2h-2v.525h2zm-1 .475h.035v-2h-.035v2zm.105 0h.035v-2h-.035v2zm-.909-.668l.165.467 1.886-.664-.164-.467-1.887.664zm.493 1.4l.329.933 1.886-.664-.328-.933-1.887.664zm.658 1.867l.328.933 1.887-.664-.329-.933-1.886.664zm.657 1.866l.328.934 1.887-.664-.329-.934-1.886.664zm.657 1.867l.329.933 1.886-.664-.328-.933-1.887.664zm.657 1.867l.329.933 1.886-.664-.328-.933-1.887.664zm.657 1.866l.329.934 1.887-.664-.329-.934-1.887.664zm.658 1.867l.328.933 1.887-.664-.329-.933-1.886.664zm.657 1.867l.329.933 1.886-.664-.329-.933-1.886.664zm.657 1.866l.164.467 1.887-.664-.164-.467-1.887.664zM182.773 25h.547v-2h-.547v2zm1.64 0h1.094v-2h-1.094v2zm2.188 0h.547v-2h-.547v2zm1.493-.677l.159-.466-1.892-.647-.16.467 1.893.646zm.478-1.4l.319-.933-1.892-.647-.319.934 1.892.646zm.638-1.866l.319-.934-1.893-.646-.318.933 1.892.647zm.638-1.867l.319-.933-1.893-.647-.319.933 1.893.647zm.638-1.867l.319-.933-1.893-.647-.319.934 1.893.646zm.637-1.866l.319-.934-1.892-.646-.319.933 1.892.647zm.638-1.867l.319-.933-1.892-.647-.319.933 1.892.647zm.638-1.867l.319-.933-1.893-.647-.319.934 1.893.646zm.638-1.866l.319-.934-1.893-.646-.319.933 1.893.647zm.638-1.867l.159-.467-1.893-.646-.159.466 1.893.647zm-.787.21h.026v-2h-.026v2zm.078 0h.027v-2h-.027v2zm-.973-1v.525h2V7.2h-2zm0 1.575v1.05h2v-1.05h-2zm0 2.1v1.05h2v-1.05h-2zm0 2.1v1.05h2v-1.05h-2zm0 2.1v1.05h2v-1.05h-2zm0 2.1v1.05h2v-1.05h-2zm0 2.1v1.05h2v-1.05h-2zm0 2.1v1.05h2v-1.05h-2zm0 2.1V24h2v-.525h-2zm1 1.525h.617v-2h-.617v2zm1.85 0h1.234v-2h-1.234v2zm2.468 0h.617v-2h-.617v2zm1.617-1v-.516h-2V24h2zm0-1.549V21.42h-2v1.032h2zm0-2.065v-1.032h-2v1.032h2zm0-2.065V17.29h-2v1.032h2zm0-2.065v-1.032h-2v1.032h2zm0-2.065V13.16h-2v1.032h2zm0-2.065v-1.032h-2v1.032h2zm0-2.065V9.03h-2v1.032h2zm0-2.065V6.964h-2v1.032h2zm0-2.065V4.9h-2v1.03h2zm0-2.065V2.834h-2v1.032h2zm0-2.065v-.516h-2v.516h2zm-1-1.516h-.457v2h.457v-2zm-1.372 0h-.914v2h.914v-2zm-1.829 0h-.914v2h.914v-2zm-1.828 0h-.915v2h.915v-2zm-1.829 0h-.457v2h.457v-2zm-1.404.678l-.154.45 1.894.645.153-.45-1.893-.645zm-.461 1.353l-.307.902 1.893.645.307-.902-1.893-.645zm-.614 1.804l-.307.903 1.893.644.307-.902-1.893-.645zm-.615 1.805l-.307.902 1.893.645.308-.902-1.894-.645zm-.614 1.804l-.307.903 1.893.644.307-.902-1.893-.645zm-.615 1.805l-.307.902 1.893.645.308-.902-1.894-.645zm-.614 1.804l-.307.902 1.893.645.307-.902-1.893-.645zm-.614 1.805l-.308.902 1.894.645.307-.903-1.893-.644zm-.615 1.804l-.307.902 1.893.645.307-.902-1.893-.645zm-.614 1.805l-.154.45 1.893.645.154-.45-1.893-.645zm1.738.447l-.155-.451-1.891.652.155.451 1.891-.652zm-.467-1.353l-.311-.902-1.89.651.311.903 1.89-.652zm-.622-1.805l-.311-.902-1.891.652.311.902 1.891-.652zm-.622-1.804l-.311-.902-1.891.651.311.903 1.891-.652zm-.622-1.805l-.311-.902-1.891.652.311.902 1.891-.652zm-.622-1.804l-.312-.902-1.89.652.311.902 1.891-.652zm-.623-1.805l-.311-.902-1.891.652.312.902 1.89-.652zm-.622-1.804l-.311-.902-1.891.652.311.902 1.891-.652zm-.622-1.804l-.311-.903-1.891.652.311.903 1.891-.652zm-.622-1.805l-.156-.451-1.891.652.156.451 1.891-.652zM179.483.285h-.486v2h.486v-2zm-1.457 0h-.971v2h.971v-2zm-1.943 0h-.971v2h.971v-2zm-1.942 0h-.971v2h.971v-2zm-1.943 0h-.485v2h.485v-2z" fill="#77C2F9" fill-opacity=".9"/></svg>