<svg width="300" height="36" fill="none" xmlns="http://www.w3.org/2000/svg"><path d="M11.939 35.159l-.077.494h.002l.075-.494zm-4.982-1.272l.164-.472-.003-.001-.161.473zm-4.399-3.074l-.404.295.004.005.4-.3zM2.081 5.956l-.433-.25-.005.008.438.242zm2.968-3.18l-.268-.422-.004.002.272.42zM8.971 1.08l.142.48-.142-.48zm4.346-.848l.04.498h.003l-.043-.498zm8.162.053l-.058.497h.007l.007.001.044-.498zm4.028.742l.14-.48-.013-.004-.127.484zm4.187 1.802l.271-.42-.271.42zm2.756 2.968l-.432.252.002.004.43-.256zm-.371 24.698l-.401-.298-.005.006.406.292zm-4.134 3.127l-.186-.464.186.464zm-7.685-4.081l.045.498h.01l.01-.002-.065-.496zm2.491-.53l-.14-.48.14.48zm1.908-1.219l-.397-.304-.003.004.4.3zM23.387 7.016l-.238.44.01.005.228-.445zm-12.19-.053l-.228-.445.228.445zM9.925 27.792l-.397.304.004.006.005.005.388-.315zm2.014 1.219l.14-.48-.005-.002-.135.482zm2.438.53l-.068.495.013.002.012.001.043-.498zm2.862 5.489c-.446 0-.884-.007-1.314-.02l-.031.999c.44.014.889.021 1.345.021v-1zm-3.928-.198a29.42 29.42 0 01-1.297-.167l-.15.988c.437.067.884.125 1.34.173l.107-.994zm-1.295-.167a24.389 24.389 0 01-1.24-.227l-.205.98c.435.09.865.169 1.291.235l.154-.988zm-3.69-.858c-.397-.12-.799-.252-1.205-.392l-.328.944c.418.145.832.28 1.242.405l.291-.957zm-1.208-.393a10.271 10.271 0 01-1.202-.493l-.438.9c.417.203.857.383 1.318.54l.322-.947zm-3.311-1.945a7.744 7.744 0 01-.849-.956l-.8.6c.29.387.61.747.958 1.08l.69-.724zm-.845-.951a7.353 7.353 0 01-.675-1.117l-.898.44c.217.444.472.866.765 1.267l.808-.59zm-1.41-3.626a10.277 10.277 0 01-.084-1.326h-1c0 .5.03.986.091 1.456l.992-.13zm-.084-1.326v-.94h-1v.94h1zm0-2.822v-1.882h-1v1.882h1zm0-3.763v-1.882h-1v1.882h1zm0-3.763v-1.882h-1v1.882h1zm0-3.763v-.941h-1v.94h1zm0-.941c0-.387.02-.763.06-1.129l-.994-.11c-.044.404-.066.817-.066 1.239h1zm.58-3.305a8.07 8.07 0 01.47-1.011l-.875-.484a9.071 9.071 0 00-.529 1.137l.934.358zm.466-1.002c.178-.309.368-.601.57-.877l-.81-.589c-.221.305-.43.627-.626.964l.866.502zM4.49 3.81a8.16 8.16 0 01.83-.615l-.543-.84a9.16 9.16 0 00-.932.691l.645.764zm.827-.613c.277-.176.574-.345.891-.507l-.456-.89c-.342.175-.665.36-.97.553l.535.844zm2.8-1.317c.319-.112.65-.22.996-.321L8.829.6c-.36.107-.708.22-1.044.337l.332.944zm.996-.321c.356-.106.705-.201 1.05-.287l-.244-.97C9.561.393 9.2.492 8.83.6l.284.96zm3.173-.71c.365-.052.722-.092 1.07-.12l-.078-.996c-.371.029-.749.071-1.134.126l.142.99zM13.36.73c.317-.027.64-.05.967-.07l-.062-.999c-.335.02-.665.045-.99.073l.085.996zm2.907-.148c.32-.006.644-.009.972-.009v-1c-.334 0-.665.003-.991.01l.019 1zm.972-.009c.361 0 .712.004 1.052.01l.02-1c-.347-.006-.704-.01-1.072-.01v1zm3.145.109c.362.028.708.06 1.037.1l.116-.994a27 27 0 00-1.076-.103l-.077.997zm1.051.101c.32.028.65.067.991.116l.142-.99a19.355 19.355 0 00-1.045-.122l-.088.996zm2.965.487c.32.073.646.153.98.24l.254-.967c-.344-.09-.681-.173-1.011-.248l-.223.975zm.967.237c.37.108.726.221 1.066.34L26.76.9a23.331 23.331 0 00-1.114-.354l-.28.96zm3.108 1.198c.34.174.656.356.948.544l.542-.84a12.007 12.007 0 00-1.034-.594l-.456.89zm.948.544c.266.172.522.362.767.57l.648-.761a8.234 8.234 0 00-.873-.65l-.542.841zm2.065 1.985c.186.256.362.527.53.815l.864-.504a10.775 10.775 0 00-.584-.898l-.81.587zm.532.819c.194.325.362.668.504 1.03l.93-.366a8.098 8.098 0 00-.574-1.176l-.86.512zm1.037 3.285c.04.377.059.769.059 1.176h1c0-.44-.021-.866-.065-1.28l-.994.104zm.059 1.176v.94h1v-.94h-1zm0 2.822v1.882h1v-1.882h-1zm0 3.763v1.882h1v-1.882h-1zm0 3.763v1.882h1v-1.882h-1zm0 3.763v.941h1v-.94h-1zm0 .941c0 .43-.027.845-.081 1.243l.99.135c.061-.446.091-.905.091-1.378h-1zm-.794 3.588a7.05 7.05 0 01-.644 1.043l.802.596c.281-.377.526-.774.735-1.19l-.893-.45zm-.65 1.05c-.24.335-.505.65-.795.942l.71.703c.328-.33.627-.684.898-1.062l-.812-.584zm-2.778 2.421a10.45 10.45 0 01-1.135.533l.372.928c.435-.174.85-.368 1.243-.583l-.48-.878zm-1.135.533c-.275.11-.553.215-.835.316l.336.941c.293-.104.584-.214.87-.329l-.37-.928zm-2.538.854c-.569.157-1.149.297-1.74.418l.2.98a27.07 27.07 0 001.806-.434l-.266-.964zm-3.506.72c-.584.081-1.178.146-1.783.194l.08.996c.623-.05 1.237-.116 1.841-.2l-.138-.99zm-3.577.287c-.297.007-.597.011-.899.011v1c.31 0 .619-.004.925-.012l-.026-1zm-.793-5.872c-.254 0-.5-.002-.736-.005l-.014 1c.242.003.492.005.75.005v-1zm-2.2-.053a22.896 22.896 0 01-.725-.051l-.086.996c.238.02.49.038.756.053l.055-.998zm-.7-.048a14.179 14.179 0 01-.596-.095l-.177.985c.215.038.427.072.637.1l.136-.99zm-1.78-.354c-.193-.05-.388-.103-.586-.161l-.28.96c.208.06.414.117.618.17l.248-.969zm-.591-.163a4.823 4.823 0 01-.513-.173l-.376.926c.197.08.403.15.62.21l.269-.963zm-1.409-.696a2.595 2.595 0 01-.352-.356l-.776.63c.145.18.308.344.488.493l.64-.767zm-.343-.345a2.658 2.658 0 01-.264-.423l-.894.449c.103.205.224.4.364.582l.794-.608zm-.553-1.395a4.081 4.081 0 01-.033-.527h-1c0 .225.014.444.041.657l.992-.13zm-.033-.527v-.944h-1v.944h1zm0-2.832v-1.888h-1v1.888h1zm0-3.776v-1.889h-1v1.889h1zm0-3.777v-1.888h-1v1.888h1zm0-3.776v-.944h-1v.944h1zm0-.944c0-.348.031-.665.09-.954l-.979-.202a5.72 5.72 0 00-.111 1.156h1zm.937-2.53c.21-.197.46-.373.752-.523l-.456-.89c-.37.19-.698.418-.983.687l.687.727zm.752-.523c.197-.101.416-.196.656-.283l-.34-.94a6.6 6.6 0 00-.772.333l.456.89zm2.082-.658c.455-.086.953-.153 1.496-.201l-.089-.996c-.57.05-1.1.122-1.59.214l.183.983zm3.019-.285c.248-.006.504-.009.766-.009v-1c-.27 0-.534.003-.791.01l.025 1zm.766-.009c.263 0 .519.003.767.01l.027-1a30.31 30.31 0 00-.794-.01v1zm2.292.098c.543.051 1.04.122 1.494.212l.195-.981a15.942 15.942 0 00-1.596-.226l-.093.995zm2.915.607c.239.09.455.19.65.295l.476-.88a6.442 6.442 0 00-.77-.35l-.356.935zm.66.3c.29.15.539.322.748.516l.68-.732a4.312 4.312 0 00-.972-.674l-.456.89zm1.597 2.062c.06.284.092.596.092.938h1c0-.403-.037-.786-.114-1.147l-.978.209zm.092.938v.944h1v-.944h-1zm0 2.832v1.888h1v-1.888h-1zm0 3.776v1.889h1v-1.889h-1zm0 3.777v1.888h1v-1.888h-1zm0 3.776v.944h1v-.944h-1zm0 .944c0 .185-.011.36-.033.527l.992.13a5.22 5.22 0 00.041-.657h-1zm-.322 1.5c-.075.149-.163.29-.264.422l.794.608c.14-.183.261-.377.364-.582l-.894-.449zm-.267.426a2.377 2.377 0 01-.322.35l.665.746a3.3 3.3 0 00.457-.496l-.8-.6zm-1.16.866a4.483 4.483 0 01-.488.173l.28.96a5.39 5.39 0 00.598-.212l-.39-.92zm-.488.173c-.2.059-.4.113-.598.163l.246.97c.21-.054.42-.111.632-.173l-.28-.96zm-1.806.422a15.01 15.01 0 01-.61.092l.13.992c.216-.028.432-.061.65-.1l-.17-.984zm-.59.09c-.22.02-.456.037-.71.052l.056.998c.264-.015.512-.033.744-.054l-.09-.996zm-2.148.1c-.231.002-.472.004-.722.004v1c.254 0 .5-.002.737-.005l-.015-1zm-6.128 6.016l-.154.988h.004l.15-.988zm-4.982-1.272l.328-.945-.006-.002-.322.947zm-4.399-3.074l-.807.59.007.01.8-.6zM2.081 5.956l-.865-.501-.005.009-.005.008.875.484zm2.968-3.18l-.535-.845-.008.005.543.84zM8.971 1.08l.283.959-.283-.959zm4.346-.848l.079.997h.006l-.085-.997zm8.162.053l-.117.993.015.002.014.001.088-.996zm4.028.742l.28-.96-.013-.004L25.76.06l-.253.967zm4.187 1.802l.542-.84-.542.84zm2.756 2.968l-.864.504.005.007.859-.511zm-.371 24.698l-.803-.597-.005.007-.004.007.812.583zm-4.134 3.127l-.371-.928.371.928zm-7.685-4.081l.09.996.02-.002.02-.002-.13-.992zm2.491-.53l-.28-.96.28.96zm1.908-1.219l-.794-.608-.006.008.8.6zM23.387 7.016l-.476.88.01.005.01.005.456-.89zm-12.19-.053l-.457-.89.457.89zM9.925 27.792l-.794.607.009.012.009.012.776-.631zm2.014 1.219l.28-.96-.01-.003-.27.963zm2.438.53l-.135.99.024.004.024.002.087-.996zm2.862 4.989c-.44 0-.873-.007-1.298-.02l-.063 1.999c.446.014.9.021 1.361.021v-2zm-3.875-.195c-.435-.047-.86-.102-1.275-.165l-.3 1.978c.444.067.899.126 1.362.175l.213-1.988zm-1.271-.164a23.95 23.95 0 01-1.216-.222l-.409 1.958a26.2 26.2 0 001.317.24l.308-1.976zm-3.621-.842a32.024 32.024 0 01-1.187-.387l-.656 1.89c.424.147.844.284 1.26.41l.583-1.913zm-1.193-.389a9.78 9.78 0 01-1.144-.468l-.877 1.797c.438.214.897.402 1.377.565l.644-1.894zm-3.127-1.832a7.24 7.24 0 01-.794-.895l-1.6 1.2c.307.41.645.79 1.013 1.141l1.38-1.446zm-.787-.886a6.856 6.856 0 01-.628-1.04L.94 30.06c.23.47.5.919.811 1.344l1.614-1.181zm-1.318-3.394a9.775 9.775 0 01-.079-1.262h-2c0 .52.032 1.027.096 1.52l1.983-.258zm-.079-1.262v-.94h-2v.94h2zm0-2.822v-1.882h-2v1.882h2zm0-3.763v-1.882h-2v1.882h2zm0-3.763v-1.882h-2v1.882h2zm0-3.763v-.941h-2v.94h2zm0-.941c0-.37.02-.728.057-1.074L.037 9.22c-.046.423-.069.854-.069 1.293h2zm.546-3.125c.126-.327.273-.643.442-.95l-1.75-.967a9.57 9.57 0 00-.559 1.2l1.867.717zm.432-.932c.17-.294.35-.571.541-.832L1.871 4.447c-.233.32-.452.656-.655 1.008l1.73 1.002zm1.866-2.264c.248-.209.508-.401.78-.577l-1.086-1.68a9.66 9.66 0 00-.983.729l1.29 1.528zm.772-.572c.264-.168.548-.33.852-.485l-.912-1.78a12.98 12.98 0 00-1.01.575l1.07 1.69zm2.699-1.269c.31-.109.634-.213.971-.313L8.688.121C8.32.23 7.963.345 7.619.466l.664 1.886zm.971-.313c.35-.103.693-.197 1.03-.281l-.486-1.94c-.365.091-.735.192-1.11.303l.566 1.918zm3.103-.694c.355-.05.701-.09 1.039-.116l-.158-1.994c-.381.03-.77.074-1.165.13l.284 1.98zm1.045-.117c.314-.027.632-.05.955-.07l-.123-1.996c-.338.02-.673.045-1.002.074l.17 1.992zm2.874-.146c.317-.006.638-.009.963-.009v-2c-.337 0-.671.003-1 .01l.037 1.999zm.963-.009c.358 0 .705.003 1.041.01l.042-2a52.29 52.29 0 00-1.083-.01v2zm3.106.107c.357.028.696.06 1.017.098l.234-1.986c-.35-.041-.716-.077-1.097-.106l-.154 1.994zm1.046.101c.31.027.63.065.964.113l.284-1.98a19.865 19.865 0 00-1.072-.125L21.39 1.28zm2.898.477c.313.071.635.15.965.236L25.76.06a33.35 33.35 0 00-1.026-.252l-.445 1.95zm.938.229c.363.106.71.216 1.042.331l.655-1.89a23.822 23.822 0 00-1.137-.361l-.56 1.92zm3.02 1.163c.327.168.628.34.905.52l1.084-1.681a12.487 12.487 0 00-1.077-.619l-.912 1.78zm.905.52c.248.16.485.336.713.53l1.297-1.523a8.727 8.727 0 00-.926-.688l-1.084 1.68zm1.931 1.858c.176.241.343.499.503.773l1.728-1.008a11.282 11.282 0 00-.612-.94l-1.618 1.175zm.508.78c.179.302.335.62.468.959l1.861-.733a8.594 8.594 0 00-.61-1.248l-1.72 1.022zm.968 3.082c.038.359.057.733.057 1.124h2c0-.456-.022-.9-.067-1.332l-1.99.208zm.057 1.124v.94h2v-.94h-2zm0 2.822v1.882h2v-1.882h-2zm0 3.763v1.882h2v-1.882h-2zm0 3.763v1.882h2v-1.882h-2zm0 3.763v.941h2v-.94h-2zm0 .941c0 .41-.026.8-.077 1.175l1.982.27c.064-.47.095-.951.095-1.445h-2zm-.741 3.363a6.55 6.55 0 01-.599.97l1.606 1.193c.297-.4.558-.822.78-1.265l-1.787-.898zm-.608.983a7.358 7.358 0 01-.746.883l1.422 1.406a9.31 9.31 0 00.948-1.123l-1.624-1.166zm-2.613 2.275a9.946 9.946 0 01-1.08.507l.742 1.856a11.96 11.96 0 001.298-.609l-.96-1.754zm-1.08.507c-.27.107-.542.21-.818.309l.672 1.883c.3-.106.595-.218.888-.336l-.742-1.856zm-2.487.836c-.557.154-1.126.291-1.706.41l.4 1.96a27.694 27.694 0 001.84-.442l-.534-1.928zm-3.44.707a29.59 29.59 0 01-1.754.19l.158 1.994a31.92 31.92 0 001.87-.203l-.274-1.981zm-3.521.282c-.293.007-.589.011-.887.011v2c.315 0 .627-.004.937-.012l-.05-2zm-.781-5.872c-.252 0-.494-.002-.728-.005l-.029 2c.244.003.496.005.757.005v-2zm-2.172-.052a23.544 23.544 0 01-.71-.05l-.173 1.992c.245.021.502.04.773.054l.11-1.997zm-.66-.045c-.19-.026-.381-.056-.576-.09l-.353 1.968c.221.04.44.074.658.104l.27-1.982zm-1.723-.342c-.188-.049-.378-.1-.571-.157l-.56 1.92c.213.062.424.12.633.174l.498-1.937zm-.581-.16a4.325 4.325 0 01-.46-.156l-.752 1.854c.215.087.44.163.672.228l.54-1.926zm-1.223-.6a2.096 2.096 0 01-.285-.287L9.15 28.423c.166.204.352.391.555.561l1.282-1.535zm-.267-.263a2.15 2.15 0 01-.214-.344l-1.788.897c.117.233.255.454.414.661l1.588-1.214zm-.454-1.156a3.574 3.574 0 01-.029-.463h-2c0 .245.015.486.045.721l1.984-.258zm-.029-.463v-.944h-2v.944h2zm0-2.832v-1.888h-2v1.888h2zm0-3.776v-1.889h-2v1.889h2zm0-3.777v-1.888h-2v1.888h2zm0-3.776v-.944h-2v.944h2zm0-.944c0-.318.028-.601.08-.852l-1.958-.405c-.083.4-.122.82-.122 1.257h2zm.78-2.166c.173-.163.383-.311.638-.442l-.914-1.78c-.407.21-.775.464-1.097.768l1.373 1.454zm.638-.442c.176-.09.374-.177.597-.257l-.68-1.881a7.1 7.1 0 00-.83.358l.913 1.78zM13.6 7.24a15.08 15.08 0 011.447-.194l-.177-1.992c-.584.052-1.13.125-1.639.22L13.6 7.24zm2.938-.276c.244-.006.495-.009.754-.009v-2c-.274 0-.542.003-.804.01l.05 2zm.754-.009c.259 0 .51.003.754.01l.053-2c-.263-.007-.532-.01-.807-.01v2zm2.245.096c.529.05 1.01.118 1.444.204l.388-1.962a16.44 16.44 0 00-1.645-.233l-.187 1.991zm2.784.576c.22.084.416.174.59.268l.951-1.76a6.932 6.932 0 00-.829-.377l-.712 1.87zm.61.278c.253.13.463.277.635.437l1.362-1.464a4.808 4.808 0 00-1.084-.753l-.914 1.78zm1.336 1.72a4 4 0 01.081.835h2a6 6 0 00-.125-1.25l-1.956.416zm.081.835v.944h2v-.944h-2zm0 2.832v1.888h2v-1.888h-2zm0 3.776v1.889h2v-1.889h-2zm0 3.777v1.888h2v-1.888h-2zm0 3.776v.944h2v-.944h-2zm0 .944c0 .165-.01.319-.029.463l1.983.258c.031-.235.046-.476.046-.721h-2zm-.268 1.275a2.216 2.216 0 01-.215.343l1.588 1.215a4.15 4.15 0 00.414-.66l-1.788-.898zm-.221.351c-.074.098-.158.19-.255.276l1.33 1.494a3.88 3.88 0 00.525-.57l-1.6-1.2zm-.956.706a3.896 3.896 0 01-.432.153l.56 1.92a5.8 5.8 0 00.654-.232l-.782-1.84zm-.432.153c-.195.057-.389.11-.58.158l.491 1.939c.216-.055.432-.114.649-.177l-.56-1.92zm-1.752.409a15.51 15.51 0 01-.588.09l.258 1.983c.223-.03.447-.064.672-.102l-.342-1.971zm-.55.085c-.213.02-.444.036-.693.05l.113 1.997c.269-.015.523-.033.762-.055l-.181-1.992zm-2.109.097c-.229.003-.467.005-.715.005v2c.257 0 .505-.002.744-.005l-.029-2zM50.87 6.486h.5v-.5h-.5v.5zm-10.6 0h-.5v.5h.5v-.5zm0-5.883v-.5h-.5v.5h.5zm29.415 0h.5v-.5h-.5v.5zm0 5.883v.5h.5v-.5h-.5zm-10.547 0v-.5h-.5v.5h.5zm0 28.514v.5h.5V35h-.5zm-8.268 0h-.5v.5h.5V35zm0-29.014h-.884v1h.884v-1zm-2.65 0h-1.767v1h1.767v-1zm-3.534 0H42.92v1h1.766v-1zm-3.533 0h-.883v1h.883v-1zm-.383.5v-1.47h-1v1.47h1zm0-4.412V.603h-1v1.47h1zm-.5-.971h1.05v-1h-1.05v1zm3.151 0h2.101v-1h-2.1v1zm4.202 0h2.101v-1h-2.1v1zm4.203 0h2.1v-1h-2.1v1zm4.202 0h2.1v-1h-2.1v1zm4.202 0h2.1v-1h-2.1v1zm4.202 0h2.101v-1h-2.101v1zm4.202 0h1.05v-1h-1.05v1zm.55-.5v1.47h1V.604h-1zm0 4.412v1.471h1v-1.47h-1zm.5.971h-.878v1h.879v-1zm-2.636 0H65.29v1h1.758v-1zm-3.516 0h-1.758v1h1.758v-1zm-3.515 0h-.88v1h.88v-1zm-1.38.5v1.018h1V6.486h-1zm0 3.055v2.037h1V9.54h-1zm0 4.073v2.037h1v-2.037h-1zm0 4.074v2.037h1v-2.037h-1zm0 4.073v2.037h1v-2.037h-1zm0 4.074v2.037h1v-2.037h-1zm0 4.073v2.037h1v-2.037h-1zm0 4.074V35h1v-1.018h-1zm.5.518h-1.033v1h1.034v-1zm-3.1 0H53.97v1h2.067v-1zm-4.134 0H50.87v1h1.033v-1zm-.533.5v-1.018h-1V35h1zm0-3.055v-2.037h-1v2.037h1zm0-4.073v-2.037h-1v2.037h1zm0-4.074v-2.037h-1v2.037h1zm0-4.073v-2.037h-1v2.037h1zm0-4.074v-2.037h-1v2.037h1zm0-4.073V9.54h-1v2.037h1zm0-4.074V6.486h-1v1.018h1zm-.5-1.018h1v-1h-1v1zm-10.6 0h-1v1h1v-1zm0-5.883v-1h-1v1h1zm29.415 0h1v-1h-1v1zm0 5.883v1h1v-1h-1zm-10.547 0v-1h-1v1h1zm0 28.514v1h1v-1h-1zm-8.268 0h-1v1h1v-1zm0-29.514h-.884v2h.884v-2zm-2.65 0h-1.767v2h1.767v-2zm-3.534 0H42.92v2h1.766v-2zm-3.533 0h-.883v2h.883v-2zm.117 1v-1.47h-2v1.47h2zm0-4.412V.603h-2v1.47h2zm-1-.471h1.05v-2h-1.05v2zm3.151 0h2.101v-2h-2.1v2zm4.202 0h2.101v-2h-2.1v2zm4.203 0h2.1v-2h-2.1v2zm4.202 0h2.1v-2h-2.1v2zm4.202 0h2.1v-2h-2.1v2zm4.202 0h2.101v-2h-2.101v2zm4.202 0h1.05v-2h-1.05v2zm.05-1v1.47h2V.604h-2zm0 4.412v1.471h2v-1.47h-2zm1 .471h-.878v2h.879v-2zm-2.636 0H65.29v2h1.758v-2zm-3.516 0h-1.758v2h1.758v-2zm-3.515 0h-.88v2h.88v-2zm-1.88 1v1.018h2V6.486h-2zm0 3.055v2.037h2V9.54h-2zm0 4.073v2.037h2v-2.037h-2zm0 4.074v2.037h2v-2.037h-2zm0 4.073v2.037h2v-2.037h-2zm0 4.074v2.037h2v-2.037h-2zm0 4.073v2.037h2v-2.037h-2zm0 4.074V35h2v-1.018h-2zm1 .018h-1.033v2h1.034v-2zm-3.1 0H53.97v2h2.067v-2zm-4.134 0H50.87v2h1.033v-2zm-.033 1v-1.018h-2V35h2zm0-3.055v-2.037h-2v2.037h2zm0-4.073v-2.037h-2v2.037h2zm0-4.074v-2.037h-2v2.037h2zm0-4.073v-2.037h-2v2.037h2zm0-4.074v-2.037h-2v2.037h2zm0-4.073V9.54h-2v2.037h2zm0-4.074V6.486h-2v1.018h2zM77.09.603v-.5h-.5v.5h.5zm21.518.742l-.135.482.012.002.123-.484zm3.816 2.279l-.41.287.005.006.405-.293zm-.053 11.289l-.369-.338-.007.009.376.329zm-2.65 1.749l-.148-.477-.352.109v.368h.5zm0 .265h-.5v.45l.448.047.052-.497zm3.657 1.749l-.341.365.006.006.006.005.329-.376zm-1.643 14.575l-.232-.443.232.443zM77.09 35h-.5v.5h.5V35zm16.854-20.723l-.158-.474.158.474zm1.272-1.007l-.447-.224-.004.007-.003.007.454.21zm.053-5.618l-.447.224.004.008.004.007.44-.239zm-1.325-.901l-.134.482.007.002.127-.484zm-8.586-.265v-.5h-.5v.5h.5zm0 8.109h-.5v.5h.5v-.5zm10.176 13.833l-.238-.44.238.44zm.265-7.685l-.32.384.01.008.31-.392zm-10.44-.795v-.5h-.5v.5h.5zm0 9.169h-.5v.5h.5v-.5zM76.59.603v.955h1V.603h-1zm0 2.866V5.38h1V3.47h-1zm0 3.822v1.911h1v-1.91h-1zm0 3.822v1.911h1v-1.91h-1zm0 3.822v1.911h1v-1.91h-1zm0 3.822v1.91h1v-1.91h-1zm0 3.822v1.91h1v-1.91h-1zm0 3.822v1.91h1v-1.91h-1zm0 3.822v1.91h1v-1.91h-1zm0 3.822V35h1v-.956h-1zm.5 1.455h.894v-1h-.894v1zm2.683 0h1.789v-1h-1.789v1zm3.578 0h1.788v-1h-1.788v1zm3.577 0h1.789v-1h-1.789v1zm3.578 0h.894v-1h-.894v1zm.894 0c.301 0 .598-.002.89-.007l-.017-1c-.286.005-.577.007-.873.007v1zm2.67-.07a36.1 36.1 0 001.781-.142l-.105-.994a34.48 34.48 0 01-1.73.137l.055.999zm3.56-.385a20.1 20.1 0 001.765-.382l-.257-.966c-.52.138-1.078.26-1.678.362l.17.986zm3.498-.96c.295-.122.574-.252.839-.391l-.464-.886a9.168 9.168 0 01-.757.352l.382.925zm.839-.391a7.53 7.53 0 00.824-.5l-.573-.82c-.221.156-.459.3-.715.434l.464.886zm2.236-1.84a6.25 6.25 0 00.925-1.716l-.943-.334a5.227 5.227 0 01-.776 1.442l.794.608zm1.328-3.592c.029-.307.043-.622.043-.947h-1c0 .295-.013.58-.039.853l.996.094zm.043-.947V25.99h-1v1.325h1zm0-3.975v-1.325h-1v1.325h1zm0-1.325c0-.369-.045-.73-.135-1.081l-.968.248c.068.269.103.546.103.833h1zm-1.134-2.972a6.75 6.75 0 00-.733-.743l-.658.752c.237.208.445.42.624.633l.767-.642zm-.72-.732a8.13 8.13 0 00-.851-.696l-.578.816c.254.18.502.382.746.61l.683-.73zm-2.849-1.668a6.347 6.347 0 00-1.098-.213l-.104.994c.317.034.625.094.925.18l.277-.96zm-.65.284v-.066h-1v.066h1zm0-.199v-.066h-1v.066h1zm-.352.412c.281-.088.553-.193.815-.318l-.428-.903a5.176 5.176 0 01-.683.265l.296.956zm2.268-1.282c.214-.19.417-.395.61-.616l-.752-.658c-.167.19-.341.366-.521.526l.663.748zm.603-.607c.191-.21.363-.423.514-.643l-.824-.567a4.938 4.938 0 01-.427.534l.737.676zm1.203-2.184a3.91 3.91 0 00.094-.857h-1c0 .217-.023.43-.07.64l.976.216zm.094-.857v-1.06h-1v1.06h1zm0-3.18V7.97h-1v1.06h1zm0-1.06c0-.413-.017-.808-.053-1.185l-.995.093c.032.343.048.707.048 1.092h1zm-.601-3.543a5.382 5.382 0 00-.607-1.096l-.81.586c.19.262.355.56.494.894l.923-.384zm-.602-1.09a4.935 4.935 0 00-.851-.928l-.648.762c.268.227.494.474.679.74l.82-.574zm-2.968-2.124c-.355-.133-.733-.25-1.134-.353l-.247.97c.37.094.713.2 1.032.32l.35-.937zm-1.123-.35a14.068 14.068 0 00-.962-.23l-.201.979c.32.066.617.137.893.214l.27-.962zM95.85.335c-.6-.067-1.244-.12-1.931-.158l-.055.999c.67.037 1.295.088 1.875.153l.111-.994zM91.992.11a61.583 61.583 0 00-.963-.007v1c.323 0 .639.002.947.007l.016-1zm-.963-.007h-1.161v1h1.161v-1zm-3.485 0h-2.323v1h2.323v-1zm-4.646 0h-2.323v1h2.323v-1zm-4.646 0H77.09v1h1.162v-1zm12.777 13.992h-1.418v1h1.418v-1zm-4.253 0h-1.418v1h1.418v-1zm-.918.5v-1.014h-1v1.014h1zm0-3.04V9.526h-1v2.027h1zm0-4.055V6.486h-1V7.5h1zm-.5-.514h1.378v-1h-1.378v1zm4.134 0h1.378v-1h-1.378v1zm1.378 0c.268 0 .522.003.76.01l.027-1c-.248-.007-.51-.01-.787-.01v1zm2.25.114c.28.037.509.082.69.133l.268-.964a6.137 6.137 0 00-.827-.16l-.131.991zm.697.135c.124.032.235.069.335.108l.37-.929a3.915 3.915 0 00-.45-.147l-.255.968zm.855.431a.83.83 0 01.15.21l.894-.448a1.83 1.83 0 00-.328-.46l-.717.698zm.158.225c.045.083.088.189.126.324l.963-.268a2.534 2.534 0 00-.211-.534l-.878.478zm.245 1.13c.008.135.012.28.012.433h1a7.66 7.66 0 00-.014-.49l-.998.057zm.012.433v.424h1v-.424h-1zm0 1.272v.424h1v-.424h-1zm0 .424c0 .18-.005.351-.015.512l.998.061a9.31 9.31 0 00.017-.573h-1zm-.162 1.48c-.045.162-.098.3-.156.416l.894.448c.092-.183.166-.383.225-.598l-.963-.267zm-.163.43a1.06 1.06 0 01-.152.24l.766.643c.118-.141.217-.296.294-.463l-.908-.42zm-.651.611a2.631 2.631 0 01-.325.132l.316.948c.158-.052.308-.113.449-.182l-.44-.898zm-.325.132c-.174.057-.386.11-.64.152l.167.986c.291-.05.555-.112.79-.19l-.317-.948zm-2.039.28c-.225.008-.465.012-.718.012v1c.264 0 .515-.004.754-.013l-.036-1zm-.506 14.534h-1.47v1h1.47v-1zm-4.412 0h-1.47v1h1.47v-1zm-.97.5v-1.146h-1v1.146h1zm0-3.438v-2.293h-1v2.293h1zm0-4.585v-1.146h-1v1.146h1zm-.5-.646h.874v-1h-.875v1zm2.623 0h1.749v-1h-1.75v1zm3.498 0h.874v-1h-.874v1zm.874 0c.309 0 .597.01.865.028l.069-.997c-.294-.02-.605-.031-.934-.031v1zm2.489.331c.274.101.482.22.636.348l.64-.768a3.138 3.138 0 00-.93-.518l-.346.938zm.646.356c.15.118.278.26.387.43l.842-.54a2.733 2.733 0 00-.61-.674l-.619.784zm.777 1.628c.027.21.04.437.04.683h1a6.49 6.49 0 00-.047-.807l-.993.124zm.04.683v.689h1v-.689h-1zm0 2.067v.689h1v-.689h-1zm0 .689c0 .207-.02.395-.057.564l.976.217c.055-.249.081-.51.081-.781h-1zm-.564 1.47a2.134 2.134 0 01-.446.316l.476.88c.243-.132.462-.287.654-.467l-.684-.73zm-.446.316a3.92 3.92 0 01-.909.334l.243.97a4.905 4.905 0 001.142-.424l-.476-.88zm-2.983.604a21.82 21.82 0 01-1.072.025v1c.394 0 .768-.009 1.121-.026l-.05-.999zM77.09.603v-1h-1v1h1zm21.518.742l-.27.963.012.003.011.003.247-.969zm3.816 2.279l-.819.573.004.007.005.007.81-.587zm-.053 11.289l-.737-.676-.008.009-.007.008.752.659zm-2.65 1.749l-.296-.955-.704.218v.737h1zm0 .265h-1v.9l.895.095.105-.995zm3.657 1.749l-.683.73.012.012.013.01.658-.752zm-1.643 14.575l-.464-.886.464.886zM77.09 35h-1v1h1v-1zm16.854-20.723l-.316-.949.316.949zm1.272-1.007l-.894-.447-.007.014-.007.014.908.419zm.053-5.618l-.894.447.008.016.008.016.878-.479zm-1.325-.901l-.268.964.014.003.254-.967zm-8.586-.265v-1h-1v1h1zm0 8.109h-1v1h1v-1zm10.176 13.833l-.476-.88.476.88zm.265-7.685l-.64.768.01.009.01.008.62-.785zm-10.44-.795v-1h-1v1h1zm0 9.169h-1v1h1v-1zM76.09.603v.955h2V.603h-2zm0 2.866V5.38h2V3.47h-2zm0 3.822v1.911h2v-1.91h-2zm0 3.822v1.911h2v-1.91h-2zm0 3.822v1.911h2v-1.91h-2zm0 3.822v1.91h2v-1.91h-2zm0 3.822v1.91h2v-1.91h-2zm0 3.822v1.91h2v-1.91h-2zm0 3.822v1.91h2v-1.91h-2zm0 3.822V35h2v-.956h-2zm1 1.955h.894v-2h-.894v2zm2.683 0h1.789v-2h-1.789v2zm3.578 0h1.788v-2h-1.788v2zm3.577 0h1.789v-2h-1.789v2zm3.578 0h.894v-2h-.894v2zm.894 0c.304 0 .603-.002.898-.007l-.033-2A49.09 49.09 0 0191.4 34v2zm2.698-.071a36.636 36.636 0 001.806-.143l-.21-1.99a33.27 33.27 0 01-1.707.136l.112 1.997zm3.616-.392c.64-.11 1.243-.24 1.81-.39l-.515-1.933c-.503.134-1.047.252-1.634.352l.34 1.971zm3.606-.99c.307-.127.6-.264.879-.41l-.928-1.772c-.222.116-.46.228-.716.334l.765 1.848zm.879-.41a8.18 8.18 0 00.879-.533l-1.146-1.639a6.016 6.016 0 01-.661.4l.928 1.772zm2.401-1.979a6.734 6.734 0 00.999-1.852l-1.885-.67a4.718 4.718 0 01-.702 1.305l1.588 1.217zm1.428-3.849c.031-.323.046-.655.046-.994h-2c0 .28-.012.549-.037.805l1.991.189zm.046-.994V25.99h-2v1.325h2zm0-3.975v-1.325h-2v1.325h2zm0-1.325c0-.41-.05-.812-.15-1.205l-1.938.496c.058.227.088.463.088.709h2zm-1.251-3.293a7.365 7.365 0 00-.786-.799l-1.317 1.506c.22.192.409.385.57.577l1.533-1.284zm-.762-.776a8.447 8.447 0 00-.904-.74l-1.154 1.634c.233.165.464.353.692.566l1.366-1.46zm-3.051-1.783a6.854 6.854 0 00-1.184-.23l-.21 1.989c.288.03.568.084.84.163l.554-1.922zm-.289.764v-.066h-2v.066h2zm0-.199v-.066h-2v.066h2zm-.704.89c.303-.095.597-.21.881-.344l-.856-1.807a4.684 4.684 0 01-.617.24l.592 1.91zm2.452-1.386c.23-.204.448-.424.655-.66l-1.505-1.317a5.458 5.458 0 01-.477.481l1.327 1.496zm.639-.643c.206-.225.393-.457.558-.697l-1.648-1.134a4.436 4.436 0 01-.384.48l1.474 1.35zm1.323-2.414a4.41 4.41 0 00.106-.965h-2c0 .18-.019.357-.058.53l1.952.435zm.106-.965v-1.06h-2v1.06h2zm0-3.18V7.97h-2v1.06h2zm0-1.06c0-.427-.018-.837-.055-1.231l-1.991.186c.03.326.046.674.046 1.045h2zm-.639-3.735c-.18-.432-.4-.833-.664-1.198l-1.62 1.174c.165.228.312.49.437.792l1.847-.768zm-.655-1.184a5.42 5.42 0 00-.936-1.023l-1.296 1.523c.237.202.434.418.594.646l1.638-1.146zM100.041.744a11.53 11.53 0 00-1.186-.368l-.494 1.938a9.5 9.5 0 01.981.304l.699-1.874zM98.878.382a14.563 14.563 0 00-.996-.24l-.403 1.96c.31.063.596.132.86.206l.539-1.926zm-2.972-.545a34.757 34.757 0 00-1.96-.16l-.11 1.997c.663.037 1.278.087 1.847.15l.223-1.987zM91.999-.39a62.06 62.06 0 00-.97-.007v2c.32 0 .634.002.94.007l.03-2zm-.97-.007h-1.161v2h1.161v-2zm-3.485 0h-2.323v2h2.323v-2zm-4.646 0h-2.323v2h2.323v-2zm-4.646 0H77.09v2h1.162v-2zm12.777 13.992h-1.418v2h1.418v-2zm-4.253 0h-1.418v2h1.418v-2zm-.418 1v-1.014h-2v1.014h2zm0-3.04V9.526h-2v2.027h2zm0-4.055V6.486h-2V7.5h2zm-1-.014h1.378v-2h-1.378v2zm4.134 0h1.378v-2h-1.378v2zm1.378 0a25 25 0 01.746.01l.054-2c-.253-.007-.52-.01-.8-.01v2zm2.184.11c.265.035.47.076.622.119l.536-1.928a6.624 6.624 0 00-.895-.174l-.263 1.983zm.636.122c.106.028.198.059.277.09l.74-1.858a4.416 4.416 0 00-.508-.166l-.51 1.934zm.623.297a.32.32 0 01.062.084l1.788-.894a2.33 2.33 0 00-.417-.585l-1.433 1.395zm.078.116c.023.042.053.112.083.218l1.927-.537a3.035 3.035 0 00-.254-.639l-1.756.958zm.185.92c.007.123.011.258.011.403h2c0-.18-.005-.353-.014-.52l-1.997.116zm.011.403v.424h2v-.424h-2zm0 1.272v.424h2v-.424h-2zm0 .424c0 .171-.005.332-.014.481l1.996.123c.012-.194.018-.396.018-.604h-2zm-.144 1.346c-.038.136-.08.244-.121.327l1.788.894c.109-.216.194-.447.26-.687l-1.927-.534zm-.135.355a.561.561 0 01-.08.127l1.53 1.287c.148-.176.27-.368.366-.576l-1.816-.838zm-.417.371a2.121 2.121 0 01-.263.106l.632 1.898a4.14 4.14 0 00.51-.208l-.88-1.796zm-.263.106c-.144.048-.33.094-.566.134l.334 1.972c.31-.052.6-.12.864-.208l-.632-1.898zm-1.899.255c-.219.008-.452.012-.7.012v2c.27 0 .526-.004.772-.013l-.072-1.999zm-.488 14.534h-1.47v2h1.47v-2zm-4.412 0h-1.47v2h1.47v-2zm-.47 1v-1.146h-2v1.146h2zm0-3.438v-2.293h-2v2.293h2zm0-4.585v-1.146h-2v1.146h2zm-1-.146h.874v-2h-.875v2zm2.623 0h1.749v-2h-1.75v2zm3.498 0h.874v-2h-.874v2zm.874 0c.299 0 .575.01.83.027l.139-1.995c-.307-.022-.63-.032-.969-.032v2zm2.316.3c.233.086.388.18.489.263l1.28-1.536a3.634 3.634 0 00-1.077-.603l-.692 1.876zm.51.28c.103.082.195.182.275.307l1.683-1.08a3.233 3.233 0 00-.72-.797l-1.239 1.57zm.59 1.297c.023.186.036.393.036.621h2c0-.3-.016-.59-.051-.87l-1.985.249zm.036.621v.689h2v-.689h-2zm0 2.067v.689h2v-.689h-2zm0 .689c0 .175-.017.326-.046.455l1.953.434a4.09 4.09 0 00.093-.889h-2zm-.406 1.105c-.089.083-.2.165-.342.242l.952 1.758c.277-.15.532-.329.758-.54l-1.368-1.46zm-.342.242c-.186.1-.445.2-.792.288l.485 1.94a5.4 5.4 0 001.26-.47l-.953-1.758zm-2.77.544c-.325.016-.674.024-1.047.024v2c.401 0 .783-.009 1.146-.027l-.099-1.997zM113.383.603v-.5h-.5v.5h.5zm26.235 0h.5v-.5h-.5v.5zm0 5.883v.5h.5v-.5h-.5zm-17.967 0v-.5h-.5v.5h.5zm0 7.897h-.5v.5h.5v-.5zm16.218 0h.5v-.5h-.5v.5zm0 5.883v.5h.5v-.5h-.5zm-16.218 0v-.5h-.5v.5h.5zm0 8.851h-.5v.5h.5v-.5zm18.497 0h.5v-.5h-.5v.5zm0 5.883v.5h.5V35h-.5zm-26.765 0h-.5v.5h.5V35zm-.5-34.397v.955h1V.603h-1zm0 2.866V5.38h1V3.47h-1zm0 3.822v1.911h1v-1.91h-1zm0 3.822v1.911h1v-1.91h-1zm0 3.822v1.911h1v-1.91h-1zm0 3.822v1.91h1v-1.91h-1zm0 3.822v1.91h1v-1.91h-1zm0 3.822v1.91h1v-1.91h-1zm0 3.822v1.91h1v-1.91h-1zm0 3.822V35h1v-.956h-1zm.5 1.455h.956v-1h-.956v1zm2.867 0h1.912v-1h-1.912v1zm3.824 0h1.912v-1h-1.912v1zm3.823 0h1.912v-1h-1.912v1zm3.824 0h1.912v-1h-1.912v1zm3.824 0h1.911v-1h-1.911v1zm3.823 0h1.912v-1h-1.912v1zm3.824 0h.956v-1h-.956v1zm1.456-.5v-1.47h-1V35h1zm0-4.412v-1.471h-1v1.47h1zm-.5-1.971h-.925v1h.925v-1zm-2.775 0h-1.85v1h1.85v-1zm-3.699 0h-1.85v1h1.85v-1zm-3.7 0h-1.849v1h1.849v-1zm-3.699 0h-1.85v1h1.85v-1zm-3.699 0h-.925v1h.925v-1zm-.425.5v-1.106h-1v1.106h1zm0-3.32v-2.212h-1v2.213h1zm0-4.425v-1.106h-1v1.106h1zm-.5-.606h1.013v-1h-1.013v1zm3.041 0h2.027v-1h-2.027v1zm4.054 0h2.027v-1h-2.027v1zm4.055 0h2.027v-1h-2.027v1zm4.054 0h1.014v-1h-1.014v1zm1.514-.5v-1.47h-1v1.47h1zm0-4.412v-1.471h-1v1.47h1zm-.5-1.971h-1.014v1h1.014v-1zm-3.041 0h-2.027v1h2.027v-1zm-4.055 0h-2.027v1h2.027v-1zm-4.054 0h-2.027v1h2.027v-1zm-4.055 0h-1.013v1h1.013v-1zm-.513.5v-.987h-1v.987h1zm0-2.961V9.447h-1v1.975h1zm0-3.949v-.987h-1v.987h1zm-.5-.487h1.123v-1h-1.123v1zm3.368 0h2.246v-1h-2.246v1zm4.492 0h2.246v-1h-2.246v1zm4.492 0h2.246v-1h-2.246v1zm4.492 0h1.123v-1h-1.123v1zm1.623-.5v-1.47h-1v1.47h1zm0-4.412V.603h-1v1.47h1zm-.5-1.971h-.937v1h.937v-1zm-2.811 0h-1.874v1h1.874v-1zm-3.748 0h-1.874v1h1.874v-1zm-3.748 0h-1.874v1h1.874v-1zm-3.748 0h-1.874v1h1.874v-1zm-3.748 0h-1.874v1h1.874v-1zm-3.748 0h-1.873v1h1.873v-1zm-3.747 0h-.937v1h.937v-1zm-.937.5v-1h-1v1h1zm26.235 0h1v-1h-1v1zm0 5.883v1h1v-1h-1zm-17.967 0v-1h-1v1h1zm0 7.897h-1v1h1v-1zm16.218 0h1v-1h-1v1zm0 5.883v1h1v-1h-1zm-16.218 0v-1h-1v1h1zm0 8.851h-1v1h1v-1zm18.497 0h1v-1h-1v1zm0 5.883v1h1v-1h-1zm-26.765 0h-1v1h1v-1zm-1-34.397v.955h2V.603h-2zm0 2.866V5.38h2V3.47h-2zm0 3.822v1.911h2v-1.91h-2zm0 3.822v1.911h2v-1.91h-2zm0 3.822v1.911h2v-1.91h-2zm0 3.822v1.91h2v-1.91h-2zm0 3.822v1.91h2v-1.91h-2zm0 3.822v1.91h2v-1.91h-2zm0 3.822v1.91h2v-1.91h-2zm0 3.822V35h2v-.956h-2zm1 1.955h.956v-2h-.956v2zm2.867 0h1.912v-2h-1.912v2zm3.824 0h1.912v-2h-1.912v2zm3.823 0h1.912v-2h-1.912v2zm3.824 0h1.912v-2h-1.912v2zm3.824 0h1.911v-2h-1.911v2zm3.823 0h1.912v-2h-1.912v2zm3.824 0h.956v-2h-.956v2zm1.956-1v-1.47h-2V35h2zm0-4.412v-1.471h-2v1.47h2zm-1-2.471h-.925v2h.925v-2zm-2.775 0h-1.85v2h1.85v-2zm-3.699 0h-1.85v2h1.85v-2zm-3.7 0h-1.849v2h1.849v-2zm-3.699 0h-1.85v2h1.85v-2zm-3.699 0h-.925v2h.925v-2zm.075 1v-1.106h-2v1.106h2zm0-3.32v-2.212h-2v2.213h2zm0-4.425v-1.106h-2v1.106h2zm-1-.106h1.013v-2h-1.013v2zm3.041 0h2.027v-2h-2.027v2zm4.054 0h2.027v-2h-2.027v2zm4.055 0h2.027v-2h-2.027v2zm4.054 0h1.014v-2h-1.014v2zm2.014-1v-1.47h-2v1.47h2zm0-4.412v-1.471h-2v1.47h2zm-1-2.471h-1.014v2h1.014v-2zm-3.041 0h-2.027v2h2.027v-2zm-4.055 0h-2.027v2h2.027v-2zm-4.054 0h-2.027v2h2.027v-2zm-4.055 0h-1.013v2h1.013v-2zm-.013 1v-.987h-2v.987h2zm0-2.961V9.447h-2v1.975h2zm0-3.949v-.987h-2v.987h2zm-1 .013h1.123v-2h-1.123v2zm3.368 0h2.246v-2h-2.246v2zm4.492 0h2.246v-2h-2.246v2zm4.492 0h2.246v-2h-2.246v2zm4.492 0h1.123v-2h-1.123v2zm2.123-1v-1.47h-2v1.47h2zm0-4.412V.603h-2v1.47h2zm-1-2.471h-.937v2h.937v-2zm-2.811 0h-1.874v2h1.874v-2zm-3.748 0h-1.874v2h1.874v-2zm-3.748 0h-1.874v2h1.874v-2zm-3.748 0h-1.874v2h1.874v-2zm-3.748 0h-1.874v2h1.874v-2zm-3.748 0h-1.873v2h1.873v-2zm-3.747 0h-.937v2h.937v-2zm53.83 22.253h.5v-.855l-.745.42.245.435zm-17.49.159l-.304.397.008.006.296-.403zM147.692.603v-.5h-.5v.5h.5zm8.162 0h.5v-.5h-.5v.5zm1.219 16.536l-.297.402.01.007.01.007.277-.416zm7.632.159l-.154-.475.154.475zm3.445-1.749l.313.39.187-.15v-.24h-.5zm0-14.946v-.5h-.5v.5h.5zm8.268 0h.5v-.5h-.5v.5zm0 34.397v.5h.5V35h-.5zm-8.268 0h-.5v.5h.5V35zm-.245-13.58c-.246.139-.496.27-.751.397l.443.896c.271-.134.537-.274.798-.421l-.49-.872zm-2.313 1.072c-.524.196-1.066.369-1.623.519l.259.966a19.039 19.039 0 001.714-.548l-.35-.937zm-3.292.89c-.551.098-1.117.177-1.697.235l.099.995a23.23 23.23 0 001.774-.245l-.176-.985zm-3.412.346c-.283.009-.57.013-.861.013v1c.301 0 .598-.005.892-.014l-.031-1zm-.861.013c-.322 0-.638-.01-.948-.028l-.061.998c.331.02.668.03 1.009.03v-1zm-2.818-.27a11.395 11.395 0 01-1.8-.52l-.357.933c.624.24 1.277.428 1.957.566l.2-.98zm-3.476-1.34a9.97 9.97 0 01-.776-.518l-.593.805c.275.203.559.392.85.569l.519-.855zm-.768-.513a5.923 5.923 0 01-.729-.661l-.731.682c.262.28.545.538.851.773l.609-.794zm-1.831-2.3a8.868 8.868 0 01-.64-1.913l-.977.215c.17.773.407 1.483.715 2.128l.902-.43zm-.912-3.95a17.4 17.4 0 01-.03-1.038h-1c0 .376.011.742.032 1.098l.998-.06zm-.03-1.038v-1.144h-1v1.144h1zm0-3.432V8.61h-1v2.288h1zm0-4.575V4.035h-1v2.288h1zm0-4.576V.603h-1v1.144h1zm-.5-.644h1.021v-1h-1.021v1zm3.061 0h2.041v-1h-2.041v1zm4.081 0h1.02v-1h-1.02v1zm.52-.5v1.09h1V.604h-1zm0 3.273v2.182h1V3.876h-1zm0 4.363v2.182h1V8.24h-1zm0 4.364v1.091h1v-1.09h-1zm0 1.091c0 .352.017.686.051 1l.994-.109a8.456 8.456 0 01-.045-.891h-1zm.663 3.004a2.9 2.9 0 00.759.843l.594-.804a1.92 1.92 0 01-.498-.557l-.855.518zm.779.857a5 5 0 00.844.45l.384-.924a3.941 3.941 0 01-.673-.358l-.555.832zm2.653.887c.292.03.596.045.91.045v-1a7.71 7.71 0 01-.808-.04l-.102.995zm.91.045c.383 0 .764-.015 1.143-.044l-.078-.997a13.96 13.96 0 01-1.065.041v1zm3.401-.402c.369-.09.736-.193 1.1-.312l-.309-.95c-.34.11-.682.207-1.026.29l.235.972zm1.1-.312c.327-.106.642-.22.944-.34l-.37-.928c-.28.111-.575.217-.883.318l.309.95zm2.76-1.24c.3-.187.582-.385.843-.594l-.625-.78a7.66 7.66 0 01-.745.523l.527.85zm1.03-.984v-.934h-1v.934h1zm0-2.802v-1.869h-1v1.869h1zm0-3.737V7.142h-1V9.01h1zm0-3.736V3.405h-1v1.869h1zm0-3.737V.603h-1v.934h1zm-.5-.434h1.034v-1h-1.034v1zm3.101 0h2.067v-1h-2.067v1zm4.134 0h1.033v-1h-1.033v1zm.533-.5v.955h1V.603h-1zm0 2.866V5.38h1V3.47h-1zm0 3.822v1.911h1v-1.91h-1zm0 3.822v1.911h1v-1.91h-1zm0 3.822v1.911h1v-1.91h-1zm0 3.822v1.91h1v-1.91h-1zm0 3.822v1.91h1v-1.91h-1zm0 3.822v1.91h1v-1.91h-1zm0 3.822v1.91h1v-1.91h-1zm0 3.822V35h1v-.956h-1zm.5.455h-1.033v1h1.033v-1zm-3.1 0h-2.067v1h2.067v-1zm-4.134 0h-1.034v1h1.034v-1zm-.534.5v-1.095h-1V35h1zm0-3.286v-2.19h-1v2.19h1zm0-4.381v-2.191h-1v2.19h1zm0-4.382v-1.095h-1v1.095h1zm-.5-1.095h1v-1.71l-1.49.838.49.872zm-17.49.159l-.609.793.008.006.008.006.593-.805zM147.692.603v-1h-1v1h1zm8.162 0h1v-1h-1v1zm1.219 16.536l-.594.804.019.015.021.013.554-.832zm7.632.159l-.309-.951.309.951zm3.445-1.749l.625.78.375-.3v-.48h-1zm0-14.946v-1h-1v1h1zm8.268 0h1v-1h-1v1zm0 34.397v1h1v-1h-1zm-8.268 0h-1v1h1v-1zm-.49-14.016c-.238.134-.481.263-.728.385l.887 1.792c.278-.137.552-.282.822-.433l-.981-1.744zm-2.243 1.04a17.45 17.45 0 01-1.578.504l.519 1.931a19.37 19.37 0 001.759-.562l-.7-1.874zm-3.204.866c-.538.096-1.092.172-1.66.23l.199 1.99a23.765 23.765 0 001.812-.251l-.351-1.97zm-3.34.338a26.25 26.25 0 01-.846.013v2c.306 0 .608-.005.908-.014l-.062-1.999zm-.846.013c-.312 0-.618-.01-.918-.027l-.121 1.996c.341.02.688.031 1.039.031v-2zm-2.718-.26a10.865 10.865 0 01-1.721-.498l-.715 1.868c.651.25 1.33.445 2.036.59l.4-1.96zm-3.317-1.277a9.879 9.879 0 01-.739-.494l-1.186 1.61c.288.212.584.41.888.595l1.037-1.711zm-.723-.482a5.42 5.42 0 01-.667-.606l-1.463 1.364c.281.3.585.577.912.828l1.218-1.586zm-1.683-2.119a8.361 8.361 0 01-.604-1.805l-1.953.43c.177.804.426 1.551.751 2.235l1.806-.86zm-.865-3.764c-.019-.325-.029-.66-.029-1.009h-2c0 .385.011.761.033 1.127l1.996-.118zm-.029-1.009v-1.144h-2v1.144h2zm0-3.432V8.61h-2v2.288h2zm0-4.575V4.035h-2v2.288h2zm0-4.576V.603h-2v1.144h2zm-1-.144h1.021v-2h-1.021v2zm3.061 0h2.041v-2h-2.041v2zm4.081 0h1.02v-2h-1.02v2zm.02-1v1.09h2V.604h-2zm0 3.273v2.182h2V3.876h-2zm0 4.363v2.182h2V8.24h-2zm0 4.364v1.091h2v-1.09h-2zm0 1.091c0 .368.018.72.054 1.054l1.988-.217a7.903 7.903 0 01-.042-.837h-2zm.735 3.263c.234.386.53.72.89.986l1.189-1.608a1.416 1.416 0 01-.368-.414l-1.711 1.036zm.93 1.014c.29.194.6.358.929.495l.768-1.847a3.424 3.424 0 01-.588-.312l-1.109 1.664zm2.879.969c.311.032.631.047.961.047v-2c-.267 0-.52-.012-.758-.037l-.203 1.99zm.961.047c.396 0 .79-.015 1.182-.046l-.156-1.994c-.34.027-.681.04-1.026.04v2zm3.518-.416c.382-.092.761-.2 1.137-.322l-.618-1.902c-.327.106-.657.2-.988.28l.469 1.944zm1.137-.322c.337-.11.662-.226.975-.35l-.74-1.859c-.27.108-.554.21-.853.307l.618 1.902zm2.869-1.292c.317-.196.614-.405.892-.627l-1.249-1.562a7.12 7.12 0 01-.696.489l1.053 1.7zm1.267-1.408v-.934h-2v.934h2zm0-2.802v-1.869h-2v1.869h2zm0-3.737V7.142h-2V9.01h2zm0-3.736V3.405h-2v1.869h2zm0-3.737V.603h-2v.934h2zm-1 .066h1.034v-2h-1.034v2zm3.101 0h2.067v-2h-2.067v2zm4.134 0h1.033v-2h-1.033v2zm.033-1v.955h2V.603h-2zm0 2.866V5.38h2V3.47h-2zm0 3.822v1.911h2v-1.91h-2zm0 3.822v1.911h2v-1.91h-2zm0 3.822v1.911h2v-1.91h-2zm0 3.822v1.91h2v-1.91h-2zm0 3.822v1.91h2v-1.91h-2zm0 3.822v1.91h2v-1.91h-2zm0 3.822v1.91h2v-1.91h-2zm0 3.822V35h2v-.956h-2zm1-.045h-1.033v2h1.033v-2zm-3.1 0h-2.067v2h2.067v-2zm-4.134 0h-1.034v2h1.034v-2zm-.034 1v-1.095h-2V35h2zm0-3.286v-2.19h-2v2.19h2zm0-4.381v-2.191h-2v2.19h2zm0-4.382v-1.095h-2v1.095h2zM195.601.603v-.5h-.348l-.121.327.469.173zm10.07 0l.471-.17-.119-.33h-.352v.5zM218.073 35v.5h.712l-.241-.67-.471.17zm-8.374 0l-.473.16.115.34h.358V35zm-3.074-9.063l.474-.16-.115-.34h-.359v.5zm-12.561 0v-.5h-.36l-.114.342.474.158zM191.043 35v.5h.361l.114-.342-.475-.158zm-8.162 0l-.469-.173-.249.673h.718V35zm21.942-14.575v.5h.696l-.222-.66-.474.16zm-4.346-12.932l.474-.16-.114-.34h-.36v.5zm-.212 0v-.5h-.359l-.115.34.474.16zm-4.346 12.932l-.474-.16-.221.66h.695v-.5zM195.132.43l-.353.955.938.347.353-.956-.938-.346zm-1.06 2.866l-.706 1.91.938.348.706-1.911-.938-.347zm-1.413 3.822l-.707 1.91.938.348.707-1.911-.938-.347zm-1.413 3.822l-.707 1.91.938.348.707-1.911-.938-.347zm-1.414 3.822l-.706 1.91.938.348.706-1.912-.938-.346zm-1.413 3.822l-.707 1.91.938.347.707-1.91-.938-.347zm-1.413 3.821l-.707 1.911.938.347.707-1.91-.938-.348zm-1.414 3.822l-.706 1.911.938.347.706-1.91-.938-.348zm-1.413 3.822l-.707 1.911.938.347.707-1.91-.938-.348zm-1.413 3.822l-.354.956.938.346.354-.955-.938-.347zm.115 1.629h1.021v-1h-1.021v1zm3.061 0h2.041v-1h-2.041v1zm4.081 0h1.02v-1h-1.02v1zm1.495-.342l.377-1.133-.948-.316-.378 1.133.949.316zm1.133-3.399l.755-2.265-.949-.317-.755 2.266.949.316zm1.51-4.531l.378-1.133-.949-.316-.378 1.133.949.316zm-.097-.791h1.047v-1h-1.047v1zm3.141 0h2.093v-1h-2.093v1zm4.187 0h2.093v-1h-2.093v1zm4.187 0h1.046v-1h-1.046v1zm.573-.34l.384 1.133.947-.32-.384-1.134-.947.322zm1.153 3.4l.768 2.265.947-.321-.768-2.266-.947.321zm1.537 4.53l.384 1.134.947-.322-.384-1.133-.947.322zm.857 1.473h1.047v-1h-1.047v1zm3.141 0h2.093v-1h-2.093v1zm4.187 0h1.046v-1h-1.046v1zm1.517-.67l-.345-.955-.94.34.344.955.941-.34zm-1.034-2.866l-.689-1.911-.94.34.689 1.91.94-.339zm-1.378-3.822l-.689-1.91-.94.338.689 1.911.94-.339zm-1.378-3.822l-.689-1.91-.94.338.689 1.911.94-.339zm-1.378-3.822l-.689-1.91-.94.339.689 1.91.94-.339zm-1.378-3.822l-.689-1.91-.94.339.689 1.91.94-.339zm-1.378-3.821l-.689-1.911-.94.339.689 1.91.94-.338zm-1.378-3.822l-.689-1.911-.94.339.689 1.91.94-.338zm-1.378-3.822l-.689-1.911-.94.339.689 1.911.94-.34zm-1.378-3.822l-.344-.956-.941.34.345.955.94-.34zm-.815-1.286h-.839v1h.839v-1zm-2.517 0h-1.678v1h1.678v-1zm-3.357 0h-1.678v1h1.678v-1zm-3.356 0h-.84v1h.84v-1zm8.382 19.822h-1.113v1h1.113v-1zm-3.339 0h-2.226v1h2.226v-1zm-4.452 0h-1.113v1h1.113v-1zm-.639.66l.363-1.078-.948-.319-.363 1.078.948.318zm1.087-3.234l.724-2.155-.948-.319-.724 2.156.948.318zm1.449-4.31l.724-2.156-.948-.318-.724 2.155.948.319zm1.448-4.311l.362-1.078-.948-.318-.362 1.077.948.319zm-.112-.737h.053v-1h-.053v1zm.159 0h.053v-1h-.053v1zm-.421-.34l.363 1.077.948-.319-.363-1.077-.948.318zm1.087 3.232l.724 2.156.948-.319-.724-2.155-.948.318zm1.449 4.31l.724 2.156.948-.318-.724-2.156-.948.319zm1.448 4.312l.362 1.077.948-.318-.362-1.078-.948.319zM195.601.603v-1h-.696l-.242.653.938.347zm10.07 0l.941-.34-.238-.66h-.703v1zM218.073 35v1h1.424l-.483-1.34-.941.34zm-8.374 0l-.947.321.231.679h.716v-1zm-3.074-9.063l.947-.321-.23-.679h-.717v1zm-12.561 0v-1h-.72l-.228.684.948.316zM191.043 35v1h.721l.228-.684-.949-.316zm-8.162 0l-.938-.347-.498 1.347h1.436v-1zm21.942-14.575v1h1.391l-.443-1.319-.948.319zm-4.346-12.932l.948-.319-.229-.681h-.719v1zm-.212 0v-1h-.719l-.229.681.948.319zm-4.346 12.932l-.948-.319-.443 1.319h1.391v-1zM194.663.256l-.353.956 1.876.693.353-.955-1.876-.694zm-1.06 2.867l-.706 1.91 1.876.694.706-1.91-1.876-.694zm-1.413 3.821l-.707 1.911 1.876.694.707-1.91-1.876-.695zm-1.413 3.822l-.707 1.911 1.876.694.707-1.911-1.876-.694zm-1.414 3.822l-.706 1.911 1.876.694.706-1.911-1.876-.694zm-1.413 3.822l-.707 1.911 1.876.694.707-1.911-1.876-.694zm-1.413 3.822l-.707 1.911 1.876.694.707-1.911-1.876-.694zm-1.414 3.822l-.706 1.91 1.876.695.706-1.911-1.876-.694zm-1.413 3.822l-.707 1.91 1.876.694.707-1.91-1.876-.694zm-1.413 3.822l-.354.955 1.876.694.354-.956-1.876-.693zm.584 2.302h1.021v-2h-1.021v2zm3.061 0h2.041v-2h-2.041v2zm4.081 0h1.02v-2h-1.02v2zm1.969-.684l.378-1.133-1.898-.632-.377 1.133 1.897.632zm1.133-3.398l.755-2.266-1.897-.633-.755 2.266 1.897.633zm1.51-4.532l.378-1.133-1.897-.632-.378 1.133 1.897.632zm-.571-.449h1.047v-2h-1.047v2zm3.141 0h2.093v-2h-2.093v2zm4.187 0h2.093v-2h-2.093v2zm4.187 0h1.046v-2h-1.046v2zm.099-.679l.385 1.133 1.894-.642-.385-1.133-1.894.642zm1.153 3.399l.769 2.266 1.894-.643-.769-2.266-1.894.643zm1.537 4.531l.384 1.133 1.894-.642-.384-1.133-1.894.642zM209.699 36h1.047v-2h-1.047v2zm3.141 0h2.093v-2h-2.093v2zm4.187 0h1.046v-2h-1.046v2zm1.987-1.34l-.344-.955-1.882.679.345.955 1.881-.678zm-1.033-2.866l-.689-1.91-1.882.678.689 1.91 1.882-.678zm-1.378-3.822l-.689-1.91-1.882.678.689 1.91 1.882-.677zm-1.378-3.821l-.689-1.911-1.882.678.689 1.911 1.882-.678zm-1.378-3.822l-.689-1.911-1.882.678.689 1.911 1.882-.678zm-1.378-3.822l-.689-1.911-1.882.678.689 1.911 1.882-.678zm-1.378-3.822l-.689-1.911-1.882.678.689 1.911 1.882-.678zm-1.378-3.822l-.689-1.91-1.882.677.689 1.911 1.882-.678zm-1.378-3.822l-.689-1.91-1.882.678.689 1.91 1.882-.678zm-1.378-3.822l-.345-.955-1.881.678.344.956 1.882-.679zm-1.286-1.616h-.839v2h.839v-2zm-2.517 0h-1.678v2h1.678v-2zm-3.357 0h-1.678v2h1.678v-2zm-3.356 0h-.84v2h.84v-2zm8.382 19.822h-1.113v2h1.113v-2zm-3.339 0h-2.226v2h2.226v-2zm-4.452 0h-1.113v2h1.113v-2zm-.165 1.319l.362-1.078-1.895-.637-.363 1.077 1.896.638zm1.087-3.233l.724-2.156-1.896-.637-.724 2.155 1.896.638zm1.448-4.311l.725-2.155-1.896-.638-.724 2.156 1.895.637zm1.449-4.31l.362-1.078-1.896-.638-.362 1.078 1.896.637zm-.586-.397h.053v-2h-.053v2zm.159 0h.053v-2h-.053v2zm-.895-.681l.363 1.077 1.895-.637-.362-1.078-1.896.638zm1.087 3.233l.724 2.155 1.896-.637-.724-2.156-1.896.638zm1.449 4.31l.724 2.156 1.896-.638-.725-2.155-1.895.637zm1.448 4.31l.362 1.079 1.896-.638-.362-1.077-1.896.637zM224.538.604v-.5h-.5v.5h.5zm26.235 0h.5v-.5h-.5v.5zm0 5.883v.5h.5v-.5h-.5zm-17.967 0v-.5h-.5v.5h.5zm0 7.897h-.5v.5h.5v-.5zm16.218 0h.5v-.5h-.5v.5zm0 5.883v.5h.5v-.5h-.5zm-16.218 0v-.5h-.5v.5h.5zm0 8.851h-.5v.5h.5v-.5zm18.497 0h.5v-.5h-.5v.5zm0 5.883v.5h.5V35h-.5zm-26.765 0h-.5v.5h.5V35zm-.5-34.397v.955h1V.603h-1zm0 2.866v1.91h1V3.47h-1zm0 3.822v1.911h1v-1.91h-1zm0 3.822v1.911h1v-1.91h-1zm0 3.822v1.911h1v-1.91h-1zm0 3.822v1.91h1v-1.91h-1zm0 3.822v1.91h1v-1.91h-1zm0 3.822v1.91h1v-1.91h-1zm0 3.822v1.91h1v-1.91h-1zm0 3.822V35h1v-.956h-1zm.5 1.455h.956v-1h-.956v1zm2.867 0h1.912v-1h-1.912v1zm3.824 0h1.912v-1h-1.912v1zm3.824 0h1.911v-1h-1.911v1zm3.823 0h1.912v-1h-1.912v1zm3.824 0h1.911v-1H242.7v1zm3.823 0h1.912v-1h-1.912v1zm3.824 0h.956v-1h-.956v1zm1.456-.5v-1.47h-1V35h1zm0-4.412v-1.471h-1v1.47h1zm-.5-1.971h-.925v1h.925v-1zm-2.775 0h-1.85v1h1.85v-1zm-3.699 0h-1.85v1h1.85v-1zm-3.7 0h-1.849v1h1.849v-1zm-3.699 0h-1.85v1h1.85v-1zm-3.699 0h-.925v1h.925v-1zm-.425.5v-1.106h-1v1.106h1zm0-3.32v-2.212h-1v2.213h1zm0-4.425v-1.106h-1v1.106h1zm-.5-.606h1.013v-1h-1.013v1zm3.041 0h2.027v-1h-2.027v1zm4.054 0h2.027v-1h-2.027v1zm4.055 0h2.027v-1h-2.027v1zm4.054 0h1.014v-1h-1.014v1zm1.514-.5v-1.47h-1v1.47h1zm0-4.412v-1.471h-1v1.47h1zm-.5-1.971h-1.014v1h1.014v-1zm-3.041 0h-2.027v1h2.027v-1zm-4.055 0h-2.027v1h2.027v-1zm-4.054 0h-2.027v1h2.027v-1zm-4.055 0h-1.013v1h1.013v-1zm-.513.5v-.987h-1v.987h1zm0-2.961V9.447h-1v1.975h1zm0-3.949v-.987h-1v.987h1zm-.5-.487h1.123v-1h-1.123v1zm3.369 0h2.245v-1h-2.245v1zm4.491 0h2.246v-1h-2.246v1zm4.492 0h2.246v-1h-2.246v1zm4.492 0h1.123v-1h-1.123v1zm1.623-.5v-1.47h-1v1.47h1zm0-4.412V.603h-1v1.47h1zm-.5-1.971h-.937v1h.937v-1zm-2.811 0h-1.874v1h1.874v-1zm-3.748 0h-1.874v1h1.874v-1zm-3.748 0h-1.874v1h1.874v-1zm-3.748 0h-1.874v1h1.874v-1zm-3.748 0h-1.874v1h1.874v-1zm-3.747 0h-1.874v1h1.874v-1zm-3.748 0h-.937v1h.937v-1zm-.937.5v-1h-1v1h1zm26.235 0h1v-1h-1v1zm0 5.883v1h1v-1h-1zm-17.967 0v-1h-1v1h1zm0 7.897h-1v1h1v-1zm16.218 0h1v-1h-1v1zm0 5.883v1h1v-1h-1zm-16.218 0v-1h-1v1h1zm0 8.851h-1v1h1v-1zm18.497 0h1v-1h-1v1zm0 5.883v1h1v-1h-1zm-26.765 0h-1v1h1v-1zm-1-34.397v.955h2V.603h-2zm0 2.866v1.91h2V3.47h-2zm0 3.822v1.911h2v-1.91h-2zm0 3.822v1.911h2v-1.91h-2zm0 3.822v1.911h2v-1.91h-2zm0 3.822v1.91h2v-1.91h-2zm0 3.822v1.91h2v-1.91h-2zm0 3.822v1.91h2v-1.91h-2zm0 3.822v1.91h2v-1.91h-2zm0 3.822V35h2v-.956h-2zm1 1.955h.956v-2h-.956v2zm2.867 0h1.912v-2h-1.912v2zm3.824 0h1.912v-2h-1.912v2zm3.824 0h1.911v-2h-1.911v2zm3.823 0h1.912v-2h-1.912v2zm3.824 0h1.911v-2H242.7v2zm3.823 0h1.912v-2h-1.912v2zm3.824 0h.956v-2h-.956v2zm1.956-1v-1.47h-2V35h2zm0-4.412v-1.471h-2v1.47h2zm-1-2.471h-.925v2h.925v-2zm-2.775 0h-1.85v2h1.85v-2zm-3.699 0h-1.85v2h1.85v-2zm-3.7 0h-1.849v2h1.849v-2zm-3.699 0h-1.85v2h1.85v-2zm-3.699 0h-.925v2h.925v-2zm.075 1v-1.106h-2v1.106h2zm0-3.32v-2.212h-2v2.213h2zm0-4.425v-1.106h-2v1.106h2zm-1-.106h1.013v-2h-1.013v2zm3.041 0h2.027v-2h-2.027v2zm4.054 0h2.027v-2h-2.027v2zm4.055 0h2.027v-2h-2.027v2zm4.054 0h1.014v-2h-1.014v2zm2.014-1v-1.47h-2v1.47h2zm0-4.412v-1.471h-2v1.47h2zm-1-2.471h-1.014v2h1.014v-2zm-3.041 0h-2.027v2h2.027v-2zm-4.055 0h-2.027v2h2.027v-2zm-4.054 0h-2.027v2h2.027v-2zm-4.055 0h-1.013v2h1.013v-2zm-.013 1v-.987h-2v.987h2zm0-2.961V9.447h-2v1.975h2zm0-3.949v-.987h-2v.987h2zm-1 .013h1.123v-2h-1.123v2zm3.369 0h2.245v-2h-2.245v2zm4.491 0h2.246v-2h-2.246v2zm4.492 0h2.246v-2h-2.246v2zm4.492 0h1.123v-2h-1.123v2zm2.123-1v-1.47h-2v1.47h2zm0-4.412V.603h-2v1.47h2zm-1-2.471h-.937v2h.937v-2zm-2.811 0h-1.874v2h1.874v-2zm-3.748 0h-1.874v2h1.874v-2zm-3.748 0h-1.874v2h1.874v-2zm-3.748 0h-1.874v2h1.874v-2zm-3.748 0h-1.874v2h1.874v-2zm-3.747 0h-1.874v2h1.874v-2zm-3.748 0h-.937v2h.937v-2zm34.061 1v-.5h-.5v.5h.5zm11.766 0l.473-.163-.116-.337h-.357v.5zm8.48 24.592l-.472.163.475 1.38.471-1.382-.474-.161zM288.156.603v-.5h-.358l-.115.339.473.161zm11.077 0h.5v-.5h-.5v.5zm0 34.397v.5h.5V35h-.5zm-7.473 0h-.5v.5h.5V35zm0-25.44h.5v-.5h-.5v.5zm-.159 0v-.5h-.357l-.116.338.473.162zM282.909 35v.5h.358l.116-.338-.474-.162zm-6.625 0l-.471.166.117.334h.354V35zm-8.957-25.44l.472-.166-.118-.334h-.354v.5zm-.212 0v-.5h-.5v.5h.5zm0 25.44v.5h.5V35h-.5zm-7.579 0h-.5v.5h.5V35zm-.5-34.397v.955h1V.603h-1zm0 2.866V5.38h1V3.47h-1zm0 3.822v1.911h1v-1.91h-1zm0 3.822v1.911h1v-1.91h-1zm0 3.822v1.911h1v-1.91h-1zm0 3.822v1.91h1v-1.91h-1zm0 3.822v1.91h1v-1.91h-1zm0 3.822v1.91h1v-1.91h-1zm0 3.822v1.91h1v-1.91h-1zm0 3.822V35h1v-.956h-1zm.5 1.455h.948v-1h-.948v1zm2.842 0h1.895v-1h-1.895v1zm3.79 0h.947v-1h-.947v1zm1.447-.5v-1.06h-1V35h1zm0-3.18V29.7h-1v2.12h1zm0-4.24v-2.12h-1v2.12h1zm0-4.24v-2.12h-1v2.12h1zm0-4.24v-2.12h-1v2.12h1zm0-4.24v-2.12h-1v2.12h1zm0-4.24V9.56h-1v1.06h1zm-.5-.56h.053v-1h-.053v1zm.159 0h.053v-1h-.053v1zm-.418-.334l.32.909.943-.332-.32-.91-.943.333zm.959 2.726l.64 1.817.943-.332-.639-1.817-.944.332zm1.28 3.634l.64 1.817.943-.332-.64-1.817-.943.332zm1.28 3.634l.639 1.818.944-.333-.64-1.817-.943.332zm1.279 3.635l.64 1.817.943-.332-.64-1.817-.943.332zm1.28 3.634l.639 1.817.944-.332-.64-1.817-.943.332zm1.279 3.634l.64 1.817.943-.332-.639-1.817-.944.332zm1.28 3.634l.32.909.943-.332-.32-.909-.943.333zm.791 1.243h.828v-1h-.828v1zm2.485 0h1.656v-1h-1.656v1zm3.312 0h.828v-1h-.828v1zm1.302-.338l.31-.909-.946-.323-.311.908.947.324zm.931-2.726l.621-1.817-.947-.323-.621 1.817.947.323zm1.242-3.634l.62-1.817-.946-.324-.621 1.817.947.324zm1.241-3.635l.621-1.817-.946-.323-.621 1.817.946.323zm1.242-3.634l.621-1.817-.946-.323-.621 1.817.946.323zm1.242-3.634l.62-1.817-.946-.324-.621 1.818.947.323zm1.241-3.635l.621-1.817-.946-.323-.621 1.817.946.323zm1.242-3.634l.31-.908-.946-.324-.31.909.946.323zm-.163-.57h.04v-1h-.04v1zm.12 0h.039v-1h-.039v1zm-.461-.5v1.06h1V9.56h-1zm0 3.18v2.12h1v-2.12h-1zm0 4.24v2.12h1v-2.12h-1zm0 4.24v2.12h1v-2.12h-1zm0 4.24v2.12h1v-2.12h-1zm0 4.24v2.12h1V29.7h-1zm0 4.24V35h1v-1.06h-1zm.5 1.56h.934v-1h-.934v1zm2.803 0h1.868v-1h-1.868v1zm3.736 0h.934v-1h-.934v1zm1.434-.5v-.956h-1V35h1zm0-2.866v-1.911h-1v1.91h1zm0-3.822V26.4h-1v1.91h1zm0-3.822v-1.911h-1v1.91h1zm0-3.822v-1.911h-1v1.91h1zm0-3.822v-1.91h-1v1.91h1zm0-3.822v-1.91h-1v1.91h1zm0-3.822v-1.91h-1v1.91h1zm0-3.822V3.47h-1v1.91h1zm0-3.822V.603h-1v.955h1zm-.5-1.455h-.923v1h.923v-1zm-2.769 0h-1.846v1h1.846v-1zm-3.692 0h-1.846v1h1.846v-1zm-3.693 0h-.923v1h.923v-1zm-1.396.339l-.349 1.024.947.323.349-1.025-.947-.322zm-1.047 3.074l-.698 2.05.947.322.698-2.05-.947-.322zm-1.395 4.098l-.698 2.05.946.322.698-2.05-.946-.322zm-1.396 4.1l-.698 2.048.947.323.698-2.05-.947-.322zm-1.396 4.098l-.698 2.05.947.322.698-2.05-.947-.322zm-1.395 4.098l-.698 2.05.946.322.698-2.05-.946-.322zm-1.396 4.1l-.349 1.024.947.322.349-1.025-.947-.322zm.597 1.022l-.303-.878-.945.326.303.878.945-.326zm-.909-2.635l-.605-1.756-.946.326.606 1.756.945-.326zm-1.211-3.513l-.606-1.757-.945.326.606 1.757.945-.326zm-1.211-3.513l-.606-1.757-.945.326.605 1.757.946-.326zm-1.212-3.513l-.606-1.757-.945.326.606 1.757.945-.326zm-1.211-3.513l-.606-1.757-.945.326.605 1.757.946-.326zm-1.212-3.514l-.605-1.756-.946.326.606 1.756.945-.326zm-1.211-3.513l-.303-.878-.945.326.303.878.945-.326zm-.776-1.215h-.98v1h.98v-1zm-2.941 0H266.4v1h1.961v-1zm-3.922 0h-1.961v1h1.961v-1zm-3.922 0h-.981v1h.981v-1zm-.981.5v-1h-1v1h1zm11.766 0l.946-.326-.233-.674h-.713v1zm8.48 24.592l-.945.326.951 2.759.941-2.763-.947-.322zM288.156.603v-1h-.716l-.23.678.946.322zm11.077 0h1v-1h-1v1zm0 34.397v1h1v-1h-1zm-7.473 0h-1v1h1v-1zm0-25.44h1v-1h-1v1zm-.159 0v-1h-.715l-.231.677.946.323zM282.909 35v1h.715l.232-.677-.947-.323zm-6.625 0l-.943.332.235.668h.708v-1zm-8.957-25.44l.944-.332-.236-.668h-.708v1zm-.212 0v-1h-1v1h1zm0 25.44v1h1v-1h-1zm-7.579 0h-1v1h1v-1zm-1-34.397v.955h2V.603h-2zm0 2.866V5.38h2V3.47h-2zm0 3.822v1.911h2v-1.91h-2zm0 3.822v1.911h2v-1.91h-2zm0 3.822v1.911h2v-1.91h-2zm0 3.822v1.91h2v-1.91h-2zm0 3.822v1.91h2v-1.91h-2zm0 3.822v1.91h2v-1.91h-2zm0 3.822v1.91h2v-1.91h-2zm0 3.822V35h2v-.956h-2zm1 1.955h.948v-2h-.948v2zm2.842 0h1.895v-2h-1.895v2zm3.79 0h.947v-2h-.947v2zm1.947-1v-1.06h-2V35h2zm0-3.18V29.7h-2v2.12h2zm0-4.24v-2.12h-2v2.12h2zm0-4.24v-2.12h-2v2.12h2zm0-4.24v-2.12h-2v2.12h2zm0-4.24v-2.12h-2v2.12h2zm0-4.24V9.56h-2v1.06h2zm-1-.06h.053v-2h-.053v2zm.159 0h.053v-2h-.053v2zm-.89-.668l.32.909 1.886-.665-.319-.908-1.887.664zm.96 2.726l.64 1.817 1.886-.664-.64-1.817-1.886.664zm1.279 3.634l.64 1.817 1.887-.664-.64-1.817-1.887.664zm1.28 3.634l.64 1.817 1.886-.664-.64-1.817-1.886.664zm1.279 3.635l.64 1.817 1.887-.664-.64-1.817-1.887.664zm1.28 3.634l.64 1.817 1.886-.664-.639-1.817-1.887.664zm1.28 3.634l.639 1.817 1.887-.664-.64-1.817-1.886.664zm1.279 3.634l.32.91 1.887-.665-.32-.909-1.887.664zM276.284 36h.828v-2h-.828v2zm2.485 0h1.656v-2h-1.656v2zm3.312 0h.828v-2h-.828v2zm1.775-.677l.31-.908-1.893-.647-.31.909 1.893.646zm.931-2.725l.621-1.817-1.893-.647-.621 1.817 1.893.647zm1.242-3.635l.621-1.817-1.893-.646-.621 1.817 1.893.646zm1.241-3.634l.621-1.817-1.892-.647-.621 1.817 1.892.647zm1.242-3.634l.621-1.817-1.893-.647-.62 1.817 1.892.647zm1.242-3.634l.621-1.818-1.893-.646-.621 1.817 1.893.646zm1.242-3.635l.62-1.817-1.892-.647-.621 1.818 1.893.646zm1.241-3.634l.311-.909-1.893-.646-.31.908 1.892.647zm-.636-.232h.04v-2h-.04v2zm.12 0h.039v-2h-.039v2zm-.961-1v1.06h2V9.56h-2zm0 3.18v2.12h2v-2.12h-2zm0 4.24v2.12h2v-2.12h-2zm0 4.24v2.12h2v-2.12h-2zm0 4.24v2.12h2v-2.12h-2zm0 4.24v2.12h2V29.7h-2zm0 4.24V35h2v-1.06h-2zm1 2.06h.934v-2h-.934v2zm2.803 0h1.868v-2h-1.868v2zm3.736 0h.934v-2h-.934v2zm1.934-1v-.956h-2V35h2zm0-2.866v-1.911h-2v1.91h2zm0-3.822V26.4h-2v1.91h2zm0-3.822v-1.911h-2v1.91h2zm0-3.822v-1.911h-2v1.91h2zm0-3.822v-1.91h-2v1.91h2zm0-3.822v-1.91h-2v1.91h2zm0-3.822v-1.91h-2v1.91h2zm0-3.822V3.47h-2v1.91h2zm0-3.822V.603h-2v.955h2zm-1-1.955h-.923v2h.923v-2zm-2.769 0h-1.846v2h1.846v-2zm-3.692 0h-1.846v2h1.846v-2zm-3.693 0h-.923v2h.923v-2zm-1.869.678l-.349 1.024 1.893.645.349-1.025-1.893-.644zm-1.047 3.074l-.698 2.049 1.893.645.698-2.05-1.893-.644zm-1.396 4.098l-.698 2.05 1.894.644.698-2.049-1.894-.645zm-1.395 4.099l-.698 2.05 1.893.644.698-2.05-1.893-.644zm-1.396 4.099l-.698 2.049 1.893.645.698-2.05-1.893-.644zm-1.396 4.098l-.698 2.05 1.894.644.698-2.049-1.894-.645zm-1.395 4.099l-.349 1.025 1.893.644.349-1.024-1.893-.645zm1.543 1.021l-.303-.878-1.891.652.303.878 1.891-.652zm-.909-2.635l-.606-1.756-1.89.652.605 1.756 1.891-.652zm-1.211-3.513l-.606-1.757-1.891.652.606 1.757 1.891-.652zm-1.212-3.513l-.605-1.757-1.891.652.606 1.757 1.89-.652zm-1.211-3.513l-.606-1.757-1.891.652.606 1.757 1.891-.652zm-1.212-3.513l-.605-1.757-1.891.652.606 1.757 1.89-.652zm-1.211-3.514l-.606-1.756-1.89.652.605 1.756 1.891-.652zm-1.211-3.513l-.303-.878-1.891.652.303.878 1.891-.652zm-1.249-1.552h-.98v2h.98v-2zm-2.941 0H266.4v2h1.961v-2zm-3.922 0h-1.961v2h1.961v-2zm-3.922 0h-.981v2h.981v-2z" fill="#77C2F9" fill-opacity=".9"/></svg>