<svg width="244" height="36" fill="none" xmlns="http://www.w3.org/2000/svg"><path d="M4.081 35h-.5v.411l.404.08L4.08 35zm0-6.042l.116-.486-.616-.147v.633h.5zm2.173.477l-.098.49.004.001.094-.491zm4.611-.477l.282.413.005-.003-.287-.41zm1.802-2.226l.447.224.003-.007-.45-.217zm.742-1.537l.45.217.111-.23-.121-.225-.44.238zM.106.603v-.5h-.839l.4.738.439-.238zm8.639 0l.447-.224-.138-.276h-.309v.5zm8.639 17.278l-.447.224.138.276h.309v-.5zm.212 0v.5h.34l.125-.316-.465-.184zM24.433.603v-.5h-.34l-.125.316.465.184zm8.321 0l.456.206.318-.706h-.774v.5zM20.299 28.216l-.456-.206v.003l.456.203zm-4.293 5.565l-.28-.415.28.415zM8.692 35.03c-.352 0-.727-.014-1.125-.042l-.071.997c.419.03.818.045 1.196.045v-1zm-3.387-.317c-.363-.06-.739-.127-1.128-.204l-.192.982c.398.078.785.148 1.159.209l.161-.987zM4.581 35v-.755h-1V35h1zm0-2.266v-1.51h-1v1.51h1zm0-3.02v-.756h-1v.755h1zm-.616-.27c.183.044.365.087.546.128l.223-.975a65.28 65.28 0 01-.537-.125l-.232.972zm1.641.369c.185.038.368.076.55.112l.196-.98a56.904 56.904 0 01-.54-.111l-.206.979zm.554.113c.184.035.366.066.547.093l.146-.99a12.287 12.287 0 01-.505-.085l-.188.982zm1.654.206c.189.01.376.015.56.015v-1c-.166 0-.335-.005-.506-.014l-.054.999zm.56.015c.244 0 .482-.013.712-.04l-.114-.993a5.21 5.21 0 01-.598.033v1zm2.122-.413c.23-.102.447-.223.651-.363l-.564-.826a3.103 3.103 0 01-.494.275l.407.914zm.656-.366a5.04 5.04 0 00.617-.513l-.696-.717c-.16.154-.324.291-.495.41l.574.82zm1.59-1.74a8.53 8.53 0 00.372-.672l-.894-.448a7.63 7.63 0 01-.33.593l.851.526zm.375-.679l.186-.384-.9-.435-.186.385.9.434zm.557-1.152l.185-.385-.9-.434-.186.384.9.435zm.175-.84l-.475-.878-.88.476.475.878.88-.476zm-1.425-2.635l-.95-1.756-.88.476.95 1.756.88-.476zm-1.901-3.513l-.95-1.757-.88.476.95 1.757.88-.476zm-1.9-3.513l-.95-1.757-.88.476.95 1.757.88-.476zm-1.9-3.513l-.951-1.757-.88.476.95 1.757.88-.476zM4.821 8.27l-.95-1.757-.88.476.95 1.756.88-.475zm-1.9-3.513L1.971 3l-.88.476.95 1.756.88-.475zM1.02 1.243L.546.365l-.88.476.475.878.88-.476zm-.915-.14h1.08v-1H.106v1zm3.24 0h2.16v-1h-2.16v1zm4.32 0h1.079v-1h-1.08v1zm.632-.276l.432.863.894-.447L9.192.38l-.894.448zm1.296 2.591l.864 1.728.894-.447-.864-1.728-.894.447zm1.727 3.456l.864 1.728.895-.448-.864-1.727-.895.447zm1.728 3.455l.864 1.728.895-.447-.864-1.728-.895.447zm1.728 3.456l.864 1.728.894-.447-.864-1.728-.894.447zm1.728 3.456l.432.864.894-.448-.432-.863-.894.447zm.879 1.14h.053v-1h-.053v1zm.159 0h.053v-1h-.053v1zm.518-.316l.342-.864-.93-.368-.342.864.93.368zm1.026-2.592l.683-1.728-.93-.367-.683 1.727.93.368zm1.367-3.455l.684-1.728-.93-.368-.684 1.728.93.368zm1.367-3.456l.684-1.728-.93-.368-.684 1.728.93.368zm1.368-3.456l.683-1.727-.93-.368-.683 1.728.93.367zm1.367-3.455l.342-.864-.93-.368-.342.864.93.368zm-.123-.548h1.04v-1h-1.04v1zm3.12 0h2.08v-1h-2.08v1zm4.16 0h1.041v-1h-1.04v1zm.585-.706l-.389.863.912.411.389-.862-.912-.412zm-1.167 2.59l-.779 1.725.912.411.778-1.726-.911-.41zm-1.557 3.45l-.779 1.727.912.41.778-1.725-.911-.411zM28.017 9.89l-.779 1.726.912.411.778-1.726-.911-.41zm-1.557 3.452l-.779 1.726.912.411.779-1.726-.912-.411zm-1.557 3.452l-.778 1.725.911.412.779-1.726-.912-.411zm-1.557 3.451l-.778 1.726.911.411.779-1.726-.912-.41zm-1.557 3.452l-.778 1.726.911.41.779-1.725-.912-.411zm-1.557 3.451l-.389.863.912.412.389-.863-.912-.412zm-.39.866c-.12.27-.243.532-.37.785l.895.447c.133-.267.263-.543.389-.826l-.914-.406zm-1.22 2.286c-.322.502-.662.96-1.017 1.375l.759.65c.387-.451.754-.946 1.1-1.484l-.842-.54zM16.4 32.863c-.22.18-.444.349-.673.503l.558.83a9.62 9.62 0 00.752-.562l-.637-.771zm-.673.503a7.485 7.485 0 01-.77.452l.455.89c.307-.156.598-.327.873-.512l-.558-.83zm-2.455 1.107a13.27 13.27 0 01-1.797.376l.14.99c.685-.097 1.33-.232 1.933-.405l-.276-.961zm-3.646.539a23.24 23.24 0 01-.934.018v1c.332 0 .656-.006.974-.02l-.04-.998zM4.08 35h-1v.823l.808.158L4.08 35zm0-6.042l.232-.973-1.232-.293v1.266h1zm2.173.477l-.196.98.009.002.187-.982zm4.611-.477l.565.825.008-.006-.573-.819zm1.802-2.226l.895.447.006-.012-.901-.435zm.742-1.537l.9.435.223-.46-.243-.45-.88.475zM.106.603v-1h-1.678l.798 1.476.88-.476zm8.639 0l.894-.447-.276-.553h-.618v1zm8.639 17.278l-.894.447.276.553h.618v-1zm.212 0v1h.68l.25-.632-.93-.368zM24.433.603v-1h-.68l-.25.632.93.368zm8.321 0l.912.411.636-1.411h-1.548v1zM20.299 28.216l-.912-.411-.002.005.914.406zm-4.293 5.565l-.559-.83.559.83zm-7.314.749c-.339 0-.702-.014-1.09-.041l-.142 1.995c.43.03.84.046 1.232.046v-2zm-3.306-.31a35.918 35.918 0 01-1.113-.201L3.89 35.98c.403.08.794.15 1.174.212l.323-1.974zm-.305.78v-.755h-2V35h2zm0-2.266v-1.51h-2v1.51h2zm0-3.02v-.756h-2v.755h2zm-1.232.217l.55.128.447-1.95c-.177-.04-.354-.081-.533-.124l-.464 1.946zm1.655.37c.185.04.37.078.554.115l.392-1.962a53.332 53.332 0 01-.535-.11l-.411 1.958zm.563.116c.19.037.379.069.566.096l.294-1.978c-.16-.024-.322-.051-.486-.082l-.374 1.964zm1.72.214c.198.01.393.016.587.016v-2a8.7 8.7 0 01-.48-.013l-.107 1.997zm.587.016c.262 0 .519-.014.769-.043l-.228-1.987c-.17.02-.35.03-.541.03v2zm2.325-.456c.257-.114.5-.25.73-.408l-1.129-1.65a2.61 2.61 0 01-.414.23l.813 1.828zm.74-.414c.239-.167.465-.355.679-.563l-1.394-1.435a3.516 3.516 0 01-.433.36l1.147 1.638zm1.727-1.887a8.92 8.92 0 00.395-.71l-1.788-.895c-.1.198-.202.383-.308.553l1.701 1.052zm.402-.723l.185-.385-1.801-.869-.186.384 1.802.87zm.556-1.153l.186-.384-1.802-.87-.185.384 1.801.87zm.165-1.295l-.476-.878-1.759.951.475.879 1.76-.952zm-1.426-2.635l-.95-1.756-1.76.951.951 1.757 1.76-.952zm-1.9-3.513l-.95-1.756-1.76.951.95 1.757 1.76-.952zm-1.9-3.513l-.95-1.756-1.76.951.95 1.757 1.76-.952zm-1.901-3.513l-.95-1.757-1.76.952.95 1.756 1.76-.951zm-1.9-3.513l-.95-1.757-1.76.952.95 1.756 1.76-.951zm-1.9-3.513L2.41 2.762l-1.76.952.951 1.756 1.76-.951zM1.46 1.005L.986.127l-1.76.952.476.878 1.759-.952zm-1.355.598h1.08v-2H.106v2zm3.24 0h2.16v-2h-2.16v2zm4.32 0h1.079v-2h-1.08v2zm.185-.553l.432.864 1.788-.894-.43-.864-1.788.894zm1.295 2.592l.864 1.728 1.79-.895-.865-1.728-1.789.895zm1.728 3.456l.864 1.727 1.789-.894-.864-1.728-1.789.895zm1.728 3.455l.864 1.728 1.789-.895-.864-1.727-1.789.894zm1.728 3.456l.864 1.727 1.789-.894-.864-1.728-1.79.895zm1.728 3.455l.432.864 1.788-.894-.431-.864-1.79.894zm1.326 1.417h.053v-2h-.053v2zm.159 0h.053v-2h-.053v2zm.983-.632l.342-.864-1.86-.736-.342.864 1.86.736zm1.025-2.592l.684-1.728-1.86-.735-.683 1.727 1.86.736zm1.368-3.455l.683-1.728-1.86-.736-.683 1.728 1.86.736zm1.367-3.456l.684-1.728-1.86-.736-.683 1.728 1.86.736zm1.368-3.456l.683-1.727-1.86-.736-.683 1.728 1.86.735zm1.367-3.455l.342-.864-1.86-.736-.342.864 1.86.736zm-.588-.232h1.04v-2h-1.04v2zm3.12 0h2.08v-2h-2.08v2zm4.16 0h1.041v-2h-1.04v2zm.13-1.411l-.39.863 1.823.822.39-.863-1.824-.822zM30.674 2.78l-.779 1.725 1.823.823.779-1.726-1.823-.822zm-1.557 3.451l-.778 1.726 1.823.822.778-1.725-1.823-.823zM27.56 9.684l-.778 1.726 1.823.822.778-1.726-1.823-.822zm-1.557 3.451l-.778 1.726 1.823.823.778-1.726-1.823-.823zm-1.557 3.452l-.778 1.726 1.823.822.778-1.726-1.823-.822zM22.89 20.04l-.778 1.726 1.823.822.779-1.726-1.824-.822zm-1.556 3.451l-.779 1.726 1.823.822.779-1.725-1.823-.823zm-1.557 3.452l-.39.863 1.824.822.389-.863-1.823-.822zm-.392.868c-.117.263-.237.518-.36.765l1.79.893c.136-.274.269-.556.398-.846l-1.828-.812zm-1.183 2.219c-.312.484-.637.923-.977 1.32l1.518 1.301c.404-.47.784-.984 1.141-1.54l-1.682-1.081zm-2.12 2.448c-.207.171-.419.33-.635.475l1.118 1.658c.27-.182.534-.38.79-.59l-1.273-1.543zm-.635.475c-.223.15-.462.29-.717.421l.91 1.781c.323-.165.632-.346.925-.544l-1.118-1.658zm-2.313 1.04c-.53.152-1.105.273-1.73.362l.281 1.98c.706-.1 1.373-.24 2-.42l-.551-1.922zm-3.528.52c-.297.012-.601.018-.914.018v2c.338 0 .67-.007.994-.02l-.08-1.998zm51.418-12.656h.5v-.855l-.745.42.245.435zm-17.49.159l-.304.397.008.006.296-.403zM40.566.603v-.5h-.5v.5h.5zm8.162 0h.5v-.5h-.5v.5zm1.22 16.536l-.298.402.01.007.01.007.277-.416zm7.631.159l-.154-.475.154.475zm3.445-1.749l.313.39.187-.15v-.24h-.5zm0-14.946v-.5h-.5v.5h.5zm8.268 0h.5v-.5h-.5v.5zm0 34.397v.5h.5V35h-.5zm-8.268 0h-.5v.5h.5V35zm-.245-13.58c-.246.139-.497.27-.751.397l.443.896c.27-.134.537-.274.798-.421l-.49-.872zm-2.313 1.072c-.524.196-1.066.369-1.624.519l.26.966c.588-.158 1.16-.341 1.714-.548l-.35-.937zm-3.292.89c-.55.098-1.117.177-1.697.235l.1.995c.604-.06 1.196-.142 1.773-.245l-.176-.985zm-3.412.346c-.284.009-.57.013-.86.013v1c.3 0 .597-.005.891-.014l-.03-1zm-.86.013c-.323 0-.64-.01-.95-.028l-.06.998c.331.02.667.03 1.01.03v-1zm-2.82-.27a11.405 11.405 0 01-1.8-.52l-.357.933c.625.24 1.278.428 1.958.566l.2-.98zm-3.476-1.34c-.265-.16-.524-.333-.775-.518l-.594.805c.276.203.56.392.851.569l.518-.855zm-.767-.513a5.945 5.945 0 01-.729-.661l-.731.682c.262.28.545.538.85.773l.61-.794zm-1.83-2.3a8.847 8.847 0 01-.641-1.913l-.977.215c.17.773.407 1.483.715 2.128l.902-.43zm-.913-3.95a17.4 17.4 0 01-.03-1.038h-1c0 .376.01.742.032 1.098l.998-.06zm-.03-1.038v-1.144h-1v1.144h1zm0-3.432V8.61h-1v2.288h1zm0-4.575V4.035h-1v2.288h1zm0-4.576V.603h-1v1.144h1zm-.5-.644h1.02v-1h-1.02v1zm3.06 0h2.041v-1h-2.04v1zm4.082 0h1.02v-1h-1.02v1zm.52-.5v1.09h1V.604h-1zm0 3.273v2.182h1V3.876h-1zm0 4.363v2.182h1V8.24h-1zm0 4.364v1.091h1v-1.09h-1zm0 1.091c0 .352.017.686.051 1l.994-.109a8.245 8.245 0 01-.045-.891h-1zm.663 3.004a2.9 2.9 0 00.759.843l.594-.804a1.91 1.91 0 01-.498-.557l-.855.518zm.779.857a5 5 0 00.844.45l.384-.924a3.93 3.93 0 01-.674-.358l-.554.832zm2.653.887c.292.03.596.045.91.045v-1c-.283 0-.553-.013-.809-.04l-.101.995zm.91.045c.383 0 .764-.015 1.143-.044l-.078-.997a13.96 13.96 0 01-1.065.041v1zm3.4-.402c.37-.09.736-.193 1.1-.312l-.308-.95c-.34.11-.682.207-1.026.29l.235.972zm1.1-.312a15.3 15.3 0 00.945-.34l-.37-.928c-.28.111-.575.217-.883.318l.309.95zm2.76-1.24a8.6 8.6 0 00.843-.594l-.624-.78a7.612 7.612 0 01-.745.523l.527.85zm1.031-.984v-.934h-1v.934h1zm0-2.802v-1.869h-1v1.869h1zm0-3.737V7.142h-1V9.01h1zm0-3.736V3.405h-1v1.869h1zm0-3.737V.603h-1v.934h1zm-.5-.434h1.034v-1h-1.034v1zm3.1 0h2.068v-1h-2.067v1zm4.135 0h1.033v-1H68.26v1zm.533-.5v.955h1V.603h-1zm0 2.866V5.38h1V3.47h-1zm0 3.822v1.911h1v-1.91h-1zm0 3.822v1.911h1v-1.91h-1zm0 3.822v1.911h1v-1.91h-1zm0 3.822v1.91h1v-1.91h-1zm0 3.822v1.91h1v-1.91h-1zm0 3.822v1.91h1v-1.91h-1zm0 3.822v1.91h1v-1.91h-1zm0 3.822V35h1v-.956h-1zm.5.455H68.26v1h1.033v-1zm-3.1 0h-2.067v1h2.067v-1zm-4.134 0h-1.034v1h1.034v-1zm-.534.5v-1.095h-1V35h1zm0-3.286v-2.19h-1v2.19h1zm0-4.381v-2.191h-1v2.19h1zm0-4.382v-1.095h-1v1.095h1zm-.5-1.095h1v-1.71l-1.49.838.49.872zm-17.49.159l-.609.793.008.006.008.006.593-.805zM40.566.603v-1h-1v1h1zm8.162 0h1v-1h-1v1zm1.22 16.536l-.595.804.02.015.02.013.554-.832zm7.631.159l-.309-.951.31.951zm3.445-1.749l.625.78.375-.3v-.48h-1zm0-14.946v-1h-1v1h1zm8.268 0h1v-1h-1v1zm0 34.397v1h1v-1h-1zm-8.268 0h-1v1h1v-1zm-.49-14.016c-.239.134-.481.263-.728.385l.887 1.792c.278-.137.552-.282.821-.433l-.98-1.744zm-2.243 1.04c-.51.19-1.035.358-1.578.504l.519 1.931a19.623 19.623 0 001.76-.562l-.7-1.874zm-3.205.866a21.77 21.77 0 01-1.659.23l.199 1.99a23.712 23.712 0 001.812-.251l-.352-1.97zm-3.34.338c-.278.009-.56.013-.845.013v2c.306 0 .608-.005.908-.014l-.063-1.999zm-.845.013c-.312 0-.618-.01-.918-.027l-.121 1.996c.341.02.688.031 1.04.031v-2zm-2.719-.26a10.91 10.91 0 01-1.72-.498l-.715 1.868c.651.25 1.33.445 2.036.59l.4-1.96zm-3.317-1.277a9.802 9.802 0 01-.738-.494l-1.186 1.61c.288.212.584.41.888.595l1.036-1.711zm-.722-.482a5.444 5.444 0 01-.667-.606l-1.463 1.364c.28.3.585.577.912.828l1.218-1.586zm-1.683-2.119a8.35 8.35 0 01-.604-1.805l-1.953.43c.177.804.425 1.551.751 2.235l1.806-.86zm-.865-3.764c-.02-.325-.029-.66-.029-1.009h-2c0 .385.01.761.033 1.127l1.996-.118zm-.029-1.009v-1.144h-2v1.144h2zm0-3.432V8.61h-2v2.288h2zm0-4.575V4.035h-2v2.288h2zm0-4.576V.603h-2v1.144h2zm-1-.144h1.02v-2h-1.02v2zm3.06 0h2.041v-2h-2.04v2zm4.082 0h1.02v-2h-1.02v2zm.02-1v1.09h2V.604h-2zm0 3.273v2.182h2V3.876h-2zm0 4.363v2.182h2V8.24h-2zm0 4.364v1.091h2v-1.09h-2zm0 1.091c0 .368.018.72.054 1.054l1.988-.217a7.743 7.743 0 01-.042-.837h-2zm.735 3.263c.234.386.53.72.89.986l1.188-1.608a1.41 1.41 0 01-.367-.414l-1.711 1.036zm.93 1.014c.29.194.6.358.93.495l.767-1.847a3.424 3.424 0 01-.588-.312l-1.11 1.664zm2.88.969c.31.032.63.047.96.047v-2c-.267 0-.52-.012-.758-.037l-.203 1.99zm.96.047c.396 0 .79-.015 1.181-.046l-.155-1.994c-.34.027-.682.04-1.026.04v2zm3.518-.416c.382-.092.76-.2 1.137-.322l-.618-1.902c-.328.106-.657.2-.988.28l.469 1.944zm1.137-.322c.337-.11.662-.226.974-.35l-.739-1.859c-.27.108-.554.21-.853.307l.618 1.902zm2.869-1.292c.317-.196.614-.405.892-.627l-1.25-1.562a7.082 7.082 0 01-.696.489l1.054 1.7zm1.267-1.408v-.934h-2v.934h2zm0-2.802v-1.869h-2v1.869h2zm0-3.737V7.142h-2V9.01h2zm0-3.736V3.405h-2v1.869h2zm0-3.737V.603h-2v.934h2zm-1 .066h1.034v-2h-1.034v2zm3.1 0h2.068v-2h-2.067v2zm4.135 0h1.033v-2H68.26v2zm.033-1v.955h2V.603h-2zm0 2.866V5.38h2V3.47h-2zm0 3.822v1.911h2v-1.91h-2zm0 3.822v1.911h2v-1.91h-2zm0 3.822v1.911h2v-1.91h-2zm0 3.822v1.91h2v-1.91h-2zm0 3.822v1.91h2v-1.91h-2zm0 3.822v1.91h2v-1.91h-2zm0 3.822v1.91h2v-1.91h-2zm0 3.822V35h2v-.956h-2zm1-.045H68.26v2h1.033v-2zm-3.1 0h-2.067v2h2.067v-2zm-4.134 0h-1.034v2h1.034v-2zm-.034 1v-1.095h-2V35h2zm0-3.286v-2.19h-2v2.19h2zm0-4.381v-2.191h-2v2.19h2zm0-4.382v-1.095h-2v1.095h2zM82.01.603v-.5h-.5v.5h.5zm8.268 0h.5v-.5h-.5v.5zm0 23.532h-.5v1.73l.923-1.463-.423-.267zM105.117.603v-.5h-.276l-.147.233.423.267zm8.268 0h.5v-.5h-.5v.5zm0 34.397v.5h.5V35h-.5zm-8.268 0h-.5v.5h.5V35zm0-23.903h.5V9.344l-.925 1.49.425.263zM90.277 35v.5h.278l.147-.236-.425-.264zm-8.268 0h-.5v.5h.5V35zM81.51.603v.955h1V.603h-1zm0 2.866V5.38h1V3.47h-1zm0 3.822v1.911h1v-1.91h-1zm0 3.822v1.911h1v-1.91h-1zm0 3.822v1.911h1v-1.91h-1zm0 3.822v1.91h1v-1.91h-1zm0 3.822v1.91h1v-1.91h-1zm0 3.822v1.91h1v-1.91h-1zm0 3.822v1.91h1v-1.91h-1zm0 3.822V35h1v-.956h-1zm.5 1.455h1.034v-1H82.01v1zm3.1 0h2.068v-1H85.11v1zm4.135 0h1.033v-1h-1.033v1zm1.458-.236l.53-.854-.85-.527-.53.853.85.528zm1.59-2.561l1.06-1.708-.85-.527-1.06 1.707.85.528zm2.12-3.415l1.06-1.707-.85-.528-1.06 1.707.85.528zm2.12-3.415l1.06-1.707-.85-.527-1.06 1.707.85.527zm2.12-3.415l1.06-1.707-.85-.527-1.06 1.707.85.527zm2.12-3.414l1.06-1.707-.85-.528-1.06 1.707.85.528zm2.12-3.415l1.06-1.707-.85-.528-1.06 1.708.85.527zm2.12-3.415l.53-.853-.85-.528-.53.854.85.527zm-.395-1.117v.996h1v-.996h-1zm0 2.988v1.992h1v-1.992h-1zm0 3.984v1.992h1v-1.992h-1zm0 3.983v1.992h1v-1.992h-1zm0 3.984v1.992h1v-1.992h-1zm0 3.984v1.992h1V30.02h-1zm0 3.984V35h1v-.996h-1zm.5 1.496h1.034v-1h-1.034v1zm3.101 0h2.067v-1h-2.067v1zm4.134 0h1.033v-1h-1.033v1zm1.533-.5v-.956h-1V35h1zm0-2.866v-1.911h-1v1.91h1zm0-3.822V26.4h-1v1.91h1zm0-3.822v-1.911h-1v1.91h1zm0-3.822v-1.911h-1v1.91h1zm0-3.822v-1.91h-1v1.91h1zm0-3.822v-1.91h-1v1.91h1zm0-3.822v-1.91h-1v1.91h1zm0-3.822V3.47h-1v1.91h1zm0-3.822V.603h-1v.955h1zm-.5-1.455h-1.033v1h1.033v-1zm-3.1 0h-2.067v1h2.067v-1zm-4.134 0h-1.034v1h1.034v-1zm-1.457.233l-.53.84.846.534.53-.84-.846-.534zm-1.59 2.522l-1.06 1.68.846.534 1.06-1.681-.846-.533zm-2.12 3.361L99.924 7.9l.846.534 1.06-1.681-.846-.534zm-2.12 3.362l-1.06 1.68.846.534 1.06-1.68-.846-.534zm-2.12 3.362l-1.06 1.68.846.534 1.06-1.68-.846-.534zm-2.12 3.361l-1.06 1.681.846.534 1.06-1.681-.846-.534zm-2.12 3.362l-1.06 1.681.846.533 1.06-1.68-.846-.534zm-2.12 3.362l-.53.84.846.534.53-.84-.846-.534zm.393 1.107v-.98h-1v.98h1zm0-2.942v-1.96h-1v1.96h1zm0-3.922v-1.96h-1v1.96h1zm0-3.921v-1.961h-1v1.96h1zm0-3.922V7.466h-1v1.962h1zm0-3.923v-1.96h-1v1.96h1zm0-3.921V.602h-1v.98h1zm-.5-1.481h-1.033v1h1.033v-1zm-3.1 0H85.11v1h2.067v-1zm-4.134 0H82.01v1h1.034v-1zm-1.034.5v-1h-1v1h1zm8.268 0h1v-1h-1v1zm0 23.532h-1v3.46l1.846-2.927-.846-.533zM105.117.603v-1h-.551l-.295.467.846.533zm8.268 0h1v-1h-1v1zm0 34.397v1h1v-1h-1zm-8.268 0h-1v1h1v-1zm0-23.903h1V7.59l-1.849 2.98.849.527zM90.277 35v1h.556l.294-.472-.85-.528zm-8.268 0h-1v1h1v-1zm-1-34.397v.955h2V.603h-2zm0 2.866V5.38h2V3.47h-2zm0 3.822v1.911h2v-1.91h-2zm0 3.822v1.911h2v-1.91h-2zm0 3.822v1.911h2v-1.91h-2zm0 3.822v1.91h2v-1.91h-2zm0 3.822v1.91h2v-1.91h-2zm0 3.822v1.91h2v-1.91h-2zm0 3.822v1.91h2v-1.91h-2zm0 3.822V35h2v-.956h-2zm1 1.955h1.034v-2h-1.034v2zm3.1 0h2.068v-2H85.11v2zm4.135 0h1.033v-2h-1.033v2zm1.883-.472l.53-.854-1.7-1.055-.53.853 1.7 1.056zm1.59-2.562l1.06-1.707-1.7-1.055-1.06 1.707 1.7 1.055zm2.12-3.414l1.06-1.708-1.7-1.055-1.06 1.708 1.7 1.055zm2.12-3.415l1.06-1.707-1.7-1.055-1.06 1.707 1.7 1.055zm2.12-3.415l1.06-1.707-1.7-1.055-1.06 1.707 1.7 1.055zm2.12-3.414l1.06-1.708-1.699-1.055-1.06 1.708 1.699 1.055zm2.12-3.415l1.06-1.708-1.699-1.054-1.06 1.707 1.699 1.055zm2.12-3.415l.53-.854-1.699-1.055-.53.854 1.699 1.055zm-1.32-1.381v.996h2v-.996h-2zm0 2.988v1.992h2v-1.992h-2zm0 3.984v1.992h2v-1.992h-2zm0 3.983v1.992h2v-1.992h-2zm0 3.984v1.992h2v-1.992h-2zm0 3.984v1.992h2V30.02h-2zm0 3.984V35h2v-.996h-2zm1 1.996h1.034v-2h-1.034v2zm3.101 0h2.067v-2h-2.067v2zm4.134 0h1.033v-2h-1.033v2zm2.033-1v-.956h-2V35h2zm0-2.866v-1.911h-2v1.91h2zm0-3.822V26.4h-2v1.91h2zm0-3.822v-1.911h-2v1.91h2zm0-3.822v-1.911h-2v1.91h2zm0-3.822v-1.91h-2v1.91h2zm0-3.822v-1.91h-2v1.91h2zm0-3.822v-1.91h-2v1.91h2zm0-3.822V3.47h-2v1.91h2zm0-3.822V.603h-2v.955h2zm-1-1.955h-1.033v2h1.033v-2zm-3.1 0h-2.067v2h2.067v-2zm-4.134 0h-1.034v2h1.034v-2zm-1.88.467l-.53.84 1.692 1.067.53-.84L104.271.07zm-1.59 2.52l-1.06 1.682 1.692 1.067 1.06-1.681-1.692-1.067zm-2.12 3.363l-1.06 1.68 1.692 1.067 1.06-1.68-1.692-1.067zm-2.12 3.361l-1.06 1.681 1.692 1.067 1.06-1.68-1.692-1.068zm-2.12 3.362l-1.06 1.68 1.692 1.068 1.06-1.681-1.692-1.067zm-2.12 3.362l-1.06 1.68 1.692 1.067 1.06-1.68-1.692-1.067zm-2.12 3.361l-1.06 1.681 1.692 1.067 1.06-1.68-1.692-1.068zm-2.12 3.362l-.53.84 1.692 1.067.53-.84-1.692-1.067zm1.316 1.374v-.98h-2v.98h2zm0-2.942v-1.96h-2v1.96h2zm0-3.922v-1.96h-2v1.96h2zm0-3.921v-1.961h-2v1.96h2zm0-3.922V7.466h-2v1.962h2zm0-3.923v-1.96h-2v1.96h2zm0-3.921V.602h-2v.98h2zm-1-1.981h-1.033v2h1.033v-2zm-3.1 0H85.11v2h2.067v-2zm-4.134 0h-1.034v2h1.034v-2zm43.085 1v-.5h-.5v.5h.5zm11.766 0l.472-.163-.116-.337h-.356v.5zm8.48 24.592l-.473.163.476 1.38.47-1.382-.473-.161zM154.748.603v-.5h-.358l-.116.339.474.161zm11.077 0h.5v-.5h-.5v.5zm0 34.397v.5h.5V35h-.5zm-7.473 0h-.5v.5h.5V35zm0-25.44h.5v-.5h-.5v.5zm-.159 0v-.5h-.358l-.116.338.474.162zM149.501 35v.5h.357l.116-.338-.473-.162zm-6.625 0l-.472.166.118.334h.354V35zm-8.957-25.44l.471-.166-.117-.334h-.354v.5zm-.212 0v-.5h-.5v.5h.5zm0 25.44v.5h.5V35h-.5zm-7.579 0h-.5v.5h.5V35zm-.5-34.397v.955h1V.603h-1zm0 2.866V5.38h1V3.47h-1zm0 3.822v1.911h1v-1.91h-1zm0 3.822v1.911h1v-1.91h-1zm0 3.822v1.911h1v-1.91h-1zm0 3.822v1.91h1v-1.91h-1zm0 3.822v1.91h1v-1.91h-1zm0 3.822v1.91h1v-1.91h-1zm0 3.822v1.91h1v-1.91h-1zm0 3.822V35h1v-.956h-1zm.5 1.455h.947v-1h-.947v1zm2.842 0h1.894v-1h-1.894v1zm3.789 0h.948v-1h-.948v1zm1.448-.5v-1.06h-1V35h1zm0-3.18V29.7h-1v2.12h1zm0-4.24v-2.12h-1v2.12h1zm0-4.24v-2.12h-1v2.12h1zm0-4.24v-2.12h-1v2.12h1zm0-4.24v-2.12h-1v2.12h1zm0-4.24V9.56h-1v1.06h1zm-.5-.56h.053v-1h-.053v1zm.159 0h.053v-1h-.053v1zm-.419-.334l.32.909.943-.332-.32-.91-.943.333zm.96 2.726l.639 1.817.944-.332-.64-1.817-.943.332zm1.279 3.634l.64 1.817.943-.332-.64-1.817-.943.332zm1.28 3.634l.64 1.818.943-.333-.64-1.817-.943.332zm1.279 3.635l.64 1.817.943-.332-.639-1.817-.944.332zm1.28 3.634l.64 1.817.943-.332-.64-1.817-.943.332zm1.279 3.634l.64 1.817.944-.332-.64-1.817-.944.332zm1.28 3.634l.32.909.943-.332-.32-.909-.943.333zm.792 1.243h.828v-1h-.828v1zm2.484 0h1.656v-1h-1.656v1zm3.312 0h.829v-1h-.829v1zm1.302-.338l.31-.909-.946-.323-.311.908.947.324zm.931-2.726l.621-1.817-.946-.323-.621 1.817.946.323zm1.242-3.634l.621-1.817-.947-.324-.621 1.817.947.324zm1.241-3.635l.621-1.817-.946-.323-.621 1.817.946.323zm1.242-3.634l.621-1.817-.946-.323-.621 1.817.946.323zm1.242-3.634l.621-1.817-.947-.324-.62 1.818.946.323zm1.242-3.635l.62-1.817-.946-.323-.621 1.817.947.323zm1.241-3.634l.311-.908-.947-.324-.31.909.946.323zm-.162-.57h.039v-1h-.039v1zm.119 0h.04v-1h-.04v1zm-.46-.5v1.06h1V9.56h-1zm0 3.18v2.12h1v-2.12h-1zm0 4.24v2.12h1v-2.12h-1zm0 4.24v2.12h1v-2.12h-1zm0 4.24v2.12h1v-2.12h-1zm0 4.24v2.12h1V29.7h-1zm0 4.24V35h1v-1.06h-1zm.5 1.56h.934v-1h-.934v1zm2.802 0h1.868v-1h-1.868v1zm3.736 0h.935v-1h-.935v1zm1.435-.5v-.956h-1V35h1zm0-2.866v-1.911h-1v1.91h1zm0-3.822V26.4h-1v1.91h1zm0-3.822v-1.911h-1v1.91h1zm0-3.822v-1.911h-1v1.91h1zm0-3.822v-1.91h-1v1.91h1zm0-3.822v-1.91h-1v1.91h1zm0-3.822v-1.91h-1v1.91h1zm0-3.822V3.47h-1v1.91h1zm0-3.822V.603h-1v.955h1zm-.5-1.455h-.923v1h.923v-1zm-2.77 0h-1.846v1h1.846v-1zm-3.692 0h-1.846v1h1.846v-1zm-3.692 0h-.923v1h.923v-1zm-1.397.339l-.349 1.024.947.323.349-1.025-.947-.322zm-1.046 3.074l-.698 2.05.946.322.698-2.05-.946-.322zm-1.396 4.098l-.698 2.05.947.322.697-2.05-.946-.322zm-1.396 4.1l-.698 2.048.947.323.698-2.05-.947-.322zm-1.395 4.098l-.698 2.05.946.322.698-2.05-.946-.322zm-1.396 4.098l-.698 2.05.947.322.697-2.05-.946-.322zm-1.396 4.1l-.349 1.024.947.322.349-1.025-.947-.322zm.597 1.022l-.303-.878-.945.326.303.878.945-.326zm-.908-2.635l-.606-1.756-.945.326.605 1.756.946-.326zm-1.212-3.513l-.605-1.757-.946.326.606 1.757.945-.326zm-1.211-3.513l-.606-1.757-.945.326.605 1.757.946-.326zm-1.212-3.513l-.605-1.757-.946.326.606 1.757.945-.326zm-1.211-3.513l-.606-1.757-.945.326.606 1.757.945-.326zm-1.211-3.514l-.606-1.756-.946.326.606 1.756.946-.326zm-1.212-3.513l-.303-.878-.945.326.303.878.945-.326zm-.775-1.215h-.981v1h.981v-1zm-2.942 0h-1.961v1h1.961v-1zm-3.922 0h-1.961v1h1.961v-1zm-3.922 0h-.98v1h.98v-1zm-.98.5v-1h-1v1h1zm11.766 0l.945-.326-.232-.674h-.713v1zm8.48 24.592l-.946.326.952 2.759.94-2.763-.946-.322zM154.748.603v-1h-.716l-.231.678.947.322zm11.077 0h1v-1h-1v1zm0 34.397v1h1v-1h-1zm-7.473 0h-1v1h1v-1zm0-25.44h1v-1h-1v1zm-.159 0v-1h-.716l-.231.677.947.323zM149.501 35v1h.715l.231-.677-.946-.323zm-6.625 0l-.944.332.235.668h.709v-1zm-8.957-25.44l.943-.332-.235-.668h-.708v1zm-.212 0v-1h-1v1h1zm0 25.44v1h1v-1h-1zm-7.579 0h-1v1h1v-1zm-1-34.397v.955h2V.603h-2zm0 2.866V5.38h2V3.47h-2zm0 3.822v1.911h2v-1.91h-2zm0 3.822v1.911h2v-1.91h-2zm0 3.822v1.911h2v-1.91h-2zm0 3.822v1.91h2v-1.91h-2zm0 3.822v1.91h2v-1.91h-2zm0 3.822v1.91h2v-1.91h-2zm0 3.822v1.91h2v-1.91h-2zm0 3.822V35h2v-.956h-2zm1 1.955h.947v-2h-.947v2zm2.842 0h1.894v-2h-1.894v2zm3.789 0h.948v-2h-.948v2zm1.948-1v-1.06h-2V35h2zm0-3.18V29.7h-2v2.12h2zm0-4.24v-2.12h-2v2.12h2zm0-4.24v-2.12h-2v2.12h2zm0-4.24v-2.12h-2v2.12h2zm0-4.24v-2.12h-2v2.12h2zm0-4.24V9.56h-2v1.06h2zm-1-.06h.053v-2h-.053v2zm.159 0h.053v-2h-.053v2zm-.891-.668l.32.909 1.887-.665-.32-.908-1.887.664zm.96 2.726l.64 1.817 1.886-.664-.639-1.817-1.887.664zm1.28 3.634l.639 1.817 1.887-.664-.64-1.817-1.886.664zm1.279 3.634l.64 1.817 1.886-.664-.639-1.817-1.887.664zm1.28 3.635l.64 1.817 1.886-.664-.64-1.817-1.886.664zm1.279 3.634l.64 1.817 1.887-.664-.64-1.817-1.887.664zm1.28 3.634l.64 1.817 1.886-.664-.64-1.817-1.886.664zm1.279 3.634l.32.91 1.887-.665-.32-.909-1.887.664zM142.876 36h.828v-2h-.828v2zm2.484 0h1.656v-2h-1.656v2zm3.312 0h.829v-2h-.829v2zm1.775-.677l.31-.908-1.892-.647-.311.909 1.893.646zm.931-2.725l.621-1.817-1.893-.647-.62 1.817 1.892.647zm1.242-3.635l.621-1.817-1.893-.646-.621 1.817 1.893.646zm1.242-3.634l.62-1.817-1.892-.647-.621 1.817 1.893.647zm1.241-3.634l.621-1.817-1.892-.647-.621 1.817 1.892.647zm1.242-3.634l.621-1.818-1.893-.646-.621 1.817 1.893.646zm1.242-3.635l.621-1.817-1.893-.647-.621 1.818 1.893.646zm1.241-3.634l.311-.909-1.893-.646-.31.908 1.892.647zm-.635-.232h.039v-2h-.039v2zm.119 0h.04v-2h-.04v2zm-.96-1v1.06h2V9.56h-2zm0 3.18v2.12h2v-2.12h-2zm0 4.24v2.12h2v-2.12h-2zm0 4.24v2.12h2v-2.12h-2zm0 4.24v2.12h2v-2.12h-2zm0 4.24v2.12h2V29.7h-2zm0 4.24V35h2v-1.06h-2zm1 2.06h.934v-2h-.934v2zm2.802 0h1.868v-2h-1.868v2zm3.736 0h.935v-2h-.935v2zm1.935-1v-.956h-2V35h2zm0-2.866v-1.911h-2v1.91h2zm0-3.822V26.4h-2v1.91h2zm0-3.822v-1.911h-2v1.91h2zm0-3.822v-1.911h-2v1.91h2zm0-3.822v-1.91h-2v1.91h2zm0-3.822v-1.91h-2v1.91h2zm0-3.822v-1.91h-2v1.91h2zm0-3.822V3.47h-2v1.91h2zm0-3.822V.603h-2v.955h2zm-1-1.955h-.923v2h.923v-2zm-2.77 0h-1.846v2h1.846v-2zm-3.692 0h-1.846v2h1.846v-2zm-3.692 0h-.923v2h.923v-2zm-1.87.678l-.349 1.024 1.893.645.349-1.025-1.893-.644zm-1.047 3.074l-.698 2.049 1.894.645.697-2.05-1.893-.644zm-1.395 4.098l-.698 2.05 1.893.644.698-2.049-1.893-.645zm-1.396 4.099l-.698 2.05 1.893.644.698-2.05-1.893-.644zm-1.396 4.099l-.698 2.049 1.894.645.697-2.05-1.893-.644zm-1.395 4.098l-.698 2.05 1.893.644.698-2.049-1.893-.645zm-1.396 4.099l-.349 1.025 1.893.644.349-1.024-1.893-.645zm1.543 1.021l-.303-.878-1.891.652.303.878 1.891-.652zm-.909-2.635l-.605-1.756-1.891.652.606 1.756 1.89-.652zm-1.211-3.513l-.606-1.757-1.891.652.606 1.757 1.891-.652zm-1.211-3.513l-.606-1.757-1.891.652.606 1.757 1.891-.652zm-1.212-3.513l-.606-1.757-1.89.652.605 1.757 1.891-.652zm-1.211-3.513l-.606-1.757-1.891.652.606 1.757 1.891-.652zm-1.212-3.514l-.605-1.756-1.891.652.605 1.756 1.891-.652zm-1.211-3.513l-.303-.878-1.891.652.303.878 1.891-.652zm-1.248-1.552h-.981v2h.981v-2zm-2.942 0h-1.961v2h1.961v-2zm-3.922 0h-1.961v2h1.961v-2zm-3.922 0h-.98v2h.98v-2zm62.443 35.715l-.058.497h.001l.057-.497zm-3.975-.795l.13-.483h-.004l-.126.483zm-4.028-1.643l-.277.416.01.006.267-.422zm-2.65-2.915l.434-.248-.005-.01-.429.258zm25.758-28.726h.5V.817l-.416-.07-.084.492zm0 6.201l-.117.486.617.149V7.44h-.5zM190.77 6.062l-.047-.498h-.003l.05.498zm-2.226.53l.161.473.01-.003-.171-.47zm16.324 21.518h.5v-.63l-.613.143.113.487zm0 6.254l.101.49.399-.082v-.408h-.5zm-11.13.666c-.354 0-.7-.004-1.037-.011l-.022 1c.344.007.698.011 1.059.011v-1zm-3.104-.11a28.884 28.884 0 01-1.026-.099l-.114.994c.343.039.697.073 1.062.101l.078-.997zm-1.024-.099a21.486 21.486 0 01-.982-.139l-.162.987c.351.058.693.106 1.027.146l.117-.994zm-2.935-.535a35.996 35.996 0 01-.969-.246l-.259.966c.338.09.671.175.997.253l.231-.973zm-.973-.247a19.745 19.745 0 01-1.022-.296l-.305.953c.345.11.703.214 1.075.31l.252-.967zm-2.98-1.075a9.818 9.818 0 01-.906-.506l-.535.844c.311.198.644.384.998.559l.443-.896zm-.896-.5a7.202 7.202 0 01-.738-.564l-.657.754c.267.233.547.447.84.642l.555-.832zm-1.986-1.951a9.684 9.684 0 01-.508-.796l-.868.496c.176.308.363.601.561.88l.815-.58zm-.513-.805a6.728 6.728 0 01-.475-.957l-.928.373c.154.383.336.749.545 1.098l.858-.514zm-.984-3.05a9.89 9.89 0 01-.058-1.092h-1c0 .412.021.812.063 1.2l.995-.107zm-.058-1.092v-.944h-1v.944h1zm0-2.832v-1.888h-1v1.888h1zm0-3.776v-1.889h-1v1.889h1zm0-3.777v-1.888h-1v1.888h1zm0-3.776v-.944h-1v.944h1zm0-.944c0-.356.015-.701.044-1.036l-.997-.086a13.25 13.25 0 00-.047 1.122h1zm.427-3.045a7.765 7.765 0 01.837-1.838l-.847-.531a8.776 8.776 0 00-.946 2.073l.956.296zm2.127-3.39a9.268 9.268 0 011.648-1.208l-.503-.864a10.26 10.26 0 00-1.825 1.338l.68.733zm3.521-2.088a17.164 17.164 0 012.002-.612l-.236-.971a18.2 18.2 0 00-2.119.647l.353.936zm4.076-1.012c.668-.1 1.37-.178 2.106-.235l-.078-.997c-.757.059-1.482.14-2.175.243l.147.989zm4.234-.34c.35-.009.706-.013 1.068-.013v-1c-.37 0-.733.004-1.091.012l.023 1zm1.068-.013c.289 0 .59.004.901.013l.029-1c-.32-.008-.63-.013-.93-.013v1zm2.709.107c.574.042 1.177.095 1.809.16l.103-.994a58.964 58.964 0 00-1.84-.163l-.072.997zm3.617.371c.581.075 1.182.158 1.805.25l.146-.99a98.119 98.119 0 00-1.824-.252l-.127.992zm3.608.53l.9.15.168-.985c-.306-.052-.609-.103-.907-.151l-.161.986zm.484-.342v.775h1V1.24h-1zm0 2.325v1.55h1v-1.55h-1zm0 3.1v.776h1v-.775h-1zm.617.29c-.3-.073-.598-.143-.894-.21l-.222.975c.292.067.585.135.882.207l.234-.972zm-2.69-.593a56.2 56.2 0 00-1.81-.329l-.162.987c.58.095 1.172.203 1.777.323l.195-.981zm-3.632-.595a42.01 42.01 0 00-1.835-.192l-.081.997c.581.048 1.178.11 1.79.187l.126-.992zm-3.681-.296a31.2 31.2 0 00-.926-.014v1c.294 0 .593.004.897.014l.029-1zm-.926-.014c-.27 0-.529.001-.775.004l.012 1c.242-.003.497-.004.763-.004v-1zm-2.333.051c-.288.016-.551.035-.788.057l.095.996c.22-.021.469-.04.746-.054l-.053-.999zm-.791.057c-.199.02-.4.048-.604.084l.172.985c.18-.032.358-.056.532-.073l-.1-.996zm-1.778.368a11.52 11.52 0 00-.569.19l.342.94c.175-.064.349-.122.519-.174l-.292-.956zm-.559.187c-.453.154-.86.358-1.215.616l.588.81a3.54 3.54 0 01.949-.48l-.322-.946zm-2.691 2.915a5.91 5.91 0 00-.139 1.321h1c0-.406.039-.771.114-1.097l-.975-.224zm-.139 1.321v.914h1v-.914h-1zm0 2.743v1.828h1v-1.828h-1zm0 3.657v1.828h1v-1.828h-1zm0 3.657v1.828h1v-1.828h-1zm0 3.657v.914h1v-.914h-1zm0 .914c0 .348.033.683.099 1.004l.979-.203a3.974 3.974 0 01-.078-.801h-1zm1.001 2.84c.417.482.954.881 1.596 1.203l.449-.893c-.548-.275-.972-.598-1.288-.963l-.757.654zm3.407 1.852c.564.141 1.181.25 1.848.326l.115-.993a13.631 13.631 0 01-1.722-.303l-.241.97zm3.7.458c.3.01.609.014.925.014v-1c-.306 0-.604-.005-.893-.014l-.032 1zm.925.014c.284 0 .581-.007.889-.02l-.044-1c-.295.014-.576.02-.845.02v1zm2.651-.155c.55-.058 1.131-.133 1.742-.223l-.146-.99c-.599.09-1.166.162-1.701.218l.105.995zm3.47-.507a73.782 73.782 0 001.716-.329l-.199-.98c-.586.12-1.15.228-1.693.325l.176.984zm3.424-.694c.279-.063.563-.127.85-.194l-.226-.974-.842.192.218.976zm.237-.681v.782h1v-.782h-1zm0 2.345v1.564h1v-1.564h-1zm0 3.127v.782h1v-.782h-1zm.399.292a60.64 60.64 0 01-.908.18l.186.982c.307-.058.615-.119.924-.182l-.202-.98zm-2.734.496c-.613.096-1.224.182-1.834.257l.123.992c.62-.076 1.242-.163 1.866-.261l-.155-.988zm-3.675.453c-.617.055-1.232.099-1.846.132l.054.998a54.237 54.237 0 001.881-.134l-.089-.996zm-3.695.199a51.02 51.02 0 01-.925.008v1c.314 0 .628-.003.943-.009l-.018-1zm-5.112.296l-.117.993h.004l.113-.993zm-3.975-.795l.259-.966-.006-.002-.253.968zm-4.028-1.643l-.555.832.01.006.01.007.535-.845zm-2.65-2.915l.868-.496-.005-.01-.005-.008-.858.514zm25.758-28.726h1V.395l-.832-.142-.168.986zm0 6.201l-.234.972 1.234.298V7.44h-1zM190.77 6.062l-.095-.996-.004.001.099.995zm-2.226.53l.322.947.01-.004.01-.003-.342-.94zm16.324 21.518h1v-1.259l-1.226.285.226.974zm0 6.254l.202.98.798-.165v-.815h-1zm-11.13.166c-.351 0-.693-.004-1.027-.011l-.043 2c.348.007.705.011 1.07.011v-2zm-3.066-.11a25.596 25.596 0 01-1.007-.096l-.227 1.988c.349.04.708.074 1.079.103l.155-1.994zm-1.004-.095c-.31-.037-.629-.082-.959-.136l-.324 1.974c.358.058.708.108 1.049.148l.234-1.986zm-2.877-.525a36.42 36.42 0 01-.956-.243l-.518 1.932c.343.092.68.177 1.011.256l.463-1.945zm-.962-.245a18.91 18.91 0 01-.997-.288l-.609 1.905c.354.113.721.22 1.101.319l.505-1.936zm-2.885-1.039a9.389 9.389 0 01-.861-.48l-1.07 1.689c.328.207.676.402 1.044.584l.887-1.793zm-.841-.468a6.697 6.697 0 01-.687-.525l-1.314 1.508c.283.247.581.474.891.681l1.11-1.664zm-1.856-1.825a9.159 9.159 0 01-.481-.754l-1.736.992c.184.322.38.63.588.922l1.629-1.16zm-.491-.772a6.213 6.213 0 01-.44-.887l-1.856.746c.164.407.357.797.581 1.17l1.715-1.03zm-.916-2.846a9.624 9.624 0 01-.055-1.039h-2c0 .428.022.847.066 1.255l1.989-.216zm-.055-1.039v-.944h-2v.944h2zm0-2.832v-1.888h-2v1.888h2zm0-3.776v-1.889h-2v1.889h2zm0-3.777v-1.888h-2v1.888h2zm0-3.776v-.944h-2v.944h2zm0-.944c0-.342.014-.673.042-.993l-1.993-.172c-.033.38-.049.768-.049 1.165h2zm.404-2.897a7.284 7.284 0 01.784-1.72l-1.695-1.063a9.258 9.258 0 00-.999 2.192l1.91.59zm1.99-3.172a8.768 8.768 0 011.559-1.142l-1.006-1.729c-.708.412-1.347.88-1.913 1.405l1.36 1.466zm3.357-1.986a16.685 16.685 0 011.944-.594l-.472-1.943c-.77.187-1.496.408-2.177.665l.705 1.872zm3.974-.986a30.001 30.001 0 012.071-.23l-.156-1.995c-.767.06-1.504.142-2.209.247l.294 1.978zm4.172-.335a45.45 45.45 0 011.056-.012v-2c-.373 0-.741.004-1.103.013l.047 1.999zm1.056-.012c.284 0 .58.004.887.013l.057-1.999c-.325-.01-.639-.014-.944-.014v2zm2.673.106c.568.04 1.166.094 1.793.159l.207-1.99a59.49 59.49 0 00-1.856-.164l-.144 1.995zm3.589.368c.578.074 1.176.157 1.796.248l.292-1.978a96.9 96.9 0 00-1.834-.254L200 1.547zm3.591.528c.295.048.594.098.897.15l.336-1.972-.91-.152-.323 1.974zm.065-.836v.775h2V1.24h-2zm0 2.325v1.55h2v-1.55h-2zm0 3.1v.776h2v-.775h-2zm1.235-.196a75.972 75.972 0 00-.9-.211l-.445 1.95c.289.066.581.134.876.205l.469-1.944zm-2.711-.597a57.43 57.43 0 00-1.825-.332l-.325 1.973c.574.095 1.161.201 1.761.32l.389-1.961zm-3.667-.6a42.456 42.456 0 00-1.856-.195l-.163 1.993c.574.047 1.163.109 1.769.185l.25-1.984zm-3.728-.3a29.91 29.91 0 00-.941-.015v2c.289 0 .583.004.882.013l.059-1.999zm-.941-.015c-.272 0-.532.002-.781.005l.024 2c.24-.004.492-.005.757-.005v-2zm-2.36.052a19.77 19.77 0 00-.809.058l.19 1.992c.212-.02.454-.038.726-.053l-.107-1.997zm-.813.059c-.212.021-.426.05-.641.088l.344 1.97a6.84 6.84 0 01.496-.068l-.199-1.99zm-1.876.387c-.196.06-.394.126-.593.198l.684 1.88a9.89 9.89 0 01.495-.166l-.586-1.912zm-.573.191a5.045 5.045 0 00-1.348.686l1.175 1.618c.219-.159.488-.298.817-.41l-.644-1.894zm-3.017 3.278c-.104.452-.152.93-.152 1.432h2c0-.374.036-.701.101-.985l-1.949-.447zm-.152 1.432v.914h2v-.914h-2zm0 2.743v1.828h2v-1.828h-2zm0 3.657v1.828h2v-1.828h-2zm0 3.657v1.828h2v-1.828h-2zm0 3.657v.914h2v-.914h-2zm0 .914c0 .38.036.748.11 1.106l1.958-.407a3.435 3.435 0 01-.068-.699h-2zm1.123 3.168c.467.54 1.06.976 1.75 1.322l.897-1.787c-.5-.25-.869-.536-1.134-.843l-1.513 1.308zm3.664 2.01c.589.146 1.227.258 1.912.337l.229-1.987a13.111 13.111 0 01-1.658-.291l-.483 1.94zm3.805.471c.306.01.62.015.941.015v-2c-.301 0-.594-.005-.877-.013l-.064 1.998zm.941.015c.292 0 .596-.007.911-.02l-.087-1.999c-.289.013-.563.019-.824.019v2zm2.703-.158a42.669 42.669 0 001.763-.225l-.292-1.979a40.69 40.69 0 01-1.681.215l.21 1.989zm3.507-.512c.555-.099 1.131-.21 1.727-.331l-.399-1.96c-.582.119-1.143.226-1.681.323l.353 1.968zm3.444-.698l.854-.195-.452-1.948c-.284.066-.563.13-.838.19l.436 1.953zm-.372-1.169v.782h2v-.782h-2zm0 2.345v1.564h2v-1.564h-2zm0 3.127v.782h2v-.782h-2zm.799-.197c-.301.061-.602.12-.902.178l.373 1.965c.31-.06.621-.12.932-.184l-.403-1.96zm-2.711.491a58.36 58.36 0 01-1.818.255l.245 1.985a57.84 57.84 0 001.883-.264l-.31-1.976zm-3.642.449c-.612.054-1.221.098-1.829.13l.108 1.998c.631-.035 1.264-.08 1.898-.136l-.177-1.992zm-3.66.197c-.306.005-.611.008-.916.008v2c.317 0 .635-.003.952-.009l-.036-2zm27.157-12.878l.415.28.454-.674-.806-.102-.063.496zm-4.982-2.12l.359-.348-.359.348zm1.431-17.225l.236.441.006-.003-.242-.438zM243.435.603h.5v-.5h-.5v.5zm0 34.397v.5h.5V35h-.5zm-8.268 0h-.5v.5h.5V35zm0-12.72h.5v-.5h-.5v.5zm-4.876 0v-.5h-.275l-.147.232.422.268zM222.235 35v.5h.275l.148-.233-.423-.267zm-9.434 0l-.414-.28-.526.78h.94V35zm22.366-18.179v.5h.5v-.5h-.5zm0-10.335h.5v-.5h-.5v.5zm-10.759.742l.263.425.006-.003-.269-.422zm-.053 8.851l-.3.4.007.005.006.005.287-.41zm-2.958 5.285l-.563.835.829.56.563-.835-.829-.56zm-1.69 2.505l-1.126 1.67.829.558 1.126-1.67-.829-.558zm-2.252 3.339l-1.126 1.67.829.558 1.126-1.67-.829-.558zm-2.253 3.339l-1.126 1.67.829.558 1.126-1.67-.829-.558zm-2.252 3.339l-.563.834.829.56.563-.835-.829-.56zm-.149 1.614h1.179v-1h-1.179v1zm3.538 0h2.358v-1h-2.358v1zm4.717 0h1.179v-1h-1.179v1zm1.602-.233l.503-.795-.845-.535-.503.796.845.535zm1.51-2.385l1.007-1.59-.845-.535-1.007 1.59.845.535zm2.014-3.18l1.007-1.59-.845-.534-1.007 1.59.845.535zm2.014-3.18l1.007-1.59-.845-.534-1.007 1.59.845.535zm2.014-3.18l.504-.794-.845-.535-.504.794.845.536zm.081-.562h1.219v-1h-1.219v1zm3.657 0h1.219v-1h-1.219v1zm.719-.5v1.06h1v-1.06h-1zm0 3.18v2.12h1v-2.12h-1zm0 4.24v2.12h1V29.7h-1zm0 4.24V35h1v-1.06h-1zm.5 1.56h1.034v-1h-1.034v1zm3.101 0h2.067v-1h-2.067v1zm4.134 0h1.033v-1h-1.033v1zm1.533-.5v-.956h-1V35h1zm0-2.866v-1.911h-1v1.91h1zm0-3.822V26.4h-1v1.91h1zm0-3.822v-1.911h-1v1.91h1zm0-3.822v-1.911h-1v1.91h1zm0-3.822v-1.91h-1v1.91h1zm0-3.822v-1.91h-1v1.91h1zm0-3.822v-1.91h-1v1.91h1zm0-3.822V3.47h-1v1.91h1zm0-3.822V.603h-1v.955h1zm-.5-1.455h-.95v1h.95v-1zm-2.852 0h-1.901v1h1.901v-1zm-3.803 0h-1.901v1h1.901v-1zm-3.802 0h-1.902v1h1.902v-1zm-3.803 0h-.951v1h.951v-1zm-.951 0c-.291 0-.577.002-.858.007l.016 1c.276-.005.556-.007.842-.007v-1zm-2.577.066a35.54 35.54 0 00-1.719.133l.103.994a34.42 34.42 0 011.67-.129l-.054-.998zm-3.435.364c-.609.103-1.178.225-1.708.367l.258.966a17.909 17.909 0 011.617-.347l-.167-.986zm-3.384.936a8.813 8.813 0 00-.809.392l.483.876c.221-.122.461-.239.718-.349l-.392-.92zm-.803.389a6.977 6.977 0 00-.769.476l.581.813c.204-.145.423-.281.659-.407l-.471-.882zm-2.079 1.748a5.887 5.887 0 00-.851 1.616l.944.327a4.96 4.96 0 01.707-1.344l-.8-.6zm-1.22 3.373a9.45 9.45 0 00-.04.885h1c0-.275.012-.539.036-.793l-.996-.092zm-.04.885v.855h1v-.855h-1zm0 2.564v1.71h1v-1.71h-1zm0 3.418v.855h1v-.855h-1zm0 .855c0 .477.028.932.083 1.367l.992-.127a9.72 9.72 0 01-.075-1.24h-1zm.928 4.027c.239.42.524.801.856 1.144l.718-.696a4.657 4.657 0 01-.705-.943l-.869.495zm.856 1.144c.341.352.731.665 1.166.938l.532-.847a5.196 5.196 0 01-.98-.787l-.718.696zm3.869 2.018c.445.104.915.187 1.409.25l.126-.992a12.763 12.763 0 01-1.306-.232l-.229.974zm14.828-5.569h-.854v1h.854v-1zm-2.564 0h-1.709v1h1.709v-1zm-3.418 0h-.855v1h.855v-1zm-.855 0c-.355 0-.687-.008-.996-.025l-.054.998c.329.018.68.027 1.05.027v-1zm-2.905-.305c-.346-.1-.602-.22-.783-.347l-.574.82c.297.207.662.366 1.077.487l.28-.96zm-.77-.337a1.623 1.623 0 01-.418-.473l-.858.514c.181.3.405.556.676.759l.6-.8zm-.821-1.847a7.122 7.122 0 01-.039-.774h-1c0 .31.015.605.045.882l.994-.108zm-.039-.774v-.808h-1v.808h1zm0-2.425v-.808h-1v.808h1zm0-.808c0-.243.015-.466.043-.669l-.99-.137a5.758 5.758 0 00-.053.806h1zm.465-1.8c.114-.149.251-.272.411-.372l-.526-.85a2.54 2.54 0 00-.679.614l.794.608zm.417-.375c.204-.13.466-.247.796-.346l-.286-.958c-.396.118-.748.27-1.047.46l.537.844zm2.673-.637c.306-.018.632-.027.98-.027v-1c-.365 0-.711.01-1.038.029l.058.998zm.98-.027h.855v-1h-.855v1zm2.564 0h1.709v-1h-1.709v1zm3.419 0h.854v-1h-.854v1zm.354-.5v.861h1v-.861h-1zm0 2.584v1.722h1V9.07h-1zm0 3.445v1.722h1v-1.722h-1zm0 3.445v.861h1v-.861h-1zm-12.856 5.684l.829.56.909-1.347-1.612-.205-.126.992zm-4.982-2.12l.718-.696-.718.696zm1.431-17.225l.472.882.011-.006-.483-.876zM243.435.603h1v-1h-1v1zm0 34.397v1h1v-1h-1zm-8.268 0h-1v1h1v-1zm0-12.72h1v-1h-1v1zm-4.876 0v-1h-.55l-.295.465.845.535zM222.235 35v1h.551l.294-.465-.845-.535zm-9.434 0l-.829-.56L210.92 36h1.881v-1zm22.366-18.179v1h1v-1h-1zm0-10.335h1v-1h-1v1zm-10.759.742l.527.85.01-.006-.537-.844zm-.053 8.851l-.6.8.013.01.014.01.573-.82zm-3.373 5.006l-.563.834 1.658 1.119.563-.835-1.658-1.118zm-1.689 2.504l-1.126 1.67 1.658 1.118 1.126-1.67-1.658-1.118zm-2.253 3.339l-1.126 1.67 1.658 1.118 1.126-1.67-1.658-1.118zm-2.252 3.339l-1.126 1.67 1.658 1.118 1.126-1.67-1.658-1.118zm-2.253 3.339l-.563.835 1.658 1.118.563-.834-1.658-1.119zm.266 2.394h1.179v-2h-1.179v2zm3.538 0h2.358v-2h-2.358v2zm4.717 0h1.179v-2h-1.179v2zm2.024-.465l.504-.795-1.69-1.07-.504.795 1.69 1.07zm1.511-2.385l1.007-1.59-1.69-1.07-1.007 1.59 1.69 1.07zm2.014-3.18l1.007-1.59-1.69-1.07-1.007 1.59 1.69 1.07zm2.014-3.18l1.007-1.59-1.69-1.07-1.007 1.59 1.69 1.07zm2.014-3.18l.503-.795-1.69-1.07-.503.795 1.69 1.07zm-.342-.33h1.219v-2h-1.219v2zm3.657 0h1.219v-2h-1.219v2zm.219-1v1.06h2v-1.06h-2zm0 3.18v2.12h2v-2.12h-2zm0 4.24v2.12h2V29.7h-2zm0 4.24V35h2v-1.06h-2zm1 2.06h1.034v-2h-1.034v2zm3.101 0h2.067v-2h-2.067v2zm4.134 0h1.033v-2h-1.033v2zm2.033-1v-.956h-2V35h2zm0-2.866v-1.911h-2v1.91h2zm0-3.822V26.4h-2v1.91h2zm0-3.822v-1.911h-2v1.91h2zm0-3.822v-1.911h-2v1.91h2zm0-3.822v-1.91h-2v1.91h2zm0-3.822v-1.91h-2v1.91h2zm0-3.822v-1.91h-2v1.91h2zm0-3.822V3.47h-2v1.91h2zm0-3.822V.603h-2v.955h2zm-1-1.955h-.95v2h.95v-2zm-2.852 0h-1.901v2h1.901v-2zm-3.803 0h-1.901v2h1.901v-2zm-3.802 0h-1.902v2h1.902v-2zm-3.803 0h-.951v2h.951v-2zm-.951 0c-.293 0-.582.002-.866.007l.032 2c.273-.005.551-.007.834-.007v-2zm-2.604.066a36.65 36.65 0 00-1.743.135l.205 1.99c.521-.054 1.07-.096 1.646-.128L225.62-.33zm-3.492.37a19.28 19.28 0 00-1.753.378l.516 1.932c.48-.128 1.004-.24 1.572-.337L222.128.04zm-3.496.97c-.3.128-.585.266-.855.414l.966 1.752a7.31 7.31 0 01.674-.327l-.785-1.84zm-.843.408c-.29.155-.565.325-.824.51l1.163 1.627a5.43 5.43 0 01.604-.373l-.943-1.764zm-2.243 1.89a6.424 6.424 0 00-.924 1.75l1.89.656a4.38 4.38 0 01.635-1.208l-1.601-1.199zm-1.318 3.626a10.11 10.11 0 00-.042.931h2c0-.26.011-.509.033-.747l-1.991-.184zm-.042.931v.855h2v-.855h-2zm0 2.564v1.71h2v-1.71h-2zm0 3.418v.855h2v-.855h-2zm0 .855c0 .496.029.973.087 1.43l1.984-.254a9.23 9.23 0 01-.071-1.176h-2zm.993 4.274c.26.456.571.872.932 1.245l1.436-1.392a4.182 4.182 0 01-.63-.842l-1.738.99zm.932 1.245c.371.383.792.72 1.259 1.013l1.063-1.694a4.748 4.748 0 01-.886-.71l-1.436 1.39zm4.114 2.156c.463.11.95.195 1.46.26l.252-1.984a12.254 12.254 0 01-1.255-.223l-.457 1.947zm14.942-6.555h-.854v2h.854v-2zm-2.564 0h-1.709v2h1.709v-2zm-3.418 0h-.855v2h.855v-2zm-.855 0c-.347 0-.67-.008-.969-.024l-.108 1.997c.34.018.699.027 1.077.027v-2zm-2.766-.285c-.31-.09-.512-.19-.635-.276l-1.147 1.638c.354.248.773.427 1.224.558l.558-1.92zm-.609-.257a1.133 1.133 0 01-.289-.33l-1.715 1.028c.21.351.477.657.804.902l1.2-1.6zm-.624-1.5a6.837 6.837 0 01-.036-.721h-2c0 .326.016.638.048.936l1.988-.216zm-.036-.721v-.808h-2v.808h2zm0-2.425v-.808h-2v.808h2zm0-.808c0-.223.014-.423.038-.6l-1.981-.275a6.35 6.35 0 00-.057.875h2zm.362-1.495a1 1 0 01.278-.252l-1.053-1.7a3.033 3.033 0 00-.813.735l1.588 1.217zm.288-.258c.156-.1.374-.2.671-.289l-.572-1.916a4.67 4.67 0 00-1.173.517l1.074 1.688zm2.435-.56c.294-.017.611-.026.95-.026v-2c-.373 0-.73.01-1.068.03l.118 1.996zm.95-.026h.855v-2h-.855v2zm2.564 0h1.709v-2h-1.709v2zm3.419 0h.854v-2h-.854v2zm-.146-1v.861h2v-.861h-2zm0 2.584v1.722h2V9.07h-2zm0 3.445v1.722h2v-1.722h-2zm0 3.445v.861h2v-.861h-2z" fill="#77C2F9" fill-opacity=".9"/></svg>