<svg width="161" height="25" fill="none" xmlns="http://www.w3.org/2000/svg"><path d="M2.695 24h-.5v.412l.404.079.096-.491zm0-3.99l.116-.486-.616-.147v.633h.5zm1.435.315l-.098.49.004.001.094-.491zm3.045-.315l.282.413.005-.003-.287-.41zm1.19-1.47l.447.224.003-.007-.45-.217zm.49-1.015l.45.217.111-.23-.121-.225-.44.238zM.07 1.285v-.5h-.839l.4.738.439-.238zm5.705 0l.447-.224-.138-.276h-.309v.5zm5.705 11.41l-.447.224.138.276h.309v-.5zm.14 0v.5h.34l.125-.316-.465-.184zm4.515-11.41v-.5h-.34l-.125.316.465.184zm5.495 0l.456.206.318-.706h-.774v.5zM13.405 19.52l-.456-.206v.003l.456.203zm-2.835 3.675l-.28-.415.28.415zm-4.83.655c-.117 0-.239-.002-.364-.007l-.039.999c.138.005.272.008.403.008v-1zm-1.1-.06a16.604 16.604 0 01-.739-.09l-.143.99c.271.039.532.071.784.096l.098-.995zm-1.479-.21a25.223 25.223 0 01-.37-.07l-.192.98c.13.026.258.05.384.073l.178-.984zm.034.42v-.499h-1V24h1zm0-1.496v-.998h-1v.998h1zm0-1.995v-.499h-1v.499h1zm-.616-.013c.121.03.242.058.362.085l.223-.975a42.424 42.424 0 01-.353-.082l-.232.972zm1.088.245l.365.074.196-.98a38.012 38.012 0 01-.355-.073l-.206.979zm.37.075c.123.024.246.044.367.063l.147-.99a7.965 7.965 0 01-.327-.055l-.188.982zm1.114.139c.128.007.254.01.379.01v-1c-.107 0-.215-.003-.325-.009l-.054.999zm.379.01a4.3 4.3 0 00.49-.027l-.115-.994a3.29 3.29 0 01-.375.021v1zM7 20.677a2.89 2.89 0 00.457-.254l-.564-.826c-.093.064-.193.12-.3.167l.407.913zm.462-.257c.15-.106.293-.225.429-.356l-.697-.717c-.1.096-.201.18-.306.253l.574.82zm1.096-1.2c.09-.144.174-.296.254-.456l-.894-.448a4.813 4.813 0 01-.21.379l.85.525zm.257-.463l.123-.253-.9-.435-.123.254.9.434zm.368-.76l.122-.255-.9-.434-.123.253.9.435zm.112-.71l-.244-.451-.88.476.244.45.88-.475zm-.732-1.353l-.488-.902-.88.475.488.903.88-.476zm-.976-1.805l-.488-.902-.88.476.488.902.88-.476zm-.977-1.804l-.488-.902-.88.476.489.902.88-.476zm-.976-1.805l-.488-.902-.88.476.489.902.88-.476zm-.976-1.804l-.488-.902-.88.476.489.902.88-.476zm-.976-1.804l-.488-.903-.88.476.489.902.88-.475zm-.976-1.805l-.488-.902-.88.476.488.902.88-.476zM1.73 3.303L1.242 2.4l-.88.476.488.902.88-.475zM.754 1.498l-.244-.45-.88.475.244.451.88-.476zm-.684.287h.475v-1H.07v1zm1.426 0h.951v-1h-.95v1zm1.902 0h.95v-1h-.95v1zm1.902 0h.475v-1H5.3v1zm.028-.276l.237.475.895-.447-.238-.476-.894.448zm.713 1.426l.475.95.895-.447-.476-.95-.894.447zm.95 1.902l.476.95.895-.447-.476-.95-.894.447zm.952 1.901l.475.951.894-.447-.475-.951-.894.447zm.95 1.902l.476.95.894-.447-.475-.95-.895.447zm.951 1.901l.476.951.894-.447-.475-.95-.895.446zm.951 1.902l.238.476.894-.448-.237-.475-.895.447zm.685.752h.035v-1h-.035v1zm.105 0h.035v-1h-.035v1zm.5-.316l.188-.475-.93-.368-.188.475.93.368zm.564-1.426l.377-.951-.93-.368-.377.95.93.369zm.753-1.902l.376-.95-.93-.369-.376.951.93.368zm.752-1.902l.377-.95-.93-.368-.377.95.93.368zm.753-1.901l.376-.951-.93-.368-.376.95.93.369zm.752-1.902l.376-.95-.93-.369-.376.951.93.368zm.753-1.902l.188-.475-.93-.368-.188.475.93.368zm-.277-.159h.458v-1h-.458v1zm1.374 0h.916v-1h-.916v1zm1.831 0h.916v-1h-.916v1zm1.832 0h.458v-1h-.458v1zm.002-.706l-.205.456.911.411.206-.455-.912-.412zm-.617 1.368l-.41.912.91.411.412-.912-.912-.411zm-.822 1.824l-.411.911.911.411.411-.911-.911-.411zm-.823 1.823l-.41.912.91.411.412-.912-.912-.411zm-.822 1.824l-.411.911.911.411.411-.911-.911-.411zm-.823 1.823l-.41.912.91.411.412-.912-.912-.411zm-.822 1.824l-.411.911.911.411.411-.911-.911-.412zm-.823 1.823l-.41.912.91.411.412-.912-.912-.411zm-.822 1.823l-.411.912.911.412.411-.912-.911-.412zm-.823 1.824l-.41.912.91.411.412-.912-.912-.411zm-.822 1.823l-.206.456.912.412.205-.456-.911-.412zm-.207.459c-.078.176-.159.346-.24.511l.894.447c.089-.178.176-.363.26-.552l-.914-.406zm-.793 1.487a8.05 8.05 0 01-.658.889l.759.65c.261-.304.508-.637.74-.998l-.841-.541zm-1.433 1.654a5.42 5.42 0 01-.431.322l.558.83c.175-.118.345-.245.51-.381l-.637-.771zm-.431.322c-.103.07-.21.136-.323.198l.489.873c.135-.076.266-.156.392-.241l-.558-.83zm-1.018.523a6.8 6.8 0 01-.745.237l.25.969a7.9 7.9 0 00.854-.273l-.36-.933zm-1.522.399c-.253.041-.519.074-.796.098l.086.996c.3-.026.59-.062.87-.107l-.16-.987zm-1.604.143a18.04 18.04 0 01-.407.005v1c.146 0 .29-.002.433-.006l-.026-1zM2.695 24h-1v.823l.808.158.192-.981zm0-3.99l.232-.973-1.232-.293v1.266h1zm1.435.315l-.196.98.009.002.187-.982zm3.045-.315l.565.825.008-.006-.573-.819zm1.19-1.47l.895.447.006-.012-.901-.435zm.49-1.015l.9.435.223-.46-.243-.45-.88.475zM.07 1.285v-1h-1.678l.798 1.476.88-.476zm5.705 0l.894-.447-.276-.553h-.618v1zm5.705 11.41l-.894.447.276.553h.618v-1zm.14 0v1h.68l.25-.632-.93-.368zm4.515-11.41v-1h-.68l-.25.632.93.368zm5.495 0l.912.411.636-1.411H21.63v1zM13.405 19.52l-.912-.411-.002.005.914.406zm-2.835 3.675l-.559-.83.559.83zm-4.83.155a8.98 8.98 0 01-.345-.007l-.077 1.999c.144.005.284.008.422.008v-2zm-1.05-.057a16.298 16.298 0 01-.717-.088l-.287 1.98c.278.04.547.073.806.099l.198-1.99zm-1.44-.206a20.55 20.55 0 01-.363-.068l-.384 1.962c.132.026.263.05.391.074l.356-1.968zm.445.913v-.499h-2V24h2zm0-1.496v-.998h-2v.998h2zm0-1.995v-.499h-2v.499h2zm-1.232.474c.123.029.245.058.366.085l.447-1.95a41.794 41.794 0 01-.35-.08l-.463 1.945zm1.102.247l.369.076.392-1.962a37.258 37.258 0 01-.35-.071l-.411 1.957zm.378.077c.13.025.26.047.388.066l.293-1.978a7.625 7.625 0 01-.307-.052l-.374 1.964zm1.182.147c.136.007.27.011.405.011v-2a6.13 6.13 0 01-.299-.008l-.106 1.997zm.405.011c.185 0 .367-.01.547-.03l-.229-1.987a2.786 2.786 0 01-.318.017v2zm1.674-.33c.187-.084.366-.184.536-.3l-1.13-1.65a1.39 1.39 0 01-.22.122l.814 1.827zm.544-.306a3.98 3.98 0 00.49-.406l-1.392-1.435a1.98 1.98 0 01-.244.203l1.146 1.638zm1.236-1.346c.097-.158.19-.323.275-.496l-1.788-.894a4.324 4.324 0 01-.189.339l1.702 1.051zm.282-.508l.122-.254-1.801-.87-.123.254 1.802.87zm.367-.762l.123-.253-1.802-.87-.122.254 1.801.87zm.102-1.164l-.244-.45-1.76.95.244.452 1.76-.952zm-.733-1.353l-.488-.902-1.759.951.488.903 1.76-.952zm-.976-1.805l-.488-.902-1.759.952.488.902 1.76-.952zm-.976-1.804l-.488-.902-1.759.951.488.903 1.76-.952zm-.976-1.804l-.488-.903-1.759.952.488.902 1.76-.951zm-.976-1.805l-.488-.902-1.76.951.489.903 1.759-.952zm-.976-1.804l-.488-.903-1.76.952.489.902 1.759-.951zm-.976-1.805l-.488-.902-1.76.952.489.902 1.759-.952zM2.17 3.065l-.488-.902-1.76.951.489.902 1.759-.951zM1.194 1.26L.95.81l-1.76.95.244.452 1.76-.952zM.07 2.285h.475v-2H.07v2zm1.426 0h.951v-2h-.95v2zm1.902 0h.95v-2h-.95v2zm1.902 0h.475v-2H5.3v2zm-.42-.553l.238.476 1.79-.895-.239-.475-1.788.894zm.714 1.426l.475.951 1.789-.894-.475-.951-1.79.894zm.95 1.902l.476.951 1.789-.894-.476-.951-1.788.894zm.951 1.902l.476.95 1.789-.894-.476-.95-1.789.894zm.951 1.901l.476.951 1.788-.894-.475-.951-1.789.894zm.951 1.902l.475.951 1.79-.894-.476-.951-1.789.894zm.95 1.902l.239.475 1.788-.894-.237-.476-1.79.895zm1.133 1.028h.035v-2h-.035v2zm.105 0h.035v-2h-.035v2zm.965-.632l.188-.476-1.86-.735-.188.475 1.86.736zm.564-1.426l.377-.951-1.86-.736-.377.95 1.86.737zm.753-1.902l.376-.95-1.86-.737-.376.951 1.86.736zm.752-1.902l.377-.95-1.86-.736-.377.95 1.86.736zm.753-1.901l.376-.951-1.86-.736-.376.95 1.86.737zm.752-1.902l.377-.95-1.86-.737-.377.951 1.86.736zm.753-1.902l.188-.475-1.86-.736-.188.475 1.86.736zm-.742.157h.458v-2h-.458v2zm1.374 0h.916v-2h-.916v2zm1.831 0h.916v-2h-.916v2zm1.832 0h.458v-2h-.458v2zM20.718.874l-.205.456 1.823.822.206-.456-1.824-.822zm-.616 1.367l-.412.912 1.823.823.412-.912-1.823-.823zm-.823 1.824l-.411.912 1.823.822.411-.912-1.823-.822zm-.822 1.823l-.412.912 1.823.823.412-.912-1.823-.823zm-.823 1.824l-.411.912 1.823.822.411-.912-1.823-.822zm-.822 1.823l-.412.912 1.823.823.412-.912-1.823-.823zm-.823 1.824l-.411.912 1.823.822.411-.912-1.823-.822zm-.822 1.823l-.412.912 1.823.822.412-.911-1.823-.823zm-.823 1.824l-.411.912 1.823.822.411-.912-1.823-.822zm-.822 1.823l-.412.912 1.823.823.412-.912-1.823-.823zm-.823 1.824l-.206.456 1.824.822.205-.456-1.823-.822zm-.208.46c-.075.17-.152.334-.231.492l1.789.894c.093-.186.183-.377.27-.573l-1.828-.812zm-.757 1.42a7.546 7.546 0 01-.617.834l1.518 1.302c.278-.323.538-.675.782-1.054l-1.683-1.081zm-1.33 1.54c-.129.105-.26.203-.393.293l1.118 1.658a6.85 6.85 0 00.548-.41l-1.273-1.542zm-.393.293c-.09.061-.187.12-.287.176l.977 1.745c.147-.082.29-.17.428-.263l-1.118-1.658zm-.918.47a6.285 6.285 0 01-.69.22l.5 1.937c.316-.082.62-.178.91-.29l-.72-1.866zm-1.422.372c-.24.04-.494.07-.76.094l.174 1.992c.311-.027.614-.064.907-.111l-.32-1.975zm-1.537.137c-.129.003-.26.005-.394.005v2c.15 0 .3-.002.446-.006l-.052-2zm34.165-8.025h.5v-.855l-.745.42.245.435zm-11.55.105l-.305.397.008.006.297-.403zm-1.96-14.14v-.5h-.5v.5h.5zm5.39 0h.5v-.5h-.5v.5zm.805 10.92l-.297.402.01.007.01.007.277-.416zm5.04.105l-.155-.476.155.476zm2.275-1.155l.312.39.188-.15v-.24h-.5zm0-9.87v-.5h-.5v.5h.5zm5.46 0h.5v-.5h-.5v.5zm0 22.715v.5h.5V24h-.5zm-5.46 0h-.5v.5h.5V24zm-.245-9.116c-.16.09-.323.176-.489.258l.444.896c.181-.09.36-.184.535-.282l-.49-.872zm-1.504.697c-.341.127-.693.24-1.057.338l.26.965a12.68 12.68 0 001.147-.366l-.35-.937zm-2.144.58c-.36.064-.729.115-1.108.153l.1.995c.403-.04.798-.095 1.184-.164l-.176-.984zm-2.229.225c-.185.006-.373.009-.563.009v1c.2 0 .398-.003.594-.01l-.03-.999zm-.563.009c-.139 0-.276-.003-.411-.008l-.04 1c.149.005.3.008.45.008v-1zm-1.226-.076a8.167 8.167 0 01-.8-.142l-.224.974c.291.067.59.12.896.16l.128-.992zm-1.574-.366a6.836 6.836 0 01-.741-.308l-.439.898c.274.134.557.252.85.354l.33-.944zm-1.439-.702a6.67 6.67 0 01-.33-.228l-.593.805c.124.09.25.178.38.262l.543-.84zm-.322-.223a3.732 3.732 0 01-.314-.27l-.693.721c.126.122.26.236.398.343l.61-.794zm-.847-.907a4.467 4.467 0 01-.399-.745l-.92.39c.137.326.3.63.488.91l.831-.555zm-.671-1.564a7.453 7.453 0 01-.164-.865l-.991.13c.044.342.106.67.185.982l.97-.247zm-.238-1.756a11.851 11.851 0 01-.008-.451h-1c0 .166.003.33.01.49l.998-.039zm-.008-.451v-.453h-1v.453h1zm0-1.36v-.906h-1v.906h1zm0-1.813v-.906h-1v.906h1zm0-1.813v-.906h-1v.906h1zm0-1.813v-.906h-1v.906h1zm0-1.813v-.453h-1v.453h1zm-.5.047h.45v-1h-.45v1zm1.347 0h.899v-1h-.899v1zm1.797 0h.898v-1h-.898v1zm1.797 0h.449v-1h-.45v1zm-.051-.5v.54h1v-.54h-1zm0 1.62v1.082h1V2.906h-1zm0 2.162v1.08h1v-1.08h-1zm0 2.161V8.31h1V7.23h-1zm0 2.162v.54h1v-.54h-1zm0 .54c0 .238.011.465.035.679l.994-.109a5.283 5.283 0 01-.03-.57h-1zm.462 2.072c.145.239.326.443.546.605l.594-.804a1.093 1.093 0 01-.285-.32l-.855.519zm.566.619c.182.122.378.226.586.312l.384-.923a2.424 2.424 0 01-.416-.221l-.554.832zm1.829.614c.199.02.405.03.618.03v-1a4.99 4.99 0 01-.517-.025l-.101.995zm.618.03c.257 0 .513-.01.768-.03l-.078-.997a8.827 8.827 0 01-.69.027v1zm2.285-.27c.248-.06.495-.13.74-.21l-.31-.95c-.22.071-.441.134-.664.187l.234.973zm.74-.21c.219-.07.43-.147.633-.228l-.37-.929a9.474 9.474 0 01-.573.207l.31.95zm1.859-.837c.204-.126.395-.26.573-.403l-.624-.78a4.86 4.86 0 01-.476.333l.527.85zm.76-.793v-.493h-1v.493h1zm0-1.48v-.988h-1v.988h1zm0-1.975v-.987h-1V7.7h1zm0-1.974V4.74h-1v.987h1zm0-1.974v-.986h-1v.986h1zm0-1.973v-.494h-1v.494h1zm-.5.006h.456v-1h-.455v1zm1.366 0h.91v-1h-.91v1zm1.82 0h.91v-1h-.91v1zm1.82 0h.455v-1h-.455v1zm-.045-.5v.516h1v-.516h-1zm0 1.549v1.032h1V2.834h-1zm0 2.065V5.93h1V4.9h-1zm0 2.065v1.032h1V6.964h-1zm0 2.065v1.032h1V9.03h-1zm0 2.065v1.032h1v-1.032h-1zm0 2.065v1.032h1V13.16h-1zm0 2.065v1.032h1v-1.032h-1zm0 2.065v1.032h1V17.29h-1zm0 2.065v1.032h1v-1.032h-1zm0 2.065v1.032h1V21.42h-1zm0 2.065V24h1v-.516h-1zm.5.016h-.455v1h.455v-1zm-1.365 0h-.91v1h.91v-1zm-1.82 0h-.91v1h.91v-1zm-1.82 0h-.455v1h.455v-1zm.045.5v-.543h-1V24h1zm0-1.628v-1.084h-1v1.084h1zm0-2.17v-1.085h-1v1.085h1zm0-2.17v-1.084h-1v1.084h1zm0-2.17v-.542h-1v.543h1zm-.5-.542h1v-1.71l-1.49.838.49.872zm-11.55.105l-.61.793.009.006.008.006.593-.805zm-1.96-14.14v-1h-1v1h1zm5.39 0h1v-1h-1v1zm.805 10.92l-.594.804.02.015.02.013.554-.832zm5.04.105l-.31-.951.31.951zm2.275-1.155l.625.78.375-.3v-.48h-1zm0-9.87v-1h-1v1h1zm5.46 0h1v-1h-1v1zm0 22.715v1h1v-1h-1zm-5.46 0h-1v1h1v-1zm-.49-9.552a9.965 9.965 0 01-.465.246l.887 1.792c.189-.093.375-.191.558-.294l-.98-1.744zm-1.434.664c-.326.122-.663.23-1.011.324l.519 1.931c.408-.11.805-.236 1.192-.381l-.7-1.874zm-2.057.556a14 14 0 01-1.07.148l.199 1.99c.416-.041.824-.098 1.223-.169l-.352-1.969zm-2.156.219c-.18.005-.363.008-.548.008v2c.205 0 .409-.003.61-.01l-.062-1.998zm-.548.008a9.86 9.86 0 01-.391-.008l-.08 1.999c.156.006.313.009.47.009v-2zm-1.162-.072a7.72 7.72 0 01-.75-.133l-.45 1.948c.307.072.623.128.945.17l.255-1.985zm-1.473-.342a6.353 6.353 0 01-.687-.286l-.877 1.798c.292.142.593.268.903.376l.66-1.888zm-1.332-.65a6.132 6.132 0 01-.305-.211l-1.186 1.61c.132.097.266.19.404.28l1.087-1.68zm-.289-.2a3.244 3.244 0 01-.273-.234L27.7 15.84c.14.134.286.26.44.378l1.218-1.586zm-.736-.788a3.968 3.968 0 01-.354-.662l-1.842.78c.15.353.327.685.534.994l1.662-1.112zm-.603-1.409a6.95 6.95 0 01-.152-.807l-1.983.26c.047.36.112.707.197 1.04l1.938-.493zm-.222-1.652c-.005-.14-.008-.284-.008-.432h-2c0 .172.003.342.01.509l1.998-.077zm-.008-.432v-.453h-2v.453h2zm0-1.36v-.906h-2v.906h2zm0-1.813v-.906h-2v.906h2zm0-1.813v-.906h-2v.906h2zm0-1.813v-.906h-2v.906h2zm0-1.813v-.453h-2v.453h2zm-1 .547h.45v-2h-.45v2zm1.347 0h.899v-2h-.899v2zm1.797 0h.898v-2h-.898v2zm1.797 0h.449v-2h-.45v2zm-.551-1v.54h2v-.54h-2zm0 1.62v1.082h2V2.906h-2zm0 2.162v1.08h2v-1.08h-2zm0 2.161V8.31h2V7.23h-2zm0 2.162v.54h2v-.54h-2zm0 .54c0 .254.012.498.038.733l1.988-.217a4.78 4.78 0 01-.026-.516h-2zm.534 2.33c.176.29.4.545.677.75l1.188-1.61a.595.595 0 01-.154-.175l-1.71 1.036zm.716.777c.211.14.436.26.672.358l.768-1.847a1.922 1.922 0 01-.33-.175l-1.11 1.664zm2.056.695c.217.022.44.033.669.033v-2c-.166 0-.321-.008-.466-.023l-.203 1.99zm.669.033c.27 0 .539-.01.807-.031l-.156-1.994a8.313 8.313 0 01-.651.025v2zm2.402-.284c.261-.063.52-.136.777-.22l-.618-1.902a8.392 8.392 0 01-.627.177l.468 1.945zm.777-.22c.23-.074.45-.154.664-.239l-.74-1.858a8.973 8.973 0 01-.542.195l.618 1.902zm1.968-.887c.22-.137.428-.282.623-.438l-1.25-1.562c-.128.102-.27.202-.426.3l1.053 1.7zm.998-1.219v-.493h-2v.493h2zm0-1.48v-.988h-2v.988h2zm0-1.975v-.987h-2V7.7h2zm0-1.974V4.74h-2v.987h2zm0-1.974v-.986h-2v.986h2zm0-1.973v-.494h-2v.494h2zm-1 .506h.455v-2h-.455v2zm1.365 0h.91v-2h-.91v2zm1.82 0h.91v-2h-.91v2zm1.82 0h.455v-2h-.455v2zm-.545-1v.516h2v-.516h-2zm0 1.549v1.032h2V2.834h-2zm0 2.065V5.93h2V4.9h-2zm0 2.065v1.032h2V6.964h-2zm0 2.065v1.032h2V9.03h-2zm0 2.065v1.032h2v-1.032h-2zm0 2.065v1.032h2V13.16h-2zm0 2.065v1.032h2v-1.032h-2zm0 2.065v1.032h2V17.29h-2zm0 2.065v1.032h2v-1.032h-2zm0 2.065v1.032h2V21.42h-2zm0 2.065V24h2v-.516h-2zm1-.484h-.455v2h.455v-2zm-1.365 0h-.91v2h.91v-2zm-1.82 0h-.91v2h.91v-2zm-1.82 0h-.455v2h.455v-2zm.545 1v-.543h-2V24h2zm0-1.628v-1.084h-2v1.084h2zm0-2.17v-1.085h-2v1.085h2zm0-2.17v-1.084h-2v1.084h2zm0-2.17v-.542h-2v.543h2zM54.157 1.286v-.5h-.5v.5h.5zm5.46 0h.5v-.5h-.5v.5zm0 15.54h-.5v1.73l.923-1.463-.423-.267zm9.8-15.54v-.5h-.276l-.147.233.423.267zm5.46 0h.5v-.5h-.5v.5zm0 22.715v.5h.5V24h-.5zm-5.46 0h-.5v.5h.5V24zm0-15.785h.5V6.462l-.925 1.49.425.263zM59.617 24v.5h.278l.147-.236-.425-.264zm-5.46 0h-.5v.5h.5V24zm-.5-22.715v.516h1v-.516h-1zm0 1.549v1.032h1V2.834h-1zm0 2.065V5.93h1V4.9h-1zm0 2.065v1.032h1V6.964h-1zm0 2.065v1.032h1V9.03h-1zm0 2.065v1.032h1v-1.032h-1zm0 2.065v1.032h1V13.16h-1zm0 2.065v1.032h1v-1.032h-1zm0 2.065v1.032h1V17.29h-1zm0 2.065v1.032h1v-1.032h-1zm0 2.065v1.032h1V21.42h-1zm0 2.065V24h1v-.516h-1zm.5 1.016h.455v-1h-.455v1zm1.365 0h.91v-1h-.91v1zm1.82 0h.91v-1h-.91v1zm1.82 0h.455v-1h-.455v1zm.88-.236l.272-.439-.85-.527-.272.438.85.528zm.816-1.316l.545-.877-.85-.527-.544.877.85.527zm1.09-1.754l.544-.877-.85-.527-.544.877.85.527zm1.088-1.753l.545-.877-.85-.528-.544.877.85.527zm1.09-1.754l.544-.877-.85-.528-.544.877.85.528zm1.088-1.754l.544-.877-.85-.528-.543.877.849.528zm1.089-1.754l.544-.877-.85-.527-.544.876.85.528zm1.089-1.754l.544-.877-.85-.527-.544.877.85.527zm1.089-1.754l.544-.877-.85-.527-.544.877.85.527zm1.089-1.754l.272-.438-.85-.528-.272.439.85.527zm-.653-.702v.493h1v-.493h-1zm0 1.48v.986h1v-.986h-1zm0 1.973v.987h1v-.987h-1zm0 1.973v.987h1v-.987h-1zm0 1.973v.987h1v-.987h-1zm0 1.973v.987h1v-.987h-1zm0 1.974v.986h1v-.986h-1zm0 1.973v.986h1v-.986h-1zm0 1.973V24h1v-.493h-1zm.5.993h.455v-1h-.455v1zm1.365 0h.91v-1h-.91v1zm1.82 0h.91v-1h-.91v1zm1.82 0h.455v-1h-.455v1zm.955-.5v-.516h-1V24h1zm0-1.549V21.42h-1v1.032h1zm0-2.065v-1.032h-1v1.032h1zm0-2.065V17.29h-1v1.032h1zm0-2.065v-1.032h-1v1.032h1zm0-2.065V13.16h-1v1.032h1zm0-2.065v-1.032h-1v1.032h1zm0-2.065V9.03h-1v1.032h1zm0-2.065V6.964h-1v1.032h1zm0-2.065V4.9h-1v1.03h1zm0-2.065V2.834h-1v1.032h1zm0-2.065v-.516h-1v.516h1zm-.5-1.016h-.455v1h.455v-1zm-1.365 0h-.91v1h.91v-1zm-1.82 0h-.91v1h.91v-1zm-1.82 0h-.455v1h.455v-1zm-.878.233l-.272.432.846.533.272-.431-.846-.534zm-.817 1.295l-.544.864.846.533.544-.863-.846-.534zM67.09 4.04l-.545.863.846.534.544-.864-.845-.533zM66 5.767l-.544.863.846.533.544-.863L66 5.767zm-1.088 1.726l-.545.864.846.533.545-.863-.846-.534zM63.82 9.22l-.544.863.846.534.545-.864-.846-.533zm-1.088 1.727l-.544.863.845.533.545-.863-.846-.533zm-1.089 1.726l-.544.864.846.533.544-.863-.846-.534zM60.555 14.4l-.544.863.846.534.544-.864-.846-.533zm-1.089 1.727l-.272.431.846.534.272-.432-.846-.533zm.651.698v-.486h-1v.486h1zm0-1.457v-.971h-1v.971h1zm0-1.942v-.972h-1v.972h1zm0-1.943v-.971h-1v.971h1zm0-1.942v-.972h-1v.972h1zm0-1.943v-.971h-1v.971h1zm0-1.942v-.972h-1v.972h1zm0-1.943v-.971h-1v.971h1zm0-1.942v-.486h-1v.486h1zm-.5-.986h-.455v1h.455v-1zm-1.365 0h-.91v1h.91v-1zm-1.82 0h-.91v1h.91v-1zm-1.82 0h-.455v1h.455v-1zm-.455.5v-1h-1v1h1zm5.46 0h1v-1h-1v1zm0 15.54h-1v3.46l1.846-2.927-.846-.533zm9.8-15.54v-1h-.552l-.294.467.846.533zm5.46 0h1v-1h-1v1zm0 22.715v1h1v-1h-1zm-5.46 0h-1v1h1v-1zm0-15.785h1V4.708l-1.85 2.98.85.527zM59.617 24v1h.556l.294-.473-.85-.527zm-5.46 0h-1v1h1v-1zm-1-22.715v.516h2v-.516h-2zm0 1.549v1.032h2V2.834h-2zm0 2.065V5.93h2V4.9h-2zm0 2.065v1.032h2V6.964h-2zm0 2.065v1.032h2V9.03h-2zm0 2.065v1.032h2v-1.032h-2zm0 2.065v1.032h2V13.16h-2zm0 2.065v1.032h2v-1.032h-2zm0 2.065v1.032h2V17.29h-2zm0 2.065v1.032h2v-1.032h-2zm0 2.065v1.032h2V21.42h-2zm0 2.065V24h2v-.516h-2zm1 1.516h.455v-2h-.455v2zm1.365 0h.91v-2h-.91v2zm1.82 0h.91v-2h-.91v2zm1.82 0h.455v-2h-.455v2zm1.305-.473l.272-.438-1.7-1.055-.272.439 1.7 1.055zm.816-1.315l.545-.877-1.7-1.055-.544.877 1.7 1.055zm1.09-1.754l.544-.877-1.7-1.055-.544.877 1.7 1.055zm1.088-1.754l.544-.877-1.699-1.055-.544.877 1.7 1.055zm1.089-1.754l.544-.877-1.699-1.055-.544.877 1.699 1.055zm1.089-1.753l.544-.877-1.699-1.055-.544.877 1.699 1.055zm1.089-1.754l.544-.877-1.699-1.055-.544.877 1.699 1.055zm1.089-1.754l.544-.877-1.7-1.055-.543.877 1.699 1.055zm1.089-1.754l.544-.877-1.7-1.055-.544.877 1.7 1.055zm1.088-1.754l.273-.439-1.7-1.054-.272.438 1.7 1.055zm-1.577-.966v.493h2v-.493h-2zm0 1.48v.986h2v-.986h-2zm0 1.973v.987h2v-.987h-2zm0 1.973v.987h2v-.987h-2zm0 1.973v.987h2v-.987h-2zm0 1.973v.987h2v-.987h-2zm0 1.974v.986h2v-.986h-2zm0 1.973v.986h2v-.986h-2zm0 1.973V24h2v-.493h-2zm1 1.493h.455v-2h-.455v2zm1.365 0h.91v-2h-.91v2zm1.82 0h.91v-2h-.91v2zm1.82 0h.455v-2h-.455v2zm1.455-1v-.516h-2V24h2zm0-1.549V21.42h-2v1.032h2zm0-2.065v-1.032h-2v1.032h2zm0-2.065V17.29h-2v1.032h2zm0-2.065v-1.032h-2v1.032h2zm0-2.065V13.16h-2v1.032h2zm0-2.065v-1.032h-2v1.032h2zm0-2.065V9.03h-2v1.032h2zm0-2.065V6.964h-2v1.032h2zm0-2.065V4.9h-2v1.03h2zm0-2.065V2.834h-2v1.032h2zm0-2.065v-.516h-2v.516h2zm-1-1.516h-.455v2h.455v-2zm-1.365 0h-.91v2h.91v-2zm-1.82 0h-.91v2h.91v-2zm-1.82 0h-.455v2h.455v-2zm-1.3.467l-.273.431 1.692 1.067.272-.432L68.57.752zm-.818 1.295l-.544.863 1.692 1.067.544-.864-1.692-1.066zm-1.088 1.726l-.545.864 1.692 1.066.544-.863-1.691-1.067zM65.576 5.5l-.544.863 1.692 1.067.544-.863L65.577 5.5zm-1.088 1.727l-.545.863 1.692 1.067.545-.864-1.692-1.066zm-1.089 1.726l-.544.864 1.691 1.066.545-.863-1.692-1.067zM62.31 10.68l-.544.863 1.691 1.067.545-.863-1.692-1.067zm-1.089 1.727l-.544.863 1.691 1.067.545-.864-1.692-1.066zm-1.089 1.726l-.544.864 1.692 1.066.544-.863-1.692-1.067zm-1.089 1.727l-.272.432 1.692 1.066.272-.431-1.692-1.067zm1.574.965v-.486h-2v.486h2zm0-1.457v-.971h-2v.971h2zm0-1.942v-.972h-2v.972h2zm0-1.943v-.971h-2v.971h2zm0-1.942v-.972h-2v.972h2zm0-1.943v-.971h-2v.971h2zm0-1.942v-.972h-2v.972h2zm0-1.943v-.971h-2v.971h2zm0-1.942v-.486h-2v.486h2zm-1-1.486h-.455v2h.455v-2zm-1.365 0h-.91v2h.91v-2zm-1.82 0h-.91v2h.91v-2zm-1.82 0h-.455v2h.455v-2zm28.68 1v-.5h-.5v.5h.5zm7.77 0l.472-.163-.116-.337h-.356v.5zm5.6 16.24l-.473.163.476 1.38.47-1.382-.473-.161zm5.53-16.24v-.5h-.358l-.116.339.474.161zm7.315 0h.5v-.5h-.5v.5zm0 22.715v.5h.5V24h-.5zm-4.935 0h-.5v.5h.5V24zm0-16.8h.5v-.5h-.5v.5zm-.105 0v-.5h-.358l-.115.338.473.162zM98.727 24v.5h.357l.116-.338-.473-.162zm-4.375 0l-.472.166.118.334h.354V24zM88.437 7.2l.471-.166-.117-.334h-.354v.5zm-.14 0v-.5h-.5v.5h.5zm0 16.8v.5h.5V24h-.5zm-5.005 0h-.5v.5h.5V24zm-.5-22.715v.516h1v-.516h-1zm0 1.549v1.032h1V2.834h-1zm0 2.065V5.93h1V4.9h-1zm0 2.065v1.032h1V6.964h-1zm0 2.065v1.032h1V9.03h-1zm0 2.065v1.032h1v-1.032h-1zm0 2.065v1.032h1V13.16h-1zm0 2.065v1.032h1v-1.032h-1zm0 2.065v1.032h1V17.29h-1zm0 2.065v1.032h1v-1.032h-1zm0 2.065v1.032h1V21.42h-1zm0 2.065V24h1v-.516h-1zm.5 1.016h.417v-1h-.417v1zm1.251 0h.834v-1h-.834v1zm1.668 0h.835v-1h-.835v1zm1.669 0h.417v-1h-.417v1zm.917-.5v-.525h-1V24h1zm0-1.575v-1.05h-1v1.05h1zm0-2.1v-1.05h-1v1.05h1zm0-2.1v-1.05h-1v1.05h1zm0-2.1v-1.05h-1v1.05h1zm0-2.1v-1.05h-1v1.05h1zm0-2.1v-1.05h-1v1.05h1zm0-2.1v-1.05h-1v1.05h1zm0-2.1V7.2h-1v.525h1zm-.5-.025h.035v-1h-.035v1zm.105 0h.035v-1h-.035v1zm-.437-.334l.164.467.944-.332-.165-.467-.943.332zm.493 1.4l.329.933.943-.332-.329-.933-.943.332zm.657 1.867l.329.933.943-.332-.328-.933-.944.332zm.657 1.866l.33.934.942-.332-.328-.934-.944.332zm.658 1.867l.328.933.944-.332-.329-.933-.943.332zm.657 1.867l.329.933.943-.332-.329-.933-.943.332zm.657 1.866l.329.934.943-.332-.329-.934-.943.332zm.657 1.867l.329.933.943-.332-.328-.933-.944.332zm.658 1.867l.328.933.944-.332-.33-.933-.942.332zm.657 1.866l.164.467.943-.332-.164-.467-.943.332zm.636.801h.547v-1h-.547v1zm1.64 0h1.094v-1h-1.094v1zm2.188 0h.547v-1h-.547v1zm1.02-.338l.16-.467-.947-.323-.16.466.947.324zm.478-1.4l.32-.934-.947-.323-.319.933.946.324zm.638-1.867l.319-.933-.946-.324-.32.934.947.323zm.638-1.867l.319-.933-.947-.323-.318.933.946.323zm.638-1.866l.318-.934-.946-.323-.319.933.947.324zm.637-1.867l.319-.933-.946-.324-.319.934.946.323zm.638-1.867l.319-.933-.946-.323-.319.933.946.323zm.638-1.866l.319-.934-.946-.323-.319.933.946.324zm.638-1.867l.319-.933-.947-.324-.319.934.947.323zm.638-1.867l.159-.466-.946-.324-.16.467.947.323zm-.314-.128h.026v-1h-.026v1zm.079 0h.026v-1h-.026v1zm-.474-.5v.525h1V7.2h-1zm0 1.575v1.05h1v-1.05h-1zm0 2.1v1.05h1v-1.05h-1zm0 2.1v1.05h1v-1.05h-1zm0 2.1v1.05h1v-1.05h-1zm0 2.1v1.05h1v-1.05h-1zm0 2.1v1.05h1v-1.05h-1zm0 2.1v1.05h1v-1.05h-1zm0 2.1V24h1v-.525h-1zm.5 1.025h.617v-1h-.617v1zm1.85 0h1.234v-1h-1.234v1zm2.468 0h.617v-1h-.617v1zm1.117-.5v-.516h-1V24h1zm0-1.549V21.42h-1v1.032h1zm0-2.065v-1.032h-1v1.032h1zm0-2.065V17.29h-1v1.032h1zm0-2.065v-1.032h-1v1.032h1zm0-2.065V13.16h-1v1.032h1zm0-2.065v-1.032h-1v1.032h1zm0-2.065V9.03h-1v1.032h1zm0-2.065V6.964h-1v1.032h1zm0-2.065V4.9h-1v1.03h1zm0-2.065V2.834h-1v1.032h1zm0-2.065v-.516h-1v.516h1zm-.5-1.016h-.457v1h.457v-1zm-1.372 0h-.914v1h.914v-1zm-1.829 0h-.914v1h.914v-1zm-1.828 0h-.915v1h.915v-1zm-1.829 0h-.457v1h.457v-1zm-.931.339l-.153.45.946.323.154-.45-.947-.323zm-.46 1.353l-.308.902.947.323.307-.902-.946-.323zm-.615 1.805l-.307.902.947.322.307-.902-.947-.322zm-.614 1.804l-.307.902.946.323.307-.903-.946-.322zm-.615 1.804l-.307.903.947.322.307-.902-.947-.322zM98.8 9.696l-.307.902.946.322.308-.902-.947-.322zm-.615 1.804l-.307.903.947.322.307-.902-.947-.323zm-.614 1.805l-.307.902.946.322.308-.902-.947-.322zm-.614 1.804l-.308.902.947.323.307-.902-.947-.323zm-.615 1.805l-.153.45.946.323.154-.45-.947-.323zm.793.449l-.156-.451-.945.326.155.451.946-.326zm-.467-1.353l-.311-.903-.946.326.311.903.946-.326zm-.622-1.805l-.312-.902-.945.326.311.902.946-.326zm-.623-1.804l-.31-.902-.946.326.311.902.945-.326zm-.622-1.805l-.311-.902-.945.326.31.902.946-.326zm-.622-1.804l-.311-.902-.946.326.312.902.945-.326zm-.622-1.805l-.311-.902-.946.326.311.902.946-.326zm-.623-1.804l-.31-.902-.946.326.311.902.945-.326zm-.622-1.804l-.31-.903-.946.326.31.903.946-.326zm-.622-1.805l-.156-.451-.945.326.156.451.945-.326zm-.628-.788h-.486v1h.486v-1zm-1.457 0h-.971v1h.97v-1zm-1.943 0h-.97v1h.97v-1zm-1.942 0h-.971v1h.97v-1zm-1.943 0h-.485v1h.485v-1zm-.485.5v-1h-1v1h1zm7.77 0l.945-.326-.232-.674h-.713v1zm5.6 16.24l-.946.326.952 2.759.94-2.763-.946-.322zm5.53-16.24v-1h-.716l-.231.678.947.322zm7.315 0h1v-1h-1v1zm0 22.715v1h1v-1h-1zm-4.935 0h-1v1h1v-1zm0-16.8h1v-1h-1v1zm-.105 0v-1h-.715l-.231.677.946.323zM98.727 24v1h.715l.231-.677-.946-.323zm-4.375 0l-.943.332.235.668h.708v-1zM88.437 7.2l.943-.332-.235-.668h-.708v1zm-.14 0v-1h-1v1h1zm0 16.8v1h1v-1h-1zm-5.005 0h-1v1h1v-1zm-1-22.715v.516h2v-.516h-2zm0 1.549v1.032h2V2.834h-2zm0 2.065V5.93h2V4.9h-2zm0 2.065v1.032h2V6.964h-2zm0 2.065v1.032h2V9.03h-2zm0 2.065v1.032h2v-1.032h-2zm0 2.065v1.032h2V13.16h-2zm0 2.065v1.032h2v-1.032h-2zm0 2.065v1.032h2V17.29h-2zm0 2.065v1.032h2v-1.032h-2zm0 2.065v1.032h2V21.42h-2zm0 2.065V24h2v-.516h-2zm1 1.516h.417v-2h-.417v2zm1.251 0h.834v-2h-.834v2zm1.668 0h.835v-2h-.835v2zm1.669 0h.417v-2h-.417v2zm1.417-1v-.525h-2V24h2zm0-1.575v-1.05h-2v1.05h2zm0-2.1v-1.05h-2v1.05h2zm0-2.1v-1.05h-2v1.05h2zm0-2.1v-1.05h-2v1.05h2zm0-2.1v-1.05h-2v1.05h2zm0-2.1v-1.05h-2v1.05h2zm0-2.1v-1.05h-2v1.05h2zm0-2.1V7.2h-2v.525h2zm-1 .475h.035v-2h-.035v2zm.105 0h.035v-2h-.035v2zm-.908-.668l.164.467 1.886-.664-.164-.467-1.886.664zm.493 1.4l.328.933 1.887-.664-.329-.933-1.886.664zm.657 1.867l.328.933 1.887-.664-.329-.933-1.886.664zm.657 1.866l.328.934 1.887-.664-.329-.934-1.886.664zm.657 1.867l.329.933 1.886-.664-.328-.933-1.887.664zm.657 1.867l.329.933 1.886-.664-.328-.933-1.887.664zm.658 1.866l.328.934 1.887-.664-.329-.934-1.886.664zm.657 1.867l.328.933 1.887-.664-.329-.933-1.886.664zM92.587 22l.329.933 1.886-.664-.329-.933-1.886.664zm.657 1.866l.165.467 1.886-.664-.164-.467-1.887.664zM94.352 25h.547v-2h-.547v2zm1.64 0h1.094v-2h-1.094v2zm2.188 0h.547v-2h-.547v2zm1.493-.677l.16-.466-1.893-.647-.16.467 1.893.646zm.478-1.4l.319-.933-1.892-.647-.32.934 1.893.646zm.638-1.866l.319-.934-1.892-.646-.32.933 1.893.647zm.638-1.867l.319-.933-1.893-.647-.319.933 1.893.647zm.638-1.867l.319-.933-1.893-.647-.319.934 1.893.646zm.638-1.866l.318-.934-1.892-.646-.319.933 1.893.647zm.637-1.867l.319-.933-1.892-.647-.319.933 1.892.647zm.638-1.867l.319-.933-1.893-.647-.318.934 1.892.646zm.638-1.866l.319-.934-1.893-.646-.319.933 1.893.647zm.638-1.867l.159-.467-1.892-.646-.16.466 1.893.647zm-.787.21h.026v-2h-.026v2zm.079 0h.026v-2h-.026v2zm-.974-1v.525h2V7.2h-2zm0 1.575v1.05h2v-1.05h-2zm0 2.1v1.05h2v-1.05h-2zm0 2.1v1.05h2v-1.05h-2zm0 2.1v1.05h2v-1.05h-2zm0 2.1v1.05h2v-1.05h-2zm0 2.1v1.05h2v-1.05h-2zm0 2.1v1.05h2v-1.05h-2zm0 2.1V24h2v-.525h-2zm1 1.525h.617v-2h-.617v2zm1.85 0h1.234v-2h-1.234v2zm2.468 0h.617v-2h-.617v2zm1.617-1v-.516h-2V24h2zm0-1.549V21.42h-2v1.032h2zm0-2.065v-1.032h-2v1.032h2zm0-2.065V17.29h-2v1.032h2zm0-2.065v-1.032h-2v1.032h2zm0-2.065V13.16h-2v1.032h2zm0-2.065v-1.032h-2v1.032h2zm0-2.065V9.03h-2v1.032h2zm0-2.065V6.964h-2v1.032h2zm0-2.065V4.9h-2v1.03h2zm0-2.065V2.834h-2v1.032h2zm0-2.065v-.516h-2v.516h2zm-1-1.516h-.457v2h.457v-2zm-1.372 0h-.914v2h.914v-2zm-1.829 0h-.914v2h.914v-2zm-1.828 0h-.915v2h.915v-2zm-1.829 0h-.457v2h.457v-2zm-1.404.678l-.153.45 1.893.645.153-.45-1.893-.645zm-.461 1.353l-.307.902 1.893.645.308-.902-1.894-.645zm-.614 1.804l-.307.903 1.893.644.307-.902-1.893-.645zm-.615 1.805l-.307.902 1.893.645.308-.902-1.894-.645zm-.614 1.804l-.307.903 1.893.644.307-.902-1.893-.645zm-.614 1.805l-.308.902 1.894.645.307-.902-1.893-.645zm-.615 1.804l-.307.902 1.893.645.307-.902-1.893-.645zm-.614 1.805l-.308.902 1.894.645.307-.903-1.893-.644zm-.615 1.804l-.307.902 1.893.645.307-.902-1.893-.645zm-.614 1.805l-.154.45 1.893.645.154-.45-1.893-.645zm1.738.447l-.155-.451-1.891.652.155.451 1.891-.652zm-.466-1.353l-.312-.902-1.89.651.31.903 1.892-.652zm-.623-1.805l-.31-.902-1.892.652.311.902 1.891-.652zm-.622-1.804l-.311-.902-1.89.651.31.903 1.891-.652zm-.622-1.805l-.311-.902-1.891.652.311.902 1.89-.652zm-.622-1.804l-.311-.902-1.891.652.31.902 1.892-.652zm-.623-1.805l-.31-.902-1.891.652.31.902 1.891-.652zm-.622-1.804l-.31-.902-1.892.652.311.902 1.891-.652zm-.622-1.804l-.311-.903-1.89.652.31.903 1.891-.652zm-.622-1.805l-.156-.45-1.89.652.155.451 1.89-.652zM91.062.285h-.486v2h.486v-2zm-1.457 0h-.971v2h.97v-2zm-1.943 0h-.97v2h.97v-2zm-1.942 0h-.971v2h.97v-2zm-1.943 0h-.485v2h.485v-2zm41.398 23.925l-.058.497h.002l.056-.497zm-2.625-.525l.13-.483h-.003l-.127.483zm-2.66-1.085l-.277.416.01.006.267-.422zm-1.75-1.925l.435-.248-.006-.01-.429.258zm17.01-18.97h.5v-.422l-.416-.07-.084.492zm0 4.095l-.117.486.617.15V5.8h-.5zm-9.17-.91l-.047-.498h-.002l.049.498zm-1.47.35l.161.473.01-.003-.171-.47zm10.78 14.21h.5v-.63l-.613.143.113.487zm0 4.13l.101.49.399-.082v-.408h-.5zm-7.35.27c-.233 0-.46-.002-.681-.007l-.022 1c.229.005.463.007.703.007v-1zm-2.037-.073a20.21 20.21 0 01-.671-.064l-.113.994c.228.026.464.048.707.067l.077-.997zm-.669-.064a14.022 14.022 0 01-.641-.09l-.162.986c.234.039.463.071.686.098l.117-.994zm-1.918-.35c-.208-.05-.42-.103-.636-.16l-.259.965c.225.06.446.116.663.168l.232-.973zm-.639-.162c-.233-.06-.455-.125-.667-.192l-.305.952c.231.074.471.143.719.208l.253-.968zm-1.936-.697a6.303 6.303 0 01-.583-.326l-.535.844c.211.134.436.26.675.378l.443-.896zm-.573-.32a4.55 4.55 0 01-.47-.36l-.657.754c.182.16.372.305.572.438l.555-.832zm-1.267-1.246a6.112 6.112 0 01-.327-.511l-.868.496c.119.208.246.407.38.595l.815-.58zm-.332-.52a4.523 4.523 0 01-.163-.298l-.895.444c.062.126.129.249.201.368l.857-.514zm-.417-.93a4.953 4.953 0 01-.162-.67l-.985.17c.047.276.112.544.194.803l.953-.303zm-.238-1.365a6.812 6.812 0 01-.009-.353h-1c0 .137.004.272.011.405l.998-.052zm-.009-.353v-.499h-1v.499h1zm0-1.496v-.998h-1v.998h1zm0-1.995v-.998h-1v.998h1zm0-1.995v-.998h-1v.998h1zm0-1.995V9.29h-1v.998h1zm0-1.995v-.499h-1v.499h1zm0-.499c0-.163.005-.323.014-.48l-.998-.06c-.01.177-.016.357-.016.54h1zm.136-1.417c.064-.315.151-.613.261-.894l-.932-.363a6.467 6.467 0 00-.309 1.057l.98.2zm.673-1.718a4.88 4.88 0 01.561-.729l-.731-.682a5.795 5.795 0 00-.677.88l.847.531zm1.253-1.35c.241-.181.505-.351.793-.508l-.479-.878a7.35 7.35 0 00-.916.588l.602.799zm1.66-.915c.288-.115.594-.22.917-.316l-.282-.96c-.352.104-.687.22-1.007.348l.372.928zm1.866-.555c.31-.066.634-.124.971-.174l-.147-.989c-.356.053-.7.115-1.032.185l.208.978zm1.955-.293c.32-.031.65-.056.991-.074l-.053-.998c-.354.018-.699.044-1.034.076l.096.996zm1.99-.108c.165-.003.333-.004.502-.004v-1c-.175 0-.347.001-.518.004l.016 1zm.502-.004c.143 0 .291.002.442.005l.023-1a21.062 21.062 0 00-.465-.005v1zm1.331.041c.285.017.583.038.892.064l.085-.996c-.318-.027-.624-.05-.919-.066l-.058.998zm1.784.15c.289.032.586.066.893.105l.124-.993a57.433 57.433 0 00-.91-.106l-.107.995zm1.784.223c.29.041.587.085.892.132l.152-.988a74.51 74.51 0 00-.904-.134l-.14.99zm1.782.274l.445.075.168-.986a73.792 73.792 0 00-.45-.076l-.163.987zm.029-.418v.512h1v-.512h-1zm0 1.536v1.023h1V3.241h-1zm0 2.047V5.8h1v-.512h-1zm.618.026a42.016 42.016 0 00-.445-.105l-.225.974.435.103.235-.972zm-1.336-.302a39.87 39.87 0 00-.897-.177l-.183.983c.287.053.578.11.874.173l.206-.979zm-1.799-.334c-.307-.049-.61-.093-.908-.132l-.13.991c.288.038.581.08.88.129l.158-.988zm-1.82-.238a25.91 25.91 0 00-.918-.075l-.063.998c.288.018.582.042.882.072l.099-.995zm-1.84-.115c-.156-.003-.31-.005-.463-.005v1c.145 0 .292.002.44.005l.023-1zm-.463-.005c-.179 0-.35.001-.514.003l.012 1c.16-.002.327-.003.502-.003v-1zm-1.55.034c-.192.01-.368.023-.527.038l.095.996c.143-.014.304-.026.486-.035l-.054-.999zm-.529.038a5.666 5.666 0 00-.412.057l.172.985c.115-.02.228-.035.339-.046l-.099-.996zm-1.208.25a7.875 7.875 0 00-.384.128l.342.94a6.68 6.68 0 01.335-.112l-.293-.956zm-.374.125a3.535 3.535 0 00-.434.18l.448.894a2.5 2.5 0 01.308-.128l-.322-.946zm-1.219.757c-.227.241-.402.52-.527.834l.929.37c.081-.202.19-.374.326-.519l-.728-.685zm-.743 1.75a4.434 4.434 0 00-.022.451h1c0-.124.006-.241.017-.352l-.995-.1zm-.022.451v.483h1v-.483h-1zm0 1.449v.966h1v-.966h-1zm0 1.932v.966h1v-.966h-1zm0 1.932v.966h1v-.966h-1zm0 1.932v.966h1v-.966h-1zm0 1.932v.483h1v-.483h-1zm0 .483c0 .178.013.353.038.523l.989-.149a2.473 2.473 0 01-.027-.374h-1zm.387 1.543c.178.31.413.582.7.816l.633-.773a1.942 1.942 0 01-.465-.54l-.868.497zm1.573 1.351a6 6 0 00.923.329l.263-.965a4.938 4.938 0 01-.769-.273l-.417.91zm1.856.526c.295.046.605.082.932.108l.079-.997a11.352 11.352 0 01-.855-.1l-.156.989zm1.857.155c.151.003.305.005.462.005v-1c-.149 0-.296-.002-.439-.005l-.023 1zm.462.005c.191 0 .389-.005.595-.014l-.044-.999c-.193.009-.376.013-.551.013v1zm1.768-.104a27.87 27.87 0 001.158-.147l-.146-.99a27.29 27.29 0 01-1.116.143l.104.994zm2.305-.336c.365-.065.744-.138 1.137-.218l-.2-.98c-.386.079-.757.15-1.114.214l.177.984zm2.267-.46c.185-.041.373-.084.563-.128l-.226-.974c-.187.043-.373.086-.555.126l.218.976zm-.05-.615v.516h1v-.516h-1zm0 1.549v1.032h1V21h-1zm0 2.065v.516h1v-.516h-1zm.4.026l-.448.09.19.982c.153-.03.306-.06.459-.092l-.201-.98zm-1.347.253c-.302.05-.603.098-.903.141l.143.99c.308-.044.617-.093.926-.145l-.166-.986zm-1.808.26c-.303.037-.605.069-.907.097l.093.996c.31-.03.621-.062.933-.1l-.119-.992zm-1.817.17c-.304.02-.608.037-.91.05l.04.998c.312-.012.624-.03.937-.05l-.067-.998zm-1.822.074l-.456.003v1c.157 0 .313-.001.47-.003l-.014-1zm-3.221.363l-.117.993h.004l.113-.993zm-2.625-.525l.259-.966-.006-.002-.253.968zm-2.66-1.085l-.554.832.009.007.01.006.535-.845zm-1.75-1.925l.869-.496-.006-.01-.005-.009-.858.515zm17.01-18.97h1V.861l-.832-.142-.168.986zm0 4.095l-.234.972 1.234.298V5.8h-1zm-9.17-.91l-.095-.996-.004.001.099.995zm-1.47.35l.323.947.009-.004.01-.003-.342-.94zm10.78 14.21h1v-1.259l-1.226.285.226.974zm0 4.13l.202.98.798-.165v-.815h-1zm-7.35-.23c-.229 0-.453-.002-.67-.007l-.044 2c.233.005.471.007.714.007v-2zm-1.998-.071a18.183 18.183 0 01-.653-.063l-.227 1.987c.235.027.476.05.725.07l.155-1.994zm-.65-.062a13.781 13.781 0 01-.618-.088l-.324 1.974c.241.04.477.073.708.1l.234-1.986zm-1.861-.34c-.202-.048-.409-.1-.622-.158l-.518 1.932c.23.061.455.119.677.171l.463-1.945zm-.628-.16a12.29 12.29 0 01-.641-.185l-.609 1.905c.24.077.488.149.745.216l.505-1.936zm-1.84-.662a5.875 5.875 0 01-.538-.3l-1.07 1.69c.227.144.468.278.721.403l.887-1.793zm-.518-.287a4.17 4.17 0 01-.419-.32l-1.314 1.508c.198.172.406.331.624.476l1.109-1.664zm-1.137-1.12a5.565 5.565 0 01-.299-.47l-1.737.993c.127.222.262.434.407.637l1.629-1.16zm-.31-.488a4.028 4.028 0 01-.144-.262l-1.791.889c.068.137.141.271.22.402l1.715-1.029zm-.369-.823a4.364 4.364 0 01-.146-.603l-1.971.338c.051.298.121.588.21.87l1.907-.605zm-.215-1.24a5.832 5.832 0 01-.009-.327h-2c0 .145.004.289.011.43l1.998-.102zm-.009-.327v-.499h-2v.499h2zm0-1.496v-.998h-2v.998h2zm0-1.995v-.998h-2v.998h2zm0-1.995v-.998h-2v.998h2zm0-1.995V9.29h-2v.998h2zm0-1.995v-.499h-2v.499h2zm0-.499c0-.154.005-.303.014-.45l-1.997-.12a9.713 9.713 0 00-.017.57h2zm.125-1.317c.06-.289.139-.56.238-.813l-1.864-.725a7.005 7.005 0 00-.333 1.137l1.959.401zm.608-1.552c.145-.231.312-.45.503-.654l-1.462-1.364a6.315 6.315 0 00-.736.956l1.695 1.062zm1.13-1.216c.221-.167.464-.323.732-.47l-.959-1.755a7.95 7.95 0 00-.978.628l1.205 1.597zm1.545-.85a9.69 9.69 0 01.873-.301L122.121.64c-.366.108-.717.229-1.052.363l.744 1.856zm1.784-.53c.3-.064.613-.12.94-.17l-.293-1.978c-.366.055-.721.118-1.063.191l.416 1.956zm1.899-.286c.312-.03.635-.054.97-.071l-.106-1.998c-.361.02-.714.046-1.056.079l.192 1.99zm1.95-.105c.163-.003.327-.004.494-.004v-2c-.177 0-.353.001-.526.004l.032 2zm.494-.004c.14 0 .283.002.431.005l.045-2a21.506 21.506 0 00-.476-.005v2zm1.302.04c.281.017.573.038.879.064l.169-1.993a34.47 34.47 0 00-.932-.067l-.116 1.996zm1.76.149c.285.03.58.065.883.103l.249-1.985c-.315-.04-.621-.075-.919-.107l-.213 1.989zm1.767.22c.288.041.583.085.886.131l.304-1.977a71.841 71.841 0 00-.911-.134l-.279 1.98zm1.77.272l.443.075.336-1.972a91.024 91.024 0 00-.452-.076l-.327 1.973zm-.389-.911v.512h2v-.512h-2zm0 1.536v1.023h2V3.241h-2zm0 2.047V5.8h2v-.512h-2zm1.235-.46c-.151-.036-.3-.072-.449-.106l-.451 1.948.431.102.469-1.944zm-1.351-.305a40.61 40.61 0 00-.907-.18l-.366 1.966c.283.053.57.11.863.171l.41-1.957zm-1.822-.338a33.43 33.43 0 00-.921-.135l-.261 1.983c.283.037.572.08.866.126l.316-1.974zm-1.85-.242a26.254 26.254 0 00-.935-.077l-.127 1.996c.282.018.57.042.865.07l.197-1.99zm-1.878-.118a20.999 20.999 0 00-.474-.005v2c.141 0 .284.002.429.005l.045-2zm-.474-.005c-.181 0-.354.001-.52.003l.024 2c.157-.002.323-.003.496-.003v-2zm-1.576.035c-.198.01-.381.024-.548.04l.189 1.99c.135-.012.289-.024.465-.033l-.106-1.997zm-.553.04a6.156 6.156 0 00-.448.062l.344 1.97c.104-.018.205-.032.303-.042l-.199-1.99zm-1.304.268a7.94 7.94 0 00-.408.137l.683 1.88c.105-.039.209-.073.31-.104l-.585-1.913zm-.389.13a3.978 3.978 0 00-.496.207l.894 1.789c.073-.037.155-.071.247-.102l-.645-1.894zm-1.423.889a3.13 3.13 0 00-.626.99l1.857.741c.059-.147.135-.264.226-.361l-1.457-1.37zm-.875 2.041a4.873 4.873 0 00-.025.502h2c0-.108.005-.209.015-.302l-1.99-.2zm-.025.502v.483h2v-.483h-2zm0 1.449v.966h2v-.966h-2zm0 1.932v.966h2v-.966h-2zm0 1.932v.966h2v-.966h-2zm0 1.932v.966h2v-.966h-2zm0 1.932v.483h2v-.483h-2zm0 .483c0 .202.014.4.044.597l1.978-.297a1.98 1.98 0 01-.022-.3h-2zm.453 1.792c.211.366.487.684.817.954l1.267-1.547a1.43 1.43 0 01-.348-.402l-1.736.995zm1.799 1.557a6.5 6.5 0 001 .356l.525-1.93a4.488 4.488 0 01-.692-.244l-.833 1.818zm1.987.564c.308.049.631.087.969.114l.159-1.994a10.834 10.834 0 01-.817-.095l-.311 1.975zm1.922.162c.156.003.314.005.474.005v-2c-.146 0-.288-.002-.427-.005l-.047 2zm.474.005c.199 0 .404-.005.616-.014l-.087-1.998c-.186.008-.362.012-.529.012v2zm1.821-.106c.374-.04.767-.09 1.178-.15l-.292-1.98c-.388.058-.753.105-1.096.14l.21 1.99zm2.34-.342c.369-.066.752-.14 1.148-.22l-.399-1.96c-.382.078-.749.149-1.102.212l.353 1.968zm2.288-.464c.187-.041.376-.084.567-.129l-.452-1.948c-.186.043-.37.085-.551.125l.436 1.952zm-.659-1.103v.516h2v-.516h-2zm0 1.549v1.032h2V21h-2zm0 2.065v.516h2v-.516h-2zm.799-.463c-.148.03-.295.06-.442.088l.38 1.963c.155-.03.31-.06.465-.093l-.403-1.959zm-1.33.249c-.297.05-.594.097-.89.14l.286 1.979c.312-.045.625-.094.938-.147l-.334-1.972zm-1.783.257a34.4 34.4 0 01-.895.095l.186 1.991c.315-.029.63-.063.946-.1l-.237-1.986zm-1.791.167c-.3.02-.599.036-.898.049l.082 1.998c.316-.013.633-.03.95-.051l-.134-1.996zm-1.796.073c-.15.002-.299.003-.449.003v2l.477-.003-.028-2zm18.09-8.167l.415.28.454-.674-.806-.102-.063.496zm-3.29-1.4l.359-.348-.359.348zm.945-11.375l.236.441.006-.003-.242-.438zm16.625-1.12h.5v-.5h-.5v.5zm0 22.715v.5h.5V24h-.5zm-5.46 0h-.5v.5h.5V24zm0-8.4h.5v-.5h-.5v.5zm-3.22 0v-.5h-.275l-.147.232.422.268zm-5.32 8.4v.5h.275l.148-.233-.423-.267zm-6.23 0l-.414-.28-.526.78h.94V24zm14.77-12.005v.5h.5v-.5h-.5zm0-6.825h.5v-.5h-.5v.5zm-7.105.49l.263.425.006-.003-.269-.422zm-.035 5.845l-.3.4.007.005.006.005.287-.41zm-2.094 3.395l-.298.441.829.56.298-.441-.829-.56zm-.893 1.323l-.595.882.829.56.595-.882-.829-.56zm-1.19 1.764l-.595.882.829.56.595-.882-.829-.56zm-1.19 1.764l-.595.882.829.56.595-.882-.829-.56zm-1.19 1.764l-.595.882.829.56.595-.882-.829-.56zm-1.19 1.764l-.297.441.829.56.297-.441-.829-.56zm.117 1.221h.519v-1h-.519v1zm1.558 0h1.038v-1h-1.038v1zm2.076 0h1.039v-1h-1.039v1zm2.077 0h.519v-1h-.519v1zm.942-.233l.266-.42-.845-.535-.266.42.845.535zm.798-1.26l.532-.84-.845-.535-.532.84.845.535zm1.064-1.68l.532-.84-.845-.534-.532.84.845.535zm1.064-1.68l.532-.84-.845-.534-.532.84.845.535zm1.064-1.68l.532-.84-.845-.534-.532.84.845.535zm1.064-1.68l.266-.42-.845-.535-.266.42.845.536zm-.157-.187h.403v-1h-.403v1zm1.208 0h.805v-1h-.805v1zm1.61 0h.402v-1h-.402v1zm-.098-.5v.525h1V15.6h-1zm0 1.575v1.05h1v-1.05h-1zm0 2.1v1.05h1v-1.05h-1zm0 2.1v1.05h1v-1.05h-1zm0 2.1V24h1v-.525h-1zm.5 1.025h.455v-1h-.455v1zm1.365 0h.91v-1h-.91v1zm1.82 0h.91v-1h-.91v1zm1.82 0h.455v-1h-.455v1zm.955-.5v-.516h-1V24h1zm0-1.549V21.42h-1v1.032h1zm0-2.065v-1.032h-1v1.032h1zm0-2.065V17.29h-1v1.032h1zm0-2.065v-1.032h-1v1.032h1zm0-2.065V13.16h-1v1.032h1zm0-2.065v-1.032h-1v1.032h1zm0-2.065V9.03h-1v1.032h1zm0-2.065V6.964h-1v1.032h1zm0-2.065V4.9h-1v1.03h1zm0-2.065V2.834h-1v1.032h1zm0-2.065v-.516h-1v.516h1zm-.5-1.016h-.502v1h.502v-1zm-1.507 0h-1.004v1h1.004v-1zm-2.009 0h-1.004v1h1.004v-1zm-2.009 0h-1.004v1h1.004v-1zm-2.009 0h-1.004v1h1.004v-1zm-2.009 0h-.502v1h.502v-1zm-.502 0c-.193 0-.383.001-.569.004l.016 1c.181-.003.365-.004.553-.004v-1zm-1.711.044c-.398.021-.779.05-1.143.088l.102.995c.347-.036.712-.064 1.095-.085l-.054-.998zm-2.288.242c-.406.07-.787.151-1.143.246l.258.966c.322-.086.673-.161 1.053-.226l-.168-.986zm-2.272.63a5.895 5.895 0 00-.55.266l.483.876a5.04 5.04 0 01.459-.223l-.392-.92zm-.545.263a4.8 4.8 0 00-.526.326l.582.813c.128-.091.266-.177.416-.257l-.472-.882zm-1.428 1.202a4.055 4.055 0 00-.587 1.113l.945.328c.109-.314.257-.593.442-.841l-.8-.6zm-.839 2.314a6.524 6.524 0 00-.027.6h1c0-.176.008-.346.023-.508l-.996-.092zm-.027.6v.564h1V6.08h-1zm0 1.693v1.129h1V7.773h-1zm0 2.258v.564h1v-.564h-1zm0 .564c0 .157.005.31.013.461l.999-.06a6.54 6.54 0 01-.012-.401h-1zm.134 1.389c.068.323.162.63.284.916l.921-.391a3.885 3.885 0 01-.226-.73l-.979.205zm.771 1.767c.099.133.206.258.321.377l.718-.696a2.976 2.976 0 01-.238-.28l-.801.6zm.321.377c.119.123.247.24.383.348l.626-.78a3.073 3.073 0 01-.291-.264l-.718.696zm1.244.891c.285.142.594.262.923.362l.291-.957a5.12 5.12 0 01-.772-.301l-.442.896zm1.868.585c.154.028.312.052.474.072l.126-.992a8.907 8.907 0 01-.427-.064l-.173.984zm9.357-4.109h-.564v1h.564v-1zm-1.693 0h-1.129v1h1.129v-1zm-2.258 0h-.564v1h.564v-1zm-.564 0c-.232 0-.448-.005-.649-.016l-.054.998c.221.012.456.018.703.018v-1zm-1.871-.195a1.587 1.587 0 01-.467-.205l-.574.82c.216.15.475.262.762.346l.279-.96zm-.454-.195a.899.899 0 01-.232-.264l-.858.514c.129.216.292.402.49.55l.6-.8zm-.475-1.102a4.641 4.641 0 01-.025-.493h-1c0 .21.01.41.031.6l.994-.107zm-.025-.493v-.534h-1v.534h1zm0-1.601v-.534h-1v.534h1zm0-.534c0-.154.009-.293.027-.418l-.991-.138a4.13 4.13 0 00-.036.556h1zm.272-1.085a.841.841 0 01.226-.205l-.526-.85a1.83 1.83 0 00-.494.447l.794.608zm.232-.208c.118-.076.276-.147.483-.209l-.286-.958a2.91 2.91 0 00-.734.323l.537.844zm1.684-.394c.198-.012.41-.018.637-.018v-1c-.244 0-.476.006-.696.02l.059.998zm.637-.018h.564v-1h-.564v1zm1.693 0h1.129v-1h-1.129v1zm2.258 0h.564v-1h-.564v1zm.064-.5v.569h1V5.17h-1zm0 1.706v1.138h1V6.876h-1zm0 2.275v1.138h1V9.15h-1zm0 2.275v.569h1v-.569h-1zm-8.32 3.754l.829.56.909-1.347-1.612-.205-.126.992zm-3.29-1.4l.718-.696-.718.696zm.945-11.375l.472.882.011-.006-.483-.876zm16.625-1.12h1v-1h-1v1zm0 22.715v1h1v-1h-1zm-5.46 0h-1v1h1v-1zm0-8.4h1v-1h-1v1zm-3.22 0v-1h-.55l-.295.465.845.535zm-5.32 8.4v1h.55l.295-.465-.845-.535zm-6.23 0l-.829-.56-1.052 1.56h1.881v-1zm14.77-12.005v1h1v-1h-1zm0-6.825h1v-1h-1v1zm-7.105.49l.527.85.01-.006-.537-.844zm-.035 5.845l-.6.8.013.01.014.01.573-.82zm-2.509 3.116l-.297.44 1.658 1.12.297-.442-1.658-1.118zm-.892 1.323l-.595.882 1.658 1.118.595-.882-1.658-1.118zm-1.19 1.764l-.595.882 1.658 1.118.595-.882-1.658-1.118zm-1.19 1.764l-.595.882 1.658 1.118.595-.882-1.658-1.118zm-1.19 1.764l-.595.882 1.658 1.118.595-.882-1.658-1.118zM139.998 23l-.298.44 1.658 1.12.298-.442L139.998 23zm.531 2h.519v-2h-.519v2zm1.558 0h1.038v-2h-1.038v2zm2.076 0h1.039v-2h-1.039v2zm2.077 0h.519v-2h-.519v2zm1.364-.465l.266-.42-1.69-1.07-.266.42 1.69 1.07zm.798-1.26l.532-.84-1.69-1.07-.532.84 1.69 1.07zm1.064-1.68l.532-.84-1.69-1.07-.532.84 1.69 1.07zm1.064-1.68l.532-.84-1.69-1.07-.532.84 1.69 1.07zm1.064-1.68l.532-.84-1.69-1.07-.532.84 1.69 1.07zm1.064-1.68l.266-.42-1.69-1.07-.266.42 1.69 1.07zm-.579.045h.403v-2h-.403v2zm1.208 0h.805v-2h-.805v2zm1.61 0h.402v-2h-.402v2zm-.598-1v.525h2V15.6h-2zm0 1.575v1.05h2v-1.05h-2zm0 2.1v1.05h2v-1.05h-2zm0 2.1v1.05h2v-1.05h-2zm0 2.1V24h2v-.525h-2zm1 1.525h.455v-2h-.455v2zm1.365 0h.91v-2h-.91v2zm1.82 0h.91v-2h-.91v2zm1.82 0h.455v-2h-.455v2zm1.455-1v-.516h-2V24h2zm0-1.549V21.42h-2v1.032h2zm0-2.065v-1.032h-2v1.032h2zm0-2.065V17.29h-2v1.032h2zm0-2.065v-1.032h-2v1.032h2zm0-2.065V13.16h-2v1.032h2zm0-2.065v-1.032h-2v1.032h2zm0-2.065V9.03h-2v1.032h2zm0-2.065V6.964h-2v1.032h2zm0-2.065V4.9h-2v1.03h2zm0-2.065V2.834h-2v1.032h2zm0-2.065v-.516h-2v.516h2zm-1-1.516h-.502v2h.502v-2zm-1.507 0h-1.004v2h1.004v-2zm-2.009 0h-1.004v2h1.004v-2zm-2.009 0h-1.004v2h1.004v-2zm-2.009 0h-1.004v2h1.004v-2zm-2.009 0h-.502v2h.502v-2zm-.502 0c-.195 0-.388.002-.577.005l.032 2c.178-.004.36-.005.545-.005v-2zm-1.738.044c-.405.022-.794.052-1.167.09l.205 1.99a22.71 22.71 0 011.07-.083L148.976.33zm-2.345.25c-.419.07-.816.156-1.188.255l.516 1.932c.306-.081.641-.154 1.007-.216l-.335-1.972zm-2.385.661a6.664 6.664 0 00-.595.29l.966 1.75c.125-.068.263-.135.414-.2l-.785-1.84zm-.583.283a5.273 5.273 0 00-.582.36l1.163 1.627c.11-.078.23-.153.361-.223l-.942-1.764zm-1.593 1.344a4.563 4.563 0 00-.659 1.249l1.889.655a2.56 2.56 0 01.371-.706l-1.601-1.198zm-.937 2.567a7.207 7.207 0 00-.029.646h2c0-.162.007-.316.021-.462l-1.992-.184zm-.029.646v.564h2V6.08h-2zm0 1.693v1.129h2V7.773h-2zm0 2.258v.564h2v-.564h-2zm0 .564c0 .166.005.33.014.49l1.997-.118a6.367 6.367 0 01-.011-.372h-2zm.145 1.492c.074.352.177.69.313 1.009l1.841-.783a3.41 3.41 0 01-.197-.637l-1.957.41zm.859 1.963c.112.15.233.292.363.426l1.436-1.392a2.322 2.322 0 01-.196-.23l-1.603 1.196zm.363.426c.134.138.278.269.43.39l1.25-1.56a2.687 2.687 0 01-.244-.222l-1.436 1.392zm1.381.992c.313.154.647.284.999.391l.582-1.913a4.549 4.549 0 01-.695-.271l-.886 1.793zm2.003.629c.162.028.329.053.498.075l.252-1.984a8.67 8.67 0 01-.403-.06l-.347 1.969zm9.444-5.102h-.564v2h.564v-2zm-1.693 0h-1.129v2h1.129v-2zm-2.258 0h-.564v2h.564v-2zm-.564 0c-.224 0-.431-.005-.622-.016l-.108 1.998c.232.012.475.018.73.018v-2zm-1.732-.175a1.115 1.115 0 01-.319-.134l-1.147 1.638c.273.191.586.323.908.417l.558-1.92zm-.293-.115a.397.397 0 01-.103-.121l-1.716 1.028c.16.267.365.503.619.693l1.2-1.6zm-.278-.756a4.095 4.095 0 01-.022-.439h-2c0 .226.011.444.034.655l1.988-.216zm-.022-.439v-.534h-2v.534h2zm0-1.601v-.534h-2v.534h2zm0-.534c0-.134.008-.25.022-.35L146.5 6.75a4.56 4.56 0 00-.041.625h2zm.169-.781a.333.333 0 01.092-.084l-1.052-1.7c-.243.15-.454.34-.628.567l1.588 1.217zm.103-.09c.071-.045.184-.1.358-.152l-.572-1.916a3.414 3.414 0 00-.86.38l1.074 1.688zm1.445-.317c.188-.011.39-.017.608-.017v-2c-.252 0-.494.007-.725.02l.117 1.997zm.608-.017h.564v-2h-.564v2zm1.693 0h1.129v-2h-1.129v2zm2.258 0h.564v-2h-.564v2zm-.436-1v.569h2V5.17h-2zm0 1.706v1.138h2V6.876h-2zm0 2.275v1.138h2V9.15h-2zm0 2.275v.569h2v-.569h-2z" fill="#77C2F9" fill-opacity=".9"/></svg>