<svg width="335" height="38" fill="none" xmlns="http://www.w3.org/2000/svg"><path d="M.71 2.603v-.5h-.5v.5h.5zm30.316 0h.5v-.5h-.5v.5zm0 34.397v.5h.5V37h-.5zm-8.268 0h-.5v.5h.5V37zm0-28.567h.5v-.5h-.5v.5zm-13.78 0v-.5h-.5v.5h.5zm0 28.567v.5h.5V37h-.5zM.71 37h-.5v.5h.5V37zM.21 2.603v.955h1v-.955h-1zm0 2.866V7.38h1V5.47h-1zm0 3.822v1.911h1v-1.91h-1zm0 3.822v1.911h1v-1.91h-1zm0 3.822v1.911h1v-1.91h-1zm0 3.822v1.91h1v-1.91h-1zm0 3.822v1.91h1v-1.91h-1zm0 3.822v1.91h1v-1.91h-1zm0 3.822v1.91h1v-1.91h-1zm0 3.822V37h1v-.956h-1zm.5 1.455h1.034v-1H.71v1zm3.1 0h2.068v-1H3.81v1zm4.134 0h1.034v-1H7.944v1zm1.534-.5v-1.02h-1V37h1zm0-3.06v-2.041h-1v2.04h1zm0-4.082v-2.04h-1v2.04h1zm0-4.08v-2.041h-1v2.04h1zm0-4.082v-2.04h-1v2.04h1zm0-4.08v-2.041h-1v2.04h1zm0-4.082v-2.04h-1v2.04h1zm0-4.08V8.432h-1v1.02h1zm-.5-.521h1.148v-1H8.978v1zm3.445 0h2.297v-1h-2.297v1zm4.593 0h2.297v-1h-2.297v1zm4.594 0h1.148v-1H21.61v1zm.648-.5v1.02h1v-1.02h-1zm0 3.06v2.041h1v-2.04h-1zm0 4.082v2.04h1v-2.04h-1zm0 4.08v2.041h1v-2.04h-1zm0 4.082v2.04h1v-2.04h-1zm0 4.08v2.041h1v-2.04h-1zm0 4.082v2.04h1V31.9h-1zm0 4.08V37h1v-1.02h-1zm.5 1.521h1.034v-1h-1.034v1zm3.1 0h2.067v-1h-2.067v1zm4.134 0h1.034v-1h-1.034v1zm1.534-.5v-.956h-1V37h1zm0-2.866v-1.911h-1v1.91h1zm0-3.822V28.4h-1v1.91h1zm0-3.822v-1.911h-1v1.91h1zm0-3.822v-1.911h-1v1.91h1zm0-3.822v-1.91h-1v1.91h1zm0-3.822v-1.91h-1v1.91h1zm0-3.822v-1.91h-1v1.91h1zm0-3.822V5.47h-1v1.91h1zm0-3.822v-.955h-1v.955h1zm-.5-1.455h-.947v1h.947v-1zm-2.842 0h-1.895v1h1.895v-1zm-3.79 0H22.5v1h1.894v-1zm-3.79 0H18.71v1h1.895v-1zm-3.789 0h-1.894v1h1.894v-1zm-3.79 0h-1.894v1h1.895v-1zm-3.789 0H7.342v1h1.894v-1zm-3.79 0H3.553v1h1.895v-1zm-3.789 0H.71v1h.947v-1zm-.947.5v-1h-1v1h1zm30.316 0h1v-1h-1v1zm0 34.397v1h1v-1h-1zm-8.268 0h-1v1h1v-1zm0-28.567h1v-1h-1v1zm-13.78 0v-1h-1v1h1zm0 28.567v1h1v-1h-1zM.71 37h-1v1h1v-1zm-1-34.397v.955h2v-.955h-2zm0 2.866V7.38h2V5.47h-2zm0 3.822v1.911h2v-1.91h-2zm0 3.822v1.911h2v-1.91h-2zm0 3.822v1.911h2v-1.91h-2zm0 3.822v1.91h2v-1.91h-2zm0 3.822v1.91h2v-1.91h-2zm0 3.822v1.91h2v-1.91h-2zm0 3.822v1.91h2v-1.91h-2zm0 3.822V37h2v-.956h-2zM.71 38h1.034v-2H.71v2zm3.1 0h2.068v-2H3.81v2zm4.134 0h1.034v-2H7.944v2zm2.034-1v-1.02h-2V37h2zm0-3.06v-2.041h-2v2.04h2zm0-4.082v-2.04h-2v2.04h2zm0-4.08v-2.041h-2v2.04h2zm0-4.082v-2.04h-2v2.04h2zm0-4.08v-2.041h-2v2.04h2zm0-4.082v-2.04h-2v2.04h2zm0-4.08V8.432h-2v1.02h2zm-1-.021h1.148v-2H8.978v2zm3.445 0h2.297v-2h-2.297v2zm4.593 0h2.297v-2h-2.297v2zm4.594 0h1.148v-2H21.61v2zm.148-1v1.02h2v-1.02h-2zm0 3.06v2.041h2v-2.04h-2zm0 4.082v2.04h2v-2.04h-2zm0 4.08v2.041h2v-2.04h-2zm0 4.082v2.04h2v-2.04h-2zm0 4.08v2.041h2v-2.04h-2zm0 4.082v2.04h2V31.9h-2zm0 4.08V37h2v-1.02h-2zm1 2.021h1.034v-2h-1.034v2zm3.1 0h2.067v-2h-2.067v2zm4.134 0h1.034v-2h-1.034v2zm2.034-1v-.956h-2V37h2zm0-2.866v-1.911h-2v1.91h2zm0-3.822V28.4h-2v1.91h2zm0-3.822v-1.911h-2v1.91h2zm0-3.822v-1.911h-2v1.91h2zm0-3.822v-1.91h-2v1.91h2zm0-3.822v-1.91h-2v1.91h2zm0-3.822v-1.91h-2v1.91h2zm0-3.822V5.47h-2v1.91h2zm0-3.822v-.955h-2v.955h2zm-1-1.955h-.947v2h.947v-2zm-2.842 0h-1.895v2h1.895v-2zm-3.79 0H22.5v2h1.894v-2zm-3.79 0H18.71v2h1.895v-2zm-3.789 0h-1.894v2h1.894v-2zm-3.79 0h-1.894v2h1.895v-2zm-3.789 0H7.342v2h1.894v-2zm-3.79 0H3.553v2h1.895v-2zm-3.789 0H.71v2h.947v-2zm39.434 1v-.5h-.5v.5h.5zm21.73.689l-.115.487h.002l.113-.487zm4.293 2.438l-.398.302.005.007.005.006.388-.315zm-.106 16.589l-.394-.307-.006.007.4.3zm-4.61 2.703l-.122-.485h-.002l.123.485zm-13.039.795v-.5h-.5v.5h.5zm0 11.183v.5h.5V37h-.5zm-8.268 0h-.5v.5h.5V37zm18.073-17.596l.245.436.006-.003.007-.004-.258-.429zm.053-10.388l-.199.459.007.003.192-.462zm-9.858-.53v-.5h-.5v.5h.5zm0 11.66h-.5v.5h.5v-.5zM40.591 2.603v.955h1v-.955h-1zm0 2.866V7.38h1V5.47h-1zm0 3.822v1.911h1v-1.91h-1zm0 3.822v1.911h1v-1.91h-1zm0 3.822v1.911h1v-1.91h-1zm0 3.822v1.91h1v-1.91h-1zm0 3.822v1.91h1v-1.91h-1zm0 3.822v1.91h1v-1.91h-1zm0 3.822v1.91h1v-1.91h-1zm0 3.822V37h1v-.956h-1zm.5 1.455h1.034v-1H41.09v1zm3.1 0h2.068v-1h-2.067v1zm4.135 0h1.033v-1h-1.033v1zm1.533-.5v-.932h-1V37h1zm0-2.796V32.34h-1v1.864h1zm0-3.727v-1.864h-1v1.864h1zm0-3.728v-.932h-1v.932h1zm-.5-.432h1.14v-1h-1.14v1zm3.419 0h1.14v-1h-1.14v1zm1.14 0c.365 0 .724-.003 1.075-.008l-.016-1a73.03 73.03 0 01-1.06.008v1zm3.227-.082c.761-.042 1.48-.1 2.154-.174l-.108-.994a39.87 39.87 0 01-2.1.17l.054.998zm4.305-.491c.375-.072.731-.151 1.07-.237l-.246-.97a17.63 17.63 0 01-1.013.225l.19.982zm1.069-.237c.478-.12.93-.258 1.355-.415l-.348-.938c-.388.144-.804.271-1.25.383l.243.97zm3.869-1.821a6.302 6.302 0 001.02-1.067l-.8-.6a5.3 5.3 0 01-.859.898l.639.769zm1.015-1.06a6.52 6.52 0 00.781-1.297l-.91-.416a5.514 5.514 0 01-.66 1.099l.79.614zm1.517-4.156c.049-.462.072-.946.072-1.451h-1c0 .474-.022.923-.066 1.347l.994.104zm.072-1.451v-.815h-1v.815h1zm0-2.445v-1.63h-1v1.63h1zm0-3.26V10.5h-1v.815h1zm0-.814c0-.459-.022-.898-.067-1.317l-.994.107c.04.38.061.783.061 1.21h1zm-.756-3.914a5.756 5.756 0 00-.734-1.171l-.776.63c.234.288.436.61.606.97l.904-.429zm-.723-1.158a5.714 5.714 0 00-.96-.987l-.63.777c.306.248.57.52.793.814l.797-.604zm-3.316-2.26c-.396-.139-.817-.26-1.263-.363l-.226.974c.413.096.799.207 1.157.333l.332-.943zm-1.26-.363a18.479 18.479 0 00-1.007-.207l-.175.985c.336.06.653.125.951.196l.23-.974zm-3.025-.482a40.529 40.529 0 00-2.018-.15l-.05 1a39.01 39.01 0 011.968.145l.1-.995zM55.88 2.11a69.557 69.557 0 00-1.008-.007v1c.339 0 .67.002.993.007l.015-1zm-1.008-.007h-1.148v1h1.148v-1zm-3.445 0H49.13v1h2.296v-1zm-4.593 0h-2.297v1h2.297v-1zm-4.593 0H41.09v1h1.149v-1zm12.366 17.543h-1.311v1h1.311v-1zm-3.935 0H49.36v1h1.312v-1zm-.812.5v-.972h-1v.972h1zm0-2.915v-1.943h-1v1.943h1zm0-3.887v-1.943h-1v1.943h1zm0-3.886v-.972h-1v.972h1zm-.5-.472h1.286v-1H49.36v1zm3.856 0H54.5v-1h-1.285v1zm1.285 0c.419 0 .811.006 1.178.017l.031-1a38.96 38.96 0 00-1.209-.017v1zm3.485.214c.458.077.797.172 1.033.275l.399-.918c-.34-.147-.766-.259-1.265-.343l-.167.986zm1.04.278c.176.073.321.164.44.27L60.13 9a2.545 2.545 0 00-.72-.447l-.385.924zm.913 1.177c.034.173.051.368.051.587h1c0-.272-.022-.531-.068-.775l-.983.188zm.051.587v1.378h1v-1.378h-1zm0 4.134v1.378h1v-1.378h-1zm0 1.378c0 .25-.02.477-.057.684l.983.18c.05-.274.074-.562.074-.864h-1zm-.592 1.825a2.166 2.166 0 01-.49.396l.515.858c.27-.162.509-.355.714-.58l-.739-.674zm-.477.389a3.95 3.95 0 01-.965.361l.246.97a4.986 4.986 0 001.208-.459l-.489-.872zm-3.173.652a23.94 23.94 0 01-1.14.026v1c.418 0 .815-.01 1.189-.028l-.05-.998zM41.09 2.603v-1h-1v1h1zm21.73.689l-.23.973.004.001.226-.974zm4.293 2.438l-.797.604.01.013.011.014.776-.631zm-.106 16.589l-.789-.614-.005.007-.005.007.8.6zm-4.61 2.703l-.243-.97h-.004l.246.97zm-13.039.795v-1h-1v1h1zm0 11.183v1h1v-1h-1zm-8.268 0h-1v1h1v-1zm18.073-17.596l.489.872.013-.007.013-.007-.515-.858zm.053-10.388l-.398.917.007.003.007.003.384-.923zm-9.858-.53v-1h-1v1h1zm0 11.66h-1v1h1v-1zM40.091 2.603v.955h2v-.955h-2zm0 2.866V7.38h2V5.47h-2zm0 3.822v1.911h2v-1.91h-2zm0 3.822v1.911h2v-1.91h-2zm0 3.822v1.911h2v-1.91h-2zm0 3.822v1.91h2v-1.91h-2zm0 3.822v1.91h2v-1.91h-2zm0 3.822v1.91h2v-1.91h-2zm0 3.822v1.91h2v-1.91h-2zm0 3.822V37h2v-.956h-2zm1 1.955h1.034v-2H41.09v2zm3.1 0h2.068v-2h-2.067v2zm4.135 0h1.033v-2h-1.033v2zm2.033-1v-.932h-2V37h2zm0-2.796V32.34h-2v1.864h2zm0-3.727v-1.864h-2v1.864h2zm0-3.728v-.932h-2v.932h2zm-1 .068h1.14v-2h-1.14v2zm3.419 0h1.14v-2h-1.14v2zm1.14 0c.368 0 .73-.003 1.083-.008l-.032-2c-.343.005-.693.008-1.052.008v2zm3.255-.083a40.57 40.57 0 002.18-.176l-.217-1.988a38.53 38.53 0 01-2.073.167l.11 1.997zm4.372-.5c.383-.073.75-.154 1.099-.243l-.493-1.938c-.308.078-.636.151-.984.218l.378 1.964zm1.095-.242a13.4 13.4 0 001.407-.431l-.695-1.876c-.369.137-.767.26-1.197.367l.485 1.94zm4.067-1.921c.417-.346.785-.73 1.101-1.152l-1.6-1.2a4.812 4.812 0 01-.778.813l1.277 1.539zm1.09-1.138c.33-.424.61-.891.842-1.396l-1.82-.832c-.17.373-.37.705-.6 1l1.579 1.228zm1.62-4.41c.05-.482.075-.983.075-1.504h-2c0 .458-.021.89-.064 1.295l1.99.208zm.075-1.504v-.815h-2v.815h2zm0-2.445v-1.63h-2v1.63h2zm0-3.26V10.5h-2v.815h2zm0-.814c0-.475-.023-.932-.07-1.37l-1.988.213c.039.361.058.746.058 1.157h2zm-.804-4.128A6.262 6.262 0 0067.89 5.1l-1.553 1.262c.207.254.388.542.542.868l1.808-.857zm-.776-1.246a6.214 6.214 0 00-1.044-1.073l-1.26 1.553c.276.224.511.467.71.728l1.594-1.208zm-3.549-2.429a12.437 12.437 0 00-1.315-.38l-.453 1.95c.397.091.765.197 1.104.317l.664-1.887zm-1.312-.378a18.984 18.984 0 00-1.033-.213l-.35 1.97c.327.058.635.121.923.19l.46-1.947zm-3.088-.493a41.064 41.064 0 00-2.043-.152l-.101 1.998c.691.035 1.339.083 1.943.144l.2-1.99zm-4.077-.216a67.38 67.38 0 00-1.015-.007v2c.336 0 .665.002.986.007l.029-2zm-1.015-.007h-1.148v2h1.148v-2zm-3.445 0H49.13v2h2.296v-2zm-4.593 0h-2.297v2h2.297v-2zm-4.593 0h-1.15v2h1.149v-2zm12.366 17.543h-1.311v2h1.311v-2zm-3.935 0H49.36v2h1.312v-2zm-.312 1v-.972h-2v.972h2zm0-2.915v-1.943h-2v1.943h2zm0-3.887v-1.943h-2v1.943h2zm0-3.886v-.972h-2v.972h2zm-1 .028h1.286v-2h-1.286v2zm3.856 0H54.5v-2h-1.285v2zm1.285 0c.414 0 .801.006 1.162.017l.063-2a39.426 39.426 0 00-1.225-.017v2zm3.402.207c.437.074.732.16.917.24l.797-1.834c-.39-.17-.861-.29-1.38-.378l-.334 1.972zm.93.246c.13.054.227.117.3.182l1.33-1.493a3.046 3.046 0 00-.86-.535l-.77 1.846zm.615.81c.027.138.042.301.042.493h2c0-.299-.024-.59-.077-.87l-1.965.377zm.042.493v1.378h2v-1.378h-2zm0 4.134v1.378h2v-1.378h-2zm0 1.378c0 .223-.017.42-.05.595l1.968.359c.056-.307.082-.626.082-.954h-2zm-.46 1.488a1.72 1.72 0 01-.379.305l1.029 1.715c.309-.186.586-.409.826-.672l-1.477-1.348zm-.353.29a3.51 3.51 0 01-.844.313l.492 1.938c.49-.124.94-.289 1.329-.507l-.977-1.744zm-2.954.588a22.71 22.71 0 01-1.116.026v2c.426 0 .831-.01 1.215-.028l-.1-1.998zm31.477 18.04l-.077.494h.002l.075-.494zm-4.982-1.272l.164-.472-.003-.001-.161.473zm-4.399-3.074l-.404.295.004.005.4-.3zm-.477-24.857l-.433-.25-.005.008.438.242zm2.968-3.18l-.268-.422-.004.002.272.42zm3.922-1.696l.142.48-.142-.48zm4.346-.848l.04.498h.003l-.043-.498zm8.162.053l-.059.497h.008l.007.001.044-.498zm4.028.742l.14-.48-.013-.004-.127.484zm4.187 1.802l.271-.42-.271.42zm2.756 2.968l-.432.252.002.004.43-.256zm-.371 24.698l-.401-.298-.005.006.406.292zm-4.134 3.127l-.186-.464.186.464zm-7.685-4.081l.045.498h.01l.01-.002-.065-.496zm2.491-.53l-.14-.48.14.48zm1.908-1.219l-.397-.304-.003.004.4.3zM98.647 9.016l-.238.44.01.005.228-.445zm-12.19-.053l-.228-.445.228.445zm-1.272 20.829l-.397.304.004.006.005.005.388-.315zm2.014 1.219l.14-.48-.005-.002-.135.482zm2.438.53l-.068.495.013.002.012.001.043-.498zm2.862 5.489c-.446 0-.884-.007-1.313-.02l-.032.999c.44.014.889.021 1.345.021v-1zm-3.928-.198a29.435 29.435 0 01-1.297-.167l-.15.988c.437.067.884.125 1.34.173l.106-.994zm-1.295-.167a24.385 24.385 0 01-1.24-.227l-.205.98c.435.09.865.169 1.291.235l.154-.988zm-3.69-.858c-.397-.12-.8-.252-1.205-.392l-.328.944c.418.145.832.28 1.242.405l.291-.957zm-1.208-.393a10.265 10.265 0 01-1.202-.493l-.439.9c.418.203.858.383 1.32.54l.32-.947zm-3.311-1.945a7.742 7.742 0 01-.849-.956l-.8.6c.29.387.61.747.958 1.08l.69-.724zm-.845-.951a7.351 7.351 0 01-.675-1.117l-.898.44c.217.444.472.867.766 1.267l.806-.59zm-1.41-3.626a10.265 10.265 0 01-.084-1.326h-1c0 .5.03.986.091 1.456l.992-.13zm-.084-1.326v-.94h-1v.94h1zm0-2.822v-1.882h-1v1.882h1zm0-3.763v-1.882h-1v1.882h1zm0-3.763v-1.882h-1v1.882h1zm0-3.763v-.941h-1v.94h1zm0-.941c0-.387.02-.763.06-1.129l-.994-.11c-.044.404-.066.817-.066 1.239h1zm.58-3.305c.133-.348.29-.685.47-1.011l-.875-.484a9.08 9.08 0 00-.529 1.137l.934.358zm.466-1.002c.178-.309.368-.601.569-.877l-.808-.589a10.96 10.96 0 00-.627.964l.866.502zM79.75 5.81c.264-.222.54-.428.83-.615l-.543-.84c-.325.21-.636.441-.932.691l.645.764zm.826-.613c.278-.176.576-.345.892-.507l-.456-.89c-.342.175-.665.36-.97.553l.534.844zm2.801-1.317c.319-.112.65-.22.996-.321l-.284-.96c-.36.107-.708.22-1.044.337l.332.944zm.996-.321c.356-.106.705-.201 1.05-.287l-.244-.97c-.358.09-.721.189-1.09.297l.284.96zm3.173-.71c.365-.052.722-.092 1.07-.12l-.078-.996c-.371.029-.749.071-1.134.126l.142.99zm1.074-.12c.317-.027.64-.05.967-.07l-.062-.999c-.335.02-.665.045-.99.073l.085.996zm2.907-.148c.32-.006.644-.009.972-.009v-1c-.334 0-.665.003-.991.01l.019 1zm.972-.009c.361 0 .712.004 1.052.01l.02-1c-.347-.006-.704-.01-1.072-.01v1zm3.145.109c.362.028.708.06 1.036.1l.117-.994c-.343-.04-.702-.075-1.076-.103l-.077.997zm1.051.101c.32.028.65.067.991.116l.142-.99a19.336 19.336 0 00-1.045-.122l-.088.996zm2.965.487c.32.073.646.153.98.24l.254-.967c-.344-.09-.681-.173-1.011-.248l-.223.975zm.967.237c.371.108.726.221 1.066.339l.327-.945a22.92 22.92 0 00-1.113-.354l-.28.96zm3.108 1.198c.34.174.656.356.948.544l.542-.84a12.059 12.059 0 00-1.034-.594l-.456.89zm.948.544c.266.172.522.362.766.57l.649-.761a8.24 8.24 0 00-.873-.65l-.542.841zm2.065 1.985c.186.256.362.527.53.815l.864-.504a11.033 11.033 0 00-.584-.898l-.81.587zm.532.819c.194.325.362.668.504 1.03l.931-.366a8.18 8.18 0 00-.575-1.176l-.86.512zm1.037 3.285c.039.377.059.769.059 1.176h1c0-.44-.021-.866-.065-1.28l-.994.104zm.059 1.176v.94h1v-.94h-1zm0 2.822v1.882h1v-1.882h-1zm0 3.763v1.882h1v-1.882h-1zm0 3.763v1.882h1v-1.882h-1zm0 3.763v.941h1v-.94h-1zm0 .941c0 .43-.027.845-.082 1.243l.991.135c.061-.446.091-.905.091-1.378h-1zm-.794 3.588a7.128 7.128 0 01-.644 1.043l.802.596c.281-.377.526-.774.735-1.19l-.893-.45zm-.649 1.05a7.79 7.79 0 01-.796.942l.711.703c.327-.33.626-.684.897-1.062l-.812-.584zm-2.779 2.421c-.356.195-.734.373-1.135.533l.372.928c.435-.174.85-.368 1.243-.583l-.48-.878zm-1.135.533c-.275.11-.553.215-.835.316l.336.941c.293-.104.584-.214.871-.329l-.372-.928zm-2.538.854c-.569.157-1.149.297-1.74.418l.2.98a27.03 27.03 0 001.806-.434l-.266-.964zm-3.506.72c-.584.081-1.178.146-1.783.194l.08.996c.623-.05 1.237-.116 1.841-.2l-.138-.99zm-3.577.287c-.297.007-.597.011-.899.011v1c.31 0 .619-.004.925-.012l-.026-1zm-.793-5.872c-.254 0-.5-.002-.736-.005l-.014 1c.242.003.492.005.75.005v-1zm-2.2-.053a22.875 22.875 0 01-.725-.051l-.086.996c.238.02.49.038.756.053l.055-.998zm-.7-.048a14.175 14.175 0 01-.596-.095l-.177.985c.215.038.427.072.637.1l.135-.99zm-1.78-.354a18.82 18.82 0 01-.586-.161l-.28.96c.208.06.414.117.618.17l.248-.969zm-.591-.163a4.823 4.823 0 01-.513-.173l-.376.926c.197.08.403.15.62.21l.269-.963zm-1.409-.696a2.595 2.595 0 01-.352-.356l-.776.63c.145.18.308.344.488.493l.64-.767zm-.343-.345a2.65 2.65 0 01-.264-.423l-.894.449c.103.205.224.4.364.582l.794-.608zm-.553-1.395a4.087 4.087 0 01-.033-.527h-1c0 .225.014.444.041.657l.992-.13zm-.033-.527v-.944h-1v.944h1zm0-2.832v-1.888h-1v1.888h1zm0-3.776v-1.889h-1v1.889h1zm0-3.777v-1.888h-1v1.888h1zm0-3.776v-.944h-1v.944h1zm0-.944c0-.348.031-.665.09-.954l-.978-.202c-.076.363-.112.75-.112 1.156h1zm.937-2.53c.21-.197.46-.373.752-.523l-.456-.89c-.37.19-.698.418-.983.687l.687.727zm.752-.523c.197-.101.416-.196.656-.283l-.34-.94a6.6 6.6 0 00-.772.333l.456.89zm2.082-.658c.455-.086.953-.153 1.496-.201l-.089-.996c-.57.05-1.1.122-1.59.214l.183.983zm3.019-.285c.248-.006.504-.009.766-.009v-1c-.27 0-.534.003-.791.01l.025 1zm.766-.009c.263 0 .519.003.767.01l.027-1a30.31 30.31 0 00-.794-.01v1zm2.292.098c.543.051 1.04.122 1.494.212l.195-.981a15.946 15.946 0 00-1.596-.226l-.093.995zm2.915.607c.239.09.455.19.65.295l.476-.88a6.433 6.433 0 00-.77-.35l-.356.935zm.66.3c.29.15.539.322.748.516l.68-.732a4.309 4.309 0 00-.972-.674l-.456.89zm1.597 2.062c.06.284.092.596.092.938h1c0-.403-.037-.786-.114-1.147l-.978.209zm.092.938v.944h1v-.944h-1zm0 2.832v1.888h1v-1.888h-1zm0 3.776v1.889h1v-1.889h-1zm0 3.777v1.888h1v-1.888h-1zm0 3.776v.944h1v-.944h-1zm0 .944c0 .185-.011.36-.033.527l.992.13a5.22 5.22 0 00.041-.657h-1zm-.322 1.5c-.075.149-.163.29-.264.422l.794.608c.14-.183.261-.377.364-.582l-.894-.449zm-.267.426a2.382 2.382 0 01-.322.35l.665.746a3.3 3.3 0 00.457-.496l-.8-.6zm-1.16.866a4.483 4.483 0 01-.488.173l.28.96a5.39 5.39 0 00.598-.212l-.39-.92zm-.488.173c-.2.059-.4.113-.598.163l.246.97c.21-.054.42-.111.632-.173l-.28-.96zm-1.806.422a15.01 15.01 0 01-.61.092l.13.992c.216-.028.432-.061.65-.1l-.17-.984zm-.59.09c-.22.02-.457.037-.71.052l.056.998c.264-.015.512-.033.744-.054l-.09-.996zm-2.148.1c-.231.002-.472.004-.722.004v1c.254 0 .5-.002.736-.005l-.014-1zM87.2 37.158l-.154.988h.004l.15-.988zm-4.982-1.272l.328-.945-.007-.002-.321.947zm-4.399-3.074l-.807.59.007.01.8-.6zm-.477-24.857l-.865-.501-.005.009-.005.008.875.484zm2.968-3.18l-.535-.845-.008.005.543.84zm3.922-1.696l.283.959-.283-.959zm4.346-.848l.079.997h.006l-.085-.997zm8.162.053l-.117.993.015.002.014.001.088-.996zm4.028.742l.28-.96-.013-.004-.014-.003-.253.967zm4.187 1.802l.542-.84-.542.84zm2.756 2.968l-.864.504.004.007.86-.511zm-.371 24.698l-.803-.597-.004.007-.005.007.812.583zm-4.134 3.127l-.371-.928.371.928zm-7.685-4.081l.09.996.02-.002.02-.002-.13-.992zm2.491-.53l-.28-.96.28.96zm1.908-1.219l-.794-.608-.006.008.8.6zM98.647 9.016l-.476.88.01.005.01.005.456-.89zm-12.19-.053L86 8.073l.457.89zm-1.272 20.829l-.794.607.009.012.009.012.776-.631zm2.014 1.219l.28-.96-.01-.003-.27.963zm2.438.53l-.135.99.024.004.024.002.087-.996zm2.862 4.989c-.44 0-.873-.007-1.298-.02l-.063 1.999c.446.014.9.021 1.361.021v-2zm-3.875-.195c-.435-.047-.86-.102-1.275-.165l-.3 1.978c.444.067.898.126 1.362.175l.213-1.988zm-1.271-.164a23.93 23.93 0 01-1.215-.222l-.41 1.958a26.2 26.2 0 001.317.24l.308-1.976zm-3.621-.842a32.024 32.024 0 01-1.187-.387l-.656 1.89c.424.147.844.284 1.26.41l.583-1.913zm-1.194-.389a9.776 9.776 0 01-1.143-.468l-.877 1.797c.438.214.897.402 1.377.565l.644-1.894zm-3.126-1.832a7.236 7.236 0 01-.794-.895l-1.6 1.2c.307.41.644.79 1.013 1.141l1.38-1.446zm-.787-.886a6.86 6.86 0 01-.629-1.04l-1.796.878c.23.47.5.919.81 1.343l1.615-1.18zm-1.318-3.394a9.77 9.77 0 01-.079-1.262h-2c0 .52.032 1.027.096 1.52l1.983-.258zm-.079-1.262v-.94h-2v.94h2zm0-2.822v-1.882h-2v1.882h2zm0-3.763v-1.882h-2v1.882h2zm0-3.763v-1.882h-2v1.882h2zm0-3.763v-.941h-2v.94h2zm0-.941c0-.37.02-.728.057-1.074l-1.988-.219c-.046.423-.069.854-.069 1.293h2zm.546-3.125c.126-.327.273-.643.442-.95l-1.75-.967c-.214.387-.4.787-.559 1.2l1.867.717zm.432-.932c.17-.294.35-.571.541-.832l-1.616-1.178c-.233.32-.452.656-.656 1.008l1.731 1.002zm1.866-2.264c.248-.209.508-.401.78-.577l-1.086-1.68a9.655 9.655 0 00-.984.729l1.29 1.528zm.772-.572c.264-.168.548-.33.852-.485l-.912-1.78a12.98 12.98 0 00-1.01.575l1.07 1.69zm2.699-1.269c.31-.109.634-.213.971-.313l-.566-1.918a22.04 22.04 0 00-1.069.345l.664 1.886zm.971-.313c.35-.103.693-.197 1.03-.281l-.486-1.94c-.365.091-.735.192-1.11.303l.566 1.918zm3.103-.694c.355-.05.701-.09 1.039-.116l-.158-1.994c-.382.03-.77.074-1.165.13l.284 1.98zm1.045-.117c.314-.027.632-.05.955-.07l-.123-1.996c-.338.02-.673.045-1.002.074l.17 1.992zm2.874-.146c.317-.006.638-.009.963-.009v-2c-.337 0-.671.003-1 .01l.037 1.999zm.963-.009c.358 0 .705.003 1.041.01l.042-2c-.351-.006-.712-.01-1.083-.01v2zm3.106.107c.357.028.696.06 1.017.098l.234-1.986c-.35-.041-.716-.077-1.097-.106l-.154 1.994zm1.046.101c.31.027.63.065.964.113l.284-1.98a19.852 19.852 0 00-1.072-.125L96.65 3.28zm2.898.477c.313.071.635.15.965.236l.506-1.934a33.53 33.53 0 00-1.026-.252l-.445 1.95zm.938.229c.363.106.71.216 1.042.331l.655-1.89a23.803 23.803 0 00-1.137-.361l-.56 1.92zm3.02 1.163c.327.168.628.34.905.52l1.084-1.681a12.462 12.462 0 00-1.077-.619l-.912 1.78zm.905.52c.248.16.485.336.713.53l1.297-1.523a8.752 8.752 0 00-.926-.688l-1.084 1.68zm1.931 1.858c.176.241.343.499.503.773l1.728-1.008a11.337 11.337 0 00-.612-.94l-1.619 1.175zm.507.78c.18.302.336.62.469.959l1.861-.733a8.622 8.622 0 00-.61-1.248l-1.72 1.022zm.969 3.082c.038.359.057.733.057 1.124h2c0-.456-.022-.9-.067-1.332l-1.99.208zm.057 1.124v.94h2v-.94h-2zm0 2.822v1.882h2v-1.882h-2zm0 3.763v1.882h2v-1.882h-2zm0 3.763v1.882h2v-1.882h-2zm0 3.763v.941h2v-.94h-2zm0 .941c0 .41-.026.8-.077 1.175l1.982.27c.064-.47.095-.951.095-1.445h-2zm-.741 3.363a6.6 6.6 0 01-.599.97l1.605 1.193c.298-.4.559-.822.781-1.265l-1.787-.898zm-.608.983a7.334 7.334 0 01-.746.883l1.422 1.406a9.31 9.31 0 00.948-1.123l-1.624-1.166zm-2.613 2.275c-.338.184-.698.353-1.08.507l.742 1.856c.453-.18.886-.384 1.298-.609l-.96-1.754zm-1.08.507c-.27.107-.542.21-.818.309l.672 1.883c.299-.106.595-.218.888-.336l-.742-1.856zm-2.487.836a25.66 25.66 0 01-1.706.41l.4 1.96a27.682 27.682 0 001.84-.442l-.534-1.928zm-3.44.707a29.59 29.59 0 01-1.754.19l.158 1.994a31.92 31.92 0 001.87-.203l-.274-1.981zm-3.521.282c-.293.007-.589.011-.887.011v2c.315 0 .627-.004.937-.012l-.05-2zm-.781-5.872a56.7 56.7 0 01-.729-.005l-.028 2c.244.003.496.005.757.005v-2zm-2.172-.052a23.544 23.544 0 01-.71-.05l-.173 1.992c.245.022.502.04.773.054l.11-1.997zm-.66-.045c-.19-.026-.381-.056-.576-.09l-.353 1.968c.221.04.44.074.658.104l.27-1.982zm-1.723-.342c-.188-.049-.378-.1-.571-.157l-.56 1.92c.213.062.424.12.633.174l.498-1.937zm-.581-.16a4.318 4.318 0 01-.46-.156l-.752 1.854c.215.087.44.163.672.228l.54-1.926zm-1.223-.6a2.09 2.09 0 01-.285-.287l-1.552 1.262c.166.204.352.391.555.561l1.282-1.535zm-.267-.263a2.157 2.157 0 01-.215-.344l-1.787.897c.117.233.255.454.414.661l1.588-1.214zm-.454-1.156a3.574 3.574 0 01-.029-.463h-2c0 .245.015.486.045.721l1.984-.258zm-.029-.463v-.944h-2v.944h2zm0-2.832v-1.888h-2v1.888h2zm0-3.776v-1.889h-2v1.889h2zm0-3.777v-1.888h-2v1.888h2zm0-3.776v-.944h-2v.944h2zm0-.944c0-.318.028-.601.08-.852l-1.958-.405c-.083.4-.122.82-.122 1.257h2zm.78-2.166a2.75 2.75 0 01.638-.442L86 8.073c-.407.21-.775.464-1.097.768l1.373 1.454zm.638-.442c.176-.09.374-.177.597-.257l-.68-1.881a7.086 7.086 0 00-.83.358l.913 1.78zm1.945-.612a15.24 15.24 0 011.448-.194l-.178-1.992c-.583.052-1.13.125-1.638.22l.368 1.966zm2.939-.276c.244-.006.495-.009.754-.009v-2c-.274 0-.542.003-.804.01l.05 2zm.754-.009c.259 0 .51.003.754.01l.053-2c-.263-.007-.532-.01-.807-.01v2zm2.245.096c.528.05 1.01.118 1.444.204l.388-1.962a16.44 16.44 0 00-1.645-.233l-.187 1.991zm2.784.576c.22.084.416.174.59.268l.951-1.76a6.939 6.939 0 00-.829-.377l-.712 1.87zm.61.278c.254.13.463.277.635.438l1.362-1.465a4.808 4.808 0 00-1.084-.753l-.914 1.78zm1.336 1.72c.052.247.081.524.081.835h2a6 6 0 00-.125-1.25l-1.956.416zm.081.835v.944h2v-.944h-2zm0 2.832v1.888h2v-1.888h-2zm0 3.776v1.889h2v-1.889h-2zm0 3.777v1.888h2v-1.888h-2zm0 3.776v.944h2v-.944h-2zm0 .944c0 .165-.01.319-.029.463l1.984.258c.03-.235.045-.476.045-.721h-2zm-.269 1.275c-.06.121-.132.235-.214.343l1.588 1.215a4.12 4.12 0 00.414-.66l-1.787-.898zm-.22.351a1.88 1.88 0 01-.255.276l1.33 1.494a3.88 3.88 0 00.525-.57l-1.6-1.2zm-.956.706a3.896 3.896 0 01-.432.153l.56 1.92c.226-.066.445-.143.654-.232l-.782-1.84zm-.432.153c-.195.057-.388.11-.58.158l.491 1.939c.216-.055.432-.114.649-.177l-.56-1.92zm-1.752.409c-.197.034-.394.064-.588.09l.258 1.983c.223-.03.447-.064.672-.102l-.342-1.971zm-.55.085c-.213.02-.444.036-.693.05l.113 1.997c.269-.015.523-.033.761-.055l-.18-1.992zm-2.109.097c-.229.003-.467.005-.715.005v2c.257 0 .504-.002.744-.005l-.029-2zm37.58 2.383h.5v-.5h-.5v.5zm-9.699-2.385l-.264.425.004.002.26-.427zm.053-23.532l.261.426.004-.002-.265-.424zm9.646-2.491v.5h.5v-.5h-.5zm0-4.399v-.5h-.5v.5h.5zm8.162 0h.5v-.5h-.5v.5zm0 4.399h-.5v.5h.5v-.5zm9.593 2.491l-.266.424.003.001.263-.425zm2.12 21.518l.379.325-.379-.325zm-5.035 3.339l.163.473.004-.002-.167-.471zm-6.678 1.06v-.5h-.5v.5h.5zm0 4.505v.5h.5v-.5h-.5zm-8.162 0h-.5v.5h.5v-.5zm.106-27.454h.5v-.5h-.5v.5zm-3.922 1.166l-.303-.398.303.398zm0 15.264l-.284.412.008.005.008.005.268-.422zm3.922 1.007v.5h.5v-.5h-.5zm7.95.053h-.5v.5h.5v-.5zm3.869-1.06l-.278-.416-.006.004.284.412zm.053-15.264l.302-.398-.302.398zm-3.922-1.166v-.5h-.5v.5h.5zM130.9 32.525c-.28 0-.556-.004-.828-.013l-.031 1c.283.009.569.013.859.013v-1zm-2.475-.12a20.621 20.621 0 01-1.63-.23l-.179.985c.554.1 1.124.18 1.708.24l.101-.995zm-3.228-.595a15.924 15.924 0 01-1.549-.517l-.366.93c.53.21 1.08.392 1.647.55l.268-.963zm-3.03-1.196c-.24-.127-.476-.261-.707-.401l-.519.854c.247.15.5.294.758.431l.468-.884zm-.703-.399a8.883 8.883 0 01-.851-.6l-.624.782c.296.237.612.46.948.668l.527-.85zm-2.271-2.086a7.123 7.123 0 01-.937-1.824l-.945.326c.26.753.616 1.446 1.068 2.079l.814-.581zm-1.366-3.857a11.2 11.2 0 01-.048-1.052h-1c0 .392.017.775.052 1.147l.996-.095zm-.048-1.052v-1.047h-1v1.047h1zm0-3.14v-2.094h-1v2.094h1zm0-4.187v-1.047h-1v1.047h1zm0-1.047c0-.378.015-.744.046-1.097l-.996-.088c-.034.384-.05.78-.05 1.185h1zm.467-3.22a7.42 7.42 0 01.936-1.915l-.825-.566a8.437 8.437 0 00-1.062 2.171l.951.31zm2.387-3.473c.274-.22.567-.426.882-.619l-.523-.852a9.424 9.424 0 00-.985.692l.626.78zm.886-.621c.229-.144.463-.281.701-.412l-.482-.876c-.255.14-.505.287-.75.44l.531.848zm2.167-1.114a15.694 15.694 0 011.538-.541l-.283-.96c-.562.167-1.108.359-1.636.577l.381.924zm3.126-.928a19.408 19.408 0 011.622-.244l-.108-.994a20.41 20.41 0 00-1.705.257l.191.981zm3.263-.36c.271-.008.546-.013.825-.013v-1c-.29 0-.576.005-.859.014l.034 1zm1.325-.513v-1.1h-1v1.1h1zm0-3.3V.219h-1v1.1h1zm-.5-.599h1.02v-1h-1.02v1zm3.06 0h2.041v-1h-2.041v1zm4.081 0h1.021v-1h-1.021v1zm.521-.5v1.1h1v-1.1h-1zm0 3.3v1.099h1v-1.1h-1zm.5 1.599c.276 0 .55.005.82.014l.034-1c-.282-.01-.567-.014-.854-.014v1zm2.452.13c.552.06 1.089.142 1.612.245l.193-.981a20.172 20.172 0 00-1.696-.258l-.109.994zm3.191.633c.526.157 1.035.337 1.528.541l.383-.923a16.585 16.585 0 00-1.626-.576l-.285.958zm2.987 1.242c.237.13.469.267.697.41l.531-.848a15.004 15.004 0 00-.746-.438l-.482.876zm.7.411c.315.195.61.403.885.624l.625-.78a9.84 9.84 0 00-.984-.694l-.526.85zm2.352 2.18c.403.577.722 1.213.956 1.912l.948-.318a8.43 8.43 0 00-1.085-2.167l-.819.573zm1.39 4.035c.032.354.049.72.049 1.098h1c0-.407-.018-.803-.053-1.189l-.996.091zm.049 1.098v1.047h1v-1.047h-1zm0 3.14v2.094h1v-2.094h-1zm0 4.187v1.047h1v-1.047h-1zm0 1.047a9.1 9.1 0 01-.103 1.384l.989.152a10.12 10.12 0 00.114-1.536h-1zm-.995 3.963a7.41 7.41 0 01-.793 1.118l.759.65c.343-.4.643-.823.9-1.268l-.866-.5zm-.793 1.118a9.961 9.961 0 01-.493.534l.709.705a11.2 11.2 0 00.543-.589l-.759-.65zm-1.59 1.49c-.383.287-.79.553-1.224.796l.49.872a11.97 11.97 0 001.335-.87l-.601-.799zm-2.545 1.438a14.67 14.67 0 01-.688.265l.335.942c.251-.09.497-.184.738-.284l-.385-.923zm-.683.263c-.26.09-.522.173-.787.251l.281.96c.28-.083.557-.17.832-.265l-.326-.946zm-2.393.644a19.82 19.82 0 01-1.636.253l.112.994a20.834 20.834 0 001.719-.266l-.195-.98zm-3.291.374c-.275.01-.552.015-.831.015v1c.291 0 .58-.005.866-.015l-.035-1zm-1.331.515v1.126h1v-1.126h-1zm0 3.379v1.126h1v-1.126h-1zm.5.626h-1.021v1h1.021v-1zm-3.061 0h-2.041v1h2.041v-1zm-4.081 0h-1.02v1h1.02v-1zm-.52.5v-1.126h-1v1.126h1zm0-3.379v-1.126h-1v1.126h1zm-.394-24.575c-.38 0-.746.021-1.1.064l.12.992a8.18 8.18 0 01.98-.056v-1zm-3.253.673c-.345.167-.67.365-.972.595l.605.796a4.7 4.7 0 01.802-.49l-.435-.9zm-.972.595a4.822 4.822 0 00-.729.678l.756.654c.163-.188.355-.367.578-.536l-.605-.796zm-1.632 2.479c-.069.318-.102.65-.102.993h1c0-.277.027-.537.08-.78l-.978-.213zm-.102.993v1.166h1v-1.166h-1zm0 3.498v2.332h1v-2.332h-1zm0 4.664v1.166h1v-1.166h-1zm0 1.166c0 .33.034.65.105.955l.974-.227a3.225 3.225 0 01-.079-.728h-1zm1.028 2.658c.212.224.454.43.725.616l.567-.824a3.567 3.567 0 01-.566-.48l-.726.688zm.741.626a6.4 6.4 0 00.988.51l.38-.925a5.362 5.362 0 01-.833-.43l-.535.845zm3.112 1.03c.348.037.707.055 1.078.055v-1c-.338 0-.662-.017-.972-.05l-.106.995zm1.578-.445v-1.09h-1v1.09h1zm0-3.27v-2.18h-1v2.18h1zm0-4.359v-2.18h-1v2.18h1zm0-4.359v-2.18h-1v2.18h1zm0-4.36v-1.089h-1v1.09h1zm7.95 16.401v-1.093h-1v1.093h1zm0-3.28V22.1h-1v2.187h1zm0-4.372v-2.186h-1v2.186h1zm0-4.372v-2.187h-1v2.187h1zm0-4.373v-1.093h-1v1.093h1zm-.5-.593c.342 0 .668.019.979.056l.12-.992a9.167 9.167 0 00-1.099-.064v1zm2.817.574a4.7 4.7 0 01.802.49l.605-.796a5.738 5.738 0 00-.972-.595l-.435.9zm.802.49c.223.169.415.348.578.536l.756-.654a4.822 4.822 0 00-.729-.678l-.605.796zm1.259 1.895c.053.244.081.504.081.781h1a4.68 4.68 0 00-.103-.993l-.978.212zm.081.781v1.166h1v-1.166h-1zm0 3.498v2.332h1v-2.332h-1zm0 4.664v1.166h1v-1.166h-1zm0 1.166c0 .261-.029.504-.084.73l.971.237c.076-.31.113-.632.113-.967h-1zm-.785 1.97a3.705 3.705 0 01-.583.476l.555.832a4.68 4.68 0 00.74-.607l-.712-.7zm-.589.48a4.928 4.928 0 01-.807.45l.404.915c.344-.152.667-.332.97-.541l-.567-.824zm-2.624.92a8.675 8.675 0 01-.961.052v1a9.65 9.65 0 001.072-.058l-.111-.993zm-9.017 6.011h1v-1h-1v1zm-9.699-2.385l-.528.85.008.004.52-.854zm.053-23.532l.522.852.009-.005-.531-.847zm9.646-2.491v1h1v-1h-1zm0-4.399v-1h-1v1h1zm8.162 0h1v-1h-1v1zm0 4.399h-1v1h1v-1zm9.593 2.491l-.531.847.005.003.526-.85zm2.12 21.518l.759.65-.759-.65zm-5.035 3.339l.326.945.009-.003-.335-.942zm-6.678 1.06v-1h-1v1h1zm0 4.505v1h1v-1h-1zm-8.162 0h-1v1h1v-1zm.106-27.454h1v-1h-1v1zm-3.922 1.166l-.605-.797.605.797zm0 15.264l-.568.823.016.011.016.01.536-.844zm3.922 1.007v1h1v-1h-1zm7.95.053h-1v1h1v-1zm3.869-1.06l-.555-.832-.007.004-.006.005.568.823zm.053-15.264l.604-.797-.604.797zm-3.922-1.166v-1h-1v1h1zM130.9 32.025c-.275 0-.545-.004-.812-.012l-.063 1.998c.288.01.58.014.875.014v-2zm-2.425-.118a20.103 20.103 0 01-1.59-.223l-.359 1.967c.568.104 1.151.186 1.748.246l.201-1.99zm-3.144-.579a15.477 15.477 0 01-1.501-.5l-.731 1.861c.547.215 1.112.404 1.696.566l.536-1.927zm-2.93-1.155a13.23 13.23 0 01-.681-.387l-1.039 1.708c.256.156.518.305.784.446l.936-1.768zm-.673-.382a8.398 8.398 0 01-.803-.566l-1.248 1.563c.312.25.645.483.996.701l1.055-1.698zm-2.128-1.953a6.606 6.606 0 01-.871-1.697l-1.89.654A8.632 8.632 0 00117.972 29l1.628-1.162zm-1.275-3.613a10.509 10.509 0 01-.046-1.005h-2c0 .407.018.805.055 1.194l1.991-.189zm-.046-1.005v-1.047h-2v1.047h2zm0-3.14v-2.094h-2v2.094h2zm0-4.187v-1.047h-2v1.047h2zm0-1.047c0-.364.015-.715.045-1.052l-1.993-.177c-.035.4-.052.81-.052 1.229h2zm.442-3.065c.215-.66.507-1.254.873-1.787l-1.649-1.132a8.906 8.906 0 00-1.125 2.3l1.901.619zm2.226-3.238c.256-.206.532-.4.829-.583l-1.045-1.704a9.94 9.94 0 00-1.038.728l1.254 1.559zm.838-.588c.221-.138.446-.27.675-.397l-.963-1.752a15.42 15.42 0 00-.774.455l1.062 1.694zm2.092-1.075a15.13 15.13 0 011.489-.524l-.567-1.918c-.578.171-1.14.369-1.685.593l.763 1.85zm3.031-.9a18.9 18.9 0 011.58-.237l-.216-1.988c-.596.064-1.178.152-1.747.263l.383 1.963zm3.184-.35c.266-.009.535-.013.808-.013v-2c-.295 0-.587.005-.876.015l.068 1.998zm1.808-1.013v-1.1h-2v1.1h2zm0-3.3V.219h-2v1.1h2zm-1-.099h1.02v-2h-1.02v2zm3.06 0h2.041v-2h-2.041v2zm4.081 0h1.021v-2h-1.021v2zm.021-1v1.1h2v-1.1h-2zm0 3.3v1.099h2v-1.1h-2zm1 2.099c.271 0 .538.005.803.014l.068-2c-.288-.01-.578-.014-.871-.014v2zm2.397.127c.539.059 1.062.139 1.57.239l.387-1.963c-.566-.111-1.146-.2-1.739-.264l-.218 1.988zm3.103.615c.51.152 1.003.327 1.48.524l.766-1.847a17.16 17.16 0 00-1.675-.594l-.571 1.917zm2.889 1.2c.228.127.452.258.673.396l1.062-1.694a15.896 15.896 0 00-.771-.453l-.964 1.752zm.678.4c.299.184.577.38.835.588l1.251-1.56c-.324-.26-.669-.504-1.035-.73l-1.051 1.702zm2.205 2.04c.375.536.672 1.13.892 1.785l1.896-.636a8.924 8.924 0 00-1.149-2.294L150.334 10zm1.302 3.795c.031.337.047.688.047 1.052h2c0-.421-.019-.833-.055-1.235l-1.992.183zm.047 1.052v1.047h2v-1.047h-2zm0 3.14v2.094h2v-2.094h-2zm0 4.187v1.047h2v-1.047h-2zm0 1.047c0 .457-.033.893-.097 1.308l1.977.304c.08-.522.12-1.06.12-1.612h-2zm-.928 3.713c-.209.363-.456.71-.74 1.042l1.519 1.302c.362-.423.681-.871.954-1.345l-1.733-.999zm-.74 1.042a9.64 9.64 0 01-.468.508l1.419 1.409c.197-.198.386-.403.568-.615l-1.519-1.302zm-1.511 1.416a10.42 10.42 0 01-1.168.76l.98 1.744c.49-.275.953-.577 1.391-.906l-1.203-1.598zm-2.436 1.376c-.215.09-.437.175-.664.256l.671 1.884c.259-.092.513-.19.762-.294l-.769-1.846zm-.654.253c-.252.087-.507.168-.765.243l.563 1.92c.288-.085.572-.176.854-.273l-.652-1.89zm-2.327.626c-.52.103-1.052.185-1.595.246l.224 1.988a21.257 21.257 0 001.76-.273l-.389-1.961zm-3.212.365c-.268.01-.54.014-.813.014v2c.297 0 .592-.005.884-.016l-.071-1.998zm-1.813 1.014v1.126h2v-1.126h-2zm0 3.379v1.126h2v-1.126h-2zm1 .126h-1.021v2h1.021v-2zm-3.061 0h-2.041v2h2.041v-2zm-4.081 0h-1.02v2h1.02v-2zm-.02 1v-1.126h-2v1.126h2zm0-3.379v-1.126h-2v1.126h2zm-.894-25.075c-.398 0-.785.022-1.16.067l.24 1.986a7.67 7.67 0 01.92-.053v-2zm-3.47.723a6.223 6.223 0 00-1.057.646l1.209 1.594a4.22 4.22 0 01.718-.439l-.87-1.8zm-1.057.646a5.32 5.32 0 00-.805.75l1.512 1.309c.139-.16.305-.316.502-.465l-1.209-1.594zm-1.818 2.772a5.19 5.19 0 00-.114 1.099h2c0-.245.024-.469.068-.675l-1.954-.424zm-.114 1.099v1.166h2v-1.166h-2zm0 3.498v2.332h2v-2.332h-2zm0 4.664v1.166h2v-1.166h-2zm0 1.166c0 .366.038.723.119 1.068l1.947-.454a2.705 2.705 0 01-.066-.614h-2zm1.165 3.002c.238.252.507.479.804.683l1.135-1.646a3.077 3.077 0 01-.487-.412l-1.452 1.375zm.836.705c.337.213.692.396 1.066.55l.76-1.85a4.799 4.799 0 01-.755-.39l-1.071 1.69zm3.328 1.104c.366.039.742.058 1.13.058v-2c-.322 0-.628-.016-.919-.047l-.211 1.99zm2.13-.942v-1.09h-2v1.09h2zm0-3.27v-2.18h-2v2.18h2zm0-4.359v-2.18h-2v2.18h2zm0-4.359v-2.18h-2v2.18h2zm0-4.36v-1.089h-2v1.09h2zm7.95 16.401v-1.093h-2v1.093h2zm0-3.28V22.1h-2v2.187h2zm0-4.372v-2.186h-2v2.186h2zm0-4.372v-2.187h-2v2.187h2zm0-4.373v-1.093h-2v1.093h2zm-1-.093c.324 0 .63.018.919.053l.24-1.986a9.682 9.682 0 00-1.159-.067v2zm2.599.524c.258.124.497.27.718.439l1.209-1.594a6.223 6.223 0 00-1.057-.646l-.87 1.801zm.718.439c.197.15.363.305.502.465l1.512-1.31a5.32 5.32 0 00-.805-.749l-1.209 1.594zm1.073 1.602c.045.206.069.43.069.675h2a5.14 5.14 0 00-.115-1.1l-1.954.425zm.069.675v1.166h2v-1.166h-2zm0 3.498v2.332h2v-2.332h-2zm0 4.664v1.166h2v-1.166h-2zm0 1.166c0 .225-.025.428-.07.612l1.943.473a4.55 4.55 0 00.127-1.085h-2zm-.642 1.62c-.138.14-.304.277-.503.41l1.109 1.664c.301-.2.576-.424.82-.672l-1.426-1.402zm-.516.419a4.4 4.4 0 01-.725.404l.808 1.829c.372-.164.723-.36 1.052-.587l-1.135-1.646zm-2.396.835a8.146 8.146 0 01-.905.048v2c.386 0 .762-.02 1.127-.06l-.222-1.988zm22.012-23.915v-.5h-.5v.5h.5zm26.235 0h.5v-.5h-.5v.5zm0 5.883v.5h.5v-.5h-.5zm-17.967 0v-.5h-.5v.5h.5zm0 7.897h-.5v.5h.5v-.5zm16.218 0h.5v-.5h-.5v.5zm0 5.883v.5h.5v-.5h-.5zm-16.218 0v-.5h-.5v.5h.5zm0 8.851h-.5v.5h.5v-.5zm18.497 0h.5v-.5h-.5v.5zm0 5.883v.5h.5V37h-.5zm-26.765 0h-.5v.5h.5V37zm-.5-34.397v.955h1v-.955h-1zm0 2.866V7.38h1V5.47h-1zm0 3.822v1.911h1v-1.91h-1zm0 3.822v1.911h1v-1.91h-1zm0 3.822v1.911h1v-1.91h-1zm0 3.822v1.91h1v-1.91h-1zm0 3.822v1.91h1v-1.91h-1zm0 3.822v1.91h1v-1.91h-1zm0 3.822v1.91h1v-1.91h-1zm0 3.822V37h1v-.956h-1zm.5 1.455h.956v-1h-.956v1zm2.868 0h1.912v-1h-1.912v1zm3.824 0h1.912v-1h-1.912v1zm3.823 0h1.912v-1h-1.912v1zm3.824 0h1.912v-1h-1.912v1zm3.823 0h1.912v-1h-1.912v1zm3.824 0h1.912v-1h-1.912v1zm3.824 0h.955v-1h-.955v1zm1.455-.5v-1.47h-1V37h1zm0-4.412v-1.471h-1v1.47h1zm-.5-1.971h-.924v1h.924v-1zm-2.774 0h-1.85v1h1.85v-1zm-3.699 0h-1.85v1h1.85v-1zm-3.7 0h-1.85v1h1.85v-1zm-3.699 0h-1.85v1h1.85v-1zm-3.7 0h-.925v1h.925v-1zm-.425.5v-1.106h-1v1.106h1zm0-3.32v-2.212h-1v2.213h1zm0-4.425v-1.106h-1v1.106h1zm-.5-.606h1.014v-1h-1.014v1zm3.041 0h2.028v-1h-2.028v1zm4.055 0h2.027v-1h-2.027v1zm4.054 0h2.028v-1h-2.028v1zm4.055 0h1.013v-1h-1.013v1zm1.513-.5v-1.47h-1v1.47h1zm0-4.412v-1.471h-1v1.47h1zm-.5-1.971h-1.013v1h1.013v-1zm-3.04 0h-2.028v1h2.028v-1zm-4.055 0h-2.027v1h2.027v-1zm-4.054 0h-2.028v1h2.028v-1zm-4.055 0h-1.014v1h1.014v-1zm-.514.5v-.987h-1v.987h1zm0-2.961v-1.975h-1v1.975h1zm0-3.949v-.987h-1v.987h1zm-.5-.487h1.123v-1h-1.123v1zm3.369 0h2.246v-1h-2.246v1zm4.492 0h2.246v-1h-2.246v1zm4.492 0h2.246v-1h-2.246v1zm4.492 0h1.122v-1h-1.122v1zm1.622-.5v-1.47h-1v1.47h1zm0-4.412V2.603h-1v1.47h1zm-.5-1.971h-.936v1h.936v-1zm-2.81 0h-1.874v1h1.874v-1zm-3.748 0h-1.874v1h1.874v-1zm-3.748 0h-1.874v1h1.874v-1zm-3.748 0h-1.874v1h1.874v-1zm-3.748 0h-1.874v1h1.874v-1zm-3.748 0h-1.874v1h1.874v-1zm-3.748 0h-.937v1h.937v-1zm-.937.5v-1h-1v1h1zm26.235 0h1v-1h-1v1zm0 5.883v1h1v-1h-1zm-17.967 0v-1h-1v1h1zm0 7.897h-1v1h1v-1zm16.218 0h1v-1h-1v1zm0 5.883v1h1v-1h-1zm-16.218 0v-1h-1v1h1zm0 8.851h-1v1h1v-1zm18.497 0h1v-1h-1v1zm0 5.883v1h1v-1h-1zm-26.765 0h-1v1h1v-1zm-1-34.397v.955h2v-.955h-2zm0 2.866V7.38h2V5.47h-2zm0 3.822v1.911h2v-1.91h-2zm0 3.822v1.911h2v-1.91h-2zm0 3.822v1.911h2v-1.91h-2zm0 3.822v1.91h2v-1.91h-2zm0 3.822v1.91h2v-1.91h-2zm0 3.822v1.91h2v-1.91h-2zm0 3.822v1.91h2v-1.91h-2zm0 3.822V37h2v-.956h-2zm1 1.955h.956v-2h-.956v2zm2.868 0h1.912v-2h-1.912v2zm3.824 0h1.912v-2h-1.912v2zm3.823 0h1.912v-2h-1.912v2zm3.824 0h1.912v-2h-1.912v2zm3.823 0h1.912v-2h-1.912v2zm3.824 0h1.912v-2h-1.912v2zm3.824 0h.955v-2h-.955v2zm1.955-1v-1.47h-2V37h2zm0-4.412v-1.471h-2v1.47h2zm-1-2.471h-.924v2h.924v-2zm-2.774 0h-1.85v2h1.85v-2zm-3.699 0h-1.85v2h1.85v-2zm-3.7 0h-1.85v2h1.85v-2zm-3.699 0h-1.85v2h1.85v-2zm-3.7 0h-.925v2h.925v-2zm.075 1v-1.106h-2v1.106h2zm0-3.32v-2.212h-2v2.213h2zm0-4.425v-1.106h-2v1.106h2zm-1-.106h1.014v-2h-1.014v2zm3.041 0h2.028v-2h-2.028v2zm4.055 0h2.027v-2h-2.027v2zm4.054 0h2.028v-2h-2.028v2zm4.055 0h1.013v-2h-1.013v2zm2.013-1v-1.47h-2v1.47h2zm0-4.412v-1.471h-2v1.47h2zm-1-2.471h-1.013v2h1.013v-2zm-3.04 0h-2.028v2h2.028v-2zm-4.055 0h-2.027v2h2.027v-2zm-4.054 0h-2.028v2h2.028v-2zm-4.055 0h-1.014v2h1.014v-2zm-.014 1v-.987h-2v.987h2zm0-2.961v-1.975h-2v1.975h2zm0-3.949v-.987h-2v.987h2zm-1 .013h1.123v-2h-1.123v2zm3.369 0h2.246v-2h-2.246v2zm4.492 0h2.246v-2h-2.246v2zm4.492 0h2.246v-2h-2.246v2zm4.492 0h1.122v-2h-1.122v2zm2.122-1v-1.47h-2v1.47h2zm0-4.412V2.603h-2v1.47h2zm-1-2.471h-.936v2h.936v-2zm-2.81 0h-1.874v2h1.874v-2zm-3.748 0h-1.874v2h1.874v-2zm-3.748 0h-1.874v2h1.874v-2zm-3.748 0h-1.874v2h1.874v-2zm-3.748 0h-1.874v2h1.874v-2zm-3.748 0h-1.874v2h1.874v-2zm-3.748 0h-.937v2h.937v-2zm45.086 35.715l-.058.497h.001l.057-.497zm-3.975-.795l.13-.483h-.004l-.126.483zm-4.028-1.643l-.277.416.01.006.267-.422zm-2.65-2.915l.434-.248-.005-.01-.429.258zm25.758-28.726h.5v-.422l-.416-.07-.084.492zm0 6.201l-.117.486.617.149V9.44h-.5zm-13.886-1.378l-.047-.498h-.003l.05.498zm-2.226.53l.161.473.01-.003-.171-.47zm16.324 21.518h.5v-.63l-.613.143.113.487zm0 6.254l.101.49.399-.082v-.408h-.5zm-11.13.666c-.354 0-.7-.004-1.038-.011l-.022 1c.345.007.699.011 1.06.011v-1zm-3.104-.11a28.884 28.884 0 01-1.026-.099l-.114.994c.343.039.697.073 1.062.101l.078-.997zm-1.024-.099a21.486 21.486 0 01-.982-.139l-.162.987c.351.058.693.106 1.027.146l.117-.994zm-2.935-.535a35.996 35.996 0 01-.969-.246l-.259.966c.338.09.671.175.996.253l.232-.973zm-.973-.247a19.745 19.745 0 01-1.022-.296l-.305.953c.345.11.703.214 1.075.31l.252-.967zm-2.98-1.075a9.818 9.818 0 01-.906-.506l-.535.844c.311.198.644.384.998.559l.443-.896zm-.897-.5a7.301 7.301 0 01-.737-.564l-.657.754c.267.233.547.447.84.642l.554-.832zm-1.985-1.951a9.426 9.426 0 01-.508-.796l-.868.496c.176.308.363.601.561.88l.815-.58zm-.513-.805a6.728 6.728 0 01-.475-.957l-.928.373c.154.383.336.749.545 1.098l.858-.514zm-.985-3.05c-.038-.35-.057-.714-.057-1.092h-1c0 .412.021.812.063 1.2l.994-.107zm-.057-1.092v-.944h-1v.944h1zm0-2.832v-1.888h-1v1.888h1zm0-3.776v-1.889h-1v1.889h1zm0-3.777v-1.888h-1v1.888h1zm0-3.776v-.944h-1v.944h1zm0-.944c0-.356.015-.701.044-1.036l-.997-.086c-.031.365-.047.739-.047 1.122h1zm.427-3.045a7.726 7.726 0 01.837-1.838l-.847-.531a8.736 8.736 0 00-.946 2.073l.956.296zm2.127-3.39a9.268 9.268 0 011.648-1.208l-.503-.864a10.26 10.26 0 00-1.825 1.338l.68.733zm3.521-2.088a17.164 17.164 0 012.002-.612l-.236-.971a18.19 18.19 0 00-2.119.647l.353.936zm4.076-1.012c.668-.1 1.37-.178 2.106-.235l-.078-.997c-.757.059-1.482.14-2.175.243l.147.989zm4.234-.34c.35-.009.706-.013 1.068-.013v-1c-.37 0-.734.004-1.091.012l.023 1zm1.068-.013c.289 0 .59.004.901.013l.029-1a32.37 32.37 0 00-.93-.013v1zm2.709.107c.574.042 1.177.095 1.809.16l.103-.994a58.958 58.958 0 00-1.84-.163l-.072.997zm3.617.371c.581.075 1.182.158 1.805.25l.146-.99a98.01 98.01 0 00-1.824-.252l-.127.992zm3.608.53l.9.15.168-.985c-.306-.052-.609-.103-.907-.151l-.161.986zm.484-.342v.775h1V3.24h-1zm0 2.325v1.55h1v-1.55h-1zm0 3.1v.776h1v-.775h-1zm.617.29c-.3-.073-.598-.143-.894-.21l-.222.975c.291.067.585.135.882.207l.234-.972zm-2.69-.593a56.704 56.704 0 00-1.81-.329l-.162.987c.58.095 1.172.203 1.777.323l.195-.981zm-3.632-.595a42.01 42.01 0 00-1.835-.192l-.081.997c.581.048 1.178.11 1.79.187l.126-.992zm-3.681-.296a31.2 31.2 0 00-.926-.014v1c.294 0 .593.005.897.014l.029-1zm-.926-.014c-.27 0-.529.001-.775.004l.012 1c.242-.003.497-.004.763-.004v-1zm-2.333.051c-.288.016-.551.035-.788.057l.095.996c.22-.021.469-.04.746-.054l-.053-.999zm-.791.057c-.199.02-.401.048-.604.084l.172.985c.18-.032.358-.056.532-.073l-.1-.996zm-1.778.368a11.52 11.52 0 00-.569.19l.342.94c.175-.064.348-.122.519-.174l-.292-.956zm-.559.187c-.453.154-.86.358-1.215.616l.587.81c.265-.192.579-.353.95-.48l-.322-.946zm-2.691 2.915a5.91 5.91 0 00-.139 1.321h1c0-.406.039-.771.114-1.097l-.975-.224zm-.139 1.321v.914h1v-.914h-1zm0 2.743v1.828h1v-1.828h-1zm0 3.657v1.828h1v-1.828h-1zm0 3.657v1.828h1v-1.828h-1zm0 3.657v.914h1v-.914h-1zm0 .914c0 .348.033.683.099 1.004l.979-.203a3.974 3.974 0 01-.078-.801h-1zm1.001 2.84c.417.482.953.881 1.596 1.203l.449-.893c-.548-.275-.972-.598-1.288-.963l-.757.654zm3.407 1.852c.564.141 1.181.25 1.848.326l.115-.993a13.631 13.631 0 01-1.722-.303l-.241.97zm3.7.458c.3.01.609.014.925.014v-1c-.306 0-.604-.005-.893-.014l-.032 1zm.925.014c.284 0 .581-.007.889-.02l-.044-1c-.295.014-.576.02-.845.02v1zm2.651-.155c.55-.058 1.131-.133 1.742-.223l-.146-.99c-.599.09-1.166.162-1.701.218l.105.995zm3.47-.507a73.782 73.782 0 001.716-.329l-.199-.98c-.586.12-1.151.228-1.693.325l.176.984zm3.424-.694c.279-.063.562-.127.85-.194l-.226-.974-.842.192.218.976zm.237-.681v.782h1v-.782h-1zm0 2.345v1.564h1v-1.564h-1zm0 3.127v.782h1v-.782h-1zm.399.292a57.2 57.2 0 01-.909.18l.187.982c.307-.058.615-.119.924-.182l-.202-.98zm-2.734.496c-.613.096-1.224.182-1.834.257l.123.992c.62-.076 1.242-.163 1.866-.261l-.155-.988zm-3.675.453c-.617.055-1.232.099-1.846.132l.054.998a54.237 54.237 0 001.881-.134l-.089-.996zm-3.695.199a51.02 51.02 0 01-.925.008v1c.314 0 .628-.003.943-.009l-.018-1zm-5.112.296l-.117.993h.004l.113-.993zm-3.975-.795l.259-.966-.006-.002-.253.968zm-4.028-1.643l-.555.832.01.006.01.007.535-.845zm-2.65-2.915l.868-.496-.005-.01-.005-.008-.858.514zm25.758-28.726h1v-.844l-.832-.142-.168.986zm0 6.201l-.235.972 1.235.298V9.44h-1zm-13.886-1.378l-.095-.996-.004.001.099.995zm-2.226.53l.322.947.01-.004.01-.003-.342-.94zm16.324 21.518h1v-1.259l-1.226.285.226.974zm0 6.254l.202.98.798-.165v-.815h-1zm-11.13.166c-.351 0-.693-.004-1.027-.011l-.044 2c.349.007.706.011 1.071.011v-2zm-3.066-.11a25.596 25.596 0 01-1.007-.096l-.227 1.988c.348.04.708.074 1.079.103l.155-1.994zm-1.004-.095c-.31-.037-.629-.082-.959-.136l-.324 1.974c.358.058.708.108 1.049.148l.234-1.986zm-2.877-.525a36.42 36.42 0 01-.956-.243l-.518 1.932c.343.092.68.177 1.011.256l.463-1.945zm-.962-.245a18.91 18.91 0 01-.997-.288l-.609 1.905c.353.113.721.22 1.101.319l.505-1.936zm-2.885-1.039a9.389 9.389 0 01-.861-.48l-1.07 1.689c.328.207.676.402 1.044.584l.887-1.793zm-.841-.468a6.697 6.697 0 01-.687-.525l-1.314 1.508c.283.247.58.474.891.681l1.11-1.664zm-1.856-1.825a9.159 9.159 0 01-.481-.754l-1.736.992c.184.322.38.63.588.922l1.629-1.16zm-.491-.772a6.213 6.213 0 01-.44-.887l-1.856.746c.164.407.357.797.581 1.17l1.715-1.03zm-.916-2.846a9.375 9.375 0 01-.055-1.039h-2c0 .428.022.847.066 1.255l1.989-.216zm-.055-1.039v-.944h-2v.944h2zm0-2.832v-1.888h-2v1.888h2zm0-3.776v-1.889h-2v1.889h2zm0-3.777v-1.888h-2v1.888h2zm0-3.776v-.944h-2v.944h2zm0-.944c0-.342.014-.673.042-.993l-1.993-.172c-.033.38-.049.768-.049 1.165h2zm.404-2.897a7.244 7.244 0 01.784-1.72l-1.695-1.063a9.258 9.258 0 00-.999 2.192l1.91.59zm1.99-3.172a8.768 8.768 0 011.559-1.142l-1.006-1.729c-.708.412-1.347.88-1.913 1.405l1.36 1.466zm3.357-1.986a16.685 16.685 0 011.944-.594l-.472-1.943c-.77.187-1.497.408-2.177.665l.705 1.872zm3.974-.986a30.001 30.001 0 012.071-.23l-.156-1.995a32.04 32.04 0 00-2.209.247l.294 1.978zm4.172-.335a45.45 45.45 0 011.056-.012v-2c-.374 0-.741.004-1.103.013l.047 1.999zm1.056-.012c.284 0 .58.004.887.013l.057-1.999c-.325-.01-.639-.014-.944-.014v2zm2.673.106c.568.04 1.166.094 1.793.159l.207-1.99a59.767 59.767 0 00-1.856-.164l-.144 1.995zm3.589.368c.578.074 1.176.157 1.796.248l.292-1.978a98.076 98.076 0 00-1.834-.254l-.254 1.984zm3.591.528c.295.048.594.098.897.15l.336-1.972a134.27 134.27 0 00-.91-.152l-.323 1.974zm.065-.836v.775h2V3.24h-2zm0 2.325v1.55h2v-1.55h-2zm0 3.1v.776h2v-.775h-2zm1.235-.196a71.732 71.732 0 00-.901-.211l-.444 1.95c.289.066.581.134.875.205l.47-1.944zm-2.711-.597a56.974 56.974 0 00-1.826-.332l-.324 1.973c.574.095 1.161.201 1.761.32l.389-1.961zm-3.667-.6a42.456 42.456 0 00-1.856-.195l-.163 1.993c.574.047 1.163.109 1.769.185l.25-1.984zm-3.728-.3a31.7 31.7 0 00-.941-.015v2c.289 0 .583.004.882.013l.059-1.999zm-.941-.015c-.272 0-.532.002-.781.005l.024 2c.24-.004.492-.005.757-.005v-2zm-2.36.052a19.77 19.77 0 00-.809.058l.19 1.991c.212-.02.454-.037.725-.052l-.106-1.997zm-.813.059c-.212.021-.426.05-.641.088l.344 1.97a6.84 6.84 0 01.496-.068l-.199-1.99zm-1.876.387c-.196.06-.394.126-.593.198l.684 1.88a9.86 9.86 0 01.494-.166l-.585-1.912zm-.573.191a5.045 5.045 0 00-1.348.686l1.175 1.618c.219-.159.488-.298.817-.41l-.644-1.894zm-3.017 3.278a6.37 6.37 0 00-.152 1.432h2c0-.374.036-.701.101-.985l-1.949-.447zm-.152 1.432v.914h2v-.914h-2zm0 2.743v1.828h2v-1.828h-2zm0 3.657v1.828h2v-1.828h-2zm0 3.657v1.828h2v-1.828h-2zm0 3.657v.914h2v-.914h-2zm0 .914c0 .38.035.748.11 1.106l1.958-.407a3.435 3.435 0 01-.068-.699h-2zm1.123 3.168c.467.54 1.059.976 1.75 1.322l.897-1.787c-.5-.25-.869-.536-1.134-.843l-1.513 1.308zm3.664 2.01c.588.146 1.226.258 1.911.337l.23-1.987a13.111 13.111 0 01-1.658-.291l-.483 1.94zm3.805.471c.306.01.62.015.941.015v-2c-.301 0-.594-.005-.877-.013l-.064 1.998zm.941.015c.292 0 .596-.007.911-.02l-.087-1.999c-.289.013-.563.019-.824.019v2zm2.703-.158a42.669 42.669 0 001.763-.225l-.292-1.979a40.69 40.69 0 01-1.681.215l.21 1.989zm3.506-.511c.556-.1 1.132-.21 1.728-.332l-.399-1.96c-.582.119-1.143.226-1.681.323l.352 1.968zm3.445-.7c.28-.062.565-.127.854-.194l-.452-1.948c-.284.066-.563.13-.839.19l.437 1.953zm-.372-1.168v.782h2v-.782h-2zm0 2.345v1.564h2v-1.564h-2zm0 3.127v.782h2v-.782h-2zm.799-.197c-.301.061-.602.12-.902.178l.373 1.965c.31-.06.621-.12.932-.184l-.403-1.96zm-2.711.491a58.36 58.36 0 01-1.818.255l.245 1.985a57.84 57.84 0 001.883-.264l-.31-1.976zm-3.642.449c-.612.054-1.221.098-1.829.13l.108 1.998c.631-.035 1.264-.08 1.898-.136l-.177-1.992zm-3.66.197c-.306.005-.611.008-.916.008v2c.317 0 .634-.003.952-.009l-.036-2zm29.171.796l-.058.497h.001l.057-.497zm-3.975-.795l.13-.483h-.004l-.126.483zm-4.028-1.643l-.277.416.01.006.267-.422zm-2.65-2.915l.434-.248-.005-.01-.429.258zm25.758-28.726h.5v-.422l-.416-.07-.084.492zm0 6.201l-.117.486.617.149V9.44h-.5zm-13.886-1.378l-.047-.498h-.003l.05.498zm-2.226.53l.161.473.01-.003-.171-.47zm16.324 21.518h.5v-.63l-.613.143.113.487zm0 6.254l.101.49.399-.082v-.408h-.5zm-11.13.666c-.354 0-.7-.004-1.038-.011l-.022 1c.345.007.699.011 1.06.011v-1zm-3.104-.11a28.884 28.884 0 01-1.026-.099l-.114.994c.343.039.697.073 1.062.101l.078-.997zm-1.024-.099a21.486 21.486 0 01-.982-.139l-.162.987c.351.058.693.106 1.027.146l.117-.994zm-2.935-.535a35.996 35.996 0 01-.969-.246l-.259.966c.338.09.671.175.996.253l.232-.973zm-.973-.247a19.745 19.745 0 01-1.022-.296l-.305.953c.345.11.703.214 1.075.31l.252-.967zm-2.98-1.075a9.818 9.818 0 01-.906-.506l-.535.844c.311.198.644.384.998.559l.443-.896zm-.897-.5a7.301 7.301 0 01-.737-.564l-.657.754c.267.233.547.447.84.642l.554-.832zm-1.985-1.951a9.426 9.426 0 01-.508-.796l-.868.496c.176.308.363.601.561.88l.815-.58zm-.513-.805a6.728 6.728 0 01-.475-.957l-.928.373c.154.383.336.749.545 1.098l.858-.514zm-.985-3.05c-.038-.35-.057-.714-.057-1.092h-1c0 .412.021.812.063 1.2l.994-.107zm-.057-1.092v-.944h-1v.944h1zm0-2.832v-1.888h-1v1.888h1zm0-3.776v-1.889h-1v1.889h1zm0-3.777v-1.888h-1v1.888h1zm0-3.776v-.944h-1v.944h1zm0-.944c0-.356.015-.701.044-1.036l-.997-.086c-.031.365-.047.739-.047 1.122h1zm.427-3.045a7.726 7.726 0 01.837-1.838l-.847-.531a8.736 8.736 0 00-.946 2.073l.956.296zm2.127-3.39a9.268 9.268 0 011.648-1.208l-.503-.864a10.26 10.26 0 00-1.825 1.338l.68.733zm3.521-2.088a17.164 17.164 0 012.002-.612l-.236-.971a18.19 18.19 0 00-2.119.647l.353.936zm4.076-1.012c.668-.1 1.37-.178 2.106-.235l-.078-.997c-.757.059-1.482.14-2.175.243l.147.989zm4.234-.34c.35-.009.706-.013 1.068-.013v-1c-.37 0-.733.004-1.091.012l.023 1zm1.068-.013c.289 0 .59.004.901.013l.029-1a32.37 32.37 0 00-.93-.013v1zm2.709.107c.574.042 1.177.095 1.809.16l.103-.994a58.958 58.958 0 00-1.84-.163l-.072.997zm3.617.371c.581.075 1.182.158 1.805.25l.146-.99a98.01 98.01 0 00-1.824-.252l-.127.992zm3.608.53l.9.15.168-.985c-.306-.052-.609-.103-.907-.151l-.161.986zm.484-.342v.775h1V3.24h-1zm0 2.325v1.55h1v-1.55h-1zm0 3.1v.776h1v-.775h-1zm.617.29c-.3-.073-.598-.143-.894-.21l-.222.975c.291.067.585.135.882.207l.234-.972zm-2.69-.593a56.704 56.704 0 00-1.81-.329l-.162.987c.58.095 1.172.203 1.777.323l.195-.981zm-3.632-.595a42.01 42.01 0 00-1.835-.192l-.081.997c.581.048 1.178.11 1.79.187l.126-.992zm-3.681-.296a31.2 31.2 0 00-.926-.014v1c.294 0 .593.005.897.014l.029-1zm-.926-.014c-.27 0-.529.001-.775.004l.012 1c.242-.003.497-.004.763-.004v-1zm-2.333.051c-.288.016-.551.035-.788.057l.095.996c.22-.021.469-.04.746-.054l-.053-.999zm-.791.057c-.199.02-.401.048-.604.084l.172.985c.18-.032.358-.056.532-.073l-.1-.996zm-1.778.368a11.52 11.52 0 00-.569.19l.342.94c.175-.064.348-.122.519-.174l-.292-.956zm-.559.187c-.453.154-.86.358-1.215.616l.587.81c.265-.192.579-.353.95-.48l-.322-.946zm-2.691 2.915a5.91 5.91 0 00-.139 1.321h1c0-.406.039-.771.114-1.097l-.975-.224zm-.139 1.321v.914h1v-.914h-1zm0 2.743v1.828h1v-1.828h-1zm0 3.657v1.828h1v-1.828h-1zm0 3.657v1.828h1v-1.828h-1zm0 3.657v.914h1v-.914h-1zm0 .914c0 .348.033.683.099 1.004l.979-.203a3.974 3.974 0 01-.078-.801h-1zm1.001 2.84c.417.482.953.881 1.596 1.203l.449-.893c-.548-.275-.972-.598-1.288-.963l-.757.654zm3.407 1.852c.564.141 1.181.25 1.848.326l.115-.993a13.631 13.631 0 01-1.722-.303l-.241.97zm3.7.458c.3.01.609.014.925.014v-1c-.306 0-.604-.005-.893-.014l-.032 1zm.925.014c.284 0 .581-.007.889-.02l-.044-1c-.295.014-.576.02-.845.02v1zm2.651-.155c.55-.058 1.131-.133 1.742-.223l-.146-.99c-.599.09-1.166.162-1.701.218l.105.995zm3.47-.507a73.782 73.782 0 001.716-.329l-.199-.98c-.586.12-1.15.228-1.693.325l.176.984zm3.424-.694c.279-.063.562-.127.85-.194l-.226-.974-.842.192.218.976zm.237-.681v.782h1v-.782h-1zm0 2.345v1.564h1v-1.564h-1zm0 3.127v.782h1v-.782h-1zm.399.292a57.2 57.2 0 01-.909.18l.187.982c.307-.058.615-.119.924-.182l-.202-.98zm-2.734.496c-.613.096-1.224.182-1.834.257l.123.992c.62-.076 1.242-.163 1.866-.261l-.155-.988zm-3.675.453c-.617.055-1.232.099-1.846.132l.054.998a54.237 54.237 0 001.881-.134l-.089-.996zm-3.695.199a51.02 51.02 0 01-.925.008v1c.314 0 .628-.003.943-.009l-.018-1zm-5.112.296l-.117.993h.004l.113-.993zm-3.975-.795l.259-.966-.006-.002-.253.968zm-4.028-1.643l-.555.832.01.006.01.007.535-.845zm-2.65-2.915l.868-.496-.005-.01-.005-.008-.858.514zm25.758-28.726h1v-.844l-.832-.142-.168.986zm0 6.201l-.235.972 1.235.298V9.44h-1zm-13.886-1.378l-.095-.996-.004.001.099.995zm-2.226.53l.322.947.01-.004.01-.003-.342-.94zm16.324 21.518h1v-1.259l-1.226.285.226.974zm0 6.254l.202.98.798-.165v-.815h-1zm-11.13.166c-.351 0-.693-.004-1.027-.011l-.044 2c.349.007.706.011 1.071.011v-2zm-3.066-.11a25.596 25.596 0 01-1.007-.096l-.227 1.988c.348.04.708.074 1.079.103l.155-1.994zm-1.004-.095c-.31-.037-.629-.082-.959-.136l-.324 1.974c.358.058.708.108 1.049.148l.234-1.986zm-2.877-.525a36.42 36.42 0 01-.956-.243l-.518 1.932c.343.092.68.177 1.011.256l.463-1.945zm-.962-.245a18.91 18.91 0 01-.997-.288l-.609 1.905c.354.113.721.22 1.101.319l.505-1.936zm-2.885-1.039a9.389 9.389 0 01-.861-.48l-1.07 1.689c.328.207.676.402 1.044.584l.887-1.793zm-.841-.468a6.697 6.697 0 01-.687-.525l-1.314 1.508c.283.247.58.474.891.681l1.11-1.664zm-1.856-1.825a9.159 9.159 0 01-.481-.754l-1.736.992c.184.322.38.63.588.922l1.629-1.16zm-.491-.772a6.213 6.213 0 01-.44-.887l-1.856.746c.164.407.357.797.581 1.17l1.715-1.03zm-.916-2.846a9.375 9.375 0 01-.055-1.039h-2c0 .428.022.847.066 1.255l1.989-.216zm-.055-1.039v-.944h-2v.944h2zm0-2.832v-1.888h-2v1.888h2zm0-3.776v-1.889h-2v1.889h2zm0-3.777v-1.888h-2v1.888h2zm0-3.776v-.944h-2v.944h2zm0-.944c0-.342.014-.673.042-.993l-1.993-.172c-.033.38-.049.768-.049 1.165h2zm.404-2.897a7.244 7.244 0 01.784-1.72l-1.695-1.063a9.258 9.258 0 00-.999 2.192l1.91.59zm1.99-3.172a8.768 8.768 0 011.559-1.142l-1.006-1.729c-.708.412-1.347.88-1.913 1.405l1.36 1.466zm3.357-1.986a16.685 16.685 0 011.944-.594l-.472-1.943c-.77.187-1.497.408-2.177.665l.705 1.872zm3.974-.986a30.001 30.001 0 012.071-.23l-.156-1.995a32.04 32.04 0 00-2.209.247l.294 1.978zm4.172-.335a45.45 45.45 0 011.056-.012v-2c-.373 0-.741.004-1.103.013l.047 1.999zm1.056-.012c.284 0 .58.004.887.013l.057-1.999c-.325-.01-.639-.014-.944-.014v2zm2.673.106c.568.04 1.166.094 1.793.159l.207-1.99a59.497 59.497 0 00-1.856-.164l-.144 1.995zm3.589.368c.578.074 1.176.157 1.796.248l.292-1.978a98.076 98.076 0 00-1.834-.254l-.254 1.984zm3.591.528c.295.048.594.098.897.15l.336-1.972a134.27 134.27 0 00-.91-.152l-.323 1.974zm.065-.836v.775h2V3.24h-2zm0 2.325v1.55h2v-1.55h-2zm0 3.1v.776h2v-.775h-2zm1.235-.196a71.732 71.732 0 00-.901-.211l-.444 1.95c.289.066.581.134.875.205l.47-1.944zm-2.711-.597a56.974 56.974 0 00-1.826-.332l-.324 1.973c.574.095 1.161.201 1.761.32l.389-1.961zm-3.667-.6a42.456 42.456 0 00-1.856-.195l-.163 1.993c.574.047 1.163.109 1.769.185l.25-1.984zm-3.728-.3a29.91 29.91 0 00-.941-.015v2c.289 0 .583.004.882.013l.059-1.999zm-.941-.015c-.272 0-.532.002-.781.005l.024 2c.24-.004.492-.005.757-.005v-2zm-2.36.052a19.77 19.77 0 00-.809.058l.19 1.991c.212-.02.454-.037.725-.052l-.106-1.997zm-.813.059c-.212.021-.426.05-.641.088l.344 1.97a6.84 6.84 0 01.496-.068l-.199-1.99zm-1.876.387c-.196.06-.394.126-.593.198l.684 1.88a9.86 9.86 0 01.494-.166l-.585-1.912zm-.573.191a5.045 5.045 0 00-1.348.686l1.175 1.618c.219-.159.488-.298.817-.41l-.644-1.894zm-3.017 3.278a6.37 6.37 0 00-.152 1.432h2c0-.374.036-.701.101-.985l-1.949-.447zm-.152 1.432v.914h2v-.914h-2zm0 2.743v1.828h2v-1.828h-2zm0 3.657v1.828h2v-1.828h-2zm0 3.657v1.828h2v-1.828h-2zm0 3.657v.914h2v-.914h-2zm0 .914c0 .38.036.748.11 1.106l1.958-.407a3.435 3.435 0 01-.068-.699h-2zm1.123 3.168c.467.54 1.06.976 1.75 1.322l.897-1.787c-.5-.25-.869-.536-1.134-.843l-1.513 1.308zm3.664 2.01a15.13 15.13 0 001.911.337l.23-1.987a13.111 13.111 0 01-1.658-.291l-.483 1.94zm3.805.471c.306.01.62.015.941.015v-2c-.301 0-.594-.005-.877-.013l-.064 1.998zm.941.015c.292 0 .596-.007.911-.02l-.087-1.999c-.289.013-.563.019-.824.019v2zm2.703-.158a42.669 42.669 0 001.763-.225l-.292-1.979a40.69 40.69 0 01-1.681.215l.21 1.989zm3.506-.511c.556-.1 1.132-.21 1.728-.332l-.399-1.96c-.582.119-1.143.226-1.681.323l.352 1.968zm3.445-.7c.28-.062.565-.127.854-.194l-.452-1.948c-.284.066-.563.13-.838.19l.436 1.953zm-.372-1.168v.782h2v-.782h-2zm0 2.345v1.564h2v-1.564h-2zm0 3.127v.782h2v-.782h-2zm.799-.197c-.301.061-.602.12-.902.178l.373 1.965c.31-.06.621-.12.932-.184l-.403-1.96zm-2.711.491a58.36 58.36 0 01-1.818.255l.245 1.985a57.84 57.84 0 001.883-.264l-.31-1.976zm-3.642.449c-.612.054-1.221.098-1.829.13l.108 1.998c.631-.035 1.264-.08 1.898-.136l-.177-1.992zm-3.66.197c-.306.005-.611.008-.916.008v2c.317 0 .634-.003.952-.009l-.036-2zM265.42 2.603v-.5h-.5v.5h.5zm8.268 0h.5v-.5h-.5v.5zm0 23.532h-.5v1.73l.923-1.463-.423-.267zm14.84-23.532v-.5h-.276l-.147.233.423.267zm8.268 0h.5v-.5h-.5v.5zm0 34.397v.5h.5V37h-.5zm-8.268 0h-.5v.5h.5V37zm0-23.903h.5v-1.753l-.925 1.49.425.263zM273.688 37v.5h.278l.147-.236-.425-.264zm-8.268 0h-.5v.5h.5V37zm-.5-34.397v.955h1v-.955h-1zm0 2.866V7.38h1V5.47h-1zm0 3.822v1.911h1v-1.91h-1zm0 3.822v1.911h1v-1.91h-1zm0 3.822v1.911h1v-1.91h-1zm0 3.822v1.91h1v-1.91h-1zm0 3.822v1.91h1v-1.91h-1zm0 3.822v1.91h1v-1.91h-1zm0 3.822v1.91h1v-1.91h-1zm0 3.822V37h1v-.956h-1zm.5 1.455h1.034v-1h-1.034v1zm3.101 0h2.067v-1h-2.067v1zm4.134 0h1.033v-1h-1.033v1zm1.458-.236l.53-.854-.85-.527-.53.853.85.528zm1.59-2.561l1.06-1.708-.85-.527-1.06 1.707.85.528zm2.12-3.415l1.06-1.707-.85-.528-1.06 1.707.85.528zm2.12-3.415l1.06-1.707-.85-.527-1.06 1.707.85.527zm2.12-3.415l1.06-1.707-.85-.527-1.06 1.707.85.527zm2.12-3.414l1.06-1.707-.85-.528-1.06 1.707.85.528zm2.12-3.415l1.06-1.707-.85-.528-1.06 1.708.85.527zm2.12-3.415l.53-.853-.85-.528-.53.854.85.527zm-.395-1.117v.996h1v-.996h-1zm0 2.988v1.992h1v-1.992h-1zm0 3.984v1.992h1v-1.992h-1zm0 3.983v1.992h1v-1.992h-1zm0 3.984v1.992h1v-1.992h-1zm0 3.984v1.992h1V32.02h-1zm0 3.984V37h1v-.996h-1zm.5 1.496h1.034v-1h-1.034v1zm3.101 0h2.067v-1h-2.067v1zm4.134 0h1.033v-1h-1.033v1zm1.533-.5v-.956h-1V37h1zm0-2.866v-1.911h-1v1.91h1zm0-3.822V28.4h-1v1.91h1zm0-3.822v-1.911h-1v1.91h1zm0-3.822v-1.911h-1v1.91h1zm0-3.822v-1.91h-1v1.91h1zm0-3.822v-1.91h-1v1.91h1zm0-3.822v-1.91h-1v1.91h1zm0-3.822V5.47h-1v1.91h1zm0-3.822v-.955h-1v.955h1zm-.5-1.455h-1.033v1h1.033v-1zm-3.1 0h-2.067v1h2.067v-1zm-4.134 0h-1.034v1h1.034v-1zm-1.457.233l-.53.84.846.534.53-.84-.846-.534zm-1.59 2.522l-1.06 1.68.846.534 1.06-1.681-.846-.533zm-2.12 3.361l-1.06 1.681.846.534 1.06-1.681-.846-.534zm-2.12 3.362l-1.06 1.68.846.534 1.06-1.68-.846-.534zm-2.12 3.362l-1.06 1.68.846.534 1.06-1.68-.846-.534zm-2.12 3.361l-1.06 1.681.846.534 1.06-1.681-.846-.534zm-2.12 3.362l-1.06 1.681.846.533 1.06-1.68-.846-.534zm-2.12 3.362l-.53.84.846.534.53-.84-.846-.534zm.393 1.107v-.98h-1v.98h1zm0-2.942v-1.96h-1v1.96h1zm0-3.922v-1.96h-1v1.96h1zm0-3.921v-1.961h-1v1.96h1zm0-3.922V9.466h-1v1.962h1zm0-3.923v-1.96h-1v1.96h1zm0-3.921v-.981h-1v.98h1zm-.5-1.481h-1.033v1h1.033v-1zm-3.1 0h-2.067v1h2.067v-1zm-4.134 0h-1.034v1h1.034v-1zm-1.034.5v-1h-1v1h1zm8.268 0h1v-1h-1v1zm0 23.532h-1v3.46l1.846-2.927-.846-.533zm14.84-23.532v-1h-.551l-.295.467.846.533zm8.268 0h1v-1h-1v1zm0 34.397v1h1v-1h-1zm-8.268 0h-1v1h1v-1zm0-23.903h1V9.59l-1.849 2.98.849.527zM273.688 37v1h.556l.294-.472-.85-.528zm-8.268 0h-1v1h1v-1zm-1-34.397v.955h2v-.955h-2zm0 2.866V7.38h2V5.47h-2zm0 3.822v1.911h2v-1.91h-2zm0 3.822v1.911h2v-1.91h-2zm0 3.822v1.911h2v-1.91h-2zm0 3.822v1.91h2v-1.91h-2zm0 3.822v1.91h2v-1.91h-2zm0 3.822v1.91h2v-1.91h-2zm0 3.822v1.91h2v-1.91h-2zm0 3.822V37h2v-.956h-2zm1 1.955h1.034v-2h-1.034v2zm3.101 0h2.067v-2h-2.067v2zm4.134 0h1.033v-2h-1.033v2zm1.883-.472l.53-.854-1.699-1.055-.53.853 1.699 1.056zm1.59-2.562l1.06-1.707-1.699-1.055-1.06 1.707 1.699 1.055zm2.12-3.414l1.06-1.708-1.699-1.055-1.06 1.708 1.699 1.055zm2.12-3.415l1.06-1.707-1.699-1.055-1.06 1.707 1.699 1.055zm2.12-3.415l1.06-1.707-1.699-1.055-1.06 1.707 1.699 1.055zm2.12-3.414l1.06-1.708-1.699-1.055-1.06 1.708 1.699 1.055zm2.12-3.415l1.06-1.707-1.699-1.055-1.06 1.707 1.699 1.055zm2.12-3.415l.53-.854-1.699-1.055-.53.854 1.699 1.055zm-1.32-1.381v.996h2v-.996h-2zm0 2.988v1.992h2v-1.992h-2zm0 3.984v1.992h2v-1.992h-2zm0 3.983v1.992h2v-1.992h-2zm0 3.984v1.992h2v-1.992h-2zm0 3.984v1.992h2V32.02h-2zm0 3.984V37h2v-.996h-2zm1 1.996h1.034v-2h-1.034v2zm3.101 0h2.067v-2h-2.067v2zm4.134 0h1.033v-2h-1.033v2zm2.033-1v-.956h-2V37h2zm0-2.866v-1.911h-2v1.91h2zm0-3.822V28.4h-2v1.91h2zm0-3.822v-1.911h-2v1.91h2zm0-3.822v-1.911h-2v1.91h2zm0-3.822v-1.91h-2v1.91h2zm0-3.822v-1.91h-2v1.91h2zm0-3.822v-1.91h-2v1.91h2zm0-3.822V5.47h-2v1.91h2zm0-3.822v-.955h-2v.955h2zm-1-1.955h-1.033v2h1.033v-2zm-3.1 0h-2.067v2h2.067v-2zm-4.134 0h-1.034v2h1.034v-2zm-1.88.467l-.53.84 1.692 1.067.53-.84-1.692-1.067zm-1.59 2.52l-1.06 1.682 1.692 1.067 1.06-1.681-1.692-1.067zm-2.12 3.363l-1.06 1.68 1.692 1.067 1.06-1.68-1.692-1.067zm-2.12 3.361l-1.06 1.681 1.692 1.067 1.06-1.68-1.692-1.068zm-2.12 3.362l-1.06 1.68 1.692 1.068 1.06-1.681-1.692-1.067zm-2.12 3.362l-1.06 1.68 1.692 1.067 1.06-1.68-1.692-1.067zm-2.12 3.361l-1.06 1.681 1.692 1.067 1.06-1.68-1.692-1.068zm-2.12 3.362l-.53.84 1.692 1.067.53-.84-1.692-1.067zm1.316 1.374v-.98h-2v.98h2zm0-2.942v-1.96h-2v1.96h2zm0-3.922v-1.96h-2v1.96h2zm0-3.921v-1.961h-2v1.96h2zm0-3.922V9.466h-2v1.962h2zm0-3.923v-1.96h-2v1.96h2zm0-3.921v-.981h-2v.98h2zm-1-1.981h-1.033v2h1.033v-2zm-3.1 0h-2.067v2h2.067v-2zm-4.134 0h-1.034v2h1.034v-2zm46.795 22.041l.414.28.454-.674-.805-.102-.063.496zm-4.982-2.12l.359-.348-.359.348zm1.431-17.225l.235.441.006-.003-.241-.438zm25.175-1.696h.5v-.5h-.5v.5zm0 34.397v.5h.5V37h-.5zm-8.268 0h-.5v.5h.5V37zm0-12.72h.5v-.5h-.5v.5zm-4.876 0v-.5h-.276l-.147.232.423.268zM313.673 37v.5h.275l.147-.233-.422-.267zm-9.434 0l-.415-.28-.526.78h.941V37zm22.366-18.179v.5h.5v-.5h-.5zm0-10.335h.5v-.5h-.5v.5zm-10.759.742l.263.425.005-.003-.268-.422zm-.053 8.851l-.3.4.006.005.007.005.287-.41zm-2.959 5.285l-.563.835.829.56.563-.835-.829-.56zm-1.689 2.505l-1.127 1.67.829.558 1.127-1.67-.829-.558zm-2.253 3.339l-1.126 1.67.829.558 1.126-1.67-.829-.558zm-2.252 3.339l-1.127 1.67.829.558 1.127-1.67-.829-.558zm-2.253 3.339l-.563.834.829.56.563-.835-.829-.56zm-.148 1.614h1.179v-1h-1.179v1zm3.537 0h2.359v-1h-2.359v1zm4.717 0h1.18v-1h-1.18v1zm1.602-.233l.503-.795-.844-.535-.504.796.845.535zm1.51-2.385l1.007-1.59-.844-.535-1.007 1.59.844.535zm2.014-3.18l1.007-1.59-.844-.534-1.007 1.59.844.535zm2.014-3.18l1.007-1.59-.844-.534-1.007 1.59.844.535zm2.014-3.18l.504-.794-.845-.535-.503.794.844.536zm.082-.562h1.219v-1h-1.219v1zm3.657 0h1.219v-1h-1.219v1zm.719-.5v1.06h1v-1.06h-1zm0 3.18v2.12h1v-2.12h-1zm0 4.24v2.12h1V31.7h-1zm0 4.24V37h1v-1.06h-1zm.5 1.56h1.033v-1h-1.033v1zm3.1 0h2.067v-1h-2.067v1zm4.134 0h1.034v-1h-1.034v1zm1.534-.5v-.956h-1V37h1zm0-2.866v-1.911h-1v1.91h1zm0-3.822V28.4h-1v1.91h1zm0-3.822v-1.911h-1v1.91h1zm0-3.822v-1.911h-1v1.91h1zm0-3.822v-1.91h-1v1.91h1zm0-3.822v-1.91h-1v1.91h1zm0-3.822v-1.91h-1v1.91h1zm0-3.822V5.47h-1v1.91h1zm0-3.822v-.955h-1v.955h1zm-.5-1.455h-.951v1h.951v-1zm-2.853 0h-1.901v1h1.901v-1zm-3.802 0h-1.902v1h1.902v-1zm-3.803 0h-1.901v1h1.901v-1zm-3.803 0h-.95v1h.95v-1zm-.95 0c-.291 0-.577.002-.859.007l.016 1c.276-.005.557-.007.843-.007v-1zm-2.577.066a35.35 35.35 0 00-1.719.133l.102.994a35.87 35.87 0 011.671-.129l-.054-.998zm-3.436.364a18.83 18.83 0 00-1.708.367l.259.966a17.81 17.81 0 011.616-.347l-.167-.986zm-3.383.936a8.962 8.962 0 00-.81.392l.483.876a7.92 7.92 0 01.719-.349l-.392-.92zm-.804.389a6.977 6.977 0 00-.769.476l.582.813c.203-.145.423-.281.658-.407l-.471-.882zm-2.079 1.748a5.914 5.914 0 00-.851 1.616l.945.327a4.9 4.9 0 01.707-1.344l-.801-.6zm-1.22 3.373a9.8 9.8 0 00-.039.885h1c0-.275.011-.539.035-.793l-.996-.092zm-.039.885v.855h1v-.855h-1zm0 2.564v1.71h1v-1.71h-1zm0 3.418v.855h1v-.855h-1zm0 .855c0 .477.027.932.083 1.367l.992-.127a9.72 9.72 0 01-.075-1.24h-1zm.927 4.027c.239.42.525.801.856 1.144l.719-.696a4.661 4.661 0 01-.706-.943l-.869.495zm.856 1.144a6.25 6.25 0 001.166.938l.532-.847a5.189 5.189 0 01-.979-.787l-.719.696zm3.87 2.018c.444.104.914.187 1.409.25l.126-.992a12.735 12.735 0 01-1.307-.232l-.228.974zm14.828-5.569h-.855v1h.855v-1zm-2.564 0h-1.71v1h1.71v-1zm-3.419 0h-.854v1h.854v-1zm-.854 0c-.355 0-.687-.008-.997-.025l-.054.998c.33.018.68.027 1.051.027v-1zm-2.906-.305a2.66 2.66 0 01-.783-.347l-.573.82a3.65 3.65 0 001.077.487l.279-.96zm-.769-.337a1.626 1.626 0 01-.419-.473l-.857.514c.18.3.405.556.676.759l.6-.8zm-.822-1.847a7.397 7.397 0 01-.038-.774h-1c0 .31.014.605.044.882l.994-.108zm-.038-.774v-.808h-1v.808h1zm0-2.425v-.808h-1v.808h1zm0-.808a4.9 4.9 0 01.042-.668l-.99-.138a5.919 5.919 0 00-.052.806h1zm.464-1.8c.115-.149.251-.272.412-.372l-.527-.85a2.52 2.52 0 00-.678.614l.793.608zm.417-.375a3.18 3.18 0 01.797-.346l-.286-.958c-.396.118-.748.27-1.048.46l.537.844zm2.674-.637c.305-.018.632-.027.98-.027v-1c-.365 0-.712.01-1.039.029l.059.998zm.98-.027h.854v-1h-.854v1zm2.563 0h1.71v-1h-1.71v1zm3.419 0h.855v-1h-.855v1zm.355-.5v.861h1v-.861h-1zm0 2.584v1.722h1V11.07h-1zm0 3.445v1.722h1v-1.722h-1zm0 3.445v.861h1v-.861h-1zm-12.856 5.684l.829.56.908-1.347-1.611-.205-.126.992zm-4.982-2.12l.718-.696-.718.696zm1.431-17.225l.471.882.012-.006-.483-.876zm25.175-1.696h1v-1h-1v1zm0 34.397v1h1v-1h-1zm-8.268 0h-1v1h1v-1zm0-12.72h1v-1h-1v1zm-4.876 0v-1h-.551l-.294.465.845.535zM313.673 37v1h.55l.294-.465-.844-.535zm-9.434 0l-.829-.56-1.052 1.56h1.881v-1zm22.366-18.179v1h1v-1h-1zm0-10.335h1v-1h-1v1zm-10.759.742l.526.85.01-.006-.536-.844zm-.053 8.851l-.6.8.013.01.013.01.574-.82zm-3.373 5.006l-.564.834 1.658 1.119.564-.835-1.658-1.118zm-1.69 2.504l-1.126 1.67 1.658 1.118 1.126-1.67-1.658-1.118zm-2.252 3.339l-1.127 1.67 1.658 1.118 1.127-1.67-1.658-1.118zm-2.253 3.339l-1.126 1.67 1.658 1.118 1.126-1.67-1.658-1.118zm-2.252 3.339l-.563.835 1.658 1.118.563-.834-1.658-1.119zm.266 2.394h1.179v-2h-1.179v2zm3.537 0h2.359v-2h-2.359v2zm4.717 0h1.18v-2h-1.18v2zm2.024-.465l.504-.795-1.69-1.07-.503.795 1.689 1.07zm1.511-2.385l1.007-1.59-1.69-1.07-1.007 1.59 1.69 1.07zm2.014-3.18l1.007-1.59-1.69-1.07-1.007 1.59 1.69 1.07zm2.014-3.18l1.007-1.59-1.69-1.07-1.007 1.59 1.69 1.07zm2.014-3.18l.503-.795-1.689-1.07-.504.795 1.69 1.07zm-.341-.33h1.219v-2h-1.219v2zm3.657 0h1.219v-2h-1.219v2zm.219-1v1.06h2v-1.06h-2zm0 3.18v2.12h2v-2.12h-2zm0 4.24v2.12h2V31.7h-2zm0 4.24V37h2v-1.06h-2zm1 2.06h1.033v-2h-1.033v2zm3.1 0h2.067v-2h-2.067v2zm4.134 0h1.034v-2h-1.034v2zm2.034-1v-.956h-2V37h2zm0-2.866v-1.911h-2v1.91h2zm0-3.822V28.4h-2v1.91h2zm0-3.822v-1.911h-2v1.91h2zm0-3.822v-1.911h-2v1.91h2zm0-3.822v-1.91h-2v1.91h2zm0-3.822v-1.91h-2v1.91h2zm0-3.822v-1.91h-2v1.91h2zm0-3.822V5.47h-2v1.91h2zm0-3.822v-.955h-2v.955h2zm-1-1.955h-.951v2h.951v-2zm-2.853 0h-1.901v2h1.901v-2zm-3.802 0h-1.902v2h1.902v-2zm-3.803 0h-1.901v2h1.901v-2zm-3.803 0h-.95v2h.95v-2zm-.95 0c-.294 0-.583.002-.867.007l.032 2c.273-.005.551-.007.835-.007v-2zm-2.604.066c-.606.033-1.188.078-1.744.135l.206 1.99a33.77 33.77 0 011.646-.128l-.108-1.997zm-3.493.37c-.621.106-1.206.232-1.753.378l.517 1.932a17.295 17.295 0 011.571-.337l-.335-1.972zm-3.496.97c-.3.128-.585.266-.855.414l.967 1.752a7.26 7.26 0 01.673-.327l-.785-1.84zm-.843.408c-.29.155-.564.325-.824.51l1.163 1.627a5.5 5.5 0 01.604-.373l-.943-1.764zm-2.243 1.89a6.394 6.394 0 00-.923 1.75l1.889.656a4.42 4.42 0 01.635-1.208l-1.601-1.199zm-1.318 3.626c-.028.303-.041.613-.041.931h2c0-.26.011-.509.033-.747l-1.992-.184zm-.041.931v.855h2v-.855h-2zm0 2.564v1.71h2v-1.71h-2zm0 3.418v.855h2v-.855h-2zm0 .855c0 .496.028.973.087 1.43l1.984-.254a9.23 9.23 0 01-.071-1.176h-2zm.993 4.274c.259.456.57.872.931 1.245l1.437-1.392a4.182 4.182 0 01-.63-.842l-1.738.99zm.931 1.245c.371.383.792.72 1.259 1.013l1.064-1.694a4.684 4.684 0 01-.886-.71l-1.437 1.39zm4.114 2.156c.464.11.951.195 1.461.26l.252-1.984a12.324 12.324 0 01-1.256-.223l-.457 1.947zm14.943-6.555h-.855v2h.855v-2zm-2.564 0h-1.71v2h1.71v-2zm-3.419 0h-.854v2h.854v-2zm-.854 0c-.348 0-.671-.008-.97-.024l-.108 1.997c.34.018.699.027 1.078.027v-2zm-2.766-.285a2.199 2.199 0 01-.636-.276l-1.147 1.638c.355.248.773.427 1.224.558l.559-1.92zm-.609-.257a1.12 1.12 0 01-.29-.33l-1.715 1.028c.211.351.478.657.805.902l1.2-1.6zm-.624-1.5a6.578 6.578 0 01-.036-.721h-2c0 .326.015.638.047.936l1.989-.216zm-.036-.721v-.808h-2v.808h2zm0-2.425v-.808h-2v.808h2zm0-.808c0-.223.013-.423.038-.6l-1.981-.275a6.35 6.35 0 00-.057.875h2zm.361-1.495a1.03 1.03 0 01.278-.252l-1.053-1.7a3.014 3.014 0 00-.812.735l1.587 1.216zm.288-.258c.157-.1.375-.2.672-.289l-.572-1.916a4.655 4.655 0 00-1.173.517l1.073 1.688zm2.435-.56c.295-.017.611-.026.951-.026v-2c-.374 0-.73.01-1.068.03l.117 1.996zm.951-.026h.854v-2h-.854v2zm2.563 0h1.71v-2h-1.71v2zm3.419 0h.855v-2h-.855v2zm-.145-1v.861h2v-.861h-2zm0 2.584v1.722h2V11.07h-2zm0 3.445v1.722h2v-1.722h-2zm0 3.445v.861h2v-.861h-2z" fill="#77C2F9" fill-opacity=".9"/></svg>