<svg width="340" height="50" fill="none" xmlns="http://www.w3.org/2000/svg"><path d="M5.698 49h-.5v.411l.404.08.096-.491zm0-8.436l.116-.486-.616-.147v.633h.5zm3.034.666l-.098.49.004.001.094-.491zm6.438-.666l.282.413.005-.003-.287-.41zm2.516-3.108l.447.224.003-.007-.45-.217zm1.036-2.146l.45.217.111-.23-.121-.225-.44.238zM.148.974v-.5h-.839l.4.738.439-.238zm12.062 0l.447-.224-.138-.276h-.309v.5zm12.062 24.124l-.447.224.138.276h.309v-.5zm.296 0v.5h.34l.125-.316-.465-.184zM34.114.974v-.5h-.34L33.65.79l.465.184zm11.618 0l.456.206.318-.706h-.774v.5zm-17.39 38.554l-.456-.206v.003l.456.203zm-5.994 7.77l-.28-.415.28.415zM12.136 49.24c-.255 0-.52-.005-.791-.016l-.04 1c.285.01.562.016.831.016v-1zm-2.38-.128a35.655 35.655 0 01-1.588-.195l-.143.99c.566.082 1.11.149 1.633.2l.098-.995zm-3.172-.454a50.95 50.95 0 01-.79-.149l-.192.982c.272.053.54.104.805.151l.177-.984zM6.198 49v-1.054h-1V49h1zm0-3.163v-2.11h-1v2.11h1zm0-4.219v-1.054h-1v1.054h1zm-.616-.568c.255.061.509.12.76.178l.224-.975c-.25-.057-.5-.115-.752-.175l-.232.972zm2.286.513c.257.054.512.107.766.157l.196-.98c-.25-.05-.502-.102-.756-.155l-.206.978zm.77.158c.255.049.506.091.755.128l.147-.989a17.795 17.795 0 01-.714-.121l-.188.982zm2.283.284c.26.014.517.021.771.021v-1c-.236 0-.475-.007-.718-.02l-.053 1zm.771.021a8.5 8.5 0 00.971-.054l-.114-.993a7.524 7.524 0 01-.857.047v1zm2.882-.56c.31-.137.603-.3.878-.49l-.564-.825a4.537 4.537 0 01-.72.402l.406.913zm.883-.492a6.8 6.8 0 00.838-.696l-.697-.717a5.81 5.81 0 01-.715.593l.574.82zm2.164-2.372c.18-.29.35-.598.512-.922l-.894-.448c-.15.3-.306.58-.469.844l.85.526zm.515-.929l.26-.536-.901-.435-.26.537.901.434zm.777-1.61l.26-.536-.901-.434-.26.536.901.435zm.249-.99l-.465-.86-.88.477.465.858.88-.476zm-1.393-2.576l-.929-1.717-.88.476.93 1.717.879-.476zm-1.858-3.434l-.928-1.716-.88.475.929 1.717.88-.476zm-1.857-3.433l-.929-1.717-.88.476.93 1.716.879-.475zm-1.857-3.434l-.93-1.717-.879.476.929 1.717.88-.476zm-1.858-3.434l-.929-1.716-.88.476.93 1.716.88-.476zM8.482 15.33l-.929-1.717-.88.476.93 1.717.879-.476zm-1.858-3.434l-.928-1.716-.88.475.929 1.717.88-.476zM4.767 8.462l-.929-1.717-.88.476.93 1.716.879-.475zM2.91 5.028l-.93-1.717-.879.476.929 1.717.88-.476zM1.052 1.595L.588.736l-.88.476.465.858.88-.475zm-.904-.121h1.005v-1H.148v1zm3.015 0h2.01v-1h-2.01v1zm4.021 0h2.01v-1h-2.01v1zm4.02 0h1.006v-1h-1.005v1zm.559-.276l.43.861.895-.447-.43-.862-.895.448zm1.292 2.584l.862 1.723.894-.447-.861-1.723-.895.447zm1.723 3.447l.862 1.723.894-.447-.861-1.724-.895.448zm1.723 3.446l.862 1.723.894-.447-.861-1.723-.895.447zm1.724 3.446l.861 1.723.895-.447-.862-1.723-.894.447zm1.723 3.446l.861 1.724.895-.448-.862-1.723-.894.447zm1.723 3.447l.861 1.723.895-.447-.862-1.723-.894.447zm1.723 3.446l.43.862.895-.448-.43-.861-.895.447zm.878 1.138h.074v-1h-.074v1zm.222 0h.074v-1h-.074v1zm.539-.316l.398-1.005-.93-.368-.398 1.005.93.368zm1.193-3.015l.796-2.01-.93-.369-.796 2.01.93.369zm1.591-4.021l.796-2.01-.93-.369-.796 2.01.93.369zm1.591-4.02l.796-2.011-.93-.368-.796 2.01.93.368zM31 10.203l.796-2.01-.93-.368-.796 2.01.93.368zm1.591-4.02l.796-2.01-.93-.368-.796 2.01.93.368zm1.591-4.02l.398-1.006-.93-.368-.398 1.005.93.368zm-.067-.69h.968v-1h-.968v1zm2.905 0h1.936v-1H37.02v1zm3.872 0h1.937v-1H40.89v1zm3.873 0h.968v-1h-.968v1zm.512-.706l-.395.877.912.41.395-.875-.912-.412zm-1.186 2.63L43.3 5.15l.912.41.79-1.752-.912-.41zm-1.58 3.504l-.79 1.752.91.412.791-1.753-.911-.411zm-1.581 3.505l-.79 1.752.91.411.791-1.752-.911-.411zm-1.581 3.505l-.79 1.752.91.411.791-1.752-.911-.411zm-1.581 3.505l-.79 1.752.911.411.79-1.752-.911-.411zm-1.581 3.505l-.79 1.752.911.411.79-1.752-.911-.411zm-1.58 3.505l-.791 1.752.911.411.79-1.752-.91-.411zm-1.582 3.505l-.79 1.752.911.411.79-1.752-.91-.412zm-1.58 3.504l-.791 1.753.911.411.79-1.753-.91-.41zm-1.582 3.505l-.79 1.753.912.41.79-1.752-.912-.41zm-1.58 3.505l-.396.876.912.412.395-.877-.912-.41zm-.397.879c-.169.38-.342.748-.52 1.104l.894.447c.186-.37.365-.752.54-1.145l-.914-.406zm-1.717 3.219a17.55 17.55 0 01-1.438 1.94l.76.652a18.543 18.543 0 001.519-2.051l-.841-.541zm-3.143 3.625c-.312.257-.63.495-.956.714l.558.83a13.26 13.26 0 001.034-.773l-.637-.771zm-.956.714c-.23.155-.47.303-.721.443l.489.873c.273-.153.537-.315.79-.486l-.558-.83zm-2.264 1.164c-.513.198-1.058.371-1.636.52l.25.969a15.948 15.948 0 001.746-.556l-.36-.933zm-3.327.873c-.551.09-1.126.16-1.725.212l.086.996a24.437 24.437 0 001.799-.221l-.16-.987zm-3.467.309c-.287.007-.579.011-.875.011v1c.305 0 .605-.004.901-.012l-.026-1zM5.698 49h-1v.823l.808.158.192-.981zm0-8.436l.232-.973-1.232-.293v1.266h1zm3.034.666l-.196.98.009.002.187-.982zm6.438-.666l.565.825.008-.006-.573-.819zm2.516-3.108l.895.447.006-.012-.901-.435zm1.036-2.146l.9.435.223-.46-.243-.45-.88.475zM.148.974v-1H-1.53l.798 1.476.88-.476zm12.062 0l.894-.447-.276-.553h-.618v1zm12.062 24.124l-.894.447.276.553h.618v-1zm.296 0v1h.68l.25-.632-.93-.368zM34.114.974v-1h-.68l-.25.632.93.368zm11.618 0l.912.411.636-1.411h-1.548v1zm-17.39 38.554l-.912-.411-.002.005.914.406zm-5.994 7.77l-.559-.83.559.83zM12.136 48.74c-.249 0-.506-.005-.772-.015l-.077 1.998c.29.011.573.017.849.017v-2zm-2.33-.125c-.498-.05-1.02-.114-1.566-.193l-.287 1.98c.573.083 1.125.15 1.655.203l.198-1.99zm-3.133-.449a54.84 54.84 0 01-.783-.147l-.384 1.962c.274.054.545.105.812.153l.355-1.968zm.025.834v-1.054h-2V49h2zm0-3.163v-2.11h-2v2.11h2zm0-4.219v-1.054h-2v1.054h2zm-1.232-.081l.765.178.447-1.95a88.186 88.186 0 01-.748-.174l-.464 1.946zm2.3.516c.258.054.515.107.77.158l.392-1.962c-.249-.05-.5-.1-.751-.154l-.411 1.958zm.779.16c.26.049.519.093.775.13l.293-1.978a17.28 17.28 0 01-.694-.117l-.374 1.964zm2.35.291c.268.015.534.022.797.022v-2c-.226 0-.457-.006-.691-.019l-.107 1.997zm.797.022c.352 0 .695-.019 1.028-.057l-.228-1.987c-.252.03-.519.044-.8.044v2zm3.085-.603c.337-.15.656-.328.958-.534l-1.13-1.65a4.05 4.05 0 01-.64.357l.813 1.827zm.966-.54c.316-.22.616-.47.9-.746l-1.393-1.435a5.3 5.3 0 01-.653.543l1.146 1.638zm2.303-2.519c.188-.303.366-.624.534-.96l-1.788-.895c-.144.287-.293.555-.447.804l1.701 1.051zm.54-.973l.26-.537-1.802-.87-.259.537 1.802.87zm.778-1.61l.259-.536-1.802-.87-.259.537 1.802.87zm.238-1.447l-.465-.858-1.759.951.464.859 1.76-.952zm-1.393-2.575l-.93-1.717-1.758.952.928 1.717 1.76-.952zm-1.858-3.434l-.929-1.716-1.759.951.929 1.717 1.76-.952zm-1.857-3.433l-.929-1.717-1.76.952.93 1.716 1.759-.951zm-1.858-3.434l-.928-1.717-1.76.952.93 1.717 1.758-.952zm-1.857-3.433l-.929-1.717-1.759.951.929 1.717 1.759-.951zM8.922 15.09l-.93-1.717-1.758.952.928 1.717 1.76-.952zm-1.858-3.434L6.135 9.94l-1.759.951.929 1.717 1.76-.952zM5.207 8.224l-.929-1.717-1.76.952.93 1.716 1.759-.951zM3.349 4.79l-.928-1.717-1.76.952.93 1.717 1.758-.952zM1.492 1.357L1.028.498l-1.76.952.465.858 1.759-.951zm-1.344.617h1.005v-2H.148v2zm3.016 0h2.01v-2h-2.01v2zm4.02 0h2.01v-2h-2.01v2zm4.02 0h1.006v-2h-1.005v2zm.112-.553l.43.862 1.79-.895-.432-.861-1.788.894zm1.292 2.585l.861 1.723 1.79-.894-.862-1.724-1.79.895zm1.723 3.446l.862 1.723 1.789-.894-.862-1.723-1.789.894zm1.723 3.447l.862 1.723 1.789-.895-.862-1.723-1.789.895zm1.723 3.446l.862 1.723 1.789-.895-.862-1.723-1.789.895zM19.5 17.79l.862 1.723 1.789-.894-.862-1.723-1.789.894zm1.724 3.446l.861 1.724 1.79-.895-.863-1.723-1.788.894zm1.723 3.447l.43.861 1.79-.894-.431-.862-1.79.895zm1.325 1.414h.074v-2h-.074v2zm.222 0h.074v-2h-.074v2zm1.004-.632l.398-1.005-1.86-.736-.398 1.005 1.86.736zm1.193-3.016l.796-2.01-1.86-.736-.796 2.01 1.86.736zm1.591-4.02l.796-2.01-1.86-.736-.796 2.01 1.86.736zm1.591-4.02l.796-2.011-1.86-.736-.796 2.01 1.86.736zm1.591-4.022l.796-2.01-1.86-.736-.796 2.01 1.86.736zm1.591-4.02l.796-2.01-1.86-.736-.796 2.01 1.86.736zm1.591-4.02l.398-1.006-1.86-.736-.398 1.005 1.86.736zm-.532-.374h.968v-2h-.968v2zm2.905 0h1.936v-2h-1.936v2zm3.872 0h1.937v-2H40.89v2zm3.873 0h.968v-2h-.968v2zm.056-1.41l-.395.876 1.823.822.396-.876L44.82.563zm-1.185 2.629l-.79 1.752 1.822.822.79-1.752-1.822-.822zm-1.581 3.504l-.79 1.753 1.822.822.791-1.752-1.823-.823zm-1.581 3.505l-.79 1.753 1.823.822.79-1.752-1.823-.823zm-1.581 3.505l-.79 1.753 1.823.822.79-1.752-1.823-.823zm-1.58 3.505l-.791 1.753 1.823.822.79-1.753-1.823-.822zm-1.582 3.505l-.79 1.752 1.823.823.79-1.753-1.823-.822zm-1.58 3.505l-.791 1.752 1.823.823.79-1.753-1.823-.822zm-1.582 3.505l-.79 1.752 1.823.823.79-1.753-1.823-.822zm-1.58 3.505l-.791 1.752 1.823.823.79-1.753-1.823-.822zm-1.581 3.505l-.79 1.752 1.822.822.79-1.752-1.822-.822zm-1.581 3.505l-.396.876 1.824.822.395-.876-1.823-.822zm-.398.88c-.166.374-.336.735-.51 1.085l1.789.893c.188-.377.371-.765.549-1.165l-1.828-.812zm-1.68 3.153c-.445.69-.91 1.318-1.397 1.885l1.518 1.302a19.037 19.037 0 001.56-2.106l-1.682-1.081zm-3.042 3.51c-.299.246-.604.474-.917.685l1.118 1.658c.367-.247.725-.515 1.073-.802l-1.274-1.542zm-.917.685a9.8 9.8 0 01-.686.421l.978 1.745c.285-.16.56-.329.826-.508l-1.118-1.658zm-2.164 1.111c-.494.19-1.02.359-1.58.504l.5 1.936c.629-.163 1.23-.354 1.8-.574l-.72-1.866zm-3.227.846c-.538.087-1.1.157-1.688.208l.173 1.992a24.8 24.8 0 001.835-.226l-.32-1.974zm-3.4.303c-.283.007-.57.011-.862.011v2c.31 0 .614-.004.914-.012l-.052-2zm72.206-18.081h.5v-.855l-.746.42.246.435zm-24.42.222l-.305.397.008.006.296-.403zM56.638.974v-.5h-.5v.5h.5zm11.396 0h.5v-.5h-.5v.5zm1.703 23.088l-.298.402.01.007.01.007.278-.416zm10.656.222l-.155-.476.154.476zm4.81-2.442l.312.39.188-.15v-.24h-.5zm0-20.868v-.5h-.5v.5h.5zm11.544 0h.5v-.5h-.5v.5zm0 48.026v.5h.5V49h-.5zm-11.544 0h-.5v.5h.5V49zm-.246-18.788c-.26.147-.523.288-.79.425l.454.89c.28-.143.555-.29.827-.443l-.49-.872zm-2.42 1.18c-.549.228-1.11.437-1.685.628l.316.95a25.268 25.268 0 001.753-.656l-.385-.923zm-3.412 1.136c-.574.148-1.16.278-1.76.391l.186.983c.62-.117 1.227-.252 1.823-.405l-.249-.969zm-3.543.673c-.588.076-1.188.136-1.799.18l.073.998a34.162 34.162 0 001.853-.186l-.127-.992zm-3.607.267c-.3.006-.602.01-.906.01v1c.312 0 .622-.004.929-.01l-.023-1zm-.906.01c-.301 0-.598-.006-.892-.017l-.04.999c.307.012.618.018.931.018v-1zm-2.664-.165a18 18 0 01-1.744-.31l-.225.974c.598.138 1.212.247 1.842.328l.127-.992zm-3.441-.8a15.01 15.01 0 01-1.627-.678l-.439.898c.56.274 1.138.515 1.736.724l.33-.944zm-3.16-1.544c-.246-.16-.488-.327-.725-.502l-.593.806c.253.186.511.364.774.535l.544-.84zm-.717-.496a8.508 8.508 0 01-.712-.611l-.692.721c.252.242.517.47.795.684l.609-.794zm-1.915-2.05a10.003 10.003 0 01-.894-1.667l-.92.39a11 11 0 00.983 1.832l.83-.556zm-1.497-3.479a16.295 16.295 0 01-.358-1.894l-.992.13c.092.704.22 1.374.38 2.01l.97-.246zm-.518-3.829a25.456 25.456 0 01-.019-.975h-1c0 .344.007.682.02 1.014l.999-.039zm-.019-.975v-.958h-1v.958h1zm0-2.875v-1.917h-1v1.917h1zm0-3.833v-1.917h-1v1.917h1zm0-3.833V7.682h-1V9.6h1zm0-3.833V3.849h-1v1.917h1zm0-3.834V.974h-1v.958h1zm-.5-.458h.95v-1h-.95v1zm2.85 0h1.899v-1h-1.9v1zm3.798 0h1.9v-1h-1.9v1zm3.799 0h.95v-1h-.95v1zm.45-.5v.914h1V.974h-1zm0 2.742v1.827h1V3.716h-1zm0 3.655V9.2h1V7.371h-1zm0 3.656v1.828h1v-1.828h-1zm0 3.655v1.828h1v-1.828h-1zm0 3.656v.914h1v-.914h-1zm0 .914c0 .486.023.944.07 1.375l.994-.109a11.68 11.68 0 01-.064-1.266h-1zm.896 4.092c.271.447.607.823 1.008 1.12l.595-.804a2.866 2.866 0 01-.748-.834l-.855.518zm1.028 1.134c.355.237.737.44 1.145.61l.384-.924a5.684 5.684 0 01-.974-.518l-.555.832zm3.615 1.207c.4.04.818.061 1.25.061v-1c-.401 0-.784-.019-1.149-.056l-.101.995zm1.25.061c.265 0 .528-.005.79-.015l-.038-1c-.25.01-.5.015-.751.015v1zm2.367-.138a19.913 19.913 0 001.563-.248l-.196-.98a18.93 18.93 0 01-1.484.234l.117.994zm3.1-.619c.253-.071.505-.148.756-.23l-.31-.95c-.238.077-.478.15-.718.218l.272.962zm.756-.23a21.53 21.53 0 001.306-.47l-.37-.929a20.58 20.58 0 01-1.245.448l.309.951zm3.81-1.713c.414-.256.8-.527 1.158-.814l-.625-.78c-.324.26-.677.507-1.06.744l.527.85zm1.346-1.204v-1.043h-1v1.043h1zm0-3.13v-2.087h-1v2.087h1zm0-4.174v-2.087h-1v2.087h1zm0-4.173V8.278h-1v2.087h1zm0-4.174V4.104h-1v2.087h1zm0-4.174V.974h-1v1.043h1zm-.5-.543h.962v-1h-.962v1zm2.886 0h1.923v-1H88.09v1zm3.847 0h1.925v-1h-1.924v1zm3.849 0h.962v-1h-.963v1zm.462-.5v1h1v-1h-1zm0 3.002v2h1v-2h-1zm0 4.002v2h1v-2h-1zm0 4.002v2.001h1V11.98h-1zm0 4.002v2.001h1v-2h-1zm0 4.002v2.001h1v-2h-1zm0 4.002v2.002h1v-2.002h-1zm0 4.003v2h1v-2h-1zm0 4.002v2h1v-2h-1zm0 4.002v2.001h1v-2.001h-1zm0 4.002v2.001h1v-2h-1zm0 4.002v2.001h1v-2h-1zm0 4.002V49h1v-1h-1zm.5.501h-.963v1h.963v-1zm-2.886 0h-1.924v1h1.924v-1zm-3.849 0H88.09v1h1.924v-1zm-3.848 0h-.962v1h.962v-1zm-.462.5v-.918h-1V49h1zm0-2.753v-1.835h-1v1.835h1zm0-3.67v-1.835h-1v1.835h1zm0-3.67V37.07h-1v1.835h1zm0-3.671v-1.835h-1v1.835h1zm0-3.67v-.918h-1v.918h1zm-.5-.918h1v-1.71l-1.49.838.49.872zm-24.42.222l-.608.793.007.006.008.006.593-.805zM56.64.974v-1h-1v1h1zm11.396 0h1v-1h-1v1zm1.703 23.088l-.595.804.02.015.02.013.554-.832zm10.656.222l-.31-.951.31.951zm4.81-2.442l.624.78.376-.3v-.48h-1zm0-20.868v-1h-1v1h1zm11.544 0h1v-1h-1v1zm0 48.026v1h1v-1h-1zm-11.544 0h-1v1h1v-1zm-.49-19.224c-.255.143-.513.282-.774.415l.91 1.781c.285-.145.566-.296.844-.452l-.98-1.744zm-2.369 1.154a23.96 23.96 0 01-1.65.616l.632 1.898a26.085 26.085 0 001.788-.668l-.77-1.846zm-3.343 1.114c-.564.145-1.14.273-1.729.384l.372 1.965c.63-.119 1.248-.256 1.854-.412l-.497-1.937zm-3.482.661c-.58.075-1.17.134-1.772.178l.146 1.994a34.71 34.71 0 001.88-.188l-.254-1.984zm-3.556.263c-.296.007-.594.01-.894.01v2c.316 0 .63-.004.94-.01l-.046-2zm-.894.01c-.295 0-.585-.006-.872-.017l-.08 1.998c.314.013.631.019.952.019v-2zm-2.6-.16a17.38 17.38 0 01-1.695-.303l-.45 1.949a19.35 19.35 0 001.89.337l.255-1.983zm-3.34-.777a14.502 14.502 0 01-1.573-.656l-.877 1.798c.578.282 1.174.53 1.79.745l.66-1.887zm-3.053-1.492a14.08 14.08 0 01-.7-.484l-1.187 1.61c.262.192.528.377.8.552l1.087-1.678zm-.684-.472a8.004 8.004 0 01-.67-.576l-1.386 1.443c.266.255.545.494.837.72l1.218-1.587zm-1.805-1.933a9.5 9.5 0 01-.848-1.583l-1.842.78c.29.685.633 1.325 1.028 1.916l1.662-1.113zm-1.428-3.323a15.814 15.814 0 01-.347-1.836l-1.983.26c.095.721.225 1.411.392 2.068l1.938-.492zm-.503-3.725c-.011-.312-.017-.63-.017-.956h-2c0 .35.006.694.019 1.033l1.998-.077zm-.017-.956v-.958h-2v.958h2zm0-2.875v-1.917h-2v1.917h2zm0-3.833v-1.917h-2v1.917h2zm0-3.833V7.682h-2V9.6h2zm0-3.833V3.849h-2v1.917h2zm0-3.834V.974h-2v.958h2zm-1 .042h.95v-2h-.95v2zm2.849 0h1.899v-2h-1.9v2zm3.798 0h1.9v-2h-1.9v2zm3.799 0h.95v-2h-.95v2zm-.05-1v.914h2V.974h-2zm0 2.742v1.827h2V3.716h-2zm0 3.655V9.2h2V7.371h-2zm0 3.656v1.828h2v-1.828h-2zm0 3.655v1.828h2v-1.828h-2zm0 3.656v.914h2v-.914h-2zm0 .914c0 .502.023.978.073 1.429l1.988-.217c-.04-.37-.061-.773-.061-1.212h-2zm.968 4.35c.302.5.681.926 1.14 1.264l1.188-1.608a2.365 2.365 0 01-.617-.691l-1.71 1.036zm1.179 1.292a7.19 7.19 0 001.23.655l.768-1.847a5.188 5.188 0 01-.889-.472l-1.11 1.664zm3.84 1.288c.42.043.854.064 1.303.064v-2c-.386 0-.752-.018-1.1-.053l-.202 1.99zm1.303.064c.27 0 .54-.005.81-.016l-.078-1.998c-.244.01-.488.014-.733.014v2zm2.425-.142c.537-.063 1.07-.148 1.601-.254l-.391-1.961c-.479.095-.96.172-1.445.229l.235 1.986zm3.177-.634c.259-.073.517-.151.775-.235l-.619-1.902c-.233.076-.466.147-.7.213l.544 1.924zm.775-.235c.463-.15.908-.31 1.336-.48l-.74-1.86c-.385.154-.79.3-1.215.438l.619 1.902zm3.919-1.764c.43-.266.832-.549 1.206-.848l-1.25-1.562c-.307.246-.644.483-1.01.71l1.054 1.7zm1.582-1.629v-1.043h-2v1.043h2zm0-3.13v-2.087h-2v2.087h2zm0-4.174v-2.087h-2v2.087h2zm0-4.173V8.278h-2v2.087h2zm0-4.174V4.104h-2v2.087h2zm0-4.174V.974h-2v1.043h2zm-1-.043h.962v-2h-.962v2zm2.886 0h1.923v-2H88.09v2zm3.847 0h1.925v-2h-1.924v2zm3.849 0h.962v-2h-.963v2zm-.038-1v1h2v-1h-2zm0 3.002v2h2v-2h-2zm0 4.002v2h2v-2h-2zm0 4.002v2.001h2V11.98h-2zm0 4.002v2.001h2v-2h-2zm0 4.002v2.001h2v-2h-2zm0 4.002v2.002h2v-2.002h-2zm0 4.003v2h2v-2h-2zm0 4.002v2h2v-2h-2zm0 4.002v2.001h2v-2.001h-2zm0 4.002v2.001h2v-2h-2zm0 4.002v2.001h2v-2h-2zm0 4.002V49h2v-1h-2zm1 .001h-.963v2h.963v-2zm-2.886 0h-1.924v2h1.924v-2zm-3.849 0H88.09v2h1.924v-2zm-3.848 0h-.962v2h.962v-2zm.038 1v-.918h-2V49h2zm0-2.753v-1.835h-2v1.835h2zm0-3.67v-1.835h-2v1.835h2zm0-3.67V37.07h-2v1.835h2zm0-3.671v-1.835h-2v1.835h2zm0-3.67v-.918h-2v.918h2zm28.3-30.592v-.5h-.5v.5h.5zm11.544 0h.5v-.5h-.5v.5zm0 32.856h-.5v1.73l.923-1.463-.423-.267zM146.767.974v-.5h-.275l-.147.233.422.267zm11.544 0h.5v-.5h-.5v.5zm0 48.026v.5h.5V49h-.5zm-11.544 0h-.5v.5h.5V49zm0-33.374h.5v-1.753l-.924 1.49.424.263zM126.047 49v.5h.279l.146-.236-.425-.264zm-11.544 0h-.5v.5h.5V49zm-.5-48.026v1h1v-1h-1zm0 3.002v2h1v-2h-1zm0 4.002v2h1v-2h-1zm0 4.002v2.001h1V11.98h-1zm0 4.002v2.001h1v-2h-1zm0 4.002v2.001h1v-2h-1zm0 4.002v2.002h1v-2.002h-1zm0 4.003v2h1v-2h-1zm0 4.002v2h1v-2h-1zm0 4.002v2.001h1v-2.001h-1zm0 4.002v2.001h1v-2h-1zm0 4.002v2.001h1v-2h-1zm0 4.002V49h1v-1h-1zm.5 1.501h.962v-1h-.962v1zm2.886 0h1.924v-1h-1.924v1zm3.848 0h1.924v-1h-1.924v1zm3.848 0h.962v-1h-.962v1zm1.387-.236l.518-.835-.849-.527-.518.834.849.528zm1.554-2.503l1.036-1.669-.849-.527-1.036 1.668.849.528zm2.072-3.338l1.036-1.668-.849-.528-1.036 1.669.849.527zm2.072-3.337l1.036-1.669-.849-.527-1.036 1.668.849.528zm2.072-3.337l1.036-1.67-.849-.527-1.036 1.669.849.528zm2.072-3.338l1.036-1.669-.849-.527-1.036 1.669.849.527zm2.072-3.337l1.036-1.669-.849-.527-1.036 1.668.849.528zm2.072-3.338l1.036-1.668-.849-.528-1.036 1.669.849.527zm2.072-3.337l1.036-1.669-.849-.527-1.036 1.668.849.528zm2.072-3.338l1.036-1.668-.849-.528-1.036 1.669.849.527zm2.072-3.337l.518-.834-.849-.528-.518.835.849.527zm-.407-1.098v1.043h1v-1.043h-1zm0 3.129v2.086h1v-2.086h-1zm0 4.172v2.085h1v-2.085h-1zm0 4.171v2.086h1v-2.086h-1zm0 4.172v2.086h1V31.27h-1zm0 4.172v2.086h1v-2.086h-1zm0 4.172v2.085h1v-2.085h-1zm0 4.171v2.086h1v-2.086h-1zm0 4.172V49h1v-1.043h-1zm.5 1.543h.962v-1h-.962v1zm2.886 0h1.924v-1h-1.924v1zm3.848 0h1.924v-1h-1.924v1zm3.848 0h.962v-1h-.962v1zm1.462-.5v-1h-1v1h1zm0-3.002v-2h-1v2h1zm0-4.002v-2h-1v2h1zm0-4.002v-2.001h-1v2.001h1zm0-4.002V31.99h-1v2h1zm0-4.002v-2.001h-1v2h1zm0-4.002v-2.002h-1v2.002h1zm0-4.003v-2h-1v2h1zm0-4.002v-2h-1v2h1zm0-4.002V11.98h-1v2.001h1zm0-4.002V7.978h-1v2h1zm0-4.002V3.976h-1v2h1zm0-4.002V.974h-1v1h1zm-.5-1.501h-.962v1h.962v-1zm-2.886 0h-1.924v1h1.924v-1zm-3.848 0h-1.924v1h1.924v-1zm-3.848 0h-.962v1h.962v-1zm-1.384.233l-.518.822.845.533.518-.821-.845-.534zm-1.554 2.464l-1.036 1.643.845.534 1.036-1.643-.845-.534zm-2.072 3.286L141.683 8.1l.845.533 1.036-1.642-.845-.534zm-2.072 3.286l-1.036 1.643.845.533 1.036-1.643-.845-.533zm-2.072 3.285l-1.036 1.643.845.534 1.036-1.643-.845-.534zm-2.072 3.286l-1.036 1.643.845.533 1.036-1.643-.845-.533zm-2.072 3.285l-1.036 1.643.845.534 1.036-1.643-.845-.534zm-2.072 3.286l-1.036 1.643.845.533 1.036-1.642-.845-.534zm-2.072 3.286l-1.036 1.643.845.533 1.036-1.643-.845-.533zm-2.072 3.285l-1.036 1.643.845.534 1.036-1.643-.845-.534zm-2.072 3.286l-.518.821.845.534.518-.822-.845-.533zm.404 1.088v-1.027h-1v1.027h1zm0-3.08v-2.054h-1v2.054h1zm0-4.107v-2.054h-1v2.054h1zm0-4.107v-2.054h-1v2.054h1zm0-4.107v-2.054h-1v2.054h1zm0-4.107v-2.054h-1v2.054h1zm0-4.107V8.16h-1v2.054h1zm0-4.107V4.054h-1v2.054h1zm0-4.107V.974h-1v1.027h1zm-.5-1.527h-.962v1h.962v-1zm-2.886 0h-1.924v1h1.924v-1zm-3.848 0h-1.924v1h1.924v-1zm-3.848 0h-.962v1h.962v-1zm-.962.5v-1h-1v1h1zm11.544 0h1v-1h-1v1zm0 32.856h-1v3.46l1.846-2.927-.846-.533zM146.767.974v-1h-.551l-.294.467.845.533zm11.544 0h1v-1h-1v1zm0 48.026v1h1v-1h-1zm-11.544 0h-1v1h1v-1zm0-33.374h1v-3.507l-1.849 2.98.849.527zM126.047 49v1h.557l.293-.472-.85-.528zm-11.544 0h-1v1h1v-1zm-1-48.026v1h2v-1h-2zm0 3.002v2h2v-2h-2zm0 4.002v2h2v-2h-2zm0 4.002v2.001h2V11.98h-2zm0 4.002v2.001h2v-2h-2zm0 4.002v2.001h2v-2h-2zm0 4.002v2.002h2v-2.002h-2zm0 4.003v2h2v-2h-2zm0 4.002v2h2v-2h-2zm0 4.002v2.001h2v-2.001h-2zm0 4.002v2.001h2v-2h-2zm0 4.002v2.001h2v-2h-2zm0 4.002V49h2v-1h-2zm1 2.001h.962v-2h-.962v2zm2.886 0h1.924v-2h-1.924v2zm3.848 0h1.924v-2h-1.924v2zm3.848 0h.962v-2h-.962v2zm1.812-.472l.518-.835-1.699-1.055-.518.834 1.699 1.056zm1.554-2.504l1.036-1.668-1.699-1.055-1.036 1.668 1.699 1.055zm2.072-3.337l1.036-1.669-1.699-1.055-1.036 1.67 1.699 1.054zm2.072-3.337l1.036-1.67-1.699-1.054-1.036 1.669 1.699 1.055zm2.072-3.338l1.036-1.669-1.699-1.054-1.036 1.668 1.699 1.055zm2.072-3.337l1.036-1.669-1.699-1.055-1.036 1.669 1.699 1.055zm2.072-3.338l1.036-1.668-1.699-1.055-1.036 1.668 1.699 1.055zM140.883 27l1.036-1.669-1.699-1.055-1.036 1.67L140.883 27zm2.072-3.337l1.036-1.67-1.699-1.054-1.036 1.669 1.699 1.055zm2.072-3.338l1.036-1.668-1.699-1.055-1.036 1.668 1.699 1.055zm2.072-3.337l.518-.834-1.699-1.056-.518.835 1.699 1.055zm-1.332-1.362v1.043h2v-1.043h-2zm0 3.129v2.086h2v-2.086h-2zm0 4.172v2.085h2v-2.085h-2zm0 4.171v2.086h2v-2.086h-2zm0 4.172v2.086h2V31.27h-2zm0 4.172v2.086h2v-2.086h-2zm0 4.172v2.085h2v-2.085h-2zm0 4.171v2.086h2v-2.086h-2zm0 4.172V49h2v-1.043h-2zm1 2.043h.962v-2h-.962v2zm2.886 0h1.924v-2h-1.924v2zm3.848 0h1.924v-2h-1.924v2zm3.848 0h.962v-2h-.962v2zm1.962-1v-1h-2v1h2zm0-3.002v-2h-2v2h2zm0-4.002v-2h-2v2h2zm0-4.002v-2.001h-2v2.001h2zm0-4.002V31.99h-2v2h2zm0-4.002v-2.001h-2v2h2zm0-4.002v-2.002h-2v2.002h2zm0-4.003v-2h-2v2h2zm0-4.002v-2h-2v2h2zm0-4.002V11.98h-2v2.001h2zm0-4.002V7.978h-2v2h2zm0-4.002V3.976h-2v2h2zm0-4.002V.974h-2v1h2zm-1-2.001h-.962v2h.962v-2zm-2.886 0h-1.924v2h1.924v-2zm-3.848 0h-1.924v2h1.924v-2zm-3.848 0h-.962v2h.962v-2zm-1.807.467l-.518.821 1.691 1.067.518-.822-1.691-1.066zm-1.554 2.464l-1.036 1.643 1.691 1.066 1.036-1.642-1.691-1.067zm-2.072 3.285l-1.036 1.643 1.691 1.067 1.036-1.643-1.691-1.067zm-2.072 3.286l-1.036 1.643 1.691 1.067 1.036-1.643-1.691-1.067zm-2.072 3.286l-1.036 1.642 1.691 1.067 1.036-1.643-1.691-1.066zm-2.072 3.285l-1.036 1.643 1.691 1.067 1.036-1.643-1.691-1.067zm-2.072 3.286l-1.036 1.643 1.691 1.066 1.036-1.642-1.691-1.067zm-2.072 3.285l-1.036 1.643 1.691 1.067 1.036-1.643-1.691-1.067zm-2.072 3.286l-1.036 1.643 1.691 1.067 1.036-1.643-1.691-1.067zm-2.072 3.286l-1.036 1.642 1.691 1.067 1.036-1.643-1.691-1.066zm-2.072 3.285l-.518.822 1.691 1.066.518-.821-1.691-1.067zm1.327 1.355v-1.027h-2v1.027h2zm0-3.08v-2.054h-2v2.054h2zm0-4.107v-2.054h-2v2.054h2zm0-4.107v-2.054h-2v2.054h2zm0-4.107v-2.054h-2v2.054h2zm0-4.107v-2.054h-2v2.054h2zm0-4.107V8.16h-2v2.054h2zm0-4.107V4.054h-2v2.054h2zm0-4.107V.974h-2v1.027h2zm-1-2.027h-.962v2h.962v-2zm-2.886 0h-1.924v2h1.924v-2zm-3.848 0h-1.924v2h1.924v-2zm-3.848 0h-.962v2h.962v-2zm60.638 1v-.5h-.5v.5h.5zm16.428 0l.472-.163-.116-.337h-.356v.5zm11.84 34.336l-.473.163.476 1.38.47-1.382-.473-.161zM216.063.974v-.5h-.358l-.116.339.474.161zm15.466 0h.5v-.5h-.5v.5zm0 48.026v.5h.5V49h-.5zm-10.434 0h-.5v.5h.5V49zm0-35.52h.5v-.5h-.5v.5zm-.222 0v-.5h-.358l-.115.338.473.162zM208.737 49v.5h.357l.116-.338-.473-.162zm-9.25 0l-.472.166.118.334h.354V49zm-12.506-35.52l.471-.166-.117-.334h-.354v.5zm-.296 0v-.5h-.5v.5h.5zm0 35.52v.5h.5V49h-.5zm-10.582 0h-.5v.5h.5V49zm-.5-48.026v1h1v-1h-1zm0 3.002v2h1v-2h-1zm0 4.002v2h1v-2h-1zm0 4.002v2.001h1V11.98h-1zm0 4.002v2.001h1v-2h-1zm0 4.002v2.001h1v-2h-1zm0 4.002v2.002h1v-2.002h-1zm0 4.003v2h1v-2h-1zm0 4.002v2h1v-2h-1zm0 4.002v2.001h1v-2.001h-1zm0 4.002v2.001h1v-2h-1zm0 4.002v2.001h1v-2h-1zm0 4.002V49h1v-1h-1zm.5 1.501h.881v-1h-.881v1zm2.645 0h1.764v-1h-1.764v1zm3.527 0h1.764v-1h-1.764v1zm3.528 0h.882v-1h-.882v1zm1.382-.5v-.987h-1V49h1zm0-2.96v-1.973h-1v1.973h1zm0-3.947V40.12h-1v1.973h1zm0-3.946v-1.974h-1v1.974h1zm0-3.947v-1.973h-1V34.2h1zm0-3.947V28.28h-1v1.973h1zm0-3.946v-1.974h-1v1.974h1zm0-3.947v-1.973h-1v1.973h1zm0-3.947V16.44h-1v1.973h1zm0-3.946v-.987h-1v.987h1zm-.5-.487h.074v-1h-.074v1zm.222 0h.074v-1h-.074v1zm-.398-.334l.347.987.944-.332-.348-.987-.943.332zm1.042 2.96l.695 1.973.943-.332-.695-1.973-.943.332zm1.39 3.947l.695 1.973.943-.332-.695-1.973-.943.332zm1.389 3.946l.695 1.974.943-.332-.694-1.974-.944.332zm1.39 3.947l.695 1.973.943-.332-.695-1.973-.943.332zm1.389 3.947l.695 1.973.943-.332-.694-1.973-.944.332zm1.39 3.946l.695 1.974.943-.332-.695-1.974-.943.332zm1.39 3.947l.694 1.973.944-.332-.695-1.973-.943.332zm1.389 3.947l.695 1.973.943-.332-.695-1.973-.943.332zm1.39 3.946l.347.987.943-.332-.347-.987-.943.332zm.819 1.321h1.156v-1h-1.156v1zm3.468 0h2.313v-1h-2.313v1zm4.625 0h1.157v-1h-1.157v1zm1.63-.338l.337-.987-.946-.323-.337.986.946.324zm1.011-2.96l.674-1.974-.946-.323-.674 1.973.946.324zm1.349-3.947l.674-1.973-.946-.324-.675 1.974.947.323zm1.348-3.947l.674-1.973-.946-.323-.674 1.973.946.323zm1.348-3.946l.675-1.974-.947-.323-.674 1.973.946.324zm1.349-3.947l.674-1.973-.946-.324-.674 1.974.946.323zm1.348-3.947l.675-1.973-.947-.323-.674 1.973.946.323zm1.349-3.946l.674-1.974-.946-.323-.674 1.973.946.324zm1.348-3.947l.674-1.973-.946-.324-.674 1.974.946.323zm1.349-3.947l.337-.986-.946-.324-.338.987.947.323zm-.136-.648h.055v-1h-.055v1zm.166 0h.056v-1h-.056v1zm-.444-.5v.987h1v-.987h-1zm0 2.96v1.973h1V16.44h-1zm0 3.947v1.973h1v-1.973h-1zm0 3.946v1.974h1v-1.974h-1zm0 3.947v1.973h1V28.28h-1zm0 3.947V34.2h1v-1.973h-1zm0 3.946v1.974h1v-1.974h-1zm0 3.947v1.973h1V40.12h-1zm0 3.947v1.973h1v-1.973h-1zm0 3.946V49h1v-.987h-1zm.5 1.487h.869v-1h-.869v1zm2.608 0h1.739v-1h-1.739v1zm3.478 0h1.739v-1h-1.739v1zm3.478 0h.87v-1h-.87v1zm1.37-.5v-1h-1v1h1zm0-3.002v-2h-1v2h1zm0-4.002v-2h-1v2h1zm0-4.002v-2.001h-1v2.001h1zm0-4.002V31.99h-1v2h1zm0-4.002v-2.001h-1v2h1zm0-4.002v-2.002h-1v2.002h1zm0-4.003v-2h-1v2h1zm0-4.002v-2h-1v2h1zm0-4.002V11.98h-1v2.001h1zm0-4.002V7.978h-1v2h1zm0-4.002V3.976h-1v2h1zm0-4.002V.974h-1v1h1zm-.5-1.501h-.967v1h.967v-1zm-2.9 0h-1.933v1h1.933v-1zm-3.867 0h-1.933v1h1.933v-1zm-3.866 0h-1.933v1h1.933v-1zm-3.867 0h-.966v1h.966v-1zm-1.44.339l-.324.954.946.322.325-.954-.947-.322zm-.974 2.861l-.65 1.908.947.322.65-1.907-.947-.323zm-1.299 3.815l-.65 1.908.947.322.65-1.907-.947-.323zm-1.299 3.815l-.65 1.908.947.322.649-1.907-.946-.323zm-1.299 3.816l-.65 1.907.947.322.649-1.907-.946-.322zm-1.299 3.815l-.65 1.907.947.323.649-1.908-.946-.322zm-1.3 3.815l-.649 1.907.947.323.649-1.908-.947-.322zm-1.299 3.815l-.649 1.907.946.323.65-1.908-.947-.322zm-1.299 3.815l-.649 1.908.946.322.65-1.908-.947-.322zm-1.299 3.815l-.325.954.947.322.325-.954-.947-.322zm.621.952l-.329-.954-.945.326.329.954.945-.326zm-.986-2.861l-.658-1.908-.945.326.657 1.908.946-.326zm-1.316-3.815l-.658-1.908-.945.326.658 1.908.945-.326zm-1.315-3.816l-.658-1.907-.946.326.658 1.907.946-.326zm-1.316-3.815l-.658-1.907-.945.326.658 1.907.945-.326zm-1.316-3.815l-.657-1.907-.946.326.658 1.907.945-.326zm-1.315-3.815l-.658-1.907-.945.325.658 1.908.945-.326zm-1.316-3.815l-.657-1.908-.946.326.658 1.908.945-.326zm-1.315-3.815l-.658-1.908-.945.326.657 1.908.946-.326zm-1.316-3.815l-.329-.954-.945.326.329.954.945-.326zm-.801-1.291h-1.027v1h1.027v-1zm-3.081 0h-2.053v1h2.053v-1zm-4.107 0h-2.053v1h2.053v-1zm-4.107 0h-2.053v1h2.053v-1zm-4.107 0h-1.026v1h1.026v-1zm-1.026.5v-1h-1v1h1zm16.428 0l.945-.326-.232-.674h-.713v1zm11.84 34.336l-.946.326.952 2.759.94-2.763-.946-.322zM216.063.974v-1h-.716l-.231.678.947.322zm15.466 0h1v-1h-1v1zm0 48.026v1h1v-1h-1zm-10.434 0h-1v1h1v-1zm0-35.52h1v-1h-1v1zm-.222 0v-1h-.715l-.232.677.947.323zM208.737 49v1h.715l.231-.677-.946-.323zm-9.25 0l-.944.332.236.668h.708v-1zm-12.506-35.52l.943-.332-.235-.668h-.708v1zm-.296 0v-1h-1v1h1zm0 35.52v1h1v-1h-1zm-10.582 0h-1v1h1v-1zm-1-48.026v1h2v-1h-2zm0 3.002v2h2v-2h-2zm0 4.002v2h2v-2h-2zm0 4.002v2.001h2V11.98h-2zm0 4.002v2.001h2v-2h-2zm0 4.002v2.001h2v-2h-2zm0 4.002v2.002h2v-2.002h-2zm0 4.003v2h2v-2h-2zm0 4.002v2h2v-2h-2zm0 4.002v2.001h2v-2.001h-2zm0 4.002v2.001h2v-2h-2zm0 4.002v2.001h2v-2h-2zm0 4.002V49h2v-1h-2zm1 2.001h.881v-2h-.881v2zm2.645 0h1.764v-2h-1.764v2zm3.527 0h1.764v-2h-1.764v2zm3.528 0h.882v-2h-.882v2zm1.882-1v-.987h-2V49h2zm0-2.96v-1.973h-2v1.973h2zm0-3.947V40.12h-2v1.973h2zm0-3.946v-1.974h-2v1.974h2zm0-3.947v-1.973h-2V34.2h2zm0-3.947V28.28h-2v1.973h2zm0-3.946v-1.974h-2v1.974h2zm0-3.947v-1.973h-2v1.973h2zm0-3.947V16.44h-2v1.973h2zm0-3.946v-.987h-2v.987h2zm-1 .013h.074v-2h-.074v2zm.222 0h.074v-2h-.074v2zm-.87-.668l.348.987 1.886-.664-.347-.987-1.887.664zm1.043 2.96l.694 1.973 1.887-.664-.695-1.973-1.886.664zm1.389 3.947l.695 1.973 1.886-.664-.694-1.973-1.887.664zm1.39 3.946l.694 1.974 1.887-.664-.695-1.974-1.886.664zm1.389 3.947l.695 1.973 1.887-.664-.695-1.973-1.887.664zm1.39 3.947l.695 1.973 1.886-.664-.695-1.973-1.886.664zm1.389 3.946l.695 1.974 1.887-.664-.695-1.974-1.887.664zm1.39 3.947l.695 1.973 1.886-.664-.695-1.973-1.886.664zm1.389 3.947l.695 1.973 1.887-.664-.695-1.973-1.887.664zm1.39 3.946l.347.987 1.887-.664-.347-.987-1.887.664zM199.487 50h1.156v-2h-1.156v2zm3.468 0h2.313v-2h-2.313v2zm4.625 0h1.157v-2h-1.157v2zm2.103-.677l.337-.986-1.893-.647-.337.987 1.893.646zm1.011-2.96l.674-1.973-1.892-.647-.674 1.974 1.892.646zm1.349-3.946l.674-1.974-1.893-.646-.674 1.973 1.893.647zm1.348-3.947l.674-1.973-1.892-.647-.674 1.973 1.892.647zm1.349-3.947l.674-1.973-1.893-.647-.674 1.974 1.893.646zm1.348-3.946l.674-1.974-1.892-.646-.675 1.973 1.893.647zm1.349-3.947l.674-1.973-1.893-.647-.674 1.973 1.893.647zm1.348-3.947l.674-1.973-1.892-.647-.675 1.974 1.893.646zm1.348-3.946l.675-1.974-1.893-.646-.674 1.973 1.892.647zm1.349-3.947l.337-.987-1.893-.646-.337.986 1.893.647zm-.609-.31h.055v-2h-.055v2zm.166 0h.056v-2h-.056v2zm-.944-1v.987h2v-.987h-2zm0 2.96v1.973h2V16.44h-2zm0 3.947v1.973h2v-1.973h-2zm0 3.946v1.974h2v-1.974h-2zm0 3.947v1.973h2V28.28h-2zm0 3.947V34.2h2v-1.973h-2zm0 3.946v1.974h2v-1.974h-2zm0 3.947v1.973h2V40.12h-2zm0 3.947v1.973h2v-1.973h-2zm0 3.946V49h2v-.987h-2zm1 1.987h.869v-2h-.869v2zm2.608 0h1.739v-2h-1.739v2zm3.478 0h1.739v-2h-1.739v2zm3.478 0h.87v-2h-.87v2zm1.87-1v-1h-2v1h2zm0-3.002v-2h-2v2h2zm0-4.002v-2h-2v2h2zm0-4.002v-2.001h-2v2.001h2zm0-4.002V31.99h-2v2h2zm0-4.002v-2.001h-2v2h2zm0-4.002v-2.002h-2v2.002h2zm0-4.003v-2h-2v2h2zm0-4.002v-2h-2v2h2zm0-4.002V11.98h-2v2.001h2zm0-4.002V7.978h-2v2h2zm0-4.002V3.976h-2v2h2zm0-4.002V.974h-2v1h2zm-1-2.001h-.967v2h.967v-2zm-2.9 0h-1.933v2h1.933v-2zm-3.867 0h-1.933v2h1.933v-2zm-3.866 0h-1.933v2h1.933v-2zm-3.867 0h-.966v2h.966v-2zm-1.913.678l-.325.953 1.893.645.325-.954-1.893-.644zm-.974 2.861l-.65 1.908 1.893.644.65-1.907-1.893-.645zm-1.299 3.815l-.65 1.908 1.893.644.65-1.907-1.893-.645zm-1.3 3.815l-.649 1.908 1.893.644.65-1.907-1.894-.645zm-1.299 3.815l-.649 1.908 1.893.645.65-1.908-1.894-.645zm-1.299 3.815l-.649 1.908 1.893.645.65-1.908-1.894-.645zm-1.299 3.816l-.649 1.907 1.893.645.649-1.908-1.893-.645zm-1.299 3.815l-.65 1.907 1.894.645.649-1.908-1.893-.644zm-1.299 3.815l-.65 1.907 1.894.645.649-1.908-1.893-.644zm-1.299 3.815l-.325.954 1.893.644.325-.953-1.893-.645zm1.567.95l-.329-.954-1.891.652.329.954 1.891-.652zm-.987-2.861l-.657-1.908-1.891.652.658 1.908 1.89-.652zm-1.315-3.815l-.658-1.908-1.891.652.658 1.907 1.891-.651zm-1.316-3.816l-.658-1.907-1.89.652.658 1.907 1.89-.651zm-1.315-3.815l-.658-1.907-1.891.652.658 1.907 1.891-.652zm-1.316-3.815l-.658-1.907-1.89.652.657 1.907 1.891-.652zm-1.315-3.815l-.658-1.907-1.891.651.658 1.908 1.891-.652zm-1.316-3.815l-.658-1.908-1.89.652.657 1.908 1.891-.652zm-1.316-3.815l-.657-1.908-1.891.652.658 1.908 1.89-.652zm-1.315-3.815l-.329-.954-1.891.652.329.954 1.891-.652zm-1.274-1.628h-1.027v2h1.027v-2zm-3.081 0h-2.053v2h2.053v-2zm-4.107 0h-2.053v2h2.053v-2zm-4.107 0h-2.053v2h2.053v-2zm-4.107 0h-1.026v2h1.026v-2zm87.527 49.47l-.058.497h.002l.056-.497zm-5.55-1.11l.13-.483h-.003l-.127.483zm-5.624-2.294l-.277.416.01.006.267-.422zm-3.7-4.07l.435-.248-.006-.01-.429.258zm35.964-40.108h.5V1.44l-.416-.07-.084.492zm0 8.658l-.117.486.617.149v-.635h-.5zm-19.388-1.924l-.047-.498h-.002l.049.498zm-3.108.74l.162.473.009-.003-.171-.47zm22.792 30.044h.5v-.63l-.613.143.113.487zm0 8.732l.101.49.399-.082v-.408h-.5zm-15.54 1.128c-.496 0-.98-.005-1.453-.016l-.022 1c.48.01.972.016 1.475.016v-1zm-4.35-.155a40.319 40.319 0 01-1.439-.138l-.113.994c.475.054.967.101 1.475.14l.077-.996zm-1.437-.138a30.385 30.385 0 01-1.38-.195l-.162.987c.487.08.962.147 1.425.202l.117-.994zm-4.12-.751c-.444-.106-.897-.22-1.359-.345l-.259.966c.471.126.933.243 1.386.352l.232-.973zm-1.362-.346a28.82 28.82 0 01-.723-.198l-.278.96c.245.071.494.14.748.206l.253-.968zm-2.146-.654a19.854 19.854 0 01-1.382-.547l-.404.915c.46.203.944.394 1.452.574l.334-.942zm-2.706-1.203a12.816 12.816 0 01-.631-.375l-.535.844c.218.139.445.273.679.404l.487-.873zm-.621-.369a10.278 10.278 0 01-1.051-.803l-.657.754c.367.32.751.613 1.153.881l.555-.832zm-2.824-2.775c-.253-.354-.493-.73-.719-1.127l-.869.496c.243.425.5.828.773 1.211l.815-.58zm-.725-1.136a9.621 9.621 0 01-.365-.669l-.896.445c.125.252.259.498.404.738l.857-.514zm-.935-2.084a11.197 11.197 0 01-.36-1.49l-.986.168c.097.561.227 1.103.393 1.625l.953-.303zm-.528-3.025c-.013-.254-.02-.513-.02-.776h-1c0 .28.007.556.021.828l.999-.052zm-.02-.776v-1.055h-1v1.055h1zm0-3.164v-2.109h-1v2.11h1zm0-4.218v-2.109h-1v2.11h1zm0-4.218V22.12h-1v2.11h1zm0-4.218v-2.109h-1v2.11h1zm0-4.218v-1.054h-1v1.055h1zm0-1.054c0-.31.008-.616.024-.915l-.999-.052c-.016.317-.025.64-.025.967h1zm.225-2.726c.107-.612.252-1.197.434-1.756l-.95-.31a13.721 13.721 0 00-.469 1.894l.985.172zm1.125-3.417c.276-.534.594-1.041.954-1.52l-.8-.601a11.717 11.717 0 00-1.043 1.663l.889.458zm2.149-2.865c.425-.406.89-.789 1.395-1.147l-.579-.815c-.543.385-1.045.798-1.507 1.24l.691.722zm2.942-2.1a17.555 17.555 0 011.656-.776l-.378-.926c-.615.251-1.198.525-1.75.82l.472.882zm3.387-1.396c.568-.177 1.161-.34 1.78-.485l-.23-.974c-.64.152-1.256.32-1.848.504l.298.955zm3.596-.857a37.616 37.616 0 011.838-.273l-.123-.993c-.649.08-1.277.174-1.887.281l.172.985zm3.686-.463c.605-.05 1.226-.09 1.863-.118l-.045-1c-.649.03-1.282.07-1.899.121l.081.997zm3.726-.173c.309-.005.622-.007.938-.007v-1c-.321 0-.638.002-.952.007l.014 1zm.938-.007c.307 0 .623.004.948.01l.022-.999a43.868 43.868 0 00-.97-.011v1zm2.846.088c.609.035 1.242.08 1.901.137l.085-.996a70.779 70.779 0 00-1.928-.14l-.058 1zm3.8.32c.613.066 1.245.14 1.896.221l.125-.992c-.657-.082-1.295-.157-1.915-.223l-.106.994zm3.79.474c.615.086 1.246.18 1.892.279l.152-.989c-.65-.1-1.285-.193-1.905-.28l-.139.99zm3.78.58l.944.159.168-.986-.949-.16-.163.987zm.528-.334v1.082h1V1.862h-1zm0 3.247v2.164h1V5.11h-1zm0 4.329v1.082h1V9.438h-1zm.618.596c-.314-.076-.625-.15-.934-.22l-.226.973c.307.071.615.144.925.219l.235-.972zm-2.809-.634a83.351 83.351 0 00-1.883-.373l-.183.983a82.44 82.44 0 011.861.368l.205-.978zm-3.776-.702a69.032 69.032 0 00-1.903-.277l-.131.991c.615.08 1.24.172 1.875.274l.159-.988zm-3.815-.499a54.044 54.044 0 00-1.921-.156l-.063.998c.616.039 1.244.09 1.885.154l.099-.996zm-3.848-.24a42.91 42.91 0 00-.966-.011v1c.311 0 .625.004.943.01l.023-.999zm-.966-.011c-.376 0-.736.002-1.08.006l.012 1c.339-.004.695-.006 1.068-.006v-1zm-3.247.072c-.4.02-.764.047-1.092.078l.095.996c.311-.03.661-.055 1.05-.076l-.053-.998zm-1.094.078c-.274.028-.55.066-.83.115l.172.985c.257-.045.509-.08.757-.104l-.099-.996zm-2.446.505c-.259.08-.52.167-.784.263l.342.94c.248-.09.493-.172.735-.246l-.293-.957zm-.774.26a6.743 6.743 0 00-.847.352l.447.894c.223-.112.464-.212.722-.3l-.322-.946zm-2.352 1.456a4.992 4.992 0 00-1.002 1.587l.929.37a4.01 4.01 0 01.801-1.272l-.728-.685zm-1.421 3.372c-.029.29-.044.59-.044.899h1c0-.28.013-.546.039-.8l-.995-.1zm-.044.899v1.021h1V14.59h-1zm0 3.064v2.042h1v-2.042h-1zm0 4.084v2.043h1v-2.043h-1zm0 4.085v2.043h1v-2.043h-1zm0 4.085v2.042h1v-2.042h-1zm0 4.085v1.021h1v-1.021h-1zm0 1.021c0 .352.025.693.074 1.022l.989-.148a5.977 5.977 0 01-.063-.874h-1zm.745 2.985c.339.592.79 1.116 1.348 1.572l.634-.773a4.685 4.685 0 01-1.115-1.296l-.867.497zm3.074 2.628a12.1 12.1 0 001.866.664l.262-.965a11.102 11.102 0 01-1.712-.608l-.416.909zm3.779 1.066c.607.096 1.249.17 1.927.225l.08-.997a24.392 24.392 0 01-1.851-.215l-.156.987zm3.852.322c.315.007.636.011.964.011v-1c-.32 0-.634-.004-.941-.01l-.023.999zm.964.011c.299 0 .607-.005.925-.016l-.033-1c-.308.01-.605.016-.892.016v1zm2.765-.128c.582-.05 1.191-.114 1.827-.192l-.123-.992a48.71 48.71 0 01-1.789.187l.085.997zm3.641-.443a80.636 80.636 0 001.806-.296l-.174-.985c-.614.108-1.208.205-1.782.293l.15.988zm3.602-.63c.581-.114 1.178-.235 1.789-.364l-.207-.979c-.607.129-1.198.249-1.773.361l.191.982zm3.571-.754c.294-.066.59-.134.89-.204l-.226-.974c-.298.07-.592.136-.884.202l.22.976zm.277-.691v1.091h1V39.38h-1zm0 3.274v2.183h1v-2.183h-1zm0 4.366v1.092h1V47.02h-1zm.4.602c-.319.066-.636.13-.954.19l.19.982c.321-.062.643-.126.965-.192l-.201-.98zm-2.867.538c-.642.108-1.283.209-1.921.3l.143.99a81.002 81.002 0 001.944-.304l-.166-.986zm-3.849.555c-.646.077-1.29.145-1.933.205l.093.996c.652-.06 1.304-.13 1.959-.208l-.119-.993zm-3.87.36c-.648.044-1.295.08-1.94.106l.041.999a74.21 74.21 0 001.966-.106l-.067-.998zm-3.882.158a71.58 71.58 0 01-.972.007v1c.328 0 .657-.002.985-.007l-.013-1zm-6.818.211l-.116.993h.003l.113-.993zm-5.55-1.11l.26-.966-.007-.002-.253.968zm-5.624-2.294l-.554.832.009.007.01.006.535-.845zm-3.7-4.07l.869-.496-.006-.01-.005-.008-.858.514zm35.964-40.108h1v-.844l-.832-.142-.168.986zm0 8.658l-.234.972 1.234.298v-1.27h-1zm-19.388-1.924l-.094-.996-.005.001.099.995zm-3.108.74l.323.947.009-.004.01-.003-.342-.94zm22.792 30.044h1v-1.259l-1.226.285.226.974zm0 8.732l.202.98.798-.165v-.815h-1zm-15.54.628c-.492 0-.973-.005-1.442-.016l-.044 2c.484.01.98.016 1.486.016v-2zm-4.311-.154a39.558 39.558 0 01-1.421-.136l-.227 1.987c.482.056.98.103 1.493.143l.155-1.994zm-1.418-.135a29.962 29.962 0 01-1.356-.192l-.325 1.973c.494.081.977.15 1.448.205l.233-1.986zm-4.062-.742a49.115 49.115 0 01-1.345-.34l-.519 1.93c.476.128.942.247 1.4.356l.464-1.946zm-1.352-.343a28.714 28.714 0 01-.711-.195l-.554 1.922c.249.072.502.141.76.209l.505-1.936zm-2.105-.641a19.627 19.627 0 01-1.348-.534l-.807 1.83c.472.209.968.405 1.486.589l.669-1.885zm-2.629-1.17a12.51 12.51 0 01-.608-.36l-1.07 1.69c.227.143.461.283.703.418l.975-1.747zm-.588-.347a9.666 9.666 0 01-.999-.764l-1.314 1.508c.382.333.784.64 1.204.92l1.109-1.664zm-2.694-2.648a13.177 13.177 0 01-.692-1.086l-1.737.992c.251.438.517.856.8 1.253l1.629-1.16zm-.703-1.105a8.723 8.723 0 01-.346-.633l-1.792.89c.131.263.272.52.423.772l1.715-1.029zm-.887-1.977a10.609 10.609 0 01-.344-1.424l-1.971.338c.099.582.235 1.146.408 1.691l1.907-.605zm-.506-2.9a15.337 15.337 0 01-.019-.75h-2c0 .288.008.573.022.853l1.997-.103zm-.019-.75v-1.055h-2v1.055h2zm0-3.164v-2.109h-2v2.11h2zm0-4.218v-2.109h-2v2.11h2zm0-4.218V22.12h-2v2.11h2zm0-4.218v-2.109h-2v2.11h2zm0-4.218v-1.054h-2v1.055h2zm0-1.054c0-.302.008-.598.023-.889l-1.997-.105a19.13 19.13 0 00-.026.994h2zm.218-2.64c.103-.59.242-1.152.417-1.687l-1.902-.62c-.205.63-.367 1.284-.485 1.963l1.97.344zm1.077-3.274c.263-.51.565-.993.909-1.45l-1.599-1.2a12.138 12.138 0 00-1.088 1.734l1.778.916zm2.05-2.732c.406-.39.852-.756 1.338-1.1l-1.157-1.632c-.562.398-1.083.827-1.564 1.286l1.383 1.446zm2.832-2.022a17.25 17.25 0 011.609-.754l-.756-1.85c-.63.257-1.229.537-1.797.841l.944 1.763zm3.3-1.359a25.66 25.66 0 011.746-.476l-.46-1.946a27.69 27.69 0 00-1.882.513l.596 1.91zm3.533-.841a37.134 37.134 0 011.814-.27l-.247-1.985c-.656.082-1.293.176-1.911.285l.344 1.97zm3.641-.458a51.815 51.815 0 011.845-.117l-.091-1.998c-.654.03-1.294.07-1.917.122l.163 1.993zm3.692-.171c.307-.005.617-.007.931-.007v-2c-.323 0-.643.002-.959.007l.028 2zm.931-.007c.303 0 .615.004.936.01l.045-1.999a44.31 44.31 0 00-.981-.011v2zm2.818.087c.603.035 1.232.08 1.887.136l.169-1.993a71.165 71.165 0 00-1.941-.14l-.115 1.997zm3.774.318c.61.066 1.24.14 1.888.22l.249-1.984c-.66-.083-1.301-.157-1.924-.224l-.213 1.988zm3.774.472c.613.086 1.242.179 1.886.278l.304-1.977c-.652-.1-1.289-.194-1.911-.282l-.279 1.98zm3.768.579c.311.05.625.104.942.158l.336-1.972-.951-.16-.327 1.974zm.11-.828v1.082h2V1.862h-2zm0 3.247v2.164h2V5.11h-2zm0 4.329v1.082h2V9.438h-2zm1.235.11c-.315-.076-.628-.15-.939-.222l-.45 1.949c.304.07.611.143.92.217l.469-1.944zm-2.823-.638a82.06 82.06 0 00-1.894-.375l-.366 1.966c.607.113 1.223.235 1.85.367l.41-1.958zm-3.8-.705a69.664 69.664 0 00-1.917-.28l-.261 1.983c.61.08 1.23.17 1.861.272l.317-1.975zm-3.845-.503a54.412 54.412 0 00-1.938-.158l-.127 1.996c.61.038 1.232.089 1.867.152l.198-1.99zm-3.886-.243a43.414 43.414 0 00-.977-.011v2c.307 0 .618.004.932.01l.045-1.999zm-.977-.011c-.378 0-.74.002-1.086.006l.024 2c.337-.004.691-.006 1.062-.006v-2zm-3.274.072c-.405.022-.776.049-1.112.08l.189 1.992a24.98 24.98 0 011.03-.075l-.107-1.997zm-1.117.081a11.94 11.94 0 00-.866.12l.344 1.97c.245-.043.485-.076.721-.1l-.199-1.99zm-2.542.524a16.31 16.31 0 00-.808.271l.683 1.88c.24-.088.477-.167.71-.238l-.585-1.913zm-.789.264a7.264 7.264 0 00-.91.378l.895 1.79c.201-.102.421-.193.66-.274l-.645-1.894zm-2.555 1.587a5.491 5.491 0 00-1.102 1.744l1.858.741c.173-.434.407-.803.701-1.115l-1.457-1.37zm-1.555 3.665a9.467 9.467 0 00-.046.949h2c0-.264.013-.513.036-.75l-1.99-.2zm-.046.949v1.021h2V14.59h-2zm0 3.064v2.042h2v-2.042h-2zm0 4.084v2.043h2v-2.043h-2zm0 4.085v2.043h2v-2.043h-2zm0 4.085v2.042h2v-2.042h-2zm0 4.085v1.021h2v-1.021h-2zm0 1.021c0 .375.026.74.08 1.097l1.978-.297a5.35 5.35 0 01-.058-.8h-2zm.811 3.234a6.185 6.185 0 001.465 1.71l1.267-1.547a4.184 4.184 0 01-.997-1.158l-1.735.995zm3.3 2.833c.592.272 1.241.501 1.943.692l.524-1.93a10.642 10.642 0 01-1.635-.58l-.832 1.818zm3.91 1.106c.62.098 1.275.174 1.964.23l.159-1.994a23.906 23.906 0 01-1.812-.211l-.311 1.975zm3.917.328c.319.007.645.011.976.011v-2c-.316 0-.626-.004-.929-.01l-.047 1.999zm.976.011c.305 0 .619-.006.942-.016l-.067-2c-.303.01-.594.016-.875.016v2zm2.808-.13a49.44 49.44 0 001.845-.194l-.245-1.985c-.619.077-1.209.138-1.77.186l.17 1.993zm3.674-.446c.586-.09 1.191-.19 1.816-.299l-.346-1.97c-.611.108-1.201.205-1.771.291l.301 1.978zm3.622-.634c.584-.114 1.183-.236 1.797-.366l-.414-1.957c-.605.128-1.193.248-1.766.36l.383 1.963zm3.585-.758c.295-.066.593-.134.893-.204l-.452-1.948a145 145 0 01-.881.202l.44 1.95zm-.333-1.178v1.091h2V39.38h-2zm0 3.274v2.183h2v-2.183h-2zm0 4.366v1.092h2V47.02h-2zm.799.112a63.56 63.56 0 01-.948.19l.38 1.963c.323-.062.647-.127.971-.193l-.403-1.96zm-2.85.535c-.638.108-1.274.207-1.909.299l.286 1.98a81.58 81.58 0 001.957-.307l-.334-1.972zm-3.824.551a70.68 70.68 0 01-1.92.204l.186 1.992a78.508 78.508 0 001.971-.21l-.237-1.986zm-3.844.359a73.2 73.2 0 01-1.927.104l.081 1.998a75.072 75.072 0 001.98-.107l-.134-1.995zm-3.856.156c-.322.005-.644.007-.965.007v2c.331 0 .661-.002.992-.007l-.027-2zm38.232-18.381l.414.28.454-.674-.805-.102-.063.496zm-6.956-2.96l.359-.348-.359.348zm1.998-24.05l.235.441.006-.003-.241-.438zm35.15-2.368h.5v-.5h-.5v.5zm0 48.026v.5h.5V49h-.5zm-11.544 0h-.5v.5h.5V49zm0-17.76h.5v-.5h-.5v.5zm-6.808 0v-.5h-.276l-.147.233.423.267zM310.291 49v.5h.275l.147-.233-.422-.267zm-13.172 0l-.415-.28-.526.78h.941V49zm31.228-25.382v.5h.5v-.5h-.5zm0-14.43h.5v-.5h-.5v.5zm-15.022 1.036l.263.425.005-.003-.268-.422zm-.074 12.358l-.3.4.006.005.007.005.287-.41zm-3.967 7.49l-.524.777.829.56.524-.777-.829-.56zm-1.572 2.331l-1.049 1.554.829.56 1.049-1.554-.829-.56zm-2.097 3.108l-1.048 1.554.829.56 1.048-1.554-.829-.56zm-2.097 3.108l-1.048 1.554.829.56 1.048-1.554-.829-.56zm-2.096 3.108l-1.049 1.554.829.56 1.049-1.554-.829-.56zm-2.097 3.108l-1.048 1.554.829.56 1.048-1.554-.829-.56zm-2.097 3.108l-.524.777.829.56.524-.777-.829-.56zm-.109 1.557h1.097v-1h-1.097v1zm3.293 0h2.195v-1h-2.195v1zm4.39 0h2.196v-1h-2.196v1zm4.391 0h1.098v-1h-1.098v1zm1.52-.233l.562-.888-.844-.535-.563.889.845.535zm1.687-2.664l1.125-1.776-.845-.535-1.125 1.776.845.535zm2.25-3.552l1.125-1.776-.845-.535-1.125 1.776.845.535zm2.249-3.552l1.125-1.776-.845-.535-1.124 1.776.844.535zm2.25-3.552l1.125-1.776-.845-.535-1.125 1.776.845.535zm2.25-3.552l.562-.888-.845-.535-.562.888.845.535zm.14-.655h.851v-1h-.851v1zm2.553 0h1.702v-1h-1.702v1zm3.404 0h.851v-1h-.851v1zm.351-.5v1.11h1v-1.11h-1zm0 3.33v2.22h1v-2.22h-1zm0 4.44v2.22h1v-2.22h-1zm0 4.44v2.22h1v-2.22h-1zm0 4.44V49h1v-1.11h-1zm.5 1.61h.962v-1h-.962v1zm2.886 0h1.924v-1h-1.924v1zm3.848 0h1.924v-1h-1.924v1zm3.848 0h.962v-1h-.962v1zm1.462-.5v-1h-1v1h1zm0-3.002v-2h-1v2h1zm0-4.002v-2h-1v2h1zm0-4.002v-2.001h-1v2.001h1zm0-4.002V31.99h-1v2h1zm0-4.002v-2.001h-1v2h1zm0-4.002v-2.002h-1v2.002h1zm0-4.003v-2h-1v2h1zm0-4.002v-2h-1v2h1zm0-4.002V11.98h-1v2.001h1zm0-4.002V7.978h-1v2h1zm0-4.002V3.976h-1v2h1zm0-4.002V.974h-1v1h1zm-.5-1.501h-1.062v1h1.062v-1zm-3.186 0h-2.124v1h2.124v-1zm-4.248 0h-2.123v1h2.123v-1zm-4.247 0h-2.124v1h2.124v-1zm-4.248 0h-2.124v1h2.124v-1zm-4.247 0h-1.062v1h1.062v-1zm-1.062 0c-.303 0-.602.002-.898.005l.012 1c.291-.003.587-.005.886-.005v-1zm-2.691.05a56.15 56.15 0 00-1.793.097l.071.998c.568-.04 1.155-.072 1.761-.096l-.039-1zm-3.586.258a38.34 38.34 0 00-1.789.24l.159.988a35.848 35.848 0 011.74-.234l-.11-.994zm-3.568.581c-.622.14-1.208.298-1.759.473l.302.953c.521-.165 1.08-.316 1.677-.45l-.22-.976zM305.33 2.49c-.29.131-.567.27-.831.415l.483.876c.24-.132.493-.26.761-.38l-.413-.911zm-.825.412a9.478 9.478 0 00-1.051.65l.581.814c.292-.208.605-.402.941-.582l-.471-.882zm-2.837 2.384a8.054 8.054 0 00-1.16 2.203l.945.327a7.039 7.039 0 011.016-1.93l-.801-.6zm-1.665 4.61c-.036.393-.054.8-.054 1.217h1c0-.389.017-.764.05-1.125l-.996-.093zm-.054 1.217v1.193h1v-1.193h-1zm0 3.58v2.386h1v-2.386h-1zm0 4.773v1.193h1v-1.193h-1zm0 1.193c0 .321.009.635.027.942l.998-.06c-.017-.285-.025-.58-.025-.882h-1zm.272 2.822c.136.652.325 1.263.567 1.833l.921-.391a8.844 8.844 0 01-.51-1.647l-.978.205zm1.53 3.517c.195.262.406.509.633.743l.718-.696a6.666 6.666 0 01-.55-.645l-.801.598zm.633.743c.235.243.488.473.758.69l.625-.781a7.26 7.26 0 01-.665-.605l-.718.696zm2.475 1.773c.575.284 1.198.527 1.868.731l.291-.957a11.293 11.293 0 01-1.716-.67l-.443.896zm3.8 1.188c.317.055.643.105.977.147l.126-.992c-.319-.04-.629-.087-.929-.14l-.174.985zm19.688-7.583h-1.194v1h1.194v-1zm-3.58 0h-2.387v1h2.387v-1zm-4.773 0h-1.193v1h1.193v-1zm-1.193 0c-.499 0-.966-.012-1.402-.035l-.054.998c.456.025.941.037 1.456.037v-1zm-4.112-.434c-.497-.144-.875-.318-1.152-.512l-.573.82c.392.274.879.488 1.445.653l.28-.96zm-1.138-.502a2.45 2.45 0 01-.635-.717l-.858.514c.24.399.537.736.893 1.003l.6-.8zm-1.225-2.716a10.192 10.192 0 01-.055-1.102h-1c0 .427.02.83.061 1.21l.994-.108zm-.055-1.102v-1.129h-1v1.129h1zm0-3.386V13.85h-1v1.129h1zm0-1.128c0-.348.021-.668.061-.96l-.99-.139a7.978 7.978 0 00-.071 1.099h1zm.689-2.633c.175-.228.383-.417.628-.568l-.527-.85a3.323 3.323 0 00-.894.81l.793.608zm.633-.571a4.634 4.634 0 011.162-.505l-.286-.958a5.627 5.627 0 00-1.413.62l.537.843zm3.828-.92c.431-.025.891-.038 1.38-.038v-1c-.507 0-.986.013-1.439.04l.059.998zm1.38-.038h1.193v-1h-1.193v1zm3.579 0h2.387v-1h-2.387v1zm4.773 0h1.194v-1h-1.194v1zm.694-.5v.902h1v-.902h-1zm0 2.706v1.803h1v-1.803h-1zm0 3.607v1.804h1V15.5h-1zm0 3.608v1.803h1V19.11h-1zm0 3.607v.902h1v-.902h-1zm-18.148 7.636l.829.56.908-1.347-1.611-.205-.126.992zm-6.956-2.96l.718-.696-.718.696zm1.998-24.05l.471.882.012-.006-.483-.876zm35.15-2.368h1v-1h-1v1zm0 48.026v1h1v-1h-1zm-11.544 0h-1v1h1v-1zm0-17.76h1v-1h-1v1zm-6.808 0v-1h-.551l-.294.465.845.535zM310.291 49v1h.55l.294-.465-.844-.535zm-13.172 0l-.829-.56-1.052 1.56h1.881v-1zm31.228-25.382v1h1v-1h-1zm0-14.43h1v-1h-1v1zm-15.022 1.036l.526.85.011-.006-.537-.844zm-.074 12.358l-.6.8.013.01.013.01.574-.82zm-4.381 7.21l-.524.778 1.658 1.118.524-.777-1.658-1.118zm-1.573 2.332l-1.048 1.554 1.658 1.118 1.048-1.554-1.658-1.118zm-2.096 3.108l-1.049 1.554 1.658 1.118 1.049-1.554-1.658-1.118zm-2.097 3.108l-1.048 1.554 1.658 1.118 1.048-1.554-1.658-1.118zm-2.097 3.108l-1.048 1.554 1.658 1.118 1.048-1.554-1.658-1.118zm-2.097 3.108l-1.048 1.554 1.658 1.118 1.049-1.554-1.659-1.118zm-2.096 3.108l-.524.777 1.658 1.118.524-.777-1.658-1.118zm.305 2.336h1.097v-2h-1.097v2zm3.293 0h2.195v-2h-2.195v2zm4.39 0h2.196v-2h-2.196v2zm4.391 0h1.098v-2h-1.098v2zm1.942-.465l.563-.888-1.69-1.07-.562.888 1.689 1.07zm1.688-2.664l1.124-1.776-1.689-1.07-1.125 1.776 1.69 1.07zm2.249-3.552l1.125-1.776-1.69-1.07-1.124 1.776 1.689 1.07zm2.25-3.552l1.125-1.776-1.69-1.07-1.125 1.776 1.69 1.07zm2.25-3.552l1.124-1.776-1.689-1.07-1.125 1.776 1.69 1.07zm2.249-3.552l.562-.888-1.689-1.07-.563.888 1.69 1.07zm-.282-.423h.851v-2h-.851v2zm2.553 0h1.702v-2h-1.702v2zm3.404 0h.851v-2h-.851v2zm-.149-1v1.11h2v-1.11h-2zm0 3.33v2.22h2v-2.22h-2zm0 4.44v2.22h2v-2.22h-2zm0 4.44v2.22h2v-2.22h-2zm0 4.44V49h2v-1.11h-2zm1 2.11h.962v-2h-.962v2zm2.886 0h1.924v-2h-1.924v2zm3.848 0h1.924v-2h-1.924v2zm3.848 0h.962v-2h-.962v2zm1.962-1v-1h-2v1h2zm0-3.002v-2h-2v2h2zm0-4.002v-2h-2v2h2zm0-4.002v-2.001h-2v2.001h2zm0-4.002V31.99h-2v2h2zm0-4.002v-2.001h-2v2h2zm0-4.002v-2.002h-2v2.002h2zm0-4.003v-2h-2v2h2zm0-4.002v-2h-2v2h2zm0-4.002V11.98h-2v2.001h2zm0-4.002V7.978h-2v2h2zm0-4.002V3.976h-2v2h2zm0-4.002V.974h-2v1h2zm-1-2.001h-1.062v2h1.062v-2zm-3.186 0h-2.124v2h2.124v-2zm-4.248 0h-2.123v2h2.123v-2zm-4.247 0h-2.124v2h2.124v-2zm-4.248 0h-2.124v2h2.124v-2zm-4.247 0h-1.062v2h1.062v-2zm-1.062 0c-.305 0-.606.002-.904.005l.024 2c.289-.003.582-.005.88-.005v-2zm-2.71.05c-.621.024-1.224.057-1.809.098l.141 1.995c.562-.04 1.144-.07 1.745-.094l-.077-1.999zm-3.622.261a37.4 37.4 0 00-1.813.244l.317 1.975a35.354 35.354 0 011.715-.23l-.219-1.989zm-3.623.59c-.634.144-1.234.305-1.8.484l.604 1.906a20.11 20.11 0 011.636-.439l-.44-1.95zm-3.575 1.158c-.301.137-.59.281-.865.433l.966 1.752c.227-.126.469-.247.725-.363l-.826-1.822zm-.854.427c-.39.209-.759.437-1.106.685l1.163 1.627a8 8 0 01.886-.548l-.943-1.764zm-3.001 2.526a8.533 8.533 0 00-1.232 2.338l1.889.655a6.532 6.532 0 01.944-1.795l-1.601-1.198zm-1.763 4.862a13.7 13.7 0 00-.056 1.264h2c0-.375.016-.734.048-1.08l-1.992-.184zm-.056 1.264v1.193h2v-1.193h-2zm0 3.58v2.386h2v-2.386h-2zm0 4.773v1.193h2v-1.193h-2zm0 1.193c0 .33.009.654.028.971l1.996-.118c-.016-.276-.024-.56-.024-.853h-2zm.282 2.925c.143.68.341 1.324.597 1.926l1.841-.783a8.294 8.294 0 01-.48-1.554l-1.958.41zm1.619 3.714c.208.278.433.542.674.79l1.437-1.39a6.007 6.007 0 01-.508-.598l-1.603 1.198zm.674.79c.251.26.52.504.806.733l1.25-1.561a6.615 6.615 0 01-.619-.563l-1.437 1.392zm2.614 1.874c.601.297 1.25.55 1.944.761l.582-1.913a10.84 10.84 0 01-1.64-.64l-.886 1.792zm3.934 1.232c.326.057.659.108 1.001.151l.252-1.984c-.311-.04-.613-.085-.905-.137l-.348 1.97zm19.775-8.575h-1.194v2h1.194v-2zm-3.58 0h-2.387v2h2.387v-2zm-4.773 0h-1.193v2h1.193v-2zm-1.193 0c-.491 0-.949-.012-1.375-.035l-.108 1.998c.466.025.961.037 1.483.037v-2zm-3.973-.414c-.461-.134-.785-.288-1.004-.441l-1.147 1.638c.449.315.991.549 1.593.724l.558-1.92zm-.977-.422a1.96 1.96 0 01-.506-.575l-1.716 1.029c.27.45.61.837 1.022 1.146l1.2-1.6zm-1.028-2.37a9.908 9.908 0 01-.052-1.048h-2c0 .443.021.864.064 1.264l1.988-.216zm-.052-1.048v-1.129h-2v1.129h2zm0-3.386V13.85h-2v1.129h2zm0-1.128c0-.328.019-.624.057-.892l-1.981-.275a8.41 8.41 0 00-.076 1.167h2zm.586-2.329c.138-.18.301-.327.494-.447l-1.053-1.7a3.816 3.816 0 00-1.028.93l1.587 1.217zm.505-.453a4.112 4.112 0 011.036-.448l-.572-1.917a6.107 6.107 0 00-1.538.677l1.074 1.688zm3.588-.843c.42-.024.87-.037 1.351-.037v-2c-.515 0-1.005.013-1.468.04l.117 1.997zm1.351-.037h1.193v-2h-1.193v2zm3.579 0h2.387v-2h-2.387v2zm4.773 0h1.194v-2h-1.194v2zm.194-1v.902h2v-.902h-2zm0 2.706v1.803h2v-1.803h-2zm0 3.607v1.804h2V15.5h-2zm0 3.608v1.803h2V19.11h-2zm0 3.607v.902h2v-.902h-2z" fill="#77C2F9" fill-opacity=".9"/></svg>