<svg width="244" height="36" viewBox="0 0 244 36" fill="none" xmlns="http://www.w3.org/2000/svg">
<path d="M4.081 35H3.581V35.4115L3.98479 35.4907L4.081 35ZM4.081 28.958L4.19681 28.4716L3.581 28.325V28.958H4.081ZM6.254 29.435L6.15594 29.9253L6.16044 29.9262L6.254 29.435ZM10.865 28.958L11.1474 29.3707L11.1517 29.3676L10.865 28.958ZM12.667 26.732L13.1143 26.9556L13.1173 26.9494L12.667 26.732ZM13.409 25.195L13.8593 25.4124L13.9705 25.1821L13.8488 24.9571L13.409 25.195ZM0.106 0.602998V0.102998H-0.732942L-0.333778 0.840895L0.106 0.602998ZM8.745 0.602998L9.19221 0.379391L9.05402 0.102998H8.745V0.602998ZM17.384 17.881L16.9368 18.1046L17.075 18.381H17.384V17.881ZM17.596 17.881V18.381H17.9359L18.0609 18.065L17.596 17.881ZM24.433 0.602998V0.102998H24.0931L23.9681 0.419024L24.433 0.602998ZM32.754 0.602998L33.2098 0.808579L33.528 0.102998H32.754V0.602998ZM20.299 28.216L19.8432 28.0104L19.8421 28.0129L20.299 28.216ZM16.006 33.781L15.7267 33.3663L16.006 33.781ZM8.692 35.03C8.34005 35.03 7.96501 35.016 7.56663 34.9876L7.49559 35.9851C7.91481 36.0149 8.31369 36.03 8.692 36.03V35.03ZM5.30536 34.7129C4.94235 34.6535 4.56631 34.5856 4.17721 34.5093L3.98479 35.4907C4.38339 35.5688 4.76972 35.6385 5.14377 35.6998L5.30536 34.7129ZM4.581 35V34.2448H3.581V35H4.581ZM4.581 32.7342V31.2238H3.581V32.7342H4.581ZM4.581 29.7132V28.958H3.581V29.7132H4.581ZM3.96519 29.4444C4.14816 29.488 4.33008 29.5305 4.51097 29.5719L4.7343 28.5972C4.55621 28.5564 4.37705 28.5145 4.19681 28.4716L3.96519 29.4444ZM5.60634 29.8126C5.79067 29.8513 5.97387 29.8889 6.15594 29.9253L6.35206 28.9447C6.17319 28.9089 5.99315 28.872 5.81193 28.8339L5.60634 29.8126ZM6.16044 29.9262C6.34427 29.9612 6.52631 29.9921 6.70654 30.0188L6.85327 29.0296C6.68694 29.005 6.51837 28.9764 6.34756 28.9438L6.16044 29.9262ZM7.81414 30.1318C8.00291 30.1419 8.18953 30.147 8.374 30.147V29.147C8.20786 29.147 8.03905 29.1424 7.86757 29.1333L7.81414 30.1318ZM8.374 30.147C8.61834 30.147 8.85573 30.134 9.08591 30.1076L8.97185 29.1141C8.78214 29.1359 8.58294 29.147 8.374 29.147V30.147ZM10.496 29.7339C10.7253 29.6318 10.9425 29.5108 11.1473 29.3707L10.5827 28.5453C10.4287 28.6507 10.2644 28.7424 10.0894 28.8202L10.496 29.7339ZM11.1517 29.3676C11.3679 29.2163 11.5738 29.0453 11.7694 28.8553L11.0727 28.1379C10.9135 28.2925 10.7487 28.4291 10.5783 28.5484L11.1517 29.3676ZM12.7411 27.6271C12.872 27.4154 12.9963 27.1914 13.1142 26.9556L12.2198 26.5084C12.1143 26.7193 12.0045 26.9168 11.8905 27.1013L12.7411 27.6271ZM13.1173 26.9494L13.3028 26.5651L12.4022 26.1304L12.2167 26.5146L13.1173 26.9494ZM13.6738 25.7966L13.8593 25.4124L12.9587 24.9776L12.7732 25.3619L13.6738 25.7966ZM13.8488 24.9571L13.3737 24.0788L12.4941 24.5546L12.9692 25.4329L13.8488 24.9571ZM12.4235 22.3222L11.4732 20.5657L10.5937 21.0415L11.5439 22.798L12.4235 22.3222ZM10.523 18.8091L9.57281 17.0525L8.69326 17.5283L9.64347 19.2849L10.523 18.8091ZM8.6226 15.296L7.67239 13.5394L6.79283 14.0152L7.74304 15.7718L8.6226 15.296ZM6.72217 11.7828L5.77196 10.0262L4.8924 10.502L5.84262 12.2586L6.72217 11.7828ZM4.82174 8.26967L3.87153 6.5131L2.99197 6.9889L3.94219 8.74547L4.82174 8.26967ZM2.92132 4.75653L1.9711 2.99996L1.09154 3.47575L2.04176 5.23233L2.92132 4.75653ZM1.02089 1.24339L0.545778 0.3651L-0.333778 0.840895L0.14133 1.71918L1.02089 1.24339ZM0.106 1.103H1.18588V0.102998H0.106V1.103ZM3.34563 1.103H5.50538V0.102998H3.34563V1.103ZM7.66513 1.103H8.745V0.102998H7.66513V1.103ZM8.29779 0.826604L8.72974 1.6905L9.62416 1.24329L9.19221 0.379391L8.29779 0.826604ZM9.59364 3.4183L10.4575 5.1461L11.352 4.69889L10.4881 2.97109L9.59364 3.4183ZM11.3214 6.87391L12.1853 8.60171L13.0798 8.15449L12.2159 6.42669L11.3214 6.87391ZM13.0492 10.3295L13.9131 12.0573L14.8076 11.6101L13.9437 9.88229L13.0492 10.3295ZM14.777 13.7851L15.6409 15.5129L16.5354 15.0657L15.6715 13.3379L14.777 13.7851ZM16.5048 17.2407L16.9368 18.1046L17.8312 17.6574L17.3993 16.7935L16.5048 17.2407ZM17.384 18.381H17.437V17.381H17.384V18.381ZM17.543 18.381H17.596V17.381H17.543V18.381ZM18.0609 18.065L18.4028 17.2011L17.4729 16.8331L17.1311 17.697L18.0609 18.065ZM19.0865 15.4733L19.7702 13.7455L18.8403 13.3775L18.1566 15.1053L19.0865 15.4733ZM20.4539 12.0177L21.1376 10.2899L20.2077 9.92192L19.524 11.6497L20.4539 12.0177ZM21.8213 8.56207L22.505 6.83427L21.5751 6.46632L20.8914 8.19413L21.8213 8.56207ZM23.1887 5.10647L23.8724 3.37867L22.9425 3.01072L22.2588 4.73852L23.1887 5.10647ZM24.5561 1.65087L24.8979 0.78697L23.9681 0.419024L23.6262 1.28292L24.5561 1.65087ZM24.433 1.103H25.4731V0.102998H24.433V1.103ZM27.5534 1.103H29.6336V0.102998H27.5534V1.103ZM31.7139 1.103H32.754V0.102998H31.7139V1.103ZM32.2982 0.397415L31.909 1.26032L32.8206 1.67149L33.2098 0.808579L32.2982 0.397415ZM31.1306 2.98613L30.3521 4.71195L31.2637 5.12311L32.0421 3.3973L31.1306 2.98613ZM29.5737 6.43776L28.7953 8.16357L29.7068 8.57474L30.4853 6.84892L29.5737 6.43776ZM28.0168 9.88939L27.2384 11.6152L28.1499 12.0264L28.9284 10.3005L28.0168 9.88939ZM26.4599 13.341L25.6815 15.0668L26.5931 15.478L27.3715 13.7522L26.4599 13.341ZM24.9031 16.7926L24.1246 18.5184L25.0362 18.9296L25.8146 17.2038L24.9031 16.7926ZM23.3462 20.2443L22.5678 21.9701L23.4793 22.3812L24.2577 20.6554L23.3462 20.2443ZM21.7893 23.6959L21.0109 25.4217L21.9224 25.8329L22.7009 24.1071L21.7893 23.6959ZM20.2324 27.1475L19.8432 28.0104L20.7548 28.4216L21.144 27.5587L20.2324 27.1475ZM19.8421 28.0129C19.7221 28.283 19.5988 28.5447 19.4722 28.798L20.3668 29.2449C20.5003 28.9776 20.63 28.7023 20.7559 28.4191L19.8421 28.0129ZM18.6224 30.2994C18.2997 30.8013 17.9603 31.2592 17.6047 31.6737L18.3636 32.3248C18.7515 31.8727 19.118 31.3776 19.4635 30.8402L18.6224 30.2994ZM16.4002 32.8627C16.1809 33.0438 15.9564 33.2116 15.7267 33.3663L16.2853 34.1957C16.5425 34.0225 16.7931 33.8351 17.0369 33.6338L16.4002 32.8627ZM15.7267 33.3663C15.4859 33.5284 15.2295 33.6792 14.957 33.8184L15.412 34.7089C15.7186 34.5523 16.0098 34.3813 16.2853 34.1957L15.7267 33.3663ZM13.2719 34.4728C12.7182 34.6317 12.1193 34.7573 11.4745 34.8487L11.6149 35.8388C12.3003 35.7416 12.9448 35.607 13.5477 35.434L13.2719 34.4728ZM9.62563 35.0117C9.3223 35.0239 9.0111 35.03 8.692 35.03V36.03C9.02387 36.03 9.34849 36.0236 9.66584 36.0109L9.62563 35.0117ZM4.081 35H3.081V35.823L3.88859 35.9813L4.081 35ZM4.081 28.958L4.31262 27.9852L3.081 27.692V28.958H4.081ZM6.254 29.435L6.05788 30.4156L6.06689 30.4173L6.254 29.435ZM10.865 28.958L11.4297 29.7834L11.4385 29.7772L10.865 28.958ZM12.667 26.732L13.5615 27.1793L13.5676 27.1667L12.667 26.732ZM13.409 25.195L14.3096 25.6297L14.5319 25.1691L14.2886 24.7192L13.409 25.195ZM0.106 0.602998V-0.397002H-1.57188L-0.773556 1.07879L0.106 0.602998ZM8.745 0.602998L9.63943 0.155784L9.36303 -0.397002H8.745V0.602998ZM17.384 17.881L16.4896 18.3282L16.766 18.881H17.384V17.881ZM17.596 17.881V18.881H18.2757L18.5258 18.2489L17.596 17.881ZM24.433 0.602998V-0.397002H23.7533L23.5032 0.235052L24.433 0.602998ZM32.754 0.602998L33.6656 1.01416L34.3021 -0.397002H32.754V0.602998ZM20.299 28.216L19.3874 27.8048L19.3852 27.8099L20.299 28.216ZM16.006 33.781L15.4474 32.9516L16.006 33.781ZM8.692 34.53C8.35323 34.53 7.99011 34.5165 7.60215 34.4889L7.46007 36.4838C7.8897 36.5144 8.30051 36.53 8.692 36.53V34.53ZM5.38616 34.2195C5.02866 34.161 4.65777 34.0941 4.27341 34.0187L3.88859 35.9813C4.29192 36.0604 4.68341 36.1311 5.06297 36.1932L5.38616 34.2195ZM5.081 35V34.2448H3.081V35H5.081ZM5.081 32.7342V31.2238H3.081V32.7342H5.081ZM5.081 29.7132V28.958H3.081V29.7132H5.081ZM3.84938 29.9308C4.03371 29.9747 4.21702 30.0175 4.39931 30.0593L4.84596 28.1098C4.66928 28.0693 4.4915 28.0278 4.31262 27.9852L3.84938 29.9308ZM5.50354 30.3019C5.68942 30.341 5.8742 30.3788 6.05788 30.4156L6.45012 28.4544C6.27286 28.419 6.0944 28.3824 5.91473 28.3446L5.50354 30.3019ZM6.06689 30.4173C6.25722 30.4536 6.44599 30.4856 6.63318 30.5134L6.92664 28.535C6.76726 28.5114 6.60542 28.484 6.44111 28.4527L6.06689 30.4173ZM7.78743 30.6311C7.98483 30.6417 8.18037 30.647 8.374 30.647V28.647C8.21702 28.647 8.05713 28.6427 7.89428 28.634L7.78743 30.6311ZM8.374 30.647C8.63603 30.647 8.89252 30.6331 9.14294 30.6043L8.91482 28.6174C8.74534 28.6368 8.56524 28.647 8.374 28.647V30.647ZM10.6993 30.1907C10.9557 30.0766 11.1995 29.9408 11.4297 29.7833L10.3003 28.1327C10.1717 28.2207 10.034 28.2976 9.88613 28.3634L10.6993 30.1907ZM11.4385 29.7772C11.6775 29.6099 11.9039 29.4217 12.1178 29.214L10.7244 27.7792C10.5834 27.9161 10.4391 28.0355 10.2915 28.1388L11.4385 29.7772ZM13.1664 27.89C13.3057 27.6646 13.4373 27.4275 13.5614 27.1792L11.7726 26.2848C11.6734 26.4832 11.5708 26.6676 11.4652 26.8384L13.1664 27.89ZM13.5676 27.1667L13.7531 26.7825L11.9519 25.913L11.7664 26.2972L13.5676 27.1667ZM14.1241 26.014L14.3096 25.6297L12.5084 24.7603L12.3229 25.1445L14.1241 26.014ZM14.2886 24.7192L13.8135 23.8409L12.0543 24.7925L12.5294 25.6708L14.2886 24.7192ZM12.8632 22.0843L11.913 20.3278L10.1539 21.2794L11.1041 23.0359L12.8632 22.0843ZM10.9628 18.5712L10.0126 16.8146L8.25348 17.7662L9.20369 19.5228L10.9628 18.5712ZM9.06238 15.0581L8.11216 13.3015L6.35305 14.2531L7.30327 16.0097L9.06238 15.0581ZM7.16195 11.5449L6.21174 9.78835L4.45262 10.7399L5.40284 12.4965L7.16195 11.5449ZM5.26152 8.03178L4.31131 6.27521L2.55219 7.22679L3.50241 8.98337L5.26152 8.03178ZM3.36109 4.51863L2.41088 2.76206L0.651766 3.71365L1.60198 5.47022L3.36109 4.51863ZM1.46066 1.00549L0.985556 0.127203L-0.773556 1.07879L-0.298448 1.95708L1.46066 1.00549ZM0.106 1.603H1.18588V-0.397002H0.106V1.603ZM3.34563 1.603H5.50538V-0.397002H3.34563V1.603ZM7.66513 1.603H8.745V-0.397002H7.66513V1.603ZM7.85057 1.05021L8.28252 1.91411L10.0714 1.01968L9.63943 0.155784L7.85057 1.05021ZM9.14642 3.64191L10.0103 5.36971L11.7992 4.47528L10.9353 2.74748L9.14642 3.64191ZM10.8742 7.09751L11.7381 8.82531L13.527 7.93089L12.6631 6.20308L10.8742 7.09751ZM12.602 10.5531L13.4659 12.2809L15.2548 11.3865L14.3909 9.65868L12.602 10.5531ZM14.3298 14.0087L15.1937 15.7365L16.9826 14.8421L16.1187 13.1143L14.3298 14.0087ZM16.0576 17.4643L16.4896 18.3282L18.2784 17.4338L17.8465 16.5699L16.0576 17.4643ZM17.384 18.881H17.437V16.881H17.384V18.881ZM17.543 18.881H17.596V16.881H17.543V18.881ZM18.5258 18.2489L18.8677 17.385L17.008 16.6492L16.6662 17.5131L18.5258 18.2489ZM19.5514 15.6572L20.2351 13.9294L18.3754 13.1936L17.6917 14.9214L19.5514 15.6572ZM20.9188 12.2016L21.6025 10.4738L19.7428 9.73795L19.0591 11.4658L20.9188 12.2016ZM22.2862 8.74604L22.9699 7.01824L21.1102 6.28235L20.4265 8.01015L22.2862 8.74604ZM23.6536 5.29044L24.3373 3.56264L22.4776 2.82675L21.7939 4.55455L23.6536 5.29044ZM25.021 1.83484L25.3628 0.970943L23.5032 0.235052L23.1613 1.09895L25.021 1.83484ZM24.433 1.603H25.4731V-0.397002H24.433V1.603ZM27.5534 1.603H29.6336V-0.397002H27.5534V1.603ZM31.7139 1.603H32.754V-0.397002H31.7139V1.603ZM31.8424 0.191833L31.4532 1.05474L33.2763 1.87707L33.6656 1.01416L31.8424 0.191833ZM30.6748 2.78055L29.8963 4.50636L31.7195 5.32869L32.4979 3.60288L30.6748 2.78055ZM29.1179 6.23218L28.3395 7.95799L30.1626 8.78032L30.941 7.05451L29.1179 6.23218ZM27.561 9.6838L26.7826 11.4096L28.6057 12.2319L29.3842 10.5061L27.561 9.6838ZM26.0042 13.1354L25.2257 14.8612L27.0488 15.6836L27.8273 13.9578L26.0042 13.1354ZM24.4473 16.5871L23.6688 18.3129L25.492 19.1352L26.2704 17.4094L24.4473 16.5871ZM22.8904 20.0387L22.112 21.7645L23.9351 22.5868L24.7135 20.861L22.8904 20.0387ZM21.3335 23.4903L20.5551 25.2161L22.3782 26.0384L23.1567 24.3126L21.3335 23.4903ZM19.7767 26.9419L19.3874 27.8048L21.2106 28.6272L21.5998 27.7643L19.7767 26.9419ZM19.3852 27.8099C19.2681 28.0733 19.148 28.3282 19.0249 28.5746L20.8141 29.4684C20.9511 29.1941 21.084 28.912 21.2128 28.6221L19.3852 27.8099ZM18.2018 30.029C17.8905 30.5132 17.5647 30.9524 17.2252 31.3481L18.7431 32.6504C19.1471 32.1795 19.5272 31.6658 19.8841 31.1106L18.2018 30.029ZM16.0818 32.4772C15.8748 32.6481 15.6633 32.8062 15.4474 32.9516L16.5646 34.6104C16.8356 34.4279 17.0992 34.2308 17.3552 34.0194L16.0818 32.4772ZM15.4474 32.9516C15.224 33.102 14.9849 33.2427 14.7295 33.3731L15.6394 35.1542C15.9631 34.9888 16.2717 34.8077 16.5646 34.6104L15.4474 32.9516ZM13.134 33.9922C12.6049 34.144 12.0289 34.2651 11.4043 34.3537L11.6851 36.3339C12.3907 36.2338 13.0581 36.0947 13.6856 35.9146L13.134 33.9922ZM9.60552 34.5121C9.3092 34.524 9.00471 34.53 8.692 34.53V36.53C9.03026 36.53 9.36159 36.5235 9.68595 36.5105L9.60552 34.5121ZM61.0241 21.856H61.5241V21.0011L60.779 21.4202L61.0241 21.856ZM43.5341 22.015L43.2295 22.4117L43.2375 22.4175L43.5341 22.015ZM40.5661 0.602998V0.102998H40.0661V0.602998H40.5661ZM48.7281 0.602998H49.2281V0.102998H48.7281V0.602998ZM49.9471 17.139L49.6499 17.5411L49.6597 17.5483L49.6698 17.555L49.9471 17.139ZM57.5791 17.298L57.4246 16.8225L57.5791 17.298ZM61.0241 15.549L61.3365 15.9394L61.5241 15.7893V15.549H61.0241ZM61.0241 0.602998V0.102998H60.5241V0.602998H61.0241ZM69.2921 0.602998H69.7921V0.102998H69.2921V0.602998ZM69.2921 35V35.5H69.7921V35H69.2921ZM61.0241 35H60.5241V35.5H61.0241V35ZM60.779 21.4202C60.5329 21.5587 60.2824 21.6909 60.0276 21.817L60.471 22.7133C60.7416 22.5794 61.0077 22.4389 61.2692 22.2918L60.779 21.4202ZM58.4663 22.4918C57.9416 22.6878 57.4003 22.8609 56.8424 23.0109L57.1021 23.9766C57.6897 23.8186 58.2611 23.6359 58.8162 23.4286L58.4663 22.4918ZM55.1743 23.3821C54.6231 23.4805 54.0573 23.5587 53.4767 23.6167L53.5761 24.6118C54.1812 24.5513 54.7726 24.4696 55.35 24.3665L55.1743 23.3821ZM51.7621 23.7277C51.4783 23.7366 51.1913 23.741 50.9011 23.741V24.741C51.2015 24.741 51.4989 24.7364 51.7933 24.7272L51.7621 23.7277ZM50.9011 23.741C50.5789 23.741 50.2628 23.7315 49.9529 23.7127L49.8922 24.7108C50.223 24.731 50.5593 24.741 50.9011 24.741V23.741ZM48.0825 23.4706C47.4537 23.3424 46.8539 23.1688 46.2827 22.9503L45.9254 23.8843C46.5499 24.1232 47.2025 24.3117 47.8827 24.4504L48.0825 23.4706ZM44.6063 22.1317C44.3407 21.9708 44.0821 21.7977 43.8307 21.6125L43.2375 22.4175C43.5131 22.6206 43.7967 22.8104 44.0883 22.987L44.6063 22.1317ZM43.8386 21.6184C43.577 21.4175 43.3343 21.197 43.1103 20.9568L42.3789 21.6388C42.6407 21.9195 42.9243 22.1772 43.2296 22.4116L43.8386 21.6184ZM42.0083 19.318C41.7375 18.7496 41.5232 18.1129 41.3678 17.4054L40.391 17.6199C40.5608 18.3926 40.7981 19.1029 41.1055 19.7481L42.0083 19.318ZM41.096 15.3682C41.0761 15.0335 41.0661 14.6874 41.0661 14.33H40.0661C40.0661 14.706 40.0766 15.0719 40.0977 15.4275L41.096 15.3682ZM41.0661 14.33V13.1861H40.0661V14.33H41.0661ZM41.0661 10.8982V8.61041H40.0661V10.8982H41.0661ZM41.0661 6.32258V4.03475H40.0661V6.32258H41.0661ZM41.0661 1.74691V0.602998H40.0661V1.74691H41.0661ZM40.5661 1.103H41.5864V0.102998H40.5661V1.103ZM43.6269 1.103H45.6674V0.102998H43.6269V1.103ZM47.7079 1.103H48.7281V0.102998H47.7079V1.103ZM48.2281 0.602998V1.69391H49.2281V0.602998H48.2281ZM48.2281 3.87575V6.05758H49.2281V3.87575H48.2281ZM48.2281 8.23941V10.4212H49.2281V8.23941H48.2281ZM48.2281 12.6031V13.694H49.2281V12.6031H48.2281ZM48.2281 13.694C48.2281 14.0465 48.2449 14.38 48.2792 14.694L49.2732 14.5854C49.2434 14.3121 49.2281 14.0152 49.2281 13.694H48.2281ZM48.8907 16.698C49.0937 17.0332 49.3463 17.3167 49.6499 17.5411L50.2443 16.7369C50.0536 16.596 49.8871 16.4127 49.7461 16.18L48.8907 16.698ZM49.6698 17.555C49.932 17.7298 50.2137 17.8794 50.514 18.0043L50.8979 17.0809C50.6546 16.9797 50.4304 16.8603 50.2245 16.723L49.6698 17.555ZM52.3228 18.4424C52.6153 18.4723 52.9188 18.487 53.2331 18.487V17.487C52.9499 17.487 52.6804 17.4737 52.4244 17.4476L52.3228 18.4424ZM53.2331 18.487C53.616 18.487 53.9969 18.4722 54.3756 18.4426L54.2977 17.4457C53.9451 17.4732 53.5903 17.487 53.2331 17.487V18.487ZM56.6336 18.0846C57.0027 17.9956 57.3694 17.8919 57.7337 17.7735L57.4246 16.8225C57.0847 16.9329 56.743 17.0296 56.3992 17.1124L56.6336 18.0846ZM57.7337 17.7735C58.0612 17.6671 58.3759 17.5539 58.6776 17.4338L58.3079 16.5046C58.0274 16.6163 57.733 16.7222 57.4246 16.8225L57.7337 17.7735ZM60.4936 16.5321C60.7943 16.3457 61.0754 16.1483 61.3365 15.9394L60.7118 15.1586C60.4841 15.3407 60.2359 15.5153 59.9668 15.6821L60.4936 16.5321ZM61.5241 15.549V14.6149H60.5241V15.549H61.5241ZM61.5241 12.7466V10.8784H60.5241V12.7466H61.5241ZM61.5241 9.01012V7.14187H60.5241V9.01012H61.5241ZM61.5241 5.27362V3.40537H60.5241V5.27362H61.5241ZM61.5241 1.53712V0.602998H60.5241V1.53712H61.5241ZM61.0241 1.103H62.0576V0.102998H61.0241V1.103ZM64.1246 1.103H66.1916V0.102998H64.1246V1.103ZM68.2586 1.103H69.2921V0.102998H68.2586V1.103ZM68.7921 0.602998V1.55847H69.7921V0.602998H68.7921ZM68.7921 3.46941V5.38036H69.7921V3.46941H68.7921ZM68.7921 7.2913V9.20225H69.7921V7.2913H68.7921ZM68.7921 11.1132V13.0241H69.7921V11.1132H68.7921ZM68.7921 14.9351V16.846H69.7921V14.9351H68.7921ZM68.7921 18.757V20.6679H69.7921V18.757H68.7921ZM68.7921 22.5789V24.4898H69.7921V22.5789H68.7921ZM68.7921 26.4007V28.3117H69.7921V26.4007H68.7921ZM68.7921 30.2226V32.1336H69.7921V30.2226H68.7921ZM68.7921 34.0445V35H69.7921V34.0445H68.7921ZM69.2921 34.5H68.2586V35.5H69.2921V34.5ZM66.1916 34.5H64.1246V35.5H66.1916V34.5ZM62.0576 34.5H61.0241V35.5H62.0576V34.5ZM61.5241 35V33.9047H60.5241V35H61.5241ZM61.5241 31.714V29.5233H60.5241V31.714H61.5241ZM61.5241 27.3327V25.142H60.5241V27.3327H61.5241ZM61.5241 22.9513V21.856H60.5241V22.9513H61.5241ZM61.0241 21.856H62.0241V20.1462L60.5339 20.9844L61.0241 21.856ZM43.5341 22.015L42.9251 22.8082L42.9329 22.8142L42.9409 22.8201L43.5341 22.015ZM40.5661 0.602998V-0.397002H39.5661V0.602998H40.5661ZM48.7281 0.602998H49.7281V-0.397002H48.7281V0.602998ZM49.9471 17.139L49.3527 17.9432L49.3722 17.9576L49.3924 17.9711L49.9471 17.139ZM57.5791 17.298L57.27 16.347V16.347L57.5791 17.298ZM61.0241 15.549L61.6488 16.3299L62.0241 16.0296V15.549H61.0241ZM61.0241 0.602998V-0.397002H60.0241V0.602998H61.0241ZM69.2921 0.602998H70.2921V-0.397002H69.2921V0.602998ZM69.2921 35V36H70.2921V35H69.2921ZM61.0241 35H60.0241V36H61.0241V35ZM60.5339 20.9844C60.2955 21.1185 60.0528 21.2467 59.8058 21.3689L60.6927 23.1614C60.9712 23.0237 61.245 22.8791 61.5144 22.7276L60.5339 20.9844ZM58.2913 22.0234C57.7818 22.2137 57.2556 22.382 56.7125 22.5281L57.232 24.4594C57.8344 24.2974 58.4208 24.11 58.9911 23.8969L58.2913 22.0234ZM55.0864 22.8899C54.5484 22.9859 53.9953 23.0624 53.427 23.1192L53.6258 25.1093C54.2432 25.0476 54.8473 24.9642 55.4379 24.8587L55.0864 22.8899ZM51.7465 23.228C51.468 23.2366 51.1862 23.241 50.9011 23.241V25.241C51.2066 25.241 51.5092 25.2363 51.8089 25.227L51.7465 23.228ZM50.9011 23.241C50.5887 23.241 50.2828 23.2318 49.9832 23.2136L49.8618 25.2099C50.2031 25.2307 50.5496 25.241 50.9011 25.241V23.241ZM48.1824 22.9807C47.5792 22.8577 47.0059 22.6916 46.4613 22.4833L45.7468 24.3513C46.398 24.6004 47.077 24.7964 47.7829 24.9403L48.1824 22.9807ZM44.8654 21.704C44.6127 21.551 44.3667 21.3863 44.1273 21.2099L42.9409 22.8201C43.2286 23.032 43.5247 23.2303 43.8292 23.4147L44.8654 21.704ZM44.1431 21.2219C43.9033 21.0377 43.6811 20.8358 43.476 20.6158L42.0132 21.9798C42.2939 22.2807 42.598 22.557 42.9251 22.8082L44.1431 21.2219ZM42.4597 19.103C42.2072 18.573 42.0044 17.9731 41.8561 17.2981L39.9027 17.7272C40.0796 18.5325 40.3284 19.2795 40.6542 19.9632L42.4597 19.103ZM41.5951 15.3386C41.5758 15.0143 41.5661 14.6782 41.5661 14.33H39.5661C39.5661 14.7153 39.5769 15.0911 39.5986 15.4571L41.5951 15.3386ZM41.5661 14.33V13.1861H39.5661V14.33H41.5661ZM41.5661 10.8982V8.61041H39.5661V10.8982H41.5661ZM41.5661 6.32258V4.03475H39.5661V6.32258H41.5661ZM41.5661 1.74691V0.602998H39.5661V1.74691H41.5661ZM40.5661 1.603H41.5864V-0.397002H40.5661V1.603ZM43.6269 1.603H45.6674V-0.397002H43.6269V1.603ZM47.7079 1.603H48.7281V-0.397002H47.7079V1.603ZM47.7281 0.602998V1.69391H49.7281V0.602998H47.7281ZM47.7281 3.87575V6.05758H49.7281V3.87575H47.7281ZM47.7281 8.23941V10.4212H49.7281V8.23941H47.7281ZM47.7281 12.6031V13.694H49.7281V12.6031H47.7281ZM47.7281 13.694C47.7281 14.0622 47.7456 14.414 47.7821 14.7482L49.7703 14.5312C49.7427 14.2782 49.7281 13.9995 49.7281 13.694H47.7281ZM48.463 16.957C48.6971 17.3435 48.9926 17.677 49.3527 17.9432L50.5415 16.3348C50.4073 16.2356 50.2837 16.1025 50.1738 15.921L48.463 16.957ZM49.3924 17.9711C49.6828 18.1646 49.9933 18.3293 50.3221 18.466L51.0898 16.6192C50.875 16.5299 50.6796 16.4255 50.5018 16.3069L49.3924 17.9711ZM52.2721 18.9398C52.5827 18.9716 52.9032 18.987 53.2331 18.987V16.987C52.9655 16.987 52.713 16.9745 52.4751 16.9502L52.2721 18.9398ZM53.2331 18.987C53.6289 18.987 54.0227 18.9717 54.4145 18.9411L54.2588 16.9472C53.9193 16.9737 53.5774 16.987 53.2331 16.987V18.987ZM56.7507 18.5706C57.1326 18.4786 57.5118 18.3714 57.8882 18.249L57.27 16.347C56.9424 16.4534 56.6131 16.5466 56.2821 16.6263L56.7507 18.5706ZM57.8882 18.249C58.2253 18.1395 58.5501 18.0227 58.8625 17.8983L58.123 16.0401C57.8531 16.1475 57.5689 16.2498 57.27 16.347L57.8882 18.249ZM60.757 16.9571C61.0735 16.7609 61.3711 16.552 61.6488 16.3299L60.3994 14.7681C60.1884 14.9369 59.9568 15.1001 59.7035 15.257L60.757 16.9571ZM62.0241 15.549V14.6149H60.0241V15.549H62.0241ZM62.0241 12.7466V10.8784H60.0241V12.7466H62.0241ZM62.0241 9.01012V7.14187H60.0241V9.01012H62.0241ZM62.0241 5.27362V3.40537H60.0241V5.27362H62.0241ZM62.0241 1.53712V0.602998H60.0241V1.53712H62.0241ZM61.0241 1.603H62.0576V-0.397002H61.0241V1.603ZM64.1246 1.603H66.1916V-0.397002H64.1246V1.603ZM68.2586 1.603H69.2921V-0.397002H68.2586V1.603ZM68.2921 0.602998V1.55847H70.2921V0.602998H68.2921ZM68.2921 3.46941V5.38036H70.2921V3.46941H68.2921ZM68.2921 7.2913V9.20225H70.2921V7.2913H68.2921ZM68.2921 11.1132V13.0241H70.2921V11.1132H68.2921ZM68.2921 14.9351V16.846H70.2921V14.9351H68.2921ZM68.2921 18.757V20.6679H70.2921V18.757H68.2921ZM68.2921 22.5789V24.4898H70.2921V22.5789H68.2921ZM68.2921 26.4007V28.3117H70.2921V26.4007H68.2921ZM68.2921 30.2226V32.1336H70.2921V30.2226H68.2921ZM68.2921 34.0445V35H70.2921V34.0445H68.2921ZM69.2921 34H68.2586V36H69.2921V34ZM66.1916 34H64.1246V36H66.1916V34ZM62.0576 34H61.0241V36H62.0576V34ZM62.0241 35V33.9047H60.0241V35H62.0241ZM62.0241 31.714V29.5233H60.0241V31.714H62.0241ZM62.0241 27.3327V25.142H60.0241V27.3327H62.0241ZM62.0241 22.9513V21.856H60.0241V22.9513H62.0241ZM82.0092 0.602998V0.102998H81.5092V0.602998H82.0092ZM90.2772 0.602998H90.7772V0.102998H90.2772V0.602998ZM90.2772 24.135H89.7772V25.8652L90.7001 24.4017L90.2772 24.135ZM105.117 0.602998V0.102998H104.841L104.694 0.336287L105.117 0.602998ZM113.385 0.602998H113.885V0.102998H113.385V0.602998ZM113.385 35V35.5H113.885V35H113.385ZM105.117 35H104.617V35.5H105.117V35ZM105.117 11.097H105.617V9.3437L104.692 10.8333L105.117 11.097ZM90.2772 35V35.5H90.5553L90.702 35.2637L90.2772 35ZM82.0092 35H81.5092V35.5H82.0092V35ZM81.5092 0.602998V1.55847H82.5092V0.602998H81.5092ZM81.5092 3.46941V5.38036H82.5092V3.46941H81.5092ZM81.5092 7.2913V9.20225H82.5092V7.2913H81.5092ZM81.5092 11.1132V13.0241H82.5092V11.1132H81.5092ZM81.5092 14.9351V16.846H82.5092V14.9351H81.5092ZM81.5092 18.757V20.6679H82.5092V18.757H81.5092ZM81.5092 22.5789V24.4898H82.5092V22.5789H81.5092ZM81.5092 26.4007V28.3117H82.5092V26.4007H81.5092ZM81.5092 30.2226V32.1336H82.5092V30.2226H81.5092ZM81.5092 34.0445V35H82.5092V34.0445H81.5092ZM82.0092 35.5H83.0427V34.5H82.0092V35.5ZM85.1097 35.5H87.1767V34.5H85.1097V35.5ZM89.2437 35.5H90.2772V34.5H89.2437V35.5ZM90.702 35.2637L91.232 34.41L90.3824 33.8826L89.8524 34.7363L90.702 35.2637ZM92.292 32.7027L93.352 30.9953L92.5024 30.4679L91.4424 32.1752L92.292 32.7027ZM94.412 29.288L95.472 27.5806L94.6224 27.0532L93.5624 28.7605L94.412 29.288ZM96.532 25.8733L97.592 24.1659L96.7424 23.6385L95.6824 25.3458L96.532 25.8733ZM98.652 22.4585L99.712 20.7512L98.8624 20.2237L97.8024 21.9311L98.652 22.4585ZM100.772 19.0438L101.832 17.3365L100.982 16.809L99.9224 18.5164L100.772 19.0438ZM102.892 15.6291L103.952 13.9218L103.102 13.3943L102.042 15.1017L102.892 15.6291ZM105.012 12.2144L105.542 11.3607L104.692 10.8333L104.162 11.687L105.012 12.2144ZM104.617 11.097V12.093H105.617V11.097H104.617ZM104.617 14.0849V16.0768H105.617V14.0849H104.617ZM104.617 18.0687V20.0606H105.617V18.0687H104.617ZM104.617 22.0525V24.0445H105.617V22.0525H104.617ZM104.617 26.0364V28.0283H105.617V26.0364H104.617ZM104.617 30.0202V32.0121H105.617V30.0202H104.617ZM104.617 34.004V35H105.617V34.004H104.617ZM105.117 35.5H106.151V34.5H105.117V35.5ZM108.218 35.5H110.285V34.5H108.218V35.5ZM112.352 35.5H113.385V34.5H112.352V35.5ZM113.885 35V34.0445H112.885V35H113.885ZM113.885 32.1336V30.2226H112.885V32.1336H113.885ZM113.885 28.3117V26.4007H112.885V28.3117H113.885ZM113.885 24.4898V22.5789H112.885V24.4898H113.885ZM113.885 20.6679V18.757H112.885V20.6679H113.885ZM113.885 16.846V14.9351H112.885V16.846H113.885ZM113.885 13.0241V11.1132H112.885V13.0241H113.885ZM113.885 9.20225V7.29131H112.885V9.20225H113.885ZM113.885 5.38036V3.46942H112.885V5.38036H113.885ZM113.885 1.55847V0.602998H112.885V1.55847H113.885ZM113.385 0.102998H112.352V1.103H113.385V0.102998ZM110.285 0.102998H108.218V1.103H110.285V0.102998ZM106.151 0.102998H105.117V1.103H106.151V0.102998ZM104.694 0.336287L104.164 1.17672L105.01 1.71014L105.54 0.869707L104.694 0.336287ZM103.104 2.85757L102.044 4.53843L102.89 5.07185L103.95 3.39099L103.104 2.85757ZM100.984 6.21929L99.9243 7.90014L100.77 8.43357L101.83 6.75271L100.984 6.21929ZM98.8643 9.581L97.8043 11.2619L98.6501 11.7953L99.7101 10.1144L98.8643 9.581ZM96.7443 12.9427L95.6843 14.6236L96.5301 15.157L97.5901 13.4761L96.7443 12.9427ZM94.6243 16.3044L93.5643 17.9853L94.4101 18.5187L95.4701 16.8378L94.6243 16.3044ZM92.5043 19.6661L91.4443 21.347L92.2901 21.8804L93.3501 20.1996L92.5043 19.6661ZM90.3843 23.0279L89.8543 23.8683L90.7001 24.4017L91.2301 23.5613L90.3843 23.0279ZM90.7772 24.135V23.1545H89.7772V24.135H90.7772ZM90.7772 21.1935V19.2325H89.7772V21.1935H90.7772ZM90.7772 17.2715V15.3105H89.7772V17.2715H90.7772ZM90.7772 13.3495V11.3885H89.7772V13.3495H90.7772ZM90.7772 9.4275V7.4665H89.7772V9.4275H90.7772ZM90.7772 5.5055V3.5445H89.7772V5.5055H90.7772ZM90.7772 1.5835V0.602998H89.7772V1.5835H90.7772ZM90.2772 0.102998H89.2437V1.103H90.2772V0.102998ZM87.1767 0.102998H85.1097V1.103H87.1767V0.102998ZM83.0427 0.102998H82.0092V1.103H83.0427V0.102998ZM82.0092 0.602998V-0.397002H81.0092V0.602998H82.0092ZM90.2772 0.602998H91.2772V-0.397002H90.2772V0.602998ZM90.2772 24.135H89.2772V27.5954L91.1231 24.6684L90.2772 24.135ZM105.117 0.602998V-0.397002H104.566L104.271 0.0695782L105.117 0.602998ZM113.385 0.602998H114.385V-0.397002H113.385V0.602998ZM113.385 35V36H114.385V35H113.385ZM105.117 35H104.117V36H105.117V35ZM105.117 11.097H106.117V7.59039L104.268 10.5695L105.117 11.097ZM90.2772 35V36H90.8334L91.1268 35.5275L90.2772 35ZM82.0092 35H81.0092V36H82.0092V35ZM81.0092 0.602998V1.55847H83.0092V0.602998H81.0092ZM81.0092 3.46941V5.38036H83.0092V3.46941H81.0092ZM81.0092 7.2913V9.20225H83.0092V7.2913H81.0092ZM81.0092 11.1132V13.0241H83.0092V11.1132H81.0092ZM81.0092 14.9351V16.846H83.0092V14.9351H81.0092ZM81.0092 18.757V20.6679H83.0092V18.757H81.0092ZM81.0092 22.5789V24.4898H83.0092V22.5789H81.0092ZM81.0092 26.4007V28.3117H83.0092V26.4007H81.0092ZM81.0092 30.2226V32.1336H83.0092V30.2226H81.0092ZM81.0092 34.0445V35H83.0092V34.0445H81.0092ZM82.0092 36H83.0427V34H82.0092V36ZM85.1097 36H87.1767V34H85.1097V36ZM89.2437 36H90.2772V34H89.2437V36ZM91.1268 35.5275L91.6568 34.6738L89.9576 33.6189L89.4276 34.4725L91.1268 35.5275ZM92.7168 32.9664L93.7768 31.2591L92.0776 30.2042L91.0176 31.9115L92.7168 32.9664ZM94.8368 29.5517L95.8968 27.8443L94.1976 26.7894L93.1376 28.4968L94.8368 29.5517ZM96.9568 26.137L98.0168 24.4296L96.3176 23.3747L95.2576 25.0821L96.9568 26.137ZM99.0768 22.7223L100.137 21.0149L98.4376 19.96L97.3776 21.6674L99.0768 22.7223ZM101.197 19.3076L102.257 17.6002L100.558 16.5453L99.4976 18.2527L101.197 19.3076ZM103.317 15.8929L104.377 14.1855L102.678 13.1306L101.618 14.8379L103.317 15.8929ZM105.437 12.4781L105.967 11.6245L104.268 10.5695L103.738 11.4232L105.437 12.4781ZM104.117 11.097V12.093H106.117V11.097H104.117ZM104.117 14.0849V16.0768H106.117V14.0849H104.117ZM104.117 18.0687V20.0606H106.117V18.0687H104.117ZM104.117 22.0525V24.0445H106.117V22.0525H104.117ZM104.117 26.0364V28.0283H106.117V26.0364H104.117ZM104.117 30.0202V32.0121H106.117V30.0202H104.117ZM104.117 34.004V35H106.117V34.004H104.117ZM105.117 36H106.151V34H105.117V36ZM108.218 36H110.285V34H108.218V36ZM112.352 36H113.385V34H112.352V36ZM114.385 35V34.0445H112.385V35H114.385ZM114.385 32.1336V30.2226H112.385V32.1336H114.385ZM114.385 28.3117V26.4007H112.385V28.3117H114.385ZM114.385 24.4898V22.5789H112.385V24.4898H114.385ZM114.385 20.6679V18.757H112.385V20.6679H114.385ZM114.385 16.846V14.9351H112.385V16.846H114.385ZM114.385 13.0241V11.1132H112.385V13.0241H114.385ZM114.385 9.20225V7.29131H112.385V9.20225H114.385ZM114.385 5.38036V3.46942H112.385V5.38036H114.385ZM114.385 1.55847V0.602998H112.385V1.55847H114.385ZM113.385 -0.397002H112.352V1.603H113.385V-0.397002ZM110.285 -0.397002H108.218V1.603H110.285V-0.397002ZM106.151 -0.397002H105.117V1.603H106.151V-0.397002ZM104.271 0.0695782L103.741 0.910007L105.433 1.97684L105.963 1.13642L104.271 0.0695782ZM102.681 2.59086L101.621 4.27172L103.313 5.33856L104.373 3.6577L102.681 2.59086ZM100.561 5.95258L99.5014 7.63344L101.193 8.70028L102.253 7.01942L100.561 5.95258ZM98.4414 9.31429L97.3814 10.9951L99.0731 12.062L100.133 10.3811L98.4414 9.31429ZM96.3214 12.676L95.2614 14.3569L96.9531 15.4237L98.0131 13.7428L96.3214 12.676ZM94.2014 16.0377L93.1414 17.7186L94.8331 18.7854L95.8931 17.1046L94.2014 16.0377ZM92.0814 19.3994L91.0214 21.0803L92.7131 22.1471L93.7731 20.4663L92.0814 19.3994ZM89.9614 22.7612L89.4314 23.6016L91.1231 24.6684L91.6531 23.828L89.9614 22.7612ZM91.2772 24.135V23.1545H89.2772V24.135H91.2772ZM91.2772 21.1935V19.2325H89.2772V21.1935H91.2772ZM91.2772 17.2715V15.3105H89.2772V17.2715H91.2772ZM91.2772 13.3495V11.3885H89.2772V13.3495H91.2772ZM91.2772 9.4275V7.4665H89.2772V9.4275H91.2772ZM91.2772 5.5055V3.5445H89.2772V5.5055H91.2772ZM91.2772 1.5835V0.602998H89.2772V1.5835H91.2772ZM90.2772 -0.397002H89.2437V1.603H90.2772V-0.397002ZM87.1767 -0.397002H85.1097V1.603H87.1767V-0.397002ZM83.0427 -0.397002H82.0092V1.603H83.0427V-0.397002ZM126.128 0.602998V0.102998H125.628V0.602998H126.128ZM137.894 0.602998L138.366 0.440002L138.25 0.102998H137.894V0.602998ZM146.374 25.195L145.901 25.358L146.377 26.7374L146.847 25.3562L146.374 25.195ZM154.748 0.602998V0.102998H154.39L154.274 0.441827L154.748 0.602998ZM165.825 0.602998H166.325V0.102998H165.825V0.602998ZM165.825 35V35.5H166.325V35H165.825ZM158.352 35H157.852V35.5H158.352V35ZM158.352 9.56H158.852V9.06H158.352V9.56ZM158.193 9.56V9.06H157.835L157.719 9.39834L158.193 9.56ZM149.501 35V35.5H149.858L149.974 35.1617L149.501 35ZM142.876 35L142.404 35.166L142.522 35.5H142.876V35ZM133.919 9.56L134.39 9.39395L134.273 9.06H133.919V9.56ZM133.707 9.56V9.06H133.207V9.56H133.707ZM133.707 35V35.5H134.207V35H133.707ZM126.128 35H125.628V35.5H126.128V35ZM125.628 0.602998V1.55847H126.628V0.602998H125.628ZM125.628 3.46941V5.38036H126.628V3.46941H125.628ZM125.628 7.2913V9.20225H126.628V7.2913H125.628ZM125.628 11.1132V13.0241H126.628V11.1132H125.628ZM125.628 14.9351V16.846H126.628V14.9351H125.628ZM125.628 18.757V20.6679H126.628V18.757H125.628ZM125.628 22.5789V24.4898H126.628V22.5789H125.628ZM125.628 26.4007V28.3117H126.628V26.4007H125.628ZM125.628 30.2226V32.1336H126.628V30.2226H125.628ZM125.628 34.0445V35H126.628V34.0445H125.628ZM126.128 35.5H127.075V34.5H126.128V35.5ZM128.97 35.5H130.864V34.5H128.97V35.5ZM132.759 35.5H133.707V34.5H132.759V35.5ZM134.207 35V33.94H133.207V35H134.207ZM134.207 31.82V29.7H133.207V31.82H134.207ZM134.207 27.58V25.46H133.207V27.58H134.207ZM134.207 23.34V21.22H133.207V23.34H134.207ZM134.207 19.1V16.98H133.207V19.1H134.207ZM134.207 14.86V12.74H133.207V14.86H134.207ZM134.207 10.62V9.56H133.207V10.62H134.207ZM133.707 10.06H133.76V9.06H133.707V10.06ZM133.866 10.06H133.919V9.06H133.866V10.06ZM133.447 9.72605L133.767 10.6346L134.71 10.3025L134.39 9.39395L133.447 9.72605ZM134.407 12.4518L135.046 14.2689L135.99 13.9368L135.35 12.1197L134.407 12.4518ZM135.686 16.0861L136.326 17.9032L137.269 17.5711L136.629 15.7539L135.686 16.0861ZM136.966 19.7203L137.606 21.5375L138.549 21.2054L137.909 19.3882L136.966 19.7203ZM138.245 23.3546L138.885 25.1718L139.828 24.8397L139.189 23.0225L138.245 23.3546ZM139.525 26.9889L140.165 28.8061L141.108 28.4739L140.468 26.6568L139.525 26.9889ZM140.804 30.6232L141.444 32.4403L142.388 32.1082L141.748 30.2911L140.804 30.6232ZM142.084 34.2575L142.404 35.166L143.347 34.834L143.027 33.9254L142.084 34.2575ZM142.876 35.5H143.704V34.5H142.876V35.5ZM145.36 35.5H147.016V34.5H145.36V35.5ZM148.672 35.5H149.501V34.5H148.672V35.5ZM149.974 35.1617L150.284 34.2531L149.338 33.9298L149.027 34.8383L149.974 35.1617ZM150.905 32.4359L151.526 30.6188L150.58 30.2955L149.959 32.1126L150.905 32.4359ZM152.147 28.8017L152.768 26.9845L151.821 26.6612L151.2 28.4783L152.147 28.8017ZM153.388 25.1674L154.009 23.3502L153.063 23.0269L152.442 24.8441L153.388 25.1674ZM154.63 21.5331L155.251 19.7159L154.305 19.3926L153.684 21.2098L154.63 21.5331ZM155.872 17.8988L156.493 16.0817L155.546 15.7583L154.926 17.5755L155.872 17.8988ZM157.114 14.2645L157.734 12.4474L156.788 12.1241L156.167 13.9412L157.114 14.2645ZM158.355 10.6302L158.666 9.72166L157.719 9.39834L157.409 10.3069L158.355 10.6302ZM158.193 10.06H158.232V9.06H158.193V10.06ZM158.312 10.06H158.352V9.06H158.312V10.06ZM157.852 9.56V10.62H158.852V9.56H157.852ZM157.852 12.74V14.86H158.852V12.74H157.852ZM157.852 16.98V19.1H158.852V16.98H157.852ZM157.852 21.22V23.34H158.852V21.22H157.852ZM157.852 25.46V27.58H158.852V25.46H157.852ZM157.852 29.7V31.82H158.852V29.7H157.852ZM157.852 33.94V35H158.852V33.94H157.852ZM158.352 35.5H159.286V34.5H158.352V35.5ZM161.154 35.5H163.022V34.5H161.154V35.5ZM164.89 35.5H165.825V34.5H164.89V35.5ZM166.325 35V34.0445H165.325V35H166.325ZM166.325 32.1336V30.2226H165.325V32.1336H166.325ZM166.325 28.3117V26.4007H165.325V28.3117H166.325ZM166.325 24.4898V22.5789H165.325V24.4898H166.325ZM166.325 20.6679V18.757H165.325V20.6679H166.325ZM166.325 16.846V14.9351H165.325V16.846H166.325ZM166.325 13.0241V11.1132H165.325V13.0241H166.325ZM166.325 9.20225V7.29131H165.325V9.20225H166.325ZM166.325 5.38036V3.46942H165.325V5.38036H166.325ZM166.325 1.55847V0.602998H165.325V1.55847H166.325ZM165.825 0.102998H164.902V1.103H165.825V0.102998ZM163.055 0.102998H161.209V1.103H163.055V0.102998ZM159.363 0.102998H157.517V1.103H159.363V0.102998ZM155.671 0.102998H154.748V1.103H155.671V0.102998ZM154.274 0.441827L153.925 1.46649L154.872 1.78884L155.221 0.764168L154.274 0.441827ZM153.228 3.51583L152.53 5.56516L153.476 5.8875L154.174 3.83817L153.228 3.51583ZM151.832 7.61449L151.134 9.66383L152.081 9.98617L152.778 7.93684L151.832 7.61449ZM150.436 11.7132L149.738 13.7625L150.685 14.0848L151.383 12.0355L150.436 11.7132ZM149.041 15.8118L148.343 17.8612L149.289 18.1835L149.987 16.1342L149.041 15.8118ZM147.645 19.9105L146.947 21.9598L147.894 22.2822L148.591 20.2328L147.645 19.9105ZM146.249 24.0092L145.9 25.0338L146.847 25.3562L147.196 24.3315L146.249 24.0092ZM146.846 25.032L146.543 24.1537L145.598 24.4797L145.901 25.358L146.846 25.032ZM145.938 22.3971L145.332 20.6406L144.387 20.9666L144.992 22.7231L145.938 22.3971ZM144.726 18.884L144.121 17.1274L143.175 17.4534L143.781 19.21L144.726 18.884ZM143.515 15.3709L142.909 13.6143L141.964 13.9403L142.569 15.6969L143.515 15.3709ZM142.303 11.8577L141.698 10.1011L140.752 10.4271L141.358 12.1837L142.303 11.8577ZM141.092 8.34458L140.486 6.58801L139.541 6.914L140.147 8.67057L141.092 8.34458ZM139.881 4.83143L139.275 3.07486L138.329 3.40085L138.935 5.15742L139.881 4.83143ZM138.669 1.31829L138.366 0.440002L137.421 0.765993L137.724 1.64428L138.669 1.31829ZM137.894 0.102998H136.913V1.103H137.894V0.102998ZM134.952 0.102998H132.991V1.103H134.952V0.102998ZM131.03 0.102998H129.069V1.103H131.03V0.102998ZM127.108 0.102998H126.128V1.103H127.108V0.102998ZM126.128 0.602998V-0.397002H125.128V0.602998H126.128ZM137.894 0.602998L138.839 0.277007L138.607 -0.397002H137.894V0.602998ZM146.374 25.195L145.428 25.521L146.38 28.2798L147.32 25.5173L146.374 25.195ZM154.748 0.602998V-0.397002H154.032L153.801 0.280656L154.748 0.602998ZM165.825 0.602998H166.825V-0.397002H165.825V0.602998ZM165.825 35V36H166.825V35H165.825ZM158.352 35H157.352V36H158.352V35ZM158.352 9.56H159.352V8.56H158.352V9.56ZM158.193 9.56V8.56H157.477L157.246 9.23668L158.193 9.56ZM149.501 35V36H150.216L150.447 35.3233L149.501 35ZM142.876 35L141.932 35.3321L142.167 36H142.876V35ZM133.919 9.56L134.862 9.2279L134.627 8.56H133.919V9.56ZM133.707 9.56V8.56H132.707V9.56H133.707ZM133.707 35V36H134.707V35H133.707ZM126.128 35H125.128V36H126.128V35ZM125.128 0.602998V1.55847H127.128V0.602998H125.128ZM125.128 3.46941V5.38036H127.128V3.46941H125.128ZM125.128 7.2913V9.20225H127.128V7.2913H125.128ZM125.128 11.1132V13.0241H127.128V11.1132H125.128ZM125.128 14.9351V16.846H127.128V14.9351H125.128ZM125.128 18.757V20.6679H127.128V18.757H125.128ZM125.128 22.5789V24.4898H127.128V22.5789H125.128ZM125.128 26.4007V28.3117H127.128V26.4007H125.128ZM125.128 30.2226V32.1336H127.128V30.2226H125.128ZM125.128 34.0445V35H127.128V34.0445H125.128ZM126.128 36H127.075V34H126.128V36ZM128.97 36H130.864V34H128.97V36ZM132.759 36H133.707V34H132.759V36ZM134.707 35V33.94H132.707V35H134.707ZM134.707 31.82V29.7H132.707V31.82H134.707ZM134.707 27.58V25.46H132.707V27.58H134.707ZM134.707 23.34V21.22H132.707V23.34H134.707ZM134.707 19.1V16.98H132.707V19.1H134.707ZM134.707 14.86V12.74H132.707V14.86H134.707ZM134.707 10.62V9.56H132.707V10.62H134.707ZM133.707 10.56H133.76V8.56H133.707V10.56ZM133.866 10.56H133.919V8.56H133.866V10.56ZM132.975 9.8921L133.295 10.8007L135.182 10.1365L134.862 9.2279L132.975 9.8921ZM133.935 12.6178L134.575 14.435L136.461 13.7708L135.822 11.9536L133.935 12.6178ZM135.215 16.2521L135.854 18.0692L137.741 17.405L137.101 15.5879L135.215 16.2521ZM136.494 19.8864L137.134 21.7035L139.02 21.0393L138.381 19.2222L136.494 19.8864ZM137.774 23.5207L138.414 25.3378L140.3 24.6736L139.66 22.8565L137.774 23.5207ZM139.053 27.155L139.693 28.9721L141.58 28.3079L140.94 26.4908L139.053 27.155ZM140.333 30.7892L140.973 32.6064L142.859 31.9422L142.219 30.125L140.333 30.7892ZM141.612 34.4235L141.932 35.3321L143.819 34.6679L143.499 33.7593L141.612 34.4235ZM142.876 36H143.704V34H142.876V36ZM145.36 36H147.016V34H145.36V36ZM148.672 36H149.501V34H148.672V36ZM150.447 35.3233L150.757 34.4147L148.865 33.7681L148.554 34.6767L150.447 35.3233ZM151.378 32.5976L151.999 30.7805L150.106 30.1338L149.486 31.951L151.378 32.5976ZM152.62 28.9633L153.241 27.1462L151.348 26.4995L150.727 28.3167L152.62 28.9633ZM153.862 25.329L154.482 23.5119L152.59 22.8653L151.969 24.6824L153.862 25.329ZM155.103 21.6947L155.724 19.8776L153.832 19.231L153.211 21.0481L155.103 21.6947ZM156.345 18.0605L156.966 16.2433L155.073 15.5967L154.452 17.4138L156.345 18.0605ZM157.587 14.4262L158.208 12.609L156.315 11.9624L155.694 13.7795L157.587 14.4262ZM158.828 10.7919L159.139 9.88331L157.246 9.23668L156.936 10.1453L158.828 10.7919ZM158.193 10.56H158.232V8.56H158.193V10.56ZM158.312 10.56H158.352V8.56H158.312V10.56ZM157.352 9.56V10.62H159.352V9.56H157.352ZM157.352 12.74V14.86H159.352V12.74H157.352ZM157.352 16.98V19.1H159.352V16.98H157.352ZM157.352 21.22V23.34H159.352V21.22H157.352ZM157.352 25.46V27.58H159.352V25.46H157.352ZM157.352 29.7V31.82H159.352V29.7H157.352ZM157.352 33.94V35H159.352V33.94H157.352ZM158.352 36H159.286V34H158.352V36ZM161.154 36H163.022V34H161.154V36ZM164.89 36H165.825V34H164.89V36ZM166.825 35V34.0445H164.825V35H166.825ZM166.825 32.1336V30.2226H164.825V32.1336H166.825ZM166.825 28.3117V26.4007H164.825V28.3117H166.825ZM166.825 24.4898V22.5789H164.825V24.4898H166.825ZM166.825 20.6679V18.757H164.825V20.6679H166.825ZM166.825 16.846V14.9351H164.825V16.846H166.825ZM166.825 13.0241V11.1132H164.825V13.0241H166.825ZM166.825 9.20225V7.29131H164.825V9.20225H166.825ZM166.825 5.38036V3.46942H164.825V5.38036H166.825ZM166.825 1.55847V0.602998H164.825V1.55847H166.825ZM165.825 -0.397002H164.902V1.603H165.825V-0.397002ZM163.055 -0.397002H161.209V1.603H163.055V-0.397002ZM159.363 -0.397002H157.517V1.603H159.363V-0.397002ZM155.671 -0.397002H154.748V1.603H155.671V-0.397002ZM153.801 0.280656L153.452 1.30532L155.345 1.95001L155.694 0.925339L153.801 0.280656ZM152.754 3.35466L152.056 5.40399L153.95 6.04867L154.647 3.99934L152.754 3.35466ZM151.359 7.45332L150.661 9.50266L152.554 10.1473L153.252 8.09801L151.359 7.45332ZM149.963 11.552L149.265 13.6013L151.158 14.246L151.856 12.1967L149.963 11.552ZM148.567 15.6507L147.869 17.7L149.763 18.3447L150.46 16.2953L148.567 15.6507ZM147.172 19.7493L146.474 21.7987L148.367 22.4433L149.065 20.394L147.172 19.7493ZM145.776 23.848L145.427 24.8727L147.32 25.5173L147.669 24.4927L145.776 23.848ZM147.319 24.869L147.016 23.9907L145.125 24.6427L145.428 25.521L147.319 24.869ZM146.41 22.2341L145.805 20.4776L143.914 21.1296L144.52 22.8861L146.41 22.2341ZM145.199 18.721L144.593 16.9644L142.702 17.6164L143.308 19.373L145.199 18.721ZM143.988 15.2079L143.382 13.4513L141.491 14.1033L142.097 15.8598L143.988 15.2079ZM142.776 11.6947L142.17 9.93815L140.28 10.5901L140.885 12.3467L142.776 11.6947ZM141.565 8.18158L140.959 6.42501L139.068 7.07699L139.674 8.83356L141.565 8.18158ZM140.353 4.66844L139.748 2.91187L137.857 3.56385L138.462 5.32042L140.353 4.66844ZM139.142 1.15529L138.839 0.277007L136.948 0.928988L137.251 1.80728L139.142 1.15529ZM137.894 -0.397002H136.913V1.603H137.894V-0.397002ZM134.952 -0.397002H132.991V1.603H134.952V-0.397002ZM131.03 -0.397002H129.069V1.603H131.03V-0.397002ZM127.108 -0.397002H126.128V1.603H127.108V-0.397002ZM189.551 35.318L189.493 35.8146L189.494 35.8148L189.551 35.318ZM185.576 34.523L185.706 34.0401L185.702 34.0392L185.576 34.523ZM181.548 32.88L181.271 33.2961L181.281 33.3024L181.548 32.88ZM178.898 29.965L179.332 29.7169L179.327 29.7078L178.898 29.965ZM204.656 1.239H205.156V0.817051L204.74 0.746115L204.656 1.239ZM204.656 7.44L204.539 7.92604L205.156 8.07505V7.44H204.656ZM190.77 6.062L190.723 5.56425L190.72 5.56448L190.77 6.062ZM188.544 6.592L188.705 7.06543L188.715 7.0619L188.544 6.592ZM204.868 28.11H205.368V27.4807L204.755 27.6229L204.868 28.11ZM204.868 34.364L204.969 34.8538L205.368 34.7717V34.364H204.868ZM193.738 35.03C193.384 35.03 193.038 35.0263 192.701 35.0189L192.679 36.0186C193.023 36.0262 193.377 36.03 193.738 36.03V35.03ZM190.634 34.9191C190.28 34.8916 189.938 34.8589 189.608 34.8212L189.494 35.8148C189.837 35.8539 190.191 35.8877 190.556 35.9161L190.634 34.9191ZM189.61 34.8214C189.292 34.7841 188.965 34.7378 188.628 34.6824L188.466 35.6692C188.817 35.7268 189.159 35.7753 189.493 35.8146L189.61 34.8214ZM186.675 34.286C186.359 34.2106 186.036 34.1286 185.706 34.0401L185.447 35.0059C185.785 35.0968 186.118 35.1811 186.444 35.2587L186.675 34.286ZM185.702 34.0392C185.347 33.9464 185.006 33.8478 184.68 33.7435L184.375 34.696C184.72 34.8062 185.078 34.9098 185.45 35.0068L185.702 34.0392ZM182.722 32.9645C182.397 32.8037 182.095 32.6346 181.816 32.4576L181.281 33.3024C181.592 33.4997 181.925 33.6857 182.279 33.8608L182.722 32.9645ZM181.826 32.464C181.569 32.2927 181.323 32.1047 181.088 31.8999L180.431 32.6537C180.698 32.8866 180.978 33.1007 181.271 33.296L181.826 32.464ZM179.84 30.5126C179.662 30.2625 179.493 29.9974 179.332 29.7169L178.464 30.2131C178.64 30.5211 178.827 30.8143 179.025 31.0926L179.84 30.5126ZM179.327 29.7078C179.145 29.4041 178.986 29.0852 178.852 28.7508L177.924 29.1239C178.078 29.5065 178.26 29.8728 178.469 30.2222L179.327 29.7078ZM178.343 26.6586C178.304 26.3078 178.285 25.9437 178.285 25.566H177.285C177.285 25.9776 177.306 26.3779 177.348 26.7666L178.343 26.6586ZM178.285 25.566V24.6219H177.285V25.566H178.285ZM178.285 22.7338V20.8457H177.285V22.7338H178.285ZM178.285 18.9576V17.0694H177.285V18.9576H178.285ZM178.285 15.1813V13.2932H177.285V15.1813H178.285ZM178.285 11.4051V10.461H177.285V11.4051H178.285ZM178.285 10.461C178.285 10.1052 178.3 9.75992 178.329 9.42521L177.332 9.33898C177.301 9.70382 177.285 10.0779 177.285 10.461H178.285ZM178.712 7.4161C178.917 6.75218 179.197 6.13988 179.549 5.57758L178.702 5.04651C178.301 5.68511 177.987 6.37696 177.756 7.12041L178.712 7.4161ZM180.839 4.0253C181.318 3.58177 181.866 3.179 182.487 2.81798L181.984 1.95361C181.305 2.34854 180.696 2.79437 180.159 3.2921L180.839 4.0253ZM184.36 1.93772C184.978 1.70466 185.645 1.50068 186.362 1.32638L186.126 0.354672C185.374 0.537588 184.667 0.753173 184.007 1.00203L184.36 1.93772ZM188.436 0.925879C189.104 0.826655 189.806 0.748211 190.542 0.690731L190.464 -0.306231C189.707 -0.247101 188.982 -0.166177 188.289 -0.0632725L188.436 0.925879ZM192.67 0.585176C193.02 0.577061 193.376 0.572998 193.738 0.572998V-0.427002C193.368 -0.427002 193.005 -0.422856 192.647 -0.414555L192.67 0.585176ZM193.738 0.572998C194.027 0.572998 194.328 0.577467 194.639 0.586435L194.668 -0.41315C194.348 -0.422375 194.038 -0.427002 193.738 -0.427002V0.572998ZM196.447 0.680091C197.021 0.721544 197.624 0.77506 198.256 0.840692L198.359 -0.153962C197.718 -0.220566 197.104 -0.275033 196.519 -0.317309L196.447 0.680091ZM200.064 1.0512C200.645 1.12562 201.246 1.20876 201.869 1.30061L202.015 0.311319C201.386 0.218603 200.778 0.134594 200.191 0.0593052L200.064 1.0512ZM203.672 1.58143C203.968 1.62984 204.268 1.67999 204.572 1.73188L204.74 0.746115C204.434 0.693847 204.131 0.643321 203.833 0.594539L203.672 1.58143ZM204.156 1.239V2.01412H205.156V1.239H204.156ZM204.156 3.56437V5.11462H205.156V3.56437H204.156ZM204.156 6.66487V7.44H205.156V6.66487H204.156ZM204.773 6.95396C204.473 6.8814 204.175 6.81147 203.879 6.74417L203.657 7.71919C203.949 7.78552 204.242 7.85447 204.539 7.92604L204.773 6.95396ZM202.083 6.36102C201.468 6.2391 200.865 6.12946 200.273 6.03212L200.111 7.01883C200.691 7.11434 201.283 7.22203 201.888 7.34194L202.083 6.36102ZM198.451 5.76621C197.825 5.68714 197.213 5.62314 196.616 5.57426L196.535 6.57093C197.116 6.61855 197.713 6.681 198.325 6.75833L198.451 5.76621ZM194.77 5.46996C194.457 5.46066 194.148 5.456 193.844 5.456V6.456C194.138 6.456 194.437 6.4605 194.741 6.46952L194.77 5.46996ZM193.844 5.456C193.574 5.456 193.315 5.4575 193.069 5.4605L193.081 6.46043C193.323 6.45748 193.578 6.456 193.844 6.456V5.456ZM191.511 5.50741C191.223 5.52278 190.96 5.54167 190.723 5.56425L190.818 6.55975C191.038 6.53874 191.287 6.52078 191.564 6.50599L191.511 5.50741ZM190.72 5.56448C190.521 5.58443 190.32 5.61222 190.116 5.64775L190.288 6.63283C190.468 6.60135 190.646 6.57694 190.82 6.55952L190.72 5.56448ZM188.942 5.93165C188.754 5.98913 188.564 6.05263 188.373 6.1221L188.715 7.0619C188.89 6.99811 189.064 6.94013 189.234 6.88791L188.942 5.93165ZM188.383 6.11867C187.93 6.27289 187.523 6.47717 187.168 6.73535L187.756 7.5444C188.02 7.35255 188.334 7.19157 188.705 7.06532L188.383 6.11867ZM185.692 9.03445C185.598 9.44433 185.553 9.8853 185.553 10.355H186.553C186.553 9.94882 186.592 9.58389 186.667 9.25786L185.692 9.03445ZM185.553 10.355V11.2692H186.553V10.355H185.553ZM185.553 13.0977V14.9262H186.553V13.0977H185.553ZM185.553 16.7547V18.5832H186.553V16.7547H185.553ZM185.553 20.4117V22.2402H186.553V20.4117H185.553ZM185.553 24.0687V24.983H186.553V24.0687H185.553ZM185.553 24.983C185.553 25.3311 185.586 25.6661 185.652 25.9871L186.631 25.7838C186.58 25.5354 186.553 25.2688 186.553 24.983H185.553ZM186.554 27.8239C186.971 28.3055 187.508 28.7041 188.15 29.0264L188.599 28.1325C188.051 27.8581 187.627 27.535 187.311 27.1697L186.554 27.8239ZM189.961 29.6755C190.525 29.8161 191.142 29.9243 191.809 30.0015L191.924 29.0081C191.292 28.9351 190.719 28.8337 190.202 28.7051L189.961 29.6755ZM193.661 30.1328C193.961 30.1423 194.27 30.147 194.586 30.147V29.147C194.28 29.147 193.982 29.1424 193.693 29.1333L193.661 30.1328ZM194.586 30.147C194.87 30.147 195.167 30.1402 195.475 30.1268L195.431 29.1277C195.136 29.1406 194.855 29.147 194.586 29.147V30.147ZM197.237 29.9918C197.787 29.9337 198.368 29.8595 198.979 29.7692L198.833 28.7799C198.234 28.8685 197.667 28.9409 197.132 28.9973L197.237 29.9918ZM200.707 29.4853C201.258 29.3866 201.83 29.2768 202.423 29.156L202.224 28.1761C201.638 28.2954 201.074 28.4037 200.531 28.501L200.707 29.4853ZM204.131 28.7908C204.41 28.7284 204.694 28.6638 204.981 28.5971L204.755 27.6229C204.47 27.6891 204.189 27.753 203.913 27.8149L204.131 28.7908ZM204.368 28.11V28.8918H205.368V28.11H204.368ZM204.368 30.4552V32.0187H205.368V30.4552H204.368ZM204.368 33.5822V34.364H205.368V33.5822H204.368ZM204.767 33.8742C204.464 33.9366 204.161 33.9965 203.859 34.0538L204.045 35.0364C204.352 34.9781 204.66 34.9172 204.969 34.8538L204.767 33.8742ZM202.033 34.37C201.42 34.4662 200.809 34.5519 200.199 34.627L200.322 35.6195C200.942 35.543 201.564 35.4558 202.188 35.358L202.033 34.37ZM198.358 34.8226C197.741 34.8776 197.126 34.9216 196.512 34.9547L196.566 35.9533C197.191 35.9195 197.818 35.8747 198.447 35.8187L198.358 34.8226ZM194.663 35.0216C194.354 35.0272 194.046 35.03 193.738 35.03V36.03C194.052 36.03 194.366 36.0271 194.681 36.0214L194.663 35.0216ZM189.551 35.318L189.434 36.3112L189.438 36.3115L189.551 35.318ZM185.576 34.523L185.835 33.5571L185.829 33.5554L185.576 34.523ZM181.548 32.88L180.993 33.7121L181.003 33.7185L181.013 33.7248L181.548 32.88ZM178.898 29.965L179.766 29.4689L179.761 29.4596L179.756 29.4505L178.898 29.965ZM204.656 1.239H205.656V0.395103L204.824 0.253231L204.656 1.239ZM204.656 7.44L204.422 8.41208L205.656 8.7101V7.44H204.656ZM190.77 6.062L190.675 5.06649L190.671 5.06696L190.77 6.062ZM188.544 6.592L188.866 7.53865L188.876 7.53532L188.886 7.53179L188.544 6.592ZM204.868 28.11H205.868V26.8514L204.642 27.1359L204.868 28.11ZM204.868 34.364L205.07 35.3435L205.868 35.1793V34.364H204.868ZM193.738 34.53C193.387 34.53 193.045 34.5263 192.711 34.519L192.668 36.5185C193.016 36.5262 193.373 36.53 193.738 36.53V34.53ZM190.672 34.4206C190.324 34.3935 189.988 34.3614 189.665 34.3245L189.438 36.3115C189.787 36.3514 190.146 36.3857 190.517 36.4146L190.672 34.4206ZM189.668 34.3248C189.358 34.2884 189.039 34.2432 188.709 34.189L188.385 36.1626C188.743 36.2214 189.093 36.271 189.434 36.3111L189.668 34.3248ZM186.791 33.7996C186.48 33.7253 186.161 33.6445 185.835 33.5572L185.317 35.4888C185.66 35.5809 185.997 35.6663 186.328 35.7451L186.791 33.7996ZM185.829 33.5554C185.481 33.4648 185.149 33.3687 184.832 33.2673L184.223 35.1722C184.577 35.2854 184.944 35.3915 185.324 35.4906L185.829 33.5554ZM182.944 32.5163C182.633 32.3627 182.347 32.2021 182.083 32.0352L181.013 33.7248C181.341 33.9322 181.689 34.1267 182.057 34.309L182.944 32.5163ZM182.103 32.048C181.864 31.8887 181.635 31.7138 181.416 31.5229L180.102 33.0306C180.385 33.2775 180.683 33.5047 180.993 33.7121L182.103 32.048ZM180.247 30.2226C180.079 29.9866 179.919 29.7355 179.766 29.4689L178.03 30.4611C178.214 30.7829 178.41 31.0902 178.618 31.3826L180.247 30.2226ZM179.756 29.4505C179.587 29.1698 179.441 28.8746 179.316 28.5642L177.46 29.3104C177.624 29.7172 177.817 30.1071 178.041 30.4795L179.756 29.4505ZM178.84 26.6046C178.804 26.2728 178.785 25.9267 178.785 25.566H176.785C176.785 25.9945 176.807 26.4129 176.851 26.8206L178.84 26.6046ZM178.785 25.566V24.6219H176.785V25.566H178.785ZM178.785 22.7338V20.8457H176.785V22.7338H178.785ZM178.785 18.9576V17.0694H176.785V18.9576H178.785ZM178.785 15.1813V13.2932H176.785V15.1813H178.785ZM178.785 11.4051V10.461H176.785V11.4051H178.785ZM178.785 10.461C178.785 10.1188 178.799 9.78798 178.827 9.46832L176.834 9.29586C176.801 9.67576 176.785 10.0642 176.785 10.461H178.785ZM179.189 7.56394C179.383 6.93979 179.644 6.36727 179.973 5.84311L178.278 4.78097C177.854 5.45773 177.521 6.18935 177.279 6.97256L179.189 7.56394ZM181.179 4.39189C181.628 3.97547 182.147 3.59423 182.738 3.25017L181.732 1.52142C181.024 1.93331 180.385 2.40067 179.819 2.92551L181.179 4.39189ZM184.536 2.40557C185.133 2.18041 185.781 1.98223 186.48 1.81223L186.008 -0.13118C185.238 0.0560408 184.512 0.277427 183.831 0.534177L184.536 2.40557ZM188.51 1.42045C189.165 1.32307 189.856 1.24587 190.581 1.18921L190.425 -0.80471C189.658 -0.744758 188.921 -0.662594 188.216 -0.557847L188.51 1.42045ZM192.682 1.08504C193.027 1.07702 193.379 1.073 193.738 1.073V-0.927002C193.365 -0.927002 192.997 -0.922814 192.635 -0.914419L192.682 1.08504ZM193.738 1.073C194.022 1.073 194.318 1.07739 194.625 1.08623L194.682 -0.912943C194.357 -0.922296 194.043 -0.927002 193.738 -0.927002V1.073ZM196.411 1.17879C196.979 1.21983 197.577 1.27287 198.204 1.33802L198.411 -0.651289C197.765 -0.718379 197.146 -0.773322 196.555 -0.81601L196.411 1.17879ZM200 1.54715C200.578 1.62114 201.176 1.70383 201.796 1.79526L202.088 -0.183327C201.457 -0.276472 200.845 -0.360922 200.254 -0.436642L200 1.54715ZM203.591 2.07487C203.886 2.12309 204.185 2.17305 204.488 2.22477L204.824 0.253231C204.517 0.200777 204.213 0.150064 203.914 0.101093L203.591 2.07487ZM203.656 1.239V2.01412H205.656V1.239H203.656ZM203.656 3.56437V5.11462H205.656V3.56437H203.656ZM203.656 6.66487V7.44H205.656V6.66487H203.656ZM204.891 6.46792C204.588 6.39487 204.288 6.32445 203.991 6.25666L203.546 8.2067C203.835 8.27254 204.127 8.341 204.422 8.41208L204.891 6.46792ZM202.18 5.87056C201.56 5.74764 200.951 5.63702 200.355 5.53876L200.03 7.51219C200.604 7.60677 201.191 7.71349 201.791 7.8324L202.18 5.87056ZM198.513 5.27015C197.88 5.19022 197.262 5.12544 196.657 5.07593L196.494 7.06926C197.068 7.11625 197.657 7.17792 198.263 7.25439L198.513 5.27015ZM194.785 4.97018C194.467 4.96073 194.154 4.956 193.844 4.956V6.956C194.133 6.956 194.427 6.96042 194.726 6.9693L194.785 4.97018ZM193.844 4.956C193.572 4.956 193.312 4.95751 193.063 4.96054L193.087 6.96039C193.327 6.95747 193.579 6.956 193.844 6.956V4.956ZM191.484 5.00812C191.191 5.02377 190.921 5.04314 190.675 5.0665L190.865 7.0575C191.077 7.03728 191.319 7.01978 191.591 7.00529L191.484 5.00812ZM190.671 5.06696C190.459 5.08817 190.245 5.11765 190.03 5.15521L190.374 7.12537C190.543 7.09591 190.708 7.0732 190.87 7.05704L190.671 5.06696ZM188.795 5.45352C188.599 5.51363 188.401 5.5799 188.202 5.65221L188.886 7.53179C189.054 7.47084 189.218 7.41563 189.381 7.36604L188.795 5.45352ZM188.222 5.64535C187.728 5.81355 187.275 6.03948 186.874 6.33083L188.049 7.94893C188.268 7.79024 188.537 7.65091 188.866 7.53865L188.222 5.64535ZM185.205 8.92274C185.101 9.37454 185.053 9.85354 185.053 10.355H187.053C187.053 9.98057 187.089 9.65368 187.154 9.36956L185.205 8.92274ZM185.053 10.355V11.2692H187.053V10.355H185.053ZM185.053 13.0977V14.9262H187.053V13.0977H185.053ZM185.053 16.7547V18.5832H187.053V16.7547H185.053ZM185.053 20.4117V22.2402H187.053V20.4117H185.053ZM185.053 24.0687V24.983H187.053V24.0687H185.053ZM185.053 24.983C185.053 25.3622 185.089 25.7315 185.163 26.0888L187.121 25.6821C187.077 25.47 187.053 25.2377 187.053 24.983H185.053ZM186.176 28.151C186.643 28.6907 187.236 29.1271 187.926 29.4734L188.823 27.6855C188.323 27.4351 187.954 27.1497 187.689 26.8426L186.176 28.151ZM189.84 30.1607C190.429 30.3072 191.067 30.419 191.752 30.4982L191.981 28.5114C191.367 28.4404 190.815 28.3425 190.323 28.2199L189.84 30.1607ZM193.645 30.6325C193.951 30.6422 194.265 30.647 194.586 30.647V28.647C194.285 28.647 193.992 28.6425 193.709 28.6335L193.645 30.6325ZM194.586 30.647C194.878 30.647 195.182 30.64 195.497 30.6263L195.41 28.6282C195.121 28.6408 194.847 28.647 194.586 28.647V30.647ZM197.289 30.489C197.847 30.4302 198.435 30.355 199.052 30.2638L198.76 28.2853C198.167 28.3729 197.607 28.4444 197.079 28.5L197.289 30.489ZM200.796 29.9775C201.351 29.878 201.927 29.7674 202.523 29.6459L202.124 27.6862C201.542 27.8048 200.981 27.9123 200.443 28.0089L200.796 29.9775ZM204.24 29.2788C204.52 29.216 204.805 29.1511 205.094 29.0841L204.642 27.1359C204.358 27.2017 204.079 27.2654 203.804 27.3269L204.24 29.2788ZM203.868 28.11V28.8918H205.868V28.11H203.868ZM203.868 30.4552V32.0187H205.868V30.4552H203.868ZM203.868 33.5822V34.364H205.868V33.5822H203.868ZM204.667 33.3845C204.366 33.4464 204.065 33.5057 203.765 33.5626L204.138 35.5276C204.448 35.4688 204.759 35.4075 205.07 35.3435L204.667 33.3845ZM201.956 33.8761C201.348 33.9714 200.742 34.0563 200.138 34.1308L200.383 36.1157C201.009 36.0386 201.636 35.9506 202.266 35.8519L201.956 33.8761ZM198.314 34.3246C197.702 34.379 197.093 34.4227 196.485 34.4555L196.593 36.4525C197.224 36.4185 197.857 36.3732 198.491 36.3167L198.314 34.3246ZM194.654 34.5217C194.348 34.5272 194.043 34.53 193.738 34.53V36.53C194.055 36.53 194.373 36.5271 194.69 36.5213L194.654 34.5217ZM221.811 21.644L222.226 21.9236L222.68 21.2503L221.874 21.148L221.811 21.644ZM216.829 19.524L217.188 19.1761L216.829 19.524ZM218.26 2.299L218.496 2.74L218.502 2.73679L218.26 2.299ZM243.435 0.602998H243.935V0.102998H243.435V0.602998ZM243.435 35V35.5H243.935V35H243.435ZM235.167 35H234.667V35.5H235.167V35ZM235.167 22.28H235.667V21.78H235.167V22.28ZM230.291 22.28V21.78H230.016L229.869 22.0125L230.291 22.28ZM222.235 35V35.5H222.51L222.658 35.2675L222.235 35ZM212.801 35L212.387 34.7204L211.861 35.5H212.801V35ZM235.167 16.821V17.321H235.667V16.821H235.167ZM235.167 6.486H235.667V5.986H235.167V6.486ZM224.408 7.228L224.671 7.65316L224.677 7.64983L224.408 7.228ZM224.355 16.079L224.055 16.479L224.062 16.4839L224.068 16.4886L224.355 16.079ZM221.397 21.3644L220.834 22.1991L221.663 22.7584L222.226 21.9236L221.397 21.3644ZM219.707 23.8686L218.581 25.5381L219.41 26.0974L220.536 24.4279L219.707 23.8686ZM217.455 27.2076L216.329 28.8771L217.158 29.4364L218.284 27.7669L217.455 27.2076ZM215.202 30.5466L214.076 32.2161L214.905 32.7754L216.031 31.1059L215.202 30.5466ZM212.95 33.8856L212.387 34.7204L213.216 35.2796L213.779 34.4449L212.95 33.8856ZM212.801 35.5H213.98V34.5H212.801V35.5ZM216.339 35.5H218.697V34.5H216.339V35.5ZM221.056 35.5H222.235V34.5H221.056V35.5ZM222.658 35.2675L223.161 34.4725L222.316 33.9375L221.813 34.7325L222.658 35.2675ZM224.168 32.8825L225.175 31.2925L224.33 30.7575L223.323 32.3475L224.168 32.8825ZM226.182 29.7025L227.189 28.1125L226.344 27.5775L225.337 29.1675L226.182 29.7025ZM228.196 26.5225L229.203 24.9325L228.358 24.3975L227.351 25.9875L228.196 26.5225ZM230.21 23.3425L230.714 22.5475L229.869 22.0125L229.365 22.8075L230.21 23.3425ZM230.291 22.78H231.51V21.78H230.291V22.78ZM233.948 22.78H235.167V21.78H233.948V22.78ZM234.667 22.28V23.34H235.667V22.28H234.667ZM234.667 25.46V27.58H235.667V25.46H234.667ZM234.667 29.7V31.82H235.667V29.7H234.667ZM234.667 33.94V35H235.667V33.94H234.667ZM235.167 35.5H236.201V34.5H235.167V35.5ZM238.268 35.5H240.335V34.5H238.268V35.5ZM242.402 35.5H243.435V34.5H242.402V35.5ZM243.935 35V34.0445H242.935V35H243.935ZM243.935 32.1336V30.2226H242.935V32.1336H243.935ZM243.935 28.3117V26.4007H242.935V28.3117H243.935ZM243.935 24.4898V22.5789H242.935V24.4898H243.935ZM243.935 20.6679V18.757H242.935V20.6679H243.935ZM243.935 16.846V14.9351H242.935V16.846H243.935ZM243.935 13.0241V11.1132H242.935V13.0241H243.935ZM243.935 9.20225V7.29131H242.935V9.20225H243.935ZM243.935 5.38036V3.46942H242.935V5.38036H243.935ZM243.935 1.55847V0.602998H242.935V1.55847H243.935ZM243.435 0.102998H242.485V1.103H243.435V0.102998ZM240.583 0.102998H238.682V1.103H240.583V0.102998ZM236.78 0.102998H234.879V1.103H236.78V0.102998ZM232.978 0.102998H231.076V1.103H232.978V0.102998ZM229.175 0.102998H228.224V1.103H229.175V0.102998ZM228.224 0.102998C227.933 0.102998 227.647 0.105246 227.366 0.109746L227.382 1.10962C227.658 1.10521 227.938 1.103 228.224 1.103V0.102998ZM225.647 0.168639C225.049 0.200978 224.476 0.245311 223.928 0.301735L224.031 1.29646C224.561 1.24185 225.117 1.19873 225.701 1.16718L225.647 0.168639ZM222.212 0.53285C221.603 0.636152 221.034 0.758463 220.504 0.90023L220.762 1.86629C221.259 1.73352 221.798 1.61751 222.379 1.51873L222.212 0.53285ZM218.828 1.46858C218.542 1.59051 218.272 1.72129 218.019 1.86121L218.502 2.73679C218.723 2.61452 218.963 2.49831 219.22 2.38845L218.828 1.46858ZM218.025 1.85803C217.753 2.00322 217.497 2.16169 217.256 2.33368L217.837 3.14728C218.041 3.0017 218.26 2.86584 218.496 2.73996L218.025 1.85803ZM215.946 3.6058C215.583 4.09009 215.3 4.62963 215.095 5.22159L216.039 5.54926C216.213 5.05005 216.449 4.60296 216.746 4.20516L215.946 3.6058ZM214.726 6.97886C214.699 7.26553 214.686 7.56062 214.686 7.864H215.686C215.686 7.58945 215.698 7.32518 215.722 7.07103L214.726 6.97886ZM214.686 7.864V8.71862H215.686V7.864H214.686ZM214.686 10.4279V12.1371H215.686V10.4279H214.686ZM214.686 13.8464V14.701H215.686V13.8464H214.686ZM214.686 14.701C214.686 15.1776 214.714 15.6334 214.769 16.0681L215.761 15.9409C215.711 15.5525 215.686 15.1393 215.686 14.701H214.686ZM215.614 18.7279C215.853 19.1478 216.138 19.5295 216.47 19.8719L217.188 19.1761C216.916 18.8953 216.681 18.5813 216.483 18.2331L215.614 18.7279ZM216.47 19.8719C216.811 20.2243 217.201 20.5367 217.636 20.8098L218.168 19.9628C217.796 19.7297 217.47 19.4673 217.188 19.1761L216.47 19.8719ZM220.339 21.8896C220.784 21.9939 221.254 22.0773 221.748 22.14L221.874 21.148C221.411 21.0892 220.976 21.0117 220.568 20.916L220.339 21.8896ZM235.167 16.321H234.313V17.321H235.167V16.321ZM232.603 16.321H230.894V17.321H232.603V16.321ZM229.185 16.321H228.33V17.321H229.185V16.321ZM228.33 16.321C227.975 16.321 227.643 16.3126 227.334 16.2959L227.28 17.2944C227.609 17.3122 227.96 17.321 228.33 17.321V16.321ZM225.425 16.0161C225.079 15.9156 224.823 15.7964 224.642 15.6694L224.068 16.4886C224.365 16.6964 224.73 16.8554 225.145 16.9763L225.425 16.0161ZM224.655 15.679C224.496 15.5597 224.356 15.4044 224.237 15.2057L223.379 15.7198C223.56 16.0203 223.784 16.2758 224.055 16.479L224.655 15.679ZM223.834 13.8321C223.808 13.5951 223.795 13.3373 223.795 13.058H222.795C222.795 13.3684 222.81 13.6626 222.84 13.94L223.834 13.8321ZM223.795 13.058V12.2497H222.795V13.058H223.795ZM223.795 10.6332V9.825H222.795V10.6332H223.795ZM223.795 9.825C223.795 9.58169 223.81 9.35913 223.838 9.15647L222.848 9.01871C222.812 9.27286 222.795 9.54191 222.795 9.825H223.795ZM224.26 8.0254C224.374 7.87598 224.511 7.75253 224.671 7.65313L224.145 6.80286C223.882 6.96595 223.655 7.17134 223.466 7.41711L224.26 8.0254ZM224.677 7.64983C224.881 7.52004 225.143 7.40281 225.473 7.30433L225.187 6.3461C224.791 6.46426 224.439 6.61555 224.14 6.80617L224.677 7.64983ZM227.35 7.01305C227.656 6.99508 227.982 6.986 228.33 6.986V5.986C227.965 5.986 227.619 5.99553 227.292 6.01477L227.35 7.01305ZM228.33 6.986H229.185V5.986H228.33V6.986ZM230.894 6.986H232.603V5.986H230.894V6.986ZM234.313 6.986H235.167V5.986H234.313V6.986ZM234.667 6.486V7.34725H235.667V6.486H234.667ZM234.667 9.06975V10.7922H235.667V9.06975H234.667ZM234.667 12.5147V14.2372H235.667V12.5147H234.667ZM234.667 15.9597V16.821H235.667V15.9597H234.667ZM221.811 21.644L222.64 22.2032L223.549 20.8566L221.937 20.652L221.811 21.644ZM216.829 19.524L217.547 18.8282L216.829 19.524ZM218.26 2.299L218.732 3.18101L218.743 3.17458L218.26 2.299ZM243.435 0.602998H244.435V-0.397002H243.435V0.602998ZM243.435 35V36H244.435V35H243.435ZM235.167 35H234.167V36H235.167V35ZM235.167 22.28H236.167V21.28H235.167V22.28ZM230.291 22.28V21.28H229.741L229.446 21.7449L230.291 22.28ZM222.235 35V36H222.786L223.08 35.5351L222.235 35ZM212.801 35L211.972 34.4408L210.92 36H212.801V35ZM235.167 16.821V17.821H236.167V16.821H235.167ZM235.167 6.486H236.167V5.486H235.167V6.486ZM224.408 7.228L224.935 8.07833L224.945 8.07166L224.408 7.228ZM224.355 16.079L223.755 16.879L223.768 16.8888L223.782 16.8982L224.355 16.079ZM220.982 21.0848L220.419 21.9195L222.077 23.038L222.64 22.2032L220.982 21.0848ZM219.293 23.589L218.167 25.2585L219.825 26.377L220.951 24.7075L219.293 23.589ZM217.04 26.928L215.914 28.5975L217.572 29.716L218.698 28.0465L217.04 26.928ZM214.788 30.267L213.662 31.9365L215.32 33.055L216.446 31.3855L214.788 30.267ZM212.535 33.606L211.972 34.4408L213.63 35.5592L214.193 34.7245L212.535 33.606ZM212.801 36H213.98V34H212.801V36ZM216.339 36H218.697V34H216.339V36ZM221.056 36H222.235V34H221.056V36ZM223.08 35.5351L223.584 34.7401L221.894 33.6699L221.39 34.4649L223.08 35.5351ZM224.591 33.1501L225.598 31.5601L223.908 30.4899L222.901 32.0799L224.591 33.1501ZM226.605 29.9701L227.612 28.3801L225.922 27.3099L224.915 28.8999L226.605 29.9701ZM228.619 26.7901L229.626 25.2001L227.936 24.1299L226.929 25.7199L228.619 26.7901ZM230.633 23.6101L231.136 22.8151L229.446 21.7449L228.943 22.5399L230.633 23.6101ZM230.291 23.28H231.51V21.28H230.291V23.28ZM233.948 23.28H235.167V21.28H233.948V23.28ZM234.167 22.28V23.34H236.167V22.28H234.167ZM234.167 25.46V27.58H236.167V25.46H234.167ZM234.167 29.7V31.82H236.167V29.7H234.167ZM234.167 33.94V35H236.167V33.94H234.167ZM235.167 36H236.201V34H235.167V36ZM238.268 36H240.335V34H238.268V36ZM242.402 36H243.435V34H242.402V36ZM244.435 35V34.0445H242.435V35H244.435ZM244.435 32.1336V30.2226H242.435V32.1336H244.435ZM244.435 28.3117V26.4007H242.435V28.3117H244.435ZM244.435 24.4898V22.5789H242.435V24.4898H244.435ZM244.435 20.6679V18.757H242.435V20.6679H244.435ZM244.435 16.846V14.9351H242.435V16.846H244.435ZM244.435 13.0241V11.1132H242.435V13.0241H244.435ZM244.435 9.20225V7.29131H242.435V9.20225H244.435ZM244.435 5.38036V3.46942H242.435V5.38036H244.435ZM244.435 1.55847V0.602998H242.435V1.55847H244.435ZM243.435 -0.397002H242.485V1.603H243.435V-0.397002ZM240.583 -0.397002H238.682V1.603H240.583V-0.397002ZM236.78 -0.397002H234.879V1.603H236.78V-0.397002ZM232.978 -0.397002H231.076V1.603H232.978V-0.397002ZM229.175 -0.397002H228.224V1.603H229.175V-0.397002ZM228.224 -0.397002C227.931 -0.397002 227.642 -0.394734 227.358 -0.390189L227.39 1.60955C227.663 1.60519 227.941 1.603 228.224 1.603V-0.397002ZM225.62 -0.330633C225.014 -0.297895 224.433 -0.25296 223.877 -0.195628L224.082 1.79382C224.603 1.74012 225.152 1.6976 225.728 1.66646L225.62 -0.330633ZM222.128 0.0399122C221.506 0.145471 220.922 0.270937 220.375 0.417204L220.891 2.34931C221.371 2.22104 221.895 2.1082 222.463 2.01166L222.128 0.0399122ZM218.632 1.00865C218.332 1.13661 218.047 1.27468 217.777 1.42342L218.743 3.17458C218.949 3.06113 219.173 2.95221 219.417 2.84839L218.632 1.00865ZM217.789 1.41707C217.499 1.57191 217.224 1.74168 216.965 1.92689L218.128 3.55408C218.313 3.4217 218.514 3.29715 218.732 3.18093L217.789 1.41707ZM215.546 3.30613C215.151 3.83365 214.844 4.41943 214.622 5.05776L216.512 5.71309C216.669 5.26025 216.881 4.8594 217.147 4.50483L215.546 3.30613ZM214.228 6.93278C214.2 7.2357 214.186 7.54621 214.186 7.864H216.186C216.186 7.60387 216.197 7.35501 216.219 7.11712L214.228 6.93278ZM214.186 7.864V8.71862H216.186V7.864H214.186ZM214.186 10.4279V12.1371H216.186V10.4279H214.186ZM214.186 13.8464V14.701H216.186V13.8464H214.186ZM214.186 14.701C214.186 15.1967 214.215 15.6739 214.273 16.1316L216.257 15.8774C216.21 15.512 216.186 15.1202 216.186 14.701H214.186ZM215.179 18.9753C215.439 19.4311 215.75 19.8467 216.111 20.2198L217.547 18.8282C217.305 18.5781 217.095 18.2981 216.917 17.9857L215.179 18.9753ZM216.111 20.2198C216.482 20.6028 216.903 20.9402 217.37 21.2333L218.433 19.5393C218.094 19.3262 217.8 19.0888 217.547 18.8282L216.111 20.2198ZM220.225 22.3764C220.688 22.4851 221.175 22.5713 221.685 22.636L221.937 20.652C221.489 20.5951 221.071 20.5205 220.682 20.4292L220.225 22.3764ZM235.167 15.821H234.313V17.821H235.167V15.821ZM232.603 15.821H230.894V17.821H232.603V15.821ZM229.185 15.821H228.33V17.821H229.185V15.821ZM228.33 15.821C227.983 15.821 227.66 15.8127 227.361 15.7966L227.253 17.7937C227.593 17.812 227.952 17.821 228.33 17.821V15.821ZM225.564 15.536C225.254 15.4456 225.052 15.3464 224.929 15.2598L223.782 16.8982C224.136 17.1464 224.555 17.3253 225.006 17.4564L225.564 15.536ZM224.955 15.279C224.852 15.2017 224.755 15.0964 224.666 14.9487L222.951 15.9769C223.161 16.3283 223.428 16.6338 223.755 16.879L224.955 15.279ZM224.331 13.7782C224.308 13.5614 224.295 13.3217 224.295 13.058H222.295C222.295 13.384 222.311 13.6964 222.343 13.9939L224.331 13.7782ZM224.295 13.058V12.2497H222.295V13.058H224.295ZM224.295 10.6332V9.825H222.295V10.6332H224.295ZM224.295 9.825C224.295 9.60158 224.309 9.40226 224.333 9.22535L222.352 8.94983C222.313 9.22973 222.295 9.52202 222.295 9.825H224.295ZM224.657 8.32955C224.734 8.22831 224.825 8.14582 224.935 8.07826L223.882 6.37773C223.567 6.57266 223.295 6.81902 223.069 7.11296L224.657 8.32955ZM224.945 8.07166C225.101 7.97228 225.319 7.87208 225.616 7.78345L225.044 5.86699C224.615 5.99499 224.219 6.16331 223.871 6.38434L224.945 8.07166ZM227.38 7.51219C227.674 7.49486 227.991 7.486 228.33 7.486V5.486C227.957 5.486 227.6 5.49575 227.262 5.51564L227.38 7.51219ZM228.33 7.486H229.185V5.486H228.33V7.486ZM230.894 7.486H232.603V5.486H230.894V7.486ZM234.313 7.486H235.167V5.486H234.313V7.486ZM234.167 6.486V7.34725H236.167V6.486H234.167ZM234.167 9.06975V10.7922H236.167V9.06975H234.167ZM234.167 12.5147V14.2372H236.167V12.5147H234.167ZM234.167 15.9597V16.821H236.167V15.9597H234.167Z" fill="#77C2F9" fill-opacity="0.9"/>
</svg>
