<svg width="222" height="26" fill="none" xmlns="http://www.w3.org/2000/svg"><path d="M.45 2.285v-.5h-.5v.5h.5zm20.02 0h.5v-.5h-.5v.5zm0 22.715v.5h.5V25h-.5zm-5.46 0h-.5v.5h.5V25zm0-18.865h.5v-.5h-.5v.5zm-9.1 0v-.5h-.5v.5h.5zM5.91 25v.5h.5V25h-.5zM.45 25h-.5v.5h.5V25zm-.5-22.715v.516h1v-.516h-1zm0 1.549v1.032h1V3.834h-1zm0 2.065V6.93h1V5.9h-1zm0 2.065v1.032h1V7.964h-1zm0 2.065v1.032h1V10.03h-1zm0 2.065v1.032h1v-1.032h-1zm0 2.065v1.032h1V14.16h-1zm0 2.065v1.032h1v-1.032h-1zm0 2.065v1.032h1V18.29h-1zm0 2.065v1.032h1v-1.032h-1zm0 2.065v1.032h1V22.42h-1zm0 2.065V25h1v-.516h-1zm.5 1.016h.455v-1H.45v1zm1.365 0h.91v-1h-.91v1zm1.82 0h.91v-1h-.91v1zm1.82 0h.455v-1h-.455v1zm.955-.5v-.524h-1V25h1zm0-1.572V22.38h-1v1.048h1zm0-2.096v-1.048h-1v1.048h1zm0-2.096v-1.048h-1v1.048h1zm0-2.096v-1.05h-1v1.049h1zm0-2.097v-1.048h-1v1.049h1zm0-2.096V11.9h-1v1.048h1zm0-2.096V9.803h-1v1.048h1zm0-2.096V7.707h-1v1.048h1zm0-2.096v-.524h-1v.524h1zm-.5-.024h.455v-1H5.91v1zm1.365 0h.91v-1h-.91v1zm1.82 0h.91v-1h-.91v1zm1.82 0h.91v-1h-.91v1zm1.82 0h.91v-1h-.91v1zm1.82 0h.455v-1h-.455v1zm-.045-.5v.524h1v-.524h-1zm0 1.572v1.048h1V7.707h-1zm0 2.096v1.048h1V9.803h-1zm0 2.096v1.048h1V11.9h-1zm0 2.096v1.049h1v-1.049h-1zm0 2.097v1.048h1v-1.05h-1zm0 2.096v1.048h1v-1.048h-1zm0 2.096v1.048h1v-1.048h-1zm0 2.096v1.048h1V22.38h-1zm0 2.096V25h1v-.524h-1zm.5 1.024h.455v-1h-.455v1zm1.365 0h.91v-1h-.91v1zm1.82 0h.91v-1h-.91v1zm1.82 0h.455v-1h-.455v1zm.955-.5v-.516h-1V25h1zm0-1.549V22.42h-1v1.032h1zm0-2.065v-1.032h-1v1.032h1zm0-2.065V18.29h-1v1.032h1zm0-2.065v-1.032h-1v1.032h1zm0-2.065V14.16h-1v1.032h1zm0-2.065v-1.032h-1v1.032h1zm0-2.065V10.03h-1v1.032h1zm0-2.065V7.964h-1v1.032h1zm0-2.065V5.9h-1v1.03h1zm0-2.065V3.834h-1v1.032h1zm0-2.065v-.516h-1v.516h1zm-.5-1.016h-.5v1h.5v-1zm-1.502 0h-1v1h1v-1zm-2.002 0h-1v1h1v-1zm-2.002 0h-1v1h1v-1zm-2.002 0h-1v1h1v-1zm-2.002 0h-1v1h1v-1zm-2.002 0h-1v1h1v-1zm-2.002 0h-1v1h1v-1zm-2.002 0h-1v1h1v-1zm-2.001 0H1.952v1h1v-1zm-2.002 0H.45v1h.5v-1zm-.501.5v-1h-1v1h1zm20.02 0h1v-1h-1v1zm0 22.715v1h1v-1h-1zm-5.46 0h-1v1h1v-1zm0-18.865h1v-1h-1v1zm-9.1 0v-1h-1v1h1zM5.91 25v1h1v-1h-1zM.45 25h-1v1h1v-1zm-1-22.715v.516h2v-.516h-2zm0 1.549v1.032h2V3.834h-2zm0 2.065V6.93h2V5.9h-2zm0 2.065v1.032h2V7.964h-2zm0 2.065v1.032h2V10.03h-2zm0 2.065v1.032h2v-1.032h-2zm0 2.065v1.032h2V14.16h-2zm0 2.065v1.032h2v-1.032h-2zm0 2.065v1.032h2V18.29h-2zm0 2.065v1.032h2v-1.032h-2zm0 2.065v1.032h2V22.42h-2zm0 2.065V25h2v-.516h-2zM.45 26h.455v-2H.45v2zm1.365 0h.91v-2h-.91v2zm1.82 0h.91v-2h-.91v2zm1.82 0h.455v-2h-.455v2zm1.455-1v-.524h-2V25h2zm0-1.572V22.38h-2v1.048h2zm0-2.096v-1.048h-2v1.048h2zm0-2.096v-1.048h-2v1.048h2zm0-2.096v-1.05h-2v1.049h2zm0-2.097v-1.048h-2v1.049h2zm0-2.096V11.9h-2v1.048h2zm0-2.096V9.803h-2v1.048h2zm0-2.096V7.707h-2v1.048h2zm0-2.096v-.524h-2v.524h2zm-1 .476h.455v-2H5.91v2zm1.365 0h.91v-2h-.91v2zm1.82 0h.91v-2h-.91v2zm1.82 0h.91v-2h-.91v2zm1.82 0h.91v-2h-.91v2zm1.82 0h.455v-2h-.455v2zm-.545-1v.524h2v-.524h-2zm0 1.572v1.048h2V7.707h-2zm0 2.096v1.048h2V9.803h-2zm0 2.096v1.048h2V11.9h-2zm0 2.096v1.049h2v-1.049h-2zm0 2.097v1.048h2v-1.05h-2zm0 2.096v1.048h2v-1.048h-2zm0 2.096v1.048h2v-1.048h-2zm0 2.096v1.048h2V22.38h-2zm0 2.096V25h2v-.524h-2zm1 1.524h.455v-2h-.455v2zm1.365 0h.91v-2h-.91v2zm1.82 0h.91v-2h-.91v2zm1.82 0h.455v-2h-.455v2zm1.455-1v-.516h-2V25h2zm0-1.549V22.42h-2v1.032h2zm0-2.065v-1.032h-2v1.032h2zm0-2.065V18.29h-2v1.032h2zm0-2.065v-1.032h-2v1.032h2zm0-2.065V14.16h-2v1.032h2zm0-2.065v-1.032h-2v1.032h2zm0-2.065V10.03h-2v1.032h2zm0-2.065V7.964h-2v1.032h2zm0-2.065V5.9h-2v1.03h2zm0-2.065V3.834h-2v1.032h2zm0-2.065v-.516h-2v.516h2zm-1-1.516h-.5v2h.5v-2zm-1.502 0h-1v2h1v-2zm-2.002 0h-1v2h1v-2zm-2.002 0h-1v2h1v-2zm-2.002 0h-1v2h1v-2zm-2.002 0h-1v2h1v-2zm-2.002 0h-1v2h1v-2zm-2.002 0h-1v2h1v-2zm-2.002 0h-1v2h1v-2zm-2.001 0H1.952v2h1v-2zm-2.002 0H.45v2h.5v-2zm26.166 1v-.5h-.5v.5h.5zm14.35.455l-.115.487h.002l.113-.487zm2.835 1.61l-.399.302.006.007.005.006.388-.315zm-.07 10.955l-.395-.307-.005.007.4.3zm-3.045 1.785l-.121-.485h-.002l.123.485zm-8.61.525v-.5h-.5v.5h.5zm0 7.385v.5h.5V25h-.5zm-5.46 0h-.5v.5h.5V25zm11.935-11.62l.244.436.007-.003.006-.004-.257-.429zm.035-6.86l-.2.459.008.003.192-.462zm-6.51-.35v-.5h-.5v.5h.5zm0 7.7h-.5v.5h.5v-.5zm-5.96-11.585v.516h1v-.516h-1zm0 1.549v1.032h1V3.834h-1zm0 2.065V6.93h1V5.9h-1zm0 2.065v1.032h1V7.964h-1zm0 2.065v1.032h1V10.03h-1zm0 2.065v1.032h1v-1.032h-1zm0 2.065v1.032h1V14.16h-1zm0 2.065v1.032h1v-1.032h-1zm0 2.065v1.032h1V18.29h-1zm0 2.065v1.032h1v-1.032h-1zm0 2.065v1.032h1V22.42h-1zm0 2.065V25h1v-.516h-1zm.5 1.016h.455v-1h-.455v1zm1.365 0h.91v-1h-.91v1zm1.82 0h.91v-1h-.91v1zm1.82 0h.455v-1h-.455v1zm.955-.5v-.462h-1V25h1zm0-1.385v-.923h-1v.923h1zm0-1.846v-.923h-1v.923h1zm0-1.846V19h-1v.923h1zm0-1.846v-.462h-1v.462h1zm-.5.038h.376v-1h-.376v1zm1.129 0h.752v-1h-.752v1zm1.505 0h.376v-1h-.376v1zm.376 0c.16 0 .319 0 .475-.002l-.01-1a44.35 44.35 0 01-.465.002v1zm1.426-.023c.329-.011.647-.026.953-.046l-.062-.998c-.297.019-.605.034-.924.045l.034.999zm1.908-.122c.333-.033.652-.072.956-.116l-.145-.99c-.287.043-.59.08-.91.11l.099.996zm1.912-.285c.164-.034.323-.071.477-.11l-.246-.97c-.14.036-.286.07-.438.102l.207.978zm.475-.11a9.3 9.3 0 00.459-.127l-.292-.956c-.132.04-.268.078-.41.113l.243.97zm1.36-.463c.31-.14.598-.297.862-.474l-.558-.83c-.212.142-.45.274-.714.392l.41.912zm1.634-1.118c.118-.124.228-.253.33-.389l-.8-.6a3.213 3.213 0 01-.252.296l.722.693zm.325-.382a4.38 4.38 0 00.295-.432l-.858-.514c-.07.117-.146.228-.227.332l.79.614zm.725-1.366a6.15 6.15 0 00.244-.975l-.985-.168a5.31 5.31 0 01-.205.82l.946.323zm.348-1.954c.008-.16.012-.321.012-.487h-1c0 .15-.004.296-.01.438l.998.049zm.012-.487v-.538h-1v.538h1zm0-1.614V9.114h-1v1.077h1zm0-2.153V7.5h-1v.538h1zm0-.538c0-.15-.004-.298-.01-.443l-1 .05c.007.127.01.258.01.393h1zm-.108-1.335a5.517 5.517 0 00-.23-.888l-.942.333c.078.222.14.464.187.728l.985-.173zm-.635-1.74a3.842 3.842 0 00-.279-.39l-.776.63c.074.09.142.187.206.29l.849-.53zm-.269-.377a3.826 3.826 0 00-.311-.362l-.716.698c.083.086.16.175.23.268l.797-.604zm-1.04-.956a5.371 5.371 0 00-.809-.43l-.395.918c.243.105.462.222.658.35l.546-.838zm-1.652-.728a8.647 8.647 0 00-.428-.111l-.226.974c.13.03.256.063.378.098l.276-.961zm-.426-.11a11.757 11.757 0 00-.449-.097l-.192.981c.143.028.28.058.411.089l.23-.974zm-1.347-.244a20.868 20.868 0 00-.896-.1l-.09.996c.3.027.584.059.853.095l.133-.99zm-1.79-.166c-.287-.017-.584-.03-.892-.04l-.031 1c.3.01.588.022.866.038l.057-.998zm-1.783-.057a47.142 47.142 0 00-.445-.002v1c.147 0 .293 0 .436.002l.009-1zm-.445-.002h-.455v1h.455v-1zm-1.365 0h-.91v1h.91v-1zm-1.82 0h-.91v1h.91v-1zm-1.82 0h-.91v1h.91v-1zm-1.82 0h-.91v1h.91v-1zm-1.82 0h-.455v1h.455v-1zm8.47 11.585h-.433v1h.433v-1zm-1.3 0h-.866v1h.867v-1zm-1.732 0h-.433v1h.433v-1zm.067.5v-.481h-1v.481h1zm0-1.444v-.962h-1v.962h1zm0-1.925V9.54h-1v.962h1zm0-1.925v-.962h-1v.962h1zm0-1.925V6.17h-1v.481h1zm-.5.019h.424v-1h-.424v1zm1.273 0h.849v-1h-.849v1zm1.698 0h.424v-1h-.424v1zm.424 0c.133 0 .262 0 .387.003l.014-1a28.36 28.36 0 00-.401-.003v1zm1.155.027c.28.015.53.035.754.06l.115-.992a13.06 13.06 0 00-.817-.067l-.052.999zm1.463.184c.125.032.223.065.298.098l.398-.918a2.99 2.99 0 00-.448-.15l-.248.97zm.305.1c.1.042.18.093.242.149l.666-.747a1.85 1.85 0 00-.524-.325l-.384.924zm.501.653c.02.103.031.22.031.356h1c0-.189-.015-.37-.048-.544l-.983.188zm.031.356v.455h1V7.99h-1zm0 1.365v.91h1v-.91h-1zm0 1.82v.455h1v-.455h-1zm0 .455c0 .156-.012.296-.035.422l.983.179c.035-.192.052-.393.052-.601h-1zm-.347 1.09a1.26 1.26 0 01-.285.231l.514.858c.192-.115.363-.253.51-.414l-.739-.675zm-.272.224a1.927 1.927 0 01-.278.125l.344.939c.151-.056.292-.119.422-.192l-.488-.872zm-.938.295a7.71 7.71 0 01-.716.09l.082.996c.29-.023.56-.057.81-.102l-.176-.984zm-1.454.127c-.121.003-.246.004-.374.004v1c.135 0 .267-.001.396-.004l-.023-1zM27.117 2.285v-1h-1v1h1zm14.35.455l-.23.973.004.001.226-.974zm2.835 1.61l-.797.604.01.013.01.014.777-.631zm-.07 10.955l-.79-.614-.005.007-.005.007.8.6zm-3.045 1.785l-.242-.97h-.004l.246.97zm-8.61.525v-1h-1v1h1zm0 7.385v1h1v-1h-1zm-5.46 0h-1v1h1v-1zm11.935-11.62l.489.872.013-.007.012-.007-.514-.858zm.035-6.86l-.399.917.007.003.007.003.385-.923zm-6.51-.35v-1h-1v1h1zm0 7.7h-1v1h1v-1zm-6.46-11.585v.516h2v-.516h-2zm0 1.549v1.032h2V3.834h-2zm0 2.065V6.93h2V5.9h-2zm0 2.065v1.032h2V7.964h-2zm0 2.065v1.032h2V10.03h-2zm0 2.065v1.032h2v-1.032h-2zm0 2.065v1.032h2V14.16h-2zm0 2.065v1.032h2v-1.032h-2zm0 2.065v1.032h2V18.29h-2zm0 2.065v1.032h2v-1.032h-2zm0 2.065v1.032h2V22.42h-2zm0 2.065V25h2v-.516h-2zm1 1.516h.455v-2h-.455v2zm1.365 0h.91v-2h-.91v2zm1.82 0h.91v-2h-.91v2zm1.82 0h.455v-2h-.455v2zm1.455-1v-.462h-2V25h2zm0-1.385v-.923h-2v.923h2zm0-1.846v-.923h-2v.923h2zm0-1.846V19h-2v.923h2zm0-1.846v-.462h-2v.462h2zm-1 .538h.376v-2h-.376v2zm1.129 0h.752v-2h-.752v2zm1.505 0h.376v-2h-.376v2zm.376 0c.162 0 .322 0 .48-.002l-.02-2-.46.002v2zm1.443-.023c.333-.012.656-.027.968-.047l-.125-1.996a30.39 30.39 0 01-.91.044l.067 1.999zm1.94-.124c.34-.034.667-.073.979-.12l-.289-1.978c-.279.04-.574.076-.887.107l.197 1.99zm1.966-.294c.17-.035.337-.074.497-.115l-.492-1.938c-.133.034-.272.066-.418.097l.413 1.956zm.493-.114a9.76 9.76 0 00.484-.134l-.584-1.912a7.788 7.788 0 01-.385.106l.485 1.94zm1.445-.492c.333-.15.645-.321.934-.515l-1.114-1.66a4.45 4.45 0 01-.64.351l.82 1.824zm1.788-1.228c.133-.138.256-.283.37-.435l-1.6-1.2c-.065.086-.136.17-.213.25l1.443 1.385zm.36-.421a5.05 5.05 0 00.329-.482l-1.716-1.028c-.06.1-.124.194-.192.282l1.578 1.228zm.803-1.51a6.77 6.77 0 00.264-1.054l-1.971-.336a4.747 4.747 0 01-.185.741l1.892.648zm.375-2.093c.008-.167.012-.338.012-.511h-2c0 .143-.003.28-.01.414l1.998.097zm.012-.511v-.538h-2v.538h2zm0-1.614V9.114h-2v1.077h2zm0-2.153V7.5h-2v.538h2zm0-.538c0-.158-.004-.314-.011-.468l-1.998.1c.006.118.009.241.009.368h2zm-.115-1.42a6.01 6.01 0 00-.251-.97l-1.886.667c.069.193.125.408.166.647l1.97-.345zm-.704-1.919a4.33 4.33 0 00-.315-.442l-1.552 1.262c.06.074.117.153.17.238l1.697-1.058zm-.294-.415a4.326 4.326 0 00-.352-.41l-1.432 1.397c.07.071.132.145.19.22l1.594-1.207zm-1.166-1.073a5.871 5.871 0 00-.884-.47l-.791 1.837c.22.095.414.198.583.309l1.092-1.676zm-1.788-.79a9.094 9.094 0 00-.452-.117l-.452 1.948c.122.029.24.059.353.091l.551-1.922zm-.448-.116a9.594 9.594 0 00-.468-.1l-.384 1.962c.137.027.267.055.392.084l.46-1.946zm-1.395-.252c-.292-.04-.598-.074-.917-.103l-.181 1.992c.293.026.57.057.831.093l.267-1.982zm-1.828-.17c-.292-.017-.594-.03-.906-.04l-.062 2c.295.008.58.02.853.037l.115-1.997zm-1.807-.058a47.856 47.856 0 00-.45-.002v2c.146 0 .29 0 .43.002l.02-2zm-.45-.002h-.455v2h.455v-2zm-1.365 0h-.91v2h.91v-2zm-1.82 0h-.91v2h.91v-2zm-1.82 0h-.91v2h.91v-2zm-1.82 0h-.91v2h.91v-2zm-1.82 0h-.455v2h.455v-2zm8.47 11.585h-.433v2h.433v-2zm-1.3 0h-.866v2h.867v-2zm-1.732 0h-.433v2h.433v-2zm.567 1v-.481h-2v.481h2zm0-1.444v-.962h-2v.962h2zm0-1.925V9.54h-2v.962h2zm0-1.925v-.962h-2v.962h2zm0-1.925V6.17h-2v.481h2zm-1 .519h.424v-2h-.424v2zm1.273 0h.849v-2h-.849v2zm1.698 0h.424v-2h-.424v2zm.424 0c.13 0 .257 0 .38.003l.028-2a28.945 28.945 0 00-.408-.003v2zm1.129.026c.271.015.512.034.722.059l.23-1.987a13.69 13.69 0 00-.848-.069l-.104 1.997zm1.365.17c.106.026.178.052.222.071l.798-1.834a3.484 3.484 0 00-.524-.175l-.496 1.937zm.236.077a.356.356 0 01.103.06l1.33-1.493a2.35 2.35 0 00-.663-.413l-.77 1.846zm.203.285a1.4 1.4 0 01.022.262h2c0-.216-.017-.43-.057-.638l-1.965.376zm.022.262v.455h2V7.99h-2zm0 1.365v.91h2v-.91h-2zm0 1.82v.455h2v-.455h-2zm0 .455c0 .13-.01.24-.027.332l1.967.359c.041-.225.06-.456.06-.691h-2zm-.216.753a.762.762 0 01-.173.14l1.029 1.715c.23-.139.44-.307.621-.506l-1.477-1.348zm-.148.125c-.05.028-.117.06-.205.092l.689 1.877c.171-.063.337-.137.494-.225l-.978-1.745zm-.78.239a7.232 7.232 0 01-.67.084l.164 1.993c.304-.025.59-.06.856-.108l-.35-1.97zm-1.379.119c-.117.003-.237.004-.362.004v2c.139 0 .275-.002.407-.004l-.045-2zm21.161 12.239l-.076.494h.001l.075-.494zm-3.29-.84l.164-.472-.003-.001-.16.473zm-2.905-2.03l-.403.295.003.005.4-.3zM51.055 5.82l-.432-.25-.005.008.437.242zm1.96-2.1l-.267-.422-.004.002.271.42zm2.59-1.12l.142.48-.142-.48zm2.87-.56l.04.498h.003l-.043-.498zm5.39.035l-.058.497h.007l.007.001.044-.498zm2.66.49l.14-.48-.013-.004-.127.484zm2.765 1.19l.271-.42-.27.42zm1.82 1.96l-.431.252.002.004.43-.256zm-.245 16.31l-.4-.298-.006.006.406.292zm-2.73 2.065l-.185-.464.185.464zm-5.075-2.695l.046.498h.01l.009-.002-.065-.496zm1.645-.35l-.14-.48.14.48zm1.26-.805l-.397-.304-.003.004.4.3zm-.84-13.72l-.237.44.009.005.228-.445zm-8.05-.035l-.228-.445.228.445zm-.84 13.755l-.397.304.005.006.004.005.388-.315zm1.33.805l.14-.48-.005-.002-.135.482zm1.61.35l-.067.495.012.002.012.001.043-.498zm1.89 3.455a30.5 30.5 0 01-.43-.003l-.016 1c.147.002.296.003.446.003v-1zm-1.292-.03a22.808 22.808 0 01-.857-.058l-.086.996c.292.025.59.045.894.06l.05-.999zm-1.71-.15a18.767 18.767 0 01-.422-.06l-.15.99c.146.022.295.043.445.062l.128-.992zm-.42-.06c-.135-.02-.27-.043-.407-.068l-.18.984c.145.026.29.05.433.073l.153-.988zm-1.215-.236a19.33 19.33 0 01-.801-.207l-.271.962c.284.08.566.153.844.218l.228-.973zm-1.595-.449c-.13-.042-.262-.087-.394-.132l-.328.944c.138.048.276.094.412.139l.31-.95zm-.397-.133a6.933 6.933 0 01-.393-.147l-.378.925c.146.06.296.116.45.168l.321-.946zm-1.14-.512a5.302 5.302 0 01-.677-.465l-.629.778c.251.203.52.387.805.552l.502-.865zm-1.267-1.028a4.95 4.95 0 01-.259-.317l-.8.6c.099.131.202.258.31.38l.749-.663zm-.255-.312a4.68 4.68 0 01-.23-.347l-.857.517c.087.144.18.284.28.42l.807-.59zm-.596-1.094a5.116 5.116 0 01-.234-.804l-.98.201c.069.333.162.654.28.962l.934-.359zm-.345-1.646a6.936 6.936 0 01-.013-.43h-1c0 .166.005.33.015.491l.998-.061zm-.013-.43v-.497h-1v.497h1zm0-1.491v-.994h-1v.994h1zm0-1.988v-.994h-1v.994h1zm0-1.988v-.994h-1v.994h1zm0-1.988v-.994h-1v.994h1zm0-1.988V8.83h-1v.497h1zm0-.497c0-.123.004-.245.01-.365l-.999-.053a7.9 7.9 0 00-.01.418h1zm.09-1.085a5.55 5.55 0 01.165-.699l-.956-.294a6.562 6.562 0 00-.195.824l.985.169zm.421-1.365a5.14 5.14 0 01.162-.318l-.875-.484a6.185 6.185 0 00-.193.38l.906.422zm.157-.31c.115-.198.237-.386.366-.563l-.808-.59a7.4 7.4 0 00-.423.652l.865.502zm1.268-1.537a5.22 5.22 0 01.531-.393l-.543-.84c-.221.143-.432.3-.633.47l.645.763zm.527-.39c.179-.114.37-.223.575-.328l-.456-.89a8.3 8.3 0 00-.654.373l.535.844zm1.815-.854c.207-.073.424-.143.649-.21l-.283-.959c-.24.072-.474.147-.698.226l.332.943zm.649-.21c.233-.068.462-.13.686-.187l-.243-.97c-.238.06-.48.126-.726.198l.283.96zm2.072-.463c.237-.034.47-.06.696-.078l-.079-.996c-.249.02-.502.047-.76.084l.143.99zm.7-.078c.207-.018.419-.033.634-.046l-.062-.999c-.223.014-.442.03-.658.049l.085.996zm1.908-.097c.21-.004.423-.006.638-.006v-1c-.221 0-.44.002-.657.006l.019 1zm.638-.006c.238 0 .468.002.691.007l.021-1a34.4 34.4 0 00-.712-.007v1zm2.064.071c.238.019.463.04.678.066l.117-.994c-.23-.027-.468-.05-.718-.069l-.077.997zm.692.067c.208.018.423.043.646.075l.142-.99c-.24-.034-.473-.061-.7-.081l-.088.996zm1.936.318c.208.048.422.1.642.158l.253-.968c-.229-.06-.453-.115-.673-.165l-.222.975zm.628.154c.12.035.236.07.35.107l.303-.954a16.475 16.475 0 00-.373-.113l-.28.96zm1.037.345c.235.09.456.182.665.278l.419-.908a11.43 11.43 0 00-.729-.305l-.355.935zm1.297.603c.105.06.205.12.3.182l.542-.84a7.632 7.632 0 00-.345-.21l-.497.868zm.3.182c.17.11.333.23.488.363l.649-.761a5.606 5.606 0 00-.595-.442l-.542.84zm1.319 1.268c.119.164.232.339.34.524l.864-.504a7.256 7.256 0 00-.395-.607l-.81.587zm.343.528c.061.104.12.21.173.32l.898-.438a5.415 5.415 0 00-.212-.394l-.86.512zm.442 1.003c.07.23.127.471.17.724l.986-.163a6.49 6.49 0 00-.2-.856l-.956.295zm.248 1.475c.006.124.01.251.01.381h1a8.6 8.6 0 00-.011-.43l-.999.049zm.01.381v.497h1V8.83h-1zm0 1.491v.994h1v-.994h-1zm0 1.988v.994h1v-.994h-1zm0 1.988v.994h1v-.994h-1zm0 1.988v.994h1v-.994h-1zm0 1.988v.497h1v-.497h-1zm0 .497a6.2 6.2 0 01-.013.401l.998.065c.01-.153.014-.309.014-.466h-1zm-.121 1.188a4.698 4.698 0 01-.227.75l.93.369a5.7 5.7 0 00.275-.91l-.978-.21zm-.576 1.445c-.068.11-.142.218-.22.324l.803.596a5.68 5.68 0 00.267-.394l-.85-.526zm-.225.33a5.293 5.293 0 01-.242.312l.764.645a6.04 6.04 0 00.29-.373l-.812-.584zm-.797.873c-.196.17-.409.328-.637.473l.538.843c.268-.17.52-.357.754-.56l-.655-.756zm-1.34.859c-.12.056-.245.11-.372.16l.371.93c.145-.059.286-.12.425-.185l-.425-.905zm-.372.16a15.24 15.24 0 01-.409.157l.345.939c.146-.054.291-.11.435-.167l-.371-.928zm-1.238.436a16.6 16.6 0 01-.845.234l.241.97c.303-.075.602-.157.896-.247l-.292-.957zm-1.702.425c-.285.055-.574.105-.867.148l.146.99c.308-.046.613-.098.913-.157l-.192-.981zm-1.74.256c-.29.03-.583.053-.88.07l.059.998c.31-.018.617-.042.921-.073l-.1-.995zm-1.762.104c-.147.003-.294.004-.443.004v1c.155 0 .309-.001.461-.004l-.018-1zm-.373-3.881c-.167 0-.328-.001-.483-.003l-.014 1c.16.002.326.003.497.003v-1zm-1.443-.035a15.27 15.27 0 01-.473-.033l-.087.996c.16.014.328.026.505.036l.055-.999zm-.45-.03a9.197 9.197 0 01-.385-.062l-.177.985c.144.026.287.048.428.067l.135-.99zm-1.155-.23a12.318 12.318 0 01-.382-.105l-.28.96c.14.04.277.078.414.113l.248-.968zm-.387-.107a3.012 3.012 0 01-.32-.108l-.376.927c.136.055.278.103.427.144l.27-.962zm-.867-.427a1.535 1.535 0 01-.21-.211l-.776.63c.103.127.219.243.345.35l.641-.769zm-.2-.2a1.581 1.581 0 01-.158-.252l-.894.449c.073.145.159.282.257.41l.794-.607zm-.332-.84a2.534 2.534 0 01-.02-.326h-1c0 .155.009.307.028.456l.992-.13zm-.02-.326v-.499h-1v.499h1zm0-1.496v-.998h-1v.998h1zm0-1.995v-.998h-1v.998h1zm0-1.995v-.998h-1v.998h1zm0-1.995v-.998h-1v.998h1zm0-1.995v-.499h-1v.499h1zm0-.499c0-.22.019-.417.056-.595l-.98-.203c-.052.253-.077.52-.077.798h1zm.565-1.547c.126-.119.277-.225.458-.318l-.457-.89a2.974 2.974 0 00-.688.481l.687.727zm.458-.318c.123-.063.26-.123.413-.178l-.34-.94a4.521 4.521 0 00-.53.228l.457.89zm1.328-.419c.294-.055.618-.099.972-.13l-.09-.996c-.38.034-.736.081-1.066.143l.184.983zm1.967-.185c.162-.004.33-.006.501-.006v-1c-.18 0-.355.002-.526.006l.025 1zm.501-.006c.172 0 .34.002.503.006l.026-1a20.206 20.206 0 00-.529-.006v1zm1.498.064c.354.033.677.08.97.137l.194-.98a10.693 10.693 0 00-1.07-.153l-.094.996zm1.88.39c.152.058.288.12.41.186l.475-.88a4.416 4.416 0 00-.528-.24l-.356.934zm.419.19c.18.093.33.198.456.315l.68-.732a3.017 3.017 0 00-.68-.472l-.456.89zm.966 1.247c.037.174.057.369.057.584h1c0-.277-.025-.541-.079-.793l-.978.209zm.057.584v.499h1v-.499h-1zm0 1.496v.998h1v-.998h-1zm0 1.995v.998h1v-.998h-1zm0 1.995v.998h1v-.998h-1zm0 1.995v.998h1v-.998h-1zm0 1.995v.499h1v-.499h-1zm0 .499c0 .115-.007.224-.02.326l.992.13c.019-.149.028-.3.028-.456h-1zm-.194.914a1.581 1.581 0 01-.158.252l.794.608c.1-.13.185-.266.258-.411l-.894-.449zm-.16.256a1.403 1.403 0 01-.19.206l.664.747c.12-.107.23-.225.325-.353l-.8-.6zm-.698.518c-.092.04-.193.075-.303.107l.28.96a3.75 3.75 0 00.414-.147l-.39-.92zm-.303.107c-.13.038-.26.073-.389.106l.246.97c.14-.036.282-.075.423-.116l-.28-.96zm-1.174.274a9.586 9.586 0 01-.395.06l.129.992c.145-.02.29-.041.437-.066l-.17-.986zm-.376.058c-.143.013-.297.024-.463.034l.056.998c.176-.01.342-.022.498-.036l-.09-.996zm-1.405.065c-.152.002-.31.003-.475.003v1c.17 0 .332-.001.49-.003l-.015-1zm-4.045 4.143l-.153.988h.003l.15-.988zm-3.29-.84l.328-.945-.006-.002-.322.947zm-2.905-2.03l-.807.59.007.01.8-.6zM51.055 5.82l-.865-.501-.005.009-.005.008.875.484zm1.96-2.1l-.535-.845-.008.005.543.84zm2.59-1.12l.284.959-.284-.959zm2.87-.56l.08.997h.006l-.086-.997zm5.39.035l-.117.993.015.002.015.001.087-.996zm2.66.49l.28-.96-.013-.004-.013-.003-.254.967zm2.765 1.19l.542-.84-.542.84zm1.82 1.96l-.864.504.005.007.86-.511zm-.245 16.31l-.802-.597-.005.007-.005.007.812.583zm-2.73 2.065l-.371-.928.371.928zm-5.075-2.695l.09.996.02-.002.02-.002-.13-.992zm1.645-.35l-.28-.96.28.96zm1.26-.805l-.794-.607-.006.007.8.6zm-.84-13.72l-.475.88.01.005.008.005.457-.89zm-8.05-.035l-.457-.89.457.89zm-.84 13.755l-.794.608.009.011.01.012.775-.631zm1.33.805l.28-.96-.01-.003-.27.963zm1.61.35l-.135.99.024.004.025.002.086-.996zm1.89 2.955a28.2 28.2 0 01-.423-.003l-.031 2c.15.002.302.003.454.003v-2zm-1.267-.03a22.604 22.604 0 01-.839-.057l-.172 1.993c.299.026.603.046.913.061l.098-1.997zm-1.67-.146c-.14-.018-.277-.037-.412-.058l-.301 1.978c.15.023.303.044.457.064l.256-1.984zm-.409-.057c-.13-.02-.26-.043-.393-.067l-.36 1.968c.15.027.298.052.446.075l.307-1.976zm-1.177-.23a17.98 17.98 0 01-.78-.202l-.542 1.925c.291.082.58.157.866.224l.456-1.947zm-1.554-.437a21.808 21.808 0 01-.385-.13l-.655 1.89c.14.049.28.096.42.141l.62-1.901zm-.391-.132a6.386 6.386 0 01-.365-.136l-.757 1.851c.157.064.316.124.479.179l.643-1.894zm-1.05-.47a4.793 4.793 0 01-.613-.421l-1.258 1.555c.271.22.561.418.869.596l1.002-1.73zm-1.144-.928a4.462 4.462 0 01-.233-.285l-1.6 1.2c.107.142.22.28.337.412l1.496-1.327zm-.226-.276a4.192 4.192 0 01-.206-.31L50.26 22.37c.095.156.196.309.304.457l1.614-1.181zm-.532-.977a4.622 4.622 0 01-.212-.726l-1.959.403c.074.359.175.706.304 1.04l1.867-.717zm-.313-1.498a6.475 6.475 0 01-.012-.399h-2c0 .176.006.35.016.522l1.996-.123zm-.012-.399v-.497h-2v.497h2zm0-1.491v-.994h-2v.994h2zm0-1.988v-.994h-2v.994h2zm0-1.988v-.994h-2v.994h2zm0-1.988v-.994h-2v.994h2zm0-1.988V8.83h-2v.497h2zm0-.497c0-.115.003-.228.01-.339l-1.998-.105a8.375 8.375 0 00-.012.444h2zm.082-1a5.07 5.07 0 01.151-.636l-1.911-.589a7.059 7.059 0 00-.211.887l1.971.337zm.383-1.239a4.64 4.64 0 01.146-.287l-1.75-.968a6.68 6.68 0 00-.21.41l1.814.845zm.136-.27a6.2 6.2 0 01.337-.52l-1.616-1.178a7.893 7.893 0 00-.452.696l1.73 1.002zm1.157-1.406c.153-.128.313-.247.48-.355l-1.086-1.68a6.707 6.707 0 00-.684.507l1.29 1.528zm.472-.35c.166-.105.344-.207.536-.305l-.912-1.78a8.777 8.777 0 00-.694.395l1.07 1.69zm1.714-.804c.199-.07.407-.138.625-.202l-.567-1.918c-.248.073-.489.15-.722.233l.664 1.887zm.625-.202c.226-.067.448-.128.666-.182l-.486-1.94a18.5 18.5 0 00-.747.204l.567 1.918zm2-.448c.228-.032.45-.057.665-.074l-.157-1.994c-.26.02-.524.05-.791.088l.284 1.98zm.672-.075c.204-.017.411-.032.622-.045L59.06.994c-.226.014-.45.03-.67.05l.17 1.992zm1.875-.095c.207-.004.417-.006.63-.006v-2c-.226 0-.448.002-.668.006l.038 2zm.63-.006c.234 0 .46.002.68.007l.041-2a34.863 34.863 0 00-.722-.007v2zm2.024.07c.232.018.451.039.658.063l.234-1.986a18.507 18.507 0 00-.738-.071l-.154 1.994zm.688.066c.197.018.403.042.618.072l.284-1.98c-.248-.035-.49-.063-.727-.084l-.175 1.992zm1.867.308c.204.046.413.097.627.153l.507-1.934a22.291 22.291 0 00-.689-.17l-.445 1.95zm.6.146c.116.034.229.068.339.103l.605-1.906c-.125-.04-.253-.079-.384-.117l-.56 1.92zm1 .333c.224.085.435.173.632.264l.838-1.816a11.932 11.932 0 00-.76-.318l-.71 1.87zm1.226.569c.097.055.19.112.277.168l1.084-1.68a8.178 8.178 0 00-.367-.224l-.994 1.736zm.277.168c.151.098.296.205.435.324l1.297-1.523a6.11 6.11 0 00-.648-.481l-1.084 1.68zm1.185 1.142c.109.15.213.31.314.482l1.727-1.008a7.763 7.763 0 00-.422-.649l-1.619 1.175zm.318.49c.055.091.106.186.154.284l1.797-.878a5.957 5.957 0 00-.232-.43l-1.72 1.023zm.394.895c.064.207.115.426.154.658l1.973-.326a6.977 6.977 0 00-.216-.922l-1.91.59zm.227 1.352c.005.116.008.234.008.356h2c0-.154-.003-.305-.01-.456l-1.998.1zm.008.356v.497h2V8.83h-2zm0 1.491v.994h2v-.994h-2zm0 1.988v.994h2v-.994h-2zm0 1.988v.994h2v-.994h-2zm0 1.988v.994h2v-.994h-2zm0 1.988v.497h2v-.497h-2zm0 .497c0 .126-.004.249-.011.369l1.996.13c.01-.165.015-.331.015-.499h-2zm-.109 1.082c-.05.236-.118.459-.202.67l1.858.74c.127-.32.226-.65.3-.99l-1.956-.42zm-.513 1.289c-.06.098-.125.193-.195.287l1.605 1.194c.103-.14.2-.283.292-.43l-1.702-1.051zm-.205.3a5.01 5.01 0 01-.218.281l1.528 1.29c.11-.13.215-.265.315-.404l-1.625-1.166zm-.718.787a4.93 4.93 0 01-.579.43l1.075 1.686a6.88 6.88 0 00.813-.604l-1.31-1.512zm-1.226.784a6.508 6.508 0 01-.345.15l.743 1.857a8.47 8.47 0 00.45-.196l-.848-1.811zm-.345.15c-.13.052-.262.102-.395.151l.69 1.877c.15-.055.3-.112.448-.172l-.743-1.857zm-1.199.421a14.9 14.9 0 01-.819.227l.483 1.941c.311-.078.619-.163.921-.255l-.585-1.913zm-1.651.412c-.277.054-.558.102-.843.144l.29 1.98c.316-.047.629-.1.937-.161l-.384-1.963zm-1.695.25c-.282.028-.568.05-.858.068l.117 1.996c.317-.018.632-.043.942-.075l-.2-1.99zm-1.72.1a15.61 15.61 0 01-.434.005v2c.158 0 .315-.002.47-.004l-.037-2zm-.364-3.88c-.164 0-.323-.001-.476-.003l-.028 2c.163.002.33.003.504.003v-2zm-1.415-.034c-.164-.01-.316-.02-.458-.032l-.173 1.992c.165.015.339.027.52.037l.11-1.997zm-.41-.027a8.802 8.802 0 01-.365-.058l-.354 1.969c.151.027.3.05.45.07l.27-1.98zm-1.098-.218c-.12-.031-.243-.065-.367-.101l-.56 1.92c.144.042.287.081.43.118l.497-1.937zm-.377-.104a2.515 2.515 0 01-.268-.09l-.751 1.853c.155.063.315.117.48.163l.539-1.926zm-.682-.33a1.034 1.034 0 01-.142-.143l-1.552 1.262c.124.152.262.291.413.417l1.281-1.535zm-.123-.12a1.083 1.083 0 01-.108-.172l-1.788.897c.087.173.19.337.307.49l1.589-1.215zm-.233-.6a2.02 2.02 0 01-.017-.262h-2c0 .175.01.35.033.52l1.983-.258zm-.017-.262v-.499h-2v.499h2zm0-1.496v-.998h-2v.998h2zm0-1.995v-.998h-2v.998h2zm0-1.995v-.998h-2v.998h2zm0-1.995v-.998h-2v.998h2zm0-1.995v-.499h-2v.499h2zm0-.499c0-.19.017-.353.046-.494l-1.958-.405c-.06.29-.088.59-.088.899h2zm.409-1.183c.089-.084.2-.164.343-.237l-.913-1.78a3.475 3.475 0 00-.803.563l1.373 1.454zm.343-.237a3.03 3.03 0 01.355-.153l-.68-1.88a5.024 5.024 0 00-.589.253l.914 1.78zm1.192-.373a9.73 9.73 0 01.924-.123l-.178-1.992c-.394.035-.766.084-1.114.15l.368 1.965zm1.887-.176c.158-.004.321-.006.49-.006v-2c-.184 0-.364.002-.54.007l.05 1.999zm.49-.006c.167 0 .33.002.489.006l.052-2a20.71 20.71 0 00-.542-.006v2zm1.45.062c.34.032.645.076.92.13l.388-1.962c-.35-.07-.724-.122-1.12-.16l-.188 1.992zm1.75.36c.133.05.248.103.349.158l.95-1.76a4.902 4.902 0 00-.587-.267L64.3 7.242zm.367.168c.143.073.256.153.345.235l1.361-1.464a3.516 3.516 0 00-.792-.55L64.67 7.41zm.706.905c.03.136.046.295.046.48h2a4.3 4.3 0 00-.09-.897l-1.956.417zm.046.48v.499h2v-.499h-2zm0 1.496v.998h2v-.998h-2zm0 1.995v.998h2v-.998h-2zm0 1.995v.998h2v-.998h-2zm0 1.995v.998h2v-.998h-2zm0 1.995v.499h2v-.499h-2zm0 .499c0 .095-.005.182-.016.262l1.984.258a4.02 4.02 0 00.032-.52h-2zm-.14.69c-.031.06-.067.118-.109.172l1.589 1.215c.117-.153.22-.317.307-.49l-1.788-.897zm-.115.18a.904.904 0 01-.122.133l1.33 1.493c.145-.129.276-.27.392-.426l-1.6-1.2zm-.492.358a2.25 2.25 0 01-.248.087l.56 1.92c.162-.047.318-.102.47-.166l-.782-1.841zm-.248.087c-.125.036-.249.07-.372.101l.492 1.939c.147-.037.293-.077.44-.12l-.56-1.92zm-1.12.261c-.125.022-.25.041-.374.057l.259 1.984c.152-.02.304-.043.457-.07l-.341-1.97zm-.335.053c-.137.012-.285.023-.446.032l.112 1.997c.181-.01.353-.022.515-.037l-.181-1.992zm-1.367.063c-.15.002-.305.003-.468.003v2c.171 0 .337-.001.496-.003l-.028-2zm24.821 1.913h.5v-.5h-.5v.5zM80.02 20.8l-.264.425.004.002.26-.427zm.035-15.54l.262.426.004-.002-.266-.424zm6.37-1.645v.5h.5v-.5h-.5zm0-2.905v-.5h-.5v.5h.5zm5.39 0h.5v-.5h-.5v.5zm0 2.905h-.5v.5h.5v-.5zM98.15 5.26l-.265.424.002.001.263-.425zm1.4 14.21l.38.325-.38-.325zm-3.325 2.205l.163.473.005-.002-.168-.471zm-4.41.7v-.5h-.5v.5h.5zm0 2.975v.5h.5v-.5h-.5zm-5.39 0h-.5v.5h.5v-.5zm.07-18.13h.5v-.5h-.5v.5zm-2.59.77l-.302-.398.302.398zm0 10.08l-.284.412.008.005.009.005.267-.422zm2.59.665v.5h.5v-.5h-.5zm5.25.035h-.5v.5h.5v-.5zm2.555-.7l-.277-.416-.007.004.284.412zm.035-10.08l.302-.398-.302.398zm-2.59-.77v-.5h-.5v.5h.5zm-5.32 14.655c-.183 0-.363-.003-.541-.008l-.031 1c.188.005.38.008.572.008v-1zm-1.617-.078c-.365-.037-.72-.087-1.063-.15l-.179.984c.37.068.751.121 1.142.16l.1-.994zm-2.103-.388a10.334 10.334 0 01-1.007-.336l-.365.931c.356.14.724.262 1.104.368l.268-.963zm-1.967-.776a8.907 8.907 0 01-.458-.26l-.52.854c.167.101.337.198.51.29l.468-.884zm-.454-.258a5.9 5.9 0 01-.37-.25l-.591.807c.139.102.283.2.433.293l.528-.85zm-1.034-.828a4.512 4.512 0 01-.54-.684l-.841.54c.191.298.411.576.66.835l.721-.691zm-.937-1.46a5.103 5.103 0 01-.252-.845l-.98.205a6.1 6.1 0 00.302 1.01l.93-.37zm-.37-1.733a8.419 8.419 0 01-.013-.454h-1c0 .175.005.346.016.515l.998-.061zm-.013-.454v-.46h-1v.46h1zm0-1.383v-.921h-1v.921h1zm0-1.843v-.921h-1v.921h1zm0-1.843v-.461h-1v.46h1zm0-.461c0-.162.005-.32.013-.474l-.998-.057c-.01.174-.015.35-.015.531h1zm.128-1.403c.061-.314.144-.61.248-.887l-.936-.351a6.535 6.535 0 00-.294 1.046l.982.192zm.646-1.703a4.51 4.51 0 01.548-.718l-.731-.683a5.584 5.584 0 00-.67.878l.853.523zm1.23-1.32c.121-.09.249-.176.383-.258l-.523-.852a6.577 6.577 0 00-.452.303l.592.806zm.387-.26c.148-.093.3-.182.454-.267l-.482-.877c-.17.094-.338.193-.503.296l.53.848zm1.406-.723c.321-.132.654-.25.998-.351l-.283-.96c-.377.112-.742.24-1.097.387l.382.924zm2.031-.603c.343-.066.695-.12 1.057-.159l-.108-.994c-.389.042-.77.1-1.14.172l.191.981zm2.128-.234a16 16 0 01.54-.009v-1c-.194 0-.385.003-.573.01l.033.999zm1.04-.509v-.726h-1v.726h1zm0-2.179V.71h-1v.726h1zm-.5-.226h.448v-1h-.449v1zm1.347 0h.898v-1h-.898v1zm1.796 0h.899v-1h-.899v1zm1.797 0h.45v-1h-.45v1zm-.05-.5v.726h1V.71h-1zm0 2.179v.726h1v-.726h-1zm.5 1.226c.18 0 .359.003.535.01l.034-1a16.71 16.71 0 00-.57-.01v1zm1.6.085c.36.04.71.093 1.05.16l.194-.982c-.37-.072-.748-.13-1.135-.172l-.109.994zm2.078.412c.342.102.672.219.992.351l.383-.923a11.156 11.156 0 00-1.09-.387l-.285.959zm1.939.806c.153.084.304.173.452.266l.53-.848c-.163-.102-.33-.2-.5-.294l-.482.876zm.454.267c.135.083.263.17.385.26l.592-.806a6.816 6.816 0 00-.45-.304l-.527.85zm1.073.865c.21.222.396.461.556.717l.847-.532a5.63 5.63 0 00-.676-.872l-.727.687zm.963 1.531c.107.277.192.572.255.885l.981-.197a6.533 6.533 0 00-.303-1.048l-.933.36zm.373 1.815c.01.154.014.312.014.474h1c0-.18-.005-.359-.015-.533l-.999.059zm.014.474v.46h1v-.46h-1zm0 1.383v.921h1v-.921h-1zm0 1.843v.921h1v-.921h-1zm0 1.843v.461h1v-.46h-1zm0 .461c0 .152-.005.301-.016.447l.998.073a7.42 7.42 0 00.018-.52h-1zm-.151 1.32c-.07.289-.165.563-.284.825l.911.414c.145-.32.26-.654.345-1.002l-.972-.237zm-.719 1.58a4.803 4.803 0 01-.27.345l.76.65c.116-.135.224-.274.326-.416l-.816-.58zm-.27.345a6.36 6.36 0 01-.317.343l.71.705c.127-.128.25-.26.367-.398l-.76-.65zm-1.023.958a7.041 7.041 0 01-.789.514l.49.872c.318-.178.618-.374.9-.587l-.6-.799zm-1.643.929c-.145.06-.294.118-.446.172l.335.942c.169-.06.334-.124.495-.19l-.384-.924zm-.442.17c-.169.058-.34.113-.512.163l.282.96c.187-.055.373-.114.556-.177l-.326-.946zm-1.557.42a12.91 12.91 0 01-1.067.164l.112.994c.39-.044.773-.103 1.15-.178l-.195-.98zm-2.147.243c-.18.007-.36.01-.543.01v1c.195 0 .387-.003.579-.01l-.036-1zm-1.043.51v.744h1v-.744h-1zm0 2.231v.744h1v-.744h-1zm.5.244h-.449v1h.45v-1zm-1.347 0h-.899v1h.899v-1zm-1.797 0h-.898v1h.898v-1zm-1.797 0h-.449v1h.45v-1zm.051.5v-.744h-1v.744h1zm0-2.231v-.744h-1v.744h1zm-.43-16.399c-.257 0-.505.014-.746.043l.12.993c.198-.024.406-.036.626-.036v-1zm-2.222.462a3.953 3.953 0 00-.67.41l.604.796c.155-.117.322-.22.502-.306l-.436-.9zm-.67.41c-.189.143-.359.3-.507.472l.756.654c.1-.115.217-.225.355-.33l-.604-.796zm-1.141 1.736a3.256 3.256 0 00-.072.692h1c0-.172.017-.332.05-.48l-.978-.212zm-.072.692v.513h1v-.513h-1zm0 1.54v1.027h1V11.56h-1zm0 2.053v1.027h1v-1.027h-1zm0 2.054v.513h1v-.513h-1zm0 .513c0 .23.024.454.075.669l.974-.227a1.94 1.94 0 01-.049-.442h-1zm.726 1.872c.149.157.318.3.505.43l.568-.824a2.174 2.174 0 01-.347-.293l-.726.687zm.522.44c.214.136.44.252.679.35l.38-.924a3.382 3.382 0 01-.524-.27l-.535.844zm2.128.706c.236.025.479.037.73.037v-1a5.66 5.66 0 01-.624-.032l-.106.995zm1.23-.463v-.48h-1v.48h1zm0-1.44v-.959h-1v.96h1zm0-1.919v-.96h-1v.96h1zm0-1.919v-.96h-1v.96h1zm0-1.919v-.96h-1v.96h1zm0-1.919v-.96h-1v.96h1zm0-1.92V7.22h-1v.48h1zm5.25 11.071v-.481h-1v.481h1zm0-1.444v-.962h-1v.962h1zm0-1.925v-.962h-1v.962h1zm0-1.925v-.962h-1v.962h1zm0-1.925v-.962h-1v.962h1zm0-1.925v-.962h-1v.962h1zm0-1.925V7.22h-1v.481h1zm-.5.019c.22 0 .428.012.626.036l.12-.993a6.224 6.224 0 00-.747-.043v1zm1.786.362c.18.087.346.189.501.306l.604-.796a3.946 3.946 0 00-.67-.41l-.435.9zm.501.306c.138.105.256.215.356.33l.755-.654a3.331 3.331 0 00-.507-.472l-.604.796zM94.8 9.54c.032.148.05.308.05.48h1c0-.238-.024-.469-.073-.692l-.977.212zm.05.48v.513h1v-.513h-1zm0 1.54v1.027h1V11.56h-1zm0 2.053v1.027h1v-1.027h-1zm0 2.054v.513h1v-.513h-1zm0 .513c0 .16-.018.307-.051.442l.971.237a2.86 2.86 0 00.08-.679h-1zm-.47 1.182c-.1.101-.219.199-.358.292l.555.832c.19-.127.363-.268.515-.423l-.712-.701zm-.365.296a3.08 3.08 0 01-.504.282l.404.914c.236-.104.459-.228.668-.372l-.568-.824zm-1.655.58c-.195.02-.4.032-.616.032v1c.25 0 .493-.013.727-.04l-.11-.993zm-5.936 4.137h1v-1h-1v1zM80.02 20.8l-.528.85.009.004.52-.854zm.035-15.54l.523.852.008-.005-.53-.847zm6.37-1.645v1h1v-1h-1zm0-2.905v-1h-1v1h1zm5.39 0h1v-1h-1v1zm0 2.905h-1v1h1v-1zM98.15 5.26l-.53.847.004.003.526-.85zm1.4 14.21l.759.65-.759-.65zm-3.325 2.205l.326.945.01-.003-.336-.942zm-4.41.7v-1h-1v1h1zm0 2.975v1h1v-1h-1zm-5.39 0h-1v1h1v-1zm.07-18.13h1v-1h-1v1zm-2.59.77l-.604-.797.604.797zm0 10.08l-.567.823.016.011.016.01.535-.844zm2.59.665v1h1v-1h-1zm5.25.035h-1v1h1v-1zm2.555-.7l-.555-.832-.006.004-.007.005.568.823zm.035-10.08l.605-.797-.605.797zm-2.59-.77v-1h-1v1h1zm-5.32 14.155c-.177 0-.353-.003-.525-.008l-.063 1.999c.194.006.39.009.588.009v-2zm-1.567-.076a12.999 12.999 0 01-1.023-.144l-.359 1.968c.385.07.778.125 1.181.166l.201-1.99zm-2.019-.372a9.864 9.864 0 01-.958-.32l-.731 1.862c.372.147.757.275 1.153.385l.536-1.927zm-1.867-.736a8.35 8.35 0 01-.432-.245l-1.04 1.708c.176.107.354.208.536.305l.936-1.768zm-.424-.24a5.377 5.377 0 01-.338-.229l-1.183 1.613c.15.11.305.214.465.314l1.056-1.698zm-.936-.75a4.014 4.014 0 01-.481-.609l-1.683 1.082c.21.325.45.628.72.91l1.444-1.383zm-.835-1.299a4.59 4.59 0 01-.227-.762l-1.958.409c.08.378.188.743.327 1.093l1.858-.74zm-.334-1.579a6.927 6.927 0 01-.013-.423h-2c0 .184.006.366.017.546l1.996-.123zm-.013-.423v-.46h-2v.46h2zm0-1.383v-.921h-2v.921h2zm0-1.843v-.921h-2v.921h2zm0-1.843v-.461h-2v.46h2zm0-.461c0-.153.004-.301.013-.446l-1.997-.114a9.82 9.82 0 00-.016.56h2zm.118-1.308a5.03 5.03 0 01.226-.806l-1.872-.703a7.03 7.03 0 00-.316 1.126l1.962.383zm.582-1.536c.14-.228.302-.44.487-.638l-1.461-1.366a6.002 6.002 0 00-.73.957l1.704 1.047zm1.1-1.18c.11-.08.226-.159.348-.234l-1.046-1.704a6.86 6.86 0 00-.486.326l1.183 1.612zm.356-.239c.14-.088.284-.172.43-.252l-.963-1.753c-.18.099-.356.202-.529.31l1.062 1.695zm1.331-.683a9.67 9.67 0 01.95-.335L82.3 3.171c-.392.116-.774.25-1.145.404l.762 1.849zm1.937-.575c.328-.064.666-.115 1.015-.153l-.216-1.988c-.402.044-.796.103-1.181.178l.382 1.963zm2.05-.225c.17-.006.345-.009.521-.009v-2c-.198 0-.395.003-.59.01l.068 1.999zm1.521-1.009v-.726h-2v.726h2zm0-2.179V.71h-2v.726h2zm-1 .274h.45v-2h-.45v2zm1.348 0h.898v-2h-.898v2zm1.796 0h.899v-2h-.899v2zm1.797 0h.45v-2h-.45v2zm-.55-1v.726h2V.71h-2zm0 2.179v.726h2v-.726h-2zm1 1.726c.174 0 .347.003.518.009l.068-2c-.194-.006-.39-.009-.587-.009v2zm1.545.082c.347.038.683.089 1.009.153l.386-1.962a14.001 14.001 0 00-1.176-.18l-.219 1.989zm1.99.394c.326.097.64.209.944.334l.766-1.847c-.37-.153-.75-.288-1.14-.404l-.57 1.917zm1.84.765c.146.08.288.164.428.251l1.062-1.694a11.474 11.474 0 00-.525-.31l-.965 1.753zm.433.255c.124.076.24.155.352.237l1.184-1.612a7.314 7.314 0 00-.484-.326l-1.052 1.7zm.973.782c.188.2.353.412.496.64l1.694-1.064a6.172 6.172 0 00-.737-.95l-1.453 1.374zm.86 1.368c.096.25.173.517.231.804l1.961-.395a6.98 6.98 0 00-.327-1.13l-1.866.721zm.34 1.664c.009.144.013.293.013.445h2c0-.19-.005-.378-.016-.563l-1.997.118zm.013.445v.46h2v-.46h-2zm0 1.383v.921h2v-.921h-2zm0 1.843v.921h2v-.921h-2zm0 1.843v.461h2v-.46h-2zm0 .461c0 .14-.005.277-.014.41l1.994.146a7.3 7.3 0 00.02-.556h-2zm-.137 1.202a4.153 4.153 0 01-.253.736l1.821.828a6.2 6.2 0 00.375-1.09l-1.943-.474zm-.64 1.408a4.353 4.353 0 01-.242.31l1.518 1.3c.126-.145.244-.296.354-.452l-1.63-1.158zm-.242.31a6.7 6.7 0 01-.292.316l1.419 1.41c.135-.137.266-.279.391-.425l-1.518-1.302zm-.945.884a6.6 6.6 0 01-.733.477l.98 1.744c.336-.19.655-.397.956-.623l-1.203-1.598zm-1.534.866a8.578 8.578 0 01-.422.163l.67 1.884c.177-.063.35-.13.52-.2l-.768-1.847zm-.413.16c-.161.055-.324.107-.49.156l.564 1.919c.194-.057.387-.119.578-.185l-.652-1.89zm-1.491.4c-.334.067-.676.12-1.026.16l.224 1.987a14.4 14.4 0 001.19-.184l-.388-1.962zm-2.068.236c-.173.006-.348.009-.525.009v2c.2 0 .4-.003.596-.01l-.07-2zm-1.525 1.009v.744h2v-.744h-2zm0 2.231v.744h2v-.744h-2zm1-.256h-.449v2h.45v-2zm-1.347 0h-.899v2h.899v-2zm-1.797 0h-.898v2h.898v-2zm-1.797 0h-.449v2h.45v-2zm.551 1v-.744h-2v.744h2zm0-2.231v-.744h-2v.744h2zm-.93-16.899a6.65 6.65 0 00-.806.047l.24 1.985a4.73 4.73 0 01.566-.032v-2zm-2.439.511a4.5 4.5 0 00-.755.462l1.209 1.594c.128-.097.266-.182.416-.255l-.87-1.8zm-.755.462c-.214.163-.41.343-.583.543l1.512 1.31a1.83 1.83 0 01.28-.26L83.3 7.193zm-1.328 2.029c-.056.26-.083.527-.083.798h2c0-.14.014-.263.038-.374l-1.955-.424zm-.083.798v.513h2v-.513h-2zm0 1.54v1.027h2V11.56h-2zm0 2.053v1.027h2v-1.027h-2zm0 2.054v.513h2v-.513h-2zm0 .513c0 .265.028.527.088.783l1.947-.455a1.443 1.443 0 01-.035-.328h-2zm.862 2.216c.176.185.372.35.585.497l1.136-1.646a1.68 1.68 0 01-.268-.226l-1.453 1.375zm.618.519c.24.151.492.281.757.39l.76-1.85a2.877 2.877 0 01-.447-.23l-1.07 1.69zm2.343.78c.255.027.516.04.782.04v-2c-.201 0-.391-.01-.57-.029l-.212 1.989zm1.782-.96v-.48h-2v.48h2zm0-1.44v-.959h-2v.96h2zm0-1.919v-.96h-2v.96h2zm0-1.919v-.96h-2v.96h2zm0-1.919v-.96h-2v.96h2zm0-1.919v-.96h-2v.96h2zm0-1.92V7.22h-2v.48h2zm5.25 11.071v-.481h-2v.481h2zm0-1.444v-.962h-2v.962h2zm0-1.925v-.962h-2v.962h2zm0-1.925v-.962h-2v.962h2zm0-1.925v-.962h-2v.962h2zm0-1.925v-.962h-2v.962h2zm0-1.925V7.22h-2v.481h2zm-1 .519c.202 0 .39.011.567.032l.24-1.985a6.727 6.727 0 00-.807-.047v2zm1.57.312c.15.073.288.158.416.255l1.209-1.594a4.447 4.447 0 00-.756-.462l-.87 1.801zm.416.255c.113.085.205.172.28.259l1.511-1.31c-.173-.2-.368-.38-.582-.543l-1.21 1.594zm.582.86c.024.11.037.234.037.373h2c0-.27-.026-.537-.083-.798l-1.954.424zm.037.373v.513h2v-.513h-2zm0 1.54v1.027h2V11.56h-2zm0 2.053v1.027h2v-1.027h-2zm0 2.054v.513h2v-.513h-2zm0 .513c0 .123-.013.23-.036.323l1.943.474a3.36 3.36 0 00.093-.797h-2zm-.326.831a1.748 1.748 0 01-.278.227l1.109 1.664a3.75 3.75 0 00.595-.488l-1.426-1.403zm-.291.236c-.13.09-.27.168-.423.235l.808 1.83a4.57 4.57 0 00.75-.419l-1.136-1.646zm-1.427.493c-.176.02-.362.03-.56.03v2c.266 0 .527-.014.782-.042l-.222-1.988zM106.88 2.285v-.5h-.5v.5h.5zm17.325 0h.5v-.5h-.5v.5zm0 3.885v.5h.5v-.5h-.5zm-11.865 0v-.5h-.5v.5h.5zm0 5.215h-.5v.5h.5v-.5zm10.71 0h.5v-.5h-.5v.5zm0 3.885v.5h.5v-.5h-.5zm-10.71 0v-.5h-.5v.5h.5zm0 5.845h-.5v.5h.5v-.5zm12.215 0h.5v-.5h-.5v.5zm0 3.885v.5h.5V25h-.5zm-17.675 0h-.5v.5h.5V25zm-.5-22.715v.516h1v-.516h-1zm0 1.549v1.032h1V3.834h-1zm0 2.065V6.93h1V5.9h-1zm0 2.065v1.032h1V7.964h-1zm0 2.065v1.032h1V10.03h-1zm0 2.065v1.032h1v-1.032h-1zm0 2.065v1.032h1V14.16h-1zm0 2.065v1.032h1v-1.032h-1zm0 2.065v1.032h1V18.29h-1zm0 2.065v1.032h1v-1.032h-1zm0 2.065v1.032h1V22.42h-1zm0 2.065V25h1v-.516h-1zm.5 1.016h.491v-1h-.491v1zm1.473 0h.982v-1h-.982v1zm1.964 0h.981v-1h-.981v1zm1.963 0h.982v-1h-.982v1zm1.964 0h.982v-1h-.982v1zm1.964 0h.982v-1h-.982v1zm1.964 0h.982v-1h-.982v1zm1.964 0h.982v-1h-.982v1zm1.964 0h.982v-1h-.982v1zm1.964 0h.491v-1h-.491v1zm.991-.5v-.486h-1V25h1zm0-1.457v-.971h-1v.971h1zm0-1.942v-.486h-1v.486h1zm-.5-.986h-.509v1h.509v-1zm-1.527 0h-1.018v1h1.018v-1zm-2.036 0h-1.018v1h1.018v-1zm-2.036 0h-1.018v1h1.018v-1zm-2.036 0h-1.018v1h1.018v-1zm-2.035 0h-1.018v1h1.018v-1zm-2.036 0h-.509v1h.509v-1zm-.009.5v-.487h-1v.487h1zm0-1.461v-.974h-1v.974h1zm0-1.949v-.974h-1v.974h1zm0-1.948v-.487h-1v.487h1zm-.5.013h.535v-1h-.535v1zm1.606 0h1.071v-1h-1.071v1zm2.142 0h1.071v-1h-1.071v1zm2.142 0h1.071v-1h-1.071v1zm2.142 0h1.071v-1h-1.071v1zm2.142 0h.536v-1h-.536v1zm1.036-.5v-.486h-1v.486h1zm0-1.457v-.971h-1v.971h1zm0-1.942v-.486h-1v.486h1zm-.5-.986h-.536v1h.536v-1zm-1.607 0h-1.071v1h1.071v-1zm-2.142 0h-1.071v1h1.071v-1zm-2.142 0h-1.071v1h1.071v-1zm-2.142 0h-1.071v1h1.071v-1zm-2.142 0h-.535v1h.535v-1zm-.035.5v-.435h-1v.435h1zm0-1.304v-.869h-1v.87h1zm0-1.738v-.87h-1v.87h1zm0-1.738V6.17h-1v.435h1zm-.5.065h.494v-1h-.494v1zm1.483 0h.989v-1h-.989v1zm1.977 0h.989v-1h-.989v1zm1.978 0h.989v-1h-.989v1zm1.977 0h.989v-1h-.989v1zm1.978 0h.989v-1h-.989v1zm1.977 0h.495v-1h-.495v1zm.995-.5v-.486h-1v.486h1zm0-1.457v-.971h-1v.971h1zm0-1.942v-.486h-1v.486h1zm-.5-.986h-.482v1h.482v-1zm-1.444 0h-.963v1h.963v-1zm-1.925 0h-.963v1h.963v-1zm-1.925 0h-.963v1h.963v-1zm-1.925 0h-.963v1h.963v-1zm-1.925 0h-.963v1h.963v-1zm-1.925 0h-.963v1h.963v-1zm-1.925 0h-.963v1h.963v-1zm-1.925 0h-.963v1h.963v-1zm-1.925 0h-.481v1h.481v-1zm-.481.5v-1h-1v1h1zm17.325 0h1v-1h-1v1zm0 3.885v1h1v-1h-1zm-11.865 0v-1h-1v1h1zm0 5.215h-1v1h1v-1zm10.71 0h1v-1h-1v1zm0 3.885v1h1v-1h-1zm-10.71 0v-1h-1v1h1zm0 5.845h-1v1h1v-1zm12.215 0h1v-1h-1v1zm0 3.885v1h1v-1h-1zm-17.675 0h-1v1h1v-1zm-1-22.715v.516h2v-.516h-2zm0 1.549v1.032h2V3.834h-2zm0 2.065V6.93h2V5.9h-2zm0 2.065v1.032h2V7.964h-2zm0 2.065v1.032h2V10.03h-2zm0 2.065v1.032h2v-1.032h-2zm0 2.065v1.032h2V14.16h-2zm0 2.065v1.032h2v-1.032h-2zm0 2.065v1.032h2V18.29h-2zm0 2.065v1.032h2v-1.032h-2zm0 2.065v1.032h2V22.42h-2zm0 2.065V25h2v-.516h-2zm1 1.516h.491v-2h-.491v2zm1.473 0h.982v-2h-.982v2zm1.964 0h.981v-2h-.981v2zm1.963 0h.982v-2h-.982v2zm1.964 0h.982v-2h-.982v2zm1.964 0h.982v-2h-.982v2zm1.964 0h.982v-2h-.982v2zm1.964 0h.982v-2h-.982v2zm1.964 0h.982v-2h-.982v2zm1.964 0h.491v-2h-.491v2zm1.491-1v-.486h-2V25h2zm0-1.457v-.971h-2v.971h2zm0-1.942v-.486h-2v.486h2zm-1-1.486h-.509v2h.509v-2zm-1.527 0h-1.018v2h1.018v-2zm-2.036 0h-1.018v2h1.018v-2zm-2.036 0h-1.018v2h1.018v-2zm-2.036 0h-1.018v2h1.018v-2zm-2.035 0h-1.018v2h1.018v-2zm-2.036 0h-.509v2h.509v-2zm.491 1v-.487h-2v.487h2zm0-1.461v-.974h-2v.974h2zm0-1.949v-.974h-2v.974h2zm0-1.948v-.487h-2v.487h2zm-1 .513h.535v-2h-.535v2zm1.606 0h1.071v-2h-1.071v2zm2.142 0h1.071v-2h-1.071v2zm2.142 0h1.071v-2h-1.071v2zm2.142 0h1.071v-2h-1.071v2zm2.142 0h.536v-2h-.536v2zm1.536-1v-.486h-2v.486h2zm0-1.457v-.971h-2v.971h2zm0-1.942v-.486h-2v.486h2zm-1-1.486h-.536v2h.536v-2zm-1.607 0h-1.071v2h1.071v-2zm-2.142 0h-1.071v2h1.071v-2zm-2.142 0h-1.071v2h1.071v-2zm-2.142 0h-1.071v2h1.071v-2zm-2.142 0h-.535v2h.535v-2zm.465 1v-.435h-2v.435h2zm0-1.304v-.869h-2v.87h2zm0-1.738v-.87h-2v.87h2zm0-1.738V6.17h-2v.435h2zm-1 .565h.494v-2h-.494v2zm1.483 0h.989v-2h-.989v2zm1.977 0h.989v-2h-.989v2zm1.978 0h.989v-2h-.989v2zm1.977 0h.989v-2h-.989v2zm1.978 0h.989v-2h-.989v2zm1.977 0h.495v-2h-.495v2zm1.495-1v-.486h-2v.486h2zm0-1.457v-.971h-2v.971h2zm0-1.942v-.486h-2v.486h2zm-1-1.486h-.482v2h.482v-2zm-1.444 0h-.963v2h.963v-2zm-1.925 0h-.963v2h.963v-2zm-1.925 0h-.963v2h.963v-2zm-1.925 0h-.963v2h.963v-2zm-1.925 0h-.963v2h.963v-2zm-1.925 0h-.963v2h.963v-2zm-1.925 0h-.963v2h.963v-2zm-1.925 0h-.963v2h.963v-2zm-1.925 0h-.481v2h.481v-2zm29.911 23.925l-.058.497h.001l.057-.497zm-2.625-.525l.13-.483h-.004l-.126.483zm-2.66-1.085l-.277.416.009.006.268-.422zm-1.75-1.925l.434-.248-.005-.01-.429.258zm17.01-18.97h.5v-.422l-.416-.07-.084.492zm0 4.095l-.117.486.617.15V6.8h-.5zm-9.17-.91l-.047-.498h-.003l.05.498zm-1.47.35l.161.473.01-.003-.171-.47zm10.78 14.21h.5v-.63l-.613.143.113.487zm0 4.13l.101.49.399-.082v-.408h-.5zm-7.35.27a30.9 30.9 0 01-.682-.007l-.021 1c.229.005.463.007.703.007v-1zM138 24.777c-.232-.018-.456-.04-.671-.064l-.114.994c.229.026.464.048.708.067l.077-.997zm-.67-.064a13.82 13.82 0 01-.64-.09l-.162.986c.234.039.463.071.686.098l.116-.994zm-1.918-.35c-.207-.05-.419-.103-.635-.16l-.26.965c.226.06.447.116.663.168l.232-.973zm-.639-.162c-.232-.06-.454-.125-.666-.192l-.305.952c.231.074.47.143.719.208l.252-.968zm-1.935-.697a6.303 6.303 0 01-.583-.326l-.536.844c.212.134.437.26.675.378l.444-.896zm-.574-.32a4.54 4.54 0 01-.469-.36l-.658.754c.182.16.373.305.573.438l.554-.832zm-1.267-1.246a6.106 6.106 0 01-.326-.511l-.868.496c.119.208.245.407.38.595l.814-.58zm-.331-.52a4.1 4.1 0 01-.163-.298l-.896.444c.062.126.129.249.201.368l.858-.514zm-.417-.93a4.953 4.953 0 01-.162-.67l-.986.17c.048.276.112.544.194.803l.954-.303zm-.238-1.365a6.812 6.812 0 01-.009-.353h-1c0 .137.003.272.01.405l.999-.052zm-.009-.353v-.499h-1v.499h1zm0-1.496v-.998h-1v.998h1zm0-1.995v-.998h-1v.998h1zm0-1.995v-.998h-1v.998h1zm0-1.995v-.998h-1v.998h1zm0-1.995v-.499h-1v.499h1zm0-.499c0-.163.005-.323.014-.48l-.998-.06a8.697 8.697 0 00-.016.54h1zm.135-1.417a5.59 5.59 0 01.261-.894l-.932-.363a6.465 6.465 0 00-.308 1.057l.979.2zm.674-1.718a4.88 4.88 0 01.561-.729l-.731-.682a5.867 5.867 0 00-.678.88l.848.531zm1.253-1.35c.241-.181.505-.351.793-.508l-.48-.878a7.501 7.501 0 00-.916.588l.603.799zm1.66-.915c.288-.115.593-.22.917-.316l-.282-.96c-.352.104-.688.22-1.007.348l.372.928zm1.866-.555c.31-.066.634-.124.971-.174l-.147-.989c-.357.053-.701.115-1.032.185l.208.978zm1.954-.293c.32-.031.651-.056.992-.074l-.053-.998a23.38 23.38 0 00-1.035.076l.096.996zm1.991-.108c.165-.003.332-.004.502-.004v-1c-.175 0-.348.001-.518.004l.016 1zm.502-.004c.143 0 .291.002.442.005l.022-1a20.862 20.862 0 00-.464-.005v1zm1.331.041c.285.017.582.038.892.064l.085-.996c-.318-.027-.625-.05-.919-.066l-.058.998zm1.784.15c.288.032.586.066.892.105l.125-.993a56.198 56.198 0 00-.911-.106l-.106.995zm1.784.223c.29.041.587.085.891.132l.153-.988c-.309-.048-.61-.092-.905-.134l-.139.99zm1.782.274l.445.075.168-.986-.45-.076-.163.987zm.029-.418v.512h1v-.512h-1zm0 1.536v1.023h1V4.241h-1zm0 2.047V6.8h1v-.512h-1zm.617.026a48.602 48.602 0 00-.444-.105l-.225.974.435.103.234-.972zm-1.336-.302a40.935 40.935 0 00-.896-.177l-.183.983c.287.053.578.11.874.173l.205-.979zm-1.798-.334a33.18 33.18 0 00-.908-.132l-.13.991c.288.038.581.08.879.129l.159-.988zm-1.82-.238a25.91 25.91 0 00-.918-.075l-.063.998c.288.018.582.042.882.072l.099-.995zm-1.841-.115a20.466 20.466 0 00-.462-.005v1c.145 0 .292.002.44.005l.022-1zm-.462-.005c-.179 0-.35.001-.514.003l.012 1c.159-.002.327-.003.502-.003v-1zm-1.55.034c-.192.01-.368.023-.527.038l.094.996c.143-.014.305-.026.486-.035l-.053-.999zm-.53.038a5.64 5.64 0 00-.411.057l.172.985c.115-.02.228-.035.339-.046l-.1-.996zm-1.207.25a7.875 7.875 0 00-.384.128l.342.94c.113-.041.225-.079.334-.112l-.292-.956zm-.374.125a3.472 3.472 0 00-.434.18l.447.894a2.51 2.51 0 01.309-.128l-.322-.946zm-1.22.757c-.226.241-.401.52-.526.834l.929.37a1.6 1.6 0 01.326-.519l-.729-.685zm-.742 1.75a4.434 4.434 0 00-.022.451h1c0-.124.006-.241.017-.352l-.995-.1zm-.022.451v.483h1v-.483h-1zm0 1.449v.966h1v-.966h-1zm0 1.932v.966h1v-.966h-1zm0 1.932v.966h1v-.966h-1zm0 1.932v.966h1v-.966h-1zm0 1.932v.483h1v-.483h-1zm0 .483c0 .178.012.353.038.523l.989-.149a2.473 2.473 0 01-.027-.374h-1zm.387 1.543c.178.31.413.582.699.816l.634-.773a1.942 1.942 0 01-.465-.54l-.868.497zm1.573 1.351c.281.13.59.238.923.329l.262-.965a5.013 5.013 0 01-.769-.273l-.416.91zm1.856.526c.294.046.605.082.931.108l.08-.997a11.23 11.23 0 01-.855-.1l-.156.989zm1.857.155c.151.003.305.005.462.005v-1c-.15 0-.296-.002-.439-.005l-.023 1zm.462.005c.19 0 .389-.005.594-.014l-.043-.999c-.193.009-.376.013-.551.013v1zm1.768-.104c.366-.038.752-.087 1.158-.147l-.146-.99c-.394.059-.766.106-1.117.143l.105.994zm2.304-.336c.366-.065.745-.138 1.137-.218l-.199-.98c-.386.079-.757.15-1.114.214l.176.984zm2.268-.46c.185-.041.373-.084.563-.128l-.226-.974c-.188.043-.373.086-.555.126l.218.976zm-.05-.615v.516h1v-.516h-1zm0 1.549v1.032h1V22h-1zm0 2.065v.516h1v-.516h-1zm.399.026c-.149.031-.299.06-.448.09l.19.982c.153-.03.306-.06.46-.092l-.202-.98zm-1.347.253c-.301.05-.602.098-.902.141l.143.99c.308-.044.617-.093.926-.145l-.167-.986zm-1.807.26c-.303.037-.606.069-.907.097l.092.996c.311-.03.622-.062.933-.1l-.118-.992zm-1.817.17c-.304.02-.608.037-.911.05l.041.998c.312-.012.624-.03.937-.05l-.067-.998zm-1.822.074l-.456.003v1l.47-.003-.014-1zm-3.221.363l-.117.993h.003l.114-.993zm-2.625-.525l.259-.966-.007-.002-.252.968zm-2.66-1.085l-.555.832.01.007.01.006.535-.845zm-1.75-1.925l.868-.496-.005-.01-.005-.009-.858.515zm17.01-18.97h1v-.844l-.832-.142-.168.986zm0 4.095l-.235.972 1.235.298V6.8h-1zm-9.17-.91l-.095-.996-.004.001.099.995zm-1.47.35l.322.947.01-.004.01-.003-.342-.94zm10.78 14.21h1v-1.259l-1.226.285.226.974zm0 4.13l.201.98.799-.165v-.815h-1zm-7.35-.23c-.229 0-.453-.002-.671-.007l-.043 2c.232.005.471.007.714.007v-2zm-1.998-.071a18.183 18.183 0 01-.653-.063l-.228 1.987c.235.027.477.05.726.07l.155-1.994zm-.65-.062a13.781 13.781 0 01-.618-.088l-.324 1.974c.241.04.477.073.708.1l.234-1.986zm-1.861-.34c-.202-.048-.41-.1-.622-.158l-.518 1.932c.229.061.455.119.677.171l.463-1.945zm-.629-.16c-.223-.058-.437-.12-.64-.185l-.609 1.905c.24.077.488.149.745.216l.504-1.936zm-1.84-.662a5.853 5.853 0 01-.537-.3l-1.07 1.69c.227.144.468.278.721.403l.886-1.793zm-.517-.287a4.06 4.06 0 01-.419-.32l-1.314 1.508c.198.172.406.331.623.476l1.11-1.664zm-1.137-1.12a5.57 5.57 0 01-.3-.47l-1.736.993c.127.222.262.434.406.637l1.63-1.16zm-.31-.488a3.26 3.26 0 01-.144-.262l-1.792.889a5.6 5.6 0 00.221.402l1.715-1.029zm-.37-.823a4.512 4.512 0 01-.145-.603l-1.971.338c.051.298.121.588.21.87l1.906-.605zm-.215-1.24a6.986 6.986 0 01-.008-.327h-2c0 .145.004.289.011.43l1.997-.102zm-.008-.327v-.499h-2v.499h2zm0-1.496v-.998h-2v.998h2zm0-1.995v-.998h-2v.998h2zm0-1.995v-.998h-2v.998h2zm0-1.995v-.998h-2v.998h2zm0-1.995v-.499h-2v.499h2zm0-.499c0-.154.004-.303.013-.45l-1.996-.12a9.713 9.713 0 00-.017.57h2zm.125-1.317c.059-.289.139-.56.237-.813L129 5.94a7.003 7.003 0 00-.332 1.137l1.959.401zm.607-1.552c.145-.231.313-.45.504-.654l-1.463-1.364a6.309 6.309 0 00-.735.956l1.694 1.062zm1.131-1.216c.22-.167.464-.323.732-.47l-.959-1.755a7.95 7.95 0 00-.978.628l1.205 1.597zm1.545-.85c.272-.11.563-.21.872-.301l-.564-1.919c-.366.108-.717.229-1.052.363l.744 1.856zm1.784-.53c.299-.064.613-.12.94-.17l-.294-1.978c-.366.055-.72.118-1.062.191l.416 1.956zm1.898-.286c.313-.03.636-.054.97-.071l-.106-1.998c-.361.02-.713.046-1.055.079l.191 1.99zm1.951-.105c.162-.003.327-.004.494-.004v-2c-.178 0-.353.001-.527.004l.033 2zm.494-.004c.139 0 .283.002.431.005l.044-2a21.42 21.42 0 00-.475-.005v2zm1.302.04c.28.017.573.038.878.064l.17-1.993c-.322-.028-.633-.05-.933-.067l-.115 1.996zm1.76.149c.285.03.579.065.883.103l.249-1.985c-.315-.04-.621-.075-.919-.107l-.213 1.989zm1.767.22c.288.041.583.085.885.131l.305-1.977a71.843 71.843 0 00-.911-.134l-.279 1.98zm1.77.272l.443.075.336-1.972a75.53 75.53 0 00-.453-.076l-.326 1.973zm-.389-.911v.512h2v-.512h-2zm0 1.536v1.023h2V4.241h-2zm0 2.047V6.8h2v-.512h-2zm1.235-.46a58.743 58.743 0 00-.449-.106l-.451 1.948.43.102.47-1.944zm-1.351-.305a40.685 40.685 0 00-.908-.18l-.366 1.966c.283.053.571.11.863.171l.411-1.957zm-1.822-.338c-.312-.05-.619-.095-.922-.135l-.26 1.983c.283.037.571.08.865.126l.317-1.974zm-1.85-.242a26.117 26.117 0 00-.936-.077l-.126 1.996c.282.018.57.042.864.07l.198-1.99zm-1.878-.118c-.16-.003-.318-.005-.474-.005v2c.141 0 .284.002.429.005l.045-2zm-.474-.005c-.181 0-.354.001-.52.003l.024 2c.157-.002.322-.003.496-.003v-2zm-1.577.035c-.197.01-.38.024-.548.04l.19 1.99c.134-.012.289-.024.465-.033l-.107-1.997zm-.552.04a6.156 6.156 0 00-.448.062l.344 1.97a4.31 4.31 0 01.303-.042l-.199-1.99zm-1.304.268a8.313 8.313 0 00-.409.137l.684 1.88c.105-.039.208-.073.31-.104l-.585-1.913zm-.389.13a3.916 3.916 0 00-.496.207l.894 1.789c.073-.037.154-.071.246-.102l-.644-1.894zm-1.423.889a3.13 3.13 0 00-.627.99l1.858.741c.059-.147.135-.264.226-.361l-1.457-1.37zm-.876 2.041a5.174 5.174 0 00-.024.502h2c0-.108.005-.209.014-.302l-1.99-.2zm-.024.502v.483h2v-.483h-2zm0 1.449v.966h2v-.966h-2zm0 1.932v.966h2v-.966h-2zm0 1.932v.966h2v-.966h-2zm0 1.932v.966h2v-.966h-2zm0 1.932v.483h2v-.483h-2zm0 .483c0 .202.014.4.043.597l1.978-.297a2.125 2.125 0 01-.021-.3h-2zm.453 1.792c.21.366.487.684.817.954l1.267-1.547a1.45 1.45 0 01-.349-.402l-1.735.995zm1.799 1.557a6.4 6.4 0 001 .356l.524-1.93a4.526 4.526 0 01-.692-.244l-.832 1.818zm1.986.564c.308.049.632.087.969.114l.16-1.994a10.773 10.773 0 01-.817-.095l-.312 1.975zm1.923.162c.155.003.313.005.474.005v-2c-.146 0-.288-.002-.427-.005l-.047 2zm.474.005c.198 0 .404-.005.616-.014l-.087-1.998c-.186.008-.362.012-.529.012v2zm1.821-.106a31.5 31.5 0 001.178-.15l-.293-1.98a23.55 23.55 0 01-1.095.14l.21 1.99zm2.339-.342c.37-.066.753-.14 1.149-.22l-.399-1.96c-.382.078-.75.149-1.102.212l.352 1.968zm2.289-.464c.186-.041.375-.084.567-.129l-.452-1.948c-.187.043-.37.085-.551.125l.436 1.952zm-.659-1.103v.516h2v-.516h-2zm0 1.549v1.032h2V22h-2zm0 2.065v.516h2v-.516h-2zm.799-.463c-.148.03-.296.06-.443.088l.38 1.963c.155-.03.31-.06.465-.093l-.402-1.959zm-1.33.249c-.298.05-.594.097-.89.14l.285 1.979c.313-.045.625-.094.939-.147l-.334-1.972zm-1.783.257a34.4 34.4 0 01-.895.095l.186 1.991c.314-.029.63-.063.945-.1l-.236-1.986zm-1.791.167c-.3.02-.6.036-.898.049l.081 1.998c.316-.013.633-.03.951-.051l-.134-1.996zm-1.796.073l-.449.003v2c.159 0 .317-.001.476-.003l-.027-2zm19.42.863l-.059.497h.002l.057-.497zm-2.625-.525l.129-.483h-.003l-.126.483zm-2.66-1.085l-.278.416.01.006.268-.422zm-1.75-1.925l.434-.248-.005-.01-.429.258zm17.01-18.97h.5v-.422l-.416-.07-.084.492zm0 4.095l-.118.486.618.15V6.8h-.5zm-9.17-.91l-.048-.498h-.002l.05.498zm-1.47.35l.161.473.01-.003-.171-.47zm10.78 14.21h.5v-.63l-.613.143.113.487zm0 4.13l.1.49.4-.082v-.408h-.5zm-7.35.27a30.9 30.9 0 01-.682-.007l-.022 1c.229.005.464.007.704.007v-1zm-2.037-.073c-.232-.018-.456-.04-.671-.064l-.114.994c.228.026.464.048.707.067l.078-.997zm-.67-.064a13.82 13.82 0 01-.64-.09l-.162.986c.234.039.462.071.685.098l.117-.994zm-1.918-.35c-.207-.05-.419-.103-.636-.16l-.259.965c.225.06.446.116.663.168l.232-.973zm-.639-.162c-.232-.06-.454-.125-.666-.192l-.305.952c.231.074.47.143.719.208l.252-.968zm-1.936-.697a6.576 6.576 0 01-.583-.326l-.535.844c.211.134.436.26.675.378l.443-.896zm-.573-.32a4.66 4.66 0 01-.47-.36l-.657.754c.182.16.373.305.572.438l.555-.832zm-1.267-1.246a6.106 6.106 0 01-.326-.511l-.868.496c.119.208.245.407.379.595l.815-.58zm-.331-.52a3.749 3.749 0 01-.163-.298l-.896.444c.062.126.129.249.201.368l.858-.514zm-.418-.93a5.107 5.107 0 01-.161-.67l-.986.17c.048.276.112.544.194.803l.953-.303zm-.237-1.365a6.812 6.812 0 01-.009-.353h-1c0 .137.003.272.01.405l.999-.052zm-.009-.353v-.499h-1v.499h1zm0-1.496v-.998h-1v.998h1zm0-1.995v-.998h-1v.998h1zm0-1.995v-.998h-1v.998h1zm0-1.995v-.998h-1v.998h1zm0-1.995v-.499h-1v.499h1zm0-.499c0-.163.005-.323.014-.48l-.998-.06a8.697 8.697 0 00-.016.54h1zm.135-1.417a5.59 5.59 0 01.261-.894l-.932-.363a6.567 6.567 0 00-.309 1.057l.98.2zm.673-1.718c.163-.258.35-.501.562-.729l-.731-.682a5.867 5.867 0 00-.678.88l.847.531zm1.253-1.35c.242-.181.506-.351.794-.508l-.48-.878a7.501 7.501 0 00-.916.588l.602.799zm1.661-.915c.288-.115.593-.22.917-.316l-.282-.96c-.352.104-.688.22-1.007.348l.372.928zm1.866-.555c.31-.066.633-.124.97-.174l-.146-.989c-.357.053-.701.115-1.033.185l.209.978zm1.954-.293c.32-.031.651-.056.992-.074l-.053-.998c-.355.018-.7.044-1.035.076l.096.996zm1.991-.108c.165-.003.332-.004.502-.004v-1c-.175 0-.348.001-.519.004l.017 1zm.502-.004c.143 0 .29.002.442.005l.022-1a20.93 20.93 0 00-.464-.005v1zm1.331.041c.285.017.582.038.891.064l.085-.996c-.317-.027-.624-.05-.919-.066l-.057.998zm1.784.15c.288.032.586.066.892.105l.124-.993a50.67 50.67 0 00-.91-.106l-.106.995zm1.784.223c.29.041.587.085.891.132l.152-.988c-.308-.048-.61-.092-.904-.134l-.139.99zm1.781.274l.446.075.168-.986-.45-.076-.164.987zm.03-.418v.512h1v-.512h-1zm0 1.536v1.023h1V4.241h-1zm0 2.047V6.8h1v-.512h-1zm.617.026a48.602 48.602 0 00-.444-.105l-.225.974.434.103.235-.972zm-1.336-.302a40.935 40.935 0 00-.896-.177l-.183.983c.287.053.578.11.874.173l.205-.979zm-1.799-.334a32.18 32.18 0 00-.907-.132l-.13.991c.288.038.581.08.879.129l.158-.988zm-1.82-.238a28.03 28.03 0 00-.917-.075l-.064.998c.288.018.582.042.883.072l.098-.995zm-1.84-.115a20.6 20.6 0 00-.462-.005v1c.145 0 .291.002.44.005l.022-1zm-.462-.005c-.179 0-.351.001-.514.003l.012 1c.159-.002.326-.003.502-.003v-1zm-1.55.034a12.8 12.8 0 00-.528.038l.095.996c.143-.014.305-.026.486-.035l-.053-.999zm-.53.038a5.64 5.64 0 00-.411.057l.172.985c.115-.02.228-.035.339-.046l-.1-.996zm-1.207.25a7.875 7.875 0 00-.384.128l.342.94a6.65 6.65 0 01.334-.112l-.292-.956zm-.374.125a3.41 3.41 0 00-.434.18l.447.894c.094-.047.197-.09.309-.128l-.322-.946zm-1.22.757c-.226.241-.401.52-.526.834l.928.37c.081-.202.19-.374.327-.519l-.729-.685zm-.742 1.75a4.434 4.434 0 00-.022.451h1c0-.124.006-.241.017-.352l-.995-.1zm-.022.451v.483h1v-.483h-1zm0 1.449v.966h1v-.966h-1zm0 1.932v.966h1v-.966h-1zm0 1.932v.966h1v-.966h-1zm0 1.932v.966h1v-.966h-1zm0 1.932v.483h1v-.483h-1zm0 .483c0 .178.012.353.038.523l.989-.149a2.473 2.473 0 01-.027-.374h-1zm.387 1.543c.177.31.413.582.699.816l.634-.773a1.963 1.963 0 01-.466-.54l-.867.497zm1.573 1.351c.281.13.59.238.923.329l.262-.965a5.013 5.013 0 01-.769-.273l-.416.91zm1.856.526c.294.046.605.082.931.108l.08-.997a11.23 11.23 0 01-.855-.1l-.156.989zm1.856.155c.152.003.306.005.463.005v-1c-.15 0-.296-.002-.439-.005l-.024 1zm.463.005c.19 0 .388-.005.594-.014l-.043-.999c-.193.009-.377.013-.551.013v1zm1.768-.104c.366-.038.752-.087 1.158-.147l-.147-.99a25.58 25.58 0 01-1.116.143l.105.994zm2.304-.336c.365-.065.744-.138 1.137-.218l-.199-.98c-.386.079-.757.15-1.114.214l.176.984zm2.268-.46c.185-.041.372-.084.563-.128l-.226-.974c-.188.043-.373.086-.555.126l.218.976zm-.05-.615v.516h1v-.516h-1zm0 1.549v1.032h1V22h-1zm0 2.065v.516h1v-.516h-1zm.399.026c-.149.031-.299.06-.448.09l.19.982c.153-.03.306-.06.459-.092l-.201-.98zm-1.347.253c-.301.05-.602.098-.902.141l.143.99c.308-.044.617-.093.926-.145l-.167-.986zm-1.807.26a35.86 35.86 0 01-.908.097l.093.996a37.4 37.4 0 00.933-.1l-.118-.992zm-1.817.17c-.304.02-.608.037-.911.05l.041.998c.311-.012.624-.03.937-.05l-.067-.998zm-1.822.074l-.456.003v1c.156 0 .313-.001.469-.003l-.013-1zm-3.221.363l-.117.993h.003l.114-.993zm-2.625-.525l.259-.966-.007-.002-.252.968zm-2.66-1.085l-.555.832.01.007.01.006.535-.845zm-1.75-1.925l.868-.496-.005-.01-.006-.009-.857.515zm17.01-18.97h1v-.844l-.832-.142-.168.986zm0 4.095l-.235.972 1.235.298V6.8h-1zm-9.17-.91l-.095-.996-.005.001.1.995zm-1.47.35l.322.947.01-.004.01-.003-.342-.94zm10.78 14.21h1v-1.259l-1.226.285.226.974zm0 4.13l.201.98.799-.165v-.815h-1zm-7.35-.23c-.23 0-.453-.002-.671-.007l-.044 2c.233.005.471.007.715.007v-2zm-1.998-.071a18.244 18.244 0 01-.654-.063l-.227 1.987c.235.027.477.05.726.07l.155-1.994zm-.65-.062a13.781 13.781 0 01-.618-.088l-.324 1.974c.241.04.477.073.708.1l.234-1.986zm-1.861-.34c-.203-.048-.41-.1-.622-.158l-.518 1.932c.229.061.455.119.676.171l.464-1.945zm-.629-.16a11.78 11.78 0 01-.64-.185l-.609 1.905c.239.077.488.149.744.216l.505-1.936zm-1.84-.662a5.853 5.853 0 01-.537-.3l-1.07 1.69c.227.144.467.278.72.403l.887-1.793zm-.518-.287a4.158 4.158 0 01-.418-.32l-1.314 1.508c.198.172.406.331.623.476l1.109-1.664zm-1.137-1.12a5.565 5.565 0 01-.299-.47l-1.736.993c.126.222.262.434.406.637l1.629-1.16zm-.31-.488a3.592 3.592 0 01-.143-.262l-1.792.889c.068.137.142.271.22.402l1.715-1.029zm-.369-.823a4.512 4.512 0 01-.145-.603l-1.972.338c.051.298.121.588.211.87l1.906-.605zm-.215-1.24a6.986 6.986 0 01-.008-.327h-2c0 .145.003.289.011.43l1.997-.102zm-.008-.327v-.499h-2v.499h2zm0-1.496v-.998h-2v.998h2zm0-1.995v-.998h-2v.998h2zm0-1.995v-.998h-2v.998h2zm0-1.995v-.998h-2v.998h2zm0-1.995v-.499h-2v.499h2zm0-.499c0-.154.004-.303.013-.45l-1.996-.12a8.915 8.915 0 00-.017.57h2zm.125-1.317c.059-.289.138-.56.237-.813l-1.864-.725a7.003 7.003 0 00-.332 1.137l1.959.401zm.607-1.552c.145-.231.313-.45.503-.654l-1.462-1.364a6.38 6.38 0 00-.736.956l1.695 1.062zm1.131-1.216c.22-.167.464-.323.731-.47l-.959-1.755c-.347.19-.673.4-.977.628l1.205 1.597zm1.545-.85c.272-.11.562-.21.872-.301l-.564-1.919c-.366.108-.717.229-1.052.363l.744 1.856zm1.784-.53c.299-.064.612-.12.94-.17l-.294-1.978c-.366.055-.72.118-1.063.191l.417 1.956zm1.898-.286c.313-.03.636-.054.97-.071L161.09.975c-.361.02-.713.046-1.056.079l.192 1.99zm1.951-.105c.162-.003.327-.004.494-.004v-2c-.178 0-.353.001-.527.004l.033 2zm.494-.004c.139 0 .283.002.431.005l.044-2a21.42 21.42 0 00-.475-.005v2zm1.302.04c.28.017.573.038.878.064l.17-1.993c-.322-.028-.633-.05-.933-.067l-.115 1.996zm1.759.149c.286.03.58.065.884.103l.249-1.985c-.315-.04-.622-.075-.919-.107l-.214 1.989zm1.768.22c.288.041.583.085.885.131l.304-1.977c-.31-.047-.614-.092-.91-.134l-.279 1.98zm1.77.272l.443.075.336-1.972a91.865 91.865 0 00-.453-.076l-.326 1.973zm-.389-.911v.512h2v-.512h-2zm0 1.536v1.023h2V4.241h-2zm0 2.047V6.8h2v-.512h-2zm1.234-.46l-.448-.106-.451 1.948.43.102.469-1.944zm-1.35-.305a40.685 40.685 0 00-.908-.18l-.366 1.966c.283.053.571.11.863.171l.411-1.957zm-1.823-.338c-.311-.05-.618-.095-.921-.135l-.26 1.983c.283.037.571.08.865.126l.316-1.974zm-1.849-.242a26.117 26.117 0 00-.936-.077l-.126 1.996c.282.018.57.042.864.07l.198-1.99zm-1.878-.118c-.16-.003-.318-.005-.474-.005v2c.141 0 .284.002.429.005l.045-2zm-.474-.005c-.181 0-.355.001-.52.003l.024 2c.157-.002.322-.003.496-.003v-2zm-1.577.035c-.197.01-.38.024-.548.04l.19 1.99c.134-.012.289-.024.465-.033l-.107-1.997zm-.553.04a6.129 6.129 0 00-.447.062l.344 1.97c.103-.018.204-.032.302-.042l-.199-1.99zm-1.304.268a8.647 8.647 0 00-.408.137l.684 1.88c.105-.039.208-.073.309-.104l-.585-1.913zm-.388.13a3.93 3.93 0 00-.497.207l.895 1.789a1.79 1.79 0 01.246-.102l-.644-1.894zm-1.423.889c-.272.288-.48.622-.627.99l1.858.741c.059-.147.135-.264.226-.361l-1.457-1.37zm-.876 2.041a5.174 5.174 0 00-.024.502h2c0-.108.005-.209.014-.302l-1.99-.2zm-.024.502v.483h2v-.483h-2zm0 1.449v.966h2v-.966h-2zm0 1.932v.966h2v-.966h-2zm0 1.932v.966h2v-.966h-2zm0 1.932v.966h2v-.966h-2zm0 1.932v.483h2v-.483h-2zm0 .483c0 .202.014.4.043.597l1.978-.297a1.986 1.986 0 01-.021-.3h-2zm.453 1.792c.21.366.486.684.817.954l1.266-1.547a1.462 1.462 0 01-.348-.402l-1.735.995zm1.798 1.557c.31.142.645.26 1.001.356l.524-1.93a4.526 4.526 0 01-.692-.244l-.833 1.818zm1.987.564c.308.049.631.087.969.114l.16-1.994a10.714 10.714 0 01-.817-.095l-.312 1.975zm1.923.162c.155.003.313.005.474.005v-2c-.146 0-.289-.002-.428-.005l-.046 2zm.474.005c.198 0 .403-.005.616-.014l-.087-1.998c-.186.008-.363.012-.529.012v2zm1.82-.106c.374-.04.767-.09 1.179-.15l-.293-1.98a23.55 23.55 0 01-1.095.14l.209 1.99zm2.34-.342c.37-.066.753-.14 1.149-.22l-.399-1.96c-.382.078-.75.149-1.103.212l.353 1.968zm2.289-.464c.186-.041.375-.084.567-.129l-.452-1.948c-.187.043-.37.085-.551.125l.436 1.952zm-.659-1.103v.516h2v-.516h-2zm0 1.549v1.032h2V22h-2zm0 2.065v.516h2v-.516h-2zm.798-.463c-.147.03-.295.06-.442.088l.38 1.963c.155-.03.31-.06.465-.093l-.403-1.959zm-1.329.249c-.298.05-.595.097-.891.14l.286 1.979c.312-.045.625-.094.938-.147l-.333-1.972zm-1.783.257a35.79 35.79 0 01-.895.095l.186 1.991c.314-.029.629-.063.945-.1l-.236-1.986zm-1.792.167c-.3.02-.599.036-.897.049l.081 1.998c.316-.013.633-.03.951-.051l-.135-1.996zm-1.795.073l-.449.003v2l.476-.003-.027-2zm12.14-22.062v-.5h-.5v.5h.5zm5.46 0h.5v-.5h-.5v.5zm0 15.54h-.5v1.73l.923-1.463-.423-.267zm9.8-15.54v-.5h-.276l-.147.233.423.267zm5.46 0h.5v-.5h-.5v.5zm0 22.715v.5h.5V25h-.5zm-5.46 0h-.5v.5h.5V25zm0-15.785h.5V7.462l-.925 1.49.425.263zM180.719 25v.5h.278l.146-.236-.424-.264zm-5.46 0h-.5v.5h.5V25zm-.5-22.715v.516h1v-.516h-1zm0 1.549v1.032h1V3.834h-1zm0 2.065V6.93h1V5.9h-1zm0 2.065v1.032h1V7.964h-1zm0 2.065v1.032h1V10.03h-1zm0 2.065v1.032h1v-1.032h-1zm0 2.065v1.032h1V14.16h-1zm0 2.065v1.032h1v-1.032h-1zm0 2.065v1.032h1V18.29h-1zm0 2.065v1.032h1v-1.032h-1zm0 2.065v1.032h1V22.42h-1zm0 2.065V25h1v-.516h-1zm.5 1.016h.455v-1h-.455v1zm1.365 0h.91v-1h-.91v1zm1.82 0h.91v-1h-.91v1zm1.82 0h.455v-1h-.455v1zm.879-.236l.273-.439-.85-.527-.272.438.849.528zm.817-1.316l.545-.877-.85-.527-.545.877.85.527zm1.089-1.754l.544-.877-.849-.527-.545.877.85.527zm1.089-1.753l.544-.877-.849-.528-.545.877.85.527zm1.089-1.754l.544-.877-.849-.528-.545.877.85.528zm1.089-1.754l.544-.877-.85-.528-.544.877.85.528zm1.088-1.754l.545-.877-.85-.527-.544.876.849.528zm1.089-1.754l.545-.877-.85-.527-.544.877.849.527zm1.089-1.754l.545-.877-.85-.527-.544.877.849.527zm1.089-1.754l.272-.438-.849-.528-.272.439.849.527zm-.652-.702v.493h1v-.493h-1zm0 1.48v.986h1v-.986h-1zm0 1.973v.987h1v-.987h-1zm0 1.973v.987h1v-.987h-1zm0 1.973v.987h1v-.987h-1zm0 1.973v.987h1v-.987h-1zm0 1.974v.986h1v-.986h-1zm0 1.973v.986h1v-.986h-1zm0 1.973V25h1v-.493h-1zm.5.993h.455v-1h-.455v1zm1.365 0h.91v-1h-.91v1zm1.82 0h.91v-1h-.91v1zm1.82 0h.455v-1h-.455v1zm.955-.5v-.516h-1V25h1zm0-1.549V22.42h-1v1.032h1zm0-2.065v-1.032h-1v1.032h1zm0-2.065V18.29h-1v1.032h1zm0-2.065v-1.032h-1v1.032h1zm0-2.065V14.16h-1v1.032h1zm0-2.065v-1.032h-1v1.032h1zm0-2.065V10.03h-1v1.032h1zm0-2.065V7.964h-1v1.032h1zm0-2.065V5.9h-1v1.03h1zm0-2.065V3.834h-1v1.032h1zm0-2.065v-.516h-1v.516h1zm-.5-1.016h-.455v1h.455v-1zm-1.365 0h-.91v1h.91v-1zm-1.82 0h-.91v1h.91v-1zm-1.82 0h-.455v1h.455v-1zm-.878.233l-.273.432.846.533.273-.431-.846-.534zm-.817 1.295l-.544.864.845.533.545-.863-.846-.534zM188.19 5.04l-.544.863.846.534.544-.864-.846-.533zm-1.089 1.727l-.544.863.846.533.544-.863-.846-.533zm-1.089 1.726l-.544.864.846.533.544-.863-.846-.534zm-1.089 1.727l-.544.863.846.534.544-.864-.846-.533zm-1.088 1.727l-.545.863.846.533.544-.863-.845-.533zm-1.089 1.726l-.545.864.846.533.545-.863-.846-.534zm-1.089 1.727l-.545.863.846.534.545-.864-.846-.533zm-1.089 1.727l-.272.431.846.534.272-.432-.846-.533zm.651.698v-.486h-1v.486h1zm0-1.457v-.971h-1v.971h1zm0-1.942v-.972h-1v.972h1zm0-1.943v-.971h-1v.971h1zm0-1.942v-.972h-1v.972h1zm0-1.943v-.971h-1v.971h1zm0-1.942v-.972h-1v.972h1zm0-1.943v-.971h-1v.971h1zm0-1.942v-.486h-1v.486h1zm-.5-.986h-.455v1h.455v-1zm-1.365 0h-.91v1h.91v-1zm-1.82 0h-.91v1h.91v-1zm-1.82 0h-.455v1h.455v-1zm-.455.5v-1h-1v1h1zm5.46 0h1v-1h-1v1zm0 15.54h-1v3.46l1.845-2.927-.845-.533zm9.8-15.54v-1h-.552l-.294.467.846.533zm5.46 0h1v-1h-1v1zm0 22.715v1h1v-1h-1zm-5.46 0h-1v1h1v-1zm0-15.785h1V5.708l-1.85 2.98.85.527zM180.719 25v1h.556l.293-.473-.849-.527zm-5.46 0h-1v1h1v-1zm-1-22.715v.516h2v-.516h-2zm0 1.549v1.032h2V3.834h-2zm0 2.065V6.93h2V5.9h-2zm0 2.065v1.032h2V7.964h-2zm0 2.065v1.032h2V10.03h-2zm0 2.065v1.032h2v-1.032h-2zm0 2.065v1.032h2V14.16h-2zm0 2.065v1.032h2v-1.032h-2zm0 2.065v1.032h2V18.29h-2zm0 2.065v1.032h2v-1.032h-2zm0 2.065v1.032h2V22.42h-2zm0 2.065V25h2v-.516h-2zm1 1.516h.455v-2h-.455v2zm1.365 0h.91v-2h-.91v2zm1.82 0h.91v-2h-.91v2zm1.82 0h.455v-2h-.455v2zm1.304-.473l.272-.438-1.699-1.055-.272.439 1.699 1.055zm.817-1.315l.544-.877-1.699-1.055-.544.877 1.699 1.055zm1.089-1.754l.544-.877-1.699-1.055-.544.877 1.699 1.055zm1.089-1.754l.544-.877-1.699-1.055-.545.877 1.7 1.055zm1.089-1.754l.544-.877-1.699-1.055-.545.877 1.7 1.055zm1.088-1.753l.545-.877-1.699-1.055-.545.877 1.699 1.055zm1.089-1.754l.545-.877-1.699-1.055-.545.877 1.699 1.055zm1.089-1.754l.545-.877-1.7-1.055-.544.877 1.699 1.055zm1.089-1.754l.545-.877-1.7-1.055-.544.877 1.699 1.055zm1.089-1.754l.272-.439-1.699-1.054-.272.438 1.699 1.055zm-1.577-.966v.493h2v-.493h-2zm0 1.48v.986h2v-.986h-2zm0 1.973v.987h2v-.987h-2zm0 1.973v.987h2v-.987h-2zm0 1.973v.987h2v-.987h-2zm0 1.973v.987h2v-.987h-2zm0 1.974v.986h2v-.986h-2zm0 1.973v.986h2v-.986h-2zm0 1.973V25h2v-.493h-2zm1 1.493h.455v-2h-.455v2zm1.365 0h.91v-2h-.91v2zm1.82 0h.91v-2h-.91v2zm1.82 0h.455v-2h-.455v2zm1.455-1v-.516h-2V25h2zm0-1.549V22.42h-2v1.032h2zm0-2.065v-1.032h-2v1.032h2zm0-2.065V18.29h-2v1.032h2zm0-2.065v-1.032h-2v1.032h2zm0-2.065V14.16h-2v1.032h2zm0-2.065v-1.032h-2v1.032h2zm0-2.065V10.03h-2v1.032h2zm0-2.065V7.964h-2v1.032h2zm0-2.065V5.9h-2v1.03h2zm0-2.065V3.834h-2v1.032h2zm0-2.065v-.516h-2v.516h2zm-1-1.516h-.455v2h.455v-2zm-1.365 0h-.91v2h.91v-2zm-1.82 0h-.91v2h.91v-2zm-1.82 0h-.455v2h.455v-2zm-1.301.467l-.272.431 1.691 1.067.272-.432-1.691-1.066zm-.817 1.295l-.544.863 1.691 1.067.545-.864-1.692-1.066zm-1.089 1.726l-.544.864 1.691 1.066.545-.863-1.692-1.067zM186.678 6.5l-.544.863 1.692 1.067.544-.863-1.692-1.067zm-1.089 1.727l-.544.863 1.692 1.067.544-.864-1.692-1.066zm-1.088 1.726l-.545.864 1.692 1.066.544-.863-1.691-1.067zm-1.089 1.727l-.545.863 1.692 1.067.544-.863-1.691-1.067zm-1.089 1.727l-.545.863 1.692 1.067.544-.864-1.691-1.066zm-1.089 1.726l-.545.864 1.692 1.066.545-.863-1.692-1.067zm-1.089 1.727l-.272.432 1.691 1.066.273-.431-1.692-1.067zm1.574.965v-.486h-2v.486h2zm0-1.457v-.971h-2v.971h2zm0-1.942v-.972h-2v.972h2zm0-1.943v-.971h-2v.971h2zm0-1.942v-.972h-2v.972h2zm0-1.943v-.971h-2v.971h2zm0-1.942v-.972h-2v.972h2zm0-1.943v-.971h-2v.971h2zm0-1.942v-.486h-2v.486h2zm-1-1.486h-.455v2h.455v-2zm-1.365 0h-.91v2h.91v-2zm-1.82 0h-.91v2h.91v-2zm-1.82 0h-.455v2h.455v-2zm31.129 14.895l.415.28.454-.674-.806-.102-.063.496zm-3.29-1.4l.359-.348-.359.348zm.945-11.375l.236.441.006-.003-.242-.438zm16.625-1.12h.5v-.5h-.5v.5zm0 22.715v.5h.5V25h-.5zm-5.46 0h-.5v.5h.5V25zm0-8.4h.5v-.5h-.5v.5zm-3.22 0v-.5h-.275l-.147.232.422.268zm-5.32 8.4v.5h.276l.147-.233-.423-.267zm-6.23 0l-.414-.28-.526.78h.94V25zm14.77-12.005v.5h.5v-.5h-.5zm0-6.825h.5v-.5h-.5v.5zm-7.105.49l.264.425.005-.003-.269-.422zm-.035 5.845l-.3.4.007.005.007.005.286-.41zm-2.094 3.395l-.298.441.829.56.298-.441-.829-.56zm-.893 1.323l-.595.882.829.56.595-.882-.829-.56zm-1.19 1.764l-.595.882.829.56.595-.882-.829-.56zm-1.19 1.764l-.595.882.829.56.595-.882-.829-.56zm-1.19 1.764l-.595.882.829.56.595-.882-.829-.56zm-1.19 1.764l-.297.441.829.56.297-.441-.829-.56zm.117 1.221h.52v-1h-.52v1zm1.558 0h1.038v-1h-1.038v1zm2.077 0h1.038v-1h-1.038v1zm2.076 0h.519v-1h-.519v1zm.942-.233l.266-.42-.845-.535-.266.42.845.535zm.798-1.26l.532-.84-.845-.535-.532.84.845.535zm1.064-1.68l.532-.84-.845-.534-.532.84.845.535zm1.064-1.68l.532-.84-.845-.534-.532.84.845.535zm1.064-1.68l.532-.84-.845-.534-.532.84.845.535zm1.064-1.68l.266-.42-.845-.535-.266.42.845.536zm-.157-.187h.403v-1h-.403v1zm1.208 0h.805v-1h-.805v1zm1.61 0h.402v-1h-.402v1zm-.098-.5v.525h1V16.6h-1zm0 1.575v1.05h1v-1.05h-1zm0 2.1v1.05h1v-1.05h-1zm0 2.1v1.05h1v-1.05h-1zm0 2.1V25h1v-.525h-1zm.5 1.025h.455v-1h-.455v1zm1.365 0h.91v-1h-.91v1zm1.82 0h.91v-1h-.91v1zm1.82 0h.455v-1h-.455v1zm.955-.5v-.516h-1V25h1zm0-1.549V22.42h-1v1.032h1zm0-2.065v-1.032h-1v1.032h1zm0-2.065V18.29h-1v1.032h1zm0-2.065v-1.032h-1v1.032h1zm0-2.065V14.16h-1v1.032h1zm0-2.065v-1.032h-1v1.032h1zm0-2.065V10.03h-1v1.032h1zm0-2.065V7.964h-1v1.032h1zm0-2.065V5.9h-1v1.03h1zm0-2.065V3.834h-1v1.032h1zm0-2.065v-.516h-1v.516h1zm-.5-1.016h-.502v1h.502v-1zm-1.506 0h-1.005v1h1.005v-1zm-2.009 0h-1.005v1h1.005v-1zm-2.009 0h-1.005v1h1.005v-1zm-2.009 0h-1.005v1h1.005v-1zm-2.009 0h-.503v1h.503v-1zm-.503 0c-.193 0-.382.001-.569.004l.016 1c.181-.003.365-.004.553-.004v-1zm-1.71.044c-.398.021-.78.05-1.144.088l.103.995c.346-.036.711-.064 1.094-.085l-.053-.998zm-2.289.242c-.406.07-.787.151-1.143.246l.259.966c.322-.086.672-.161 1.052-.226l-.168-.986zm-2.272.63a6.02 6.02 0 00-.55.266l.483.876c.141-.078.294-.152.459-.223l-.392-.92zm-.544.263a4.96 4.96 0 00-.527.326l.582.813a3.91 3.91 0 01.416-.257l-.471-.882zm-1.429 1.202c-.25.335-.446.707-.587 1.113l.945.328c.109-.314.257-.593.443-.841l-.801-.6zm-.839 2.314a6.524 6.524 0 00-.027.6h1c0-.176.008-.346.023-.508l-.996-.092zm-.027.6v.564h1V7.08h-1zm0 1.693v1.129h1V8.773h-1zm0 2.258v.564h1v-.564h-1zm0 .564c0 .157.005.31.014.461l.998-.06a6.54 6.54 0 01-.012-.401h-1zm.135 1.389c.067.323.162.63.284.916l.92-.391a3.96 3.96 0 01-.226-.73l-.978.205zm.77 1.767c.099.133.206.258.321.377l.718-.696a2.976 2.976 0 01-.238-.28l-.801.6zm.321.377c.12.123.248.24.384.348l.625-.78a3.202 3.202 0 01-.291-.264l-.718.696zm1.244.891c.286.142.594.262.923.362l.291-.957a5.066 5.066 0 01-.771-.301l-.443.896zm1.868.585c.154.028.312.052.474.072l.126-.992a8.863 8.863 0 01-.426-.064l-.174.984zm9.357-4.109h-.564v1h.564v-1zm-1.693 0h-1.129v1h1.129v-1zm-2.257 0h-.565v1h.565v-1zm-.565 0c-.231 0-.448-.005-.649-.016l-.053.998c.221.012.455.018.702.018v-1zm-1.871-.195a1.6 1.6 0 01-.467-.205l-.573.82c.215.15.474.262.761.346l.279-.96zm-.454-.195a.899.899 0 01-.232-.264l-.858.514c.13.216.292.402.49.55l.6-.8zm-.475-1.102a4.642 4.642 0 01-.025-.493h-1c0 .21.01.41.031.6l.994-.107zm-.025-.493v-.534h-1v.534h1zm0-1.601v-.534h-1v.534h1zm0-.534c0-.154.01-.293.027-.418l-.99-.138a3.97 3.97 0 00-.037.556h1zm.272-1.085a.83.83 0 01.227-.205l-.527-.85a1.844 1.844 0 00-.494.447l.794.608zm.232-.208a1.93 1.93 0 01.483-.209l-.286-.958a2.92 2.92 0 00-.734.323l.537.844zm1.684-.394c.198-.012.411-.018.637-.018v-1c-.244 0-.476.006-.696.02l.059.998zm.637-.018h.565v-1h-.565v1zm1.693 0h1.129v-1h-1.129v1zm2.258 0h.564v-1h-.564v1zm.064-.5v.569h1V6.17h-1zm0 1.706v1.138h1V7.876h-1zm0 2.275v1.138h1V10.15h-1zm0 2.275v.569h1v-.569h-1zm-8.32 3.754l.829.56.909-1.347-1.612-.205-.126.992zm-3.29-1.4l.719-.696-.719.696zm.945-11.375l.472.882.011-.006-.483-.876zm16.625-1.12h1v-1h-1v1zm0 22.715v1h1v-1h-1zm-5.46 0h-1v1h1v-1zm0-8.4h1v-1h-1v1zm-3.22 0v-1h-.55l-.294.465.844.535zm-5.32 8.4v1h.551l.294-.465-.845-.535zm-6.23 0l-.829-.56-1.052 1.56h1.881v-1zm14.77-12.005v1h1v-1h-1zm0-6.825h1v-1h-1v1zm-7.105.49l.527.85.01-.006-.537-.844zm-.035 5.845l-.6.8.013.01.014.01.573-.82zm-2.509 3.116l-.297.44 1.658 1.12.297-.442-1.658-1.118zm-.892 1.323l-.595.882 1.658 1.118.595-.882-1.658-1.118zm-1.19 1.764l-.595.882 1.658 1.118.595-.882-1.658-1.118zm-1.19 1.764l-.595.882 1.658 1.118.595-.882-1.658-1.118zm-1.19 1.764l-.595.882 1.658 1.118.595-.882-1.658-1.118zM200.362 24l-.298.44 1.658 1.12.298-.442L200.362 24zm.531 2h.52v-2h-.52v2zm1.558 0h1.038v-2h-1.038v2zm2.077 0h1.038v-2h-1.038v2zm2.076 0h.519v-2h-.519v2zm1.364-.465l.266-.42-1.689-1.07-.266.42 1.689 1.07zm.798-1.26l.532-.84-1.689-1.07-.532.84 1.689 1.07zm1.064-1.68l.532-.84-1.689-1.07-.532.84 1.689 1.07zm1.064-1.68l.532-.84-1.689-1.07-.532.84 1.689 1.07zm1.064-1.68l.532-.84-1.689-1.07-.532.84 1.689 1.07zm1.064-1.68l.266-.42-1.689-1.07-.266.42 1.689 1.07zm-.579.045h.403v-2h-.403v2zm1.208 0h.805v-2h-.805v2zm1.61 0h.402v-2h-.402v2zm-.598-1v.525h2V16.6h-2zm0 1.575v1.05h2v-1.05h-2zm0 2.1v1.05h2v-1.05h-2zm0 2.1v1.05h2v-1.05h-2zm0 2.1V25h2v-.525h-2zm1 1.525h.455v-2h-.455v2zm1.365 0h.91v-2h-.91v2zm1.82 0h.91v-2h-.91v2zm1.82 0h.455v-2h-.455v2zm1.455-1v-.516h-2V25h2zm0-1.549V22.42h-2v1.032h2zm0-2.065v-1.032h-2v1.032h2zm0-2.065V18.29h-2v1.032h2zm0-2.065v-1.032h-2v1.032h2zm0-2.065V14.16h-2v1.032h2zm0-2.065v-1.032h-2v1.032h2zm0-2.065V10.03h-2v1.032h2zm0-2.065V7.964h-2v1.032h2zm0-2.065V5.9h-2v1.03h2zm0-2.065V3.834h-2v1.032h2zm0-2.065v-.516h-2v.516h2zm-1-1.516h-.502v2h.502v-2zm-1.506 0h-1.005v2h1.005v-2zm-2.009 0h-1.005v2h1.005v-2zm-2.009 0h-1.005v2h1.005v-2zm-2.009 0h-1.005v2h1.005v-2zm-2.009 0h-.503v2h.503v-2zm-.503 0c-.195 0-.388.002-.577.005l.032 2c.178-.004.36-.005.545-.005v-2zm-1.737.044c-.406.022-.795.052-1.168.09l.205 1.99c.338-.035.695-.062 1.07-.083l-.107-1.997zm-2.345.25a12.9 12.9 0 00-1.189.255l.517 1.932c.305-.081.64-.154 1.007-.216l-.335-1.972zm-2.385.661a6.553 6.553 0 00-.596.29l.966 1.75c.125-.068.263-.135.414-.2l-.784-1.84zm-.584.283a5.168 5.168 0 00-.581.36l1.163 1.627c.109-.078.229-.153.361-.223l-.943-1.764zm-1.593 1.344a4.563 4.563 0 00-.659 1.249l1.89.655c.092-.268.217-.501.37-.706l-1.601-1.198zm-.937 2.567a7.207 7.207 0 00-.029.646h2c0-.162.007-.316.021-.462l-1.992-.184zm-.029.646v.564h2V7.08h-2zm0 1.693v1.129h2V8.773h-2zm0 2.258v.564h2v-.564h-2zm0 .564c0 .166.005.33.015.49l1.996-.118a6.367 6.367 0 01-.011-.372h-2zm.145 1.492c.074.352.178.69.313 1.009l1.841-.783a3.41 3.41 0 01-.196-.637l-1.958.41zm.86 1.963c.111.15.232.292.362.426l1.437-1.392a2.332 2.332 0 01-.197-.23l-1.602 1.196zm.362.426c.135.138.278.269.43.39l1.25-1.56a2.546 2.546 0 01-.243-.222l-1.437 1.392zm1.381.992c.313.154.647.284 1 .391l.582-1.913a4.604 4.604 0 01-.696-.271l-.886 1.793zm2.003.629c.163.028.329.053.498.075l.252-1.984a8.67 8.67 0 01-.403-.06l-.347 1.969zm9.444-5.102h-.564v2h.564v-2zm-1.693 0h-1.129v2h1.129v-2zm-2.257 0h-.565v2h.565v-2zm-.565 0c-.224 0-.431-.005-.622-.016l-.107 1.998c.231.012.474.018.729.018v-2zm-1.731-.175a1.112 1.112 0 01-.32-.134l-1.147 1.638c.273.191.587.323.908.417l.559-1.92zm-.294-.115a.411.411 0 01-.103-.121l-1.716 1.028c.16.267.365.503.619.693l1.2-1.6zm-.278-.756a4.095 4.095 0 01-.022-.439h-2c0 .226.011.444.034.655l1.988-.216zm-.022-.439v-.534h-2v.534h2zm0-1.601v-.534h-2v.534h2zm0-.534c0-.134.008-.25.022-.35l-1.981-.275a4.56 4.56 0 00-.041.625h2zm.169-.781a.337.337 0 01.093-.084l-1.053-1.7a2.32 2.32 0 00-.627.567l1.587 1.217zm.103-.09c.071-.045.185-.1.358-.152l-.572-1.916a3.43 3.43 0 00-.86.38l1.074 1.688zm1.446-.317c.187-.011.389-.017.607-.017v-2c-.252 0-.494.007-.725.02l.118 1.997zm.607-.017h.565v-2h-.565v2zm1.693 0h1.129v-2h-1.129v2zm2.258 0h.564v-2h-.564v2zm-.436-1v.569h2V6.17h-2zm0 1.706v1.138h2V7.876h-2zm0 2.275v1.138h2V10.15h-2zm0 2.275v.569h2v-.569h-2z" fill="#77C2F9" fill-opacity=".9"/></svg>