<svg width="467" height="53" fill="none" xmlns="http://www.w3.org/2000/svg"><path d="M.18 3.974v-.5h-.5v.5h.5zm42.328 0h.5v-.5h-.5v.5zm0 48.026v.5h.5V52h-.5zm-11.544 0h-.5v.5h.5V52zm0-39.886h.5v-.5h-.5v.5zm-19.24 0v-.5h-.5v.5h.5zm0 39.886v.5h.5V52h-.5zM.18 52h-.5v.5h.5V52zm-.5-48.026v1h1v-1h-1zm0 3.002v2h1v-2h-1zm0 4.002v2h1v-2h-1zm0 4.002v2.001h1V14.98h-1zm0 4.002v2.001h1v-2h-1zm0 4.002v2.001h1v-2h-1zm0 4.002v2.002h1v-2.002h-1zm0 4.003v2h1v-2h-1zm0 4.002v2h1v-2h-1zm0 4.002v2.001h1v-2.001h-1zm0 4.002v2.001h1v-2h-1zm0 4.002v2.001h1v-2h-1zm0 4.002V52h1v-1h-1zm.5 1.501h.962v-1H.18v1zm2.886 0H4.99v-1H3.066v1zm3.848 0h1.924v-1H6.914v1zm3.848 0h.962v-1h-.962v1zm1.462-.5v-.997h-1V52h1zm0-2.991v-1.995h-1v1.995h1zm0-3.989v-1.994h-1v1.994h1zm0-3.989v-1.994h-1v1.994h1zm0-3.988v-1.995h-1v1.995h1zm0-3.989V31.06h-1v1.994h1zm0-3.989v-1.994h-1v1.994h1zm0-3.988v-1.994h-1v1.994h1zm0-3.989v-1.994h-1v1.994h1zm0-3.988v-1.995h-1V17.1h1zm0-3.989v-.997h-1v.997h1zm-.5-.497h.962v-1h-.962v1zm2.886 0h1.924v-1H14.61v1zm3.848 0h1.924v-1h-1.924v1zm3.848 0h1.924v-1h-1.924v1zm3.848 0h1.924v-1h-1.924v1zm3.848 0h.962v-1h-.962v1zm.462-.5v.997h1v-.997h-1zm0 2.991V17.1h1v-1.995h-1zm0 3.989v1.994h1v-1.994h-1zm0 3.989v1.994h1v-1.994h-1zm0 3.988v1.994h1v-1.994h-1zm0 3.989v1.994h1V31.06h-1zm0 3.988v1.995h1v-1.995h-1zm0 3.99v1.993h1v-1.994h-1zm0 3.988v1.994h1v-1.994h-1zm0 3.988v1.995h1v-1.995h-1zm0 3.989V52h1v-.997h-1zm.5 1.497h.962v-1h-.962v1zm2.886 0h1.924v-1H33.85v1zm3.848 0h1.924v-1h-1.924v1zm3.848 0h.962v-1h-.962v1zm1.462-.5v-1h-1v1h1zm0-3.002v-2h-1v2h1zm0-4.002v-2h-1v2h1zm0-4.002v-2.001h-1v2.001h1zm0-4.002V34.99h-1v2h1zm0-4.002v-2.001h-1v2h1zm0-4.003v-2h-1v2h1zm0-4.002v-2h-1v2h1zm0-4.002v-2h-1v2h1zm0-4.002V14.98h-1v2.001h1zm0-4.002v-2.001h-1v2h1zm0-4.002V6.976h-1v2h1zm0-4.002V3.974h-1v1h1zm-.5-1.501h-.962v1h.962v-1zm-2.886 0h-1.924v1h1.924v-1zm-3.848 0H33.85v1h1.924v-1zm-3.848 0h-1.924v1h1.924v-1zm-3.848 0h-1.924v1h1.924v-1zm-3.848 0h-1.924v1h1.924v-1zm-3.848 0h-1.924v1h1.924v-1zm-3.848 0H14.61v1h1.924v-1zm-3.848 0h-1.924v1h1.924v-1zm-3.848 0H6.914v1h1.924v-1zm-3.848 0H3.066v1H4.99v-1zm-3.848 0H.18v1h.962v-1zm-.962.5v-1h-1v1h1zm42.328 0h1v-1h-1v1zm0 48.026v1h1v-1h-1zm-11.544 0h-1v1h1v-1zm0-39.886h1v-1h-1v1zm-19.24 0v-1h-1v1h1zm0 39.886v1h1v-1h-1zM.18 52h-1v1h1v-1zm-1-48.026v1h2v-1h-2zm0 3.002v2h2v-2h-2zm0 4.002v2h2v-2h-2zm0 4.002v2.001h2V14.98h-2zm0 4.002v2.001h2v-2h-2zm0 4.002v2.001h2v-2h-2zm0 4.002v2.002h2v-2.002h-2zm0 4.003v2h2v-2h-2zm0 4.002v2h2v-2h-2zm0 4.002v2.001h2v-2.001h-2zm0 4.002v2.001h2v-2h-2zm0 4.002v2.001h2v-2h-2zm0 4.002V52h2v-1h-2zM.18 53h.962v-2H.18v2zm2.886 0H4.99v-2H3.066v2zm3.848 0h1.924v-2H6.914v2zm3.848 0h.962v-2h-.962v2zm1.962-1v-.997h-2V52h2zm0-2.991v-1.995h-2v1.995h2zm0-3.989v-1.994h-2v1.994h2zm0-3.989v-1.994h-2v1.994h2zm0-3.988v-1.995h-2v1.995h2zm0-3.989V31.06h-2v1.994h2zm0-3.989v-1.994h-2v1.994h2zm0-3.988v-1.994h-2v1.994h2zm0-3.989v-1.994h-2v1.994h2zm0-3.988v-1.995h-2V17.1h2zm0-3.989v-.997h-2v.997h2zm-1 .003h.962v-2h-.962v2zm2.886 0h1.924v-2H14.61v2zm3.848 0h1.924v-2h-1.924v2zm3.848 0h1.924v-2h-1.924v2zm3.848 0h1.924v-2h-1.924v2zm3.848 0h.962v-2h-.962v2zm-.038-1v.997h2v-.997h-2zm0 2.991V17.1h2v-1.995h-2zm0 3.989v1.994h2v-1.994h-2zm0 3.989v1.994h2v-1.994h-2zm0 3.988v1.994h2v-1.994h-2zm0 3.989v1.994h2V31.06h-2zm0 3.988v1.995h2v-1.995h-2zm0 3.99v1.993h2v-1.994h-2zm0 3.988v1.994h2v-1.994h-2zm0 3.988v1.995h2v-1.995h-2zm0 3.989V52h2v-.997h-2zm1 1.997h.962v-2h-.962v2zm2.886 0h1.924v-2H33.85v2zm3.848 0h1.924v-2h-1.924v2zm3.848 0h.962v-2h-.962v2zm1.962-1v-1h-2v1h2zm0-3.002v-2h-2v2h2zm0-4.002v-2h-2v2h2zm0-4.002v-2.001h-2v2.001h2zm0-4.002V34.99h-2v2h2zm0-4.002v-2.001h-2v2h2zm0-4.003v-2h-2v2h2zm0-4.002v-2h-2v2h2zm0-4.002v-2h-2v2h2zm0-4.002V14.98h-2v2.001h2zm0-4.002v-2.001h-2v2h2zm0-4.002V6.976h-2v2h2zm0-4.002V3.974h-2v1h2zm-1-2.001h-.962v2h.962v-2zm-2.886 0h-1.924v2h1.924v-2zm-3.848 0H33.85v2h1.924v-2zm-3.848 0h-1.924v2h1.924v-2zm-3.848 0h-1.924v2h1.924v-2zm-3.848 0h-1.924v2h1.924v-2zm-3.848 0h-1.924v2h1.924v-2zm-3.848 0H14.61v2h1.924v-2zm-3.848 0h-1.924v2h1.924v-2zm-3.848 0H6.914v2h1.924v-2zm-3.848 0H3.066v2H4.99v-2zm-3.848 0H.18v2h.962v-2zm55.42 1v-.5h-.5v.5h.5zm30.34.962l-.115.487h.002l.113-.487zm5.994 3.404l-.399.302.005.007.006.006.388-.315zm-.148 23.162l-.395-.307-.005.007.4.3zm-6.438 3.774l-.122-.485h-.002l.124.485zm-18.204 1.11v-.5h-.5v.5h.5zm0 15.614v.5h.5V52h-.5zm-11.544 0h-.5v.5h.5V52zm25.234-24.568l.244.436.006-.003.007-.004-.257-.429zm.074-14.504l-.2.459.007.002.193-.461zm-13.764-.74v-.5h-.5v.5h.5zm0 16.28h-.5v.5h.5v-.5zM56.062 3.974v1h1v-1h-1zm0 3.002v2h1v-2h-1zm0 4.002v2h1v-2h-1zm0 4.002v2.001h1V14.98h-1zm0 4.002v2.001h1v-2h-1zm0 4.002v2.001h1v-2h-1zm0 4.002v2.002h1v-2.002h-1zm0 4.003v2h1v-2h-1zm0 4.002v2h1v-2h-1zm0 4.002v2.001h1v-2.001h-1zm0 4.002v2.001h1v-2h-1zm0 4.002v2.001h1v-2h-1zm0 4.002V52h1v-1h-1zm.5 1.501h.962v-1h-.962v1zm2.886 0h1.924v-1h-1.924v1zm3.848 0h1.924v-1h-1.924v1zm3.848 0h.962v-1h-.962v1zm1.462-.5v-.976h-1V52h1zm0-2.928v-1.951h-1v1.951h1zm0-3.903v-1.952h-1v1.952h1zm0-3.904v-1.951h-1v1.951h1zm0-3.903v-.976h-1v.976h1zm-.5-.476h.795v-1h-.795v1zm2.386 0h1.591v-1h-1.59v1zm3.182 0h.796v-1h-.796v1zm.796 0c.337 0 .67-.002.999-.005l-.01-1c-.326.003-.655.005-.99.005v1zm2.997-.049c.69-.023 1.355-.055 1.999-.095l-.063-.998c-.633.04-1.29.071-1.97.094l.034 1zm3.997-.255c.696-.069 1.361-.15 1.995-.242l-.145-.99c-.616.09-1.266.17-1.949.237l.099.995zm3.982-.593c.34-.071.67-.148.987-.228l-.247-.97c-.303.078-.619.15-.947.22l.207.978zm.985-.228c.323-.08.637-.168.942-.26l-.292-.957c-.288.088-.586.17-.893.247l.243.97zm2.783-.946c.63-.284 1.209-.602 1.738-.957l-.557-.83c-.478.32-1.008.612-1.592.875l.41.912zm3.279-2.243a8.33 8.33 0 00.655-.77l-.8-.6a7.334 7.334 0 01-.577.678l.722.692zm.65-.763c.21-.271.406-.557.585-.857l-.857-.514c-.16.266-.333.519-.518.757l.79.614zm1.445-2.726a12.66 12.66 0 00.495-1.974l-.986-.168a11.64 11.64 0 01-.455 1.818l.946.324zm.708-3.978c.016-.327.024-.661.024-1.003h-1c0 .326-.008.644-.023.954l.999.049zm.024-1.003v-1.138h-1v1.138h1zm0-3.413v-2.276h-1v2.276h1zm0-4.551V15h-1v1.138h1zm0-1.138c0-.31-.008-.612-.022-.909l-1 .05c.015.279.022.565.022.859h1zm-.22-2.726a11.108 11.108 0 00-.462-1.79l-.943.334c.177.5.317 1.043.42 1.629l.985-.173zm-1.268-3.48a7.568 7.568 0 00-.548-.77l-.776.631c.17.21.329.433.476.668l.848-.528zm-.538-.756a7.562 7.562 0 00-.614-.713l-.716.699c.193.197.37.403.533.618l.797-.604zm-2.06-1.891a10.799 10.799 0 00-1.626-.864l-.396.918a9.798 9.798 0 011.477.784l.546-.838zm-3.343-1.471a17.693 17.693 0 00-.876-.227l-.226.974c.284.066.56.137.826.214l.276-.961zm-.874-.227c-.299-.07-.608-.137-.928-.2l-.192.982c.308.06.605.124.89.192l.23-.974zm-2.794-.504c-.593-.08-1.216-.15-1.87-.21l-.09.997c.64.058 1.249.126 1.827.204l.133-.991zm-3.742-.347a70.933 70.933 0 00-1.872-.082l-.032 1c.638.02 1.254.046 1.846.08l.058-.998zm-3.744-.12a96.04 96.04 0 00-.935-.004v1c.313 0 .621.001.926.004l.01-1zm-.935-.004h-.962v1h.962v-1zm-2.886 0h-1.924v1h1.924v-1zm-3.848 0h-1.924v1h1.924v-1zm-3.848 0h-1.924v1h1.924v-1zm-3.848 0h-1.924v1h1.924v-1zm-3.848 0h-.962v1h.962v-1zm17.908 24.494h-.916v1h.916v-1zm-2.748 0h-1.831v1h1.831v-1zm-3.663 0h-.915v1h.915v-1zm-.415.5v-1.017h-1v1.017h1zm0-3.052V23.38h-1v2.035h1zm0-4.07V19.31h-1v2.035h1zm0-4.07V15.24h-1v2.035h1zm0-4.07v-1.018h-1v1.018h1zm-.5-.518h.897v-1h-.897v1zm2.691 0h1.795v-1h-1.795v1zm3.59 0h.897v-1h-.898v1zm.897 0c.283 0 .559.002.826.006l.014-1a58.657 58.657 0 00-.84-.006v1zm2.47.058c.602.031 1.144.075 1.63.132l.115-.994a27.748 27.748 0 00-1.692-.137l-.052.999zm3.203.405c.285.073.521.152.713.236l.399-.918a5.764 5.764 0 00-.865-.287l-.247.969zm.72.239c.265.11.486.248.67.412l.665-.747a3.356 3.356 0 00-.95-.588l-.385.922zm1.394 1.789c.049.256.075.541.075.857h1c0-.37-.03-.718-.093-1.045l-.982.188zm.075.857v.962h1v-.962h-1zm0 2.886v1.924h1v-1.924h-1zm0 3.848v.962h1v-.962h-1zm0 .962c0 .358-.029.689-.084.991l.984.18c.067-.37.1-.76.1-1.171h-1zm-.879 2.681c-.203.223-.445.42-.729.59l.515.858c.361-.217.68-.474.953-.774l-.739-.674zm-.716.583a4.628 4.628 0 01-.667.301l.344.94c.296-.11.567-.231.812-.369l-.489-.872zm-2.156.686c-.47.084-.992.15-1.566.197l.082.997c.6-.05 1.153-.12 1.66-.21l-.176-.984zm-3.161.277c-.26.006-.527.009-.802.009v1c.282 0 .557-.003.824-.009l-.022-1zM56.562 3.974v-1h-1v1h1zm30.34.962l-.23.973.004.001.226-.974zm5.994 3.404l-.797.604.01.013.01.014.777-.631zm-.148 23.162l-.79-.614-.005.007-.005.007.8.6zm-6.438 3.774l-.243-.97h-.004l.247.97zm-18.204 1.11v-1h-1v1h1zm0 15.614v1h1v-1h-1zm-11.544 0h-1v1h1v-1zm25.234-24.568l.488.873.013-.008.013-.008-.514-.857zm.074-14.504l-.4.917.008.003.007.003.385-.923zm-13.764-.74v-1h-1v1h1zm0 16.28h-1v1h1v-1zM55.562 3.974v1h2v-1h-2zm0 3.002v2h2v-2h-2zm0 4.002v2h2v-2h-2zm0 4.002v2.001h2V14.98h-2zm0 4.002v2.001h2v-2h-2zm0 4.002v2.001h2v-2h-2zm0 4.002v2.002h2v-2.002h-2zm0 4.003v2h2v-2h-2zm0 4.002v2h2v-2h-2zm0 4.002v2.001h2v-2.001h-2zm0 4.002v2.001h2v-2h-2zm0 4.002v2.001h2v-2h-2zm0 4.002V52h2v-1h-2zm1 2.001h.962v-2h-.962v2zm2.886 0h1.924v-2h-1.924v2zm3.848 0h1.924v-2h-1.924v2zm3.848 0h.962v-2h-.962v2zm1.962-1v-.976h-2V52h2zm0-2.928v-1.951h-2v1.951h2zm0-3.903v-1.952h-2v1.952h2zm0-3.904v-1.951h-2v1.951h2zm0-3.903v-.976h-2v.976h2zm-1 .024h.795v-2h-.795v2zm2.386 0h1.591v-2h-1.59v2zm3.182 0h.796v-2h-.796v2zm.796 0c.339 0 .674-.002 1.004-.005l-.02-2c-.324.003-.652.005-.984.005v2zm3.014-.049a70.3 70.3 0 002.013-.096l-.125-1.996c-.628.04-1.28.07-1.956.093l.068 2zm4.029-.257c.703-.07 1.376-.151 2.018-.245l-.289-1.979a40.45 40.45 0 01-1.926.233l.197 1.99zm4.036-.601c.347-.073.682-.151 1.007-.234l-.493-1.938a23.18 23.18 0 01-.927.215l.413 1.957zm1.003-.233c.33-.083.653-.172.967-.267l-.584-1.913c-.28.085-.569.165-.868.24l.485 1.94zm2.867-.975a12.303 12.303 0 001.812-.998l-1.115-1.66c-.453.303-.958.582-1.518.834l.821 1.824zm3.434-2.352a8.8 8.8 0 00.695-.817l-1.6-1.2c-.165.219-.344.43-.538.632l1.444 1.385zm.684-.803c.223-.287.43-.59.62-.907l-1.715-1.028c-.15.25-.31.485-.484.707l1.579 1.228zm1.524-2.871c.22-.645.392-1.33.515-2.052l-1.972-.336a11.159 11.159 0 01-.435 1.74l1.892.648zm.734-4.116c.017-.335.025-.678.025-1.027h-2c0 .319-.008.628-.022.93l1.997.097zm.025-1.027v-1.138h-2v1.138h2zm0-3.413v-2.276h-2v2.276h2zm0-4.551V15h-2v1.138h2zm0-1.138c0-.317-.008-.629-.023-.933l-1.998.099c.014.27.02.548.02.834h2zm-.228-2.812a11.601 11.601 0 00-.483-1.87l-1.885.667c.166.472.3.987.398 1.548l1.97-.345zM94.257 8.53a8.071 8.071 0 00-.585-.82L92.12 8.97c.157.194.303.4.44.618l1.697-1.058zm-.564-.794a8.045 8.045 0 00-.655-.76l-1.432 1.397c.178.182.342.373.493.57l1.594-1.207zm-2.186-2.008c-.52-.34-1.089-.64-1.701-.904l-.791 1.837c.518.223.984.47 1.4.743l1.092-1.676zM88.03 4.195a18.203 18.203 0 00-.901-.233l-.453 1.948c.277.064.544.133.803.208l.55-1.923zm-.897-.232c-.305-.072-.621-.14-.947-.204L85.8 5.722c.302.059.593.121.87.187l.46-1.946zm-2.842-.514a44.075 44.075 0 00-1.892-.211l-.181 1.992c.634.057 1.236.125 1.806.201l.267-1.982zm-3.78-.35a71.453 71.453 0 00-1.886-.083l-.062 1.999c.634.02 1.244.047 1.832.08L80.51 3.1zm-3.768-.12a99.512 99.512 0 00-.94-.005v2c.311 0 .618.001.92.004l.02-2zm-.94-.005h-.962v2h.962v-2zm-2.886 0h-1.924v2h1.924v-2zm-3.848 0h-1.924v2h1.924v-2zm-3.848 0h-1.924v2h1.924v-2zm-3.848 0h-1.924v2h1.924v-2zm-3.848 0h-.962v2h.962v-2zm17.908 24.494h-.916v2h.916v-2zm-2.748 0h-1.831v2h1.831v-2zm-3.663 0h-.915v2h.915v-2zm.085 1v-1.017h-2v1.017h2zm0-3.052V23.38h-2v2.035h2zm0-4.07V19.31h-2v2.035h2zm0-4.07V15.24h-2v2.035h2zm0-4.07v-1.018h-2v1.018h2zm-1-.018h.897v-2h-.897v2zm2.691 0h1.795v-2h-1.795v2zm3.59 0h.897v-2h-.898v2zm.897 0c.281 0 .554.002.819.006l.028-2a59.688 59.688 0 00-.847-.006v2zm2.445.057c.592.031 1.124.074 1.597.13l.23-1.988a27.528 27.528 0 00-1.723-.139l-.104 1.997zm3.104.39c.266.068.476.14.638.21l.797-1.834a6.27 6.27 0 00-.94-.313l-.495 1.937zm.652.216c.218.09.39.2.53.324l1.33-1.493a3.855 3.855 0 00-1.09-.677l-.77 1.846zm1.095 1.422c.042.22.066.474.066.763h2c0-.396-.033-.777-.102-1.139l-1.964.376zm.066.763v.962h2v-.962h-2zm0 2.886v1.924h2v-1.924h-2zm0 3.848v.962h2v-.962h-2zm0 .962c0 .332-.027.632-.076.902l1.968.358c.073-.402.108-.822.108-1.26h-2zm-.748 2.344a2.724 2.724 0 01-.617.498l1.03 1.715a4.7 4.7 0 001.064-.865l-1.477-1.348zm-.591.483a4.14 4.14 0 01-.596.269l.69 1.878c.316-.116.612-.25.883-.401l-.977-1.745zm-2 .63c-.452.081-.957.145-1.52.192l.165 1.993a18.35 18.35 0 001.706-.215l-.35-1.97zm-3.085.27a33.65 33.65 0 01-.79.009v2c.285 0 .564-.003.835-.01l-.044-1.999zm44.716 24.763l-.077.494h.002l.075-.494zm-6.956-1.776l.164-.472-.003-.001-.161.473zm-6.142-4.292l-.403.295.003.005.4-.3zm-.666-34.706l-.433-.25-.004.008.437.242zm4.144-4.44l-.267-.422-.004.002.271.42zm5.476-2.368l.142.48-.142-.48zm6.068-1.184l.04.498h.003l-.043-.498zm11.396.074l-.058.497h.007l.007.001.044-.498zm5.624 1.036l.14-.48-.013-.004-.127.484zm5.846 2.516l.271-.42-.271.42zm3.848 4.144l-.432.252.002.004.43-.256zm-.518 34.484l-.401-.298-.005.006.406.292zm-5.772 4.366l-.186-.464.186.464zm-10.73-5.698l.045.498h.01l.01-.002-.065-.496zm3.478-.74l-.14-.48.14.48zm2.664-1.702l-.397-.304-.003.004.4.3zm-1.776-29.008l-.238.44.01.005.228-.445zm-17.02-.074l-.228-.445.228.445zm-1.776 29.082l-.397.304.004.006.005.005.388-.315zm2.812 1.702l.14-.48-.005-.002-.135.482zm3.404.74l-.067.495.012.002.012.001.043-.498zm3.996 7.862c-.309 0-.616-.002-.92-.007l-.016 1c.31.005.622.007.936.007v-1zm-2.759-.066a49.06 49.06 0 01-1.833-.123l-.086.996c.611.053 1.235.095 1.87.126l.049-.999zm-3.658-.319a47.32 47.32 0 01-.908-.127l-.15.988c.307.047.617.09.93.13l.128-.99zm-.906-.127a33.45 33.45 0 01-.873-.148l-.18.984c.302.055.601.106.899.152l.154-.988zm-2.608-.51a39.646 39.646 0 01-1.718-.444l-.271.963c.593.167 1.18.319 1.761.455l.228-.974zm-3.418-.96c-.28-.092-.561-.186-.843-.284l-.328.944c.288.1.575.197.861.29l.31-.95zm-.846-.285c-.296-.1-.583-.208-.863-.322l-.378.925c.299.122.605.237.919.343l.322-.946zm-2.509-1.127a11.818 11.818 0 01-1.504-1.031l-.629.777c.507.41 1.051.783 1.631 1.119l.502-.865zm-2.819-2.287c-.2-.226-.392-.461-.575-.705l-.8.6c.199.265.408.522.627.769l.748-.664zm-.571-.7a10.194 10.194 0 01-.515-.773l-.856.517c.175.29.363.572.564.846l.807-.59zm-1.331-2.441a11.505 11.505 0 01-.521-1.789l-.979.202c.139.675.328 1.324.567 1.946l.933-.36zm-.764-3.648a15.31 15.31 0 01-.029-.942h-1c0 .34.01.675.031 1.004l.998-.062zm-.029-.942v-1.05h-1v1.05h1zm0-3.152v-2.102h-1v2.102h1zm0-4.204v-2.101h-1v2.101h1zm0-4.203v-2.101h-1v2.101h1zm0-4.203v-2.102h-1v2.102h1zm0-4.203v-1.051h-1v1.05h1zm0-1.051c0-.27.007-.538.021-.801l-.999-.053c-.014.281-.022.566-.022.854h1zm.196-2.388c.091-.532.214-1.047.368-1.547l-.956-.294c-.167.542-.299 1.1-.397 1.672l.985.169zm.936-3.027c.112-.24.232-.475.36-.707l-.875-.484c-.14.252-.27.508-.391.769l.906.422zm.355-.699c.125-.216.254-.426.387-.631l-.839-.545c-.142.22-.28.445-.414.675l.866.502zm1.257-1.824c.316-.385.649-.745.999-1.08l-.691-.723a13.2 13.2 0 00-1.081 1.169l.773.634zm2.122-2.028c.197-.145.398-.285.604-.418l-.543-.84c-.224.145-.443.296-.656.455l.595.803zm.6-.416c.393-.249.813-.488 1.26-.717l-.456-.89c-.472.242-.919.496-1.339.763l.535.844zm3.95-1.859c.449-.158.915-.308 1.4-.451l-.283-.96c-.501.148-.983.304-1.449.468l.332.943zm1.4-.451c.247-.073.492-.143.735-.21l-.264-.964c-.25.068-.501.14-.754.214l.283.96zm2.215-.58a29.596 29.596 0 011.493-.298l-.17-.986c-.506.088-1.02.19-1.543.309l.22.975zm2.996-.513c.255-.029.506-.053.755-.073l-.079-.996c-.26.02-.522.045-.787.075l.111.994zm.758-.073c.445-.038.896-.071 1.355-.1l-.062-.997a57.75 57.75 0 00-1.379.1l.086.997zm4.072-.207c.448-.009.902-.013 1.361-.013v-1c-.465 0-.925.004-1.38.013l.019 1zm1.361-.013c.506 0 .997.005 1.473.015l.02-1c-.483-.01-.98-.015-1.493-.015v1zm4.406.152c.509.04.994.086 1.456.14l.117-.993a37.546 37.546 0 00-1.496-.144l-.077.997zm1.47.142c.45.04.914.094 1.395.163l.142-.99c-.497-.071-.98-.128-1.449-.17l-.088.997zm4.167.684a43.4 43.4 0 011.374.338l.254-.968c-.479-.125-.947-.24-1.406-.345l-.222.975zm1.361.334c.256.075.507.151.753.23l.302-.954a32.3 32.3 0 00-.775-.236l-.28.96zm2.234.744c.507.192.987.393 1.441.603l.419-.908c-.477-.22-.978-.43-1.505-.63l-.355.935zm2.822 1.312c.228.13.448.264.659.4l.542-.84a15.401 15.401 0 00-.704-.428l-.497.868zm.659.4c.38.245.743.515 1.091.812l.649-.762a11.354 11.354 0 00-1.198-.89l-.542.84zm2.937 2.822c.263.362.513.747.75 1.154l.864-.504a14.791 14.791 0 00-.805-1.237l-.809.587zm.752 1.158c.139.233.268.472.389.719l.898-.44c-.132-.27-.274-.534-.427-.79l-.86.51zm.989 2.242c.158.51.283 1.046.375 1.605l.987-.163a13.193 13.193 0 00-.406-1.737l-.956.295zm.549 3.254c.013.273.02.551.02.834h1c0-.299-.007-.593-.021-.883l-.999.05zm.02.834v1.05h1v-1.05h-1zm0 3.152v2.102h1v-2.102h-1zm0 4.204v2.101h1v-2.101h-1zm0 4.203v2.101h1v-2.101h-1zm0 4.203v2.102h1v-2.102h-1zm0 4.203v1.051h1v-1.05h-1zm0 1.051c0 .3-.009.595-.028.884l.998.065c.02-.312.03-.628.03-.949h-1zm-.267 2.628a10.41 10.41 0 01-.506 1.674l.93.37c.233-.588.418-1.2.554-1.834l-.978-.21zm-1.289 3.233c-.152.246-.316.487-.491.723l.802.596c.192-.258.372-.523.54-.794l-.851-.525zm-.496.73c-.171.238-.351.469-.539.692l.764.645c.205-.243.401-.495.587-.754l-.812-.584zm-1.773 1.94a12 12 0 01-1.412 1.05l.537.843a13.06 13.06 0 001.53-1.137l-.655-.756zm-2.963 1.9a16.02 16.02 0 01-.816.353l.372.928c.296-.118.586-.244.868-.376l-.424-.906zm-.816.353c-.29.116-.583.228-.878.337l.345.938c.304-.111.606-.227.905-.347l-.372-.928zm-2.661.936c-.596.183-1.2.35-1.814.503l.241.97a36.042 36.042 0 001.866-.517l-.293-.956zm-3.654.911c-.611.12-1.23.226-1.858.318l.145.99a40.394 40.394 0 001.906-.326l-.193-.982zm-3.731.55c-.619.063-1.247.112-1.882.15l.058.998c.65-.038 1.291-.09 1.925-.153l-.101-.995zm-3.77.222a49.49 49.49 0 01-.946.009v1c.323 0 .645-.003.964-.009l-.018-1zm-.798-8.205c-.355 0-.698-.002-1.03-.007l-.014 1c.336.005.684.007 1.044.007v-1zm-3.082-.075c-.36-.02-.7-.043-1.019-.071l-.086.996c.33.029.68.053 1.05.074l.055-.999zm-.994-.068a19.926 19.926 0 01-.84-.133l-.177.984c.297.053.591.1.882.14l.135-.991zm-2.507-.498c-.272-.07-.547-.146-.825-.227l-.28.96c.288.084.574.162.856.235l.249-.968zm-.83-.228a6.998 6.998 0 01-.738-.25l-.375.926c.267.109.548.204.843.287l.27-.963zm-2.04-1.012a3.833 3.833 0 01-.519-.524l-.776.63c.195.24.413.46.654.662l.641-.768zm-.51-.513a3.93 3.93 0 01-.389-.622l-.893.449c.138.275.301.536.488.78l.794-.607zm-.811-2.042a5.81 5.81 0 01-.048-.762h-1c0 .306.019.603.056.891l.992-.13zm-.048-.762v-1.055h-1v1.055h1zm0-3.164v-2.108h-1v2.108h1zm0-4.218v-2.109h-1v2.11h1zm0-4.218V25.12h-1v2.11h1zm0-4.218v-2.109h-1v2.11h1zm0-4.218v-1.054h-1v1.055h1zm0-1.054c0-.497.045-.954.131-1.372l-.979-.202a7.76 7.76 0 00-.152 1.574h1zm1.37-3.675a4.719 4.719 0 011.097-.764l-.457-.89a5.7 5.7 0 00-1.326.927l.686.727zm1.097-.764c.283-.146.595-.28.938-.404l-.339-.941a8.93 8.93 0 00-1.056.455l.457.89zm2.961-.938c.641-.12 1.343-.214 2.106-.282l-.088-.997a23.66 23.66 0 00-2.203.296l.185.983zm4.245-.4a41.74 41.74 0 011.075-.013v-1c-.376 0-.742.004-1.1.013l.025 1zm1.075-.013c.369 0 .728.005 1.077.014l.026-1a42.06 42.06 0 00-1.103-.014v1zm3.218.138a21.03 21.03 0 012.107.298l.194-.98a22.02 22.02 0 00-2.207-.314l-.094.996zm4.123.86c.34.129.65.27.931.422l.476-.88a8.84 8.84 0 00-1.051-.477l-.356.934zm.941.427c.421.216.783.467 1.089.752l.681-.732a5.841 5.841 0 00-1.313-.91l-.457.89zm2.333 3.014c.088.412.133.861.133 1.351h1c0-.55-.051-1.071-.155-1.56l-.978.209zm.133 1.351v1.055h1v-1.055h-1zm0 3.163v2.11h1V20.9h-1zm0 4.218v2.11h1v-2.11h-1zm0 4.218v2.11h1v-2.11h-1zm0 4.219v2.108h1v-2.108h-1zm0 4.218v1.054h1v-1.055h-1zm0 1.054c0 .266-.016.52-.047.762l.991.129c.038-.288.056-.585.056-.891h-1zm-.47 2.182c-.11.22-.24.427-.389.622l.794.608c.188-.245.351-.506.489-.781l-.894-.449zm-.392.626a3.52 3.52 0 01-.476.517l.665.747c.227-.202.431-.424.611-.664l-.8-.6zm-1.701 1.273a6.329 6.329 0 01-.703.249l.28.96c.285-.083.557-.18.814-.288l-.391-.92zm-.703.249c-.282.082-.562.159-.841.23l.246.969c.29-.074.582-.154.875-.239l-.28-.96zm-2.543.594c-.289.05-.575.093-.859.13l.129.992c.298-.04.599-.085.9-.137l-.17-.985zm-.84.128c-.309.028-.642.052-.999.072l.057.999c.366-.02.71-.046 1.032-.075l-.09-.996zm-3.013.14c-.325.004-.662.006-1.012.006v1c.355 0 .696-.002 1.026-.007l-.014-1zm-8.56 8.202l-.154.988h.004l.15-.988zm-6.956-1.776l.328-.945-.006-.002-.322.947zm-6.142-4.292l-.807.59.007.01.8-.6zm-.666-34.706l-.865-.501-.005.009-.005.008.875.484zm4.144-4.44l-.535-.845-.008.005.543.84zm5.476-2.368l.284.959-.284-.959zm6.068-1.184l.079.997h.007l-.086-.997zm11.396.074l-.117.993.015.002.014.001.088-.996zm5.624 1.036l.28-.96-.013-.004-.013-.003-.254.967zm5.846 2.516l.542-.84-.542.84zm3.848 4.144l-.864.504.005.007.859-.511zm-.518 34.484l-.802-.597-.005.007-.005.007.812.583zm-5.772 4.366l-.371-.928.371.928zm-10.73-5.698l.091.996.019-.002.02-.002-.13-.992zm3.478-.74l-.28-.96.28.96zm2.664-1.702l-.794-.608-.006.008.8.6zm-1.776-29.008l-.475.88.009.005.009.005.457-.89zm-17.02-.074l-.457-.89.457.89zm-1.776 29.082l-.794.607.009.012.009.012.776-.631zm2.812 1.702l.28-.96-.01-.003-.27.963zm3.404.74l-.135.99.024.004.025.002.086-.996zm3.996 7.362c-.307 0-.611-.002-.913-.007l-.03 2c.311.005.626.007.943.007v-2zm-2.734-.065a48.808 48.808 0 01-1.815-.122l-.172 1.992a50.35 50.35 0 001.889.127l.098-1.997zm-3.619-.316c-.302-.039-.601-.08-.896-.126l-.301 1.978c.31.047.624.09.941.132l.256-1.984zm-.893-.125a33.302 33.302 0 01-.86-.146l-.36 1.968c.306.056.61.107.912.154l.308-1.976zm-2.571-.503a39.632 39.632 0 01-1.697-.438l-.542 1.925c.6.17 1.194.323 1.783.46l.456-1.947zm-3.377-.95c-.277-.09-.555-.183-.834-.28l-.656 1.89c.292.1.581.198.87.292l.62-1.901zm-.84-.282a14.743 14.743 0 01-.835-.311l-.756 1.851c.308.126.624.244.948.354l.643-1.894zm-2.42-1.086a11.227 11.227 0 01-1.439-.987l-1.258 1.555c.527.426 1.093.814 1.695 1.163l1.002-1.731zm-2.694-2.186c-.192-.216-.375-.44-.55-.673l-1.6 1.2c.207.276.425.543.653.8l1.497-1.327zm-.543-.663a10.03 10.03 0 01-.49-.737l-1.712 1.034c.182.303.379.597.588.884l1.614-1.181zm-1.267-2.326a10.908 10.908 0 01-.498-1.71l-1.959.404c.145.7.341 1.375.59 2.024l1.867-.718zm-.732-3.498a14.31 14.31 0 01-.028-.912h-2c0 .35.011.695.032 1.035l1.996-.123zm-.028-.912v-1.05h-2v1.05h2zm0-3.152v-2.102h-2v2.102h2zm0-4.204v-2.101h-2v2.101h2zm0-4.203v-2.101h-2v2.101h2zm0-4.203v-2.102h-2v2.102h2zm0-4.203v-1.051h-2v1.05h2zm0-1.051c0-.262.007-.52.02-.775l-1.997-.105c-.015.29-.023.584-.023.88h2zm.189-2.304c.088-.51.205-1.005.352-1.484l-1.911-.588a13.773 13.773 0 00-.412 1.735l1.971.337zm.897-2.9c.106-.23.221-.455.343-.676l-1.75-.968c-.145.262-.28.529-.406.8l1.813.844zm.334-.659c.121-.209.245-.412.374-.61l-1.678-1.089c-.147.227-.29.46-.427.697l1.731 1.002zm1.211-1.758c.303-.37.622-.715.958-1.037l-1.383-1.444c-.395.378-.769.783-1.122 1.213l1.547 1.268zm2.033-1.943c.188-.14.38-.273.577-.4l-1.086-1.68c-.233.15-.46.308-.682.473l1.191 1.607zm.569-.395c.38-.24.787-.472 1.221-.695l-.912-1.78c-.485.248-.944.51-1.379.785l1.07 1.69zm3.849-1.81c.44-.155.898-.303 1.376-.444l-.567-1.918a30 30 0 00-1.473.475l.664 1.887zm1.376-.444c.243-.072.485-.14.725-.206l-.528-1.93c-.253.07-.508.142-.764.218l.567 1.918zm2.183-.571c.5-.113.989-.21 1.468-.294l-.34-1.97c-.515.088-1.037.193-1.569.313l.441 1.95zm2.942-.504c.249-.028.495-.052.738-.071l-.158-1.994c-.265.021-.533.047-.803.077l.223 1.988zm.745-.072c.44-.037.888-.07 1.342-.098l-.123-1.997c-.47.03-.933.063-1.39.103l.171 1.992zm4.039-.205a71.23 71.23 0 011.351-.013v-2c-.469 0-.932.004-1.389.013l.038 2zm1.351-.013c.503 0 .99.005 1.462.015l.042-2c-.487-.01-.988-.015-1.504-.015v2zm4.368.15a36.1 36.1 0 011.435.14l.234-1.987a37.842 37.842 0 00-1.516-.146l-.153 1.994zm1.464.142c.44.039.896.092 1.368.16l.283-1.98a27.56 27.56 0 00-1.475-.172l-.176 1.992zm4.099.674c.443.1.896.212 1.36.333l.507-1.934a46.56 46.56 0 00-1.421-.35l-.446 1.95zm1.333.326c.252.074.5.149.741.226l.606-1.906a35.57 35.57 0 00-.787-.24l-.56 1.92zm2.197.731c.496.189.966.386 1.408.59l.838-1.816a23.34 23.34 0 00-1.536-.643l-.71 1.87zm2.75 1.279c.222.126.434.255.637.386l1.084-1.68a15.701 15.701 0 00-.727-.442l-.994 1.736zm.637.386c.361.233.707.49 1.038.772l1.297-1.523a11.764 11.764 0 00-1.251-.93l-1.084 1.681zm2.803 2.695c.253.349.494.72.723 1.113l1.728-1.008a15.36 15.36 0 00-.832-1.28l-1.619 1.175zm.728 1.12c.131.221.254.449.368.683l1.798-.878a11.738 11.738 0 00-.447-.827l-1.719 1.022zm.94 2.135c.151.488.271 1 .36 1.538l1.973-.326a13.622 13.622 0 00-.422-1.802l-1.911.59zm.527 3.131c.014.264.02.534.02.809h2c0-.307-.007-.61-.022-.908l-1.998.1zm.02.809v1.05h2v-1.05h-2zm0 3.152v2.102h2v-2.102h-2zm0 4.204v2.101h2v-2.101h-2zm0 4.203v2.101h2v-2.101h-2zm0 4.203v2.102h2v-2.102h-2zm0 4.203v1.051h2v-1.05h-2zm0 1.051c0 .29-.009.574-.027.852l1.996.13c.021-.323.031-.65.031-.982h-2zm-.256 2.523a10.02 10.02 0 01-.481 1.594l1.858.739a11.99 11.99 0 00.579-1.913l-1.956-.42zm-1.225 3.075a9.944 9.944 0 01-.467.687l1.605 1.194c.2-.27.388-.546.563-.83l-1.701-1.051zm-.477.7c-.164.229-.336.45-.516.662l1.529 1.29c.214-.253.418-.515.611-.785l-1.624-1.166zm-1.694 1.855c-.418.361-.869.697-1.354 1.006l1.075 1.687a13.53 13.53 0 001.588-1.181l-1.309-1.512zm-2.848 1.825c-.256.12-.519.233-.789.342l.743 1.856c.305-.122.603-.25.894-.387l-.848-1.811zm-.789.342c-.286.114-.574.224-.865.331l.69 1.878a36.2 36.2 0 00.918-.352l-.743-1.858zm-2.622.922a35.08 35.08 0 01-1.789.496l.483 1.94a37.01 37.01 0 001.891-.523l-.585-1.913zm-3.604.899a38.97 38.97 0 01-1.835.314l.291 1.978a41.074 41.074 0 001.929-.33l-.385-1.962zm-3.685.542c-.612.062-1.233.112-1.861.148l.117 1.997c.656-.038 1.304-.09 1.945-.155l-.201-1.99zm-3.73.22c-.31.006-.622.009-.936.009v2c.327 0 .651-.003.974-.01l-.038-1.999zm-.788-8.205a71.7 71.7 0 01-1.023-.007l-.028 2c.339.005.689.007 1.051.007v-2zm-3.054-.074a32.1 32.1 0 01-1.003-.07l-.173 1.992c.336.03.691.054 1.065.075l.111-1.997zm-.955-.065a19.61 19.61 0 01-.819-.13l-.353 1.969c.303.055.604.102.902.143l.27-1.982zm-2.449-.487a25.793 25.793 0 01-.81-.222l-.56 1.92c.293.086.584.165.872.24l.498-1.938zm-.82-.225a6.402 6.402 0 01-.685-.232l-.751 1.854c.286.116.585.217.897.304l.539-1.926zm-1.855-.914a3.314 3.314 0 01-.451-.456l-1.552 1.262c.215.265.457.508.722.73l1.281-1.536zm-.432-.433a3.364 3.364 0 01-.34-.542l-1.787.897c.152.304.331.59.538.86l1.589-1.215zm-.713-1.803a5.313 5.313 0 01-.044-.697h-2c0 .326.02.645.06.956l1.984-.259zm-.044-.697v-1.055h-2v1.055h2zm0-3.164v-2.108h-2v2.108h2zm0-4.218v-2.109h-2v2.11h2zm0-4.218V25.12h-2v2.11h2zm0-4.218v-2.109h-2v2.11h2zm0-4.218v-1.054h-2v1.055h2zm0-1.054c0-.467.042-.89.121-1.27l-1.959-.405a8.311 8.311 0 00-.162 1.675h2zm1.213-3.312c.271-.255.596-.484.982-.682l-.914-1.78a6.237 6.237 0 00-1.441 1.008l1.373 1.454zm.982-.682c.262-.135.555-.262.88-.38l-.679-1.88a9.558 9.558 0 00-1.115.48l.914 1.78zm2.825-.891a21.31 21.31 0 012.059-.276l-.178-1.992c-.804.071-1.554.172-2.25.302l.369 1.966zm4.166-.392c.344-.009.698-.013 1.062-.013v-2c-.38 0-.75.005-1.112.013l.05 2zm1.062-.013c.365 0 .719.005 1.064.013l.052-1.999c-.363-.01-.735-.014-1.116-.014v2zm3.172.136c.749.07 1.434.168 2.056.29l.388-1.961a22.53 22.53 0 00-2.257-.32l-.187 1.99zm3.991.829c.322.122.612.254.872.395l.951-1.76a9.333 9.333 0 00-1.111-.505l-.712 1.87zm.89.405a4.3 4.3 0 01.977.673l1.362-1.465a6.32 6.32 0 00-1.425-.988l-.914 1.78zm2.073 2.673c.08.373.122.788.122 1.247h2c0-.581-.053-1.137-.166-1.664l-1.956.417zm.122 1.247v1.055h2v-1.055h-2zm0 3.163v2.11h2V20.9h-2zm0 4.218v2.11h2v-2.11h-2zm0 4.218v2.11h2v-2.11h-2zm0 4.219v2.108h2v-2.108h-2zm0 4.218v1.054h2v-1.055h-2zm0 1.054c0 .246-.015.478-.043.697l1.983.259a7.3 7.3 0 00.06-.956h-2zm-.417 1.958a3.43 3.43 0 01-.339.542l1.589 1.215a5.46 5.46 0 00.538-.86l-1.788-.897zm-.345.55a3.025 3.025 0 01-.409.444l1.33 1.493a4.98 4.98 0 00.679-.737l-1.6-1.2zm-1.497 1.113a5.867 5.867 0 01-.647.229l.56 1.92c.303-.088.592-.19.869-.308l-.782-1.84zm-.647.229c-.276.08-.551.156-.824.225l.492 1.939c.296-.076.594-.157.892-.244l-.56-1.92zm-2.489.581c-.281.049-.561.091-.838.127l.259 1.984c.305-.04.612-.087.92-.14l-.341-1.971zm-.799.123c-.303.028-.63.051-.982.071l.113 1.997c.371-.02.721-.046 1.05-.076l-.181-1.992zm-2.975.137a71.98 71.98 0 01-1.005.007v2c.357 0 .701-.002 1.033-.007l-.028-2zm52.463 2.931h.5v-.5h-.5v.5zm-13.542-3.33l-.264.425.004.002.26-.427zm.074-32.856l.261.426.005-.002-.266-.424zm13.468-3.478v.5h.5v-.5h-.5zm0-6.142v-.5h-.5v.5h.5zm11.396 0h.5v-.5h-.5v.5zm0 6.142h-.5v.5h.5v-.5zm13.394 3.478l-.265.424.002.001.263-.425zm2.96 30.044l.38.325-.38-.325zm-7.03 4.662l.163.473.005-.002-.168-.471zm-9.324 1.48v-.5h-.5v.5h.5zm0 6.29v.5h.5v-.5h-.5zm-11.396 0h-.5v.5h.5v-.5zm.148-38.332h.5v-.5h-.5v.5zm-5.476 1.628l-.302-.398.302.398zm0 21.312l-.284.412.008.005.009.005.267-.422zm5.476 1.406v.5h.5v-.5h-.5zm11.1.074h-.5v.5h.5v-.5zm5.402-1.48l-.277-.416-.007.004.284.412zm.074-21.312l.302-.398-.302.398zm-5.476-1.628v-.5h-.5v.5h.5zM181.954 45.95c-.293 0-.584-.003-.871-.01l-.024 1c.296.007.594.01.895.01v-1zm-2.609-.093a30.975 30.975 0 01-1.728-.175l-.129.991c.583.076 1.177.136 1.783.181l.074-.997zm-3.44-.451a25.085 25.085 0 01-1.687-.386l-.257.967c.571.151 1.156.285 1.754.4l.19-.981zm-3.34-.89a21.166 21.166 0 01-1.604-.631l-.404.915c.545.24 1.105.46 1.68.66l.328-.945zm-3.148-1.393a18.506 18.506 0 01-.745-.43l-.52.854c.257.157.518.307.784.453l.481-.877zm-.741-.428a12.888 12.888 0 01-.818-.552l-.591.807c.282.206.576.405.881.595l.528-.85zm-2.294-1.84a10.102 10.102 0 01-1.208-1.53l-.841.54c.384.6.827 1.16 1.327 1.682l.722-.692zm-2.098-3.265a11.398 11.398 0 01-.56-1.878l-.979.204c.149.714.352 1.396.61 2.044l.929-.37zm-.818-3.836a16.15 16.15 0 01-.03-.994h-1c0 .358.011.71.032 1.055l.998-.061zm-.03-.994v-.974h-1v.974h1zm0-2.923v-1.949h-1v1.949h1zm0-3.897v-1.95h-1v1.949h1zm0-3.898v-.974h-1v.974h1zm0-.974c0-.352.01-.697.029-1.034l-.998-.057c-.021.357-.031.72-.031 1.091h1zm.28-3.074a12.21 12.21 0 01.551-1.963l-.937-.352c-.252.672-.45 1.38-.596 2.123l.982.192zm1.438-3.784a10.13 10.13 0 011.226-1.607l-.731-.683a11.112 11.112 0 00-1.347 1.766l.852.524zm2.746-2.95c.269-.199.552-.389.847-.57l-.522-.852c-.319.195-.624.4-.917.615l.592.806zm.852-.572c.242-.152.488-.3.737-.44l-.494-.87c-.262.149-.52.303-.774.462l.531.848zm2.267-1.226a21.121 21.121 0 011.591-.657l-.344-.939c-.569.209-1.124.438-1.666.688l.419.908zm3.231-1.186c.546-.154 1.105-.29 1.677-.409l-.202-.98a25.75 25.75 0 00-1.747.426l.272.963zm3.381-.702a29.067 29.067 0 011.722-.188l-.079-.997c-.605.048-1.198.113-1.781.194l.138.99zm3.454-.277c.287-.007.577-.011.869-.011v-1c-.3 0-.598.004-.894.011l.025 1zm1.369-.511v-.768h-1v.768h1zm0-2.303V2.947h-1v1.536h1zm0-3.071V.644h-1v.768h1zm-.5-.268h.95v-1h-.95v1zm2.849 0h1.899v-1h-1.899v1zm3.799 0h1.899v-1h-1.899v1zm3.798 0h.95v-1h-.95v1zm.45-.5v.768h1V.644h-1zm0 2.303v1.536h1V2.947h-1zm0 3.071v.768h1v-.768h-1zm.5 1.268c.291 0 .579.004.864.01l.026-.999a35.119 35.119 0 00-.89-.011v1zm2.587.101c.582.047 1.153.11 1.713.188l.139-.99c-.58-.082-1.17-.147-1.772-.195l-.08.997zm3.407.483c.568.119 1.124.255 1.668.41l.273-.962a25.132 25.132 0 00-1.737-.427l-.204.98zm3.298.94c.54.2 1.067.418 1.581.656l.421-.907a22.32 22.32 0 00-1.656-.687l-.346.938zm3.102 1.44c.248.14.493.286.735.438l.531-.848a22.03 22.03 0 00-.771-.46l-.495.87zm.737.44c.296.182.58.373.85.572l.593-.806a13.888 13.888 0 00-.917-.617l-.526.85zm2.38 1.918c.47.497.884 1.031 1.243 1.603l.847-.532a11.323 11.323 0 00-1.363-1.758l-.727.687zm2.15 3.42c.239.617.428 1.271.567 1.962l.981-.197a13.059 13.059 0 00-.615-2.125l-.933.36zm.827 4.004c.02.338.03.683.03 1.036h1c0-.372-.011-.737-.032-1.095l-.998.06zm.03 1.036v.974h1v-.974h-1zm0 2.923v1.949h1v-1.95h-1zm0 3.897v1.949h1v-1.949h-1zm0 3.898v.974h1v-.974h-1zm0 .974c0 .335-.012.664-.035.986l.997.072c.025-.347.038-.7.038-1.058h-1zm-.335 2.923a10.346 10.346 0 01-.635 1.843l.911.413a11.41 11.41 0 00.695-2.02l-.971-.236zm-1.607 3.53c-.187.263-.387.52-.602.77l.76.65c.233-.272.453-.553.658-.84l-.816-.58zm-.602.77c-.223.26-.456.513-.698.756l.71.705c.259-.261.508-.531.748-.81l-.76-.651zm-2.251 2.109a15.52 15.52 0 01-1.731 1.127l.49.872a16.75 16.75 0 001.842-1.2l-.601-.8zm-3.596 2.033c-.316.131-.639.256-.971.374l.336.942a22.01 22.01 0 001.02-.393l-.385-.923zm-.966.372a25.06 25.06 0 01-1.107.353l.281.96c.388-.114.772-.236 1.152-.367l-.326-.946zm-3.366.906c-.751.15-1.518.268-2.301.356l.112.993a28.86 28.86 0 002.384-.368l-.195-.98zm-4.627.526a32.21 32.21 0 01-1.168.021v1c.405 0 .806-.007 1.203-.021l-.035-1zm-1.668.521v.786h1v-.786h-1zm0 2.359v1.572h1V48.81h-1zm0 3.145v.786h1v-.786h-1zm.5.286h-.95v1h.95v-1zm-2.849 0h-1.899v1h1.899v-1zm-3.799 0h-1.899v1h1.899v-1zm-3.798 0h-.95v1h.95v-1zm-.45.5v-.786h-1v.786h1zm0-2.359V48.81h-1v1.572h1zm0-3.145v-.786h-1v.786h1zm-.352-33.328c-.522 0-1.026.029-1.511.088l.12.992c.442-.053.905-.08 1.391-.08v-1zm-4.455.92a7.773 7.773 0 00-1.323.81l.604.796a6.816 6.816 0 011.154-.705l-.435-.9zm-1.323.81a6.507 6.507 0 00-.988.918l.756.655a5.54 5.54 0 01.836-.777l-.604-.796zm-2.205 3.345c-.093.43-.139.879-.139 1.345h1c0-.4.039-.778.116-1.132l-.977-.213zm-.139 1.345v1.085h1v-1.085h-1zm0 3.256v2.17h1v-2.17h-1zm0 4.341v2.171h1v-2.17h-1zm0 4.342v1.085h1v-1.085h-1zm0 1.085c0 .447.047.877.143 1.288l.974-.227a4.66 4.66 0 01-.117-1.061h-1zm1.382 3.575c.285.302.613.58.98.833l.568-.824a5.13 5.13 0 01-.822-.696l-.726.687zm.997.843c.424.269.874.5 1.349.696l.38-.925a7.655 7.655 0 01-1.194-.615l-.535.844zm4.26 1.408c.478.05.972.076 1.483.076v-1c-.478 0-.937-.023-1.377-.07l-.106.994zm1.983-.424V37.74h-1v1.014h1zm0-3.043v-2.03h-1v2.03h1zm0-4.058v-2.029h-1v2.03h1zm0-4.058v-2.028h-1v2.028h1zm0-4.057v-2.03h-1v2.03h1zm0-4.058v-2.029h-1v2.03h1zm0-4.058v-1.014h-1v1.014h1zm11.1 23.406V37.81h-1v1.018h1zm0-3.053V33.74h-1v2.035h1zm0-4.07v-2.034h-1v2.035h1zm0-4.07V25.6h-1v2.035h1zm0-4.07V21.53h-1v2.035h1zm0-4.07V17.46h-1v2.035h1zm0-4.07v-1.017h-1v1.018h1zm-.5-.517c.486 0 .949.027 1.391.08l.12-.992a12.608 12.608 0 00-1.511-.088v1zm4.02.82c.412.2.796.435 1.154.706l.604-.796a7.773 7.773 0 00-1.323-.81l-.435.9zm1.154.706c.32.243.599.503.836.777l.756-.655a6.507 6.507 0 00-.988-.918l-.604.796zm1.832 2.762c.077.354.116.731.116 1.132h1c0-.466-.046-.915-.139-1.345l-.977.213zm.116 1.132v1.085h1v-1.085h-1zm0 3.256v2.17h1v-2.17h-1zm0 4.341v2.171h1v-2.17h-1zm0 4.342v1.085h1v-1.085h-1zm0 1.085c0 .38-.041.734-.122 1.066l.971.237a5.5 5.5 0 00.151-1.303h-1zm-1.153 2.89a5.31 5.31 0 01-.844.69l.554.832c.375-.25.71-.523 1.003-.82l-.713-.702zm-.851.694c-.36.249-.746.464-1.158.646l.404.915a8.08 8.08 0 001.322-.737l-.568-.824zm-3.754 1.319a12.29 12.29 0 01-1.364.073v1c.509 0 1.001-.026 1.475-.08l-.111-.993zm-12.612 8.195h1v-1h-1v1zm-13.542-3.33l-.528.85.008.004.52-.854zm.074-32.856l.523.853.008-.006-.531-.847zm13.468-3.478v1h1v-1h-1zm0-6.142v-1h-1v1h1zm11.396 0h1v-1h-1v1zm0 6.142h-1v1h1v-1zm13.394 3.478l-.531.847.005.003.526-.85zm2.96 30.044l.759.65-.759-.65zm-7.03 4.662l.326.945.009-.003-.335-.942zm-9.324 1.48v-1h-1v1h1zm0 6.29v1h1v-1h-1zm-11.396 0h-1v1h1v-1zm.148-38.332h1v-1h-1v1zm-5.476 1.628l-.604-.797.604.797zm0 21.312l-.568.823.016.011.017.01.535-.844zm5.476 1.406v1h1v-1h-1zm11.1.074h-1v1h1v-1zm5.402-1.48l-.555-.832-.006.004-.007.005.568.823zm.074-21.312l.604-.797-.604.797zm-5.476-1.628v-1h-1v1h1zM181.954 45.45c-.289 0-.576-.003-.86-.01l-.046 2c.299.007.602.01.906.01v-2zm-2.573-.092c-.579-.043-1.146-.1-1.7-.172l-.258 1.983c.593.077 1.196.138 1.811.184l.147-1.995zM176 44.915a24.718 24.718 0 01-1.654-.378l-.513 1.933c.582.155 1.178.29 1.787.409l.38-1.964zm-3.27-.872a20.802 20.802 0 01-1.568-.616l-.807 1.83c.558.246 1.13.471 1.718.675l.657-1.889zm-3.073-1.358a18.122 18.122 0 01-.725-.42l-1.04 1.71c.264.16.531.314.803.463l.962-1.753zm-.717-.414c-.274-.17-.536-.348-.786-.53l-1.183 1.612c.293.214.597.42.913.616l1.056-1.698zm-2.197-1.762a9.583 9.583 0 01-1.148-1.454l-1.683 1.081c.402.626.865 1.212 1.387 1.757l1.444-1.384zm-1.994-3.104a10.84 10.84 0 01-.536-1.795l-1.957.409c.154.74.365 1.45.634 2.126l1.859-.74zm-.784-3.682a15.93 15.93 0 01-.029-.963h-2c0 .368.011.73.033 1.086l1.996-.123zm-.029-.963v-.974h-2v.974h2zm0-2.923v-1.949h-2v1.949h2zm0-3.897v-1.95h-2v1.949h2zm0-3.898v-.974h-2v.974h2zm0-.974c0-.343.009-.678.028-1.006l-1.997-.114c-.02.367-.031.74-.031 1.12h2zm.271-2.978c.13-.667.306-1.294.528-1.884l-1.873-.703c-.262.7-.468 1.435-.618 2.204l1.963.383zm1.373-3.618a9.595 9.595 0 011.165-1.528l-1.461-1.365a11.616 11.616 0 00-1.408 1.845l1.704 1.048zm2.615-2.81c.259-.19.53-.371.814-.546l-1.046-1.704a13.88 13.88 0 00-.951.638l1.183 1.612zm.822-.55c.236-.149.476-.292.72-.43l-.989-1.739c-.268.152-.532.31-.793.474l1.062 1.694zm2.211-1.196a20.63 20.63 0 011.554-.641l-.688-1.878a22.64 22.64 0 00-1.704.703l.838 1.816zm3.157-1.16c.535-.15 1.083-.283 1.643-.4l-.405-1.958c-.605.125-1.199.27-1.78.434l.542 1.925zm3.315-.687a28.554 28.554 0 011.692-.184l-.158-1.994c-.614.049-1.217.114-1.81.197l.276 1.98zm3.398-.272c.283-.007.568-.011.856-.011v-2c-.304 0-.607.004-.906.011l.05 2zm1.856-1.011v-.768h-2v.768h2zm0-2.303V2.947h-2v1.536h2zm0-3.071V.644h-2v.768h2zm-1 .232h.95v-2h-.95v2zm2.849 0h1.899v-2h-1.899v2zm3.799 0h1.899v-2h-1.899v2zm3.798 0h.95v-2h-.95v2zm-.05-1v.768h2V.644h-2zm0 2.303v1.536h2V2.947h-2zm0 3.071v.768h2v-.768h-2zm1 1.768c.286 0 .57.004.851.01l.051-1.999a35.493 35.493 0 00-.902-.011v2zm2.547.1c.573.045 1.133.107 1.683.185l.279-1.98a30.35 30.35 0 00-1.802-.2l-.16 1.994zm3.345.474c.557.116 1.101.25 1.633.4l.547-1.923a25.587 25.587 0 00-1.772-.435l-.408 1.958zm3.227.92a20.5 20.5 0 011.544.64l.841-1.815a22.82 22.82 0 00-1.693-.702l-.692 1.876zm3.028 1.404c.242.137.481.28.716.427l1.062-1.694c-.259-.163-.522-.32-.789-.472l-.989 1.739zm.721.43c.285.177.558.36.817.551l1.185-1.611a14.37 14.37 0 00-.95-.64l-1.052 1.7zm2.28 1.837c.447.474.841.982 1.182 1.526l1.694-1.064a11.796 11.796 0 00-1.423-1.835l-1.453 1.373zm2.047 3.257c.228.59.409 1.216.543 1.881l1.961-.395a13.606 13.606 0 00-.638-2.206l-1.866.72zm.794 3.854c.019.327.029.663.029 1.006h2c0-.381-.011-.756-.033-1.124l-1.996.118zm.029 1.006v.974h2v-.974h-2zm0 2.923v1.949h2v-1.95h-2zm0 3.897v1.949h2v-1.949h-2zm0 3.898v.974h2v-.974h-2zm0 .974c0 .323-.011.64-.034.95l1.995.145c.026-.36.039-.725.039-1.095h-2zm-.321 2.805a9.845 9.845 0 01-.604 1.754l1.821.827a11.85 11.85 0 00.726-2.108l-1.943-.473zm-1.528 3.358c-.178.25-.369.495-.574.734l1.518 1.302c.244-.284.472-.577.686-.877l-1.63-1.159zm-.574.734c-.216.252-.44.495-.674.73l1.419 1.41c.268-.27.526-.55.773-.838l-1.518-1.302zm-2.173 2.035c-.523.394-1.081.757-1.675 1.091l.98 1.744a17.021 17.021 0 001.898-1.237l-1.203-1.598zm-3.487 1.971c-.307.128-.623.25-.946.365l.67 1.884c.356-.127.704-.26 1.045-.402l-.769-1.847zm-.937.362a24.05 24.05 0 01-1.085.346l.563 1.919c.396-.116.787-.241 1.174-.375l-.652-1.89zm-3.3.888c-.737.146-1.491.262-2.26.349l.224 1.987a29.452 29.452 0 002.425-.374l-.389-1.962zm-4.548.517c-.38.013-.763.02-1.15.02v2c.41 0 .817-.007 1.221-.022l-.071-1.998zm-2.15 1.02v.786h2v-.786h-2zm0 2.359v1.572h2V48.81h-2zm0 3.145v.786h2v-.786h-2zm1-.214h-.95v2h.95v-2zm-2.849 0h-1.899v2h1.899v-2zm-3.799 0h-1.899v2h1.899v-2zm-3.798 0h-.95v2h.95v-2zm.05 1v-.786h-2v.786h2zm0-2.359V48.81h-2v1.572h2zm0-3.145v-.786h-2v.786h2zm-.852-33.828c-.541 0-1.065.03-1.571.091l.24 1.986c.42-.051.864-.077 1.331-.077v-2zm-4.672.97a8.3 8.3 0 00-1.408.861l1.208 1.594a6.298 6.298 0 011.07-.654l-.87-1.8zm-1.408.861c-.397.301-.753.63-1.064.99l1.512 1.31c.213-.247.465-.482.76-.706l-1.208-1.594zm-2.391 3.638a6.787 6.787 0 00-.151 1.451h2c0-.368.036-.709.105-1.026l-1.954-.425zm-.151 1.451v1.085h2v-1.085h-2zm0 3.256v2.17h2v-2.17h-2zm0 4.341v2.171h2v-2.17h-2zm0 4.342v1.085h2v-1.085h-2zm0 1.085c0 .483.051.95.156 1.402l1.948-.455a4.14 4.14 0 01-.104-.947h-2zm1.518 3.919c.312.33.667.63 1.06.9l1.136-1.646c-.289-.2-.536-.41-.743-.629l-1.453 1.375zm1.093.922c.449.284.925.53 1.427.736l.76-1.85a7.168 7.168 0 01-1.117-.576l-1.07 1.69zm4.475 1.482c.497.053 1.009.079 1.536.079v-2c-.462 0-.903-.023-1.325-.067l-.211 1.988zm2.536-.921V37.74h-2v1.014h2zm0-3.043v-2.03h-2v2.03h2zm0-4.058v-2.029h-2v2.03h2zm0-4.058v-2.028h-2v2.028h2zm0-4.057v-2.03h-2v2.03h2zm0-4.058v-2.029h-2v2.03h2zm0-4.058v-1.014h-2v1.014h2zm11.1 23.406V37.81h-2v1.018h2zm0-3.053V33.74h-2v2.035h2zm0-4.07v-2.034h-2v2.035h2zm0-4.07V25.6h-2v2.035h2zm0-4.07V21.53h-2v2.035h2zm0-4.07V17.46h-2v2.035h2zm0-4.07v-1.017h-2v1.018h2zm-1-.017c.467 0 .911.026 1.331.077l.24-1.986a13.106 13.106 0 00-1.571-.091v2zm3.802.771c.383.185.739.403 1.07.654l1.208-1.594a8.262 8.262 0 00-1.408-.86l-.87 1.8zm1.07.654c.295.224.547.46.76.705l1.512-1.31a6.958 6.958 0 00-1.064-.989l-1.208 1.594zm1.645 2.469c.069.317.105.658.105 1.026h2c0-.5-.049-.983-.15-1.45l-1.955.424zm.105 1.026v1.085h2v-1.085h-2zm0 3.256v2.17h2v-2.17h-2zm0 4.341v2.171h2v-2.17h-2zm0 4.342v1.085h2v-1.085h-2zm0 1.085c0 .343-.037.658-.108.948l1.943.473c.111-.457.165-.932.165-1.421h-2zm-1.009 2.54a4.802 4.802 0 01-.766.624l1.11 1.664a6.84 6.84 0 001.081-.886l-1.425-1.403zm-.779.633c-.333.23-.692.43-1.076.6l.808 1.83c.496-.22.964-.48 1.404-.784l-1.136-1.646zm-3.525 1.233c-.415.046-.851.07-1.309.07v2c.527 0 1.037-.027 1.531-.082l-.222-1.988zm30.69-33.784v-.5h-.5v.5h.5zm36.63 0h.5v-.5h-.5v.5zm0 8.214v.5h.5v-.5h-.5zm-25.086 0v-.5h-.5v.5h.5zm0 11.026h-.5v.5h.5v-.5zm22.644 0h.5v-.5h-.5v.5zm0 8.214v.5h.5v-.5h-.5zm-22.644 0v-.5h-.5v.5h.5zm0 12.358h-.5v.5h.5v-.5zm25.826 0h.5v-.5h-.5v.5zm0 8.214v.5h.5V52h-.5zm-37.37 0h-.5v.5h.5V52zm-.5-48.026v1h1v-1h-1zm0 3.002v2h1v-2h-1zm0 4.002v2h1v-2h-1zm0 4.002v2.001h1V14.98h-1zm0 4.002v2.001h1v-2h-1zm0 4.002v2.001h1v-2h-1zm0 4.002v2.002h1v-2.002h-1zm0 4.003v2h1v-2h-1zm0 4.002v2h1v-2h-1zm0 4.002v2.001h1v-2.001h-1zm0 4.002v2.001h1v-2h-1zm0 4.002v2.001h1v-2h-1zm0 4.002V52h1v-1h-1zm.5 1.501h1.038v-1h-1.038v1zm3.114 0h2.076v-1h-2.076v1zm4.152 0h2.076v-1h-2.076v1zm4.152 0h2.076v-1h-2.076v1zm4.153 0h2.076v-1h-2.076v1zm4.152 0H247v-1h-2.076v1zm4.152 0h2.076v-1h-2.076v1zm4.152 0h2.076v-1h-2.076v1zm4.152 0h2.077v-1h-2.077v1zm4.153 0h1.038v-1h-1.038v1zm1.538-.5v-1.027h-1V52h1zm0-3.08v-2.054h-1v2.054h1zm0-4.107v-1.027h-1v1.027h1zm-.5-1.527h-1.076v1h1.076v-1zm-3.229 0h-2.152v1h2.152v-1zm-4.304 0h-2.152v1h2.152v-1zm-4.304 0h-2.152v1h2.152v-1zm-4.305 0h-2.152v1h2.152v-1zm-4.304 0h-2.152v1h2.152v-1zm-4.304 0h-1.076v1h1.076v-1zm-.576.5v-1.03h-1v1.03h1zm0-3.09v-2.06h-1v2.06h1zm0-4.119v-2.06h-1v2.06h1zm0-4.12v-1.029h-1v1.03h1zm-.5-.529h.943v-1h-.943v1zm2.83 0h1.887v-1h-1.887v1zm3.774 0h1.887v-1h-1.887v1zm3.774 0h1.887v-1h-1.887v1zm3.774 0h1.887v-1h-1.887v1zm3.774 0h1.887v-1h-1.887v1zm3.774 0h.944v-1h-.944v1zm1.444-.5v-1.027h-1v1.027h1zm0-3.08v-2.054h-1v2.054h1zm0-4.107v-1.027h-1v1.027h1zm-.5-1.527h-.944v1h.944v-1zm-2.831 0h-1.887v1h1.887v-1zm-3.774 0h-1.887v1h1.887v-1zm-3.774 0h-1.887v1h1.887v-1zm-3.774 0h-1.887v1h1.887v-1zm-3.774 0h-1.887v1h1.887v-1zm-3.774 0h-.943v1h.943v-1zm-.443.5v-.919h-1v.919h1zm0-2.756V18.62h-1v1.837h1zm0-3.676v-1.838h-1v1.838h1zm0-3.675v-.919h-1v.919h1zm-.5-.419h1.045v-1h-1.045v1zm3.135 0h2.091v-1h-2.091v1zm4.181 0h2.091v-1h-2.091v1zm4.181 0h2.091v-1h-2.091v1zm4.181 0h2.091v-1h-2.091v1zm4.181 0h2.091v-1h-2.091v1zm4.181 0h1.046v-1h-1.046v1zm1.546-.5v-1.027h-1v1.027h1zm0-3.08V7.054h-1v2.054h1zm0-4.107V3.974h-1v1.027h1zm-.5-1.527h-1.018v1h1.018v-1zm-3.053 0h-2.035v1h2.035v-1zm-4.07 0h-2.035v1h2.035v-1zm-4.07 0h-2.035v1h2.035v-1zm-4.07 0h-2.035v1h2.035v-1zm-4.07 0h-2.035v1h2.035v-1zm-4.07 0h-2.035v1h2.035v-1zm-4.07 0h-2.035v1h2.035v-1zm-4.07 0h-2.035v1h2.035v-1zm-4.07 0h-1.017v1h1.017v-1zm-1.017.5v-1h-1v1h1zm36.63 0h1v-1h-1v1zm0 8.214v1h1v-1h-1zm-25.086 0v-1h-1v1h1zm0 11.026h-1v1h1v-1zm22.644 0h1v-1h-1v1zm0 8.214v1h1v-1h-1zm-22.644 0v-1h-1v1h1zm0 12.358h-1v1h1v-1zm25.826 0h1v-1h-1v1zm0 8.214v1h1v-1h-1zm-37.37 0h-1v1h1v-1zm-1-48.026v1h2v-1h-2zm0 3.002v2h2v-2h-2zm0 4.002v2h2v-2h-2zm0 4.002v2.001h2V14.98h-2zm0 4.002v2.001h2v-2h-2zm0 4.002v2.001h2v-2h-2zm0 4.002v2.002h2v-2.002h-2zm0 4.003v2h2v-2h-2zm0 4.002v2h2v-2h-2zm0 4.002v2.001h2v-2.001h-2zm0 4.002v2.001h2v-2h-2zm0 4.002v2.001h2v-2h-2zm0 4.002V52h2v-1h-2zm1 2.001h1.038v-2h-1.038v2zm3.114 0h2.076v-2h-2.076v2zm4.152 0h2.076v-2h-2.076v2zm4.152 0h2.076v-2h-2.076v2zm4.153 0h2.076v-2h-2.076v2zm4.152 0H247v-2h-2.076v2zm4.152 0h2.076v-2h-2.076v2zm4.152 0h2.076v-2h-2.076v2zm4.152 0h2.077v-2h-2.077v2zm4.153 0h1.038v-2h-1.038v2zm2.038-1v-1.027h-2V52h2zm0-3.08v-2.054h-2v2.054h2zm0-4.107v-1.027h-2v1.027h2zm-1-2.027h-1.076v2h1.076v-2zm-3.229 0h-2.152v2h2.152v-2zm-4.304 0h-2.152v2h2.152v-2zm-4.304 0h-2.152v2h2.152v-2zm-4.305 0h-2.152v2h2.152v-2zm-4.304 0h-2.152v2h2.152v-2zm-4.304 0h-1.076v2h1.076v-2zm-.076 1v-1.03h-2v1.03h2zm0-3.09v-2.06h-2v2.06h2zm0-4.119v-2.06h-2v2.06h2zm0-4.12v-1.029h-2v1.03h2zm-1-.029h.943v-2h-.943v2zm2.83 0h1.887v-2h-1.887v2zm3.774 0h1.887v-2h-1.887v2zm3.774 0h1.887v-2h-1.887v2zm3.774 0h1.887v-2h-1.887v2zm3.774 0h1.887v-2h-1.887v2zm3.774 0h.944v-2h-.944v2zm1.944-1v-1.027h-2v1.027h2zm0-3.08v-2.054h-2v2.054h2zm0-4.107v-1.027h-2v1.027h2zm-1-2.027h-.944v2h.944v-2zm-2.831 0h-1.887v2h1.887v-2zm-3.774 0h-1.887v2h1.887v-2zm-3.774 0h-1.887v2h1.887v-2zm-3.774 0h-1.887v2h1.887v-2zm-3.774 0h-1.887v2h1.887v-2zm-3.774 0h-.943v2h.943v-2zm.057 1v-.919h-2v.919h2zm0-2.756V18.62h-2v1.837h2zm0-3.676v-1.838h-2v1.838h2zm0-3.675v-.919h-2v.919h2zm-1 .081h1.045v-2h-1.045v2zm3.135 0h2.091v-2h-2.091v2zm4.181 0h2.091v-2h-2.091v2zm4.181 0h2.091v-2h-2.091v2zm4.181 0h2.091v-2h-2.091v2zm4.181 0h2.091v-2h-2.091v2zm4.181 0h1.046v-2h-1.046v2zm2.046-1v-1.027h-2v1.027h2zm0-3.08V7.054h-2v2.054h2zm0-4.107V3.974h-2v1.027h2zm-1-2.027h-1.018v2h1.018v-2zm-3.053 0h-2.035v2h2.035v-2zm-4.07 0h-2.035v2h2.035v-2zm-4.07 0h-2.035v2h2.035v-2zm-4.07 0h-2.035v2h2.035v-2zm-4.07 0h-2.035v2h2.035v-2zm-4.07 0h-2.035v2h2.035v-2zm-4.07 0h-2.035v2h2.035v-2zm-4.07 0h-2.035v2h2.035v-2zm-4.07 0h-1.017v2h1.017v-2zm63.241 49.47l-.059.497h.002l.057-.497zm-5.55-1.11l.129-.483h-.003l-.126.483zm-5.624-2.294l-.278.416.01.006.268-.422zm-3.7-4.07l.434-.248-.006-.01-.428.258zm35.964-40.108h.5V4.44l-.416-.07-.084.492zm0 8.658l-.118.486.618.149v-.635h-.5zm-19.388-1.924l-.048-.498h-.002l.05.498zm-3.108.74l.161.473.01-.003-.171-.47zm22.792 30.044h.5v-.63l-.613.143.113.487zm0 8.732l.1.49.4-.082v-.408h-.5zm-15.54 1.128c-.497 0-.981-.005-1.453-.016l-.022 1c.48.01.971.016 1.475.016v-1zm-4.35-.155a39.879 39.879 0 01-1.439-.138l-.114.994c.476.054.967.101 1.475.14l.078-.996zm-1.438-.138a30.546 30.546 0 01-1.379-.195l-.162.987c.487.08.962.147 1.424.202l.117-.994zm-4.12-.751a51.1 51.1 0 01-1.359-.345l-.259.966c.471.126.933.243 1.387.352l.231-.973zm-1.362-.346a28.82 28.82 0 01-.723-.198l-.277.96c.244.071.494.14.748.206l.252-.968zm-2.146-.654a20.256 20.256 0 01-1.382-.547l-.404.915c.46.203.944.394 1.452.574l.334-.942zm-2.706-1.203a13.3 13.3 0 01-.631-.375l-.535.844c.219.139.445.273.679.404l.487-.873zm-.621-.369a10.158 10.158 0 01-1.05-.803l-.657.754c.366.32.751.613 1.152.881l.555-.832zm-2.824-2.775c-.252-.354-.492-.73-.719-1.127l-.868.496c.242.425.5.828.772 1.211l.815-.58zm-.725-1.136a9.621 9.621 0 01-.365-.669l-.896.445c.125.252.26.498.404.738l.857-.514zm-.935-2.084a11.197 11.197 0 01-.36-1.49l-.985.168c.096.561.227 1.103.392 1.625l.953-.303zm-.528-3.025a15.197 15.197 0 01-.019-.776h-1c0 .28.007.556.021.828l.998-.052zm-.019-.776v-1.055h-1v1.055h1zm0-3.164v-2.108h-1v2.108h1zm0-4.218v-2.109h-1v2.11h1zm0-4.218V25.12h-1v2.11h1zm0-4.218v-2.109h-1v2.11h1zm0-4.218v-1.054h-1v1.055h1zm0-1.054c0-.31.008-.616.023-.915l-.998-.052c-.017.317-.025.64-.025.967h1zm.225-2.726c.107-.612.251-1.197.434-1.756l-.951-.31a13.58 13.58 0 00-.468 1.894l.985.172zm1.125-3.417c.275-.534.593-1.041.953-1.52l-.799-.601a11.627 11.627 0 00-1.043 1.663l.889.458zm2.149-2.865c.425-.406.889-.789 1.394-1.147l-.578-.815c-.543.385-1.046.798-1.508 1.24l.692.722zm2.941-2.1c.52-.279 1.072-.537 1.656-.776l-.378-.926c-.615.251-1.198.525-1.75.82l.472.882zm3.387-1.396c.568-.177 1.162-.34 1.781-.485l-.23-.974c-.641.152-1.257.32-1.849.504l.298.955zm3.597-.857a37.572 37.572 0 011.837-.273l-.123-.993c-.648.08-1.277.174-1.887.281l.173.985zm3.686-.463c.605-.05 1.226-.09 1.863-.118l-.046-1c-.649.03-1.282.07-1.899.121l.082.997zm3.725-.173c.31-.005.622-.007.939-.007v-1c-.321 0-.639.002-.953.007l.014 1zm.939-.007c.307 0 .622.004.947.01l.022-.999a43.797 43.797 0 00-.969-.011v1zm2.846.088c.608.035 1.242.08 1.9.137l.085-.996a70.786 70.786 0 00-1.928-.14l-.057 1zm3.799.32c.613.066 1.245.14 1.897.221l.124-.992c-.657-.082-1.295-.157-1.915-.223l-.106.994zm3.79.474c.615.086 1.246.18 1.892.279l.152-.989c-.65-.1-1.285-.193-1.905-.28l-.139.99zm3.78.58l.945.159.168-.986a183.1 183.1 0 00-.95-.16l-.163.987zm.529-.334v1.082h1V4.862h-1zm0 3.247v2.164h1V8.11h-1zm0 4.329v1.082h1v-1.082h-1zm.617.596c-.313-.076-.625-.15-.934-.22l-.225.973c.306.071.614.144.924.219l.235-.972zm-2.808-.634a85.555 85.555 0 00-1.883-.373l-.183.983a85.85 85.85 0 011.861.368l.205-.978zm-3.777-.702a68.326 68.326 0 00-1.903-.277l-.13.991c.614.08 1.239.172 1.875.274l.158-.988zm-3.815-.499a53.634 53.634 0 00-1.92-.156l-.064.998c.616.039 1.244.09 1.885.154l.099-.996zm-3.848-.24a43 43 0 00-.965-.011v1c.31 0 .624.004.942.01l.023-.999zm-.965-.011c-.377 0-.737.002-1.081.006l.013 1a88.43 88.43 0 011.068-.006v-1zm-3.248.072c-.4.02-.764.047-1.092.078l.095.996c.311-.03.661-.055 1.05-.076l-.053-.998zm-1.094.079c-.274.027-.55.065-.829.114l.172.985a9.85 9.85 0 01.756-.104l-.099-.995zm-2.445.505c-.259.079-.521.166-.784.262l.342.94c.248-.09.492-.172.734-.246l-.292-.957zm-.774.259a6.755 6.755 0 00-.848.352l.448.894c.223-.112.463-.212.722-.3l-.322-.946zm-2.353 1.456a4.989 4.989 0 00-1.001 1.587l.929.37c.195-.49.462-.912.801-1.272l-.729-.685zm-1.421 3.372c-.029.29-.043.59-.043.899h1c0-.28.013-.546.038-.8l-.995-.1zm-.043.899v1.021h1V17.59h-1zm0 3.064v2.042h1v-2.042h-1zm0 4.084v2.043h1v-2.043h-1zm0 4.085v2.043h1v-2.043h-1zm0 4.085v2.042h1v-2.042h-1zm0 4.085v1.021h1v-1.021h-1zm0 1.021c0 .352.024.693.073 1.022l.989-.148a5.98 5.98 0 01-.062-.874h-1zm.744 2.985a5.677 5.677 0 001.349 1.572l.633-.773a4.68 4.68 0 01-1.114-1.296l-.868.497zm3.074 2.628c.564.258 1.187.479 1.866.664l.262-.965a11.089 11.089 0 01-1.711-.608l-.417.909zm3.78 1.066c.606.096 1.249.17 1.926.225l.08-.997a24.392 24.392 0 01-1.851-.215l-.155.987zm3.851.322c.315.007.637.011.965.011v-1c-.321 0-.635-.004-.942-.01l-.023.999zm.965.011c.298 0 .606-.005.925-.016l-.034-1c-.308.01-.605.016-.891.016v1zm2.765-.128c.581-.05 1.19-.114 1.826-.192l-.122-.992a49.17 49.17 0 01-1.789.187l.085.997zm3.641-.443a79.64 79.64 0 001.805-.296l-.173-.985c-.615.108-1.209.205-1.783.293l.151.988zm3.602-.63c.581-.114 1.177-.235 1.789-.364l-.207-.979c-.607.129-1.198.249-1.774.361l.192.982zm3.571-.754c.293-.066.59-.134.89-.204l-.226-.974c-.298.07-.593.136-.884.202l.22.976zm.277-.691v1.091h1V42.38h-1zm0 3.274v2.183h1v-2.183h-1zm0 4.366v1.092h1V50.02h-1zm.399.602a80.42 80.42 0 01-.954.19l.19.982c.322-.062.643-.126.965-.192l-.201-.98zm-2.867.538a77.15 77.15 0 01-1.921.3l.143.99a81.081 81.081 0 001.945-.304l-.167-.986zm-3.848.555c-.646.077-1.29.145-1.933.205l.093.996c.651-.06 1.304-.13 1.958-.208l-.118-.993zm-3.87.36c-.649.044-1.296.08-1.941.106l.041.999a76.93 76.93 0 001.967-.106l-.067-.998zm-3.883.158c-.324.005-.648.007-.971.007v1c.328 0 .656-.002.985-.007l-.014-1zm-6.817.211l-.117.993h.003l.114-.993zm-5.55-1.11l.259-.966-.007-.002-.252.968zm-5.624-2.294l-.555.832.01.007.01.006.535-.845zm-3.7-4.07l.868-.496-.005-.01-.006-.008-.857.514zm35.964-40.108h1v-.844l-.832-.142-.168.986zm0 8.658l-.235.972 1.235.298v-1.27h-1zm-19.388-1.924l-.095-.995h-.005l.1.995zm-3.108.74l.322.947.01-.004.009-.003-.341-.94zm22.792 30.044h1v-1.259l-1.226.285.226.974zm0 8.732l.201.98.799-.165v-.815h-1zm-15.54.628c-.493 0-.974-.005-1.443-.016l-.043 2c.484.01.979.016 1.486.016v-2zm-4.311-.154a39.618 39.618 0 01-1.422-.136l-.227 1.987c.482.056.98.103 1.494.143l.155-1.994zm-1.418-.135a30 30 0 01-1.357-.192l-.324 1.973c.494.081.976.15 1.447.205l.234-1.986zm-4.063-.742a49.115 49.115 0 01-1.345-.34l-.518 1.93c.475.128.942.247 1.4.356l.463-1.946zm-1.352-.343a28.625 28.625 0 01-.71-.195l-.555 1.922c.249.072.502.141.76.209l.505-1.936zm-2.104-.641a19.426 19.426 0 01-1.348-.534l-.808 1.83c.473.209.968.405 1.487.589l.669-1.885zm-2.63-1.17a12.47 12.47 0 01-.607-.36l-1.07 1.69c.226.143.461.283.703.418l.974-1.747zm-.588-.347a9.885 9.885 0 01-.999-.764l-1.314 1.508c.383.333.784.64 1.204.92l1.109-1.664zm-2.694-2.648a13.177 13.177 0 01-.692-1.086l-1.737.992c.251.438.517.856.8 1.253l1.629-1.16zm-.703-1.105a9.125 9.125 0 01-.346-.633l-1.792.89c.131.263.272.52.423.772l1.715-1.029zm-.887-1.977a10.609 10.609 0 01-.344-1.424l-1.971.338c.1.582.236 1.146.408 1.691l1.907-.605zm-.505-2.9a14.179 14.179 0 01-.019-.75h-2c0 .288.007.573.021.853l1.998-.103zm-.019-.75v-1.055h-2v1.055h2zm0-3.164v-2.108h-2v2.108h2zm0-4.218v-2.109h-2v2.11h2zm0-4.218V25.12h-2v2.11h2zm0-4.218v-2.109h-2v2.11h2zm0-4.218v-1.054h-2v1.055h2zm0-1.054c0-.302.007-.598.023-.889l-1.998-.105a19.14 19.14 0 00-.025.994h2zm.217-2.64c.103-.59.243-1.152.417-1.687l-1.901-.62c-.206.63-.367 1.284-.486 1.963l1.97.344zm1.077-3.274c.263-.51.566-.993.909-1.45l-1.599-1.2a12.14 12.14 0 00-1.088 1.734l1.778.916zm2.05-2.732c.407-.39.852-.756 1.338-1.1l-1.157-1.632c-.561.398-1.083.827-1.563 1.286l1.382 1.446zm2.832-2.022c.504-.27 1.04-.52 1.61-.754l-.757-1.85c-.63.257-1.229.537-1.797.841l.944 1.763zm3.3-1.359a25.533 25.533 0 011.747-.476l-.46-1.946a27.72 27.72 0 00-1.883.513l.596 1.91zm3.534-.841a37.09 37.09 0 011.813-.27l-.247-1.985a39.02 39.02 0 00-1.911.285l.345 1.97zm3.641-.458a51.517 51.517 0 011.845-.117l-.092-1.998c-.654.03-1.293.07-1.917.122l.164 1.993zm3.691-.171c.307-.005.618-.007.932-.007v-2c-.324 0-.643.002-.96.007l.028 2zm.932-.007c.303 0 .615.004.936.01l.044-1.999a44.3 44.3 0 00-.98-.011v2zm2.817.087c.603.035 1.232.08 1.887.136l.17-1.993a71.491 71.491 0 00-1.942-.14l-.115 1.997zm3.775.318c.61.066 1.239.14 1.887.22l.249-1.984c-.659-.083-1.301-.157-1.923-.224l-.213 1.988zm3.773.472c.614.086 1.242.179 1.886.278l.304-1.977c-.652-.1-1.289-.194-1.911-.282l-.279 1.98zm3.769.579c.31.05.624.104.942.158l.336-1.972-.952-.16-.326 1.974zm.11-.828v1.082h2V4.862h-2zm0 3.247v2.164h2V8.11h-2zm0 4.329v1.082h2v-1.082h-2zm1.234.11c-.315-.076-.627-.15-.938-.222l-.451 1.949c.305.07.611.143.92.217l.469-1.944zm-2.823-.638c-.64-.134-1.271-.26-1.894-.375l-.366 1.966c.607.113 1.224.235 1.85.367l.41-1.958zm-3.8-.705a68.416 68.416 0 00-1.917-.28l-.26 1.983c.609.08 1.229.17 1.861.272l.316-1.975zm-3.844-.503a54.23 54.23 0 00-1.939-.158l-.126 1.996c.609.038 1.231.089 1.867.152l.198-1.99zm-3.887-.243a43.384 43.384 0 00-.976-.011v2c.306 0 .617.003.931.01l.045-1.999zm-.976-.011c-.379 0-.741.002-1.087.006l.025 2c.337-.004.691-.006 1.062-.006v-2zm-3.275.072c-.405.022-.776.049-1.112.08l.19 1.992a24.61 24.61 0 011.029-.075l-.107-1.997zm-1.117.081a11.93 11.93 0 00-.865.12l.344 1.97c.244-.043.485-.076.72-.1l-.199-1.99zm-2.542.524a16.31 16.31 0 00-.808.271l.683 1.88c.241-.088.477-.167.711-.238l-.586-1.913zm-.789.264a7.255 7.255 0 00-.909.378l.894 1.79c.202-.102.421-.193.66-.274l-.645-1.894zm-2.555 1.587a5.509 5.509 0 00-1.102 1.744l1.858.741c.173-.434.408-.803.701-1.115l-1.457-1.37zm-1.554 3.665a9.467 9.467 0 00-.046.949h2c0-.264.012-.513.036-.75l-1.99-.2zm-.046.949v1.021h2V17.59h-2zm0 3.064v2.042h2v-2.042h-2zm0 4.084v2.043h2v-2.043h-2zm0 4.085v2.043h2v-2.043h-2zm0 4.085v2.042h2v-2.042h-2zm0 4.085v1.021h2v-1.021h-2zm0 1.021c0 .375.026.74.079 1.097l1.978-.297a5.354 5.354 0 01-.057-.8h-2zm.81 3.234a6.189 6.189 0 001.466 1.71l1.267-1.547a4.189 4.189 0 01-.998-1.158l-1.735.995zm3.3 2.833c.592.272 1.241.501 1.943.692l.525-1.93a10.566 10.566 0 01-1.635-.58l-.833 1.818zm3.91 1.106c.62.098 1.275.174 1.964.23l.16-1.994a23.875 23.875 0 01-1.813-.211l-.311 1.975zm3.918.328c.319.007.644.011.976.011v-2c-.317 0-.627-.004-.93-.01l-.046 1.999zm.976.011c.304 0 .618-.006.941-.016l-.067-2c-.302.01-.594.016-.874.016v2zm2.807-.13a49.82 49.82 0 001.845-.194l-.244-1.985c-.619.077-1.209.138-1.771.186l.17 1.993zm3.674-.446c.586-.09 1.192-.19 1.816-.299l-.346-1.97c-.611.108-1.201.205-1.771.291l.301 1.978zm3.622-.634c.584-.114 1.183-.236 1.797-.366l-.414-1.957c-.604.128-1.193.248-1.766.36l.383 1.963zm3.586-.758c.294-.066.592-.134.893-.204l-.452-1.948-.882.202.441 1.95zm-.333-1.178v1.091h2V42.38h-2zm0 3.274v2.183h2v-2.183h-2zm0 4.366v1.092h2V50.02h-2zm.798.112a63.56 63.56 0 01-.948.19l.38 1.963c.324-.062.647-.127.971-.193l-.403-1.96zm-2.85.535a79.51 79.51 0 01-1.908.299l.285 1.98a81.58 81.58 0 001.957-.307l-.334-1.972zm-3.823.551c-.642.077-1.282.145-1.921.204l.186 1.992a77.527 77.527 0 001.971-.21l-.236-1.986zm-3.845.359c-.644.043-1.286.078-1.927.104l.081 1.998a74.612 74.612 0 001.98-.107l-.134-1.995zm-3.856.156c-.322.005-.643.007-.964.007v2c.33 0 .661-.002.992-.007l-.028-2zm41.044.711l-.058.497h.001l.057-.497zm-5.55-1.11l.13-.483h-.004l-.126.483zm-5.624-2.294l-.277.416.009.006.268-.422zm-3.7-4.07l.434-.248-.005-.01-.429.258zm35.964-40.108h.5V4.44l-.416-.07-.084.492zm0 8.658l-.117.486.617.149v-.635h-.5zm-19.388-1.924l-.047-.498h-.003l.05.498zm-3.108.74l.161.473.01-.003-.171-.47zm22.792 30.044h.5v-.63l-.613.143.113.487zm0 8.732l.101.49.399-.082v-.408h-.5zm-15.54 1.128c-.496 0-.981-.005-1.453-.016l-.022 1c.48.01.972.016 1.475.016v-1zm-4.35-.155a40.319 40.319 0 01-1.439-.138l-.114.994c.476.054.968.101 1.476.14l.077-.996zm-1.438-.138a30.546 30.546 0 01-1.379-.195l-.162.987c.487.08.962.147 1.425.202l.116-.994zm-4.119-.751c-.444-.106-.897-.22-1.359-.345l-.26.966c.472.126.934.243 1.387.352l.232-.973zm-1.363-.346a28.82 28.82 0 01-.723-.198l-.277.96c.245.071.494.14.748.206l.252-.968zm-2.145-.654a20.083 20.083 0 01-1.383-.547l-.403.915c.46.203.944.394 1.451.574l.335-.942zm-2.706-1.203a12.816 12.816 0 01-.631-.375l-.536.844c.219.139.445.273.679.404l.488-.873zm-.622-.369a10.267 10.267 0 01-1.05-.803l-.657.754c.367.32.751.613 1.153.881l.554-.832zm-2.824-2.775c-.252-.354-.492-.73-.719-1.127l-.868.496c.243.425.5.828.773 1.211l.814-.58zm-.724-1.136a9.633 9.633 0 01-.366-.669l-.895.445c.125.252.259.498.403.738l.858-.514zm-.935-2.084a11.044 11.044 0 01-.36-1.49l-.986.168c.096.561.227 1.103.392 1.625l.954-.303zm-.528-3.025c-.013-.254-.02-.513-.02-.776h-1c0 .28.007.556.021.828l.999-.052zm-.02-.776v-1.055h-1v1.055h1zm0-3.164v-2.108h-1v2.108h1zm0-4.218v-2.109h-1v2.11h1zm0-4.218V25.12h-1v2.11h1zm0-4.218v-2.109h-1v2.11h1zm0-4.218v-1.054h-1v1.055h1zm0-1.054c0-.31.008-.616.024-.915l-.999-.052c-.017.317-.025.64-.025.967h1zm.225-2.726c.107-.612.252-1.197.434-1.756l-.951-.31a13.867 13.867 0 00-.468 1.894l.985.172zm1.125-3.417c.276-.534.593-1.041.954-1.52l-.8-.601a11.627 11.627 0 00-1.043 1.663l.889.458zm2.149-2.865c.425-.406.889-.789 1.394-1.147l-.578-.815c-.543.385-1.046.798-1.507 1.24l.691.722zm2.942-2.1a17.555 17.555 0 011.656-.776l-.379-.926c-.614.251-1.198.525-1.75.82l.473.882zm3.386-1.396c.569-.177 1.162-.34 1.781-.485l-.23-.974c-.64.152-1.257.32-1.849.504l.298.955zm3.597-.857a37.435 37.435 0 011.838-.273l-.124-.993a38.46 38.46 0 00-1.886.281l.172.985zm3.686-.463c.605-.05 1.226-.09 1.863-.118l-.046-1c-.648.03-1.281.07-1.899.121l.082.997zm3.726-.173c.309-.005.622-.007.938-.007v-1c-.321 0-.638.002-.953.007l.015 1zm.938-.007c.307 0 .623.004.947.01l.022-.999a43.728 43.728 0 00-.969-.011v1zm2.846.088c.608.035 1.242.08 1.901.137l.084-.996a70.72 70.72 0 00-1.927-.14l-.058 1zm3.799.32c.613.066 1.246.14 1.897.221l.124-.992c-.657-.082-1.295-.157-1.914-.223l-.107.994zm3.79.474c.616.086 1.246.18 1.892.279l.152-.989c-.65-.1-1.284-.193-1.904-.28l-.14.99zm3.781.58l.944.159.168-.986-.949-.16-.163.987zm.528-.334v1.082h1V4.862h-1zm0 3.247v2.164h1V8.11h-1zm0 4.329v1.082h1v-1.082h-1zm.617.596a90.38 90.38 0 00-.934-.22l-.225.973a106 106 0 01.925.219l.234-.972zm-2.808-.634a84.413 84.413 0 00-1.883-.373l-.183.983a85.85 85.85 0 011.861.368l.205-.978zm-3.777-.702a68.326 68.326 0 00-1.903-.277l-.13.991c.614.08 1.239.172 1.875.274l.158-.988zm-3.815-.499a53.634 53.634 0 00-1.92-.156l-.063.998c.615.039 1.244.09 1.885.154l.098-.996zm-3.848-.24a43 43 0 00-.965-.011v1c.311 0 .625.004.943.01l.022-.999zm-.965-.011c-.377 0-.737.002-1.08.006l.012 1a88.43 88.43 0 011.068-.006v-1zm-3.248.072c-.4.02-.764.047-1.091.078l.094.996c.312-.03.662-.055 1.051-.076l-.054-.998zm-1.094.079c-.273.027-.55.065-.829.114l.172.985c.256-.045.508-.08.757-.104l-.1-.995zm-2.445.505c-.259.079-.52.166-.784.262l.342.94c.248-.09.493-.172.735-.246l-.293-.957zm-.774.259a6.74 6.74 0 00-.847.352l.447.894c.223-.112.464-.212.722-.3l-.322-.946zm-2.352 1.456a4.992 4.992 0 00-1.002 1.587l.929.37c.195-.49.463-.912.801-1.272l-.728-.685zm-1.421 3.372c-.03.29-.044.59-.044.899h1c0-.28.013-.546.038-.8l-.994-.1zm-.044.899v1.021h1V17.59h-1zm0 3.064v2.042h1v-2.042h-1zm0 4.084v2.043h1v-2.043h-1zm0 4.085v2.043h1v-2.043h-1zm0 4.085v2.042h1v-2.042h-1zm0 4.085v1.021h1v-1.021h-1zm0 1.021c0 .352.024.693.074 1.022l.989-.148a5.842 5.842 0 01-.063-.874h-1zm.744 2.985a5.677 5.677 0 001.349 1.572l.633-.773a4.68 4.68 0 01-1.114-1.296l-.868.497zm3.074 2.628c.564.258 1.187.479 1.867.664l.262-.965a11.102 11.102 0 01-1.712-.608l-.417.909zm3.78 1.066a25.4 25.4 0 001.926.225l.08-.997a24.364 24.364 0 01-1.85-.215l-.156.987zm3.852.322c.315.007.636.011.964.011v-1c-.321 0-.634-.004-.941-.01l-.023.999zm.964.011c.299 0 .607-.005.925-.016l-.034-1c-.307.01-.605.016-.891.016v1zm2.765-.128a49.25 49.25 0 001.826-.192l-.122-.992a48.13 48.13 0 01-1.789.187l.085.997zm3.641-.443a79.64 79.64 0 001.805-.296l-.173-.985c-.614.108-1.208.205-1.783.293l.151.988zm3.602-.63c.581-.114 1.177-.235 1.789-.364l-.207-.979c-.607.129-1.198.249-1.774.361l.192.982zm3.571-.754c.293-.066.59-.134.89-.204l-.226-.974c-.298.07-.593.136-.884.202l.22.976zm.277-.691v1.091h1V42.38h-1zm0 3.274v2.183h1v-2.183h-1zm0 4.366v1.092h1V50.02h-1zm.399.602a84.48 84.48 0 01-.953.19l.19.982c.321-.062.643-.126.965-.192l-.202-.98zm-2.867.538a77.15 77.15 0 01-1.921.3l.143.99a81.081 81.081 0 001.945-.304l-.167-.986zm-3.848.555c-.646.077-1.29.145-1.933.205l.093.996c.651-.06 1.304-.13 1.958-.208l-.118-.993zm-3.87.36c-.648.044-1.295.08-1.94.106l.04.999a76.93 76.93 0 001.967-.106l-.067-.998zm-3.883.158c-.324.005-.648.007-.971.007v1c.328 0 .656-.002.985-.007l-.014-1zm-6.817.211l-.117.993h.003l.114-.993zm-5.55-1.11l.259-.966-.007-.002-.252.968zm-5.624-2.294l-.555.832.01.007.01.006.535-.845zm-3.7-4.07l.868-.496-.005-.01-.005-.008-.858.514zm35.964-40.108h1v-.844l-.832-.142-.168.986zm0 8.658l-.235.972 1.235.298v-1.27h-1zm-19.388-1.924l-.095-.995h-.004l.099.995zm-3.108.74l.322.947.01-.004.01-.003-.342-.94zm22.792 30.044h1v-1.259l-1.226.285.226.974zm0 8.732l.201.98.799-.165v-.815h-1zm-15.54.628c-.493 0-.974-.005-1.442-.016l-.044 2c.484.01.979.016 1.486.016v-2zm-4.311-.154a39.34 39.34 0 01-1.421-.136l-.228 1.987c.483.056.98.103 1.494.143l.155-1.994zm-1.418-.135a30 30 0 01-1.357-.192l-.324 1.973c.494.081.977.15 1.447.205l.234-1.986zm-4.062-.742a49.168 49.168 0 01-1.346-.34l-.518 1.93c.475.128.942.247 1.4.356l.464-1.946zm-1.353-.343a29.879 29.879 0 01-.71-.195l-.555 1.922c.249.072.503.141.761.209l.504-1.936zm-2.104-.641a19.627 19.627 0 01-1.348-.534l-.807 1.83c.472.209.968.405 1.486.589l.669-1.885zm-2.63-1.17a12.47 12.47 0 01-.607-.36l-1.07 1.69c.227.143.461.283.703.418l.974-1.747zm-.587-.347a9.786 9.786 0 01-1-.764l-1.314 1.508c.383.333.784.64 1.204.92l1.11-1.664zM324 45.56a12.82 12.82 0 01-.693-1.086l-1.736.992c.25.438.517.856.8 1.253L324 45.56zm-.703-1.105a9.136 9.136 0 01-.347-.633l-1.791.89c.131.263.271.52.423.772l1.715-1.029zm-.888-1.977a10.608 10.608 0 01-.343-1.424l-1.972.338c.1.582.236 1.146.409 1.691l1.906-.605zm-.505-2.9a14.179 14.179 0 01-.019-.75h-2a16 16 0 00.022.853l1.997-.103zm-.019-.75v-1.055h-2v1.055h2zm0-3.164v-2.108h-2v2.108h2zm0-4.218v-2.109h-2v2.11h2zm0-4.218V25.12h-2v2.11h2zm0-4.218v-2.109h-2v2.11h2zm0-4.218v-1.054h-2v1.055h2zm0-1.054c0-.302.008-.598.023-.889l-1.997-.105a19.13 19.13 0 00-.026.994h2zm.218-2.64c.103-.59.242-1.152.416-1.687l-1.901-.62c-.205.63-.367 1.284-.486 1.963l1.971.344zm1.077-3.274a10.1 10.1 0 01.908-1.45l-1.599-1.2a12.135 12.135 0 00-1.087 1.734l1.778.916zm2.05-2.732c.406-.39.852-.756 1.338-1.1l-1.157-1.632c-.562.398-1.084.827-1.564 1.286l1.383 1.446zm2.832-2.022a17.25 17.25 0 011.609-.754l-.757-1.85c-.63.257-1.229.537-1.797.841l.945 1.763zm3.299-1.359a25.851 25.851 0 011.747-.476l-.46-1.946a27.72 27.72 0 00-1.883.513l.596 1.91zm3.534-.841a37.09 37.09 0 011.813-.27l-.247-1.985a38.87 38.87 0 00-1.911.285l.345 1.97zm3.641-.458a51.517 51.517 0 011.845-.117l-.091-1.998c-.655.03-1.294.07-1.918.122l.164 1.993zm3.692-.171c.307-.005.617-.007.931-.007v-2c-.323 0-.643.002-.96.007l.029 2zm.931-.007c.303 0 .615.004.936.01l.044-1.999a44.232 44.232 0 00-.98-.011v2zm2.817.087c.604.035 1.233.08 1.887.136l.17-1.993a71.425 71.425 0 00-1.941-.14l-.116 1.997zm3.775.318c.61.066 1.239.14 1.888.22l.248-1.984c-.659-.083-1.3-.157-1.923-.224l-.213 1.988zm3.774.472c.613.086 1.241.179 1.885.278l.304-1.977c-.652-.1-1.289-.194-1.911-.282l-.278 1.98zm3.768.579c.311.05.625.104.942.158l.336-1.972-.952-.16-.326 1.974zm.11-.828v1.082h2V4.862h-2zm0 3.247v2.164h2V8.11h-2zm0 4.329v1.082h2v-1.082h-2zm1.235.11c-.315-.076-.628-.15-.939-.222l-.451 1.949c.305.07.612.143.92.217l.47-1.944zm-2.823-.638a84.897 84.897 0 00-1.895-.375l-.366 1.966a82.02 82.02 0 011.85.367l.411-1.958zm-3.801-.705a68.416 68.416 0 00-1.917-.28l-.26 1.983c.609.08 1.23.17 1.861.272l.316-1.975zm-3.844-.503a54.042 54.042 0 00-1.939-.158l-.126 1.996c.609.038 1.232.089 1.867.152l.198-1.99zm-3.886-.243a43.472 43.472 0 00-.977-.011v2c.307 0 .617.003.931.01l.046-1.999zm-.977-.011c-.378 0-.741.002-1.086.006l.024 2c.337-.004.691-.006 1.062-.006v-2zm-3.274.072a26.88 26.88 0 00-1.113.08l.19 1.992c.303-.03.646-.054 1.029-.075l-.106-1.997zm-1.117.081a11.88 11.88 0 00-.866.12l.344 1.97c.245-.043.485-.076.721-.1l-.199-1.99zm-2.542.524c-.268.082-.537.172-.809.271l.684 1.88c.24-.088.477-.167.71-.238l-.585-1.913zm-.789.264a7.27 7.27 0 00-.91.378l.894 1.79a5.13 5.13 0 01.66-.274l-.644-1.894zm-2.556 1.587a5.488 5.488 0 00-1.101 1.744l1.857.741a3.51 3.51 0 01.701-1.115l-1.457-1.37zm-1.554 3.665a9.467 9.467 0 00-.046.949h2c0-.264.012-.513.036-.75l-1.99-.2zm-.046.949v1.021h2V17.59h-2zm0 3.064v2.042h2v-2.042h-2zm0 4.084v2.043h2v-2.043h-2zm0 4.085v2.043h2v-2.043h-2zm0 4.085v2.042h2v-2.042h-2zm0 4.085v1.021h2v-1.021h-2zm0 1.021c0 .375.026.74.079 1.097l1.978-.297a5.49 5.49 0 01-.057-.8h-2zm.811 3.234a6.168 6.168 0 001.465 1.71l1.267-1.547a4.168 4.168 0 01-.997-1.158l-1.735.995zm3.299 2.833c.592.272 1.241.501 1.943.692l.525-1.93a10.604 10.604 0 01-1.635-.58l-.833 1.818zm3.91 1.106c.621.098 1.276.174 1.964.23l.16-1.994a23.906 23.906 0 01-1.812-.211l-.312 1.975zm3.918.328c.319.007.644.011.976.011v-2c-.317 0-.627-.004-.93-.01l-.046 1.999zm.976.011c.304 0 .618-.006.942-.016l-.068-2c-.302.01-.593.016-.874.016v2zm2.807-.13a49.82 49.82 0 001.845-.194l-.244-1.985c-.619.077-1.209.138-1.771.186l.17 1.993zm3.674-.446c.586-.09 1.192-.19 1.817-.299l-.346-1.97a78.56 78.56 0 01-1.772.291l.301 1.978zm3.623-.634c.583-.114 1.182-.236 1.796-.366l-.414-1.957c-.604.128-1.193.248-1.765.36l.383 1.963zm3.585-.758c.295-.066.592-.134.893-.204l-.452-1.948-.881.202.44 1.95zm-.333-1.178v1.091h2V42.38h-2zm0 3.274v2.183h2v-2.183h-2zm0 4.366v1.092h2V50.02h-2zm.799.112a69.1 69.1 0 01-.948.19l.38 1.963c.323-.062.647-.127.97-.193l-.402-1.96zm-2.85.535c-.638.108-1.274.207-1.909.299l.286 1.98a80.72 80.72 0 001.956-.307l-.333-1.972zm-3.824.551c-.642.077-1.282.145-1.92.204l.186 1.992a77.937 77.937 0 001.97-.21l-.236-1.986zm-3.845.359c-.644.043-1.286.078-1.927.104l.082 1.998a75.072 75.072 0 001.98-.107l-.135-1.995zm-3.855.156c-.322.005-.644.007-.965.007v2c.33 0 .661-.002.992-.007l-.027-2zm25.651-47.759v-.5h-.5v.5h.5zm11.544 0h.5v-.5h-.5v.5zm0 32.856h-.5v1.73l.923-1.463-.423-.267zm20.72-32.856v-.5h-.275l-.148.233.423.267zm11.544 0h.5v-.5h-.5v.5zm0 48.026v.5h.5V52h-.5zm-11.544 0h-.5v.5h.5V52zm0-33.374h.5v-1.753l-.924 1.49.424.263zM381.319 52v.5h.278l.147-.236-.425-.264zm-11.544 0h-.5v.5h.5V52zm-.5-48.026v1h1v-1h-1zm0 3.002v2h1v-2h-1zm0 4.002v2h1v-2h-1zm0 4.002v2.001h1V14.98h-1zm0 4.002v2.001h1v-2h-1zm0 4.002v2.001h1v-2h-1zm0 4.002v2.002h1v-2.002h-1zm0 4.003v2h1v-2h-1zm0 4.002v2h1v-2h-1zm0 4.002v2.001h1v-2.001h-1zm0 4.002v2.001h1v-2h-1zm0 4.002v2.001h1v-2h-1zm0 4.002V52h1v-1h-1zm.5 1.501h.962v-1h-.962v1zm2.886 0h1.924v-1h-1.924v1zm3.848 0h1.924v-1h-1.924v1zm3.848 0h.962v-1h-.962v1zm1.387-.236l.518-.835-.849-.527-.518.834.849.528zm1.554-2.503l1.036-1.669-.849-.527-1.036 1.668.849.528zm2.072-3.338l1.036-1.668-.849-.528-1.036 1.669.849.527zm2.072-3.337l1.036-1.669-.849-.527-1.036 1.668.849.528zm2.072-3.337l1.036-1.67-.849-.527-1.036 1.669.849.528zm2.072-3.338l1.036-1.669-.849-.527-1.036 1.669.849.527zm2.072-3.337l1.036-1.669-.849-.527-1.036 1.668.849.528zm2.072-3.338l1.036-1.668-.849-.528-1.036 1.669.849.527zm2.072-3.337l1.036-1.669-.849-.527-1.036 1.668.849.528zm2.072-3.338l1.036-1.668-.849-.528-1.036 1.669.849.527zm2.072-3.337l.518-.834-.849-.528-.518.835.849.527zm-.407-1.098v1.043h1v-1.043h-1zm0 3.129v2.086h1v-2.086h-1zm0 4.172v2.085h1v-2.085h-1zm0 4.171v2.086h1v-2.086h-1zm0 4.172v2.086h1V34.27h-1zm0 4.172v2.086h1v-2.086h-1zm0 4.172v2.085h1v-2.085h-1zm0 4.171v2.086h1v-2.086h-1zm0 4.172V52h1v-1.043h-1zm.5 1.543h.962v-1h-.962v1zm2.886 0h1.924v-1h-1.924v1zm3.848 0h1.924v-1h-1.924v1zm3.848 0h.962v-1h-.962v1zm1.462-.5v-1h-1v1h1zm0-3.002v-2h-1v2h1zm0-4.002v-2h-1v2h1zm0-4.002v-2.001h-1v2.001h1zm0-4.002V34.99h-1v2h1zm0-4.002v-2.001h-1v2h1zm0-4.003v-2h-1v2h1zm0-4.002v-2h-1v2h1zm0-4.002v-2h-1v2h1zm0-4.002V14.98h-1v2.001h1zm0-4.002v-2.001h-1v2h1zm0-4.002V6.976h-1v2h1zm0-4.002V3.974h-1v1h1zm-.5-1.501h-.962v1h.962v-1zm-2.886 0h-1.924v1h1.924v-1zm-3.848 0h-1.924v1h1.924v-1zm-3.848 0h-.962v1h.962v-1zm-1.385.233l-.518.822.846.533.518-.821-.846-.534zm-1.554 2.464l-1.036 1.643.846.534 1.036-1.643-.846-.534zm-2.072 3.286l-1.036 1.643.846.533 1.036-1.642-.846-.534zm-2.072 3.286l-1.036 1.643.846.533 1.036-1.643-.846-.533zm-2.072 3.285l-1.036 1.643.846.534 1.036-1.643-.846-.534zm-2.072 3.286l-1.036 1.643.846.533 1.036-1.643-.846-.533zm-2.072 3.285l-1.036 1.643.846.534 1.036-1.643-.846-.534zm-2.072 3.286l-1.036 1.643.846.533 1.036-1.642-.846-.534zm-2.072 3.286l-1.036 1.643.846.533 1.036-1.643-.846-.533zm-2.072 3.285L382.45 34.1l.846.534 1.036-1.643-.846-.534zm-2.072 3.286l-.518.821.846.534.518-.822-.846-.533zm.405 1.088v-1.027h-1v1.027h1zm0-3.08v-2.054h-1v2.054h1zm0-4.107v-2.054h-1v2.054h1zm0-4.107v-2.054h-1v2.054h1zm0-4.107v-2.054h-1v2.054h1zm0-4.107v-2.054h-1v2.054h1zm0-4.107V11.16h-1v2.054h1zm0-4.107V7.054h-1v2.054h1zm0-4.107V3.974h-1v1.027h1zm-.5-1.527h-.962v1h.962v-1zm-2.886 0h-1.924v1h1.924v-1zm-3.848 0h-1.924v1h1.924v-1zm-3.848 0h-.962v1h.962v-1zm-.962.5v-1h-1v1h1zm11.544 0h1v-1h-1v1zm0 32.856h-1v3.46l1.846-2.927-.846-.533zm20.72-32.856v-1h-.551l-.295.467.846.533zm11.544 0h1v-1h-1v1zm0 48.026v1h1v-1h-1zm-11.544 0h-1v1h1v-1zm0-33.374h1v-3.507l-1.849 2.98.849.527zM381.319 52v1h.557l.293-.472-.85-.528zm-11.544 0h-1v1h1v-1zm-1-48.026v1h2v-1h-2zm0 3.002v2h2v-2h-2zm0 4.002v2h2v-2h-2zm0 4.002v2.001h2V14.98h-2zm0 4.002v2.001h2v-2h-2zm0 4.002v2.001h2v-2h-2zm0 4.002v2.002h2v-2.002h-2zm0 4.003v2h2v-2h-2zm0 4.002v2h2v-2h-2zm0 4.002v2.001h2v-2.001h-2zm0 4.002v2.001h2v-2h-2zm0 4.002v2.001h2v-2h-2zm0 4.002V52h2v-1h-2zm1 2.001h.962v-2h-.962v2zm2.886 0h1.924v-2h-1.924v2zm3.848 0h1.924v-2h-1.924v2zm3.848 0h.962v-2h-.962v2zm1.812-.472l.518-.835-1.699-1.055-.518.834 1.699 1.056zm1.554-2.504l1.036-1.668-1.699-1.055-1.036 1.668 1.699 1.055zm2.072-3.337l1.036-1.669-1.699-1.055-1.036 1.67 1.699 1.054zm2.072-3.337l1.036-1.67-1.699-1.054-1.036 1.669 1.699 1.055zm2.072-3.338l1.036-1.669-1.699-1.054-1.036 1.668 1.699 1.055zm2.072-3.337l1.036-1.669-1.699-1.055-1.036 1.669 1.699 1.055zm2.072-3.338l1.036-1.668-1.699-1.055-1.036 1.668 1.699 1.055zM396.155 30l1.036-1.669-1.699-1.055-1.036 1.67L396.155 30zm2.072-3.337l1.036-1.67-1.699-1.054-1.036 1.669 1.699 1.055zm2.072-3.338l1.036-1.668-1.699-1.055-1.036 1.668 1.699 1.055zm2.072-3.337l.518-.834-1.699-1.055-.518.834 1.699 1.055zm-1.332-1.362v1.043h2v-1.043h-2zm0 3.129v2.086h2v-2.086h-2zm0 4.172v2.085h2v-2.085h-2zm0 4.171v2.086h2v-2.086h-2zm0 4.172v2.086h2V34.27h-2zm0 4.172v2.086h2v-2.086h-2zm0 4.172v2.085h2v-2.085h-2zm0 4.171v2.086h2v-2.086h-2zm0 4.172V52h2v-1.043h-2zm1 2.043h.962v-2h-.962v2zm2.886 0h1.924v-2h-1.924v2zm3.848 0h1.924v-2h-1.924v2zm3.848 0h.962v-2h-.962v2zm1.962-1v-1h-2v1h2zm0-3.002v-2h-2v2h2zm0-4.002v-2h-2v2h2zm0-4.002v-2.001h-2v2.001h2zm0-4.002V34.99h-2v2h2zm0-4.002v-2.001h-2v2h2zm0-4.003v-2h-2v2h2zm0-4.002v-2h-2v2h2zm0-4.002v-2h-2v2h2zm0-4.002V14.98h-2v2.001h2zm0-4.002v-2.001h-2v2h2zm0-4.002V6.976h-2v2h2zm0-4.002V3.974h-2v1h2zm-1-2.001h-.962v2h.962v-2zm-2.886 0h-1.924v2h1.924v-2zm-3.848 0h-1.924v2h1.924v-2zm-3.848 0h-.962v2h.962v-2zm-1.808.467l-.518.821 1.692 1.067.518-.822-1.692-1.066zm-1.554 2.464l-1.036 1.643 1.692 1.066 1.036-1.642-1.692-1.067zm-2.072 3.285l-1.036 1.643 1.692 1.067 1.036-1.643-1.692-1.067zm-2.072 3.286l-1.036 1.643 1.692 1.067 1.036-1.643-1.692-1.067zm-2.072 3.286l-1.036 1.642 1.692 1.067 1.036-1.643-1.692-1.066zm-2.072 3.285l-1.036 1.643 1.692 1.067 1.036-1.643-1.692-1.067zm-2.072 3.286l-1.036 1.643 1.692 1.066 1.036-1.642-1.692-1.067zm-2.072 3.285l-1.036 1.643 1.692 1.067 1.036-1.643-1.692-1.067zm-2.072 3.286l-1.036 1.643 1.692 1.067 1.036-1.643-1.692-1.067zm-2.072 3.286l-1.036 1.642 1.692 1.067 1.036-1.643-1.692-1.066zm-2.072 3.285l-.518.822 1.692 1.066.518-.821-1.692-1.067zm1.328 1.355v-1.027h-2v1.027h2zm0-3.08v-2.054h-2v2.054h2zm0-4.107v-2.054h-2v2.054h2zm0-4.107v-2.054h-2v2.054h2zm0-4.107v-2.054h-2v2.054h2zm0-4.107v-2.054h-2v2.054h2zm0-4.107V11.16h-2v2.054h2zm0-4.107V7.054h-2v2.054h2zm0-4.107V3.974h-2v1.027h2zm-1-2.027h-.962v2h.962v-2zm-2.886 0h-1.924v2h1.924v-2zm-3.848 0h-1.924v2h1.924v-2zm-3.848 0h-.962v2h.962v-2zm65.818 30.378l.414.28.454-.674-.805-.102-.063.496zm-6.956-2.96l.359-.348-.359.348zm1.998-24.05l.235.441.006-.003-.241-.438zm35.15-2.368h.5v-.5h-.5v.5zm0 48.026v.5h.5V52h-.5zm-11.544 0h-.5v.5h.5V52zm0-17.76h.5v-.5h-.5v.5zm-6.808 0v-.5h-.276l-.147.232.423.268zM437.147 52v.5h.275l.147-.233-.422-.267zm-13.172 0l-.415-.28-.526.78h.941V52zm31.228-25.382v.5h.5v-.5h-.5zm0-14.43h.5v-.5h-.5v.5zm-15.022 1.036l.263.425.005-.003-.268-.422zm-.074 12.358l-.3.4.006.005.007.005.287-.41zm-3.967 7.49l-.524.777.829.56.524-.777-.829-.56zm-1.572 2.331l-1.049 1.554.829.56 1.049-1.554-.829-.56zm-2.097 3.108l-1.048 1.554.829.56 1.048-1.554-.829-.56zm-2.097 3.108l-1.048 1.554.829.56 1.048-1.554-.829-.56zm-2.096 3.108l-1.049 1.554.829.56 1.049-1.554-.829-.56zm-2.097 3.108l-1.048 1.554.829.56 1.048-1.554-.829-.56zm-2.097 3.108l-.524.777.829.56.524-.777-.829-.56zm-.109 1.557h1.097v-1h-1.097v1zm3.293 0h2.195v-1h-2.195v1zm4.39 0h2.196v-1h-2.196v1zm4.391 0h1.098v-1h-1.098v1zm1.52-.233l.562-.888-.844-.535-.563.889.845.535zm1.687-2.664l1.125-1.776-.845-.535-1.125 1.776.845.535zm2.25-3.552l1.125-1.776-.845-.535-1.125 1.776.845.535zm2.249-3.552l1.125-1.776-.845-.535-1.124 1.776.844.535zm2.25-3.552l1.125-1.776-.845-.535-1.125 1.776.845.535zm2.25-3.552l.562-.888-.845-.535-.562.889.845.535zm.14-.655h.851v-1h-.851v1zm2.553 0h1.702v-1h-1.702v1zm3.404 0h.851v-1h-.851v1zm.351-.5v1.11h1v-1.11h-1zm0 3.33v2.22h1v-2.22h-1zm0 4.44v2.22h1v-2.22h-1zm0 4.44v2.22h1v-2.22h-1zm0 4.44V52h1v-1.11h-1zm.5 1.61h.962v-1h-.962v1zm2.886 0h1.924v-1h-1.924v1zm3.848 0h1.924v-1h-1.924v1zm3.848 0h.962v-1h-.962v1zm1.462-.5v-1h-1v1h1zm0-3.002v-2h-1v2h1zm0-4.002v-2h-1v2h1zm0-4.002v-2.001h-1v2.001h1zm0-4.002V34.99h-1v2h1zm0-4.002v-2.001h-1v2h1zm0-4.003v-2h-1v2h1zm0-4.002v-2h-1v2h1zm0-4.002v-2h-1v2h1zm0-4.002V14.98h-1v2.001h1zm0-4.002v-2.001h-1v2h1zm0-4.002V6.976h-1v2h1zm0-4.002V3.974h-1v1h1zm-.5-1.501h-1.062v1h1.062v-1zm-3.186 0h-2.124v1h2.124v-1zm-4.248 0h-2.124v1h2.124v-1zm-4.247 0h-2.124v1h2.124v-1zm-4.248 0h-2.124v1h2.124v-1zm-4.248 0h-1.061v1h1.061v-1zm-1.061 0c-.303 0-.603.002-.898.005l.012 1c.291-.003.586-.005.886-.005v-1zm-2.691.05c-.616.024-1.214.056-1.793.097l.071.998c.567-.04 1.154-.072 1.761-.096l-.039-1zm-3.586.258a38.34 38.34 0 00-1.789.24l.158.988a36.015 36.015 0 011.74-.234l-.109-.994zm-3.568.581c-.622.14-1.208.298-1.759.473l.302.953c.521-.165 1.08-.316 1.677-.45l-.22-.976zm-3.479 1.126c-.29.131-.566.27-.83.415l.483.876c.239-.132.493-.26.761-.38l-.414-.911zm-.824.412a9.586 9.586 0 00-1.052.65l.582.814c.292-.208.605-.402.941-.582l-.471-.882zm-2.837 2.384a8.027 8.027 0 00-1.16 2.203l.945.327a7.063 7.063 0 011.015-1.93l-.8-.6zm-1.665 4.61c-.036.393-.054.8-.054 1.217h1c0-.389.016-.764.05-1.125l-.996-.093zm-.054 1.217v1.193h1v-1.193h-1zm0 3.58v2.386h1v-2.386h-1zm0 4.773v1.193h1v-1.193h-1zm0 1.193c0 .321.009.635.027.942l.998-.06c-.017-.285-.025-.58-.025-.882h-1zm.272 2.822c.136.652.325 1.263.567 1.833l.921-.391a8.844 8.844 0 01-.51-1.647l-.978.205zm1.53 3.517c.195.262.406.509.632.743l.719-.696a6.666 6.666 0 01-.55-.645l-.801.598zm.632.743c.236.243.489.473.759.69l.625-.781a7.13 7.13 0 01-.665-.605l-.719.696zm2.476 1.773c.575.284 1.198.527 1.868.731l.291-.957a11.293 11.293 0 01-1.716-.67l-.443.896zm3.8 1.188c.317.056.643.105.977.147l.126-.992c-.319-.04-.629-.087-.929-.14l-.174.984zm19.688-7.583h-1.194v1h1.194v-1zm-3.58 0h-2.387v1h2.387v-1zm-4.773 0h-1.193v1h1.193v-1zm-1.193 0c-.499 0-.966-.012-1.403-.035l-.053.998c.456.025.941.037 1.456.037v-1zm-4.112-.434c-.497-.144-.876-.318-1.152-.512l-.573.82c.391.274.879.488 1.445.653l.28-.96zm-1.138-.502a2.45 2.45 0 01-.635-.717l-.858.514c.239.399.536.736.893 1.003l.6-.8zm-1.225-2.716a10.192 10.192 0 01-.055-1.102h-1c0 .427.02.83.061 1.21l.994-.108zm-.055-1.102v-1.129h-1v1.129h1zm0-3.386V16.85h-1v1.128h1zm0-1.128c0-.348.021-.668.061-.96l-.99-.139a7.978 7.978 0 00-.071 1.099h1zm.689-2.633c.175-.228.383-.417.628-.568l-.527-.85a3.341 3.341 0 00-.895.81l.794.608zm.633-.571a4.634 4.634 0 011.162-.505l-.286-.959a5.612 5.612 0 00-1.413.62l.537.844zm3.828-.92c.431-.025.891-.038 1.38-.038v-1c-.507 0-.986.013-1.439.04l.059.998zm1.38-.038h1.193v-1h-1.193v1zm3.579 0h2.387v-1h-2.387v1zm4.773 0h1.194v-1h-1.194v1zm.694-.5v.902h1v-.902h-1zm0 2.706v1.803h1v-1.803h-1zm0 3.607v1.804h1V18.5h-1zm0 3.608v1.803h1V22.11h-1zm0 3.607v.902h1v-.902h-1zm-18.148 7.636l.829.56.908-1.347-1.611-.205-.126.992zm-6.956-2.96l.718-.696-.718.696zm1.998-24.05l.471.882.012-.006-.483-.876zm35.15-2.368h1v-1h-1v1zm0 48.026v1h1v-1h-1zm-11.544 0h-1v1h1v-1zm0-17.76h1v-1h-1v1zm-6.808 0v-1h-.551l-.294.465.845.535zM437.147 52v1h.55l.294-.465-.844-.535zm-13.172 0l-.829-.56-1.052 1.56h1.881v-1zm31.228-25.382v1h1v-1h-1zm0-14.43h1v-1h-1v1zm-15.022 1.036l.526.85.01-.006-.536-.844zm-.074 12.358l-.6.8.013.01.013.01.574-.82zm-4.381 7.21l-.525.778 1.658 1.118.525-.777-1.658-1.118zm-1.573 2.332l-1.048 1.554 1.658 1.118 1.048-1.554-1.658-1.118zm-2.097 3.108l-1.048 1.554 1.658 1.118 1.048-1.554-1.658-1.118zm-2.096 3.108l-1.049 1.554 1.658 1.118 1.049-1.554-1.658-1.118zm-2.097 3.108l-1.048 1.554 1.658 1.118 1.048-1.554-1.658-1.118zm-2.097 3.108l-1.048 1.554 1.658 1.118 1.048-1.554-1.658-1.118zm-2.096 3.108l-.524.777 1.658 1.118.524-.777-1.658-1.118zm.305 2.336h1.097v-2h-1.097v2zm3.293 0h2.195v-2h-2.195v2zm4.39 0h2.196v-2h-2.196v2zm4.391 0h1.098v-2h-1.098v2zm1.942-.465l.563-.888-1.69-1.07-.562.888 1.689 1.07zm1.688-2.664l1.124-1.776-1.689-1.07-1.125 1.776 1.69 1.07zm2.249-3.552l1.125-1.776-1.69-1.07-1.124 1.776 1.689 1.07zm2.25-3.552l1.125-1.776-1.69-1.07-1.125 1.776 1.69 1.07zm2.249-3.552l1.125-1.776-1.689-1.07-1.125 1.776 1.689 1.07zm2.25-3.552l.562-.888-1.689-1.07-.563.888 1.69 1.07zm-.282-.423h.851v-2h-.851v2zm2.553 0h1.702v-2h-1.702v2zm3.404 0h.851v-2h-.851v2zm-.149-1v1.11h2v-1.11h-2zm0 3.33v2.22h2v-2.22h-2zm0 4.44v2.22h2v-2.22h-2zm0 4.44v2.22h2v-2.22h-2zm0 4.44V52h2v-1.11h-2zm1 2.11h.962v-2h-.962v2zm2.886 0h1.924v-2h-1.924v2zm3.848 0h1.924v-2h-1.924v2zm3.848 0h.962v-2h-.962v2zm1.962-1v-1h-2v1h2zm0-3.002v-2h-2v2h2zm0-4.002v-2h-2v2h2zm0-4.002v-2.001h-2v2.001h2zm0-4.002V34.99h-2v2h2zm0-4.002v-2.001h-2v2h2zm0-4.003v-2h-2v2h2zm0-4.002v-2h-2v2h2zm0-4.002v-2h-2v2h2zm0-4.002V14.98h-2v2.001h2zm0-4.002v-2.001h-2v2h2zm0-4.002V6.976h-2v2h2zm0-4.002V3.974h-2v1h2zm-1-2.001h-1.062v2h1.062v-2zm-3.186 0h-2.124v2h2.124v-2zm-4.248 0h-2.124v2h2.124v-2zm-4.247 0h-2.124v2h2.124v-2zm-4.248 0h-2.124v2h2.124v-2zm-4.248 0h-1.061v2h1.061v-2zm-1.061 0c-.305 0-.607.002-.904.005l.024 2c.289-.003.582-.005.88-.005v-2zm-2.71.05c-.622.024-1.225.057-1.809.098l.141 1.995c.562-.04 1.144-.07 1.745-.094l-.077-1.999zm-3.622.261c-.628.07-1.233.15-1.813.244l.317 1.975a35.354 35.354 0 011.715-.23l-.219-1.989zm-3.624.59c-.633.144-1.234.305-1.799.484l.604 1.906a20.11 20.11 0 011.636-.439l-.441-1.95zm-3.574 1.158c-.301.137-.59.281-.866.433l.967 1.752c.227-.126.469-.247.725-.363l-.826-1.822zm-.854.427c-.39.209-.759.437-1.106.685l1.163 1.627a8 8 0 01.886-.548l-.943-1.764zm-3.001 2.526a8.563 8.563 0 00-1.233 2.338l1.89.655a6.532 6.532 0 01.944-1.795l-1.601-1.198zm-1.763 4.862a13.7 13.7 0 00-.056 1.264h2c0-.375.016-.734.048-1.08l-1.992-.184zm-.056 1.264v1.193h2v-1.193h-2zm0 3.58v2.386h2v-2.386h-2zm0 4.773v1.193h2v-1.193h-2zm0 1.193c0 .33.009.654.028.971l1.996-.118c-.016-.276-.024-.56-.024-.853h-2zm.282 2.925c.143.68.341 1.324.597 1.926l1.841-.783a8.294 8.294 0 01-.48-1.554l-1.958.41zm1.619 3.714c.208.278.433.542.674.79l1.437-1.39a6.153 6.153 0 01-.509-.598l-1.602 1.198zm.674.79c.251.26.52.504.806.733l1.25-1.561a6.615 6.615 0 01-.619-.563l-1.437 1.392zm2.614 1.874c.601.297 1.25.55 1.943.761l.582-1.913a10.784 10.784 0 01-1.639-.64l-.886 1.792zm3.934 1.232c.326.057.659.108 1.001.151l.252-1.984c-.312-.04-.613-.085-.905-.137l-.348 1.97zm19.775-8.575h-1.194v2h1.194v-2zm-3.58 0h-2.387v2h2.387v-2zm-4.773 0h-1.193v2h1.193v-2zm-1.193 0c-.491 0-.949-.012-1.376-.035l-.107 1.998c.466.025.96.037 1.483.037v-2zm-3.973-.414c-.461-.134-.785-.288-1.004-.441l-1.147 1.638c.449.315.991.549 1.593.724l.558-1.92zm-.977-.422a1.96 1.96 0 01-.506-.575l-1.716 1.029c.27.45.609.837 1.022 1.146l1.2-1.6zm-1.028-2.37a9.908 9.908 0 01-.052-1.048h-2c0 .443.02.864.064 1.264l1.988-.216zm-.052-1.048v-1.129h-2v1.129h2zm0-3.386V16.85h-2v1.128h2zm0-1.128c0-.328.019-.624.057-.892l-1.981-.275a8.41 8.41 0 00-.076 1.167h2zm.586-2.329c.138-.18.301-.327.494-.447l-1.053-1.7a3.817 3.817 0 00-1.028.93l1.587 1.217zm.504-.453a4.137 4.137 0 011.037-.448l-.572-1.917a6.106 6.106 0 00-1.538.677l1.073 1.688zm3.589-.843c.42-.024.87-.037 1.351-.037v-2c-.515 0-1.005.013-1.468.04l.117 1.997zm1.351-.037h1.193v-2h-1.193v2zm3.579 0h2.387v-2h-2.387v2zm4.773 0h1.194v-2h-1.194v2zm.194-1v.902h2v-.902h-2zm0 2.706v1.803h2v-1.803h-2zm0 3.607v1.804h2V18.5h-2zm0 3.608v1.803h2V22.11h-2zm0 3.607v.902h2v-.902h-2z" fill="#77C2F9" fill-opacity=".9"/></svg>