<svg width="340" height="50" viewBox="0 0 340 50" fill="none" xmlns="http://www.w3.org/2000/svg">
<path d="M5.698 49H5.198V49.4115L5.60179 49.4907L5.698 49ZM5.698 40.564L5.81381 40.0776L5.198 39.931V40.564H5.698ZM8.732 41.23L8.63394 41.7203L8.63844 41.7212L8.732 41.23ZM15.17 40.564L15.4524 40.9767L15.4567 40.9736L15.17 40.564ZM17.686 37.456L18.1333 37.6796L18.1363 37.6734L17.686 37.456ZM18.722 35.31L19.1723 35.5274L19.2835 35.2971L19.1618 35.0721L18.722 35.31ZM0.148 0.973997V0.473997H-0.690942L-0.291778 1.21189L0.148 0.973997ZM12.21 0.973997L12.6572 0.750389L12.519 0.473997H12.21V0.973997ZM24.272 25.098L23.8248 25.3216L23.963 25.598H24.272V25.098ZM24.568 25.098V25.598H24.9079L25.0329 25.282L24.568 25.098ZM34.114 0.973997V0.473997H33.7741L33.6491 0.790024L34.114 0.973997ZM45.732 0.973997L46.1878 1.17958L46.506 0.473997H45.732V0.973997ZM28.342 39.528L27.8862 39.3224L27.8851 39.3249L28.342 39.528ZM22.348 47.298L22.0687 46.8833L22.348 47.298ZM12.136 49.24C11.8806 49.24 11.6168 49.2348 11.3445 49.2242L11.3059 50.2235C11.5902 50.2345 11.867 50.24 12.136 50.24V49.24ZM9.75629 49.1124C9.25011 49.0622 8.72081 48.9971 8.1683 48.9171L8.02502 49.9068C8.59101 49.9888 9.13524 50.0557 9.65763 50.1075L9.75629 49.1124ZM6.58443 48.6583C6.32537 48.6115 6.06197 48.5618 5.79421 48.5093L5.60179 49.4907C5.87423 49.5441 6.14249 49.5947 6.40657 49.6424L6.58443 48.6583ZM6.198 49V47.9455H5.198V49H6.198ZM6.198 45.8365V43.7275H5.198V45.8365H6.198ZM6.198 41.6185V40.564H5.198V41.6185H6.198ZM5.58219 41.0504C5.83711 41.1111 6.09058 41.1703 6.34259 41.2281L6.56591 40.2533C6.31671 40.1962 6.06601 40.1376 5.81381 40.0776L5.58219 41.0504ZM7.86845 41.5633C8.1252 41.6172 8.38036 41.6696 8.63394 41.7203L8.83006 40.7397C8.57969 40.6896 8.32768 40.638 8.07405 40.5847L7.86845 41.5633ZM8.63844 41.7212C8.89253 41.7696 9.14402 41.8122 9.39292 41.8492L9.53965 40.86C9.30466 40.8251 9.06663 40.7847 8.82556 40.7388L8.63844 41.7212ZM10.9209 42.0051C11.181 42.019 11.4381 42.026 11.692 42.026V41.026C11.4564 41.026 11.2172 41.0195 10.9743 41.0065L10.9209 42.0051ZM11.692 42.026C12.0261 42.026 12.35 42.0082 12.6634 41.9723L12.5493 40.9788C12.2764 41.0101 11.9907 41.026 11.692 41.026V42.026ZM14.5742 41.4663C14.8836 41.3286 15.1765 41.1654 15.4523 40.9767L14.8877 40.1513C14.6626 40.3054 14.4227 40.4392 14.1677 40.5527L14.5742 41.4663ZM15.4567 40.9736C15.7495 40.7687 16.0288 40.5367 16.2948 40.2784L15.5981 39.5611C15.3686 39.7839 15.1303 39.9815 14.8833 40.1544L15.4567 40.9736ZM17.6209 38.6016C17.8003 38.3114 17.9711 38.0039 18.1332 37.6796L17.2388 37.2324C17.0891 37.5318 16.9329 37.8128 16.7703 38.0758L17.6209 38.6016ZM18.1363 37.6734L18.3953 37.1369L17.4947 36.7021L17.2357 37.2386L18.1363 37.6734ZM18.9133 36.0639L19.1723 35.5274L18.2717 35.0926L18.0127 35.6291L18.9133 36.0639ZM19.1618 35.0721L18.6974 34.2137L17.8179 34.6895L18.2822 35.5479L19.1618 35.0721ZM17.7687 32.4969L16.84 30.7801L15.9605 31.2559L16.8892 32.9727L17.7687 32.4969ZM15.9113 29.0633L14.9826 27.3465L14.1031 27.8223L15.0318 29.5391L15.9113 29.0633ZM14.0539 25.6297L13.1252 23.9129L12.2457 24.3887L13.1744 26.1055L14.0539 25.6297ZM12.1965 22.1961L11.2678 20.4793L10.3883 20.9551L11.317 22.6719L12.1965 22.1961ZM10.3391 18.7625L9.41043 17.0457L8.53087 17.5215L9.45957 19.2383L10.3391 18.7625ZM8.48173 15.3289L7.55303 13.6121L6.67347 14.0879L7.60217 15.8047L8.48173 15.3289ZM6.62433 11.8953L5.69563 10.1785L4.81607 10.6543L5.74477 12.3711L6.62433 11.8953ZM4.76693 8.4617L3.83823 6.7449L2.95867 7.2207L3.88737 8.9375L4.76693 8.4617ZM2.90953 5.0281L1.98083 3.3113L1.10127 3.7871L2.02997 5.5039L2.90953 5.0281ZM1.05213 1.5945L0.587778 0.736099L-0.291778 1.21189L0.172572 2.0703L1.05213 1.5945ZM0.148 1.474H1.15317V0.473997H0.148V1.474ZM3.1635 1.474H5.17383V0.473997H3.1635V1.474ZM7.18417 1.474H9.1945V0.473997H7.18417V1.474ZM11.2048 1.474H12.21V0.473997H11.2048V1.474ZM11.7628 1.1976L12.1936 2.05918L13.088 1.61196L12.6572 0.750389L11.7628 1.1976ZM13.0551 3.78232L13.9167 5.50546L14.8111 5.05825L13.9496 3.3351L13.0551 3.78232ZM14.7783 7.2286L15.6399 8.95175L16.5343 8.50453L15.6727 6.78139L14.7783 7.2286ZM16.5014 10.6749L17.363 12.398L18.2574 11.9508L17.3959 10.2277L16.5014 10.6749ZM18.2246 14.1212L19.0861 15.8443L19.9806 15.3971L19.119 13.674L18.2246 14.1212ZM19.9477 17.5675L20.8093 19.2906L21.7037 18.8434L20.8421 17.1203L19.9477 17.5675ZM21.6709 21.0137L22.5324 22.7369L23.4269 22.2897L22.5653 20.5665L21.6709 21.0137ZM23.394 24.46L23.8248 25.3216L24.7192 24.8744L24.2884 24.0128L23.394 24.46ZM24.272 25.598H24.346V24.598H24.272V25.598ZM24.494 25.598H24.568V24.598H24.494V25.598ZM25.0329 25.282L25.4307 24.2768L24.5008 23.9089L24.1031 24.914L25.0329 25.282ZM26.2262 22.2665L27.0217 20.2561L26.0918 19.8882L25.2963 21.8985L26.2262 22.2665ZM27.8172 18.2458L28.6127 16.2355L27.6828 15.8675L26.8873 17.8779L27.8172 18.2458ZM29.4082 14.2251L30.2037 12.2148L29.2738 11.8469L28.4783 13.8572L29.4082 14.2251ZM30.9992 10.2045L31.7947 8.19414L30.8648 7.82619L30.0693 9.83652L30.9992 10.2045ZM32.5902 6.1838L33.3857 4.17347L32.4558 3.80552L31.6603 5.81586L32.5902 6.1838ZM34.1812 2.16313L34.5789 1.15797L33.6491 0.790024L33.2513 1.79519L34.1812 2.16313ZM34.114 1.474H35.0822V0.473997H34.114V1.474ZM37.0185 1.474H38.9548V0.473997H37.0185V1.474ZM40.8912 1.474H42.8275V0.473997H40.8912V1.474ZM44.7638 1.474H45.732V0.473997H44.7638V1.474ZM45.2762 0.768414L44.881 1.64464L45.7926 2.05581L46.1878 1.17958L45.2762 0.768414ZM44.0905 3.3971L43.3001 5.14955L44.2116 5.56071L45.0021 3.80826L44.0905 3.3971ZM42.5096 6.90201L41.7192 8.65446L42.6307 9.06563L43.4212 7.31317L42.5096 6.90201ZM40.9287 10.4069L40.1383 12.1594L41.0498 12.5705L41.8403 10.8181L40.9287 10.4069ZM39.3478 13.9118L38.5574 15.6643L39.4689 16.0754L40.2594 14.323L39.3478 13.9118ZM37.7669 17.4167L36.9764 19.1692L37.888 19.5804L38.6785 17.8279L37.7669 17.4167ZM36.186 20.9216L35.3955 22.6741L36.3071 23.0853L37.0976 21.3328L36.186 20.9216ZM34.6051 24.4266L33.8146 26.179L34.7262 26.5902L35.5166 24.8377L34.6051 24.4266ZM33.0242 27.9315L32.2337 29.6839L33.1453 30.0951L33.9357 28.3426L33.0242 27.9315ZM31.4433 31.4364L30.6528 33.1888L31.5644 33.6L32.3548 31.8475L31.4433 31.4364ZM29.8624 34.9413L29.0719 36.6937L29.9835 37.1049L30.7739 35.3524L29.8624 34.9413ZM28.2814 38.4462L27.8862 39.3224L28.7978 39.7336L29.193 38.8574L28.2814 38.4462ZM27.8851 39.3249C27.7164 39.7046 27.5429 40.0727 27.3648 40.4292L28.2594 40.8761C28.4445 40.5056 28.6243 40.1239 28.7989 39.7311L27.8851 39.3249ZM26.1677 42.544C25.7126 43.2519 25.2334 43.8985 24.7305 44.4847L25.4895 45.1358C26.0246 44.5121 26.5309 43.8282 27.0088 43.0848L26.1677 42.544ZM23.0245 46.1686C22.7134 46.4255 22.3948 46.6637 22.0687 46.8833L22.6273 47.7127C22.981 47.4745 23.3256 47.2168 23.6612 46.9398L23.0245 46.1686ZM22.0687 46.8833C21.8383 47.0384 21.5981 47.1861 21.3478 47.3263L21.8366 48.1987C22.11 48.0456 22.3736 47.8836 22.6273 47.7127L22.0687 46.8833ZM19.8054 48.0466C19.2922 48.2445 18.747 48.4183 18.1693 48.5677L18.4196 49.5359C19.0317 49.3776 19.6137 49.1923 20.1653 48.9796L19.8054 48.0466ZM16.4776 48.9198C15.9267 49.0092 15.3519 49.08 14.7528 49.1321L14.8394 50.1283C15.4613 50.0743 16.0608 50.0005 16.6378 49.9069L16.4776 48.9198ZM13.0108 49.2287C12.724 49.2362 12.4324 49.24 12.136 49.24V50.24C12.4408 50.24 12.7412 50.2361 13.037 50.2284L13.0108 49.2287ZM5.698 49H4.698V49.823L5.50559 49.9813L5.698 49ZM5.698 40.564L5.92962 39.5912L4.698 39.298V40.564H5.698ZM8.732 41.23L8.53588 42.2106L8.54489 42.2123L8.732 41.23ZM15.17 40.564L15.7347 41.3894L15.7435 41.3832L15.17 40.564ZM17.686 37.456L18.5805 37.9033L18.5866 37.8908L17.686 37.456ZM18.722 35.31L19.6226 35.7448L19.8449 35.2841L19.6016 34.8342L18.722 35.31ZM0.148 0.973997V-0.0260029H-1.52988L-0.731556 1.44979L0.148 0.973997ZM12.21 0.973997L13.1044 0.526783L12.828 -0.0260029H12.21V0.973997ZM24.272 25.098L23.3776 25.5452L23.654 26.098H24.272V25.098ZM24.568 25.098V26.098H25.2477L25.4978 25.4659L24.568 25.098ZM34.114 0.973997V-0.0260029H33.4343L33.1842 0.60605L34.114 0.973997ZM45.732 0.973997L46.6436 1.38516L47.2801 -0.0260029H45.732V0.973997ZM28.342 39.528L27.4304 39.1168L27.4282 39.1219L28.342 39.528ZM22.348 47.298L21.7894 46.4686L22.348 47.298ZM12.136 48.74C11.8874 48.74 11.63 48.7349 11.3638 48.7246L11.2866 50.7231C11.577 50.7343 11.8602 50.74 12.136 50.74V48.74ZM9.80562 48.6148C9.30755 48.5654 8.78572 48.5013 8.23994 48.4223L7.95338 50.4017C8.5261 50.4846 9.0778 50.5524 9.6083 50.605L9.80562 48.6148ZM6.67335 48.1663C6.41681 48.1199 6.15584 48.0707 5.89042 48.0187L5.50559 49.9813C5.78036 50.0352 6.05105 50.0862 6.31764 50.1344L6.67335 48.1663ZM6.698 49V47.9455H4.698V49H6.698ZM6.698 45.8365V43.7275H4.698V45.8365H6.698ZM6.698 41.6185V40.564H4.698V41.6185H6.698ZM5.46638 41.5368C5.72266 41.5978 5.97751 41.6574 6.23092 41.7154L6.67757 39.7659C6.42977 39.7092 6.18046 39.6509 5.92962 39.5912L5.46638 41.5368ZM7.76565 42.0526C8.02395 42.1069 8.2807 42.1595 8.53588 42.2106L8.92812 40.2494C8.67935 40.1997 8.42893 40.1483 8.17684 40.0954L7.76565 42.0526ZM8.54489 42.2123C8.80548 42.262 9.06371 42.3058 9.31956 42.3437L9.61302 40.3654C9.38498 40.3316 9.15368 40.2923 8.91911 40.2477L8.54489 42.2123ZM10.8942 42.5044C11.163 42.5188 11.4289 42.526 11.692 42.526V40.526C11.4656 40.526 11.2353 40.5198 11.001 40.5072L10.8942 42.5044ZM11.692 42.526C12.0438 42.526 12.3868 42.5073 12.7204 42.469L12.4923 40.482C12.2396 40.5111 11.973 40.526 11.692 40.526V42.526ZM14.7775 41.9231C15.114 41.7733 15.4334 41.5955 15.7347 41.3893L14.6053 39.7387C14.4056 39.8753 14.1923 39.9944 13.9644 40.0959L14.7775 41.9231ZM15.7435 41.3832C16.0591 41.1623 16.3589 40.9131 16.6431 40.6371L15.2497 39.2024C15.0385 39.4076 14.8206 39.5879 14.5965 39.7448L15.7435 41.3832ZM18.0462 38.8645C18.2341 38.5606 18.412 38.24 18.5804 37.9032L16.7916 37.0088C16.6481 37.2957 16.4991 37.5636 16.345 37.8129L18.0462 38.8645ZM18.5866 37.8908L18.8456 37.3542L17.0444 36.4847L16.7854 37.0213L18.5866 37.8908ZM19.3636 36.2812L19.6226 35.7448L17.8214 34.8753L17.5625 35.4118L19.3636 36.2812ZM19.6016 34.8342L19.1372 33.9758L17.3781 34.9274L17.8424 35.7858L19.6016 34.8342ZM18.2085 32.259L17.2798 30.5422L15.5207 31.4938L16.4494 33.2106L18.2085 32.259ZM16.3511 28.8254L15.4224 27.1086L13.6633 28.0602L14.592 29.777L16.3511 28.8254ZM14.4937 25.3918L13.565 23.675L11.8059 24.6266L12.7346 26.3434L14.4937 25.3918ZM12.6363 21.9582L11.7076 20.2414L9.94849 21.193L10.8772 22.9098L12.6363 21.9582ZM10.7789 18.5246L9.85021 16.8078L8.09109 17.7594L9.01979 19.4762L10.7789 18.5246ZM8.92151 15.091L7.99281 13.3742L6.23369 14.3258L7.16239 16.0426L8.92151 15.091ZM7.06411 11.6574L6.13541 9.9406L4.37629 10.8922L5.30499 12.609L7.06411 11.6574ZM5.20671 8.2238L4.27801 6.507L2.51889 7.45859L3.44759 9.17539L5.20671 8.2238ZM3.34931 4.79021L2.42061 3.0734L0.661495 4.02499L1.59019 5.74179L3.34931 4.79021ZM1.49191 1.3566L1.02756 0.498201L-0.731556 1.44979L-0.267206 2.30819L1.49191 1.3566ZM0.148 1.974H1.15317V-0.0260029H0.148V1.974ZM3.1635 1.974H5.17383V-0.0260029H3.1635V1.974ZM7.18417 1.974H9.1945V-0.0260029H7.18417V1.974ZM11.2048 1.974H12.21V-0.0260029H11.2048V1.974ZM11.3156 1.42121L11.7464 2.28278L13.5352 1.38836L13.1044 0.526783L11.3156 1.42121ZM12.6079 4.00592L13.4695 5.72907L15.2584 4.83464L14.3968 3.1115L12.6079 4.00592ZM14.3311 7.45221L15.1926 9.17535L16.9815 8.28093L16.1199 6.55778L14.3311 7.45221ZM16.0542 10.8985L16.9158 12.6216L18.7046 11.7272L17.8431 10.0041L16.0542 10.8985ZM17.7774 14.3448L18.6389 16.0679L20.4278 15.1735L19.5662 13.4504L17.7774 14.3448ZM19.5005 17.7911L20.3621 19.5142L22.1509 18.6198L21.2894 16.8966L19.5005 17.7911ZM21.2236 21.2374L22.0852 22.9605L23.8741 22.0661L23.0125 20.3429L21.2236 21.2374ZM22.9468 24.6836L23.3776 25.5452L25.1664 24.6508L24.7356 23.7892L22.9468 24.6836ZM24.272 26.098H24.346V24.098H24.272V26.098ZM24.494 26.098H24.568V24.098H24.494V26.098ZM25.4978 25.4659L25.8956 24.4608L24.0359 23.7249L23.6382 24.7301L25.4978 25.4659ZM26.6911 22.4504L27.4866 20.4401L25.6269 19.7042L24.8314 21.7146L26.6911 22.4504ZM28.2821 18.4298L29.0776 16.4194L27.2179 15.6836L26.4224 17.6939L28.2821 18.4298ZM29.8731 14.4091L30.6686 12.3988L28.8089 11.6629L28.0134 13.6732L29.8731 14.4091ZM31.4641 10.3884L32.2596 8.37811L30.3999 7.64222L29.6044 9.65255L31.4641 10.3884ZM33.0551 6.36777L33.8506 4.35744L31.9909 3.62155L31.1954 5.63188L33.0551 6.36777ZM34.6461 2.34711L35.0438 1.34194L33.1842 0.60605L32.7864 1.61122L34.6461 2.34711ZM34.114 1.974H35.0822V-0.0260029H34.114V1.974ZM37.0185 1.974H38.9548V-0.0260029H37.0185V1.974ZM40.8912 1.974H42.8275V-0.0260029H40.8912V1.974ZM44.7638 1.974H45.732V-0.0260029H44.7638V1.974ZM44.8204 0.562832L44.4252 1.43906L46.2483 2.26139L46.6436 1.38516L44.8204 0.562832ZM43.6348 3.19151L42.8443 4.94397L44.6674 5.7663L45.4579 4.01384L43.6348 3.19151ZM42.0538 6.69642L41.2634 8.44888L43.0865 9.27121L43.877 7.51875L42.0538 6.69642ZM40.4729 10.2013L39.6825 11.9538L41.5056 12.7761L42.2961 11.0237L40.4729 10.2013ZM38.892 13.7062L38.1016 15.4587L39.9247 16.281L40.7152 14.5286L38.892 13.7062ZM37.3111 17.2112L36.5207 18.9636L38.3438 19.7859L39.1342 18.0335L37.3111 17.2112ZM35.7302 20.7161L34.9398 22.4685L36.7629 23.2908L37.5533 21.5384L35.7302 20.7161ZM34.1493 24.221L33.3589 25.9734L35.182 26.7957L35.9724 25.0433L34.1493 24.221ZM32.5684 27.7259L31.7779 29.4783L33.6011 30.3007L34.3915 28.5482L32.5684 27.7259ZM30.9875 31.2308L30.197 32.9832L32.0202 33.8056L32.8106 32.0531L30.9875 31.2308ZM29.4066 34.7357L28.6161 36.4882L30.4392 37.3105L31.2297 35.558L29.4066 34.7357ZM27.8257 38.2406L27.4304 39.1168L29.2536 39.9392L29.6488 39.0629L27.8257 38.2406ZM27.4282 39.1219C27.2624 39.4949 27.0921 39.8562 26.9175 40.2058L28.7067 41.0995C28.8953 40.7221 29.0783 40.3336 29.2558 39.9341L27.4282 39.1219ZM25.7471 42.2736C25.3034 42.9637 24.8378 43.5917 24.351 44.1592L25.8689 45.4614C26.4202 44.8189 26.9401 44.1163 27.4294 43.3552L25.7471 42.2736ZM22.7062 45.7831C22.4073 46.0298 22.1017 46.2582 21.7894 46.4686L22.9066 48.1274C23.2741 47.88 23.6317 47.6125 23.9795 47.3253L22.7062 45.7831ZM21.7894 46.4686C21.5707 46.6159 21.3421 46.7564 21.1034 46.8901L22.081 48.6349C22.366 48.4753 22.6413 48.3061 22.9066 48.1274L21.7894 46.4686ZM19.6255 47.5801C19.1315 47.7706 18.6047 47.9387 18.0442 48.0836L18.5448 50.0199C19.174 49.8573 19.7744 49.6663 20.3452 49.4461L19.6255 47.5801ZM16.3975 48.4262C15.8597 48.5135 15.2971 48.5829 14.7095 48.6339L14.8827 50.6264C15.5161 50.5714 16.1279 50.4962 16.7179 50.4004L16.3975 48.4262ZM12.9977 48.7289C12.7154 48.7363 12.4281 48.74 12.136 48.74V50.74C12.4451 50.74 12.7498 50.7361 13.0501 50.7282L12.9977 48.7289ZM85.2035 30.648H85.7035V29.7931L84.9584 30.2122L85.2035 30.648ZM60.7835 30.87L60.4789 31.2667L60.4869 31.2725L60.7835 30.87ZM56.6395 0.973997V0.473997H56.1395V0.973997H56.6395ZM68.0355 0.973997H68.5355V0.473997H68.0355V0.973997ZM69.7375 24.062L69.4403 24.4641L69.45 24.4713L69.4601 24.478L69.7375 24.062ZM80.3935 24.284L80.2389 23.8085L80.3935 24.284ZM85.2035 21.842L85.5158 22.2324L85.7035 22.0823V21.842H85.2035ZM85.2035 0.973997V0.473997H84.7035V0.973997H85.2035ZM96.7475 0.973997H97.2475V0.473997H96.7475V0.973997ZM96.7475 49V49.5H97.2475V49H96.7475ZM85.2035 49H84.7035V49.5H85.2035V49ZM84.9584 30.2122C84.6981 30.3586 84.4345 30.5001 84.1673 30.6366L84.6225 31.527C84.9014 31.3844 85.1768 31.2367 85.4486 31.0838L84.9584 30.2122ZM82.5375 31.3911C81.9894 31.6196 81.428 31.8294 80.8533 32.0205L81.1688 32.9694C81.7665 32.7707 82.351 32.5523 82.9223 32.3141L82.5375 31.3911ZM79.126 32.5282C78.5517 32.6757 77.9651 32.8062 77.3662 32.9194L77.5521 33.902C78.1716 33.7849 78.7792 33.6498 79.3749 33.4967L79.126 32.5282ZM75.5831 33.2012C74.9945 33.2766 74.3949 33.3367 73.7843 33.3813L73.8572 34.3786C74.4854 34.3327 75.1031 34.2709 75.7102 34.1931L75.5831 33.2012ZM71.9759 33.4676C71.6762 33.4745 71.3741 33.478 71.0695 33.478V34.478C71.3817 34.478 71.6916 34.4744 71.999 34.4673L71.9759 33.4676ZM71.0695 33.478C70.7686 33.478 70.4715 33.4721 70.178 33.4605L70.1382 34.4597C70.4452 34.4719 70.7557 34.478 71.0695 34.478V33.478ZM68.4064 33.3134C67.808 33.2365 67.2265 33.1328 66.662 33.0025L66.437 33.9768C67.0349 34.1149 67.649 34.2243 68.279 34.3053L68.4064 33.3134ZM64.9647 32.5126C64.4041 32.3165 63.8617 32.0905 63.3376 31.8348L62.8991 32.7335C63.459 33.0067 64.0375 33.2477 64.6345 33.4565L64.9647 32.5126ZM61.8047 30.9686C61.5587 30.8092 61.3171 30.6421 61.0801 30.4675L60.4869 31.2725C60.74 31.4591 60.9981 31.6375 61.261 31.8078L61.8047 30.9686ZM61.088 30.4734C60.8387 30.282 60.6015 30.0782 60.3762 29.8619L59.6836 30.5832C59.9355 30.8251 60.2007 31.0529 60.479 31.2666L61.088 30.4734ZM59.1727 28.4224C58.8332 27.9149 58.5351 27.3598 58.2794 26.756L57.3586 27.1461C57.6374 27.8043 57.9649 28.4154 58.3417 28.9785L59.1727 28.4224ZM57.6759 24.9442C57.5248 24.3492 57.4052 23.718 57.3177 23.0501L56.3261 23.1801C56.4184 23.8837 56.5451 24.5539 56.7067 25.1903L57.6759 24.9442ZM57.1578 21.1151C57.1456 20.7969 57.1395 20.4719 57.1395 20.14H56.1395C56.1395 20.4841 56.1458 20.822 56.1586 21.1535L57.1578 21.1151ZM57.1395 20.14V19.1817H56.1395V20.14H57.1395ZM57.1395 17.2651V15.3485H56.1395V17.2651H57.1395ZM57.1395 13.4319V11.5153H56.1395V13.4319H57.1395ZM57.1395 9.5987V7.6821H56.1395V9.5987H57.1395ZM57.1395 5.7655V3.8489H56.1395V5.7655H57.1395ZM57.1395 1.93229V0.973997H56.1395V1.93229H57.1395ZM56.6395 1.474H57.5892V0.473997H56.6395V1.474ZM59.4885 1.474H61.3878V0.473997H59.4885V1.474ZM63.2872 1.474H65.1865V0.473997H63.2872V1.474ZM67.0858 1.474H68.0355V0.473997H67.0858V1.474ZM67.5355 0.973997V1.8879H68.5355V0.973997H67.5355ZM67.5355 3.7157V5.5435H68.5355V3.7157H67.5355ZM67.5355 7.3713V9.1991H68.5355V7.3713H67.5355ZM67.5355 11.0269V12.8547H68.5355V11.0269H67.5355ZM67.5355 14.6825V16.5103H68.5355V14.6825H67.5355ZM67.5355 18.3381V19.252H68.5355V18.3381H67.5355ZM67.5355 19.252C67.5355 19.738 67.5586 20.1964 67.6056 20.6267L68.5997 20.5181C68.5571 20.1285 68.5355 19.7066 68.5355 19.252H67.5355ZM68.432 23.3437C68.7031 23.7914 69.0387 24.1673 69.4403 24.4641L70.0347 23.6599C69.7461 23.4466 69.4965 23.1709 69.2873 22.8256L68.432 23.3437ZM69.4601 24.478C69.8151 24.7147 70.1971 24.9176 70.605 25.0872L70.9889 24.1638C70.6379 24.0179 70.3135 23.8451 70.0148 23.646L69.4601 24.478ZM73.0746 25.6848C73.4758 25.7257 73.8928 25.746 74.3255 25.746V24.746C73.9239 24.746 73.5409 24.7272 73.1762 24.69L73.0746 25.6848ZM74.3255 25.746C74.5897 25.746 74.8531 25.7409 75.1158 25.7307L75.0771 24.7315C74.8274 24.7412 74.5768 24.746 74.3255 24.746V25.746ZM76.6924 25.6075C77.2163 25.5456 77.737 25.4631 78.2545 25.3598L78.0588 24.3791C77.5672 24.4772 77.0727 24.5556 76.5751 24.6144L76.6924 25.6075ZM79.7918 24.9893C80.0447 24.9178 80.2968 24.8412 80.548 24.7595L80.2389 23.8085C79.9998 23.8862 79.7601 23.959 79.5196 24.0271L79.7918 24.9893ZM80.548 24.7595C81.0015 24.6121 81.4369 24.4555 81.854 24.2895L81.4843 23.3604C81.0884 23.5179 80.6733 23.6673 80.2389 23.8085L80.548 24.7595ZM84.3584 23.0462C84.772 22.7899 85.158 22.5187 85.5158 22.2324L84.8911 21.4516C84.5666 21.7112 84.2136 21.9595 83.8316 22.1962L84.3584 23.0462ZM85.7035 21.842V20.7986H84.7035V21.842H85.7035ZM85.7035 18.7118V16.625H84.7035V18.7118H85.7035ZM85.7035 14.5382V12.4514H84.7035V14.5382H85.7035ZM85.7035 10.3646V8.2778H84.7035V10.3646H85.7035ZM85.7035 6.191V4.1042H84.7035V6.191H85.7035ZM85.7035 2.0174V0.973997H84.7035V2.0174H85.7035ZM85.2035 1.474H86.1655V0.473997H85.2035V1.474ZM88.0895 1.474H90.0135V0.473997H88.0895V1.474ZM91.9375 1.474H93.8615V0.473997H91.9375V1.474ZM95.7855 1.474H96.7475V0.473997H95.7855V1.474ZM96.2475 0.973997V1.97454H97.2475V0.973997H96.2475ZM96.2475 3.97562V5.97671H97.2475V3.97562H96.2475ZM96.2475 7.97779V9.97887H97.2475V7.97779H96.2475ZM96.2475 11.98V13.981H97.2475V11.98H96.2475ZM96.2475 15.9821V17.9832H97.2475V15.9821H96.2475ZM96.2475 19.9843V21.9854H97.2475V19.9843H96.2475ZM96.2475 23.9865V25.9875H97.2475V23.9865H96.2475ZM96.2475 27.9886V29.9897H97.2475V27.9886H96.2475ZM96.2475 31.9908V33.9919H97.2475V31.9908H96.2475ZM96.2475 35.993V37.994H97.2475V35.993H96.2475ZM96.2475 39.9951V41.9962H97.2475V39.9951H96.2475ZM96.2475 43.9973V45.9984H97.2475V43.9973H96.2475ZM96.2475 47.9995V49H97.2475V47.9995H96.2475ZM96.7475 48.5H95.7855V49.5H96.7475V48.5ZM93.8615 48.5H91.9375V49.5H93.8615V48.5ZM90.0135 48.5H88.0895V49.5H90.0135V48.5ZM86.1655 48.5H85.2035V49.5H86.1655V48.5ZM85.7035 49V48.0824H84.7035V49H85.7035ZM85.7035 46.2472V44.412H84.7035V46.2472H85.7035ZM85.7035 42.5768V40.7416H84.7035V42.5768H85.7035ZM85.7035 38.9064V37.0712H84.7035V38.9064H85.7035ZM85.7035 35.236V33.4008H84.7035V35.236H85.7035ZM85.7035 31.5656V30.648H84.7035V31.5656H85.7035ZM85.2035 30.648H86.2035V28.9382L84.7132 29.7764L85.2035 30.648ZM60.7835 30.87L60.1745 31.6632L60.1823 31.6692L60.1903 31.6751L60.7835 30.87ZM56.6395 0.973997V-0.0260029H55.6395V0.973997H56.6395ZM68.0355 0.973997H69.0355V-0.0260029H68.0355V0.973997ZM69.7375 24.062L69.1431 24.8662L69.1626 24.8806L69.1828 24.8941L69.7375 24.062ZM80.3935 24.284L80.0844 23.333L80.3935 24.284ZM85.2035 21.842L85.8282 22.6229L86.2035 22.3226V21.842H85.2035ZM85.2035 0.973997V-0.0260029H84.2035V0.973997H85.2035ZM96.7475 0.973997H97.7475V-0.0260029H96.7475V0.973997ZM96.7475 49V50H97.7475V49H96.7475ZM85.2035 49H84.2035V50H85.2035V49ZM84.7132 29.7764C84.4588 29.9195 84.201 30.0579 83.9398 30.1914L84.8501 31.9722C85.1349 31.8266 85.4161 31.6758 85.6937 31.5196L84.7132 29.7764ZM82.3451 30.9296C81.8085 31.1533 81.2587 31.3588 80.6955 31.5461L81.3266 33.4439C81.9357 33.2413 82.5318 33.0186 83.1147 32.7756L82.3451 30.9296ZM79.0016 32.0439C78.438 32.1887 77.8619 32.3168 77.2733 32.4281L77.645 34.3933C78.2748 34.2742 78.8929 34.1368 79.4993 33.981L79.0016 32.0439ZM75.5196 32.7053C74.9403 32.7795 74.3497 32.8386 73.7479 32.8826L73.8936 34.8773C74.5306 34.8308 75.1573 34.768 75.7737 34.6891L75.5196 32.7053ZM71.9643 32.9677C71.6685 32.9746 71.3703 32.978 71.0695 32.978V34.978C71.3855 34.978 71.6992 34.9744 72.0106 34.9672L71.9643 32.9677ZM71.0695 32.978C70.7751 32.978 70.4846 32.9723 70.1979 32.9609L70.1183 34.9593C70.4321 34.9718 70.7492 34.978 71.0695 34.978V32.978ZM68.4701 32.8175C67.8874 32.7426 67.3223 32.6418 66.7745 32.5153L66.3244 34.464C66.9391 34.6059 67.5695 34.7182 68.2153 34.8012L68.4701 32.8175ZM65.1299 32.0407C64.5873 31.8509 64.0631 31.6324 63.5569 31.3854L62.6798 33.1828C63.2576 33.4647 63.8542 33.7132 64.4694 33.9285L65.1299 32.0407ZM62.0766 30.5489C61.839 30.395 61.6057 30.2337 61.3767 30.0649L60.1903 31.6751C60.4515 31.8675 60.7177 32.0516 60.9891 32.2275L62.0766 30.5489ZM61.3925 30.0769C61.1577 29.8966 60.9344 29.7047 60.7225 29.5012L59.3373 30.9439C59.6026 31.1986 59.8817 31.4383 60.1745 31.6632L61.3925 30.0769ZM59.5883 28.1443C59.2673 27.6647 58.984 27.1376 58.7397 26.561L56.8982 27.3411C57.1885 28.0265 57.5307 28.6657 57.9261 29.2566L59.5883 28.1443ZM58.1605 24.8211C58.0147 24.2468 57.8986 23.6351 57.8134 22.9851L55.8304 23.2451C55.925 23.9665 56.0552 24.6562 56.222 25.3134L58.1605 24.8211ZM57.6574 21.0959C57.6455 20.7844 57.6395 20.4657 57.6395 20.14H55.6395C55.6395 20.4903 55.6459 20.8345 55.6589 21.1726L57.6574 21.0959ZM57.6395 20.14V19.1817H55.6395V20.14H57.6395ZM57.6395 17.2651V15.3485H55.6395V17.2651H57.6395ZM57.6395 13.4319V11.5153H55.6395V13.4319H57.6395ZM57.6395 9.5987V7.6821H55.6395V9.5987H57.6395ZM57.6395 5.7655V3.8489H55.6395V5.7655H57.6395ZM57.6395 1.93229V0.973997H55.6395V1.93229H57.6395ZM56.6395 1.974H57.5892V-0.0260029H56.6395V1.974ZM59.4885 1.974H61.3878V-0.0260029H59.4885V1.974ZM63.2872 1.974H65.1865V-0.0260029H63.2872V1.974ZM67.0858 1.974H68.0355V-0.0260029H67.0858V1.974ZM67.0355 0.973997V1.8879H69.0355V0.973997H67.0355ZM67.0355 3.7157V5.5435H69.0355V3.7157H67.0355ZM67.0355 7.3713V9.1991H69.0355V7.3713H67.0355ZM67.0355 11.0269V12.8547H69.0355V11.0269H67.0355ZM67.0355 14.6825V16.5103H69.0355V14.6825H67.0355ZM67.0355 18.3381V19.252H69.0355V18.3381H67.0355ZM67.0355 19.252C67.0355 19.7536 67.0593 20.2303 67.1085 20.6809L69.0967 20.4639C69.0564 20.0945 69.0355 19.691 69.0355 19.252H67.0355ZM68.0043 23.6027C68.3065 24.1016 68.685 24.5276 69.1431 24.8662L70.3319 23.2578C70.0998 23.0863 69.8931 22.8607 69.715 22.5666L68.0043 23.6027ZM69.1828 24.8941C69.5659 25.1495 69.9766 25.3674 70.4131 25.5489L71.1808 23.7021C70.8584 23.568 70.5628 23.4103 70.2922 23.2299L69.1828 24.8941ZM73.0239 26.1822C73.4432 26.225 73.8772 26.246 74.3255 26.246V24.246C73.9395 24.246 73.5735 24.2279 73.2269 24.1925L73.0239 26.1822ZM74.3255 26.246C74.5961 26.246 74.866 26.2408 75.1352 26.2304L75.0578 24.2319C74.8145 24.2413 74.5704 24.246 74.3255 24.246V26.246ZM76.751 26.104C77.2881 26.0406 77.8219 25.956 78.3524 25.8501L77.9609 23.8888C77.4823 23.9843 77.0009 24.0606 76.5165 24.1178L76.751 26.104ZM79.9279 25.4704C80.187 25.3971 80.4452 25.3187 80.7026 25.235L80.0844 23.333C79.8514 23.4087 79.6177 23.4797 79.3835 23.546L79.9279 25.4704ZM80.7026 25.235C81.1656 25.0845 81.6111 24.9243 82.0389 24.7541L81.2994 22.8958C80.9142 23.0491 80.5092 23.1949 80.0844 23.333L80.7026 25.235ZM84.6218 23.4712C85.0512 23.2051 85.4537 22.9225 85.8282 22.6229L84.5788 21.0611C84.271 21.3074 83.9344 21.5442 83.5683 21.7712L84.6218 23.4712ZM86.2035 21.842V20.7986H84.2035V21.842H86.2035ZM86.2035 18.7118V16.625H84.2035V18.7118H86.2035ZM86.2035 14.5382V12.4514H84.2035V14.5382H86.2035ZM86.2035 10.3646V8.2778H84.2035V10.3646H86.2035ZM86.2035 6.191V4.1042H84.2035V6.191H86.2035ZM86.2035 2.0174V0.973997H84.2035V2.0174H86.2035ZM85.2035 1.974H86.1655V-0.0260029H85.2035V1.974ZM88.0895 1.974H90.0135V-0.0260029H88.0895V1.974ZM91.9375 1.974H93.8615V-0.0260029H91.9375V1.974ZM95.7855 1.974H96.7475V-0.0260029H95.7855V1.974ZM95.7475 0.973997V1.97454H97.7475V0.973997H95.7475ZM95.7475 3.97562V5.97671H97.7475V3.97562H95.7475ZM95.7475 7.97779V9.97887H97.7475V7.97779H95.7475ZM95.7475 11.98V13.981H97.7475V11.98H95.7475ZM95.7475 15.9821V17.9832H97.7475V15.9821H95.7475ZM95.7475 19.9843V21.9854H97.7475V19.9843H95.7475ZM95.7475 23.9865V25.9875H97.7475V23.9865H95.7475ZM95.7475 27.9886V29.9897H97.7475V27.9886H95.7475ZM95.7475 31.9908V33.9919H97.7475V31.9908H95.7475ZM95.7475 35.993V37.994H97.7475V35.993H95.7475ZM95.7475 39.9951V41.9962H97.7475V39.9951H95.7475ZM95.7475 43.9973V45.9984H97.7475V43.9973H95.7475ZM95.7475 47.9995V49H97.7475V47.9995H95.7475ZM96.7475 48H95.7855V50H96.7475V48ZM93.8615 48H91.9375V50H93.8615V48ZM90.0135 48H88.0895V50H90.0135V48ZM86.1655 48H85.2035V50H86.1655V48ZM86.2035 49V48.0824H84.2035V49H86.2035ZM86.2035 46.2472V44.412H84.2035V46.2472H86.2035ZM86.2035 42.5768V40.7416H84.2035V42.5768H86.2035ZM86.2035 38.9064V37.0712H84.2035V38.9064H86.2035ZM86.2035 35.236V33.4008H84.2035V35.236H86.2035ZM86.2035 31.5656V30.648H84.2035V31.5656H86.2035ZM114.503 0.973997V0.473997H114.003V0.973997H114.503ZM126.047 0.973997H126.547V0.473997H126.047V0.973997ZM126.047 33.83H125.547V35.5602L126.47 34.0967L126.047 33.83ZM146.767 0.973997V0.473997H146.492L146.345 0.707287L146.767 0.973997ZM158.311 0.973997H158.811V0.473997H158.311V0.973997ZM158.311 49V49.5H158.811V49H158.311ZM146.767 49H146.267V49.5H146.767V49ZM146.767 15.626H147.267V13.8727L146.343 15.3623L146.767 15.626ZM126.047 49V49.5H126.326L126.472 49.2637L126.047 49ZM114.503 49H114.003V49.5H114.503V49ZM114.003 0.973997V1.97454H115.003V0.973997H114.003ZM114.003 3.97562V5.97671H115.003V3.97562H114.003ZM114.003 7.97779V9.97887H115.003V7.97779H114.003ZM114.003 11.98V13.981H115.003V11.98H114.003ZM114.003 15.9821V17.9832H115.003V15.9821H114.003ZM114.003 19.9843V21.9854H115.003V19.9843H114.003ZM114.003 23.9865V25.9875H115.003V23.9865H114.003ZM114.003 27.9886V29.9897H115.003V27.9886H114.003ZM114.003 31.9908V33.9919H115.003V31.9908H114.003ZM114.003 35.993V37.994H115.003V35.993H114.003ZM114.003 39.9951V41.9962H115.003V39.9951H114.003ZM114.003 43.9973V45.9984H115.003V43.9973H114.003ZM114.003 47.9995V49H115.003V47.9995H114.003ZM114.503 49.5H115.465V48.5H114.503V49.5ZM117.389 49.5H119.313V48.5H117.389V49.5ZM121.237 49.5H123.161V48.5H121.237V49.5ZM125.085 49.5H126.047V48.5H125.085V49.5ZM126.472 49.2637L126.99 48.4294L126.141 47.9019L125.623 48.7363L126.472 49.2637ZM128.026 46.7607L129.062 45.092L128.213 44.5645L127.177 46.2332L128.026 46.7607ZM130.098 43.4233L131.134 41.7546L130.285 41.2271L129.249 42.8958L130.098 43.4233ZM132.17 40.0859L133.206 38.4172L132.357 37.8897L131.321 39.5584L132.17 40.0859ZM134.242 36.7485L135.278 35.0798L134.429 34.5523L133.393 36.221L134.242 36.7485ZM136.314 33.4111L137.35 31.7424L136.501 31.2149L135.465 32.8836L136.314 33.4111ZM138.386 30.0737L139.422 28.405L138.573 27.8775L137.537 29.5462L138.386 30.0737ZM140.458 26.7363L141.494 25.0676L140.645 24.5401L139.609 26.2088L140.458 26.7363ZM142.53 23.3989L143.566 21.7302L142.717 21.2027L141.681 22.8714L142.53 23.3989ZM144.602 20.0615L145.638 18.3928L144.789 17.8653L143.753 19.534L144.602 20.0615ZM146.674 16.7241L147.192 15.8897L146.343 15.3623L145.825 16.1966L146.674 16.7241ZM146.267 15.626V16.6689H147.267V15.626H146.267ZM146.267 18.7548V20.8407H147.267V18.7548H146.267ZM146.267 22.9266V25.0124H147.267V22.9266H146.267ZM146.267 27.0983V29.1842H147.267V27.0983H146.267ZM146.267 31.2701V33.3559H147.267V31.2701H146.267ZM146.267 35.4418V37.5277H147.267V35.4418H146.267ZM146.267 39.6136V41.6994H147.267V39.6136H146.267ZM146.267 43.7853V45.8712H147.267V43.7853H146.267ZM146.267 47.9571V49H147.267V47.9571H146.267ZM146.767 49.5H147.729V48.5H146.767V49.5ZM149.653 49.5H151.577V48.5H149.653V49.5ZM153.501 49.5H155.425V48.5H153.501V49.5ZM157.349 49.5H158.311V48.5H157.349V49.5ZM158.811 49V47.9995H157.811V49H158.811ZM158.811 45.9984V43.9973H157.811V45.9984H158.811ZM158.811 41.9962V39.9951H157.811V41.9962H158.811ZM158.811 37.994V35.993H157.811V37.994H158.811ZM158.811 33.9919V31.9908H157.811V33.9919H158.811ZM158.811 29.9897V27.9886H157.811V29.9897H158.811ZM158.811 25.9875V23.9865H157.811V25.9875H158.811ZM158.811 21.9854V19.9843H157.811V21.9854H158.811ZM158.811 17.9832V15.9821H157.811V17.9832H158.811ZM158.811 13.981V11.98H157.811V13.981H158.811ZM158.811 9.97887V7.97779H157.811V9.97887H158.811ZM158.811 5.97671V3.97562H157.811V5.97671H158.811ZM158.811 1.97454V0.973997H157.811V1.97454H158.811ZM158.311 0.473997H157.349V1.474H158.311V0.473997ZM155.425 0.473997H153.501V1.474H155.425V0.473997ZM151.577 0.473997H149.653V1.474H151.577V0.473997ZM147.729 0.473997H146.767V1.474H147.729V0.473997ZM146.345 0.707287L145.827 1.52869L146.672 2.06211L147.19 1.24071L146.345 0.707287ZM144.791 3.17149L143.755 4.81429L144.6 5.34771L145.636 3.70491L144.791 3.17149ZM142.719 6.45709L141.683 8.09989L142.528 8.63331L143.564 6.99051L142.719 6.45709ZM140.647 9.74269L139.611 11.3855L140.456 11.9189L141.492 10.2761L140.647 9.74269ZM138.575 13.0283L137.539 14.6711L138.384 15.2045L139.42 13.5617L138.575 13.0283ZM136.503 16.3139L135.467 17.9567L136.312 18.4901L137.348 16.8473L136.503 16.3139ZM134.431 19.5995L133.395 21.2423L134.24 21.7757L135.276 20.1329L134.431 19.5995ZM132.359 22.8851L131.323 24.5279L132.168 25.0613L133.204 23.4185L132.359 22.8851ZM130.287 26.1707L129.251 27.8135L130.096 28.3469L131.132 26.7041L130.287 26.1707ZM128.215 29.4563L127.179 31.0991L128.024 31.6325L129.06 29.9897L128.215 29.4563ZM126.143 32.7419L125.625 33.5633L126.47 34.0967L126.988 33.2753L126.143 32.7419ZM126.547 33.83V32.8032H125.547V33.83H126.547ZM126.547 30.7497V28.6962H125.547V30.7497H126.547ZM126.547 26.6427V24.5892H125.547V26.6427H126.547ZM126.547 22.5357V20.4822H125.547V22.5357H126.547ZM126.547 18.4287V16.3752H125.547V18.4287H126.547ZM126.547 14.3217V12.2682H125.547V14.3217H126.547ZM126.547 10.2147V8.16125H125.547V10.2147H126.547ZM126.547 6.10774V4.05424H125.547V6.10774H126.547ZM126.547 2.00074V0.973997H125.547V2.00074H126.547ZM126.047 0.473997H125.085V1.474H126.047V0.473997ZM123.161 0.473997H121.237V1.474H123.161V0.473997ZM119.313 0.473997H117.389V1.474H119.313V0.473997ZM115.465 0.473997H114.503V1.474H115.465V0.473997ZM114.503 0.973997V-0.0260029H113.503V0.973997H114.503ZM126.047 0.973997H127.047V-0.0260029H126.047V0.973997ZM126.047 33.83H125.047V37.2904L126.893 34.3634L126.047 33.83ZM146.767 0.973997V-0.0260029H146.216L145.922 0.440577L146.767 0.973997ZM158.311 0.973997H159.311V-0.0260029H158.311V0.973997ZM158.311 49V50H159.311V49H158.311ZM146.767 49H145.767V50H146.767V49ZM146.767 15.626H147.767V12.1194L145.918 15.0985L146.767 15.626ZM126.047 49V50H126.604L126.897 49.5275L126.047 49ZM114.503 49H113.503V50H114.503V49ZM113.503 0.973997V1.97454H115.503V0.973997H113.503ZM113.503 3.97562V5.97671H115.503V3.97562H113.503ZM113.503 7.97779V9.97887H115.503V7.97779H113.503ZM113.503 11.98V13.981H115.503V11.98H113.503ZM113.503 15.9821V17.9832H115.503V15.9821H113.503ZM113.503 19.9843V21.9854H115.503V19.9843H113.503ZM113.503 23.9865V25.9875H115.503V23.9865H113.503ZM113.503 27.9886V29.9897H115.503V27.9886H113.503ZM113.503 31.9908V33.9919H115.503V31.9908H113.503ZM113.503 35.993V37.994H115.503V35.993H113.503ZM113.503 39.9951V41.9962H115.503V39.9951H113.503ZM113.503 43.9973V45.9984H115.503V43.9973H113.503ZM113.503 47.9995V49H115.503V47.9995H113.503ZM114.503 50H115.465V48H114.503V50ZM117.389 50H119.313V48H117.389V50ZM121.237 50H123.161V48H121.237V50ZM125.085 50H126.047V48H125.085V50ZM126.897 49.5275L127.415 48.6931L125.716 47.6382L125.198 48.4725L126.897 49.5275ZM128.451 47.0244L129.487 45.3557L127.788 44.3008L126.752 45.9695L128.451 47.0244ZM130.523 43.687L131.559 42.0183L129.86 40.9634L128.824 42.6321L130.523 43.687ZM132.595 40.3496L133.631 38.6809L131.932 37.626L130.896 39.2947L132.595 40.3496ZM134.667 37.0122L135.703 35.3435L134.004 34.2886L132.968 35.9573L134.667 37.0122ZM136.739 33.6748L137.775 32.0061L136.076 30.9512L135.04 32.6199L136.739 33.6748ZM138.811 30.3374L139.847 28.6687L138.148 27.6138L137.112 29.2825L138.811 30.3374ZM140.883 27L141.919 25.3313L140.22 24.2764L139.184 25.9451L140.883 27ZM142.955 23.6626L143.991 21.9939L142.292 20.939L141.256 22.6077L142.955 23.6626ZM145.027 20.3252L146.063 18.6565L144.364 17.6016L143.328 19.2703L145.027 20.3252ZM147.099 16.9878L147.617 16.1535L145.918 15.0985L145.4 15.9329L147.099 16.9878ZM145.767 15.626V16.6689H147.767V15.626H145.767ZM145.767 18.7548V20.8407H147.767V18.7548H145.767ZM145.767 22.9266V25.0124H147.767V22.9266H145.767ZM145.767 27.0983V29.1842H147.767V27.0983H145.767ZM145.767 31.2701V33.3559H147.767V31.2701H145.767ZM145.767 35.4418V37.5277H147.767V35.4418H145.767ZM145.767 39.6136V41.6994H147.767V39.6136H145.767ZM145.767 43.7853V45.8712H147.767V43.7853H145.767ZM145.767 47.9571V49H147.767V47.9571H145.767ZM146.767 50H147.729V48H146.767V50ZM149.653 50H151.577V48H149.653V50ZM153.501 50H155.425V48H153.501V50ZM157.349 50H158.311V48H157.349V50ZM159.311 49V47.9995H157.311V49H159.311ZM159.311 45.9984V43.9973H157.311V45.9984H159.311ZM159.311 41.9962V39.9951H157.311V41.9962H159.311ZM159.311 37.994V35.993H157.311V37.994H159.311ZM159.311 33.9919V31.9908H157.311V33.9919H159.311ZM159.311 29.9897V27.9886H157.311V29.9897H159.311ZM159.311 25.9875V23.9865H157.311V25.9875H159.311ZM159.311 21.9854V19.9843H157.311V21.9854H159.311ZM159.311 17.9832V15.9821H157.311V17.9832H159.311ZM159.311 13.981V11.98H157.311V13.981H159.311ZM159.311 9.97887V7.97779H157.311V9.97887H159.311ZM159.311 5.97671V3.97562H157.311V5.97671H159.311ZM159.311 1.97454V0.973997H157.311V1.97454H159.311ZM158.311 -0.0260029H157.349V1.974H158.311V-0.0260029ZM155.425 -0.0260029H153.501V1.974H155.425V-0.0260029ZM151.577 -0.0260029H149.653V1.974H151.577V-0.0260029ZM147.729 -0.0260029H146.767V1.974H147.729V-0.0260029ZM145.922 0.440577L145.404 1.26198L147.095 2.32882L147.613 1.50742L145.922 0.440577ZM144.368 2.90478L143.332 4.54758L145.023 5.61442L146.059 3.97162L144.368 2.90478ZM142.296 6.19038L141.26 7.83318L142.951 8.90002L143.987 7.25722L142.296 6.19038ZM140.224 9.47598L139.188 11.1188L140.879 12.1856L141.915 10.5428L140.224 9.47598ZM138.152 12.7616L137.116 14.4044L138.807 15.4712L139.843 13.8284L138.152 12.7616ZM136.08 16.0472L135.044 17.69L136.735 18.7568L137.771 17.114L136.08 16.0472ZM134.008 19.3328L132.972 20.9756L134.663 22.0424L135.699 20.3996L134.008 19.3328ZM131.936 22.6184L130.9 24.2612L132.591 25.328L133.627 23.6852L131.936 22.6184ZM129.864 25.904L128.828 27.5468L130.519 28.6136L131.555 26.9708L129.864 25.904ZM127.792 29.1896L126.756 30.8324L128.447 31.8992L129.483 30.2564L127.792 29.1896ZM125.72 32.4752L125.202 33.2966L126.893 34.3634L127.411 33.542L125.72 32.4752ZM127.047 33.83V32.8032H125.047V33.83H127.047ZM127.047 30.7497V28.6962H125.047V30.7497H127.047ZM127.047 26.6427V24.5892H125.047V26.6427H127.047ZM127.047 22.5357V20.4822H125.047V22.5357H127.047ZM127.047 18.4287V16.3752H125.047V18.4287H127.047ZM127.047 14.3217V12.2682H125.047V14.3217H127.047ZM127.047 10.2147V8.16125H125.047V10.2147H127.047ZM127.047 6.10774V4.05424H125.047V6.10774H127.047ZM127.047 2.00074V0.973997H125.047V2.00074H127.047ZM126.047 -0.0260029H125.085V1.974H126.047V-0.0260029ZM123.161 -0.0260029H121.237V1.974H123.161V-0.0260029ZM119.313 -0.0260029H117.389V1.974H119.313V-0.0260029ZM115.465 -0.0260029H114.503V1.974H115.465V-0.0260029ZM176.103 0.973997V0.473997H175.603V0.973997H176.103ZM192.531 0.973997L193.003 0.811001L192.887 0.473997H192.531V0.973997ZM204.371 35.31L203.898 35.473L204.374 36.8524L204.844 35.4712L204.371 35.31ZM216.063 0.973997V0.473997H215.705L215.589 0.812826L216.063 0.973997ZM231.529 0.973997H232.029V0.473997H231.529V0.973997ZM231.529 49V49.5H232.029V49H231.529ZM221.095 49H220.595V49.5H221.095V49ZM221.095 13.48H221.595V12.98H221.095V13.48ZM220.873 13.48V12.98H220.515L220.4 13.3183L220.873 13.48ZM208.737 49V49.5H209.094L209.21 49.1617L208.737 49ZM199.487 49L199.015 49.1661L199.133 49.5H199.487V49ZM186.981 13.48L187.452 13.3139L187.335 12.98H186.981V13.48ZM186.685 13.48V12.98H186.185V13.48H186.685ZM186.685 49V49.5H187.185V49H186.685ZM176.103 49H175.603V49.5H176.103V49ZM175.603 0.973997V1.97454H176.603V0.973997H175.603ZM175.603 3.97562V5.97671H176.603V3.97562H175.603ZM175.603 7.97779V9.97887H176.603V7.97779H175.603ZM175.603 11.98V13.981H176.603V11.98H175.603ZM175.603 15.9821V17.9832H176.603V15.9821H175.603ZM175.603 19.9843V21.9854H176.603V19.9843H175.603ZM175.603 23.9865V25.9875H176.603V23.9865H175.603ZM175.603 27.9886V29.9897H176.603V27.9886H175.603ZM175.603 31.9908V33.9919H176.603V31.9908H175.603ZM175.603 35.993V37.994H176.603V35.993H175.603ZM175.603 39.9951V41.9962H176.603V39.9951H175.603ZM175.603 43.9973V45.9984H176.603V43.9973H175.603ZM175.603 47.9995V49H176.603V47.9995H175.603ZM176.103 49.5H176.984V48.5H176.103V49.5ZM178.748 49.5H180.512V48.5H178.748V49.5ZM182.275 49.5H184.039V48.5H182.275V49.5ZM185.803 49.5H186.685V48.5H185.803V49.5ZM187.185 49V48.0133H186.185V49H187.185ZM187.185 46.04V44.0667H186.185V46.04H187.185ZM187.185 42.0933V40.12H186.185V42.0933H187.185ZM187.185 38.1467V36.1733H186.185V38.1467H187.185ZM187.185 34.2V32.2267H186.185V34.2H187.185ZM187.185 30.2533V28.28H186.185V30.2533H187.185ZM187.185 26.3067V24.3333H186.185V26.3067H187.185ZM187.185 22.36V20.3867H186.185V22.36H187.185ZM187.185 18.4133V16.44H186.185V18.4133H187.185ZM187.185 14.4667V13.48H186.185V14.4667H187.185ZM186.685 13.98H186.759V12.98H186.685V13.98ZM186.907 13.98H186.981V12.98H186.907V13.98ZM186.509 13.646L186.856 14.6327L187.8 14.3006L187.452 13.3139L186.509 13.646ZM187.551 16.606L188.246 18.5794L189.189 18.2473L188.494 16.2739L187.551 16.606ZM188.941 20.5527L189.636 22.526L190.579 22.1939L189.884 20.2206L188.941 20.5527ZM190.33 24.4994L191.025 26.4727L191.968 26.1406L191.274 24.1673L190.33 24.4994ZM191.72 28.446L192.415 30.4194L193.358 30.0873L192.663 28.1139L191.72 28.446ZM193.109 32.3927L193.804 34.3661L194.747 34.0339L194.053 32.0606L193.109 32.3927ZM194.499 36.3394L195.194 38.3127L196.137 37.9806L195.442 36.0073L194.499 36.3394ZM195.889 40.286L196.583 42.2594L197.527 41.9273L196.832 39.9539L195.889 40.286ZM197.278 44.2327L197.973 46.2061L198.916 45.874L198.221 43.9006L197.278 44.2327ZM198.668 48.1794L199.015 49.1661L199.958 48.8339L199.611 47.8473L198.668 48.1794ZM199.487 49.5H200.643V48.5H199.487V49.5ZM202.955 49.5H205.268V48.5H202.955V49.5ZM207.58 49.5H208.737V48.5H207.58V49.5ZM209.21 49.1617L209.547 48.175L208.601 47.8517L208.264 48.8383L209.21 49.1617ZM210.221 46.2017L210.895 44.2283L209.949 43.905L209.275 45.8783L210.221 46.2017ZM211.57 42.255L212.244 40.2817L211.298 39.9583L210.623 41.9317L211.57 42.255ZM212.918 38.3083L213.592 36.335L212.646 36.0117L211.972 37.985L212.918 38.3083ZM214.266 34.3617L214.941 32.3883L213.994 32.065L213.32 34.0383L214.266 34.3617ZM215.615 30.415L216.289 28.4417L215.343 28.1183L214.669 30.0917L215.615 30.415ZM216.963 26.4683L217.638 24.495L216.691 24.1717L216.017 26.145L216.963 26.4683ZM218.312 22.5217L218.986 20.5483L218.04 20.225L217.366 22.1983L218.312 22.5217ZM219.66 18.575L220.334 16.6017L219.388 16.2783L218.714 18.2517L219.66 18.575ZM221.009 14.6283L221.346 13.6417L220.4 13.3183L220.062 14.305L221.009 14.6283ZM220.873 13.98H220.928V12.98H220.873V13.98ZM221.039 13.98H221.095V12.98H221.039V13.98ZM220.595 13.48V14.4667H221.595V13.48H220.595ZM220.595 16.44V18.4133H221.595V16.44H220.595ZM220.595 20.3867V22.36H221.595V20.3867H220.595ZM220.595 24.3333V26.3067H221.595V24.3333H220.595ZM220.595 28.28V30.2533H221.595V28.28H220.595ZM220.595 32.2267V34.2H221.595V32.2267H220.595ZM220.595 36.1733V38.1467H221.595V36.1733H220.595ZM220.595 40.12V42.0933H221.595V40.12H220.595ZM220.595 44.0667V46.04H221.595V44.0667H220.595ZM220.595 48.0133V49H221.595V48.0133H220.595ZM221.095 49.5H221.964V48.5H221.095V49.5ZM223.703 49.5H225.442V48.5H223.703V49.5ZM227.181 49.5H228.92V48.5H227.181V49.5ZM230.659 49.5H231.529V48.5H230.659V49.5ZM232.029 49V47.9995H231.029V49H232.029ZM232.029 45.9984V43.9973H231.029V45.9984H232.029ZM232.029 41.9962V39.9951H231.029V41.9962H232.029ZM232.029 37.994V35.993H231.029V37.994H232.029ZM232.029 33.9919V31.9908H231.029V33.9919H232.029ZM232.029 29.9897V27.9886H231.029V29.9897H232.029ZM232.029 25.9875V23.9865H231.029V25.9875H232.029ZM232.029 21.9854V19.9843H231.029V21.9854H232.029ZM232.029 17.9832V15.9821H231.029V17.9832H232.029ZM232.029 13.981V11.98H231.029V13.981H232.029ZM232.029 9.97887V7.97779H231.029V9.97887H232.029ZM232.029 5.97671V3.97562H231.029V5.97671H232.029ZM232.029 1.97454V0.973997H231.029V1.97454H232.029ZM231.529 0.473997H230.562V1.474H231.529V0.473997ZM228.629 0.473997H226.696V1.474H228.629V0.473997ZM224.762 0.473997H222.829V1.474H224.762V0.473997ZM220.896 0.473997H218.963V1.474H220.896V0.473997ZM217.029 0.473997H216.063V1.474H217.029V0.473997ZM215.589 0.812826L215.265 1.7666L216.211 2.08895L216.536 1.13517L215.589 0.812826ZM214.615 3.67416L213.965 5.58171L214.912 5.90406L215.562 3.9965L214.615 3.67416ZM213.316 7.48927L212.666 9.39683L213.613 9.71917L214.263 7.81161L213.316 7.48927ZM212.017 11.3044L211.367 13.2119L212.314 13.5343L212.963 11.6267L212.017 11.3044ZM210.718 15.1195L210.068 17.0271L211.015 17.3494L211.664 15.4418L210.718 15.1195ZM209.419 18.9346L208.769 20.8422L209.716 21.1645L210.365 19.2569L209.419 18.9346ZM208.119 22.7497L207.47 24.6573L208.417 24.9796L209.066 23.0721L208.119 22.7497ZM206.82 26.5648L206.171 28.4724L207.117 28.7947L207.767 26.8872L206.82 26.5648ZM205.521 30.3799L204.872 32.2875L205.818 32.6098L206.468 30.7023L205.521 30.3799ZM204.222 34.1951L203.897 35.1488L204.844 35.4712L205.169 34.5174L204.222 34.1951ZM204.843 35.147L204.514 34.1932L203.569 34.5192L203.898 35.473L204.843 35.147ZM203.857 32.2857L203.199 30.3781L202.254 30.7041L202.911 32.6117L203.857 32.2857ZM202.541 28.4706L201.883 26.563L200.938 26.889L201.596 28.7966L202.541 28.4706ZM201.226 24.6554L200.568 22.7479L199.622 23.0739L200.28 24.9814L201.226 24.6554ZM199.91 20.8403L199.252 18.9328L198.307 19.2588L198.965 21.1663L199.91 20.8403ZM198.594 17.0252L197.937 15.1177L196.991 15.4437L197.649 17.3512L198.594 17.0252ZM197.279 13.2101L196.621 11.3026L195.676 11.6285L196.334 13.5361L197.279 13.2101ZM195.963 9.395L195.306 7.48745L194.36 7.81344L195.018 9.72099L195.963 9.395ZM194.648 5.5799L193.99 3.67234L193.045 3.99833L193.702 5.90589L194.648 5.5799ZM193.332 1.76478L193.003 0.811001L192.058 1.13699L192.387 2.09077L193.332 1.76478ZM192.531 0.473997H191.504V1.474H192.531V0.473997ZM189.45 0.473997H187.397V1.474H189.45V0.473997ZM185.343 0.473997H183.29V1.474H185.343V0.473997ZM181.236 0.473997H179.183V1.474H181.236V0.473997ZM177.129 0.473997H176.103V1.474H177.129V0.473997ZM176.103 0.973997V-0.0260029H175.103V0.973997H176.103ZM192.531 0.973997L193.476 0.648006L193.244 -0.0260029H192.531V0.973997ZM204.371 35.31L203.425 35.636L204.377 38.3948L205.317 35.6323L204.371 35.31ZM216.063 0.973997V-0.0260029H215.347L215.116 0.651655L216.063 0.973997ZM231.529 0.973997H232.529V-0.0260029H231.529V0.973997ZM231.529 49V50H232.529V49H231.529ZM221.095 49H220.095V50H221.095V49ZM221.095 13.48H222.095V12.48H221.095V13.48ZM220.873 13.48V12.48H220.158L219.926 13.1567L220.873 13.48ZM208.737 49V50H209.452L209.683 49.3233L208.737 49ZM199.487 49L198.543 49.3321L198.779 50H199.487V49ZM186.981 13.48L187.924 13.1479L187.689 12.48H186.981V13.48ZM186.685 13.48V12.48H185.685V13.48H186.685ZM186.685 49V50H187.685V49H186.685ZM176.103 49H175.103V50H176.103V49ZM175.103 0.973997V1.97454H177.103V0.973997H175.103ZM175.103 3.97562V5.97671H177.103V3.97562H175.103ZM175.103 7.97779V9.97887H177.103V7.97779H175.103ZM175.103 11.98V13.981H177.103V11.98H175.103ZM175.103 15.9821V17.9832H177.103V15.9821H175.103ZM175.103 19.9843V21.9854H177.103V19.9843H175.103ZM175.103 23.9865V25.9875H177.103V23.9865H175.103ZM175.103 27.9886V29.9897H177.103V27.9886H175.103ZM175.103 31.9908V33.9919H177.103V31.9908H175.103ZM175.103 35.993V37.994H177.103V35.993H175.103ZM175.103 39.9951V41.9962H177.103V39.9951H175.103ZM175.103 43.9973V45.9984H177.103V43.9973H175.103ZM175.103 47.9995V49H177.103V47.9995H175.103ZM176.103 50H176.984V48H176.103V50ZM178.748 50H180.512V48H178.748V50ZM182.275 50H184.039V48H182.275V50ZM185.803 50H186.685V48H185.803V50ZM187.685 49V48.0133H185.685V49H187.685ZM187.685 46.04V44.0667H185.685V46.04H187.685ZM187.685 42.0933V40.12H185.685V42.0933H187.685ZM187.685 38.1467V36.1733H185.685V38.1467H187.685ZM187.685 34.2V32.2267H185.685V34.2H187.685ZM187.685 30.2533V28.28H185.685V30.2533H187.685ZM187.685 26.3067V24.3333H185.685V26.3067H187.685ZM187.685 22.36V20.3867H185.685V22.36H187.685ZM187.685 18.4133V16.44H185.685V18.4133H187.685ZM187.685 14.4667V13.48H185.685V14.4667H187.685ZM186.685 14.48H186.759V12.48H186.685V14.48ZM186.907 14.48H186.981V12.48H186.907V14.48ZM186.037 13.8121L186.385 14.7988L188.271 14.1346L187.924 13.1479L186.037 13.8121ZM187.08 16.7721L187.774 18.7454L189.661 18.0812L188.966 16.1079L187.08 16.7721ZM188.469 20.7188L189.164 22.6921L191.05 22.0279L190.356 20.0546L188.469 20.7188ZM189.859 24.6654L190.553 26.6388L192.44 25.9746L191.745 24.0012L189.859 24.6654ZM191.248 28.6121L191.943 30.5854L193.83 29.9212L193.135 27.9479L191.248 28.6121ZM192.638 32.5588L193.333 34.5321L195.219 33.8679L194.524 31.8946L192.638 32.5588ZM194.027 36.5054L194.722 38.4788L196.609 37.8146L195.914 35.8412L194.027 36.5054ZM195.417 40.4521L196.112 42.4254L197.998 41.7612L197.303 39.7879L195.417 40.4521ZM196.806 44.3988L197.501 46.3721L199.388 45.7079L198.693 43.7346L196.806 44.3988ZM198.196 48.3454L198.543 49.3321L200.43 48.6679L200.083 47.6812L198.196 48.3454ZM199.487 50H200.643V48H199.487V50ZM202.955 50H205.268V48H202.955V50ZM207.58 50H208.737V48H207.58V50ZM209.683 49.3233L210.02 48.3366L208.127 47.69L207.79 48.6767L209.683 49.3233ZM210.694 46.3633L211.368 44.39L209.476 43.7433L208.802 45.7167L210.694 46.3633ZM212.043 42.4166L212.717 40.4433L210.824 39.7967L210.15 41.77L212.043 42.4166ZM213.391 38.47L214.065 36.4966L212.173 35.85L211.499 37.8233L213.391 38.47ZM214.74 34.5233L215.414 32.55L213.521 31.9034L212.847 33.8767L214.74 34.5233ZM216.088 30.5766L216.762 28.6033L214.87 27.9567L214.195 29.93L216.088 30.5766ZM217.437 26.63L218.111 24.6566L216.218 24.01L215.544 25.9833L217.437 26.63ZM218.785 22.6833L219.459 20.71L217.567 20.0633L216.892 22.0367L218.785 22.6833ZM220.133 18.7366L220.808 16.7633L218.915 16.1167L218.241 18.09L220.133 18.7366ZM221.482 14.79L221.819 13.8033L219.926 13.1567L219.589 14.1433L221.482 14.79ZM220.873 14.48H220.928V12.48H220.873V14.48ZM221.039 14.48H221.095V12.48H221.039V14.48ZM220.095 13.48V14.4667H222.095V13.48H220.095ZM220.095 16.44V18.4133H222.095V16.44H220.095ZM220.095 20.3867V22.36H222.095V20.3867H220.095ZM220.095 24.3333V26.3067H222.095V24.3333H220.095ZM220.095 28.28V30.2533H222.095V28.28H220.095ZM220.095 32.2267V34.2H222.095V32.2267H220.095ZM220.095 36.1733V38.1467H222.095V36.1733H220.095ZM220.095 40.12V42.0933H222.095V40.12H220.095ZM220.095 44.0667V46.04H222.095V44.0667H220.095ZM220.095 48.0133V49H222.095V48.0133H220.095ZM221.095 50H221.964V48H221.095V50ZM223.703 50H225.442V48H223.703V50ZM227.181 50H228.92V48H227.181V50ZM230.659 50H231.529V48H230.659V50ZM232.529 49V47.9995H230.529V49H232.529ZM232.529 45.9984V43.9973H230.529V45.9984H232.529ZM232.529 41.9962V39.9951H230.529V41.9962H232.529ZM232.529 37.994V35.993H230.529V37.994H232.529ZM232.529 33.9919V31.9908H230.529V33.9919H232.529ZM232.529 29.9897V27.9886H230.529V29.9897H232.529ZM232.529 25.9875V23.9865H230.529V25.9875H232.529ZM232.529 21.9854V19.9843H230.529V21.9854H232.529ZM232.529 17.9832V15.9821H230.529V17.9832H232.529ZM232.529 13.981V11.98H230.529V13.981H232.529ZM232.529 9.97887V7.97779H230.529V9.97887H232.529ZM232.529 5.97671V3.97562H230.529V5.97671H232.529ZM232.529 1.97454V0.973997H230.529V1.97454H232.529ZM231.529 -0.0260029H230.562V1.974H231.529V-0.0260029ZM228.629 -0.0260029H226.696V1.974H228.629V-0.0260029ZM224.762 -0.0260029H222.829V1.974H224.762V-0.0260029ZM220.896 -0.0260029H218.963V1.974H220.896V-0.0260029ZM217.029 -0.0260029H216.063V1.974H217.029V-0.0260029ZM215.116 0.651655L214.791 1.60543L216.684 2.25012L217.009 1.29634L215.116 0.651655ZM214.142 3.51299L213.492 5.42054L215.385 6.06523L216.035 4.15767L214.142 3.51299ZM212.843 7.3281L212.193 9.23565L214.086 9.88034L214.736 7.97278L212.843 7.3281ZM211.543 11.1432L210.894 13.0508L212.787 13.6954L213.437 11.7879L211.543 11.1432ZM210.244 14.9583L209.595 16.8659L211.488 17.5106L212.138 15.603L210.244 14.9583ZM208.945 18.7734L208.296 20.681L210.189 21.3257L210.839 19.4181L208.945 18.7734ZM207.646 22.5885L206.997 24.4961L208.89 25.1408L209.539 23.2332L207.646 22.5885ZM206.347 26.4037L205.697 28.3112L207.591 28.9559L208.24 27.0483L206.347 26.4037ZM205.048 30.2188L204.398 32.1263L206.292 32.771L206.941 30.8635L205.048 30.2188ZM203.749 34.0339L203.424 34.9877L205.317 35.6323L205.642 34.6786L203.749 34.0339ZM205.316 34.984L204.987 34.0302L203.096 34.6822L203.425 35.636L205.316 34.984ZM204.329 32.1227L203.672 30.2151L201.781 30.8671L202.439 32.7747L204.329 32.1227ZM203.014 28.3076L202.356 26.4L200.465 27.052L201.123 28.9595L203.014 28.3076ZM201.698 24.4925L201.04 22.5849L199.15 23.2369L199.808 25.1444L201.698 24.4925ZM200.383 20.6773L199.725 18.7698L197.834 19.4218L198.492 21.3293L200.383 20.6773ZM199.067 16.8622L198.409 14.9547L196.519 15.6067L197.176 17.5142L199.067 16.8622ZM197.752 13.0471L197.094 11.1396L195.203 11.7915L195.861 13.6991L197.752 13.0471ZM196.436 9.23201L195.778 7.32445L193.888 7.97643L194.545 9.88399L196.436 9.23201ZM195.12 5.4169L194.463 3.50934L192.572 4.16132L193.23 6.06888L195.12 5.4169ZM193.805 1.60179L193.476 0.648006L191.585 1.29999L191.914 2.25377L193.805 1.60179ZM192.531 -0.0260029H191.504V1.974H192.531V-0.0260029ZM189.45 -0.0260029H187.397V1.974H189.45V-0.0260029ZM185.343 -0.0260029H183.29V1.974H185.343V-0.0260029ZM181.236 -0.0260029H179.183V1.974H181.236V-0.0260029ZM177.129 -0.0260029H176.103V1.974H177.129V-0.0260029ZM264.656 49.444L264.598 49.9406L264.6 49.9408L264.656 49.444ZM259.106 48.334L259.236 47.8511L259.233 47.8502L259.106 48.334ZM253.482 46.04L253.205 46.4561L253.215 46.4624L253.482 46.04ZM249.782 41.97L250.217 41.7219L250.211 41.7128L249.782 41.97ZM285.746 1.862H286.246V1.44005L285.83 1.36911L285.746 1.862ZM285.746 10.52L285.629 11.006L286.246 11.155V10.52H285.746ZM266.358 8.596L266.311 8.09825L266.309 8.09848L266.358 8.596ZM263.25 9.336L263.412 9.80943L263.421 9.80589L263.25 9.336ZM286.042 39.38H286.542V38.7507L285.929 38.8929L286.042 39.38ZM286.042 48.112L286.143 48.6018L286.542 48.5197V48.112H286.042ZM270.502 49.24C270.006 49.24 269.522 49.2348 269.049 49.2244L269.027 50.2242C269.507 50.2347 269.999 50.24 270.502 50.24V49.24ZM266.152 49.0846C265.656 49.0459 265.176 49.0001 264.713 48.9472L264.6 49.9408C265.075 49.9951 265.567 50.0421 266.075 50.0816L266.152 49.0846ZM264.715 48.9474C264.268 48.8949 263.808 48.8298 263.335 48.7521L263.173 49.7389C263.66 49.8189 264.135 49.8861 264.598 49.9406L264.715 48.9474ZM260.595 48.1958C260.151 48.09 259.698 47.9752 259.236 47.8511L258.977 48.8169C259.448 48.9433 259.91 49.0605 260.363 49.1685L260.595 48.1958ZM259.233 47.8502C258.987 47.7861 258.746 47.7199 258.51 47.6518L258.232 48.6126C258.477 48.6832 258.726 48.7516 258.98 48.8178L259.233 47.8502ZM257.087 47.196C256.601 47.0235 256.14 46.841 255.705 46.6488L255.301 47.5637C255.761 47.7667 256.245 47.9582 256.753 48.1384L257.087 47.196ZM254.381 45.9926C254.162 45.8707 253.952 45.7457 253.75 45.6176L253.215 46.4624C253.433 46.6008 253.66 46.7353 253.894 46.8659L254.381 45.9926ZM253.76 45.624C253.394 45.3801 253.044 45.1125 252.709 44.8208L252.052 45.5747C252.419 45.8943 252.803 46.1881 253.205 46.456L253.76 45.624ZM250.936 42.8495C250.683 42.4947 250.443 42.1189 250.217 41.7219L249.348 42.2181C249.591 42.6426 249.848 43.0465 250.121 43.4295L250.936 42.8495ZM250.211 41.7128C250.081 41.4954 249.959 41.2727 249.846 41.0445L248.95 41.4889C249.075 41.7408 249.209 41.987 249.354 42.2272L250.211 41.7128ZM249.276 39.6294C249.125 39.1533 249.005 38.6565 248.916 38.1385L247.93 38.3074C248.027 38.8685 248.157 39.4101 248.323 39.9318L249.276 39.6294ZM248.748 36.6039C248.735 36.3497 248.728 36.0911 248.728 35.828H247.728C247.728 36.1078 247.735 36.3837 247.749 36.6555L248.748 36.6039ZM248.728 35.828V34.7735H247.728V35.828H248.728ZM248.728 32.6645V30.5555H247.728V32.6645H248.728ZM248.728 28.4465V26.3375H247.728V28.4465H248.728ZM248.728 24.2285V22.1195H247.728V24.2285H248.728ZM248.728 20.0105V17.9015H247.728V20.0105H248.728ZM248.728 15.7925V14.738H247.728V15.7925H248.728ZM248.728 14.738C248.728 14.4274 248.736 14.1224 248.752 13.8229L247.753 13.7706C247.737 14.0881 247.728 14.4105 247.728 14.738H248.728ZM248.953 12.0121C249.06 11.4001 249.205 10.8148 249.387 10.2559L248.437 9.94575C248.239 10.552 248.083 11.1836 247.968 11.84L248.953 12.0121ZM250.078 8.59539C250.354 8.06059 250.672 7.55364 251.032 7.07425L250.232 6.47359C249.838 6.99807 249.491 7.55276 249.189 8.13741L250.078 8.59539ZM252.227 5.73021C252.652 5.3238 253.117 4.94146 253.622 4.58339L253.043 3.76767C252.5 4.15266 251.998 4.56591 251.536 5.00762L252.227 5.73021ZM255.169 3.6297C255.688 3.35144 256.24 3.09266 256.825 2.85363L256.447 1.92796C255.832 2.17923 255.249 2.45258 254.697 2.74823L255.169 3.6297ZM258.556 2.23397C259.124 2.05663 259.717 1.89478 260.336 1.74855L260.106 0.775341C259.466 0.926636 258.85 1.09461 258.258 1.27938L258.556 2.23397ZM262.152 1.3772C262.745 1.2735 263.357 1.18226 263.99 1.10354L263.867 0.111197C263.218 0.191839 262.59 0.285473 261.98 0.392162L262.152 1.3772ZM265.838 0.913845C266.443 0.864237 267.064 0.824867 267.701 0.795767L267.656 -0.203194C267.007 -0.173569 266.374 -0.13345 265.757 -0.0828075L265.838 0.913845ZM269.564 0.740623C269.873 0.736206 270.186 0.733997 270.502 0.733997V-0.266003C270.181 -0.266003 269.864 -0.263762 269.55 -0.259275L269.564 0.740623ZM270.502 0.733997C270.809 0.733997 271.125 0.737585 271.45 0.744774L271.472 -0.25498C271.14 -0.262323 270.817 -0.266003 270.502 -0.266003V0.733997ZM273.348 0.822166C273.957 0.857258 274.59 0.90284 275.249 0.958948L275.334 -0.0374451C274.667 -0.0942631 274.024 -0.140516 273.406 -0.176172L273.348 0.822166ZM277.148 1.14226C277.761 1.208 278.393 1.28169 279.044 1.36334L279.169 0.371113C278.512 0.288761 277.874 0.214373 277.254 0.147959L277.148 1.14226ZM280.938 1.61564C281.553 1.70224 282.184 1.79524 282.83 1.89464L282.982 0.906273C282.332 0.806255 281.697 0.712627 281.077 0.625391L280.938 1.61564ZM284.718 2.19625C285.029 2.24777 285.344 2.30064 285.662 2.35488L285.83 1.36911C285.511 1.3146 285.194 1.26144 284.881 1.20965L284.718 2.19625ZM285.246 1.862V2.94425H286.246V1.862H285.246ZM285.246 5.10875V7.27325H286.246V5.10875H285.246ZM285.246 9.43775V10.52H286.246V9.43775H285.246ZM285.864 10.034C285.55 9.95831 285.239 9.88473 284.93 9.81319L284.704 10.7875C285.011 10.8583 285.319 10.9311 285.629 11.006L285.864 10.034ZM283.055 9.39967C282.419 9.26613 281.791 9.14178 281.172 9.02663L280.989 10.0098C281.6 10.1235 282.221 10.2463 282.85 10.3784L283.055 9.39967ZM279.279 8.6984C278.634 8.59516 277.999 8.50254 277.376 8.42056L277.245 9.41204C277.86 9.49275 278.485 9.584 279.12 9.68582L279.279 8.6984ZM275.464 8.19945C274.811 8.13464 274.171 8.08234 273.543 8.04256L273.48 9.04056C274.096 9.07955 274.724 9.13087 275.365 9.19455L275.464 8.19945ZM271.616 7.95899C271.29 7.95166 270.969 7.948 270.65 7.948V8.948C270.961 8.948 271.275 8.95157 271.593 8.95874L271.616 7.95899ZM270.65 7.948C270.274 7.948 269.914 7.95009 269.57 7.95427L269.582 8.9542C269.921 8.95007 270.277 8.948 270.65 8.948V7.948ZM267.403 8.0195C267.003 8.04084 266.639 8.06704 266.311 8.09825L266.406 9.09375C266.717 9.06411 267.067 9.03884 267.456 9.01808L267.403 8.0195ZM266.309 8.09848C266.035 8.12583 265.759 8.16396 265.479 8.21277L265.651 9.19785C265.908 9.15309 266.16 9.11835 266.408 9.09352L266.309 8.09848ZM263.863 8.60345C263.604 8.68266 263.343 8.77023 263.079 8.8661L263.421 9.80589C263.669 9.71571 263.914 9.63366 264.156 9.55971L263.863 8.60345ZM263.089 8.86267C262.791 8.96417 262.508 9.08132 262.242 9.2146L262.689 10.109C262.912 9.99737 263.153 9.89731 263.411 9.80932L263.089 8.86267ZM260.737 10.3187C260.308 10.7743 259.975 11.3049 259.735 11.9057L260.664 12.276C260.86 11.786 261.127 11.3635 261.465 11.0037L260.737 10.3187ZM259.316 13.6906C259.287 13.9802 259.272 14.2801 259.272 14.59H260.272C260.272 14.3109 260.285 14.0445 260.311 13.7906L259.316 13.6906ZM259.272 14.59V15.6112H260.272V14.59H259.272ZM259.272 17.6536V19.696H260.272V17.6536H259.272ZM259.272 21.7384V23.7808H260.272V21.7384H259.272ZM259.272 25.8232V27.8656H260.272V25.8232H259.272ZM259.272 29.908V31.9504H260.272V29.908H259.272ZM259.272 33.9928V35.014H260.272V33.9928H259.272ZM259.272 35.014C259.272 35.3657 259.297 35.7066 259.346 36.0365L260.335 35.8884C260.294 35.6108 260.272 35.3195 260.272 35.014H259.272ZM260.017 37.9992C260.356 38.5908 260.807 39.1146 261.365 39.5713L261.999 38.7975C261.528 38.4119 261.158 37.9798 260.884 37.5019L260.017 37.9992ZM263.091 40.6269C263.655 40.8851 264.277 41.1059 264.957 41.2906L265.219 40.3255C264.584 40.153 264.014 39.9499 263.507 39.7177L263.091 40.6269ZM266.87 41.6934C267.477 41.7891 268.119 41.8639 268.797 41.9181L268.877 40.9213C268.222 40.8689 267.605 40.7969 267.026 40.7056L266.87 41.6934ZM270.722 42.015C271.037 42.0223 271.358 42.026 271.686 42.026V41.026C271.366 41.026 271.052 41.0224 270.745 41.0153L270.722 42.015ZM271.686 42.026C271.985 42.026 272.293 42.0206 272.611 42.0099L272.578 41.0104C272.27 41.0208 271.973 41.026 271.686 41.026V42.026ZM274.451 41.8978C275.033 41.8482 275.642 41.7843 276.278 41.7061L276.155 40.7136C275.531 40.7904 274.935 40.853 274.366 40.9014L274.451 41.8978ZM278.092 41.4553C278.674 41.3667 279.276 41.2678 279.898 41.1586L279.724 40.1737C279.11 40.2816 278.516 40.3793 277.942 40.4667L278.092 41.4553ZM281.694 40.8248C282.275 40.7114 282.872 40.59 283.483 40.4607L283.276 39.4823C282.669 39.6107 282.078 39.731 281.503 39.8433L281.694 40.8248ZM285.265 40.0708C285.559 40.0045 285.855 39.9366 286.155 39.8671L285.929 38.8929C285.631 38.9621 285.337 39.0295 285.045 39.0953L285.265 40.0708ZM285.542 39.38V40.4715H286.542V39.38H285.542ZM285.542 42.6545V44.8375H286.542V42.6545H285.542ZM285.542 47.0205V48.112H286.542V47.0205H285.542ZM285.942 47.6222C285.623 47.6877 285.306 47.7511 284.988 47.8126L285.178 48.7944C285.499 48.7322 285.821 48.668 286.143 48.6018L285.942 47.6222ZM283.075 48.1597C282.433 48.2683 281.792 48.3687 281.154 48.4609L281.297 49.4506C281.943 49.3573 282.592 49.2556 283.241 49.1457L283.075 48.1597ZM279.226 48.7148C278.58 48.7917 277.936 48.8602 277.293 48.9202L277.386 49.9159C278.038 49.8551 278.69 49.7857 279.345 49.7078L279.226 48.7148ZM275.356 49.0758C274.708 49.1194 274.061 49.1543 273.416 49.1806L273.457 50.1797C274.111 50.1531 274.766 50.1178 275.423 50.0736L275.356 49.0758ZM271.474 49.2334C271.15 49.2378 270.826 49.24 270.502 49.24V50.24C270.83 50.24 271.159 50.2378 271.487 50.2333L271.474 49.2334ZM264.656 49.444L264.54 50.4372L264.543 50.4375L264.656 49.444ZM259.106 48.334L259.366 47.3681L259.359 47.3664L259.106 48.334ZM253.482 46.04L252.928 46.872L252.937 46.8785L252.947 46.8848L253.482 46.04ZM249.782 41.97L250.651 41.4739L250.645 41.4646L250.64 41.4555L249.782 41.97ZM285.746 1.862H286.746V1.0181L285.914 0.87623L285.746 1.862ZM285.746 10.52L285.512 11.4921L286.746 11.7901V10.52H285.746ZM266.358 8.596L266.264 7.60049L266.259 7.60096L266.358 8.596ZM263.25 9.336L263.573 10.2826L263.582 10.2793L263.592 10.2758L263.25 9.336ZM286.042 39.38H287.042V38.1214L285.816 38.4059L286.042 39.38ZM286.042 48.112L286.244 49.0915L287.042 48.9273V48.112H286.042ZM270.502 48.74C270.01 48.74 269.529 48.7348 269.06 48.7245L269.016 50.7241C269.5 50.7347 269.996 50.74 270.502 50.74V48.74ZM266.191 48.5861C265.7 48.5479 265.227 48.5027 264.77 48.4505L264.543 50.4375C265.025 50.4926 265.523 50.5401 266.036 50.58L266.191 48.5861ZM264.773 48.4509C264.335 48.3992 263.882 48.3353 263.417 48.2587L263.092 50.2323C263.586 50.3134 264.069 50.3818 264.54 50.4371L264.773 48.4509ZM260.711 47.7094C260.272 47.6048 259.824 47.4911 259.366 47.3682L258.847 49.2998C259.323 49.4274 259.789 49.5458 260.247 49.6549L260.711 47.7094ZM259.359 47.3664C259.117 47.3033 258.88 47.2383 258.648 47.1714L258.094 49.0929C258.343 49.1648 258.596 49.2343 258.854 49.3016L259.359 47.3664ZM257.254 46.7248C256.779 46.5561 256.33 46.3782 255.906 46.1913L255.099 48.0212C255.571 48.2295 256.067 48.4256 256.585 48.6096L257.254 46.7248ZM254.625 45.5559C254.414 45.4384 254.211 45.3181 254.017 45.1952L252.947 46.8848C253.174 47.0284 253.408 47.1676 253.65 47.3025L254.625 45.5559ZM254.037 45.2079C253.689 44.9761 253.356 44.7215 253.038 44.4439L251.724 45.9516C252.106 46.2852 252.508 46.5921 252.928 46.872L254.037 45.2079ZM251.343 42.5595C251.101 42.2189 250.87 41.8571 250.651 41.4739L248.914 42.4661C249.165 42.9045 249.431 43.3224 249.714 43.7195L251.343 42.5595ZM250.64 41.4555C250.516 41.2496 250.401 41.0386 250.294 40.8223L248.502 41.7111C248.633 41.9749 248.774 42.2327 248.925 42.4845L250.64 41.4555ZM249.753 39.4782C249.609 39.025 249.494 38.5505 249.409 38.054L247.438 38.3918C247.537 38.9745 247.673 39.5385 247.846 40.083L249.753 39.4782ZM249.247 36.578C249.235 36.3327 249.228 36.0827 249.228 35.828H247.228C247.228 36.1162 247.236 36.4006 247.25 36.6814L249.247 36.578ZM249.228 35.828V34.7735H247.228V35.828H249.228ZM249.228 32.6645V30.5555H247.228V32.6645H249.228ZM249.228 28.4465V26.3375H247.228V28.4465H249.228ZM249.228 24.2285V22.1195H247.228V24.2285H249.228ZM249.228 20.0105V17.9015H247.228V20.0105H249.228ZM249.228 15.7925V14.738H247.228V15.7925H249.228ZM249.228 14.738C249.228 14.4359 249.236 14.1396 249.251 13.8491L247.254 13.7444C247.237 14.0709 247.228 14.4021 247.228 14.738H249.228ZM249.446 12.0982C249.549 11.5084 249.688 10.9462 249.863 10.411L247.961 9.79068C247.756 10.4206 247.594 11.0753 247.476 11.7539L249.446 12.0982ZM250.523 8.82438C250.786 8.31451 251.088 7.83142 251.432 7.37458L249.833 6.17325C249.422 6.72028 249.059 7.29885 248.745 7.90841L250.523 8.82438ZM252.573 6.0915C252.979 5.70274 253.425 5.33585 253.911 4.99125L252.754 3.35981C252.192 3.75827 251.671 4.18697 251.19 4.64633L252.573 6.0915ZM255.405 4.07044C255.908 3.80087 256.444 3.54938 257.014 3.31646L256.258 1.46512C255.628 1.72252 255.029 2.00315 254.461 2.30749L255.405 4.07044ZM258.705 2.71126C259.261 2.53764 259.843 2.37886 260.451 2.23516L259.991 0.288736C259.34 0.442562 258.713 0.613596 258.109 0.802092L258.705 2.71126ZM262.238 1.86971C262.822 1.76752 263.427 1.67748 264.052 1.59971L263.805 -0.384977C263.149 -0.303375 262.512 -0.20854 261.894 -0.100355L262.238 1.86971ZM265.879 1.41217C266.478 1.36308 267.093 1.32409 267.724 1.29525L267.633 -0.702673C266.979 -0.672787 266.339 -0.632294 265.716 -0.581135L265.879 1.41217ZM269.571 1.24057C269.878 1.23619 270.188 1.234 270.502 1.234V-0.766003C270.179 -0.766003 269.859 -0.763744 269.543 -0.759224L269.571 1.24057ZM270.502 1.234C270.805 1.234 271.117 1.23754 271.438 1.24465L271.483 -0.754858C271.148 -0.76228 270.821 -0.766003 270.502 -0.766003V1.234ZM273.32 1.32134C273.923 1.35614 274.552 1.40139 275.207 1.45714L275.376 -0.535643C274.705 -0.592815 274.058 -0.639404 273.435 -0.675343L273.32 1.32134ZM277.094 1.63941C277.704 1.70481 278.334 1.77815 278.982 1.85946L279.231 -0.125002C278.571 -0.207705 277.93 -0.282442 277.307 -0.349192L277.094 1.63941ZM280.868 2.11076C281.481 2.19705 282.11 2.28974 282.754 2.38882L283.058 0.412088C282.406 0.311762 281.769 0.217819 281.147 0.13027L280.868 2.11076ZM284.636 2.68956C284.947 2.74093 285.261 2.79366 285.578 2.84776L285.914 0.87623C285.594 0.821575 285.277 0.76828 284.963 0.716347L284.636 2.68956ZM284.746 1.862V2.94425H286.746V1.862H284.746ZM284.746 5.10875V7.27325H286.746V5.10875H284.746ZM284.746 9.43775V10.52H286.746V9.43775H284.746ZM285.981 9.54791C285.666 9.47191 285.353 9.39795 285.042 9.32605L284.592 11.2746C284.896 11.3451 285.203 11.4175 285.512 11.4921L285.981 9.54791ZM283.158 8.91031C282.518 8.77603 281.886 8.65094 281.264 8.53508L280.898 10.5013C281.505 10.6143 282.121 10.7364 282.748 10.8677L283.158 8.91031ZM279.358 8.20469C278.708 8.10073 278.069 8.00743 277.441 7.92483L277.18 9.90778C277.79 9.98785 278.41 10.0784 279.041 10.1795L279.358 8.20469ZM275.513 7.7019C274.855 7.63653 274.209 7.58373 273.575 7.54356L273.448 9.53956C274.058 9.57816 274.68 9.62899 275.315 9.6921L275.513 7.7019ZM271.627 7.45912C271.298 7.45171 270.972 7.448 270.65 7.448V9.448C270.957 9.448 271.268 9.45153 271.582 9.45861L271.627 7.45912ZM270.65 7.448C270.272 7.448 269.91 7.4501 269.564 7.45431L269.588 9.45416C269.925 9.45006 270.279 9.448 270.65 9.448V7.448ZM267.376 7.52021C266.971 7.54184 266.6 7.5685 266.264 7.6005L266.453 9.5915C266.756 9.56264 267.099 9.53784 267.483 9.51737L267.376 7.52021ZM266.259 7.60096C265.973 7.62957 265.684 7.6694 265.393 7.72024L265.737 9.69039C265.982 9.64766 266.222 9.61461 266.458 9.59104L266.259 7.60096ZM263.717 8.12532C263.45 8.20716 263.18 8.2975 262.909 8.39621L263.592 10.2758C263.832 10.1884 264.069 10.1092 264.302 10.0378L263.717 8.12532ZM262.928 8.38935C262.61 8.4976 262.306 8.6233 262.018 8.76739L262.913 10.5562C263.114 10.4554 263.334 10.3639 263.573 10.2826L262.928 8.38935ZM260.373 9.97618C259.899 10.4797 259.533 11.0644 259.271 11.7205L261.129 12.4612C261.302 12.0266 261.536 11.6581 261.83 11.3463L260.373 9.97618ZM258.818 13.6406C258.787 13.9481 258.772 14.2647 258.772 14.59H260.772C260.772 14.3264 260.785 14.0767 260.808 13.8405L258.818 13.6406ZM258.772 14.59V15.6112H260.772V14.59H258.772ZM258.772 17.6536V19.696H260.772V17.6536H258.772ZM258.772 21.7384V23.7808H260.772V21.7384H258.772ZM258.772 25.8232V27.8656H260.772V25.8232H258.772ZM258.772 29.908V31.9504H260.772V29.908H258.772ZM258.772 33.9928V35.014H260.772V33.9928H258.772ZM258.772 35.014C258.772 35.3887 258.798 35.7546 258.852 36.1106L260.83 35.8143C260.792 35.5629 260.772 35.2964 260.772 35.014H258.772ZM259.583 38.2478C259.955 38.8963 260.447 39.466 261.048 39.9582L262.315 38.4106C261.888 38.0605 261.559 37.6743 261.318 37.2532L259.583 38.2478ZM262.883 41.0814C263.475 41.3527 264.124 41.5823 264.826 41.7731L265.35 39.843C264.738 39.6766 264.194 39.4823 263.715 39.2631L262.883 41.0814ZM266.793 42.1873C267.413 42.2852 268.068 42.3614 268.757 42.4165L268.916 40.4229C268.273 40.3714 267.669 40.3008 267.104 40.2117L266.793 42.1873ZM270.71 42.5149C271.029 42.5223 271.355 42.526 271.686 42.526V40.526C271.37 40.526 271.06 40.5225 270.757 40.5154L270.71 42.5149ZM271.686 42.526C271.991 42.526 272.305 42.5205 272.628 42.5096L272.561 40.5107C272.258 40.5209 271.967 40.526 271.686 40.526V42.526ZM274.494 42.396C275.082 42.3458 275.697 42.2812 276.339 42.2024L276.094 40.2173C275.475 40.2935 274.885 40.3554 274.324 40.4032L274.494 42.396ZM278.168 41.9496C278.754 41.8604 279.359 41.7608 279.984 41.651L279.638 39.6812C279.027 39.7886 278.437 39.8856 277.867 39.9724L278.168 41.9496ZM281.79 41.3156C282.374 41.2017 282.973 41.0797 283.587 40.9498L283.173 38.9931C282.568 39.121 281.98 39.2408 281.407 39.3526L281.79 41.3156ZM285.375 40.5585C285.67 40.4921 285.968 40.4239 286.268 40.3541L285.816 38.4059C285.519 38.4748 285.226 38.542 284.935 38.6076L285.375 40.5585ZM285.042 39.38V40.4715H287.042V39.38H285.042ZM285.042 42.6545V44.8375H287.042V42.6545H285.042ZM285.042 47.0205V48.112H287.042V47.0205H285.042ZM285.841 47.1325C285.525 47.1975 285.209 47.2606 284.893 47.3217L285.273 49.2853C285.596 49.2227 285.92 49.1581 286.244 49.0915L285.841 47.1325ZM282.991 47.6667C282.353 47.7746 281.717 47.8744 281.082 47.966L281.368 49.9455C282.019 49.8516 282.671 49.7493 283.325 49.6387L282.991 47.6667ZM279.167 48.2183C278.526 48.2948 277.885 48.3628 277.247 48.4224L277.433 50.4137C278.088 50.3525 278.745 50.2827 279.404 50.2043L279.167 48.2183ZM275.323 48.577C274.679 48.6203 274.036 48.6549 273.396 48.681L273.477 50.6793C274.135 50.6525 274.795 50.6169 275.457 50.5724L275.323 48.577ZM271.467 48.7334C271.145 48.7378 270.823 48.74 270.502 48.74V50.74C270.833 50.74 271.163 50.7377 271.494 50.7332L271.467 48.7334ZM309.699 30.352L310.113 30.6316L310.567 29.9583L309.762 29.856L309.699 30.352ZM302.743 27.392L303.102 27.0441L302.743 27.392ZM304.741 3.342L304.976 3.783L304.982 3.77979L304.741 3.342ZM339.891 0.973997H340.391V0.473997H339.891V0.973997ZM339.891 49V49.5H340.391V49H339.891ZM328.347 49H327.847V49.5H328.347V49ZM328.347 31.24H328.847V30.74H328.347V31.24ZM321.539 31.24V30.74H321.263L321.116 30.9725L321.539 31.24ZM310.291 49V49.5H310.566L310.713 49.2675L310.291 49ZM297.119 49L296.704 48.7204L296.178 49.5H297.119V49ZM328.347 23.618V24.118H328.847V23.618H328.347ZM328.347 9.188H328.847V8.688H328.347V9.188ZM313.325 10.224L313.588 10.6492L313.593 10.6458L313.325 10.224ZM313.251 22.582L312.951 22.982L312.957 22.9869L312.964 22.9916L313.251 22.582ZM309.284 30.0724L308.76 30.8494L309.589 31.4086L310.113 30.6316L309.284 30.0724ZM307.712 32.4034L306.663 33.9574L307.492 34.5166L308.541 32.9626L307.712 32.4034ZM305.615 35.5114L304.567 37.0654L305.396 37.6246L306.444 36.0706L305.615 35.5114ZM303.518 38.6194L302.47 40.1734L303.299 40.7326L304.347 39.1786L303.518 38.6194ZM301.422 41.7274L300.373 43.2814L301.202 43.8406L302.251 42.2866L301.422 41.7274ZM299.325 44.8354L298.277 46.3894L299.106 46.9486L300.154 45.3946L299.325 44.8354ZM297.228 47.9434L296.704 48.7204L297.533 49.2796L298.057 48.5026L297.228 47.9434ZM297.119 49.5H298.216V48.5H297.119V49.5ZM300.412 49.5H302.607V48.5H300.412V49.5ZM304.802 49.5H306.998V48.5H304.802V49.5ZM309.193 49.5H310.291V48.5H309.193V49.5ZM310.713 49.2675L311.275 48.3795L310.431 47.8445L309.868 48.7325L310.713 49.2675ZM312.4 46.6035L313.525 44.8275L312.68 44.2925L311.555 46.0685L312.4 46.6035ZM314.65 43.0515L315.775 41.2755L314.93 40.7405L313.805 42.5165L314.65 43.0515ZM316.899 39.4995L318.024 37.7235L317.179 37.1885L316.055 38.9645L316.899 39.4995ZM319.149 35.9475L320.274 34.1715L319.429 33.6365L318.304 35.4125L319.149 35.9475ZM321.399 32.3955L321.961 31.5075L321.116 30.9725L320.554 31.8605L321.399 32.3955ZM321.539 31.74H322.39V30.74H321.539V31.74ZM324.092 31.74H325.794V30.74H324.092V31.74ZM327.496 31.74H328.347V30.74H327.496V31.74ZM327.847 31.24V32.35H328.847V31.24H327.847ZM327.847 34.57V36.79H328.847V34.57H327.847ZM327.847 39.01V41.23H328.847V39.01H327.847ZM327.847 43.45V45.67H328.847V43.45H327.847ZM327.847 47.89V49H328.847V47.89H327.847ZM328.347 49.5H329.309V48.5H328.347V49.5ZM331.233 49.5H333.157V48.5H331.233V49.5ZM335.081 49.5H337.005V48.5H335.081V49.5ZM338.929 49.5H339.891V48.5H338.929V49.5ZM340.391 49V47.9995H339.391V49H340.391ZM340.391 45.9984V43.9973H339.391V45.9984H340.391ZM340.391 41.9962V39.9951H339.391V41.9962H340.391ZM340.391 37.994V35.993H339.391V37.994H340.391ZM340.391 33.9919V31.9908H339.391V33.9919H340.391ZM340.391 29.9897V27.9886H339.391V29.9897H340.391ZM340.391 25.9875V23.9865H339.391V25.9875H340.391ZM340.391 21.9854V19.9843H339.391V21.9854H340.391ZM340.391 17.9832V15.9821H339.391V17.9832H340.391ZM340.391 13.981V11.98H339.391V13.981H340.391ZM340.391 9.97887V7.97779H339.391V9.97887H340.391ZM340.391 5.97671V3.97562H339.391V5.97671H340.391ZM340.391 1.97454V0.973997H339.391V1.97454H340.391ZM339.891 0.473997H338.829V1.474H339.891V0.473997ZM336.705 0.473997H334.581V1.474H336.705V0.473997ZM332.457 0.473997H330.334V1.474H332.457V0.473997ZM328.21 0.473997H326.086V1.474H328.21V0.473997ZM323.962 0.473997H321.838V1.474H323.962V0.473997ZM319.715 0.473997H318.653V1.474H319.715V0.473997ZM318.653 0.473997C318.35 0.473997 318.051 0.475746 317.755 0.47925L317.767 1.47918C318.058 1.47573 318.354 1.474 318.653 1.474V0.473997ZM315.962 0.523901C315.346 0.547752 314.748 0.580168 314.169 0.621178L314.24 1.61868C314.808 1.57847 315.395 1.54662 316.001 1.52315L315.962 0.523901ZM312.376 0.782372C311.755 0.850874 311.159 0.93087 310.587 1.02244L310.746 2.00984C311.3 1.92106 311.88 1.84319 312.486 1.77634L312.376 0.782372ZM308.808 1.36308C308.186 1.50348 307.6 1.6609 307.049 1.83563L307.351 2.78887C307.872 2.62356 308.431 2.47334 309.028 2.3385L308.808 1.36308ZM305.33 2.48879C305.04 2.62036 304.763 2.75879 304.499 2.90421L304.982 3.77979C305.222 3.64776 305.475 3.52093 305.743 3.39943L305.33 2.48879ZM304.505 2.90103C304.133 3.09992 303.782 3.3167 303.454 3.55161L304.035 4.36521C304.327 4.1567 304.64 3.96254 304.976 3.78296L304.505 2.90103ZM301.668 5.28533C301.175 5.94437 300.788 6.67938 300.508 7.48752L301.453 7.81518C301.701 7.09979 302.04 6.45724 302.469 5.88469L301.668 5.28533ZM300.003 9.89441C299.967 10.2882 299.949 10.6941 299.949 11.112H300.949C300.949 10.723 300.966 10.3479 300.999 9.98658L300.003 9.89441ZM299.949 11.112V12.3052H300.949V11.112H299.949ZM299.949 14.6917V17.0782H300.949V14.6917H299.949ZM299.949 19.4647V20.658H300.949V19.4647H299.949ZM299.949 20.658C299.949 20.9791 299.958 21.293 299.976 21.5997L300.974 21.5407C300.957 21.2545 300.949 20.9603 300.949 20.658H299.949ZM300.221 23.4803C300.357 24.132 300.546 24.7434 300.788 25.3133L301.709 24.922C301.494 24.4172 301.324 23.8686 301.199 23.275L300.221 23.4803ZM301.751 26.9974C301.946 27.2585 302.157 27.506 302.384 27.7399L303.102 27.0441C302.905 26.8409 302.722 26.6258 302.552 26.3988L301.751 26.9974ZM302.384 27.7399C302.619 27.9834 302.872 28.2132 303.142 28.4294L303.767 27.6489C303.53 27.4583 303.308 27.2567 303.102 27.0441L302.384 27.7399ZM304.859 29.5129C305.434 29.7969 306.057 30.0403 306.727 30.2441L307.018 29.2874C306.395 29.0978 305.823 28.8738 305.302 28.6164L304.859 29.5129ZM308.659 30.7005C308.976 30.7565 309.302 30.8056 309.636 30.848L309.762 29.856C309.443 29.8155 309.133 29.7688 308.833 29.7157L308.659 30.7005ZM328.347 23.118H327.153V24.118H328.347V23.118ZM324.767 23.118H322.38V24.118H324.767V23.118ZM319.994 23.118H318.801V24.118H319.994V23.118ZM318.801 23.118C318.302 23.118 317.835 23.1062 317.399 23.0826L317.345 24.0812C317.801 24.1058 318.286 24.118 318.801 24.118V23.118ZM314.689 22.6844C314.192 22.54 313.814 22.3657 313.537 22.1724L312.964 22.9916C313.356 23.2657 313.843 23.4798 314.409 23.6447L314.689 22.6844ZM313.551 22.182C313.306 21.9988 313.094 21.7621 312.916 21.4646L312.058 21.9787C312.298 22.378 312.595 22.7149 312.951 22.982L313.551 22.182ZM312.326 19.4662C312.289 19.1273 312.271 18.7601 312.271 18.364H311.271C311.271 18.7913 311.291 19.1948 311.332 19.5741L312.326 19.4662ZM312.271 18.364V17.2355H311.271V18.364H312.271ZM312.271 14.9785V13.85H311.271V14.9785H312.271ZM312.271 13.85C312.271 13.5024 312.292 13.1824 312.332 12.8893L311.342 12.7515C311.294 13.0962 311.271 13.4626 311.271 13.85H312.271ZM312.96 11.2168C313.135 10.9891 313.343 10.8005 313.588 10.6491L313.061 9.79886C312.714 10.014 312.415 10.2845 312.167 10.6085L312.96 11.2168ZM313.593 10.6458C313.897 10.4526 314.281 10.2821 314.755 10.1407L314.469 9.18251C313.929 9.34359 313.456 9.54808 313.056 9.80217L313.593 10.6458ZM317.421 9.72611C317.852 9.70077 318.312 9.688 318.801 9.688V8.688C318.294 8.688 317.815 8.70121 317.362 8.72783L317.421 9.72611ZM318.801 9.688H319.994V8.688H318.801V9.688ZM322.38 9.688H324.767V8.688H322.38V9.688ZM327.153 9.688H328.347V8.688H327.153V9.688ZM327.847 9.188V10.0899H328.847V9.188H327.847ZM327.847 11.8936V13.6974H328.847V11.8936H327.847ZM327.847 15.5011V17.3049H328.847V15.5011H327.847ZM327.847 19.1086V20.9124H328.847V19.1086H327.847ZM327.847 22.7161V23.618H328.847V22.7161H327.847ZM309.699 30.352L310.528 30.9112L311.436 29.5646L309.825 29.36L309.699 30.352ZM302.743 27.392L303.461 26.6962L302.743 27.392ZM304.741 3.342L305.212 4.22401L305.224 4.21758L304.741 3.342ZM339.891 0.973997H340.891V-0.0260029H339.891V0.973997ZM339.891 49V50H340.891V49H339.891ZM328.347 49H327.347V50H328.347V49ZM328.347 31.24H329.347V30.24H328.347V31.24ZM321.539 31.24V30.24H320.988L320.694 30.7049L321.539 31.24ZM310.291 49V50H310.841L311.135 49.535L310.291 49ZM297.119 49L296.29 48.4408L295.238 50H297.119V49ZM328.347 23.618V24.618H329.347V23.618H328.347ZM328.347 9.188H329.347V8.188H328.347V9.188ZM313.325 10.224L313.851 11.0743L313.862 11.0677L313.325 10.224ZM313.251 22.582L312.651 23.382L312.664 23.3918L312.677 23.4012L313.251 22.582ZM308.87 29.7928L308.346 30.5698L310.004 31.6882L310.528 30.9112L308.87 29.7928ZM307.297 32.1238L306.249 33.6778L307.907 34.7962L308.955 33.2422L307.297 32.1238ZM305.201 35.2318L304.152 36.7858L305.81 37.9042L306.859 36.3502L305.201 35.2318ZM303.104 38.3398L302.056 39.8938L303.714 41.0122L304.762 39.4582L303.104 38.3398ZM301.007 41.4478L299.959 43.0018L301.617 44.1202L302.665 42.5662L301.007 41.4478ZM298.91 44.5558L297.862 46.1098L299.52 47.2282L300.569 45.6742L298.91 44.5558ZM296.814 47.6637L296.29 48.4408L297.948 49.5592L298.472 48.7822L296.814 47.6637ZM297.119 50H298.216V48H297.119V50ZM300.412 50H302.607V48H300.412V50ZM304.802 50H306.998V48H304.802V50ZM309.193 50H310.291V48H309.193V50ZM311.135 49.535L311.698 48.647L310.008 47.577L309.446 48.465L311.135 49.535ZM312.823 46.8711L313.947 45.0951L312.258 44.0249L311.133 45.8009L312.823 46.8711ZM315.072 43.3191L316.197 41.5431L314.507 40.4729L313.383 42.2489L315.072 43.3191ZM317.322 39.7671L318.447 37.9911L316.757 36.9209L315.632 38.6969L317.322 39.7671ZM319.572 36.215L320.696 34.4391L319.007 33.3689L317.882 35.1449L319.572 36.215ZM321.821 32.6631L322.383 31.7751L320.694 30.7049L320.131 31.5929L321.821 32.6631ZM321.539 32.24H322.39V30.24H321.539V32.24ZM324.092 32.24H325.794V30.24H324.092V32.24ZM327.496 32.24H328.347V30.24H327.496V32.24ZM327.347 31.24V32.35H329.347V31.24H327.347ZM327.347 34.57V36.79H329.347V34.57H327.347ZM327.347 39.01V41.23H329.347V39.01H327.347ZM327.347 43.45V45.67H329.347V43.45H327.347ZM327.347 47.89V49H329.347V47.89H327.347ZM328.347 50H329.309V48H328.347V50ZM331.233 50H333.157V48H331.233V50ZM335.081 50H337.005V48H335.081V50ZM338.929 50H339.891V48H338.929V50ZM340.891 49V47.9995H338.891V49H340.891ZM340.891 45.9984V43.9973H338.891V45.9984H340.891ZM340.891 41.9962V39.9951H338.891V41.9962H340.891ZM340.891 37.994V35.993H338.891V37.994H340.891ZM340.891 33.9919V31.9908H338.891V33.9919H340.891ZM340.891 29.9897V27.9886H338.891V29.9897H340.891ZM340.891 25.9875V23.9865H338.891V25.9875H340.891ZM340.891 21.9854V19.9843H338.891V21.9854H340.891ZM340.891 17.9832V15.9821H338.891V17.9832H340.891ZM340.891 13.981V11.98H338.891V13.981H340.891ZM340.891 9.97887V7.97779H338.891V9.97887H340.891ZM340.891 5.97671V3.97562H338.891V5.97671H340.891ZM340.891 1.97454V0.973997H338.891V1.97454H340.891ZM339.891 -0.0260029H338.829V1.974H339.891V-0.0260029ZM336.705 -0.0260029H334.581V1.974H336.705V-0.0260029ZM332.457 -0.0260029H330.334V1.974H332.457V-0.0260029ZM328.21 -0.0260029H326.086V1.974H328.21V-0.0260029ZM323.962 -0.0260029H321.838V1.974H323.962V-0.0260029ZM319.715 -0.0260029H318.653V1.974H319.715V-0.0260029ZM318.653 -0.0260029C318.348 -0.0260029 318.047 -0.0242424 317.749 -0.0207138L317.773 1.97915C318.062 1.97571 318.355 1.974 318.653 1.974V-0.0260029ZM315.943 0.0242748C315.322 0.0483208 314.719 0.0810184 314.134 0.122429L314.275 2.11743C314.837 2.07762 315.419 2.04605 316.02 2.02278L315.943 0.0242748ZM312.321 0.285389C311.693 0.354713 311.088 0.435776 310.508 0.528742L310.825 2.50355C311.37 2.41615 311.942 2.33936 312.54 2.27332L312.321 0.285389ZM308.698 0.875376C308.064 1.01856 307.464 1.17958 306.898 1.35901L307.502 3.26548C308.009 3.10488 308.554 2.95826 309.138 2.82621L308.698 0.875376ZM305.123 2.03347C304.822 2.17007 304.533 2.3143 304.258 2.46642L305.224 4.21758C305.451 4.09224 305.693 3.97122 305.949 3.85475L305.123 2.03347ZM304.269 2.46007C303.879 2.66861 303.51 2.89669 303.163 3.14482L304.326 4.77201C304.599 4.57671 304.894 4.39385 305.212 4.22393L304.269 2.46007ZM301.268 4.98566C300.742 5.68793 300.332 6.46917 300.036 7.32369L301.925 7.97901C302.157 7.31 302.472 6.71368 302.869 6.18436L301.268 4.98566ZM299.505 9.84832C299.467 10.2584 299.449 10.6797 299.449 11.112H301.449C301.449 10.7374 301.465 10.3777 301.497 10.0327L299.505 9.84832ZM299.449 11.112V12.3052H301.449V11.112H299.449ZM299.449 14.6917V17.0782H301.449V14.6917H299.449ZM299.449 19.4647V20.658H301.449V19.4647H299.449ZM299.449 20.658C299.449 20.9884 299.458 21.3122 299.477 21.6293L301.473 21.5111C301.457 21.2353 301.449 20.951 301.449 20.658H299.449ZM299.731 23.5829C299.874 24.2637 300.072 24.9065 300.328 25.5089L302.169 24.7264C301.968 24.254 301.807 23.7369 301.689 23.1724L299.731 23.5829ZM301.35 27.2967C301.558 27.5749 301.783 27.8386 302.024 28.0878L303.461 26.6962C303.279 26.5083 303.109 26.3094 302.953 26.0994L301.35 27.2967ZM302.024 28.0878C302.275 28.3467 302.544 28.5907 302.83 28.8196L304.08 27.2586C303.858 27.0809 303.652 26.8934 303.461 26.6962L302.024 28.0878ZM304.638 29.9611C305.239 30.2584 305.888 30.5115 306.582 30.7224L307.164 28.809C306.564 28.6266 306.018 28.4123 305.524 28.1681L304.638 29.9611ZM308.572 31.1929C308.898 31.2503 309.231 31.3007 309.573 31.344L309.825 29.36C309.514 29.3205 309.212 29.2749 308.92 29.2233L308.572 31.1929ZM328.347 22.618H327.153V24.618H328.347V22.618ZM324.767 22.618H322.38V24.618H324.767V22.618ZM319.994 22.618H318.801V24.618H319.994V22.618ZM318.801 22.618C318.31 22.618 317.852 22.6063 317.426 22.5834L317.318 24.5805C317.784 24.6056 318.279 24.618 318.801 24.618V22.618ZM314.828 22.2043C314.367 22.0701 314.043 21.9157 313.824 21.7628L312.677 23.4012C313.126 23.7157 313.668 23.9498 314.27 24.1248L314.828 22.2043ZM313.851 21.782C313.662 21.6408 313.493 21.4541 313.345 21.2075L311.629 22.2357C311.899 22.686 312.239 23.0729 312.651 23.382L313.851 21.782ZM312.823 19.4123C312.789 19.0936 312.771 18.7445 312.771 18.364H310.771C310.771 18.8068 310.792 19.2285 310.835 19.628L312.823 19.4123ZM312.771 18.364V17.2355H310.771V18.364H312.771ZM312.771 14.9785V13.85H310.771V14.9785H312.771ZM312.771 13.85C312.771 13.5223 312.79 13.2256 312.828 12.9582L310.847 12.6826C310.795 13.053 310.771 13.4427 310.771 13.85H312.771ZM313.357 11.521C313.495 11.3415 313.658 11.1938 313.851 11.0743L312.798 9.37373C312.399 9.62066 312.055 9.93217 311.77 10.3044L313.357 11.521ZM313.862 11.0677C314.117 10.9048 314.457 10.7514 314.898 10.6199L314.326 8.70339C313.753 8.87431 313.235 9.09583 312.788 9.38033L313.862 11.0677ZM317.45 10.2252C317.87 10.2005 318.32 10.188 318.801 10.188V8.188C318.286 8.188 317.796 8.20143 317.333 8.2287L317.45 10.2252ZM318.801 10.188H319.994V8.188H318.801V10.188ZM322.38 10.188H324.767V8.188H322.38V10.188ZM327.153 10.188H328.347V8.188H327.153V10.188ZM327.347 9.188V10.0899H329.347V9.188H327.347ZM327.347 11.8936V13.6974H329.347V11.8936H327.347ZM327.347 15.5011V17.3049H329.347V15.5011H327.347ZM327.347 19.1086V20.9124H329.347V19.1086H327.347ZM327.347 22.7161V23.618H329.347V22.7161H327.347Z" fill="#77C2F9" fill-opacity="0.9"/>
</svg>
