<svg width="332" height="35" fill="none" xmlns="http://www.w3.org/2000/svg"><path d="M8.36 13.556h.5v-.5h-.5v.5zm-7.6 0h-.5v.5h.5v-.5zm0-4.218v-.5h-.5v.5h.5zm21.09 0h.5v-.5h-.5v.5zm0 4.218v.5h.5v-.5h-.5zm-7.562 0v-.5h-.5v.5h.5zm0 20.444v.5h.5V34h-.5zM8.36 34h-.5v.5h.5V34zm0-20.944h-.475v1h.475v-1zm-1.425 0h-.95v1h.95v-1zm-1.9 0h-.95v1h.95v-1zm-1.9 0h-.95v1h.95v-1zm-1.9 0H.76v1h.475v-1zm.025.5v-.527h-1v.527h1zm0-1.582V10.92h-1v1.054h1zm0-2.109v-.527h-1v.527h1zm-.5-.027h.48v-1H.76v1zm1.438 0h.959v-1h-.959v1zm1.917 0h.959v-1h-.959v1zm1.917 0h.96v-1h-.96v1zm1.918 0h.958v-1H7.95v1zm1.917 0h.959v-1h-.959v1zm1.917 0h.959v-1h-.959v1zm1.918 0h.958v-1h-.958v1zm1.917 0h.959v-1h-.96v1zm1.917 0h.959v-1h-.959v1zm1.917 0h.959v-1h-.959v1zm1.918 0h.479v-1h-.48v1zm-.021-.5v.527h1v-.527h-1zm0 1.582v1.054h1V10.92h-1zm0 2.109v.527h1v-.527h-1zm.5.027h-.473v1h.473v-1zm-1.418 0h-.945v1h.945v-1zm-1.89 0h-.946v1h.946v-1zm-1.89 0h-.946v1h.945v-1zm-1.891 0h-.473v1h.473v-1zm-.973.5v.511h1v-.511h-1zm0 1.533v1.022h1V15.09h-1zm0 2.045v1.022h1v-1.022h-1zm0 2.044V20.2h1v-1.022h-1zm0 2.044v1.023h1v-1.023h-1zm0 2.045v1.022h1v-1.022h-1zm0 2.044v1.023h1V25.31h-1zm0 2.045v1.022h1v-1.022h-1zm0 2.044v1.022h1V29.4h-1zm0 2.045v1.022h1v-1.022h-1zm0 2.044V34h1v-.511h-1zm.5.011h-.494v1h.494v-1zm-1.482 0h-.988v1h.988v-1zm-1.976 0h-.988v1h.988v-1zm-1.976 0H8.36v1h.494v-1zm.006.5v-.511h-1V34h1zm0-1.533v-1.022h-1v1.022h1zm0-2.045V29.4h-1v1.022h1zm0-2.044v-1.022h-1v1.022h1zm0-2.044V25.31h-1v1.023h1zm0-2.045v-1.022h-1v1.022h1zm0-2.044v-1.023h-1v1.023h1zm0-2.045v-1.022h-1V20.2h1zm0-2.044v-1.022h-1v1.022h1zm0-2.044v-1.023h-1v1.022h1zm0-2.045v-.511h-1v.511h1zm-.5-.511h1v-1h-1v1zm-7.6 0h-1v1h1v-1zm0-4.218v-1h-1v1h1zm21.09 0h1v-1h-1v1zm0 4.218v1h1v-1h-1zm-7.562 0v-1h-1v1h1zm0 20.444v1h1v-1h-1zM8.36 34h-1v1h1v-1zm0-21.444h-.475v2h.475v-2zm-1.425 0h-.95v2h.95v-2zm-1.9 0h-.95v2h.95v-2zm-1.9 0h-.95v2h.95v-2zm-1.9 0H.76v2h.475v-2zm.525 1v-.527h-2v.527h2zm0-1.582V10.92h-2v1.054h2zm0-2.109v-.527h-2v.527h2zm-1 .473h.48v-2H.76v2zm1.438 0h.959v-2h-.959v2zm1.917 0h.959v-2h-.959v2zm1.917 0h.96v-2h-.96v2zm1.918 0h.958v-2H7.95v2zm1.917 0h.959v-2h-.959v2zm1.917 0h.959v-2h-.959v2zm1.918 0h.958v-2h-.958v2zm1.917 0h.959v-2h-.96v2zm1.917 0h.959v-2h-.959v2zm1.917 0h.959v-2h-.959v2zm1.918 0h.479v-2h-.48v2zm-.521-1v.527h2v-.527h-2zm0 1.582v1.054h2V10.92h-2zm0 2.109v.527h2v-.527h-2zm1-.473h-.473v2h.473v-2zm-1.418 0h-.945v2h.945v-2zm-1.89 0h-.946v2h.946v-2zm-1.89 0h-.946v2h.945v-2zm-1.891 0h-.473v2h.473v-2zm-1.473 1v.511h2v-.511h-2zm0 1.533v1.022h2V15.09h-2zm0 2.045v1.022h2v-1.022h-2zm0 2.044V20.2h2v-1.022h-2zm0 2.044v1.023h2v-1.023h-2zm0 2.045v1.022h2v-1.022h-2zm0 2.044v1.023h2V25.31h-2zm0 2.045v1.022h2v-1.022h-2zm0 2.044v1.022h2V29.4h-2zm0 2.045v1.022h2v-1.022h-2zm0 2.044V34h2v-.511h-2zm1-.489h-.494v2h.494v-2zm-1.482 0h-.988v2h.988v-2zm-1.976 0h-.988v2h.988v-2zm-1.976 0H8.36v2h.494v-2zm.506 1v-.511h-2V34h2zm0-1.533v-1.022h-2v1.022h2zm0-2.045V29.4h-2v1.022h2zm0-2.044v-1.022h-2v1.022h2zm0-2.044V25.31h-2v1.023h2zm0-2.045v-1.022h-2v1.022h2zm0-2.044v-1.023h-2v1.023h2zm0-2.045v-1.022h-2V20.2h2zm0-2.044v-1.022h-2v1.022h2zm0-2.044v-1.023h-2v1.022h2zm0-2.045v-.511h-2v.511h2zm25.78-4.729v-.5h-.5v.5h.5zm15.428.532l-.135.482.011.002.124-.484zm2.736 1.634l-.41.287.005.006.405-.293zm-.038 8.094l-.37-.338-.007.009.377.329zm-1.9 1.254l-.149-.477-.351.109v.368h.5zm0 .19h-.5v.45l.447.047.053-.497zm2.622 1.254l-.342.365.006.006.006.005.33-.376zm-1.178 10.45l-.232-.443.232.443zM35.14 34h-.5v.5h.5V34zm12.084-14.858l-.158-.474.158.474zm.912-.722l-.448-.224-.003.007-.003.008.454.209zm.038-4.028l-.448.224.004.008.005.007.439-.239zm-.95-.646l-.134.482.006.002.128-.484zm-6.156-.19v-.5h-.5v.5h.5zm0 5.814h-.5v.5h.5v-.5zm7.296 9.918l-.238-.44.238.44zm.19-5.51l-.32.384.01.008.31-.392zm-7.486-.57v-.5h-.5v.5h.5zm0 6.574h-.5v.5h.5v-.5zM34.64 9.338v.514h1v-.514h-1zm0 1.541v1.028h1v-1.028h-1zm0 2.056v1.027h1v-1.027h-1zm0 2.055v1.027h1V14.99h-1zm0 2.055v1.027h1v-1.027h-1zm0 2.055v1.028h1V19.1h-1zm0 2.055v1.028h1v-1.028h-1zm0 2.055v1.028h1V23.21h-1zm0 2.055v1.028h1v-1.027h-1zm0 2.056v1.027h1v-1.027h-1zm0 2.055v1.027h1v-1.027h-1zm0 2.055v1.028h1V31.43h-1zm0 2.055V34h1v-.514h-1zm.5 1.014h.513v-1h-.513v1zm1.539 0h1.026v-1h-1.026v1zm2.052 0h1.026v-1H38.73v1zm2.052 0h1.026v-1h-1.026v1zm2.052 0h1.026v-1h-1.026v1zm2.052 0h.513v-1h-.513v1zm.513 0c.162 0 .322-.001.48-.003l-.012-1c-.154.002-.31.003-.468.003v1zm1.441-.028c.33-.013.65-.03.962-.053l-.072-.998c-.3.022-.61.04-.93.052l.04 1zm1.926-.142c.333-.038.654-.081.963-.132l-.16-.987c-.292.048-.597.09-.915.125l.112.994zm1.923-.317c.335-.076.653-.161.955-.256l-.3-.954c-.273.086-.565.164-.876.235l.221.975zm1.894-.605c.158-.069.31-.142.458-.22l-.464-.885a6.341 6.341 0 01-.396.19l.401.915zm.458-.22a5.65 5.65 0 00.408-.235l-.535-.844a4.69 4.69 0 01-.337.194l.464.886zm1.163-.82c.237-.223.447-.468.628-.734l-.825-.564a3.51 3.51 0 01-.49.572l.688.726zm1.085-1.583c.118-.287.21-.59.277-.909l-.978-.206c-.056.263-.13.507-.224.735l.925.38zm.4-1.834c.009-.151.014-.305.014-.461h-1c0 .137-.004.27-.012.4l.998.061zm.014-.461v-.475h-1v.475h1zm0-1.425v-.95h-1v.95h1zm0-1.9v-.475h-1v.475h1zm0-.475a3.28 3.28 0 00-.101-.81l-.97.248c.047.18.07.368.07.562h1zm-.847-2.222c-.16-.19-.34-.373-.54-.548l-.659.752a4 4 0 01.433.438l.766-.642zm-.528-.537a5.894 5.894 0 00-.625-.512l-.577.817a4.9 4.9 0 01.519.425l.683-.73zm-2.1-1.228a4.708 4.708 0 00-.811-.158l-.105.994c.22.023.432.065.64.124l.276-.96zm-.363.339v-.048h-1v.048h1zm0-.143v-.047h-1v.047h1zm-.352.43c.207-.064.408-.142.603-.234l-.429-.904a3.5 3.5 0 01-.47.184l.296.954zm1.678-.948a5.08 5.08 0 00.45-.454l-.753-.658a4.07 4.07 0 01-.36.364l.663.748zm.442-.445a4.27 4.27 0 00.381-.476l-.824-.567a3.368 3.368 0 01-.294.367l.737.676zm.897-1.631a2.97 2.97 0 00.07-.645h-1c0 .145-.015.287-.046.427l.976.218zm.07-.645v-.38h-1v.38h1zm0-1.14v-.76h-1v.76h1zm0-1.52v-.38h-1V15h1zm0-.38c0-.146-.002-.29-.008-.43l-1 .043a9 9 0 01.009.387h1zm-.09-1.297a6.003 6.003 0 00-.197-.869l-.955.295c.068.22.123.462.163.724l.988-.15zm-.551-1.715a3.809 3.809 0 00-.251-.397l-.81.586c.066.091.127.189.185.293l.876-.482zm-.247-.39a3.536 3.536 0 00-.297-.37l-.735.678c.078.085.149.173.213.265l.82-.574zm-1-.972a5.222 5.222 0 00-.786-.436l-.412.911c.237.107.449.225.635.352l.563-.827zm-1.606-.744a8.687 8.687 0 00-.416-.117l-.247.97c.127.032.25.066.368.103l.295-.956zm-.405-.113a9.689 9.689 0 00-.466-.118l-.221.975c.146.033.286.069.418.105l.27-.962zm-1.398-.293a18.618 18.618 0 00-.93-.116l-.1.995c.31.031.604.068.88.11l.15-.989zm-1.859-.191a31.698 31.698 0 00-.926-.045l-.033 1c.31.01.61.025.896.043l.063-.998zm-1.85-.065a45.42 45.42 0 00-.461-.002v1c.152 0 .303 0 .45.002l.011-1zm-.461-.002h-.5v1h.5v-1zm-1.5 0h-.999v1h1v-1zm-1.998 0h-1v1h1v-1zm-2 0h-.998v1h.999v-1zm-1.998 0h-1v1h1v-1zm-1.999 0h-.5v1h.5v-1zm9.495 10.032h-.509v1h.509v-1zm-1.525 0h-1.017v1h1.017v-1zm-2.033 0h-.508v1h.508v-1zm-.008.5v-.485h-1v.485h1zm0-1.454v-.968h-1v.968h1zm0-1.938v-.969h-1v.97h1zm0-1.938v-.484h-1v.485h1zm-.5.016h.494v-1h-.494v1zm1.482 0h.988v-1h-.988v1zm1.976 0h.494v-1h-.494v1zm.494 0c.19 0 .371.002.54.007l.028-1c-.18-.005-.37-.007-.568-.007v1zm1.594.08c.197.027.354.058.476.092l.267-.964a4.553 4.553 0 00-.612-.119l-.13.992zm.482.094c.084.022.159.046.224.072l.37-.929a2.932 2.932 0 00-.34-.11l-.254.966zm.548.271a.453.453 0 01.082.115l.895-.448a1.454 1.454 0 00-.26-.365l-.717.698zm.09.13a.97.97 0 01.079.203l.963-.269a1.96 1.96 0 00-.163-.412l-.878.478zm.16.751c.005.094.008.194.008.302h1c0-.125-.004-.245-.01-.36l-.999.058zm.008.302v.304h1v-.304h-1zm0 .912v.304h1v-.304h-1zm0 .304c0 .127-.004.246-.01.358l.997.062c.009-.135.013-.275.013-.42h-1zm-.112 1.023c-.03.11-.065.2-.102.273l.895.448c.07-.14.126-.293.171-.454l-.964-.267zm-.108.288a.616.616 0 01-.09.14l.766.643c.094-.111.17-.233.232-.364l-.908-.42zm-.401.37c-.063.03-.135.06-.215.087l.316.948c.118-.04.232-.085.339-.137l-.44-.898zm-.215.087a3.097 3.097 0 01-.438.104l.167.986a3.94 3.94 0 00.587-.142l-.316-.948zm-1.423.193c-.16.006-.33.009-.51.009v1c.191 0 .373-.003.546-.01l-.036-.999zm-.357 10.421h-.528v1h.528v-1zm-1.582 0h-1.055v1h1.055v-1zm-2.11 0h-.526v1h.527v-1zm-.026.5v-.548h-1v.548h1zm0-1.643v-1.096h-1v1.096h1zm0-2.192v-1.095h-1v1.095h1zm0-2.191v-.548h-1v.548h1zm-.5-.048h.418v-1h-.418v1zm1.254 0h.836v-1h-.836v1zm1.672 0h.836v-1h-.836v1zm1.672 0h.418v-1h-.418v1zm.418 0c.218 0 .421.007.61.02l.069-.998a9.813 9.813 0 00-.68-.022v1zm1.735.229a1.4 1.4 0 01.414.225l.64-.768a2.388 2.388 0 00-.708-.396l-.346.939zm.425.233c.094.075.176.165.246.274l.841-.54a2.098 2.098 0 00-.468-.518l-.62.784zm.504 1.074c.018.143.028.3.028.472h1a4.83 4.83 0 00-.035-.596l-.993.124zm.028.472v.494h1v-.494h-1zm0 1.482v.494h1v-.494h-1zm0 .494c0 .14-.014.264-.038.373l.976.217c.042-.189.062-.386.062-.59h-1zm-.36.95a1.393 1.393 0 01-.29.206l.476.88c.184-.1.35-.218.498-.356l-.684-.73zm-.29.206a2.12 2.12 0 01-.29.128l.338.94c.152-.054.296-.117.428-.188l-.476-.88zm-.97.3c-.218.039-.462.07-.733.092l.082.997c.296-.025.572-.059.826-.104l-.174-.985zm-1.489.13c-.123.003-.25.004-.381.004v1c.138 0 .273-.002.404-.004l-.023-1zM35.14 9.338v-1h-1v1h1zm15.428.532l-.27.963.011.003.012.003.247-.969zm2.736 1.634l-.82.574.005.006.005.007.81-.587zm-.038 8.094l-.737-.676-.008.009-.008.008.753.659zm-1.9 1.254l-.297-.955-.703.218v.737h1zm0 .19h-1v.9l.895.095.105-.995zm2.622 1.254l-.684.73.013.012.012.01.659-.752zm-1.178 10.45l-.464-.886.464.886zM35.14 34h-1v1h1v-1zm12.084-14.858l-.317-.949.317.949zm.912-.722l-.895-.447-.007.014-.006.014.908.419zm.038-4.028l-.895.447.008.016.009.016.878-.479zm-.95-.646l-.268.964.013.003.255-.967zm-6.156-.19v-1h-1v1h1zm0 5.814h-1v1h1v-1zm7.296 9.918l-.477-.88.477.88zm.19-5.51l-.64.768.01.009.01.008.62-.785zm-7.486-.57v-1h-1v1h1zm0 6.574h-1v1h1v-1zM34.14 9.338v.514h2v-.514h-2zm0 1.541v1.028h2v-1.028h-2zm0 2.056v1.027h2v-1.027h-2zm0 2.055v1.027h2V14.99h-2zm0 2.055v1.027h2v-1.027h-2zm0 2.055v1.028h2V19.1h-2zm0 2.055v1.028h2v-1.028h-2zm0 2.055v1.028h2V23.21h-2zm0 2.055v1.028h2v-1.027h-2zm0 2.056v1.027h2v-1.027h-2zm0 2.055v1.027h2v-1.027h-2zm0 2.055v1.028h2V31.43h-2zm0 2.055V34h2v-.514h-2zm1 1.514h.513v-2h-.513v2zm1.539 0h1.026v-2h-1.026v2zm2.052 0h1.026v-2H38.73v2zm2.052 0h1.026v-2h-1.026v2zm2.052 0h1.026v-2h-1.026v2zm2.052 0h.513v-2h-.513v2zm.513 0c.164 0 .326-.001.486-.003l-.024-2C45.71 33 45.556 33 45.4 33v2zm1.461-.028c.335-.013.661-.032.979-.055l-.146-1.994c-.294.021-.598.038-.913.05l.08 1.999zm1.962-.145c.34-.039.67-.084.987-.135l-.32-1.974c-.284.046-.58.086-.891.121l.224 1.988zM50.8 34.5c.346-.078.678-.167.993-.266l-.598-1.908c-.26.081-.538.156-.837.224l.442 1.95zm1.983-.634a8.22 8.22 0 00.49-.234l-.928-1.772c-.115.06-.236.118-.365.175l.803 1.831zm.49-.234a6.04 6.04 0 00.444-.257l-1.071-1.689c-.095.06-.195.119-.301.174l.928 1.772zm1.275-.9c.262-.248.495-.52.697-.816l-1.65-1.128c-.121.175-.26.339-.42.49l1.373 1.454zm1.203-1.757c.13-.317.232-.65.305-.996l-1.957-.412c-.05.235-.116.45-.197.648l1.85.76zm.437-1.994c.01-.161.015-.325.015-.491h-2c0 .127-.004.25-.011.37l1.996.121zm.015-.491v-.475h-2v.475h2zm0-1.425v-.95h-2v.95h2zm0-1.9v-.475h-2v.475h2zm0-.475c0-.317-.039-.629-.117-.934l-1.938.496c.036.14.055.285.055.438h2zm-.964-2.543a5.495 5.495 0 00-.594-.604L53.33 23.05c.148.129.273.257.379.383l1.532-1.285zm-.57-.581a6.421 6.421 0 00-.677-.555l-1.155 1.633c.156.11.312.238.466.382l1.367-1.46zm-2.302-1.344a5.196 5.196 0 00-.898-.175l-.21 1.99c.191.02.375.056.554.107l.554-1.922zm-.002.82v-.048h-2v.048h2zm0-.143v-.047h-2v.047h2zm-.704.908c.23-.071.453-.158.669-.26l-.857-1.808a2.985 2.985 0 01-.405.158l.593 1.91zm1.862-1.052a5.56 5.56 0 00.494-.498l-1.505-1.318a3.59 3.59 0 01-.317.32l1.328 1.496zm.479-.481a4.88 4.88 0 00.424-.53l-1.648-1.134c-.07.1-.152.205-.25.312l1.474 1.352zm1.016-1.86c.055-.248.083-.5.083-.754h-2c0 .109-.012.215-.035.319l1.952.434zm.083-.754v-.38h-2v.38h2zm0-1.14v-.76h-2v.76h2zm0-1.52v-.38h-2V15h2zm0-.38c0-.153-.003-.304-.01-.452l-1.998.087c.005.117.008.24.008.365h2zm-.097-1.373a6.496 6.496 0 00-.213-.94l-1.91.59c.06.194.109.411.145.652l1.977-.302zm-.607-1.88a4.284 4.284 0 00-.284-.45l-1.62 1.174c.053.073.104.153.152.24l1.752-.964zm-.275-.437a4.046 4.046 0 00-.339-.42l-1.471 1.355c.063.069.12.14.171.213l1.639-1.147zm-1.13-1.097a5.716 5.716 0 00-.86-.478l-.824 1.822c.214.097.4.2.56.31l1.125-1.654zm-1.739-.808a9.191 9.191 0 00-.44-.124l-.493 1.938c.12.03.234.063.344.097l.59-1.911zm-.417-.118a10.176 10.176 0 00-.49-.124l-.443 1.95c.14.032.27.065.394.1l.54-1.926zm-1.458-.305a19.111 19.111 0 00-.955-.12l-.201 1.99c.304.031.589.067.855.107l.301-1.977zm-1.902-.196c-.302-.02-.616-.035-.94-.045l-.068 1.998c.306.01.6.025.882.043l.126-1.996zM45.6 8.34a45.857 45.857 0 00-.466-.002v2c.15 0 .3 0 .446.002l.02-2zm-.466-.002h-.5v2h.5v-2zm-1.5 0h-.999v2h1v-2zm-1.998 0h-1v2h1v-2zm-2 0h-.998v2h.999v-2zm-1.998 0h-1v2h1v-2zm-1.999 0h-.5v2h.5v-2zm9.495 10.032h-.509v2h.509v-2zm-1.525 0h-1.017v2h1.017v-2zm-2.033 0h-.508v2h.508v-2zm.492 1v-.485h-2v.485h2zm0-1.454v-.968h-2v.968h2zm0-1.938v-.969h-2v.97h2zm0-1.938v-.484h-2v.485h2zm-1 .516h.494v-2h-.494v2zm1.482 0h.988v-2h-.988v2zm1.976 0h.494v-2h-.494v2zm.494 0c.187 0 .363.002.527.007l.054-2a21.505 21.505 0 00-.581-.007v2zm1.529.077c.18.023.314.05.407.077l.535-1.928a5.03 5.03 0 00-.68-.132l-.262 1.982zm.42.08c.067.018.122.036.167.054l.739-1.859a3.435 3.435 0 00-.397-.13l-.509 1.935zm.317.137l-.001-.002a.066.066 0 01-.006-.009l1.789-.894a1.954 1.954 0 00-.35-.49l-1.432 1.395zm.01.02a.487.487 0 01.035.098l1.927-.537a2.46 2.46 0 00-.207-.518l-1.755.958zm.098.541c.005.083.008.174.008.273h2a6.72 6.72 0 00-.011-.39l-1.997.117zm.008.273v.304h2v-.304h-2zm0 .912v.304h2v-.304h-2zm0 .304c0 .118-.004.227-.01.328l1.996.122c.01-.145.014-.296.014-.45h-2zm-.093.89a1.028 1.028 0 01-.068.183l1.789.894c.087-.174.154-.357.206-.544l-1.927-.533zm-.081.21a.123.123 0 01-.018.029l1.531 1.286a2.12 2.12 0 00.303-.476l-1.816-.838zm-.167.131c-.041.02-.092.042-.154.062l.633 1.898c.137-.046.271-.1.4-.163l-.879-1.797zm-.154.062a2.477 2.477 0 01-.363.086l.334 1.972a4.45 4.45 0 00.662-.16l-.633-1.898zm-1.281.169c-.154.005-.318.008-.492.008v2c.196 0 .383-.003.563-.01l-.071-1.998zm-.34 10.42h-.528v2h.528v-2zm-1.582 0h-1.055v2h1.055v-2zm-2.11 0h-.526v2h.527v-2zm.474 1v-.548h-2v.548h2zm0-1.643v-1.096h-2v1.096h2zm0-2.192v-1.095h-2v1.095h2zm0-2.191v-.548h-2v.548h2zm-1 .452h.418v-2h-.418v2zm1.254 0h.836v-2h-.836v2zm1.672 0h.836v-2h-.836v2zm1.672 0h.418v-2h-.418v2zm.418 0c.208 0 .4.006.575.019l.139-1.996a10.313 10.313 0 00-.714-.023v2zm1.562.198a.915.915 0 01.267.14l1.28-1.536a2.887 2.887 0 00-.855-.48l-.692 1.876zm.288.157a.602.602 0 01.135.15l1.683-1.08a2.6 2.6 0 00-.579-.64l-1.239 1.57zm.318.743c.015.12.024.257.024.41h2c0-.226-.013-.446-.04-.658l-1.984.248zm.024.41v.494h2v-.494h-2zm0 1.482v.494h2v-.494h-2zm0 .494c0 .107-.01.195-.026.265l1.952.434c.05-.229.074-.463.074-.699h-2zm-.202.586a.894.894 0 01-.187.13l.953 1.76c.218-.119.42-.261.602-.431l-1.368-1.46zm-.187.13a1.504 1.504 0 01-.22.097l.676 1.882a3.47 3.47 0 00.497-.22l-.953-1.758zm-.817.248c-.201.036-.43.064-.688.086l.164 1.993c.309-.025.6-.061.872-.11l-.348-1.969zm-1.414.122c-.12.003-.243.004-.37.004v2c.141 0 .28-.002.415-.005l-.045-1.999zm30.819 5.336l-.077.494h.002l.075-.494zm-3.572-.912l.164-.472-.003-.001-.161.473zm-3.154-2.204l-.404.295.004.005.4-.3zm-.342-17.822l-.433-.25-.005.008.438.242zm2.128-2.28l-.268-.422-.004.002.272.42zm2.812-1.216l.141.48-.141-.48zm3.116-.608l.04.498h.002l-.042-.498zm5.852.038l-.059.497h.007l.008.001.044-.498zm2.888.532l.14-.48-.014-.004-.126.484zm3.002 1.292l.27-.42-.27.42zm1.976 2.128l-.432.252.002.004.43-.256zm-.266 17.708l-.402-.298-.005.006.407.292zm-2.964 2.242l-.186-.464.186.464zm-5.51-2.926l.045.498h.01l.01-.002-.065-.496zm1.786-.38l-.14-.48.14.48zm1.368-.874l-.397-.304-.003.004.4.3zm-.912-14.896l-.238.44.01.005.228-.445zm-8.74-.038l-.229-.445.229.445zm-.912 14.934l-.398.304.005.006.005.005.388-.315zm1.444.874l.14-.48-.005-.002-.135.482zm1.748.38l-.068.495.012.002.012.001.044-.498zm2.052 3.794c-.158 0-.314-.001-.47-.004l-.015 1c.16.003.322.004.485.004v-1zm-1.405-.033a24.987 24.987 0 01-.933-.063l-.086.996c.317.027.64.05.97.065l.049-.998zm-1.86-.163a20.69 20.69 0 01-.46-.064l-.15.988c.159.025.32.047.483.068l.127-.992zm-.458-.064a16.58 16.58 0 01-.442-.075l-.18.984c.157.028.313.055.468.08l.154-.99zm-1.322-.258a20.205 20.205 0 01-.871-.226l-.272.963c.308.087.613.166.915.236l.229-.973zm-1.735-.488a24.002 24.002 0 01-.428-.144l-.328.944c.15.052.298.102.446.15l.31-.95zm-.431-.145a7.578 7.578 0 01-.43-.16l-.378.925c.158.065.32.125.486.181l.322-.946zm-1.245-.56a5.779 5.779 0 01-.741-.507l-.63.777c.271.219.56.417.87.596l.5-.865zm-1.388-1.124a5.421 5.421 0 01-.282-.347l-.8.6c.106.142.218.278.334.41l.748-.663zm-.279-.342a5.177 5.177 0 01-.252-.38l-.856.518c.093.155.194.305.301.452l.807-.59zm-.652-1.197a5.6 5.6 0 01-.257-.88l-.979.201c.074.36.175.705.302 1.037l.934-.358zm-.377-1.801a7.65 7.65 0 01-.014-.469h-1c0 .18.005.356.016.53l.998-.061zm-.014-.469v-.54h-1v.54h1zm0-1.619v-1.079h-1v1.08h1zm0-2.158v-1.08h-1v1.08h1zm0-2.159v-1.079h-1v1.08h1zm0-2.158v-1.08h-1v1.08h1zm0-2.158v-.54h-1v.54h1zm0-.54c0-.135.003-.268.01-.399l-.998-.052a8.52 8.52 0 00-.012.451h1zm.097-1.185c.045-.263.105-.518.181-.764l-.956-.294a6.99 6.99 0 00-.21.89l.985.168zm.461-1.493c.055-.118.114-.234.177-.348l-.875-.484a6.85 6.85 0 00-.208.41l.906.422zm.172-.34c.063-.107.127-.212.193-.313l-.839-.545a8.342 8.342 0 00-.219.357l.865.502zm.624-.904c.156-.19.32-.368.493-.534l-.692-.722a7.01 7.01 0 00-.575.622l.774.634zm1.046-1c.097-.072.196-.14.297-.206l-.543-.84c-.12.077-.236.158-.35.242l.596.804zm.293-.204c.1-.063.202-.124.31-.185l-.495-.87c-.12.069-.237.139-.35.21l.535.845zm.956-.517c.214-.1.44-.195.677-.286l-.36-.933a12.59 12.59 0 00-.738.312l.421.907zm1.375-.532c.116-.037.235-.074.355-.11l-.283-.959c-.128.038-.255.077-.379.117l.307.952zm.355-.11c.126-.037.25-.072.373-.106l-.264-.964c-.13.035-.26.073-.392.111l.283.96zm1.123-.293c.256-.058.508-.108.754-.15l-.17-.986a16.11 16.11 0 00-.805.16l.22.976zm1.512-.26c.128-.014.254-.026.38-.036l-.08-.996c-.136.01-.273.023-.412.039l.112.994zm.382-.036c.227-.02.457-.036.69-.05l-.061-.999c-.241.015-.48.033-.714.053l.085.996zm2.075-.106c.229-.004.46-.006.695-.006v-1c-.24 0-.479.002-.714.007l.02 1zm.695-.006c.127 0 .252 0 .375.002l.01-1a39.106 39.106 0 00-.385-.002v1zm1.125.018c.259.008.508.02.747.034l.06-.998a29.294 29.294 0 00-.774-.036l-.033 1zm1.488.091c.126.012.249.026.368.04l.117-.994a18.263 18.263 0 00-.389-.041l-.096.995zm.383.041c.226.02.46.047.703.082l.142-.99c-.26-.037-.512-.066-.757-.088l-.088.996zm2.107.346c.227.052.46.11.698.172l.253-.968a23.701 23.701 0 00-.729-.179l-.222.975zm.685.168c.13.038.256.076.38.116l.303-.953a17.821 17.821 0 00-.403-.123l-.28.96zm1.129.376c.255.097.496.198.724.303l.419-.908c-.25-.115-.513-.225-.788-.33l-.355.935zm1.414.657c.114.065.223.132.328.2l.542-.841a8.34 8.34 0 00-.373-.227l-.497.868zm.328.2c.185.119.364.252.534.397l.648-.762a6.04 6.04 0 00-.64-.476l-.542.84zm1.442 1.386c.13.18.255.37.373.573l.864-.504a7.838 7.838 0 00-.427-.656l-.81.588zm.375.577c.068.114.131.23.19.351l.898-.439a5.83 5.83 0 00-.228-.424l-.86.512zm.484 1.099c.078.25.14.515.185.792l.987-.164a6.999 6.999 0 00-.216-.923l-.956.295zm.272 1.611c.006.136.01.275.01.416h1a9.38 9.38 0 00-.012-.465l-.998.049zm.01.416v.54h1v-.54h-1zm0 1.619v1.079h1v-1.08h-1zm0 2.158v1.08h1v-1.08h-1zm0 2.159v1.079h1v-1.08h-1zm0 2.158v1.08h1v-1.08h-1zm0 2.158v.54h1v-.54h-1zm0 .54c0 .15-.005.295-.014.438l.998.065c.01-.165.016-.333.016-.503h-1zm-.132 1.298c-.061.286-.144.56-.248.821l.93.37c.124-.315.223-.642.296-.98l-.978-.21zm-.631 1.584a5.02 5.02 0 01-.24.354l.802.596c.103-.138.199-.28.289-.425l-.851-.525zm-.246.36a5.176 5.176 0 01-.265.341l.764.645c.11-.13.215-.264.314-.402l-.813-.584zm-.871.955a5.94 5.94 0 01-.697.518l.537.843c.29-.184.561-.386.814-.605l-.654-.756zm-1.466.939c-.132.062-.267.12-.406.176l.371.928c.157-.062.31-.129.459-.198l-.424-.906zm-.406.176a19.53 19.53 0 01-.445.17l.346.939c.158-.058.315-.118.47-.18l-.371-.93zm-1.348.474a18.76 18.76 0 01-.919.255l.242.97c.328-.082.651-.171.97-.269l-.293-.956zm-1.851.462c-.31.06-.624.114-.943.161l.145.99a22.2 22.2 0 00.99-.17l-.192-.981zm-1.894.279a24.34 24.34 0 01-.956.076l.058.998c.337-.02.67-.046.999-.08l-.101-.994zm-1.916.113c-.16.003-.32.004-.481.004v1c.167 0 .334-.002.5-.005l-.02-1zm-.405-4.214c-.182 0-.357-.001-.526-.004l-.014 1c.174.003.354.004.54.004v-1zm-1.57-.038a16.4 16.4 0 01-.515-.036l-.087.996c.173.015.355.028.547.038l.055-.998zm-.49-.033a10.095 10.095 0 01-.422-.067l-.177.984c.156.028.31.053.463.073l.135-.99zm-1.26-.25a13.347 13.347 0 01-.416-.115l-.28.96c.15.044.3.085.447.123l.249-.969zm-.422-.117a3.342 3.342 0 01-.352-.119l-.376.927c.146.059.3.11.459.155l.27-.963zm-.957-.471a1.708 1.708 0 01-.233-.236l-.776.63c.11.136.233.26.368.373l.641-.767zm-.224-.225a1.764 1.764 0 01-.176-.28l-.893.448c.077.155.17.302.275.44l.794-.608zm-.369-.932a2.793 2.793 0 01-.022-.36h-1c0 .167.01.33.03.489l.992-.13zm-.022-.36v-.541h-1v.541h1zm0-1.625V24.53h-1v1.082h1zm0-2.166v-1.082h-1v1.082h1zm0-2.166v-1.082h-1v1.082h1zm0-2.166v-1.082h-1v1.082h1zm0-2.165v-.542h-1v.542h1zm0-.542c0-.117.005-.228.015-.334l-.996-.092a4.54 4.54 0 00-.02.426h1zm.145-.958c.07-.2.164-.376.282-.53l-.795-.606a2.902 2.902 0 00-.431.806l.944.33zm.719-.944a2.5 2.5 0 01.27-.161l-.457-.89c-.134.07-.262.145-.382.229l.569.822zm.27-.161c.135-.07.286-.135.454-.195l-.34-.94a4.872 4.872 0 00-.57.245l.456.89zm1.454-.459c.32-.06.674-.108 1.059-.142l-.089-.996a12.19 12.19 0 00-1.154.155l.184.983zm2.142-.201c.177-.005.359-.007.546-.007v-1c-.195 0-.385.002-.571.007l.025 1zm.546-.007c.187 0 .37.002.546.007l.026-1a21.782 21.782 0 00-.572-.007v1zm1.63.07c.385.036.737.086 1.057.15l.194-.982c-.358-.07-.744-.125-1.158-.164l-.094.996zm2.053.426c.166.063.315.131.449.204l.476-.88a4.759 4.759 0 00-.57-.258l-.355.934zm.458.209c.097.05.187.103.269.16l.566-.825a3.437 3.437 0 00-.378-.225l-.457.89zm.705.566c.118.152.213.324.283.52l.941-.34a2.867 2.867 0 00-.435-.795l-.79.615zm.415 1.13c.01.105.015.214.015.329h1a4.44 4.44 0 00-.02-.423l-.995.095zm.015.329v.542h1v-.542h-1zm0 1.625v1.082h1v-1.082h-1zm0 2.166v1.082h1v-1.082h-1zm0 2.166v1.082h1v-1.082h-1zm0 2.166v1.082h1V24.53h-1zm0 2.166v.541h1v-.541h-1zm0 .541c0 .127-.008.247-.023.36l.992.129c.02-.159.03-.322.03-.489h-1zm-.216 1.012c-.05.099-.108.192-.175.28l.794.608c.105-.138.197-.285.275-.44l-.894-.448zm-.178.284a1.568 1.568 0 01-.212.23l.665.747a2.56 2.56 0 00.347-.377l-.8-.6zm-.774.576a3.033 3.033 0 01-.334.118l.28.96a4.02 4.02 0 00.444-.158l-.39-.92zm-.334.118c-.142.041-.284.08-.424.116l.246.969c.152-.039.304-.08.458-.125l-.28-.96zm-1.28.299a9.562 9.562 0 01-.431.065l.13.992c.156-.02.314-.045.472-.072l-.17-.985zm-.412.063c-.155.014-.323.026-.504.037l.056.998c.19-.01.37-.024.539-.04l-.09-.995zm-1.528.07a37.11 37.11 0 01-.516.004v1c.183 0 .36-.001.53-.004l-.014-1zm-4.392 4.456l-.154.988h.003l.15-.988zm-3.572-.912l.328-.945-.007-.002-.321.947zm-3.154-2.204l-.807.59.007.01.8-.6zm-.342-17.822l-.866-.501-.005.009-.005.008.876.484zm2.128-2.28L71 10.051l-.008.005.543.84zm2.812-1.216l.283.959-.283-.959zm3.116-.608l.078.997h.007l-.085-.997zm5.852.038l-.117.993.014.002.015.001.088-.996zm2.888.532l.28-.96-.014-.004-.013-.003-.253.967zm3.002 1.292l.542-.84-.542.84zm1.976 2.128l-.864.504.004.007.86-.511zm-.266 17.708l-.803-.597-.005.007-.005.007.813.583zm-2.964 2.242l-.372-.928.372.928zm-5.51-2.926l.09.996.02-.002.019-.002-.13-.992zm1.786-.38l-.28-.96.28.96zm1.368-.874l-.795-.608-.005.008.8.6zm-.912-14.896l-.476.88.01.005.009.005.457-.89zm-8.74-.038l-.457-.89.457.89zm-.912 14.934l-.795.607.01.012.009.012.776-.631zm1.444.874l.28-.96-.01-.003-.27.963zm1.748.38l-.135.99.024.004.024.002.087-.996zm2.052 3.294c-.156 0-.31-.001-.462-.004l-.03 2c.162.003.326.004.492.004v-2zm-1.38-.033a24.35 24.35 0 01-.914-.061l-.173 1.992c.324.028.653.05.988.067l.098-1.998zm-1.82-.159a20.18 20.18 0 01-.45-.063l-.3 1.978c.162.024.327.048.494.07l.255-1.985zm-.447-.062a16.633 16.633 0 01-.428-.073l-.36 1.968c.161.03.321.056.481.081l.307-1.976zm-1.284-.251c-.28-.066-.563-.139-.85-.22l-.542 1.925c.315.089.627.17.936.242l.456-1.947zm-1.694-.477a23.268 23.268 0 01-.42-.14l-.655 1.889c.152.053.304.104.455.153l.62-1.902zm-.426-.143a7.002 7.002 0 01-.4-.15l-.757 1.852c.168.068.34.132.514.192l.643-1.894zm-1.155-.518a5.274 5.274 0 01-.677-.464l-1.258 1.555c.291.235.603.448.933.64l1.002-1.731zm-1.264-1.024a4.9 4.9 0 01-.256-.315l-1.6 1.2c.114.152.234.3.36.442l1.496-1.327zm-.25-.306a4.638 4.638 0 01-.227-.342l-1.712 1.034c.1.168.21.33.326.49l1.614-1.181zm-.589-1.08a5.105 5.105 0 01-.233-.803l-1.959.404c.08.385.188.757.326 1.116l1.867-.718zm-.344-1.653a7.107 7.107 0 01-.013-.438h-2c0 .19.005.377.017.561l1.996-.123zm-.013-.438v-.54h-2v.54h2zm0-1.619v-1.079h-2v1.08h2zm0-2.158v-1.08h-2v1.08h2zm0-2.159v-1.079h-2v1.08h2zm0-2.158v-1.08h-2v1.08h2zm0-2.158v-.54h-2v.54h2zm0-.54c0-.126.003-.25.01-.372l-1.998-.106a8.994 8.994 0 00-.012.478h2zm.09-1.1a5.53 5.53 0 01.166-.702l-1.911-.588a7.54 7.54 0 00-.227.952l1.972.337zm.422-1.367c.05-.107.104-.213.16-.317l-1.75-.968a7.17 7.17 0 00-.224.44l1.814.845zm.151-.3c.058-.1.118-.198.18-.292l-1.678-1.089c-.08.123-.158.25-.233.379l1.731 1.002zm.578-.838a5.57 5.57 0 01.452-.49l-1.384-1.444a7.52 7.52 0 00-.615.666l1.547 1.268zm.957-.915c.088-.066.178-.128.271-.188l-1.087-1.68c-.127.083-.253.17-.375.26l1.19 1.608zm.263-.183a6.45 6.45 0 01.288-.173l-.988-1.739c-.127.072-.25.146-.37.222l1.07 1.69zm.899-.486c.203-.095.418-.186.645-.273l-.718-1.867c-.267.103-.523.211-.77.326l.843 1.814zm1.317-.51c.112-.036.227-.071.344-.106l-.567-1.918c-.132.039-.262.08-.39.12l.613 1.904zm.344-.106c.122-.036.243-.07.363-.103l-.528-1.93a20.68 20.68 0 00-.402.115l.567 1.918zm1.09-.285a14.5 14.5 0 01.73-.146l-.34-1.971c-.273.047-.55.102-.83.166l.44 1.95zm1.459-.25c.122-.014.243-.026.362-.035l-.157-1.994c-.142.011-.284.025-.428.041l.222 1.988zm.37-.036c.221-.019.447-.035.677-.05l-.123-1.996c-.245.015-.487.033-.726.054l.171 1.992zm2.04-.104c.226-.004.454-.006.686-.006v-2c-.244 0-.485.002-.723.007l.038 2zm.686-.006c.125 0 .249 0 .37.002l.02-2a39.535 39.535 0 00-.39-.002v2zm1.109.017c.254.009.498.02.733.034l.12-1.996a28.342 28.342 0 00-.788-.037l-.065 2zm1.457.09c.122.012.241.024.357.038l.234-1.986a18.76 18.76 0 00-.4-.043l-.191 1.991zm.386.041c.216.02.441.046.676.079l.283-1.98a14.503 14.503 0 00-.783-.091l-.176 1.992zm2.04.336c.221.05.449.106.682.167l.507-1.934a24.23 24.23 0 00-.745-.183l-.445 1.95zm.656.16c.126.037.249.074.37.112l.605-1.906a18.27 18.27 0 00-.415-.126l-.56 1.92zm1.091.363c.245.094.476.19.693.29l.837-1.816c-.261-.12-.534-.235-.82-.343l-.71 1.87zm1.344.624c.106.061.208.123.305.185l1.084-1.68a8.689 8.689 0 00-.396-.24l-.993 1.735zm.305.185c.167.108.327.227.481.359l1.296-1.524a6.524 6.524 0 00-.693-.515l-1.084 1.68zm1.309 1.261c.12.165.235.342.345.53l1.728-1.007a8.345 8.345 0 00-.454-.697l-1.62 1.174zm.35.538c.06.102.117.207.17.316l1.797-.878a6.338 6.338 0 00-.249-.46l-1.719 1.022zm.435.991c.071.229.128.47.17.726l1.973-.326a7.491 7.491 0 00-.232-.99l-1.91.59zm.25 1.489c.006.127.01.258.01.391h2c0-.165-.004-.329-.012-.49l-1.998.099zm.01.391v.54h2v-.54h-2zm0 1.619v1.079h2v-1.08h-2zm0 2.158v1.08h2v-1.08h-2zm0 2.159v1.079h2v-1.08h-2zm0 2.158v1.08h2v-1.08h-2zm0 2.158v.54h2v-.54h-2zm0 .54c0 .139-.005.274-.013.406l1.996.13c.011-.177.017-.356.017-.536h-2zm-.12 1.193a4.65 4.65 0 01-.225.742l1.859.738a6.64 6.64 0 00.32-1.06l-1.955-.42zm-.569 1.426a4.461 4.461 0 01-.216.318l1.605 1.194a6.44 6.44 0 00.313-.461l-1.701-1.051zm-.226.332c-.076.107-.157.21-.24.31l1.527 1.29c.118-.14.231-.285.338-.434l-1.625-1.166zm-.793.868c-.196.17-.408.328-.638.474l1.075 1.687c.31-.197.6-.414.872-.65l-1.309-1.511zm-1.35.864a7.097 7.097 0 01-.38.165l.743 1.856a9.2 9.2 0 00.485-.21l-.848-1.81zm-.38.165c-.142.056-.286.112-.43.165l.689 1.877c.163-.06.324-.121.484-.185l-.743-1.858zm-1.308.46c-.293.09-.59.172-.894.247l.484 1.941c.336-.084.668-.175.995-.276l-.585-1.912zm-1.802.45c-.301.058-.608.11-.919.156l.29 1.98c.343-.051.68-.109 1.014-.174l-.385-1.963zm-1.847.271c-.308.031-.62.056-.936.075l.117 1.996c.344-.02.684-.047 1.02-.081l-.201-1.99zm-1.876.11c-.156.004-.313.005-.471.005v2c.17 0 .34-.002.509-.005l-.038-2zm-.395-4.213c-.18 0-.352-.001-.519-.004l-.028 2c.176.003.359.004.547.004v-2zm-1.542-.037a18.19 18.19 0 01-.5-.035l-.173 1.992c.178.016.366.029.563.04l.11-1.997zm-.451-.03a9.557 9.557 0 01-.4-.063L77.603 31c.162.03.324.055.484.077l.27-1.982zm-1.203-.24c-.132-.033-.265-.07-.4-.109l-.56 1.92c.155.045.31.088.463.127l.497-1.937zm-.41-.112c-.11-.03-.21-.065-.3-.101l-.752 1.853c.165.067.336.125.512.174l.54-1.926zm-.772-.374a1.221 1.221 0 01-.166-.168l-1.552 1.262c.13.16.276.308.436.441l1.282-1.535zm-.148-.145a1.265 1.265 0 01-.126-.2l-1.787.896c.091.183.2.357.324.52l1.59-1.216zm-.27-.693a2.28 2.28 0 01-.018-.295h-2c0 .187.011.372.035.554l1.983-.259zm-.018-.295v-.541h-2v.541h2zm0-1.625V24.53h-2v1.082h2zm0-2.166v-1.082h-2v1.082h2zm0-2.166v-1.082h-2v1.082h2zm0-2.166v-1.082h-2v1.082h2zm0-2.165v-.542h-2v.542h2zm0-.542c0-.102.004-.198.012-.288l-1.991-.184a5.108 5.108 0 00-.021.472h2zm.117-.793c.053-.153.124-.282.208-.393l-1.591-1.212a3.401 3.401 0 00-.505.945l1.888.66zm.532-.698c.063-.044.134-.087.213-.127l-.913-1.78c-.153.079-.3.166-.44.263l1.14 1.644zm.213-.127c.115-.06.246-.116.395-.17l-.679-1.881c-.22.08-.43.17-.63.271l.915 1.78zm1.318-.412c.303-.057.64-.103 1.011-.136l-.177-1.992c-.426.038-.827.091-1.202.162l.368 1.966zm2.062-.194c.173-.004.35-.006.534-.006v-2c-.2 0-.394.002-.583.007l.05 2zm.534-.006c.183 0 .36.002.533.007l.052-2c-.19-.005-.386-.007-.585-.007v2zm1.583.068c.37.034.706.082 1.007.142l.388-1.962c-.377-.075-.78-.131-1.208-.172l-.187 1.992zm1.922.395c.147.057.276.116.39.177l.95-1.76a5.255 5.255 0 00-.628-.286l-.712 1.87zm.408.187c.079.04.15.083.214.126l1.132-1.648a3.95 3.95 0 00-.433-.258l-.913 1.78zm.538.428c.085.108.154.234.207.381l1.883-.676a3.365 3.365 0 00-.511-.934l-1.579 1.229zm.312.871c.008.088.013.181.013.281h2c0-.16-.007-.316-.022-.471l-1.991.19zm.013.281v.542h2v-.542h-2zm0 1.625v1.082h2v-1.082h-2zm0 2.166v1.082h2v-1.082h-2zm0 2.166v1.082h2v-1.082h-2zm0 2.166v1.082h2V24.53h-2zm0 2.166v.541h2v-.541h-2zm0 .541c0 .107-.007.205-.019.295l1.984.259a4.28 4.28 0 00.035-.554h-2zm-.163.787a1.258 1.258 0 01-.126.201l1.59 1.215c.123-.162.232-.335.324-.518l-1.788-.898zm-.131.209a1.07 1.07 0 01-.145.157l1.33 1.493c.153-.136.292-.286.415-.45l-1.6-1.2zm-.57.416a2.527 2.527 0 01-.278.098l.56 1.92c.172-.05.339-.109.5-.177l-.782-1.841zm-.278.098c-.137.04-.273.077-.407.111l.492 1.939c.158-.04.316-.084.475-.13l-.56-1.92zm-1.225.286a9.958 9.958 0 01-.41.062l.258 1.984c.164-.022.328-.047.493-.075l-.341-1.971zm-.372.058c-.149.014-.311.026-.487.035l.112 1.997c.196-.01.381-.024.556-.04l-.18-1.992zm-1.49.069a41.62 41.62 0 01-.51.003v2c.186 0 .365-.001.538-.004l-.028-2zm25.807-19.821v-.5h-.5v.5h.5zm5.928 0h.5v-.5h-.5v.5zm0 16.872h-.5v1.73l.923-1.463-.423-.267zm10.64-16.872v-.5h-.276l-.147.233.423.267zm5.928 0h.5v-.5h-.5v.5zm0 24.662v.5h.5V34h-.5zm-5.928 0h-.5v.5h.5V34zm0-17.138h.5v-1.753l-.925 1.49.425.263zM112.595 34v.5h.278l.147-.236-.425-.264zm-5.928 0h-.5v.5h.5V34zm5.586-28.918l-.326.379.004.003.322-.382zM110.315.75v-.5h-.5v.5h.5zm4.75 0l.497-.058-.052-.442h-.445v.5zm.836 2.318l-.363.343.005.006.005.005.353-.354zm4.066 0l-.353-.354-.005.006-.005.005.363.343zm.874-2.318v-.5h-.445l-.051.442.496.058zm4.75 0h.5v-.5h-.5v.5zm-1.938 4.332l.323.382.004-.003-.327-.379zm-17.486 4.256v.514h1v-.514h-1zm0 1.541v1.028h1v-1.028h-1zm0 2.056v1.027h1v-1.027h-1zm0 2.055v1.027h1V14.99h-1zm0 2.055v1.027h1v-1.027h-1zm0 2.055v1.028h1V19.1h-1zm0 2.055v1.028h1v-1.028h-1zm0 2.055v1.028h1V23.21h-1zm0 2.055v1.028h1v-1.027h-1zm0 2.056v1.027h1v-1.027h-1zm0 2.055v1.027h1v-1.027h-1zm0 2.055v1.028h1V31.43h-1zm0 2.055V34h1v-.514h-1zm.5 1.014h.494v-1h-.494v1zm1.482 0h.988v-1h-.988v1zm1.976 0h.988v-1h-.988v1zm1.976 0h.494v-1h-.494v1zm.919-.236l.266-.429-.85-.527-.266.428.85.528zm.798-1.286l.532-.857-.85-.527-.532.857.85.527zm1.064-1.713l.532-.857-.85-.528-.532.857.85.528zm1.064-1.714l.532-.857-.85-.528-.532.857.85.528zm1.064-1.714l.532-.857-.85-.527-.532.857.85.527zm1.064-1.714l.532-.857-.85-.527-.532.857.85.527zm1.064-1.714l.532-.857-.85-.527-.532.857.85.527zm1.064-1.713l.532-.857-.85-.528-.532.857.85.528zm1.064-1.714l.532-.857-.85-.528-.532.857.85.528zm1.064-1.714l.532-.857-.85-.527-.532.857.85.527zm1.064-1.714l.266-.428-.85-.528-.266.429.85.527zm-.659-.692v.476h1v-.476h-1zm0 1.428v.952h1v-.952h-1zm0 1.904v.953h1v-.953h-1zm0 1.905v.952h1v-.952h-1zm0 1.904v.952h1v-.952h-1zm0 1.904v.952h1v-.952h-1zm0 1.904v.952h1v-.952h-1zm0 1.904v.953h1v-.953h-1zm0 1.905v.952h1v-.952h-1zm0 1.904V34h1v-.476h-1zm.5.976h.494v-1h-.494v1zm1.482 0h.988v-1h-.988v1zm1.976 0h.988v-1h-.988v1zm1.976 0h.494v-1h-.494v1zm.994-.5v-.514h-1V34h1zm0-1.541V31.43h-1v1.028h1zm0-2.056v-1.027h-1v1.027h1zm0-2.055v-1.027h-1v1.027h1zm0-2.055v-1.027h-1v1.027h1zm0-2.055V23.21h-1v1.028h1zm0-2.055v-1.028h-1v1.028h1zm0-2.055V19.1h-1v1.028h1zm0-2.055v-1.028h-1v1.027h1zm0-2.056V14.99h-1v1.027h1zm0-2.055v-1.027h-1v1.027h1zm0-2.055v-1.028h-1v1.028h1zm0-2.055v-.514h-1v.514h1zm-.5-1.014h-.494v1h.494v-1zm-1.482 0h-.988v1h.988v-1zm-1.976 0h-.988v1h.988v-1zm-1.976 0h-.494v1h.494v-1zm-.917.233l-.266.422.846.534.266-.422-.846-.534zm-.798 1.266l-.532.843.846.534.532-.844-.846-.533zm-1.064 1.687l-.532.844.846.533.532-.844-.846-.533zm-1.064 1.687l-.532.844.846.533.532-.843-.846-.534zm-1.064 1.687l-.532.844.846.533.532-.843-.846-.534zm-1.064 1.688l-.532.843.846.534.532-.844-.846-.534zm-1.064 1.687l-.532.843.846.534.532-.844-.846-.533zm-1.064 1.687l-.532.843.846.534.532-.844-.846-.533zm-1.064 1.687l-.532.844.846.533.532-.844-.846-.533zm-1.064 1.687l-.532.844.846.533.532-.843-.846-.534zm-1.064 1.688l-.266.421.846.534.266-.422-.846-.534zm.657.688v-.527h-1v.527h1zm0-1.582v-1.054h-1v1.054h1zm0-2.109v-1.054h-1v1.054h1zm0-2.109v-1.054h-1v1.054h1zm0-2.109v-1.054h-1V18.3h1zm0-2.109v-1.054h-1v1.054h1zm0-2.109V13.03h-1v1.054h1zm0-2.109V10.92h-1v1.054h1zm0-2.109v-.527h-1v.527h1zm-.5-1.027h-.494v1h.494v-1zm-1.482 0h-.988v1h.988v-1zm-1.976 0h-.988v1h.988v-1zm-1.976 0h-.494v1h.494v-1zm10.792-2.622c-.166 0-.329-.002-.489-.007l-.031 1c.171.004.344.007.52.007v-1zm-1.46-.07a10.948 10.948 0 01-.953-.14l-.19.982c.334.065.681.115 1.042.152l.101-.995zm-1.877-.37a6.72 6.72 0 01-.876-.338l-.426.905c.316.149.651.278 1.004.388l.298-.955zm-1.677-.798a5.027 5.027 0 01-.364-.278l-.644.764c.139.118.285.23.437.335l.571-.821zm-.359-.275a5.442 5.442 0 01-.408-.388l-.726.688c.151.159.311.311.481.458l.653-.758zM111.5 3.43a4.66 4.66 0 01-.447-1.013l-.956.295c.133.432.314.841.542 1.227l.861-.51zm-.66-2.112a6.558 6.558 0 01-.025-.568h-1c0 .223.01.442.029.657l.996-.089zm-.525-.068h.594v-1h-.594v1zm1.781 0h1.188v-1h-1.188v1zm2.375 0h.594v-1h-.594v1zm.098-.442c.026.23.06.45.1.657l.982-.192a7.582 7.582 0 01-.089-.58l-.993.115zm.533 1.977c.122.236.266.446.436.626l.727-.686a1.739 1.739 0 01-.275-.4l-.888.46zm.446.637c.163.163.347.3.552.415l.487-.873a1.494 1.494 0 01-.332-.25l-.707.708zm1.792.795c.196.024.4.035.613.035v-1c-.177 0-.342-.01-.494-.028l-.119.993zm.613.035c.21 0 .412-.011.605-.034l-.118-.993a4.131 4.131 0 01-.487.027v1zm1.833-.414c.204-.117.386-.259.545-.427l-.727-.686a1.349 1.349 0 01-.314.245l.496.868zm.535-.416a2.73 2.73 0 00.456-.62l-.877-.48a1.715 1.715 0 01-.286.392l.707.708zm.913-1.95c.042-.21.077-.432.104-.664l-.993-.116a7.542 7.542 0 01-.091.582l.98.197zm-.393-.222h.594v-1h-.594v1zm1.781 0h1.188v-1h-1.188v1zm2.375 0h.594v-1h-.594v1zm.094-.5c0 .194-.008.384-.025.568l.996.09a7.13 7.13 0 00.029-.658h-1zm-.237 1.667c-.111.358-.26.695-.447 1.013l.86.509a5.69 5.69 0 00.542-1.227l-.955-.295zm-1.119 1.898a5.857 5.857 0 01-.408.388l.653.758c.17-.147.33-.3.48-.458l-.725-.688zm-.404.385c-.116.097-.237.19-.363.278l.571.821c.151-.106.297-.217.436-.335l-.644-.764zm-1.164.738a6.789 6.789 0 01-.876.338l.297.955a7.85 7.85 0 001.005-.388l-.426-.905zm-1.8.568c-.303.059-.621.105-.954.14l.102.994c.36-.037.708-.087 1.041-.152l-.189-.982zm-1.925.203c-.16.005-.323.007-.489.007v1c.176 0 .349-.003.52-.008l-.031-1zm-11.775 3.129v-1h-1v1h1zm5.928 0h1v-1h-1v1zm0 16.872h-1v3.46l1.846-2.927-.846-.533zm10.64-16.872v-1h-.551l-.295.467.846.533zm5.928 0h1v-1h-1v1zm0 24.662v1h1v-1h-1zm-5.928 0h-1v1h1v-1zm0-17.138h1v-3.507l-1.849 2.98.849.527zM112.595 34v1h.556l.294-.472-.85-.528zm-5.928 0h-1v1h1v-1zm5.586-28.918l-.653.757.009.008.644-.765zM110.315.75v-1h-1v1h1zm4.75 0l.993-.116-.102-.884h-.891v1zm.836 2.318l-.727.687.01.01.01.01.707-.707zm4.066 0l-.707-.707-.01.01-.01.01.727.687zm.874-2.318v-1h-.89l-.103.884.993.116zm4.75 0h1v-1h-1v1zm-1.938 4.332l.645.765.008-.008-.653-.757zm-17.986 4.256v.514h2v-.514h-2zm0 1.541v1.028h2v-1.028h-2zm0 2.056v1.027h2v-1.027h-2zm0 2.055v1.027h2V14.99h-2zm0 2.055v1.027h2v-1.027h-2zm0 2.055v1.028h2V19.1h-2zm0 2.055v1.028h2v-1.028h-2zm0 2.055v1.028h2V23.21h-2zm0 2.055v1.028h2v-1.027h-2zm0 2.056v1.027h2v-1.027h-2zm0 2.055v1.027h2v-1.027h-2zm0 2.055v1.028h2V31.43h-2zm0 2.055V34h2v-.514h-2zm1 1.514h.494v-2h-.494v2zm1.482 0h.988v-2h-.988v2zm1.976 0h.988v-2h-.988v2zm1.976 0h.494v-2h-.494v2zm1.344-.472l.266-.429-1.699-1.055-.266.428 1.699 1.056zm.798-1.286l.532-.857-1.699-1.055-.532.857 1.699 1.055zm1.064-1.714l.532-.857-1.699-1.055-.532.857 1.699 1.055zm1.064-1.713l.532-.857-1.699-1.055-.532.857 1.699 1.054zm1.064-1.714l.532-.857-1.699-1.055-.532.857 1.699 1.055zm1.064-1.714l.532-.857-1.699-1.055-.532.857 1.699 1.055zm1.064-1.714l.532-.857-1.699-1.055-.532.857 1.699 1.055zm1.064-1.714l.532-.857-1.699-1.055-.532.857 1.699 1.055zm1.064-1.713l.532-.857-1.699-1.055-.532.857 1.699 1.055zm1.064-1.714l.532-.857-1.699-1.055-.532.857 1.699 1.055zm1.064-1.714l.266-.428-1.699-1.056-.266.429 1.699 1.055zm-1.584-.956v.476h2v-.476h-2zm0 1.428v.952h2v-.952h-2zm0 1.904v.953h2v-.953h-2zm0 1.905v.952h2v-.952h-2zm0 1.904v.952h2v-.952h-2zm0 1.904v.952h2v-.952h-2zm0 1.904v.952h2v-.952h-2zm0 1.904v.953h2v-.953h-2zm0 1.905v.952h2v-.952h-2zm0 1.904V34h2v-.476h-2zm1 1.476h.494v-2h-.494v2zm1.482 0h.988v-2h-.988v2zm1.976 0h.988v-2h-.988v2zm1.976 0h.494v-2h-.494v2zm1.494-1v-.514h-2V34h2zm0-1.541V31.43h-2v1.028h2zm0-2.056v-1.027h-2v1.027h2zm0-2.055v-1.027h-2v1.027h2zm0-2.055v-1.027h-2v1.027h2zm0-2.055V23.21h-2v1.028h2zm0-2.055v-1.028h-2v1.028h2zm0-2.055V19.1h-2v1.028h2zm0-2.055v-1.028h-2v1.027h2zm0-2.056V14.99h-2v1.027h2zm0-2.055v-1.027h-2v1.027h2zm0-2.055v-1.028h-2v1.028h2zm0-2.055v-.514h-2v.514h2zm-1-1.514h-.494v2h.494v-2zm-1.482 0h-.988v2h.988v-2zm-1.976 0h-.988v2h.988v-2zm-1.976 0h-.494v2h.494v-2zm-1.34.467l-.266.421 1.692 1.067.266-.422-1.692-1.066zm-.798 1.265l-.532.844 1.692 1.066.532-.843-1.692-1.067zm-1.064 1.687l-.532.844 1.692 1.067.532-.844-1.692-1.067zm-1.064 1.687l-.532.844 1.692 1.067.532-.844-1.692-1.067zm-1.064 1.688l-.532.843 1.692 1.067.532-.844-1.692-1.066zm-1.064 1.687l-.532.843 1.692 1.067.532-.843-1.692-1.067zm-1.064 1.687l-.532.844 1.692 1.066.532-.843-1.692-1.067zm-1.064 1.687l-.532.844 1.692 1.067.532-.844-1.692-1.067zm-1.064 1.687l-.532.844 1.692 1.067.532-.844-1.692-1.067zm-1.064 1.688l-.532.843 1.692 1.067.532-.844-1.692-1.066zm-1.064 1.687l-.266.422 1.692 1.066.266-.421-1.692-1.067zm1.58.955v-.527h-2v.527h2zm0-1.582v-1.054h-2v1.054h2zm0-2.109v-1.054h-2v1.054h2zm0-2.109v-1.054h-2v1.054h2zm0-2.109v-1.054h-2V18.3h2zm0-2.109v-1.054h-2v1.054h2zm0-2.109V13.03h-2v1.054h2zm0-2.109V10.92h-2v1.054h2zm0-2.109v-.527h-2v.527h2zm-1-1.527h-.494v2h.494v-2zm-1.482 0h-.988v2h.988v-2zm-1.976 0h-.988v2h.988v-2zm-1.976 0h-.494v2h.494v-2zm10.792-2.622c-.161 0-.319-.002-.474-.007l-.061 1.999c.176.005.354.008.535.008v-2zm-1.409-.068a10.422 10.422 0 01-.91-.133l-.379 1.964c.349.068.711.12 1.086.159l.203-1.99zm-1.78-.35a6.261 6.261 0 01-.811-.312l-.852 1.81c.338.159.695.296 1.069.412l.594-1.91zm-1.54-.73a4.407 4.407 0 01-.326-.25l-1.289 1.529a6.8 6.8 0 00.473.363l1.142-1.643zm-.318-.243a5.292 5.292 0 01-.372-.354l-1.45 1.377c.162.17.334.334.516.491l1.306-1.514zm-.976-1.15a4.219 4.219 0 01-.4-.905l-1.911.59c.145.469.341.914.59 1.333l1.721-1.018zm-.592-1.902a5.907 5.907 0 01-.023-.523h-2c0 .237.01.471.031.702l1.992-.179zm-1.023.477h.594v-2h-.594v2zm1.781 0h1.188v-2h-1.188v2zm2.375 0h.594v-2h-.594v2zm-.399-.885c.028.242.063.474.107.695l1.963-.383a6.864 6.864 0 01-.084-.543l-1.986.231zm.586 2.15c.139.27.309.52.516.74l1.454-1.374a1.244 1.244 0 01-.194-.285l-1.776.919zm.536.76c.197.197.419.363.662.499l.975-1.746a1.027 1.027 0 01-.223-.167l-1.414 1.414zm2.086.939c.218.026.443.038.673.038v-2c-.159 0-.304-.009-.435-.024l-.238 1.986zm.673.038c.228 0 .449-.012.664-.038l-.236-1.986c-.128.016-.27.024-.428.024v2zm2.082-.48c.244-.14.465-.312.659-.517L119.24 2.38a.84.84 0 01-.199.155l.994 1.736zm.639-.497a3.18 3.18 0 00.542-.733l-1.754-.96c-.07.127-.139.216-.202.279l1.414 1.414zm1.05-2.205c.046-.225.082-.46.11-.705l-1.986-.23a6.768 6.768 0 01-.084.54l1.96.395zm-.883.18h.594v-2h-.594v2zm1.781 0h1.188v-2h-1.188v2zm2.375 0h.594v-2h-.594v2zm-.406-1c0 .18-.008.355-.023.523l1.992.179c.021-.23.031-.465.031-.702h-2zm-.215 1.52a4.17 4.17 0 01-.4.905l1.722 1.018a6.23 6.23 0 00.589-1.333l-1.911-.59zm-1.004 1.7c-.115.122-.239.24-.372.355l1.306 1.514c.182-.157.354-.32.517-.491l-1.451-1.377zm-.363.347a4.273 4.273 0 01-.327.25l1.142 1.643c.164-.115.322-.236.474-.363l-1.289-1.53zm-1.055.669c-.25.117-.52.222-.812.313l.595 1.91c.374-.117.73-.254 1.069-.414l-.852-1.81zm-1.682.53c-.287.055-.59.1-.91.132l.204 1.99a12.36 12.36 0 001.085-.159l-.379-1.964zm-1.845.193a15.51 15.51 0 01-.474.007v2c.181 0 .359-.003.535-.008l-.061-2zm44.59 3.629v-.5h-.5v.5h.5zm15.428.532l-.135.482.012.002.123-.484zm2.736 1.634l-.41.287.005.006.405-.293zm-.038 8.094l-.369-.338-.007.009.376.329zm-1.9 1.254l-.148-.477-.352.109v.368h.5zm0 .19h-.5v.45l.448.047.052-.497zm2.622 1.254l-.342.365.007.006.006.005.329-.376zm-1.178 10.45l-.232-.443.232.443zM163.017 34h-.5v.5h.5V34zm12.084-14.858l-.158-.474.158.474zm.912-.722l-.447-.224-.004.007-.003.008.454.209zm.038-4.028l-.447.224.004.008.004.007.439-.239zm-.95-.646l-.134.482.007.002.127-.484zm-6.156-.19v-.5h-.5v.5h.5zm0 5.814h-.5v.5h.5v-.5zm7.296 9.918l-.238-.44.238.44zm.19-5.51l-.32.384.01.008.31-.392zm-7.486-.57v-.5h-.5v.5h.5zm0 6.574h-.5v.5h.5v-.5zm-6.428-20.444v.514h1v-.514h-1zm0 1.541v1.028h1v-1.028h-1zm0 2.056v1.027h1v-1.027h-1zm0 2.055v1.027h1V14.99h-1zm0 2.055v1.027h1v-1.027h-1zm0 2.055v1.028h1V19.1h-1zm0 2.055v1.028h1v-1.028h-1zm0 2.055v1.028h1V23.21h-1zm0 2.055v1.028h1v-1.027h-1zm0 2.056v1.027h1v-1.027h-1zm0 2.055v1.027h1v-1.027h-1zm0 2.055v1.028h1V31.43h-1zm0 2.055V34h1v-.514h-1zm.5 1.014h.513v-1h-.513v1zm1.539 0h1.026v-1h-1.026v1zm2.052 0h1.026v-1h-1.026v1zm2.052 0h1.026v-1h-1.026v1zm2.052 0h1.026v-1h-1.026v1zm2.052 0h.513v-1h-.513v1zm.513 0c.162 0 .322-.001.481-.003l-.013-1c-.154.002-.31.003-.468.003v1zm1.442-.028c.33-.013.65-.03.962-.053l-.073-.998c-.3.022-.61.04-.929.052l.04 1zm1.925-.142c.333-.038.654-.081.963-.132l-.16-.987c-.292.048-.597.09-.915.125l.112.994zm1.924-.317c.334-.076.653-.161.954-.256l-.299-.954a11.51 11.51 0 01-.876.235l.221.975zm1.893-.605c.158-.069.311-.142.458-.22l-.464-.885a6.247 6.247 0 01-.396.19l.402.915zm.458-.22c.141-.073.278-.152.409-.235l-.536-.844a4.644 4.644 0 01-.337.194l.464.886zm1.164-.82c.237-.223.446-.468.628-.734l-.826-.564a3.498 3.498 0 01-.489.572l.687.726zm1.084-1.583c.119-.287.211-.59.278-.909l-.979-.206a4.15 4.15 0 01-.224.735l.925.38zm.4-1.834c.009-.151.014-.305.014-.461h-1c0 .137-.004.27-.012.4l.998.061zm.014-.461v-.475h-1v.475h1zm0-1.425v-.95h-1v.95h1zm0-1.9v-.475h-1v.475h1zm0-.475c0-.276-.033-.546-.101-.81l-.969.248c.047.18.07.368.07.562h1zm-.846-2.222a5.049 5.049 0 00-.541-.548l-.658.752c.165.145.309.291.432.438l.767-.642zm-.528-.537a5.911 5.911 0 00-.626-.512l-.577.817c.176.124.349.266.519.425l.684-.73zm-2.1-1.228a4.71 4.71 0 00-.812-.158l-.104.994c.219.023.432.065.639.124l.277-.96zm-.364.339v-.048h-1v.048h1zm0-.143v-.047h-1v.047h1zm-.352.43a4.48 4.48 0 00.603-.234l-.428-.904a3.592 3.592 0 01-.471.184l.296.954zm1.678-.948a4.95 4.95 0 00.45-.454l-.752-.658a4.193 4.193 0 01-.361.364l.663.748zm.443-.445c.141-.154.268-.313.381-.476l-.824-.567a3.365 3.365 0 01-.295.367l.738.676zm.896-1.631c.047-.212.071-.427.071-.645h-1c0 .145-.016.287-.047.427l.976.218zm.071-.645v-.38h-1v.38h1zm0-1.14v-.76h-1v.76h1zm0-1.52v-.38h-1V15h1zm0-.38c0-.146-.003-.29-.009-.43l-.999.043c.005.125.008.254.008.387h1zm-.091-1.297a6.097 6.097 0 00-.196-.869l-.956.295c.068.22.123.462.163.724l.989-.15zm-.551-1.715a3.726 3.726 0 00-.251-.397l-.81.586c.066.091.128.189.185.293l.876-.482zm-.246-.39a3.5 3.5 0 00-.297-.37l-.736.678c.078.085.149.173.213.265l.82-.574zm-1.001-.972a5.214 5.214 0 00-.786-.436l-.412.911c.237.107.449.225.636.352l.562-.827zm-1.606-.744a8.523 8.523 0 00-.415-.117l-.247.97c.127.032.249.066.367.103l.295-.956zm-.404-.113a9.78 9.78 0 00-.466-.118l-.222.975c.147.033.286.069.418.105l.27-.962zm-1.399-.293a18.673 18.673 0 00-.93-.116l-.1.995c.311.031.604.068.88.11l.15-.989zm-1.858-.191a31.715 31.715 0 00-.926-.045l-.034 1c.311.01.61.025.897.043l.063-.998zm-1.85-.065a45.608 45.608 0 00-.462-.002v1c.153 0 .303 0 .451.002l.011-1zm-.462-.002h-.5v1h.5v-1zm-1.499 0h-.999v1h.999v-1zm-1.999 0h-.999v1h.999v-1zm-1.999 0h-.999v1h.999v-1zm-1.998 0h-1v1h1v-1zm-1.999 0h-.5v1h.5v-1zm9.494 10.032h-.508v1h.508v-1zm-1.525 0h-1.016v1h1.016v-1zm-2.033 0h-.508v1h.508v-1zm-.008.5v-.485h-1v.485h1zm0-1.454v-.968h-1v.968h1zm0-1.938v-.969h-1v.97h1zm0-1.938v-.484h-1v.485h1zm-.5.016h.494v-1h-.494v1zm1.482 0h.988v-1h-.988v1zm1.976 0h.494v-1h-.494v1zm.494 0c.191 0 .372.002.541.007l.027-1a21.272 21.272 0 00-.568-.007v1zm1.595.08c.196.027.353.058.475.092l.268-.964a4.572 4.572 0 00-.612-.119l-.131.992zm.482.094c.084.022.158.046.224.072l.369-.929a2.857 2.857 0 00-.339-.11l-.254.966zm.547.271a.47.47 0 01.083.115l.894-.448a1.444 1.444 0 00-.26-.365l-.717.698zm.091.13a.987.987 0 01.078.203l.963-.269a1.937 1.937 0 00-.163-.412l-.878.478zm.159.751c.005.094.008.194.008.302h1a5.94 5.94 0 00-.01-.36l-.998.058zm.008.302v.304h1v-.304h-1zm0 .912v.304h1v-.304h-1zm0 .304c0 .127-.004.246-.01.358l.998.062c.008-.135.012-.275.012-.42h-1zm-.111 1.023c-.03.11-.065.2-.102.273l.894.448c.07-.14.127-.293.171-.454l-.963-.267zm-.109.288a.603.603 0 01-.089.14l.766.643c.093-.111.17-.233.231-.364l-.908-.42zm-.401.37c-.063.03-.134.06-.215.087l.316.948c.119-.04.232-.085.339-.137l-.44-.898zm-.215.087a2.972 2.972 0 01-.438.104l.167.986a4.01 4.01 0 00.587-.142l-.316-.948zm-1.422.193c-.16.006-.33.009-.51.009v1c.191 0 .372-.003.545-.01l-.035-.999zm-.358 10.421h-.527v1h.527v-1zm-1.582 0h-1.054v1h1.054v-1zm-2.109 0h-.527v1h.527v-1zm-.027.5v-.548h-1v.548h1zm0-1.643v-1.096h-1v1.096h1zm0-2.192v-1.095h-1v1.095h1zm0-2.191v-.548h-1v.548h1zm-.5-.048h.418v-1h-.418v1zm1.254 0h.836v-1h-.836v1zm1.672 0h.836v-1h-.836v1zm1.672 0h.418v-1h-.418v1zm.418 0c.218 0 .422.007.61.02l.069-.998a9.79 9.79 0 00-.679-.022v1zm1.735.229c.186.068.32.146.415.225l.64-.768a2.383 2.383 0 00-.709-.396l-.346.939zm.425.233c.094.075.176.165.246.274l.842-.54a2.105 2.105 0 00-.468-.518l-.62.784zm.505 1.074c.018.143.027.3.027.472h1c0-.208-.011-.407-.035-.596l-.992.124zm.027.472v.494h1v-.494h-1zm0 1.482v.494h1v-.494h-1zm0 .494c0 .14-.013.264-.038.373l.976.217c.042-.189.062-.386.062-.59h-1zm-.359.95a1.402 1.402 0 01-.291.206l.476.88c.184-.1.351-.218.498-.356l-.683-.73zm-.291.206a2.172 2.172 0 01-.29.128l.338.94c.153-.054.296-.117.428-.188l-.476-.88zm-.969.3a7.82 7.82 0 01-.733.092l.081.997c.296-.025.572-.059.826-.104l-.174-.985zm-1.489.13c-.124.003-.251.004-.382.004v1c.138 0 .273-.002.404-.004l-.022-1zm-10.528-19.94v-1h-1v1h1zm15.428.532l-.27.963.012.003.011.003.247-.969zm2.736 1.634l-.819.574.004.006.005.007.81-.587zm-.038 8.094l-.737-.676-.008.009-.008.008.753.659zm-1.9 1.254l-.296-.955-.704.218v.737h1zm0 .19h-1v.9l.895.095.105-.995zm2.622 1.254l-.683.73.012.012.013.01.658-.752zm-1.178 10.45l-.464-.886.464.886zM163.017 34h-1v1h1v-1zm12.084-14.858l-.316-.949.316.949zm.912-.722l-.894-.447-.007.014-.007.014.908.419zm.038-4.028l-.894.447.008.016.008.016.878-.479zm-.95-.646l-.268.964.014.003.254-.967zm-6.156-.19v-1h-1v1h1zm0 5.814h-1v1h1v-1zm7.296 9.918l-.476-.88.476.88zm.19-5.51l-.64.768.01.009.01.008.62-.785zm-7.486-.57v-1h-1v1h1zm0 6.574h-1v1h1v-1zm-6.928-20.444v.514h2v-.514h-2zm0 1.541v1.028h2v-1.028h-2zm0 2.056v1.027h2v-1.027h-2zm0 2.055v1.027h2V14.99h-2zm0 2.055v1.027h2v-1.027h-2zm0 2.055v1.028h2V19.1h-2zm0 2.055v1.028h2v-1.028h-2zm0 2.055v1.028h2V23.21h-2zm0 2.055v1.028h2v-1.027h-2zm0 2.056v1.027h2v-1.027h-2zm0 2.055v1.027h2v-1.027h-2zm0 2.055v1.028h2V31.43h-2zm0 2.055V34h2v-.514h-2zm1 1.514h.513v-2h-.513v2zm1.539 0h1.026v-2h-1.026v2zm2.052 0h1.026v-2h-1.026v2zm2.052 0h1.026v-2h-1.026v2zm2.052 0h1.026v-2h-1.026v2zm2.052 0h.513v-2h-.513v2zm.513 0c.164 0 .326-.001.487-.003l-.025-2a35.12 35.12 0 01-.462.003v2zm1.461-.028a29 29 0 00.979-.055l-.145-1.994c-.294.021-.599.038-.913.05l.079 1.999zm1.962-.145c.341-.039.67-.084.987-.135l-.32-1.974c-.283.046-.58.086-.891.121l.224 1.988zm1.978-.327c.347-.078.678-.167.993-.266l-.598-1.908c-.259.081-.538.156-.837.224l.442 1.95zm1.984-.634a8.06 8.06 0 00.489-.234l-.928-1.772c-.114.06-.236.118-.364.175l.803 1.831zm.489-.234c.153-.08.302-.166.445-.257l-1.072-1.689c-.095.06-.195.119-.301.174l.928 1.772zm1.275-.9c.262-.248.495-.52.697-.816l-1.65-1.128c-.121.175-.26.339-.42.49l1.373 1.454zm1.204-1.757c.13-.317.231-.65.304-.996l-1.957-.412a3.7 3.7 0 01-.197.648l1.85.76zm.436-1.994a7.95 7.95 0 00.015-.491h-2c0 .127-.004.25-.011.37l1.996.121zm.015-.491v-.475h-2v.475h2zm0-1.425v-.95h-2v.95h2zm0-1.9v-.475h-2v.475h2zm0-.475c0-.317-.038-.629-.117-.934l-1.937.496c.036.14.054.285.054.438h2zm-.963-2.543a5.573 5.573 0 00-.594-.604l-1.317 1.506c.147.129.273.257.378.383l1.533-1.285zm-.57-.581a6.419 6.419 0 00-.678-.555l-1.155 1.633c.157.11.312.238.467.382l1.366-1.46zm-2.303-1.344a5.191 5.191 0 00-.897-.175l-.21 1.99c.191.02.375.056.554.107l.553-1.922zm-.002.82v-.048h-2v.048h2zm0-.143v-.047h-2v.047h2zm-.704.908c.23-.071.453-.158.669-.26l-.856-1.808a3.064 3.064 0 01-.405.158l.592 1.91zm1.862-1.052c.174-.154.339-.32.495-.498l-1.506-1.318a3.558 3.558 0 01-.316.32l1.327 1.496zm.479-.481c.156-.17.298-.347.424-.53l-1.647-1.134c-.07.1-.153.205-.251.312l1.474 1.352zm1.016-1.86c.056-.248.083-.5.083-.754h-2c0 .109-.012.215-.035.319l1.952.434zm.083-.754v-.38h-2v.38h2zm0-1.14v-.76h-2v.76h2zm0-1.52v-.38h-2V15h2zm0-.38a9.57 9.57 0 00-.01-.452l-1.998.087c.005.117.008.24.008.365h2zm-.097-1.373a6.43 6.43 0 00-.213-.94l-1.91.59c.06.194.109.411.146.652l1.977-.302zm-.607-1.88a4.217 4.217 0 00-.284-.45l-1.62 1.174c.053.073.104.153.152.24l1.752-.964zM182 10.93a4.095 4.095 0 00-.338-.42l-1.472 1.355c.064.069.121.14.172.213L182 10.93zm-1.129-1.097a5.67 5.67 0 00-.861-.478l-.824 1.822c.214.097.4.2.561.31l1.124-1.654zm-1.739-.808a9.171 9.171 0 00-.44-.124l-.494 1.938c.12.03.234.063.344.097l.59-1.911zm-.417-.118a10.547 10.547 0 00-.49-.124l-.444 1.95c.14.032.271.065.394.1l.54-1.926zm-1.459-.305a18.912 18.912 0 00-.955-.12l-.201 1.99c.304.031.589.067.855.107l.301-1.977zm-1.902-.196c-.302-.02-.616-.035-.94-.045l-.068 1.998c.307.01.601.025.882.043l.126-1.996zm-1.876-.066a46.01 46.01 0 00-.467-.002v2c.151 0 .3 0 .446.002l.021-2zm-.467-.002h-.5v2h.5v-2zm-1.499 0h-.999v2h.999v-2zm-1.999 0h-.999v2h.999v-2zm-1.999 0h-.999v2h.999v-2zm-1.998 0h-1v2h1v-2zm-1.999 0h-.5v2h.5v-2zm9.494 10.032h-.508v2h.508v-2zm-1.525 0h-1.016v2h1.016v-2zm-2.033 0h-.508v2h.508v-2zm.492 1v-.485h-2v.485h2zm0-1.454v-.968h-2v.968h2zm0-1.938v-.969h-2v.97h2zm0-1.938v-.484h-2v.485h2zm-1 .516h.494v-2h-.494v2zm1.482 0h.988v-2h-.988v2zm1.976 0h.494v-2h-.494v2zm.494 0c.187 0 .363.002.528.007l.053-2a21.459 21.459 0 00-.581-.007v2zm1.529.077c.181.023.314.05.407.077l.536-1.928a5.043 5.043 0 00-.681-.132l-.262 1.982zm.421.08c.066.018.121.036.166.054l.739-1.859a3.445 3.445 0 00-.396-.13l-.509 1.935zm.316.137l-.001-.002a.025.025 0 01-.005-.009l1.788-.894a1.934 1.934 0 00-.349-.49l-1.433 1.395zm.01.02c.004.009.019.038.035.098l1.927-.537a2.476 2.476 0 00-.206-.518l-1.756.958zm.099.541c.004.083.007.174.007.273h2c0-.134-.003-.263-.011-.39l-1.996.117zm.007.273v.304h2v-.304h-2zm0 .912v.304h2v-.304h-2zm0 .304c0 .118-.003.227-.009.328l1.996.122a7.31 7.31 0 00.013-.45h-2zm-.093.89a1.065 1.065 0 01-.067.183l1.788.894c.087-.174.154-.357.206-.544l-1.927-.533zm-.081.21a.097.097 0 01-.018.029l1.532 1.286c.121-.144.222-.304.302-.476l-1.816-.838zm-.167.131c-.041.02-.091.042-.153.062l.632 1.898c.138-.046.272-.1.401-.163l-.88-1.797zm-.153.062a2.495 2.495 0 01-.363.086l.333 1.972c.233-.04.456-.091.662-.16l-.632-1.898zm-1.282.169a15.05 15.05 0 01-.492.008v2c.196 0 .384-.003.563-.01l-.071-1.998zm-.34 10.42h-.527v2h.527v-2zm-1.582 0h-1.054v2h1.054v-2zm-2.109 0h-.527v2h.527v-2zm.473 1v-.548h-2v.548h2zm0-1.643v-1.096h-2v1.096h2zm0-2.192v-1.095h-2v1.095h2zm0-2.191v-.548h-2v.548h2zm-1 .452h.418v-2h-.418v2zm1.254 0h.836v-2h-.836v2zm1.672 0h.836v-2h-.836v2zm1.672 0h.418v-2h-.418v2zm.418 0c.208 0 .4.006.575.019l.139-1.996a10.3 10.3 0 00-.714-.023v2zm1.562.198a.913.913 0 01.268.14l1.28-1.536a2.876 2.876 0 00-.856-.48l-.692 1.876zm.288.157a.6.6 0 01.135.15l1.684-1.08a2.608 2.608 0 00-.579-.64l-1.24 1.57zm.319.743c.015.12.023.257.023.41h2a5.23 5.23 0 00-.039-.658l-1.984.248zm.023.41v.494h2v-.494h-2zm0 1.482v.494h2v-.494h-2zm0 .494c0 .107-.01.195-.026.265l1.952.434a3.21 3.21 0 00.074-.699h-2zm-.201.586a.911.911 0 01-.187.13l.952 1.76c.218-.119.421-.261.602-.431l-1.367-1.46zm-.187.13a1.492 1.492 0 01-.222.097l.677 1.882a3.47 3.47 0 00.497-.22l-.952-1.758zm-.818.248a7.5 7.5 0 01-.687.086l.163 1.993c.309-.025.6-.061.872-.11l-.348-1.969zm-1.413.122c-.12.003-.243.004-.371.004v2c.142 0 .28-.002.416-.005l-.045-1.999zm23.484-19.44v-.5h-.5v.5h.5zm5.928 0h.5v-.5h-.5v.5zm0 9.044h-.5v.5h.5v-.5zm8.588.342l.081-.493-.081.493zm3.306 1.482l-.342.365.006.005.336-.37zM197.018 34h-.5v.5h.5V34zm22.8-24.662v-.5h-.5v.5h.5zm5.928 0h.5v-.5h-.5v.5zm0 24.662v.5h.5V34h-.5zm-5.928 0h-.5v.5h.5V34zm-10.716-4.826l.255.43.012-.007-.267-.423zm.038-6.156l-.195.46.195-.46zm-6.232-.418v-.5h-.5v.5h.5zm0 7.182h-.5v.5h.5v-.5zm-6.39-20.444v.514h1v-.514h-1zm0 1.541v1.028h1v-1.028h-1zm0 2.056v1.027h1v-1.027h-1zm0 2.055v1.027h1V14.99h-1zm0 2.055v1.027h1v-1.027h-1zm0 2.055v1.028h1V19.1h-1zm0 2.055v1.028h1v-1.028h-1zm0 2.055v1.028h1V23.21h-1zm0 2.055v1.028h1v-1.027h-1zm0 2.056v1.027h1v-1.027h-1zm0 2.055v1.027h1v-1.027h-1zm0 2.055v1.028h1V31.43h-1zm0 2.055V34h1v-.514h-1zm.5 1.014h.454v-1h-.454v1zm1.362 0h.909v-1h-.909v1zm1.817 0h.908v-1h-.908v1zm1.816 0h.908v-1h-.908v1zm1.817 0h.908v-1h-.908v1zm1.816 0h.454v-1h-.454v1zm.454 0c.186 0 .37-.002.551-.005l-.017-1c-.175.004-.353.005-.534.005v1zm1.654-.043c.379-.021.747-.05 1.103-.085l-.101-.995c-.339.034-.692.061-1.057.081l.055.999zm2.204-.227c.382-.06.748-.131 1.098-.213l-.227-.974c-.325.076-.667.142-1.027.2l.156.987zm2.186-.517a9.395 9.395 0 001.062-.421l-.427-.905a8.47 8.47 0 01-.949.377l.314.95zm2.072-.996a5.75 5.75 0 00.905-.762l-.721-.693a4.816 4.816 0 01-.749.63l.565.825zm1.628-1.72c.2-.344.358-.712.473-1.102l-.959-.284c-.093.317-.22.61-.378.884l.864.502zm.688-2.264c.016-.192.024-.386.024-.585h-1c0 .172-.007.338-.021.5l.997.085zm.024-.585v-.58h-1v.58h1zm0-1.738v-1.16h-1v1.16h1zm0-2.319v-.579h-1v.58h1zm0-.579c0-.165-.005-.327-.014-.485l-.999.062c.009.136.013.277.013.423h1zm-.148-1.46a4.722 4.722 0 00-.319-.961l-.908.418c.105.228.189.48.251.76l.976-.217zm-.87-1.84a3.747 3.747 0 00-.362-.377l-.672.741c.096.087.184.18.266.277l.768-.64zm-.356-.37a5.396 5.396 0 00-.386-.33l-.611.792c.109.085.214.174.313.267l.684-.73zm-1.235-.87a6.718 6.718 0 00-.913-.39l-.326.945c.278.096.537.207.777.332l.462-.887zm-1.856-.651a9.451 9.451 0 00-.476-.09l-.162.986c.147.024.289.051.427.081l.211-.977zm-.476-.09a18.394 18.394 0 00-.465-.07l-.136.99c.151.021.298.043.439.066l.162-.986zm-1.393-.178a30.41 30.41 0 00-.927-.075l-.066.997c.312.021.611.045.896.073l.097-.995zm-1.852-.125a47.866 47.866 0 00-.924-.03l-.023 1c.311.006.613.016.904.029l.043-1zm-1.847-.044a63.397 63.397 0 00-.461-.002v1c.154 0 .305 0 .454.002l.007-1zm-.461-.002h-.389v1h.389v-1zm-1.168 0h-.779v1h.779v-1zm-1.558 0h-.39v1h.39v-1zm.11.5v-.452h-1v.452h1zm0-1.357v-.904h-1v.904h1zm0-1.808v-.905h-1v.905h1zm0-1.81v-.904h-1v.905h1zm0-1.808v-.904h-1v.904h1zm0-1.809v-.452h-1v.452h1zm-.5-.952h-.494v1h.494v-1zm-1.482 0h-.988v1h.988v-1zm-1.976 0h-.988v1h.988v-1zm-1.976 0h-.494v1h.494v-1zm21.806.5v.514h1v-.514h-1zm0 1.541v1.028h1v-1.028h-1zm0 2.056v1.027h1v-1.027h-1zm0 2.055v1.027h1V14.99h-1zm0 2.055v1.027h1v-1.027h-1zm0 2.055v1.028h1V19.1h-1zm0 2.055v1.028h1v-1.028h-1zm0 2.055v1.028h1V23.21h-1zm0 2.055v1.028h1v-1.027h-1zm0 2.056v1.027h1v-1.027h-1zm0 2.055v1.027h1v-1.027h-1zm0 2.055v1.028h1V31.43h-1zm0 2.055V34h1v-.514h-1zm.5 1.014h.494v-1h-.494v1zm1.482 0h.988v-1h-.988v1zm1.976 0h.988v-1h-.988v1zm1.976 0h.494v-1h-.494v1zm.994-.5v-.514h-1V34h1zm0-1.541V31.43h-1v1.028h1zm0-2.056v-1.027h-1v1.027h1zm0-2.055v-1.027h-1v1.027h1zm0-2.055v-1.027h-1v1.027h1zm0-2.055V23.21h-1v1.028h1zm0-2.055v-1.028h-1v1.028h1zm0-2.055V19.1h-1v1.028h1zm0-2.055v-1.028h-1v1.027h1zm0-2.056V14.99h-1v1.027h1zm0-2.055v-1.027h-1v1.027h1zm0-2.055v-1.028h-1v1.028h1zm0-2.055v-.514h-1v.514h1zm-.5-1.014h-.494v1h.494v-1zm-1.482 0h-.988v1h.988v-1zm-1.976 0h-.988v1h.988v-1zm-1.976 0h-.494v1h.494v-1zm-14.478 20.444h-.731v1h.731v-1zm-2.194 0h-.732v1h.732v-1zm-.232.5v-.449h-1v.449h1zm0-1.347v-.897h-1v.897h1zm0-1.795v-.898h-1v.898h1zm0-1.796v-.897h-1v.897h1zm0-1.795V22.6h-1v.449h1zm-.5.051h.375v-1h-.375v1zm1.126 0h.75v-1h-.75v1zm1.501 0h.375v-1h-.375v1zm.375 0c.137 0 .271.001.4.004l.019-1a21.971 21.971 0 00-.419-.004v1zm1.194.036c.285.02.544.046.778.079l.141-.99a11.545 11.545 0 00-.852-.087l-.067.998zm1.513.229c.125.036.234.074.328.114l.39-.921a3.87 3.87 0 00-.444-.155l-.274.962zm.328.114c.125.052.227.114.309.18l.633-.773a2.264 2.264 0 00-.552-.328l-.39.92zm.644.747c.025.112.039.24.039.388h1c0-.21-.02-.414-.063-.607l-.976.218zm.039.388v.655h1v-.655h-1zm0 1.966v.656h1v-.655h-1zm0 .656c0 .171-.016.327-.046.468l.979.206c.045-.215.067-.44.067-.674h-1zm-.441 1.232a1.838 1.838 0 01-.351.283l.533.846a2.82 2.82 0 00.54-.438l-.722-.691zm-.34.276a2.463 2.463 0 01-.311.154l.381.924a3.4 3.4 0 00.44-.218l-.51-.86zm-1.028.367a7.163 7.163 0 01-.776.116l.099.996c.315-.032.61-.076.884-.134l-.207-.978zm-1.579.166c-.131.003-.266.005-.406.005v1c.148 0 .293-.002.434-.006l-.028-1zm-9.222-19.939v-1h-1v1h1zm5.928 0h1v-1h-1v1zm0 9.044h-1v1h1v-1zm8.588.342l.162-.987-.162.987zm3.306 1.482l-.684.73.006.005.007.006.671-.741zM197.018 34h-1v1h1v-1zm22.8-24.662v-1h-1v1h1zm5.928 0h1v-1h-1v1zm0 24.662v1h1v-1h-1zm-5.928 0h-1v1h1v-1zm-10.716-4.826l.51.86.012-.007.011-.007-.533-.846zm.038-6.156l-.39.921.39-.921zm-6.232-.418v-1h-1v1h1zm0 7.182h-1v1h1v-1zm-6.89-20.444v.514h2v-.514h-2zm0 1.541v1.028h2v-1.028h-2zm0 2.056v1.027h2v-1.027h-2zm0 2.055v1.027h2V14.99h-2zm0 2.055v1.027h2v-1.027h-2zm0 2.055v1.028h2V19.1h-2zm0 2.055v1.028h2v-1.028h-2zm0 2.055v1.028h2V23.21h-2zm0 2.055v1.028h2v-1.027h-2zm0 2.056v1.027h2v-1.027h-2zm0 2.055v1.027h2v-1.027h-2zm0 2.055v1.028h2V31.43h-2zm0 2.055V34h2v-.514h-2zm1 1.514h.454v-2h-.454v2zm1.362 0h.909v-2h-.909v2zm1.817 0h.908v-2h-.908v2zm1.816 0h.908v-2h-.908v2zm1.817 0h.908v-2h-.908v2zm1.816 0h.454v-2h-.454v2zm.454 0c.189 0 .375-.002.559-.005l-.033-2c-.173.004-.348.005-.526.005v2zm1.681-.044c.387-.021.762-.05 1.126-.087l-.201-1.99c-.331.034-.676.06-1.035.08l.11 1.997zm2.256-.232c.392-.063.77-.135 1.132-.22l-.453-1.948c-.312.073-.643.137-.992.192l.313 1.976zm2.265-.536c.393-.13.766-.278 1.118-.444l-.854-1.809a7.988 7.988 0 01-.894.354l.63 1.899zm2.197-1.058a6.28 6.28 0 00.983-.83l-1.443-1.384a4.279 4.279 0 01-.671.564l1.131 1.65zm1.778-1.882c.22-.38.393-.784.52-1.211l-1.918-.567a3.556 3.556 0 01-.332.774l1.73 1.004zm.753-2.473c.018-.206.026-.415.026-.627h-2c0 .158-.006.31-.019.458l1.993.169zm.026-.627v-.58h-2v.58h2zm0-1.738v-1.16h-2v1.16h2zm0-2.319v-.579h-2v.58h2zm0-.579a8.71 8.71 0 00-.015-.515l-1.997.123c.008.125.012.256.012.392h2zm-.16-1.569a5.3 5.3 0 00-.352-1.061l-1.817.836c.088.192.162.41.217.658l1.952-.433zm-.974-2.05a4.369 4.369 0 00-.41-.428l-1.343 1.482c.078.07.15.146.217.227l1.536-1.282zm-.398-.416a5.845 5.845 0 00-.423-.36l-1.222 1.583c.097.075.19.154.277.236l1.368-1.46zm-1.346-.948a7.181 7.181 0 00-.981-.42l-.652 1.89c.256.09.492.19.708.303l.925-1.773zm-1.981-.697a10.098 10.098 0 00-.501-.095l-.323 1.974c.138.023.272.048.402.076l.422-1.955zm-.501-.095c-.155-.025-.314-.05-.478-.072l-.272 1.982c.147.02.29.041.427.064l.323-1.974zm-1.426-.182a29.57 29.57 0 00-.942-.076l-.133 1.995c.309.02.602.045.882.072l.193-1.99zm-1.879-.127a48.538 48.538 0 00-.933-.03l-.047 1.999c.309.007.607.017.895.03l.085-1.999zm-1.864-.044a64.712 64.712 0 00-.465-.002v2c.152 0 .302 0 .451.002l.014-2zm-.465-.002h-.389v2h.389v-2zm-1.168 0h-.779v2h.779v-2zm-1.558 0h-.39v2h.39v-2zm.61 1v-.452h-2v.452h2zm0-1.357v-.904h-2v.904h2zm0-1.808v-.905h-2v.905h2zm0-1.81v-.904h-2v.905h2zm0-1.808v-.904h-2v.904h2zm0-1.809v-.452h-2v.452h2zm-1-1.452h-.494v2h.494v-2zm-1.482 0h-.988v2h.988v-2zm-1.976 0h-.988v2h.988v-2zm-1.976 0h-.494v2h.494v-2zm21.306 1v.514h2v-.514h-2zm0 1.541v1.028h2v-1.028h-2zm0 2.056v1.027h2v-1.027h-2zm0 2.055v1.027h2V14.99h-2zm0 2.055v1.027h2v-1.027h-2zm0 2.055v1.028h2V19.1h-2zm0 2.055v1.028h2v-1.028h-2zm0 2.055v1.028h2V23.21h-2zm0 2.055v1.028h2v-1.027h-2zm0 2.056v1.027h2v-1.027h-2zm0 2.055v1.027h2v-1.027h-2zm0 2.055v1.028h2V31.43h-2zm0 2.055V34h2v-.514h-2zm1 1.514h.494v-2h-.494v2zm1.482 0h.988v-2h-.988v2zm1.976 0h.988v-2h-.988v2zm1.976 0h.494v-2h-.494v2zm1.494-1v-.514h-2V34h2zm0-1.541V31.43h-2v1.028h2zm0-2.056v-1.027h-2v1.027h2zm0-2.055v-1.027h-2v1.027h2zm0-2.055v-1.027h-2v1.027h2zm0-2.055V23.21h-2v1.028h2zm0-2.055v-1.028h-2v1.028h2zm0-2.055V19.1h-2v1.028h2zm0-2.055v-1.028h-2v1.027h2zm0-2.056V14.99h-2v1.027h2zm0-2.055v-1.027h-2v1.027h2zm0-2.055v-1.028h-2v1.028h2zm0-2.055v-.514h-2v.514h2zm-1-1.514h-.494v2h.494v-2zm-1.482 0h-.988v2h.988v-2zm-1.976 0h-.988v2h.988v-2zm-1.976 0h-.494v2h.494v-2zm-14.478 20.444h-.731v2h.731v-2zm-2.194 0h-.732v2h.732v-2zm.268 1v-.449h-2v.449h2zm0-1.347v-.897h-2v.897h2zm0-1.795v-.898h-2v.898h2zm0-1.796v-.897h-2v.897h2zm0-1.795V22.6h-2v.449h2zm-1 .551h.375v-2h-.375v2zm1.126 0h.75v-2h-.75v2zm1.501 0h.375v-2h-.375v2zm.375 0c.134 0 .265.001.391.003l.037-2a23.832 23.832 0 00-.428-.003v2zm1.161.035c.274.018.521.044.74.075l.282-1.98a11.98 11.98 0 00-.888-.09l-.134 1.995zm1.409.21c.109.032.198.063.27.094l.78-1.842a4.392 4.392 0 00-.502-.175l-.548 1.924zm.27.094a.744.744 0 01.187.108l1.266-1.549a2.757 2.757 0 00-.673-.401l-.78 1.842zm.351.396c.016.072.027.163.027.279h2c0-.242-.023-.483-.076-.717l-1.951.438zm.027.279v.655h2v-.655h-2zm0 1.966v.656h2v-.655h-2zm0 .656c0 .14-.013.26-.035.364l1.957.414c.053-.253.078-.514.078-.778h-2zm-.302.886c-.067.07-.15.139-.257.206l1.066 1.692c.233-.147.447-.318.636-.515l-1.445-1.383zm-.234.192c-.068.04-.15.081-.247.121l.762 1.85c.176-.073.345-.156.505-.25l-1.02-1.721zm-.876.308a6.759 6.759 0 01-.723.108l.198 1.99c.331-.033.644-.08.938-.141l-.413-1.957zm-1.489.155c-.127.003-.258.005-.393.005v2c.153 0 .302-.002.448-.006l-.055-2zm34.738-19.439v-.5h-.5v.5h.5zm17.518 0h.5v-.5h-.5v.5zm0 4.218v.5h.5v-.5h-.5zm-11.59 0v-.5h-.5v.5h.5zm0 5.586h-.5v.5h.5v-.5zm9.158.418l-.1.49.008.002.092-.492zm3.116 1.52l-.366.341.006.006.006.007.354-.354zM240.965 34h-.5v.5h.5V34zm12.35-4.826l.255.43.011-.007-.266-.423zm.038-5.396l.194-.46-.194.46zm-6.498-.418v-.5h-.5v.5h.5zm0 6.422h-.5v.5h.5v-.5zm-6.39-20.444v.514h1v-.514h-1zm0 1.541v1.028h1v-1.028h-1zm0 2.056v1.027h1v-1.027h-1zm0 2.055v1.027h1V14.99h-1zm0 2.055v1.027h1v-1.027h-1zm0 2.055v1.028h1V19.1h-1zm0 2.055v1.028h1v-1.028h-1zm0 2.055v1.028h1V23.21h-1zm0 2.055v1.028h1v-1.027h-1zm0 2.056v1.027h1v-1.027h-1zm0 2.055v1.027h1v-1.027h-1zm0 2.055v1.028h1V31.43h-1zm0 2.055V34h1v-.514h-1zm.5 1.014h.467v-1h-.467v1zm1.402 0h.935v-1h-.935v1zm1.869 0h.935v-1h-.935v1zm1.87 0h.935v-1h-.935v1zm1.87 0h.934v-1h-.934v1zm1.869 0h.468v-1h-.468v1zm.468 0c.186 0 .369-.002.551-.005l-.017-1c-.176.004-.354.005-.534.005v1zm1.653-.043c.38-.021.747-.05 1.103-.085l-.1-.995c-.34.034-.692.061-1.058.081l.055.999zm2.205-.227c.381-.06.747-.131 1.097-.213l-.226-.974a15.01 15.01 0 01-1.028.2l.157.987zm2.186-.517c.376-.125.73-.265 1.062-.421l-.427-.905a8.488 8.488 0 01-.95.377l.315.95zm2.071-.996c.336-.23.639-.484.906-.762l-.722-.693a4.725 4.725 0 01-.749.63l.565.825zm1.629-1.72c.2-.344.357-.712.473-1.102l-.959-.284c-.094.317-.22.61-.379.884l.865.502zm.687-2.264c.017-.192.025-.386.025-.585h-1c0 .172-.007.338-.021.5l.996.085zm.025-.585v-.485h-1v.485h1zm0-1.453v-.97h-1v.97h1zm0-1.939v-.484h-1v.485h1zm0-.484c0-.158-.005-.312-.014-.463l-.998.059c.008.13.012.265.012.404h1zm-.135-1.395a4.862 4.862 0 00-.288-.921l-.919.395c.095.221.172.465.228.732l.979-.206zm-.785-1.775a3.713 3.713 0 00-.329-.376l-.707.708c.087.086.167.178.242.276l.794-.608zm-.317-.363a4.338 4.338 0 00-.358-.343l-.651.758c.098.085.191.174.278.267l.731-.682zm-1.16-.903a6.116 6.116 0 00-.872-.4l-.348.937c.265.098.508.21.729.335l.491-.872zm-1.774-.672a9.654 9.654 0 00-.456-.096l-.183.984c.14.026.276.054.408.085l.231-.973zm-.448-.094c-.15-.03-.305-.06-.466-.087l-.167.986c.15.026.294.053.434.08l.199-.979zm-1.397-.22a25.116 25.116 0 00-.931-.092l-.08.997c.312.025.61.055.893.088l.118-.993zm-1.859-.153a39.389 39.389 0 00-.927-.036l-.028 1c.312.008.613.02.903.035l.052-.999zm-1.853-.053a54.045 54.045 0 00-.462-.002v1c.153 0 .304 0 .453.002l.009-1zm-.462-.002h-.461v1h.461v-1zm-1.383 0h-.921v1h.921v-1zm-1.843 0h-.46v1h.46v-1zm.04.5v-.465h-1v.465h1zm0-1.396v-.931h-1v.93h1zm0-1.862v-.931h-1v.93h1zm0-1.863v-.465h-1v.466h1zm-.5.035h.482v-1h-.482v1zm1.448 0h.966v-1h-.966v1zm1.932 0h.966v-1h-.966v1zm1.932 0h.965v-1h-.965v1zm1.931 0h.966v-1h-.966v1zm1.932 0h.966v-1h-.966v1zm1.932 0h.483v-1H258v1zm.983-.5v-.527h-1v.527h1zm0-1.582V10.92h-1v1.054h1zm0-2.109v-.527h-1v.527h1zm-.5-1.027h-.487v1h.487v-1zm-1.46 0h-.974v1h.974v-1zm-1.947 0h-.973v1h.973v-1zm-1.946 0h-.973v1h.973v-1zm-1.947 0h-.973v1h.973v-1zm-1.946 0h-.973v1h.973v-1zm-1.947 0h-.973v1h.973v-1zm-1.946 0h-.973v1h.973v-1zm-1.946 0h-.974v1h.974v-1zm-1.947 0h-.486v1h.486v-1zm8.596 20.444h-.399v1h.399v-1zm-1.197 0h-.798v1h.798v-1zm-1.596 0h-.399v1h.399v-1zm.101.5v-.535h-1v.535h1zm0-1.605v-1.07h-1v1.07h1zm0-2.141v-1.07h-1v1.07h1zm0-2.14v-.536h-1v.535h1zm-.5-.036h.408v-1h-.408v1zm1.225 0h.817v-1h-.817v1zm1.634 0h.409v-1h-.409v1zm.409 0c.137 0 .27.001.4.004l.018-1a22.718 22.718 0 00-.418-.004v1zm1.194.036c.284.02.543.046.777.079l.141-.99a11.46 11.46 0 00-.851-.087l-.067.998zm1.512.229c.125.035.235.074.329.113l.389-.92a3.805 3.805 0 00-.444-.155l-.274.962zm.329.113c.125.053.226.115.308.182l.633-.774a2.245 2.245 0 00-.552-.329l-.389.921zm.643.747c.025.113.04.242.04.389h1c0-.21-.021-.414-.064-.607l-.976.218zm.04.389v.466h1v-.466h-1zm0 1.396v.466h1v-.466h-1zm0 .466c0 .171-.016.327-.046.468l.978.206c.046-.215.068-.44.068-.674h-1zm-.442 1.232a1.838 1.838 0 01-.351.283l.533.846a2.84 2.84 0 00.541-.438l-.723-.691zm-.339.276a2.48 2.48 0 01-.312.154l.381.924c.156-.064.304-.137.44-.218l-.509-.86zm-1.028.367a7.222 7.222 0 01-.777.116l.099.996c.316-.032.611-.076.884-.134l-.206-.978zm-1.579.166a14.88 14.88 0 01-.406.005v1c.148 0 .292-.002.433-.006l-.027-1zm-9.488-19.939v-1h-1v1h1zm17.518 0h1v-1h-1v1zm0 4.218v1h1v-1h-1zm-11.59 0v-1h-1v1h1zm0 5.586h-1v1h1v-1zm9.158.418l-.2.98.009.002.008.001.183-.983zm3.116 1.52l-.732.682.012.013.012.012.708-.707zM240.965 34h-1v1h1v-1zm12.35-4.826l.509.86.012-.007.011-.007-.532-.846zm.038-5.396l.389-.921-.389.921zm-6.498-.418v-1h-1v1h1zm0 6.422h-1v1h1v-1zm-6.89-20.444v.514h2v-.514h-2zm0 1.541v1.028h2v-1.028h-2zm0 2.056v1.027h2v-1.027h-2zm0 2.055v1.027h2V14.99h-2zm0 2.055v1.027h2v-1.027h-2zm0 2.055v1.028h2V19.1h-2zm0 2.055v1.028h2v-1.028h-2zm0 2.055v1.028h2V23.21h-2zm0 2.055v1.028h2v-1.027h-2zm0 2.056v1.027h2v-1.027h-2zm0 2.055v1.027h2v-1.027h-2zm0 2.055v1.028h2V31.43h-2zm0 2.055V34h2v-.514h-2zm1 1.514h.467v-2h-.467v2zm1.402 0h.935v-2h-.935v2zm1.869 0h.935v-2h-.935v2zm1.87 0h.935v-2h-.935v2zm1.87 0h.934v-2h-.934v2zm1.869 0h.468v-2h-.468v2zm.468 0c.188 0 .375-.002.559-.005l-.034-2c-.172.004-.347.005-.525.005v2zm1.68-.044c.387-.021.763-.05 1.126-.087l-.201-1.99c-.331.034-.676.06-1.034.08l.109 1.997zm2.256-.232c.393-.063.77-.135 1.132-.22l-.452-1.948a14.31 14.31 0 01-.993.192l.313 1.976zm2.265-.536c.394-.13.767-.278 1.118-.444l-.853-1.809c-.272.128-.57.247-.894.354l.629 1.899zm2.197-1.058c.362-.248.691-.524.984-.83l-1.443-1.384a4.325 4.325 0 01-.671.564l1.13 1.65zm1.778-1.882a5.49 5.49 0 00.52-1.211l-1.918-.567a3.506 3.506 0 01-.331.774l1.729 1.004zm.754-2.473a7.62 7.62 0 00.026-.627h-2c0 .158-.007.31-.019.458l1.993.169zm.026-.627v-.485h-2v.485h2zm0-1.453v-.97h-2v.97h2zm0-1.939v-.484h-2v.485h2zm0-.484c0-.167-.005-.331-.015-.492l-1.996.117c.007.12.011.245.011.375h2zm-.146-1.498a5.366 5.366 0 00-.318-1.016l-1.837.79c.081.189.148.4.198.638l1.957-.412zm-.877-1.976a4.363 4.363 0 00-.372-.425l-1.415 1.414c.071.071.138.147.199.227l1.588-1.216zm-.348-.4a4.997 4.997 0 00-.398-.381l-1.303 1.517c.085.073.164.149.238.228l1.463-1.364zm-1.281-.997a6.637 6.637 0 00-.943-.434l-.696 1.875c.243.09.461.19.657.301l.982-1.742zm-1.904-.723a9.92 9.92 0 00-.48-.101l-.365 1.966c.132.025.26.052.383.08l.462-1.945zm-.463-.098a15.158 15.158 0 00-.482-.09l-.335 1.972c.145.025.284.05.418.078l.399-1.96zm-1.438-.226a22.6 22.6 0 00-.949-.094l-.161 1.993c.306.025.598.054.874.087l.236-1.986zm-1.892-.156a39.876 39.876 0 00-.939-.037l-.056 1.999c.308.009.605.02.892.035l.103-1.997zm-1.875-.054a54.955 54.955 0 00-.466-.002v2c.152 0 .302 0 .449.002l.017-2zm-.466-.002h-.461v2h.461v-2zm-1.383 0h-.921v2h.921v-2zm-1.843 0h-.46v2h.46v-2zm.54 1v-.465h-2v.465h2zm0-1.396v-.931h-2v.93h2zm0-1.862v-.931h-2v.93h2zm0-1.863v-.465h-2v.466h2zm-1 .535h.482v-2h-.482v2zm1.448 0h.966v-2h-.966v2zm1.932 0h.966v-2h-.966v2zm1.932 0h.965v-2h-.965v2zm1.931 0h.966v-2h-.966v2zm1.932 0h.966v-2h-.966v2zm1.932 0h.483v-2H258v2zm1.483-1v-.527h-2v.527h2zm0-1.582V10.92h-2v1.054h2zm0-2.109v-.527h-2v.527h2zm-1-1.527h-.487v2h.487v-2zm-1.46 0h-.974v2h.974v-2zm-1.947 0h-.973v2h.973v-2zm-1.946 0h-.973v2h.973v-2zm-1.947 0h-.973v2h.973v-2zm-1.946 0h-.973v2h.973v-2zm-1.947 0h-.973v2h.973v-2zm-1.946 0h-.973v2h.973v-2zm-1.946 0h-.974v2h.974v-2zm-1.947 0h-.486v2h.486v-2zm8.596 20.444h-.399v2h.399v-2zm-1.197 0h-.798v2h.798v-2zm-1.596 0h-.399v2h.399v-2zm.601 1v-.535h-2v.535h2zm0-1.605v-1.07h-2v1.07h2zm0-2.141v-1.07h-2v1.07h2zm0-2.14v-.536h-2v.535h2zm-1 .464h.408v-2h-.408v2zm1.225 0h.817v-2h-.817v2zm1.634 0h.409v-2h-.409v2zm.409 0c.134 0 .264.001.39.003l.037-2a23.803 23.803 0 00-.427-.003v2zm1.161.035c.274.018.52.044.739.075l.283-1.98c-.277-.04-.574-.07-.889-.09l-.133 1.995zm1.408.21c.109.032.198.063.271.094l.779-1.842a4.326 4.326 0 00-.502-.175l-.548 1.924zm.271.094a.763.763 0 01.187.108l1.265-1.549a2.739 2.739 0 00-.673-.401l-.779 1.842zm.35.396c.016.072.028.163.028.279h2c0-.242-.024-.483-.076-.717l-1.952.438zm.028.279v.466h2v-.466h-2zm0 1.396v.466h2v-.466h-2zm0 .466c0 .14-.014.26-.035.364l1.956.414c.054-.253.079-.514.079-.778h-2zm-.303.886c-.066.07-.15.139-.256.206l1.065 1.692a3.31 3.31 0 00.636-.515l-1.445-1.383zm-.233.192a1.93 1.93 0 01-.248.121l.763 1.85c.176-.073.345-.156.504-.25l-1.019-1.721zm-.876.308a6.798 6.798 0 01-.723.108l.198 1.99c.33-.033.643-.08.937-.141l-.412-1.957zm-1.49.155a14.61 14.61 0 01-.392.005v2c.152 0 .301-.002.447-.006l-.055-2zm31.23 5.337l-.077.494h.002l.075-.494zm-3.572-.912l.164-.472-.003-.001-.161.473zm-3.154-2.204l-.404.295.004.005.4-.3zm-.342-17.822l-.433-.25-.005.008.438.242zm2.128-2.28l-.268-.422-.004.002.272.42zm2.812-1.216l.141.48-.141-.48zm3.116-.608l.039.498h.003l-.042-.498zm5.852.038l-.059.497h.008l.007.001.044-.498zm2.888.532l.14-.48-.014-.004-.126.484zm3.002 1.292l.271-.42-.271.42zm1.976 2.128l-.432.252.002.004.43-.256zm-.266 17.708l-.402-.298-.004.006.406.292zm-2.964 2.242l-.186-.464.186.464zm-5.51-2.926l.045.498h.01l.009-.002-.064-.496zm1.786-.38l-.14-.48.14.48zm1.368-.874l-.397-.304-.003.004.4.3zm-.912-14.896l-.238.44.009.005.229-.445zm-8.74-.038l-.229-.445.229.445zm-.912 14.934l-.397.304.004.006.005.005.388-.315zm1.444.874l.14-.48-.005-.002-.135.482zm1.748.38l-.068.495.012.002.012.001.044-.498zm2.052 3.794c-.158 0-.314-.001-.469-.004l-.016 1c.161.003.322.004.485.004v-1zm-1.405-.033a25.165 25.165 0 01-.933-.063l-.086.996c.317.027.641.05.97.065l.049-.998zm-1.859-.163c-.156-.02-.309-.041-.461-.064l-.15.988c.159.025.32.047.483.068l.128-.992zm-.459-.064a16.056 16.056 0 01-.442-.075l-.18.984c.157.028.313.055.468.08l.154-.99zm-1.321-.258a19.875 19.875 0 01-.872-.226l-.272.963c.308.087.613.166.916.236l.228-.973zm-1.736-.488a22.683 22.683 0 01-.428-.144l-.328.944c.149.052.298.102.446.15l.31-.95zm-.431-.145a7.378 7.378 0 01-.43-.16l-.378.925c.158.065.32.125.486.181l.322-.946zm-1.245-.56a5.745 5.745 0 01-.741-.507l-.629.777c.27.219.56.417.869.596l.501-.865zm-1.387-1.124a5.324 5.324 0 01-.283-.347l-.8.6c.106.142.218.278.335.41l.748-.663zm-.28-.342a5.105 5.105 0 01-.252-.38l-.856.518c.093.155.194.305.301.452l.807-.59zm-.652-1.197a5.59 5.59 0 01-.256-.88l-.98.201c.074.36.175.705.302 1.037l.934-.358zm-.377-1.801a7.986 7.986 0 01-.014-.469h-1c0 .18.005.356.016.53l.998-.061zm-.014-.469v-.54h-1v.54h1zm0-1.619v-1.079h-1v1.08h1zm0-2.158v-1.08h-1v1.08h1zm0-2.159v-1.079h-1v1.08h1zm0-2.158v-1.08h-1v1.08h1zm0-2.158v-.54h-1v.54h1zm0-.54c0-.135.003-.268.01-.399l-.998-.052a8.402 8.402 0 00-.012.451h1zm.097-1.185c.045-.263.105-.518.181-.764l-.955-.294c-.089.288-.16.585-.212.89l.986.168zm.461-1.493c.055-.118.114-.234.177-.348l-.875-.484a6.85 6.85 0 00-.208.41l.906.422zm.172-.34c.063-.107.127-.212.193-.313l-.839-.545a9.24 9.24 0 00-.219.357l.865.502zm.624-.904c.156-.19.32-.368.493-.534l-.692-.722a7.119 7.119 0 00-.575.622l.774.634zm1.046-1c.097-.072.196-.14.297-.206l-.543-.84a6.862 6.862 0 00-.349.242l.595.804zm.293-.204c.1-.063.203-.124.309-.185l-.494-.87a8.87 8.87 0 00-.35.21l.535.845zm.956-.517c.214-.1.44-.195.677-.286l-.36-.933a12.15 12.15 0 00-.738.312l.421.907zm1.375-.532c.116-.037.235-.074.355-.11l-.283-.959a16.66 16.66 0 00-.379.117l.307.952zm.355-.11a21.3 21.3 0 01.373-.106l-.264-.964c-.13.035-.26.073-.392.111l.283.96zm1.123-.293c.256-.058.508-.108.754-.15l-.17-.986a16.11 16.11 0 00-.805.16l.221.976zm1.512-.26c.128-.014.254-.026.379-.036l-.079-.996c-.136.01-.273.023-.412.039l.112.994zm.382-.036c.227-.02.457-.036.69-.05l-.061-.999c-.241.015-.479.033-.714.053l.085.996zm2.075-.106c.229-.004.46-.006.695-.006v-1c-.241 0-.479.002-.713.007l.018 1zm.695-.006c.127 0 .252 0 .376.002l.01-1a39.274 39.274 0 00-.386-.002v1zm1.125.018c.259.008.508.02.747.034l.06-.998a27.776 27.776 0 00-.774-.036l-.033 1zm1.489.091c.125.012.248.026.367.04l.117-.994a18.194 18.194 0 00-.389-.041l-.095.995zm.382.041c.226.02.46.047.703.082l.142-.99c-.26-.037-.512-.066-.757-.088l-.088.996zm2.107.346c.227.052.46.11.698.172l.253-.968a23.686 23.686 0 00-.729-.179l-.222.975zm.685.168c.129.038.256.076.381.116l.302-.953a17.6 17.6 0 00-.403-.123l-.28.96zm1.129.376c.255.097.496.198.724.303l.419-.908c-.25-.115-.513-.225-.788-.33l-.355.935zm1.414.657c.114.065.223.132.328.2l.542-.841a8.578 8.578 0 00-.373-.227l-.497.868zm.328.2c.185.119.364.252.534.397l.648-.762a5.952 5.952 0 00-.64-.476l-.542.84zm1.443 1.386c.13.18.254.37.372.573l.864-.504a7.969 7.969 0 00-.427-.656l-.809.588zm.374.577c.068.114.131.23.19.351l.898-.439a5.898 5.898 0 00-.228-.424l-.86.512zm.484 1.099c.078.25.14.515.185.792l.987-.164a7.128 7.128 0 00-.216-.923l-.956.295zm.272 1.611c.006.136.01.275.01.416h1c0-.157-.004-.313-.012-.465l-.998.049zm.01.416v.54h1v-.54h-1zm0 1.619v1.079h1v-1.08h-1zm0 2.158v1.08h1v-1.08h-1zm0 2.159v1.079h1v-1.08h-1zm0 2.158v1.08h1v-1.08h-1zm0 2.158v.54h1v-.54h-1zm0 .54c0 .15-.005.295-.014.438l.998.065c.01-.165.016-.333.016-.503h-1zm-.132 1.298c-.061.286-.144.56-.248.821l.929.37a6.17 6.17 0 00.297-.98l-.978-.21zm-.631 1.584a5.42 5.42 0 01-.24.354l.802.596c.103-.138.199-.28.289-.425l-.851-.525zm-.245.36a5.555 5.555 0 01-.266.341l.764.645c.11-.13.215-.264.314-.402l-.812-.584zm-.872.955a5.927 5.927 0 01-.697.518l.537.843a6.9 6.9 0 00.814-.605l-.654-.756zm-1.466.939c-.131.062-.267.12-.406.176l.371.928c.157-.062.31-.129.459-.198l-.424-.906zm-.406.176c-.147.058-.295.115-.444.17l.345.939c.158-.058.315-.118.47-.18l-.371-.93zm-1.347.474c-.302.092-.609.177-.92.255l.242.97c.328-.082.651-.171.97-.269l-.292-.956zm-1.852.462c-.31.06-.624.114-.943.161l.145.99a22.2 22.2 0 00.99-.17l-.192-.981zm-1.894.279a24.34 24.34 0 01-.956.076l.058.998c.337-.02.67-.046.999-.08l-.101-.994zm-1.916.113c-.16.003-.32.004-.481.004v1c.167 0 .334-.002.5-.005l-.019-1zm-.405-4.214c-.182 0-.357-.001-.526-.004l-.014 1c.174.003.354.004.54.004v-1zm-1.57-.038c-.182-.01-.354-.022-.515-.036l-.087.996c.173.015.355.028.547.038l.055-.998zm-.491-.033a10.108 10.108 0 01-.421-.067l-.177.984c.156.028.31.053.463.073l.135-.99zm-1.259-.25a13.192 13.192 0 01-.416-.115l-.28.96c.15.044.299.085.447.123l.249-.969zm-.421-.117a3.304 3.304 0 01-.353-.119l-.376.927c.146.059.299.11.459.155l.27-.963zm-.958-.471a1.716 1.716 0 01-.233-.236l-.776.63c.11.136.233.26.369.373l.64-.767zm-.224-.225a1.752 1.752 0 01-.176-.28l-.893.448c.077.155.169.302.275.44l.794-.608zm-.369-.932a2.742 2.742 0 01-.022-.36h-1c0 .167.01.33.031.489l.991-.13zm-.022-.36v-.541h-1v.541h1zm0-1.625V24.53h-1v1.082h1zm0-2.166v-1.082h-1v1.082h1zm0-2.166v-1.082h-1v1.082h1zm0-2.166v-1.082h-1v1.082h1zm0-2.165v-.542h-1v.542h1zm0-.542c0-.117.005-.228.015-.334l-.996-.092a4.57 4.57 0 00-.019.426h1zm.145-.958c.07-.2.164-.376.282-.53l-.795-.606a2.895 2.895 0 00-.431.806l.944.33zm.719-.944a2.5 2.5 0 01.27-.161l-.457-.89a3.37 3.37 0 00-.382.229l.569.822zm.27-.161a3.82 3.82 0 01.454-.195l-.34-.94a4.914 4.914 0 00-.571.245l.457.89zm1.454-.459c.321-.06.674-.108 1.059-.142l-.089-.996a12.19 12.19 0 00-1.154.155l.184.983zm2.142-.201c.177-.005.359-.007.546-.007v-1c-.195 0-.385.002-.571.007l.025 1zm.546-.007c.187 0 .369.002.546.007l.026-1a21.75 21.75 0 00-.572-.007v1zm1.63.07c.385.036.737.086 1.057.15l.194-.982c-.358-.07-.744-.125-1.158-.164l-.093.996zm2.053.426c.166.063.315.131.449.204l.476-.88a4.793 4.793 0 00-.569-.258l-.356.934zm.458.209c.097.05.187.103.269.16l.566-.825a3.394 3.394 0 00-.378-.225l-.457.89zm.705.566c.118.152.213.324.283.52l.941-.34a2.852 2.852 0 00-.435-.795l-.789.615zm.415 1.13c.01.105.015.214.015.329h1c0-.144-.007-.286-.02-.423l-.995.095zm.015.329v.542h1v-.542h-1zm0 1.625v1.082h1v-1.082h-1zm0 2.166v1.082h1v-1.082h-1zm0 2.166v1.082h1v-1.082h-1zm0 2.166v1.082h1V24.53h-1zm0 2.166v.541h1v-.541h-1zm0 .541c0 .127-.008.247-.023.36l.992.129c.021-.159.031-.322.031-.489h-1zm-.216 1.012a1.746 1.746 0 01-.175.28l.794.608a2.81 2.81 0 00.275-.44l-.894-.448zm-.178.284a1.574 1.574 0 01-.212.23l.665.747c.128-.115.244-.24.347-.377l-.8-.6zm-.774.576a3.08 3.08 0 01-.334.118l.28.96c.155-.045.303-.098.444-.158l-.39-.92zm-.334.118c-.142.041-.284.08-.424.116l.246.969c.152-.039.305-.08.458-.125l-.28-.96zm-1.28.299a9.352 9.352 0 01-.431.065l.129.992c.157-.02.315-.045.473-.072l-.171-.985zm-.411.063c-.156.014-.324.026-.505.037l.056.998c.191-.01.371-.024.539-.04l-.09-.995zm-1.529.07a37.26 37.26 0 01-.516.004v1c.183 0 .36-.001.53-.004l-.014-1zm-4.392 4.456l-.154.988h.003l.151-.988zm-3.572-.912l.328-.945-.007-.002-.321.947zm-3.154-2.204l-.807.59.007.01.8-.6zm-.342-17.822l-.866-.501-.005.009-.004.008.875.484zm2.128-2.28l-.535-.845-.008.005.543.84zm2.812-1.216l.283.959-.283-.959zm3.116-.608l.078.997h.007l-.085-.997zm5.852.038l-.117.993.014.002.015.001.088-.996zm2.888.532l.28-.96-.013-.004-.014-.003-.253.967zm3.002 1.292l.542-.84-.542.84zm1.976 2.128l-.864.504.004.007.86-.511zm-.266 17.708l-.803-.597-.005.007-.005.007.813.583zm-2.964 2.242l-.372-.928.372.928zm-5.51-2.926l.09.996.02-.002.019-.002-.129-.992zm1.786-.38l-.28-.96.28.96zm1.368-.874l-.795-.608-.005.008.8.6zm-.912-14.896l-.476.88.01.005.009.005.457-.89zm-8.74-.038l-.457-.89.457.89zm-.912 14.934l-.795.607.009.012.01.012.776-.631zm1.444.874l.28-.96-.011-.003-.269.963zm1.748.38l-.135.99.024.004.024.002.087-.996zm2.052 3.294a30.5 30.5 0 01-.461-.004l-.031 2c.162.003.326.004.492.004v-2zm-1.381-.033a24.235 24.235 0 01-.913-.061l-.173 1.992c.324.028.653.05.989.067l.097-1.998zm-1.819-.159a19.52 19.52 0 01-.45-.063l-.301 1.978c.164.024.328.048.495.07l.256-1.985zm-.447-.062a17.262 17.262 0 01-.428-.073l-.36 1.968c.161.03.321.056.481.081l.307-1.976zm-1.283-.251c-.28-.066-.564-.139-.851-.22l-.542 1.925c.315.089.627.17.937.242l.456-1.947zm-1.695-.477a21.741 21.741 0 01-.419-.14l-.656 1.889c.152.053.304.104.455.153l.62-1.902zm-.426-.143a7.175 7.175 0 01-.401-.15l-.756 1.852c.168.068.339.132.514.192l.643-1.894zm-1.155-.518a5.316 5.316 0 01-.677-.464l-1.258 1.555c.292.235.603.448.933.64l1.002-1.731zM276 30.713a4.896 4.896 0 01-.257-.315l-1.6 1.2c.114.152.234.3.36.442L276 30.713zm-.25-.306a4.313 4.313 0 01-.228-.342l-1.712 1.034c.101.168.21.33.326.49l1.614-1.181zm-.589-1.08a5.001 5.001 0 01-.234-.803l-1.959.404c.08.385.188.757.326 1.116l1.867-.718zm-.345-1.653a6.956 6.956 0 01-.013-.438h-2c0 .19.005.377.017.561l1.996-.123zm-.013-.438v-.54h-2v.54h2zm0-1.619v-1.079h-2v1.08h2zm0-2.158v-1.08h-2v1.08h2zm0-2.159v-1.079h-2v1.08h2zm0-2.158v-1.08h-2v1.08h2zm0-2.158v-.54h-2v.54h2zm0-.54c0-.126.003-.25.009-.372l-1.997-.106a9.443 9.443 0 00-.012.478h2zm.09-1.1a5.53 5.53 0 01.166-.702l-1.911-.588a7.54 7.54 0 00-.227.952l1.972.337zm.422-1.367c.05-.107.104-.213.161-.317l-1.75-.968c-.08.145-.155.291-.224.44l1.813.845zm.151-.3c.058-.1.118-.198.179-.292l-1.677-1.089c-.08.123-.158.25-.233.379l1.731 1.002zm.578-.838a5.57 5.57 0 01.452-.49l-1.383-1.444a7.39 7.39 0 00-.616.666l1.547 1.268zm.957-.915c.088-.066.178-.128.271-.188l-1.086-1.68c-.128.083-.254.17-.376.26l1.191 1.608zm.263-.183a6.45 6.45 0 01.288-.173l-.988-1.739c-.127.072-.25.146-.37.222l1.07 1.69zm.899-.486c.203-.095.418-.186.645-.273l-.718-1.867c-.266.103-.523.211-.77.326l.843 1.814zm1.317-.51c.112-.036.227-.071.344-.106l-.567-1.918c-.132.039-.262.08-.39.12l.613 1.904zm.344-.106c.122-.036.243-.07.363-.103l-.528-1.93a21.31 21.31 0 00-.402.115l.567 1.918zm1.091-.285c.249-.057.492-.105.729-.146l-.34-1.971c-.273.047-.549.102-.83.166l.441 1.95zm1.458-.25c.122-.014.243-.026.362-.035l-.157-1.994c-.142.011-.284.025-.428.041l.223 1.988zm.369-.036c.223-.019.448-.035.678-.05l-.123-1.996c-.245.015-.487.033-.726.054l.171 1.992zm2.042-.104c.225-.004.453-.006.685-.006v-2c-.244 0-.485.002-.723.007l.038 2zm.685-.006c.125 0 .249 0 .371.002l.019-2a39.317 39.317 0 00-.39-.002v2zm1.109.017c.254.009.498.02.733.034l.121-1.996a28.28 28.28 0 00-.789-.037l-.065 2zm1.457.09c.122.012.241.024.357.038l.234-1.986c-.131-.016-.264-.03-.4-.043l-.191 1.991zm.386.041c.216.02.442.046.676.079l.284-1.98a14.565 14.565 0 00-.784-.091l-.176 1.992zm2.039.336c.222.05.45.106.683.167l.507-1.934a23.894 23.894 0 00-.745-.183l-.445 1.95zm.657.16c.126.037.249.074.369.112l.606-1.906a19.413 19.413 0 00-.415-.126l-.56 1.92zm1.091.363c.246.094.476.19.693.29l.837-1.816c-.261-.12-.534-.235-.819-.343l-.711 1.87zm1.344.624c.106.061.208.123.305.185l1.084-1.68a8.711 8.711 0 00-.396-.24l-.993 1.735zm.305.185c.167.108.327.227.481.359l1.296-1.524a6.457 6.457 0 00-.693-.515l-1.084 1.68zm1.309 1.261c.12.165.235.342.345.53l1.728-1.007a8.526 8.526 0 00-.454-.697l-1.619 1.174zm.349.538c.061.102.118.207.171.316l1.797-.878a6.462 6.462 0 00-.249-.46l-1.719 1.022zm.437.991c.07.229.127.47.169.726l1.973-.326a7.554 7.554 0 00-.231-.99l-1.911.59zm.249 1.489c.007.127.01.258.01.391h2c0-.165-.004-.329-.012-.49l-1.998.099zm.01.391v.54h2v-.54h-2zm0 1.619v1.079h2v-1.08h-2zm0 2.158v1.08h2v-1.08h-2zm0 2.159v1.079h2v-1.08h-2zm0 2.158v1.08h2v-1.08h-2zm0 2.158v.54h2v-.54h-2zm0 .54c0 .139-.005.274-.013.406l1.996.13c.011-.177.017-.356.017-.536h-2zm-.121 1.193a4.49 4.49 0 01-.224.742l1.859.738a6.66 6.66 0 00.321-1.06l-1.956-.42zm-.567 1.426a4.28 4.28 0 01-.217.318l1.605 1.194a6.44 6.44 0 00.313-.461l-1.701-1.051zm-.227.332c-.076.107-.157.21-.241.31l1.529 1.29c.118-.14.23-.285.337-.434l-1.625-1.166zm-.793.868a5.41 5.41 0 01-.638.474l1.075 1.687c.309-.197.6-.414.872-.65l-1.309-1.511zm-1.35.864a7.19 7.19 0 01-.38.165l.743 1.856a9.2 9.2 0 00.485-.21l-.848-1.81zm-.38.165c-.142.056-.286.112-.431.165l.69 1.877c.163-.06.324-.121.484-.185l-.743-1.858zm-1.308.46c-.293.09-.591.172-.894.247l.484 1.941c.336-.084.668-.175.995-.276l-.585-1.912zm-1.801.45c-.302.058-.609.11-.92.156l.291 1.98c.342-.051.679-.109 1.013-.174l-.384-1.963zm-1.848.271c-.308.031-.619.056-.935.075l.116 1.996c.344-.02.684-.047 1.02-.081l-.201-1.99zm-1.876.11a25.34 25.34 0 01-.471.005v2c.17 0 .34-.002.509-.005l-.038-2zm-.395-4.213c-.179 0-.352-.001-.518-.004l-.029 2c.176.003.359.004.547.004v-2zm-1.542-.037a16.41 16.41 0 01-.5-.035l-.173 1.992c.178.016.366.029.563.04l.11-1.997zm-.451-.03a9.742 9.742 0 01-.401-.063L282.798 31c.162.03.324.055.484.077l.27-1.982zm-1.203-.24c-.131-.033-.265-.07-.4-.109l-.56 1.92c.155.045.309.088.463.127l.497-1.937zm-.411-.112a2.862 2.862 0 01-.3-.101l-.751 1.853c.165.067.336.125.512.174l.539-1.926zm-.771-.374a1.163 1.163 0 01-.166-.168l-1.552 1.262c.131.16.277.308.436.441l1.282-1.535zm-.148-.145a1.325 1.325 0 01-.126-.2l-1.787.896c.092.183.2.357.324.52l1.589-1.216zm-.27-.693a2.246 2.246 0 01-.018-.295h-2c0 .187.011.372.035.554l1.983-.259zm-.018-.295v-.541h-2v.541h2zm0-1.625V24.53h-2v1.082h2zm0-2.166v-1.082h-2v1.082h2zm0-2.166v-1.082h-2v1.082h2zm0-2.166v-1.082h-2v1.082h2zm0-2.165v-.542h-2v.542h2zm0-.542c0-.102.004-.198.013-.288l-1.992-.184a5.252 5.252 0 00-.021.472h2zm.117-.793c.054-.153.124-.282.208-.393l-1.591-1.212a3.393 3.393 0 00-.505.945l1.888.66zm.532-.698a1.86 1.86 0 01.214-.127l-.914-1.78a3.86 3.86 0 00-.439.263l1.139 1.644zm.214-.127c.114-.06.245-.116.395-.17l-.68-1.881c-.22.08-.431.17-.629.271l.914 1.78zm1.317-.412c.303-.057.64-.103 1.011-.136l-.177-1.992c-.426.038-.827.091-1.202.162l.368 1.966zm2.062-.194c.173-.004.351-.006.534-.006v-2c-.199 0-.393.002-.583.007l.049 2zm.534-.006c.183 0 .361.002.533.007l.053-2a22.438 22.438 0 00-.586-.007v2zm1.583.068a9.69 9.69 0 011.007.142l.388-1.962c-.377-.075-.78-.131-1.208-.172l-.187 1.992zm1.922.395c.147.057.277.116.389.177l.951-1.76a5.27 5.27 0 00-.628-.286l-.712 1.87zm.408.187c.079.04.15.083.214.126l1.132-1.648a3.922 3.922 0 00-.432-.258l-.914 1.78zm.538.428c.085.108.154.234.208.381l1.882-.676a3.394 3.394 0 00-.511-.934l-1.579 1.229zm.312.871c.008.088.013.181.013.281h2c0-.16-.007-.316-.022-.471l-1.991.19zm.013.281v.542h2v-.542h-2zm0 1.625v1.082h2v-1.082h-2zm0 2.166v1.082h2v-1.082h-2zm0 2.166v1.082h2v-1.082h-2zm0 2.166v1.082h2V24.53h-2zm0 2.166v.541h2v-.541h-2zm0 .541c0 .107-.007.205-.018.295l1.983.259c.023-.182.035-.367.035-.554h-2zm-.163.787a1.185 1.185 0 01-.126.201l1.589 1.215c.125-.162.233-.335.325-.518l-1.788-.898zm-.131.209a1.027 1.027 0 01-.145.157l1.33 1.493c.153-.136.292-.286.415-.45l-1.6-1.2zm-.57.416a2.502 2.502 0 01-.278.098l.56 1.92c.172-.05.339-.109.5-.177l-.782-1.841zm-.278.098c-.137.04-.272.077-.407.111l.492 1.939c.158-.04.316-.084.475-.13l-.56-1.92zm-1.225.286a9.882 9.882 0 01-.411.062l.259 1.984c.164-.022.328-.047.493-.075l-.341-1.971zm-.372.058c-.149.014-.311.026-.487.035l.112 1.997c.196-.01.381-.024.556-.04l-.181-1.992zm-1.49.069c-.163.002-.333.003-.509.003v2c.185 0 .364-.001.537-.004l-.028-2zm25.807-19.821v-.5h-.5v.5h.5zm15.58.494l-.115.487h.002l.113-.487zm3.078 1.748l-.398.302.005.007.005.006.388-.315zm-.076 11.894l-.394-.307-.006.007.4.3zm-3.306 1.938l-.121-.485h-.002l.123.485zm-9.348.57v-.5h-.5v.5h.5zm0 8.018v.5h.5V34h-.5zm-5.928 0h-.5v.5h.5V34zm12.958-12.616l.245.436.006-.003.007-.004-.258-.429zm.038-7.448l-.199.459.007.003.192-.462zm-7.068-.38v-.5h-.5v.5h.5zm0 8.36h-.5v.5h.5v-.5zm-6.428-12.578v.514h1v-.514h-1zm0 1.541v1.028h1v-1.028h-1zm0 2.056v1.027h1v-1.027h-1zm0 2.055v1.027h1V14.99h-1zm0 2.055v1.027h1v-1.027h-1zm0 2.055v1.028h1V19.1h-1zm0 2.055v1.028h1v-1.028h-1zm0 2.055v1.028h1V23.21h-1zm0 2.055v1.028h1v-1.027h-1zm0 2.056v1.027h1v-1.027h-1zm0 2.055v1.027h1v-1.027h-1zm0 2.055v1.028h1V31.43h-1zm0 2.055V34h1v-.514h-1zm.5 1.014h.494v-1h-.494v1zm1.482 0h.988v-1h-.988v1zm1.976 0h.988v-1h-.988v1zm1.976 0h.494v-1h-.494v1zm.994-.5v-.501h-1V34h1zm0-1.503v-1.003h-1v1.003h1zm0-2.005V29.49h-1v1.002h1zm0-2.004v-1.003h-1v1.003h1zm0-2.005v-.501h-1v.501h1zm-.5-.001h.409v-1h-.409v1zm1.226 0h.817v-1h-.817v1zm1.634 0h.408v-1h-.408v1zm.408 0c.174 0 .346 0 .516-.003l-.011-1c-.166.002-.334.003-.505.003v1zm1.548-.025c.356-.012.7-.029 1.033-.05l-.063-.997c-.322.02-.657.036-1.004.047l.034 1zm2.068-.132a22.27 22.27 0 001.035-.126l-.144-.99c-.313.046-.642.086-.99.12l.099.996zm2.071-.309c.178-.037.35-.077.516-.12l-.246-.969a11.48 11.48 0 01-.477.11l.207.98zm.515-.119c.169-.042.334-.088.495-.137l-.292-.957a8.668 8.668 0 01-.446.124l.243.97zm1.469-.5c.335-.15.645-.32.929-.511l-.558-.83c-.233.156-.493.3-.781.429l.41.912zm1.76-1.205c.127-.133.246-.272.355-.418l-.8-.6a3.435 3.435 0 01-.277.326l.722.692zm.35-.411c.114-.147.22-.302.317-.464l-.857-.514a3.65 3.65 0 01-.249.364l.789.614zm.781-1.47c.113-.33.2-.681.263-1.052l-.985-.168a5.729 5.729 0 01-.225.895l.947.324zm.376-2.11c.008-.172.012-.348.012-.527h-1c0 .164-.004.323-.011.478l.999.049zm.012-.527v-.584h-1v.584h1zm0-1.753v-1.168h-1v1.168h1zm0-2.337V15h-1v.584h1zm0-.584c0-.163-.004-.322-.011-.479l-.999.05c.007.139.01.282.01.429h1zm-.116-1.442a5.968 5.968 0 00-.248-.958l-.943.334c.086.243.155.508.206.797l.985-.173zm-.684-1.873a4.167 4.167 0 00-.3-.42l-.776.63c.081.1.157.206.227.319l.849-.53zm-.289-.407a4.168 4.168 0 00-.335-.389l-.716.698c.092.095.176.193.254.295l.797-.604zm-1.119-1.028a5.78 5.78 0 00-.872-.463l-.395.918c.266.115.506.243.721.383l.546-.838zm-1.783-.786a9.369 9.369 0 00-.462-.119l-.226.974c.142.033.28.069.413.107l.275-.962zm-.46-.119a12.713 12.713 0 00-.485-.104l-.192.981c.155.03.304.063.447.097l.23-.974zm-1.458-.263a22.53 22.53 0 00-.971-.109l-.09.996c.326.03.635.065.928.104l.133-.991zm-1.94-.18a36.542 36.542 0 00-.968-.042l-.031 1c.326.01.639.023.941.04l.058-.998zm-1.934-.062l-.483-.002v1c.16 0 .318 0 .473.002l.01-1zm-.483-.002h-.494v1h.494v-1zm-1.482 0h-.988v1h.988v-1zm-1.976 0h-.988v1h.988v-1zm-1.976 0h-.988v1h.988v-1zm-1.976 0h-.988v1h.988v-1zm-1.976 0h-.494v1h.494v-1zm9.196 12.578h-.47v1h.47v-1zm-1.41 0h-.941v1h.941v-1zm-1.881 0h-.471v1h.471v-1zm.029.5v-.523h-1v.523h1zm0-1.567v-1.046h-1v1.046h1zm0-2.09v-1.046h-1v1.046h1zm0-2.09v-1.046h-1v1.046h1zm0-2.09v-.523h-1v.523h1zm-.5-.023h.461v-1h-.461v1zm1.383 0h.921v-1h-.921v1zm1.843 0h.46v-1h-.46v1zm.46 0c.145 0 .285.001.421.003l.014-1a30.688 30.688 0 00-.435-.003v1zm1.257.03c.304.015.577.037.821.066l.115-.994a14.125 14.125 0 00-.884-.071l-.052.998zm1.596.2c.137.035.246.072.33.109l.399-.918a3.216 3.216 0 00-.481-.16l-.248.97zm.337.112a.962.962 0 01.275.168l.666-.746a1.98 1.98 0 00-.556-.345l-.385.923zm.57.74c.022.114.034.245.034.394h1c0-.203-.016-.397-.052-.582l-.982.188zm.034.394v.494h1v-.494h-1zm0 1.482v.988h1v-.988h-1zm0 1.976v.494h1v-.494h-1zm0 .494c0 .171-.013.326-.039.465l.984.18a3.64 3.64 0 00.055-.645h-1zm-.387 1.213a1.42 1.42 0 01-.32.258l.515.858c.204-.123.386-.27.543-.442l-.738-.674zm-.307.25a2.143 2.143 0 01-.308.14l.345.938c.161-.06.313-.127.452-.205l-.489-.872zm-1.031.326a8.457 8.457 0 01-.782.098l.082.997c.315-.026.607-.063.875-.11l-.175-.985zm-1.586.139c-.132.003-.267.004-.407.004v1c.147 0 .29-.002.429-.005l-.022-1zM311.861 9.338v-1h-1v1h1zm15.58.494l-.23.973.004.001.226-.974zm3.078 1.748l-.797.604.01.013.011.014.776-.631zm-.076 11.894l-.789-.614-.005.007-.006.007.8.6zm-3.306 1.938l-.242-.97h-.004l.246.97zm-9.348.57v-1h-1v1h1zm0 8.018v1h1v-1h-1zm-5.928 0h-1v1h1v-1zm12.958-12.616l.489.872.013-.007.013-.008-.515-.857zm.038-7.448l-.398.917.007.003.007.003.384-.923zm-7.068-.38v-1h-1v1h1zm0 8.36h-1v1h1v-1zm-6.928-12.578v.514h2v-.514h-2zm0 1.541v1.028h2v-1.028h-2zm0 2.056v1.027h2v-1.027h-2zm0 2.055v1.027h2V14.99h-2zm0 2.055v1.027h2v-1.027h-2zm0 2.055v1.028h2V19.1h-2zm0 2.055v1.028h2v-1.028h-2zm0 2.055v1.028h2V23.21h-2zm0 2.055v1.028h2v-1.027h-2zm0 2.056v1.027h2v-1.027h-2zm0 2.055v1.027h2v-1.027h-2zm0 2.055v1.028h2V31.43h-2zm0 2.055V34h2v-.514h-2zm1 1.514h.494v-2h-.494v2zm1.482 0h.988v-2h-.988v2zm1.976 0h.988v-2h-.988v2zm1.976 0h.494v-2h-.494v2zm1.494-1v-.501h-2V34h2zm0-1.503v-1.003h-2v1.003h2zm0-2.005V29.49h-2v1.002h2zm0-2.004v-1.003h-2v1.003h2zm0-2.005v-.501h-2v.501h2zm-1 .499h.409v-2h-.409v2zm1.226 0h.817v-2h-.817v2zm1.634 0h.408v-2h-.408v2zm.408 0c.176 0 .35 0 .521-.003l-.021-2c-.164.002-.331.003-.5.003v2zm1.564-.025c.361-.012.71-.03 1.048-.05l-.125-1.997c-.317.02-.647.036-.99.048l.067 1.999zm2.101-.135a23.1 23.1 0 001.059-.128l-.289-1.979c-.304.044-.627.084-.967.117l.197 1.99zm2.125-.316c.184-.04.363-.08.537-.125l-.493-1.938a11.74 11.74 0 01-.457.106l.413 1.957zm.533-.124c.177-.044.351-.092.52-.144l-.584-1.913c-.135.041-.275.08-.421.117l.485 1.94zm1.554-.53a6.81 6.81 0 001.001-.551l-1.114-1.66a4.81 4.81 0 01-.708.388l.821 1.824zm1.915-1.314a4.97 4.97 0 00.394-.464l-1.6-1.2c-.072.097-.151.19-.238.28l1.444 1.384zm.384-.45c.127-.164.244-.335.351-.514l-1.715-1.028a3.254 3.254 0 01-.215.314l1.579 1.228zm.859-1.616a7.27 7.27 0 00.283-1.13l-1.971-.335a5.18 5.18 0 01-.205.817l1.893.648zm.402-2.247c.009-.18.013-.364.013-.551h-2c0 .156-.003.307-.01.454l1.997.097zm.013-.551v-.584h-2v.584h2zm0-1.753v-1.168h-2v1.168h2zm0-2.337V15h-2v.584h2zm0-.584c0-.17-.004-.338-.012-.503l-1.997.099c.006.13.009.265.009.404h2zm-.124-1.528a6.446 6.446 0 00-.268-1.038l-1.886.666c.076.215.138.453.184.717l1.97-.345zm-.752-2.052a4.447 4.447 0 00-.336-.47l-1.552 1.26c.068.084.131.173.191.268l1.697-1.058zm-.315-.444a4.59 4.59 0 00-.375-.436l-1.432 1.397c.078.08.149.162.213.247l1.594-1.208zm-1.244-1.145a6.26 6.26 0 00-.947-.503l-.791 1.836c.243.105.457.22.646.343l1.092-1.676zm-1.918-.847a9.693 9.693 0 00-.487-.126l-.452 1.948c.134.031.264.065.388.1l.551-1.922zm-.483-.125a13.298 13.298 0 00-.504-.109l-.384 1.963c.149.03.292.06.428.092l.46-1.946zm-1.506-.273a21.95 21.95 0 00-.992-.11l-.181 1.991c.319.03.621.063.906.101l.267-1.982zm-1.978-.183a37.115 37.115 0 00-.981-.043l-.062 1.999c.321.01.63.023.928.04l.115-1.996zm-1.958-.063a51.593 51.593 0 00-.488-.002v2c.159 0 .315 0 .469.002l.019-2zm-.488-.002h-.494v2h.494v-2zm-1.482 0h-.988v2h.988v-2zm-1.976 0h-.988v2h.988v-2zm-1.976 0h-.988v2h.988v-2zm-1.976 0h-.988v2h.988v-2zm-1.976 0h-.494v2h.494v-2zm9.196 12.578h-.47v2h.47v-2zm-1.41 0h-.941v2h.941v-2zm-1.881 0h-.471v2h.471v-2zm.529 1v-.523h-2v.523h2zm0-1.567v-1.046h-2v1.046h2zm0-2.09v-1.046h-2v1.046h2zm0-2.09v-1.046h-2v1.046h2zm0-2.09v-.523h-2v.523h2zm-1 .477h.461v-2h-.461v2zm1.383 0h.921v-2h-.921v2zm1.843 0h.46v-2h-.46v2zm.46 0c.143 0 .281 0 .414.003l.028-2a31.697 31.697 0 00-.442-.003v2zm1.23.029c.297.015.559.037.79.063l.23-1.986c-.28-.033-.586-.057-.915-.075l-.105 1.998zm1.499.185c.119.03.201.06.255.083l.797-1.834a3.732 3.732 0 00-.556-.186l-.496 1.938zm.269.09a.482.482 0 01.135.08l1.33-1.494a2.464 2.464 0 00-.696-.433l-.769 1.846zm.271.372c.015.079.025.178.025.3h2c0-.23-.018-.456-.06-.676l-1.965.376zm.025.3v.494h2v-.494h-2zm0 1.482v.988h2v-.988h-2zm0 1.976v.494h2v-.494h-2zm0 .494c0 .145-.011.27-.031.376l1.968.359c.043-.239.063-.485.063-.735h-2zm-.257.876a.882.882 0 01-.207.166l1.029 1.715c.243-.146.464-.323.656-.533l-1.478-1.348zm-.181.152a1.68 1.68 0 01-.236.105l.689 1.878c.183-.067.359-.146.524-.239l-.977-1.744zm-.875.269c-.214.038-.459.07-.735.092l.164 1.993c.328-.027.635-.065.922-.116l-.351-1.97zm-1.51.13c-.127.004-.259.005-.395.005v2c.15 0 .297-.002.44-.005l-.045-2z" fill="#77C2F9" fill-opacity=".4"/></svg>