<svg width="262" height="28" fill="none" xmlns="http://www.w3.org/2000/svg"><path d="M6.6 10.86h.5v-.5h-.5v.5zm-6 0H.1v.5h.5v-.5zm0-3.33v-.5H.1v.5h.5zm16.65 0h.5v-.5h-.5v.5zm0 3.33v.5h.5v-.5h-.5zm-5.97 0v-.5h-.5v.5h.5zm0 16.14v.5h.5V27h-.5zM6.6 27h-.5v.5h.5V27zm0-16.64h-.5v1h.5v-1zm-1.5 0h-1v1h1v-1zm-2 0h-1v1h1v-1zm-2 0H.6v1h.5v-1zm0 .5v-.416h-1v.416h1zm0-1.249V8.78h-1v.832h1zm0-1.665V7.53h-1v.416h1zm-.5.084h.52v-1H.6v1zm1.56 0h1.042v-1H2.16v1zm2.082 0h1.04v-1h-1.04v1zm2.081 0h1.041v-1h-1.04v1zm2.082 0h1.04v-1h-1.04v1zm2.08 0h1.042v-1h-1.041v1zm2.082 0h1.04v-1h-1.04v1zm2.081 0h1.041v-1h-1.04v1zm2.082 0h.52v-1h-.52v1zm.02-.5v.416h1V7.53h-1zm0 1.249v.832h1V8.78h-1zm0 1.665v.416h1v-.416h-1zm.5-.084h-.497v1h.497v-1zm-1.492 0h-.995v1h.995v-1zm-1.99 0h-.995v1h.995v-1zm-1.99 0h-.498v1h.498v-1zm-.998.5v.504h1v-.504h-1zm0 1.513v1.009h1v-1.009h-1zm0 2.018v1.008h1v-1.008h-1zm0 2.017v1.009h1v-1.009h-1zm0 2.018v1.008h1v-1.008h-1zm0 2.017v1.009h1v-1.009h-1zm0 2.018v1.008h1v-1.008h-1zm0 2.017v1.009h1v-1.009h-1zm0 2.018V27h1v-.504h-1zm.5.004h-.585v1h.585v-1zm-1.755 0h-1.17v1h1.17v-1zm-2.34 0H6.6v1h.585v-1zM7.1 27v-.504h-1V27h1zm0-1.513v-1.009h-1v1.009h1zm0-2.018v-1.008h-1v1.008h1zm0-2.017v-1.009h-1v1.009h1zm0-2.018v-1.008h-1v1.008h1zm0-2.017v-1.009h-1v1.009h1zm0-2.018v-1.008h-1v1.008h1zm0-2.017v-1.009h-1v1.009h1zm0-2.018v-.504h-1v.504h1zm-.5-.504h1v-1h-1v1zm-6 0h-1v1h1v-1zm0-3.33v-1h-1v1h1zm16.65 0h1v-1h-1v1zm0 3.33v1h1v-1h-1zm-5.97 0v-1h-1v1h1zm0 16.14v1h1v-1h-1zM6.6 27h-1v1h1v-1zm0-17.14h-.5v2h.5v-2zm-1.5 0h-1v2h1v-2zm-2 0h-1v2h1v-2zm-2 0H.6v2h.5v-2zm.5 1v-.416h-2v.416h2zm0-1.249V8.78h-2v.832h2zm0-1.665V7.53h-2v.416h2zm-1 .584h.52v-2H.6v2zm1.56 0h1.042v-2H2.16v2zm2.082 0h1.04v-2h-1.04v2zm2.081 0h1.041v-2h-1.04v2zm2.082 0h1.04v-2h-1.04v2zm2.08 0h1.042v-2h-1.041v2zm2.082 0h1.04v-2h-1.04v2zm2.081 0h1.041v-2h-1.04v2zm2.082 0h.52v-2h-.52v2zm-.48-1v.416h2V7.53h-2zm0 1.249v.832h2V8.78h-2zm0 1.665v.416h2v-.416h-2zm1-.584h-.497v2h.497v-2zm-1.492 0h-.995v2h.995v-2zm-1.99 0h-.995v2h.995v-2zm-1.99 0h-.498v2h.498v-2zm-1.498 1v.504h2v-.504h-2zm0 1.513v1.009h2v-1.009h-2zm0 2.018v1.008h2v-1.008h-2zm0 2.017v1.009h2v-1.009h-2zm0 2.018v1.008h2v-1.008h-2zm0 2.017v1.009h2v-1.009h-2zm0 2.018v1.008h2v-1.008h-2zm0 2.017v1.009h2v-1.009h-2zm0 2.018V27h2v-.504h-2zm1-.496h-.585v2h.585v-2zm-1.755 0h-1.17v2h1.17v-2zm-2.34 0H6.6v2h.585v-2zm.415 1v-.504h-2V27h2zm0-1.513v-1.009h-2v1.009h2zm0-2.018v-1.008h-2v1.008h2zm0-2.017v-1.009h-2v1.009h2zm0-2.018v-1.008h-2v1.008h2zm0-2.017v-1.009h-2v1.009h2zm0-2.018v-1.008h-2v1.008h2zm0-2.017v-1.009h-2v1.009h2zm0-2.018v-.504h-2v.504h2zM27.742 7.53v-.5h-.5v.5h.5zm12.18.42l-.135.482.011.003.124-.485zm2.16 1.29l-.41.287.005.006.405-.293zm-.03 6.39l-.369-.338-.008.009.377.329zm-1.5.99l-.148-.478-.352.11v.368h.5zm0 .15h-.5v.45l.447.047.053-.497zm2.07.99l-.342.365.006.006.006.005.33-.376zm-.93 8.25l-.232-.443.232.443zm-13.95.99h-.5v.5h.5V27zm9.54-11.73l-.158-.474.158.474zm.72-.57l-.447-.224-.004.007-.003.008.454.209zm.03-3.18l-.447.224.004.008.004.007.439-.239zm-.75-.51l-.134.482.006.001.128-.483zm-4.86-.15v-.5h-.5v.5h.5zm0 4.59h-.5v.5h.5v-.5zm5.76 7.83l-.238-.44.238.44zm.15-4.35l-.32.384.01.008.31-.392zm-5.91-.45v-.5h-.5v.5h.5zm0 5.19h-.5v.5h.5v-.5zm-5.18-16.14v.487h1V7.53h-1zm0 1.46v.974h1V8.99h-1zm0 1.947v.974h1v-.974h-1zm0 1.947v.974h1v-.974h-1zm0 1.947v.974h1v-.974h-1zm0 1.947v.974h1v-.974h-1zm0 1.947v.974h1v-.974h-1zm0 1.947v.974h1v-.974h-1zm0 1.947v.974h1v-.974h-1zm0 1.947v.974h1v-.974h-1zm0 1.947V27h1v-.487h-1zm.5.987h.506v-1h-.506v1zm1.518 0h1.013v-1h-1.012v1zm2.025 0h1.013v-1h-1.013v1zm2.025 0h1.013v-1H33.31v1zm2.026 0h.506v-1h-.506v1zm.506 0c.172 0 .34-.001.507-.004l-.017-1c-.16.003-.324.004-.49.004v1zm1.523-.04c.354-.02.694-.047 1.02-.081l-.106-.995c-.307.033-.63.059-.969.078l.055.998zm2.04-.22c.36-.063.7-.136 1.018-.221l-.257-.966c-.287.076-.597.143-.93.2l.169.986zm2.026-.558a6 6 0 00.493-.23l-.464-.885a5.02 5.02 0 01-.411.191l.382.924zm.493-.23c.172-.09.336-.188.49-.296l-.573-.82c-.117.082-.244.16-.381.231l.464.886zm1.337-1.1a3.74 3.74 0 00.556-1.031l-.943-.335a2.74 2.74 0 01-.407.757l.794.608zm.795-2.146a5.92 5.92 0 00.026-.556h-1c0 .16-.007.315-.021.462l.995.094zm.026-.556v-.75h-1v.75h1zm0-2.25v-.75h-1v.75h1zm0-.75a2.68 2.68 0 00-.083-.666l-.969.248c.034.134.052.273.052.418h1zm-.693-1.822a4.037 4.037 0 00-.438-.444l-.659.752c.127.111.237.223.33.335l.767-.643zm-.426-.433a4.77 4.77 0 00-.504-.413l-.578.817c.135.095.268.204.4.326l.682-.73zm-1.7-.994a3.827 3.827 0 00-.659-.128l-.105.994c.167.018.33.05.487.095l.277-.961zm-.211.369v-.037h-1v.037h1zm0-.113v-.037h-1v.037h1zm-.352.44a3.71 3.71 0 00.49-.19l-.428-.904c-.115.055-.234.1-.358.14l.296.954zm1.363-.77c.128-.113.25-.236.365-.368l-.752-.658c-.09.101-.181.194-.276.278l.663.748zm.357-.36a3.36 3.36 0 00.31-.386l-.824-.567a2.557 2.557 0 01-.223.278l.737.676zm.733-1.335c.04-.175.059-.352.059-.532h-1c0 .107-.012.212-.035.315l.976.217zm.059-.532v-.6h-1v.6h1zm0-1.8v-.6h-1v.6h1zm0-.6c0-.24-.01-.47-.03-.69l-.997.092c.018.187.027.386.027.598h1zm-.357-2.089a3.26 3.26 0 00-.368-.664l-.81.586c.097.134.182.287.255.462l.923-.384zm-.364-.658a3.007 3.007 0 00-.518-.566l-.648.762c.138.117.253.243.347.378l.82-.574zM40.71 7.672a6.478 6.478 0 00-.665-.207l-.247.97c.203.051.39.11.562.174l.35-.937zm-.653-.203a8.17 8.17 0 00-.56-.135l-.2.98c.175.036.339.075.49.117l.27-.962zm-1.672-.307a19.605 19.605 0 00-1.105-.09l-.056.998c.377.021.726.05 1.05.086l.11-.994zm-2.205-.128a35.005 35.005 0 00-.548-.004v1c.182 0 .36.001.532.004l.016-1zm-.548-.004h-.493v1h.493v-1zm-1.48 0h-.986v1h.986v-1zm-1.972 0h-.986v1h.986v-1zm-1.973 0h-.986v1h.986v-1zm-1.972 0h-.493v1h.493v-1zm7.397 7.92h-.401v1h.4v-1zm-1.204 0h-.802v1h.802v-1zm-1.605 0h-.401v1h.401v-1zm.099.5v-.574h-1v.574h1zm0-1.721V12.58h-1v1.148h1zm0-2.295v-.574h-1v.574h1zm-.5-.074h.39v-1h-.39v1zm1.17 0h.78v-1h-.78v1zm1.56 0h.39v-1h-.39v1zm.39 0c.15 0 .291.002.424.005l.027-1a16.988 16.988 0 00-.451-.005v1zm1.245.063c.152.02.27.044.361.069l.268-.964a3.701 3.701 0 00-.498-.097l-.131.992zm.367.07c.063.017.118.035.165.054l.37-.93a2.424 2.424 0 00-.28-.09l-.255.966zm.384.187a.252.252 0 01.047.064l.894-.448a1.251 1.251 0 00-.225-.314l-.716.698zm.055.08a.608.608 0 01.052.137l.964-.268a1.645 1.645 0 00-.138-.348l-.878.478zm.112.548c.005.071.007.149.007.232h1c0-.1-.003-.197-.008-.29l-.998.058zm.007.232v.24h1v-.24h-1zm0 .72v.24h1v-.24h-1zm0 .24a4.5 4.5 0 01-.008.276l.998.062c.007-.109.01-.221.01-.338h-1zm-.084.78c-.023.08-.048.145-.073.196l.894.448c.059-.118.106-.245.143-.377l-.964-.268zm-.08.21a.384.384 0 01-.055.087l.765.643c.08-.094.146-.198.198-.31l-.908-.42zm-.267.242a1.272 1.272 0 01-.157.064l.316.948c.098-.032.191-.07.28-.114l-.44-.898zm-.157.064a2.242 2.242 0 01-.33.078l.167.986a3.23 3.23 0 00.479-.116l-.316-.948zm-1.093.147a11.34 11.34 0 01-.4.007v1c.152 0 .297-.002.435-.007l-.035-1zm-.28 8.227h-.415v1h.416v-1zm-1.248 0h-.833v1h.833v-1zm-1.665 0h-.416v1h.416v-1zm.084.5v-.433h-1v.433h1zm0-1.298v-.864h-1v.864h1zm0-1.73v-.864h-1v.864h1zm0-1.73v-.432h-1v.433h1zm-.5.068h.495v-1h-.495v1zm1.485 0h.99v-1h-.99v1zm1.98 0h.495v-1h-.495v1zm.495 0c.17 0 .328.005.474.015l.07-.997a7.824 7.824 0 00-.544-.018v1zm1.333.174c.138.05.233.107.297.16l.64-.768a1.992 1.992 0 00-.59-.33l-.347.938zm.307.168a.765.765 0 01.17.19l.842-.54a1.761 1.761 0 00-.392-.434l-.62.784zm.359.778c.014.109.02.228.02.36h1c0-.168-.008-.33-.028-.484l-.992.124zm.02.36v.39h1v-.39h-1zm0 1.17v.39h1v-.39h-1zm0 .39c0 .103-.01.194-.027.272l.977.217c.035-.158.05-.321.05-.489h-1zm-.25.674a.99.99 0 01-.207.146l.476.88c.152-.083.292-.181.415-.297l-.684-.73zm-.207.146a2.03 2.03 0 01-.464.17l.243.97a3.03 3.03 0 00.697-.26l-.476-.88zm-1.596.316c-.186.01-.384.014-.596.014v1c.226 0 .441-.005.645-.015l-.05-.999zM27.742 7.53v-1h-1v1h1zm12.18.42l-.27.963.011.003.012.003.247-.969zm2.16 1.29l-.82.573.005.007.005.007.81-.587zm-.03 6.39l-.737-.676-.008.009-.008.009.753.658zm-1.5.99l-.297-.955-.703.218v.737h1zm0 .15h-1v.9l.895.095.105-.995zm2.07.99l-.683.73.012.012.012.01.659-.752zm-.93 8.25l-.464-.886.464.886zm-13.95.99h-1v1h1v-1zm9.54-11.73l-.316-.949.316.949zm.72-.57l-.895-.447-.007.014-.006.014.908.419zm.03-3.18l-.895.447.008.016.009.016.878-.479zm-.75-.51l-.268.964.013.003.255-.967zm-4.86-.15v-1h-1v1h1zm0 4.59h-1v1h1v-1zm5.76 7.83l-.477-.88.477.88zm.15-4.35l-.64.768.01.009.01.008.62-.785zm-5.91-.45v-1h-1v1h1zm0 5.19h-1v1h1v-1zm-5.68-16.14v.487h2V7.53h-2zm0 1.46v.974h2V8.99h-2zm0 1.947v.974h2v-.974h-2zm0 1.947v.974h2v-.974h-2zm0 1.947v.974h2v-.974h-2zm0 1.947v.974h2v-.974h-2zm0 1.947v.974h2v-.974h-2zm0 1.947v.974h2v-.974h-2zm0 1.947v.974h2v-.974h-2zm0 1.947v.974h2v-.974h-2zm0 1.947V27h2v-.487h-2zm1 1.487h.506v-2h-.506v2zm1.518 0h1.013v-2h-1.012v2zm2.025 0h1.013v-2h-1.013v2zm2.025 0h1.013v-2H33.31v2zm2.026 0h.506v-2h-.506v2zm.506 0c.174 0 .346-.001.515-.004l-.033-2c-.158.003-.318.004-.482.004v2zm1.551-.04c.361-.02.71-.049 1.044-.084l-.21-1.989a18.16 18.16 0 01-.945.075l.111 1.997zm2.096-.228c.373-.064.728-.14 1.063-.23l-.515-1.932a9.69 9.69 0 01-.887.19l.34 1.972zm2.134-.588c.184-.076.362-.159.533-.248l-.928-1.772c-.114.06-.237.117-.37.172l.765 1.848zm.533-.248c.19-.1.372-.21.545-.33l-1.147-1.64c-.099.07-.207.136-.326.198l.928 1.772zm1.502-1.24c.27-.353.48-.744.63-1.168l-1.885-.67a2.24 2.24 0 01-.333.62l1.588 1.217zm.896-2.402c.019-.198.028-.4.028-.604h-2c0 .146-.007.284-.019.415l1.991.188zm.028-.604v-.75h-2v.75h2zm0-2.25v-.75h-2v.75h2zm0-.75a3.19 3.19 0 00-.099-.79l-1.937.496c.023.093.036.19.036.294h2zm-.81-2.143a4.544 4.544 0 00-.492-.5l-1.317 1.506c.11.095.2.189.276.279l1.533-1.285zm-.467-.477a5.28 5.28 0 00-.558-.456l-1.154 1.633c.115.081.23.175.346.283l1.366-1.46zm-1.904-1.11a4.319 4.319 0 00-.745-.145l-.209 1.99c.138.014.271.04.4.077l.554-1.921zm.15.85v-.037h-2v.037h2zm0-.113v-.037h-2v.037h2zm-.703.918c.19-.06.376-.131.556-.216l-.857-1.808a2.2 2.2 0 01-.292.114l.593 1.91zm1.547-.874c.144-.128.28-.265.41-.413l-1.506-1.316a2.61 2.61 0 01-.231.233l1.327 1.496zm.394-.395a4.06 4.06 0 00.353-.442l-1.647-1.134a2.077 2.077 0 01-.18.224l1.474 1.352zm.852-1.565c.047-.211.07-.425.07-.641h-2c0 .07-.007.139-.022.206l1.953.435zm.07-.641v-.6h-2v.6h2zm0-1.8v-.6h-2v.6h2zm0-.6c0-.254-.01-.5-.032-.737l-1.991.186c.015.17.024.353.024.551h2zm-.394-2.28a3.762 3.762 0 00-.425-.767l-1.62 1.174c.072.099.139.218.198.36l1.847-.767zm-.416-.753a3.505 3.505 0 00-.604-.66L41 9.528c.108.092.193.187.262.284L42.9 8.667zm-2.016-1.464a6.978 6.978 0 00-.716-.222l-.494 1.938c.187.048.357.1.51.158l.7-1.874zm-.694-.216a8.674 8.674 0 00-.593-.143l-.402 1.96c.166.034.318.07.456.109l.54-1.926zm-1.75-.322c-.355-.04-.734-.07-1.134-.092l-.11 1.997c.368.02.708.048 1.02.083l.224-1.988zm-2.253-.13a35.54 35.54 0 00-.556-.005v2c.18 0 .354.001.525.004l.03-2zm-.556-.005h-.493v2h.493v-2zm-1.48 0h-.986v2h.986v-2zm-1.972 0h-.986v2h.986v-2zm-1.973 0h-.986v2h.986v-2zm-1.972 0h-.493v2h.493v-2zm7.397 7.92h-.401v2h.4v-2zm-1.204 0h-.802v2h.802v-2zm-1.605 0h-.401v2h.401v-2zm.599 1v-.574h-2v.574h2zm0-1.721V12.58h-2v1.148h2zm0-2.295v-.574h-2v.574h2zm-1 .426h.39v-2h-.39v2zm1.17 0h.78v-2h-.78v2zm1.56 0h.39v-2h-.39v2zm.39 0c.146 0 .283.002.41.005l.055-2a17.332 17.332 0 00-.465-.005v2zm1.18.059c.136.018.23.037.292.054l.535-1.927a4.177 4.177 0 00-.565-.11l-.263 1.982zm.305.058c.046.012.08.024.108.034l.739-1.858a2.932 2.932 0 00-.338-.11l-.509 1.934zm.153.051a.246.246 0 01-.043-.06l1.79-.895a1.754 1.754 0 00-.314-.44l-1.433 1.395zm-.026-.03c-.003-.005-.003-.006-.001 0a.337.337 0 01.01.033l1.927-.537c-.042-.15-.1-.304-.18-.453L37.154 12zm.052.339c.004.06.006.128.006.203h2c0-.11-.003-.216-.01-.32l-1.996.117zm.006.203v.24h2v-.24h-2zm0 .72v.24h2v-.24h-2zm0 .24c0 .089-.003.17-.007.246l1.996.122c.007-.12.01-.242.01-.368h-2zm-.066.646a.607.607 0 01-.039.107l1.79.894a2.58 2.58 0 00.176-.467l-1.927-.534zm-.052.135a.14.14 0 01.016-.026l1.531 1.287c.108-.128.198-.27.269-.423l-1.816-.838zm-.033.002a.78.78 0 01-.095.038l.632 1.898a2.82 2.82 0 00.342-.14l-.88-1.796zm-.095.038a1.7 1.7 0 01-.256.06l.334 1.972c.192-.033.378-.076.554-.134l-.632-1.898zm-.953.123a11.33 11.33 0 01-.381.006v2c.157 0 .308-.002.452-.008l-.071-1.998zm-.261 8.226h-.416v2h.416v-2zm-1.249 0h-.833v2h.833v-2zm-1.665 0h-.416v2h.416v-2zm.584 1v-.433h-2v.433h2zm0-1.298v-.864h-2v.864h2zm0-1.73v-.864h-2v.864h2zm0-1.73v-.432h-2v.433h2zm-1 .568h.495v-2h-.495v2zm1.485 0h.99v-2h-.99v2zm1.98 0h.495v-2h-.495v2zm.495 0c.16 0 .306.005.44.014l.138-1.995a8.32 8.32 0 00-.578-.019v2zm1.16.143a.533.533 0 01.15.075l1.28-1.536a2.488 2.488 0 00-.738-.415l-.692 1.876zm.17.092c.02.015.04.036.06.067l1.683-1.08a2.263 2.263 0 00-.504-.557l-1.239 1.57zm.173.447c.01.086.017.184.017.298h2c0-.186-.01-.368-.032-.546l-1.985.248zm.017.298v.39h2v-.39h-2zm0 1.17v.39h2v-.39h-2zm0 .39a.755.755 0 01-.016.164l1.953.433c.044-.197.063-.397.063-.597h-2zm-.093.309a.495.495 0 01-.103.072l.952 1.758c.186-.1.361-.223.519-.371l-1.368-1.46zm-.103.072a1.57 1.57 0 01-.348.123l.486 1.94a3.49 3.49 0 00.814-.305l-.953-1.758zm-1.383.256a11.63 11.63 0 01-.571.013v2c.233 0 .457-.005.67-.016l-.099-1.997zm24.052 4.433l-.077.494h.002l.075-.494zm-2.82-.72l.164-.472-.003-.001-.161.473zm-2.49-1.74l-.404.295.004.005.4-.3zm-.27-14.07l-.433-.25-.005.008.438.242zm1.68-1.8l-.268-.422-.004.002.272.42zm2.22-.96l.141.48-.141-.48zm2.46-.48l.04.498h.002l-.042-.498zm4.62.03l-.059.497h.008l.007.001.044-.498zm2.28.42l.14-.48-.014-.004-.126.484zm2.37 1.02l.27-.42-.27.42zm1.56 1.68l-.432.252.002.004.43-.256zm-.21 13.98l-.401-.298-.005.006.406.292zm-2.34 1.77l-.186-.464.186.464zm-4.35-2.31l.045.498h.01l.01-.002-.065-.496zm1.41-.3l-.14-.48.14.48zm1.08-.69l-.397-.304-.003.004.4.3zm-.72-11.76l-.238.44.01.005.228-.445zm-7.62 11.76l-.397.304.004.006.005.005.388-.315zm1.14.69l.14-.48-.005-.002-.135.482zm1.38.3l-.068.495.012.002.012.001.044-.498zm1.62 2.89c-.124 0-.247 0-.369-.003l-.015 1c.127.002.255.003.384.003v-1zm-1.104-.026c-.25-.012-.493-.029-.732-.05l-.087.997c.252.021.509.039.77.052l.049-1zm-1.46-.128a15.873 15.873 0 01-.361-.05l-.15.988c.126.02.254.038.383.054l.128-.992zm-.36-.05a13.527 13.527 0 01-.69-.126l-.205.979c.25.052.497.097.742.135l.154-.988zm-2.058-.479c-.222-.067-.447-.14-.674-.22l-.328.945c.239.083.476.16.711.232l.291-.957zm-.677-.22a5.944 5.944 0 01-.333-.125l-.379.926c.127.052.257.1.39.145l.322-.946zm-.964-.433a4.466 4.466 0 01-.572-.392l-.629.777c.218.177.451.337.7.48l.5-.865zm-1.07-.867a4.164 4.164 0 01-.217-.267l-.8.6c.085.114.175.224.27.33l.748-.663zm-.214-.262a3.927 3.927 0 01-.194-.292l-.856.517c.075.125.157.247.243.365l.807-.59zm-.502-.92a4.314 4.314 0 01-.197-.68l-.98.202c.06.29.141.568.244.836l.934-.359zm-.29-1.391a5.922 5.922 0 01-.011-.364h-1c0 .144.004.285.013.425l.998-.061zm-.011-.364v-.532h-1v.532h1zm0-1.598v-1.065h-1v1.066h1zm0-2.13v-1.064h-1v1.065h1zm0-2.13v-1.064h-1v1.065h1zm0-2.13v-.532h-1v.532h1zm0-.532c0-.212.01-.417.033-.615l-.994-.11a6.631 6.631 0 00-.04.725h1zm.313-1.793c.073-.188.157-.37.254-.545l-.875-.484a5.36 5.36 0 00-.312.67l.933.36zm.25-.537c.097-.168.2-.327.31-.476l-.809-.59a6.4 6.4 0 00-.367.566l.865.5zm1.07-1.298a4.4 4.4 0 01.448-.332l-.543-.84c-.192.124-.375.26-.55.408l.645.764zm.444-.33c.152-.095.314-.188.488-.277l-.456-.89a7.2 7.2 0 00-.567.323l.535.844zm1.541-.724c.177-.062.361-.122.553-.178l-.283-.96a12.12 12.12 0 00-.601.195l.331.943zm.553-.178c.2-.06.394-.113.586-.16l-.243-.97a15.51 15.51 0 00-.626.17l.283.96zm1.766-.395c.202-.03.4-.051.592-.067l-.079-.996c-.214.016-.433.04-.655.073l.142.99zm.596-.067c.177-.015.358-.028.542-.04l-.062-.998c-.191.012-.38.026-.566.042l.085.996zm1.63-.083c.18-.003.362-.005.547-.005v-1c-.19 0-.38.002-.565.005l.019 1zm.547-.005c.203 0 .4.002.59.006l.021-1a29.48 29.48 0 00-.611-.006v1zm1.763.06c.203.016.395.035.578.057l.117-.994a15.543 15.543 0 00-.618-.06l-.077.998zm.593.058c.176.016.36.037.549.064l.142-.99c-.206-.03-.408-.053-.603-.07l-.088.996zm1.649.271c.178.04.36.086.548.135l.253-.968c-.196-.051-.39-.099-.578-.142l-.223.975zm.535.131c.206.06.404.123.593.189l.327-.945c-.205-.071-.419-.14-.64-.204l-.28.96zm1.72.663c.188.096.36.195.519.297l.542-.84a6.998 6.998 0 00-.604-.347l-.456.89zm.519.297c.142.092.28.194.41.306l.649-.762a4.861 4.861 0 00-.517-.384l-.542.84zm1.11 1.069c.101.138.197.286.289.443l.864-.504a6.315 6.315 0 00-.343-.526l-.81.587zm.291.447c.103.173.193.357.27.552l.93-.366a4.797 4.797 0 00-.34-.698l-.86.511zm.557 1.771c.022.205.033.42.033.643h1c0-.256-.013-.505-.038-.747l-.995.104zm.033.643v.532h1v-.532h-1zm0 1.598v1.065h1v-1.066h-1zm0 2.13v1.065h1v-1.066h-1zm0 2.13v1.064h1v-1.065h-1zm0 2.13v.532h1v-.532h-1zm0 .532c0 .234-.015.459-.044.674l.99.135c.036-.262.054-.532.054-.809h-1zm-.427 1.933c-.097.195-.212.38-.344.559l.802.596c.166-.223.312-.459.436-.706l-.894-.449zm-.35.565c-.13.181-.272.35-.428.508l.711.703a5.2 5.2 0 00.53-.627l-.812-.584zm-1.5 1.307c-.194.106-.4.203-.619.29l.372.93c.254-.102.496-.216.727-.342l-.48-.878zm-.619.29c-.153.062-.308.12-.465.177l.336.942c.169-.06.335-.124.5-.19l-.37-.928zm-1.414.477c-.317.088-.64.165-.97.233l.2.98a15.56 15.56 0 001.037-.25l-.267-.963zm-1.956.401c-.326.046-.659.082-.997.109l.08.996c.356-.028.708-.066 1.054-.114l-.137-.99zm-2 .16c-.167.005-.335.007-.504.007v1c.177 0 .354-.002.529-.007l-.026-1zm-.444-3.323c-.143 0-.28-.001-.413-.003l-.015 1c.138.002.28.003.428.003v-1zm-1.233-.03a12.899 12.899 0 01-.404-.028l-.087.996c.138.012.283.022.436.03l.055-.998zm-.38-.025a7.745 7.745 0 01-.328-.052l-.177.984c.125.022.248.042.37.058l.135-.99zm-.982-.196a10.384 10.384 0 01-.325-.089l-.28.96c.12.035.238.067.356.098l.249-.969zm-.33-.09a2.519 2.519 0 01-.268-.091l-.375.927c.119.048.243.09.373.127l.27-.963zm-.717-.353a1.253 1.253 0 01-.17-.171l-.776.63c.091.113.193.216.305.31l.64-.769zm-.161-.16a1.295 1.295 0 01-.128-.205l-.894.449c.064.128.14.25.228.364l.794-.608zm-.27-.686a2.076 2.076 0 01-.017-.27h-1c0 .136.008.27.025.4l.992-.13zm-.017-.27v-.534h-1v.534h1zm0-1.603v-1.069h-1v1.069h1zm0-2.138v-1.068h-1v1.068h1zm0-2.137v-1.069h-1v1.069h1zm0-2.138v-.534h-1v.534h1zm0-.534c0-.184.016-.349.047-.496l-.98-.202a3.445 3.445 0 00-.067.698h1zm.462-1.274c.103-.097.227-.184.376-.261l-.457-.89a2.62 2.62 0 00-.606.424l.687.727zm.376-.261c.102-.053.218-.103.346-.149l-.34-.94a3.95 3.95 0 00-.463.2l.457.889zm1.12-.353a8.97 8.97 0 01.825-.11l-.089-.996c-.328.029-.635.07-.92.124l.184.982zm1.673-.157c.14-.003.282-.005.429-.005v-1c-.155 0-.306.002-.453.005l.024 1zm.429-.005c.147 0 .29.002.428.005l.027-1a22.43 22.43 0 00-.455-.005v1zm1.277.055c.3.028.575.067.824.116l.194-.98a9.23 9.23 0 00-.925-.132l-.093.996zm1.593.33c.127.048.24.1.342.155l.475-.88a3.873 3.873 0 00-.461-.21l-.356.935zm.351.16c.15.076.273.163.375.258l.681-.732a2.659 2.659 0 00-.599-.416l-.457.89zm.791 1.02c.031.143.048.305.048.485h1c0-.241-.023-.473-.07-.694l-.978.208zm.048.485v.534h1v-.534h-1zm0 1.603v1.069h1v-1.069h-1zm0 2.138v1.068h1v-1.068h-1zm0 2.137v1.069h1v-1.069h-1zm0 2.138v.534h1v-.534h-1zm0 .534c0 .096-.006.186-.017.27l.992.13a3.09 3.09 0 00.025-.4h-1zm-.16.751c-.036.073-.078.14-.127.205l.794.608c.087-.114.163-.236.228-.364l-.894-.449zm-.13.209a1.13 1.13 0 01-.153.166l.665.747c.106-.095.203-.2.288-.313l-.8-.6zm-.568.42a2.112 2.112 0 01-.252.09l.28.96a3.25 3.25 0 00.362-.129l-.39-.92zm-.252.09a9.706 9.706 0 01-.331.09l.246.97c.121-.031.243-.064.365-.1l-.28-.96zm-.999.233c-.113.02-.225.037-.336.051l.13.992c.125-.016.25-.036.377-.057l-.17-.986zm-.316.05c-.122.01-.254.02-.395.028l.056.998c.152-.009.295-.019.429-.031l-.09-.996zm-1.2.054c-.13.002-.265.003-.405.003v1c.145 0 .285-.001.42-.003l-.014-1zm-3.465 3.623l-.154.988h.003l.15-.988zm-2.82-.72l.328-.945-.007-.002-.321.947zm-2.49-1.74l-.807.59.007.01.8-.6zm-.27-14.07l-.866-.501-.005.009-.005.008.876.484zm1.68-1.8l-.535-.845-.008.005.543.84zm2.22-.96l.283.959-.283-.959zm2.46-.48l.078.997h.007l-.085-.997zm4.62.03l-.117.993.014.002.015.001.088-.996zm2.28.42l.28-.96-.013-.004-.014-.003-.253.967zm2.37 1.02l.542-.84-.542.84zm1.56 1.68l-.864.504.004.007.86-.511zm-.21 13.98l-.803-.597-.005.007-.005.007.813.583zm-2.34 1.77l-.372-.928.372.928zm-4.35-2.31l.09.996.02-.002.02-.002-.13-.992zm1.41-.3l-.28-.96.28.96zm1.08-.69l-.795-.608-.005.008.8.6zm-.72-11.76l-.476.88.01.005.009.005.457-.89zm-7.62 11.76l-.795.607.01.012.009.012.776-.631zm1.14.69l.28-.96-.01-.003-.27.963zm1.38.3l-.135.99.024.004.024.002.087-.996zm1.62 2.39c-.122 0-.242 0-.361-.003l-.031 2c.13.002.26.003.392.003v-2zm-1.08-.026a19.139 19.139 0 01-.713-.048l-.173 1.993c.258.022.521.04.788.053l.098-1.998zm-1.42-.123a15.295 15.295 0 01-.35-.05l-.3 1.978c.13.02.261.038.395.055l.255-1.983zm-.346-.05a13.07 13.07 0 01-.666-.12l-.41 1.957c.258.054.514.1.768.14l.308-1.976zm-1.99-.462a17.807 17.807 0 01-.657-.214l-.655 1.89c.245.085.488.164.73.237l.582-1.913zm-.663-.216a5.36 5.36 0 01-.304-.113l-.757 1.85c.137.057.276.109.418.157l.643-1.894zm-.874-.392a3.962 3.962 0 01-.507-.348l-1.258 1.555c.238.193.493.368.763.524l1.002-1.73zm-.945-.766a3.683 3.683 0 01-.192-.235l-1.6 1.2c.093.125.192.246.295.362l1.497-1.327zm-.185-.226a3.46 3.46 0 01-.17-.254l-1.712 1.034c.083.137.172.271.268.402l1.614-1.181zm-.439-.804a3.815 3.815 0 01-.174-.6l-1.96.403c.066.315.154.62.267.914l1.867-.717zm-.258-1.242a5.46 5.46 0 01-.01-.333h-2c0 .154.004.306.014.456l1.996-.123zm-.01-.333v-.532h-2v.532h2zm0-1.598v-1.065h-2v1.066h2zm0-2.13v-1.064h-2v1.065h2zm0-2.13v-1.064h-2v1.065h2zm0-2.13v-.532h-2v.532h2zm0-.532c0-.194.01-.381.03-.56l-1.988-.22a7.124 7.124 0 00-.042.78h2zm.28-1.614a3.84 3.84 0 01.225-.482l-1.75-.968a5.877 5.877 0 00-.342.733l1.867.718zm.215-.465a5.21 5.21 0 01.281-.433L54.325 9.45a6.921 6.921 0 00-.396.609l1.731 1.002zm.96-1.167c.127-.107.26-.205.398-.294l-1.087-1.68a5.91 5.91 0 00-.6.445l1.29 1.529zm.39-.29a5.68 5.68 0 01.448-.254l-.912-1.78a7.68 7.68 0 00-.606.345l1.07 1.69zm1.44-.674a9.65 9.65 0 01.528-.171l-.567-1.918c-.215.063-.423.13-.625.202l.663 1.887zm.528-.171c.192-.057.38-.108.565-.154l-.486-1.94a15.95 15.95 0 00-.646.176l.567 1.918zm1.695-.38a8.86 8.86 0 01.56-.062l-.157-1.994a11.19 11.19 0 00-.687.077l.284 1.98zm.567-.063c.174-.015.35-.028.53-.039l-.123-1.996c-.195.012-.387.026-.578.043l.171 1.992zm1.598-.081c.176-.003.355-.005.537-.005v-2c-.194 0-.385.002-.575.005l.038 2zm.537-.005c.2 0 .393.002.58.006l.042-2a30.094 30.094 0 00-.622-.006v2zm1.725.06c.196.015.382.032.558.053l.234-1.986a16 16 0 00-.639-.062L65.1 8.29zm.587.056c.167.015.34.035.522.061l.284-1.98a12.45 12.45 0 00-.63-.073l-.176 1.992zm1.582.26c.172.04.35.084.532.131l.507-1.934a19.32 19.32 0 00-.594-.146l-.445 1.95zm.506.124c.199.058.388.118.569.181l.655-1.89a13.927 13.927 0 00-.664-.211l-.56 1.92zm1.633.628c.173.089.331.18.475.272l1.084-1.68a7.506 7.506 0 00-.647-.372l-.912 1.78zm.475.272c.124.08.243.169.358.267l1.296-1.524a5.384 5.384 0 00-.57-.423l-1.084 1.68zm.977.942c.09.125.177.259.261.402l1.728-1.008a6.801 6.801 0 00-.37-.568l-1.619 1.174zm.265.41c.09.15.168.309.234.479l1.862-.732a5.307 5.307 0 00-.377-.77l-1.719 1.022zm.49 1.567c.02.187.03.384.03.591h2c0-.272-.013-.538-.04-.799l-1.99.208zm.03.591v.532h2v-.532h-2zm0 1.598v1.065h2v-1.066h-2zm0 2.13v1.065h2v-1.066h-2zm0 2.13v1.064h2v-1.065h-2zm0 2.13v.532h2v-.532h-2zm0 .532c0 .213-.014.415-.04.607l1.982.27a6.5 6.5 0 00.058-.877h-2zm-.374 1.709c-.084.168-.184.33-.299.484l1.605 1.194c.184-.247.344-.507.481-.78l-1.787-.898zm-.309.498c-.114.16-.24.308-.378.448l1.423 1.406a5.69 5.69 0 00.58-.688l-1.625-1.166zm-1.334 1.16a5.21 5.21 0 01-.565.264l.743 1.857c.272-.108.533-.23.782-.366l-.96-1.755zm-.565.264c-.147.06-.296.116-.447.17l.672 1.883c.175-.062.347-.127.518-.196l-.743-1.857zm-1.362.459c-.305.084-.618.16-.937.225l.401 1.96c.363-.075.72-.16 1.07-.258l-.534-1.927zm-1.891.388c-.316.044-.639.08-.968.105l.159 1.994c.367-.03.728-.068 1.084-.118l-.275-1.98zm-1.944.156c-.163.004-.326.006-.491.006v2c.181 0 .362-.002.541-.007l-.05-2zm-.431-3.324c-.14 0-.276 0-.406-.003l-.029 2c.14.002.285.003.435.003v-2zm-1.206-.03a12.26 12.26 0 01-.388-.026l-.173 1.992c.143.013.294.023.45.032l.111-1.997zm-.34-.02c-.1-.015-.202-.03-.306-.05l-.354 1.969c.131.024.261.044.39.062l.27-1.982zm-.925-.185a9.963 9.963 0 01-.31-.085l-.56 1.92c.125.036.25.07.373.102l.497-1.937zm-.32-.088a2.023 2.023 0 01-.214-.072l-.751 1.853c.138.056.28.104.426.145l.54-1.926zm-.53-.255a.747.747 0 01-.103-.103l-1.552 1.262c.112.138.237.263.373.377l1.281-1.536zm-.085-.08a.786.786 0 01-.078-.125l-1.788.897c.079.157.171.305.277.444l1.59-1.215zm-.172-.446a1.58 1.58 0 01-.012-.206h-2c0 .156.01.311.03.464l1.982-.258zm-.012-.206v-.534h-2v.534h2zm0-1.603v-1.069h-2v1.069h2zm0-2.138v-1.068h-2v1.068h2zm0-2.137v-1.069h-2v1.069h2zm0-2.138v-.534h-2v.534h2zm0-.534c0-.154.014-.285.036-.395l-1.958-.405c-.054.26-.078.527-.078.8h2zm.305-.91c.066-.062.15-.123.262-.18l-.914-1.78a3.118 3.118 0 00-.72.506L60.15 12.2zm.262-.18c.08-.042.176-.084.287-.124l-.68-1.88c-.181.065-.356.14-.521.224l.914 1.78zm.983-.306c.23-.043.49-.079.778-.104l-.178-1.992c-.342.03-.665.073-.969.13l.369 1.966zm1.594-.149c.134-.003.273-.005.416-.005v-2a17.7 17.7 0 00-.466.006l.05 1.999zm.416-.005c.143 0 .281.002.415.005l.053-1.999a17.91 17.91 0 00-.468-.006v2zm1.23.052c.287.027.544.064.774.11l.388-1.962a9.737 9.737 0 00-.975-.139l-.187 1.991zm1.462.3c.109.041.202.084.282.128l.951-1.76a4.354 4.354 0 00-.521-.237l-.712 1.87zm.301.138c.112.057.197.118.263.18l1.362-1.466a3.159 3.159 0 00-.711-.494l-.914 1.78zm.53.678c.023.106.037.232.037.382h2c0-.272-.025-.54-.08-.798l-1.957.416zm.037.382v.534h2v-.534h-2zm0 1.603v1.069h2v-1.069h-2zm0 2.138v1.068h2v-1.068h-2zm0 2.137v1.069h2v-1.069h-2zm0 2.138v.534h2v-.534h-2zm0 .534a1.6 1.6 0 01-.013.206l1.983.258a3.6 3.6 0 00.03-.464h-2zm-.106.527a.786.786 0 01-.079.125l1.59 1.215c.105-.139.198-.286.276-.443l-1.787-.897zm-.084.133a.628.628 0 01-.086.093l1.33 1.493c.131-.116.25-.245.356-.386l-1.6-1.2zm-.364.26a1.777 1.777 0 01-.196.07l.56 1.92c.143-.042.283-.09.418-.148l-.782-1.841zm-.196.07c-.106.03-.21.06-.314.086l.492 1.938c.127-.032.254-.067.382-.104l-.56-1.92zm-.944.22a7.576 7.576 0 01-.316.048l.26 1.984c.131-.018.264-.038.397-.06l-.341-1.971zm-.277.044c-.115.01-.24.02-.377.027l.112 1.997c.157-.009.305-.02.446-.032l-.18-1.992zm-1.16.053c-.128.002-.26.003-.4.003v2c.148 0 .29-.001.428-.003l-.029-2zM84.21 7.53v-.5h-.5v.5h.5zm4.68 0h.5v-.5h-.5v.5zm0 13.32h-.5v1.73l.923-1.463-.423-.267zm8.4-13.32v-.5h-.276l-.147.233.423.267zm4.68 0h.5v-.5h-.5v.5zm0 19.47v.5h.5V27h-.5zm-4.68 0h-.5v.5h.5V27zm0-13.53h.5v-1.753l-.925 1.49.425.263zM88.89 27v.5h.278l.147-.236L88.89 27zm-4.68 0h-.5v.5h.5V27zm4.41-22.83l-.327.379.005.003.322-.382zM87.09.75v-.5h-.5v.5h.5zm3.75 0l.497-.058-.052-.442h-.445v.5zm.66 1.83l-.364.343.005.006.005.005.354-.354zm3.21 0l-.354-.354-.005.006-.005.005.364.343zM95.4.75v-.5h-.445l-.052.442.497.058zm3.75 0h.5v-.5h-.5v.5zm-1.53 3.42l.322.382.005-.003-.327-.379zM83.71 7.53v.487h1V7.53h-1zm0 1.46v.974h1V8.99h-1zm0 1.947v.974h1v-.974h-1zm0 1.947v.974h1v-.974h-1zm0 1.947v.974h1v-.974h-1zm0 1.947v.974h1v-.974h-1zm0 1.947v.974h1v-.974h-1zm0 1.947v.974h1v-.974h-1zm0 1.947v.974h1v-.974h-1zm0 1.947v.974h1v-.974h-1zm0 1.947V27h1v-.487h-1zm.5.987h.585v-1h-.585v1zm1.755 0h1.17v-1h-1.17v1zm2.34 0h.585v-1h-.585v1zm1.01-.236l.262-.423-.85-.527-.262.422.85.528zm.787-1.269l.525-.845-.85-.528-.524.846.85.527zm1.05-1.691l.525-.846-.85-.527-.524.846.85.527zm1.05-1.691l.525-.846-.85-.527-.524.845.85.528zm1.05-1.691l.525-.846-.85-.527-.524.845.85.528zm1.05-1.692l.525-.845-.85-.528-.524.846.85.527zm1.05-1.691l.525-.846-.85-.527-.524.846.85.527zm1.05-1.691l.525-.846-.85-.527-.524.845.85.528zm1.05-1.692l.263-.422-.85-.528-.262.423.85.527zm-.662-.686v.483h1v-.483h-1zm0 1.45v.966h1v-.966h-1zm0 1.932v.967h1v-.966h-1zm0 1.933v.967h1v-.967h-1zm0 1.933v.967h1v-.967h-1zm0 1.933v.966h1v-.966h-1zm0 1.933v.966h1v-.966h-1zm0 1.933V27h1v-.483h-1zm.5.983h.585v-1h-.585v1zm1.755 0h1.17v-1h-1.17v1zm2.34 0h.585v-1h-.585v1zm1.085-.5v-.487h-1V27h1zm0-1.46v-.974h-1v.974h1zm0-1.947v-.974h-1v.974h1zm0-1.947v-.974h-1v.974h1zm0-1.947v-.974h-1v.974h1zm0-1.947v-.974h-1v.974h1zm0-1.947v-.974h-1v.974h1zm0-1.947v-.974h-1v.974h1zm0-1.947v-.974h-1v.974h1zm0-1.947V8.99h-1v.974h1zm0-1.947V7.53h-1v.487h1zm-.5-.987h-.585v1h.585v-1zm-1.755 0h-1.17v1h1.17v-1zm-2.34 0h-.585v1h.585v-1zm-1.008.233l-.262.417.845.533.263-.416-.846-.534zm-.787 1.249l-.526.833.846.533.525-.833-.846-.533zm-1.05 1.665l-.526.832.846.534.525-.832-.846-.534zm-1.05 1.665l-.525.832.845.534.525-.832-.845-.534zm-1.05 1.665l-.525.832.845.534.525-.832-.846-.534zm-1.05 1.665l-.525.832.845.534.525-.832-.846-.534zm-1.05 1.665l-.526.832.846.534.525-.832-.846-.534zm-1.05 1.665l-.526.832.846.534.525-.832-.846-.534zm-1.05 1.665l-.263.416.846.534.262-.416-.845-.534zm.66.683v-.476h-1v.476h1zm0-1.427v-.952h-1v.952h1zm0-1.903v-.951h-1v.951h1zm0-1.903v-.951h-1v.951h1zm0-1.903v-.951h-1v.951h1zm0-1.903v-.951h-1v.951h1zm0-1.902v-.952h-1v.952h1zm0-1.903V7.53h-1v.476h1zm-.5-.976h-.585v1h.585v-1zm-1.755 0h-1.17v1h1.17v-1zm-2.34 0h-.585v1h.585v-1zm8.325-2.07c-.197 0-.388-.004-.574-.013l-.047.999c.202.01.41.014.62.014v-1zm-1.702-.13a6.658 6.658 0 01-1.076-.27l-.328.945c.386.134.799.237 1.239.31l.165-.985zm-2.05-.73a3.85 3.85 0 01-.426-.312l-.644.764c.168.142.347.273.537.393l.534-.846zm-.421-.309a4.336 4.336 0 01-.315-.299l-.725.688c.12.128.25.25.386.369l.654-.758zm-.831-.98a3.614 3.614 0 01-.343-.776l-.956.295c.108.349.254.68.438.991l.86-.51zM87.61 1.19a4.895 4.895 0 01-.02-.439h-1c0 .18.009.355.024.528l.996-.089zm-.52.061h.47v-1h-.47v1zm1.407 0h.938v-1h-.938v1zm1.875 0h.469v-1h-.469v1zm-.028-.442c.022.184.049.36.081.526l.982-.191a5.924 5.924 0 01-.07-.45l-.993.115zm.432 1.597c.1.193.22.368.361.518l.727-.686a1.268 1.268 0 01-.2-.291l-.888.459zm.371.529c.136.135.29.25.46.345l.487-.873a1.08 1.08 0 01-.24-.18l-.707.708zm1.477.658c.16.019.325.028.497.028v-1c-.136 0-.262-.007-.378-.021l-.119.993zm.497.028c.17 0 .333-.009.49-.028l-.118-.993a3.05 3.05 0 01-.372.021v1zm1.5-.341a1.96 1.96 0 00.453-.356l-.727-.686a.961.961 0 01-.223.174l.497.868zm.444-.345c.148-.149.273-.321.378-.514l-.877-.48a1.217 1.217 0 01-.209.286l.707.708zm.75-1.594c.033-.168.06-.346.083-.532l-.994-.116a5.55 5.55 0 01-.07.451l.98.197zm-.414-.09h.469v-1h-.47v1zm1.406 0h.938v-1h-.938v1zm1.875 0h.469v-1h-.469v1zm-.031-.5c0 .15-.007.297-.02.439l.997.09a6.15 6.15 0 00.023-.529h-1zm-.183 1.285a3.607 3.607 0 01-.343.777l.86.509a4.61 4.61 0 00.439-.99l-.956-.296zm-.86 1.457a4.336 4.336 0 01-.314.3l.654.757c.136-.118.265-.24.386-.369l-.725-.688zm-.31.296a3.839 3.839 0 01-.426.311l.534.846c.19-.12.369-.25.537-.393l-.644-.764zm-1.4.772a6.657 6.657 0 01-1.076.27l.166.986a7.7 7.7 0 001.238-.31L95.9 4.56zm-2.203.387c-.186.009-.377.013-.574.013v1c.212 0 .419-.005.62-.014l-.046-1zM84.21 7.53v-1h-1v1h1zm4.68 0h1v-1h-1v1zm0 13.32h-1v3.46l1.846-2.927-.846-.533zm8.4-13.32v-1h-.552l-.294.467.846.533zm4.68 0h1v-1h-1v1zm0 19.47v1h1v-1h-1zm-4.68 0h-1v1h1v-1zm0-13.53h1V9.963l-1.85 2.98.85.527zM88.89 27v1h.556l.293-.473-.85-.527zm-4.68 0h-1v1h1v-1zm4.41-22.83l-.653.757.008.008.645-.765zM87.09.75v-1h-1v1h1zm3.75 0l.993-.116-.103-.884h-.89v1zm.66 1.83l-.727.687.01.01.01.01.707-.707zm3.21 0l-.707-.707-.01.01-.01.01.727.687zM95.4.75v-1h-.89l-.103.884.993.116zm3.75 0h1v-1h-1v1zm-1.53 3.42l.645.765.008-.008-.653-.757zM83.21 7.53v.487h2V7.53h-2zm0 1.46v.974h2V8.99h-2zm0 1.947v.974h2v-.974h-2zm0 1.947v.974h2v-.974h-2zm0 1.947v.974h2v-.974h-2zm0 1.947v.974h2v-.974h-2zm0 1.947v.974h2v-.974h-2zm0 1.947v.974h2v-.974h-2zm0 1.947v.974h2v-.974h-2zm0 1.947v.974h2v-.974h-2zm0 1.947V27h2v-.487h-2zm1 1.487h.585v-2h-.585v2zm1.755 0h1.17v-2h-1.17v2zm2.34 0h.585v-2h-.585v2zm1.434-.473l.263-.422-1.7-1.055-.262.422 1.7 1.055zm.788-1.268l.525-.846-1.7-1.055-.524.846 1.699 1.055zm1.05-1.691l.525-.846-1.7-1.055-.524.846 1.699 1.055zm1.05-1.692l.525-.845-1.7-1.055-.524.846 1.699 1.055zm1.05-1.69l.525-.846-1.7-1.055-.524.845 1.699 1.055zm1.05-1.692l.525-.846-1.7-1.055-.524.846 1.699 1.055zm1.05-1.691l.525-.846-1.7-1.055-.524.846 1.699 1.055zm1.05-1.692l.525-.845-1.7-1.055-.524.846 1.699 1.054zm1.05-1.69l.263-.423-1.7-1.055-.262.422 1.699 1.055zm-1.587-.951v.483h2v-.483h-2zm0 1.45v.966h2v-.966h-2zm0 1.932v.967h2v-.966h-2zm0 1.933v.967h2v-.967h-2zm0 1.933v.967h2v-.967h-2zm0 1.933v.966h2v-.966h-2zm0 1.933v.966h2v-.966h-2zm0 1.933V27h2v-.483h-2zm1 1.483h.585v-2h-.585v2zm1.755 0h1.17v-2h-1.17v2zm2.34 0h.585v-2h-.585v2zm1.585-1v-.487h-2V27h2zm0-1.46v-.974h-2v.974h2zm0-1.947v-.974h-2v.974h2zm0-1.947v-.974h-2v.974h2zm0-1.947v-.974h-2v.974h2zm0-1.947v-.974h-2v.974h2zm0-1.947v-.974h-2v.974h2zm0-1.947v-.974h-2v.974h2zm0-1.947v-.974h-2v.974h2zm0-1.947V8.99h-2v.974h2zm0-1.947V7.53h-2v.487h2zm-1-1.487h-.585v2h.585v-2zm-1.755 0h-1.17v2h1.17v-2zm-2.34 0h-.585v2h.585v-2zm-1.43.467l-.263.416 1.691 1.067.263-.417-1.692-1.066zm-.788 1.248l-.525.833 1.691 1.067.525-.833-1.691-1.067zm-1.05 1.665l-.525.833 1.691 1.067.525-.833-1.691-1.067zm-1.05 1.665l-.525.833 1.691 1.067.525-.833-1.691-1.067zm-1.05 1.665l-.525.833 1.691 1.067.525-.833-1.691-1.067zm-1.05 1.665l-.525.833 1.691 1.067.525-.833-1.691-1.067zm-1.05 1.665l-.525.833 1.691 1.067.525-.833-1.691-1.067zm-1.05 1.665l-.525.833 1.691 1.067.525-.833-1.691-1.067zm-1.05 1.665l-.263.417 1.692 1.066.262-.416-1.691-1.067zm1.583.95v-.476h-2v.476h2zm0-1.427v-.952h-2v.952h2zm0-1.903v-.951h-2v.951h2zm0-1.903v-.951h-2v.951h2zm0-1.903v-.951h-2v.951h2zm0-1.903v-.951h-2v.951h2zm0-1.902v-.952h-2v.952h2zm0-1.903V7.53h-2v.476h2zm-1-1.476h-.585v2h.585v-2zm-1.755 0h-1.17v2h1.17v-2zm-2.34 0h-.585v2h.585v-2zm8.325-2.07c-.19 0-.373-.004-.55-.013l-.094 1.998c.21.01.425.015.644.015v-2zm-1.619-.123a6.158 6.158 0 01-.995-.25l-.655 1.89c.414.144.854.254 1.319.332l.331-1.972zm-1.865-.66a3.344 3.344 0 01-.371-.272l-1.29 1.53c.186.157.384.3.593.432l1.068-1.69zm-.363-.264a3.858 3.858 0 01-.278-.265l-1.45 1.377c.132.14.273.274.422.402l1.306-1.514zm-.727-.856a3.109 3.109 0 01-.296-.67l-1.91.59c.118.386.28.753.485 1.099l1.721-1.019zm-.439-1.413A4.438 4.438 0 0188.09.75h-2c0 .193.008.385.025.573l1.992-.179zm-1.017.606h.469v-2h-.47v2zm1.406 0h.938v-2h-.938v2zm1.875 0h.469v-2h-.469v2zm-.524-.885c.022.196.051.384.086.565l1.963-.383a5.417 5.417 0 01-.063-.413l-1.986.231zm.484 1.77c.118.228.263.442.442.632l1.454-1.374a.778.778 0 01-.12-.177l-1.776.918zm.462.652c.17.17.36.312.568.429l.976-1.746a.582.582 0 01-.13-.097l-1.414 1.414zm1.77.801c.182.022.368.032.557.032v-2c-.119 0-.224-.006-.319-.018l-.237 1.986zm.557.032c.187 0 .37-.01.549-.031l-.236-1.986a2.66 2.66 0 01-.313.017v2zm1.748-.407c.21-.12.401-.269.569-.446l-1.454-1.374a.462.462 0 01-.109.084l.994 1.736zm.549-.426a2.74 2.74 0 00.464-.627l-1.755-.96a.754.754 0 01-.123.173l1.414 1.414zm.887-1.848c.036-.184.066-.375.09-.574l-1.987-.23c-.018.15-.04.286-.064.41l1.96.394zm-.904.311h.469v-2h-.47v2zm1.406 0h.938v-2h-.938v2zm1.875 0h.469v-2h-.469v2zm-.531-1a4.4 4.4 0 01-.017.394l1.992.179a6.38 6.38 0 00.025-.573h-2zm-.16 1.138c-.074.238-.172.46-.296.67l1.721 1.018a5.11 5.11 0 00.486-1.098l-1.912-.59zm-.745 1.26c-.085.09-.178.178-.278.265l1.306 1.514a5.76 5.76 0 00.423-.402l-1.45-1.377zm-.27.257a3.333 3.333 0 01-.37.271l1.067 1.691c.209-.131.406-.275.593-.432l-1.29-1.53zm-1.241.683a6.16 6.16 0 01-.995.249l.331 1.972a8.156 8.156 0 001.32-.331l-.656-1.89zm-2.064.36c-.177.008-.36.012-.55.012v2c.219 0 .434-.005.644-.015l-.094-1.998zm35.027 3.082v-.5h-.5v.5h.5zm12.18.42l-.135.482.011.003.124-.485zm2.16 1.29l-.41.287.005.006.405-.293zm-.03 6.39l-.369-.338-.008.009.377.329zm-1.5.99l-.149-.478-.351.11v.368h.5zm0 .15h-.5v.45l.447.047.053-.497zm2.07.99l-.342.365.006.006.006.005.33-.376zm-.93 8.25l-.232-.443.232.443zm-13.95.99h-.5v.5h.5V27zm9.54-11.73l-.158-.474.158.474zm.72-.57l-.448-.224-.003.007-.003.008.454.209zm.03-3.18l-.448.224.004.008.005.007.439-.239zm-.75-.51l-.134.482.006.001.128-.483zm-4.86-.15v-.5h-.5v.5h.5zm0 4.59h-.5v.5h.5v-.5zm5.76 7.83l-.238-.44.238.44zm.15-4.35l-.321.384.011.008.31-.392zm-5.91-.45v-.5h-.5v.5h.5zm0 5.19h-.5v.5h.5v-.5zm-5.18-16.14v.487h1V7.53h-1zm0 1.46v.974h1V8.99h-1zm0 1.947v.974h1v-.974h-1zm0 1.947v.974h1v-.974h-1zm0 1.947v.974h1v-.974h-1zm0 1.947v.974h1v-.974h-1zm0 1.947v.974h1v-.974h-1zm0 1.947v.974h1v-.974h-1zm0 1.947v.974h1v-.974h-1zm0 1.947v.974h1v-.974h-1zm0 1.947V27h1v-.487h-1zm.5.987h.506v-1h-.506v1zm1.518 0h1.013v-1h-1.013v1zm2.025 0h1.013v-1h-1.013v1zm2.025 0h1.013v-1h-1.013v1zm2.025 0h.507v-1h-.507v1zm.507 0c.171 0 .34-.001.507-.004l-.017-1c-.16.003-.324.004-.49.004v1zm1.523-.04c.354-.02.694-.047 1.019-.081l-.105-.995a19.76 19.76 0 01-.969.078l.055.998zm2.04-.22c.359-.063.699-.136 1.018-.221l-.258-.966a10.54 10.54 0 01-.93.2l.17.986zm2.026-.558c.172-.07.337-.147.493-.23l-.464-.885c-.128.067-.265.13-.411.191l.382.924zm.493-.23c.172-.09.336-.188.49-.296l-.573-.82c-.118.082-.244.16-.381.231l.464.886zm1.337-1.1c.237-.31.422-.655.556-1.031l-.943-.335c-.1.283-.236.534-.407.757l.794.608zm.795-2.146a5.92 5.92 0 00.026-.556h-1c0 .16-.007.315-.021.462l.995.094zm.026-.556v-.75h-1v.75h1zm0-2.25v-.75h-1v.75h1zm0-.75c0-.226-.028-.449-.083-.666l-.969.248c.034.134.052.273.052.418h1zm-.693-1.822a4.037 4.037 0 00-.438-.444l-.659.752c.127.111.237.223.33.335l.767-.643zm-.426-.433a4.664 4.664 0 00-.505-.413l-.577.817c.135.095.268.204.399.326l.683-.73zm-1.7-.994a3.838 3.838 0 00-.659-.128l-.105.994c.167.018.329.05.487.095l.277-.961zm-.211.369v-.037h-1v.037h1zm0-.113v-.037h-1v.037h1zm-.352.44c.168-.052.332-.115.49-.19l-.429-.904c-.114.055-.233.1-.358.14l.297.954zm1.363-.77c.128-.113.25-.236.365-.368l-.753-.658a3.02 3.02 0 01-.275.278l.663.748zm.357-.36a3.47 3.47 0 00.31-.386l-.824-.567a2.53 2.53 0 01-.223.278l.737.676zm.733-1.335c.039-.175.059-.352.059-.532h-1c0 .107-.012.212-.035.315l.976.217zm.059-.532v-.6h-1v.6h1zm0-1.8v-.6h-1v.6h1zm0-.6c0-.24-.01-.47-.031-.69l-.996.092c.018.187.027.386.027.598h1zm-.357-2.089c-.1-.24-.222-.463-.368-.664l-.81.586c.096.134.182.287.255.462l.923-.384zm-.364-.658a2.99 2.99 0 00-.518-.566l-.648.762c.138.117.253.243.347.378l.819-.574zm-1.781-1.281a6.454 6.454 0 00-.665-.207l-.247.97c.203.051.39.11.562.174l.35-.937zm-.654-.203a8.104 8.104 0 00-.559-.135l-.201.98c.176.036.34.075.491.117l.269-.962zm-1.671-.307a19.605 19.605 0 00-1.106-.09l-.055.998c.376.021.726.05 1.049.086l.112-.994zm-2.205-.128a34.986 34.986 0 00-.548-.004v1c.182 0 .359.001.532.004l.016-1zm-.548-.004h-.493v1h.493v-1zm-1.48 0h-.986v1h.986v-1zm-1.972 0h-.986v1h.986v-1zm-1.973 0h-.986v1h.986v-1zm-1.972 0h-.493v1h.493v-1zm7.397 7.92h-.402v1h.402v-1zm-1.204 0h-.803v1h.803v-1zm-1.605 0h-.401v1h.401v-1zm.099.5v-.574h-1v.574h1zm0-1.721V12.58h-1v1.148h1zm0-2.295v-.574h-1v.574h1zm-.5-.074h.39v-1h-.39v1zm1.17 0h.78v-1h-.78v1zm1.56 0h.39v-1h-.39v1zm.39 0c.15 0 .291.002.424.005l.027-1a16.989 16.989 0 00-.451-.005v1zm1.245.063c.152.02.271.044.361.069l.267-.964a3.684 3.684 0 00-.497-.097l-.131.992zm.367.07c.063.017.118.035.165.054l.37-.93a2.478 2.478 0 00-.28-.09l-.255.966zm.384.187a.247.247 0 01.046.064l.895-.448a1.255 1.255 0 00-.225-.314l-.716.698zm.055.08a.66.66 0 01.052.137l.964-.268a1.677 1.677 0 00-.138-.348l-.878.478zm.112.548c.004.071.007.149.007.232h1c0-.1-.003-.197-.008-.29l-.999.058zm.007.232v.24h1v-.24h-1zm0 .72v.24h1v-.24h-1zm0 .24c0 .098-.003.19-.008.276l.998.062c.006-.109.01-.221.01-.338h-1zm-.084.78a1.12 1.12 0 01-.074.196l.895.448a2.05 2.05 0 00.142-.377l-.963-.268zm-.08.21a.414.414 0 01-.056.087l.766.643c.08-.094.146-.198.198-.31l-.908-.42zm-.267.242a1.38 1.38 0 01-.157.064l.316.948c.097-.032.191-.07.28-.114l-.439-.898zm-.157.064a2.295 2.295 0 01-.33.078l.167.986a3.27 3.27 0 00.479-.116l-.316-.948zm-1.094.147a9.994 9.994 0 01-.398.007v1c.151 0 .296-.002.434-.007l-.036-1zm-.278 8.227h-.417v1h.417v-1zm-1.249 0h-.833v1h.833v-1zm-1.665 0h-.416v1h.416v-1zm.084.5v-.433h-1v.433h1zm0-1.298v-.864h-1v.864h1zm0-1.73v-.864h-1v.864h1zm0-1.73v-.432h-1v.433h1zm-.5.068h.495v-1h-.495v1zm1.485 0h.99v-1h-.99v1zm1.98 0h.495v-1h-.495v1zm.495 0c.17 0 .328.005.474.015l.069-.997a7.817 7.817 0 00-.543-.018v1zm1.333.174c.138.05.233.107.297.16l.64-.768a1.982 1.982 0 00-.591-.33l-.346.938zm.307.168a.756.756 0 01.17.19l.842-.54a1.759 1.759 0 00-.393-.434l-.619.784zm.359.778c.013.109.021.228.021.36h1c0-.168-.01-.33-.029-.484l-.992.124zm.021.36v.39h1v-.39h-1zm0 1.17v.39h1v-.39h-1zm0 .39c0 .103-.01.194-.028.272l.976.217c.035-.158.052-.321.052-.489h-1zm-.251.674a1.002 1.002 0 01-.207.146l.476.88a1.98 1.98 0 00.415-.297l-.684-.73zm-.207.146a2.03 2.03 0 01-.464.17l.243.97c.257-.065.493-.15.697-.26l-.476-.88zm-1.596.316c-.186.01-.385.014-.596.014v1c.226 0 .441-.005.645-.015l-.049-.999zM128.698 7.53v-1h-1v1h1zm12.18.42l-.27.963.011.003.012.003.247-.969zm2.16 1.29l-.82.573.005.007.005.007.81-.587zm-.03 6.39l-.737-.676-.008.009-.008.009.753.658zm-1.5.99l-.297-.955-.703.218v.737h1zm0 .15h-1v.9l.895.095.105-.995zm2.07.99l-.683.73.012.012.012.01.659-.752zm-.93 8.25l-.464-.886.464.886zm-13.95.99h-1v1h1v-1zm9.54-11.73l-.317-.949.317.949zm.72-.57l-.895-.447-.007.014-.006.014.908.419zm.03-3.18l-.895.447.008.016.009.016.878-.479zm-.75-.51l-.268.964.013.003.255-.967zm-4.86-.15v-1h-1v1h1zm0 4.59h-1v1h1v-1zm5.76 7.83l-.477-.88.477.88zm.15-4.35l-.641.768.011.009.01.008.62-.785zm-5.91-.45v-1h-1v1h1zm0 5.19h-1v1h1v-1zm-5.68-16.14v.487h2V7.53h-2zm0 1.46v.974h2V8.99h-2zm0 1.947v.974h2v-.974h-2zm0 1.947v.974h2v-.974h-2zm0 1.947v.974h2v-.974h-2zm0 1.947v.974h2v-.974h-2zm0 1.947v.974h2v-.974h-2zm0 1.947v.974h2v-.974h-2zm0 1.947v.974h2v-.974h-2zm0 1.947v.974h2v-.974h-2zm0 1.947V27h2v-.487h-2zm1 1.487h.506v-2h-.506v2zm1.518 0h1.013v-2h-1.013v2zm2.025 0h1.013v-2h-1.013v2zm2.025 0h1.013v-2h-1.013v2zm2.025 0h.507v-2h-.507v2zm.507 0c.174 0 .346-.001.515-.004l-.033-2a29.33 29.33 0 01-.482.004v2zm1.551-.04c.361-.02.709-.049 1.043-.084l-.209-1.989a18.16 18.16 0 01-.945.075l.111 1.997zm2.096-.228c.373-.064.728-.14 1.063-.23l-.515-1.932a9.762 9.762 0 01-.887.19l.339 1.972zm2.133-.588c.185-.076.363-.159.534-.248l-.928-1.772c-.114.06-.237.117-.37.172l.764 1.848zm.534-.248c.19-.1.372-.21.544-.33l-1.146-1.64c-.099.07-.207.136-.326.198l.928 1.772zm1.501-1.24c.271-.353.48-.744.631-1.168l-1.885-.67a2.227 2.227 0 01-.333.62l1.587 1.217zm.897-2.402c.019-.198.028-.4.028-.604h-2c0 .146-.007.284-.019.415l1.991.188zm.028-.604v-.75h-2v.75h2zm0-2.25v-.75h-2v.75h2zm0-.75a3.19 3.19 0 00-.099-.79l-1.938.496c.024.093.037.19.037.294h2zm-.81-2.143a4.562 4.562 0 00-.492-.5l-1.317 1.506a2.4 2.4 0 01.276.279l1.533-1.285zm-.467-.477a5.281 5.281 0 00-.558-.456l-1.154 1.633c.115.081.23.175.346.283l1.366-1.46zm-1.904-1.11a4.313 4.313 0 00-.745-.145l-.209 1.99c.138.014.271.04.4.077l.554-1.921zm.151.85v-.037h-2v.037h2zm0-.113v-.037h-2v.037h2zm-.704.918c.191-.06.376-.131.556-.216l-.857-1.808a2.21 2.21 0 01-.292.114l.593 1.91zm1.547-.874a4.54 4.54 0 00.409-.413l-1.505-1.316a2.53 2.53 0 01-.231.233l1.327 1.496zm.394-.395c.129-.141.247-.288.353-.442l-1.648-1.134a2.135 2.135 0 01-.179.224l1.474 1.352zm.852-1.565c.047-.211.071-.425.071-.641h-2c0 .07-.008.139-.023.206l1.952.435zm.071-.641v-.6h-2v.6h2zm0-1.8v-.6h-2v.6h2zm0-.6c0-.254-.011-.5-.033-.737l-1.992.186c.016.17.025.353.025.551h2zm-.395-2.28a3.82 3.82 0 00-.425-.767l-1.62 1.174c.072.099.139.218.198.36l1.847-.767zm-.416-.753a3.548 3.548 0 00-.604-.66l-1.296 1.522c.108.092.193.187.261.284l1.639-1.146zm-2.016-1.464a7.033 7.033 0 00-.716-.222l-.494 1.938c.187.048.357.1.51.158l.7-1.874zm-.694-.216a8.547 8.547 0 00-.593-.143l-.403 1.96c.167.034.319.07.457.109l.539-1.926zm-1.75-.322c-.356-.04-.734-.07-1.134-.092l-.11 1.997c.368.02.708.048 1.02.083l.224-1.988zm-2.253-.13a35.613 35.613 0 00-.556-.005v2c.179 0 .354.001.524.004l.032-2zm-.556-.005h-.493v2h.493v-2zm-1.48 0h-.986v2h.986v-2zm-1.972 0h-.986v2h.986v-2zm-1.973 0h-.986v2h.986v-2zm-1.972 0h-.493v2h.493v-2zm7.397 7.92h-.402v2h.402v-2zm-1.204 0h-.803v2h.803v-2zm-1.605 0h-.401v2h.401v-2zm.599 1v-.574h-2v.574h2zm0-1.721V12.58h-2v1.148h2zm0-2.295v-.574h-2v.574h2zm-1 .426h.39v-2h-.39v2zm1.17 0h.78v-2h-.78v2zm1.56 0h.39v-2h-.39v2zm.39 0c.146 0 .283.002.41.005l.054-2a17.24 17.24 0 00-.464-.005v2zm1.179.059c.137.018.232.037.293.054l.535-1.927a4.176 4.176 0 00-.565-.11l-.263 1.982zm.306.058a.849.849 0 01.107.034l.74-1.858a3.022 3.022 0 00-.338-.11l-.509 1.934zm.153.051a.269.269 0 01-.043-.06l1.789-.895a1.745 1.745 0 00-.314-.44l-1.432 1.395zm-.026-.03c-.003-.005-.003-.006-.001 0l.011.033 1.926-.537a2.158 2.158 0 00-.18-.453L138.11 12zm.052.339c.004.06.006.128.006.203h2c0-.11-.003-.216-.009-.32l-1.997.117zm.006.203v.24h2v-.24h-2zm0 .72v.24h2v-.24h-2zm0 .24c0 .089-.003.17-.007.246l1.996.122c.007-.12.011-.242.011-.368h-2zm-.066.646a.596.596 0 01-.039.107l1.789.894c.076-.15.133-.308.177-.467l-1.927-.534zm-.052.135l.007-.014a.063.063 0 01.009-.011l1.531 1.286c.108-.128.198-.27.269-.423l-1.816-.838zm-.033.002a.778.778 0 01-.096.038l.633 1.898a2.77 2.77 0 00.342-.14l-.879-1.796zm-.096.038a1.68 1.68 0 01-.255.06l.334 1.972c.191-.033.378-.076.554-.134l-.633-1.898zm-.952.123c-.119.004-.246.006-.381.006v2c.157 0 .307-.002.452-.008l-.071-1.998zm-.261 8.226h-.417v2h.417v-2zm-1.249 0h-.833v2h.833v-2zm-1.665 0h-.416v2h.416v-2zm.584 1v-.433h-2v.433h2zm0-1.298v-.864h-2v.864h2zm0-1.73v-.864h-2v.864h2zm0-1.73v-.432h-2v.433h2zm-1 .568h.495v-2h-.495v2zm1.485 0h.99v-2h-.99v2zm1.98 0h.495v-2h-.495v2zm.495 0c.16 0 .306.005.439.014l.139-1.995a8.328 8.328 0 00-.578-.019v2zm1.16.143a.513.513 0 01.149.075l1.281-1.536a2.498 2.498 0 00-.738-.415l-.692 1.876zm.17.092a.27.27 0 01.06.067l1.683-1.08a2.261 2.261 0 00-.504-.557l-1.239 1.57zm.173.447c.01.086.017.184.017.298h2c0-.186-.011-.368-.033-.546l-1.984.248zm.017.298v.39h2v-.39h-2zm0 1.17v.39h2v-.39h-2zm0 .39a.733.733 0 01-.016.164l1.953.433c.043-.197.063-.397.063-.597h-2zm-.093.309a.495.495 0 01-.104.072l.953 1.758a2.5 2.5 0 00.519-.371l-1.368-1.46zm-.104.072a1.52 1.52 0 01-.347.123l.486 1.94c.286-.071.563-.169.814-.305l-.953-1.758zm-1.382.256c-.176.009-.367.013-.571.013v2c.233 0 .457-.005.669-.016l-.098-1.997zM155.541 7.53v-.5h-.5v.5h.5zm4.68 0h.5v-.5h-.5v.5zm0 7.14h-.5v.5h.5v-.5zm9.39 1.44l-.342.365.006.005.336-.37zM155.541 27h-.5v.5h.5V27zm18-19.47v-.5h-.5v.5h.5zm4.68 0h.5v-.5h-.5v.5zm0 19.47v.5h.5V27h-.5zm-4.68 0h-.5v.5h.5V27zm-8.46-3.81l.255.43.011-.007-.266-.423zm.03-4.86l-.195.46.195-.46zm-4.92-.33v-.5h-.5v.5h.5zm0 5.67h-.5v.5h.5v-.5zm-5.15-16.14v.487h1V7.53h-1zm0 1.46v.974h1V8.99h-1zm0 1.947v.974h1v-.974h-1zm0 1.947v.974h1v-.974h-1zm0 1.947v.974h1v-.974h-1zm0 1.947v.974h1v-.974h-1zm0 1.947v.974h1v-.974h-1zm0 1.947v.974h1v-.974h-1zm0 1.947v.974h1v-.974h-1zm0 1.947v.974h1v-.974h-1zm0 1.947V27h1v-.487h-1zm.5.987h.448v-1h-.448v1zm1.344 0h.896v-1h-.896v1zm1.793 0h.896v-1h-.896v1zm1.792 0h.896v-1h-.896v1zm1.792 0h.449v-1h-.449v1zm.449 0c.177 0 .352-.002.523-.005l-.02-1a25.18 25.18 0 01-.503.005v1zm1.573-.05c.365-.025.715-.059 1.051-.102l-.127-.992a16.6 16.6 0 01-.991.096l.067.998zm2.102-.276a10.62 10.62 0 001.043-.272l-.305-.953a9.287 9.287 0 01-.942.245l.204.98zm2.063-.678c.352-.172.672-.368.959-.59l-.611-.791c-.228.176-.49.337-.787.483l.439.898zm1.775-1.407c.237-.313.424-.654.562-1.024l-.938-.349a2.986 2.986 0 01-.421.77l.797.603zm.818-2.145c.019-.184.029-.372.029-.564h-1c0 .16-.008.314-.023.462l.994.102zm.029-.564v-.457h-1v.457h1zm0-1.372v-.915h-1v.915h1zm0-1.83v-.458h-1v.457h1zm0-.458c0-.272-.017-.532-.05-.781l-.991.133c.027.2.041.416.041.648h1zm-.578-2.327a3.1 3.1 0 00-.547-.654l-.671.741c.143.13.266.277.37.443l.848-.53zm-.54-.648a4.373 4.373 0 00-.648-.5l-.536.844c.183.116.349.245.5.386l.684-.73zm-2.111-1.133a7.217 7.217 0 00-.761-.165l-.161.986c.232.038.451.086.657.143l.265-.964zm-.761-.165a15.052 15.052 0 00-.554-.08l-.125.992c.181.023.354.048.518.074l.161-.986zm-1.658-.188a30.44 30.44 0 00-1.099-.06l-.037 1c.375.013.73.032 1.063.057l.073-.997zm-2.195-.086a51.485 51.485 0 00-.547-.003v1c.182 0 .361.001.536.003l.011-1zm-.547-.003h-.615v1h.615v-1zm-1.845 0h-.615v1h.615v-1zm-.115.5v-.446h-1v.446h1zm0-1.339v-.892h-1v.892h1zm0-1.785v-.892h-1v.892h1zm0-1.785V8.87h-1v.892h1zm0-1.785V7.53h-1v.446h1zm-.5-.946h-.585v1h.585v-1zm-1.755 0h-1.17v1h1.17v-1zm-2.34 0h-.585v1h.585v-1zm16.915.5v.487h1V7.53h-1zm0 1.46v.974h1V8.99h-1zm0 1.947v.974h1v-.974h-1zm0 1.947v.974h1v-.974h-1zm0 1.947v.974h1v-.974h-1zm0 1.947v.974h1v-.974h-1zm0 1.947v.974h1v-.974h-1zm0 1.947v.974h1v-.974h-1zm0 1.947v.974h1v-.974h-1zm0 1.947v.974h1v-.974h-1zm0 1.947V27h1v-.487h-1zm.5.987h.585v-1h-.585v1zm1.755 0h1.17v-1h-1.17v1zm2.34 0h.585v-1h-.585v1zm1.085-.5v-.487h-1V27h1zm0-1.46v-.974h-1v.974h1zm0-1.947v-.974h-1v.974h1zm0-1.947v-.974h-1v.974h1zm0-1.947v-.974h-1v.974h1zm0-1.947v-.974h-1v.974h1zm0-1.947v-.974h-1v.974h1zm0-1.947v-.974h-1v.974h1zm0-1.947v-.974h-1v.974h1zm0-1.947V8.99h-1v.974h1zm0-1.947V7.53h-1v.487h1zm-.5-.987h-.585v1h.585v-1zm-1.755 0h-1.17v1h1.17v-1zm-2.34 0h-.585v1h.585v-1zm-11.625 16.14h-.578v1h.578v-1zm-1.733 0h-.577v1h.577v-1zm-.077.5v-.473h-1v.473h1zm0-1.418v-.944h-1v.945h1zm0-1.89v-.944h-1v.945h1zm0-1.89V18h-1v.473h1zm-.5.028h.592v-1h-.592v1zm1.777 0h.593v-1h-.593v1zm.593 0c.221 0 .43.004.626.012l.04-1a16.54 16.54 0 00-.666-.012v1zm1.832.14c.219.043.391.095.523.15l.389-.92a3.715 3.715 0 00-.715-.211l-.197.98zm.523.15c.09.039.162.082.218.128l.633-.774a1.888 1.888 0 00-.462-.274l-.389.92zm.446.516c.018.08.029.174.029.284h1c0-.173-.017-.341-.053-.503l-.976.22zm.029.284v.518h1v-.518h-1zm0 1.552v.518h1v-.518h-1zm0 .518c0 .129-.012.244-.034.348l.978.206a2.65 2.65 0 00.056-.554h-1zm-.32.9c-.07.073-.154.143-.257.207l.533.846c.166-.104.316-.224.447-.362l-.723-.691zm-.245.2a2.203 2.203 0 01-.496.206l.282.96c.266-.079.51-.179.724-.306l-.51-.86zm-1.692.392a10.49 10.49 0 01-.633.018v1c.242 0 .473-.007.693-.02l-.06-.998zM155.541 7.53v-1h-1v1h1zm4.68 0h1v-1h-1v1zm0 7.14h-1v1h1v-1zm9.39 1.44l-.684.73.006.005.006.006.672-.741zM155.541 27h-1v1h1v-1zm18-19.47v-1h-1v1h1zm4.68 0h1v-1h-1v1zm0 19.47v1h1v-1h-1zm-4.68 0h-1v1h1v-1zm-8.46-3.81l.509.86.012-.007.011-.007-.532-.846zm.03-4.86l-.39.921.39-.921zm-4.92-.33v-1h-1v1h1zm0 5.67h-1v1h1v-1zm-5.65-16.14v.487h2V7.53h-2zm0 1.46v.974h2V8.99h-2zm0 1.947v.974h2v-.974h-2zm0 1.947v.974h2v-.974h-2zm0 1.947v.974h2v-.974h-2zm0 1.947v.974h2v-.974h-2zm0 1.947v.974h2v-.974h-2zm0 1.947v.974h2v-.974h-2zm0 1.947v.974h2v-.974h-2zm0 1.947v.974h2v-.974h-2zm0 1.947V27h2v-.487h-2zm1 1.487h.448v-2h-.448v2zm1.344 0h.896v-2h-.896v2zm1.793 0h.896v-2h-.896v2zm1.792 0h.896v-2h-.896v2zm1.792 0h.449v-2h-.449v2zm.449 0c.18 0 .358-.002.533-.005l-.04-2c-.161.003-.326.005-.493.005v2zm1.607-.052c.374-.025.734-.06 1.081-.104l-.254-1.984c-.304.04-.625.07-.962.093l.135 1.995zm2.17-.285c.383-.08.748-.175 1.094-.285l-.61-1.905a8.85 8.85 0 01-.892.232l.408 1.958zm2.181-.718a6.037 6.037 0 001.044-.643l-1.222-1.583c-.198.153-.43.297-.701.43l.879 1.796zm1.954-1.554a4.51 4.51 0 00.631-1.151l-1.874-.698a2.494 2.494 0 01-.352.642l1.595 1.207zm.917-2.395c.021-.202.031-.408.031-.616h-2c0 .144-.007.28-.021.41l1.99.206zm.031-.616v-.457h-2v.457h2zm0-1.372v-.915h-2v.915h2zm0-1.83v-.458h-2v.457h2zm0-.458c0-.292-.018-.575-.055-.848l-1.982.267c.024.175.037.369.037.581h2zm-.654-2.592a3.611 3.611 0 00-.635-.759l-1.343 1.482c.108.098.202.21.282.337l1.696-1.06zm-.622-.748a4.922 4.922 0 00-.722-.557l-1.072 1.688c.157.1.299.21.426.329l1.368-1.46zm-2.32-1.25a7.709 7.709 0 00-.813-.177l-.323 1.974c.216.035.417.079.605.13l.531-1.927zm-.813-.177c-.183-.03-.374-.057-.572-.082l-.251 1.984c.176.022.343.046.5.072l.323-1.974zm-1.702-.193a31.224 31.224 0 00-1.117-.06l-.075 1.998c.37.014.719.033 1.046.057l.146-1.995zm-2.227-.087c-.18-.002-.365-.003-.552-.003v2c.18 0 .357 0 .531.003l.021-2zm-.552-.003h-.615v2h.615v-2zm-1.845 0h-.615v2h.615v-2zm.385 1v-.446h-2v.446h2zm0-1.339v-.892h-2v.892h2zm0-1.785v-.892h-2v.892h2zm0-1.785V8.87h-2v.892h2zm0-1.785V7.53h-2v.446h2zm-1-1.446h-.585v2h.585v-2zm-1.755 0h-1.17v2h1.17v-2zm-2.34 0h-.585v2h.585v-2zm16.415 1v.487h2V7.53h-2zm0 1.46v.974h2V8.99h-2zm0 1.947v.974h2v-.974h-2zm0 1.947v.974h2v-.974h-2zm0 1.947v.974h2v-.974h-2zm0 1.947v.974h2v-.974h-2zm0 1.947v.974h2v-.974h-2zm0 1.947v.974h2v-.974h-2zm0 1.947v.974h2v-.974h-2zm0 1.947v.974h2v-.974h-2zm0 1.947V27h2v-.487h-2zm1 1.487h.585v-2h-.585v2zm1.755 0h1.17v-2h-1.17v2zm2.34 0h.585v-2h-.585v2zm1.585-1v-.487h-2V27h2zm0-1.46v-.974h-2v.974h2zm0-1.947v-.974h-2v.974h2zm0-1.947v-.974h-2v.974h2zm0-1.947v-.974h-2v.974h2zm0-1.947v-.974h-2v.974h2zm0-1.947v-.974h-2v.974h2zm0-1.947v-.974h-2v.974h2zm0-1.947v-.974h-2v.974h2zm0-1.947V8.99h-2v.974h2zm0-1.947V7.53h-2v.487h2zm-1-1.487h-.585v2h.585v-2zm-1.755 0h-1.17v2h1.17v-2zm-2.34 0h-.585v2h.585v-2zm-11.625 16.14h-.578v2h.578v-2zm-1.733 0h-.577v2h.577v-2zm.423 1v-.473h-2v.473h2zm0-1.418v-.944h-2v.945h2zm0-1.89v-.944h-2v.945h2zm0-1.89V18h-2v.473h2zm-1 .528h.592v-2h-.592v2zm1.777 0h.593v-2h-.593v2zm.593 0c.216 0 .417.004.606.012l.08-1.999a17.05 17.05 0 00-.686-.013v2zm1.734.13c.196.039.334.082.426.121l.779-1.842a4.217 4.217 0 00-.812-.24l-.393 1.96zm.426.121a.384.384 0 01.096.054l1.266-1.548a2.384 2.384 0 00-.583-.348l-.779 1.842zm.153.165c.009.04.017.096.017.174h2c0-.205-.02-.41-.065-.612l-1.952.438zm.017.174v.518h2v-.518h-2zm0 1.552v.518h2v-.518h-2zm0 .518c0 .098-.009.178-.023.244l1.956.414a3.15 3.15 0 00.067-.658h-2zm-.181.554a.85.85 0 01-.162.13l1.065 1.692c.198-.124.38-.27.542-.44l-1.445-1.382zm-.139.116c-.086.05-.209.106-.382.157l.564 1.918a3.66 3.66 0 00.837-.355l-1.019-1.72zm-1.467.323c-.187.011-.388.017-.603.017v2c.251 0 .492-.007.723-.02l-.12-1.997zM190.235 7.53v-.5h-.5v.5h.5zm13.83 0h.5v-.5h-.5v.5zm0 3.33v.5h.5v-.5h-.5zm-9.15 0v-.5h-.5v.5h.5zm0 4.41h-.5v.5h.5v-.5zm7.23.33l-.1.49.009.002.091-.492zm2.46 1.2l-.365.341.006.007.006.006.353-.354zM190.235 27h-.5v.5h.5V27zm9.75-3.81l.255.43.012-.007-.267-.423zm.03-4.26l.195-.46-.195.46zm-5.13-.33v-.5h-.5v.5h.5zm0 5.07h-.5v.5h.5v-.5zm-5.15-16.14v.487h1V7.53h-1zm0 1.46v.974h1V8.99h-1zm0 1.947v.974h1v-.974h-1zm0 1.947v.974h1v-.974h-1zm0 1.947v.974h1v-.974h-1zm0 1.947v.974h1v-.974h-1zm0 1.947v.974h1v-.974h-1zm0 1.947v.974h1v-.974h-1zm0 1.947v.974h1v-.974h-1zm0 1.947v.974h1v-.974h-1zm0 1.947V27h1v-.487h-1zm.5.987h.461v-1h-.461v1zm1.384 0h.922v-1h-.922v1zm1.845 0h.922v-1h-.922v1zm1.845 0h.922v-1h-.922v1zm1.845 0h.461v-1h-.461v1zm.461 0c.177 0 .352-.002.524-.005l-.02-1c-.165.003-.333.005-.504.005v1zm1.574-.05c.364-.025.715-.059 1.051-.102l-.127-.992c-.315.04-.645.072-.992.096l.068.998zm2.102-.276a10.77 10.77 0 001.043-.272l-.305-.953a9.356 9.356 0 01-.942.245l.204.98zm2.063-.678c.351-.172.672-.368.958-.59l-.611-.791a4.525 4.525 0 01-.787.483l.44.898zm1.775-1.407a4 4 0 00.561-1.024l-.937-.349a2.989 2.989 0 01-.422.77l.798.603zm.818-2.145a5.49 5.49 0 00.028-.564h-1c0 .16-.008.314-.023.462l.995.102zm.028-.564v-.383h-1v.383h1zm0-1.147v-.765h-1v.765h1zm0-1.53v-.383h-1v.383h1zm0-.383a5.98 5.98 0 00-.045-.746l-.992.127c.024.192.037.398.037.619h1zm-.522-2.229a3.133 3.133 0 00-.494-.645l-.707.708c.129.129.241.275.336.438l.865-.5zm-.482-.632a3.792 3.792 0 00-.607-.523l-.57.821c.167.117.316.245.446.384l.731-.682zm-2.006-1.176a7.015 7.015 0 00-.729-.175l-.182.984c.222.04.43.09.625.149l.286-.958zm-.72-.173c-.177-.036-.363-.07-.557-.1l-.154.989c.18.028.351.058.511.09l.2-.979zm-1.666-.232a25.32 25.32 0 00-1.104-.073l-.045.999c.375.017.729.04 1.06.07l.089-.996zm-2.205-.104a42.732 42.732 0 00-.549-.004v1c.183 0 .361.001.536.003l.013-1zm-.549-.004h-.727v1h.727v-1zm-2.182 0h-.728v1h.728v-1zm-.228.5v-.551h-1v.551h1zm0-1.654v-1.102h-1v1.102h1zm0-2.205v-.551h-1v.551h1zm-.5-.051h.458v-1h-.458v1zm1.373 0h.915v-1h-.915v1zm1.83 0h.915v-1h-.915v1zm1.83 0h.915v-1h-.915v1zm1.83 0h.915v-1h-.915v1zm1.83 0h.457v-1h-.457v1zm.957-.5v-.416h-1v.416h1zm0-1.249V8.78h-1v.832h1zm0-1.665V7.53h-1v.416h1zm-.5-.916h-.494v1h.494v-1zm-1.482 0h-.987v1h.987v-1zm-1.975 0h-.988v1h.988v-1zm-1.976 0h-.988v1h.988v-1zm-1.976 0h-.988v1h.988v-1zm-1.975 0h-.988v1h.988v-1zm-1.976 0h-.988v1h.988v-1zm-1.976 0h-.494v1h.494v-1zm6.676 16.14h-.63v1h.63v-1zm-1.89 0h-.63v1h.63v-1zm-.13.5v-.423h-1v.423h1zm0-1.268v-.845h-1v.846h1zm0-1.69v-.845h-1v.845h1zm0-1.69V18.6h-1v.422h1zm-.5.078h.645v-1h-.645v1zm1.935 0h.645v-1h-.645v1zm.645 0c.222 0 .431.004.626.012l.041-1a16.592 16.592 0 00-.667-.012v1zm1.833.14c.219.043.391.095.522.15l.39-.92a3.726 3.726 0 00-.716-.211l-.196.98zm.522.15a.877.877 0 01.218.128l.633-.774a1.881 1.881 0 00-.461-.274l-.39.92zm.447.516c.018.08.028.174.028.284h1c0-.173-.016-.341-.053-.503l-.975.22zm.028.284v.367h1v-.367h-1zm0 1.102v.368h1v-.367h-1zm0 .368c0 .129-.012.244-.034.348l.979.206c.037-.178.055-.363.055-.554h-1zm-.319.9c-.07.073-.155.143-.257.207l.533.846a2.38 2.38 0 00.447-.362l-.723-.691zm-.246.2a2.164 2.164 0 01-.496.206l.283.96c.266-.079.509-.179.723-.306l-.51-.86zm-1.692.392c-.197.012-.408.018-.633.018v1c.243 0 .474-.007.693-.02l-.06-.998zM190.235 7.53v-1h-1v1h1zm13.83 0h1v-1h-1v1zm0 3.33v1h1v-1h-1zm-9.15 0v-1h-1v1h1zm0 4.41h-1v1h1v-1zm7.23.33l-.199.98.008.002.009.001.182-.983zm2.46 1.2l-.731.682.012.013.012.012.707-.707zM190.235 27h-1v1h1v-1zm9.75-3.81l.51.86.012-.007.011-.007-.533-.846zm.03-4.26l.39-.921-.39.921zm-5.13-.33v-1h-1v1h1zm0 5.07h-1v1h1v-1zm-5.65-16.14v.487h2V7.53h-2zm0 1.46v.974h2V8.99h-2zm0 1.947v.974h2v-.974h-2zm0 1.947v.974h2v-.974h-2zm0 1.947v.974h2v-.974h-2zm0 1.947v.974h2v-.974h-2zm0 1.947v.974h2v-.974h-2zm0 1.947v.974h2v-.974h-2zm0 1.947v.974h2v-.974h-2zm0 1.947v.974h2v-.974h-2zm0 1.947V27h2v-.487h-2zm1 1.487h.461v-2h-.461v2zm1.384 0h.922v-2h-.922v2zm1.845 0h.922v-2h-.922v2zm1.845 0h.922v-2h-.922v2zm1.845 0h.461v-2h-.461v2zm.461 0c.181 0 .359-.002.534-.005l-.04-2a26.58 26.58 0 01-.494.005v2zm1.608-.052c.373-.025.734-.06 1.08-.104l-.254-1.984c-.304.04-.624.07-.961.093l.135 1.995zm2.17-.285c.383-.08.747-.175 1.093-.285l-.61-1.905a8.76 8.76 0 01-.891.232l.408 1.958zm2.181-.718a6.075 6.075 0 001.044-.643l-1.222-1.583a4.13 4.13 0 01-.701.43l.879 1.796zm1.953-1.554a4.53 4.53 0 00.632-1.151l-1.875-.698a2.521 2.521 0 01-.351.642l1.594 1.207zm.917-2.395c.021-.202.031-.408.031-.616h-2c0 .144-.007.28-.02.41l1.989.206zm.031-.616v-.383h-2v.383h2zm0-1.147v-.765h-2v.765h2zm0-1.53v-.383h-2v.383h2zm0-.383a6.48 6.48 0 00-.049-.81l-1.984.255c.022.168.033.353.033.555h2zm-.589-2.48a3.603 3.603 0 00-.574-.747l-1.414 1.414a1.6 1.6 0 01.257.336l1.731-1.003zm-.55-.722a4.264 4.264 0 00-.687-.593l-1.141 1.643c.14.097.261.202.366.314l1.462-1.364zm-2.228-1.315a7.526 7.526 0 00-.781-.186l-.364 1.966c.206.039.397.084.573.137l.572-1.917zm-.763-.183a12.667 12.667 0 00-.58-.103l-.307 1.976c.172.027.335.056.488.087l.399-1.96zm-1.722-.24a25.7 25.7 0 00-1.126-.075l-.09 1.998c.369.017.715.04 1.038.069l.178-1.992zm-2.242-.106a42.14 42.14 0 00-.556-.004v2c.181 0 .357.001.53.003l.026-2zm-.556-.004h-.727v2h.727v-2zm-2.182 0h-.728v2h.728v-2zm.272 1v-.551h-2v.551h2zm0-1.654v-1.102h-2v1.102h2zm0-2.205v-.551h-2v.551h2zm-1 .449h.458v-2h-.458v2zm1.373 0h.915v-2h-.915v2zm1.83 0h.915v-2h-.915v2zm1.83 0h.915v-2h-.915v2zm1.83 0h.915v-2h-.915v2zm1.83 0h.457v-2h-.457v2zm1.457-1v-.416h-2v.416h2zm0-1.249V8.78h-2v.832h2zm0-1.665V7.53h-2v.416h2zm-1-1.416h-.494v2h.494v-2zm-1.482 0h-.987v2h.987v-2zm-1.975 0h-.988v2h.988v-2zm-1.976 0h-.988v2h.988v-2zm-1.976 0h-.988v2h.988v-2zm-1.975 0h-.988v2h.988v-2zm-1.976 0h-.988v2h.988v-2zm-1.976 0h-.494v2h.494v-2zm6.676 16.14h-.63v2h.63v-2zm-1.89 0h-.63v2h.63v-2zm.37 1v-.423h-2v.423h2zm0-1.268v-.845h-2v.846h2zm0-1.69v-.845h-2v.845h2zm0-1.69V18.6h-2v.422h2zm-1 .578h.645v-2h-.645v2zm1.935 0h.645v-2h-.645v2zm.645 0c.216 0 .418.004.606.011l.081-1.998a17.065 17.065 0 00-.687-.013v2zm1.734.13c.196.039.334.082.427.121l.779-1.842a4.26 4.26 0 00-.812-.24l-.394 1.96zm.427.121a.405.405 0 01.096.054l1.266-1.548a2.403 2.403 0 00-.583-.348l-.779 1.842zm.153.165a.8.8 0 01.016.174h2c0-.205-.019-.41-.065-.612l-1.951.438zm.016.174v.367h2v-.367h-2zm0 1.102v.368h2v-.367h-2zm0 .368c0 .098-.009.178-.023.244l1.957.414c.045-.216.066-.436.066-.658h-2zm-.18.554a.86.86 0 01-.163.13l1.066 1.692c.197-.124.38-.27.542-.44l-1.445-1.382zm-.14.116c-.085.05-.208.106-.382.157l.565 1.918c.297-.087.58-.203.837-.355l-1.02-1.72zm-1.467.323c-.186.011-.387.017-.603.017v2c.251 0 .493-.007.723-.02l-.12-1.997zm24.362 4.437l-.077.494h.002l.075-.494zm-2.82-.72l.164-.472-.003-.001-.161.473zm-2.49-1.74l-.403.295.003.005.4-.3zm-.27-14.07l-.433-.25-.005.008.438.242zm1.68-1.8l-.267-.422-.005.002.272.42zm2.22-.96l.142.48-.142-.48zm2.46-.48l.039.498h.004l-.043-.498zm4.62.03l-.058.497h.007l.007.001.044-.498zm2.28.42l.14-.48-.013-.004-.127.484zm2.37 1.02l.271-.42-.271.42zm1.56 1.68l-.432.252.002.004.43-.256zm-.21 13.98l-.401-.298-.005.006.406.292zm-2.34 1.77l-.186-.464.186.464zm-4.35-2.31l.045.498h.01l.01-.002-.065-.496zm1.41-.3l-.14-.48.14.48zm1.08-.69l-.397-.304-.003.004.4.3zm-.72-11.76l-.238.44.01.005.228-.445zm-7.62 11.76l-.397.304.004.006.005.005.388-.315zm1.14.69l.14-.48-.005-.002-.135.482zm1.38.3l-.067.495.012.002.012.001.043-.498zm1.62 2.89c-.124 0-.247 0-.369-.003l-.015 1c.127.002.255.003.384.003v-1zm-1.104-.026a19.603 19.603 0 01-.732-.05l-.086.997c.251.021.508.039.769.052l.049-1zm-1.459-.128a15.947 15.947 0 01-.362-.05l-.15.988c.126.02.254.038.384.054l.128-.992zm-.36-.05a13.48 13.48 0 01-.691-.126l-.205.979c.25.052.497.097.742.135l.154-.988zm-2.059-.479c-.222-.067-.447-.14-.674-.22l-.328.945c.239.083.476.16.711.232l.291-.957zm-.677-.22a6.125 6.125 0 01-.333-.125l-.378.926c.127.052.256.1.389.145l.322-.946zm-.964-.433a4.516 4.516 0 01-.572-.392l-.628.777c.217.177.451.337.699.48l.501-.865zm-1.069-.867a4.1 4.1 0 01-.218-.267l-.8.6c.086.114.176.224.27.33l.748-.663zm-.214-.262a3.7 3.7 0 01-.195-.292l-.856.517c.076.125.157.247.244.365l.807-.59zm-.502-.92a4.283 4.283 0 01-.198-.68l-.979.202c.059.29.14.568.243.836l.934-.359zm-.291-1.391a6.17 6.17 0 01-.011-.364h-1c0 .144.004.285.013.425l.998-.061zm-.011-.364v-.532h-1v.532h1zm0-1.598v-1.065h-1v1.066h1zm0-2.13v-1.064h-1v1.065h1zm0-2.13v-1.064h-1v1.065h1zm0-2.13v-.532h-1v.532h1zm0-.532c0-.212.011-.417.033-.615l-.994-.11a6.63 6.63 0 00-.039.725h1zm.314-1.793c.072-.188.157-.37.254-.545l-.876-.484c-.119.216-.223.44-.312.67l.934.36zm.249-.537a5.27 5.27 0 01.31-.476l-.809-.59c-.13.18-.252.368-.367.566l.866.5zm1.071-1.298c.142-.12.291-.231.448-.332l-.544-.84a5.31 5.31 0 00-.549.408l.645.764zm.444-.33a6.04 6.04 0 01.487-.277l-.456-.89c-.199.102-.388.21-.566.323l.535.844zm1.541-.724c.176-.062.361-.122.553-.178l-.284-.96a12.6 12.6 0 00-.601.195l.332.943zm.553-.178c.198-.06.394-.113.585-.16l-.243-.97a15.51 15.51 0 00-.626.17l.284.96zm1.765-.395c.203-.03.4-.051.592-.067l-.078-.996c-.215.016-.433.04-.656.073l.142.99zm.596-.067c.178-.015.358-.028.542-.04l-.062-.998c-.191.012-.38.026-.566.042l.086.996zm1.631-.083c.18-.003.362-.005.546-.005v-1c-.191 0-.379.002-.565.005l.019 1zm.546-.005c.203 0 .4.002.591.006l.021-1a29.51 29.51 0 00-.612-.006v1zm1.763.06c.203.016.396.035.579.057l.116-.994a15.442 15.442 0 00-.618-.06l-.077.998zm.593.058c.177.016.36.037.549.064l.142-.99a11.08 11.08 0 00-.603-.07l-.088.996zm1.649.271c.178.04.361.086.548.135l.254-.968a20.2 20.2 0 00-.579-.142l-.223.975zm.535.131c.207.06.404.123.593.189l.328-.945a13.09 13.09 0 00-.641-.204l-.28.96zm1.721.663c.187.096.359.195.518.297l.542-.84a7.009 7.009 0 00-.604-.347l-.456.89zm.518.297c.143.092.28.194.411.306l.648-.762a4.842 4.842 0 00-.517-.384l-.542.84zm1.111 1.069c.101.138.197.286.288.443l.864-.504a6.421 6.421 0 00-.343-.526l-.809.587zm.29.447c.104.173.194.357.27.552l.931-.366a4.88 4.88 0 00-.341-.698l-.86.511zm.558 1.771c.021.205.032.42.032.643h1c0-.256-.012-.505-.038-.747l-.994.104zm.032.643v.532h1v-.532h-1zm0 1.598v1.065h1v-1.066h-1zm0 2.13v1.065h1v-1.066h-1zm0 2.13v1.064h1v-1.065h-1zm0 2.13v.532h1v-.532h-1zm0 .532c0 .234-.015.459-.044.674l.991.135c.035-.262.053-.532.053-.809h-1zm-.427 1.933c-.097.195-.212.38-.344.559l.802.596c.167-.223.312-.459.436-.706l-.894-.449zm-.349.565c-.13.181-.273.35-.429.508l.711.703a5.2 5.2 0 00.53-.627l-.812-.584zm-1.501 1.307a5.52 5.52 0 01-.619.29l.372.93c.254-.102.496-.216.727-.342l-.48-.878zm-.619.29c-.153.062-.308.12-.465.177l.336.942c.169-.06.336-.124.501-.19l-.372-.928zm-1.414.477c-.317.088-.64.165-.97.233l.2.98a16.17 16.17 0 001.037-.25l-.267-.963zm-1.956.401a16.52 16.52 0 01-.997.109l.079.996c.358-.028.71-.066 1.056-.114l-.138-.99zm-2 .16c-.167.005-.335.007-.504.007v1c.178 0 .354-.002.529-.007l-.025-1zm-.444-3.323c-.143 0-.28-.001-.413-.003l-.014 1c.137.002.28.003.427.003v-1zm-1.233-.03a13.066 13.066 0 01-.404-.028l-.086.996c.137.012.282.022.435.03l.055-.998zm-.379-.025a7.759 7.759 0 01-.329-.052l-.176.984a8.1 8.1 0 00.37.058l.135-.99zm-.983-.196a10.683 10.683 0 01-.325-.089l-.28.96c.12.035.239.067.356.098l.249-.969zm-.33-.09a2.552 2.552 0 01-.268-.091l-.375.927c.119.048.244.09.373.127l.27-.963zm-.717-.353a1.275 1.275 0 01-.17-.171l-.776.63c.091.113.193.216.305.31l.641-.769zm-.161-.16a1.286 1.286 0 01-.128-.205l-.894.449c.065.128.141.25.228.364l.794-.608zm-.27-.686a2.093 2.093 0 01-.017-.27h-1c0 .136.008.27.025.4l.992-.13zm-.017-.27v-.534h-1v.534h1zm0-1.603v-1.069h-1v1.069h1zm0-2.138v-1.068h-1v1.068h1zm0-2.137v-1.069h-1v1.069h1zm0-2.138v-.534h-1v.534h1zm0-.534c0-.184.017-.349.047-.496l-.979-.202a3.438 3.438 0 00-.068.698h1zm.462-1.274c.103-.097.227-.184.376-.261l-.456-.89a2.604 2.604 0 00-.606.424l.686.727zm.376-.261c.103-.053.218-.103.346-.149l-.339-.94a3.91 3.91 0 00-.463.2l.456.889zm1.12-.353a8.64 8.64 0 01.826-.11l-.089-.996c-.329.029-.636.07-.921.124l.184.982zm1.674-.157c.138-.003.281-.005.428-.005v-1c-.155 0-.306.002-.453.005l.025 1zm.428-.005c.147 0 .29.002.429.005l.026-1a22.43 22.43 0 00-.455-.005v1zm1.277.055c.301.028.576.067.824.116l.194-.98a9.216 9.216 0 00-.924-.132l-.094.996zm1.593.33c.127.048.241.1.342.155l.476-.88a3.837 3.837 0 00-.462-.21l-.356.935zm.352.16c.148.076.272.163.375.258l.68-.732a2.629 2.629 0 00-.599-.416l-.456.89zm.791 1.02c.03.143.047.305.047.485h1c0-.241-.022-.473-.069-.694l-.978.208zm.047.485v.534h1v-.534h-1zm0 1.603v1.069h1v-1.069h-1zm0 2.138v1.068h1v-1.068h-1zm0 2.137v1.069h1v-1.069h-1zm0 2.138v.534h1v-.534h-1zm0 .534c0 .096-.006.186-.017.27l.992.13a3.09 3.09 0 00.025-.4h-1zm-.159.751c-.036.073-.079.14-.128.205l.794.608a2.35 2.35 0 00.228-.364l-.894-.449zm-.131.209c-.044.06-.095.114-.153.166l.665.747a2.1 2.1 0 00.288-.313l-.8-.6zm-.568.42a2.286 2.286 0 01-.252.09l.28.96c.126-.037.247-.08.363-.129l-.391-.92zm-.252.09a9.4 9.4 0 01-.331.09l.246.97c.121-.031.243-.064.365-.1l-.28-.96zm-.999.233c-.112.02-.224.037-.336.051l.13.992a9 9 0 00.377-.057l-.171-.986zm-.316.05c-.122.01-.253.02-.395.028l.056.998c.152-.009.295-.019.429-.031l-.09-.996zm-1.199.054a27.8 27.8 0 01-.406.003v1c.145 0 .285-.001.42-.003l-.014-1zm-3.466 3.623l-.154.988h.004l.15-.988zm-2.82-.72l.328-.945-.006-.002-.322.947zm-2.49-1.74l-.807.59.007.01.8-.6zm-.27-14.07l-.865-.501-.005.009-.005.008.875.484zm1.68-1.8l-.535-.845-.008.005.543.84zm2.22-.96l.283.959-.283-.959zm2.46-.48l.079.997h.006l-.085-.997zm4.62.03l-.117.993.015.002.014.001.088-.996zm2.28.42l.28-.96-.013-.004-.014-.003-.253.967zm2.37 1.02l.542-.84-.542.84zm1.56 1.68l-.864.504.005.007.859-.511zm-.21 13.98l-.802-.597-.005.007-.005.007.812.583zm-2.34 1.77l-.371-.928.371.928zm-4.35-2.31l.091.996.019-.002.019-.002-.129-.992zm1.41-.3l-.28-.96.28.96zm1.08-.69l-.794-.608-.006.008.8.6zm-.72-11.76l-.475.88.009.005.009.005.457-.89zm-7.62 11.76l-.794.607.009.012.009.012.776-.631zm1.14.69l.28-.96-.01-.003-.27.963zm1.38.3l-.135.99.024.004.024.002.087-.996zm1.62 2.39c-.121 0-.242 0-.361-.003l-.031 2c.13.002.26.003.392.003v-2zm-1.079-.026a18.994 18.994 0 01-.714-.048l-.172 1.993c.258.022.52.04.788.053l.098-1.998zm-1.421-.123a15.36 15.36 0 01-.349-.05l-.301 1.978c.13.02.262.038.395.055l.255-1.983zm-.346-.05a12.938 12.938 0 01-.666-.12l-.409 1.957c.258.054.514.1.767.14l.308-1.976zm-1.99-.462a17.44 17.44 0 01-.656-.214l-.656 1.89c.245.085.488.164.73.237l.582-1.913zm-.662-.216a5.378 5.378 0 01-.305-.113l-.757 1.85c.137.057.276.109.418.157l.644-1.894zm-.874-.392a3.877 3.877 0 01-.508-.348l-1.258 1.555c.239.193.493.368.763.524l1.003-1.73zm-.946-.766a3.586 3.586 0 01-.192-.235l-1.6 1.2c.094.125.192.246.296.362l1.496-1.327zm-.185-.226a3.527 3.527 0 01-.17-.254l-1.712 1.034c.084.137.173.271.268.402l1.614-1.181zm-.438-.804a3.794 3.794 0 01-.175-.6l-1.959.403c.065.315.154.62.267.914l1.867-.717zm-.259-1.242a5.157 5.157 0 01-.01-.333h-2c0 .154.005.306.014.456l1.996-.123zm-.01-.333v-.532h-2v.532h2zm0-1.598v-1.065h-2v1.066h2zm0-2.13v-1.064h-2v1.065h2zm0-2.13v-1.064h-2v1.065h2zm0-2.13v-.532h-2v.532h2zm0-.532c0-.194.01-.381.03-.56l-1.988-.22a7.149 7.149 0 00-.042.78h2zm.281-1.614c.063-.166.138-.327.224-.482l-1.75-.968a5.82 5.82 0 00-.342.733l1.868.718zm.215-.465c.089-.154.182-.298.281-.433L216.32 9.45a6.78 6.78 0 00-.395.609l1.731 1.002zm.96-1.167c.126-.107.259-.205.397-.294l-1.086-1.68c-.21.136-.41.284-.601.445l1.29 1.529zm.389-.29c.138-.086.287-.171.448-.254l-.912-1.78a7.664 7.664 0 00-.606.345l1.07 1.69zm1.44-.674a9.65 9.65 0 01.528-.171l-.566-1.918c-.215.063-.424.13-.626.202l.664 1.887zm.528-.171c.193-.057.381-.108.566-.154l-.486-1.94a16.07 16.07 0 00-.646.176l.566 1.918zm1.695-.38c.193-.027.379-.048.561-.062l-.158-1.994c-.225.018-.454.044-.687.077l.284 1.98zm.567-.063c.174-.015.351-.028.531-.039l-.123-1.996c-.195.012-.388.026-.578.043l.17 1.992zm1.598-.081c.177-.003.356-.005.537-.005v-2c-.194 0-.385.002-.574.005l.037 2zm.537-.005c.2 0 .393.002.58.006l.042-2a30.128 30.128 0 00-.622-.006v2zm1.725.06c.197.015.383.032.558.053l.234-1.986a16.06 16.06 0 00-.638-.062l-.154 1.994zm.587.056c.167.015.341.035.522.061l.284-1.98a12.45 12.45 0 00-.63-.073l-.176 1.992zm1.582.26c.173.04.35.084.533.131l.506-1.934a18.486 18.486 0 00-.594-.146l-.445 1.95zm.506.124c.199.058.389.118.569.181l.656-1.89a13.95 13.95 0 00-.665-.211l-.56 1.92zm1.633.628c.173.089.331.18.475.272l1.084-1.68a7.56 7.56 0 00-.647-.372l-.912 1.78zm.475.272c.124.08.243.169.358.267l1.296-1.524a5.354 5.354 0 00-.57-.423l-1.084 1.68zm.977.942c.091.125.178.259.261.402l1.728-1.008a6.986 6.986 0 00-.37-.568l-1.619 1.174zm.266.41c.089.15.167.309.234.479l1.861-.732a5.326 5.326 0 00-.376-.77l-1.719 1.022zm.489 1.567c.02.187.03.384.03.591h2c0-.272-.013-.538-.04-.799l-1.99.208zm.03.591v.532h2v-.532h-2zm0 1.598v1.065h2v-1.066h-2zm0 2.13v1.065h2v-1.066h-2zm0 2.13v1.064h2v-1.065h-2zm0 2.13v.532h2v-.532h-2zm0 .532c0 .213-.013.415-.04.607l1.982.27c.039-.287.058-.579.058-.877h-2zm-.373 1.709c-.085.168-.184.33-.299.484l1.605 1.194c.183-.247.344-.507.481-.78l-1.787-.898zm-.309.498a3.86 3.86 0 01-.378.448l1.422 1.406a5.71 5.71 0 00.58-.688l-1.624-1.166zm-1.335 1.16a5.237 5.237 0 01-.564.264l.742 1.857a7.2 7.2 0 00.782-.366l-.96-1.755zm-.564.264c-.148.06-.297.116-.448.17l.673 1.883c.174-.062.347-.127.517-.196l-.742-1.857zm-1.362.459c-.306.084-.618.16-.937.225l.4 1.96c.363-.075.72-.16 1.07-.258l-.533-1.927zm-1.892.388c-.316.044-.638.08-.967.105l.158 1.994c.367-.03.728-.068 1.084-.118l-.275-1.98zm-1.944.156c-.162.004-.326.006-.491.006v2c.182 0 .362-.002.542-.007l-.051-2zm-.431-3.324c-.14 0-.276 0-.406-.003l-.029 2c.141.002.286.003.435.003v-2zm-1.205-.03a12.233 12.233 0 01-.388-.026l-.174 1.992c.144.013.294.023.451.032l.111-1.997zm-.34-.02a7.47 7.47 0 01-.307-.05l-.354 1.969c.131.024.262.044.391.062l.27-1.982zm-.925-.185a9.983 9.983 0 01-.31-.085l-.56 1.92c.125.036.249.07.372.102l.498-1.937zm-.32-.088a2.057 2.057 0 01-.215-.072l-.751 1.853c.138.056.28.104.426.145l.54-1.926zm-.531-.255a.765.765 0 01-.103-.103l-1.552 1.262c.112.138.237.263.373.377l1.282-1.536zm-.085-.08a.79.79 0 01-.078-.125l-1.788.897c.079.157.171.305.278.444l1.588-1.215zm-.171-.446a1.594 1.594 0 01-.013-.206h-2c0 .156.009.311.029.464l1.984-.258zm-.013-.206v-.534h-2v.534h2zm0-1.603v-1.069h-2v1.069h2zm0-2.138v-1.068h-2v1.068h2zm0-2.137v-1.069h-2v1.069h2zm0-2.138v-.534h-2v.534h2zm0-.534c0-.154.014-.285.037-.395l-1.959-.405c-.054.26-.078.527-.078.8h2zm.306-.91a1.1 1.1 0 01.261-.18l-.914-1.78a3.138 3.138 0 00-.721.506l1.374 1.454zm.261-.18c.081-.042.176-.084.287-.124l-.679-1.88c-.182.065-.356.14-.522.224l.914 1.78zm.983-.306a8.07 8.07 0 01.778-.104l-.178-1.992a9.95 9.95 0 00-.968.13l.368 1.966zm1.594-.149c.134-.003.273-.005.416-.005v-2a17.7 17.7 0 00-.466.006l.05 1.999zm.416-.005c.143 0 .281.002.416.005l.052-1.999a17.957 17.957 0 00-.468-.006v2zm1.23.052c.287.027.544.064.774.11l.388-1.962a9.708 9.708 0 00-.975-.139l-.187 1.991zm1.462.3c.109.041.203.084.283.128l.951-1.76a4.386 4.386 0 00-.522-.237l-.712 1.87zm.301.138c.112.057.197.118.263.18l1.362-1.466a3.172 3.172 0 00-.711-.494l-.914 1.78zm.531.678c.022.106.036.232.036.382h2c0-.272-.025-.54-.08-.798l-1.956.416zm.036.382v.534h2v-.534h-2zm0 1.603v1.069h2v-1.069h-2zm0 2.138v1.068h2v-1.068h-2zm0 2.137v1.069h2v-1.069h-2zm0 2.138v.534h2v-.534h-2zm0 .534c0 .076-.004.144-.013.206l1.984.258a3.58 3.58 0 00.029-.464h-2zm-.106.527a.79.79 0 01-.078.125l1.588 1.215c.107-.139.199-.286.278-.443l-1.788-.897zm-.084.133a.61.61 0 01-.086.093l1.331 1.493a2.65 2.65 0 00.355-.386l-1.6-1.2zm-.363.26a1.825 1.825 0 01-.197.07l.56 1.92c.143-.042.283-.09.418-.148l-.781-1.841zm-.197.07c-.105.03-.21.06-.314.086l.492 1.938c.127-.032.254-.067.382-.104l-.56-1.92zm-.944.22a7.614 7.614 0 01-.315.048l.258 1.984c.133-.018.265-.038.398-.06l-.341-1.971zm-.276.044c-.116.01-.241.02-.378.027l.113 1.997c.156-.009.305-.02.446-.032l-.181-1.992zm-1.161.053c-.128.002-.26.003-.399.003v2c.147 0 .29-.001.427-.003l-.028-2zM246.206 7.53v-.5h-.5v.5h.5zm12.3.39l-.115.487h.002l.113-.487zm2.43 1.38l-.398.302.005.007.005.006.388-.315zm-.06 9.39l-.394-.307-.006.007.4.3zm-2.61 1.53l-.121-.485h-.002l.123.485zm-7.38.45v-.5h-.5v.5h.5zm0 6.33v.5h.5V27h-.5zm-4.68 0h-.5v.5h.5V27zm10.23-9.96l.245.436.006-.003.006-.004-.257-.429zm.03-5.88l-.199.459.007.002.192-.461zm-5.58-.3v-.5h-.5v.5h.5zm0 6.6h-.5v.5h.5v-.5zm-5.18-9.93v.487h1V7.53h-1zm0 1.46v.974h1V8.99h-1zm0 1.947v.974h1v-.974h-1zm0 1.947v.974h1v-.974h-1zm0 1.947v.974h1v-.974h-1zm0 1.947v.974h1v-.974h-1zm0 1.947v.974h1v-.974h-1zm0 1.947v.974h1v-.974h-1zm0 1.947v.974h1v-.974h-1zm0 1.947v.974h1v-.974h-1zm0 1.947V27h1v-.487h-1zm.5.987h.585v-1h-.585v1zm1.755 0h1.17v-1h-1.17v1zm2.34 0h.585v-1h-.585v1zm1.085-.5v-.527h-1V27h1zm0-1.582v-1.055h-1v1.055h1zm0-2.11v-1.055h-1v1.055h1zm0-2.11v-.528h-1v.527h1zm-.5-.028h.645v-1h-.645v1zm1.935 0h.645v-1h-.645v1zm.645 0c.209 0 .413-.002.612-.005l-.015-1c-.195.004-.393.005-.597.005v1zm1.839-.047c.434-.024.845-.057 1.231-.099l-.109-.994c-.366.04-.758.072-1.177.095l.055.998zm2.466-.281a11 11 0 00.618-.137l-.246-.97a9.903 9.903 0 01-.561.125l.189.982zm.617-.137a8.27 8.27 0 00.396-.11l-.292-.956a7.1 7.1 0 01-.347.096l.243.97zm1.178-.4c.269-.122.518-.26.748-.413l-.557-.83c-.179.12-.379.23-.602.33l.411.912zm1.421-.975c.104-.108.2-.221.289-.34l-.8-.6a2.645 2.645 0 01-.21.247l.721.693zm.284-.333c.093-.12.179-.245.258-.377l-.858-.514c-.059.098-.122.19-.189.277l.789.614zm.633-1.192a5.48 5.48 0 00.212-.846l-.986-.168c-.042.25-.1.48-.172.69l.946.324zm.302-1.694c.007-.138.01-.278.01-.421h-1a7.5 7.5 0 01-.009.372l.999.049zm.01-.421v-.461h-1v.461h1zm0-1.384v-.922h-1v.922h1zm0-1.845V12h-1v.461h1zm0-.461a7.28 7.28 0 00-.039-.768l-.994.106c.022.207.033.428.033.662h1zm-.449-2.308a3.481 3.481 0 00-.443-.707l-.776.63c.121.149.226.316.315.505l.904-.428zm-.432-.694a3.432 3.432 0 00-.58-.596l-.63.776c.16.13.297.272.413.424l.797-.604zm-1.978-1.352a7.008 7.008 0 00-.738-.213l-.226.974c.227.053.437.113.632.182l.332-.943zm-.736-.213a10.555 10.555 0 00-.581-.12l-.176.985c.187.034.363.07.527.109l.23-.974zm-1.74-.277a23.113 23.113 0 00-1.153-.086l-.05 1c.392.019.76.046 1.103.08l.1-.994zm-2.302-.122a39.412 39.412 0 00-.573-.004v1c.191 0 .377.001.559.004l.014-1zm-.573-.004h-.487v1h.487v-1zm-1.462 0h-.975v1h.975v-1zm-1.95 0h-.975v1h.975v-1zm-1.95 0h-.975v1h.975v-1zm-1.95 0h-.488v1h.488v-1zm7.162 9.93h-.742v1h.742v-1zm-2.227 0h-.743v1h.743v-1zm-.243.5v-.55h-1v.55h1zm0-1.65v-1.1h-1v1.1h1zm0-2.2v-1.1h-1v1.1h1zm0-2.2v-.55h-1v.55h1zm-.5-.05h.728v-1h-.728v1zm2.183 0h.727v-1h-.727v1zm.727 0c.235 0 .455.003.66.01l.031-1c-.217-.007-.447-.01-.691-.01v1zm1.937.118c.25.042.423.092.534.14l.399-.917a3.36 3.36 0 00-.767-.209l-.166.986zm.541.143c.079.034.14.073.188.115l.665-.747a1.655 1.655 0 00-.468-.29l-.385.922zm.387.507c.016.083.025.18.025.292h1a2.5 2.5 0 00-.043-.48l-.982.188zm.025.292v.39h1v-.39h-1zm0 1.17v.78h1v-.78h-1zm0 1.56v.39h1v-.39h-1zm0 .39c0 .13-.01.245-.029.349l.984.179a2.93 2.93 0 00.045-.528h-1zm-.278.887a.998.998 0 01-.229.184l.514.858a1.99 1.99 0 00.453-.368l-.738-.674zm-.216.177a2.05 2.05 0 01-.494.183l.246.97c.274-.07.523-.161.737-.28l-.489-.873zm-1.701.341c-.198.01-.409.015-.635.015v1c.24 0 .468-.005.684-.016l-.049-.999zm-8.285-9.415v-1h-1v1h1zm12.3.39l-.23.973.004.001.226-.974zm2.43 1.38l-.797.604.01.013.011.014.776-.631zm-.06 9.39l-.789-.614-.005.007-.006.007.8.6zm-2.61 1.53l-.242-.97h-.004l.246.97zm-7.38.45v-1h-1v1h1zm0 6.33v1h1v-1h-1zm-4.68 0h-1v1h1v-1zm10.23-9.96l.489.873.013-.008.013-.008-.515-.857zm.03-5.88l-.398.917.007.003.007.003.384-.923zm-5.58-.3v-1h-1v1h1zm0 6.6h-1v1h1v-1zm-5.68-9.93v.487h2V7.53h-2zm0 1.46v.974h2V8.99h-2zm0 1.947v.974h2v-.974h-2zm0 1.947v.974h2v-.974h-2zm0 1.947v.974h2v-.974h-2zm0 1.947v.974h2v-.974h-2zm0 1.947v.974h2v-.974h-2zm0 1.947v.974h2v-.974h-2zm0 1.947v.974h2v-.974h-2zm0 1.947v.974h2v-.974h-2zm0 1.947V27h2v-.487h-2zm1 1.487h.585v-2h-.585v2zm1.755 0h1.17v-2h-1.17v2zm2.34 0h.585v-2h-.585v2zm1.585-1v-.527h-2V27h2zm0-1.582v-1.055h-2v1.055h2zm0-2.11v-1.055h-2v1.055h2zm0-2.11v-.528h-2v.527h2zm-1 .472h.645v-2h-.645v2zm1.935 0h.645v-2h-.645v2zm.645 0c.211 0 .418-.002.62-.005l-.031-2c-.192.004-.388.005-.589.005v2zm1.867-.048a23.31 23.31 0 001.257-.1l-.217-1.99c-.356.04-.74.07-1.15.093l.11 1.997zm2.533-.29c.224-.043.44-.09.647-.143l-.493-1.938a9.468 9.468 0 01-.532.118l.378 1.964zm.643-.142a9.91 9.91 0 00.421-.116l-.584-1.913a6.44 6.44 0 01-.322.089l.485 1.94zm1.262-.43a5.58 5.58 0 00.822-.453l-1.115-1.66c-.153.102-.329.2-.528.29l.821 1.823zm1.577-1.084c.118-.122.227-.251.328-.386l-1.6-1.2a2.25 2.25 0 01-.171.201l1.443 1.385zm.318-.372c.105-.136.203-.278.292-.427l-1.716-1.028c-.048.08-.1.156-.155.227l1.579 1.228zm.711-1.336c.1-.295.177-.604.232-.925l-1.972-.336c-.038.226-.09.43-.152.613l1.892.648zm.329-1.833c.007-.146.01-.294.01-.445h-2c0 .12-.003.236-.008.348l1.998.097zm.01-.445v-.461h-2v.461h2zm0-1.384v-.922h-2v.922h2zm0-1.845V12h-2v.461h2zm0-.461c0-.283-.013-.557-.042-.822l-1.988.213c.02.188.03.39.03.609h2zm-.497-2.522a3.958 3.958 0 00-.507-.809l-1.552 1.262c.094.115.178.249.252.403l1.807-.856zm-.486-.782a3.902 3.902 0 00-.663-.682l-1.26 1.553c.131.106.239.218.329.337l1.594-1.208zm-2.21-1.522a7.522 7.522 0 00-.791-.228l-.452 1.948c.211.049.403.105.579.167l.664-1.887zm-.787-.227a11.12 11.12 0 00-.608-.125l-.351 1.968c.178.032.344.067.499.103l.46-1.946zm-1.804-.289a23.643 23.643 0 00-1.179-.087l-.1 1.997c.385.02.744.047 1.078.08l.201-1.99zm-2.345-.124a36.83 36.83 0 00-.581-.004v2c.188 0 .372.001.552.004l.029-2zm-.581-.004h-.487v2h.487v-2zm-1.462 0h-.975v2h.975v-2zm-1.95 0h-.975v2h.975v-2zm-1.95 0h-.975v2h.975v-2zm-1.95 0h-.488v2h.488v-2zm7.162 9.93h-.742v2h.742v-2zm-2.227 0h-.743v2h.743v-2zm.257 1v-.55h-2v.55h2zm0-1.65v-1.1h-2v1.1h2zm0-2.2v-1.1h-2v1.1h2zm0-2.2v-.55h-2v.55h2zm-1 .45h.728v-2h-.728v2zm2.183 0h.727v-2h-.727v2zm.727 0c.23 0 .445.003.644.01l.063-2a22.83 22.83 0 00-.707-.01v2zm1.853.111c.229.039.359.08.419.106l.797-1.834a3.843 3.843 0 00-.882-.244l-.334 1.972zm.433.112a.16.16 0 01.047.027l1.331-1.494a2.16 2.16 0 00-.609-.38l-.769 1.847zm.088.14c.009.047.016.112.016.197h2a3.06 3.06 0 00-.051-.573l-1.965.375zm.016.197v.39h2v-.39h-2zm0 1.17v.78h2v-.78h-2zm0 1.56v.39h2v-.39h-2zm0 .39c0 .103-.008.189-.021.259l1.968.359c.037-.203.053-.41.053-.618h-2zm-.147.55a.506.506 0 01-.117.093l1.029 1.715a2.52 2.52 0 00.565-.46l-1.477-1.348zm-.091.078a1.576 1.576 0 01-.373.135l.492 1.938a3.53 3.53 0 00.858-.328l-.977-1.745zm-1.482.278c-.188.01-.391.014-.61.014v2c.248 0 .484-.005.709-.017l-.099-1.997z" fill="#77C2F9" fill-opacity=".4"/></svg>