<svg width="182" height="28" viewBox="0 0 182 28" fill="none" xmlns="http://www.w3.org/2000/svg">
<path d="M6.42906 27.09L6.35221 27.5841L6.35384 27.5843L6.42906 27.09ZM3.60906 26.37L3.77295 25.8976L3.76985 25.8966L3.60906 26.37ZM1.11906 24.63L0.715519 24.9253L0.719063 24.93L1.11906 24.63ZM0.849063 10.56L0.416264 10.3094L0.411442 10.3182L0.849063 10.56ZM2.52906 8.76L2.26152 8.33757L2.25744 8.34021L2.52906 8.76ZM4.74906 7.8L4.89074 8.27951L4.74906 7.8ZM7.20906 7.32L7.24841 7.81846L7.25176 7.81817L7.20906 7.32ZM11.8291 7.35L11.7706 7.84657L11.7779 7.84742L11.7851 7.84806L11.8291 7.35ZM14.1091 7.77L14.2491 7.28982L14.2357 7.28631L14.1091 7.77ZM16.4791 8.79L16.7501 8.36985L16.4791 8.79ZM18.0391 10.47L17.6072 10.7219L17.6093 10.7255L18.0391 10.47ZM17.8291 24.45L17.4278 24.1516L17.4229 24.1584L17.8291 24.45ZM15.4891 26.22L15.3034 25.7558L15.4891 26.22ZM11.1391 23.91L11.1843 24.4079L11.1941 24.4071L11.2037 24.4058L11.1391 23.91ZM12.5491 23.61L12.4091 23.13L12.5491 23.61ZM13.6291 22.92L13.2319 22.6163L13.2291 22.62L13.6291 22.92ZM12.9091 11.16L12.6713 11.6L12.6807 11.6048L12.9091 11.16ZM5.28906 22.92L4.89188 23.2237L4.89636 23.2296L4.90101 23.2353L5.28906 22.92ZM6.42906 23.61L6.56907 23.13L6.56388 23.1285L6.42906 23.61ZM7.80906 23.91L7.74151 24.4054L7.75359 24.4071L7.76575 24.4081L7.80906 23.91ZM9.42906 26.8C9.30506 26.8 9.1822 26.7991 9.06049 26.7972L9.04503 27.7971C9.17199 27.799 9.3 27.8 9.42906 27.8V26.8ZM8.32508 26.7737C8.07582 26.7615 7.83177 26.7451 7.59292 26.7244L7.50673 27.7207C7.75844 27.7425 8.01493 27.7597 8.27616 27.7725L8.32508 26.7737ZM6.86554 26.6464C6.74363 26.6307 6.62321 26.6138 6.50428 26.5957L6.35384 27.5843C6.48045 27.6036 6.60841 27.6215 6.73772 27.6382L6.86554 26.6464ZM6.50592 26.5959C6.27858 26.5606 6.04819 26.5185 5.81472 26.4697L5.61016 27.4486C5.85994 27.5008 6.1073 27.546 6.35221 27.5841L6.50592 26.5959ZM4.44737 26.1174C4.22506 26.0497 4.00026 25.9765 3.77295 25.8976L3.44518 26.8424C3.68423 26.9253 3.92126 27.0026 4.15626 27.0741L4.44737 26.1174ZM3.76985 25.8966C3.65557 25.8577 3.5446 25.8163 3.4369 25.7723L3.05859 26.698C3.18552 26.7498 3.31543 26.7983 3.44827 26.8434L3.76985 25.8966ZM2.80593 25.464C2.60107 25.3453 2.41073 25.2146 2.23446 25.072L1.60554 25.8495C1.82336 26.0257 2.05659 26.1856 2.30479 26.3293L2.80593 25.464ZM1.73685 24.5969C1.66092 24.5113 1.58832 24.4223 1.51906 24.33L0.719063 24.93C0.804653 25.0441 0.894569 25.1543 0.988803 25.2605L1.73685 24.5969ZM1.52258 24.3347C1.45323 24.24 1.38848 24.1428 1.32829 24.0431L0.472331 24.5602C0.547839 24.6852 0.628926 24.8069 0.715547 24.9253L1.52258 24.3347ZM1.02083 23.4141C0.938226 23.1991 0.872247 22.9731 0.823299 22.7356L-0.156124 22.9374C-0.0965881 23.2263 -0.0155488 23.505 0.0873969 23.7728L1.02083 23.4141ZM0.730081 22.0237C0.722756 21.9051 0.719063 21.7838 0.719063 21.66H-0.280937C-0.280937 21.8037 -0.276652 21.9455 -0.268019 22.0853L0.730081 22.0237ZM0.719063 21.66V21.1275H-0.280937V21.66H0.719063ZM0.719063 20.0625V18.9975H-0.280937V20.0625H0.719063ZM0.719063 17.9325V16.8675H-0.280937V17.9325H0.719063ZM0.719063 15.8025V14.7375H-0.280937V15.8025H0.719063ZM0.719063 13.6725V13.14H-0.280937V13.6725H0.719063ZM0.719063 13.14C0.719063 12.9284 0.730105 12.7233 0.751927 12.5246L-0.242096 12.4154C-0.268077 12.652 -0.280937 12.8936 -0.280937 13.14H0.719063ZM1.03276 11.3473C1.1049 11.1594 1.18952 10.9777 1.28668 10.8018L0.411442 10.3182C0.291959 10.5344 0.187869 10.7579 0.099232 10.9888L1.03276 11.3473ZM1.28178 10.8105C1.37922 10.6422 1.48254 10.4833 1.59162 10.3336L0.783457 9.74468C0.652985 9.92371 0.530654 10.112 0.41635 10.3095L1.28178 10.8105ZM2.35256 9.51177C2.49486 9.39168 2.6442 9.28104 2.80069 9.17978L2.25744 8.34021C2.06552 8.46439 1.88221 8.60019 1.70761 8.74754L2.35256 9.51177ZM2.79659 9.18241C2.94796 9.08654 3.11035 8.99401 3.28404 8.90499L2.82793 8.01507C2.62915 8.11695 2.44026 8.2244 2.26154 8.33759L2.79659 9.18241ZM4.3377 8.45788C4.51445 8.3957 4.69877 8.33623 4.89074 8.27951L4.60739 7.32049C4.40009 7.38174 4.19955 7.4464 4.00585 7.51454L4.3377 8.45788ZM4.89074 8.27951C5.08944 8.2208 5.28454 8.16749 5.47606 8.11952L5.23312 7.14948C5.02747 7.20098 4.81889 7.258 4.60739 7.32049L4.89074 8.27951ZM6.65635 7.88468C6.85856 7.85569 7.0559 7.83365 7.24841 7.81845L7.16971 6.82155C6.95505 6.8385 6.7366 6.86295 6.51442 6.89481L6.65635 7.88468ZM7.25176 7.81817C7.42967 7.80292 7.61038 7.78964 7.7939 7.77834L7.73241 6.78023C7.54113 6.79201 7.35245 6.80588 7.16636 6.82183L7.25176 7.81817ZM8.88292 7.73511C9.06258 7.7317 9.24463 7.73 9.42906 7.73V6.73C9.23846 6.73 9.0501 6.73176 8.86397 6.73529L8.88292 7.73511ZM9.42906 7.73C9.63223 7.73 9.82913 7.73198 10.0198 7.73593L10.0405 6.73615C9.84253 6.73204 9.63871 6.73 9.42906 6.73V7.73ZM11.1924 7.79082C11.3951 7.80646 11.5878 7.82507 11.7706 7.84657L11.8875 6.85342C11.6902 6.83022 11.4841 6.81036 11.2693 6.79378L11.1924 7.79082ZM11.7851 7.84806C11.9616 7.86363 12.1446 7.88496 12.3343 7.91217L12.4763 6.92229C12.2698 6.89269 12.0687 6.8692 11.873 6.85193L11.7851 7.84806ZM13.4342 8.11911C13.6125 8.15981 13.7952 8.20466 13.9824 8.25368L14.2357 7.28631C14.0389 7.23475 13.8459 7.18737 13.6568 7.1442L13.4342 8.11911ZM13.9691 8.25C14.1756 8.31024 14.3732 8.37313 14.5619 8.43861L14.8897 7.49385C14.6842 7.42254 14.4706 7.35461 14.2491 7.29L13.9691 8.25ZM15.69 8.91296C15.8769 9.00869 16.0494 9.10784 16.208 9.21015L16.7501 8.36985C16.5613 8.24804 16.3598 8.13248 16.1459 8.02293L15.69 8.91296ZM16.208 9.21015C16.3507 9.30222 16.4877 9.40402 16.6189 9.51573L17.267 8.75417C17.1026 8.61422 16.9303 8.48606 16.7501 8.36985L16.208 9.21015ZM17.319 10.2788C17.4195 10.4174 17.5156 10.565 17.6072 10.7219L18.471 10.2181C18.3635 10.0338 18.2493 9.85824 18.1284 9.69156L17.319 10.2788ZM17.6093 10.7255C17.7126 10.8993 17.8026 11.0832 17.8791 11.2776L18.8097 10.9116C18.7139 10.6682 18.6004 10.4357 18.4688 10.2145L17.6093 10.7255ZM18.1667 12.497C18.1882 12.7023 18.1991 12.9166 18.1991 13.14H19.1991C19.1991 12.8842 19.1866 12.6352 19.1613 12.3931L18.1667 12.497ZM18.1991 13.14V13.6725H19.1991V13.14H18.1991ZM18.1991 14.7375V15.8025H19.1991V14.7375H18.1991ZM18.1991 16.8675V17.9325H19.1991V16.8675H18.1991ZM18.1991 18.9975V20.0625H19.1991V18.9975H18.1991ZM18.1991 21.1275V21.66H19.1991V21.1275H18.1991ZM18.1991 21.66C18.1991 21.8944 18.1842 22.119 18.1549 22.3342L19.1458 22.469C19.1815 22.2066 19.1991 21.9368 19.1991 21.66H18.1991ZM17.7725 23.5935C17.6748 23.7879 17.56 23.9739 17.4278 24.1516L18.2303 24.7484C18.3966 24.5247 18.542 24.2893 18.666 24.0425L17.7725 23.5935ZM17.4229 24.1584C17.2931 24.3391 17.1503 24.5083 16.9942 24.6661L17.7053 25.3692C17.8983 25.1741 18.075 24.9648 18.2352 24.7416L17.4229 24.1584ZM15.9221 25.4655C15.7286 25.5713 15.5224 25.6681 15.3034 25.7558L15.6748 26.6842C15.9289 26.5826 16.1714 26.4689 16.4019 26.3428L15.9221 25.4655ZM15.3034 25.7558C15.1501 25.8171 14.9951 25.8757 14.8383 25.9316L15.1745 26.8735C15.343 26.8133 15.5097 26.7503 15.6748 26.6842L15.3034 25.7558ZM13.8891 26.2317C13.5722 26.3195 13.2488 26.3971 12.9188 26.4646L13.1192 27.4443C13.4711 27.3723 13.8167 27.2894 14.1559 27.1954L13.8891 26.2317ZM11.933 26.6333C11.6068 26.6786 11.2746 26.7147 10.9363 26.7416L11.0155 27.7385C11.3728 27.7101 11.7245 27.6719 12.0706 27.6238L11.933 26.6333ZM9.93262 26.7937C9.76615 26.7979 9.5983 26.8 9.42906 26.8V27.8C9.60659 27.8 9.78286 27.7978 9.95788 27.7934L9.93262 26.7937ZM9.48906 23.47C9.34632 23.47 9.20857 23.469 9.0758 23.4672L9.06155 24.4671C9.19939 24.469 9.3419 24.47 9.48906 24.47V23.47ZM8.25594 23.4402C8.11262 23.4323 7.97814 23.4228 7.85238 23.4119L7.76575 24.4081C7.90316 24.4201 8.04822 24.4302 8.20081 24.4387L8.25594 23.4402ZM7.87662 23.4146C7.76883 23.3999 7.65944 23.3826 7.54846 23.3626L7.37168 24.3469C7.49609 24.3692 7.61937 24.3888 7.74151 24.4054L7.87662 23.4146ZM6.89427 23.2193C6.78719 23.1918 6.67878 23.162 6.56906 23.13L6.28906 24.09C6.40881 24.1249 6.5276 24.1575 6.64541 24.1878L6.89427 23.2193ZM6.56388 23.1285C6.4675 23.1015 6.37846 23.0712 6.29637 23.0379L5.92076 23.9647C6.04008 24.0131 6.16471 24.0552 6.29425 24.0915L6.56388 23.1285ZM5.84716 22.7764C5.78317 22.723 5.72672 22.6657 5.67712 22.6047L4.90101 23.2353C4.99229 23.3476 5.09433 23.4506 5.20645 23.5442L5.84716 22.7764ZM5.68624 22.6163C5.63697 22.5518 5.59432 22.4837 5.55804 22.4114L4.66431 22.86C4.7287 22.9883 4.80464 23.1096 4.89188 23.2237L5.68624 22.6163ZM5.41586 21.9304C5.40485 21.8459 5.39906 21.7559 5.39906 21.66H4.39906C4.39906 21.7961 4.40727 21.9294 4.42424 22.0596L5.41586 21.9304ZM5.39906 21.66V21.1256H4.39906V21.66H5.39906ZM5.39906 20.0569V18.9881H4.39906V20.0569H5.39906ZM5.39906 17.9194V16.8506H4.39906V17.9194H5.39906ZM5.39906 15.7819V14.7131H4.39906V15.7819H5.39906ZM5.39906 13.6444V13.11H4.39906V13.6444H5.39906ZM5.39906 13.11C5.39906 12.9261 5.41551 12.7614 5.44595 12.6141L4.46667 12.4117C4.42078 12.6336 4.39906 12.8669 4.39906 13.11H5.39906ZM5.86129 11.8361C5.9639 11.7392 6.08805 11.6515 6.23746 11.5748L5.78066 10.6852C5.55522 10.801 5.35199 10.9417 5.17469 11.1091L5.86129 11.8361ZM6.23746 11.5748C6.33979 11.5222 6.45475 11.4724 6.58323 11.426L6.24353 10.4855C6.07967 10.5447 5.92509 10.611 5.78066 10.6852L6.23746 11.5748ZM7.3568 11.2224C7.60613 11.1757 7.88116 11.1386 8.18257 11.1118L8.09374 10.1157C7.76535 10.145 7.45809 10.1861 7.17264 10.2396L7.3568 11.2224ZM9.03065 11.0652C9.16941 11.0617 9.31221 11.06 9.45906 11.06V10.06C9.30438 10.06 9.15331 10.0618 9.00586 10.0655L9.03065 11.0652ZM9.45906 11.06C9.60605 11.06 9.74895 11.0618 9.88779 11.0655L9.91395 10.0658C9.76595 10.0619 9.61431 10.06 9.45906 10.06V11.06ZM10.7359 11.1146C11.037 11.143 11.3115 11.1821 11.5602 11.2313L11.7543 10.2503C11.4677 10.1936 11.1592 10.15 10.8296 10.119L10.7359 11.1146ZM12.3293 11.4448C12.4563 11.4932 12.57 11.5451 12.6713 11.5999L13.1468 10.7201C13.0028 10.6423 12.8487 10.5726 12.6853 10.5103L12.3293 11.4448ZM12.6807 11.6048C12.8295 11.6812 12.9532 11.7679 13.0555 11.863L13.7364 11.1306C13.5607 10.9673 13.3598 10.8294 13.1375 10.7152L12.6807 11.6048ZM13.4717 12.6241C13.5024 12.7683 13.5191 12.9297 13.5191 13.11H14.5191C14.5191 12.8686 14.4968 12.6366 14.4498 12.4157L13.4717 12.6241ZM13.5191 13.11V13.6444H14.5191V13.11H13.5191ZM13.5191 14.7131V15.7819H14.5191V14.7131H13.5191ZM13.5191 16.8506V17.9194H14.5191V16.8506H13.5191ZM13.5191 18.9881V20.0569H14.5191V18.9881H13.5191ZM13.5191 21.1256V21.66H14.5191V21.1256H13.5191ZM13.5191 21.66C13.5191 21.7559 13.5133 21.8459 13.5023 21.9304L14.4939 22.0596C14.5109 21.9294 14.5191 21.7961 14.5191 21.66H13.5191ZM13.3601 22.4114C13.3238 22.4837 13.2812 22.5518 13.2319 22.6163L14.0262 23.2237C14.1135 23.1096 14.1894 22.9883 14.2538 22.86L13.3601 22.4114ZM13.2291 22.62C13.1847 22.6792 13.1339 22.7345 13.076 22.7861L13.741 23.5329C13.8477 23.4379 13.9439 23.3336 14.0291 23.22L13.2291 22.62ZM12.661 23.0409C12.5841 23.0736 12.5003 23.1034 12.4091 23.13L12.6891 24.09C12.815 24.0533 12.936 24.0106 13.0517 23.9614L12.661 23.0409ZM12.4091 23.13C12.298 23.1624 12.1877 23.1925 12.0781 23.2203L12.324 24.1896C12.4452 24.1588 12.5669 24.1256 12.6891 24.09L12.4091 23.13ZM11.4104 23.3632C11.2976 23.3827 11.1856 23.3997 11.0744 23.4142L11.2037 24.4058C11.329 24.3895 11.4547 24.3704 11.581 24.3485L11.4104 23.3632ZM11.0938 23.4121C10.9723 23.4231 10.8408 23.4326 10.6992 23.4406L10.7554 24.439C10.9069 24.4305 11.0499 24.4202 11.1843 24.4079L11.0938 23.4121ZM9.89491 23.4672C9.76495 23.4691 9.62967 23.47 9.48906 23.47V24.47C9.63403 24.47 9.77403 24.469 9.90904 24.4671L9.89491 23.4672ZM6.42906 27.09L6.27536 28.0781L6.27862 28.0786L6.42906 27.09ZM3.60906 26.37L3.93684 25.4252L3.93065 25.4231L3.60906 26.37ZM1.11906 24.63L0.311976 25.2206L0.319062 25.23L1.11906 24.63ZM0.849063 10.56L-0.0163635 10.059L-0.0213575 10.0676L-0.0261787 10.0763L0.849063 10.56ZM2.52906 8.76L1.99399 7.91514L1.98581 7.92043L2.52906 8.76ZM4.74906 7.8L5.03241 8.75902L4.74906 7.8ZM7.20906 7.32L7.28777 8.31692L7.29446 8.31635L7.20906 7.32ZM11.8291 7.35L11.7122 8.34315L11.7267 8.34485L11.7412 8.34613L11.8291 7.35ZM14.1091 7.77L14.3891 6.81L14.3758 6.80613L14.3624 6.80263L14.1091 7.77ZM16.4791 8.79L17.0212 7.9497L17.0212 7.9497L16.4791 8.79ZM18.0391 10.47L17.1753 10.9739L17.1795 10.9811L18.0391 10.47ZM17.8291 24.45L17.0266 23.8533L17.0216 23.86L17.0167 23.8668L17.8291 24.45ZM15.4891 26.22L15.1177 25.2915L15.4891 26.22ZM11.1391 23.91L11.2296 24.9059L11.249 24.9041L11.2684 24.9016L11.1391 23.91ZM12.5491 23.61L12.2691 22.65L12.5491 23.61ZM13.6291 22.92L12.8347 22.3125L12.8291 22.32L13.6291 22.92ZM12.9091 11.16L12.4335 12.0397L12.4429 12.0447L12.4523 12.0496L12.9091 11.16ZM5.28906 22.92L4.4947 23.5275L4.50366 23.5392L4.51295 23.5506L5.28906 22.92ZM6.42906 23.61L6.70908 22.6499L6.69869 22.647L6.42906 23.61ZM7.80906 23.91L7.67395 24.9008L7.69813 24.9041L7.72243 24.9062L7.80906 23.91ZM9.42906 26.3C9.30759 26.3 9.18731 26.2991 9.06821 26.2972L9.03731 28.297C9.16688 28.299 9.29747 28.3 9.42906 28.3V26.3ZM8.34953 26.2743C8.10626 26.2624 7.86843 26.2464 7.63601 26.2263L7.46363 28.2188C7.72178 28.2412 7.98449 28.2588 8.25171 28.2719L8.34953 26.2743ZM6.92945 26.1505C6.81124 26.1353 6.69459 26.1189 6.5795 26.1014L6.27862 28.0786C6.40906 28.0985 6.5408 28.117 6.67381 28.1341L6.92945 26.1505ZM6.58277 26.1019C6.36423 26.0679 6.14231 26.0274 5.917 25.9803L5.50788 27.938C5.76582 27.9919 6.02166 28.0387 6.27536 28.0781L6.58277 26.1019ZM4.59292 25.639C4.37696 25.5733 4.15827 25.5021 3.93684 25.4252L3.28129 27.3148C3.52622 27.3997 3.76936 27.479 4.0107 27.5524L4.59292 25.639ZM3.93065 25.4231C3.82563 25.3875 3.72413 25.3495 3.62605 25.3095L2.86943 27.1608C3.00598 27.2166 3.14536 27.2686 3.28748 27.3169L3.93065 25.4231ZM3.05651 25.0313C2.87331 24.9252 2.70442 24.8091 2.54893 24.6833L1.29108 26.2382C1.52967 26.4312 1.78435 26.6057 2.05422 26.762L3.05651 25.0313ZM2.11088 24.2651C2.04409 24.1898 1.98016 24.1115 1.91906 24.03L0.319062 25.23C0.412819 25.355 0.511394 25.4758 0.614778 25.5924L2.11088 24.2651ZM1.92609 24.0395C1.86538 23.9565 1.8088 23.8716 1.75627 23.7846L0.0443511 24.8187C0.127518 24.9564 0.216775 25.0903 0.312032 25.2205L1.92609 24.0395ZM1.48755 23.2347C1.41511 23.0462 1.35666 22.8465 1.31301 22.6347L-0.645836 23.0383C-0.581005 23.3529 -0.492436 23.6579 -0.379321 23.9522L1.48755 23.2347ZM1.22913 21.9929C1.22246 21.8848 1.21906 21.7739 1.21906 21.66H-0.780937C-0.780937 21.8136 -0.776355 21.9657 -0.767069 22.1161L1.22913 21.9929ZM1.21906 21.66V21.1275H-0.780937V21.66H1.21906ZM1.21906 20.0625V18.9975H-0.780937V20.0625H1.21906ZM1.21906 17.9325V16.8675H-0.780937V17.9325H1.21906ZM1.21906 15.8025V14.7375H-0.780937V15.8025H1.21906ZM1.21906 13.6725V13.14H-0.780937V13.6725H1.21906ZM1.21906 13.14C1.21906 12.9458 1.2292 12.759 1.24894 12.5792L-0.739107 12.3609C-0.767169 12.6164 -0.780937 12.8762 -0.780937 13.14H1.21906ZM1.49952 11.5265C1.56341 11.3602 1.6383 11.1993 1.7243 11.0437L-0.0261787 10.0763C-0.15682 10.3127 -0.270644 10.5572 -0.367532 10.8095L1.49952 11.5265ZM1.71449 11.061C1.80351 10.9073 1.89732 10.7631 1.9957 10.6281L0.379378 9.4502C0.238205 9.64391 0.106369 9.84697 -0.0163635 10.059L1.71449 11.061ZM2.67503 9.89388C2.80118 9.78742 2.93354 9.68936 3.07231 9.59957L1.98581 7.92043C1.77618 8.05607 1.57589 8.20445 1.38514 8.36543L2.67503 9.89388ZM3.06411 9.60482C3.20181 9.51761 3.35096 9.43254 3.5121 9.34995L2.59988 7.5701C2.38855 7.67842 2.18641 7.79333 1.99401 7.91518L3.06411 9.60482ZM4.50362 8.92954C4.67189 8.87035 4.84811 8.81347 5.03241 8.75902L4.46572 6.84098C4.25075 6.90449 4.04211 6.97176 3.83993 7.04288L4.50362 8.92954ZM5.03241 8.75902C5.22471 8.7022 5.41308 8.65074 5.59753 8.60454L5.11165 6.66446C4.89894 6.71773 4.68362 6.7766 4.46572 6.84098L5.03241 8.75902ZM6.72731 8.37962C6.91954 8.35206 7.10633 8.33122 7.28776 8.3169L7.13036 6.3231C6.90462 6.34092 6.67562 6.36658 6.44346 6.39987L6.72731 8.37962ZM7.29446 8.31635C7.46828 8.30145 7.645 8.28846 7.82464 8.27739L7.70167 6.28118C7.50651 6.2932 7.31384 6.30735 7.12366 6.32365L7.29446 8.31635ZM8.8924 8.23502C9.06882 8.23168 9.24771 8.23 9.42906 8.23V6.23C9.23538 6.23 9.04386 6.23179 8.85449 6.23538L8.8924 8.23502ZM9.42906 8.23C9.62898 8.23 9.82243 8.23195 10.0094 8.23582L10.0509 6.23625C9.84924 6.23208 9.64195 6.23 9.42906 6.23V8.23ZM11.1539 8.28933C11.3506 8.30451 11.5366 8.32249 11.7122 8.34315L11.9459 6.35685C11.7414 6.33279 11.5286 6.3123 11.3077 6.29526L11.1539 8.28933ZM11.7412 8.34613C11.908 8.36085 12.082 8.3811 12.2634 8.40711L12.5472 6.42736C12.3325 6.39656 12.1223 6.37199 11.917 6.35387L11.7412 8.34613ZM13.3229 8.60657C13.4958 8.64603 13.6733 8.68961 13.8557 8.73737L14.3624 6.80263C14.1607 6.7498 13.9626 6.70115 13.7681 6.65674L13.3229 8.60657ZM13.8291 8.73C14.0281 8.78806 14.2177 8.84843 14.3981 8.91099L15.0536 7.02147C14.8396 6.94724 14.6181 6.87679 14.3891 6.81L13.8291 8.73ZM15.462 9.35797C15.6355 9.4468 15.7935 9.53774 15.9369 9.6303L17.0212 7.9497C16.8173 7.81814 16.6012 7.69437 16.3739 7.57792L15.462 9.35797ZM15.9369 9.63029C16.0609 9.7103 16.1802 9.79893 16.2949 9.89651L17.5911 8.37339C17.41 8.21932 17.22 8.07798 17.0212 7.9497L15.9369 9.63029ZM16.9143 10.5724C17.0046 10.697 17.0917 10.8306 17.1753 10.9739L18.9028 9.96613C18.7874 9.76821 18.6642 9.57866 18.5331 9.39793L16.9143 10.5724ZM17.1795 10.9811C17.2688 11.1312 17.3469 11.2908 17.4138 11.4606L19.275 10.7286C19.1696 10.4607 19.0442 10.2039 18.8986 9.95892L17.1795 10.9811ZM17.6694 12.5489C17.689 12.7359 17.6991 12.9328 17.6991 13.14H19.6991C19.6991 12.8679 19.6858 12.6016 19.6586 12.3412L17.6694 12.5489ZM17.6991 13.14V13.6725H19.6991V13.14H17.6991ZM17.6991 14.7375V15.8025H19.6991V14.7375H17.6991ZM17.6991 16.8675V17.9325H19.6991V16.8675H17.6991ZM17.6991 18.9975V20.0625H19.6991V18.9975H17.6991ZM17.6991 21.1275V21.66H19.6991V21.1275H17.6991ZM17.6991 21.66C17.6991 21.8732 17.6855 22.0753 17.6595 22.2668L19.6412 22.5364C19.6801 22.2503 19.6991 21.958 19.6991 21.66H17.6991ZM17.3257 23.369C17.2412 23.5371 17.1417 23.6984 17.0266 23.8533L18.6315 25.0467C18.8149 24.8001 18.9756 24.54 19.1128 24.267L17.3257 23.369ZM17.0167 23.8668C16.9022 24.0263 16.7763 24.1754 16.6387 24.3146L18.0609 25.7208C18.2723 25.507 18.4659 25.2777 18.6414 25.0332L17.0167 23.8668ZM15.6822 25.0268C15.5071 25.1225 15.3192 25.2109 15.1177 25.2915L15.8605 27.1485C16.1322 27.0398 16.3929 26.9176 16.6418 26.7815L15.6822 25.0268ZM15.1177 25.2915C14.9703 25.3505 14.8211 25.4069 14.6703 25.4607L15.3426 27.3444C15.5169 27.2821 15.6895 27.2168 15.8605 27.1485L15.1177 25.2915ZM13.7556 25.7498C13.45 25.8345 13.1377 25.9095 12.8186 25.9747L13.2194 27.9342C13.5822 27.86 13.9389 27.7744 14.2894 27.6773L13.7556 25.7498ZM11.8642 26.1381C11.548 26.182 11.2255 26.2171 10.8967 26.2432L11.0551 28.2369C11.4219 28.2078 11.7834 28.1685 12.1395 28.119L11.8642 26.1381ZM9.91999 26.2938C9.75779 26.2979 9.59415 26.3 9.42906 26.3V28.3C9.61073 28.3 9.79122 28.2977 9.9705 28.2932L9.91999 26.2938ZM9.48906 22.97C9.34853 22.97 9.21317 22.9691 9.08293 22.9672L9.05442 24.967C9.1948 24.969 9.33969 24.97 9.48906 24.97V22.97ZM8.2835 22.9409C8.14482 22.9333 8.01562 22.9242 7.89569 22.9138L7.72243 24.9062C7.86568 24.9187 8.01602 24.9292 8.17324 24.9379L8.2835 22.9409ZM7.94418 22.9192C7.84356 22.9054 7.74112 22.8893 7.63684 22.8705L7.28329 24.839C7.41441 24.8626 7.54463 24.8832 7.67395 24.9008L7.94418 22.9192ZM7.01871 22.735C6.91698 22.7089 6.81377 22.6805 6.70906 22.65L6.14906 24.57C6.27383 24.6064 6.39781 24.6404 6.52098 24.6721L7.01871 22.735ZM6.69869 22.647C6.6189 22.6247 6.54765 22.6003 6.48417 22.5746L5.73296 24.4281C5.87089 24.484 6.01331 24.5321 6.15943 24.573L6.69869 22.647ZM6.16752 22.3925C6.12759 22.3592 6.09394 22.3248 6.06518 22.2894L4.51295 23.5506C4.62507 23.6886 4.74991 23.8144 4.88609 23.928L6.16752 22.3925ZM6.08342 22.3125C6.05313 22.2729 6.02712 22.2313 6.0049 22.1871L4.21744 23.0843C4.2959 23.2406 4.38848 23.3885 4.4947 23.5275L6.08342 22.3125ZM5.91167 21.8658C5.90364 21.8042 5.89906 21.7358 5.89906 21.66H3.89906C3.89906 21.8162 3.90848 21.9711 3.92843 22.1242L5.91167 21.8658ZM5.89906 21.66V21.1256H3.89906V21.66H5.89906ZM5.89906 20.0569V18.9881H3.89906V20.0569H5.89906ZM5.89906 17.9194V16.8506H3.89906V17.9194H5.89906ZM5.89906 15.7819V14.7131H3.89906V15.7819H5.89906ZM5.89906 13.6444V13.11H3.89906V13.6444H5.89906ZM5.89906 13.11C5.89906 12.9558 5.91288 12.8253 5.9356 12.7154L3.97702 12.3104C3.92341 12.5697 3.89906 12.8373 3.89906 13.11H5.89906ZM6.20459 12.1997C6.26985 12.138 6.35446 12.0768 6.46587 12.0196L5.55226 10.2404C5.28881 10.3757 5.04604 10.5429 4.83139 10.7456L6.20459 12.1997ZM6.46587 12.0196C6.54713 11.9778 6.64229 11.9363 6.75307 11.8963L6.07368 10.0152C5.89213 10.0808 5.71774 10.1555 5.55226 10.2404L6.46587 12.0196ZM7.44888 11.7139C7.68016 11.6706 7.93907 11.6355 8.22698 11.6098L8.04933 9.61768C7.70744 9.64817 7.38406 9.69124 7.08056 9.7481L7.44888 11.7139ZM9.04305 11.565C9.17747 11.5617 9.31613 11.56 9.45906 11.56V9.56C9.30046 9.56 9.14525 9.56187 8.99346 9.56563L9.04305 11.565ZM9.45906 11.56C9.60192 11.56 9.74045 11.5618 9.87471 11.5653L9.92703 9.56597C9.77444 9.56198 9.61844 9.56 9.45906 9.56V11.56ZM10.689 11.6124C10.9759 11.6394 11.2335 11.6763 11.4632 11.7218L11.8513 9.75977C11.5457 9.69932 11.2203 9.65358 10.8765 9.62122L10.689 11.6124ZM12.1513 11.9121C12.26 11.9535 12.3536 11.9965 12.4335 12.0397L13.3846 10.2803C13.2193 10.1909 13.0449 10.1123 12.8633 10.0431L12.1513 11.9121ZM12.4523 12.0496C12.5643 12.1071 12.6495 12.1682 12.7151 12.2292L14.0769 10.7644C13.8644 10.5669 13.625 10.4035 13.3659 10.2704L12.4523 12.0496ZM12.9827 12.7283C13.0052 12.8341 13.0191 12.9603 13.0191 13.11H15.0191C15.0191 12.838 14.994 12.5707 14.9388 12.3116L12.9827 12.7283ZM13.0191 13.11V13.6444H15.0191V13.11H13.0191ZM13.0191 14.7131V15.7819H15.0191V14.7131H13.0191ZM13.0191 16.8506V17.9194H15.0191V16.8506H13.0191ZM13.0191 18.9881V20.0569H15.0191V18.9881H13.0191ZM13.0191 21.1256V21.66H15.0191V21.1256H13.0191ZM13.0191 21.66C13.0191 21.7358 13.0145 21.8042 13.0065 21.8658L14.9897 22.1242C15.0096 21.9711 15.0191 21.8162 15.0191 21.66H13.0191ZM12.9132 22.1871C12.891 22.2313 12.865 22.2729 12.8347 22.3125L14.4234 23.5275C14.5296 23.3885 14.6222 23.2406 14.7007 23.0843L12.9132 22.1871ZM12.8291 22.32C12.8051 22.352 12.777 22.3828 12.7434 22.4127L14.0735 23.9063C14.2045 23.7896 14.3235 23.6608 14.4291 23.52L12.8291 22.32ZM12.4656 22.5807C12.4082 22.6051 12.343 22.6284 12.2691 22.65L12.8291 24.57C12.9723 24.5282 13.1119 24.4791 13.2471 24.4217L12.4656 22.5807ZM12.2691 22.65C12.1635 22.6808 12.0589 22.7093 11.9551 22.7357L12.447 24.6742C12.574 24.642 12.7014 24.6072 12.8291 24.57L12.2691 22.65ZM11.325 22.8705C11.219 22.8889 11.1139 22.9048 11.0097 22.9184L11.2684 24.9016C11.4007 24.8843 11.5333 24.8642 11.6663 24.8411L11.325 22.8705ZM11.0485 22.9141C10.9335 22.9246 10.8078 22.9337 10.6711 22.9414L10.7835 24.9382C10.94 24.9294 11.0888 24.9187 11.2296 24.9059L11.0485 22.9141ZM9.88785 22.9673C9.76041 22.9691 9.6275 22.97 9.48906 22.97V24.97C9.6362 24.97 9.77856 24.969 9.91611 24.9671L9.88785 22.9673ZM28.4652 10.86H28.9652V10.36H28.4652V10.86ZM22.4652 10.86H21.9652V11.36H22.4652V10.86ZM22.4652 7.53V7.03H21.9652V7.53H22.4652ZM39.1152 7.53H39.6152V7.03H39.1152V7.53ZM39.1152 10.86V11.36H39.6152V10.86H39.1152ZM33.1452 10.86V10.36H32.6452V10.86H33.1452ZM33.1452 27V27.5H33.6452V27H33.1452ZM28.4652 27H27.9652V27.5H28.4652V27ZM28.4652 10.36H27.9652V11.36H28.4652V10.36ZM26.9652 10.36H25.9652V11.36H26.9652V10.36ZM24.9652 10.36H23.9652V11.36H24.9652V10.36ZM22.9652 10.36H22.4652V11.36H22.9652V10.36ZM22.9652 10.86V10.4437H21.9652V10.86H22.9652ZM22.9652 9.61125V8.77875H21.9652V9.61125H22.9652ZM22.9652 7.94625V7.53H21.9652V7.94625H22.9652ZM22.4652 8.03H22.9855V7.03H22.4652V8.03ZM24.0262 8.03H25.0668V7.03H24.0262V8.03ZM26.1074 8.03H27.148V7.03H26.1074V8.03ZM28.1887 8.03H29.2293V7.03H28.1887V8.03ZM30.2699 8.03H31.3105V7.03H30.2699V8.03ZM32.3512 8.03H33.3918V7.03H32.3512V8.03ZM34.4324 8.03H35.473V7.03H34.4324V8.03ZM36.5137 8.03H37.5543V7.03H36.5137V8.03ZM38.5949 8.03H39.1152V7.03H38.5949V8.03ZM38.6152 7.53V7.94625H39.6152V7.53H38.6152ZM38.6152 8.77875V9.61125H39.6152V8.77875H38.6152ZM38.6152 10.4437V10.86H39.6152V10.4437H38.6152ZM39.1152 10.36H38.6177V11.36H39.1152V10.36ZM37.6227 10.36H36.6277V11.36H37.6227V10.36ZM35.6327 10.36H34.6377V11.36H35.6327V10.36ZM33.6427 10.36H33.1452V11.36H33.6427V10.36ZM32.6452 10.86V11.3644H33.6452V10.86H32.6452ZM32.6452 12.3731V13.3819H33.6452V12.3731H32.6452ZM32.6452 14.3906V15.3994H33.6452V14.3906H32.6452ZM32.6452 16.4081V17.4169H33.6452V16.4081H32.6452ZM32.6452 18.4256V19.4344H33.6452V18.4256H32.6452ZM32.6452 20.4431V21.4519H33.6452V20.4431H32.6452ZM32.6452 22.4606V23.4694H33.6452V22.4606H32.6452ZM32.6452 24.4781V25.4869H33.6452V24.4781H32.6452ZM32.6452 26.4956V27H33.6452V26.4956H32.6452ZM33.1452 26.5H32.5602V27.5H33.1452V26.5ZM31.3902 26.5H30.2202V27.5H31.3902V26.5ZM29.0502 26.5H28.4652V27.5H29.0502V26.5ZM28.9652 27V26.4956H27.9652V27H28.9652ZM28.9652 25.4869V24.4781H27.9652V25.4869H28.9652ZM28.9652 23.4694V22.4606H27.9652V23.4694H28.9652ZM28.9652 21.4519V20.4431H27.9652V21.4519H28.9652ZM28.9652 19.4344V18.4256H27.9652V19.4344H28.9652ZM28.9652 17.4169V16.4081H27.9652V17.4169H28.9652ZM28.9652 15.3994V14.3906H27.9652V15.3994H28.9652ZM28.9652 13.3819V12.3731H27.9652V13.3819H28.9652ZM28.9652 11.3644V10.86H27.9652V11.3644H28.9652ZM28.4652 10.86H29.4652V9.86H28.4652V10.86ZM22.4652 10.86H21.4652V11.86H22.4652V10.86ZM22.4652 7.53V6.53H21.4652V7.53H22.4652ZM39.1152 7.53H40.1152V6.53H39.1152V7.53ZM39.1152 10.86V11.86H40.1152V10.86H39.1152ZM33.1452 10.86V9.86H32.1452V10.86H33.1452ZM33.1452 27V28H34.1452V27H33.1452ZM28.4652 27H27.4652V28H28.4652V27ZM28.4652 9.86H27.9652V11.86H28.4652V9.86ZM26.9652 9.86H25.9652V11.86H26.9652V9.86ZM24.9652 9.86H23.9652V11.86H24.9652V9.86ZM22.9652 9.86H22.4652V11.86H22.9652V9.86ZM23.4652 10.86V10.4437H21.4652V10.86H23.4652ZM23.4652 9.61125V8.77875H21.4652V9.61125H23.4652ZM23.4652 7.94625V7.53H21.4652V7.94625H23.4652ZM22.4652 8.53H22.9855V6.53H22.4652V8.53ZM24.0262 8.53H25.0668V6.53H24.0262V8.53ZM26.1074 8.53H27.148V6.53H26.1074V8.53ZM28.1887 8.53H29.2293V6.53H28.1887V8.53ZM30.2699 8.53H31.3105V6.53H30.2699V8.53ZM32.3512 8.53H33.3918V6.53H32.3512V8.53ZM34.4324 8.53H35.473V6.53H34.4324V8.53ZM36.5137 8.53H37.5543V6.53H36.5137V8.53ZM38.5949 8.53H39.1152V6.53H38.5949V8.53ZM38.1152 7.53V7.94625H40.1152V7.53H38.1152ZM38.1152 8.77875V9.61125H40.1152V8.77875H38.1152ZM38.1152 10.4437V10.86H40.1152V10.4437H38.1152ZM39.1152 9.86H38.6177V11.86H39.1152V9.86ZM37.6227 9.86H36.6277V11.86H37.6227V9.86ZM35.6327 9.86H34.6377V11.86H35.6327V9.86ZM33.6427 9.86H33.1452V11.86H33.6427V9.86ZM32.1452 10.86V11.3644H34.1452V10.86H32.1452ZM32.1452 12.3731V13.3819H34.1452V12.3731H32.1452ZM32.1452 14.3906V15.3994H34.1452V14.3906H32.1452ZM32.1452 16.4081V17.4169H34.1452V16.4081H32.1452ZM32.1452 18.4256V19.4344H34.1452V18.4256H32.1452ZM32.1452 20.4431V21.4519H34.1452V20.4431H32.1452ZM32.1452 22.4606V23.4694H34.1452V22.4606H32.1452ZM32.1452 24.4781V25.4869H34.1452V24.4781H32.1452ZM32.1452 26.4956V27H34.1452V26.4956H32.1452ZM33.1452 26H32.5602V28H33.1452V26ZM31.3902 26H30.2202V28H31.3902V26ZM29.0502 26H28.4652V28H29.0502V26ZM29.4652 27V26.4956H27.4652V27H29.4652ZM29.4652 25.4869V24.4781H27.4652V25.4869H29.4652ZM29.4652 23.4694V22.4606H27.4652V23.4694H29.4652ZM29.4652 21.4519V20.4431H27.4652V21.4519H29.4652ZM29.4652 19.4344V18.4256H27.4652V19.4344H29.4652ZM29.4652 17.4169V16.4081H27.4652V17.4169H29.4652ZM29.4652 15.3994V14.3906H27.4652V15.3994H29.4652ZM29.4652 13.3819V12.3731H27.4652V13.3819H29.4652ZM29.4652 11.3644V10.86H27.4652V11.3644H29.4652ZM43.307 27.12L43.4155 26.6319L43.4024 26.629L43.3892 26.6268L43.307 27.12ZM42.527 27H42.027V27.4414L42.465 27.4961L42.527 27ZM42.527 23.34L42.5946 22.8446L42.027 22.7672V23.34H42.527ZM45.947 22.59L46.307 22.9371L46.313 22.9307L45.947 22.59ZM47.117 19.17L46.6227 19.0944L46.6219 19.1001L47.117 19.17ZM47.507 7.53V7.03H47.007V7.53H47.507ZM61.667 7.53H62.167V7.03H61.667V7.53ZM61.667 27V27.5H62.167V27H61.667ZM56.987 27H56.487V27.5H56.987V27ZM56.987 10.83H57.487V10.33H56.987V10.83ZM51.737 10.83V10.33H51.237V10.83H51.737ZM50.717 22.11L50.2431 21.9505L50.2418 21.9547L50.717 22.11ZM48.107 26.19L47.8351 25.7704L47.8315 25.7728L48.107 26.19ZM44.327 26.74C44.2537 26.74 44.1786 26.7376 44.1018 26.7327L44.0381 27.7307C44.1354 27.7369 44.2318 27.74 44.327 27.74V26.74ZM43.6452 26.6775C43.57 26.6644 43.4935 26.6492 43.4155 26.6319L43.1986 27.6081C43.291 27.6286 43.3827 27.6469 43.4736 27.6627L43.6452 26.6775ZM43.3892 26.6268C43.3201 26.6153 43.2546 26.6045 43.1926 26.5944L43.032 27.5814C43.0926 27.5913 43.1569 27.6019 43.2248 27.6132L43.3892 26.6268ZM42.7952 26.5323C42.7166 26.5207 42.6476 26.5112 42.5891 26.5039L42.465 27.4961C42.5141 27.5023 42.5754 27.5107 42.6496 27.5216L42.7952 26.5323ZM43.027 27V26.5425H42.027V27H43.027ZM43.027 25.6275V24.7125H42.027V25.6275H43.027ZM43.027 23.7975V23.34H42.027V23.7975H43.027ZM42.4595 23.8354C42.5582 23.8489 42.6539 23.8609 42.7465 23.8716L42.8604 22.8781C42.7754 22.8683 42.6868 22.8572 42.5946 22.8446L42.4595 23.8354ZM43.3331 23.9218C43.4392 23.9272 43.5405 23.93 43.637 23.93V22.93C43.5597 22.93 43.4754 22.9278 43.3841 22.9231L43.3331 23.9218ZM43.637 23.93C43.879 23.93 44.112 23.915 44.3357 23.8841L44.1989 22.8935C44.0249 22.9175 43.8378 22.93 43.637 22.93V23.93ZM45.7169 23.411C45.9337 23.278 46.1307 23.1199 46.307 22.9371L45.5871 22.2429C45.4697 22.3646 45.3391 22.4696 45.1942 22.5584L45.7169 23.411ZM46.313 22.9307C46.4345 22.8002 46.5452 22.6523 46.6465 22.4899L45.7979 21.9608C45.7253 22.0773 45.6526 22.1725 45.5811 22.2493L46.313 22.9307ZM47.0806 21.5673C47.1821 21.2855 47.2728 20.9747 47.3537 20.6364L46.3811 20.4039C46.3072 20.7131 46.2265 20.9875 46.1397 21.2285L47.0806 21.5673ZM47.5405 19.705C47.5658 19.5544 47.5896 19.3994 47.6121 19.2399L46.6219 19.1001C46.6005 19.2516 46.578 19.3982 46.5543 19.5399L47.5405 19.705ZM47.6113 19.2456C47.6353 19.0883 47.6582 18.9242 47.68 18.7533L46.688 18.627C46.6672 18.7903 46.6455 18.9461 46.6228 19.0944L47.6113 19.2456ZM47.786 17.7714C47.8141 17.4626 47.8394 17.1365 47.8621 16.793L46.8643 16.7271C46.8421 17.0632 46.8173 17.3811 46.7901 17.6808L47.786 17.7714ZM47.9172 15.8158C47.9321 15.5027 47.9451 15.1774 47.9563 14.84L46.9568 14.8069C46.9458 15.1399 46.9329 15.4604 46.9183 15.7683L47.9172 15.8158ZM47.9827 13.8644C47.9894 13.5492 47.9948 13.2247 47.9987 12.8907L46.9988 12.8789C46.9949 13.2098 46.9896 13.5312 46.9829 13.8429L47.9827 13.8644ZM48.0062 11.9172C48.0067 11.7568 48.007 11.5944 48.007 11.43H47.007C47.007 11.5932 47.0067 11.7544 47.0062 11.9136L48.0062 11.9172ZM48.007 11.43V10.9425H47.007V11.43H48.007ZM48.007 9.9675V8.9925H47.007V9.9675H48.007ZM48.007 8.0175V7.53H47.007V8.0175H48.007ZM47.507 8.03H48.0127V7.03H47.507V8.03ZM49.0242 8.03H50.0356V7.03H49.0242V8.03ZM51.047 8.03H52.0585V7.03H51.047V8.03ZM53.0699 8.03H54.0813V7.03H53.0699V8.03ZM55.0927 8.03H56.1042V7.03H55.0927V8.03ZM57.1156 8.03H58.127V7.03H57.1156V8.03ZM59.1385 8.03H60.1499V7.03H59.1385V8.03ZM61.1613 8.03H61.667V7.03H61.1613V8.03ZM61.167 7.53V8.01675H62.167V7.53H61.167ZM61.167 8.99025V9.96375H62.167V8.99025H61.167ZM61.167 10.9372V11.9107H62.167V10.9372H61.167ZM61.167 12.8842V13.8577H62.167V12.8842H61.167ZM61.167 14.8312V15.8047H62.167V14.8312H61.167ZM61.167 16.7782V17.7518H62.167V16.7782H61.167ZM61.167 18.7253V19.6988H62.167V18.7253H61.167ZM61.167 20.6723V21.6458H62.167V20.6723H61.167ZM61.167 22.6193V23.5928H62.167V22.6193H61.167ZM61.167 24.5662V25.5397H62.167V24.5662H61.167ZM61.167 26.5132V27H62.167V26.5132H61.167ZM61.667 26.5H61.082V27.5H61.667V26.5ZM59.912 26.5H58.742V27.5H59.912V26.5ZM57.572 26.5H56.987V27.5H57.572V26.5ZM57.487 27V26.4947H56.487V27H57.487ZM57.487 25.4841V24.4734H56.487V25.4841H57.487ZM57.487 23.4628V22.4522H56.487V23.4628H57.487ZM57.487 21.4416V20.4309H56.487V21.4416H57.487ZM57.487 19.4203V18.4097H56.487V19.4203H57.487ZM57.487 17.3991V16.3884H56.487V17.3991H57.487ZM57.487 15.3778V14.3672H56.487V15.3778H57.487ZM57.487 13.3566V12.3459H56.487V13.3566H57.487ZM57.487 11.3353V10.83H56.487V11.3353H57.487ZM56.987 10.33H56.5495V11.33H56.987V10.33ZM55.6745 10.33H54.7995V11.33H55.6745V10.33ZM53.9245 10.33H53.0495V11.33H53.9245V10.33ZM52.1745 10.33H51.737V11.33H52.1745V10.33ZM51.237 10.83V11.505H52.237V10.83H51.237ZM51.237 12.855V13.53H52.237V12.855H51.237ZM51.237 13.53C51.237 13.7115 51.2362 13.8908 51.2346 14.0681L52.2345 14.0774C52.2362 13.897 52.237 13.7145 52.237 13.53H51.237ZM51.2138 15.1416C51.2028 15.5088 51.1879 15.866 51.1691 16.2132L52.1676 16.2672C52.1869 15.9115 52.2021 15.5463 52.2133 15.1716L51.2138 15.1416ZM51.0966 17.2805C51.0664 17.6473 51.0312 18.0014 50.9912 18.3428L51.9844 18.4591C52.0258 18.1056 52.0621 17.7402 52.0933 17.3629L51.0966 17.2805ZM50.8462 19.3958C50.788 19.7598 50.7234 20.1065 50.6525 20.436L51.6301 20.6463C51.705 20.298 51.7728 19.9338 51.8336 19.5538L50.8462 19.3958ZM50.398 21.4541C50.3485 21.6256 50.2968 21.791 50.2432 21.9505L51.1909 22.2695C51.2494 22.0957 51.3054 21.9164 51.3587 21.7318L50.398 21.4541ZM50.2418 21.9547C50.1781 22.1494 50.1127 22.3373 50.0454 22.5184L50.9828 22.8667C51.0549 22.6724 51.1248 22.472 51.1923 22.2653L50.2418 21.9547ZM49.5809 23.6043C49.3956 23.979 49.2006 24.3111 48.9968 24.602L49.8158 25.1759C50.0525 24.8379 50.2728 24.4613 50.4773 24.0475L49.5809 23.6043ZM48.2631 25.4422C48.1232 25.567 47.9805 25.6762 47.8351 25.7704L48.379 26.6096C48.5697 26.486 48.753 26.3453 48.9289 26.1883L48.2631 25.4422ZM47.8315 25.7728C47.7044 25.8567 47.5742 25.9351 47.4409 26.008L47.9208 26.8853C48.0785 26.7991 48.2324 26.7064 48.3826 26.6072L47.8315 25.7728ZM46.6071 26.3785C46.3242 26.4777 46.0282 26.5568 45.7188 26.6154L45.9048 27.5979C46.2614 27.5304 46.6059 27.4386 46.9379 27.3222L46.6071 26.3785ZM44.796 26.7268C44.6426 26.7356 44.4863 26.74 44.327 26.74V27.74C44.5047 27.74 44.6801 27.7351 44.853 27.7252L44.796 26.7268ZM43.307 27.12L43.524 26.1438L43.4978 26.138L43.4714 26.1336L43.307 27.12ZM42.527 27H41.527V27.8828L42.403 27.9923L42.527 27ZM42.527 23.34L42.6621 22.3492L41.527 22.1944V23.34H42.527ZM45.947 22.59L46.6669 23.2841L46.673 23.2778L46.6789 23.2714L45.947 22.59ZM47.117 19.17L46.1285 19.0188L46.1269 19.0302L47.117 19.17ZM47.507 7.53V6.53H46.507V7.53H47.507ZM61.667 7.53H62.667V6.53H61.667V7.53ZM61.667 27V28H62.667V27H61.667ZM56.987 27H55.987V28H56.987V27ZM56.987 10.83H57.987V9.83H56.987V10.83ZM51.737 10.83V9.83H50.737V10.83H51.737ZM50.717 22.11L49.7693 21.7909L49.7665 21.7994L50.717 22.11ZM48.107 26.19L47.5631 25.3508L47.556 25.3555L48.107 26.19ZM44.327 26.24C44.2647 26.24 44.2002 26.2379 44.1336 26.2337L44.0063 28.2296C44.1138 28.2365 44.2208 28.24 44.327 28.24V26.24ZM43.731 26.1849C43.6637 26.1732 43.5947 26.1595 43.524 26.1438L43.0901 28.0962C43.1898 28.1183 43.2891 28.1381 43.3878 28.1553L43.731 26.1849ZM43.4714 26.1336C43.4018 26.122 43.3356 26.1111 43.2729 26.1009L42.9517 28.0749C43.0116 28.0847 43.0752 28.0952 43.1426 28.1064L43.4714 26.1336ZM42.8681 26.0376C42.7872 26.0257 42.7144 26.0156 42.6511 26.0077L42.403 27.9923C42.4473 27.9978 42.5048 28.0057 42.5768 28.0163L42.8681 26.0376ZM43.527 27V26.5425H41.527V27H43.527ZM43.527 25.6275V24.7125H41.527V25.6275H43.527ZM43.527 23.7975V23.34H41.527V23.7975H43.527ZM42.3919 24.3308C42.4939 24.3447 42.5931 24.3572 42.6895 24.3683L42.9174 22.3813C42.8361 22.372 42.7511 22.3613 42.6621 22.3492L42.3919 24.3308ZM43.3076 24.4211C43.421 24.4269 43.531 24.43 43.637 24.43V22.43C43.5692 22.43 43.4935 22.428 43.4096 22.4237L43.3076 24.4211ZM43.637 24.43C43.8995 24.43 44.1556 24.4137 44.404 24.3794L44.1306 22.3982C43.9814 22.4188 43.8173 22.43 43.637 22.43V24.43ZM45.9782 23.8372C46.231 23.6822 46.4611 23.4975 46.6669 23.2841L45.2272 21.8959C45.1393 21.987 45.0418 22.0654 44.9329 22.1322L45.9782 23.8372ZM46.6789 23.2714C46.8254 23.1141 46.9552 22.9398 47.0708 22.7544L45.3736 21.6963C45.3153 21.7898 45.2617 21.8586 45.2151 21.9086L46.6789 23.2714ZM47.5511 21.7366C47.6599 21.4344 47.7557 21.1056 47.84 20.7526L45.8948 20.2876C45.8244 20.5823 45.7487 20.8386 45.6693 21.0592L47.5511 21.7366ZM48.0337 19.7876C48.0596 19.6325 48.0841 19.4733 48.1072 19.3098L46.1269 19.0302C46.106 19.1778 46.0841 19.3201 46.0611 19.4574L48.0337 19.7876ZM48.1055 19.3212C48.1303 19.1594 48.1538 18.9911 48.176 18.8165L46.192 18.5639C46.1717 18.7233 46.1505 18.875 46.1285 19.0188L48.1055 19.3212ZM48.2839 17.8167C48.3124 17.5034 48.3381 17.1731 48.361 16.826L46.3654 16.6942C46.3434 17.0266 46.319 17.3403 46.2921 17.6355L48.2839 17.8167ZM48.4166 15.8395C48.4316 15.5239 48.4447 15.1962 48.456 14.8565L46.4571 14.7903C46.4461 15.1212 46.4334 15.4392 46.4189 15.7446L48.4166 15.8395ZM48.4826 13.8751C48.4894 13.5582 48.4947 13.2321 48.4987 12.8966L46.4988 12.873C46.4949 13.2024 46.4897 13.5221 46.483 13.8322L48.4826 13.8751ZM48.5061 11.919C48.5067 11.758 48.507 11.595 48.507 11.43H46.507C46.507 11.5926 46.5067 11.7532 46.5062 11.9118L48.5061 11.919ZM48.507 11.43V10.9425H46.507V11.43H48.507ZM48.507 9.9675V8.9925H46.507V9.9675H48.507ZM48.507 8.0175V7.53H46.507V8.0175H48.507ZM47.507 8.53H48.0127V6.53H47.507V8.53ZM49.0242 8.53H50.0356V6.53H49.0242V8.53ZM51.047 8.53H52.0585V6.53H51.047V8.53ZM53.0699 8.53H54.0813V6.53H53.0699V8.53ZM55.0927 8.53H56.1042V6.53H55.0927V8.53ZM57.1156 8.53H58.127V6.53H57.1156V8.53ZM59.1385 8.53H60.1499V6.53H59.1385V8.53ZM61.1613 8.53H61.667V6.53H61.1613V8.53ZM60.667 7.53V8.01675H62.667V7.53H60.667ZM60.667 8.99025V9.96375H62.667V8.99025H60.667ZM60.667 10.9372V11.9107H62.667V10.9372H60.667ZM60.667 12.8842V13.8577H62.667V12.8842H60.667ZM60.667 14.8312V15.8047H62.667V14.8312H60.667ZM60.667 16.7782V17.7518H62.667V16.7782H60.667ZM60.667 18.7253V19.6988H62.667V18.7253H60.667ZM60.667 20.6723V21.6458H62.667V20.6723H60.667ZM60.667 22.6193V23.5928H62.667V22.6193H60.667ZM60.667 24.5662V25.5397H62.667V24.5662H60.667ZM60.667 26.5132V27H62.667V26.5132H60.667ZM61.667 26H61.082V28H61.667V26ZM59.912 26H58.742V28H59.912V26ZM57.572 26H56.987V28H57.572V26ZM57.987 27V26.4947H55.987V27H57.987ZM57.987 25.4841V24.4734H55.987V25.4841H57.987ZM57.987 23.4628V22.4522H55.987V23.4628H57.987ZM57.987 21.4416V20.4309H55.987V21.4416H57.987ZM57.987 19.4203V18.4097H55.987V19.4203H57.987ZM57.987 17.3991V16.3884H55.987V17.3991H57.987ZM57.987 15.3778V14.3672H55.987V15.3778H57.987ZM57.987 13.3566V12.3459H55.987V13.3566H57.987ZM57.987 11.3353V10.83H55.987V11.3353H57.987ZM56.987 9.83H56.5495V11.83H56.987V9.83ZM55.6745 9.83H54.7995V11.83H55.6745V9.83ZM53.9245 9.83H53.0495V11.83H53.9245V9.83ZM52.1745 9.83H51.737V11.83H52.1745V9.83ZM50.737 10.83V11.505H52.737V10.83H50.737ZM50.737 12.855V13.53H52.737V12.855H50.737ZM50.737 13.53C50.737 13.7099 50.7362 13.8878 50.7346 14.0635L52.7345 14.0821C52.7362 13.9 52.737 13.716 52.737 13.53H50.737ZM50.714 15.1267C50.7031 15.49 50.6884 15.8432 50.6698 16.1863L52.6669 16.2942C52.6864 15.9343 52.7017 15.5651 52.7131 15.1866L50.714 15.1267ZM50.5983 17.2394C50.5685 17.6008 50.5339 17.9492 50.4946 18.2846L52.481 18.5173C52.5231 18.1578 52.56 17.7867 52.5916 17.404L50.5983 17.2394ZM50.3525 19.3168C50.2955 19.6728 50.2325 20.0107 50.1637 20.3309L52.1189 20.7515C52.1959 20.3938 52.2653 20.0208 52.3274 19.6328L50.3525 19.3168ZM49.9177 21.3153C49.87 21.4802 49.8205 21.6387 49.7693 21.791L51.6648 22.429C51.7257 22.248 51.7838 22.0618 51.8391 21.8706L49.9177 21.3153ZM49.7665 21.7994C49.7048 21.9882 49.6415 22.1698 49.5767 22.3443L51.4515 23.0408C51.5261 22.84 51.5981 22.6332 51.6676 22.4206L49.7665 21.7994ZM49.1327 23.3827C48.9571 23.7379 48.7747 24.0477 48.5873 24.3151L50.2253 25.4628C50.4785 25.1013 50.7113 24.7024 50.9256 24.269L49.1327 23.3827ZM47.9302 25.0691C47.8083 25.1778 47.6859 25.2713 47.5631 25.3508L48.6509 27.0292C48.8643 26.8908 49.0679 26.7344 49.2618 26.5613L47.9302 25.0691ZM47.556 25.3555C47.4404 25.4318 47.3221 25.5031 47.201 25.5694L48.1608 27.324C48.3306 27.2311 48.4964 27.1312 48.6581 27.0245L47.556 25.3555ZM46.4417 25.9067C46.1833 25.9973 45.9116 26.07 45.6258 26.1241L45.9979 28.0892C46.3781 28.0172 46.7468 27.9191 47.1033 27.7941L46.4417 25.9067ZM44.7675 26.2276C44.6239 26.2358 44.4771 26.24 44.327 26.24V28.24C44.514 28.24 44.6988 28.2348 44.8815 28.2244L44.7675 26.2276ZM67.3656 7.53V7.03H66.8656V7.53H67.3656ZM72.0456 7.53H72.5456V7.03H72.0456V7.53ZM72.0456 20.85H71.5456V22.5802L72.4686 21.1167L72.0456 20.85ZM80.4456 7.53V7.03H80.1698L80.0227 7.26329L80.4456 7.53ZM85.1256 7.53H85.6256V7.03H85.1256V7.53ZM85.1256 27V27.5H85.6256V27H85.1256ZM80.4456 27H79.9456V27.5H80.4456V27ZM80.4456 13.47H80.9456V11.7167L80.0208 13.2063L80.4456 13.47ZM72.0456 27V27.5H72.3237L72.4704 27.2637L72.0456 27ZM67.3656 27H66.8656V27.5H67.3656V27ZM66.8656 7.53V8.01675H67.8656V7.53H66.8656ZM66.8656 8.99025V9.96375H67.8656V8.99025H66.8656ZM66.8656 10.9372V11.9107H67.8656V10.9372H66.8656ZM66.8656 12.8842V13.8577H67.8656V12.8842H66.8656ZM66.8656 14.8312V15.8047H67.8656V14.8312H66.8656ZM66.8656 16.7782V17.7518H67.8656V16.7782H66.8656ZM66.8656 18.7253V19.6988H67.8656V18.7253H66.8656ZM66.8656 20.6723V21.6458H67.8656V20.6723H66.8656ZM66.8656 22.6193V23.5928H67.8656V22.6193H66.8656ZM66.8656 24.5662V25.5397H67.8656V24.5662H66.8656ZM66.8656 26.5132V27H67.8656V26.5132H66.8656ZM67.3656 27.5H67.9506V26.5H67.3656V27.5ZM69.1206 27.5H70.2906V26.5H69.1206V27.5ZM71.4606 27.5H72.0456V26.5H71.4606V27.5ZM72.4704 27.2637L72.7329 26.8409L71.8833 26.3135L71.6208 26.7363L72.4704 27.2637ZM73.2579 25.9953L73.7829 25.1497L72.9333 24.6222L72.4083 25.4678L73.2579 25.9953ZM74.3079 24.304L74.8329 23.4584L73.9833 22.931L73.4583 23.7766L74.3079 24.304ZM75.3579 22.6128L75.8829 21.7672L75.0333 21.2397L74.5083 22.0853L75.3579 22.6128ZM76.4079 20.9215L76.9329 20.0759L76.0833 19.5485L75.5583 20.3941L76.4079 20.9215ZM77.4579 19.2303L77.9829 18.3847L77.1333 17.8572L76.6083 18.7028L77.4579 19.2303ZM78.5079 17.539L79.0329 16.6934L78.1833 16.166L77.6583 17.0116L78.5079 17.539ZM79.5579 15.8478L80.0829 15.0022L79.2333 14.4747L78.7083 15.3203L79.5579 15.8478ZM80.6079 14.1565L80.8704 13.7337L80.0208 13.2063L79.7583 13.6291L80.6079 14.1565ZM79.9456 13.47V13.9532H80.9456V13.47H79.9456ZM79.9456 14.9196V15.8861H80.9456V14.9196H79.9456ZM79.9456 16.8525V17.8189H80.9456V16.8525H79.9456ZM79.9456 18.7854V19.7518H80.9456V18.7854H79.9456ZM79.9456 20.7182V21.6846H80.9456V20.7182H79.9456ZM79.9456 22.6511V23.6175H80.9456V22.6511H79.9456ZM79.9456 24.5839V25.5504H80.9456V24.5839H79.9456ZM79.9456 26.5168V27H80.9456V26.5168H79.9456ZM80.4456 27.5H81.0306V26.5H80.4456V27.5ZM82.2006 27.5H83.3706V26.5H82.2006V27.5ZM84.5406 27.5H85.1256V26.5H84.5406V27.5ZM85.6256 27V26.5133H84.6256V27H85.6256ZM85.6256 25.5397V24.5662H84.6256V25.5397H85.6256ZM85.6256 23.5928V22.6192H84.6256V23.5928H85.6256ZM85.6256 21.6458V20.6722H84.6256V21.6458H85.6256ZM85.6256 19.6987V18.7252H84.6256V19.6987H85.6256ZM85.6256 17.7517V16.7782H84.6256V17.7517H85.6256ZM85.6256 15.8047V14.8312H84.6256V15.8047H85.6256ZM85.6256 13.8577V12.8842H84.6256V13.8577H85.6256ZM85.6256 11.9107V10.9372H84.6256V11.9107H85.6256ZM85.6256 9.96375V8.99025H84.6256V9.96375H85.6256ZM85.6256 8.01675V7.53H84.6256V8.01675H85.6256ZM85.1256 7.03H84.5406V8.03H85.1256V7.03ZM83.3706 7.03H82.2006V8.03H83.3706V7.03ZM81.0306 7.03H80.4456V8.03H81.0306V7.03ZM80.0227 7.26329L79.7602 7.67954L80.606 8.21296L80.8686 7.79671L80.0227 7.26329ZM79.2352 8.51204L78.7102 9.34454L79.5561 9.87796L80.0811 9.04546L79.2352 8.51204ZM78.1852 10.177L77.6602 11.0095L78.5061 11.543L79.0311 10.7105L78.1852 10.177ZM77.1352 11.842L76.6102 12.6745L77.4561 13.208L77.981 12.3755L77.1352 11.842ZM76.0852 13.507L75.5602 14.3395L76.4061 14.873L76.9311 14.0405L76.0852 13.507ZM75.0352 15.172L74.5102 16.0045L75.356 16.538L75.8811 15.7055L75.0352 15.172ZM73.9852 16.837L73.4602 17.6695L74.3061 18.203L74.8311 17.3705L73.9852 16.837ZM72.9352 18.502L72.4102 19.3345L73.2561 19.868L73.7811 19.0355L72.9352 18.502ZM71.8852 20.167L71.6227 20.5833L72.4686 21.1167L72.731 20.7005L71.8852 20.167ZM72.5456 20.85V20.3743H71.5456V20.85H72.5456ZM72.5456 19.4229V18.4714H71.5456V19.4229H72.5456ZM72.5456 17.52V16.5686H71.5456V17.52H72.5456ZM72.5456 15.6171V14.6657H71.5456V15.6171H72.5456ZM72.5456 13.7143V12.7629H71.5456V13.7143H72.5456ZM72.5456 11.8114V10.86H71.5456V11.8114H72.5456ZM72.5456 9.90857V8.95714H71.5456V9.90857H72.5456ZM72.5456 8.00571V7.53H71.5456V8.00571H72.5456ZM72.0456 7.03H71.4606V8.03H72.0456V7.03ZM70.2906 7.03H69.1206V8.03H70.2906V7.03ZM67.9506 7.03H67.3656V8.03H67.9506V7.03ZM67.3656 7.53V6.53H66.3656V7.53H67.3656ZM72.0456 7.53H73.0456V6.53H72.0456V7.53ZM72.0456 20.85H71.0456V24.3104L72.8915 21.3834L72.0456 20.85ZM80.4456 7.53V6.53H79.894L79.5998 6.99658L80.4456 7.53ZM85.1256 7.53H86.1256V6.53H85.1256V7.53ZM85.1256 27V28H86.1256V27H85.1256ZM80.4456 27H79.4456V28H80.4456V27ZM80.4456 13.47H81.4456V9.96339L79.596 12.9425L80.4456 13.47ZM72.0456 27V28H72.6018L72.8952 27.5275L72.0456 27ZM67.3656 27H66.3656V28H67.3656V27ZM66.3656 7.53V8.01675H68.3656V7.53H66.3656ZM66.3656 8.99025V9.96375H68.3656V8.99025H66.3656ZM66.3656 10.9372V11.9107H68.3656V10.9372H66.3656ZM66.3656 12.8842V13.8577H68.3656V12.8842H66.3656ZM66.3656 14.8312V15.8047H68.3656V14.8312H66.3656ZM66.3656 16.7782V17.7518H68.3656V16.7782H66.3656ZM66.3656 18.7253V19.6988H68.3656V18.7253H66.3656ZM66.3656 20.6723V21.6458H68.3656V20.6723H66.3656ZM66.3656 22.6193V23.5928H68.3656V22.6193H66.3656ZM66.3656 24.5662V25.5397H68.3656V24.5662H66.3656ZM66.3656 26.5132V27H68.3656V26.5132H66.3656ZM67.3656 28H67.9506V26H67.3656V28ZM69.1206 28H70.2906V26H69.1206V28ZM71.4606 28H72.0456V26H71.4606V28ZM72.8952 27.5275L73.1577 27.1046L71.4585 26.0497L71.196 26.4725L72.8952 27.5275ZM73.6827 26.259L74.2077 25.4134L72.5085 24.3585L71.9835 25.2041L73.6827 26.259ZM74.7327 24.5678L75.2577 23.7221L73.5585 22.6672L73.0335 23.5129L74.7327 24.5678ZM75.7827 22.8765L76.3077 22.0309L74.6085 20.976L74.0835 21.8216L75.7827 22.8765ZM76.8327 21.1853L77.3577 20.3396L75.6585 19.2847L75.1335 20.1304L76.8327 21.1853ZM77.8827 19.494L78.4077 18.6484L76.7085 17.5935L76.1835 18.4391L77.8827 19.494ZM78.9327 17.8028L79.4577 16.9571L77.7585 15.9022L77.2335 16.7479L78.9327 17.8028ZM79.9827 16.1115L80.5077 15.2659L78.8085 14.211L78.2835 15.0566L79.9827 16.1115ZM81.0327 14.4203L81.2952 13.9975L79.596 12.9425L79.3335 13.3654L81.0327 14.4203ZM79.4456 13.47V13.9532H81.4456V13.47H79.4456ZM79.4456 14.9196V15.8861H81.4456V14.9196H79.4456ZM79.4456 16.8525V17.8189H81.4456V16.8525H79.4456ZM79.4456 18.7854V19.7518H81.4456V18.7854H79.4456ZM79.4456 20.7182V21.6846H81.4456V20.7182H79.4456ZM79.4456 22.6511V23.6175H81.4456V22.6511H79.4456ZM79.4456 24.5839V25.5504H81.4456V24.5839H79.4456ZM79.4456 26.5168V27H81.4456V26.5168H79.4456ZM80.4456 28H81.0306V26H80.4456V28ZM82.2006 28H83.3706V26H82.2006V28ZM84.5406 28H85.1256V26H84.5406V28ZM86.1256 27V26.5133H84.1256V27H86.1256ZM86.1256 25.5397V24.5662H84.1256V25.5397H86.1256ZM86.1256 23.5928V22.6192H84.1256V23.5928H86.1256ZM86.1256 21.6458V20.6722H84.1256V21.6458H86.1256ZM86.1256 19.6987V18.7252H84.1256V19.6987H86.1256ZM86.1256 17.7517V16.7782H84.1256V17.7517H86.1256ZM86.1256 15.8047V14.8312H84.1256V15.8047H86.1256ZM86.1256 13.8577V12.8842H84.1256V13.8577H86.1256ZM86.1256 11.9107V10.9372H84.1256V11.9107H86.1256ZM86.1256 9.96375V8.99025H84.1256V9.96375H86.1256ZM86.1256 8.01675V7.53H84.1256V8.01675H86.1256ZM85.1256 6.53H84.5406V8.53H85.1256V6.53ZM83.3706 6.53H82.2006V8.53H83.3706V6.53ZM81.0306 6.53H80.4456V8.53H81.0306V6.53ZM79.5998 6.99658L79.3373 7.41283L81.029 8.47967L81.2915 8.06342L79.5998 6.99658ZM78.8123 8.24533L78.2873 9.07783L79.979 10.1447L80.504 9.31217L78.8123 8.24533ZM77.7623 9.91033L77.2373 10.7428L78.929 11.8097L79.454 10.9772L77.7623 9.91033ZM76.7123 11.5753L76.1873 12.4078L77.879 13.4747L78.404 12.6422L76.7123 11.5753ZM75.6623 13.2403L75.1373 14.0728L76.829 15.1397L77.354 14.3072L75.6623 13.2403ZM74.6123 14.9053L74.0873 15.7378L75.779 16.8047L76.304 15.9722L74.6123 14.9053ZM73.5623 16.5703L73.0373 17.4028L74.729 18.4697L75.254 17.6372L73.5623 16.5703ZM72.5123 18.2353L71.9873 19.0678L73.679 20.1347L74.204 19.3022L72.5123 18.2353ZM71.4623 19.9003L71.1998 20.3166L72.8915 21.3834L73.154 20.9672L71.4623 19.9003ZM73.0456 20.85V20.3743H71.0456V20.85H73.0456ZM73.0456 19.4229V18.4714H71.0456V19.4229H73.0456ZM73.0456 17.52V16.5686H71.0456V17.52H73.0456ZM73.0456 15.6171V14.6657H71.0456V15.6171H73.0456ZM73.0456 13.7143V12.7629H71.0456V13.7143H73.0456ZM73.0456 11.8114V10.86H71.0456V11.8114H73.0456ZM73.0456 9.90857V8.95714H71.0456V9.90857H73.0456ZM73.0456 8.00571V7.53H71.0456V8.00571H73.0456ZM72.0456 6.53H71.4606V8.53H72.0456V6.53ZM70.2906 6.53H69.1206V8.53H70.2906V6.53ZM67.9506 6.53H67.3656V8.53H67.9506V6.53ZM102.028 19.56H102.528V18.7051L101.783 19.1242L102.028 19.56ZM92.1283 19.65L91.8237 20.0467L91.8317 20.0525L92.1283 19.65ZM90.4483 7.53V7.03H89.9483V7.53H90.4483ZM95.0683 7.53H95.5683V7.03H95.0683V7.53ZM95.7583 16.89L95.4611 17.2921L95.4708 17.2993L95.4809 17.306L95.7583 16.89ZM100.078 16.98L99.9237 16.5045L100.078 16.98ZM102.028 15.99L102.341 16.3804L102.528 16.2303V15.99H102.028ZM102.028 7.53V7.03H101.528V7.53H102.028ZM106.708 7.53H107.208V7.03H106.708V7.53ZM106.708 27V27.5H107.208V27H106.708ZM102.028 27H101.528V27.5H102.028V27ZM101.783 19.1242C101.647 19.2007 101.509 19.2738 101.368 19.3434L101.811 20.2397C101.968 20.1623 102.122 20.081 102.273 19.9958L101.783 19.1242ZM100.505 19.7166C100.214 19.8251 99.9143 19.921 99.6049 20.0042L99.8647 20.9699C100.204 20.8787 100.534 20.7732 100.854 20.6534L100.505 19.7166ZM98.6789 20.2102C98.3726 20.2649 98.0579 20.3084 97.7346 20.3407L97.834 21.3358C98.1819 21.301 98.5221 21.254 98.8546 21.1947L98.6789 20.2102ZM96.7789 20.4026C96.6205 20.4075 96.4604 20.41 96.2983 20.41V21.41C96.4705 21.41 96.6411 21.4074 96.81 21.4021L96.7789 20.4026ZM96.2983 20.41C96.1201 20.41 95.9456 20.4048 95.7747 20.3944L95.714 21.3925C95.9058 21.4042 96.1006 21.41 96.2983 21.41V20.41ZM94.7462 20.2613C94.4014 20.191 94.0733 20.096 93.7616 19.9768L93.4043 20.9108C93.7694 21.0504 94.1503 21.1604 94.5464 21.2412L94.7462 20.2613ZM92.8476 19.5305C92.7029 19.4428 92.562 19.3485 92.4249 19.2475L91.8317 20.0525C91.9929 20.1713 92.1589 20.2824 92.3295 20.3858L92.8476 19.5305ZM92.4328 19.2534C92.2941 19.147 92.1656 19.0302 92.0471 18.903L91.3157 19.585C91.4721 19.7527 91.6415 19.9066 91.8238 20.0466L92.4328 19.2534ZM91.4605 18.0301C91.3152 17.725 91.1988 17.3806 91.114 16.9942L90.1373 17.2088C90.2364 17.6603 90.3758 18.0783 90.5577 18.4602L91.4605 18.0301ZM90.9648 15.8748C90.9538 15.6899 90.9483 15.4983 90.9483 15.3H89.9483C89.9483 15.5169 89.9543 15.7283 89.9666 15.9341L90.9648 15.8748ZM90.9483 15.3V14.8144H89.9483V15.3H90.9483ZM90.9483 13.8431V12.8719H89.9483V13.8431H90.9483ZM90.9483 11.9006V10.9294H89.9483V11.9006H90.9483ZM90.9483 9.95812V8.98687H89.9483V9.95812H90.9483ZM90.9483 8.01562V7.53H89.9483V8.01562H90.9483ZM90.4483 8.03H91.0258V7.03H90.4483V8.03ZM92.1808 8.03H93.3358V7.03H92.1808V8.03ZM94.4908 8.03H95.0683V7.03H94.4908V8.03ZM94.5683 7.53V7.99312H95.5683V7.53H94.5683ZM94.5683 8.91937V9.84562H95.5683V8.91937H94.5683ZM94.5683 10.7719V11.6981H95.5683V10.7719H94.5683ZM94.5683 12.6244V13.5506H95.5683V12.6244H94.5683ZM94.5683 14.4769V14.94H95.5683V14.4769H94.5683ZM94.5683 14.94C94.5683 15.1463 94.5781 15.343 94.5984 15.5296L95.5925 15.421C95.5766 15.2751 95.5683 15.115 95.5683 14.94H94.5683ZM94.9747 16.7528C95.1031 16.9648 95.2647 17.1469 95.4611 17.2921L96.0555 16.4879C95.9721 16.4263 95.8964 16.3443 95.8301 16.2348L94.9747 16.7528ZM95.4809 17.306C95.6416 17.4131 95.8135 17.5043 95.9959 17.5801L96.3797 16.6567C96.2544 16.6046 96.14 16.5436 96.0356 16.474L95.4809 17.306ZM97.081 17.8437C97.2544 17.8614 97.4336 17.87 97.6183 17.87V16.87C97.4647 16.87 97.3196 16.8628 97.1825 16.8488L97.081 17.8437ZM97.6183 17.87C97.8406 17.87 98.0618 17.8614 98.2819 17.8442L98.204 16.8473C98.0101 16.8624 97.8149 16.87 97.6183 16.87V17.87ZM99.5939 17.6362C99.8084 17.5845 100.021 17.5242 100.233 17.4555L99.9237 16.5045C99.7367 16.5653 99.5486 16.6184 99.3596 16.664L99.5939 17.6362ZM100.233 17.4555C100.422 17.3939 100.605 17.3283 100.78 17.2585L100.411 16.3293C100.256 16.3907 100.094 16.4491 99.9237 16.5045L100.233 17.4555ZM101.842 16.7309C102.019 16.6212 102.186 16.5044 102.341 16.3804L101.716 15.5996C101.594 15.6969 101.461 15.7907 101.316 15.8809L101.842 16.7309ZM102.528 15.99V15.4613H101.528V15.99H102.528ZM102.528 14.4037V13.3462H101.528V14.4037H102.528ZM102.528 12.2887V11.2312H101.528V12.2887H102.528ZM102.528 10.1737V9.11625H101.528V10.1737H102.528ZM102.528 8.05875V7.53H101.528V8.05875H102.528ZM102.028 8.03H102.613V7.03H102.028V8.03ZM103.783 8.03H104.953V7.03H103.783V8.03ZM106.123 8.03H106.708V7.03H106.123V8.03ZM106.208 7.53V8.01675H107.208V7.53H106.208ZM106.208 8.99025V9.96375H107.208V8.99025H106.208ZM106.208 10.9372V11.9107H107.208V10.9372H106.208ZM106.208 12.8842V13.8577H107.208V12.8842H106.208ZM106.208 14.8312V15.8047H107.208V14.8312H106.208ZM106.208 16.7782V17.7518H107.208V16.7782H106.208ZM106.208 18.7253V19.6988H107.208V18.7253H106.208ZM106.208 20.6723V21.6458H107.208V20.6723H106.208ZM106.208 22.6193V23.5928H107.208V22.6193H106.208ZM106.208 24.5662V25.5397H107.208V24.5662H106.208ZM106.208 26.5132V27H107.208V26.5132H106.208ZM106.708 26.5H106.123V27.5H106.708V26.5ZM104.953 26.5H103.783V27.5H104.953V26.5ZM102.613 26.5H102.028V27.5H102.613V26.5ZM102.528 27V26.535H101.528V27H102.528ZM102.528 25.605V24.675H101.528V25.605H102.528ZM102.528 23.745V22.815H101.528V23.745H102.528ZM102.528 21.885V20.955H101.528V21.885H102.528ZM102.528 20.025V19.56H101.528V20.025H102.528ZM102.028 19.56H103.028V17.8502L101.538 18.6884L102.028 19.56ZM92.1283 19.65L91.5193 20.4431L91.5271 20.4492L91.5351 20.4551L92.1283 19.65ZM90.4483 7.53V6.53H89.4483V7.53H90.4483ZM95.0683 7.53H96.0683V6.53H95.0683V7.53ZM95.7583 16.89L95.1639 17.6942L95.1834 17.7086L95.2036 17.722L95.7583 16.89ZM100.078 16.98L99.7692 16.029L100.078 16.98ZM102.028 15.99L102.653 16.7709L103.028 16.4706V15.99H102.028ZM102.028 7.53V6.53H101.028V7.53H102.028ZM106.708 7.53H107.708V6.53H106.708V7.53ZM106.708 27V28H107.708V27H106.708ZM102.028 27H101.028V28H102.028V27ZM101.538 18.6884C101.41 18.7605 101.279 18.8295 101.146 18.8953L102.033 20.6879C102.198 20.6065 102.359 20.5211 102.519 20.4316L101.538 18.6884ZM100.33 19.2482C100.054 19.351 99.7696 19.4421 99.475 19.5214L99.9945 21.4527C100.348 21.3575 100.693 21.2473 101.029 21.1218L100.33 19.2482ZM98.591 19.718C98.2979 19.7703 97.9959 19.8121 97.6849 19.8432L97.8837 21.8333C98.2438 21.7973 98.5968 21.7486 98.9425 21.6869L98.591 19.718ZM96.7633 19.9028C96.6103 19.9076 96.4553 19.91 96.2983 19.91V21.91C96.4756 21.91 96.6514 21.9073 96.8256 21.9019L96.7633 19.9028ZM96.2983 19.91C96.1299 19.91 95.9655 19.9051 95.8051 19.8953L95.6837 21.8916C95.8859 21.9039 96.0908 21.91 96.2983 21.91V19.91ZM94.8461 19.7714C94.5269 19.7063 94.2253 19.6188 93.9402 19.5098L93.2257 21.3778C93.6174 21.5276 94.0247 21.6451 94.4465 21.7311L94.8461 19.7714ZM93.1066 19.1028C92.9748 19.023 92.8465 18.937 92.7215 18.8449L91.5351 20.4551C91.7084 20.5828 91.8869 20.7023 92.0705 20.8135L93.1066 19.1028ZM92.7373 18.8568C92.6205 18.7671 92.5125 18.669 92.4128 18.5621L90.95 19.926C91.1253 20.114 91.3152 20.2864 91.5193 20.4431L92.7373 18.8568ZM91.9119 17.815C91.7849 17.5484 91.68 17.2407 91.6023 16.887L89.6489 17.316C89.7552 17.8002 89.9061 18.2549 90.1063 18.6753L91.9119 17.815ZM91.4639 15.8452C91.4536 15.6707 91.4483 15.489 91.4483 15.3H89.4483C89.4483 15.5262 89.4546 15.7474 89.4674 15.9637L91.4639 15.8452ZM91.4483 15.3V14.8144H89.4483V15.3H91.4483ZM91.4483 13.8431V12.8719H89.4483V13.8431H91.4483ZM91.4483 11.9006V10.9294H89.4483V11.9006H91.4483ZM91.4483 9.95812V8.98687H89.4483V9.95812H91.4483ZM91.4483 8.01562V7.53H89.4483V8.01562H91.4483ZM90.4483 8.53H91.0258V6.53H90.4483V8.53ZM92.1808 8.53H93.3358V6.53H92.1808V8.53ZM94.4908 8.53H95.0683V6.53H94.4908V8.53ZM94.0683 7.53V7.99312H96.0683V7.53H94.0683ZM94.0683 8.91937V9.84562H96.0683V8.91937H94.0683ZM94.0683 10.7719V11.6981H96.0683V10.7719H94.0683ZM94.0683 12.6244V13.5506H96.0683V12.6244H94.0683ZM94.0683 14.4769V14.94H96.0683V14.4769H94.0683ZM94.0683 14.94C94.0683 15.162 94.0788 15.377 94.1014 15.5838L96.0896 15.3668C96.0759 15.2412 96.0683 15.0993 96.0683 14.94H94.0683ZM94.547 17.0118C94.7064 17.275 94.911 17.5073 95.1639 17.6942L96.3527 16.0858C96.3257 16.0659 96.2931 16.034 96.2578 15.9757L94.547 17.0118ZM95.2036 17.722C95.3924 17.8479 95.5931 17.9542 95.8039 18.0418L96.5716 16.195C96.4748 16.1548 96.3892 16.1088 96.313 16.0579L95.2036 17.722ZM97.0302 18.3411C97.2219 18.3606 97.4181 18.37 97.6183 18.37V16.37C97.4803 16.37 97.3521 16.3635 97.2333 16.3514L97.0302 18.3411ZM97.6183 18.37C97.8535 18.37 98.0877 18.3609 98.3208 18.3427L98.1651 16.3488C97.9842 16.3629 97.802 16.37 97.6183 16.37V18.37ZM99.7111 18.1222C99.9383 18.0675 100.164 18.0037 100.387 17.931L99.7692 16.029C99.5943 16.0858 99.4187 16.1354 99.2424 16.1779L99.7111 18.1222ZM100.387 17.931C100.586 17.8663 100.779 17.7971 100.965 17.723L100.226 15.8648C100.082 15.9219 99.9301 15.9767 99.7692 16.029L100.387 17.931ZM102.106 17.1559C102.299 17.0364 102.481 16.9082 102.653 16.7709L101.404 15.2091C101.299 15.2931 101.182 15.3755 101.052 15.4559L102.106 17.1559ZM103.028 15.99V15.4613H101.028V15.99H103.028ZM103.028 14.4037V13.3462H101.028V14.4037H103.028ZM103.028 12.2887V11.2312H101.028V12.2887H103.028ZM103.028 10.1737V9.11625H101.028V10.1737H103.028ZM103.028 8.05875V7.53H101.028V8.05875H103.028ZM102.028 8.53H102.613V6.53H102.028V8.53ZM103.783 8.53H104.953V6.53H103.783V8.53ZM106.123 8.53H106.708V6.53H106.123V8.53ZM105.708 7.53V8.01675H107.708V7.53H105.708ZM105.708 8.99025V9.96375H107.708V8.99025H105.708ZM105.708 10.9372V11.9107H107.708V10.9372H105.708ZM105.708 12.8842V13.8577H107.708V12.8842H105.708ZM105.708 14.8312V15.8047H107.708V14.8312H105.708ZM105.708 16.7782V17.7518H107.708V16.7782H105.708ZM105.708 18.7253V19.6988H107.708V18.7253H105.708ZM105.708 20.6723V21.6458H107.708V20.6723H105.708ZM105.708 22.6193V23.5928H107.708V22.6193H105.708ZM105.708 24.5662V25.5397H107.708V24.5662H105.708ZM105.708 26.5132V27H107.708V26.5132H105.708ZM106.708 26H106.123V28H106.708V26ZM104.953 26H103.783V28H104.953V26ZM102.613 26H102.028V28H102.613V26ZM103.028 27V26.535H101.028V27H103.028ZM103.028 25.605V24.675H101.028V25.605H103.028ZM103.028 23.745V22.815H101.028V23.745H103.028ZM103.028 21.885V20.955H101.028V21.885H103.028ZM103.028 20.025V19.56H101.028V20.025H103.028ZM112.407 7.53V7.03H111.907V7.53H112.407ZM117.087 7.53H117.587V7.03H117.087V7.53ZM117.087 15.33H116.587V15.83H117.087V15.33ZM125.367 15.33V15.83H125.867V15.33H125.367ZM125.367 7.53V7.03H124.867V7.53H125.367ZM130.047 7.53H130.547V7.03H130.047V7.53ZM130.047 27V27.5H130.547V27H130.047ZM125.367 27H124.867V27.5H125.367V27ZM125.367 18.66H125.867V18.16H125.367V18.66ZM117.087 18.66V18.16H116.587V18.66H117.087ZM117.087 27V27.5H117.587V27H117.087ZM112.407 27H111.907V27.5H112.407V27ZM111.907 7.53V8.01675H112.907V7.53H111.907ZM111.907 8.99025V9.96375H112.907V8.99025H111.907ZM111.907 10.9372V11.9107H112.907V10.9372H111.907ZM111.907 12.8842V13.8577H112.907V12.8842H111.907ZM111.907 14.8312V15.8047H112.907V14.8312H111.907ZM111.907 16.7782V17.7518H112.907V16.7782H111.907ZM111.907 18.7253V19.6988H112.907V18.7253H111.907ZM111.907 20.6723V21.6458H112.907V20.6723H111.907ZM111.907 22.6193V23.5928H112.907V22.6193H111.907ZM111.907 24.5662V25.5397H112.907V24.5662H111.907ZM111.907 26.5132V27H112.907V26.5132H111.907ZM112.407 27.5H112.992V26.5H112.407V27.5ZM114.162 27.5H115.332V26.5H114.162V27.5ZM116.502 27.5H117.087V26.5H116.502V27.5ZM117.587 27V26.4788H116.587V27H117.587ZM117.587 25.4363V24.3937H116.587V25.4363H117.587ZM117.587 23.3512V22.3088H116.587V23.3512H117.587ZM117.587 21.2663V20.2237H116.587V21.2663H117.587ZM117.587 19.1812V18.66H116.587V19.1812H117.587ZM117.087 19.16H117.604V18.16H117.087V19.16ZM118.639 19.16H119.674V18.16H118.639V19.16ZM120.709 19.16H121.744V18.16H120.709V19.16ZM122.779 19.16H123.814V18.16H122.779V19.16ZM124.849 19.16H125.367V18.16H124.849V19.16ZM124.867 18.66V19.1812H125.867V18.66H124.867ZM124.867 20.2237V21.2662H125.867V20.2237H124.867ZM124.867 22.3088V23.3512H125.867V22.3088H124.867ZM124.867 24.3937V25.4362H125.867V24.3937H124.867ZM124.867 26.4788V27H125.867V26.4788H124.867ZM125.367 27.5H125.952V26.5H125.367V27.5ZM127.122 27.5H128.292V26.5H127.122V27.5ZM129.462 27.5H130.047V26.5H129.462V27.5ZM130.547 27V26.5133H129.547V27H130.547ZM130.547 25.5397V24.5662H129.547V25.5397H130.547ZM130.547 23.5928V22.6192H129.547V23.5928H130.547ZM130.547 21.6458V20.6722H129.547V21.6458H130.547ZM130.547 19.6987V18.7252H129.547V19.6987H130.547ZM130.547 17.7517V16.7782H129.547V17.7517H130.547ZM130.547 15.8047V14.8312H129.547V15.8047H130.547ZM130.547 13.8577V12.8842H129.547V13.8577H130.547ZM130.547 11.9107V10.9372H129.547V11.9107H130.547ZM130.547 9.96375V8.99025H129.547V9.96375H130.547ZM130.547 8.01675V7.53H129.547V8.01675H130.547ZM130.047 7.03H129.462V8.03H130.047V7.03ZM128.292 7.03H127.122V8.03H128.292V7.03ZM125.952 7.03H125.367V8.03H125.952V7.03ZM124.867 7.53V8.0175H125.867V7.53H124.867ZM124.867 8.9925V9.9675H125.867V8.9925H124.867ZM124.867 10.9425V11.9175H125.867V10.9425H124.867ZM124.867 12.8925V13.8675H125.867V12.8925H124.867ZM124.867 14.8425V15.33H125.867V14.8425H124.867ZM125.367 14.83H124.849V15.83H125.367V14.83ZM123.814 14.83H122.779V15.83H123.814V14.83ZM121.744 14.83H120.709V15.83H121.744V14.83ZM119.674 14.83H118.639V15.83H119.674V14.83ZM117.604 14.83H117.087V15.83H117.604V14.83ZM117.587 15.33V14.8425H116.587V15.33H117.587ZM117.587 13.8675V12.8925H116.587V13.8675H117.587ZM117.587 11.9175V10.9425H116.587V11.9175H117.587ZM117.587 9.9675V8.9925H116.587V9.9675H117.587ZM117.587 8.0175V7.53H116.587V8.0175H117.587ZM117.087 7.03H116.502V8.03H117.087V7.03ZM115.332 7.03H114.162V8.03H115.332V7.03ZM112.992 7.03H112.407V8.03H112.992V7.03ZM112.407 7.53V6.53H111.407V7.53H112.407ZM117.087 7.53H118.087V6.53H117.087V7.53ZM117.087 15.33H116.087V16.33H117.087V15.33ZM125.367 15.33V16.33H126.367V15.33H125.367ZM125.367 7.53V6.53H124.367V7.53H125.367ZM130.047 7.53H131.047V6.53H130.047V7.53ZM130.047 27V28H131.047V27H130.047ZM125.367 27H124.367V28H125.367V27ZM125.367 18.66H126.367V17.66H125.367V18.66ZM117.087 18.66V17.66H116.087V18.66H117.087ZM117.087 27V28H118.087V27H117.087ZM112.407 27H111.407V28H112.407V27ZM111.407 7.53V8.01675H113.407V7.53H111.407ZM111.407 8.99025V9.96375H113.407V8.99025H111.407ZM111.407 10.9372V11.9107H113.407V10.9372H111.407ZM111.407 12.8842V13.8577H113.407V12.8842H111.407ZM111.407 14.8312V15.8047H113.407V14.8312H111.407ZM111.407 16.7782V17.7518H113.407V16.7782H111.407ZM111.407 18.7253V19.6988H113.407V18.7253H111.407ZM111.407 20.6723V21.6458H113.407V20.6723H111.407ZM111.407 22.6193V23.5928H113.407V22.6193H111.407ZM111.407 24.5662V25.5397H113.407V24.5662H111.407ZM111.407 26.5132V27H113.407V26.5132H111.407ZM112.407 28H112.992V26H112.407V28ZM114.162 28H115.332V26H114.162V28ZM116.502 28H117.087V26H116.502V28ZM118.087 27V26.4788H116.087V27H118.087ZM118.087 25.4363V24.3937H116.087V25.4363H118.087ZM118.087 23.3512V22.3088H116.087V23.3512H118.087ZM118.087 21.2663V20.2237H116.087V21.2663H118.087ZM118.087 19.1812V18.66H116.087V19.1812H118.087ZM117.087 19.66H117.604V17.66H117.087V19.66ZM118.639 19.66H119.674V17.66H118.639V19.66ZM120.709 19.66H121.744V17.66H120.709V19.66ZM122.779 19.66H123.814V17.66H122.779V19.66ZM124.849 19.66H125.367V17.66H124.849V19.66ZM124.367 18.66V19.1812H126.367V18.66H124.367ZM124.367 20.2237V21.2662H126.367V20.2237H124.367ZM124.367 22.3088V23.3512H126.367V22.3088H124.367ZM124.367 24.3937V25.4362H126.367V24.3937H124.367ZM124.367 26.4788V27H126.367V26.4788H124.367ZM125.367 28H125.952V26H125.367V28ZM127.122 28H128.292V26H127.122V28ZM129.462 28H130.047V26H129.462V28ZM131.047 27V26.5133H129.047V27H131.047ZM131.047 25.5397V24.5662H129.047V25.5397H131.047ZM131.047 23.5928V22.6192H129.047V23.5928H131.047ZM131.047 21.6458V20.6722H129.047V21.6458H131.047ZM131.047 19.6987V18.7252H129.047V19.6987H131.047ZM131.047 17.7517V16.7782H129.047V17.7517H131.047ZM131.047 15.8047V14.8312H129.047V15.8047H131.047ZM131.047 13.8577V12.8842H129.047V13.8577H131.047ZM131.047 11.9107V10.9372H129.047V11.9107H131.047ZM131.047 9.96375V8.99025H129.047V9.96375H131.047ZM131.047 8.01675V7.53H129.047V8.01675H131.047ZM130.047 6.53H129.462V8.53H130.047V6.53ZM128.292 6.53H127.122V8.53H128.292V6.53ZM125.952 6.53H125.367V8.53H125.952V6.53ZM124.367 7.53V8.0175H126.367V7.53H124.367ZM124.367 8.9925V9.9675H126.367V8.9925H124.367ZM124.367 10.9425V11.9175H126.367V10.9425H124.367ZM124.367 12.8925V13.8675H126.367V12.8925H124.367ZM124.367 14.8425V15.33H126.367V14.8425H124.367ZM125.367 14.33H124.849V16.33H125.367V14.33ZM123.814 14.33H122.779V16.33H123.814V14.33ZM121.744 14.33H120.709V16.33H121.744V14.33ZM119.674 14.33H118.639V16.33H119.674V14.33ZM117.604 14.33H117.087V16.33H117.604V14.33ZM118.087 15.33V14.8425H116.087V15.33H118.087ZM118.087 13.8675V12.8925H116.087V13.8675H118.087ZM118.087 11.9175V10.9425H116.087V11.9175H118.087ZM118.087 9.9675V8.9925H116.087V9.9675H118.087ZM118.087 8.0175V7.53H116.087V8.0175H118.087ZM117.087 6.53H116.502V8.53H117.087V6.53ZM115.332 6.53H114.162V8.53H115.332V6.53ZM112.992 6.53H112.407V8.53H112.992V6.53ZM135.733 7.53V7.03H135.233V7.53H135.733ZM140.413 7.53H140.913V7.03H140.413V7.53ZM140.413 14.67H139.913V15.17H140.413V14.67ZM149.803 16.11L149.461 16.4748L149.467 16.4805L149.803 16.11ZM135.733 27H135.233V27.5H135.733V27ZM153.733 7.53V7.03H153.233V7.53H153.733ZM158.413 7.53H158.913V7.03H158.413V7.53ZM158.413 27V27.5H158.913V27H158.413ZM153.733 27H153.233V27.5H153.733V27ZM145.273 23.19L145.528 23.6203L145.539 23.6131L145.273 23.19ZM145.303 18.33L145.108 18.7905L145.303 18.33ZM140.383 18V17.5H139.883V18H140.383ZM140.383 23.67H139.883V24.17H140.383V23.67ZM135.233 7.53V8.01675H136.233V7.53H135.233ZM135.233 8.99025V9.96375H136.233V8.99025H135.233ZM135.233 10.9372V11.9107H136.233V10.9372H135.233ZM135.233 12.8842V13.8577H136.233V12.8842H135.233ZM135.233 14.8312V15.8047H136.233V14.8312H135.233ZM135.233 16.7782V17.7518H136.233V16.7782H135.233ZM135.233 18.7253V19.6988H136.233V18.7253H135.233ZM135.233 20.6723V21.6458H136.233V20.6723H135.233ZM135.233 22.6193V23.5928H136.233V22.6193H135.233ZM135.233 24.5662V25.5397H136.233V24.5662H135.233ZM135.233 26.5132V27H136.233V26.5132H135.233ZM135.733 27.5H136.181V26.5H135.733V27.5ZM137.077 27.5H137.973V26.5H137.077V27.5ZM138.87 27.5H139.766V26.5H138.87V27.5ZM140.662 27.5H141.558V26.5H140.662V27.5ZM142.455 27.5H142.903V26.5H142.455V27.5ZM142.903 27.5C143.08 27.5 143.255 27.4983 143.426 27.4948L143.406 26.495C143.241 26.4983 143.074 26.5 142.903 26.5V27.5ZM144.477 27.4496C144.841 27.4249 145.191 27.3911 145.528 27.348L145.401 26.3561C145.086 26.3964 144.755 26.4284 144.409 26.4518L144.477 27.4496ZM146.578 27.1735C146.946 27.097 147.294 27.0065 147.621 26.9017L147.316 25.9493C147.026 26.0424 146.712 26.1243 146.374 26.1945L146.578 27.1735ZM148.642 26.4958C148.993 26.3238 149.313 26.1278 149.6 25.9065L148.989 25.115C148.761 25.2907 148.5 25.452 148.202 25.5975L148.642 26.4958ZM150.416 25.0889C150.653 24.7763 150.84 24.4346 150.978 24.0652L150.041 23.7161C149.937 23.9951 149.796 24.251 149.619 24.4854L150.416 25.0889ZM151.235 22.9442C151.253 22.7603 151.263 22.5722 151.263 22.38H150.263C150.263 22.5398 150.255 22.6936 150.24 22.8416L151.235 22.9442ZM151.263 22.38V21.9225H150.263V22.38H151.263ZM151.263 21.0075V20.0925H150.263V21.0075H151.263ZM151.263 19.1775V18.72H150.263V19.1775H151.263ZM151.263 18.72C151.263 18.4482 151.247 18.1876 151.213 17.9387L150.222 18.0719C150.249 18.2721 150.263 18.4879 150.263 18.72H151.263ZM150.685 16.3933C150.532 16.1497 150.35 15.9313 150.139 15.7395L149.467 16.4805C149.61 16.6098 149.733 16.7569 149.837 16.9233L150.685 16.3933ZM150.145 15.7452C149.947 15.5599 149.731 15.3932 149.497 15.2448L148.961 16.0891C149.144 16.205 149.31 16.3336 149.461 16.4748L150.145 15.7452ZM148.035 14.6118C147.792 14.5447 147.538 14.4898 147.274 14.4466L147.112 15.4334C147.344 15.4714 147.563 15.5189 147.769 15.5758L148.035 14.6118ZM147.274 14.4466C147.097 14.4176 146.912 14.391 146.719 14.3667L146.594 15.3589C146.776 15.3817 146.948 15.4066 147.112 15.4334L147.274 14.4466ZM145.616 14.2586C145.269 14.2331 144.902 14.2132 144.516 14.1988L144.479 15.1981C144.854 15.2121 145.209 15.2314 145.542 15.2559L145.616 14.2586ZM143.42 14.1729C143.241 14.171 143.059 14.17 142.873 14.17V15.17C143.055 15.17 143.234 15.171 143.409 15.1729L143.42 14.1729ZM142.873 14.17H142.258V15.17H142.873V14.17ZM141.028 14.17H140.413V15.17H141.028V14.17ZM140.913 14.67V14.2237H139.913V14.67H140.913ZM140.913 13.3312V12.4387H139.913V13.3312H140.913ZM140.913 11.5462V10.6537H139.913V11.5462H140.913ZM140.913 9.76125V8.86875H139.913V9.76125H140.913ZM140.913 7.97625V7.53H139.913V7.97625H140.913ZM140.413 7.03H139.828V8.03H140.413V7.03ZM138.658 7.03H137.488V8.03H138.658V7.03ZM136.318 7.03H135.733V8.03H136.318V7.03ZM153.233 7.53V8.01675H154.233V7.53H153.233ZM153.233 8.99025V9.96375H154.233V8.99025H153.233ZM153.233 10.9372V11.9107H154.233V10.9372H153.233ZM153.233 12.8842V13.8577H154.233V12.8842H153.233ZM153.233 14.8312V15.8047H154.233V14.8312H153.233ZM153.233 16.7782V17.7518H154.233V16.7782H153.233ZM153.233 18.7253V19.6988H154.233V18.7253H153.233ZM153.233 20.6723V21.6458H154.233V20.6723H153.233ZM153.233 22.6193V23.5928H154.233V22.6193H153.233ZM153.233 24.5662V25.5397H154.233V24.5662H153.233ZM153.233 26.5132V27H154.233V26.5132H153.233ZM153.733 27.5H154.318V26.5H153.733V27.5ZM155.488 27.5H156.658V26.5H155.488V27.5ZM157.828 27.5H158.413V26.5H157.828V27.5ZM158.913 27V26.5133H157.913V27H158.913ZM158.913 25.5397V24.5662H157.913V25.5397H158.913ZM158.913 23.5928V22.6192H157.913V23.5928H158.913ZM158.913 21.6458V20.6722H157.913V21.6458H158.913ZM158.913 19.6987V18.7252H157.913V19.6987H158.913ZM158.913 17.7517V16.7782H157.913V17.7517H158.913ZM158.913 15.8047V14.8312H157.913V15.8047H158.913ZM158.913 13.8577V12.8842H157.913V13.8577H158.913ZM158.913 11.9107V10.9372H157.913V11.9107H158.913ZM158.913 9.96375V8.99025H157.913V9.96375H158.913ZM158.913 8.01675V7.53H157.913V8.01675H158.913ZM158.413 7.03H157.828V8.03H158.413V7.03ZM156.658 7.03H155.488V8.03H156.658V7.03ZM154.318 7.03H153.733V8.03H154.318V7.03ZM142.693 23.17H142.115V24.17H142.693V23.17ZM140.96 23.17H140.383V24.17H140.96V23.17ZM140.883 23.67V23.1975H139.883V23.67H140.883ZM140.883 22.2525V21.3075H139.883V22.2525H140.883ZM140.883 20.3625V19.4175H139.883V20.3625H140.883ZM140.883 18.4725V18H139.883V18.4725H140.883ZM140.383 18.5H140.975V17.5H140.383V18.5ZM142.16 18.5H142.753V17.5H142.16V18.5ZM142.753 18.5C142.975 18.5 143.183 18.504 143.379 18.5119L143.419 17.5127C143.209 17.5042 142.987 17.5 142.753 17.5V18.5ZM144.585 18.6391C144.804 18.683 144.977 18.7349 145.108 18.7905L145.498 17.8695C145.287 17.7806 145.047 17.7117 144.782 17.6586L144.585 18.6391ZM145.108 18.7905C145.199 18.8288 145.27 18.8723 145.326 18.9182L145.959 18.144C145.821 18.0311 145.666 17.9406 145.498 17.8695L145.108 18.7905ZM145.554 19.3063C145.572 19.3863 145.583 19.4802 145.583 19.59H146.583C146.583 19.4169 146.566 19.2487 146.53 19.0874L145.554 19.3063ZM145.583 19.59V20.1075H146.583V19.59H145.583ZM145.583 21.1425V21.66H146.583V21.1425H145.583ZM145.583 21.66C145.583 21.7886 145.571 21.904 145.549 22.0075L146.527 22.2142C146.565 22.0359 146.583 21.8507 146.583 21.66H145.583ZM145.264 22.5598C145.194 22.6331 145.109 22.7025 145.006 22.7669L145.539 23.6131C145.705 23.5088 145.855 23.3885 145.986 23.2511L145.264 22.5598ZM145.018 22.7599C144.89 22.8359 144.726 22.9062 144.522 22.9663L144.804 23.9257C145.071 23.8473 145.314 23.747 145.528 23.6201L145.018 22.7599ZM143.326 23.1521C143.128 23.164 142.917 23.17 142.693 23.17V24.17C142.935 24.17 143.166 24.1635 143.386 24.1503L143.326 23.1521ZM135.733 7.53V6.53H134.733V7.53H135.733ZM140.413 7.53H141.413V6.53H140.413V7.53ZM140.413 14.67H139.413V15.67H140.413V14.67ZM149.803 16.11L149.119 16.8395L149.125 16.8453L149.131 16.851L149.803 16.11ZM135.733 27H134.733V28H135.733V27ZM153.733 7.53V6.53H152.733V7.53H153.733ZM158.413 7.53H159.413V6.53H158.413V7.53ZM158.413 27V28H159.413V27H158.413ZM153.733 27H152.733V28H153.733V27ZM145.273 23.19L145.783 24.0503L145.794 24.0434L145.806 24.0362L145.273 23.19ZM145.303 18.33L144.913 19.251L145.303 18.33ZM140.383 18V17H139.383V18H140.383ZM140.383 23.67H139.383V24.67H140.383V23.67ZM134.733 7.53V8.01675H136.733V7.53H134.733ZM134.733 8.99025V9.96375H136.733V8.99025H134.733ZM134.733 10.9372V11.9107H136.733V10.9372H134.733ZM134.733 12.8842V13.8577H136.733V12.8842H134.733ZM134.733 14.8312V15.8047H136.733V14.8312H134.733ZM134.733 16.7782V17.7518H136.733V16.7782H134.733ZM134.733 18.7253V19.6988H136.733V18.7253H134.733ZM134.733 20.6723V21.6458H136.733V20.6723H134.733ZM134.733 22.6193V23.5928H136.733V22.6193H134.733ZM134.733 24.5662V25.5397H136.733V24.5662H134.733ZM134.733 26.5132V27H136.733V26.5132H134.733ZM135.733 28H136.181V26H135.733V28ZM137.077 28H137.973V26H137.077V28ZM138.87 28H139.766V26H138.87V28ZM140.662 28H141.558V26H140.662V28ZM142.455 28H142.903V26H142.455V28ZM142.903 28C143.083 28 143.261 27.9982 143.437 27.9947L143.396 25.9951C143.235 25.9984 143.07 26 142.903 26V28ZM144.51 27.9484C144.884 27.9231 145.244 27.8884 145.591 27.844L145.337 25.8602C145.033 25.8991 144.712 25.9302 144.375 25.953L144.51 27.9484ZM146.68 27.663C147.063 27.5833 147.428 27.4885 147.774 27.3779L147.164 25.4731C146.891 25.5604 146.595 25.638 146.273 25.705L146.68 27.663ZM148.861 26.9449C149.24 26.7597 149.589 26.5464 149.905 26.3023L148.683 24.7192C148.485 24.8721 148.253 25.016 147.982 25.1484L148.861 26.9449ZM150.815 25.3907C151.081 25.039 151.292 24.6543 151.446 24.2397L149.572 23.5416C149.485 23.7754 149.368 23.9884 149.22 24.1836L150.815 25.3907ZM151.732 22.9955C151.753 22.7936 151.763 22.5884 151.763 22.38H149.763C149.763 22.5236 149.756 22.6603 149.742 22.7903L151.732 22.9955ZM151.763 22.38V21.9225H149.763V22.38H151.763ZM151.763 21.0075V20.0925H149.763V21.0075H151.763ZM151.763 19.1775V18.72H149.763V19.1775H151.763ZM151.763 18.72C151.763 18.4284 151.745 18.1454 151.709 17.8721L149.726 18.1385C149.75 18.3144 149.763 18.5078 149.763 18.72H151.763ZM151.109 16.1282C150.932 15.846 150.721 15.5921 150.474 15.369L149.131 16.851C149.239 16.949 149.333 17.0605 149.413 17.1883L151.109 16.1282ZM150.487 15.3805C150.266 15.1731 150.025 14.9873 149.765 14.8227L148.693 16.5112C148.851 16.6109 148.992 16.7205 149.119 16.8395L150.487 15.3805ZM148.168 14.1298C147.906 14.0576 147.635 13.999 147.354 13.9531L147.031 15.9269C147.247 15.9622 147.448 16.006 147.636 16.0578L148.168 14.1298ZM147.354 13.9531C147.171 13.9231 146.98 13.8956 146.782 13.8707L146.532 15.8549C146.707 15.8771 146.874 15.9011 147.031 15.9269L147.354 13.9531ZM145.652 13.76C145.299 13.734 144.926 13.7138 144.535 13.6991L144.46 15.6977C144.83 15.7116 145.179 15.7306 145.506 15.7546L145.652 13.76ZM143.426 13.673C143.245 13.671 143.061 13.67 142.873 13.67V15.67C143.054 15.67 143.231 15.6709 143.404 15.6728L143.426 13.673ZM142.873 13.67H142.258V15.67H142.873V13.67ZM141.028 13.67H140.413V15.67H141.028V13.67ZM141.413 14.67V14.2237H139.413V14.67H141.413ZM141.413 13.3312V12.4387H139.413V13.3312H141.413ZM141.413 11.5462V10.6537H139.413V11.5462H141.413ZM141.413 9.76125V8.86875H139.413V9.76125H141.413ZM141.413 7.97625V7.53H139.413V7.97625H141.413ZM140.413 6.53H139.828V8.53H140.413V6.53ZM138.658 6.53H137.488V8.53H138.658V6.53ZM136.318 6.53H135.733V8.53H136.318V6.53ZM152.733 7.53V8.01675H154.733V7.53H152.733ZM152.733 8.99025V9.96375H154.733V8.99025H152.733ZM152.733 10.9372V11.9107H154.733V10.9372H152.733ZM152.733 12.8842V13.8577H154.733V12.8842H152.733ZM152.733 14.8312V15.8047H154.733V14.8312H152.733ZM152.733 16.7782V17.7518H154.733V16.7782H152.733ZM152.733 18.7253V19.6988H154.733V18.7253H152.733ZM152.733 20.6723V21.6458H154.733V20.6723H152.733ZM152.733 22.6193V23.5928H154.733V22.6193H152.733ZM152.733 24.5662V25.5397H154.733V24.5662H152.733ZM152.733 26.5132V27H154.733V26.5132H152.733ZM153.733 28H154.318V26H153.733V28ZM155.488 28H156.658V26H155.488V28ZM157.828 28H158.413V26H157.828V28ZM159.413 27V26.5133H157.413V27H159.413ZM159.413 25.5397V24.5662H157.413V25.5397H159.413ZM159.413 23.5928V22.6192H157.413V23.5928H159.413ZM159.413 21.6458V20.6722H157.413V21.6458H159.413ZM159.413 19.6987V18.7252H157.413V19.6987H159.413ZM159.413 17.7517V16.7782H157.413V17.7517H159.413ZM159.413 15.8047V14.8312H157.413V15.8047H159.413ZM159.413 13.8577V12.8842H157.413V13.8577H159.413ZM159.413 11.9107V10.9372H157.413V11.9107H159.413ZM159.413 9.96375V8.99025H157.413V9.96375H159.413ZM159.413 8.01675V7.53H157.413V8.01675H159.413ZM158.413 6.53H157.828V8.53H158.413V6.53ZM156.658 6.53H155.488V8.53H156.658V6.53ZM154.318 6.53H153.733V8.53H154.318V6.53ZM142.693 22.67H142.115V24.67H142.693V22.67ZM140.96 22.67H140.383V24.67H140.96V22.67ZM141.383 23.67V23.1975H139.383V23.67H141.383ZM141.383 22.2525V21.3075H139.383V22.2525H141.383ZM141.383 20.3625V19.4175H139.383V20.3625H141.383ZM141.383 18.4725V18H139.383V18.4725H141.383ZM140.383 19H140.975V17H140.383V19ZM142.16 19H142.753V17H142.16V19ZM142.753 19C142.969 19 143.171 19.0039 143.359 19.0115L143.44 17.0131C143.221 17.0043 142.992 17 142.753 17V19ZM144.487 19.1293C144.683 19.1686 144.821 19.212 144.913 19.251L145.692 17.409C145.443 17.3035 145.168 17.2261 144.88 17.1683L144.487 19.1293ZM144.913 19.251C144.965 19.2729 144.994 19.2929 145.009 19.3053L146.275 17.7568C146.096 17.6106 145.899 17.4965 145.692 17.409L144.913 19.251ZM145.066 19.4158C145.075 19.4552 145.083 19.5119 145.083 19.59H147.083C147.083 19.3852 147.063 19.1799 147.018 18.978L145.066 19.4158ZM145.083 19.59V20.1075H147.083V19.59H145.083ZM145.083 21.1425V21.66H147.083V21.1425H145.083ZM145.083 21.66C145.083 21.7576 145.074 21.8381 145.06 21.9042L147.017 22.3176C147.062 22.1018 147.083 21.8817 147.083 21.66H145.083ZM144.902 22.2142C144.863 22.2554 144.811 22.2993 144.74 22.3438L145.806 24.0362C146.003 23.9119 146.185 23.7662 146.348 23.5968L144.902 22.2142ZM144.763 22.3297C144.678 22.3803 144.554 22.4356 144.381 22.4867L144.945 24.4053C145.243 24.3178 145.526 24.2025 145.783 24.0503L144.763 22.3297ZM143.296 22.653C143.109 22.6642 142.909 22.67 142.693 22.67V24.67C142.944 24.67 143.185 24.6633 143.416 24.6494L143.296 22.653ZM164.127 7.53V7.03H163.627V7.53H164.127ZM168.807 7.53H169.307V7.03H168.807V7.53ZM168.807 20.85H168.307V22.5802L169.23 21.1167L168.807 20.85ZM177.207 7.53V7.03H176.932L176.784 7.26329L177.207 7.53ZM181.887 7.53H182.387V7.03H181.887V7.53ZM181.887 27V27.5H182.387V27H181.887ZM177.207 27H176.707V27.5H177.207V27ZM177.207 13.47H177.707V11.7167L176.783 13.2063L177.207 13.47ZM168.807 27V27.5H169.085L169.232 27.2637L168.807 27ZM164.127 27H163.627V27.5H164.127V27ZM168.537 4.17L168.211 4.5486L168.215 4.55226L168.537 4.17ZM167.007 0.749998V0.249998H166.507V0.749998H167.007ZM170.757 0.749998L171.254 0.692248L171.203 0.249998H170.757V0.749998ZM171.417 2.58L171.054 2.92331L171.059 2.9285L171.064 2.93355L171.417 2.58ZM174.627 2.58L174.274 2.22645L174.269 2.2315L174.264 2.23669L174.627 2.58ZM175.317 0.749998V0.249998H174.872L174.821 0.692248L175.317 0.749998ZM179.067 0.749998H179.567V0.249998H179.067V0.749998ZM177.537 4.17L177.86 4.55228L177.864 4.54858L177.537 4.17ZM163.627 7.53V8.01675H164.627V7.53H163.627ZM163.627 8.99025V9.96375H164.627V8.99025H163.627ZM163.627 10.9372V11.9107H164.627V10.9372H163.627ZM163.627 12.8842V13.8577H164.627V12.8842H163.627ZM163.627 14.8312V15.8047H164.627V14.8312H163.627ZM163.627 16.7782V17.7518H164.627V16.7782H163.627ZM163.627 18.7253V19.6988H164.627V18.7253H163.627ZM163.627 20.6723V21.6458H164.627V20.6723H163.627ZM163.627 22.6193V23.5928H164.627V22.6193H163.627ZM163.627 24.5662V25.5397H164.627V24.5662H163.627ZM163.627 26.5132V27H164.627V26.5132H163.627ZM164.127 27.5H164.712V26.5H164.127V27.5ZM165.882 27.5H167.052V26.5H165.882V27.5ZM168.222 27.5H168.807V26.5H168.222V27.5ZM169.232 27.2637L169.495 26.8409L168.645 26.3135L168.383 26.7363L169.232 27.2637ZM170.02 25.9953L170.545 25.1497L169.695 24.6222L169.17 25.4678L170.02 25.9953ZM171.07 24.304L171.595 23.4584L170.745 22.931L170.22 23.7766L171.07 24.304ZM172.12 22.6128L172.645 21.7672L171.795 21.2397L171.27 22.0853L172.12 22.6128ZM173.17 20.9215L173.695 20.0759L172.845 19.5485L172.32 20.3941L173.17 20.9215ZM174.22 19.2303L174.745 18.3847L173.895 17.8572L173.37 18.7028L174.22 19.2303ZM175.27 17.539L175.795 16.6934L174.945 16.166L174.42 17.0116L175.27 17.539ZM176.32 15.8478L176.845 15.0022L175.995 14.4747L175.47 15.3203L176.32 15.8478ZM177.37 14.1565L177.632 13.7337L176.783 13.2063L176.52 13.6291L177.37 14.1565ZM176.707 13.47V13.9532H177.707V13.47H176.707ZM176.707 14.9196V15.8861H177.707V14.9196H176.707ZM176.707 16.8525V17.8189H177.707V16.8525H176.707ZM176.707 18.7854V19.7518H177.707V18.7854H176.707ZM176.707 20.7182V21.6846H177.707V20.7182H176.707ZM176.707 22.6511V23.6175H177.707V22.6511H176.707ZM176.707 24.5839V25.5504H177.707V24.5839H176.707ZM176.707 26.5168V27H177.707V26.5168H176.707ZM177.207 27.5H177.792V26.5H177.207V27.5ZM178.962 27.5H180.132V26.5H178.962V27.5ZM181.302 27.5H181.887V26.5H181.302V27.5ZM182.387 27V26.5133H181.387V27H182.387ZM182.387 25.5397V24.5662H181.387V25.5397H182.387ZM182.387 23.5928V22.6192H181.387V23.5928H182.387ZM182.387 21.6458V20.6722H181.387V21.6458H182.387ZM182.387 19.6987V18.7252H181.387V19.6987H182.387ZM182.387 17.7517V16.7782H181.387V17.7517H182.387ZM182.387 15.8047V14.8312H181.387V15.8047H182.387ZM182.387 13.8577V12.8842H181.387V13.8577H182.387ZM182.387 11.9107V10.9372H181.387V11.9107H182.387ZM182.387 9.96375V8.99025H181.387V9.96375H182.387ZM182.387 8.01675V7.53H181.387V8.01675H182.387ZM181.887 7.03H181.302V8.03H181.887V7.03ZM180.132 7.03H178.962V8.03H180.132V7.03ZM177.792 7.03H177.207V8.03H177.792V7.03ZM176.784 7.26329L176.522 7.67954L177.368 8.21296L177.63 7.79671L176.784 7.26329ZM175.997 8.51204L175.472 9.34454L176.318 9.87796L176.843 9.04546L175.997 8.51204ZM174.947 10.177L174.422 11.0095L175.268 11.543L175.793 10.7105L174.947 10.177ZM173.897 11.842L173.372 12.6745L174.218 13.208L174.743 12.3755L173.897 11.842ZM172.847 13.507L172.322 14.3395L173.168 14.873L173.693 14.0405L172.847 13.507ZM171.797 15.172L171.272 16.0045L172.118 16.538L172.643 15.7055L171.797 15.172ZM170.747 16.837L170.222 17.6695L171.068 18.203L171.593 17.3705L170.747 16.837ZM169.697 18.502L169.172 19.3345L170.018 19.868L170.543 19.0355L169.697 18.502ZM168.647 20.167L168.384 20.5833L169.23 21.1167L169.493 20.7005L168.647 20.167ZM169.307 20.85V20.3743H168.307V20.85H169.307ZM169.307 19.4229V18.4714H168.307V19.4229H169.307ZM169.307 17.52V16.5686H168.307V17.52H169.307ZM169.307 15.6171V14.6657H168.307V15.6171H169.307ZM169.307 13.7143V12.7629H168.307V13.7143H169.307ZM169.307 11.8114V10.86H168.307V11.8114H169.307ZM169.307 9.90857V8.95714H168.307V9.90857H169.307ZM169.307 8.00571V7.53H168.307V8.00571H169.307ZM168.807 7.03H168.222V8.03H168.807V7.03ZM167.052 7.03H165.882V8.03H167.052V7.03ZM164.712 7.03H164.127V8.03H164.712V7.03ZM173.037 4.96C172.841 4.96 172.649 4.95559 172.464 4.94683L172.417 5.94572C172.619 5.95526 172.826 5.96 173.037 5.96V4.96ZM171.336 4.82965C170.945 4.7638 170.586 4.67358 170.26 4.56031L169.932 5.50513C170.317 5.63865 170.73 5.74176 171.17 5.81578L171.336 4.82965ZM169.286 4.09915C169.134 4.00303 168.992 3.89919 168.86 3.78774L168.215 4.55226C168.383 4.69407 168.562 4.82484 168.752 4.94468L169.286 4.09915ZM168.864 3.79142C168.752 3.69451 168.647 3.59469 168.549 3.49203L167.824 4.18048C167.945 4.30806 168.074 4.43074 168.211 4.54858L168.864 3.79142ZM168.033 2.81184C167.889 2.5687 167.775 2.31013 167.69 2.03522L166.735 2.3301C166.842 2.67891 166.988 3.0095 167.172 3.32096L168.033 2.81184ZM167.527 1.18902C167.514 1.04685 167.507 0.900535 167.507 0.749998H166.507C166.507 0.929134 166.515 1.10529 166.531 1.27837L167.527 1.18902ZM167.007 1.25H167.476V0.249998H167.007V1.25ZM168.414 1.25H169.351V0.249998H168.414V1.25ZM170.289 1.25H170.757V0.249998H170.289V1.25ZM170.261 0.807749C170.282 0.991972 170.309 1.16759 170.341 1.3343L171.323 1.14269C171.296 1.00395 171.273 0.853907 171.254 0.692248L170.261 0.807749ZM170.693 2.40482C170.793 2.59823 170.912 2.77309 171.054 2.92331L171.781 2.23669C171.713 2.16468 171.645 2.06966 171.581 1.94555L170.693 2.40482ZM171.064 2.93355C171.2 3.06934 171.353 3.1844 171.523 3.27906L172.01 2.40603C171.918 2.35453 171.839 2.29456 171.771 2.22645L171.064 2.93355ZM172.541 3.59174C172.7 3.61082 172.866 3.62 173.037 3.62V2.62C172.901 2.62 172.775 2.6127 172.659 2.59883L172.541 3.59174ZM173.037 3.62C173.207 3.62 173.37 3.61105 173.527 3.59239L173.409 2.59939C173.296 2.61288 173.172 2.62 173.037 2.62V3.62ZM174.537 3.27895C174.706 3.18207 174.858 3.06367 174.991 2.92331L174.264 2.23669C174.202 2.30253 174.128 2.3608 174.04 2.41106L174.537 3.27895ZM174.981 2.93355C175.129 2.78548 175.254 2.61251 175.359 2.42029L174.482 1.94019C174.416 2.0611 174.346 2.15465 174.274 2.22645L174.981 2.93355ZM175.731 1.34033C175.765 1.17168 175.792 0.994032 175.814 0.807749L174.821 0.692248C174.802 0.85428 174.778 1.00444 174.75 1.1431L175.731 1.34033ZM175.317 1.25H175.786V0.249998H175.317V1.25ZM176.724 1.25H177.661V0.249998H176.724V1.25ZM178.599 1.25H179.067V0.249998H178.599V1.25ZM178.567 0.749998C178.567 0.900535 178.561 1.04685 178.548 1.18902L179.544 1.27837C179.56 1.10529 179.567 0.929134 179.567 0.749998H178.567ZM178.385 2.03522C178.3 2.31013 178.185 2.5687 178.042 2.81184L178.902 3.32096C179.087 3.0095 179.233 2.67891 179.34 2.3301L178.385 2.03522ZM177.525 3.49203C177.428 3.59469 177.323 3.69451 177.211 3.79142L177.864 4.54858C178.001 4.43074 178.129 4.30806 178.251 4.18048L177.525 3.49203ZM177.215 3.78774C177.083 3.89919 176.941 4.00303 176.789 4.09915L177.323 4.94468C177.512 4.82484 177.691 4.69407 177.86 4.55226L177.215 3.78774ZM175.815 4.56031C175.488 4.67358 175.13 4.7638 174.739 4.82965L174.905 5.81578C175.345 5.74176 175.758 5.63865 176.143 5.50513L175.815 4.56031ZM173.611 4.94683C173.425 4.95559 173.234 4.96 173.037 4.96V5.96C173.249 5.96 173.456 5.95526 173.658 5.94572L173.611 4.94683ZM164.127 7.53V6.53H163.127V7.53H164.127ZM168.807 7.53H169.807V6.53H168.807V7.53ZM168.807 20.85H167.807V24.3104L169.653 21.3834L168.807 20.85ZM177.207 7.53V6.53H176.656L176.361 6.99658L177.207 7.53ZM181.887 7.53H182.887V6.53H181.887V7.53ZM181.887 27V28H182.887V27H181.887ZM177.207 27H176.207V28H177.207V27ZM177.207 13.47H178.207V9.96339L176.358 12.9425L177.207 13.47ZM168.807 27V28H169.364L169.657 27.5275L168.807 27ZM164.127 27H163.127V28H164.127V27ZM168.537 4.17L167.884 4.9272L167.893 4.93452L168.537 4.17ZM167.007 0.749998V-0.250002H166.007V0.749998H167.007ZM170.757 0.749998L171.751 0.634498L171.648 -0.250002H170.757V0.749998ZM171.417 2.58L170.69 3.26662L170.7 3.27701L170.71 3.28711L171.417 2.58ZM174.627 2.58L173.92 1.87289L173.91 1.88299L173.9 1.89338L174.627 2.58ZM175.317 0.749998V-0.250002H174.427L174.324 0.634498L175.317 0.749998ZM179.067 0.749998H180.067V-0.250002H179.067V0.749998ZM177.537 4.17L178.182 4.93457L178.191 4.92716L177.537 4.17ZM163.127 7.53V8.01675H165.127V7.53H163.127ZM163.127 8.99025V9.96375H165.127V8.99025H163.127ZM163.127 10.9372V11.9107H165.127V10.9372H163.127ZM163.127 12.8842V13.8577H165.127V12.8842H163.127ZM163.127 14.8312V15.8047H165.127V14.8312H163.127ZM163.127 16.7782V17.7518H165.127V16.7782H163.127ZM163.127 18.7253V19.6988H165.127V18.7253H163.127ZM163.127 20.6723V21.6458H165.127V20.6723H163.127ZM163.127 22.6193V23.5928H165.127V22.6193H163.127ZM163.127 24.5662V25.5397H165.127V24.5662H163.127ZM163.127 26.5132V27H165.127V26.5132H163.127ZM164.127 28H164.712V26H164.127V28ZM165.882 28H167.052V26H165.882V28ZM168.222 28H168.807V26H168.222V28ZM169.657 27.5275L169.919 27.1046L168.22 26.0497L167.958 26.4725L169.657 27.5275ZM170.444 26.259L170.969 25.4134L169.27 24.3585L168.745 25.2041L170.444 26.259ZM171.494 24.5678L172.019 23.7221L170.32 22.6672L169.795 23.5129L171.494 24.5678ZM172.544 22.8765L173.069 22.0309L171.37 20.976L170.845 21.8216L172.544 22.8765ZM173.594 21.1853L174.119 20.3396L172.42 19.2847L171.895 20.1304L173.594 21.1853ZM174.644 19.494L175.169 18.6484L173.47 17.5935L172.945 18.4391L174.644 19.494ZM175.694 17.8028L176.219 16.9571L174.52 15.9022L173.995 16.7479L175.694 17.8028ZM176.744 16.1115L177.269 15.2659L175.57 14.211L175.045 15.0566L176.744 16.1115ZM177.794 14.4203L178.057 13.9975L176.358 12.9425L176.095 13.3654L177.794 14.4203ZM176.207 13.47V13.9532H178.207V13.47H176.207ZM176.207 14.9196V15.8861H178.207V14.9196H176.207ZM176.207 16.8525V17.8189H178.207V16.8525H176.207ZM176.207 18.7854V19.7518H178.207V18.7854H176.207ZM176.207 20.7182V21.6846H178.207V20.7182H176.207ZM176.207 22.6511V23.6175H178.207V22.6511H176.207ZM176.207 24.5839V25.5504H178.207V24.5839H176.207ZM176.207 26.5168V27H178.207V26.5168H176.207ZM177.207 28H177.792V26H177.207V28ZM178.962 28H180.132V26H178.962V28ZM181.302 28H181.887V26H181.302V28ZM182.887 27V26.5133H180.887V27H182.887ZM182.887 25.5397V24.5662H180.887V25.5397H182.887ZM182.887 23.5928V22.6192H180.887V23.5928H182.887ZM182.887 21.6458V20.6722H180.887V21.6458H182.887ZM182.887 19.6987V18.7252H180.887V19.6987H182.887ZM182.887 17.7517V16.7782H180.887V17.7517H182.887ZM182.887 15.8047V14.8312H180.887V15.8047H182.887ZM182.887 13.8577V12.8842H180.887V13.8577H182.887ZM182.887 11.9107V10.9372H180.887V11.9107H182.887ZM182.887 9.96375V8.99025H180.887V9.96375H182.887ZM182.887 8.01675V7.53H180.887V8.01675H182.887ZM181.887 6.53H181.302V8.53H181.887V6.53ZM180.132 6.53H178.962V8.53H180.132V6.53ZM177.792 6.53H177.207V8.53H177.792V6.53ZM176.361 6.99658L176.099 7.41283L177.791 8.47967L178.053 8.06342L176.361 6.99658ZM175.574 8.24533L175.049 9.07783L176.741 10.1447L177.266 9.31217L175.574 8.24533ZM174.524 9.91033L173.999 10.7428L175.691 11.8097L176.216 10.9772L174.524 9.91033ZM173.474 11.5753L172.949 12.4078L174.641 13.4747L175.166 12.6422L173.474 11.5753ZM172.424 13.2403L171.899 14.0728L173.591 15.1397L174.116 14.3072L172.424 13.2403ZM171.374 14.9053L170.849 15.7378L172.541 16.8047L173.066 15.9722L171.374 14.9053ZM170.324 16.5703L169.799 17.4028L171.491 18.4697L172.016 17.6372L170.324 16.5703ZM169.274 18.2353L168.749 19.0678L170.441 20.1347L170.966 19.3022L169.274 18.2353ZM168.224 19.9003L167.961 20.3166L169.653 21.3834L169.916 20.9672L168.224 19.9003ZM169.807 20.85V20.3743H167.807V20.85H169.807ZM169.807 19.4229V18.4714H167.807V19.4229H169.807ZM169.807 17.52V16.5686H167.807V17.52H169.807ZM169.807 15.6171V14.6657H167.807V15.6171H169.807ZM169.807 13.7143V12.7629H167.807V13.7143H169.807ZM169.807 11.8114V10.86H167.807V11.8114H169.807ZM169.807 9.90857V8.95714H167.807V9.90857H169.807ZM169.807 8.00571V7.53H167.807V8.00571H169.807ZM168.807 6.53H168.222V8.53H168.807V6.53ZM167.052 6.53H165.882V8.53H167.052V6.53ZM164.712 6.53H164.127V8.53H164.712V6.53ZM173.037 4.46C172.848 4.46 172.665 4.45576 172.487 4.44739L172.393 6.44517C172.603 6.45509 172.818 6.46 173.037 6.46V4.46ZM171.419 4.33659C171.052 4.27482 170.721 4.19105 170.423 4.0879L169.768 5.97754C170.182 6.12118 170.623 6.23073 171.087 6.30885L171.419 4.33659ZM169.553 3.67639C169.42 3.59212 169.296 3.50175 169.182 3.40548L167.893 4.93452C168.079 5.09151 168.277 5.23574 168.485 5.36744L169.553 3.67639ZM169.191 3.41284C169.09 3.32639 168.998 3.238 168.912 3.1478L167.461 4.5247C167.594 4.66474 167.735 4.79885 167.884 4.92716L169.191 3.41284ZM168.463 2.55728C168.34 2.34831 168.241 2.12574 168.168 1.88779L166.257 2.47754C166.376 2.8633 166.538 3.22989 166.742 3.57552L168.463 2.55728ZM168.025 1.14435C168.013 1.01763 168.007 0.886236 168.007 0.749998H166.007C166.007 0.943433 166.016 1.13451 166.033 1.32304L168.025 1.14435ZM167.007 1.75H167.476V-0.250002H167.007V1.75ZM168.414 1.75H169.351V-0.250002H168.414V1.75ZM170.289 1.75H170.757V-0.250002H170.289V1.75ZM169.764 0.865499C169.787 1.061 169.815 1.24942 169.851 1.4301L171.814 1.04689C171.789 0.922125 171.768 0.784875 171.751 0.634498L169.764 0.865499ZM170.249 2.63446C170.366 2.86251 170.512 3.07729 170.69 3.26662L172.144 1.89338C172.113 1.86047 172.071 1.80538 172.025 1.71592L170.249 2.63446ZM170.71 3.28711C170.88 3.45674 171.071 3.59934 171.279 3.71558L172.254 1.96952C172.201 1.9396 172.159 1.90717 172.124 1.87289L170.71 3.28711ZM172.481 4.08819C172.662 4.10988 172.848 4.12 173.037 4.12V2.12C172.919 2.12 172.813 2.11364 172.719 2.10238L172.481 4.08819ZM173.037 4.12C173.224 4.12 173.408 4.11013 173.586 4.0889L173.35 2.10289C173.258 2.11379 173.155 2.12 173.037 2.12V4.12ZM174.785 3.7129C174.995 3.59271 175.187 3.44424 175.354 3.26662L173.9 1.89338C173.873 1.92196 173.839 1.95016 173.792 1.97712L174.785 3.7129ZM175.334 3.28711C175.521 3.10089 175.673 2.88821 175.798 2.66034L174.044 1.70013C173.997 1.7854 173.954 1.83923 173.92 1.87289L175.334 3.28711ZM176.221 1.43895C176.258 1.25529 176.288 1.06391 176.311 0.865499L174.324 0.634498C174.307 0.784403 174.285 0.920828 174.26 1.04448L176.221 1.43895ZM175.317 1.75H175.786V-0.250002H175.317V1.75ZM176.724 1.75H177.661V-0.250002H176.724V1.75ZM178.599 1.75H179.067V-0.250002H178.599V1.75ZM178.067 0.749998C178.067 0.886236 178.062 1.01763 178.05 1.14435L180.042 1.32304C180.059 1.13451 180.067 0.943433 180.067 0.749998H178.067ZM177.907 1.88779C177.833 2.12574 177.735 2.34831 177.611 2.55728L179.333 3.57552C179.537 3.22989 179.699 2.8633 179.818 2.47754L177.907 1.88779ZM177.163 3.1478C177.077 3.238 176.984 3.32639 176.884 3.41284L178.191 4.92716C178.339 4.79885 178.48 4.66474 178.613 4.5247L177.163 3.1478ZM176.893 3.40548C176.779 3.50175 176.655 3.59212 176.522 3.67639L177.589 5.36744C177.798 5.23574 177.996 5.09151 178.182 4.93452L176.893 3.40548ZM175.651 4.0879C175.354 4.19105 175.023 4.27482 174.656 4.33659L174.988 6.30885C175.452 6.23073 175.892 6.12118 176.307 5.97754L175.651 4.0879ZM173.587 4.44739C173.41 4.45576 173.227 4.46 173.037 4.46V6.46C173.256 6.46 173.471 6.45509 173.682 6.44517L173.587 4.44739Z" fill="#77C2F9" fill-opacity="0.9"/>
</svg>
