<svg width="304" height="45" viewBox="0 0 304 45" fill="none" xmlns="http://www.w3.org/2000/svg">
<path d="M11.15 44.15L11.0731 44.6441L11.0748 44.6443L11.15 44.15ZM6.45 42.95L6.61389 42.4776L6.61079 42.4766L6.45 42.95ZM2.3 40.05L1.89646 40.3453L1.9 40.35L2.3 40.05ZM1.85 16.6L1.4172 16.3494L1.41238 16.3582L1.85 16.6ZM4.65 13.6L4.38246 13.1776L4.37837 13.1802L4.65 13.6ZM8.35 12L8.49167 12.4795L8.35 12ZM12.45 11.2L12.4894 11.6985L12.4927 11.6982L12.45 11.2ZM20.15 11.25L20.0916 11.7466L20.0988 11.7474L20.1061 11.7481L20.15 11.25ZM23.95 11.95L24.0901 11.4698L24.0767 11.4663L23.95 11.95ZM27.9 13.65L28.1711 13.2298L27.9 13.65ZM30.5 16.45L30.0681 16.7019L30.0702 16.7055L30.5 16.45ZM30.15 39.75L29.7487 39.4516L29.7438 39.4584L30.15 39.75ZM26.25 42.7L26.0643 42.2358V42.2358L26.25 42.7ZM19 38.85L19.0453 39.3479L19.055 39.3471L19.0647 39.3458L19 38.85ZM21.35 38.35L21.21 37.87L21.35 38.35ZM23.15 37.2L22.7528 36.8963L22.75 36.9L23.15 37.2ZM21.95 17.6L21.7122 18.04L21.7216 18.0448L21.95 17.6ZM9.25 37.2L8.85282 37.5037L8.8573 37.5096L8.86194 37.5153L9.25 37.2ZM11.15 38.35L11.29 37.87L11.2848 37.8685L11.15 38.35ZM13.45 38.85L13.3824 39.3454L13.3945 39.3471L13.4067 39.3481L13.45 38.85ZM16.15 44C15.7296 44 15.3169 43.9936 14.9117 43.9807L14.88 44.9802C15.2961 44.9934 15.7194 45 16.15 45V44ZM12.4469 43.8134C12.0301 43.7688 11.6229 43.7162 11.2252 43.6557L11.0748 44.6443C11.4876 44.7071 11.9096 44.7616 12.3405 44.8077L12.4469 43.8134ZM11.2269 43.6559C10.8421 43.5961 10.4525 43.525 10.0579 43.4425L9.85335 44.4214C10.2642 44.5072 10.6708 44.5815 11.0731 44.6441L11.2269 43.6559ZM7.75014 42.8478C7.3754 42.7338 6.99665 42.6104 6.61389 42.4776L6.28611 43.4224C6.68062 43.5592 7.0716 43.6866 7.45903 43.8045L7.75014 42.8478ZM6.61079 42.4766C6.21189 42.3411 5.83521 42.1866 5.48035 42.0135L5.04191 42.9123C5.43677 43.1049 5.85266 43.2752 6.28921 43.4234L6.61079 42.4766ZM3.49752 40.6488C3.20786 40.3722 2.94206 40.0727 2.7 39.75L1.9 40.35C2.1749 40.7165 2.47728 41.0573 2.80702 41.3721L3.49752 40.6488ZM2.70352 39.7547C2.46062 39.4228 2.24955 39.0732 2.07007 38.7059L1.17156 39.1448C1.37713 39.5656 1.61885 39.9658 1.89649 40.3453L2.70352 39.7547ZM1.37816 36.3477C1.32622 35.9486 1.3 35.5328 1.3 35.1H0.3C0.3 35.5732 0.32867 36.0322 0.386519 36.4768L1.37816 36.3477ZM1.3 35.1V34.2125H0.3V35.1H1.3ZM1.3 32.4375V30.6625H0.3V32.4375H1.3ZM1.3 28.8875V27.1125H0.3V28.8875H1.3ZM1.3 25.3375V23.5625H0.3V25.3375H1.3ZM1.3 21.7875V20.9H0.3V21.7875H1.3ZM1.3 20.9C1.3 20.5357 1.31901 20.1818 1.35677 19.838L0.362744 19.7288C0.320827 20.1105 0.3 20.5009 0.3 20.9H1.3ZM1.84499 17.7926C1.97071 17.4652 2.11824 17.1483 2.28762 16.8418L1.41238 16.3582C1.22068 16.705 1.05369 17.0637 0.911458 17.4341L1.84499 17.7926ZM2.28271 16.8505C2.45075 16.5603 2.62928 16.2856 2.8182 16.0264L2.01004 15.4375C1.79972 15.726 1.60218 16.0301 1.41729 16.3495L2.28271 16.8505ZM4.14084 14.5982C4.38878 14.389 4.649 14.1962 4.92163 14.0198L4.37837 13.1802C4.07032 13.3795 3.77613 13.5975 3.4959 13.834L4.14084 14.5982ZM4.91753 14.0224C5.17893 13.8569 5.45842 13.6977 5.75626 13.545L5.30016 12.6551C4.97722 12.8206 4.67123 12.9947 4.38247 13.1776L4.91753 14.0224ZM7.55378 12.782C7.85401 12.6764 8.16662 12.5755 8.49167 12.4795L8.20833 11.5205C7.86794 11.6211 7.53911 11.7271 7.22193 11.8387L7.55378 12.782ZM8.49167 12.4795C8.82711 12.3804 9.15678 12.2903 9.48069 12.2092L9.23775 11.2391C8.89971 11.3238 8.55656 11.4176 8.20833 11.5205L8.49167 12.4795ZM11.4815 11.8112C11.8252 11.7619 12.1611 11.7244 12.4894 11.6984L12.4106 10.7015C12.0603 10.7292 11.7032 10.7692 11.3396 10.8213L11.4815 11.8112ZM12.4927 11.6982C12.7919 11.6725 13.0958 11.6502 13.4042 11.6312L13.3427 10.6331C13.0265 10.6526 12.7147 10.6755 12.4073 10.7018L12.4927 11.6982ZM15.2335 11.5586C15.535 11.5529 15.8406 11.55 16.15 11.55V10.55C15.8344 10.55 15.5226 10.5529 15.2145 10.5588L15.2335 11.5586ZM16.15 11.55C16.4908 11.55 16.8212 11.5533 17.1415 11.56L17.1622 10.5602C16.8347 10.5534 16.4972 10.55 16.15 10.55V11.55ZM19.1145 11.6523C19.4564 11.6787 19.7821 11.7102 20.0916 11.7466L20.2084 10.7534C19.8845 10.7153 19.5454 10.6826 19.1914 10.6553L19.1145 11.6523ZM20.1061 11.7481C20.4066 11.7746 20.7177 11.8109 21.0394 11.857L21.1814 10.8671C20.8429 10.8186 20.5137 10.7802 20.1939 10.7519L20.1061 11.7481ZM22.8994 12.2069C23.2001 12.2755 23.5081 12.3511 23.8233 12.4337L24.0767 11.4663C23.7518 11.3812 23.4336 11.3031 23.122 11.232L22.8994 12.2069ZM23.81 12.43C24.1592 12.5319 24.4939 12.6384 24.814 12.7494L25.1418 11.8047C24.8048 11.6878 24.4542 11.5762 24.09 11.47L23.81 12.43ZM26.7369 13.5583C27.0573 13.7224 27.3546 13.8931 27.6289 14.0701L28.1711 13.2298C27.8665 13.0333 27.5402 12.8462 27.1928 12.6682L26.7369 13.5583ZM27.6289 14.0701C27.8793 14.2316 28.1193 14.4101 28.3491 14.6057L28.9972 13.8441C28.7342 13.6203 28.4588 13.4155 28.1711 13.2298L27.6289 14.0701ZM29.5697 15.9356C29.7441 16.1759 29.9102 16.4313 30.0681 16.7019L30.9319 16.1981C30.7581 15.9001 30.5739 15.6168 30.3791 15.3484L29.5697 15.9356ZM30.0702 16.7055C30.2519 17.011 30.4097 17.3337 30.5435 17.674L31.4742 17.308C31.321 16.9187 31.1396 16.5474 30.9298 16.1945L30.0702 16.7055ZM31.0443 19.7937C31.0813 20.1482 31.1 20.5169 31.1 20.9H32.1C32.1 20.4844 32.0798 20.081 32.0389 19.6899L31.0443 19.7937ZM31.1 20.9V21.7875H32.1V20.9H31.1ZM31.1 23.5625V25.3375H32.1V23.5625H31.1ZM31.1 27.1125V28.8875H32.1V27.1125H31.1ZM31.1 30.6625V32.4375H32.1V30.6625H31.1ZM31.1 34.2125V35.1H32.1V34.2125H31.1ZM31.1 35.1C31.1 35.5048 31.0743 35.8943 31.0233 36.2686L32.0142 36.4034C32.0716 35.9818 32.1 35.5472 32.1 35.1H31.1ZM30.3535 38.4721C30.182 38.8136 29.9805 39.14 29.7488 39.4516L30.5512 40.0484C30.8171 39.6908 31.0491 39.315 31.2471 38.9211L30.3535 38.4721ZM29.7438 39.4584C29.5174 39.7738 29.2681 40.0691 28.9957 40.3446L29.7068 41.0477C30.0161 40.7349 30.2992 40.3995 30.5562 40.0416L29.7438 39.4584ZM27.1316 41.7349C26.7968 41.918 26.4411 42.085 26.0643 42.2358L26.4357 43.1642C26.8476 42.9995 27.2396 42.8156 27.6114 42.6123L27.1316 41.7349ZM26.0643 42.2358C25.8049 42.3395 25.5426 42.4387 25.2775 42.5333L25.6137 43.4752C25.8905 43.3763 26.1645 43.2727 26.4357 43.1642L26.0643 42.2358ZM23.6723 43.0408C23.1368 43.1891 22.5903 43.3202 22.033 43.4342L22.2334 44.414C22.8126 44.2955 23.3812 44.159 23.9392 44.0045L23.6723 43.0408ZM20.3691 43.719C19.8189 43.7955 19.2587 43.8563 18.6885 43.9016L18.7676 44.8985C19.3568 44.8517 19.9365 44.7887 20.5068 44.7095L20.3691 43.719ZM16.9977 43.9894C16.7174 43.9965 16.4348 44 16.15 44V45C16.4431 45 16.7341 44.9964 17.0229 44.9891L16.9977 43.9894ZM16.25 38.45C16.0106 38.45 15.7795 38.4484 15.5565 38.4452L15.5422 39.4451C15.7703 39.4484 16.0062 39.45 16.25 39.45V38.45ZM14.1764 38.3998C13.9345 38.3864 13.7068 38.3704 13.4933 38.3519L13.4067 39.3481C13.6318 39.3677 13.8701 39.3844 14.1213 39.3983L14.1764 38.3998ZM13.5176 38.3546C13.3331 38.3294 13.1462 38.2999 12.9567 38.2658L12.78 39.2501C12.9828 39.2865 13.1837 39.3183 13.3824 39.3454L13.5176 38.3546ZM11.8424 38.0216C11.6603 37.9748 11.4762 37.9243 11.29 37.87L11.01 38.83C11.2062 38.8872 11.4008 38.9406 11.5935 38.9902L11.8424 38.0216ZM11.2848 37.8685C11.1131 37.8204 10.9529 37.766 10.8036 37.7055L10.428 38.6323C10.6145 38.7079 10.8103 38.7741 11.0152 38.8315L11.2848 37.8685ZM9.9666 37.2166C9.8439 37.1142 9.73462 37.0035 9.63806 36.8847L8.86194 37.5153C9.00018 37.6854 9.15506 37.8418 9.32588 37.9843L9.9666 37.2166ZM9.64718 36.8963C9.5524 36.7723 9.47022 36.641 9.40038 36.5018L8.50665 36.9504C8.60461 37.1456 8.72008 37.3301 8.85282 37.5037L9.64718 36.8963ZM9.13078 35.5938C9.11045 35.4377 9.1 35.2732 9.1 35.1H8.1C8.1 35.3134 8.11287 35.5212 8.13917 35.723L9.13078 35.5938ZM9.1 35.1V34.2094H8.1V35.1H9.1ZM9.1 32.4281V30.6469H8.1V32.4281H9.1ZM9.1 28.8656V27.0844H8.1V28.8656H9.1ZM9.1 25.3031V23.5219H8.1V25.3031H9.1ZM9.1 21.7406V20.85H8.1V21.7406H9.1ZM9.1 20.85C9.1 20.5238 9.12917 20.2264 9.18506 19.9561L8.20577 19.7536C8.13444 20.0986 8.1 20.4646 8.1 20.85H9.1ZM9.97484 18.4846C10.1708 18.2995 10.404 18.1357 10.6784 17.9948L10.2216 17.1052C9.87121 17.2851 9.55885 17.502 9.28824 17.7575L9.97484 18.4846ZM10.6784 17.9948C11.0293 17.8146 11.4521 17.6577 11.9517 17.5278L11.7002 16.56C11.1457 16.7041 10.6512 16.8846 10.2216 17.1052L10.6784 17.9948ZM14.758 17.1368C15.2108 17.1123 15.6914 17.1 16.2 17.1V16.1C15.6754 16.1 15.1767 16.1127 14.704 16.1382L14.758 17.1368ZM16.2 17.1C16.7094 17.1 17.1906 17.113 17.6437 17.1389L17.7007 16.1405C17.2266 16.1134 16.7263 16.1 16.2 16.1V17.1ZM20.4478 17.5511C20.9437 17.6872 21.3636 17.8514 21.7122 18.0399L22.1878 17.1601C21.759 16.9284 21.2655 16.7385 20.7124 16.5868L20.4478 17.5511ZM21.7216 18.0448C21.9941 18.1847 22.2261 18.3463 22.4211 18.5276L23.102 17.7952C22.8335 17.5456 22.5245 17.3329 22.1784 17.1552L21.7216 18.0448ZM23.2138 19.9707C23.2704 20.2366 23.3 20.5291 23.3 20.85H24.3C24.3 20.468 24.2648 20.1049 24.1918 19.7624L23.2138 19.9707ZM23.3 20.85V21.7406H24.3V20.85H23.3ZM23.3 23.5219V25.3031H24.3V23.5219H23.3ZM23.3 27.0844V28.8656H24.3V27.0844H23.3ZM23.3 30.6469V32.4281H24.3V30.6469H23.3ZM23.3 34.2094V35.1H24.3V34.2094H23.3ZM23.3 35.1C23.3 35.2732 23.2896 35.4377 23.2692 35.5938L24.2608 35.723C24.2871 35.5212 24.3 35.3134 24.3 35.1H23.3ZM22.9996 36.5018C22.9298 36.641 22.8476 36.7723 22.7528 36.8963L23.5472 37.5037C23.6799 37.3301 23.7954 37.1456 23.8934 36.9504L22.9996 36.5018ZM22.75 36.9C22.6624 37.0168 22.5626 37.1253 22.4499 37.2257L23.1149 37.9725C23.2764 37.8287 23.4216 37.6712 23.55 37.5L22.75 36.9ZM21.6668 37.7084C21.5257 37.7683 21.3736 37.8223 21.21 37.87L21.49 38.83C21.6883 38.7722 21.8776 38.7053 22.0575 38.6289L21.6668 37.7084ZM21.21 37.87C21.0212 37.9251 20.8335 37.9763 20.647 38.0236L20.8929 38.9929C21.0911 38.9426 21.2901 38.8883 21.49 38.83L21.21 37.87ZM19.509 38.267C19.3166 38.3004 19.1253 38.3294 18.9353 38.3542L19.0647 39.3458C19.2687 39.3192 19.4737 39.288 19.6797 39.2524L19.509 38.267ZM18.9547 38.3521C18.7479 38.3709 18.525 38.387 18.2857 38.4005L18.3419 39.3989C18.5911 39.3849 18.8256 39.3679 19.0453 39.3479L18.9547 38.3521ZM16.9311 38.4454C16.7128 38.4485 16.4858 38.45 16.25 38.45V39.45C16.4902 39.45 16.7219 39.4484 16.9453 39.4453L16.9311 38.4454ZM11.15 44.15L10.9963 45.1381L10.9996 45.1386L11.15 44.15ZM6.45 42.95L6.77778 42.0052L6.77158 42.0031L6.45 42.95ZM2.3 40.05L1.49291 40.6406L1.5 40.65L2.3 40.05ZM1.85 16.6L0.984574 16.099L0.97958 16.1076L0.974759 16.1163L1.85 16.6ZM4.65 13.6L4.11492 12.7551L4.10675 12.7604L4.65 13.6ZM8.35 12L8.63335 12.959L8.35 12ZM12.45 11.2L12.5287 12.1969L12.5354 12.1963L12.45 11.2ZM20.15 11.25L20.0332 12.2431L20.0476 12.2448L20.0621 12.2461L20.15 11.25ZM23.95 11.95L24.23 10.99L24.2167 10.9861L24.2034 10.9826L23.95 11.95ZM27.9 13.65L28.4421 12.8097L28.4421 12.8097L27.9 13.65ZM30.5 16.45L29.6362 16.9539L29.6405 16.9611L30.5 16.45ZM30.15 39.75L29.3475 39.1533L29.3426 39.16L29.3377 39.1668L30.15 39.75ZM26.25 42.7L25.8786 41.7715L26.25 42.7ZM19 38.85L19.0905 39.8459L19.11 39.8441L19.1293 39.8416L19 38.85ZM21.35 38.35L21.07 37.39L21.35 38.35ZM23.15 37.2L22.3556 36.5925L22.35 36.6L23.15 37.2ZM21.95 17.6L21.4745 18.4797L21.4838 18.4847L21.4932 18.4896L21.95 17.6ZM9.25 37.2L8.45564 37.8074L8.46459 37.8192L8.47389 37.8306L9.25 37.2ZM11.15 38.35L11.43 37.3899L11.4196 37.387L11.15 38.35ZM13.45 38.85L13.3149 39.8408L13.3391 39.8441L13.3634 39.8462L13.45 38.85ZM16.15 43.5C15.7347 43.5 15.3273 43.4936 14.9276 43.4809L14.8641 45.4799C15.2857 45.4933 15.7143 45.5 16.15 45.5V43.5ZM12.5002 43.3162C12.0904 43.2724 11.6905 43.2207 11.3004 43.1614L10.9996 45.1386C11.42 45.2026 11.8493 45.258 12.2873 45.3049L12.5002 43.3162ZM11.3037 43.1619C10.9278 43.1034 10.5466 43.0338 10.1602 42.9531L9.75106 44.9108C10.1701 44.9984 10.5852 45.0742 10.9963 45.1381L11.3037 43.1619ZM7.89569 42.3695C7.5273 42.2574 7.15466 42.136 6.77777 42.0052L6.12223 43.8948C6.52261 44.0337 6.9197 44.1631 7.31347 44.2829L7.89569 42.3695ZM6.77158 42.0031C6.39151 41.874 6.03443 41.7275 5.69957 41.5641L4.82269 43.3617C5.23755 43.564 5.67305 43.7422 6.12842 43.8969L6.77158 42.0031ZM3.84277 40.2871C3.57315 40.0297 3.32564 39.7509 3.1 39.45L1.5 40.65C1.79132 41.0384 2.11199 41.3998 2.46177 41.7337L3.84277 40.2871ZM3.10703 39.4595C2.88151 39.1513 2.68577 38.8271 2.51932 38.4864L0.722308 39.3643C0.940915 39.8118 1.19797 40.2373 1.49297 40.6405L3.10703 39.4595ZM1.87398 36.2832C1.825 35.9068 1.8 35.5126 1.8 35.1H-0.2C-0.2 35.5934 -0.170106 36.074 -0.109301 36.5413L1.87398 36.2832ZM1.8 35.1V34.2125H-0.2V35.1H1.8ZM1.8 32.4375V30.6625H-0.2V32.4375H1.8ZM1.8 28.8875V27.1125H-0.2V28.8875H1.8ZM1.8 25.3375V23.5625H-0.2V25.3375H1.8ZM1.8 21.7875V20.9H-0.2V21.7875H1.8ZM1.8 20.9C1.8 20.5531 1.8181 20.2174 1.85378 19.8925L-0.134268 19.6742C-0.178264 20.0748 -0.2 20.4835 -0.2 20.9H1.8ZM2.31175 17.9718C2.42923 17.6659 2.56702 17.37 2.72524 17.0837L0.974759 16.1163C0.7719 16.4834 0.595173 16.863 0.444695 17.2548L2.31175 17.9718ZM2.71543 17.101C2.87503 16.8254 3.04406 16.5654 3.22228 16.3209L1.60596 15.143C1.38494 15.4462 1.17789 15.7651 0.984574 16.099L2.71543 17.101ZM4.46331 14.9803C4.6951 14.7847 4.93834 14.6045 5.19325 14.4396L4.10675 12.7604C3.78098 12.9712 3.46981 13.2017 3.17342 13.4519L4.46331 14.9803ZM5.18505 14.4448C5.43278 14.2879 5.69902 14.1362 5.98432 13.99L5.0721 12.2101C4.73661 12.3821 4.41738 12.5636 4.11495 12.7552L5.18505 14.4448ZM7.7197 13.2537C8.01145 13.1511 8.31595 13.0528 8.63335 12.959L8.06665 11.041C7.7186 11.1438 7.38167 11.2525 7.05601 11.367L7.7197 13.2537ZM8.63335 12.959C8.96239 12.8618 9.28531 12.7736 9.60216 12.6942L9.11628 10.7541C8.77117 10.8406 8.42129 10.9362 8.06665 11.041L8.63335 12.959ZM11.5525 12.3061C11.8862 12.2583 12.2115 12.2219 12.5287 12.1969L12.3713 10.2031C12.0098 10.2316 11.6422 10.2728 11.2686 10.3264L11.5525 12.3061ZM12.5354 12.1963C12.8305 12.171 13.1304 12.149 13.435 12.1302L13.312 10.134C12.9919 10.1538 12.6761 10.177 12.3646 10.2037L12.5354 12.1963ZM15.2429 12.0585C15.5413 12.0528 15.8436 12.05 16.15 12.05V10.05C15.8313 10.05 15.5163 10.0529 15.205 10.0588L15.2429 12.0585ZM16.15 12.05C16.4875 12.05 16.8145 12.0533 17.1311 12.0599L17.1725 10.0603C16.8414 10.0534 16.5005 10.05 16.15 10.05V12.05ZM19.076 12.1509C19.4119 12.1768 19.7309 12.2076 20.0332 12.2431L20.2668 10.2568C19.9357 10.2179 19.5899 10.1846 19.2298 10.1568L19.076 12.1509ZM20.0621 12.2461C20.353 12.2718 20.655 12.307 20.9684 12.3519L21.2523 10.3722C20.9055 10.3224 20.5673 10.2829 20.2379 10.2539L20.0621 12.2461ZM22.7882 12.6943C23.0834 12.7618 23.3863 12.8361 23.6966 12.9174L24.2034 10.9826C23.8736 10.8963 23.5503 10.8169 23.2333 10.7445L22.7882 12.6943ZM23.67 12.91C24.0118 13.0097 24.3384 13.1137 24.6502 13.2218L25.3057 11.3323C24.9603 11.2125 24.6017 11.0984 24.23 10.99L23.67 12.91ZM26.5089 14.0033C26.8159 14.1605 27.0986 14.323 27.3579 14.4903L28.4421 12.8097C28.1224 12.6034 27.7817 12.4081 27.4207 12.2232L26.5089 14.0033ZM27.3579 14.4903C27.5895 14.6397 27.8119 14.805 28.0251 14.9865L29.3213 13.4634C29.0417 13.2254 28.7486 13.0074 28.4421 12.8097L27.3579 14.4903ZM29.165 16.2292C29.3292 16.4555 29.4863 16.6969 29.6362 16.9539L31.3638 15.9461C31.182 15.6345 30.9887 15.3372 30.7838 15.0547L29.165 16.2292ZM29.6405 16.9611C29.808 17.2428 29.954 17.5412 30.0782 17.8571L31.9395 17.125C31.7767 16.7112 31.5835 16.3156 31.3595 15.9389L29.6405 16.9611ZM30.547 19.8456C30.5821 20.1818 30.6 20.5331 30.6 20.9H32.6C32.6 20.4682 32.579 20.0474 32.5362 19.6379L30.547 19.8456ZM30.6 20.9V21.7875H32.6V20.9H30.6ZM30.6 23.5625V25.3375H32.6V23.5625H30.6ZM30.6 27.1125V28.8875H32.6V27.1125H30.6ZM30.6 30.6625V32.4375H32.6V30.6625H30.6ZM30.6 34.2125V35.1H32.6V34.2125H30.6ZM30.6 35.1C30.6 35.4836 30.5756 35.8505 30.5279 36.2012L32.5097 36.4708C32.5702 36.0255 32.6 35.5684 32.6 35.1H30.6ZM29.9068 38.2476C29.7484 38.5629 29.5622 38.8646 29.3475 39.1533L30.9525 40.3467C31.2354 39.9662 31.4827 39.5658 31.6938 39.1456L29.9068 38.2476ZM29.3377 39.1668C29.1265 39.4609 28.8941 39.7362 28.6401 39.9931L30.0623 41.3993C30.3901 41.0678 30.6902 40.7123 30.9623 40.3332L29.3377 39.1668ZM26.8917 41.2962C26.5753 41.4692 26.2379 41.6278 25.8786 41.7715L26.6214 43.6285C27.0509 43.4567 27.4611 43.2644 27.8513 43.0509L26.8917 41.2962ZM25.8786 41.7715C25.6251 41.8729 25.3687 41.9699 25.1094 42.0624L25.7817 43.9461C26.0645 43.8451 26.3444 43.7393 26.6214 43.6285L25.8786 41.7715ZM23.5388 42.5589C23.0145 42.7041 22.4792 42.8326 21.9328 42.9444L22.3336 44.9038C22.9237 44.7831 23.5034 44.644 24.0726 44.4864L23.5388 42.5589ZM20.3003 43.2238C19.76 43.2988 19.2096 43.3587 18.6489 43.4032L18.8072 45.3969C19.4059 45.3494 19.9954 45.2853 20.5756 45.2047L20.3003 43.2238ZM16.9851 43.4895C16.709 43.4965 16.4307 43.5 16.15 43.5V45.5C16.4473 45.5 16.7424 45.4963 17.0356 45.4889L16.9851 43.4895ZM16.25 37.95C16.0128 37.95 15.784 37.9484 15.5636 37.9453L15.5351 39.9451C15.7657 39.9484 16.004 39.95 16.25 39.95V37.95ZM14.204 37.9006C13.9667 37.8874 13.7443 37.8718 13.5366 37.8538L13.3634 39.8462C13.5943 39.8663 13.8379 39.8834 14.0937 39.8975L14.204 37.9006ZM13.5851 37.8592C13.4079 37.835 13.2279 37.8065 13.0451 37.7737L12.6916 39.7422C12.9011 39.7799 13.1089 39.8127 13.3149 39.8408L13.5851 37.8592ZM11.9668 37.5374C11.7901 37.492 11.6112 37.4428 11.43 37.39L10.87 39.31C11.0713 39.3687 11.271 39.4235 11.4691 39.4744L11.9668 37.5374ZM11.4196 37.387C11.2645 37.3436 11.1221 37.2951 10.9914 37.2421L10.2402 39.0957C10.4453 39.1788 10.6589 39.251 10.8804 39.313L11.4196 37.387ZM10.287 36.8327C10.1883 36.7504 10.1018 36.6626 10.0261 36.5694L8.47389 37.8306C8.63297 38.0264 8.81064 38.2056 9.00552 38.3682L10.287 36.8327ZM10.0444 36.5925C9.96857 36.4934 9.90302 36.3887 9.84725 36.2775L8.05979 37.1747C8.1718 37.3979 8.30391 37.609 8.45564 37.8074L10.0444 36.5925ZM9.62659 35.5292C9.60924 35.396 9.6 35.2531 9.6 35.1H7.6C7.6 35.3335 7.61408 35.5629 7.64336 35.7876L9.62659 35.5292ZM9.6 35.1V34.2094H7.6V35.1H9.6ZM9.6 32.4281V30.6469H7.6V32.4281H9.6ZM9.6 28.8656V27.0844H7.6V28.8656H9.6ZM9.6 25.3031V23.5219H7.6V25.3031H9.6ZM9.6 21.7406V20.85H7.6V21.7406H9.6ZM9.6 20.85C9.6 20.5534 9.62654 20.2903 9.6747 20.0573L7.71613 19.6524C7.63707 20.0347 7.6 20.435 7.6 20.85H9.6ZM10.3181 18.8481C10.4767 18.6983 10.6704 18.5609 10.9068 18.4396L9.9932 16.6604C9.6048 16.8599 9.25289 17.1032 8.94494 17.394L10.3181 18.8481ZM10.9068 18.4396C11.2183 18.2796 11.6053 18.1345 12.0775 18.0118L11.5744 16.0761C10.9926 16.2273 10.4622 16.4196 9.9932 16.6604L10.9068 18.4396ZM14.785 17.6361C15.2278 17.6121 15.6994 17.6 16.2 17.6V15.6C15.6674 15.6 15.1596 15.6129 14.6771 15.639L14.785 17.6361ZM16.2 17.6C16.701 17.6 17.1726 17.6128 17.6153 17.638L17.7292 15.6413C17.2446 15.6136 16.7347 15.6 16.2 15.6V17.6ZM20.3155 18.0333C20.7829 18.1615 21.1659 18.3129 21.4745 18.4797L22.4255 16.7203C21.9567 16.4669 21.4264 16.2642 20.8447 16.1046L20.3155 18.0333ZM21.4932 18.4896C21.7289 18.6106 21.9223 18.7466 22.0807 18.8938L23.4424 17.429C23.1373 17.1453 22.7897 16.907 22.4068 16.7104L21.4932 18.4896ZM22.7248 20.0749C22.7732 20.3024 22.8 20.5597 22.8 20.85H24.8C24.8 20.4374 24.762 20.039 24.6809 19.6582L22.7248 20.0749ZM22.8 20.85V21.7406H24.8V20.85H22.8ZM22.8 23.5219V25.3031H24.8V23.5219H22.8ZM22.8 27.0844V28.8656H24.8V27.0844H22.8ZM22.8 30.6469V32.4281H24.8V30.6469H22.8ZM22.8 34.2094V35.1H24.8V34.2094H22.8ZM22.8 35.1C22.8 35.2531 22.7908 35.396 22.7734 35.5292L24.7566 35.7876C24.7859 35.5629 24.8 35.3335 24.8 35.1H22.8ZM22.5528 36.2775C22.497 36.3887 22.4314 36.4934 22.3556 36.5925L23.9444 37.8074C24.0961 37.609 24.2282 37.3979 24.3402 37.1747L22.5528 36.2775ZM22.35 36.6C22.2828 36.6896 22.2057 36.7736 22.1173 36.8523L23.4474 38.3459C23.6333 38.1804 23.8012 37.9983 23.95 37.8L22.35 36.6ZM21.4714 37.2482C21.3498 37.2998 21.2163 37.3473 21.07 37.39L21.63 39.31C21.8456 39.2471 22.0535 39.1738 22.2529 39.0892L21.4714 37.2482ZM21.07 37.39C20.8867 37.4435 20.7047 37.4931 20.524 37.539L21.0159 39.4775C21.2199 39.4258 21.4246 39.3699 21.63 39.31L21.07 37.39ZM19.4237 37.7744C19.238 37.8065 19.0536 37.8345 18.8707 37.8584L19.1293 39.8416C19.3404 39.8141 19.5523 39.7819 19.765 39.745L19.4237 37.7744ZM18.9095 37.8541C18.7091 37.8723 18.4919 37.8881 18.2576 37.9013L18.37 39.8981C18.6241 39.8838 18.8644 39.8665 19.0905 39.8459L18.9095 37.8541ZM16.9241 37.9454C16.7083 37.9485 16.4836 37.95 16.25 37.95V39.95C16.4923 39.95 16.7265 39.9484 16.9523 39.9452L16.9241 37.9454ZM47.877 17.1H48.377V16.6H47.877V17.1ZM37.877 17.1H37.377V17.6H37.877V17.1ZM37.877 11.55V11.05H37.377V11.55H37.877ZM65.627 11.55H66.127V11.05H65.627V11.55ZM65.627 17.1V17.6H66.127V17.1H65.627ZM55.677 17.1V16.6H55.177V17.1H55.677ZM55.677 44V44.5H56.177V44H55.677ZM47.877 44H47.377V44.5H47.877V44ZM47.877 16.6H47.0436V17.6H47.877V16.6ZM45.377 16.6H43.7103V17.6H45.377V16.6ZM42.0436 16.6H40.377V17.6H42.0436V16.6ZM38.7103 16.6H37.877V17.6H38.7103V16.6ZM38.377 17.1V15.7125H37.377V17.1H38.377ZM38.377 12.9375V11.55H37.377V12.9375H38.377ZM37.877 12.05H38.868V11.05H37.877V12.05ZM40.8502 12.05H42.8323V11.05H40.8502V12.05ZM44.8145 12.05H46.7966V11.05H44.8145V12.05ZM48.7787 12.05H50.7609V11.05H48.7787V12.05ZM52.743 12.05H54.7252V11.05H52.743V12.05ZM56.7073 12.05H58.6895V11.05H56.7073V12.05ZM60.6716 12.05H62.6537V11.05H60.6716V12.05ZM64.6359 12.05H65.627V11.05H64.6359V12.05ZM65.127 11.55V12.9375H66.127V11.55H65.127ZM65.127 15.7125V17.1H66.127V15.7125H65.127ZM65.627 16.6H64.3832V17.6H65.627V16.6ZM61.8957 16.6H59.4082V17.6H61.8957V16.6ZM56.9207 16.6H55.677V17.6H56.9207V16.6ZM55.177 17.1V18.0607H56.177V17.1H55.177ZM55.177 19.9821V21.9036H56.177V19.9821H55.177ZM55.177 23.825V25.7464H56.177V23.825H55.177ZM55.177 27.6679V29.5893H56.177V27.6679H55.177ZM55.177 31.5107V33.4321H56.177V31.5107H55.177ZM55.177 35.3536V37.275H56.177V35.3536H55.177ZM55.177 39.1964V41.1179H56.177V39.1964H55.177ZM55.177 43.0393V44H56.177V43.0393H55.177ZM55.677 43.5H54.702V44.5H55.677V43.5ZM52.752 43.5H50.802V44.5H52.752V43.5ZM48.852 43.5H47.877V44.5H48.852V43.5ZM48.377 44V43.0393H47.377V44H48.377ZM48.377 41.1179V39.1964H47.377V41.1179H48.377ZM48.377 37.275V35.3536H47.377V37.275H48.377ZM48.377 33.4321V31.5107H47.377V33.4321H48.377ZM48.377 29.5893V27.6679H47.377V29.5893H48.377ZM48.377 25.7464V23.825H47.377V25.7464H48.377ZM48.377 21.9036V19.9821H47.377V21.9036H48.377ZM48.377 18.0607V17.1H47.377V18.0607H48.377ZM47.877 17.1H48.877V16.1H47.877V17.1ZM37.877 17.1H36.877V18.1H37.877V17.1ZM37.877 11.55V10.55H36.877V11.55H37.877ZM65.627 11.55H66.627V10.55H65.627V11.55ZM65.627 17.1V18.1H66.627V17.1H65.627ZM55.677 17.1V16.1H54.677V17.1H55.677ZM55.677 44V45H56.677V44H55.677ZM47.877 44H46.877V45H47.877V44ZM47.877 16.1H47.0436V18.1H47.877V16.1ZM45.377 16.1H43.7103V18.1H45.377V16.1ZM42.0436 16.1H40.377V18.1H42.0436V16.1ZM38.7103 16.1H37.877V18.1H38.7103V16.1ZM38.877 17.1V15.7125H36.877V17.1H38.877ZM38.877 12.9375V11.55H36.877V12.9375H38.877ZM37.877 12.55H38.868V10.55H37.877V12.55ZM40.8502 12.55H42.8323V10.55H40.8502V12.55ZM44.8145 12.55H46.7966V10.55H44.8145V12.55ZM48.7787 12.55H50.7609V10.55H48.7787V12.55ZM52.743 12.55H54.7252V10.55H52.743V12.55ZM56.7073 12.55H58.6895V10.55H56.7073V12.55ZM60.6716 12.55H62.6537V10.55H60.6716V12.55ZM64.6359 12.55H65.627V10.55H64.6359V12.55ZM64.627 11.55V12.9375H66.627V11.55H64.627ZM64.627 15.7125V17.1H66.627V15.7125H64.627ZM65.627 16.1H64.3832V18.1H65.627V16.1ZM61.8957 16.1H59.4082V18.1H61.8957V16.1ZM56.9207 16.1H55.677V18.1H56.9207V16.1ZM54.677 17.1V18.0607H56.677V17.1H54.677ZM54.677 19.9821V21.9036H56.677V19.9821H54.677ZM54.677 23.825V25.7464H56.677V23.825H54.677ZM54.677 27.6679V29.5893H56.677V27.6679H54.677ZM54.677 31.5107V33.4321H56.677V31.5107H54.677ZM54.677 35.3536V37.275H56.677V35.3536H54.677ZM54.677 39.1964V41.1179H56.677V39.1964H54.677ZM54.677 43.0393V44H56.677V43.0393H54.677ZM55.677 43H54.702V45H55.677V43ZM52.752 43H50.802V45H52.752V43ZM48.852 43H47.877V45H48.852V43ZM48.877 44V43.0393H46.877V44H48.877ZM48.877 41.1179V39.1964H46.877V41.1179H48.877ZM48.877 37.275V35.3536H46.877V37.275H48.877ZM48.877 33.4321V31.5107H46.877V33.4321H48.877ZM48.877 29.5893V27.6679H46.877V29.5893H48.877ZM48.877 25.7464V23.825H46.877V25.7464H48.877ZM48.877 21.9036V19.9821H46.877V21.9036H48.877ZM48.877 18.0607V17.1H46.877V18.0607H48.877ZM72.6133 44.2L72.7217 43.7119L72.7087 43.709L72.6955 43.7068L72.6133 44.2ZM71.3133 44H70.8133V44.4414L71.2513 44.4961L71.3133 44ZM71.3133 37.9L71.3808 37.4046L70.8133 37.3272V37.9H71.3133ZM77.0133 36.65L77.3733 36.9971L77.3792 36.9907L77.0133 36.65ZM78.9633 30.95L78.469 30.8744L78.4682 30.8801L78.9633 30.95ZM79.6133 11.55V11.05H79.1133V11.55H79.6133ZM103.213 11.55H103.713V11.05H103.213V11.55ZM103.213 44V44.5H103.713V44H103.213ZM95.4133 44H94.9133V44.5H95.4133V44ZM95.4133 17.05H95.9133V16.55H95.4133V17.05ZM86.6633 17.05V16.55H86.1633V17.05H86.6633ZM84.9633 35.85L84.4894 35.6905L84.488 35.6947L84.9633 35.85ZM80.6133 42.65L80.3413 42.2304L80.3378 42.2328L80.6133 42.65ZM74.3133 43.9C74.1838 43.9 74.0516 43.8957 73.9166 43.8871L73.853 44.8851C74.0084 44.895 74.1618 44.9 74.3133 44.9V43.9ZM73.1197 43.7909C72.9892 43.7682 72.8566 43.7419 72.7217 43.7119L72.5048 44.6881C72.6541 44.7213 72.8019 44.7506 72.948 44.7761L73.1197 43.7909ZM72.6955 43.7068C72.5807 43.6877 72.4719 43.6697 72.3691 43.653L72.2085 44.64C72.3099 44.6565 72.4174 44.6743 72.5311 44.6932L72.6955 43.7068ZM71.7118 43.5503C71.5821 43.5312 71.4697 43.5157 71.3753 43.5039L71.2513 44.4961C71.3362 44.5068 71.4409 44.5212 71.5661 44.5396L71.7118 43.5503ZM71.8133 44V43.2375H70.8133V44H71.8133ZM71.8133 41.7125V40.1875H70.8133V41.7125H71.8133ZM71.8133 38.6625V37.9H70.8133V38.6625H71.8133ZM71.2457 38.3954C71.408 38.4175 71.5652 38.4373 71.717 38.4548L71.831 37.4613C71.6867 37.4447 71.5366 37.4258 71.3808 37.4046L71.2457 38.3954ZM72.6737 38.5368C72.8456 38.5455 73.0088 38.55 73.1633 38.55V37.55C73.0279 37.55 72.8818 37.5461 72.7247 37.5381L72.6737 38.5368ZM73.1633 38.55C73.5528 38.55 73.9259 38.5259 74.2821 38.4767L74.1454 37.4861C73.8388 37.5284 73.5117 37.55 73.1633 37.55V38.55ZM76.4555 37.7341C76.7928 37.5273 77.099 37.2814 77.3732 36.9971L76.6534 36.3029C76.4381 36.5261 76.1982 36.7188 75.9328 36.8815L76.4555 37.7341ZM77.3792 36.9907C77.5651 36.7911 77.737 36.5622 77.8962 36.3068L77.0476 35.7778C76.917 35.9871 76.7832 36.1634 76.6473 36.3093L77.3792 36.9907ZM78.589 34.8325C78.7532 34.3765 78.9011 33.8707 79.0336 33.3164L78.061 33.084C77.9355 33.609 77.7976 34.0786 77.6481 34.4938L78.589 34.8325ZM79.3404 31.7867C79.3819 31.5387 79.4212 31.2831 79.4584 31.0199L78.4682 30.8801C78.4322 31.1353 78.3941 31.3825 78.3541 31.6216L79.3404 31.7867ZM79.4575 31.0256C79.5097 30.6847 79.5586 30.3237 79.6044 29.9429L78.6115 29.8236C78.5669 30.195 78.5194 30.5452 78.469 30.8744L79.4575 31.0256ZM79.8144 27.7779C79.8667 27.102 79.9122 26.3804 79.9507 25.6134L78.952 25.5632C78.9138 26.3224 78.8689 27.0348 78.8173 27.7006L79.8144 27.7779ZM80.0375 23.4513C80.0589 22.7614 80.0757 22.0412 80.0881 21.2907L79.0882 21.2743C79.076 22.0203 79.0592 22.7357 79.038 23.4203L80.0375 23.4513ZM80.1107 19.1298C80.1124 18.7757 80.1133 18.4158 80.1133 18.05H79.1133C79.1133 18.4142 79.1124 18.7725 79.1107 19.1249L80.1107 19.1298ZM80.1133 18.05V17.2375H79.1133V18.05H80.1133ZM80.1133 15.6125V13.9875H79.1133V15.6125H80.1133ZM80.1133 12.3625V11.55H79.1133V12.3625H80.1133ZM79.6133 12.05H80.5966V11.05H79.6133V12.05ZM82.5633 12.05H84.5299V11.05H82.5633V12.05ZM86.4966 12.05H88.4633V11.05H86.4966V12.05ZM90.4299 12.05H92.3966V11.05H90.4299V12.05ZM94.3633 12.05H96.3299V11.05H94.3633V12.05ZM98.2966 12.05H100.263V11.05H98.2966V12.05ZM102.23 12.05H103.213V11.05H102.23V12.05ZM102.713 11.55V12.5641H103.713V11.55H102.713ZM102.713 14.5922V16.6203H103.713V14.5922H102.713ZM102.713 18.6484V20.6766H103.713V18.6484H102.713ZM102.713 22.7047V24.7328H103.713V22.7047H102.713ZM102.713 26.7609V28.7891H103.713V26.7609H102.713ZM102.713 30.8172V32.8453H103.713V30.8172H102.713ZM102.713 34.8734V36.9016H103.713V34.8734H102.713ZM102.713 38.9297V40.9578H103.713V38.9297H102.713ZM102.713 42.9859V44H103.713V42.9859H102.713ZM103.213 43.5H102.238V44.5H103.213V43.5ZM100.288 43.5H98.3383V44.5H100.288V43.5ZM96.3883 43.5H95.4133V44.5H96.3883V43.5ZM95.9133 44V43.0375H94.9133V44H95.9133ZM95.9133 41.1125V39.1875H94.9133V41.1125H95.9133ZM95.9133 37.2625V35.3375H94.9133V37.2625H95.9133ZM95.9133 33.4125V31.4875H94.9133V33.4125H95.9133ZM95.9133 29.5625V27.6375H94.9133V29.5625H95.9133ZM95.9133 25.7125V23.7875H94.9133V25.7125H95.9133ZM95.9133 21.8625V19.9375H94.9133V21.8625H95.9133ZM95.9133 18.0125V17.05H94.9133V18.0125H95.9133ZM95.4133 16.55H94.3195V17.55H95.4133V16.55ZM92.132 16.55H89.9445V17.55H92.132V16.55ZM87.757 16.55H86.6633V17.55H87.757V16.55ZM86.1633 17.05V18.175H87.1633V17.05H86.1633ZM86.1633 20.425V21.55H87.1633V20.425H86.1633ZM86.1633 21.55C86.1633 21.8534 86.1619 22.1534 86.1591 22.45L87.1591 22.4593C87.1619 22.1596 87.1633 21.8565 87.1633 21.55H86.1633ZM86.1243 24.2461C86.1059 24.8605 86.081 25.4585 86.0496 26.0401L87.0481 26.094C87.08 25.5041 87.1053 24.898 87.1239 24.276L86.1243 24.2461ZM85.9282 27.8283C85.8774 28.4431 85.8184 29.037 85.7513 29.6101L86.7445 29.7264C86.8131 29.1413 86.8731 28.5361 86.9248 27.9107L85.9282 27.8283ZM85.5077 31.379C85.4098 31.991 85.301 32.5747 85.1816 33.1302L86.1592 33.3405C86.2827 32.7662 86.3947 32.165 86.4952 31.537L85.5077 31.379ZM84.7519 34.8494C84.668 35.1396 84.5805 35.4199 84.4894 35.6905L85.4371 36.0095C85.5331 35.7246 85.6249 35.4304 85.7125 35.127L84.7519 34.8494ZM84.488 35.6947C84.3807 36.0232 84.2701 36.3406 84.1563 36.6468L85.0937 36.995C85.2124 36.6757 85.3273 36.3458 85.4386 36.0053L84.488 35.6947ZM83.3685 38.4882C83.0533 39.1258 82.7199 39.6941 82.3692 40.1947L83.1882 40.7685C83.5718 40.2209 83.9305 39.608 84.265 38.9314L83.3685 38.4882ZM81.0953 41.6523C80.8502 41.8711 80.5988 42.0635 80.3413 42.2304L80.8852 43.0696C81.188 42.8733 81.4799 42.6494 81.7612 42.3984L81.0953 41.6523ZM80.3378 42.2328C80.1182 42.3777 79.8934 42.5132 79.6631 42.6391L80.143 43.5165C80.3976 43.3772 80.6462 43.2274 80.8888 43.0672L80.3378 42.2328ZM78.2236 43.2788C77.7357 43.4498 77.2263 43.5858 76.6949 43.6865L76.8809 44.669C77.4595 44.5594 78.0175 44.4107 78.5544 44.2225L78.2236 43.2788ZM75.1139 43.8775C74.8517 43.8925 74.5849 43.9 74.3133 43.9V44.9C74.6033 44.9 74.8892 44.892 75.1709 44.8759L75.1139 43.8775ZM72.6133 44.2L72.8302 43.2238L72.8041 43.218L72.7777 43.2136L72.6133 44.2ZM71.3133 44H70.3133V44.8828L71.1892 44.9923L71.3133 44ZM71.3133 37.9L71.4484 36.9092L70.3133 36.7544V37.9H71.3133ZM77.0133 36.65L77.7331 37.3441L77.7392 37.3378L77.7452 37.3314L77.0133 36.65ZM78.9633 30.95L77.9747 30.7988L77.9731 30.8102L78.9633 30.95ZM79.6133 11.55V10.55H78.6133V11.55H79.6133ZM103.213 11.55H104.213V10.55H103.213V11.55ZM103.213 44V45H104.213V44H103.213ZM95.4133 44H94.4133V45H95.4133V44ZM95.4133 17.05H96.4133V16.05H95.4133V17.05ZM86.6633 17.05V16.05H85.6633V17.05H86.6633ZM84.9633 35.85L84.0155 35.5309L84.0127 35.5394L84.9633 35.85ZM80.6133 42.65L80.0694 41.8108L80.0622 41.8155L80.6133 42.65ZM74.3133 43.4C74.1947 43.4 74.0731 43.3961 73.9485 43.3881L73.8212 45.3841C73.9868 45.3946 74.1508 45.4 74.3133 45.4V43.4ZM73.2055 43.2983C73.0828 43.277 72.9578 43.2522 72.8302 43.2238L72.3964 45.1762C72.5529 45.211 72.7082 45.2418 72.8622 45.2687L73.2055 43.2983ZM72.7777 43.2136C72.6624 43.1944 72.5529 43.1763 72.4494 43.1595L72.1282 45.1335C72.2289 45.1499 72.3358 45.1675 72.4489 45.1864L72.7777 43.2136ZM71.7846 43.0556C71.6527 43.0362 71.5365 43.0201 71.4373 43.0077L71.1892 44.9923C71.2694 45.0023 71.3703 45.0162 71.4933 45.0343L71.7846 43.0556ZM72.3133 44V43.2375H70.3133V44H72.3133ZM72.3133 41.7125V40.1875H70.3133V41.7125H72.3133ZM72.3133 38.6625V37.9H70.3133V38.6625H72.3133ZM71.1782 38.8908C71.3437 38.9134 71.5044 38.9336 71.6601 38.9515L71.888 36.9645C71.7475 36.9484 71.601 36.93 71.4484 36.9092L71.1782 38.8908ZM72.6482 39.0361C72.8275 39.0453 72.9993 39.05 73.1633 39.05V37.05C73.0375 37.05 72.8999 37.0463 72.7502 37.0387L72.6482 39.0361ZM73.1633 39.05C73.5733 39.05 73.9694 39.0246 74.3504 38.972L74.077 36.9908C73.7953 37.0297 73.4911 37.05 73.1633 37.05V39.05ZM76.7168 38.1604C77.0902 37.9315 77.4295 37.659 77.7331 37.3441L76.2934 35.9559C76.1077 36.1485 75.9009 36.3146 75.6715 36.4553L76.7168 38.1604ZM77.7452 37.3314C77.956 37.105 78.1469 36.8497 78.3205 36.5713L76.6233 35.5132C76.5071 35.6996 76.3923 35.8495 76.2814 35.9686L77.7452 37.3314ZM79.0594 35.0019C79.2309 34.5254 79.3839 34.0015 79.5199 33.4327L77.5747 32.9677C77.4527 33.4782 77.3198 33.9296 77.1776 34.3244L79.0594 35.0019ZM79.8335 31.8692C79.8758 31.6168 79.9157 31.3569 79.9535 31.0898L77.9731 30.8102C77.9376 31.0614 77.9002 31.3044 77.861 31.539L79.8335 31.8692ZM79.9518 31.1012C80.0048 30.7544 80.0545 30.3881 80.1008 30.0026L78.1151 29.764C78.071 30.1306 78.0242 30.4755 77.9748 30.7988L79.9518 31.1012ZM80.3129 27.8165C80.3656 27.1356 80.4114 26.4095 80.4501 25.6385L78.4526 25.5381C78.4147 26.2934 78.37 27.0013 78.3188 27.662L80.3129 27.8165ZM80.5373 23.4668C80.5587 22.7742 80.5756 22.0516 80.588 21.2989L78.5883 21.266C78.5761 22.0099 78.5594 22.7228 78.5382 23.4048L80.5373 23.4668ZM80.6107 19.1323C80.6124 18.7773 80.6133 18.4166 80.6133 18.05H78.6133C78.6133 18.4134 78.6124 18.7709 78.6107 19.1224L80.6107 19.1323ZM80.6133 18.05V17.2375H78.6133V18.05H80.6133ZM80.6133 15.6125V13.9875H78.6133V15.6125H80.6133ZM80.6133 12.3625V11.55H78.6133V12.3625H80.6133ZM79.6133 12.55H80.5966V10.55H79.6133V12.55ZM82.5633 12.55H84.5299V10.55H82.5633V12.55ZM86.4966 12.55H88.4633V10.55H86.4966V12.55ZM90.4299 12.55H92.3966V10.55H90.4299V12.55ZM94.3633 12.55H96.3299V10.55H94.3633V12.55ZM98.2966 12.55H100.263V10.55H98.2966V12.55ZM102.23 12.55H103.213V10.55H102.23V12.55ZM102.213 11.55V12.5641H104.213V11.55H102.213ZM102.213 14.5922V16.6203H104.213V14.5922H102.213ZM102.213 18.6484V20.6766H104.213V18.6484H102.213ZM102.213 22.7047V24.7328H104.213V22.7047H102.213ZM102.213 26.7609V28.7891H104.213V26.7609H102.213ZM102.213 30.8172V32.8453H104.213V30.8172H102.213ZM102.213 34.8734V36.9016H104.213V34.8734H102.213ZM102.213 38.9297V40.9578H104.213V38.9297H102.213ZM102.213 42.9859V44H104.213V42.9859H102.213ZM103.213 43H102.238V45H103.213V43ZM100.288 43H98.3383V45H100.288V43ZM96.3883 43H95.4133V45H96.3883V43ZM96.4133 44V43.0375H94.4133V44H96.4133ZM96.4133 41.1125V39.1875H94.4133V41.1125H96.4133ZM96.4133 37.2625V35.3375H94.4133V37.2625H96.4133ZM96.4133 33.4125V31.4875H94.4133V33.4125H96.4133ZM96.4133 29.5625V27.6375H94.4133V29.5625H96.4133ZM96.4133 25.7125V23.7875H94.4133V25.7125H96.4133ZM96.4133 21.8625V19.9375H94.4133V21.8625H96.4133ZM96.4133 18.0125V17.05H94.4133V18.0125H96.4133ZM95.4133 16.05H94.3195V18.05H95.4133V16.05ZM92.132 16.05H89.9445V18.05H92.132V16.05ZM87.757 16.05H86.6633V18.05H87.757V16.05ZM85.6633 17.05V18.175H87.6633V17.05H85.6633ZM85.6633 20.425V21.55H87.6633V20.425H85.6633ZM85.6633 21.55C85.6633 21.8519 85.6619 22.1504 85.6592 22.4453L87.6591 22.4639C87.6619 22.1626 87.6633 21.858 87.6633 21.55H85.6633ZM85.6246 24.2311C85.6063 24.8417 85.5815 25.4357 85.5503 26.0131L87.5474 26.121C87.5795 25.5268 87.6049 24.9168 87.6237 24.291L85.6246 24.2311ZM85.4299 27.7872C85.3795 28.3967 85.3211 28.9849 85.2547 29.5519L87.2411 29.7846C87.3104 29.1935 87.371 28.5825 87.4231 27.9518L85.4299 27.7872ZM85.014 31.3C84.9174 31.904 84.8102 32.4789 84.6927 33.025L86.648 33.4456C86.7736 32.862 86.8871 32.252 86.9889 31.616L85.014 31.3ZM84.2715 34.7105C84.1895 34.9942 84.1042 35.2676 84.0155 35.531L85.911 36.169C86.0094 35.8769 86.1033 35.5758 86.1929 35.2659L84.2715 34.7105ZM84.0127 35.5394C83.9073 35.862 83.799 36.173 83.6876 36.4727L85.5624 37.1692C85.6835 36.8433 85.8006 36.507 85.9138 36.1606L84.0127 35.5394ZM82.9203 38.2666C82.6148 38.8847 82.294 39.4307 81.9597 39.9078L83.5977 41.0554C83.9978 40.4843 84.369 39.8491 84.7132 39.153L82.9203 38.2666ZM80.7624 41.2793C80.5353 41.4819 80.3042 41.6586 80.0694 41.8108L81.1572 43.4892C81.4826 43.2782 81.7948 43.0385 82.0941 42.7715L80.7624 41.2793ZM80.0622 41.8155C79.8542 41.9529 79.6412 42.0812 79.4231 42.2005L80.383 43.9551C80.6497 43.8092 80.9102 43.6523 81.1643 43.4845L80.0622 41.8155ZM78.0582 42.8069C77.5949 42.9694 77.1097 43.099 76.6019 43.1952L76.974 45.1603C77.5762 45.0462 78.1584 44.8912 78.7199 44.6943L78.0582 42.8069ZM75.0853 43.3783C74.833 43.3927 74.5756 43.4 74.3133 43.4V45.4C74.6125 45.4 74.9079 45.3917 75.1994 45.3751L75.0853 43.3783ZM112.711 11.55V11.05H112.211V11.55H112.711ZM120.511 11.55H121.011V11.05H120.511V11.55ZM120.511 33.75H120.011V35.4802L120.934 34.0167L120.511 33.75ZM134.511 11.55V11.05H134.235L134.088 11.2833L134.511 11.55ZM142.311 11.55H142.811V11.05H142.311V11.55ZM142.311 44V44.5H142.811V44H142.311ZM134.511 44H134.011V44.5H134.511V44ZM134.511 21.45H135.011V19.6967L134.086 21.1863L134.511 21.45ZM120.511 44V44.5H120.789L120.936 44.2637L120.511 44ZM112.711 44H112.211V44.5H112.711V44ZM112.211 11.55V12.5641H113.211V11.55H112.211ZM112.211 14.5922V16.6203H113.211V14.5922H112.211ZM112.211 18.6484V20.6766H113.211V18.6484H112.211ZM112.211 22.7047V24.7328H113.211V22.7047H112.211ZM112.211 26.7609V28.7891H113.211V26.7609H112.211ZM112.211 30.8172V32.8453H113.211V30.8172H112.211ZM112.211 34.8734V36.9016H113.211V34.8734H112.211ZM112.211 38.9297V40.9578H113.211V38.9297H112.211ZM112.211 42.9859V44H113.211V42.9859H112.211ZM112.711 44.5H113.686V43.5H112.711V44.5ZM115.636 44.5H117.586V43.5H115.636V44.5ZM119.536 44.5H120.511V43.5H119.536V44.5ZM120.936 44.2637L121.436 43.4584L120.586 42.9309L120.086 43.7363L120.936 44.2637ZM122.436 41.8477L123.436 40.2369L122.586 39.7095L121.586 41.3202L122.436 41.8477ZM124.436 38.6262L125.436 37.0155L124.586 36.4881L123.586 38.0988L124.436 38.6262ZM126.436 35.4048L127.436 33.7941L126.586 33.2666L125.586 34.8773L126.436 35.4048ZM128.436 32.1834L129.436 30.5727L128.586 30.0452L127.586 31.6559L128.436 32.1834ZM130.436 28.9619L131.436 27.3512L130.586 26.8238L129.586 28.4345L130.436 28.9619ZM132.436 25.7405L133.436 24.1298L132.586 23.6023L131.586 25.2131L132.436 25.7405ZM134.436 22.5191L134.936 21.7137L134.086 21.1863L133.586 21.9916L134.436 22.5191ZM134.011 21.45V22.3896H135.011V21.45H134.011ZM134.011 24.2687V26.1479H135.011V24.2687H134.011ZM134.011 28.0271V29.9062H135.011V28.0271H134.011ZM134.011 31.7854V33.6646H135.011V31.7854H134.011ZM134.011 35.5437V37.4229H135.011V35.5437H134.011ZM134.011 39.3021V41.1813H135.011V39.3021H134.011ZM134.011 43.0604V44H135.011V43.0604H134.011ZM134.511 44.5H135.486V43.5H134.511V44.5ZM137.436 44.5H139.386V43.5H137.436V44.5ZM141.336 44.5H142.311V43.5H141.336V44.5ZM142.811 44V42.9859H141.811V44H142.811ZM142.811 40.9578V38.9297H141.811V40.9578H142.811ZM142.811 36.9016V34.8734H141.811V36.9016H142.811ZM142.811 32.8453V30.8172H141.811V32.8453H142.811ZM142.811 28.7891V26.7609H141.811V28.7891H142.811ZM142.811 24.7328V22.7047H141.811V24.7328H142.811ZM142.811 20.6766V18.6484H141.811V20.6766H142.811ZM142.811 16.6203V14.5922H141.811V16.6203H142.811ZM142.811 12.5641V11.55H141.811V12.5641H142.811ZM142.311 11.05H141.336V12.05H142.311V11.05ZM139.386 11.05H137.436V12.05H139.386V11.05ZM135.486 11.05H134.511V12.05H135.486V11.05ZM134.088 11.2833L133.588 12.0761L134.434 12.6096L134.934 11.8167L134.088 11.2833ZM132.588 13.6619L131.588 15.2476L132.434 15.781L133.434 14.1953L132.588 13.6619ZM130.588 16.8333L129.588 18.419L130.434 18.9524L131.434 17.3667L130.588 16.8333ZM128.588 20.0047L127.588 21.5904L128.434 22.1239L129.434 20.5381L128.588 20.0047ZM126.588 23.1761L125.588 24.7619L126.434 25.2953L127.434 23.7096L126.588 23.1761ZM124.588 26.3476L123.588 27.9333L124.434 28.4667L125.434 26.881L124.588 26.3476ZM122.588 29.519L121.588 31.1047L122.434 31.6381L123.434 30.0524L122.588 29.519ZM120.588 32.6904L120.088 33.4833L120.934 34.0167L121.434 33.2239L120.588 32.6904ZM121.011 33.75V32.825H120.011V33.75H121.011ZM121.011 30.975V29.125H120.011V30.975H121.011ZM121.011 27.275V25.425H120.011V27.275H121.011ZM121.011 23.575V21.725H120.011V23.575H121.011ZM121.011 19.875V18.025H120.011V19.875H121.011ZM121.011 16.175V14.325H120.011V16.175H121.011ZM121.011 12.475V11.55H120.011V12.475H121.011ZM120.511 11.05H119.536V12.05H120.511V11.05ZM117.586 11.05H115.636V12.05H117.586V11.05ZM113.686 11.05H112.711V12.05H113.686V11.05ZM112.711 11.55V10.55H111.711V11.55H112.711ZM120.511 11.55H121.511V10.55H120.511V11.55ZM120.511 33.75H119.511V37.2104L121.357 34.2834L120.511 33.75ZM134.511 11.55V10.55H133.959L133.665 11.0166L134.511 11.55ZM142.311 11.55H143.311V10.55H142.311V11.55ZM142.311 44V45H143.311V44H142.311ZM134.511 44H133.511V45H134.511V44ZM134.511 21.45H135.511V17.9434L133.661 20.9225L134.511 21.45ZM120.511 44V45H121.067L121.361 44.5275L120.511 44ZM112.711 44H111.711V45H112.711V44ZM111.711 11.55V12.5641H113.711V11.55H111.711ZM111.711 14.5922V16.6203H113.711V14.5922H111.711ZM111.711 18.6484V20.6766H113.711V18.6484H111.711ZM111.711 22.7047V24.7328H113.711V22.7047H111.711ZM111.711 26.7609V28.7891H113.711V26.7609H111.711ZM111.711 30.8172V32.8453H113.711V30.8172H111.711ZM111.711 34.8734V36.9016H113.711V34.8734H111.711ZM111.711 38.9297V40.9578H113.711V38.9297H111.711ZM111.711 42.9859V44H113.711V42.9859H111.711ZM112.711 45H113.686V43H112.711V45ZM115.636 45H117.586V43H115.636V45ZM119.536 45H120.511V43H119.536V45ZM121.361 44.5275L121.861 43.7221L120.161 42.6672L119.661 43.4725L121.361 44.5275ZM122.861 42.1114L123.861 40.5007L122.161 39.4458L121.161 41.0565L122.861 42.1114ZM124.861 38.89L125.861 37.2792L124.161 36.2243L123.161 37.835L124.861 38.89ZM126.861 35.6685L127.861 34.0578L126.161 33.0029L125.161 34.6136L126.861 35.6685ZM128.861 32.4471L129.861 30.8364L128.161 29.7815L127.161 31.3922L128.861 32.4471ZM130.861 29.2257L131.861 27.615L130.161 26.56L129.161 28.1708L130.861 29.2257ZM132.861 26.0042L133.861 24.3935L132.161 23.3386L131.161 24.9493L132.861 26.0042ZM134.861 22.7828L135.361 21.9775L133.661 20.9225L133.161 21.7279L134.861 22.7828ZM133.511 21.45V22.3896H135.511V21.45H133.511ZM133.511 24.2687V26.1479H135.511V24.2687H133.511ZM133.511 28.0271V29.9062H135.511V28.0271H133.511ZM133.511 31.7854V33.6646H135.511V31.7854H133.511ZM133.511 35.5437V37.4229H135.511V35.5437H133.511ZM133.511 39.3021V41.1813H135.511V39.3021H133.511ZM133.511 43.0604V44H135.511V43.0604H133.511ZM134.511 45H135.486V43H134.511V45ZM137.436 45H139.386V43H137.436V45ZM141.336 45H142.311V43H141.336V45ZM143.311 44V42.9859H141.311V44H143.311ZM143.311 40.9578V38.9297H141.311V40.9578H143.311ZM143.311 36.9016V34.8734H141.311V36.9016H143.311ZM143.311 32.8453V30.8172H141.311V32.8453H143.311ZM143.311 28.7891V26.7609H141.311V28.7891H143.311ZM143.311 24.7328V22.7047H141.311V24.7328H143.311ZM143.311 20.6766V18.6484H141.311V20.6766H143.311ZM143.311 16.6203V14.5922H141.311V16.6203H143.311ZM143.311 12.5641V11.55H141.311V12.5641H143.311ZM142.311 10.55H141.336V12.55H142.311V10.55ZM139.386 10.55H137.436V12.55H139.386V10.55ZM135.486 10.55H134.511V12.55H135.486V10.55ZM133.665 11.0166L133.165 11.8094L134.857 12.8763L135.357 12.0834L133.665 11.0166ZM132.165 13.3951L131.165 14.9809L132.857 16.0477L133.857 14.462L132.165 13.3951ZM130.165 16.5666L129.165 18.1523L130.857 19.2191L131.857 17.6334L130.165 16.5666ZM128.165 19.738L127.165 21.3237L128.857 22.3906L129.857 20.8048L128.165 19.738ZM126.165 22.9094L125.165 24.4952L126.857 25.562L127.857 23.9763L126.165 22.9094ZM124.165 26.0809L123.165 27.6666L124.857 28.7334L125.857 27.1477L124.165 26.0809ZM122.165 29.2523L121.165 30.838L122.857 31.9048L123.857 30.3191L122.165 29.2523ZM120.165 32.4237L119.665 33.2166L121.357 34.2834L121.857 33.4906L120.165 32.4237ZM121.511 33.75V32.825H119.511V33.75H121.511ZM121.511 30.975V29.125H119.511V30.975H121.511ZM121.511 27.275V25.425H119.511V27.275H121.511ZM121.511 23.575V21.725H119.511V23.575H121.511ZM121.511 19.875V18.025H119.511V19.875H121.511ZM121.511 16.175V14.325H119.511V16.175H121.511ZM121.511 12.475V11.55H119.511V12.475H121.511ZM120.511 10.55H119.536V12.55H120.511V10.55ZM117.586 10.55H115.636V12.55H117.586V10.55ZM113.686 10.55H112.711V12.55H113.686V10.55ZM170.482 31.6H170.982V30.7451L170.237 31.1642L170.482 31.6ZM153.982 31.75L153.677 32.1467L153.685 32.1525L153.982 31.75ZM151.182 11.55V11.05H150.682V11.55H151.182ZM158.882 11.55H159.382V11.05H158.882V11.55ZM160.032 27.15L159.735 27.5521L159.745 27.5593L159.755 27.566L160.032 27.15ZM167.232 27.3L167.077 26.8245L167.232 27.3ZM170.482 25.65L170.794 26.0404L170.982 25.8903V25.65H170.482ZM170.482 11.55V11.05H169.982V11.55H170.482ZM178.282 11.55H178.782V11.05H178.282V11.55ZM178.282 44V44.5H178.782V44H178.282ZM170.482 44H169.982V44.5H170.482V44ZM170.237 31.1642C169.89 31.3594 169.534 31.5415 169.168 31.7107L169.588 32.6182C169.977 32.4381 170.357 32.244 170.727 32.0358L170.237 31.1642ZM166.917 32.5534C166.165 32.7742 165.379 32.9495 164.561 33.0787L164.716 34.0665C165.576 33.9309 166.403 33.7465 167.198 33.5128L166.917 32.5534ZM162.148 33.3216C161.75 33.3405 161.344 33.35 160.932 33.35V34.35C161.36 34.35 161.781 34.3402 162.196 34.3204L162.148 33.3216ZM160.932 33.35C160.629 33.35 160.331 33.3411 160.039 33.3233L159.979 34.3215C160.291 34.3405 160.609 34.35 160.932 34.35V33.35ZM158.279 33.0955C157.687 32.9748 157.122 32.8115 156.585 32.6059L156.228 33.5399C156.819 33.7659 157.436 33.9442 158.079 34.0753L158.279 33.0955ZM155.008 31.8359C154.758 31.6845 154.515 31.5217 154.279 31.3475L153.685 32.1525C153.946 32.3446 154.214 32.5242 154.49 32.6912L155.008 31.8359ZM154.287 31.3534C154.041 31.1648 153.813 30.9579 153.603 30.7324L152.872 31.4144C153.12 31.6804 153.388 31.9245 153.678 32.1466L154.287 31.3534ZM152.568 29.1935C152.314 28.6595 152.112 28.0609 151.966 27.3952L150.989 27.6098C151.15 28.3406 151.374 29.0127 151.665 29.6236L152.568 29.1935ZM151.71 25.4778C151.691 25.1626 151.682 24.8367 151.682 24.5H150.682C150.682 24.8553 150.692 25.201 150.712 25.537L151.71 25.4778ZM151.682 24.5V23.4208H150.682V24.5H151.682ZM151.682 21.2625V19.1042H150.682V21.2625H151.682ZM151.682 16.9458V14.7875H150.682V16.9458H151.682ZM151.682 12.6292V11.55H150.682V12.6292H151.682ZM151.182 12.05H152.145V11.05H151.182V12.05ZM154.07 12.05H155.995V11.05H154.07V12.05ZM157.92 12.05H158.882V11.05H157.92V12.05ZM158.382 11.55V12.5792H159.382V11.55H158.382ZM158.382 14.6375V16.6958H159.382V14.6375H158.382ZM158.382 18.7542V20.8125H159.382V18.7542H158.382ZM158.382 22.8708V23.9H159.382V22.8708H158.382ZM158.382 23.9C158.382 24.2334 158.398 24.5491 158.43 24.8464L159.424 24.7379C159.396 24.4812 159.382 24.2021 159.382 23.9H158.382ZM159.011 26.7486C159.204 27.0678 159.445 27.338 159.735 27.5521L160.329 26.7479C160.153 26.6173 159.998 26.4473 159.867 26.2306L159.011 26.7486ZM159.755 27.566C160.004 27.732 160.271 27.874 160.556 27.9924L160.94 27.069C160.712 26.9743 160.502 26.8624 160.309 26.734L159.755 27.566ZM162.27 28.4078C162.547 28.4361 162.835 28.45 163.132 28.45V27.45C162.866 27.45 162.612 27.4375 162.372 27.413L162.27 28.4078ZM163.132 28.45C163.494 28.45 163.854 28.436 164.212 28.4081L164.134 27.4111C163.802 27.437 163.468 27.45 163.132 27.45V28.45ZM166.347 28.0696C166.696 27.9854 167.042 27.8874 167.387 27.7755L167.077 26.8245C166.758 26.9285 166.436 27.0194 166.112 27.0974L166.347 28.0696ZM167.387 27.7755C167.696 27.6749 167.994 27.5679 168.279 27.4544L167.909 26.5253C167.645 26.6303 167.368 26.7301 167.077 26.8245L167.387 27.7755ZM169.996 26.6015C170.281 26.4251 170.547 26.2382 170.794 26.0404L170.17 25.2596C169.956 25.4306 169.723 25.5947 169.47 25.7515L169.996 26.6015ZM170.982 25.65V24.7687H169.982V25.65H170.982ZM170.982 23.0062V21.2437H169.982V23.0062H170.982ZM170.982 19.4812V17.7187H169.982V19.4812H170.982ZM170.982 15.9562V14.1937H169.982V15.9562H170.982ZM170.982 12.4312V11.55H169.982V12.4312H170.982ZM170.482 12.05H171.457V11.05H170.482V12.05ZM173.407 12.05H175.357V11.05H173.407V12.05ZM177.307 12.05H178.282V11.05H177.307V12.05ZM177.782 11.55V12.5641H178.782V11.55H177.782ZM177.782 14.5922V16.6203H178.782V14.5922H177.782ZM177.782 18.6484V20.6766H178.782V18.6484H177.782ZM177.782 22.7047V24.7328H178.782V22.7047H177.782ZM177.782 26.7609V28.7891H178.782V26.7609H177.782ZM177.782 30.8172V32.8453H178.782V30.8172H177.782ZM177.782 34.8734V36.9016H178.782V34.8734H177.782ZM177.782 38.9297V40.9578H178.782V38.9297H177.782ZM177.782 42.9859V44H178.782V42.9859H177.782ZM178.282 43.5H177.307V44.5H178.282V43.5ZM175.357 43.5H173.407V44.5H175.357V43.5ZM171.457 43.5H170.482V44.5H171.457V43.5ZM170.982 44V42.9667H169.982V44H170.982ZM170.982 40.9V38.8333H169.982V40.9H170.982ZM170.982 36.7667V34.7H169.982V36.7667H170.982ZM170.982 32.6333V31.6H169.982V32.6333H170.982ZM170.482 31.6H171.482V29.8902L169.992 30.7284L170.482 31.6ZM153.982 31.75L153.373 32.5431L153.381 32.5492L153.389 32.5551L153.982 31.75ZM151.182 11.55V10.55H150.182V11.55H151.182ZM158.882 11.55H159.882V10.55H158.882V11.55ZM160.032 27.15L159.438 27.9542L159.457 27.9686L159.477 27.982L160.032 27.15ZM167.232 27.3L166.923 26.349L167.232 27.3ZM170.482 25.65L171.107 26.4309L171.482 26.1306V25.65H170.482ZM170.482 11.55V10.55H169.482V11.55H170.482ZM178.282 11.55H179.282V10.55H178.282V11.55ZM178.282 44V45H179.282V44H178.282ZM170.482 44H169.482V45H170.482V44ZM169.992 30.7284C169.656 30.9171 169.312 31.0932 168.958 31.2569L169.798 33.072C170.199 32.8864 170.591 32.6863 170.972 32.4716L169.992 30.7284ZM166.776 32.0736C166.046 32.2881 165.281 32.4588 164.483 32.5848L164.794 34.5604C165.674 34.4216 166.522 34.2326 167.339 33.9926L166.776 32.0736ZM162.125 32.8221C161.734 32.8407 161.337 32.85 160.932 32.85V34.85C161.367 34.85 161.797 34.84 162.22 34.8199L162.125 32.8221ZM160.932 32.85C160.638 32.85 160.351 32.8414 160.07 32.8243L159.948 34.8206C160.271 34.8402 160.599 34.85 160.932 34.85V32.85ZM158.379 32.6055C157.812 32.4901 157.274 32.3343 156.764 32.1389L156.049 34.0069C156.667 34.2431 157.31 34.4289 157.979 34.5652L158.379 32.6055ZM155.267 31.4082C155.03 31.2647 154.8 31.1103 154.575 30.9449L153.389 32.5551C153.662 32.756 153.942 32.944 154.231 33.1189L155.267 31.4082ZM154.591 30.9568C154.367 30.785 154.16 30.5966 153.969 30.3914L152.506 31.7554C152.773 32.0416 153.062 32.3043 153.373 32.5431L154.591 30.9568ZM153.02 28.9784C152.783 28.4829 152.593 27.921 152.454 27.288L150.501 27.717C150.669 28.4805 150.905 29.1893 151.214 29.8387L153.02 28.9784ZM152.209 25.4481C152.191 25.1434 152.182 24.8274 152.182 24.5H150.182C150.182 24.8646 150.192 25.2202 150.213 25.5666L152.209 25.4481ZM152.182 24.5V23.4208H150.182V24.5H152.182ZM152.182 21.2625V19.1042H150.182V21.2625H152.182ZM152.182 16.9458V14.7875H150.182V16.9458H152.182ZM152.182 12.6292V11.55H150.182V12.6292H152.182ZM151.182 12.55H152.145V10.55H151.182V12.55ZM154.07 12.55H155.995V10.55H154.07V12.55ZM157.92 12.55H158.882V10.55H157.92V12.55ZM157.882 11.55V12.5792H159.882V11.55H157.882ZM157.882 14.6375V16.6958H159.882V14.6375H157.882ZM157.882 18.7542V20.8125H159.882V18.7542H157.882ZM157.882 22.8708V23.9H159.882V22.8708H157.882ZM157.882 23.9C157.882 24.2491 157.899 24.5831 157.933 24.9007L159.921 24.6836C159.896 24.4473 159.882 24.1864 159.882 23.9H157.882ZM158.584 27.0076C158.808 27.378 159.092 27.6983 159.438 27.9542L160.626 26.3458C160.506 26.257 160.394 26.1371 160.294 25.9716L158.584 27.0076ZM159.477 27.982C159.754 28.1668 160.051 28.3238 160.364 28.4541L161.132 26.6073C160.932 26.5244 160.751 26.4277 160.587 26.3179L159.477 27.982ZM162.22 28.9052C162.515 28.9353 162.819 28.95 163.132 28.95V26.95C162.881 26.95 162.645 26.9382 162.423 26.9156L162.22 28.9052ZM163.132 28.95C163.507 28.95 163.88 28.9355 164.251 28.9065L164.095 26.9126C163.776 26.9375 163.455 26.95 163.132 26.95V28.95ZM166.464 28.5556C166.825 28.4685 167.185 28.3669 167.541 28.251L166.923 26.349C166.615 26.449 166.306 26.5364 165.995 26.6113L166.464 28.5556ZM167.541 28.251C167.86 28.1473 168.168 28.0367 168.464 27.919L167.724 26.0607C167.471 26.1615 167.204 26.2577 166.923 26.349L167.541 28.251ZM170.26 27.0265C170.56 26.8403 170.843 26.642 171.107 26.4309L169.857 24.8691C169.66 25.0269 169.443 25.1795 169.206 25.3265L170.26 27.0265ZM171.482 25.65V24.7687H169.482V25.65H171.482ZM171.482 23.0062V21.2437H169.482V23.0062H171.482ZM171.482 19.4812V17.7187H169.482V19.4812H171.482ZM171.482 15.9562V14.1937H169.482V15.9562H171.482ZM171.482 12.4312V11.55H169.482V12.4312H171.482ZM170.482 12.55H171.457V10.55H170.482V12.55ZM173.407 12.55H175.357V10.55H173.407V12.55ZM177.307 12.55H178.282V10.55H177.307V12.55ZM177.282 11.55V12.5641H179.282V11.55H177.282ZM177.282 14.5922V16.6203H179.282V14.5922H177.282ZM177.282 18.6484V20.6766H179.282V18.6484H177.282ZM177.282 22.7047V24.7328H179.282V22.7047H177.282ZM177.282 26.7609V28.7891H179.282V26.7609H177.282ZM177.282 30.8172V32.8453H179.282V30.8172H177.282ZM177.282 34.8734V36.9016H179.282V34.8734H177.282ZM177.282 38.9297V40.9578H179.282V38.9297H177.282ZM177.282 42.9859V44H179.282V42.9859H177.282ZM178.282 43H177.307V45H178.282V43ZM175.357 43H173.407V45H175.357V43ZM171.457 43H170.482V45H171.457V43ZM171.482 44V42.9667H169.482V44H171.482ZM171.482 40.9V38.8333H169.482V40.9H171.482ZM171.482 36.7667V34.7H169.482V36.7667H171.482ZM171.482 32.6333V31.6H169.482V32.6333H171.482ZM187.779 11.55V11.05H187.279V11.55H187.779ZM195.579 11.55H196.079V11.05H195.579V11.55ZM195.579 24.55H195.079V25.05H195.579V24.55ZM209.379 24.55V25.05H209.879V24.55H209.379ZM209.379 11.55V11.05H208.879V11.55H209.379ZM217.179 11.55H217.679V11.05H217.179V11.55ZM217.179 44V44.5H217.679V44H217.179ZM209.379 44H208.879V44.5H209.379V44ZM209.379 30.1H209.879V29.6H209.379V30.1ZM195.579 30.1V29.6H195.079V30.1H195.579ZM195.579 44V44.5H196.079V44H195.579ZM187.779 44H187.279V44.5H187.779V44ZM187.279 11.55V12.5641H188.279V11.55H187.279ZM187.279 14.5922V16.6203H188.279V14.5922H187.279ZM187.279 18.6484V20.6766H188.279V18.6484H187.279ZM187.279 22.7047V24.7328H188.279V22.7047H187.279ZM187.279 26.7609V28.7891H188.279V26.7609H187.279ZM187.279 30.8172V32.8453H188.279V30.8172H187.279ZM187.279 34.8734V36.9016H188.279V34.8734H187.279ZM187.279 38.9297V40.9578H188.279V38.9297H187.279ZM187.279 42.9859V44H188.279V42.9859H187.279ZM187.779 44.5H188.754V43.5H187.779V44.5ZM190.704 44.5H192.654V43.5H190.704V44.5ZM194.604 44.5H195.579V43.5H194.604V44.5ZM196.079 44V42.8417H195.079V44H196.079ZM196.079 40.525V38.2083H195.079V40.525H196.079ZM196.079 35.8917V33.575H195.079V35.8917H196.079ZM196.079 31.2583V30.1H195.079V31.2583H196.079ZM195.579 30.6H196.729V29.6H195.579V30.6ZM199.029 30.6H201.329V29.6H199.029V30.6ZM203.629 30.6H205.929V29.6H203.629V30.6ZM208.229 30.6H209.379V29.6H208.229V30.6ZM208.879 30.1V31.2583H209.879V30.1H208.879ZM208.879 33.575V35.8917H209.879V33.575H208.879ZM208.879 38.2083V40.525H209.879V38.2083H208.879ZM208.879 42.8417V44H209.879V42.8417H208.879ZM209.379 44.5H210.354V43.5H209.379V44.5ZM212.304 44.5H214.254V43.5H212.304V44.5ZM216.204 44.5H217.179V43.5H216.204V44.5ZM217.679 44V42.9859H216.679V44H217.679ZM217.679 40.9578V38.9297H216.679V40.9578H217.679ZM217.679 36.9016V34.8734H216.679V36.9016H217.679ZM217.679 32.8453V30.8172H216.679V32.8453H217.679ZM217.679 28.7891V26.7609H216.679V28.7891H217.679ZM217.679 24.7328V22.7047H216.679V24.7328H217.679ZM217.679 20.6766V18.6484H216.679V20.6766H217.679ZM217.679 16.6203V14.5922H216.679V16.6203H217.679ZM217.679 12.5641V11.55H216.679V12.5641H217.679ZM217.179 11.05H216.204V12.05H217.179V11.05ZM214.254 11.05H212.304V12.05H214.254V11.05ZM210.354 11.05H209.379V12.05H210.354V11.05ZM208.879 11.55V12.6333H209.879V11.55H208.879ZM208.879 14.8V16.9667H209.879V14.8H208.879ZM208.879 19.1333V21.3H209.879V19.1333H208.879ZM208.879 23.4667V24.55H209.879V23.4667H208.879ZM209.379 24.05H208.229V25.05H209.379V24.05ZM205.929 24.05H203.629V25.05H205.929V24.05ZM201.329 24.05H199.029V25.05H201.329V24.05ZM196.729 24.05H195.579V25.05H196.729V24.05ZM196.079 24.55V23.4667H195.079V24.55H196.079ZM196.079 21.3V19.1333H195.079V21.3H196.079ZM196.079 16.9667V14.8H195.079V16.9667H196.079ZM196.079 12.6333V11.55H195.079V12.6333H196.079ZM195.579 11.05H194.604V12.05H195.579V11.05ZM192.654 11.05H190.704V12.05H192.654V11.05ZM188.754 11.05H187.779V12.05H188.754V11.05ZM187.779 11.55V10.55H186.779V11.55H187.779ZM195.579 11.55H196.579V10.55H195.579V11.55ZM195.579 24.55H194.579V25.55H195.579V24.55ZM209.379 24.55V25.55H210.379V24.55H209.379ZM209.379 11.55V10.55H208.379V11.55H209.379ZM217.179 11.55H218.179V10.55H217.179V11.55ZM217.179 44V45H218.179V44H217.179ZM209.379 44H208.379V45H209.379V44ZM209.379 30.1H210.379V29.1H209.379V30.1ZM195.579 30.1V29.1H194.579V30.1H195.579ZM195.579 44V45H196.579V44H195.579ZM187.779 44H186.779V45H187.779V44ZM186.779 11.55V12.5641H188.779V11.55H186.779ZM186.779 14.5922V16.6203H188.779V14.5922H186.779ZM186.779 18.6484V20.6766H188.779V18.6484H186.779ZM186.779 22.7047V24.7328H188.779V22.7047H186.779ZM186.779 26.7609V28.7891H188.779V26.7609H186.779ZM186.779 30.8172V32.8453H188.779V30.8172H186.779ZM186.779 34.8734V36.9016H188.779V34.8734H186.779ZM186.779 38.9297V40.9578H188.779V38.9297H186.779ZM186.779 42.9859V44H188.779V42.9859H186.779ZM187.779 45H188.754V43H187.779V45ZM190.704 45H192.654V43H190.704V45ZM194.604 45H195.579V43H194.604V45ZM196.579 44V42.8417H194.579V44H196.579ZM196.579 40.525V38.2083H194.579V40.525H196.579ZM196.579 35.8917V33.575H194.579V35.8917H196.579ZM196.579 31.2583V30.1H194.579V31.2583H196.579ZM195.579 31.1H196.729V29.1H195.579V31.1ZM199.029 31.1H201.329V29.1H199.029V31.1ZM203.629 31.1H205.929V29.1H203.629V31.1ZM208.229 31.1H209.379V29.1H208.229V31.1ZM208.379 30.1V31.2583H210.379V30.1H208.379ZM208.379 33.575V35.8917H210.379V33.575H208.379ZM208.379 38.2083V40.525H210.379V38.2083H208.379ZM208.379 42.8417V44H210.379V42.8417H208.379ZM209.379 45H210.354V43H209.379V45ZM212.304 45H214.254V43H212.304V45ZM216.204 45H217.179V43H216.204V45ZM218.179 44V42.9859H216.179V44H218.179ZM218.179 40.9578V38.9297H216.179V40.9578H218.179ZM218.179 36.9016V34.8734H216.179V36.9016H218.179ZM218.179 32.8453V30.8172H216.179V32.8453H218.179ZM218.179 28.7891V26.7609H216.179V28.7891H218.179ZM218.179 24.7328V22.7047H216.179V24.7328H218.179ZM218.179 20.6766V18.6484H216.179V20.6766H218.179ZM218.179 16.6203V14.5922H216.179V16.6203H218.179ZM218.179 12.5641V11.55H216.179V12.5641H218.179ZM217.179 10.55H216.204V12.55H217.179V10.55ZM214.254 10.55H212.304V12.55H214.254V10.55ZM210.354 10.55H209.379V12.55H210.354V10.55ZM208.379 11.55V12.6333H210.379V11.55H208.379ZM208.379 14.8V16.9667H210.379V14.8H208.379ZM208.379 19.1333V21.3H210.379V19.1333H208.379ZM208.379 23.4667V24.55H210.379V23.4667H208.379ZM209.379 23.55H208.229V25.55H209.379V23.55ZM205.929 23.55H203.629V25.55H205.929V23.55ZM201.329 23.55H199.029V25.55H201.329V23.55ZM196.729 23.55H195.579V25.55H196.729V23.55ZM196.579 24.55V23.4667H194.579V24.55H196.579ZM196.579 21.3V19.1333H194.579V21.3H196.579ZM196.579 16.9667V14.8H194.579V16.9667H196.579ZM196.579 12.6333V11.55H194.579V12.6333H196.579ZM195.579 10.55H194.604V12.55H195.579V10.55ZM192.654 10.55H190.704V12.55H192.654V10.55ZM188.754 10.55H187.779V12.55H188.754V10.55ZM226.656 11.55V11.05H226.156V11.55H226.656ZM234.456 11.55H234.956V11.05H234.456V11.55ZM234.456 23.45H233.956V23.95H234.456V23.45ZM245.756 23.9L245.676 24.3934L245.756 23.9ZM250.106 25.85L249.764 26.2148L249.77 26.2205L250.106 25.85ZM226.656 44H226.156V44.5H226.656V44ZM256.656 11.55V11.05H256.156V11.55H256.656ZM264.456 11.55H264.956V11.05H264.456V11.55ZM264.456 44V44.5H264.956V44H264.456ZM256.656 44H256.156V44.5H256.656V44ZM242.556 37.65L242.811 38.0803L242.823 38.0731L242.556 37.65ZM242.606 29.55L242.411 30.0105L242.606 29.55ZM234.406 29V28.5H233.906V29H234.406ZM234.406 38.45H233.906V38.95H234.406V38.45ZM226.156 11.55V12.5641H227.156V11.55H226.156ZM226.156 14.5922V16.6203H227.156V14.5922H226.156ZM226.156 18.6484V20.6766H227.156V18.6484H226.156ZM226.156 22.7047V24.7328H227.156V22.7047H226.156ZM226.156 26.7609V28.7891H227.156V26.7609H226.156ZM226.156 30.8172V32.8453H227.156V30.8172H226.156ZM226.156 34.8734V36.9016H227.156V34.8734H226.156ZM226.156 38.9297V40.9578H227.156V38.9297H226.156ZM226.156 42.9859V44H227.156V42.9859H226.156ZM226.656 44.5H227.652V43.5H226.656V44.5ZM229.644 44.5H231.635V43.5H229.644V44.5ZM233.627 44.5H235.619V43.5H233.627V44.5ZM237.61 44.5H238.606V43.5H237.61V44.5ZM238.606 44.5C238.975 44.5 239.337 44.4955 239.691 44.4864L239.665 43.4867C239.32 43.4956 238.967 43.5 238.606 43.5V44.5ZM241.856 44.3661C242.618 44.2986 243.339 44.2055 244.019 44.0864L243.846 43.1014C243.197 43.2151 242.504 43.3047 241.768 43.37L241.856 44.3661ZM246.156 43.5849C246.913 43.3553 247.602 43.0809 248.223 42.7602L247.765 41.8716C247.205 42.1608 246.572 42.4135 245.866 42.6281L246.156 43.5849ZM250.089 41.4687C250.668 40.929 251.131 40.3156 251.475 39.6295L250.581 39.1815C250.293 39.757 249.903 40.2754 249.407 40.7374L250.089 41.4687ZM252.134 37.4328C252.182 37.0672 252.206 36.6895 252.206 36.3H251.206C251.206 36.6487 251.185 36.9827 251.143 37.3022L252.134 37.4328ZM252.206 36.3V35.5375H251.206V36.3H252.206ZM252.206 34.0125V32.4875H251.206V34.0125H252.206ZM252.206 30.9625V30.2H251.206V30.9625H252.206ZM252.206 30.2C252.206 29.7603 252.18 29.3409 252.126 28.9422L251.135 29.0755C251.182 29.4254 251.206 29.8 251.206 30.2H252.206ZM251.293 26.4988C251.056 26.1185 250.772 25.7783 250.442 25.4795L249.77 26.2205C250.031 26.4568 250.256 26.7258 250.445 27.0288L251.293 26.4988ZM250.448 25.4852C250.134 25.1911 249.791 24.9259 249.419 24.6895L248.883 25.5337C249.204 25.7377 249.498 25.9648 249.764 26.2148L250.448 25.4852ZM247.071 23.6743C246.678 23.566 246.267 23.4769 245.837 23.4066L245.676 24.3934C246.073 24.4584 246.449 24.5402 246.805 24.6383L247.071 23.6743ZM245.837 23.4066C245.546 23.359 245.242 23.3152 244.926 23.2752L244.8 24.2674C245.106 24.306 245.398 24.348 245.676 24.3934L245.837 23.4066ZM243.103 23.0968C242.53 23.0547 241.923 23.0216 241.283 22.9977L241.245 23.997C241.875 24.0205 242.469 24.0529 243.03 24.0941L243.103 23.0968ZM239.465 22.9549C239.168 22.9516 238.865 22.95 238.556 22.95V23.95C238.862 23.95 239.161 23.9516 239.454 23.9548L239.465 22.9549ZM238.556 22.95H237.531V23.95H238.556V22.95ZM235.481 22.95H234.456V23.95H235.481V22.95ZM234.956 23.45V22.4583H233.956V23.45H234.956ZM234.956 20.475V18.4917H233.956V20.475H234.956ZM234.956 16.5083V14.525H233.956V16.5083H234.956ZM234.956 12.5417V11.55H233.956V12.5417H234.956ZM234.456 11.05H233.481V12.05H234.456V11.05ZM231.531 11.05H229.581V12.05H231.531V11.05ZM227.631 11.05H226.656V12.05H227.631V11.05ZM256.156 11.55V12.5641H257.156V11.55H256.156ZM256.156 14.5922V16.6203H257.156V14.5922H256.156ZM256.156 18.6484V20.6766H257.156V18.6484H256.156ZM256.156 22.7047V24.7328H257.156V22.7047H256.156ZM256.156 26.7609V28.7891H257.156V26.7609H256.156ZM256.156 30.8172V32.8453H257.156V30.8172H256.156ZM256.156 34.8734V36.9016H257.156V34.8734H256.156ZM256.156 38.9297V40.9578H257.156V38.9297H256.156ZM256.156 42.9859V44H257.156V42.9859H256.156ZM256.656 44.5H257.631V43.5H256.656V44.5ZM259.581 44.5H261.531V43.5H259.581V44.5ZM263.481 44.5H264.456V43.5H263.481V44.5ZM264.956 44V42.9859H263.956V44H264.956ZM264.956 40.9578V38.9297H263.956V40.9578H264.956ZM264.956 36.9016V34.8734H263.956V36.9016H264.956ZM264.956 32.8453V30.8172H263.956V32.8453H264.956ZM264.956 28.7891V26.7609H263.956V28.7891H264.956ZM264.956 24.7328V22.7047H263.956V24.7328H264.956ZM264.956 20.6766V18.6484H263.956V20.6766H264.956ZM264.956 16.6203V14.5922H263.956V16.6203H264.956ZM264.956 12.5641V11.55H263.956V12.5641H264.956ZM264.456 11.05H263.481V12.05H264.456V11.05ZM261.531 11.05H259.581V12.05H261.531V11.05ZM257.631 11.05H256.656V12.05H257.631V11.05ZM238.256 37.95H237.294V38.95H238.256V37.95ZM235.369 37.95H234.406V38.95H235.369V37.95ZM234.906 38.45V37.2687H233.906V38.45H234.906ZM234.906 34.9062V32.5438H233.906V34.9062H234.906ZM234.906 30.1812V29H233.906V30.1812H234.906ZM234.406 29.5H235.394V28.5H234.406V29.5ZM237.369 29.5H238.356V28.5H237.369V29.5ZM238.356 29.5C238.73 29.5 239.082 29.5067 239.413 29.5201L239.454 28.5209C239.108 28.5069 238.742 28.5 238.356 28.5V29.5ZM241.476 29.7383C241.856 29.8146 242.166 29.9067 242.411 30.0105L242.801 29.0895C242.477 28.9524 242.099 28.8433 241.673 28.7578L241.476 29.7383ZM242.411 30.0105C242.588 30.0852 242.735 30.1734 242.856 30.2723L243.489 29.498C243.286 29.3323 243.055 29.197 242.801 29.0895L242.411 30.0105ZM243.351 31.1043C243.387 31.2647 243.406 31.4459 243.406 31.65H244.406C244.406 31.3826 244.381 31.127 244.326 30.8853L243.351 31.1043ZM243.406 31.65V32.5125H244.406V31.65H243.406ZM243.406 34.2375V35.1H244.406V34.2375H243.406ZM243.406 35.1C243.406 35.3351 243.384 35.5507 243.343 35.7481L244.321 35.9548C244.379 35.6825 244.406 35.3971 244.406 35.1H243.406ZM242.782 36.8302C242.645 36.9736 242.481 37.1062 242.29 37.2269L242.823 38.0731C243.078 37.9125 243.306 37.729 243.504 37.5215L242.782 36.8302ZM242.301 37.2199C242.059 37.3635 241.76 37.4907 241.399 37.597L241.681 38.5563C242.104 38.4318 242.483 38.2746 242.811 38.0801L242.301 37.2199ZM239.331 37.9196C238.995 37.9398 238.637 37.95 238.256 37.95V38.95C238.654 38.95 239.033 38.9393 239.391 38.9178L239.331 37.9196ZM226.656 11.55V10.55H225.656V11.55H226.656ZM234.456 11.55H235.456V10.55H234.456V11.55ZM234.456 23.45H233.456V24.45H234.456V23.45ZM245.756 23.9L245.595 24.8869L245.756 23.9ZM250.106 25.85L249.422 26.5795L249.428 26.5853L249.435 26.591L250.106 25.85ZM226.656 44H225.656V45H226.656V44ZM256.656 11.55V10.55H255.656V11.55H256.656ZM264.456 11.55H265.456V10.55H264.456V11.55ZM264.456 44V45H265.456V44H264.456ZM256.656 44H255.656V45H256.656V44ZM242.556 37.65L243.066 38.5103L243.078 38.5034L243.089 38.4962L242.556 37.65ZM242.606 29.55L242.217 30.471L242.606 29.55ZM234.406 29V28H233.406V29H234.406ZM234.406 38.45H233.406V39.45H234.406V38.45ZM225.656 11.55V12.5641H227.656V11.55H225.656ZM225.656 14.5922V16.6203H227.656V14.5922H225.656ZM225.656 18.6484V20.6766H227.656V18.6484H225.656ZM225.656 22.7047V24.7328H227.656V22.7047H225.656ZM225.656 26.7609V28.7891H227.656V26.7609H225.656ZM225.656 30.8172V32.8453H227.656V30.8172H225.656ZM225.656 34.8734V36.9016H227.656V34.8734H225.656ZM225.656 38.9297V40.9578H227.656V38.9297H225.656ZM225.656 42.9859V44H227.656V42.9859H225.656ZM226.656 45H227.652V43H226.656V45ZM229.644 45H231.635V43H229.644V45ZM233.627 45H235.619V43H233.627V45ZM237.61 45H238.606V43H237.61V45ZM238.606 45C238.979 45 239.345 44.9954 239.704 44.9862L239.652 42.9869C239.312 42.9956 238.963 43 238.606 43V45ZM241.9 44.8641C242.674 44.7956 243.41 44.7007 244.105 44.5789L243.76 42.6089C243.126 42.7199 242.448 42.8078 241.723 42.8719L241.9 44.8641ZM246.302 44.0633C247.083 43.8262 247.801 43.541 248.453 43.2044L247.535 41.4274C247.006 41.7007 246.402 41.9426 245.721 42.1496L246.302 44.0633ZM250.43 41.8344C251.051 41.2558 251.55 40.595 251.922 39.8536L250.134 38.9575C249.873 39.4777 249.52 39.9485 249.066 40.3717L250.43 41.8344ZM252.63 37.4982C252.681 37.1095 252.706 36.7099 252.706 36.3H250.706C250.706 36.6283 250.686 36.9404 250.647 37.2368L252.63 37.4982ZM252.706 36.3V35.5375H250.706V36.3H252.706ZM252.706 34.0125V32.4875H250.706V34.0125H252.706ZM252.706 30.9625V30.2H250.706V30.9625H252.706ZM252.706 30.2C252.706 29.7405 252.679 29.2986 252.622 28.8756L250.64 29.1421C250.683 29.4676 250.706 29.8199 250.706 30.2H252.706ZM251.717 26.2338C251.456 25.8149 251.142 25.4391 250.778 25.109L249.435 26.591C249.661 26.796 249.856 27.0294 250.021 27.2938L251.717 26.2338ZM250.79 25.1205C250.453 24.8043 250.085 24.52 249.687 24.2673L248.615 25.9558C248.911 26.1436 249.179 26.3517 249.422 26.5795L250.79 25.1205ZM247.204 23.1923C246.792 23.0789 246.364 22.9861 245.918 22.9131L245.595 24.8869C245.976 24.9492 246.335 25.0273 246.672 25.1203L247.204 23.1923ZM245.918 22.9131C245.62 22.8645 245.311 22.8199 244.988 22.7792L244.738 24.7634C245.038 24.8013 245.324 24.8425 245.595 24.8869L245.918 22.9131ZM243.14 22.5981C242.56 22.5555 241.947 22.5222 241.301 22.498L241.227 24.4966C241.851 24.52 242.439 24.5521 242.993 24.5928L243.14 22.5981ZM239.47 22.4549C239.171 22.4516 238.867 22.45 238.556 22.45V24.45C238.86 24.45 239.157 24.4516 239.448 24.4548L239.47 22.4549ZM238.556 22.45H237.531V24.45H238.556V22.45ZM235.481 22.45H234.456V24.45H235.481V22.45ZM235.456 23.45V22.4583H233.456V23.45H235.456ZM235.456 20.475V18.4917H233.456V20.475H235.456ZM235.456 16.5083V14.525H233.456V16.5083H235.456ZM235.456 12.5417V11.55H233.456V12.5417H235.456ZM234.456 10.55H233.481V12.55H234.456V10.55ZM231.531 10.55H229.581V12.55H231.531V10.55ZM227.631 10.55H226.656V12.55H227.631V10.55ZM255.656 11.55V12.5641H257.656V11.55H255.656ZM255.656 14.5922V16.6203H257.656V14.5922H255.656ZM255.656 18.6484V20.6766H257.656V18.6484H255.656ZM255.656 22.7047V24.7328H257.656V22.7047H255.656ZM255.656 26.7609V28.7891H257.656V26.7609H255.656ZM255.656 30.8172V32.8453H257.656V30.8172H255.656ZM255.656 34.8734V36.9016H257.656V34.8734H255.656ZM255.656 38.9297V40.9578H257.656V38.9297H255.656ZM255.656 42.9859V44H257.656V42.9859H255.656ZM256.656 45H257.631V43H256.656V45ZM259.581 45H261.531V43H259.581V45ZM263.481 45H264.456V43H263.481V45ZM265.456 44V42.9859H263.456V44H265.456ZM265.456 40.9578V38.9297H263.456V40.9578H265.456ZM265.456 36.9016V34.8734H263.456V36.9016H265.456ZM265.456 32.8453V30.8172H263.456V32.8453H265.456ZM265.456 28.7891V26.7609H263.456V28.7891H265.456ZM265.456 24.7328V22.7047H263.456V24.7328H265.456ZM265.456 20.6766V18.6484H263.456V20.6766H265.456ZM265.456 16.6203V14.5922H263.456V16.6203H265.456ZM265.456 12.5641V11.55H263.456V12.5641H265.456ZM264.456 10.55H263.481V12.55H264.456V10.55ZM261.531 10.55H259.581V12.55H261.531V10.55ZM257.631 10.55H256.656V12.55H257.631V10.55ZM238.256 37.45H237.294V39.45H238.256V37.45ZM235.369 37.45H234.406V39.45H235.369V37.45ZM235.406 38.45V37.2687H233.406V38.45H235.406ZM235.406 34.9062V32.5438H233.406V34.9062H235.406ZM235.406 30.1812V29H233.406V30.1812H235.406ZM234.406 30H235.394V28H234.406V30ZM237.369 30H238.356V28H237.369V30ZM238.356 30C238.724 30 239.07 30.0066 239.393 30.0197L239.474 28.0213C239.12 28.007 238.748 28 238.356 28V30ZM241.378 30.2285C241.735 30.3002 242.011 30.3838 242.217 30.471L242.996 28.629C242.633 28.4753 242.22 28.3576 241.771 28.2676L241.378 30.2285ZM242.217 30.471C242.355 30.5294 242.459 30.594 242.539 30.6594L243.805 29.1109C243.561 28.9117 243.289 28.7529 242.996 28.629L242.217 30.471ZM242.863 31.2137C242.89 31.3335 242.906 31.4776 242.906 31.65H244.906C244.906 31.3509 244.878 31.0582 244.814 30.7759L242.863 31.2137ZM242.906 31.65V32.5125H244.906V31.65H242.906ZM242.906 34.2375V35.1H244.906V34.2375H242.906ZM242.906 35.1C242.906 35.304 242.887 35.4847 242.853 35.6448L244.81 36.0582C244.876 35.7485 244.906 35.4282 244.906 35.1H242.906ZM242.421 36.4845C242.314 36.5959 242.183 36.7031 242.023 36.8038L243.089 38.4962C243.376 38.3157 243.636 38.1067 243.866 37.8671L242.421 36.4845ZM242.046 36.7897C241.847 36.9079 241.588 37.0201 241.258 37.1174L241.822 39.036C242.277 38.9023 242.695 38.7301 243.066 38.5103L242.046 36.7897ZM239.301 37.4205C238.976 37.44 238.628 37.45 238.256 37.45V39.45C238.663 39.45 239.052 39.4391 239.421 39.4169L239.301 37.4205ZM273.98 11.55V11.05H273.48V11.55H273.98ZM281.78 11.55H282.28V11.05H281.78V11.55ZM281.78 33.75H281.28V35.4802L282.203 34.0167L281.78 33.75ZM295.78 11.55V11.05H295.505L295.358 11.2833L295.78 11.55ZM303.58 11.55H304.08V11.05H303.58V11.55ZM303.58 44V44.5H304.08V44H303.58ZM295.78 44H295.28V44.5H295.78V44ZM295.78 21.45H296.28V19.6967L295.356 21.1863L295.78 21.45ZM281.78 44V44.5H282.059L282.205 44.2637L281.78 44ZM273.98 44H273.48V44.5H273.98V44ZM281.33 5.95L281.004 6.3286L281.008 6.33226L281.33 5.95ZM278.78 0.249997V-0.250003H278.28V0.249997H278.78ZM285.03 0.249997L285.527 0.192247L285.476 -0.250003H285.03V0.249997ZM286.13 3.3L285.767 3.64331L285.772 3.6485L285.777 3.65355L286.13 3.3ZM291.48 3.3L291.127 2.94645L291.122 2.9515L291.117 2.95669L291.48 3.3ZM292.63 0.249997V-0.250003H292.185L292.134 0.192247L292.63 0.249997ZM298.88 0.249997H299.38V-0.250003H298.88V0.249997ZM296.33 5.95L296.653 6.33228L296.657 6.32858L296.33 5.95ZM273.48 11.55V12.5641H274.48V11.55H273.48ZM273.48 14.5922V16.6203H274.48V14.5922H273.48ZM273.48 18.6484V20.6766H274.48V18.6484H273.48ZM273.48 22.7047V24.7328H274.48V22.7047H273.48ZM273.48 26.7609V28.7891H274.48V26.7609H273.48ZM273.48 30.8172V32.8453H274.48V30.8172H273.48ZM273.48 34.8734V36.9016H274.48V34.8734H273.48ZM273.48 38.9297V40.9578H274.48V38.9297H273.48ZM273.48 42.9859V44H274.48V42.9859H273.48ZM273.98 44.5H274.955V43.5H273.98V44.5ZM276.905 44.5H278.855V43.5H276.905V44.5ZM280.805 44.5H281.78V43.5H280.805V44.5ZM282.205 44.2637L282.705 43.4584L281.856 42.9309L281.356 43.7363L282.205 44.2637ZM283.705 41.8477L284.705 40.2369L283.856 39.7095L282.856 41.3202L283.705 41.8477ZM285.705 38.6262L286.705 37.0155L285.856 36.4881L284.856 38.0988L285.705 38.6262ZM287.705 35.4048L288.705 33.7941L287.856 33.2666L286.856 34.8773L287.705 35.4048ZM289.705 32.1834L290.705 30.5727L289.856 30.0452L288.856 31.6559L289.705 32.1834ZM291.705 28.9619L292.705 27.3512L291.856 26.8238L290.856 28.4345L291.705 28.9619ZM293.705 25.7405L294.705 24.1298L293.856 23.6023L292.856 25.2131L293.705 25.7405ZM295.705 22.5191L296.205 21.7137L295.356 21.1863L294.856 21.9916L295.705 22.5191ZM295.28 21.45V22.3896H296.28V21.45H295.28ZM295.28 24.2687V26.1479H296.28V24.2687H295.28ZM295.28 28.0271V29.9062H296.28V28.0271H295.28ZM295.28 31.7854V33.6646H296.28V31.7854H295.28ZM295.28 35.5437V37.4229H296.28V35.5437H295.28ZM295.28 39.3021V41.1813H296.28V39.3021H295.28ZM295.28 43.0604V44H296.28V43.0604H295.28ZM295.78 44.5H296.755V43.5H295.78V44.5ZM298.705 44.5H300.655V43.5H298.705V44.5ZM302.605 44.5H303.58V43.5H302.605V44.5ZM304.08 44V42.9859H303.08V44H304.08ZM304.08 40.9578V38.9297H303.08V40.9578H304.08ZM304.08 36.9016V34.8734H303.08V36.9016H304.08ZM304.08 32.8453V30.8172H303.08V32.8453H304.08ZM304.08 28.7891V26.7609H303.08V28.7891H304.08ZM304.08 24.7328V22.7047H303.08V24.7328H304.08ZM304.08 20.6766V18.6484H303.08V20.6766H304.08ZM304.08 16.6203V14.5922H303.08V16.6203H304.08ZM304.08 12.5641V11.55H303.08V12.5641H304.08ZM303.58 11.05H302.605V12.05H303.58V11.05ZM300.655 11.05H298.705V12.05H300.655V11.05ZM296.755 11.05H295.78V12.05H296.755V11.05ZM295.358 11.2833L294.858 12.0761L295.703 12.6096L296.203 11.8167L295.358 11.2833ZM293.858 13.6619L292.858 15.2476L293.703 15.781L294.703 14.1953L293.858 13.6619ZM291.858 16.8333L290.858 18.419L291.703 18.9524L292.703 17.3667L291.858 16.8333ZM289.858 20.0047L288.858 21.5904L289.703 22.1239L290.703 20.5381L289.858 20.0047ZM287.858 23.1761L286.858 24.7619L287.703 25.2953L288.703 23.7096L287.858 23.1761ZM285.858 26.3476L284.858 27.9333L285.703 28.4667L286.703 26.881L285.858 26.3476ZM283.858 29.519L282.858 31.1047L283.703 31.6381L284.703 30.0524L283.858 29.519ZM281.858 32.6904L281.358 33.4833L282.203 34.0167L282.703 33.2239L281.858 32.6904ZM282.28 33.75V32.825H281.28V33.75H282.28ZM282.28 30.975V29.125H281.28V30.975H282.28ZM282.28 27.275V25.425H281.28V27.275H282.28ZM282.28 23.575V21.725H281.28V23.575H282.28ZM282.28 19.875V18.025H281.28V19.875H282.28ZM282.28 16.175V14.325H281.28V16.175H282.28ZM282.28 12.475V11.55H281.28V12.475H282.28ZM281.78 11.05H280.805V12.05H281.78V11.05ZM278.855 11.05H276.905V12.05H278.855V11.05ZM274.955 11.05H273.98V12.05H274.955V11.05ZM288.83 7.6C288.498 7.6 288.174 7.59254 287.859 7.57769L287.812 8.57658C288.143 8.59221 288.483 8.6 288.83 8.6V7.6ZM285.939 7.37813C285.271 7.26565 284.655 7.11099 284.092 6.91546L283.764 7.86028C284.386 8.07605 285.056 8.24361 285.773 8.36426L285.939 7.37813ZM282.4 6.11376C282.134 5.94565 281.885 5.76361 281.653 5.56774L281.008 6.33226C281.276 6.55848 281.563 6.76746 281.866 6.95929L282.4 6.11376ZM281.657 5.57142C281.462 5.40292 281.279 5.22894 281.109 5.04953L280.383 5.73798C280.577 5.94231 280.784 6.13915 281.004 6.32858L281.657 5.57142ZM280.203 3.8561C279.95 3.4281 279.749 2.97315 279.6 2.49033L278.644 2.78521C278.816 3.34192 279.049 3.8689 279.342 4.36523L280.203 3.8561ZM279.314 1.01148C279.292 0.764224 279.28 0.510425 279.28 0.249997H278.28C278.28 0.539023 278.293 0.822664 278.318 1.10083L279.314 1.01148ZM278.78 0.749997H279.562V-0.250003H278.78V0.749997ZM281.124 0.749997H282.687V-0.250003H281.124V0.749997ZM284.249 0.749997H285.03V-0.250003H284.249V0.749997ZM284.534 0.307747C284.569 0.607265 284.612 0.891442 284.665 1.15996L285.646 0.968352C285.599 0.727795 285.559 0.4692 285.527 0.192247L284.534 0.307747ZM285.219 2.85495C285.373 3.15419 285.555 3.41901 285.767 3.64331L286.494 2.95669C286.356 2.8106 286.226 2.62563 286.107 2.39568L285.219 2.85495ZM285.777 3.65355C285.981 3.85731 286.212 4.03072 286.469 4.17409L286.956 3.30107C286.777 3.20085 286.62 3.08253 286.484 2.94645L285.777 3.65355ZM288.042 4.65526C288.293 4.68533 288.556 4.7 288.83 4.7V3.7C288.591 3.7 288.368 3.68721 288.161 3.66236L288.042 4.65526ZM288.83 4.7C289.101 4.7 289.361 4.68569 289.608 4.65632L289.49 3.66332C289.286 3.68752 289.067 3.7 288.83 3.7V4.7ZM291.164 4.17562C291.419 4.0297 291.647 3.8524 291.844 3.64331L291.117 2.95669C290.99 3.09126 290.841 3.20842 290.667 3.30774L291.164 4.17562ZM291.834 3.65355C292.055 3.43218 292.246 3.17038 292.408 2.87378L291.531 2.39368C291.408 2.61897 291.272 2.80135 291.127 2.94645L291.834 3.65355ZM292.993 1.16814C293.047 0.897051 293.092 0.610136 293.127 0.307747L292.134 0.192247C292.101 0.470384 292.061 0.729819 292.012 0.970904L292.993 1.16814ZM292.63 0.749997H293.412V-0.250003H292.63V0.749997ZM294.974 0.749997H296.537V-0.250003H294.974V0.749997ZM298.099 0.749997H298.88V-0.250003H298.099V0.749997ZM298.38 0.249997C298.38 0.510425 298.369 0.764224 298.347 1.01148L299.343 1.10083C299.368 0.822664 299.38 0.539023 299.38 0.249997H298.38ZM298.061 2.49033C297.912 2.97315 297.711 3.4281 297.458 3.8561L298.319 4.36523C298.612 3.8689 298.845 3.34192 299.017 2.78521L298.061 2.49033ZM296.552 5.04953C296.382 5.22894 296.199 5.40292 296.004 5.57142L296.657 6.32858C296.877 6.13915 297.083 5.94231 297.277 5.73798L296.552 5.04953ZM296.008 5.56774C295.776 5.76361 295.527 5.94565 295.261 6.11376L295.794 6.95929C296.098 6.76746 296.384 6.55848 296.653 6.33226L296.008 5.56774ZM293.569 6.91546C293.005 7.11099 292.39 7.26565 291.722 7.37813L291.888 8.36426C292.604 8.24361 293.275 8.07605 293.897 7.86028L293.569 6.91546ZM289.802 7.57769C289.487 7.59254 289.163 7.6 288.83 7.6V8.6C289.178 8.6 289.518 8.59221 289.849 8.57658L289.802 7.57769ZM273.98 11.55V10.55H272.98V11.55H273.98ZM281.78 11.55H282.78V10.55H281.78V11.55ZM281.78 33.75H280.78V37.2104L282.626 34.2834L281.78 33.75ZM295.78 11.55V10.55H295.229L294.935 11.0166L295.78 11.55ZM303.58 11.55H304.58V10.55H303.58V11.55ZM303.58 44V45H304.58V44H303.58ZM295.78 44H294.78V45H295.78V44ZM295.78 21.45H296.78V17.9434L294.931 20.9225L295.78 21.45ZM281.78 44V45H282.337L282.63 44.5275L281.78 44ZM273.98 44H272.98V45H273.98V44ZM281.33 5.95L280.677 6.7072L280.686 6.71452L281.33 5.95ZM278.78 0.249997V-0.750003H277.78V0.249997H278.78ZM285.03 0.249997L286.024 0.134496L285.921 -0.750003H285.03V0.249997ZM286.13 3.3L285.403 3.98662L285.413 3.99701L285.423 4.00711L286.13 3.3ZM291.48 3.3L290.773 2.59289L290.763 2.60299L290.753 2.61338L291.48 3.3ZM292.63 0.249997V-0.750003H291.74L291.637 0.134496L292.63 0.249997ZM298.88 0.249997H299.88V-0.750003H298.88V0.249997ZM296.33 5.95L296.975 6.71457L296.984 6.70715L296.33 5.95ZM272.98 11.55V12.5641H274.98V11.55H272.98ZM272.98 14.5922V16.6203H274.98V14.5922H272.98ZM272.98 18.6484V20.6766H274.98V18.6484H272.98ZM272.98 22.7047V24.7328H274.98V22.7047H272.98ZM272.98 26.7609V28.7891H274.98V26.7609H272.98ZM272.98 30.8172V32.8453H274.98V30.8172H272.98ZM272.98 34.8734V36.9016H274.98V34.8734H272.98ZM272.98 38.9297V40.9578H274.98V38.9297H272.98ZM272.98 42.9859V44H274.98V42.9859H272.98ZM273.98 45H274.955V43H273.98V45ZM276.905 45H278.855V43H276.905V45ZM280.805 45H281.78V43H280.805V45ZM282.63 44.5275L283.13 43.7221L281.431 42.6672L280.931 43.4725L282.63 44.5275ZM284.13 42.1114L285.13 40.5007L283.431 39.4458L282.431 41.0565L284.13 42.1114ZM286.13 38.89L287.13 37.2792L285.431 36.2243L284.431 37.835L286.13 38.89ZM288.13 35.6685L289.13 34.0578L287.431 33.0029L286.431 34.6136L288.13 35.6685ZM290.13 32.4471L291.13 30.8364L289.431 29.7815L288.431 31.3922L290.13 32.4471ZM292.13 29.2257L293.13 27.615L291.431 26.56L290.431 28.1708L292.13 29.2257ZM294.13 26.0042L295.13 24.3935L293.431 23.3386L292.431 24.9493L294.13 26.0042ZM296.13 22.7828L296.63 21.9775L294.931 20.9225L294.431 21.7279L296.13 22.7828ZM294.78 21.45V22.3896H296.78V21.45H294.78ZM294.78 24.2687V26.1479H296.78V24.2687H294.78ZM294.78 28.0271V29.9062H296.78V28.0271H294.78ZM294.78 31.7854V33.6646H296.78V31.7854H294.78ZM294.78 35.5437V37.4229H296.78V35.5437H294.78ZM294.78 39.3021V41.1813H296.78V39.3021H294.78ZM294.78 43.0604V44H296.78V43.0604H294.78ZM295.78 45H296.755V43H295.78V45ZM298.705 45H300.655V43H298.705V45ZM302.605 45H303.58V43H302.605V45ZM304.58 44V42.9859H302.58V44H304.58ZM304.58 40.9578V38.9297H302.58V40.9578H304.58ZM304.58 36.9016V34.8734H302.58V36.9016H304.58ZM304.58 32.8453V30.8172H302.58V32.8453H304.58ZM304.58 28.7891V26.7609H302.58V28.7891H304.58ZM304.58 24.7328V22.7047H302.58V24.7328H304.58ZM304.58 20.6766V18.6484H302.58V20.6766H304.58ZM304.58 16.6203V14.5922H302.58V16.6203H304.58ZM304.58 12.5641V11.55H302.58V12.5641H304.58ZM303.58 10.55H302.605V12.55H303.58V10.55ZM300.655 10.55H298.705V12.55H300.655V10.55ZM296.755 10.55H295.78V12.55H296.755V10.55ZM294.935 11.0166L294.435 11.8094L296.126 12.8763L296.626 12.0834L294.935 11.0166ZM293.435 13.3951L292.435 14.9809L294.126 16.0477L295.126 14.462L293.435 13.3951ZM291.435 16.5666L290.435 18.1523L292.126 19.2191L293.126 17.6334L291.435 16.5666ZM289.435 19.738L288.435 21.3237L290.126 22.3906L291.126 20.8048L289.435 19.738ZM287.435 22.9094L286.435 24.4952L288.126 25.562L289.126 23.9763L287.435 22.9094ZM285.435 26.0809L284.435 27.6666L286.126 28.7334L287.126 27.1477L285.435 26.0809ZM283.435 29.2523L282.435 30.838L284.126 31.9048L285.126 30.3191L283.435 29.2523ZM281.435 32.4237L280.935 33.2166L282.626 34.2834L283.126 33.4906L281.435 32.4237ZM282.78 33.75V32.825H280.78V33.75H282.78ZM282.78 30.975V29.125H280.78V30.975H282.78ZM282.78 27.275V25.425H280.78V27.275H282.78ZM282.78 23.575V21.725H280.78V23.575H282.78ZM282.78 19.875V18.025H280.78V19.875H282.78ZM282.78 16.175V14.325H280.78V16.175H282.78ZM282.78 12.475V11.55H280.78V12.475H282.78ZM281.78 10.55H280.805V12.55H281.78V10.55ZM278.855 10.55H276.905V12.55H278.855V10.55ZM274.955 10.55H273.98V12.55H274.955V10.55ZM288.83 7.1C288.505 7.1 288.189 7.09271 287.882 7.07824L287.788 9.07602C288.128 9.09204 288.475 9.1 288.83 9.1V7.1ZM286.022 6.88507C285.378 6.77668 284.79 6.62846 284.255 6.44305L283.6 8.33269C284.252 8.55859 284.949 8.73259 285.69 8.85733L286.022 6.88507ZM282.667 5.691C282.42 5.53475 282.189 5.36617 281.975 5.18548L280.686 6.71452C280.972 6.95592 281.277 7.17836 281.599 7.38205L282.667 5.691ZM281.984 5.19284C281.801 5.0348 281.63 4.87225 281.471 4.7053L280.021 6.08221C280.227 6.29899 280.446 6.50727 280.677 6.70715L281.984 5.19284ZM280.633 3.60154C280.4 3.20771 280.215 2.78875 280.078 2.34289L278.167 2.93265C278.35 3.52631 278.598 4.08929 278.912 4.61979L280.633 3.60154ZM279.812 0.96681C279.791 0.735003 279.78 0.496125 279.78 0.249997H277.78C277.78 0.553323 277.793 0.851884 277.82 1.1455L279.812 0.96681ZM278.78 1.25H279.562V-0.750003H278.78V1.25ZM281.124 1.25H282.687V-0.750003H281.124V1.25ZM284.249 1.25H285.03V-0.750003H284.249V1.25ZM284.037 0.365498C284.073 0.676297 284.119 0.973264 284.174 1.25576L286.137 0.872549C286.093 0.645972 286.055 0.400168 286.024 0.134496L284.037 0.365498ZM284.775 3.08459C284.947 3.41847 285.155 3.72321 285.403 3.98662L286.857 2.61338C286.756 2.50639 286.652 2.36134 286.551 2.16605L284.775 3.08459ZM285.423 4.00711C285.661 4.2447 285.929 4.44565 286.225 4.61061L287.2 2.86455C287.059 2.78591 286.94 2.69514 286.838 2.59289L285.423 4.00711ZM287.983 5.15171C288.255 5.18439 288.538 5.2 288.83 5.2V3.2C288.609 3.2 288.406 3.18815 288.22 3.16591L287.983 5.15171ZM288.83 5.2C289.119 5.2 289.398 5.18477 289.667 5.15282L289.431 3.16681C289.249 3.18844 289.049 3.2 288.83 3.2V5.2ZM291.412 4.60957C291.708 4.44034 291.975 4.23297 292.207 3.98662L290.753 2.61338C290.662 2.71069 290.552 2.79778 290.419 2.87379L291.412 4.60957ZM292.188 4.00711C292.447 3.7476 292.665 3.44608 292.847 3.11383L291.092 2.15363C290.989 2.34327 290.88 2.48594 290.773 2.59289L292.188 4.00711ZM293.483 1.26676C293.54 0.980668 293.587 0.680012 293.624 0.365498L291.637 0.134496C291.606 0.400507 291.568 0.646202 291.522 0.872285L293.483 1.26676ZM292.63 1.25H293.412V-0.750003H292.63V1.25ZM294.974 1.25H296.537V-0.750003H294.974V1.25ZM298.099 1.25H298.88V-0.750003H298.099V1.25ZM297.88 0.249997C297.88 0.496125 297.87 0.735004 297.849 0.96681L299.841 1.1455C299.867 0.851884 299.88 0.553323 299.88 0.249997H297.88ZM297.583 2.34289C297.446 2.78875 297.26 3.20771 297.028 3.60154L298.749 4.61979C299.063 4.08929 299.311 3.52631 299.494 2.93265L297.583 2.34289ZM296.19 4.7053C296.031 4.87225 295.86 5.0348 295.677 5.19284L296.984 6.70715C297.215 6.50727 297.434 6.29899 297.64 6.08221L296.19 4.7053ZM295.686 5.18548C295.472 5.36617 295.241 5.53475 294.994 5.691L296.061 7.38205C296.384 7.17836 296.689 6.95592 296.975 6.71452L295.686 5.18548ZM293.406 6.44305C292.871 6.62846 292.283 6.77668 291.639 6.88507L291.971 8.85733C292.712 8.73259 293.409 8.55859 294.061 8.33269L293.406 6.44305ZM289.779 7.07824C289.472 7.09271 289.156 7.1 288.83 7.1V9.1C289.186 9.1 289.533 9.09204 289.873 9.07602L289.779 7.07824Z" fill="#77C2F9" fill-opacity="0.9"/>
</svg>
