<svg width="273" height="41" viewBox="0 0 273 41" fill="none" xmlns="http://www.w3.org/2000/svg">
<path d="M9.64359 40.135L9.56674 40.6291L9.56837 40.6293L9.64359 40.135ZM5.41359 39.055L5.57748 38.5826L5.57439 38.5816L5.41359 39.055ZM1.67859 36.445L1.27505 36.7403L1.27859 36.745L1.67859 36.445ZM1.27359 15.34L0.840795 15.0894L0.835973 15.0982L1.27359 15.34ZM3.79359 12.64L3.52606 12.2176L3.52197 12.2202L3.79359 12.64ZM7.12359 11.2L7.26527 11.6795L7.12359 11.2ZM10.8136 10.48L10.8529 10.9785L10.8563 10.9782L10.8136 10.48ZM17.7436 10.525L17.6852 11.0216L17.6924 11.0224L17.6996 11.0231L17.7436 10.525ZM21.1636 11.155L21.3036 10.6748L21.2903 10.6713L21.1636 11.155ZM24.7186 12.685L24.9897 12.2648L24.9897 12.2648L24.7186 12.685ZM27.0586 15.205L26.6267 15.4569L26.6288 15.4605L27.0586 15.205ZM26.7436 36.175L26.3423 35.8766L26.3374 35.8834L26.7436 36.175ZM23.2336 38.83L23.0479 38.3658H23.0479L23.2336 38.83ZM16.7086 35.365L16.7539 35.8629L16.7636 35.8621L16.7733 35.8608L16.7086 35.365ZM18.8236 34.915L18.6836 34.435L18.8236 34.915ZM20.4436 33.88L20.0464 33.5763L20.0436 33.58L20.4436 33.88ZM19.3636 16.24L19.1258 16.68L19.1352 16.6848L19.3636 16.24ZM9.01359 16.195L8.78519 15.7502L9.01359 16.195ZM7.93359 33.88L7.53642 34.1837L7.54089 34.1896L7.54554 34.1953L7.93359 33.88ZM9.64359 34.915L9.7836 34.435L9.77841 34.4335L9.64359 34.915ZM11.7136 35.365L11.646 35.8604L11.6581 35.8621L11.6703 35.8631L11.7136 35.365ZM14.1436 39.95C13.7658 39.95 13.3948 39.9442 13.0307 39.9327L12.999 40.9321C13.374 40.9441 13.7555 40.95 14.1436 40.95V39.95ZM10.8162 39.7823C10.4417 39.7423 10.076 39.695 9.71881 39.6407L9.56837 40.6293C9.94071 40.686 10.3212 40.7351 10.7097 40.7767L10.8162 39.7823ZM9.72045 39.6409C9.37506 39.5872 9.02522 39.5234 8.67094 39.4493L8.46638 40.4282C8.83698 40.5056 9.20377 40.5726 9.56674 40.6291L9.72045 39.6409ZM6.59828 38.9152C6.26164 38.8128 5.92138 38.7019 5.57748 38.5826L5.24971 39.5274C5.60535 39.6508 5.95784 39.7656 6.30716 39.8719L6.59828 38.9152ZM5.57439 38.5816C5.21726 38.4603 4.8802 38.3221 4.56283 38.1672L4.12439 39.066C4.48176 39.2403 4.85803 39.3944 5.2528 39.5284L5.57439 38.5816ZM2.79088 36.9477C2.53219 36.7008 2.29481 36.4333 2.07859 36.145L1.27859 36.745C1.52764 37.0771 1.80161 37.3858 2.10038 37.671L2.79088 36.9477ZM2.08211 36.1497C1.86524 35.8534 1.67681 35.5413 1.51658 35.2133L0.618073 35.6523C0.804387 36.0336 1.02347 36.3964 1.27508 36.7403L2.08211 36.1497ZM0.898519 33.1065C0.852072 32.7495 0.828594 32.3775 0.828594 31.99H-0.171406C-0.171406 32.4179 -0.145481 32.8331 -0.0931211 33.2355L0.898519 33.1065ZM0.828594 31.99V30.925H-0.171406V31.99H0.828594ZM0.828594 28.795V26.665H-0.171406V28.795H0.828594ZM0.828594 24.535V22.405H-0.171406V24.535H0.828594ZM0.828594 20.275V19.21H-0.171406V20.275H0.828594ZM0.828594 19.21C0.828594 18.8839 0.845611 18.5671 0.879385 18.2596L-0.114638 18.1505C-0.152571 18.4958 -0.171406 18.8491 -0.171406 19.21H0.828594ZM1.31576 16.4313C1.42809 16.1388 1.55989 15.8557 1.71121 15.5818L0.835973 15.0982C0.662328 15.4124 0.51106 15.7373 0.38223 16.0728L1.31576 16.4313ZM1.70631 15.5905C1.85669 15.3308 2.01643 15.0851 2.18538 14.8532L1.37723 14.2643C1.18687 14.5255 1.00812 14.8006 0.840881 15.0895L1.70631 15.5905ZM3.3676 13.5766C3.58913 13.3896 3.82163 13.2174 4.06522 13.0598L3.52197 12.2202C3.24295 12.4008 2.97648 12.5982 2.72265 12.8124L3.3676 13.5766ZM4.06112 13.0624C4.29502 12.9143 4.54523 12.7717 4.81204 12.635L4.35593 11.7451C4.06403 11.8947 3.78732 12.0521 3.52607 12.2176L4.06112 13.0624ZM6.42359 11.951C6.69295 11.8562 6.97348 11.7657 7.26527 11.6795L6.98192 10.7205C6.6748 10.8112 6.37805 10.9069 6.09174 11.0076L6.42359 11.951ZM7.26527 11.6795C7.56652 11.5905 7.86255 11.5096 8.15336 11.4368L7.91042 10.4667C7.60548 10.5431 7.29597 10.6277 6.98192 10.7205L7.26527 11.6795ZM9.94904 11.0796C10.2574 11.0354 10.5586 11.0017 10.8529 10.9784L10.7742 9.98155C10.4578 10.0065 10.1354 10.0426 9.80711 10.0897L9.94904 11.0796ZM10.8563 10.9782C11.1252 10.9551 11.3983 10.9351 11.6755 10.918L11.614 9.91987C11.329 9.93743 11.048 9.95808 10.7709 9.98183L10.8563 10.9782ZM13.3196 10.8527C13.5908 10.8476 13.8654 10.845 14.1436 10.845V9.845C13.8592 9.845 13.5783 9.84763 13.3007 9.85289L13.3196 10.8527ZM14.1436 10.845C14.45 10.845 14.747 10.848 15.0349 10.854L15.0556 9.85417C14.7605 9.84805 14.4564 9.845 14.1436 9.845V10.845ZM16.8078 10.937C17.1149 10.9607 17.4073 10.9889 17.6852 11.0216L17.802 10.0284C17.5097 9.99404 17.2039 9.96456 16.8847 9.93993L16.8078 10.937ZM17.6996 11.0231C17.9691 11.0468 18.2482 11.0794 18.537 11.1208L18.6789 10.1309C18.3735 10.0871 18.0763 10.0524 17.7875 10.0269L17.6996 11.0231ZM20.207 11.4349C20.4771 11.4966 20.7537 11.5645 21.0369 11.6387L21.2903 10.6713C20.9974 10.5946 20.7105 10.5242 20.4295 10.46L20.207 11.4349ZM21.0236 11.635C21.3372 11.7265 21.6376 11.8221 21.9248 11.9217L22.2526 10.977C21.9485 10.8715 21.6321 10.7708 21.3036 10.675L21.0236 11.635ZM23.649 12.6469C23.9361 12.794 24.2021 12.9468 24.4475 13.1051L24.9897 12.2648C24.714 12.087 24.4189 11.9178 24.1049 11.7569L23.649 12.6469ZM24.4475 13.1051C24.6709 13.2493 24.8852 13.4086 25.0904 13.5832L25.7385 12.8216C25.5001 12.6188 25.2505 12.4331 24.9897 12.2648L24.4475 13.1051ZM26.1809 14.7714C26.3368 14.9863 26.4854 15.2147 26.6267 15.4569L27.4905 14.9531C27.3333 14.6835 27.1665 14.4271 26.9903 14.1842L26.1809 14.7714ZM26.6288 15.4605C26.7909 15.7331 26.9318 16.0211 27.0513 16.3249L27.9819 15.9589C27.8431 15.6061 27.6786 15.2695 27.4884 14.9495L26.6288 15.4605ZM27.4988 18.2195C27.5319 18.5367 27.5486 18.8668 27.5486 19.21H28.5486C28.5486 18.8344 28.5303 18.4695 28.4933 18.1157L27.4988 18.2195ZM27.5486 19.21V20.275H28.5486V19.21H27.5486ZM27.5486 22.405V24.535H28.5486V22.405H27.5486ZM27.5486 26.665V28.795H28.5486V26.665H27.5486ZM27.5486 30.925V31.99H28.5486V30.925H27.5486ZM27.5486 31.99C27.5486 32.3522 27.5256 32.7005 27.4801 33.035L28.4709 33.1698C28.5229 32.788 28.5486 32.3946 28.5486 31.99H27.5486ZM26.8821 35.0025C26.729 35.3071 26.5492 35.5985 26.3424 35.8766L27.1448 36.4734C27.3858 36.1493 27.5962 35.8086 27.7756 35.4515L26.8821 35.0025ZM26.3374 35.8834C26.1352 36.1651 25.9125 36.4289 25.6691 36.675L26.3802 37.3781C26.6604 37.0947 26.917 36.7908 27.1498 36.4666L26.3374 35.8834ZM24.0031 37.9175C23.7035 38.0813 23.3853 38.2308 23.0479 38.3658L23.4193 39.2942C23.7918 39.1452 24.1464 38.9789 24.4829 38.7949L24.0031 37.9175ZM23.0479 38.3658C22.6992 38.5052 22.3448 38.6355 21.9846 38.7566L22.3032 39.7045C22.681 39.5775 23.053 39.4407 23.4193 39.2942L23.0479 38.3658ZM19.7988 39.3628C19.073 39.5239 18.326 39.652 17.5577 39.7469L17.6803 40.7394C18.479 40.6407 19.2574 40.5073 20.0155 40.3391L19.7988 39.3628ZM15.2855 39.9284C14.9095 39.9428 14.5289 39.95 14.1436 39.95V40.95C14.5413 40.95 14.9348 40.9426 15.3238 40.9276L15.2855 39.9284ZM14.2336 34.955C14.0184 34.955 13.8106 34.9536 13.6101 34.9507L13.5959 35.9506C13.8014 35.9535 14.014 35.955 14.2336 35.955V34.955ZM12.3701 34.9099C12.1528 34.8979 11.9485 34.8835 11.7569 34.8669L11.6703 35.8631C11.8735 35.8808 12.0884 35.8959 12.315 35.9084L12.3701 34.9099ZM11.7812 34.8696C11.6159 34.847 11.4483 34.8205 11.2785 34.79L11.1017 35.7743C11.285 35.8072 11.4664 35.8359 11.646 35.8604L11.7812 34.8696ZM10.2792 34.571C10.1159 34.5291 9.95068 34.4837 9.78359 34.435L9.50359 35.395C9.68071 35.4467 9.8563 35.4949 10.0303 35.5396L10.2792 34.571ZM9.77841 34.4335C9.62556 34.3907 9.4831 34.3423 9.35065 34.2886L8.97505 35.2154C9.14472 35.2842 9.32276 35.3444 9.50878 35.3965L9.77841 34.4335ZM8.61057 33.8565C8.50255 33.7664 8.40647 33.6691 8.32165 33.5647L7.54554 34.1953C7.67204 34.351 7.8137 34.494 7.96985 34.6243L8.61057 33.8565ZM8.33077 33.5763C8.24737 33.4672 8.17507 33.3516 8.11363 33.2292L7.21989 33.6778C7.30946 33.8563 7.41505 34.025 7.53642 34.1837L8.33077 33.5763ZM7.87588 32.4279C7.85788 32.2898 7.84859 32.1439 7.84859 31.99H6.84859C6.84859 32.1841 6.8603 32.3732 6.88426 32.5572L7.87588 32.4279ZM7.84859 31.99V30.9212H6.84859V31.99H7.84859ZM7.84859 28.7837V26.6462H6.84859V28.7837H7.84859ZM7.84859 24.5087V22.3713H6.84859V24.5087H7.84859ZM7.84859 20.2337V19.165H6.84859V20.2337H7.84859ZM7.84859 19.165C7.84859 18.8744 7.87458 18.6101 7.92411 18.3706L6.94482 18.1681C6.87985 18.4823 6.84859 18.8152 6.84859 19.165H7.84859ZM8.62028 17.0725C8.79287 16.9095 8.99887 16.7646 9.242 16.6398L8.78519 15.7502C8.46604 15.9141 8.18096 16.1119 7.93368 16.3454L8.62028 17.0725ZM9.242 16.6398C9.55383 16.4797 9.93078 16.3396 10.3777 16.2235L10.1262 15.2556C9.62443 15.386 9.1758 15.5496 8.78519 15.7502L9.242 16.6398ZM12.8935 15.873C13.3 15.8511 13.7316 15.84 14.1886 15.84V14.84C13.7156 14.84 13.2659 14.8514 12.8395 14.8745L12.8935 15.873ZM14.1886 15.84C14.6462 15.84 15.0783 15.8517 15.4851 15.8749L15.5421 14.8765C15.1143 14.8521 14.6631 14.84 14.1886 14.84V15.84ZM17.9984 16.2442C18.4419 16.3659 18.816 16.5124 19.1258 16.6799L19.6014 15.8001C19.2114 15.5894 18.7636 15.4172 18.263 15.2799L17.9984 16.2442ZM19.1352 16.6848C19.3768 16.8088 19.5817 16.9517 19.7535 17.1114L20.4344 16.379C20.1892 16.151 19.9071 15.957 19.592 15.7952L19.1352 16.6848ZM20.4521 18.3841C20.5022 18.6195 20.5286 18.8793 20.5286 19.165H21.5286C21.5286 18.8181 21.4966 18.4878 21.4301 18.1757L20.4521 18.3841ZM20.5286 19.165V20.2337H21.5286V19.165H20.5286ZM20.5286 22.3712V24.5087H21.5286V22.3712H20.5286ZM20.5286 26.6462V28.7837H21.5286V26.6462H20.5286ZM20.5286 30.9212V31.99H21.5286V30.9212H20.5286ZM20.5286 31.99C20.5286 32.1439 20.5193 32.2898 20.5013 32.4279L21.4929 32.5572C21.5169 32.3732 21.5286 32.1841 21.5286 31.99H20.5286ZM20.2636 33.2292C20.2021 33.3516 20.1298 33.4672 20.0464 33.5763L20.8408 34.1837C20.9621 34.025 21.0677 33.8563 21.1573 33.6778L20.2636 33.2292ZM20.0436 33.58C19.9668 33.6824 19.8792 33.7776 19.7802 33.8658L20.4452 34.6126C20.593 34.481 20.726 34.3368 20.8436 34.18L20.0436 33.58ZM19.0891 34.2915C18.9642 34.3446 18.8291 34.3926 18.6836 34.435L18.9636 35.395C19.1438 35.3424 19.316 35.2816 19.4799 35.212L19.0891 34.2915ZM18.6836 34.435C18.5142 34.4844 18.3459 34.5303 18.1786 34.5728L18.4245 35.5421C18.6035 35.4966 18.7832 35.4476 18.9636 35.395L18.6836 34.435ZM17.1582 34.7911C16.9856 34.8209 16.8142 34.847 16.6439 34.8692L16.7733 35.8608C16.9576 35.8368 17.1428 35.8086 17.3288 35.7764L17.1582 34.7911ZM16.6633 34.8671C16.4779 34.8839 16.2778 34.8984 16.0629 34.9105L16.1191 35.9089C16.3438 35.8963 16.5555 35.881 16.7539 35.8629L16.6633 34.8671ZM14.8459 34.9508C14.6497 34.9536 14.4456 34.955 14.2336 34.955V35.955C14.45 35.955 14.6588 35.9536 14.86 35.9507L14.8459 34.9508ZM9.64359 40.135L9.48989 41.1231L9.49315 41.1236L9.64359 40.135ZM5.41359 39.055L5.74137 38.1102L5.73518 38.1081L5.41359 39.055ZM1.67859 36.445L0.871507 37.0355L0.878594 37.045L1.67859 36.445ZM1.27359 15.34L0.408168 14.839L0.403174 14.8476L0.398353 14.8563L1.27359 15.34ZM3.79359 12.64L3.25852 11.7951L3.25034 11.8004L3.79359 12.64ZM7.12359 11.2L7.40694 12.159L7.12359 11.2ZM10.8136 10.48L10.8923 11.4769L10.899 11.4763L10.8136 10.48ZM17.7436 10.525L17.6268 11.5181L17.6412 11.5198L17.6557 11.5211L17.7436 10.525ZM21.1636 11.155L21.4436 10.195L21.4303 10.1911L21.417 10.1876L21.1636 11.155ZM24.7186 12.685L25.2607 11.8447L25.2607 11.8447L24.7186 12.685ZM27.0586 15.205L26.1948 15.7089L26.1991 15.7161L27.0586 15.205ZM26.7436 36.175L25.9411 35.5783L25.9361 35.585L25.9313 35.5918L26.7436 36.175ZM23.2336 38.83L22.8622 37.9015L23.2336 38.83ZM16.7086 35.365L16.7991 36.3609L16.8186 36.3591L16.8379 36.3566L16.7086 35.365ZM18.8236 34.915L18.5436 33.955L18.8236 34.915ZM20.4436 33.88L19.6492 33.2725L19.6436 33.28L20.4436 33.88ZM19.3636 16.24L18.8881 17.1197L18.8974 17.1247L18.9068 17.1296L19.3636 16.24ZM9.01359 16.195L8.55679 15.3054L9.01359 16.195ZM7.93359 33.88L7.13924 34.4874L7.14819 34.4992L7.15748 34.5106L7.93359 33.88ZM9.64359 34.915L9.92361 33.9549L9.91322 33.952L9.64359 34.915ZM11.7136 35.365L11.5785 36.3558L11.6027 36.3591L11.627 36.3612L11.7136 35.365ZM14.1436 39.45C13.7709 39.45 13.4052 39.4443 13.0466 39.4329L12.9831 41.4319C13.3636 41.444 13.7504 41.45 14.1436 41.45V39.45ZM10.8694 39.2852C10.502 39.2459 10.1436 39.1996 9.79404 39.1464L9.49315 41.1236C9.87309 41.1814 10.2609 41.2315 10.6565 41.2738L10.8694 39.2852ZM9.7973 39.1469C9.4607 39.0945 9.11935 39.0322 8.77322 38.9599L8.36409 40.9176C8.74285 40.9967 9.11813 41.0653 9.48989 41.1231L9.7973 39.1469ZM6.74383 38.4369C6.41354 38.3364 6.07939 38.2275 5.74137 38.1102L5.08582 39.9998C5.44734 40.1252 5.80594 40.242 6.16161 40.3503L6.74383 38.4369ZM5.73518 38.1081C5.39688 37.9932 5.07942 37.8629 4.78205 37.7178L3.90517 39.5154C4.28255 39.6995 4.67841 39.8614 5.09201 40.0019L5.73518 38.1081ZM3.13613 36.586C2.89748 36.3582 2.67839 36.1114 2.47859 35.845L0.878594 37.045C1.14406 37.399 1.43632 37.7284 1.75513 38.0327L3.13613 36.586ZM2.48562 35.8545C2.28613 35.5818 2.11303 35.2951 1.96583 34.9938L0.168821 35.8718C0.368174 36.2798 0.602586 36.6679 0.871564 37.0355L2.48562 35.8545ZM1.39434 33.042C1.35085 32.7077 1.32859 32.3573 1.32859 31.99H-0.671406C-0.671406 32.4381 -0.644257 32.8749 -0.588941 33.3L1.39434 33.042ZM1.32859 31.99V30.925H-0.671406V31.99H1.32859ZM1.32859 28.795V26.665H-0.671406V28.795H1.32859ZM1.32859 24.535V22.405H-0.671406V24.535H1.32859ZM1.32859 20.275V19.21H-0.671406V20.275H1.32859ZM1.32859 19.21C1.32859 18.9013 1.3447 18.6028 1.3764 18.3142L-0.61165 18.0959C-0.651662 18.4602 -0.671406 18.8317 -0.671406 19.21H1.32859ZM1.78252 16.6105C1.8866 16.3395 2.00866 16.0773 2.14884 15.8237L0.398353 14.8563C0.213548 15.1907 0.0525467 15.5366 -0.0845339 15.8935L1.78252 16.6105ZM2.13902 15.841C2.28098 15.5958 2.4312 15.3649 2.58946 15.1477L0.973146 13.9698C0.772087 14.2457 0.583839 14.5355 0.408168 14.839L2.13902 15.841ZM3.69007 13.9587C3.89545 13.7854 4.11097 13.6257 4.33685 13.4796L3.25034 11.8004C2.95361 11.9924 2.67015 12.2024 2.40018 12.4303L3.69007 13.9587ZM4.32865 13.4848C4.54887 13.3453 4.78583 13.2103 5.04009 13.08L4.12788 11.3001C3.82343 11.4562 3.53346 11.6211 3.25854 11.7952L4.32865 13.4848ZM6.58951 12.4226C6.85039 12.3309 7.12282 12.243 7.40694 12.159L6.84025 10.241C6.52547 10.334 6.22061 10.4323 5.92581 10.536L6.58951 12.4226ZM7.40694 12.159C7.7018 12.0719 7.99108 11.9929 8.27483 11.9218L7.78895 9.98171C7.47694 10.0598 7.1607 10.1463 6.84025 10.241L7.40694 12.159ZM10.02 11.5745C10.3183 11.5317 10.6091 11.4993 10.8923 11.4769L10.7349 9.4831C10.4074 9.50896 10.0744 9.54624 9.73615 9.59474L10.02 11.5745ZM10.899 11.4763C11.1638 11.4536 11.4329 11.4339 11.7062 11.417L11.5833 9.42082C11.2944 9.43861 11.0094 9.45955 10.7282 9.48365L10.899 11.4763ZM13.3291 11.3526C13.597 11.3475 13.8685 11.345 14.1436 11.345V9.345C13.8562 9.345 13.572 9.34766 13.2912 9.35298L13.3291 11.3526ZM14.1436 11.345C14.4467 11.345 14.7403 11.348 15.0245 11.3538L15.066 9.35427C14.7672 9.34808 14.4597 9.345 14.1436 9.345V11.345ZM16.7693 11.4355C17.0704 11.4587 17.3561 11.4863 17.6268 11.5181L17.8604 9.53185C17.5609 9.49661 17.2484 9.46651 16.9231 9.44141L16.7693 11.4355ZM17.6557 11.5211C17.9155 11.5441 18.1856 11.5755 18.466 11.6157L18.7499 9.63597C18.4361 9.59097 18.1299 9.5552 17.8315 9.52887L17.6557 11.5211ZM20.0957 11.9224C20.3604 11.9828 20.6319 12.0495 20.9102 12.1224L21.417 10.1876C21.1192 10.1096 20.8272 10.0379 20.5408 9.97257L20.0957 11.9224ZM20.8836 12.115C21.1897 12.2043 21.4821 12.2973 21.761 12.3941L22.4165 10.5046C22.104 10.3962 21.7796 10.293 21.4436 10.195L20.8836 12.115ZM23.421 13.0919C23.6946 13.2321 23.9462 13.3767 24.1765 13.5253L25.2607 11.8447C24.9699 11.6571 24.6604 11.4797 24.3328 11.3119L23.421 13.0919ZM24.1765 13.5253C24.3812 13.6574 24.5778 13.8035 24.7664 13.964L26.0626 12.4409C25.8076 12.2239 25.5403 12.025 25.2607 11.8447L24.1765 13.5253ZM25.7762 15.065C25.9219 15.2659 26.0615 15.4803 26.1948 15.7089L27.9224 14.7011C27.7572 14.4179 27.5814 14.1476 27.395 13.8905L25.7762 15.065ZM26.1991 15.7161C26.347 15.9649 26.4761 16.2286 26.586 16.508L28.4472 15.7759C28.2987 15.3986 28.1225 15.0376 27.9181 14.6939L26.1991 15.7161ZM27.0015 18.2715C27.0327 18.5703 27.0486 18.883 27.0486 19.21H29.0486C29.0486 18.8181 29.0295 18.4359 28.9906 18.0638L27.0015 18.2715ZM27.0486 19.21V20.275H29.0486V19.21H27.0486ZM27.0486 22.405V24.535H29.0486V22.405H27.0486ZM27.0486 26.665V28.795H29.0486V26.665H27.0486ZM27.0486 30.925V31.99H29.0486V30.925H27.0486ZM27.0486 31.99C27.0486 32.331 27.0269 32.6567 26.9846 32.9676L28.9664 33.2372C29.0215 32.8317 29.0486 32.4158 29.0486 31.99H27.0486ZM26.4353 34.778C26.2954 35.0564 26.1309 35.3231 25.9411 35.5783L27.5461 36.7717C27.8041 36.4247 28.0298 36.0593 28.2224 35.6759L26.4353 34.778ZM25.9313 35.5918C25.7443 35.8523 25.5385 36.096 25.3136 36.3235L26.7358 37.7296C27.0344 37.4276 27.3079 37.1036 27.5559 36.7582L25.9313 35.5918ZM23.7632 37.4788C23.4821 37.6325 23.182 37.7736 22.8622 37.9015L23.605 39.7585C23.995 39.6025 24.3678 39.4277 24.7228 39.2336L23.7632 37.4788ZM22.8622 37.9015C22.5223 38.0375 22.1767 38.1645 21.8253 38.2827L22.4626 40.1784C22.8491 40.0485 23.2299 39.9085 23.605 39.7585L22.8622 37.9015ZM19.6904 38.8747C18.9807 39.0322 18.2495 39.1577 17.4964 39.2507L17.7416 41.2356C18.5555 41.1351 19.3496 40.999 20.1238 40.8272L19.6904 38.8747ZM15.2664 39.4287C14.8969 39.4429 14.5226 39.45 14.1436 39.45V41.45C14.5476 41.45 14.9474 41.4424 15.343 41.4273L15.2664 39.4287ZM14.2336 34.455C14.0206 34.455 13.8152 34.4536 13.6173 34.4508L13.5888 36.4506C13.7968 36.4535 14.0117 36.455 14.2336 36.455V34.455ZM12.3977 34.4106C12.185 34.3989 11.9859 34.3849 11.8002 34.3688L11.627 36.3612C11.836 36.3794 12.0562 36.3948 12.2874 36.4076L12.3977 34.4106ZM11.8487 34.3742C11.6906 34.3526 11.53 34.3272 11.3669 34.2979L11.0133 36.2664C11.2033 36.3005 11.3917 36.3304 11.5785 36.3558L11.8487 34.3742ZM10.4036 34.0868C10.2457 34.0462 10.0857 34.0023 9.92359 33.955L9.36359 35.875C9.54573 35.9281 9.7265 35.9777 9.9059 36.0238L10.4036 34.0868ZM9.91322 33.952C9.77695 33.9139 9.65229 33.8714 9.53845 33.8252L8.78725 35.6788C8.97553 35.7551 9.17137 35.8212 9.37396 35.878L9.91322 33.952ZM8.93093 33.4726C8.84697 33.4026 8.77369 33.3282 8.70971 33.2494L7.15748 34.5106C7.30482 34.6919 7.46928 34.8578 7.64949 35.0082L8.93093 33.4726ZM8.72795 33.2725C8.66354 33.1883 8.60788 33.0993 8.56049 33.0049L6.77303 33.9021C6.87665 34.1086 6.99888 34.3039 7.13924 34.4874L8.72795 33.2725ZM8.37169 32.3633C8.35666 32.248 8.34859 32.1238 8.34859 31.99H6.34859C6.34859 32.2041 6.36151 32.415 6.38845 32.6217L8.37169 32.3633ZM8.34859 31.99V30.9212H6.34859V31.99H8.34859ZM8.34859 28.7837V26.6462H6.34859V28.7837H8.34859ZM8.34859 24.5087V22.3713H6.34859V24.5087H8.34859ZM8.34859 20.2337V19.165H6.34859V20.2337H8.34859ZM8.34859 19.165C8.34859 18.904 8.37195 18.674 8.41375 18.4718L6.45518 18.0669C6.38249 18.4185 6.34859 18.7856 6.34859 19.165H8.34859ZM8.96358 17.436C9.09882 17.3083 9.26528 17.1899 9.4704 17.0846L8.55679 15.3054C8.19963 15.4888 7.87501 15.7131 7.59038 15.9819L8.96358 17.436ZM9.4704 17.0846C9.74285 16.9447 10.084 16.8164 10.5035 16.7074L10.0004 14.7717C9.47126 14.9092 8.98678 15.0846 8.55679 15.3054L9.4704 17.0846ZM12.9205 16.3723C13.317 16.3509 13.7396 16.34 14.1886 16.34V14.34C13.7076 14.34 13.2488 14.3516 12.8125 14.3752L12.9205 16.3723ZM14.1886 16.34C14.6378 16.34 15.0603 16.3515 15.4566 16.3741L15.5705 14.3773C15.1323 14.3523 14.6715 14.34 14.1886 14.34V16.34ZM17.8661 16.7264C18.281 16.8402 18.6183 16.9739 18.8881 17.1197L19.8391 15.3603C19.4091 15.1279 18.9245 14.9429 18.3952 14.7977L17.8661 16.7264ZM18.9068 17.1296C19.1116 17.2347 19.2779 17.352 19.4131 17.4776L20.7748 16.0128C20.4929 15.7507 20.1723 15.5312 19.8204 15.3504L18.9068 17.1296ZM19.9631 18.4882C20.005 18.6853 20.0286 18.9098 20.0286 19.165H22.0286C22.0286 18.7875 21.9938 18.422 21.9192 18.0715L19.9631 18.4882ZM20.0286 19.165V20.2337H22.0286V19.165H20.0286ZM20.0286 22.3712V24.5087H22.0286V22.3712H20.0286ZM20.0286 26.6462V28.7837H22.0286V26.6462H20.0286ZM20.0286 30.9212V31.99H22.0286V30.9212H20.0286ZM20.0286 31.99C20.0286 32.1238 20.0205 32.248 20.0055 32.3633L21.9887 32.6217C22.0157 32.415 22.0286 32.2041 22.0286 31.99H20.0286ZM19.8167 33.0049C19.7693 33.0993 19.7137 33.1883 19.6492 33.2725L21.238 34.4874C21.3783 34.3039 21.5005 34.1086 21.6042 33.9021L19.8167 33.0049ZM19.6436 33.28C19.5872 33.3552 19.5223 33.4259 19.4477 33.4924L20.7778 34.986C20.9499 34.8327 21.1056 34.6639 21.2436 34.48L19.6436 33.28ZM18.8938 33.8313C18.7882 33.8761 18.6718 33.9176 18.5436 33.955L19.1036 35.875C19.3011 35.8174 19.492 35.7501 19.6753 35.6723L18.8938 33.8313ZM18.5436 33.955C18.3798 34.0028 18.2171 34.0471 18.0556 34.0881L18.5475 36.0267C18.7323 35.9798 18.9176 35.9292 19.1036 35.875L18.5436 33.955ZM17.0729 34.2984C16.9071 34.3271 16.7425 34.3521 16.5793 34.3734L16.8379 36.3566C17.0293 36.3316 17.2214 36.3024 17.4142 36.2691L17.0729 34.2984ZM16.6181 34.3691C16.439 34.3854 16.2447 34.3995 16.0348 34.4113L16.1472 36.4081C16.3769 36.3952 16.5943 36.3795 16.7991 36.3609L16.6181 34.3691ZM14.8388 34.4509C14.6452 34.4536 14.4434 34.455 14.2336 34.455V36.455C14.4521 36.455 14.6633 36.4536 14.8671 36.4507L14.8388 34.4509ZM42.6979 15.79H43.1979V15.29H42.6979V15.79ZM33.6979 15.79H33.1979V16.29H33.6979V15.79ZM33.6979 10.795V10.295H33.1979V10.795H33.6979ZM58.6729 10.795H59.1729V10.295H58.6729V10.795ZM58.6729 15.79V16.29H59.1729V15.79H58.6729ZM49.7179 15.79V15.29H49.2179V15.79H49.7179ZM49.7179 40V40.5H50.2179V40H49.7179ZM42.6979 40H42.1979V40.5H42.6979V40ZM42.6979 15.29H41.5729V16.29H42.6979V15.29ZM39.3229 15.29H37.0729V16.29H39.3229V15.29ZM34.8229 15.29H33.6979V16.29H34.8229V15.29ZM34.1979 15.79V14.5412H33.1979V15.79H34.1979ZM34.1979 12.0437V10.795H33.1979V12.0437H34.1979ZM33.6979 11.295H34.7385V10.295H33.6979V11.295ZM36.8197 11.295H38.901V10.295H36.8197V11.295ZM40.9822 11.295H43.0635V10.295H40.9822V11.295ZM45.1447 11.295H47.226V10.295H45.1447V11.295ZM49.3072 11.295H51.3885V10.295H49.3072V11.295ZM53.4697 11.295H55.551V10.295H53.4697V11.295ZM57.6322 11.295H58.6729V10.295H57.6322V11.295ZM58.1729 10.795V12.0437H59.1729V10.795H58.1729ZM58.1729 14.5412V15.79H59.1729V14.5412H58.1729ZM58.6729 15.29H57.5535V16.29H58.6729V15.29ZM55.3147 15.29H53.076V16.29H55.3147V15.29ZM50.8372 15.29H49.7179V16.29H50.8372V15.29ZM49.2179 15.79V16.7987H50.2179V15.79H49.2179ZM49.2179 18.8162V20.8337H50.2179V18.8162H49.2179ZM49.2179 22.8512V24.8687H50.2179V22.8512H49.2179ZM49.2179 26.8862V28.9037H50.2179V26.8862H49.2179ZM49.2179 30.9212V32.9387H50.2179V30.9212H49.2179ZM49.2179 34.9562V36.9737H50.2179V34.9562H49.2179ZM49.2179 38.9912V40H50.2179V38.9912H49.2179ZM49.7179 39.5H48.8404V40.5H49.7179V39.5ZM47.0854 39.5H45.3304V40.5H47.0854V39.5ZM43.5754 39.5H42.6979V40.5H43.5754V39.5ZM43.1979 40V38.9912H42.1979V40H43.1979ZM43.1979 36.9738V34.9562H42.1979V36.9738H43.1979ZM43.1979 32.9388V30.9212H42.1979V32.9388H43.1979ZM43.1979 28.9037V26.8862H42.1979V28.9037H43.1979ZM43.1979 24.8687V22.8512H42.1979V24.8687H43.1979ZM43.1979 20.8337V18.8163H42.1979V20.8337H43.1979ZM43.1979 16.7988V15.79H42.1979V16.7988H43.1979ZM42.6979 15.79H43.6979V14.79H42.6979V15.79ZM33.6979 15.79H32.6979V16.79H33.6979V15.79ZM33.6979 10.795V9.795H32.6979V10.795H33.6979ZM58.6729 10.795H59.6729V9.795H58.6729V10.795ZM58.6729 15.79V16.79H59.6729V15.79H58.6729ZM49.7179 15.79V14.79H48.7179V15.79H49.7179ZM49.7179 40V41H50.7179V40H49.7179ZM42.6979 40H41.6979V41H42.6979V40ZM42.6979 14.79H41.5729V16.79H42.6979V14.79ZM39.3229 14.79H37.0729V16.79H39.3229V14.79ZM34.8229 14.79H33.6979V16.79H34.8229V14.79ZM34.6979 15.79V14.5412H32.6979V15.79H34.6979ZM34.6979 12.0437V10.795H32.6979V12.0437H34.6979ZM33.6979 11.795H34.7385V9.795H33.6979V11.795ZM36.8197 11.795H38.901V9.795H36.8197V11.795ZM40.9822 11.795H43.0635V9.795H40.9822V11.795ZM45.1447 11.795H47.226V9.795H45.1447V11.795ZM49.3072 11.795H51.3885V9.795H49.3072V11.795ZM53.4697 11.795H55.551V9.795H53.4697V11.795ZM57.6322 11.795H58.6729V9.795H57.6322V11.795ZM57.6729 10.795V12.0437H59.6729V10.795H57.6729ZM57.6729 14.5412V15.79H59.6729V14.5412H57.6729ZM58.6729 14.79H57.5535V16.79H58.6729V14.79ZM55.3147 14.79H53.076V16.79H55.3147V14.79ZM50.8372 14.79H49.7179V16.79H50.8372V14.79ZM48.7179 15.79V16.7987H50.7179V15.79H48.7179ZM48.7179 18.8162V20.8337H50.7179V18.8162H48.7179ZM48.7179 22.8512V24.8687H50.7179V22.8512H48.7179ZM48.7179 26.8862V28.9037H50.7179V26.8862H48.7179ZM48.7179 30.9212V32.9387H50.7179V30.9212H48.7179ZM48.7179 34.9562V36.9737H50.7179V34.9562H48.7179ZM48.7179 38.9912V40H50.7179V38.9912H48.7179ZM49.7179 39H48.8404V41H49.7179V39ZM47.0854 39H45.3304V41H47.0854V39ZM43.5754 39H42.6979V41H43.5754V39ZM43.6979 40V38.9912H41.6979V40H43.6979ZM43.6979 36.9738V34.9562H41.6979V36.9738H43.6979ZM43.6979 32.9388V30.9212H41.6979V32.9388H43.6979ZM43.6979 28.9037V26.8862H41.6979V28.9037H43.6979ZM43.6979 24.8687V22.8512H41.6979V24.8687H43.6979ZM43.6979 20.8337V18.8163H41.6979V20.8337H43.6979ZM43.6979 16.7988V15.79H41.6979V16.7988H43.6979ZM64.9605 40.18L65.069 39.6919L65.0559 39.689L65.0427 39.6868L64.9605 40.18ZM63.7906 40H63.2906V40.4414L63.7285 40.4961L63.7906 40ZM63.7906 34.51L63.8581 34.0146L63.2906 33.9372V34.51H63.7906ZM68.9205 33.385L69.2805 33.7321L69.2865 33.7257L68.9205 33.385ZM70.6755 28.255L70.1813 28.1794L70.1805 28.1851L70.6755 28.255ZM71.2605 10.795V10.295H70.7605V10.795H71.2605ZM92.5005 10.795H93.0005V10.295H92.5005V10.795ZM92.5005 40V40.5H93.0005V40H92.5005ZM85.4805 40H84.9805V40.5H85.4805V40ZM85.4805 15.745H85.9805V15.245H85.4805V15.745ZM77.6055 15.745V15.245H77.1055V15.745H77.6055ZM76.0755 32.665L75.6017 32.5055L75.6003 32.5097L76.0755 32.665ZM72.1605 38.785L71.8886 38.3654L71.885 38.3678L72.1605 38.785ZM66.4905 39.86C66.3751 39.86 66.2571 39.8562 66.1367 39.8485L66.0731 40.8465C66.214 40.8555 66.3531 40.86 66.4905 40.86V39.86ZM65.4249 39.7626C65.3082 39.7422 65.1896 39.7187 65.069 39.6919L64.8521 40.6681C64.9872 40.6981 65.1209 40.7247 65.2533 40.7477L65.4249 39.7626ZM65.0427 39.6868C64.9394 39.6696 64.8414 39.6534 64.7488 39.6384L64.5882 40.6254C64.6794 40.6402 64.7761 40.6562 64.8783 40.6732L65.0427 39.6868ZM64.1565 39.5458C64.0396 39.5286 63.938 39.5145 63.8526 39.5039L63.7285 40.4961C63.8045 40.5056 63.8984 40.5186 64.0108 40.5351L64.1565 39.5458ZM64.2906 40V38.6275H63.2906V40H64.2906ZM64.2906 35.8825V34.51H63.2906V35.8825H64.2906ZM63.723 35.0054C63.8694 35.0254 64.0112 35.0432 64.1482 35.059L64.2622 34.0655C64.1327 34.0506 63.998 34.0337 63.8581 34.0146L63.723 35.0054ZM65.0124 35.133C65.1678 35.1409 65.3156 35.145 65.4555 35.145V34.145C65.3347 34.145 65.204 34.1415 65.0634 34.1343L65.0124 35.133ZM65.4555 35.145C65.8082 35.145 66.1463 35.1231 66.4693 35.0786L66.3326 34.088C66.0592 34.1257 65.767 34.145 65.4555 34.145V35.145ZM68.4447 34.4033C68.7519 34.2149 69.0308 33.991 69.2805 33.7321L68.5606 33.0379C68.3699 33.2358 68.1573 33.4065 67.922 33.5508L68.4447 34.4033ZM69.2865 33.7257C69.6026 33.3862 69.8749 32.9534 70.1106 32.4423L69.2025 32.0235C68.9977 32.4677 68.7793 32.803 68.5546 33.0443L69.2865 33.7257ZM70.938 29.7067C71.0241 29.275 71.1015 28.8143 71.1706 28.3249L70.1805 28.1851C70.1137 28.6582 70.0392 29.1002 69.9573 29.5113L70.938 29.7067ZM71.1698 28.3306C71.2168 28.0232 71.2609 27.6978 71.3022 27.3546L70.3093 27.2353C70.2692 27.5691 70.2265 27.8837 70.1813 28.1794L71.1698 28.3306ZM71.4914 25.404C71.5385 24.7951 71.5795 24.1453 71.6142 23.4546L70.6155 23.4044C70.5811 24.0872 70.5407 24.728 70.4944 25.3267L71.4914 25.404ZM71.6923 21.5077C71.7116 20.8865 71.7268 20.2381 71.7378 19.5624L70.738 19.546C70.727 20.2172 70.7119 20.8608 70.6928 21.4767L71.6923 21.5077ZM71.7582 17.6171C71.7598 17.2983 71.7605 16.9743 71.7605 16.645H70.7605C70.7605 16.9727 70.7598 17.2951 70.7582 17.6121L71.7582 17.6171ZM71.7605 16.645V15.1825H70.7605V16.645H71.7605ZM71.7605 12.2575V10.795H70.7605V12.2575H71.7605ZM71.2605 11.295H72.3225V10.295H71.2605V11.295ZM74.4465 11.295H76.5705V10.295H74.4465V11.295ZM78.6945 11.295H80.8186V10.295H78.6945V11.295ZM82.9426 11.295H85.0666V10.295H82.9426V11.295ZM87.1906 11.295H89.3146V10.295H87.1906V11.295ZM91.4386 11.295H92.5005V10.295H91.4386V11.295ZM92.0005 10.795V11.838H93.0005V10.795H92.0005ZM92.0005 13.9241V16.0102H93.0005V13.9241H92.0005ZM92.0005 18.0962V20.1823H93.0005V18.0962H92.0005ZM92.0005 22.2684V24.3545H93.0005V22.2684H92.0005ZM92.0005 26.4405V28.5266H93.0005V26.4405H92.0005ZM92.0005 30.6127V32.6987H93.0005V30.6127H92.0005ZM92.0005 34.7848V36.8709H93.0005V34.7848H92.0005ZM92.0005 38.957V40H93.0005V38.957H92.0005ZM92.5005 39.5H91.623V40.5H92.5005V39.5ZM89.868 39.5H88.113V40.5H89.868V39.5ZM86.358 39.5H85.4805V40.5H86.358V39.5ZM85.9805 40V38.9894H84.9805V40H85.9805ZM85.9805 36.9681V34.9469H84.9805V36.9681H85.9805ZM85.9805 32.9256V30.9044H84.9805V32.9256H85.9805ZM85.9805 28.8831V26.8619H84.9805V28.8831H85.9805ZM85.9805 24.8406V22.8194H84.9805V24.8406H85.9805ZM85.9805 20.7981V18.7769H84.9805V20.7981H85.9805ZM85.9805 16.7556V15.745H84.9805V16.7556H85.9805ZM85.4805 15.245H84.4962V16.245H85.4805V15.245ZM82.5274 15.245H80.5587V16.245H82.5274V15.245ZM78.5899 15.245H77.6055V16.245H78.5899V15.245ZM77.1055 15.745V16.7575H78.1055V15.745H77.1055ZM77.1055 18.7825V19.795H78.1055V18.7825H77.1055ZM77.1055 19.795C77.1055 20.1601 77.1033 20.5195 77.0989 20.8735L78.0988 20.886C78.1033 20.5278 78.1055 20.1641 78.1055 19.795H77.1055ZM77.0417 23.0274C77.0108 23.7714 76.9687 24.487 76.9155 25.1743L77.9125 25.2515C77.9668 24.5515 78.0095 23.8239 78.0409 23.0689L77.0417 23.0274ZM76.7031 27.3095C76.611 28.0546 76.5032 28.7589 76.3799 29.4227L77.3631 29.6053C77.4904 28.9196 77.6012 28.1952 77.6955 27.4322L76.7031 27.3095ZM75.909 31.496C75.8122 31.848 75.7097 32.1845 75.6017 32.5055L76.5494 32.8245C76.6639 32.4845 76.7718 32.13 76.8732 31.7611L75.909 31.496ZM75.6003 32.5097C75.5039 32.8048 75.4046 33.0898 75.3024 33.3647L76.2398 33.7129C76.3469 33.4249 76.4505 33.1273 76.5508 32.8203L75.6003 32.5097ZM74.5955 35.0172C74.3127 35.5891 74.0139 36.0983 73.6999 36.5465L74.5189 37.1203C74.8658 36.6252 75.1899 36.0713 75.4919 35.4604L74.5955 35.0172ZM72.5611 37.8498C72.3423 38.0451 72.1181 38.2167 71.8886 38.3654L72.4325 39.2046C72.7073 39.0265 72.972 38.8233 73.2269 38.5959L72.5611 37.8498ZM71.885 38.3678C71.4926 38.6269 71.0809 38.8522 70.6495 39.0437L71.0553 39.9577C71.537 39.7438 71.9974 39.4919 72.4361 39.2022L71.885 38.3678ZM67.9206 39.7771C67.4614 39.8322 66.9848 39.86 66.4905 39.86V40.86C67.0223 40.86 67.5387 40.8301 68.0397 40.77L67.9206 39.7771ZM64.9605 40.18L65.1775 39.2038L65.1514 39.198L65.1249 39.1936L64.9605 40.18ZM63.7906 40H62.7906V40.8828L63.6665 40.9923L63.7906 40ZM63.7906 34.51L63.9257 33.5192L62.7906 33.3644V34.51H63.7906ZM68.9205 33.385L69.6404 34.0791L69.6465 34.0728L69.6524 34.0664L68.9205 33.385ZM70.6755 28.255L69.687 28.1038L69.6854 28.1152L70.6755 28.255ZM71.2605 10.795V9.795H70.2605V10.795H71.2605ZM92.5005 10.795H93.5005V9.795H92.5005V10.795ZM92.5005 40V41H93.5005V40H92.5005ZM85.4805 40H84.4805V41H85.4805V40ZM85.4805 15.745H86.4805V14.745H85.4805V15.745ZM77.6055 15.745V14.745H76.6055V15.745H77.6055ZM76.0755 32.665L75.1278 32.3459L75.125 32.3544L76.0755 32.665ZM72.1605 38.785L71.6166 37.9458L71.6095 37.9505L72.1605 38.785ZM66.4905 39.36C66.386 39.36 66.2787 39.3566 66.1686 39.3495L66.0413 41.3455C66.1924 41.3551 66.3421 41.36 66.4905 41.36V39.36ZM65.5107 39.27C65.4019 39.251 65.2908 39.229 65.1775 39.2038L64.7436 41.1562C64.886 41.1878 65.0273 41.2159 65.1674 41.2403L65.5107 39.27ZM65.1249 39.1936C65.021 39.1763 64.9224 39.16 64.8291 39.1449L64.5079 41.1189C64.5984 41.1336 64.6945 41.1494 64.7962 41.1664L65.1249 39.1936ZM64.2293 39.0511C64.1102 39.0336 64.0048 39.019 63.9146 39.0077L63.6665 40.9923C63.7377 41.0012 63.8278 41.0136 63.938 41.0298L64.2293 39.0511ZM64.7906 40V38.6275H62.7906V40H64.7906ZM64.7906 35.8825V34.51H62.7906V35.8825H64.7906ZM63.6554 35.5008C63.8051 35.5212 63.9504 35.5395 64.0912 35.5557L64.3192 33.5687C64.1935 33.5543 64.0623 33.5378 63.9257 33.5192L63.6554 35.5008ZM64.9869 35.6324C65.1497 35.6407 65.306 35.645 65.4555 35.645V33.645C65.3443 33.645 65.2222 33.6418 65.0889 33.635L64.9869 35.6324ZM65.4555 35.645C65.8287 35.645 66.1898 35.6219 66.5377 35.5739L66.2642 33.5927C66.0156 33.627 65.7465 33.645 65.4555 33.645V35.645ZM68.706 34.8296C69.0492 34.6192 69.3612 34.3686 69.6404 34.0791L68.2007 32.6909C68.0394 32.8582 67.8599 33.0023 67.6607 33.1245L68.706 34.8296ZM69.6524 34.0664C70.0143 33.6777 70.3135 33.1962 70.5646 32.6516L68.7484 31.8142C68.559 32.2248 68.3676 32.5114 68.1887 32.7036L69.6524 34.0664ZM71.4284 29.8044C71.5165 29.3624 71.5955 28.8923 71.6657 28.3948L69.6854 28.1152C69.6197 28.5802 69.5468 29.0128 69.467 29.4136L71.4284 29.8044ZM71.6641 28.4062C71.712 28.0929 71.7568 27.7622 71.7986 27.4142L69.8129 27.1757C69.7733 27.5047 69.7314 27.814 69.687 28.1038L71.6641 28.4062ZM71.9899 25.4426C72.0374 24.8287 72.0787 24.1743 72.1136 23.4797L70.1161 23.3792C70.082 24.0582 70.0419 24.6944 69.9958 25.2881L71.9899 25.4426ZM72.1921 21.5232C72.2114 20.8994 72.2266 20.2485 72.2378 19.5706L70.2381 19.5378C70.2271 20.2068 70.2121 20.8479 70.1931 21.4613L72.1921 21.5232ZM72.2582 17.6195C72.2598 17.2999 72.2605 16.9751 72.2605 16.645H70.2605C70.2605 16.9719 70.2598 17.2935 70.2582 17.6097L72.2582 17.6195ZM72.2605 16.645V15.1825H70.2605V16.645H72.2605ZM72.2605 12.2575V10.795H70.2605V12.2575H72.2605ZM71.2605 11.795H72.3225V9.795H71.2605V11.795ZM74.4465 11.795H76.5705V9.795H74.4465V11.795ZM78.6945 11.795H80.8186V9.795H78.6945V11.795ZM82.9426 11.795H85.0666V9.795H82.9426V11.795ZM87.1906 11.795H89.3146V9.795H87.1906V11.795ZM91.4386 11.795H92.5005V9.795H91.4386V11.795ZM91.5005 10.795V11.838H93.5005V10.795H91.5005ZM91.5005 13.9241V16.0102H93.5005V13.9241H91.5005ZM91.5005 18.0962V20.1823H93.5005V18.0962H91.5005ZM91.5005 22.2684V24.3545H93.5005V22.2684H91.5005ZM91.5005 26.4405V28.5266H93.5005V26.4405H91.5005ZM91.5005 30.6127V32.6987H93.5005V30.6127H91.5005ZM91.5005 34.7848V36.8709H93.5005V34.7848H91.5005ZM91.5005 38.957V40H93.5005V38.957H91.5005ZM92.5005 39H91.623V41H92.5005V39ZM89.868 39H88.113V41H89.868V39ZM86.358 39H85.4805V41H86.358V39ZM86.4805 40V38.9894H84.4805V40H86.4805ZM86.4805 36.9681V34.9469H84.4805V36.9681H86.4805ZM86.4805 32.9256V30.9044H84.4805V32.9256H86.4805ZM86.4805 28.8831V26.8619H84.4805V28.8831H86.4805ZM86.4805 24.8406V22.8194H84.4805V24.8406H86.4805ZM86.4805 20.7981V18.7769H84.4805V20.7981H86.4805ZM86.4805 16.7556V15.745H84.4805V16.7556H86.4805ZM85.4805 14.745H84.4962V16.745H85.4805V14.745ZM82.5274 14.745H80.5587V16.745H82.5274V14.745ZM78.5899 14.745H77.6055V16.745H78.5899V14.745ZM76.6055 15.745V16.7575H78.6055V15.745H76.6055ZM76.6055 18.7825V19.795H78.6055V18.7825H76.6055ZM76.6055 19.795C76.6055 20.158 76.6033 20.5154 76.5989 20.8672L78.5988 20.8923C78.6033 20.5319 78.6055 20.1661 78.6055 19.795H76.6055ZM76.5422 23.0066C76.5115 23.7452 76.4697 24.4548 76.417 25.1357L78.411 25.2901C78.4658 24.5837 78.5089 23.8502 78.5404 23.0896L76.5422 23.0066ZM76.2068 27.2482C76.1159 27.9842 76.0096 28.6785 75.8883 29.3314L77.8547 29.6966C77.9841 29 78.0963 28.2655 78.1917 27.4936L76.2068 27.2482ZM75.4269 31.3634C75.3324 31.707 75.2327 32.0345 75.1278 32.346L77.0233 32.984C77.141 32.6345 77.2516 32.271 77.3553 31.8937L75.4269 31.3634ZM75.125 32.3544C75.0305 32.6435 74.9334 32.9222 74.8337 33.1906L76.7085 33.8871C76.818 33.5924 76.9238 33.2886 77.0261 32.9756L75.125 32.3544ZM74.1472 34.7956C73.8742 35.348 73.588 35.8349 73.2904 36.2596L74.9284 37.4072C75.2918 36.8886 75.6284 36.3124 75.9401 35.682L74.1472 34.7956ZM72.2282 37.4767C72.0274 37.6559 71.8235 37.8118 71.6167 37.9458L72.7044 39.6242C73.0019 39.4314 73.2869 39.2125 73.5598 38.9689L72.2282 37.4767ZM71.6095 37.9505C71.2402 38.1944 70.8528 38.4064 70.4466 38.5867L71.2582 40.4146C71.7651 40.1896 72.2498 39.9244 72.7116 39.6195L71.6095 37.9505ZM67.861 39.2807C67.4228 39.3333 66.9661 39.36 66.4905 39.36V41.36C67.041 41.36 67.5774 41.3291 68.0993 41.2665L67.861 39.2807ZM101.048 10.795V10.295H100.548V10.795H101.048ZM108.068 10.795H108.568V10.295H108.068V10.795ZM108.068 30.775H107.568V32.5052L108.491 31.0417L108.068 30.775ZM120.668 10.795V10.295H120.393L120.246 10.5283L120.668 10.795ZM127.688 10.795H128.188V10.295H127.688V10.795ZM127.688 40V40.5H128.188V40H127.688ZM120.668 40H120.168V40.5H120.668V40ZM120.668 19.705H121.168V17.9517L120.244 19.4413L120.668 19.705ZM108.068 40V40.5H108.347L108.493 40.2637L108.068 40ZM101.048 40H100.548V40.5H101.048V40ZM100.548 10.795V11.838H101.548V10.795H100.548ZM100.548 13.9241V16.0102H101.548V13.9241H100.548ZM100.548 18.0962V20.1823H101.548V18.0962H100.548ZM100.548 22.2684V24.3545H101.548V22.2684H100.548ZM100.548 26.4405V28.5266H101.548V26.4405H100.548ZM100.548 30.6127V32.6987H101.548V30.6127H100.548ZM100.548 34.7848V36.8709H101.548V34.7848H100.548ZM100.548 38.957V40H101.548V38.957H100.548ZM101.048 40.5H101.926V39.5H101.048V40.5ZM103.681 40.5H105.436V39.5H103.681V40.5ZM107.191 40.5H108.068V39.5H107.191V40.5ZM108.493 40.2637L109.018 39.4181L108.169 38.8906L107.644 39.7363L108.493 40.2637ZM110.068 37.7269L111.118 36.0356L110.269 35.5081L109.219 37.1994L110.068 37.7269ZM112.168 34.3444L113.218 32.6531L112.369 32.1256L111.319 33.8169L112.168 34.3444ZM114.268 30.9619L115.318 29.2706L114.469 28.7431L113.419 30.4344L114.268 30.9619ZM116.368 27.5794L117.418 25.8881L116.569 25.3606L115.519 27.0519L116.368 27.5794ZM118.468 24.1969L119.518 22.5056L118.669 21.9781L117.619 23.6694L118.468 24.1969ZM120.568 20.8144L121.093 19.9687L120.244 19.4413L119.719 20.2869L120.568 20.8144ZM120.168 19.705V20.7197H121.168V19.705H120.168ZM120.168 22.7492V24.7787H121.168V22.7492H120.168ZM120.168 26.8082V28.8377H121.168V26.8082H120.168ZM120.168 30.8672V32.8967H121.168V30.8672H120.168ZM120.168 34.9262V36.9557H121.168V34.9262H120.168ZM120.168 38.9853V40H121.168V38.9853H120.168ZM120.668 40.5H121.546V39.5H120.668V40.5ZM123.301 40.5H125.056V39.5H123.301V40.5ZM126.811 40.5H127.688V39.5H126.811V40.5ZM128.188 40V38.957H127.188V40H128.188ZM128.188 36.8709V34.7848H127.188V36.8709H128.188ZM128.188 32.6987V30.6127H127.188V32.6987H128.188ZM128.188 28.5266V26.4405H127.188V28.5266H128.188ZM128.188 24.3545V22.2684H127.188V24.3545H128.188ZM128.188 20.1823V18.0963H127.188V20.1823H128.188ZM128.188 16.0102V13.9241H127.188V16.0102H128.188ZM128.188 11.838V10.795H127.188V11.838H128.188ZM127.688 10.295H126.811V11.295H127.688V10.295ZM125.056 10.295H123.301V11.295H125.056V10.295ZM121.546 10.295H120.668V11.295H121.546V10.295ZM120.246 10.5283L119.721 11.3608L120.566 11.8942L121.091 11.0617L120.246 10.5283ZM118.671 13.0258L117.621 14.6908L118.466 15.2242L119.516 13.5592L118.671 13.0258ZM116.571 16.3558L115.521 18.0208L116.366 18.5542L117.416 16.8892L116.571 16.3558ZM114.471 19.6858L113.421 21.3508L114.266 21.8842L115.316 20.2192L114.471 19.6858ZM112.371 23.0158L111.321 24.6808L112.166 25.2142L113.216 23.5492L112.371 23.0158ZM110.271 26.3458L109.221 28.0108L110.066 28.5442L111.116 26.8792L110.271 26.3458ZM108.171 29.6758L107.646 30.5083L108.491 31.0417L109.016 30.2092L108.171 29.6758ZM108.568 30.775V29.776H107.568V30.775H108.568ZM108.568 27.778V25.78H107.568V27.778H108.568ZM108.568 23.782V21.784H107.568V23.782H108.568ZM108.568 19.786V17.788H107.568V19.786H108.568ZM108.568 15.79V13.792H107.568V15.79H108.568ZM108.568 11.794V10.795H107.568V11.794H108.568ZM108.068 10.295H107.191V11.295H108.068V10.295ZM105.436 10.295H103.681V11.295H105.436V10.295ZM101.926 10.295H101.048V11.295H101.926V10.295ZM101.048 10.795V9.795H100.048V10.795H101.048ZM108.068 10.795H109.068V9.795H108.068V10.795ZM108.068 30.775H107.068V34.2354L108.914 31.3084L108.068 30.775ZM120.668 10.795V9.795H120.117L119.823 10.2616L120.668 10.795ZM127.688 10.795H128.688V9.795H127.688V10.795ZM127.688 40V41H128.688V40H127.688ZM120.668 40H119.668V41H120.668V40ZM120.668 19.705H121.668V16.1984L119.819 19.1775L120.668 19.705ZM108.068 40V41H108.625L108.918 40.5275L108.068 40ZM101.048 40H100.048V41H101.048V40ZM100.048 10.795V11.838H102.048V10.795H100.048ZM100.048 13.9241V16.0102H102.048V13.9241H100.048ZM100.048 18.0962V20.1823H102.048V18.0962H100.048ZM100.048 22.2684V24.3545H102.048V22.2684H100.048ZM100.048 26.4405V28.5266H102.048V26.4405H100.048ZM100.048 30.6127V32.6987H102.048V30.6127H100.048ZM100.048 34.7848V36.8709H102.048V34.7848H100.048ZM100.048 38.957V40H102.048V38.957H100.048ZM101.048 41H101.926V39H101.048V41ZM103.681 41H105.436V39H103.681V41ZM107.191 41H108.068V39H107.191V41ZM108.918 40.5275L109.443 39.6818L107.744 38.6269L107.219 39.4725L108.918 40.5275ZM110.493 37.9906L111.543 36.2993L109.844 35.2444L108.794 36.9357L110.493 37.9906ZM112.593 34.6081L113.643 32.9168L111.944 31.8619L110.894 33.5532L112.593 34.6081ZM114.693 31.2256L115.743 29.5343L114.044 28.4794L112.994 30.1707L114.693 31.2256ZM116.793 27.8431L117.843 26.1518L116.144 25.0969L115.094 26.7882L116.793 27.8431ZM118.893 24.4606L119.943 22.7693L118.244 21.7144L117.194 23.4057L118.893 24.4606ZM120.993 21.0781L121.518 20.2325L119.819 19.1775L119.294 20.0232L120.993 21.0781ZM119.668 19.705V20.7197H121.668V19.705H119.668ZM119.668 22.7492V24.7787H121.668V22.7492H119.668ZM119.668 26.8082V28.8377H121.668V26.8082H119.668ZM119.668 30.8672V32.8967H121.668V30.8672H119.668ZM119.668 34.9262V36.9557H121.668V34.9262H119.668ZM119.668 38.9853V40H121.668V38.9853H119.668ZM120.668 41H121.546V39H120.668V41ZM123.301 41H125.056V39H123.301V41ZM126.811 41H127.688V39H126.811V41ZM128.688 40V38.957H126.688V40H128.688ZM128.688 36.8709V34.7848H126.688V36.8709H128.688ZM128.688 32.6987V30.6127H126.688V32.6987H128.688ZM128.688 28.5266V26.4405H126.688V28.5266H128.688ZM128.688 24.3545V22.2684H126.688V24.3545H128.688ZM128.688 20.1823V18.0963H126.688V20.1823H128.688ZM128.688 16.0102V13.9241H126.688V16.0102H128.688ZM128.688 11.838V10.795H126.688V11.838H128.688ZM127.688 9.795H126.811V11.795H127.688V9.795ZM125.056 9.795H123.301V11.795H125.056V9.795ZM121.546 9.795H120.668V11.795H121.546V9.795ZM119.823 10.2616L119.298 11.0941L120.989 12.1609L121.514 11.3284L119.823 10.2616ZM118.248 12.7591L117.198 14.4241L118.889 15.4909L119.939 13.8259L118.248 12.7591ZM116.148 16.0891L115.098 17.7541L116.789 18.8209L117.839 17.1559L116.148 16.0891ZM114.048 19.4191L112.998 21.0841L114.689 22.1509L115.739 20.4859L114.048 19.4191ZM111.948 22.7491L110.898 24.4141L112.589 25.4809L113.639 23.8159L111.948 22.7491ZM109.848 26.0791L108.798 27.7441L110.489 28.8109L111.539 27.1459L109.848 26.0791ZM107.748 29.4091L107.223 30.2416L108.914 31.3084L109.439 30.4759L107.748 29.4091ZM109.068 30.775V29.776H107.068V30.775H109.068ZM109.068 27.778V25.78H107.068V27.778H109.068ZM109.068 23.782V21.784H107.068V23.782H109.068ZM109.068 19.786V17.788H107.068V19.786H109.068ZM109.068 15.79V13.792H107.068V15.79H109.068ZM109.068 11.794V10.795H107.068V11.794H109.068ZM108.068 9.795H107.191V11.795H108.068V9.795ZM105.436 9.795H103.681V11.795H105.436V9.795ZM101.926 9.795H101.048V11.795H101.926V9.795ZM153.042 28.84H153.542V27.9851L152.797 28.4042L153.042 28.84ZM138.192 28.975L137.888 29.3717L137.896 29.3775L138.192 28.975ZM135.672 10.795V10.295H135.172V10.795H135.672ZM142.602 10.795H143.102V10.295H142.602V10.795ZM143.637 24.835L143.34 25.2371L143.35 25.2443L143.36 25.251L143.637 24.835ZM150.117 24.97L149.963 24.4945L150.117 24.97ZM153.042 23.485L153.355 23.8754L153.542 23.7253V23.485H153.042ZM153.042 10.795V10.295H152.542V10.795H153.042ZM160.062 10.795H160.562V10.295H160.062V10.795ZM160.062 40V40.5H160.562V40H160.062ZM153.042 40H152.542V40.5H153.042V40ZM152.797 28.4042C152.486 28.5792 152.167 28.7426 151.839 28.8942L152.259 29.8018C152.61 29.6392 152.953 29.4638 153.288 29.2758L152.797 28.4042ZM149.82 29.6501C149.145 29.8482 148.44 30.0054 147.705 30.1214L147.861 31.1092C148.636 30.9869 149.383 30.8204 150.101 30.6095L149.82 29.6501ZM145.54 30.3395C145.182 30.3565 144.818 30.365 144.447 30.365V31.365C144.833 31.365 145.213 31.3561 145.587 31.3383L145.54 30.3395ZM144.447 30.365C144.175 30.365 143.908 30.357 143.647 30.3411L143.586 31.3393C143.869 31.3564 144.156 31.365 144.447 31.365V30.365ZM142.069 30.1369C141.539 30.0289 141.034 29.8826 140.553 29.6986L140.196 30.6326C140.73 30.837 141.288 30.9982 141.87 31.1168L142.069 30.1369ZM139.142 29.0095C138.918 28.8741 138.701 28.7284 138.489 28.5725L137.896 29.3775C138.132 29.5513 138.374 29.7137 138.624 29.8649L139.142 29.0095ZM138.497 28.5784C138.278 28.4104 138.075 28.226 137.888 28.0251L137.156 28.707C137.381 28.9484 137.625 29.17 137.888 29.3716L138.497 28.5784ZM136.965 26.6526C136.738 26.1759 136.558 25.6408 136.427 25.045L135.45 25.2595C135.595 25.9205 135.799 26.5291 136.062 27.0828L136.965 26.6526ZM136.198 23.327C136.181 23.0444 136.172 22.7521 136.172 22.45H135.172C135.172 22.7707 135.181 23.0828 135.199 23.3863L136.198 23.327ZM136.172 22.45V21.4787H135.172V22.45H136.172ZM136.172 19.5362V17.5937H135.172V19.5362H136.172ZM136.172 15.6512V13.7087H135.172V15.6512H136.172ZM136.172 11.7662V10.795H135.172V11.7662H136.172ZM135.672 11.295H136.539V10.295H135.672V11.295ZM138.271 11.295H140.004V10.295H138.271V11.295ZM141.736 11.295H142.602V10.295H141.736V11.295ZM142.102 10.795V11.7212H143.102V10.795H142.102ZM142.102 13.5737V15.4262H143.102V13.5737H142.102ZM142.102 17.2787V19.1312H143.102V17.2787H142.102ZM142.102 20.9837V21.91H143.102V20.9837H142.102ZM142.102 21.91C142.102 22.2117 142.117 22.4976 142.146 22.7672L143.14 22.6587C143.115 22.4297 143.102 22.1803 143.102 21.91H142.102ZM142.676 24.4997C142.853 24.792 143.074 25.0402 143.34 25.2371L143.935 24.4329C143.781 24.3196 143.646 24.1715 143.531 23.9816L142.676 24.4997ZM143.36 25.251C143.587 25.4023 143.831 25.5316 144.09 25.6393L144.474 24.7159C144.271 24.6319 144.085 24.5327 143.915 24.419L143.36 25.251ZM145.647 26.0168C145.898 26.0424 146.158 26.055 146.427 26.055V25.055C146.189 25.055 145.963 25.0438 145.748 25.0219L145.647 26.0168ZM146.427 26.055C146.754 26.055 147.08 26.0424 147.403 26.0171L147.325 25.0201C147.028 25.0434 146.729 25.055 146.427 25.055V26.055ZM149.332 25.7112C149.648 25.6352 149.961 25.5466 150.272 25.4455L149.963 24.4945C149.676 24.5877 149.388 24.6692 149.098 24.7391L149.332 25.7112ZM150.272 25.4455C150.551 25.3547 150.82 25.258 151.078 25.1554L150.708 24.2263C150.472 24.3204 150.223 24.4098 149.963 24.4945L150.272 25.4455ZM152.632 24.3838C152.889 24.2241 153.131 24.0548 153.355 23.8754L152.73 23.0946C152.539 23.2472 152.331 23.3937 152.105 23.5338L152.632 24.3838ZM153.542 23.485V22.4275H152.542V23.485H153.542ZM153.542 20.3125V18.1975H152.542V20.3125H153.542ZM153.542 16.0825V13.9675H152.542V16.0825H153.542ZM153.542 11.8525V10.795H152.542V11.8525H153.542ZM153.042 11.295H153.92V10.295H153.042V11.295ZM155.675 11.295H157.43V10.295H155.675V11.295ZM159.185 11.295H160.062V10.295H159.185V11.295ZM159.562 10.795V11.838H160.562V10.795H159.562ZM159.562 13.9241V16.0102H160.562V13.9241H159.562ZM159.562 18.0962V20.1823H160.562V18.0962H159.562ZM159.562 22.2684V24.3545H160.562V22.2684H159.562ZM159.562 26.4405V28.5266H160.562V26.4405H159.562ZM159.562 30.6127V32.6987H160.562V30.6127H159.562ZM159.562 34.7848V36.8709H160.562V34.7848H159.562ZM159.562 38.957V40H160.562V38.957H159.562ZM160.062 39.5H159.185V40.5H160.062V39.5ZM157.43 39.5H155.675V40.5H157.43V39.5ZM153.92 39.5H153.042V40.5H153.92V39.5ZM153.542 40V39.07H152.542V40H153.542ZM153.542 37.21V35.35H152.542V37.21H153.542ZM153.542 33.49V31.63H152.542V33.49H153.542ZM153.542 29.77V28.84H152.542V29.77H153.542ZM153.042 28.84H154.042V27.1302L152.552 27.9684L153.042 28.84ZM138.192 28.975L137.583 29.7682L137.591 29.7742L137.599 29.7801L138.192 28.975ZM135.672 10.795V9.795H134.672V10.795H135.672ZM142.602 10.795H143.602V9.795H142.602V10.795ZM143.637 24.835L143.043 25.6392L143.063 25.6536L143.083 25.667L143.637 24.835ZM150.117 24.97L149.808 24.019L150.117 24.97ZM153.042 23.485L153.667 24.2659L154.042 23.9656V23.485H153.042ZM153.042 10.795V9.795H152.042V10.795H153.042ZM160.062 10.795H161.062V9.795H160.062V10.795ZM160.062 40V41H161.062V40H160.062ZM153.042 40H152.042V41H153.042V40ZM152.552 27.9684C152.253 28.1369 151.945 28.2943 151.629 28.4404L152.469 30.2555C152.832 30.0875 153.187 29.9062 153.533 29.7116L152.552 27.9684ZM149.679 29.1703C149.026 29.3621 148.342 29.5147 147.627 29.6276L147.939 31.6031C148.735 31.4776 149.502 31.3065 150.242 31.0893L149.679 29.1703ZM145.516 29.84C145.166 29.8567 144.81 29.865 144.447 29.865V31.865C144.841 31.865 145.229 31.8559 145.611 31.8378L145.516 29.84ZM144.447 29.865C144.185 29.865 143.928 29.8573 143.677 29.842L143.556 31.8383C143.849 31.8562 144.146 31.865 144.447 31.865V29.865ZM142.169 29.647C141.665 29.5442 141.186 29.4054 140.732 29.2316L140.017 31.0997C140.578 31.3142 141.163 31.4829 141.77 31.6067L142.169 29.647ZM139.401 28.5819C139.19 28.4543 138.985 28.317 138.786 28.1699L137.599 29.7801C137.847 29.9627 138.102 30.1336 138.365 30.2925L139.401 28.5819ZM138.801 28.1819C138.604 28.0305 138.422 27.8647 138.253 27.6841L136.791 29.048C137.035 29.3097 137.299 29.5498 137.583 29.7682L138.801 28.1819ZM137.416 26.4376C137.208 25.9992 137.039 25.501 136.915 24.9377L134.962 25.3668C135.114 26.0604 135.329 26.7057 135.611 27.2978L137.416 26.4376ZM136.697 23.2974C136.681 23.0252 136.672 22.7428 136.672 22.45H134.672C134.672 22.78 134.682 23.102 134.7 23.4159L136.697 23.2974ZM136.672 22.45V21.4787H134.672V22.45H136.672ZM136.672 19.5362V17.5937H134.672V19.5362H136.672ZM136.672 15.6512V13.7087H134.672V15.6512H136.672ZM136.672 11.7662V10.795H134.672V11.7662H136.672ZM135.672 11.795H136.539V9.795H135.672V11.795ZM138.271 11.795H140.004V9.795H138.271V11.795ZM141.736 11.795H142.602V9.795H141.736V11.795ZM141.602 10.795V11.7212H143.602V10.795H141.602ZM141.602 13.5737V15.4262H143.602V13.5737H141.602ZM141.602 17.2787V19.1312H143.602V17.2787H141.602ZM141.602 20.9837V21.91H143.602V20.9837H141.602ZM141.602 21.91C141.602 22.2273 141.618 22.5315 141.649 22.8215L143.637 22.6044C143.615 22.3957 143.602 22.1647 143.602 21.91H141.602ZM142.248 24.7587C142.456 25.1023 142.72 25.4006 143.043 25.6392L144.232 24.0308C144.135 23.9592 144.043 23.8613 143.959 23.7226L142.248 24.7587ZM143.083 25.667C143.338 25.8371 143.61 25.9814 143.898 26.101L144.666 24.2542C144.492 24.182 144.335 24.0979 144.192 24.0029L143.083 25.667ZM145.596 26.5142C145.865 26.5417 146.143 26.555 146.427 26.555V24.555C146.205 24.555 145.996 24.5446 145.799 24.5245L145.596 26.5142ZM146.427 26.555C146.767 26.555 147.106 26.5419 147.442 26.5156L147.287 24.5217C147.002 24.5439 146.716 24.555 146.427 24.555V26.555ZM149.449 26.1973C149.778 26.1182 150.103 26.0261 150.427 25.921L149.808 24.019C149.534 24.1082 149.258 24.1862 148.981 24.253L149.449 26.1973ZM150.427 25.921C150.716 25.8271 150.994 25.7268 151.263 25.62L150.523 23.7617C150.297 23.8516 150.059 23.9374 149.808 24.019L150.427 25.921ZM152.895 24.8089C153.169 24.6393 153.426 24.4585 153.667 24.2659L152.418 22.7041C152.244 22.8434 152.052 22.9785 151.842 23.1088L152.895 24.8089ZM154.042 23.485V22.4275H152.042V23.485H154.042ZM154.042 20.3125V18.1975H152.042V20.3125H154.042ZM154.042 16.0825V13.9675H152.042V16.0825H154.042ZM154.042 11.8525V10.795H152.042V11.8525H154.042ZM153.042 11.795H153.92V9.795H153.042V11.795ZM155.675 11.795H157.43V9.795H155.675V11.795ZM159.185 11.795H160.062V9.795H159.185V11.795ZM159.062 10.795V11.838H161.062V10.795H159.062ZM159.062 13.9241V16.0102H161.062V13.9241H159.062ZM159.062 18.0962V20.1823H161.062V18.0962H159.062ZM159.062 22.2684V24.3545H161.062V22.2684H159.062ZM159.062 26.4405V28.5266H161.062V26.4405H159.062ZM159.062 30.6127V32.6987H161.062V30.6127H159.062ZM159.062 34.7848V36.8709H161.062V34.7848H159.062ZM159.062 38.957V40H161.062V38.957H159.062ZM160.062 39H159.185V41H160.062V39ZM157.43 39H155.675V41H157.43V39ZM153.92 39H153.042V41H153.92V39ZM154.042 40V39.07H152.042V40H154.042ZM154.042 37.21V35.35H152.042V37.21H154.042ZM154.042 33.49V31.63H152.042V33.49H154.042ZM154.042 29.77V28.84H152.042V29.77H154.042ZM168.61 10.795V10.295H168.11V10.795H168.61ZM175.63 10.795H176.13V10.295H175.63V10.795ZM175.63 22.495H175.13V22.995H175.63V22.495ZM188.05 22.495V22.995H188.55V22.495H188.05ZM188.05 10.795V10.295H187.55V10.795H188.05ZM195.07 10.795H195.57V10.295H195.07V10.795ZM195.07 40V40.5H195.57V40H195.07ZM188.05 40H187.55V40.5H188.05V40ZM188.05 27.49H188.55V26.99H188.05V27.49ZM175.63 27.49V26.99H175.13V27.49H175.63ZM175.63 40V40.5H176.13V40H175.63ZM168.61 40H168.11V40.5H168.61V40ZM168.11 10.795V11.838H169.11V10.795H168.11ZM168.11 13.9241V16.0102H169.11V13.9241H168.11ZM168.11 18.0962V20.1823H169.11V18.0962H168.11ZM168.11 22.2684V24.3545H169.11V22.2684H168.11ZM168.11 26.4405V28.5266H169.11V26.4405H168.11ZM168.11 30.6127V32.6987H169.11V30.6127H168.11ZM168.11 34.7848V36.8709H169.11V34.7848H168.11ZM168.11 38.957V40H169.11V38.957H168.11ZM168.61 40.5H169.487V39.5H168.61V40.5ZM171.242 40.5H172.997V39.5H171.242V40.5ZM174.752 40.5H175.63V39.5H174.752V40.5ZM176.13 40V38.9575H175.13V40H176.13ZM176.13 36.8725V34.7875H175.13V36.8725H176.13ZM176.13 32.7025V30.6175H175.13V32.7025H176.13ZM176.13 28.5325V27.49H175.13V28.5325H176.13ZM175.63 27.99H176.665V26.99H175.63V27.99ZM178.735 27.99H180.805V26.99H178.735V27.99ZM182.875 27.99H184.945V26.99H182.875V27.99ZM187.015 27.99H188.05V26.99H187.015V27.99ZM187.55 27.49V28.5325H188.55V27.49H187.55ZM187.55 30.6175V32.7025H188.55V30.6175H187.55ZM187.55 34.7875V36.8725H188.55V34.7875H187.55ZM187.55 38.9575V40H188.55V38.9575H187.55ZM188.05 40.5H188.927V39.5H188.05V40.5ZM190.682 40.5H192.437V39.5H190.682V40.5ZM194.192 40.5H195.07V39.5H194.192V40.5ZM195.57 40V38.957H194.57V40H195.57ZM195.57 36.8709V34.7848H194.57V36.8709H195.57ZM195.57 32.6987V30.6127H194.57V32.6987H195.57ZM195.57 28.5266V26.4405H194.57V28.5266H195.57ZM195.57 24.3545V22.2684H194.57V24.3545H195.57ZM195.57 20.1823V18.0963H194.57V20.1823H195.57ZM195.57 16.0102V13.9241H194.57V16.0102H195.57ZM195.57 11.838V10.795H194.57V11.838H195.57ZM195.07 10.295H194.192V11.295H195.07V10.295ZM192.437 10.295H190.682V11.295H192.437V10.295ZM188.927 10.295H188.05V11.295H188.927V10.295ZM187.55 10.795V11.77H188.55V10.795H187.55ZM187.55 13.72V15.67H188.55V13.72H187.55ZM187.55 17.62V19.57H188.55V17.62H187.55ZM187.55 21.52V22.495H188.55V21.52H187.55ZM188.05 21.995H187.015V22.995H188.05V21.995ZM184.945 21.995H182.875V22.995H184.945V21.995ZM180.805 21.995H178.735V22.995H180.805V21.995ZM176.665 21.995H175.63V22.995H176.665V21.995ZM176.13 22.495V21.52H175.13V22.495H176.13ZM176.13 19.57V17.62H175.13V19.57H176.13ZM176.13 15.67V13.72H175.13V15.67H176.13ZM176.13 11.77V10.795H175.13V11.77H176.13ZM175.63 10.295H174.752V11.295H175.63V10.295ZM172.997 10.295H171.242V11.295H172.997V10.295ZM169.487 10.295H168.61V11.295H169.487V10.295ZM168.61 10.795V9.795H167.61V10.795H168.61ZM175.63 10.795H176.63V9.795H175.63V10.795ZM175.63 22.495H174.63V23.495H175.63V22.495ZM188.05 22.495V23.495H189.05V22.495H188.05ZM188.05 10.795V9.795H187.05V10.795H188.05ZM195.07 10.795H196.07V9.795H195.07V10.795ZM195.07 40V41H196.07V40H195.07ZM188.05 40H187.05V41H188.05V40ZM188.05 27.49H189.05V26.49H188.05V27.49ZM175.63 27.49V26.49H174.63V27.49H175.63ZM175.63 40V41H176.63V40H175.63ZM168.61 40H167.61V41H168.61V40ZM167.61 10.795V11.838H169.61V10.795H167.61ZM167.61 13.9241V16.0102H169.61V13.9241H167.61ZM167.61 18.0962V20.1823H169.61V18.0962H167.61ZM167.61 22.2684V24.3545H169.61V22.2684H167.61ZM167.61 26.4405V28.5266H169.61V26.4405H167.61ZM167.61 30.6127V32.6987H169.61V30.6127H167.61ZM167.61 34.7848V36.8709H169.61V34.7848H167.61ZM167.61 38.957V40H169.61V38.957H167.61ZM168.61 41H169.487V39H168.61V41ZM171.242 41H172.997V39H171.242V41ZM174.752 41H175.63V39H174.752V41ZM176.63 40V38.9575H174.63V40H176.63ZM176.63 36.8725V34.7875H174.63V36.8725H176.63ZM176.63 32.7025V30.6175H174.63V32.7025H176.63ZM176.63 28.5325V27.49H174.63V28.5325H176.63ZM175.63 28.49H176.665V26.49H175.63V28.49ZM178.735 28.49H180.805V26.49H178.735V28.49ZM182.875 28.49H184.945V26.49H182.875V28.49ZM187.015 28.49H188.05V26.49H187.015V28.49ZM187.05 27.49V28.5325H189.05V27.49H187.05ZM187.05 30.6175V32.7025H189.05V30.6175H187.05ZM187.05 34.7875V36.8725H189.05V34.7875H187.05ZM187.05 38.9575V40H189.05V38.9575H187.05ZM188.05 41H188.927V39H188.05V41ZM190.682 41H192.437V39H190.682V41ZM194.192 41H195.07V39H194.192V41ZM196.07 40V38.957H194.07V40H196.07ZM196.07 36.8709V34.7848H194.07V36.8709H196.07ZM196.07 32.6987V30.6127H194.07V32.6987H196.07ZM196.07 28.5266V26.4405H194.07V28.5266H196.07ZM196.07 24.3545V22.2684H194.07V24.3545H196.07ZM196.07 20.1823V18.0963H194.07V20.1823H196.07ZM196.07 16.0102V13.9241H194.07V16.0102H196.07ZM196.07 11.838V10.795H194.07V11.838H196.07ZM195.07 9.795H194.192V11.795H195.07V9.795ZM192.437 9.795H190.682V11.795H192.437V9.795ZM188.927 9.795H188.05V11.795H188.927V9.795ZM187.05 10.795V11.77H189.05V10.795H187.05ZM187.05 13.72V15.67H189.05V13.72H187.05ZM187.05 17.62V19.57H189.05V17.62H187.05ZM187.05 21.52V22.495H189.05V21.52H187.05ZM188.05 21.495H187.015V23.495H188.05V21.495ZM184.945 21.495H182.875V23.495H184.945V21.495ZM180.805 21.495H178.735V23.495H180.805V21.495ZM176.665 21.495H175.63V23.495H176.665V21.495ZM176.63 22.495V21.52H174.63V22.495H176.63ZM176.63 19.57V17.62H174.63V19.57H176.63ZM176.63 15.67V13.72H174.63V15.67H176.63ZM176.63 11.77V10.795H174.63V11.77H176.63ZM175.63 9.795H174.752V11.795H175.63V9.795ZM172.997 9.795H171.242V11.795H172.997V9.795ZM169.487 9.795H168.61V11.795H169.487V9.795ZM203.599 10.795V10.295H203.099V10.795H203.599ZM210.619 10.795H211.119V10.295H210.619V10.795ZM210.619 21.505H210.119V22.005H210.619V21.505ZM224.704 23.665L224.362 24.0298L224.368 24.0355L224.704 23.665ZM203.599 40H203.099V40.5H203.599V40ZM230.599 10.795V10.295H230.099V10.795H230.599ZM237.619 10.795H238.119V10.295H237.619V10.795ZM237.619 40V40.5H238.119V40H237.619ZM230.599 40H230.099V40.5H230.599V40ZM217.909 34.285L218.164 34.7153L218.176 34.7081L217.909 34.285ZM217.954 26.995L217.759 27.4555V27.4555L217.954 26.995ZM210.574 26.5V26H210.074V26.5H210.574ZM210.574 35.005H210.074V35.505H210.574V35.005ZM203.099 10.795V11.838H204.099V10.795H203.099ZM203.099 13.9241V16.0102H204.099V13.9241H203.099ZM203.099 18.0962V20.1823H204.099V18.0962H203.099ZM203.099 22.2684V24.3545H204.099V22.2684H203.099ZM203.099 26.4405V28.5266H204.099V26.4405H203.099ZM203.099 30.6127V32.6987H204.099V30.6127H203.099ZM203.099 34.7848V36.8709H204.099V34.7848H203.099ZM203.099 38.957V40H204.099V38.957H203.099ZM203.599 40.5H204.495V39.5H203.599V40.5ZM206.288 40.5H208.08V39.5H206.288V40.5ZM209.873 40.5H211.665V39.5H209.873V40.5ZM213.458 40.5H214.354V39.5H213.458V40.5ZM214.354 40.5C214.687 40.5 215.013 40.4959 215.332 40.4877L215.306 39.4881C214.996 39.496 214.679 39.5 214.354 39.5V40.5ZM217.283 40.3793C217.97 40.3185 218.621 40.2345 219.234 40.127L219.061 39.142C218.479 39.2441 217.857 39.3246 217.195 39.3832L217.283 40.3793ZM221.164 39.6743C221.847 39.4668 222.471 39.2188 223.033 38.9286L222.574 38.04C222.073 38.2987 221.507 38.525 220.873 38.7174L221.164 39.6743ZM224.723 37.7584C225.248 37.2688 225.669 36.712 225.981 36.089L225.087 35.6409C224.83 36.1534 224.483 36.6151 224.041 37.0271L224.723 37.7584ZM226.579 34.0961C226.623 33.7647 226.644 33.4226 226.644 33.07H225.644C225.644 33.3818 225.625 33.6802 225.588 33.9654L226.579 34.0961ZM226.644 33.07V31.6975H225.644V33.07H226.644ZM226.644 28.9525V27.58H225.644V28.9525H226.644ZM226.644 27.58C226.644 27.1823 226.62 26.8026 226.572 26.4414L225.581 26.5746C225.623 26.887 225.644 27.222 225.644 27.58H226.644ZM225.815 24.2224C225.599 23.8763 225.34 23.5666 225.04 23.2945L224.368 24.0355C224.6 24.245 224.799 24.4836 224.967 24.7524L225.815 24.2224ZM225.046 23.3002C224.761 23.0333 224.45 22.7927 224.112 22.5783L223.576 23.4225C223.863 23.6046 224.125 23.807 224.362 24.0298L225.046 23.3002ZM221.986 21.6587C221.63 21.5607 221.258 21.4801 220.87 21.4166L220.708 22.4034C221.064 22.4617 221.401 22.5349 221.72 22.6227L221.986 21.6587ZM220.87 21.4166C220.608 21.3736 220.334 21.3342 220.048 21.2981L219.923 22.2902C220.197 22.3249 220.459 22.3627 220.708 22.4034L220.87 21.4166ZM218.405 21.1372C217.888 21.0993 217.341 21.0695 216.765 21.048L216.728 22.0473C217.293 22.0684 217.828 22.0976 218.332 22.1346L218.405 21.1372ZM215.127 21.0094C214.86 21.0065 214.587 21.005 214.309 21.005V22.005C214.584 22.005 214.853 22.0064 215.116 22.0093L215.127 21.0094ZM214.309 21.005H213.387V22.005H214.309V21.005ZM211.542 21.005H210.619V22.005H211.542V21.005ZM211.119 21.505V20.6125H210.119V21.505H211.119ZM211.119 18.8275V17.0425H210.119V18.8275H211.119ZM211.119 15.2575V13.4725H210.119V15.2575H211.119ZM211.119 11.6875V10.795H210.119V11.6875H211.119ZM210.619 10.295H209.742V11.295H210.619V10.295ZM207.987 10.295H206.232V11.295H207.987V10.295ZM204.477 10.295H203.599V11.295H204.477V10.295ZM230.099 10.795V11.838H231.099V10.795H230.099ZM230.099 13.9241V16.0102H231.099V13.9241H230.099ZM230.099 18.0962V20.1823H231.099V18.0962H230.099ZM230.099 22.2684V24.3545H231.099V22.2684H230.099ZM230.099 26.4405V28.5266H231.099V26.4405H230.099ZM230.099 30.6127V32.6987H231.099V30.6127H230.099ZM230.099 34.7848V36.8709H231.099V34.7848H230.099ZM230.099 38.957V40H231.099V38.957H230.099ZM230.599 40.5H231.477V39.5H230.599V40.5ZM233.232 40.5H234.987V39.5H233.232V40.5ZM236.742 40.5H237.619V39.5H236.742V40.5ZM238.119 40V38.957H237.119V40H238.119ZM238.119 36.8709V34.7848H237.119V36.8709H238.119ZM238.119 32.6987V30.6127H237.119V32.6987H238.119ZM238.119 28.5266V26.4405H237.119V28.5266H238.119ZM238.119 24.3545V22.2684H237.119V24.3545H238.119ZM238.119 20.1823V18.0963H237.119V20.1823H238.119ZM238.119 16.0102V13.9241H237.119V16.0102H238.119ZM238.119 11.838V10.795H237.119V11.838H238.119ZM237.619 10.295H236.742V11.295H237.619V10.295ZM234.987 10.295H233.232V11.295H234.987V10.295ZM231.477 10.295H230.599V11.295H231.477V10.295ZM214.039 34.505H213.173V35.505H214.039V34.505ZM211.44 34.505H210.574V35.505H211.44V34.505ZM211.074 35.005V33.9419H210.074V35.005H211.074ZM211.074 31.8156V29.6894H210.074V31.8156H211.074ZM211.074 27.5631V26.5H210.074V27.5631H211.074ZM210.574 27H211.463V26H210.574V27ZM213.24 27H214.129V26H213.24V27ZM214.129 27C214.465 27 214.781 27.006 215.079 27.018L215.119 26.0188C214.807 26.0063 214.477 26 214.129 26V27ZM216.927 27.2135C217.267 27.2817 217.543 27.3637 217.759 27.4555L218.149 26.5345C217.854 26.4095 217.51 26.3104 217.124 26.233L216.927 27.2135ZM217.759 27.4555C217.915 27.5211 218.042 27.5981 218.147 27.6838L218.78 26.9095C218.593 26.757 218.382 26.6329 218.149 26.5345L217.759 27.4555ZM218.575 28.4048C218.607 28.5451 218.624 28.7045 218.624 28.885H219.624C219.624 28.6412 219.601 28.4074 219.551 28.1859L218.575 28.4048ZM218.624 28.885V29.6612H219.624V28.885H218.624ZM218.624 31.2137V31.99H219.624V31.2137H218.624ZM218.624 31.99C218.624 32.1985 218.605 32.389 218.568 32.563L219.546 32.7697C219.599 32.5209 219.624 32.2605 219.624 31.99H218.624ZM218.076 33.5126C217.956 33.6385 217.812 33.7553 217.643 33.8619L218.176 34.7081C218.408 34.5616 218.617 34.3939 218.799 34.2039L218.076 33.5126ZM217.654 33.8549C217.441 33.9816 217.176 34.0946 216.853 34.1894L217.136 35.1487C217.52 35.0357 217.865 34.8927 218.164 34.7151L217.654 33.8549ZM215.004 34.4777C214.702 34.4958 214.381 34.505 214.039 34.505V35.505C214.398 35.505 214.74 35.4954 215.064 35.4759L215.004 34.4777ZM203.599 10.795V9.795H202.599V10.795H203.599ZM210.619 10.795H211.619V9.795H210.619V10.795ZM210.619 21.505H209.619V22.505H210.619V21.505ZM224.704 23.665L224.02 24.3945L224.026 24.4003L224.033 24.406L224.704 23.665ZM203.599 40H202.599V41H203.599V40ZM230.599 10.795V9.795H229.599V10.795H230.599ZM237.619 10.795H238.619V9.795H237.619V10.795ZM237.619 40V41H238.619V40H237.619ZM230.599 40H229.599V41H230.599V40ZM217.909 34.285L218.419 35.1453L218.431 35.1384L218.442 35.1312L217.909 34.285ZM217.954 26.995L217.565 27.916L217.954 26.995ZM210.574 26.5V25.5H209.574V26.5H210.574ZM210.574 35.005H209.574V36.005H210.574V35.005ZM202.599 10.795V11.838H204.599V10.795H202.599ZM202.599 13.9241V16.0102H204.599V13.9241H202.599ZM202.599 18.0962V20.1823H204.599V18.0962H202.599ZM202.599 22.2684V24.3545H204.599V22.2684H202.599ZM202.599 26.4405V28.5266H204.599V26.4405H202.599ZM202.599 30.6127V32.6987H204.599V30.6127H202.599ZM202.599 34.7848V36.8709H204.599V34.7848H202.599ZM202.599 38.957V40H204.599V38.957H202.599ZM203.599 41H204.495V39H203.599V41ZM206.288 41H208.08V39H206.288V41ZM209.873 41H211.665V39H209.873V41ZM213.458 41H214.354V39H213.458V41ZM214.354 41C214.691 41 215.021 40.9959 215.344 40.9876L215.293 38.9882C214.987 38.9961 214.674 39 214.354 39V41ZM217.327 40.8773C218.027 40.8154 218.691 40.7297 219.32 40.6195L218.975 38.6495C218.408 38.7489 217.8 38.8276 217.151 38.8851L217.327 40.8773ZM221.309 40.1527C222.017 39.9377 222.669 39.6789 223.262 39.3728L222.344 37.5958C221.874 37.8386 221.337 38.0541 220.728 38.239L221.309 40.1527ZM225.064 38.1241C225.631 37.5956 226.088 36.9913 226.428 36.313L224.64 35.4169C224.411 35.874 224.1 36.2883 223.7 36.6614L225.064 38.1241ZM227.075 34.1614C227.121 33.807 227.144 33.4429 227.144 33.07H225.144C225.144 33.3614 225.126 33.6379 225.092 33.9001L227.075 34.1614ZM227.144 33.07V31.6975H225.144V33.07H227.144ZM227.144 28.9525V27.58H225.144V28.9525H227.144ZM227.144 27.58C227.144 27.1624 227.119 26.7603 227.067 26.3748L225.085 26.6412C225.124 26.9293 225.144 27.2418 225.144 27.58H227.144ZM226.239 23.9574C225.999 23.5727 225.71 23.2274 225.376 22.924L224.033 24.406C224.229 24.5842 224.399 24.7872 224.543 25.0174L226.239 23.9574ZM225.388 22.9355C225.08 22.6465 224.743 22.3868 224.38 22.1562L223.308 23.8447C223.569 24.0105 223.806 24.1939 224.02 24.3945L225.388 22.9355ZM222.118 21.1766C221.745 21.0736 221.355 20.9893 220.951 20.9231L220.628 22.8969C220.967 22.9524 221.287 23.022 221.587 23.1047L222.118 21.1766ZM220.951 20.9231C220.682 20.8791 220.402 20.8388 220.11 20.802L219.86 22.7863C220.129 22.8203 220.385 22.8572 220.628 22.8969L220.951 20.9231ZM218.442 20.6386C217.918 20.6001 217.365 20.5701 216.784 20.5483L216.709 22.5469C217.269 22.5679 217.798 22.5967 218.295 22.6332L218.442 20.6386ZM215.133 20.5094C214.864 20.5065 214.589 20.505 214.309 20.505V22.505C214.582 22.505 214.849 22.5064 215.111 22.5093L215.133 20.5094ZM214.309 20.505H213.387V22.505H214.309V20.505ZM211.542 20.505H210.619V22.505H211.542V20.505ZM211.619 21.505V20.6125H209.619V21.505H211.619ZM211.619 18.8275V17.0425H209.619V18.8275H211.619ZM211.619 15.2575V13.4725H209.619V15.2575H211.619ZM211.619 11.6875V10.795H209.619V11.6875H211.619ZM210.619 9.795H209.742V11.795H210.619V9.795ZM207.987 9.795H206.232V11.795H207.987V9.795ZM204.477 9.795H203.599V11.795H204.477V9.795ZM229.599 10.795V11.838H231.599V10.795H229.599ZM229.599 13.9241V16.0102H231.599V13.9241H229.599ZM229.599 18.0962V20.1823H231.599V18.0962H229.599ZM229.599 22.2684V24.3545H231.599V22.2684H229.599ZM229.599 26.4405V28.5266H231.599V26.4405H229.599ZM229.599 30.6127V32.6987H231.599V30.6127H229.599ZM229.599 34.7848V36.8709H231.599V34.7848H229.599ZM229.599 38.957V40H231.599V38.957H229.599ZM230.599 41H231.477V39H230.599V41ZM233.232 41H234.987V39H233.232V41ZM236.742 41H237.619V39H236.742V41ZM238.619 40V38.957H236.619V40H238.619ZM238.619 36.8709V34.7848H236.619V36.8709H238.619ZM238.619 32.6987V30.6127H236.619V32.6987H238.619ZM238.619 28.5266V26.4405H236.619V28.5266H238.619ZM238.619 24.3545V22.2684H236.619V24.3545H238.619ZM238.619 20.1823V18.0963H236.619V20.1823H238.619ZM238.619 16.0102V13.9241H236.619V16.0102H238.619ZM238.619 11.838V10.795H236.619V11.838H238.619ZM237.619 9.795H236.742V11.795H237.619V9.795ZM234.987 9.795H233.232V11.795H234.987V9.795ZM231.477 9.795H230.599V11.795H231.477V9.795ZM214.039 34.005H213.173V36.005H214.039V34.005ZM211.44 34.005H210.574V36.005H211.44V34.005ZM211.574 35.005V33.9419H209.574V35.005H211.574ZM211.574 31.8156V29.6894H209.574V31.8156H211.574ZM211.574 27.5631V26.5H209.574V27.5631H211.574ZM210.574 27.5H211.463V25.5H210.574V27.5ZM213.24 27.5H214.129V25.5H213.24V27.5ZM214.129 27.5C214.459 27.5 214.769 27.5059 215.059 27.5176L215.139 25.5193C214.819 25.5064 214.483 25.5 214.129 25.5V27.5ZM216.829 27.7037C217.146 27.7673 217.387 27.8409 217.565 27.916L218.344 26.074C218.009 25.9324 217.631 25.8247 217.222 25.7428L216.829 27.7037ZM217.565 27.916C217.681 27.9652 217.767 28.0187 217.831 28.0709L219.096 26.5224C218.869 26.3364 218.615 26.1888 218.344 26.074L217.565 27.916ZM218.088 28.5142C218.11 28.6139 218.124 28.7361 218.124 28.885H220.124C220.124 28.6095 220.098 28.3386 220.039 28.0764L218.088 28.5142ZM218.124 28.885V29.6612H220.124V28.885H218.124ZM218.124 31.2137V31.99H220.124V31.2137H218.124ZM218.124 31.99C218.124 32.1674 218.108 32.3231 218.079 32.4596L220.036 32.873C220.096 32.5868 220.124 32.2916 220.124 31.99H218.124ZM217.715 33.1669C217.625 33.2608 217.514 33.3521 217.376 33.4388L218.442 35.1312C218.706 34.9647 218.948 34.7716 219.16 34.5495L217.715 33.1669ZM217.399 33.4247C217.228 33.526 217.003 33.624 216.712 33.7097L217.277 35.6283C217.692 35.5062 218.077 35.3482 218.419 35.1453L217.399 33.4247ZM214.974 33.9786C214.683 33.9961 214.372 34.005 214.039 34.005V36.005C214.407 36.005 214.759 35.9951 215.094 35.975L214.974 33.9786ZM246.191 10.795V10.295H245.691V10.795H246.191ZM253.211 10.795H253.711V10.295H253.211V10.795ZM253.211 30.775H252.711V32.5052L253.634 31.0417L253.211 30.775ZM265.811 10.795V10.295H265.535L265.388 10.5283L265.811 10.795ZM272.831 10.795H273.331V10.295H272.831V10.795ZM272.831 40V40.5H273.331V40H272.831ZM265.811 40H265.311V40.5H265.811V40ZM265.811 19.705H266.311V17.9517L265.386 19.4413L265.811 19.705ZM253.211 40V40.5H253.489L253.636 40.2637L253.211 40ZM246.191 40H245.691V40.5H246.191V40ZM252.806 5.755L252.479 6.1336L252.484 6.13726L252.806 5.755ZM250.511 0.624997V0.124997H250.011V0.624997H250.511ZM256.136 0.624997L256.633 0.567247L256.581 0.124997H256.136V0.624997ZM257.126 3.37L256.763 3.71331L256.767 3.7185L256.772 3.72355L257.126 3.37ZM261.941 3.37L261.587 3.01645L261.582 3.0215L261.578 3.02669L261.941 3.37ZM262.976 0.624997V0.124997H262.531L262.479 0.567247L262.976 0.624997ZM268.601 0.624997H269.101V0.124997H268.601V0.624997ZM266.306 5.755L266.628 6.13728L266.633 6.13358L266.306 5.755ZM245.691 10.795V11.838H246.691V10.795H245.691ZM245.691 13.9241V16.0102H246.691V13.9241H245.691ZM245.691 18.0962V20.1823H246.691V18.0962H245.691ZM245.691 22.2684V24.3545H246.691V22.2684H245.691ZM245.691 26.4405V28.5266H246.691V26.4405H245.691ZM245.691 30.6127V32.6987H246.691V30.6127H245.691ZM245.691 34.7848V36.8709H246.691V34.7848H245.691ZM245.691 38.957V40H246.691V38.957H245.691ZM246.191 40.5H247.069V39.5H246.191V40.5ZM248.824 40.5H250.579V39.5H248.824V40.5ZM252.334 40.5H253.211V39.5H252.334V40.5ZM253.636 40.2637L254.161 39.4181L253.311 38.8906L252.786 39.7363L253.636 40.2637ZM255.211 37.7269L256.261 36.0356L255.411 35.5081L254.361 37.1994L255.211 37.7269ZM257.311 34.3444L258.361 32.6531L257.511 32.1256L256.461 33.8169L257.311 34.3444ZM259.411 30.9619L260.461 29.2706L259.611 28.7431L258.561 30.4344L259.411 30.9619ZM261.511 27.5794L262.561 25.8881L261.711 25.3606L260.661 27.0519L261.511 27.5794ZM263.611 24.1969L264.661 22.5056L263.811 21.9781L262.761 23.6694L263.611 24.1969ZM265.711 20.8144L266.236 19.9687L265.386 19.4413L264.861 20.2869L265.711 20.8144ZM265.311 19.705V20.7197H266.311V19.705H265.311ZM265.311 22.7492V24.7787H266.311V22.7492H265.311ZM265.311 26.8082V28.8377H266.311V26.8082H265.311ZM265.311 30.8672V32.8967H266.311V30.8672H265.311ZM265.311 34.9262V36.9557H266.311V34.9262H265.311ZM265.311 38.9853V40H266.311V38.9853H265.311ZM265.811 40.5H266.689V39.5H265.811V40.5ZM268.444 40.5H270.199V39.5H268.444V40.5ZM271.954 40.5H272.831V39.5H271.954V40.5ZM273.331 40V38.957H272.331V40H273.331ZM273.331 36.8709V34.7848H272.331V36.8709H273.331ZM273.331 32.6987V30.6127H272.331V32.6987H273.331ZM273.331 28.5266V26.4405H272.331V28.5266H273.331ZM273.331 24.3545V22.2684H272.331V24.3545H273.331ZM273.331 20.1823V18.0963H272.331V20.1823H273.331ZM273.331 16.0102V13.9241H272.331V16.0102H273.331ZM273.331 11.838V10.795H272.331V11.838H273.331ZM272.831 10.295H271.954V11.295H272.831V10.295ZM270.199 10.295H268.444V11.295H270.199V10.295ZM266.689 10.295H265.811V11.295H266.689V10.295ZM265.388 10.5283L264.863 11.3608L265.709 11.8942L266.234 11.0617L265.388 10.5283ZM263.813 13.0258L262.763 14.6908L263.609 15.2242L264.659 13.5592L263.813 13.0258ZM261.713 16.3558L260.663 18.0208L261.509 18.5542L262.559 16.8892L261.713 16.3558ZM259.613 19.6858L258.563 21.3508L259.409 21.8842L260.459 20.2192L259.613 19.6858ZM257.513 23.0158L256.463 24.6808L257.309 25.2142L258.359 23.5492L257.513 23.0158ZM255.413 26.3458L254.363 28.0108L255.209 28.5442L256.259 26.8792L255.413 26.3458ZM253.313 29.6758L252.788 30.5083L253.634 31.0417L254.159 30.2092L253.313 29.6758ZM253.711 30.775V29.776H252.711V30.775H253.711ZM253.711 27.778V25.78H252.711V27.778H253.711ZM253.711 23.782V21.784H252.711V23.782H253.711ZM253.711 19.786V17.788H252.711V19.786H253.711ZM253.711 15.79V13.792H252.711V15.79H253.711ZM253.711 11.794V10.795H252.711V11.794H253.711ZM253.211 10.295H252.334V11.295H253.211V10.295ZM250.579 10.295H248.824V11.295H250.579V10.295ZM247.069 10.295H246.191V11.295H247.069V10.295ZM259.556 7.19C259.257 7.19 258.966 7.1833 258.684 7.16997L258.637 8.16886C258.936 8.18297 259.242 8.19 259.556 8.19V7.19ZM256.962 6.99101C256.363 6.89019 255.812 6.75164 255.307 6.57667L254.98 7.52149C255.543 7.7167 256.149 7.86815 256.796 7.97714L256.962 6.99101ZM253.796 5.86011C253.558 5.70999 253.336 5.5475 253.128 5.37274L252.484 6.13726C252.727 6.34238 252.986 6.5318 253.262 6.70564L253.796 5.86011ZM253.133 5.37642C252.778 5.07062 252.47 4.74471 252.207 4.39907L251.411 5.00439C251.719 5.40883 252.075 5.78511 252.479 6.13358L253.133 5.37642ZM251.134 1.97531C251.053 1.54962 251.011 1.09979 251.011 0.624997H250.011C250.011 1.15818 250.058 1.67139 250.152 2.16383L251.134 1.97531ZM250.511 1.125H251.917V0.124997H250.511V1.125ZM254.73 1.125H256.136V0.124997H254.73V1.125ZM255.639 0.682748C255.671 0.953442 255.71 1.21048 255.758 1.45354L256.739 1.26194C256.697 1.04683 256.662 0.815377 256.633 0.567247L255.639 0.682748ZM256.261 2.99242C256.402 3.2652 256.568 3.50753 256.763 3.71331L257.49 3.02669C257.369 2.89912 257.255 2.73664 257.149 2.53315L256.261 2.99242ZM256.772 3.72355C256.959 3.91032 257.171 4.06914 257.406 4.20034L257.894 3.32731C257.736 3.23927 257.599 3.13554 257.48 3.01645L256.772 3.72355ZM258.841 4.63938C259.069 4.6667 259.307 4.68 259.556 4.68V3.68C259.343 3.68 259.144 3.66858 258.959 3.64648L258.841 4.63938ZM259.556 4.68C259.802 4.68 260.037 4.66703 260.261 4.64034L260.143 3.64733C259.962 3.66886 259.767 3.68 259.556 3.68V4.68ZM261.681 4.20146C261.915 4.06779 262.123 3.90522 262.305 3.71331L261.578 3.02669C261.467 3.14408 261.336 3.24651 261.184 3.33357L261.681 4.20146ZM262.295 3.72355C262.498 3.52051 262.672 3.28091 262.82 3.01041L261.943 2.5303C261.834 2.72951 261.714 2.88968 261.587 3.01645L262.295 3.72355ZM263.351 1.46119C263.4 1.21571 263.441 0.95611 263.473 0.682748L262.479 0.567247C262.45 0.816358 262.414 1.04848 262.371 1.26395L263.351 1.46119ZM262.976 1.125H264.382V0.124997H262.976V1.125ZM267.195 1.125H268.601V0.124997H267.195V1.125ZM268.101 0.624997C268.101 1.09979 268.06 1.54962 267.978 1.97531L268.96 2.16383C269.054 1.67139 269.101 1.15818 269.101 0.624997H268.101ZM266.905 4.39907C266.642 4.74471 266.334 5.07062 265.979 5.37642L266.633 6.13358C267.037 5.78511 267.393 5.40883 267.701 5.00439L266.905 4.39907ZM265.984 5.37274C265.776 5.5475 265.554 5.70999 265.316 5.86011L265.85 6.70564C266.126 6.5318 266.385 6.34238 266.628 6.13726L265.984 5.37274ZM263.805 6.57667C263.3 6.75164 262.749 6.89019 262.15 6.99101L262.316 7.97714C262.963 7.86815 263.569 7.7167 264.132 7.52149L263.805 6.57667ZM260.428 7.16997C260.146 7.1833 259.855 7.19 259.556 7.19V8.19C259.87 8.19 260.176 8.18297 260.475 8.16886L260.428 7.16997ZM246.191 10.795V9.795H245.191V10.795H246.191ZM253.211 10.795H254.211V9.795H253.211V10.795ZM253.211 30.775H252.211V34.2354L254.057 31.3084L253.211 30.775ZM265.811 10.795V9.795H265.259L264.965 10.2616L265.811 10.795ZM272.831 10.795H273.831V9.795H272.831V10.795ZM272.831 40V41H273.831V40H272.831ZM265.811 40H264.811V41H265.811V40ZM265.811 19.705H266.811V16.1984L264.961 19.1775L265.811 19.705ZM253.211 40V41H253.767L254.061 40.5275L253.211 40ZM246.191 40H245.191V41H246.191V40ZM252.806 5.755L252.153 6.5122L252.161 6.51952L252.806 5.755ZM250.511 0.624997V-0.375003H249.511V0.624997H250.511ZM256.136 0.624997L257.129 0.509497L257.026 -0.375003H256.136V0.624997ZM257.126 3.37L256.399 4.05662L256.409 4.06701L256.419 4.07711L257.126 3.37ZM261.941 3.37L261.234 2.66289L261.224 2.67299L261.214 2.68338L261.941 3.37ZM262.976 0.624997V-0.375003H262.086L261.983 0.509497L262.976 0.624997ZM268.601 0.624997H269.601V-0.375003H268.601V0.624997ZM266.306 5.755L266.951 6.51957L266.959 6.51215L266.306 5.755ZM245.191 10.795V11.838H247.191V10.795H245.191ZM245.191 13.9241V16.0102H247.191V13.9241H245.191ZM245.191 18.0962V20.1823H247.191V18.0962H245.191ZM245.191 22.2684V24.3545H247.191V22.2684H245.191ZM245.191 26.4405V28.5266H247.191V26.4405H245.191ZM245.191 30.6127V32.6987H247.191V30.6127H245.191ZM245.191 34.7848V36.8709H247.191V34.7848H245.191ZM245.191 38.957V40H247.191V38.957H245.191ZM246.191 41H247.069V39H246.191V41ZM248.824 41H250.579V39H248.824V41ZM252.334 41H253.211V39H252.334V41ZM254.061 40.5275L254.586 39.6818L252.886 38.6269L252.361 39.4725L254.061 40.5275ZM255.636 37.9906L256.686 36.2993L254.986 35.2444L253.936 36.9357L255.636 37.9906ZM257.736 34.6081L258.786 32.9168L257.086 31.8619L256.036 33.5532L257.736 34.6081ZM259.836 31.2256L260.886 29.5343L259.186 28.4794L258.136 30.1707L259.836 31.2256ZM261.936 27.8431L262.986 26.1518L261.286 25.0969L260.236 26.7882L261.936 27.8431ZM264.036 24.4606L265.086 22.7693L263.386 21.7144L262.336 23.4057L264.036 24.4606ZM266.136 21.0781L266.661 20.2325L264.961 19.1775L264.436 20.0232L266.136 21.0781ZM264.811 19.705V20.7197H266.811V19.705H264.811ZM264.811 22.7492V24.7787H266.811V22.7492H264.811ZM264.811 26.8082V28.8377H266.811V26.8082H264.811ZM264.811 30.8672V32.8967H266.811V30.8672H264.811ZM264.811 34.9262V36.9557H266.811V34.9262H264.811ZM264.811 38.9853V40H266.811V38.9853H264.811ZM265.811 41H266.689V39H265.811V41ZM268.444 41H270.199V39H268.444V41ZM271.954 41H272.831V39H271.954V41ZM273.831 40V38.957H271.831V40H273.831ZM273.831 36.8709V34.7848H271.831V36.8709H273.831ZM273.831 32.6987V30.6127H271.831V32.6987H273.831ZM273.831 28.5266V26.4405H271.831V28.5266H273.831ZM273.831 24.3545V22.2684H271.831V24.3545H273.831ZM273.831 20.1823V18.0963H271.831V20.1823H273.831ZM273.831 16.0102V13.9241H271.831V16.0102H273.831ZM273.831 11.838V10.795H271.831V11.838H273.831ZM272.831 9.795H271.954V11.795H272.831V9.795ZM270.199 9.795H268.444V11.795H270.199V9.795ZM266.689 9.795H265.811V11.795H266.689V9.795ZM264.965 10.2616L264.44 11.0941L266.132 12.1609L266.657 11.3284L264.965 10.2616ZM263.39 12.7591L262.34 14.4241L264.032 15.4909L265.082 13.8259L263.39 12.7591ZM261.29 16.0891L260.24 17.7541L261.932 18.8209L262.982 17.1559L261.29 16.0891ZM259.19 19.4191L258.14 21.0841L259.832 22.1509L260.882 20.4859L259.19 19.4191ZM257.09 22.7491L256.04 24.4141L257.732 25.4809L258.782 23.8159L257.09 22.7491ZM254.99 26.0791L253.94 27.7441L255.632 28.8109L256.682 27.1459L254.99 26.0791ZM252.89 29.4091L252.365 30.2416L254.057 31.3084L254.582 30.4759L252.89 29.4091ZM254.211 30.775V29.776H252.211V30.775H254.211ZM254.211 27.778V25.78H252.211V27.778H254.211ZM254.211 23.782V21.784H252.211V23.782H254.211ZM254.211 19.786V17.788H252.211V19.786H254.211ZM254.211 15.79V13.792H252.211V15.79H254.211ZM254.211 11.794V10.795H252.211V11.794H254.211ZM253.211 9.795H252.334V11.795H253.211V9.795ZM250.579 9.795H248.824V11.795H250.579V9.795ZM247.069 9.795H246.191V11.795H247.069V9.795ZM259.556 6.69C259.265 6.69 258.982 6.68347 258.707 6.67053L258.613 8.66831C258.92 8.68281 259.235 8.69 259.556 8.69V6.69ZM257.045 6.49795C256.471 6.40121 255.947 6.2691 255.471 6.10426L254.816 7.99391C255.408 8.19923 256.041 8.35712 256.713 8.47021L257.045 6.49795ZM254.063 5.43735C253.844 5.29909 253.64 5.15006 253.451 4.99048L252.161 6.51952C252.423 6.73982 252.701 6.94271 252.995 7.1284L254.063 5.43735ZM253.459 4.99784C253.13 4.71337 252.846 4.41265 252.605 4.09641L251.013 5.30704C251.343 5.74089 251.724 6.14235 252.153 6.51215L253.459 4.99784ZM251.625 1.88104C251.55 1.48873 251.511 1.0706 251.511 0.624997H249.511C249.511 1.18737 249.56 1.73228 249.661 2.25809L251.625 1.88104ZM250.511 1.625H251.917V-0.375003H250.511V1.625ZM254.73 1.625H256.136V-0.375003H254.73V1.625ZM255.143 0.740498C255.176 1.02247 255.217 1.2923 255.267 1.54935L257.23 1.16613C257.191 0.96501 257.157 0.746344 257.129 0.509497L255.143 0.740498ZM255.817 3.22205C255.976 3.52948 256.168 3.81173 256.399 4.05662L257.853 2.68338C257.769 2.59491 257.681 2.47235 257.594 2.30351L255.817 3.22205ZM256.419 4.07711C256.64 4.29771 256.889 4.48407 257.162 4.63685L258.137 2.89079C258.018 2.82433 257.918 2.74814 257.833 2.66289L256.419 4.07711ZM258.781 5.13583C259.031 5.16576 259.29 5.18 259.556 5.18V3.18C259.36 3.18 259.182 3.16952 259.019 3.15002L258.781 5.13583ZM259.556 5.18C259.819 5.18 260.074 5.16611 260.32 5.13684L260.084 3.15083C259.925 3.16978 259.749 3.18 259.556 3.18V5.18ZM261.929 4.6354C262.204 4.47843 262.452 4.28579 262.668 4.05662L261.214 2.68338C261.138 2.76351 261.047 2.83588 260.936 2.89962L261.929 4.6354ZM262.648 4.07711C262.889 3.83592 263.091 3.55661 263.258 3.25046L261.504 2.29025C261.414 2.4538 261.323 2.57426 261.234 2.66289L262.648 4.07711ZM263.841 1.55981C263.894 1.29932 263.936 1.02599 263.969 0.740498L261.983 0.509497C261.955 0.746481 261.921 0.964859 261.881 1.16533L263.841 1.55981ZM262.976 1.625H264.382V-0.375003H262.976V1.625ZM267.195 1.625H268.601V-0.375003H267.195V1.625ZM267.601 0.624997C267.601 1.0706 267.562 1.48873 267.487 1.88105L269.451 2.25809C269.552 1.73228 269.601 1.18737 269.601 0.624997H267.601ZM266.507 4.09641C266.266 4.41265 265.983 4.71337 265.653 4.99784L266.959 6.51215C267.388 6.14235 267.769 5.74089 268.099 5.30705L266.507 4.09641ZM265.661 4.99048C265.472 5.15006 265.268 5.29909 265.049 5.43735L266.117 7.1284C266.411 6.94271 266.689 6.73982 266.951 6.51952L265.661 4.99048ZM263.641 6.10426C263.165 6.2691 262.642 6.40121 262.067 6.49795L262.399 8.47021C263.071 8.35712 263.704 8.19923 264.296 7.99391L263.641 6.10426ZM260.405 6.67053C260.13 6.68347 259.847 6.69 259.556 6.69V8.69C259.877 8.69 260.192 8.68281 260.499 8.66831L260.405 6.67053Z" fill="#77C2F9" fill-opacity="0.9"/>
</svg>
