<svg width="27" height="27" viewBox="0 0 27 27" fill="none" xmlns="http://www.w3.org/2000/svg">
<g clip-path="url(#clip0_123_129)">
<path d="M23.3654 7.8617C24.8192 7.8617 25.9615 9.00404 25.9615 10.4578C25.9615 11.9116 24.8191 13.054 23.3654 13.054L20.873 13.054C21.4961 13.677 22.4308 14.0924 23.3654 14.0924C25.3385 14.0925 27 12.4309 27 10.4579C27 8.48483 25.3385 6.82324 23.3654 6.82324C22.3269 6.82324 21.4961 7.23863 20.8731 7.8617L23.3654 7.8617Z" fill="#69C0FF"/>
<path d="M17.6539 22.9195C17.6539 22.0887 16.9269 21.3617 16.0961 21.3617L13.8115 21.3617L13.5 21.3617L13.5 20.3233L15.8885 20.3233L17.1346 20.3233C17.9654 20.3233 18.6923 19.5963 18.6923 18.7656C18.6923 17.9348 17.9654 17.2078 17.1346 17.2078L16.0961 17.2078L14.5385 17.2078L14.5385 16.1694L16.0962 16.1694L18.1731 16.1694C19.0039 16.1694 19.7308 15.4424 19.7308 14.6117C19.7308 13.7809 19.0039 13.054 18.1731 13.054L16.2 13.054L13.5 13.054L13.5 12.0155L16.0961 12.0155L23.3654 12.0155C24.1961 12.0155 24.9231 11.2886 24.9231 10.4578C24.9231 9.62705 24.1961 8.9001 23.3654 8.9001L12.6692 8.9001C14.9539 6.7193 17.4462 3.91548 16.3039 2.7732C15.1616 1.63087 12.0462 4.53856 5.19233 8.58859C2.07694 10.4578 1.67194e-05 12.7424 1.65469e-05 16.6885C1.63608e-05 20.9462 3.53079 24.477 7.7885 24.477L11.2154 24.477L16.0962 24.477C16.9269 24.4772 17.6539 23.7502 17.6539 22.9195Z" fill="#69C0FF"/>
</g>
<defs>
<clipPath id="clip0_123_129">
<rect width="27" height="27" fill="white" transform="translate(27) rotate(90)"/>
</clipPath>
</defs>
</svg>
