<svg width="179" height="21" viewBox="0 0 179 21" fill="none" xmlns="http://www.w3.org/2000/svg">
<path d="M0.0999999 0.529999V0.0299988H-0.4V0.529999H0.0999999ZM12.4 0.919999L12.285 1.4066L12.2869 1.40705L12.4 0.919999ZM14.83 2.3L14.4315 2.60193L14.4366 2.6087L14.4419 2.6153L14.83 2.3ZM14.77 11.69L14.3753 11.383L14.37 11.39L14.77 11.69ZM12.16 13.22L12.0387 12.7349L12.0368 12.7354L12.16 13.22ZM4.78 13.67V13.17H4.28V13.67H4.78ZM4.78 20V20.5H5.28V20H4.78ZM0.0999999 20H-0.4V20.5H0.0999999V20ZM10.33 10.04L10.5743 10.4763L10.5808 10.4726L10.5872 10.4687L10.33 10.04ZM10.36 4.16L10.1606 4.61859L10.1677 4.62154L10.36 4.16ZM4.78 3.86V3.36H4.28V3.86H4.78ZM4.78 10.46H4.28V10.96H4.78V10.46ZM-0.4 0.529999V1.01675H0.6V0.529999H-0.4ZM-0.4 1.99025V2.96375H0.6V1.99025H-0.4ZM-0.4 3.93725V4.91075H0.6V3.93725H-0.4ZM-0.4 5.88425V6.85775H0.6V5.88425H-0.4ZM-0.4 7.83125V8.80475H0.6V7.83125H-0.4ZM-0.4 9.77825V10.7518H0.6V9.77825H-0.4ZM-0.4 11.7253V12.6988H0.6V11.7253H-0.4ZM-0.4 13.6723V14.6458H0.6V13.6723H-0.4ZM-0.4 15.6193V16.5928H0.6V15.6193H-0.4ZM-0.4 17.5662V18.5397H0.6V17.5662H-0.4ZM-0.4 19.5132V20H0.6V19.5132H-0.4ZM0.0999999 20.5H0.685V19.5H0.0999999V20.5ZM1.855 20.5H3.025V19.5H1.855V20.5ZM4.195 20.5H4.78V19.5H4.195V20.5ZM5.28 20V19.4725H4.28V20H5.28ZM5.28 18.4175V17.3625H4.28V18.4175H5.28ZM5.28 16.3075V15.2525H4.28V16.3075H5.28ZM5.28 14.1975V13.67H4.28V14.1975H5.28ZM4.78 14.17H5.425V13.17H4.78V14.17ZM6.715 14.17H7.36V13.17H6.715V14.17ZM7.36 14.17C7.5683 14.17 7.77236 14.1684 7.97217 14.1653L7.95638 13.1654C7.76206 13.1685 7.56327 13.17 7.36 13.17V14.17ZM9.199 14.1231C9.63308 14.0993 10.0434 14.0663 10.4299 14.0241L10.3212 13.03C9.95475 13.0701 9.5625 13.1016 9.14421 13.1246L9.199 14.1231ZM11.6649 13.8417C11.8806 13.8002 12.0868 13.7545 12.2832 13.7046L12.0368 12.7354C11.8611 12.7801 11.6741 12.8216 11.4759 12.8598L11.6649 13.8417ZM12.2813 13.7051C12.4168 13.6712 12.549 13.6346 12.6777 13.5953L12.3859 12.6389C12.2742 12.6729 12.1585 12.705 12.0387 12.7349L12.2813 13.7051ZM13.4594 13.3041C13.7283 13.183 13.9782 13.0459 14.2078 12.8918L13.6504 12.0615C13.4716 12.1815 13.2716 12.292 13.049 12.3922L13.4594 13.3041ZM14.8812 12.3298C14.9848 12.2218 15.0811 12.1085 15.17 11.99L14.37 11.39C14.3057 11.4757 14.2357 11.5582 14.1596 11.6375L14.8812 12.3298ZM15.1647 11.997C15.2577 11.8774 15.3436 11.7516 15.4226 11.6199L14.5648 11.1058C14.5062 11.2037 14.443 11.296 14.3753 11.383L15.1647 11.997ZM15.7974 10.8055C15.8887 10.539 15.9591 10.2565 16.0099 9.95893L15.0241 9.79094C14.9815 10.0408 14.9236 10.2707 14.8514 10.4815L15.7974 10.8055ZM16.1 9.11087C16.1067 8.97335 16.11 8.83305 16.11 8.69H15.11C15.11 8.81764 15.107 8.94177 15.1012 9.06242L16.1 9.11087ZM16.11 8.69V8.22875H15.11V8.69H16.11ZM16.11 7.30625V6.38375H15.11V7.30625H16.11ZM16.11 5.46125V5H15.11V5.46125H16.11ZM16.11 5C16.11 4.73341 16.0971 4.47711 16.0708 4.23145L15.0765 4.33804C15.0986 4.54497 15.11 4.7655 15.11 5H16.11ZM15.6609 2.69191C15.5392 2.43494 15.3919 2.19863 15.2181 1.9847L14.4419 2.6153C14.5625 2.76366 14.6678 2.9313 14.7572 3.11995L15.6609 2.69191ZM15.2285 1.99807C15.0624 1.77872 14.8687 1.58009 14.6491 1.40193L14.019 2.17841C14.1792 2.30844 14.3161 2.44969 14.4315 2.60193L15.2285 1.99807ZM13.2507 0.64566C13.0181 0.563817 12.772 0.493069 12.5131 0.43295L12.2869 1.40705C12.5136 1.45967 12.7241 1.52048 12.9189 1.58899L13.2507 0.64566ZM12.515 0.433407C12.3305 0.3898 12.1367 0.349964 11.9337 0.313781L11.7582 1.29826C11.9448 1.33151 12.1203 1.36766 12.285 1.40659L12.515 0.433407ZM10.7751 0.155761C10.4134 0.119308 10.029 0.0908852 9.62205 0.0703545L9.57166 1.06908C9.96405 1.08888 10.3317 1.11614 10.6749 1.15072L10.7751 0.155761ZM8.47322 0.0340662C8.28616 0.031353 8.09508 0.0299988 7.9 0.0299988V1.03C8.09046 1.03 8.2767 1.03132 8.45872 1.03396L8.47322 0.0340662ZM7.9 0.0299988H7.4125V1.03H7.9V0.0299988ZM6.4375 0.0299988H5.4625V1.03H6.4375V0.0299988ZM4.4875 0.0299988H3.5125V1.03H4.4875V0.0299988ZM2.5375 0.0299988H1.5625V1.03H2.5375V0.0299988ZM0.587501 0.0299988H0.0999999V1.03H0.587501V0.0299988ZM7.75 9.96H7.0075V10.96H7.75V9.96ZM5.5225 9.96H4.78V10.96H5.5225V9.96ZM5.28 10.46V9.91H4.28V10.46H5.28ZM5.28 8.81V7.71H4.28V8.81H5.28ZM5.28 6.61V5.51H4.28V6.61H5.28ZM5.28 4.41V3.86H4.28V4.41H5.28ZM4.78 4.36H5.5075V3.36H4.78V4.36ZM6.9625 4.36H7.69V3.36H6.9625V4.36ZM7.69 4.36C7.92469 4.36 8.14455 4.36322 8.34971 4.36961L8.38083 3.37009C8.16405 3.36334 7.93373 3.36 7.69 3.36V4.36ZM9.62642 4.47819C9.8763 4.52042 10.0493 4.57012 10.1606 4.61854L10.5594 3.70147C10.345 3.60826 10.0845 3.54142 9.79305 3.49217L9.62642 4.47819ZM10.1677 4.62154C10.2472 4.65467 10.3081 4.69382 10.3556 4.73617L11.0208 3.9895C10.8826 3.86635 10.7246 3.77027 10.5523 3.69846L10.1677 4.62154ZM10.555 5.12837C10.5709 5.21126 10.58 5.30793 10.58 5.42H11.58C11.58 5.2543 11.5665 5.09391 11.5372 4.94048L10.555 5.12837ZM10.58 5.42V5.81H11.58V5.42H10.58ZM10.58 6.59V7.37H11.58V6.59H10.58ZM10.58 8.15V8.54H11.58V8.15H10.58ZM10.58 8.54C10.58 8.66966 10.5697 8.78543 10.5509 8.88851L11.5346 9.06799C11.5655 8.89878 11.58 8.72238 11.58 8.54H10.58ZM10.3016 9.4266C10.2398 9.49431 10.1646 9.55617 10.0728 9.61125L10.5872 10.4687C10.7569 10.367 10.9089 10.2446 11.0402 10.1007L10.3016 9.4266ZM10.0857 9.60375C9.96847 9.6694 9.80709 9.73288 9.59199 9.78744L9.83785 10.7567C10.1117 10.6873 10.3604 10.596 10.5743 10.4763L10.0857 9.60375ZM8.38466 9.9453C8.18716 9.95505 7.97567 9.96 7.75 9.96V10.96C7.99011 10.96 8.21817 10.9547 8.43398 10.9441L8.38466 9.9453ZM0.0999999 0.529999V-0.470001H-0.9V0.529999H0.0999999ZM12.4 0.919999L12.17 1.89319L12.1739 1.8941L12.4 0.919999ZM14.83 2.3L14.0329 2.90386L14.0432 2.9174L14.0539 2.93059L14.83 2.3ZM14.77 11.69L13.9806 11.0761L13.9753 11.083L13.97 11.09L14.77 11.69ZM12.16 13.22L11.9175 12.2498L11.9136 12.2508L12.16 13.22ZM4.78 13.67V12.67H3.78V13.67H4.78ZM4.78 20V21H5.78V20H4.78ZM0.0999999 20H-0.9V21H0.0999999V20ZM10.33 10.04L10.8186 10.9125L10.8317 10.9052L10.8445 10.8975L10.33 10.04ZM10.36 4.16L9.96127 5.07707L9.96831 5.08013L9.97539 5.08308L10.36 4.16ZM4.78 3.86V2.86H3.78V3.86H4.78ZM4.78 10.46H3.78V11.46H4.78V10.46ZM-0.9 0.529999V1.01675H1.1V0.529999H-0.9ZM-0.9 1.99025V2.96375H1.1V1.99025H-0.9ZM-0.9 3.93725V4.91075H1.1V3.93725H-0.9ZM-0.9 5.88425V6.85775H1.1V5.88425H-0.9ZM-0.9 7.83125V8.80475H1.1V7.83125H-0.9ZM-0.9 9.77825V10.7518H1.1V9.77825H-0.9ZM-0.9 11.7253V12.6988H1.1V11.7253H-0.9ZM-0.9 13.6723V14.6458H1.1V13.6723H-0.9ZM-0.9 15.6193V16.5928H1.1V15.6193H-0.9ZM-0.9 17.5662V18.5397H1.1V17.5662H-0.9ZM-0.9 19.5132V20H1.1V19.5132H-0.9ZM0.0999999 21H0.685V19H0.0999999V21ZM1.855 21H3.025V19H1.855V21ZM4.195 21H4.78V19H4.195V21ZM5.78 20V19.4725H3.78V20H5.78ZM5.78 18.4175V17.3625H3.78V18.4175H5.78ZM5.78 16.3075V15.2525H3.78V16.3075H5.78ZM5.78 14.1975V13.67H3.78V14.1975H5.78ZM4.78 14.67H5.425V12.67H4.78V14.67ZM6.715 14.67H7.36V12.67H6.715V14.67ZM7.36 14.67C7.57082 14.67 7.77752 14.6684 7.98007 14.6652L7.94848 12.6655C7.7569 12.6685 7.56075 12.67 7.36 12.67V14.67ZM9.2264 14.6223C9.66837 14.5981 10.0878 14.5644 10.4842 14.5211L10.2668 12.5329C9.91041 12.5719 9.52721 12.6028 9.11681 12.6253L9.2264 14.6223ZM11.7594 14.3327C11.9838 14.2895 12.1996 14.2417 12.4064 14.1892L11.9136 12.2508C11.7482 12.2929 11.5709 12.3323 11.3813 12.3688L11.7594 14.3327ZM12.4025 14.1901C12.546 14.1543 12.6864 14.1155 12.8237 14.0736L12.24 12.1606C12.1369 12.1921 12.0294 12.2219 11.9175 12.2499L12.4025 14.1901ZM13.6646 13.76C13.9567 13.6286 14.2315 13.4781 14.4865 13.3069L13.3717 11.6464C13.2184 11.7493 13.0432 11.8465 12.8438 11.9362L13.6646 13.76ZM15.242 12.6759C15.3593 12.5536 15.4688 12.425 15.57 12.29L13.97 11.09C13.9181 11.1592 13.8611 11.2263 13.7987 11.2913L15.242 12.6759ZM15.5594 12.3039C15.665 12.1681 15.7624 12.0256 15.8514 11.8769L14.136 10.8488C14.0874 10.9297 14.0356 11.0054 13.9806 11.0761L15.5594 12.3039ZM16.2704 10.9675C16.3712 10.6732 16.448 10.3644 16.5028 10.0429L14.5312 9.70694C14.4927 9.93292 14.441 10.1365 14.3783 10.3195L16.2704 10.9675ZM16.5994 9.13509C16.6065 8.98913 16.61 8.84075 16.61 8.69H14.61C14.61 8.80994 14.6072 8.92599 14.6018 9.0382L16.5994 9.13509ZM16.61 8.69V8.22875H14.61V8.69H16.61ZM16.61 7.30625V6.38375H14.61V7.30625H16.61ZM16.61 5.46125V5H14.61V5.46125H16.61ZM16.61 5C16.61 4.71736 16.5963 4.44318 16.5679 4.17816L14.5793 4.39134C14.5994 4.5789 14.61 4.78155 14.61 5H16.61ZM16.1128 2.4779C15.9749 2.18676 15.8066 1.91611 15.6061 1.66941L14.0539 2.93059C14.1478 3.04618 14.2321 3.17949 14.3053 3.33396L16.1128 2.4779ZM15.6271 1.69614C15.4355 1.44324 15.2134 1.21592 14.9642 1.01369L13.7039 2.56666C13.8345 2.67261 13.943 2.78517 14.0329 2.90386L15.6271 1.69614ZM13.4167 0.173998C13.1651 0.0854883 12.9012 0.00976562 12.6261 -0.0540981L12.1739 1.8941C12.3844 1.94298 12.5771 1.99881 12.7529 2.06065L13.4167 0.173998ZM12.63 -0.0531855C12.4356 -0.0991306 12.2327 -0.140809 12.0215 -0.178459L11.6705 1.7905C11.8488 1.82229 12.0152 1.85659 12.17 1.89318L12.63 -0.0531855ZM10.8253 -0.34172C10.4543 -0.379107 10.0615 -0.408112 9.64724 -0.429011L9.54647 1.56845C9.93158 1.58788 10.2909 1.61455 10.6247 1.6482L10.8253 -0.34172ZM8.48047 -0.465882C8.29089 -0.468631 8.09739 -0.470001 7.9 -0.470001V1.53C8.08815 1.53 8.27197 1.5313 8.45146 1.53391L8.48047 -0.465882ZM7.9 -0.470001H7.4125V1.53H7.9V-0.470001ZM6.4375 -0.470001H5.4625V1.53H6.4375V-0.470001ZM4.4875 -0.470001H3.5125V1.53H4.4875V-0.470001ZM2.5375 -0.470001H1.5625V1.53H2.5375V-0.470001ZM0.587501 -0.470001H0.0999999V1.53H0.587501V-0.470001ZM7.75 9.46H7.0075V11.46H7.75V9.46ZM5.5225 9.46H4.78V11.46H5.5225V9.46ZM5.78 10.46V9.91H3.78V10.46H5.78ZM5.78 8.81V7.71H3.78V8.81H5.78ZM5.78 6.61V5.51H3.78V6.61H5.78ZM5.78 4.41V3.86H3.78V4.41H5.78ZM4.78 4.86H5.5075V2.86H4.78V4.86ZM6.9625 4.86H7.69V2.86H6.9625V4.86ZM7.69 4.86C7.92017 4.86 8.13481 4.86316 8.33415 4.86937L8.39639 2.87034C8.17379 2.86341 7.93825 2.86 7.69 2.86V4.86ZM9.5431 4.9712C9.7722 5.00992 9.90144 5.05106 9.96127 5.07707L10.7587 3.24293C10.4928 3.12733 10.1886 3.05192 9.87637 2.99916L9.5431 4.9712ZM9.97539 5.08308C10.0085 5.09688 10.0208 5.10755 10.023 5.10951L11.3534 3.61616C11.1698 3.45261 10.9633 3.32806 10.7446 3.23692L9.97539 5.08308ZM10.0639 5.22231C10.073 5.26993 10.08 5.33474 10.08 5.42H12.08C12.08 5.22749 12.0644 5.03524 12.0283 4.84653L10.0639 5.22231ZM10.08 5.42V5.81H12.08V5.42H10.08ZM10.08 6.59V7.37H12.08V6.59H10.08ZM10.08 8.15V8.54H12.08V8.15H10.08ZM10.08 8.54C10.08 8.64329 10.0718 8.72876 10.059 8.79877L12.0265 9.15773C12.0634 8.95545 12.08 8.74874 12.08 8.54H10.08ZM9.93231 9.08953C9.90526 9.11917 9.8684 9.15077 9.81551 9.18251L10.8445 10.8975C11.0531 10.7724 11.2435 10.6197 11.4095 10.4378L9.93231 9.08953ZM9.8414 9.16749C9.77249 9.20608 9.65476 9.25568 9.46907 9.30278L9.96077 11.2414C10.2641 11.1645 10.5564 11.0593 10.8186 10.9125L9.8414 9.16749ZM8.36 9.44591C8.17166 9.45521 7.96845 9.46 7.75 9.46V11.46C7.99734 11.46 8.23367 11.4546 8.45863 11.4435L8.36 9.44591ZM20.4086 0.529999V0.0299988H19.9086V0.529999H20.4086ZM35.2586 0.529999H35.7586V0.0299988H35.2586V0.529999ZM35.2586 3.86V4.36H35.7586V3.86H35.2586ZM25.0886 3.86V3.36H24.5886V3.86H25.0886ZM25.0886 8.33H24.5886V8.83H25.0886V8.33ZM34.2686 8.33H34.7686V7.83H34.2686V8.33ZM34.2686 11.66V12.16H34.7686V11.66H34.2686ZM25.0886 11.66V11.16H24.5886V11.66H25.0886ZM25.0886 16.67H24.5886V17.17H25.0886V16.67ZM35.5586 16.67H36.0586V16.17H35.5586V16.67ZM35.5586 20V20.5H36.0586V20H35.5586ZM20.4086 20H19.9086V20.5H20.4086V20ZM19.9086 0.529999V1.01675H20.9086V0.529999H19.9086ZM19.9086 1.99025V2.96375H20.9086V1.99025H19.9086ZM19.9086 3.93725V4.91075H20.9086V3.93725H19.9086ZM19.9086 5.88425V6.85775H20.9086V5.88425H19.9086ZM19.9086 7.83125V8.80475H20.9086V7.83125H19.9086ZM19.9086 9.77825V10.7518H20.9086V9.77825H19.9086ZM19.9086 11.7253V12.6988H20.9086V11.7253H19.9086ZM19.9086 13.6723V14.6458H20.9086V13.6723H19.9086ZM19.9086 15.6193V16.5928H20.9086V15.6193H19.9086ZM19.9086 17.5662V18.5397H20.9086V17.5662H19.9086ZM19.9086 19.5132V20H20.9086V19.5132H19.9086ZM20.4086 20.5H20.882V19.5H20.4086V20.5ZM21.8289 20.5H22.7758V19.5H21.8289V20.5ZM23.7227 20.5H24.6695V19.5H23.7227V20.5ZM25.6164 20.5H26.5633V19.5H25.6164V20.5ZM27.5102 20.5H28.457V19.5H27.5102V20.5ZM29.4039 20.5H30.3508V19.5H29.4039V20.5ZM31.2977 20.5H32.2445V19.5H31.2977V20.5ZM33.1914 20.5H34.1383V19.5H33.1914V20.5ZM35.0852 20.5H35.5586V19.5H35.0852V20.5ZM36.0586 20V19.5837H35.0586V20H36.0586ZM36.0586 18.7512V17.9188H35.0586V18.7512H36.0586ZM36.0586 17.0863V16.67H35.0586V17.0863H36.0586ZM35.5586 16.17H35.0351V17.17H35.5586V16.17ZM33.9881 16.17H32.9411V17.17H33.9881V16.17ZM31.8941 16.17H30.8471V17.17H31.8941V16.17ZM29.8001 16.17H28.7531V17.17H29.8001V16.17ZM27.7061 16.17H26.6591V17.17H27.7061V16.17ZM25.6121 16.17H25.0886V17.17H25.6121V16.17ZM25.5886 16.67V16.2525H24.5886V16.67H25.5886ZM25.5886 15.4175V14.5825H24.5886V15.4175H25.5886ZM25.5886 13.7475V12.9125H24.5886V13.7475H25.5886ZM25.5886 12.0775V11.66H24.5886V12.0775H25.5886ZM25.0886 12.16H25.5476V11.16H25.0886V12.16ZM26.4656 12.16H27.3836V11.16H26.4656V12.16ZM28.3016 12.16H29.2196V11.16H28.3016V12.16ZM30.1376 12.16H31.0556V11.16H30.1376V12.16ZM31.9736 12.16H32.8916V11.16H31.9736V12.16ZM33.8096 12.16H34.2686V11.16H33.8096V12.16ZM34.7686 11.66V11.2437H33.7686V11.66H34.7686ZM34.7686 10.4112V9.57875H33.7686V10.4112H34.7686ZM34.7686 8.74625V8.33H33.7686V8.74625H34.7686ZM34.2686 7.83H33.8096V8.83H34.2686V7.83ZM32.8916 7.83H31.9736V8.83H32.8916V7.83ZM31.0556 7.83H30.1376V8.83H31.0556V7.83ZM29.2196 7.83H28.3016V8.83H29.2196V7.83ZM27.3836 7.83H26.4656V8.83H27.3836V7.83ZM25.5476 7.83H25.0886V8.83H25.5476V7.83ZM25.5886 8.33V7.77125H24.5886V8.33H25.5886ZM25.5886 6.65375V5.53625H24.5886V6.65375H25.5886ZM25.5886 4.41875V3.86H24.5886V4.41875H25.5886ZM25.0886 4.36H25.5971V3.36H25.0886V4.36ZM26.6141 4.36H27.6311V3.36H26.6141V4.36ZM28.6481 4.36H29.6651V3.36H28.6481V4.36ZM30.6821 4.36H31.6991V3.36H30.6821V4.36ZM32.7161 4.36H33.7331V3.36H32.7161V4.36ZM34.7501 4.36H35.2586V3.36H34.7501V4.36ZM35.7586 3.86V3.44375H34.7586V3.86H35.7586ZM35.7586 2.61125V1.77875H34.7586V2.61125H35.7586ZM35.7586 0.946249V0.529999H34.7586V0.946249H35.7586ZM35.2586 0.0299988H34.7282V1.03H35.2586V0.0299988ZM33.6675 0.0299988H32.6068V1.03H33.6675V0.0299988ZM31.5461 0.0299988H30.4854V1.03H31.5461V0.0299988ZM29.4247 0.0299988H28.364V1.03H29.4247V0.0299988ZM27.3032 0.0299988H26.2425V1.03H27.3032V0.0299988ZM25.1818 0.0299988H24.1211V1.03H25.1818V0.0299988ZM23.0604 0.0299988H21.9997V1.03H23.0604V0.0299988ZM20.9389 0.0299988H20.4086V1.03H20.9389V0.0299988ZM20.4086 0.529999V-0.470001H19.4086V0.529999H20.4086ZM35.2586 0.529999H36.2586V-0.470001H35.2586V0.529999ZM35.2586 3.86V4.86H36.2586V3.86H35.2586ZM25.0886 3.86V2.86H24.0886V3.86H25.0886ZM25.0886 8.33H24.0886V9.33H25.0886V8.33ZM34.2686 8.33H35.2686V7.33H34.2686V8.33ZM34.2686 11.66V12.66H35.2686V11.66H34.2686ZM25.0886 11.66V10.66H24.0886V11.66H25.0886ZM25.0886 16.67H24.0886V17.67H25.0886V16.67ZM35.5586 16.67H36.5586V15.67H35.5586V16.67ZM35.5586 20V21H36.5586V20H35.5586ZM20.4086 20H19.4086V21H20.4086V20ZM19.4086 0.529999V1.01675H21.4086V0.529999H19.4086ZM19.4086 1.99025V2.96375H21.4086V1.99025H19.4086ZM19.4086 3.93725V4.91075H21.4086V3.93725H19.4086ZM19.4086 5.88425V6.85775H21.4086V5.88425H19.4086ZM19.4086 7.83125V8.80475H21.4086V7.83125H19.4086ZM19.4086 9.77825V10.7518H21.4086V9.77825H19.4086ZM19.4086 11.7253V12.6988H21.4086V11.7253H19.4086ZM19.4086 13.6723V14.6458H21.4086V13.6723H19.4086ZM19.4086 15.6193V16.5928H21.4086V15.6193H19.4086ZM19.4086 17.5662V18.5397H21.4086V17.5662H19.4086ZM19.4086 19.5132V20H21.4086V19.5132H19.4086ZM20.4086 21H20.882V19H20.4086V21ZM21.8289 21H22.7758V19H21.8289V21ZM23.7227 21H24.6695V19H23.7227V21ZM25.6164 21H26.5633V19H25.6164V21ZM27.5102 21H28.457V19H27.5102V21ZM29.4039 21H30.3508V19H29.4039V21ZM31.2977 21H32.2445V19H31.2977V21ZM33.1914 21H34.1383V19H33.1914V21ZM35.0852 21H35.5586V19H35.0852V21ZM36.5586 20V19.5837H34.5586V20H36.5586ZM36.5586 18.7512V17.9188H34.5586V18.7512H36.5586ZM36.5586 17.0863V16.67H34.5586V17.0863H36.5586ZM35.5586 15.67H35.0351V17.67H35.5586V15.67ZM33.9881 15.67H32.9411V17.67H33.9881V15.67ZM31.8941 15.67H30.8471V17.67H31.8941V15.67ZM29.8001 15.67H28.7531V17.67H29.8001V15.67ZM27.7061 15.67H26.6591V17.67H27.7061V15.67ZM25.6121 15.67H25.0886V17.67H25.6121V15.67ZM26.0886 16.67V16.2525H24.0886V16.67H26.0886ZM26.0886 15.4175V14.5825H24.0886V15.4175H26.0886ZM26.0886 13.7475V12.9125H24.0886V13.7475H26.0886ZM26.0886 12.0775V11.66H24.0886V12.0775H26.0886ZM25.0886 12.66H25.5476V10.66H25.0886V12.66ZM26.4656 12.66H27.3836V10.66H26.4656V12.66ZM28.3016 12.66H29.2196V10.66H28.3016V12.66ZM30.1376 12.66H31.0556V10.66H30.1376V12.66ZM31.9736 12.66H32.8916V10.66H31.9736V12.66ZM33.8096 12.66H34.2686V10.66H33.8096V12.66ZM35.2686 11.66V11.2437H33.2686V11.66H35.2686ZM35.2686 10.4112V9.57875H33.2686V10.4112H35.2686ZM35.2686 8.74625V8.33H33.2686V8.74625H35.2686ZM34.2686 7.33H33.8096V9.33H34.2686V7.33ZM32.8916 7.33H31.9736V9.33H32.8916V7.33ZM31.0556 7.33H30.1376V9.33H31.0556V7.33ZM29.2196 7.33H28.3016V9.33H29.2196V7.33ZM27.3836 7.33H26.4656V9.33H27.3836V7.33ZM25.5476 7.33H25.0886V9.33H25.5476V7.33ZM26.0886 8.33V7.77125H24.0886V8.33H26.0886ZM26.0886 6.65375V5.53625H24.0886V6.65375H26.0886ZM26.0886 4.41875V3.86H24.0886V4.41875H26.0886ZM25.0886 4.86H25.5971V2.86H25.0886V4.86ZM26.6141 4.86H27.6311V2.86H26.6141V4.86ZM28.6481 4.86H29.6651V2.86H28.6481V4.86ZM30.6821 4.86H31.6991V2.86H30.6821V4.86ZM32.7161 4.86H33.7331V2.86H32.7161V4.86ZM34.7501 4.86H35.2586V2.86H34.7501V4.86ZM36.2586 3.86V3.44375H34.2586V3.86H36.2586ZM36.2586 2.61125V1.77875H34.2586V2.61125H36.2586ZM36.2586 0.946249V0.529999H34.2586V0.946249H36.2586ZM35.2586 -0.470001H34.7282V1.53H35.2586V-0.470001ZM33.6675 -0.470001H32.6068V1.53H33.6675V-0.470001ZM31.5461 -0.470001H30.4854V1.53H31.5461V-0.470001ZM29.4247 -0.470001H28.364V1.53H29.4247V-0.470001ZM27.3032 -0.470001H26.2425V1.53H27.3032V-0.470001ZM25.1818 -0.470001H24.1211V1.53H25.1818V-0.470001ZM23.0604 -0.470001H21.9997V1.53H23.0604V-0.470001ZM20.9389 -0.470001H20.4086V1.53H20.9389V-0.470001ZM39.0191 19.64H38.5191V20.0445L38.9147 20.129L39.0191 19.64ZM39.0191 16.1L39.1306 15.6126L38.5191 15.4728V16.1H39.0191ZM42.4691 16.79L42.3923 17.2842L42.4031 17.2856L42.4691 16.79ZM48.5591 16.52L48.7889 16.9643L48.8007 16.9578L48.5591 16.52ZM48.4991 11.93L48.3555 12.4089L48.3597 12.4102L48.4991 11.93ZM41.7491 11.66H41.2491V12.16H41.7491V11.66ZM41.7491 8.33V7.83H41.2491V8.33H41.7491ZM47.5991 8.15L47.7307 8.63238H47.7307L47.5991 8.15ZM48.4991 7.64L48.9035 7.93408L48.9095 7.92584L48.9152 7.91735L48.4991 7.64ZM48.0191 3.86L48.2114 3.39846L48.0191 3.86ZM39.4091 4.43H38.9091V5.06906L39.5294 4.91531L39.4091 4.43ZM39.4091 0.919999L39.3165 0.428655L38.9091 0.505453V0.919999H39.4091ZM51.7391 1.1L51.5092 1.54404L51.5155 1.54721L51.7391 1.1ZM52.8191 8.69L53.1813 9.03492L53.1891 9.02634L52.8191 8.69ZM51.3791 9.53L51.2579 9.04493L50.8791 9.13961V9.53H51.3791ZM51.3791 9.62H50.8791V9.99715L51.2418 10.1008L51.3791 9.62ZM52.0691 19.16L52.3158 19.5949L52.3179 19.5937L52.0691 19.16ZM46.1291 19.8C45.9806 19.8 45.8331 19.7993 45.6866 19.798L45.6772 20.7979C45.8269 20.7993 45.9776 20.8 46.1291 20.8V19.8ZM44.8024 19.7811C44.5038 19.7724 44.2095 19.7607 43.9197 19.7461L43.8692 20.7448C44.1664 20.7598 44.4677 20.7718 44.7733 20.7807L44.8024 19.7811ZM43.039 19.6914C42.7413 19.6694 42.4486 19.644 42.1609 19.6153L42.0616 20.6104C42.3581 20.6399 42.6593 20.666 42.9652 20.6887L43.039 19.6914ZM41.2862 19.5159C40.9907 19.4781 40.7007 19.4364 40.4163 19.3911L40.2588 20.3786C40.5537 20.4256 40.8538 20.4687 41.1592 20.5078L41.2862 19.5159ZM39.5525 19.2385C39.408 19.2104 39.265 19.1812 39.1236 19.151L38.9147 20.129C39.0622 20.1605 39.2112 20.1909 39.3616 20.2201L39.5525 19.2385ZM39.5191 19.64V19.1975H38.5191V19.64H39.5191ZM39.5191 18.3125V17.4275H38.5191V18.3125H39.5191ZM39.5191 16.5425V16.1H38.5191V16.5425H39.5191ZM38.9077 16.5874C39.0543 16.6209 39.1981 16.6534 39.3393 16.685L39.5574 15.7091C39.4179 15.6779 39.2756 15.6457 39.1306 15.6126L38.9077 16.5874ZM40.2046 16.8733C40.5092 16.9377 40.7991 16.9967 41.0743 17.0503L41.2657 16.0688C40.9961 16.0163 40.7113 15.9583 40.4113 15.8949L40.2046 16.8733ZM41.9505 17.2116C42.1035 17.2379 42.2508 17.262 42.3923 17.2841L42.546 16.2959C42.4101 16.2748 42.268 16.2515 42.1197 16.2261L41.9505 17.2116ZM42.4031 17.2856C42.6482 17.3183 42.8988 17.3466 43.1547 17.3706L43.2479 16.3749C43.0045 16.3521 42.7669 16.3253 42.5352 16.2944L42.4031 17.2856ZM44.6584 17.4598C44.9044 17.4666 45.1546 17.47 45.4091 17.47V16.47C45.1635 16.47 44.9225 16.4667 44.6861 16.4602L44.6584 17.4598ZM45.4091 17.47C45.5496 17.47 45.6864 17.4687 45.8195 17.4662L45.8006 16.4664C45.6741 16.4688 45.5436 16.47 45.4091 16.47V17.47ZM46.6456 17.4311C46.9477 17.4101 47.2271 17.3803 47.483 17.3413L47.3322 16.3527C47.1081 16.3869 46.8563 16.414 46.5761 16.4335L46.6456 17.4311ZM48.3427 17.1469C48.5031 17.0949 48.6527 17.0345 48.7889 16.9641L48.3294 16.0759C48.2508 16.1166 48.1533 16.157 48.0344 16.1956L48.3427 17.1469ZM48.8007 16.9578C48.9736 16.8624 49.1313 16.7508 49.2707 16.6213L48.5905 15.8883C48.5166 15.9569 48.4266 16.0221 48.3176 16.0822L48.8007 16.9578ZM49.8672 15.5868C49.9094 15.4047 49.9291 15.2152 49.9291 15.02H48.9291C48.9291 15.1477 48.9162 15.2609 48.893 15.3611L49.8672 15.5868ZM49.9291 15.02V14.5475H48.9291V15.02H49.9291ZM49.9291 13.6025V13.13H48.9291V13.6025H49.9291ZM49.9291 13.13C49.9291 12.9417 49.9066 12.7582 49.8561 12.5834L48.8953 12.8608C48.9161 12.9326 48.9291 13.0211 48.9291 13.13H49.9291ZM49.1327 11.659C48.9813 11.5697 48.8152 11.5011 48.6385 11.4498L48.3597 12.4102C48.469 12.4419 48.5559 12.4798 48.6245 12.5203L49.1327 11.659ZM48.6428 11.4511C48.4152 11.3828 48.1534 11.3288 47.8615 11.2867L47.7187 12.2764C47.9774 12.3138 48.1883 12.3588 48.3555 12.4089L48.6428 11.4511ZM46.3592 11.1703C46.1255 11.1634 45.8787 11.16 45.6191 11.16V12.16C45.87 12.16 46.1069 12.1633 46.3298 12.1699L46.3592 11.1703ZM45.6191 11.16H45.1354V12.16H45.6191V11.16ZM44.1679 11.16H43.2004V12.16H44.1679V11.16ZM42.2329 11.16H41.7491V12.16H42.2329V11.16ZM42.2491 11.66V11.2437H41.2491V11.66H42.2491ZM42.2491 10.4112V9.57875H41.2491V10.4112H42.2491ZM42.2491 8.74625V8.33H41.2491V8.74625H42.2491ZM41.7491 8.83H42.2329V7.83H41.7491V8.83ZM43.2004 8.83H44.1679V7.83H43.2004V8.83ZM45.1354 8.83H45.6191V7.83H45.1354V8.83ZM45.6191 8.83C45.7984 8.83 45.9696 8.82757 46.1326 8.82267L46.1025 7.82312C45.9506 7.82769 45.7895 7.83 45.6191 7.83V8.83ZM47.1804 8.74167C47.3809 8.71344 47.5652 8.67752 47.7307 8.63238L47.4676 7.66762C47.3523 7.69907 47.2109 7.72751 47.041 7.75143L47.1804 8.74167ZM47.7307 8.63238C47.8323 8.60468 47.9296 8.57401 48.0222 8.54007L47.6782 7.6011C47.6151 7.62424 47.545 7.64651 47.4676 7.66762L47.7307 8.63238ZM48.6207 8.22202C48.7274 8.13942 48.8235 8.04404 48.9035 7.93408L48.0948 7.34591C48.0776 7.36958 48.0507 7.3986 48.0086 7.43118L48.6207 8.22202ZM48.9152 7.91735C48.985 7.81267 49.0415 7.69973 49.0866 7.58087L48.1515 7.22637C48.1303 7.28222 48.107 7.32687 48.0831 7.36265L48.9152 7.91735ZM49.2266 6.92774C49.2351 6.82831 49.2391 6.72565 49.2391 6.62H48.2391C48.2391 6.70021 48.2361 6.77449 48.2302 6.84309L49.2266 6.92774ZM49.2391 6.62V6.2375H48.2391V6.62H49.2391ZM49.2391 5.4725V5.09H48.2391V5.4725H49.2391ZM49.2391 5.09C49.2391 4.92556 49.2252 4.76607 49.1946 4.61329L48.214 4.80948C48.2299 4.88879 48.2391 4.98172 48.2391 5.09H49.2391ZM48.6706 3.67923C48.5344 3.56116 48.3796 3.46853 48.2114 3.39846L47.8268 4.32154C47.9067 4.35482 47.9679 4.39357 48.0157 4.43492L48.6706 3.67923ZM48.2114 3.39846C48 3.31035 47.7489 3.2451 47.4692 3.19617L47.2969 4.18122C47.534 4.22269 47.7071 4.27164 47.8268 4.32154L48.2114 3.39846ZM46.0858 3.07057C45.873 3.0635 45.6474 3.06 45.4091 3.06V4.06C45.6377 4.06 45.8521 4.06336 46.0526 4.07002L46.0858 3.07057ZM45.4091 3.06C45.238 3.06 45.0637 3.06298 44.8863 3.06891L44.9197 4.06835C45.0864 4.06278 45.2496 4.06 45.4091 4.06V3.06ZM43.8475 3.13399C43.5145 3.16394 43.1715 3.20293 42.8186 3.25089L42.9533 4.24178C43.2922 4.19571 43.6201 4.15847 43.937 4.12997L43.8475 3.13399ZM41.7993 3.40954C41.4704 3.46688 41.1336 3.53122 40.789 3.60255L40.9916 4.5818C41.3266 4.51248 41.653 4.45012 41.971 4.39469L41.7993 3.40954ZM39.7872 3.82431C39.6227 3.86297 39.4566 3.9031 39.2888 3.94468L39.5294 4.91531C39.6934 4.87467 39.8556 4.83549 40.0161 4.79776L39.7872 3.82431ZM39.9091 4.43V3.99125H38.9091V4.43H39.9091ZM39.9091 3.11375V2.23625H38.9091V3.11375H39.9091ZM39.9091 1.35875V0.919999H38.9091V1.35875H39.9091ZM39.5018 1.41134C39.6897 1.37592 39.8766 1.34189 40.0626 1.30924L39.8897 0.324297C39.6995 0.35768 39.5085 0.392467 39.3165 0.428655L39.5018 1.41134ZM41.187 1.12703C41.5671 1.07067 41.9431 1.02033 42.315 0.975989L42.1967 -0.0169802C41.8151 0.028511 41.4296 0.0801229 41.0404 0.137844L41.187 1.12703ZM43.4459 0.858571C43.8281 0.824898 44.2057 0.797852 44.5789 0.777416L44.5242 -0.221087C44.1397 -0.200033 43.751 -0.172189 43.3581 -0.13757L43.4459 0.858571ZM45.7125 0.735397C45.9026 0.731797 46.0915 0.729999 46.2791 0.729999V-0.270001C46.0851 -0.270001 45.8899 -0.268141 45.6936 -0.264424L45.7125 0.735397ZM46.2791 0.729999C46.4343 0.729999 46.5867 0.731115 46.7362 0.733345L46.7511 -0.266544C46.5964 -0.26885 46.4391 -0.270001 46.2791 -0.270001V0.729999ZM47.6475 0.762403C47.9639 0.778319 48.2652 0.80006 48.5513 0.827539L48.6469 -0.167881C48.3443 -0.196938 48.0279 -0.219727 47.6977 -0.236334L47.6475 0.762403ZM49.4425 0.939215C49.7561 0.988837 50.0453 1.04694 50.3106 1.1131L50.5526 0.142814C50.2554 0.0687084 49.9373 0.00507355 49.5988 -0.0484934L49.4425 0.939215ZM51.1314 1.3725C51.2681 1.42699 51.3939 1.48426 51.5092 1.544L51.9691 0.656001C51.822 0.579825 51.6661 0.509134 51.5018 0.443634L51.1314 1.3725ZM51.5155 1.54721C51.6349 1.60687 51.7452 1.6712 51.847 1.73991L52.4065 0.911128C52.2668 0.816801 52.1187 0.730781 51.9627 0.652784L51.5155 1.54721ZM52.3887 2.24003C52.5357 2.42838 52.6531 2.64234 52.7398 2.88498L53.6815 2.54843C53.5605 2.21 53.3927 1.90106 53.1769 1.62469L52.3887 2.24003ZM52.9009 3.63875C52.913 3.76644 52.9191 3.90013 52.9191 4.04H53.9191C53.9191 3.87074 53.9117 3.70555 53.8964 3.54459L52.9009 3.63875ZM52.9191 4.04V4.43H53.9191V4.04H52.9191ZM52.9191 5.21V5.99H53.9191V5.21H52.9191ZM52.9191 6.77V7.16H53.9191V6.77H52.9191ZM52.9191 7.16C52.9191 7.27524 52.9093 7.38479 52.8903 7.48917L53.8741 7.6682C53.9044 7.50207 53.9191 7.3325 53.9191 7.16H52.9191ZM52.654 8.08759C52.5965 8.17769 52.5285 8.26643 52.4492 8.35366L53.1891 9.02634C53.3043 8.89966 53.4071 8.76622 53.4968 8.62587L52.654 8.08759ZM52.4571 8.34517C52.3734 8.43298 52.2865 8.51274 52.1962 8.5848L52.8201 9.36634C52.9469 9.26509 53.0673 9.15448 53.1812 9.03483L52.4571 8.34517ZM51.5942 8.93622C51.4871 8.97932 51.3751 9.01563 51.2579 9.04493L51.5004 10.0151C51.6609 9.97496 51.8167 9.92464 51.9675 9.86391L51.5942 8.93622ZM50.8791 9.53V9.5525H51.8791V9.53H50.8791ZM50.8791 9.5975V9.62H51.8791V9.5975H50.8791ZM51.2418 10.1008C51.4108 10.149 51.5699 10.201 51.7194 10.2566L52.0676 9.31919C51.8921 9.25397 51.7083 9.19404 51.5165 9.13924L51.2418 10.1008ZM52.5858 10.6842C52.8665 10.8693 53.0808 11.0737 53.2384 11.294L54.0517 10.7122C53.8133 10.3789 53.5049 10.0925 53.1363 9.84938L52.5858 10.6842ZM53.57 12.0824C53.5957 12.222 53.6091 12.371 53.6091 12.53H54.6091C54.6091 12.3145 54.5909 12.1047 54.5534 11.9011L53.57 12.0824ZM53.6091 12.53V12.9237H54.6091V12.53H53.6091ZM53.6091 13.7113V14.4987H54.6091V13.7113H53.6091ZM53.6091 15.2862V15.68H54.6091V15.2862H53.6091ZM53.6091 15.68C53.6091 15.8447 53.6005 16.003 53.5837 16.1552L54.5776 16.2654C54.5987 16.0746 54.6091 15.8795 54.6091 15.68H53.6091ZM53.3638 17.0522C53.2502 17.3351 53.0967 17.5953 52.9022 17.8341L53.6777 18.4655C53.9353 18.1492 54.1404 17.8018 54.2918 17.4249L53.3638 17.0522ZM52.223 18.4673C52.0982 18.5575 51.9641 18.6438 51.8204 18.7263L52.3179 19.5937C52.4903 19.4949 52.6539 19.3897 52.8086 19.2779L52.223 18.4673ZM51.8225 18.7251C51.6918 18.7992 51.5535 18.8699 51.4073 18.937L51.8247 19.8457C51.9953 19.7674 52.1591 19.6838 52.3158 19.5949L51.8225 18.7251ZM50.5174 19.2714C50.2258 19.3604 49.9126 19.4387 49.5774 19.5058L49.7739 20.4863C50.1379 20.4134 50.4832 20.3274 50.8093 20.2279L50.5174 19.2714ZM48.6086 19.661C48.2952 19.6999 47.9669 19.7308 47.6234 19.7534L47.6892 20.7512C48.0503 20.7274 48.3978 20.6949 48.7318 20.6534L48.6086 19.661ZM46.6287 19.7952C46.465 19.7984 46.2985 19.8 46.1291 19.8V20.8C46.3049 20.8 46.478 20.7983 46.6484 20.795L46.6287 19.7952ZM39.0191 19.64H38.0191V20.449L38.8103 20.6179L39.0191 19.64ZM39.0191 16.1L39.242 15.1251L38.0191 14.8456V16.1H39.0191ZM42.4691 16.79L42.3154 17.7781L42.3262 17.7798L42.337 17.7812L42.4691 16.79ZM48.5591 16.52L49.0186 17.4082L49.0305 17.4021L49.0422 17.3956L48.5591 16.52ZM48.4991 11.93L48.2118 12.8879L48.2203 12.8903L48.4991 11.93ZM41.7491 11.66H40.7491V12.66H41.7491V11.66ZM41.7491 8.33V7.33H40.7491V8.33H41.7491ZM47.5991 8.15L47.8623 9.11476L47.5991 8.15ZM48.4991 7.64L49.3079 8.22817L49.3199 8.21167L49.3312 8.1947L48.4991 7.64ZM48.0191 3.86L48.4038 2.93692L48.4038 2.93692L48.0191 3.86ZM39.4091 4.43H38.4091V5.70812L39.6497 5.40063L39.4091 4.43ZM39.4091 0.919999L39.2239 -0.0626903L38.4091 0.0909081V0.919999H39.4091ZM51.7391 1.1L51.2793 1.98799L51.2856 1.99125L51.2919 1.99443L51.7391 1.1ZM52.8191 8.69L53.5433 9.37965L53.5513 9.37126L53.5591 9.36267L52.8191 8.69ZM51.3791 9.53L51.1366 8.55986L50.3791 8.74922V9.53H51.3791ZM51.3791 9.62H50.3791V10.3743L51.1044 10.5815L51.3791 9.62ZM52.0691 19.16L52.5625 20.0298L52.5667 20.0275L52.0691 19.16ZM46.1291 19.3C45.9822 19.3 45.8362 19.2993 45.6912 19.298L45.6726 21.2979C45.8238 21.2993 45.976 21.3 46.1291 21.3V19.3ZM44.8169 19.2813C44.5218 19.2727 44.2311 19.2612 43.9449 19.2467L43.8439 21.2442C44.1448 21.2594 44.4497 21.2715 44.7587 21.2805L44.8169 19.2813ZM43.0759 19.1927C42.7824 19.171 42.4939 19.146 42.2105 19.1178L42.012 21.1079C42.3129 21.1379 42.6183 21.1644 42.9282 21.1873L43.0759 19.1927ZM41.3498 19.0199C41.0591 18.9827 40.7742 18.9418 40.495 18.8973L40.1801 20.8724C40.4802 20.9202 40.7854 20.964 41.0957 21.0037L41.3498 19.0199ZM39.648 18.7477C39.5064 18.7202 39.3664 18.6916 39.228 18.6621L38.8103 20.6179C38.9608 20.6501 39.1128 20.6811 39.2661 20.7109L39.648 18.7477ZM40.0191 19.64V19.1975H38.0191V19.64H40.0191ZM40.0191 18.3125V17.4275H38.0191V18.3125H40.0191ZM40.0191 16.5425V16.1H38.0191V16.5425H40.0191ZM38.7963 17.0749C38.9436 17.1085 39.0882 17.1412 39.2302 17.173L39.6665 15.2211C39.5277 15.1901 39.3862 15.1581 39.242 15.1251L38.7963 17.0749ZM40.1013 17.3625C40.4081 17.4274 40.7006 17.4869 40.9786 17.5411L41.3614 15.5781C41.0946 15.5261 40.8124 15.4686 40.5147 15.4057L40.1013 17.3625ZM41.8659 17.7044C42.0212 17.7311 42.1711 17.7557 42.3154 17.7781L42.6228 15.8019C42.4897 15.7812 42.3502 15.7583 42.2043 15.7333L41.8659 17.7044ZM42.337 17.7812C42.5889 17.8148 42.846 17.8439 43.1081 17.8684L43.2945 15.8771C43.0573 15.8549 42.8262 15.8288 42.6013 15.7988L42.337 17.7812ZM44.6446 17.9596C44.8953 17.9665 45.1502 17.97 45.4091 17.97V15.97C45.168 15.97 44.9316 15.9668 44.6999 15.9604L44.6446 17.9596ZM45.4091 17.97C45.5525 17.97 45.6925 17.9687 45.8289 17.9661L45.7911 15.9665C45.668 15.9688 45.5407 15.97 45.4091 15.97V17.97ZM46.6803 17.9299C46.9934 17.9081 47.2866 17.877 47.5583 17.8356L47.2569 15.8584C47.0486 15.8902 46.8106 15.916 46.5414 15.9347L46.6803 17.9299ZM48.4969 17.6225C48.678 17.5638 48.8536 17.4935 49.0186 17.4082L48.0997 15.6318C48.0498 15.6576 47.9784 15.6881 47.8802 15.72L48.4969 17.6225ZM49.0422 17.3956C49.247 17.2826 49.4386 17.1477 49.6109 16.9878L48.2503 15.5218C48.2092 15.56 48.1532 15.6019 48.0761 15.6444L49.0422 17.3956ZM50.3543 15.6996C50.406 15.4766 50.4291 15.2489 50.4291 15.02H48.4291C48.4291 15.114 48.4196 15.189 48.4059 15.2483L50.3543 15.6996ZM50.4291 15.02V14.5475H48.4291V15.02H50.4291ZM50.4291 13.6025V13.13H48.4291V13.6025H50.4291ZM50.4291 13.13C50.4291 12.902 50.4018 12.671 50.3364 12.4446L48.415 12.9996C48.4208 13.0198 48.4291 13.0608 48.4291 13.13H50.4291ZM49.3868 11.2284C49.1941 11.1147 48.9883 11.0307 48.778 10.9697L48.2203 12.8903C48.2959 12.9123 48.3432 12.9348 48.3704 12.9509L49.3868 11.2284ZM48.7865 10.9722C48.5287 10.8948 48.2415 10.8364 47.933 10.7918L47.6473 12.7713C47.8894 12.8063 48.0748 12.8467 48.2118 12.8878L48.7865 10.9722ZM46.374 10.6705C46.1348 10.6635 45.8831 10.66 45.6191 10.66V12.66C45.8657 12.66 46.0976 12.6632 46.315 12.6697L46.374 10.6705ZM45.6191 10.66H45.1354V12.66H45.6191V10.66ZM44.1679 10.66H43.2004V12.66H44.1679V10.66ZM42.2329 10.66H41.7491V12.66H42.2329V10.66ZM42.7491 11.66V11.2437H40.7491V11.66H42.7491ZM42.7491 10.4112V9.57875H40.7491V10.4112H42.7491ZM42.7491 8.74625V8.33H40.7491V8.74625H42.7491ZM41.7491 9.33H42.2329V7.33H41.7491V9.33ZM43.2004 9.33H44.1679V7.33H43.2004V9.33ZM45.1354 9.33H45.6191V7.33H45.1354V9.33ZM45.6191 9.33C45.8029 9.33 45.9791 9.32751 46.1476 9.32244L46.0875 7.32335C45.9411 7.32775 45.785 7.33 45.6191 7.33V9.33ZM47.2501 9.23679C47.466 9.2064 47.6716 9.16675 47.8623 9.11476L47.336 7.18524C47.2458 7.20984 47.1259 7.23455 46.9713 7.25631L47.2501 9.23679ZM47.8623 9.11476C47.9759 9.08376 48.0869 9.04889 48.1942 9.00955L47.5062 7.13161C47.4578 7.14936 47.4013 7.16743 47.336 7.18524L47.8623 9.11476ZM48.9267 8.61743C49.0657 8.50982 49.1965 8.38127 49.3079 8.22817L47.6904 7.05183C47.7046 7.03235 47.7124 7.0282 47.7026 7.03576L48.9267 8.61743ZM49.3312 8.1947C49.4239 8.05558 49.4971 7.90849 49.5541 7.75813L47.684 7.04911C47.6748 7.07346 47.668 7.08396 47.6671 7.0853L49.3312 8.1947ZM49.7248 6.97007C49.7346 6.85523 49.7391 6.73837 49.7391 6.62H47.7391C47.7391 6.68749 47.7365 6.74758 47.732 6.80076L49.7248 6.97007ZM49.7391 6.62V6.2375H47.7391V6.62H49.7391ZM49.7391 5.4725V5.09H47.7391V5.4725H49.7391ZM49.7391 5.09C49.7391 4.89748 49.7228 4.70471 49.6849 4.51519L47.7237 4.90758C47.7323 4.95015 47.7391 5.0098 47.7391 5.09H49.7391ZM48.9981 3.30139C48.8176 3.14496 48.6161 3.02539 48.4038 2.93692L47.6345 4.78307C47.6702 4.79796 47.6847 4.80977 47.6882 4.81277L48.9981 3.30139ZM48.4038 2.93692C48.1464 2.8297 47.8564 2.7563 47.5553 2.70364L47.2108 4.67375C47.4266 4.71149 47.5606 4.75229 47.6345 4.78308L48.4038 2.93692ZM46.1024 2.57084C45.8834 2.56357 45.6522 2.56 45.4091 2.56V4.56C45.6329 4.56 45.8417 4.56329 46.036 4.56974L46.1024 2.57084ZM45.4091 2.56C45.2322 2.56 45.0523 2.56308 44.8696 2.56919L44.9364 4.56807C45.0978 4.56267 45.2554 4.56 45.4091 4.56V2.56ZM43.8027 2.636C43.4616 2.66667 43.1111 2.70653 42.7513 2.75544L43.0207 4.73722C43.3525 4.69211 43.6729 4.65574 43.9818 4.62797L43.8027 2.636ZM41.7134 2.91697C41.3791 2.97526 41.0371 3.0406 40.6876 3.11293L41.093 5.07142C41.423 5.00311 41.7443 4.94174 42.0569 4.88726L41.7134 2.91697ZM39.6727 3.33758C39.5063 3.37672 39.3382 3.41732 39.1686 3.45937L39.6497 5.40063C39.8118 5.36046 39.9721 5.32174 40.1305 5.28448L39.6727 3.33758ZM40.4091 4.43V3.99125H38.4091V4.43H40.4091ZM40.4091 3.11375V2.23625H38.4091V3.11375H40.4091ZM40.4091 1.35875V0.919999H38.4091V1.35875H40.4091ZM39.5944 1.90269C39.7802 1.86765 39.9651 1.83399 40.1491 1.80171L39.8033 -0.168174C39.611 -0.134424 39.4179 -0.0992618 39.2239 -0.0626903L39.5944 1.90269ZM41.2604 1.62162C41.6359 1.56594 42.0071 1.51623 42.3742 1.47247L42.1375 -0.513465C41.751 -0.467397 41.3609 -0.41515 40.967 -0.356747L41.2604 1.62162ZM43.4898 1.35664C43.8666 1.32344 44.2387 1.29679 44.6062 1.27667L44.4968 -0.720339C44.1067 -0.698975 43.7125 -0.670732 43.3142 -0.635641L43.4898 1.35664ZM45.722 1.23531C45.909 1.23177 46.0947 1.23 46.2791 1.23V-0.770001C46.0819 -0.770001 45.8836 -0.768111 45.6841 -0.764334L45.722 1.23531ZM46.2791 1.23C46.4319 1.23 46.5818 1.2311 46.7288 1.23329L46.7586 -0.766488C46.6013 -0.768833 46.4415 -0.770001 46.2791 -0.770001V1.23ZM47.6223 1.26177C47.9319 1.27734 48.2256 1.29856 48.5035 1.32525L48.6947 -0.665591C48.3839 -0.695437 48.0599 -0.71875 47.7228 -0.735703L47.6223 1.26177ZM49.3644 1.43307C49.6655 1.48072 49.9402 1.53605 50.1897 1.59825L50.6736 -0.342331C50.3605 -0.420405 50.0279 -0.486808 49.677 -0.542347L49.3644 1.43307ZM50.9462 1.83694C51.0691 1.88592 51.1798 1.93647 51.2793 1.98799L52.199 0.212004C52.036 0.12761 51.8651 0.0502043 51.687 -0.0207996L50.9462 1.83694ZM51.2919 1.99443C51.3929 2.04492 51.4844 2.0984 51.5672 2.15431L52.6863 0.496736C52.5276 0.3896 52.3607 0.292734 52.1864 0.205571L51.2919 1.99443ZM51.9945 2.5477C52.1072 2.69205 52.1994 2.85852 52.269 3.05325L54.1523 2.38016C54.0142 1.99383 53.8211 1.63739 53.571 1.31701L51.9945 2.5477ZM52.4031 3.68584C52.4136 3.79688 52.4191 3.91483 52.4191 4.04H54.4191C54.4191 3.85605 54.411 3.6751 54.3942 3.4975L52.4031 3.68584ZM52.4191 4.04V4.43H54.4191V4.04H52.4191ZM52.4191 5.21V5.99H54.4191V5.21H52.4191ZM52.4191 6.77V7.16H54.4191V6.77H52.4191ZM52.4191 7.16C52.4191 7.24661 52.4118 7.32615 52.3984 7.39966L54.3661 7.75771C54.4019 7.56072 54.4191 7.36113 54.4191 7.16H52.4191ZM52.2326 7.81844C52.1911 7.88342 52.1406 7.94981 52.0792 8.01733L53.5591 9.36267C53.6922 9.21628 53.8125 9.06048 53.9181 8.89501L52.2326 7.81844ZM52.095 8.00035C52.0265 8.07224 51.9563 8.13657 51.8843 8.19404L53.132 9.7571C53.2771 9.64127 53.4142 9.51522 53.5433 9.37965L52.095 8.00035ZM51.4075 8.47238C51.3223 8.50667 51.2322 8.53596 51.1366 8.55986L51.6217 10.5001C51.8037 10.4546 51.9814 10.3973 52.1542 10.3278L51.4075 8.47238ZM50.3791 9.53V9.5525H52.3791V9.53H50.3791ZM50.3791 9.5975V9.62H52.3791V9.5975H50.3791ZM51.1044 10.5815C51.262 10.6265 51.4088 10.6746 51.5452 10.7253L52.2418 8.8505C52.0532 8.78043 51.8571 8.71654 51.6539 8.65848L51.1044 10.5815ZM52.3106 11.1016C52.5473 11.2578 52.7145 11.4211 52.8317 11.5849L54.4584 10.4212C54.1796 10.0316 53.8241 9.70403 53.4116 9.43197L52.3106 11.1016ZM53.0783 12.1731C53.0981 12.2807 53.1091 12.3992 53.1091 12.53H55.1091C55.1091 12.2863 55.0885 12.046 55.0451 11.8104L53.0783 12.1731ZM53.1091 12.53V12.9237H55.1091V12.53H53.1091ZM53.1091 13.7113V14.4987H55.1091V13.7113H53.1091ZM53.1091 15.2862V15.68H55.1091V15.2862H53.1091ZM53.1091 15.68C53.1091 15.8273 53.1015 15.9672 53.0867 16.1001L55.0745 16.3205C55.0978 16.1105 55.1091 15.8969 55.1091 15.68H53.1091ZM52.8998 16.8659C52.8051 17.1017 52.6775 17.3183 52.5145 17.5184L54.0654 18.7813C54.3546 18.4261 54.5855 18.0352 54.7557 17.6112L52.8998 16.8659ZM51.9302 18.062C51.8204 18.1414 51.7011 18.2183 51.5716 18.2925L52.5667 20.0275C52.7533 19.9204 52.9318 19.8058 53.1014 19.6832L51.9302 18.062ZM51.5758 18.2902C51.4582 18.3569 51.3326 18.4211 51.1986 18.4826L52.0334 20.3001C52.2162 20.2161 52.3927 20.1261 52.5625 20.0298L51.5758 18.2902ZM50.3715 18.7932C50.0971 18.8769 49.7999 18.9513 49.4792 19.0156L49.8721 20.9766C50.2506 20.9008 50.6119 20.8109 50.9552 20.7062L50.3715 18.7932ZM48.547 19.1649C48.2439 19.2025 47.9252 19.2324 47.5906 19.2545L47.7221 21.2502C48.092 21.2258 48.4491 21.1923 48.7933 21.1496L48.547 19.1649ZM46.6188 19.2952C46.4586 19.2984 46.2954 19.3 46.1291 19.3V21.3C46.3081 21.3 46.4845 21.2983 46.6583 21.2949L46.6188 19.2952ZM59.0385 20H58.5385V20.4115L58.9423 20.4907L59.0385 20ZM59.0385 16.58L59.1543 16.0936L58.5385 15.947V16.58H59.0385ZM60.2685 16.85L60.1705 17.3403L60.175 17.3412L60.2685 16.85ZM62.8785 16.58L63.1609 16.9927L63.1652 16.9896L62.8785 16.58ZM63.8985 15.32L64.3458 15.5436L64.3488 15.5374L63.8985 15.32ZM64.3185 14.45L64.7688 14.6674L64.88 14.4371L64.7583 14.2121L64.3185 14.45ZM56.7885 0.529999V0.0299988H55.9496L56.3487 0.767896L56.7885 0.529999ZM61.6785 0.529999L62.1257 0.306392L61.9875 0.0299988H61.6785V0.529999ZM66.5685 10.31L66.1213 10.5336L66.2595 10.81H66.5685V10.31ZM66.6885 10.31V10.81H67.0284L67.1534 10.494L66.6885 10.31ZM70.5585 0.529999V0.0299988H70.2186L70.0936 0.346025L70.5585 0.529999ZM75.2685 0.529999L75.7243 0.735581L76.0426 0.0299988H75.2685V0.529999ZM68.2185 16.16L67.7627 15.9544L67.7616 15.9569L68.2185 16.16ZM65.7885 19.31L65.5092 18.8953L65.7885 19.31ZM61.6485 19.8C61.455 19.8 61.2479 19.7923 61.0269 19.7765L60.9559 20.774C61.1977 20.7912 61.4287 20.8 61.6485 20.8V19.8ZM59.7666 19.6234C59.5635 19.5901 59.3529 19.5521 59.1347 19.5093L58.9423 20.4907C59.17 20.5353 59.3909 20.5752 59.605 20.6102L59.7666 19.6234ZM59.5385 20V19.5725H58.5385V20H59.5385ZM59.5385 18.7175V17.8625H58.5385V18.7175H59.5385ZM59.5385 17.0075V16.58H58.5385V17.0075H59.5385ZM58.9227 17.0664C59.0269 17.0912 59.1304 17.1154 59.2334 17.139L59.4568 16.1643C59.3566 16.1413 59.2558 16.1177 59.1543 16.0936L58.9227 17.0664ZM59.8573 17.2761C59.9623 17.2981 60.0667 17.3195 60.1705 17.3403L60.3666 16.3597C60.266 16.3396 60.1648 16.3188 60.0629 16.2974L59.8573 17.2761ZM60.175 17.3412C60.2818 17.3615 60.3878 17.3795 60.4928 17.3951L60.6396 16.4059C60.5484 16.3924 60.4559 16.3767 60.3621 16.3588L60.175 17.3412ZM61.14 17.4611C61.2506 17.467 61.3601 17.47 61.4685 17.47V16.47C61.3784 16.47 61.2868 16.4675 61.1935 16.4625L61.14 17.4611ZM61.4685 17.47C61.6145 17.47 61.7572 17.4622 61.8962 17.4463L61.7822 16.4528C61.6836 16.4641 61.5791 16.47 61.4685 16.47V17.47ZM62.7579 17.2174C62.8994 17.1544 63.0339 17.0795 63.1609 16.9927L62.5962 16.1673C62.52 16.2194 62.4386 16.265 62.3513 16.3038L62.7579 17.2174ZM63.1652 16.9896C63.2975 16.897 63.423 16.7927 63.5416 16.6775L62.8449 15.9601C62.7627 16.04 62.6783 16.1098 62.5918 16.1704L63.1652 16.9896ZM64.125 15.9408C64.2028 15.815 64.2763 15.6825 64.3457 15.5436L63.4513 15.0964C63.3943 15.2103 63.3353 15.3164 63.2744 15.415L64.125 15.9408ZM64.3488 15.5374L64.4538 15.3199L63.5532 14.8851L63.4482 15.1026L64.3488 15.5374ZM64.6638 14.8849L64.7688 14.6674L63.8682 14.2326L63.7632 14.4501L64.6638 14.8849ZM64.7583 14.2121L64.523 13.7771L63.6434 14.2529L63.8787 14.6879L64.7583 14.2121ZM64.0524 12.9071L63.5817 12.0371L62.7022 12.5129L63.1728 13.3829L64.0524 12.9071ZM63.1111 11.1671L62.6405 10.2971L61.7609 10.7729L62.2316 11.6429L63.1111 11.1671ZM62.1699 9.4271L61.6992 8.5571L60.8197 9.0329L61.2903 9.9029L62.1699 9.4271ZM61.2286 7.6871L60.758 6.8171L59.8784 7.2929L60.349 8.1629L61.2286 7.6871ZM60.2874 5.9471L59.8167 5.0771L58.9372 5.5529L59.4078 6.4229L60.2874 5.9471ZM59.3461 4.2071L58.8755 3.3371L57.9959 3.8129L58.4665 4.6829L59.3461 4.2071ZM58.4049 2.4671L57.9342 1.5971L57.0547 2.0729L57.5253 2.9429L58.4049 2.4671ZM57.4636 0.727103L57.2283 0.292101L56.3487 0.767896L56.584 1.2029L57.4636 0.727103ZM56.7885 1.03H57.3998V0.0299988H56.7885V1.03ZM58.6223 1.03H59.8448V0.0299988H58.6223V1.03ZM61.0673 1.03H61.6785V0.0299988H61.0673V1.03ZM61.2313 0.753605L61.4758 1.24261L62.3702 0.795392L62.1257 0.306392L61.2313 0.753605ZM61.9648 2.22061L62.4538 3.19861L63.3482 2.75139L62.8592 1.77339L61.9648 2.22061ZM62.9428 4.17661L63.4318 5.15461L64.3262 4.70739L63.8372 3.72939L62.9428 4.17661ZM63.9208 6.13261L64.4098 7.11061L65.3042 6.66339L64.8152 5.68539L63.9208 6.13261ZM64.8988 8.08861L65.3878 9.06661L66.2822 8.61939L65.7932 7.64139L64.8988 8.08861ZM65.8768 10.0446L66.1213 10.5336L67.0157 10.0864L66.7712 9.59739L65.8768 10.0446ZM66.5685 10.81H66.5985V9.81H66.5685V10.81ZM66.6585 10.81H66.6885V9.81H66.6585V10.81ZM67.1534 10.494L67.3469 10.005L66.4171 9.63703L66.2236 10.126L67.1534 10.494ZM67.7339 9.02697L68.1209 8.04897L67.1911 7.68103L66.8041 8.65903L67.7339 9.02697ZM68.5079 7.07097L68.8949 6.09297L67.9651 5.72503L67.5781 6.70303L68.5079 7.07097ZM69.2819 5.11497L69.6689 4.13697L68.7391 3.76903L68.3521 4.74703L69.2819 5.11497ZM70.0559 3.15897L70.4429 2.18097L69.5131 1.81303L69.1261 2.79103L70.0559 3.15897ZM70.8299 1.20297L71.0234 0.713971L70.0936 0.346025L69.9001 0.835027L70.8299 1.20297ZM70.5585 1.03H71.1473V0.0299988H70.5585V1.03ZM72.3248 1.03H73.5023V0.0299988H72.3248V1.03ZM74.6798 1.03H75.2685V0.0299988H74.6798V1.03ZM74.8127 0.324416L74.6169 0.758583L75.5285 1.16975L75.7243 0.735581L74.8127 0.324416ZM74.2252 1.62692L73.8336 2.49525L74.7451 2.90641L75.1368 2.03808L74.2252 1.62692ZM73.4419 3.36358L73.0502 4.23192L73.9618 4.64308L74.3535 3.77475L73.4419 3.36358ZM72.6586 5.10025L72.2669 5.96858L73.1785 6.37975L73.5701 5.51141L72.6586 5.10025ZM71.8752 6.83692L71.4836 7.70525L72.3951 8.11642L72.7868 7.24808L71.8752 6.83692ZM71.0919 8.57358L70.7002 9.44192L71.6118 9.85308L72.0035 8.98475L71.0919 8.57358ZM70.3086 10.3103L69.9169 11.1786L70.8285 11.5897L71.2201 10.7214L70.3086 10.3103ZM69.5252 12.0469L69.1336 12.9153L70.0451 13.3264L70.4368 12.4581L69.5252 12.0469ZM68.7419 13.7836L68.3502 14.6519L69.2618 15.0631L69.6535 14.1947L68.7419 13.7836ZM67.9586 15.5203L67.7627 15.9544L68.6743 16.3656L68.8701 15.9314L67.9586 15.5203ZM67.7616 15.9569C67.6949 16.1069 67.6265 16.2521 67.5564 16.3925L68.451 16.8394C68.5281 16.685 68.6029 16.5263 68.6754 16.3631L67.7616 15.9569ZM67.087 17.2219C66.9093 17.4983 66.7231 17.7494 66.5287 17.9759L67.2877 18.627C67.5142 18.363 67.7276 18.0746 67.9281 17.7627L67.087 17.2219ZM65.8735 18.6229C65.7547 18.721 65.6332 18.8118 65.5092 18.8953L66.0678 19.7247C66.2194 19.6226 66.3669 19.5124 66.5102 19.394L65.8735 18.6229ZM65.5092 18.8953C65.3805 18.982 65.2428 19.0629 65.096 19.1379L65.551 20.0285C65.732 19.936 65.9043 19.8348 66.0678 19.7247L65.5092 18.8953ZM64.1811 19.493C63.8783 19.5799 63.5493 19.649 63.1931 19.6995L63.3334 20.6896C63.7302 20.6334 64.1049 20.5552 64.4569 20.4542L64.1811 19.493ZM62.1683 19.7898C61.9996 19.7966 61.8264 19.8 61.6485 19.8V20.8C61.8391 20.8 62.0258 20.7963 62.2085 20.789L62.1683 19.7898ZM59.0385 20H58.0385V20.823L58.8461 20.9813L59.0385 20ZM59.0385 16.58L59.2701 15.6072L58.0385 15.3139V16.58H59.0385ZM60.2685 16.85L60.0724 17.8306L60.0814 17.8323L60.2685 16.85ZM62.8785 16.58L63.4432 17.4054L63.452 17.3992L62.8785 16.58ZM63.8985 15.32L64.793 15.7673L64.7991 15.7547L63.8985 15.32ZM64.3185 14.45L65.2191 14.8847L65.4414 14.4241L65.1981 13.9742L64.3185 14.45ZM56.7885 0.529999V-0.470001H55.1106L55.909 1.00579L56.7885 0.529999ZM61.6785 0.529999L62.5729 0.0827847L62.2965 -0.470001H61.6785V0.529999ZM66.5685 10.31L65.6741 10.7572L65.9505 11.31H66.5685V10.31ZM66.6885 10.31V11.31H67.3683L67.6184 10.6779L66.6885 10.31ZM70.5585 0.529999V-0.470001H69.8788L69.6287 0.162053L70.5585 0.529999ZM75.2685 0.529999L76.1801 0.941163L76.8166 -0.470001H75.2685V0.529999ZM68.2185 16.16L67.3069 15.7488L67.3047 15.7539L68.2185 16.16ZM65.7885 19.31L65.2299 18.4806L65.7885 19.31ZM61.6485 19.3C61.4682 19.3 61.273 19.2928 61.0624 19.2778L60.9204 21.2728C61.1726 21.2907 61.4155 21.3 61.6485 21.3V19.3ZM59.8474 19.1299C59.6498 19.0976 59.4444 19.0605 59.2309 19.0187L58.8461 20.9813C59.0785 21.0269 59.3046 21.0677 59.5242 21.1037L59.8474 19.1299ZM60.0385 20V19.5725H58.0385V20H60.0385ZM60.0385 18.7175V17.8625H58.0385V18.7175H60.0385ZM60.0385 17.0075V16.58H58.0385V17.0075H60.0385ZM58.8069 17.5528C58.9124 17.5779 59.0174 17.6025 59.1218 17.6264L59.5684 15.6769C59.4696 15.6542 59.3702 15.631 59.2701 15.6072L58.8069 17.5528ZM59.7545 17.7654C59.8611 17.7878 59.967 17.8095 60.0724 17.8306L60.4646 15.8694C60.3657 15.8496 60.266 15.8292 60.1657 15.8081L59.7545 17.7654ZM60.0814 17.8323C60.1948 17.8539 60.3075 17.8731 60.4195 17.8897L60.7129 15.9113C60.6287 15.8988 60.543 15.8843 60.4556 15.8677L60.0814 17.8323ZM61.1133 17.9604C61.2325 17.9668 61.351 17.97 61.4685 17.97V15.97C61.3876 15.97 61.3048 15.9678 61.2202 15.9632L61.1133 17.9604ZM61.4685 17.97C61.6322 17.97 61.794 17.9613 61.9533 17.943L61.7251 15.9561C61.6468 15.9651 61.5614 15.97 61.4685 15.97V17.97ZM62.9612 17.6742C63.1299 17.5991 63.2908 17.5095 63.4432 17.4053L62.3138 15.7547C62.2631 15.7894 62.2081 15.8202 62.148 15.847L62.9612 17.6742ZM63.452 17.3992C63.6072 17.2906 63.7531 17.1691 63.89 17.0362L62.4966 15.6014C62.4326 15.6636 62.3687 15.7162 62.3051 15.7608L63.452 17.3992ZM64.5503 16.2037C64.6365 16.0642 64.7173 15.9186 64.7929 15.7672L63.0041 14.8728C62.9533 14.9743 62.9016 15.0672 62.8491 15.1521L64.5503 16.2037ZM64.7991 15.7547L64.9041 15.5372L63.103 14.6678L62.998 14.8853L64.7991 15.7547ZM65.1141 15.1022L65.2191 14.8847L63.418 14.0153L63.313 14.2327L65.1141 15.1022ZM65.1981 13.9742L64.9628 13.5392L63.2036 14.4908L63.439 14.9258L65.1981 13.9742ZM64.4921 12.6692L64.0215 11.7992L62.2624 12.7508L62.733 13.6208L64.4921 12.6692ZM63.5509 10.9292L63.0803 10.0592L61.3211 11.0108L61.7918 11.8808L63.5509 10.9292ZM62.6096 9.18921L62.139 8.3192L60.3799 9.27079L60.8505 10.1408L62.6096 9.18921ZM61.6684 7.44921L61.1978 6.57921L59.4386 7.53079L59.9093 8.40079L61.6684 7.44921ZM60.7271 5.70921L60.2565 4.83921L58.4974 5.79079L58.968 6.66079L60.7271 5.70921ZM59.7859 3.9692L59.3153 3.09921L57.5561 4.05079L58.0268 4.92079L59.7859 3.9692ZM58.8446 2.22921L58.374 1.35921L56.6149 2.31079L57.0855 3.18079L58.8446 2.22921ZM57.9034 0.489205L57.6681 0.054204L55.909 1.00579L56.1443 1.44079L57.9034 0.489205ZM56.7885 1.53H57.3998V-0.470001H56.7885V1.53ZM58.6223 1.53H59.8448V-0.470001H58.6223V1.53ZM61.0673 1.53H61.6785V-0.470001H61.0673V1.53ZM60.7841 0.977212L61.0286 1.46621L62.8174 0.571785L62.5729 0.0827847L60.7841 0.977212ZM61.5176 2.44421L62.0066 3.42221L63.7954 2.52779L63.3064 1.54979L61.5176 2.44421ZM62.4956 4.40021L62.9846 5.37821L64.7734 4.48379L64.2844 3.50579L62.4956 4.40021ZM63.4736 6.35621L63.9626 7.33421L65.7514 6.43979L65.2624 5.46179L63.4736 6.35621ZM64.4516 8.31221L64.9406 9.29021L66.7294 8.39579L66.2404 7.41779L64.4516 8.31221ZM65.4296 10.2682L65.6741 10.7572L67.4629 9.86279L67.2184 9.37379L65.4296 10.2682ZM66.5685 11.31H66.5985V9.31H66.5685V11.31ZM66.6585 11.31H66.6885V9.31H66.6585V11.31ZM67.6184 10.6779L67.8119 10.1889L65.9522 9.45305L65.7587 9.94205L67.6184 10.6779ZM68.1989 9.21095L68.5859 8.23294L66.7262 7.49705L66.3392 8.47505L68.1989 9.21095ZM68.9729 7.25494L69.3599 6.27695L67.5002 5.54105L67.1132 6.51905L68.9729 7.25494ZM69.7469 5.29894L70.1339 4.32094L68.2742 3.58505L67.8872 4.56305L69.7469 5.29894ZM70.5209 3.34295L70.9079 2.36495L69.0482 1.62905L68.6612 2.60705L70.5209 3.34295ZM71.2949 1.38695L71.4884 0.897944L69.6287 0.162053L69.4352 0.651054L71.2949 1.38695ZM70.5585 1.53H71.1473V-0.470001H70.5585V1.53ZM72.3248 1.53H73.5023V-0.470001H72.3248V1.53ZM74.6798 1.53H75.2685V-0.470001H74.6798V1.53ZM74.357 0.118834L74.1611 0.553L75.9842 1.37533L76.1801 0.941163L74.357 0.118834ZM73.7695 1.42133L73.3778 2.28967L75.2009 3.112L75.5926 2.24366L73.7695 1.42133ZM72.9861 3.158L72.5945 4.02633L74.4176 4.84866L74.8092 3.98033L72.9861 3.158ZM72.2028 4.89467L71.8111 5.763L73.6342 6.58533L74.0259 5.717L72.2028 4.89467ZM71.4195 6.63133L71.0278 7.49967L72.8509 8.322L73.2426 7.45366L71.4195 6.63133ZM70.6361 8.368L70.2445 9.23634L72.0676 10.0587L72.4592 9.19033L70.6361 8.368ZM69.8528 10.1047L69.4611 10.973L71.2842 11.7953L71.6759 10.927L69.8528 10.1047ZM69.0695 11.8413L68.6778 12.7097L70.5009 13.532L70.8926 12.6637L69.0695 11.8413ZM68.2861 13.578L67.8945 14.4463L69.7176 15.2687L70.1092 14.4003L68.2861 13.578ZM67.5028 15.3147L67.307 15.7488L69.1301 16.5712L69.3259 16.137L67.5028 15.3147ZM67.3047 15.7539C67.241 15.8973 67.1758 16.0356 67.1091 16.1691L68.8983 17.0628C68.9789 16.9015 69.0569 16.7359 69.1323 16.5661L67.3047 15.7539ZM66.6664 16.9515C66.5001 17.2102 66.3275 17.4426 66.1493 17.6503L67.6672 18.9526C67.9098 18.6698 68.1367 18.3628 68.3487 18.0331L66.6664 16.9515ZM65.5551 18.2373C65.4486 18.3253 65.3401 18.4063 65.2299 18.4806L66.3471 20.1394C66.5125 20.0281 66.673 19.908 66.8285 19.7796L65.5551 18.2373ZM65.2299 18.4806C65.1185 18.5556 64.9983 18.6264 64.8686 18.6927L65.7785 20.4737C65.9765 20.3725 66.1663 20.2612 66.3471 20.1394L65.2299 18.4806ZM64.0432 19.0124C63.765 19.0922 63.4588 19.1569 63.1229 19.2045L63.4036 21.1847C63.8207 21.1256 64.2182 21.0429 64.5948 20.9348L64.0432 19.0124ZM62.1481 19.2902C61.9865 19.2967 61.82 19.3 61.6485 19.3V21.3C61.8455 21.3 62.0389 21.2962 62.2286 21.2886L62.1481 19.2902ZM78.5805 20.12L78.6889 19.6319L78.6759 19.629L78.6627 19.6268L78.5805 20.12ZM77.8005 20H77.3005V20.4414L77.7384 20.4961L77.8005 20ZM77.8005 16.34L77.868 15.8446L77.3005 15.7672V16.34H77.8005ZM81.2205 15.59L81.5804 15.9371L81.5864 15.9307L81.2205 15.59ZM82.3905 12.17L81.8962 12.0944L81.8954 12.1001L82.3905 12.17ZM82.7805 0.529999V0.0299988H82.2805V0.529999H82.7805ZM96.9405 0.529999H97.4405V0.0299988H96.9405V0.529999ZM96.9405 20V20.5H97.4405V20H96.9405ZM92.2605 20H91.7605V20.5H92.2605V20ZM92.2605 3.83H92.7605V3.33H92.2605V3.83ZM87.0105 3.83V3.33H86.5105V3.83H87.0105ZM85.9905 15.11L85.5166 14.9505L85.5152 14.9547L85.9905 15.11ZM83.3805 19.19L83.1085 18.7704L83.1049 18.7728L83.3805 19.19ZM79.6005 19.74C79.5271 19.74 79.4521 19.7376 79.3752 19.7327L79.3116 20.7307C79.4089 20.7369 79.5052 20.74 79.6005 20.74V19.74ZM78.9186 19.6775C78.8435 19.6644 78.7669 19.6492 78.6889 19.6319L78.472 20.6081C78.5645 20.6286 78.6562 20.6469 78.747 20.6627L78.9186 19.6775ZM78.6627 19.6268C78.5936 19.6153 78.5281 19.6045 78.4661 19.5944L78.3055 20.5814C78.366 20.5913 78.4303 20.6019 78.4983 20.6132L78.6627 19.6268ZM78.0687 19.5323C77.99 19.5207 77.9211 19.5112 77.8625 19.5039L77.7384 20.4961C77.7875 20.5023 77.8488 20.5107 77.923 20.5216L78.0687 19.5323ZM78.3005 20V19.5425H77.3005V20H78.3005ZM78.3005 18.6275V17.7125H77.3005V18.6275H78.3005ZM78.3005 16.7975V16.34H77.3005V16.7975H78.3005ZM77.7329 16.8354C77.8316 16.8489 77.9273 16.8609 78.0199 16.8716L78.1339 15.8781C78.0488 15.8683 77.9602 15.8572 77.868 15.8446L77.7329 16.8354ZM78.6065 16.9218C78.7126 16.9272 78.814 16.93 78.9105 16.93V15.93C78.8331 15.93 78.7488 15.9278 78.6575 15.9231L78.6065 16.9218ZM78.9105 16.93C79.1524 16.93 79.3855 16.915 79.6091 16.8841L79.4724 15.8935C79.2984 15.9175 79.1113 15.93 78.9105 15.93V16.93ZM80.9903 16.411C81.2071 16.278 81.4041 16.1199 81.5804 15.9371L80.8605 15.2429C80.7432 15.3646 80.6125 15.4696 80.4677 15.5584L80.9903 16.411ZM81.5864 15.9307C81.7079 15.8002 81.8187 15.6523 81.9199 15.4899L81.0713 14.9608C80.9987 15.0773 80.926 15.1725 80.8545 15.2493L81.5864 15.9307ZM82.354 14.5673C82.4555 14.2855 82.5463 13.9747 82.6272 13.6364L81.6546 13.4039C81.5807 13.7131 81.4999 13.9875 81.4132 14.2285L82.354 14.5673ZM82.814 12.705C82.8392 12.5544 82.863 12.3994 82.8856 12.2399L81.8954 12.1001C81.874 12.2516 81.8514 12.3982 81.8277 12.5399L82.814 12.705ZM82.8847 12.2456C82.9088 12.0883 82.9317 11.9242 82.9534 11.7533L81.9614 11.627C81.9407 11.7903 81.9189 11.9461 81.8962 12.0944L82.8847 12.2456ZM83.0594 10.7714C83.0875 10.4626 83.1129 10.1365 83.1355 9.79304L82.1377 9.72715C82.1155 10.0632 82.0908 10.3811 82.0635 10.6808L83.0594 10.7714ZM83.1906 8.81578C83.2055 8.5027 83.2185 8.17742 83.2297 7.83995L82.2302 7.80687C82.2192 8.13992 82.2064 8.46039 82.1917 8.76832L83.1906 8.81578ZM83.2561 6.8644C83.2629 6.54922 83.2682 6.22466 83.2722 5.89072L82.2722 5.87891C82.2683 6.20983 82.263 6.53117 82.2563 6.84295L83.2561 6.8644ZM83.2796 4.91722C83.2802 4.75677 83.2805 4.59436 83.2805 4.43H82.2805C82.2805 4.59318 82.2802 4.75437 82.2796 4.91358L83.2796 4.91722ZM83.2805 4.43V3.9425H82.2805V4.43H83.2805ZM83.2805 2.9675V1.9925H82.2805V2.9675H83.2805ZM83.2805 1.0175V0.529999H82.2805V1.0175H83.2805ZM82.7805 1.03H83.2862V0.0299988H82.7805V1.03ZM84.2976 1.03H85.309V0.0299988H84.2976V1.03ZM86.3205 1.03H87.3319V0.0299988H86.3205V1.03ZM88.3433 1.03H89.3548V0.0299988H88.3433V1.03ZM90.3662 1.03H91.3776V0.0299988H90.3662V1.03ZM92.389 1.03H93.4005V0.0299988H92.389V1.03ZM94.4119 1.03H95.4233V0.0299988H94.4119V1.03ZM96.4348 1.03H96.9405V0.0299988H96.4348V1.03ZM96.4405 0.529999V1.01675H97.4405V0.529999H96.4405ZM96.4405 1.99025V2.96375H97.4405V1.99025H96.4405ZM96.4405 3.93725V4.91075H97.4405V3.93725H96.4405ZM96.4405 5.88425V6.85775H97.4405V5.88425H96.4405ZM96.4405 7.83125V8.80475H97.4405V7.83125H96.4405ZM96.4405 9.77825V10.7518H97.4405V9.77825H96.4405ZM96.4405 11.7253V12.6988H97.4405V11.7253H96.4405ZM96.4405 13.6723V14.6458H97.4405V13.6723H96.4405ZM96.4405 15.6193V16.5928H97.4405V15.6193H96.4405ZM96.4405 17.5662V18.5397H97.4405V17.5662H96.4405ZM96.4405 19.5132V20H97.4405V19.5132H96.4405ZM96.9405 19.5H96.3555V20.5H96.9405V19.5ZM95.1855 19.5H94.0155V20.5H95.1855V19.5ZM92.8455 19.5H92.2605V20.5H92.8455V19.5ZM92.7605 20V19.4947H91.7605V20H92.7605ZM92.7605 18.4841V17.4734H91.7605V18.4841H92.7605ZM92.7605 16.4628V15.4522H91.7605V16.4628H92.7605ZM92.7605 14.4416V13.4309H91.7605V14.4416H92.7605ZM92.7605 12.4203V11.4097H91.7605V12.4203H92.7605ZM92.7605 10.3991V9.38844H91.7605V10.3991H92.7605ZM92.7605 8.37781V7.36719H91.7605V8.37781H92.7605ZM92.7605 6.35656V5.34594H91.7605V6.35656H92.7605ZM92.7605 4.33531V3.83H91.7605V4.33531H92.7605ZM92.2605 3.33H91.823V4.33H92.2605V3.33ZM90.948 3.33H90.073V4.33H90.948V3.33ZM89.198 3.33H88.323V4.33H89.198V3.33ZM87.448 3.33H87.0105V4.33H87.448V3.33ZM86.5105 3.83V4.505H87.5105V3.83H86.5105ZM86.5105 5.855V6.53H87.5105V5.855H86.5105ZM86.5105 6.53C86.5105 6.71146 86.5096 6.89084 86.508 7.06812L87.5079 7.07742C87.5096 6.89697 87.5105 6.71449 87.5105 6.53H86.5105ZM86.4872 8.14165C86.4762 8.5088 86.4613 8.86599 86.4425 9.21325L87.4411 9.26722C87.4603 8.91154 87.4755 8.54633 87.4867 8.17159L86.4872 8.14165ZM86.3701 10.2805C86.3398 10.6473 86.3046 11.0014 86.2647 11.3428L87.2579 11.4591C87.2993 11.1056 87.3355 10.7402 87.3667 10.3629L86.3701 10.2805ZM86.1196 12.3958C86.0614 12.7598 85.9968 13.1065 85.9259 13.436L86.9035 13.6463C86.9785 13.298 87.0463 12.9338 87.1071 12.5538L86.1196 12.3958ZM85.6715 14.4541C85.6219 14.6256 85.5703 14.791 85.5166 14.9505L86.4643 15.2695C86.5229 15.0957 86.5788 14.9164 86.6322 14.7318L85.6715 14.4541ZM85.5152 14.9547C85.4516 15.1494 85.3861 15.3373 85.3188 15.5184L86.2562 15.8667C86.3284 15.6724 86.3982 15.472 86.4657 15.2653L85.5152 14.9547ZM84.8543 16.6043C84.6691 16.979 84.4741 17.3111 84.2702 17.602L85.0892 18.1759C85.326 17.8379 85.5462 17.4613 85.7508 17.0475L84.8543 16.6043ZM83.5365 18.4422C83.3967 18.567 83.254 18.6762 83.1085 18.7704L83.6524 19.6096C83.8431 19.486 84.0264 19.3453 84.2024 19.1883L83.5365 18.4422ZM83.1049 18.7728C82.9778 18.8567 82.8477 18.9351 82.7144 19.008L83.1943 19.8853C83.3519 19.7991 83.5058 19.7064 83.656 19.6072L83.1049 18.7728ZM81.8805 19.3785C81.5976 19.4777 81.3016 19.5568 80.9922 19.6154L81.1783 20.5979C81.5349 20.5304 81.8793 20.4386 82.2113 20.3222L81.8805 19.3785ZM80.0694 19.7268C79.916 19.7356 79.7597 19.74 79.6005 19.74V20.74C79.7782 20.74 79.9535 20.7351 80.1264 20.7252L80.0694 19.7268ZM78.5805 20.12L78.7974 19.1438L78.7713 19.138L78.7449 19.1336L78.5805 20.12ZM77.8005 20H76.8005V20.8828L77.6764 20.9923L77.8005 20ZM77.8005 16.34L77.9356 15.3492L76.8005 15.1944V16.34H77.8005ZM81.2205 15.59L81.9403 16.2841L81.9464 16.2778L81.9524 16.2714L81.2205 15.59ZM82.3905 12.17L81.4019 12.0188L81.4003 12.0302L82.3905 12.17ZM82.7805 0.529999V-0.470001H81.7805V0.529999H82.7805ZM96.9405 0.529999H97.9405V-0.470001H96.9405V0.529999ZM96.9405 20V21H97.9405V20H96.9405ZM92.2605 20H91.2605V21H92.2605V20ZM92.2605 3.83H93.2605V2.83H92.2605V3.83ZM87.0105 3.83V2.83H86.0105V3.83H87.0105ZM85.9905 15.11L85.0427 14.7909L85.0399 14.7994L85.9905 15.11ZM83.3805 19.19L82.8366 18.3508L82.8294 18.3555L83.3805 19.19ZM79.6005 19.24C79.5381 19.24 79.4737 19.2379 79.407 19.2337L79.2798 21.2296C79.3873 21.2365 79.4942 21.24 79.6005 21.24V19.24ZM79.0044 19.1849C78.9371 19.1732 78.8681 19.1595 78.7974 19.1438L78.3635 21.0962C78.4633 21.1183 78.5625 21.1381 78.6612 21.1553L79.0044 19.1849ZM78.7449 19.1336C78.6752 19.122 78.6091 19.1111 78.5464 19.1009L78.2252 21.0749C78.285 21.0847 78.3487 21.0952 78.4161 21.1064L78.7449 19.1336ZM78.1415 19.0376C78.0606 19.0257 77.9878 19.0156 77.9245 19.0077L77.6764 20.9923C77.7207 20.9978 77.7782 21.0057 77.8502 21.0163L78.1415 19.0376ZM78.8005 20V19.5425H76.8005V20H78.8005ZM78.8005 18.6275V17.7125H76.8005V18.6275H78.8005ZM78.8005 16.7975V16.34H76.8005V16.7975H78.8005ZM77.6654 17.3308C77.7673 17.3447 77.8665 17.3572 77.963 17.3683L78.1909 15.3813C78.1096 15.372 78.0245 15.3613 77.9356 15.3492L77.6654 17.3308ZM78.581 17.4211C78.6945 17.4269 78.8044 17.43 78.9105 17.43V15.43C78.8426 15.43 78.767 15.428 78.683 15.4237L78.581 17.4211ZM78.9105 17.43C79.173 17.43 79.429 17.4137 79.6775 17.3794L79.404 15.3982C79.2548 15.4188 79.0907 15.43 78.9105 15.43V17.43ZM81.2516 16.8372C81.5044 16.6822 81.7346 16.4975 81.9403 16.2841L80.5006 14.8959C80.4127 14.987 80.3152 15.0654 80.2063 15.1322L81.2516 16.8372ZM81.9524 16.2714C82.0988 16.1141 82.2286 15.9398 82.3442 15.7544L80.647 14.6963C80.5888 14.7898 80.5351 14.8586 80.4886 14.9086L81.9524 16.2714ZM82.8245 14.7366C82.9333 14.4344 83.0291 14.1056 83.1135 13.7526L81.1683 13.2876C81.0978 13.5823 81.0221 13.8386 80.9427 14.0592L82.8245 14.7366ZM83.3071 12.7876C83.3331 12.6325 83.3576 12.4733 83.3807 12.3098L81.4003 12.0302C81.3795 12.1778 81.3575 12.3201 81.3346 12.4574L83.3071 12.7876ZM83.379 12.3212C83.4037 12.1594 83.4272 11.9911 83.4494 11.8165L81.4654 11.5639C81.4451 11.7233 81.424 11.875 81.402 12.0188L83.379 12.3212ZM83.5573 10.8167C83.5858 10.5034 83.6115 10.1731 83.6345 9.82598L81.6388 9.6942C81.6169 10.0266 81.5924 10.3403 81.5656 10.6355L83.5573 10.8167ZM83.6901 8.83951C83.7051 8.52386 83.7182 8.19617 83.7294 7.85649L81.7305 7.79033C81.7196 8.12116 81.7068 8.43923 81.6923 8.74458L83.6901 8.83951ZM83.756 6.87512C83.7628 6.55825 83.7682 6.23208 83.7721 5.89663L81.7723 5.87301C81.7684 6.20241 81.7631 6.52214 81.7565 6.83222L83.756 6.87512ZM83.7796 4.91904C83.7802 4.75797 83.7805 4.59496 83.7805 4.43H81.7805C81.7805 4.59258 81.7802 4.75317 81.7796 4.91175L83.7796 4.91904ZM83.7805 4.43V3.9425H81.7805V4.43H83.7805ZM83.7805 2.9675V1.9925H81.7805V2.9675H83.7805ZM83.7805 1.0175V0.529999H81.7805V1.0175H83.7805ZM82.7805 1.53H83.2862V-0.470001H82.7805V1.53ZM84.2976 1.53H85.309V-0.470001H84.2976V1.53ZM86.3205 1.53H87.3319V-0.470001H86.3205V1.53ZM88.3433 1.53H89.3548V-0.470001H88.3433V1.53ZM90.3662 1.53H91.3776V-0.470001H90.3662V1.53ZM92.389 1.53H93.4005V-0.470001H92.389V1.53ZM94.4119 1.53H95.4233V-0.470001H94.4119V1.53ZM96.4348 1.53H96.9405V-0.470001H96.4348V1.53ZM95.9405 0.529999V1.01675H97.9405V0.529999H95.9405ZM95.9405 1.99025V2.96375H97.9405V1.99025H95.9405ZM95.9405 3.93725V4.91075H97.9405V3.93725H95.9405ZM95.9405 5.88425V6.85775H97.9405V5.88425H95.9405ZM95.9405 7.83125V8.80475H97.9405V7.83125H95.9405ZM95.9405 9.77825V10.7518H97.9405V9.77825H95.9405ZM95.9405 11.7253V12.6988H97.9405V11.7253H95.9405ZM95.9405 13.6723V14.6458H97.9405V13.6723H95.9405ZM95.9405 15.6193V16.5928H97.9405V15.6193H95.9405ZM95.9405 17.5662V18.5397H97.9405V17.5662H95.9405ZM95.9405 19.5132V20H97.9405V19.5132H95.9405ZM96.9405 19H96.3555V21H96.9405V19ZM95.1855 19H94.0155V21H95.1855V19ZM92.8455 19H92.2605V21H92.8455V19ZM93.2605 20V19.4947H91.2605V20H93.2605ZM93.2605 18.4841V17.4734H91.2605V18.4841H93.2605ZM93.2605 16.4628V15.4522H91.2605V16.4628H93.2605ZM93.2605 14.4416V13.4309H91.2605V14.4416H93.2605ZM93.2605 12.4203V11.4097H91.2605V12.4203H93.2605ZM93.2605 10.3991V9.38844H91.2605V10.3991H93.2605ZM93.2605 8.37781V7.36719H91.2605V8.37781H93.2605ZM93.2605 6.35656V5.34594H91.2605V6.35656H93.2605ZM93.2605 4.33531V3.83H91.2605V4.33531H93.2605ZM92.2605 2.83H91.823V4.83H92.2605V2.83ZM90.948 2.83H90.073V4.83H90.948V2.83ZM89.198 2.83H88.323V4.83H89.198V2.83ZM87.448 2.83H87.0105V4.83H87.448V2.83ZM86.0105 3.83V4.505H88.0105V3.83H86.0105ZM86.0105 5.855V6.53H88.0105V5.855H86.0105ZM86.0105 6.53C86.0105 6.70995 86.0097 6.88777 86.008 7.06348L88.0079 7.08207C88.0096 6.90003 88.0105 6.71601 88.0105 6.53H86.0105ZM85.9874 8.12668C85.9765 8.49004 85.9618 8.84322 85.9433 9.18626L87.9404 9.2942C87.9598 8.93432 87.9752 8.56509 87.9865 8.18657L85.9874 8.12668ZM85.8718 10.2394C85.8419 10.6008 85.8073 10.9492 85.7681 11.2846L87.7545 11.5173C87.7966 11.1578 87.8334 10.7867 87.865 10.404L85.8718 10.2394ZM85.6259 12.3168C85.569 12.6728 85.506 13.0107 85.4371 13.3309L87.3924 13.7515C87.4693 13.3938 87.5387 13.0208 87.6008 12.6328L85.6259 12.3168ZM85.1911 14.3153C85.1435 14.4802 85.094 14.6387 85.0427 14.791L86.9382 15.429C86.9992 15.248 87.0572 15.0618 87.1125 14.8706L85.1911 14.3153ZM85.0399 14.7994C84.9783 14.9882 84.915 15.1698 84.8501 15.3443L86.7249 16.0408C86.7995 15.84 86.8715 15.6332 86.941 15.4206L85.0399 14.7994ZM84.4061 16.3827C84.2305 16.7379 84.0481 17.0477 83.8607 17.3151L85.4987 18.4628C85.7519 18.1013 85.9848 17.7024 86.199 17.269L84.4061 16.3827ZM83.2036 18.0691C83.0818 18.1778 82.9594 18.2713 82.8366 18.3508L83.9244 20.0292C84.1377 19.8908 84.3413 19.7344 84.5353 19.5613L83.2036 18.0691ZM82.8294 18.3555C82.7139 18.4318 82.5955 18.5031 82.4744 18.5694L83.4342 20.324C83.6041 20.2311 83.7698 20.1312 83.9315 20.0245L82.8294 18.3555ZM81.7151 18.9067C81.4567 18.9973 81.185 19.07 80.8992 19.1241L81.2713 21.0892C81.6515 21.0172 82.0202 20.9191 82.3767 20.7941L81.7151 18.9067ZM80.0409 19.2276C79.8973 19.2358 79.7505 19.24 79.6005 19.24V21.24C79.7874 21.24 79.9722 21.2348 80.155 21.2244L80.0409 19.2276ZM102.639 0.529999V0.0299988H102.139V0.529999H102.639ZM107.319 0.529999H107.819V0.0299988H107.319V0.529999ZM107.319 7.67H106.819V8.17H107.319V7.67ZM114.219 7.94L114.14 8.43376L114.15 8.43515L114.219 7.94ZM116.889 9.08L116.547 9.44477L116.553 9.45027L116.559 9.45558L116.889 9.08ZM102.639 20H102.139V20.5H102.639V20ZM112.389 16.19L112.644 16.6203L112.655 16.6131L112.389 16.19ZM112.419 11.33L112.224 11.7905L112.419 11.33ZM107.289 11V10.5H106.789V11H107.289ZM107.289 16.67H106.789V17.17H107.289V16.67ZM102.139 0.529999V1.01675H103.139V0.529999H102.139ZM102.139 1.99025V2.96375H103.139V1.99025H102.139ZM102.139 3.93725V4.91075H103.139V3.93725H102.139ZM102.139 5.88425V6.85775H103.139V5.88425H102.139ZM102.139 7.83125V8.80475H103.139V7.83125H102.139ZM102.139 9.77825V10.7518H103.139V9.77825H102.139ZM102.139 11.7253V12.6988H103.139V11.7253H102.139ZM102.139 13.6723V14.6458H103.139V13.6723H102.139ZM102.139 15.6193V16.5928H103.139V15.6193H102.139ZM102.139 17.5662V18.5397H103.139V17.5662H102.139ZM102.139 19.5132V20H103.139V19.5132H102.139ZM102.639 20.5H103.1V19.5H102.639V20.5ZM104.023 20.5H104.945V19.5H104.023V20.5ZM105.868 20.5H106.79V19.5H105.868V20.5ZM107.713 20.5H108.635V19.5H107.713V20.5ZM109.558 20.5H110.019V19.5H109.558V20.5ZM110.019 20.5C110.196 20.5 110.371 20.4983 110.543 20.4948L110.523 19.495C110.358 19.4983 110.19 19.5 110.019 19.5V20.5ZM111.593 20.4496C111.957 20.4249 112.308 20.3911 112.644 20.348L112.517 19.3561C112.202 19.3964 111.872 19.4284 111.525 19.4518L111.593 20.4496ZM113.695 20.1735C114.062 20.097 114.41 20.0065 114.738 19.9017L114.433 18.9493C114.142 19.0424 113.828 19.1243 113.491 19.1945L113.695 20.1735ZM115.758 19.4958C116.109 19.3238 116.429 19.1278 116.716 18.9065L116.105 18.115C115.877 18.2907 115.616 18.452 115.318 18.5975L115.758 19.4958ZM117.532 18.0889C117.769 17.7763 117.956 17.4346 118.094 17.0652L117.157 16.7161C117.053 16.9951 116.913 17.251 116.735 17.4854L117.532 18.0889ZM118.351 15.9442C118.37 15.7603 118.379 15.5722 118.379 15.38H117.379C117.379 15.5398 117.371 15.6936 117.356 15.8416L118.351 15.9442ZM118.379 15.38V14.9225H117.379V15.38H118.379ZM118.379 14.0075V13.0925H117.379V14.0075H118.379ZM118.379 12.1775V11.72H117.379V12.1775H118.379ZM118.379 11.72C118.379 11.444 118.362 11.1795 118.328 10.927L117.337 11.0621C117.365 11.2651 117.379 11.4842 117.379 11.72H118.379ZM117.782 9.3608C117.625 9.11527 117.437 8.89606 117.219 8.70442L116.559 9.45558C116.706 9.58489 116.833 9.73255 116.94 9.89982L117.782 9.3608ZM117.231 8.71523C117.029 8.52605 116.807 8.35722 116.565 8.20844L116.041 9.06001C116.228 9.17502 116.396 9.30337 116.547 9.44477L117.231 8.71523ZM115.064 7.59448C114.817 7.53245 114.558 7.48271 114.289 7.44485L114.15 8.43515C114.387 8.46849 114.611 8.51174 114.821 8.56447L115.064 7.59448ZM114.298 7.44633C114.113 7.41653 113.918 7.38925 113.713 7.36444L113.593 8.35717C113.786 8.38058 113.968 8.40611 114.14 8.43366L114.298 7.44633ZM112.549 7.25631C112.186 7.23134 111.8 7.21184 111.391 7.19774L111.356 8.19715C111.755 8.21091 112.13 8.22986 112.481 8.25395L112.549 7.25631ZM110.236 7.1728C110.048 7.17093 109.855 7.17 109.659 7.17V8.17C109.852 8.17 110.041 8.17092 110.226 8.17275L110.236 7.1728ZM109.659 7.17H109.074V8.17H109.659V7.17ZM107.904 7.17H107.319V8.17H107.904V7.17ZM107.819 7.67V7.22375H106.819V7.67H107.819ZM107.819 6.33125V5.43875H106.819V6.33125H107.819ZM107.819 4.54625V3.65375H106.819V4.54625H107.819ZM107.819 2.76125V1.86875H106.819V2.76125H107.819ZM107.819 0.97625V0.529999H106.819V0.97625H107.819ZM107.319 0.0299988H106.734V1.03H107.319V0.0299988ZM105.564 0.0299988H104.394V1.03H105.564V0.0299988ZM103.224 0.0299988H102.639V1.03H103.224V0.0299988ZM109.809 16.17H109.179V17.17H109.809V16.17ZM107.919 16.17H107.289V17.17H107.919V16.17ZM107.789 16.67V16.1975H106.789V16.67H107.789ZM107.789 15.2525V14.3075H106.789V15.2525H107.789ZM107.789 13.3625V12.4175H106.789V13.3625H107.789ZM107.789 11.4725V11H106.789V11.4725H107.789ZM107.289 11.5H107.934V10.5H107.289V11.5ZM109.224 11.5H109.869V10.5H109.224V11.5ZM109.869 11.5C110.091 11.5 110.3 11.504 110.495 11.5119L110.536 10.5127C110.325 10.5042 110.103 10.5 109.869 10.5V11.5ZM111.702 11.6391C111.921 11.683 112.093 11.7349 112.224 11.7905L112.614 10.8695C112.404 10.7806 112.163 10.7117 111.898 10.6586L111.702 11.6391ZM112.224 11.7905C112.315 11.8288 112.386 11.8723 112.442 11.9182L113.075 11.144C112.937 11.0311 112.782 10.9406 112.614 10.8695L112.224 11.7905ZM112.671 12.3063C112.689 12.3863 112.699 12.4802 112.699 12.59H113.699C113.699 12.4169 113.683 12.2487 113.646 12.0874L112.671 12.3063ZM112.699 12.59V13.1075H113.699V12.59H112.699ZM112.699 14.1425V14.66H113.699V14.1425H112.699ZM112.699 14.66C112.699 14.7886 112.687 14.904 112.665 15.0075L113.644 15.2142C113.681 15.0359 113.699 14.8507 113.699 14.66H112.699ZM112.38 15.5598C112.31 15.6331 112.225 15.7025 112.123 15.7669L112.655 16.6131C112.821 16.5088 112.971 16.3885 113.102 16.2511L112.38 15.5598ZM112.134 15.7599C112.006 15.8359 111.843 15.9062 111.638 15.9663L111.92 16.9257C112.187 16.8473 112.43 16.747 112.644 16.6201L112.134 15.7599ZM110.442 16.1521C110.245 16.164 110.034 16.17 109.809 16.17V17.17C110.051 17.17 110.282 17.1635 110.502 17.1503L110.442 16.1521ZM102.639 0.529999V-0.470001H101.639V0.529999H102.639ZM107.319 0.529999H108.319V-0.470001H107.319V0.529999ZM107.319 7.67H106.319V8.67H107.319V7.67ZM114.219 7.94L114.06 8.92733L114.07 8.92891L114.08 8.93029L114.219 7.94ZM116.889 9.08L116.205 9.80954L116.217 9.82054L116.229 9.83116L116.889 9.08ZM102.639 20H101.639V21H102.639V20ZM112.389 16.19L112.899 17.0503L112.91 17.0434L112.922 17.0362L112.389 16.19ZM112.419 11.33L112.029 12.251L112.419 11.33ZM107.289 11V10H106.289V11H107.289ZM107.289 16.67H106.289V17.67H107.289V16.67ZM101.639 0.529999V1.01675H103.639V0.529999H101.639ZM101.639 1.99025V2.96375H103.639V1.99025H101.639ZM101.639 3.93725V4.91075H103.639V3.93725H101.639ZM101.639 5.88425V6.85775H103.639V5.88425H101.639ZM101.639 7.83125V8.80475H103.639V7.83125H101.639ZM101.639 9.77825V10.7518H103.639V9.77825H101.639ZM101.639 11.7253V12.6988H103.639V11.7253H101.639ZM101.639 13.6723V14.6458H103.639V13.6723H101.639ZM101.639 15.6193V16.5928H103.639V15.6193H101.639ZM101.639 17.5662V18.5397H103.639V17.5662H101.639ZM101.639 19.5132V20H103.639V19.5132H101.639ZM102.639 21H103.1V19H102.639V21ZM104.023 21H104.945V19H104.023V21ZM105.868 21H106.79V19H105.868V21ZM107.713 21H108.635V19H107.713V21ZM109.558 21H110.019V19H109.558V21ZM110.019 21C110.2 21 110.378 20.9982 110.553 20.9947L110.512 18.9951C110.351 18.9984 110.187 19 110.019 19V21ZM111.627 20.9484C112 20.9231 112.361 20.8884 112.707 20.844L112.453 18.8602C112.149 18.8991 111.829 18.9302 111.491 18.953L111.627 20.9484ZM113.796 20.663C114.179 20.5833 114.544 20.4885 114.89 20.3779L114.28 18.4731C114.008 18.5604 113.711 18.638 113.389 18.705L113.796 20.663ZM115.978 19.9449C116.356 19.7597 116.706 19.5464 117.022 19.3023L115.799 17.7192C115.601 17.8721 115.369 18.016 115.099 18.1484L115.978 19.9449ZM117.931 18.3907C118.197 18.039 118.408 17.6543 118.563 17.2397L116.688 16.5416C116.601 16.7754 116.484 16.9884 116.336 17.1836L117.931 18.3907ZM118.848 15.9955C118.869 15.7936 118.879 15.5884 118.879 15.38H116.879C116.879 15.5236 116.872 15.6603 116.859 15.7903L118.848 15.9955ZM118.879 15.38V14.9225H116.879V15.38H118.879ZM118.879 14.0075V13.0925H116.879V14.0075H118.879ZM118.879 12.1775V11.72H116.879V12.1775H118.879ZM118.879 11.72C118.879 11.4239 118.861 11.1367 118.823 10.8595L116.842 11.1297C116.866 11.3079 116.879 11.5043 116.879 11.72H118.879ZM118.203 9.0913C118.021 8.80663 117.803 8.55164 117.549 8.32883L116.229 9.83116C116.341 9.9293 116.437 10.0412 116.519 10.1693L118.203 9.0913ZM117.573 8.35046C117.346 8.13739 117.097 7.94832 116.827 7.78265L115.779 9.48579C115.938 9.58392 116.08 9.69203 116.205 9.80954L117.573 8.35046ZM115.186 7.10949C114.92 7.04281 114.644 6.98981 114.358 6.94971L114.08 8.93029C114.302 8.96139 114.508 9.00138 114.7 9.04946L115.186 7.10949ZM114.378 6.95267C114.185 6.92174 113.984 6.89358 113.774 6.86808L113.533 8.85353C113.72 8.87625 113.896 8.90089 114.06 8.92733L114.378 6.95267ZM112.584 6.75748C112.214 6.73208 111.822 6.71231 111.408 6.69804L111.339 8.69685C111.733 8.71044 112.102 8.72912 112.446 8.75278L112.584 6.75748ZM110.241 6.67282C110.051 6.67094 109.857 6.67 109.659 6.67V8.67C109.851 8.67 110.038 8.67091 110.221 8.67273L110.241 6.67282ZM109.659 6.67H109.074V8.67H109.659V6.67ZM107.904 6.67H107.319V8.67H107.904V6.67ZM108.319 7.67V7.22375H106.319V7.67H108.319ZM108.319 6.33125V5.43875H106.319V6.33125H108.319ZM108.319 4.54625V3.65375H106.319V4.54625H108.319ZM108.319 2.76125V1.86875H106.319V2.76125H108.319ZM108.319 0.97625V0.529999H106.319V0.97625H108.319ZM107.319 -0.470001H106.734V1.53H107.319V-0.470001ZM105.564 -0.470001H104.394V1.53H105.564V-0.470001ZM103.224 -0.470001H102.639V1.53H103.224V-0.470001ZM109.809 15.67H109.179V17.67H109.809V15.67ZM107.919 15.67H107.289V17.67H107.919V15.67ZM108.289 16.67V16.1975H106.289V16.67H108.289ZM108.289 15.2525V14.3075H106.289V15.2525H108.289ZM108.289 13.3625V12.4175H106.289V13.3625H108.289ZM108.289 11.4725V11H106.289V11.4725H108.289ZM107.289 12H107.934V10H107.289V12ZM109.224 12H109.869V10H109.224V12ZM109.869 12C110.085 12 110.287 12.0039 110.475 12.0115L110.556 10.0131C110.338 10.0043 110.109 10 109.869 10V12ZM111.603 12.1293C111.799 12.1686 111.937 12.212 112.029 12.251L112.809 10.409C112.559 10.3035 112.284 10.2261 111.996 10.1683L111.603 12.1293ZM112.029 12.251C112.081 12.2729 112.11 12.2929 112.126 12.3053L113.391 10.7568C113.213 10.6106 113.015 10.4965 112.809 10.409L112.029 12.251ZM112.183 12.4158C112.192 12.4552 112.199 12.5119 112.199 12.59H114.199C114.199 12.3852 114.18 12.1799 114.134 11.978L112.183 12.4158ZM112.199 12.59V13.1075H114.199V12.59H112.199ZM112.199 14.1425V14.66H114.199V14.1425H112.199ZM112.199 14.66C112.199 14.7576 112.19 14.8381 112.176 14.9042L114.133 15.3176C114.178 15.1018 114.199 14.8817 114.199 14.66H112.199ZM112.019 15.2142C111.979 15.2554 111.927 15.2993 111.856 15.3438L112.922 17.0362C113.119 16.9119 113.302 16.7662 113.464 16.5968L112.019 15.2142ZM111.879 15.3297C111.794 15.3803 111.67 15.4356 111.497 15.4867L112.062 17.4053C112.359 17.3178 112.642 17.2025 112.899 17.0503L111.879 15.3297ZM110.412 15.653C110.226 15.6642 110.025 15.67 109.809 15.67V17.67C110.06 17.67 110.301 17.6633 110.532 17.6494L110.412 15.653ZM127.184 3.86H127.684V3.36H127.184V3.86ZM121.184 3.86H120.684V4.36H121.184V3.86ZM121.184 0.529999V0.0299988H120.684V0.529999H121.184ZM137.834 0.529999H138.334V0.0299988H137.834V0.529999ZM137.834 3.86V4.36H138.334V3.86H137.834ZM131.864 3.86V3.36H131.364V3.86H131.864ZM131.864 20V20.5H132.364V20H131.864ZM127.184 20H126.684V20.5H127.184V20ZM127.184 3.36H126.684V4.36H127.184V3.36ZM125.684 3.36H124.684V4.36H125.684V3.36ZM123.684 3.36H122.684V4.36H123.684V3.36ZM121.684 3.36H121.184V4.36H121.684V3.36ZM121.684 3.86V3.44375H120.684V3.86H121.684ZM121.684 2.61125V1.77875H120.684V2.61125H121.684ZM121.684 0.946249V0.529999H120.684V0.946249H121.684ZM121.184 1.03H121.704V0.0299988H121.184V1.03ZM122.745 1.03H123.786V0.0299988H122.745V1.03ZM124.826 1.03H125.867V0.0299988H124.826V1.03ZM126.907 1.03H127.948V0.0299988H126.907V1.03ZM128.989 1.03H130.029V0.0299988H128.989V1.03ZM131.07 1.03H132.111V0.0299988H131.07V1.03ZM133.151 1.03H134.192V0.0299988H133.151V1.03ZM135.232 1.03H136.273V0.0299988H135.232V1.03ZM137.314 1.03H137.834V0.0299988H137.314V1.03ZM137.334 0.529999V0.946249H138.334V0.529999H137.334ZM137.334 1.77875V2.61125H138.334V1.77875H137.334ZM137.334 3.44375V3.86H138.334V3.44375H137.334ZM137.834 3.36H137.336V4.36H137.834V3.36ZM136.341 3.36H135.346V4.36H136.341V3.36ZM134.351 3.36H133.356V4.36H134.351V3.36ZM132.361 3.36H131.864V4.36H132.361V3.36ZM131.364 3.86V4.36437H132.364V3.86H131.364ZM131.364 5.37312V6.38187H132.364V5.37312H131.364ZM131.364 7.39062V8.39937H132.364V7.39062H131.364ZM131.364 9.40812V10.4169H132.364V9.40812H131.364ZM131.364 11.4256V12.4344H132.364V11.4256H131.364ZM131.364 13.4431V14.4519H132.364V13.4431H131.364ZM131.364 15.4606V16.4694H132.364V15.4606H131.364ZM131.364 17.4781V18.4869H132.364V17.4781H131.364ZM131.364 19.4956V20H132.364V19.4956H131.364ZM131.864 19.5H131.279V20.5H131.864V19.5ZM130.109 19.5H128.939V20.5H130.109V19.5ZM127.769 19.5H127.184V20.5H127.769V19.5ZM127.684 20V19.4956H126.684V20H127.684ZM127.684 18.4869V17.4781H126.684V18.4869H127.684ZM127.684 16.4694V15.4606H126.684V16.4694H127.684ZM127.684 14.4519V13.4431H126.684V14.4519H127.684ZM127.684 12.4344V11.4256H126.684V12.4344H127.684ZM127.684 10.4169V9.40812H126.684V10.4169H127.684ZM127.684 8.39937V7.39062H126.684V8.39937H127.684ZM127.684 6.38188V5.37313H126.684V6.38188H127.684ZM127.684 4.36437V3.86H126.684V4.36437H127.684ZM127.184 3.86H128.184V2.86H127.184V3.86ZM121.184 3.86H120.184V4.86H121.184V3.86ZM121.184 0.529999V-0.470001H120.184V0.529999H121.184ZM137.834 0.529999H138.834V-0.470001H137.834V0.529999ZM137.834 3.86V4.86H138.834V3.86H137.834ZM131.864 3.86V2.86H130.864V3.86H131.864ZM131.864 20V21H132.864V20H131.864ZM127.184 20H126.184V21H127.184V20ZM127.184 2.86H126.684V4.86H127.184V2.86ZM125.684 2.86H124.684V4.86H125.684V2.86ZM123.684 2.86H122.684V4.86H123.684V2.86ZM121.684 2.86H121.184V4.86H121.684V2.86ZM122.184 3.86V3.44375H120.184V3.86H122.184ZM122.184 2.61125V1.77875H120.184V2.61125H122.184ZM122.184 0.946249V0.529999H120.184V0.946249H122.184ZM121.184 1.53H121.704V-0.470001H121.184V1.53ZM122.745 1.53H123.786V-0.470001H122.745V1.53ZM124.826 1.53H125.867V-0.470001H124.826V1.53ZM126.907 1.53H127.948V-0.470001H126.907V1.53ZM128.989 1.53H130.029V-0.470001H128.989V1.53ZM131.07 1.53H132.111V-0.470001H131.07V1.53ZM133.151 1.53H134.192V-0.470001H133.151V1.53ZM135.232 1.53H136.273V-0.470001H135.232V1.53ZM137.314 1.53H137.834V-0.470001H137.314V1.53ZM136.834 0.529999V0.946249H138.834V0.529999H136.834ZM136.834 1.77875V2.61125H138.834V1.77875H136.834ZM136.834 3.44375V3.86H138.834V3.44375H136.834ZM137.834 2.86H137.336V4.86H137.834V2.86ZM136.341 2.86H135.346V4.86H136.341V2.86ZM134.351 2.86H133.356V4.86H134.351V2.86ZM132.361 2.86H131.864V4.86H132.361V2.86ZM130.864 3.86V4.36437H132.864V3.86H130.864ZM130.864 5.37312V6.38187H132.864V5.37312H130.864ZM130.864 7.39062V8.39937H132.864V7.39062H130.864ZM130.864 9.40812V10.4169H132.864V9.40812H130.864ZM130.864 11.4256V12.4344H132.864V11.4256H130.864ZM130.864 13.4431V14.4519H132.864V13.4431H130.864ZM130.864 15.4606V16.4694H132.864V15.4606H130.864ZM130.864 17.4781V18.4869H132.864V17.4781H130.864ZM130.864 19.4956V20H132.864V19.4956H130.864ZM131.864 19H131.279V21H131.864V19ZM130.109 19H128.939V21H130.109V19ZM127.769 19H127.184V21H127.769V19ZM128.184 20V19.4956H126.184V20H128.184ZM128.184 18.4869V17.4781H126.184V18.4869H128.184ZM128.184 16.4694V15.4606H126.184V16.4694H128.184ZM128.184 14.4519V13.4431H126.184V14.4519H128.184ZM128.184 12.4344V11.4256H126.184V12.4344H128.184ZM128.184 10.4169V9.40812H126.184V10.4169H128.184ZM128.184 8.39937V7.39062H126.184V8.39937H128.184ZM128.184 6.38188V5.37313H126.184V6.38188H128.184ZM128.184 4.36437V3.86H126.184V4.36437H128.184ZM147.186 0.529999V0.0299988H146.838L146.717 0.356577L147.186 0.529999ZM152.886 0.529999L153.356 0.360408L153.237 0.0299988H152.886V0.529999ZM159.906 20V20.5H160.618L160.376 19.8304L159.906 20ZM155.166 20L154.692 20.1606L154.807 20.5H155.166V20ZM153.426 14.87L153.899 14.7094L153.784 14.37H153.426V14.87ZM146.316 14.87V14.37H145.955L145.841 14.7119L146.316 14.87ZM144.606 20V20.5H144.966L145.08 20.1581L144.606 20ZM139.986 20L139.517 19.8266L139.268 20.5H139.986V20ZM152.406 11.75V12.25H153.101L152.88 11.5907L152.406 11.75ZM149.946 4.43L150.42 4.27072L150.305 3.93H149.946V4.43ZM149.826 4.43V3.93H149.466L149.352 4.27072L149.826 4.43ZM147.366 11.75L146.892 11.5907L146.67 12.25H147.366V11.75ZM146.717 0.356577L146.537 0.843327L147.475 1.19017L147.655 0.703421L146.717 0.356577ZM146.177 1.81683L145.817 2.79033L146.755 3.13717L147.115 2.16367L146.177 1.81683ZM145.457 3.76383L145.097 4.73733L146.035 5.08417L146.395 4.11067L145.457 3.76383ZM144.737 5.71083L144.377 6.68433L145.315 7.03117L145.675 6.05767L144.737 5.71083ZM144.017 7.65783L143.657 8.63133L144.595 8.97817L144.955 8.00467L144.017 7.65783ZM143.297 9.60483L142.937 10.5783L143.875 10.9252L144.235 9.95167L143.297 9.60483ZM142.577 11.5518L142.217 12.5253L143.155 12.8722L143.515 11.8987L142.577 11.5518ZM141.857 13.4988L141.497 14.4723L142.435 14.8192L142.795 13.8457L141.857 13.4988ZM141.137 15.4458L140.777 16.4193L141.715 16.7662L142.075 15.7927L141.137 15.4458ZM140.417 17.3928L140.057 18.3663L140.995 18.7132L141.355 17.7397L140.417 17.3928ZM139.697 19.3398L139.517 19.8266L140.455 20.1734L140.635 19.6867L139.697 19.3398ZM139.986 20.5H140.563V19.5H139.986V20.5ZM141.718 20.5H142.873V19.5H141.718V20.5ZM144.028 20.5H144.606V19.5H144.028V20.5ZM145.08 20.1581L145.223 19.7306L144.274 19.4144L144.131 19.8419L145.08 20.1581ZM145.508 18.8756L145.793 18.0206L144.844 17.7044L144.559 18.5594L145.508 18.8756ZM146.078 17.1656L146.363 16.3106L145.414 15.9944L145.129 16.8494L146.078 17.1656ZM146.648 15.4556L146.79 15.0281L145.841 14.7119L145.699 15.1394L146.648 15.4556ZM146.316 15.37H146.76V14.37H146.316V15.37ZM147.649 15.37H148.538V14.37H147.649V15.37ZM149.426 15.37H150.315V14.37H149.426V15.37ZM151.204 15.37H152.093V14.37H151.204V15.37ZM152.981 15.37H153.426V14.37H152.981V15.37ZM152.952 15.0306L153.097 15.4581L154.044 15.1369L153.899 14.7094L152.952 15.0306ZM153.387 16.3131L153.677 17.1681L154.624 16.8469L154.334 15.9919L153.387 16.3131ZM153.967 18.0231L154.257 18.8781L155.204 18.5569L154.914 17.7019L153.967 18.0231ZM154.547 19.7331L154.692 20.1606L155.639 19.8394L155.494 19.4119L154.547 19.7331ZM155.166 20.5H155.758V19.5H155.166V20.5ZM156.943 20.5H158.128V19.5H156.943V20.5ZM159.313 20.5H159.906V19.5H159.313V20.5ZM160.376 19.8304L160.201 19.3437L159.26 19.6828L159.435 20.1696L160.376 19.8304ZM159.85 18.3702L159.499 17.3967L158.558 17.7358L158.909 18.7093L159.85 18.3702ZM159.148 16.4232L158.797 15.4497L157.856 15.7888L158.207 16.7623L159.148 16.4232ZM158.446 14.4762L158.095 13.5027L157.154 13.8418L157.505 14.8153L158.446 14.4762ZM157.744 12.5292L157.393 11.5557L156.452 11.8948L156.803 12.8683L157.744 12.5292ZM157.042 10.5822L156.691 9.60866L155.75 9.94784L156.101 10.9213L157.042 10.5822ZM156.34 8.63516L155.989 7.66166L155.048 8.00084L155.399 8.97434L156.34 8.63516ZM155.638 6.68816L155.287 5.71466L154.346 6.05384L154.697 7.02734L155.638 6.68816ZM154.936 4.74116L154.585 3.76766L153.644 4.10684L153.995 5.08034L154.936 4.74116ZM154.234 2.79416L153.883 1.82066L152.942 2.15984L153.293 3.13334L154.234 2.79416ZM153.532 0.847156L153.356 0.360408L152.415 0.699589L152.591 1.18634L153.532 0.847156ZM152.886 0.0299988H152.411V1.03H152.886V0.0299988ZM151.461 0.0299988H150.511V1.03H151.461V0.0299988ZM149.561 0.0299988H148.611V1.03H149.561V0.0299988ZM147.661 0.0299988H147.186V1.03H147.661V0.0299988ZM152.406 11.25H151.986V12.25H152.406V11.25ZM151.146 11.25H150.306V12.25H151.146V11.25ZM149.466 11.25H148.626V12.25H149.466V11.25ZM147.786 11.25H147.366V12.25H147.786V11.25ZM147.84 11.9093L147.993 11.4518L147.046 11.1332L146.892 11.5907L147.84 11.9093ZM148.301 10.5368L148.608 9.62178L147.661 9.30322L147.353 10.2182L148.301 10.5368ZM148.916 8.70678L149.223 7.79178L148.276 7.47322L147.968 8.38822L148.916 8.70678ZM149.531 6.87678L149.838 5.96178L148.891 5.64322L148.583 6.55822L149.531 6.87678ZM150.146 5.04678L150.3 4.58928L149.352 4.27072L149.198 4.72822L150.146 5.04678ZM149.826 4.93H149.856V3.93H149.826V4.93ZM149.916 4.93H149.946V3.93H149.916V4.93ZM149.472 4.58928L149.626 5.04678L150.573 4.72822L150.42 4.27072L149.472 4.58928ZM149.933 5.96178L150.241 6.87678L151.188 6.55822L150.881 5.64322L149.933 5.96178ZM150.548 7.79178L150.856 8.70678L151.803 8.38822L151.496 7.47322L150.548 7.79178ZM151.163 9.62178L151.471 10.5368L152.418 10.2182L152.111 9.30322L151.163 9.62178ZM151.778 11.4518L151.932 11.9093L152.88 11.5907L152.726 11.1332L151.778 11.4518ZM147.186 0.529999V-0.470001H146.489L146.248 0.183155L147.186 0.529999ZM152.886 0.529999L153.827 0.190817L153.588 -0.470001H152.886V0.529999ZM159.906 20V21H161.329L160.846 19.6608L159.906 20ZM155.166 20L154.219 20.3212L154.449 21H155.166V20ZM153.426 14.87L154.373 14.5488L154.143 13.87H153.426V14.87ZM146.316 14.87V13.87H145.595L145.367 14.5538L146.316 14.87ZM144.606 20V21H145.327L145.554 20.3162L144.606 20ZM139.986 20L139.048 19.6532L138.55 21H139.986V20ZM152.406 11.75V12.75H153.797L153.354 11.4314L152.406 11.75ZM149.946 4.43L150.894 4.11144L150.665 3.43H149.946V4.43ZM149.826 4.43V3.43H149.107L148.878 4.11144L149.826 4.43ZM147.366 11.75L146.418 11.4314L145.975 12.75H147.366V11.75ZM146.248 0.183155L146.068 0.669905L147.944 1.36359L148.124 0.876842L146.248 0.183155ZM145.708 1.6434L145.348 2.61691L147.224 3.31059L147.584 2.33709L145.708 1.6434ZM144.988 3.59041L144.628 4.56391L146.504 5.25759L146.864 4.28409L144.988 3.59041ZM144.268 5.53741L143.908 6.51091L145.784 7.20459L146.144 6.23109L144.268 5.53741ZM143.548 7.48441L143.188 8.45791L145.064 9.15159L145.424 8.17809L143.548 7.48441ZM142.828 9.43141L142.468 10.4049L144.344 11.0986L144.704 10.1251L142.828 9.43141ZM142.108 11.3784L141.748 12.3519L143.624 13.0456L143.984 12.0721L142.108 11.3784ZM141.388 13.3254L141.028 14.2989L142.904 14.9926L143.264 14.0191L141.388 13.3254ZM140.668 15.2724L140.308 16.2459L142.184 16.9396L142.544 15.9661L140.668 15.2724ZM139.948 17.2194L139.588 18.1929L141.464 18.8866L141.824 17.9131L139.948 17.2194ZM139.228 19.1664L139.048 19.6532L140.924 20.3468L141.104 19.8601L139.228 19.1664ZM139.986 21H140.563V19H139.986V21ZM141.718 21H142.873V19H141.718V21ZM144.028 21H144.606V19H144.028V21ZM145.554 20.3162L145.697 19.8887L143.8 19.2563L143.657 19.6838L145.554 20.3162ZM145.982 19.0337L146.267 18.1787L144.37 17.5463L144.085 18.4013L145.982 19.0337ZM146.552 17.3237L146.837 16.4687L144.94 15.8363L144.655 16.6913L146.552 17.3237ZM147.122 15.6137L147.264 15.1862L145.367 14.5538L145.225 14.9813L147.122 15.6137ZM146.316 15.87H146.76V13.87H146.316V15.87ZM147.649 15.87H148.538V13.87H147.649V15.87ZM149.426 15.87H150.315V13.87H149.426V15.87ZM151.204 15.87H152.093V13.87H151.204V15.87ZM152.981 15.87H153.426V13.87H152.981V15.87ZM152.479 15.1912L152.624 15.6187L154.518 14.9763L154.373 14.5488L152.479 15.1912ZM152.914 16.4737L153.204 17.3287L155.098 16.6863L154.808 15.8313L152.914 16.4737ZM153.494 18.1837L153.784 19.0387L155.678 18.3963L155.388 17.5413L153.494 18.1837ZM154.074 19.8937L154.219 20.3212L156.113 19.6788L155.968 19.2513L154.074 19.8937ZM155.166 21H155.758V19H155.166V21ZM156.943 21H158.128V19H156.943V21ZM159.313 21H159.906V19H159.313V21ZM160.846 19.6608L160.671 19.1741L158.79 19.8524L158.965 20.3392L160.846 19.6608ZM160.32 18.2006L159.969 17.2271L158.088 17.9054L158.439 18.8789L160.32 18.2006ZM159.618 16.2536L159.267 15.2801L157.386 15.9584L157.737 16.9319L159.618 16.2536ZM158.916 14.3066L158.565 13.3331L156.684 14.0114L157.035 14.9849L158.916 14.3066ZM158.214 12.3596L157.863 11.3861L155.982 12.0644L156.333 13.0379L158.214 12.3596ZM157.512 10.4126L157.161 9.43907L155.28 10.1174L155.631 11.0909L157.512 10.4126ZM156.81 8.46557L156.459 7.49207L154.578 8.17043L154.929 9.14393L156.81 8.46557ZM156.108 6.51857L155.757 5.54507L153.876 6.22343L154.227 7.19693L156.108 6.51857ZM155.406 4.57157L155.055 3.59807L153.174 4.27643L153.525 5.24993L155.406 4.57157ZM154.704 2.62457L154.353 1.65107L152.472 2.32943L152.823 3.30293L154.704 2.62457ZM154.002 0.677565L153.827 0.190817L151.945 0.86918L152.121 1.35593L154.002 0.677565ZM152.886 -0.470001H152.411V1.53H152.886V-0.470001ZM151.461 -0.470001H150.511V1.53H151.461V-0.470001ZM149.561 -0.470001H148.611V1.53H149.561V-0.470001ZM147.661 -0.470001H147.186V1.53H147.661V-0.470001ZM152.406 10.75H151.986V12.75H152.406V10.75ZM151.146 10.75H150.306V12.75H151.146V10.75ZM149.466 10.75H148.626V12.75H149.466V10.75ZM147.786 10.75H147.366V12.75H147.786V10.75ZM148.314 12.0686L148.467 11.6111L146.572 10.9739L146.418 11.4314L148.314 12.0686ZM148.775 10.6961L149.082 9.78106L147.187 9.14394L146.879 10.0589L148.775 10.6961ZM149.39 8.86606L149.697 7.95106L147.802 7.31394L147.494 8.22894L149.39 8.86606ZM150.005 7.03606L150.312 6.12106L148.417 5.48394L148.109 6.39894L150.005 7.03606ZM150.62 5.20606L150.774 4.74856L148.878 4.11144L148.724 4.56894L150.62 5.20606ZM149.826 5.43H149.856V3.43H149.826V5.43ZM149.916 5.43H149.946V3.43H149.916V5.43ZM148.998 4.74856L149.152 5.20606L151.047 4.56894L150.894 4.11144L148.998 4.74856ZM149.459 6.12106L149.767 7.03606L151.662 6.39894L151.355 5.48394L149.459 6.12106ZM150.074 7.95106L150.382 8.86606L152.277 8.22894L151.97 7.31394L150.074 7.95106ZM150.689 9.78106L150.997 10.6961L152.892 10.0589L152.585 9.14394L150.689 9.78106ZM151.304 11.6111L151.458 12.0686L153.354 11.4314L153.2 10.9739L151.304 11.6111ZM168.065 3.86H168.565V3.36H168.065V3.86ZM162.065 3.86H161.565V4.36H162.065V3.86ZM162.065 0.529999V0.0299988H161.565V0.529999H162.065ZM178.715 0.529999H179.215V0.0299988H178.715V0.529999ZM178.715 3.86V4.36H179.215V3.86H178.715ZM172.745 3.86V3.36H172.245V3.86H172.745ZM172.745 20V20.5H173.245V20H172.745ZM168.065 20H167.565V20.5H168.065V20ZM168.065 3.36H167.565V4.36H168.065V3.36ZM166.565 3.36H165.565V4.36H166.565V3.36ZM164.565 3.36H163.565V4.36H164.565V3.36ZM162.565 3.36H162.065V4.36H162.565V3.36ZM162.565 3.86V3.44375H161.565V3.86H162.565ZM162.565 2.61125V1.77875H161.565V2.61125H162.565ZM162.565 0.946249V0.529999H161.565V0.946249H162.565ZM162.065 1.03H162.585V0.0299988H162.065V1.03ZM163.626 1.03H164.666V0.0299988H163.626V1.03ZM165.707 1.03H166.748V0.0299988H165.707V1.03ZM167.788 1.03H168.829V0.0299988H167.788V1.03ZM169.87 1.03H170.91V0.0299988H169.87V1.03ZM171.951 1.03H172.991V0.0299988H171.951V1.03ZM174.032 1.03H175.073V0.0299988H174.032V1.03ZM176.113 1.03H177.154V0.0299988H176.113V1.03ZM178.195 1.03H178.715V0.0299988H178.195V1.03ZM178.215 0.529999V0.946249H179.215V0.529999H178.215ZM178.215 1.77875V2.61125H179.215V1.77875H178.215ZM178.215 3.44375V3.86H179.215V3.44375H178.215ZM178.715 3.36H178.217V4.36H178.715V3.36ZM177.222 3.36H176.227V4.36H177.222V3.36ZM175.232 3.36H174.237V4.36H175.232V3.36ZM173.242 3.36H172.745V4.36H173.242V3.36ZM172.245 3.86V4.36437H173.245V3.86H172.245ZM172.245 5.37312V6.38187H173.245V5.37312H172.245ZM172.245 7.39062V8.39937H173.245V7.39062H172.245ZM172.245 9.40812V10.4169H173.245V9.40812H172.245ZM172.245 11.4256V12.4344H173.245V11.4256H172.245ZM172.245 13.4431V14.4519H173.245V13.4431H172.245ZM172.245 15.4606V16.4694H173.245V15.4606H172.245ZM172.245 17.4781V18.4869H173.245V17.4781H172.245ZM172.245 19.4956V20H173.245V19.4956H172.245ZM172.745 19.5H172.16V20.5H172.745V19.5ZM170.99 19.5H169.82V20.5H170.99V19.5ZM168.65 19.5H168.065V20.5H168.65V19.5ZM168.565 20V19.4956H167.565V20H168.565ZM168.565 18.4869V17.4781H167.565V18.4869H168.565ZM168.565 16.4694V15.4606H167.565V16.4694H168.565ZM168.565 14.4519V13.4431H167.565V14.4519H168.565ZM168.565 12.4344V11.4256H167.565V12.4344H168.565ZM168.565 10.4169V9.40812H167.565V10.4169H168.565ZM168.565 8.39937V7.39062H167.565V8.39937H168.565ZM168.565 6.38188V5.37313H167.565V6.38188H168.565ZM168.565 4.36437V3.86H167.565V4.36437H168.565ZM168.065 3.86H169.065V2.86H168.065V3.86ZM162.065 3.86H161.065V4.86H162.065V3.86ZM162.065 0.529999V-0.470001H161.065V0.529999H162.065ZM178.715 0.529999H179.715V-0.470001H178.715V0.529999ZM178.715 3.86V4.86H179.715V3.86H178.715ZM172.745 3.86V2.86H171.745V3.86H172.745ZM172.745 20V21H173.745V20H172.745ZM168.065 20H167.065V21H168.065V20ZM168.065 2.86H167.565V4.86H168.065V2.86ZM166.565 2.86H165.565V4.86H166.565V2.86ZM164.565 2.86H163.565V4.86H164.565V2.86ZM162.565 2.86H162.065V4.86H162.565V2.86ZM163.065 3.86V3.44375H161.065V3.86H163.065ZM163.065 2.61125V1.77875H161.065V2.61125H163.065ZM163.065 0.946249V0.529999H161.065V0.946249H163.065ZM162.065 1.53H162.585V-0.470001H162.065V1.53ZM163.626 1.53H164.666V-0.470001H163.626V1.53ZM165.707 1.53H166.748V-0.470001H165.707V1.53ZM167.788 1.53H168.829V-0.470001H167.788V1.53ZM169.87 1.53H170.91V-0.470001H169.87V1.53ZM171.951 1.53H172.991V-0.470001H171.951V1.53ZM174.032 1.53H175.073V-0.470001H174.032V1.53ZM176.113 1.53H177.154V-0.470001H176.113V1.53ZM178.195 1.53H178.715V-0.470001H178.195V1.53ZM177.715 0.529999V0.946249H179.715V0.529999H177.715ZM177.715 1.77875V2.61125H179.715V1.77875H177.715ZM177.715 3.44375V3.86H179.715V3.44375H177.715ZM178.715 2.86H178.217V4.86H178.715V2.86ZM177.222 2.86H176.227V4.86H177.222V2.86ZM175.232 2.86H174.237V4.86H175.232V2.86ZM173.242 2.86H172.745V4.86H173.242V2.86ZM171.745 3.86V4.36437H173.745V3.86H171.745ZM171.745 5.37312V6.38187H173.745V5.37312H171.745ZM171.745 7.39062V8.39937H173.745V7.39062H171.745ZM171.745 9.40812V10.4169H173.745V9.40812H171.745ZM171.745 11.4256V12.4344H173.745V11.4256H171.745ZM171.745 13.4431V14.4519H173.745V13.4431H171.745ZM171.745 15.4606V16.4694H173.745V15.4606H171.745ZM171.745 17.4781V18.4869H173.745V17.4781H171.745ZM171.745 19.4956V20H173.745V19.4956H171.745ZM172.745 19H172.16V21H172.745V19ZM170.99 19H169.82V21H170.99V19ZM168.65 19H168.065V21H168.65V19ZM169.065 20V19.4956H167.065V20H169.065ZM169.065 18.4869V17.4781H167.065V18.4869H169.065ZM169.065 16.4694V15.4606H167.065V16.4694H169.065ZM169.065 14.4519V13.4431H167.065V14.4519H169.065ZM169.065 12.4344V11.4256H167.065V12.4344H169.065ZM169.065 10.4169V9.40812H167.065V10.4169H169.065ZM169.065 8.39937V7.39062H167.065V8.39937H169.065ZM169.065 6.38188V5.37313H167.065V6.38188H169.065ZM169.065 4.36437V3.86H167.065V4.36437H169.065Z" fill="#77C2F9" fill-opacity="0.9"/>
</svg>
