<svg width="299" height="34" viewBox="0 0 299 34" fill="none" xmlns="http://www.w3.org/2000/svg">
<path d="M0.5 0.549997V0.0499973H0V0.549997H0.5ZM21 1.2L20.885 1.68659L20.8869 1.68705L21 1.2ZM25.05 3.5L24.6515 3.80193L24.6566 3.8087L24.6619 3.81529L25.05 3.5ZM24.95 19.15L24.5553 18.843L24.55 18.85L24.95 19.15ZM20.6 21.7L20.4787 21.2149L20.4768 21.2154L20.6 21.7ZM8.3 22.45V21.95H7.8V22.45H8.3ZM8.3 33V33.5H8.8V33H8.3ZM0.5 33H0V33.5H0.5V33ZM17.55 16.4L17.7943 16.8363L17.8008 16.8326L17.8072 16.8287L17.55 16.4ZM17.6 6.6L17.4006 7.05859L17.4077 7.06154L17.6 6.6ZM8.3 6.1V5.6H7.8V6.1H8.3ZM8.3 17.1H7.8V17.6H8.3V17.1ZM0 0.549997V1.56406H1V0.549997H0ZM0 3.59219V5.62031H1V3.59219H0ZM0 7.64844V9.67656H1V7.64844H0ZM0 11.7047V13.7328H1V11.7047H0ZM0 15.7609V17.7891H1V15.7609H0ZM0 19.8172V21.8453H1V19.8172H0ZM0 23.8734V25.9016H1V23.8734H0ZM0 27.9297V29.9578H1V27.9297H0ZM0 31.9859V33H1V31.9859H0ZM0.5 33.5H1.475V32.5H0.5V33.5ZM3.425 33.5H5.375V32.5H3.425V33.5ZM7.325 33.5H8.3V32.5H7.325V33.5ZM8.8 33V32.1208H7.8V33H8.8ZM8.8 30.3625V28.6042H7.8V30.3625H8.8ZM8.8 26.8458V25.0875H7.8V26.8458H8.8ZM8.8 23.3292V22.45H7.8V23.3292H8.8ZM8.3 22.95H9.375V21.95H8.3V22.95ZM11.525 22.95H12.6V21.95H11.525V22.95ZM12.6 22.95C12.9455 22.95 13.2838 22.9474 13.615 22.9422L13.5992 21.9423C13.2735 21.9474 12.9405 21.95 12.6 21.95V22.95ZM15.6467 22.8723C16.3649 22.8329 17.0428 22.7784 17.6802 22.7087L17.5715 21.7147C16.9541 21.7822 16.2944 21.8353 15.5919 21.8738L15.6467 22.8723ZM19.7118 22.4089C20.0655 22.3408 20.4027 22.2661 20.7232 22.1846L20.4768 21.2154C20.177 21.2916 19.8591 21.3622 19.5228 21.4269L19.7118 22.4089ZM20.7213 22.1851C21.173 22.0721 21.6001 21.9414 22.0023 21.7923L21.6548 20.8546C21.2901 20.9898 20.8983 21.11 20.4787 21.2149L20.7213 22.1851ZM24.3828 20.4614C24.7502 20.1562 25.0731 19.8191 25.35 19.45L24.55 18.85C24.3222 19.1537 24.054 19.4345 23.7438 19.6922L24.3828 20.4614ZM25.3447 19.457C25.6338 19.0852 25.8802 18.6749 26.0847 18.2276L25.1752 17.8118C25.0011 18.1927 24.7942 18.5359 24.5553 18.843L25.3447 19.457ZM26.7817 15.5219C26.8274 15.085 26.85 14.6275 26.85 14.15H25.85C25.85 14.5961 25.8289 15.0186 25.7871 15.4179L26.7817 15.5219ZM26.85 14.15V13.3813H25.85V14.15H26.85ZM26.85 11.8438V10.3062H25.85V11.8438H26.85ZM26.85 8.76875V8H25.85V8.76875H26.85ZM26.85 8C26.85 7.56637 26.829 7.15113 26.7865 6.75462L25.7922 6.86121C25.8306 7.21899 25.85 7.59847 25.85 8H26.85ZM26.1336 4.29587C25.9416 3.89036 25.71 3.51939 25.4381 3.1847L24.6619 3.81529C24.8806 4.08443 25.0702 4.38672 25.2299 4.7239L26.1336 4.29587ZM25.4485 3.19807C25.1885 2.85486 24.8846 2.54294 24.5385 2.26204L23.9084 3.03853C24.1952 3.27128 24.4423 3.52583 24.6515 3.80193L25.4485 3.19807ZM22.3073 1.05721C21.9322 0.925249 21.5339 0.81065 21.1131 0.71295L20.8869 1.68705C21.2755 1.77726 21.6382 1.88191 21.9754 2.00054L22.3073 1.05721ZM21.115 0.713406C20.8141 0.642287 20.4972 0.577124 20.1644 0.517795L19.9889 1.50227C20.3052 1.55867 20.6039 1.62015 20.885 1.68659L21.115 0.713406ZM18.2585 0.257921C17.6618 0.19779 17.0267 0.150807 16.3533 0.116834L16.3029 1.11556C16.9617 1.1488 17.5801 1.19462 18.1582 1.25288L18.2585 0.257921ZM14.4505 0.0567417C14.1404 0.0522442 13.8236 0.0499973 13.5 0.0499973V1.05C13.819 1.05 14.131 1.05221 14.436 1.05664L14.4505 0.0567417ZM13.5 0.0499973H12.4167V1.05H13.5V0.0499973ZM10.25 0.0499973H8.08333V1.05H10.25V0.0499973ZM5.91667 0.0499973H3.75V1.05H5.91667V0.0499973ZM1.58333 0.0499973H0.5V1.05H1.58333V0.0499973ZM13.25 16.6H12.0125V17.6H13.25V16.6ZM9.5375 16.6H8.3V17.6H9.5375V16.6ZM8.8 17.1V16.1833H7.8V17.1H8.8ZM8.8 14.35V12.5167H7.8V14.35H8.8ZM8.8 10.6833V8.85H7.8V10.6833H8.8ZM8.8 7.01666V6.1H7.8V7.01666H8.8ZM8.3 6.6H9.5125V5.6H8.3V6.6ZM11.9375 6.6H13.15V5.6H11.9375V6.6ZM13.15 6.6C13.5442 6.6 13.9141 6.60541 14.2599 6.61618L14.291 5.61666C13.9336 5.60553 13.5532 5.6 13.15 5.6V6.6ZM16.4329 6.80164C16.8632 6.87436 17.1807 6.96292 17.4006 7.05853L17.7994 6.14147C17.4764 6.00105 17.0714 5.89536 16.5995 5.81562L16.4329 6.80164ZM17.4077 7.06154C17.5712 7.12965 17.705 7.21387 17.8145 7.3114L18.4796 6.56472C18.2795 6.3864 18.0486 6.24524 17.7923 6.13846L17.4077 7.06154ZM18.2524 8.15132C18.2833 8.31299 18.3 8.49533 18.3 8.7H19.3C19.3 8.44171 19.279 8.19564 19.2346 7.96343L18.2524 8.15132ZM18.3 8.7V10H19.3V8.7H18.3ZM18.3 12.6V13.9H19.3V12.6H18.3ZM18.3 13.9C18.3 14.1337 18.2814 14.3468 18.246 14.5407L19.2298 14.7202C19.2772 14.4602 19.3 14.1864 19.3 13.9H18.3ZM17.7489 15.6024C17.6227 15.7406 17.4717 15.8639 17.2928 15.9713L17.8072 16.8287C18.0641 16.6747 18.2918 16.4909 18.4875 16.2765L17.7489 15.6024ZM17.3057 15.9637C17.0781 16.0912 16.78 16.2063 16.4019 16.3022L16.6478 17.2715C17.0847 17.1607 17.47 17.0178 17.7943 16.8363L17.3057 15.9637ZM14.3242 16.5751C13.9889 16.5917 13.6309 16.6 13.25 16.6V17.6C13.6454 17.6 14.0199 17.5913 14.3735 17.5739L14.3242 16.5751ZM0.5 0.549997V-0.450003H-0.5V0.549997H0.5ZM21 1.2L20.77 2.17319L20.7739 2.1741L21 1.2ZM25.05 3.5L24.2529 4.10386L24.2632 4.1174L24.2739 4.13059L25.05 3.5ZM24.95 19.15L24.1606 18.5361L24.1553 18.543L24.15 18.55L24.95 19.15ZM20.6 21.7L20.3575 20.7299L20.3536 20.7308L20.6 21.7ZM8.3 22.45V21.45H7.3V22.45H8.3ZM8.3 33V34H9.3V33H8.3ZM0.5 33H-0.5V34H0.5V33ZM17.55 16.4L18.0386 17.2725L18.0517 17.2652L18.0645 17.2575L17.55 16.4ZM17.6 6.6L17.2013 7.51707L17.2083 7.52013L17.2154 7.52308L17.6 6.6ZM8.3 6.1V5.1H7.3V6.1H8.3ZM8.3 17.1H7.3V18.1H8.3V17.1ZM-0.5 0.549997V1.56406H1.5V0.549997H-0.5ZM-0.5 3.59219V5.62031H1.5V3.59219H-0.5ZM-0.5 7.64844V9.67656H1.5V7.64844H-0.5ZM-0.5 11.7047V13.7328H1.5V11.7047H-0.5ZM-0.5 15.7609V17.7891H1.5V15.7609H-0.5ZM-0.5 19.8172V21.8453H1.5V19.8172H-0.5ZM-0.5 23.8734V25.9016H1.5V23.8734H-0.5ZM-0.5 27.9297V29.9578H1.5V27.9297H-0.5ZM-0.5 31.9859V33H1.5V31.9859H-0.5ZM0.5 34H1.475V32H0.5V34ZM3.425 34H5.375V32H3.425V34ZM7.325 34H8.3V32H7.325V34ZM9.3 33V32.1208H7.3V33H9.3ZM9.3 30.3625V28.6042H7.3V30.3625H9.3ZM9.3 26.8458V25.0875H7.3V26.8458H9.3ZM9.3 23.3292V22.45H7.3V23.3292H9.3ZM8.3 23.45H9.375V21.45H8.3V23.45ZM11.525 23.45H12.6V21.45H11.525V23.45ZM12.6 23.45C12.948 23.45 13.289 23.4474 13.6229 23.4421L13.5913 21.4423C13.2684 21.4474 12.9379 21.45 12.6 21.45V23.45ZM15.6741 23.3716C16.4002 23.3317 17.0872 23.2766 17.7346 23.2058L17.5172 21.2176C16.9098 21.284 16.2591 21.3365 15.5645 21.3746L15.6741 23.3716ZM19.8064 22.8999C20.1687 22.8301 20.5155 22.7533 20.8464 22.6692L20.3536 20.7308C20.0642 20.8044 19.7558 20.8729 19.4283 20.9359L19.8064 22.8999ZM20.8425 22.6701C21.3103 22.5532 21.7552 22.4172 22.1761 22.2611L21.481 20.3858C21.1351 20.514 20.7609 20.629 20.3575 20.7299L20.8425 22.6701ZM24.7023 20.846C25.0983 20.517 25.4486 20.1518 25.75 19.75L24.15 18.55C23.9467 18.821 23.7059 19.0737 23.4243 19.3076L24.7023 20.846ZM25.7394 19.7639C26.0536 19.3599 26.3198 18.916 26.5394 18.4355L24.7205 17.6039C24.5615 17.9517 24.3744 18.2613 24.1606 18.5361L25.7394 19.7639ZM27.279 15.5739C27.3267 15.1181 27.35 14.6432 27.35 14.15H25.35C25.35 14.5804 25.3296 14.9855 25.2898 15.3658L27.279 15.5739ZM27.35 14.15V13.3813H25.35V14.15H27.35ZM27.35 11.8438V10.3062H25.35V11.8438H27.35ZM27.35 8.76875V8H25.35V8.76875H27.35ZM27.35 8C27.35 7.55033 27.3282 7.1172 27.2837 6.70132L25.2951 6.91451C25.3313 7.25292 25.35 7.61452 25.35 8H27.35ZM26.5855 4.08185C26.3773 3.64218 26.1247 3.23687 25.8261 2.86941L24.2739 4.13059C24.4659 4.36695 24.6345 4.6349 24.778 4.93791L26.5855 4.08185ZM25.8471 2.89614C25.5617 2.51938 25.2293 2.17877 24.8536 1.8738L23.5933 3.42677C23.8504 3.63545 24.0692 3.86131 24.2529 4.10386L25.8471 2.89614ZM22.4732 0.585547C22.0791 0.446919 21.6631 0.327347 21.2261 0.225901L20.7739 2.1741C21.1463 2.26056 21.4912 2.36024 21.8095 2.4722L22.4732 0.585547ZM21.23 0.226813C20.9192 0.153357 20.5932 0.0863495 20.2521 0.0255547L19.9011 1.99451C20.2093 2.04944 20.4988 2.10908 20.77 2.17318L21.23 0.226813ZM18.3086 -0.239559C17.7027 -0.300625 17.0592 -0.34819 16.3785 -0.382531L16.2777 1.61493C16.9293 1.6478 17.5393 1.69304 18.1081 1.75036L18.3086 -0.239559ZM14.4578 -0.443206C14.1452 -0.44774 13.8259 -0.450003 13.5 -0.450003V1.55C13.8167 1.55 14.1263 1.5522 14.4288 1.55658L14.4578 -0.443206ZM13.5 -0.450003H12.4167V1.55H13.5V-0.450003ZM10.25 -0.450003H8.08333V1.55H10.25V-0.450003ZM5.91667 -0.450003H3.75V1.55H5.91667V-0.450003ZM1.58333 -0.450003H0.5V1.55H1.58333V-0.450003ZM13.25 16.1H12.0125V18.1H13.25V16.1ZM9.5375 16.1H8.3V18.1H9.5375V16.1ZM9.3 17.1V16.1833H7.3V17.1H9.3ZM9.3 14.35V12.5167H7.3V14.35H9.3ZM9.3 10.6833V8.85H7.3V10.6833H9.3ZM9.3 7.01666V6.1H7.3V7.01666H9.3ZM8.3 7.1H9.5125V5.1H8.3V7.1ZM11.9375 7.1H13.15V5.1H11.9375V7.1ZM13.15 7.1C13.5396 7.1 13.9043 7.10535 14.2443 7.11593L14.3066 5.1169C13.9433 5.10559 13.5577 5.1 13.15 5.1V7.1ZM16.3496 7.29465C16.7591 7.36386 17.0329 7.44385 17.2013 7.51707L17.9987 5.68293C17.6243 5.52012 17.1755 5.40587 16.6829 5.32261L16.3496 7.29465ZM17.2154 7.52308C17.3325 7.57186 17.4177 7.62761 17.4819 7.68473L18.8122 6.19139C18.5667 5.97267 18.2873 5.80304 17.9846 5.67692L17.2154 7.52308ZM17.7613 8.24526C17.7855 8.37166 17.8 8.52215 17.8 8.7H19.8C19.8 8.4149 19.7768 8.13697 19.7257 7.86948L17.7613 8.24526ZM17.8 8.7V10H19.8V8.7H17.8ZM17.8 12.6V13.9H19.8V12.6H17.8ZM17.8 13.9C17.8 14.1073 17.7835 14.2902 17.7541 14.4509L19.7217 14.8099C19.7751 14.5168 19.8 14.2128 19.8 13.9H17.8ZM17.3796 15.2653C17.2882 15.3655 17.1756 15.4585 17.0355 15.5425L18.0645 17.2575C18.3602 17.0801 18.6264 16.866 18.8568 16.6136L17.3796 15.2653ZM17.0614 15.5275C16.8821 15.6279 16.6277 15.7291 16.279 15.8175L16.7707 17.7561C17.237 17.6379 17.666 17.4811 18.0386 17.2725L17.0614 15.5275ZM14.2996 16.0757C13.9734 16.0918 13.6237 16.1 13.25 16.1V18.1C13.6526 18.1 14.0354 18.0912 14.3982 18.0733L14.2996 16.0757ZM34.3477 0.549997V0.0499973H33.8477V0.549997H34.3477ZM59.0977 0.549997H59.5977V0.0499973H59.0977V0.549997ZM59.0977 6.1V6.6H59.5977V6.1H59.0977ZM42.1477 6.1V5.6H41.6477V6.1H42.1477ZM42.1477 13.55H41.6477V14.05H42.1477V13.55ZM57.4477 13.55H57.9477V13.05H57.4477V13.55ZM57.4477 19.1V19.6H57.9477V19.1H57.4477ZM42.1477 19.1V18.6H41.6477V19.1H42.1477ZM42.1477 27.45H41.6477V27.95H42.1477V27.45ZM59.5977 27.45H60.0977V26.95H59.5977V27.45ZM59.5977 33V33.5H60.0977V33H59.5977ZM34.3477 33H33.8477V33.5H34.3477V33ZM33.8477 0.549997V1.56406H34.8477V0.549997H33.8477ZM33.8477 3.59219V5.62031H34.8477V3.59219H33.8477ZM33.8477 7.64844V9.67656H34.8477V7.64844H33.8477ZM33.8477 11.7047V13.7328H34.8477V11.7047H33.8477ZM33.8477 15.7609V17.7891H34.8477V15.7609H33.8477ZM33.8477 19.8172V21.8453H34.8477V19.8172H33.8477ZM33.8477 23.8734V25.9016H34.8477V23.8734H33.8477ZM33.8477 27.9297V29.9578H34.8477V27.9297H33.8477ZM33.8477 31.9859V33H34.8477V31.9859H33.8477ZM34.3477 33.5H35.3997V32.5H34.3477V33.5ZM37.5039 33.5H39.6081V32.5H37.5039V33.5ZM41.7122 33.5H43.8164V32.5H41.7122V33.5ZM45.9206 33.5H48.0247V32.5H45.9206V33.5ZM50.1289 33.5H52.2331V32.5H50.1289V33.5ZM54.3372 33.5H56.4414V32.5H54.3372V33.5ZM58.5456 33.5H59.5977V32.5H58.5456V33.5ZM60.0977 33V31.6125H59.0977V33H60.0977ZM60.0977 28.8375V27.45H59.0977V28.8375H60.0977ZM59.5977 26.95H58.507V27.95H59.5977V26.95ZM56.3258 26.95H54.1445V27.95H56.3258V26.95ZM51.9633 26.95H49.782V27.95H51.9633V26.95ZM47.6008 26.95H45.4195V27.95H47.6008V26.95ZM43.2383 26.95H42.1477V27.95H43.2383V26.95ZM42.6477 27.45V26.4062H41.6477V27.45H42.6477ZM42.6477 24.3187V22.2313H41.6477V24.3187H42.6477ZM42.6477 20.1437V19.1H41.6477V20.1437H42.6477ZM42.1477 19.6H43.1039V18.6H42.1477V19.6ZM45.0164 19.6H46.9289V18.6H45.0164V19.6ZM48.8414 19.6H50.7539V18.6H48.8414V19.6ZM52.6664 19.6H54.5789V18.6H52.6664V19.6ZM56.4914 19.6H57.4477V18.6H56.4914V19.6ZM57.9477 19.1V17.7125H56.9477V19.1H57.9477ZM57.9477 14.9375V13.55H56.9477V14.9375H57.9477ZM57.4477 13.05H56.4914V14.05H57.4477V13.05ZM54.5789 13.05H52.6664V14.05H54.5789V13.05ZM50.7539 13.05H48.8414V14.05H50.7539V13.05ZM46.9289 13.05H45.0164V14.05H46.9289V13.05ZM43.1039 13.05H42.1477V14.05H43.1039V13.05ZM42.6477 13.55V12.6187H41.6477V13.55H42.6477ZM42.6477 10.7562V8.89375H41.6477V10.7562H42.6477ZM42.6477 7.03125V6.1H41.6477V7.03125H42.6477ZM42.1477 6.6H43.207V5.6H42.1477V6.6ZM45.3258 6.6H47.4445V5.6H45.3258V6.6ZM49.5633 6.6H51.682V5.6H49.5633V6.6ZM53.8008 6.6H55.9195V5.6H53.8008V6.6ZM58.0383 6.6H59.0977V5.6H58.0383V6.6ZM59.5977 6.1V4.7125H58.5977V6.1H59.5977ZM59.5977 1.9375V0.549997H58.5977V1.9375H59.5977ZM59.0977 0.0499973H58.0664V1.05H59.0977V0.0499973ZM56.0039 0.0499973H53.9414V1.05H56.0039V0.0499973ZM51.8789 0.0499973H49.8164V1.05H51.8789V0.0499973ZM47.7539 0.0499973H45.6914V1.05H47.7539V0.0499973ZM43.6289 0.0499973H41.5664V1.05H43.6289V0.0499973ZM39.5039 0.0499973H37.4414V1.05H39.5039V0.0499973ZM35.3789 0.0499973H34.3477V1.05H35.3789V0.0499973ZM34.3477 0.549997V-0.450003H33.3477V0.549997H34.3477ZM59.0977 0.549997H60.0977V-0.450003H59.0977V0.549997ZM59.0977 6.1V7.1H60.0977V6.1H59.0977ZM42.1477 6.1V5.1H41.1477V6.1H42.1477ZM42.1477 13.55H41.1477V14.55H42.1477V13.55ZM57.4477 13.55H58.4477V12.55H57.4477V13.55ZM57.4477 19.1V20.1H58.4477V19.1H57.4477ZM42.1477 19.1V18.1H41.1477V19.1H42.1477ZM42.1477 27.45H41.1477V28.45H42.1477V27.45ZM59.5977 27.45H60.5977V26.45H59.5977V27.45ZM59.5977 33V34H60.5977V33H59.5977ZM34.3477 33H33.3477V34H34.3477V33ZM33.3477 0.549997V1.56406H35.3477V0.549997H33.3477ZM33.3477 3.59219V5.62031H35.3477V3.59219H33.3477ZM33.3477 7.64844V9.67656H35.3477V7.64844H33.3477ZM33.3477 11.7047V13.7328H35.3477V11.7047H33.3477ZM33.3477 15.7609V17.7891H35.3477V15.7609H33.3477ZM33.3477 19.8172V21.8453H35.3477V19.8172H33.3477ZM33.3477 23.8734V25.9016H35.3477V23.8734H33.3477ZM33.3477 27.9297V29.9578H35.3477V27.9297H33.3477ZM33.3477 31.9859V33H35.3477V31.9859H33.3477ZM34.3477 34H35.3997V32H34.3477V34ZM37.5039 34H39.6081V32H37.5039V34ZM41.7122 34H43.8164V32H41.7122V34ZM45.9206 34H48.0247V32H45.9206V34ZM50.1289 34H52.2331V32H50.1289V34ZM54.3372 34H56.4414V32H54.3372V34ZM58.5456 34H59.5977V32H58.5456V34ZM60.5977 33V31.6125H58.5977V33H60.5977ZM60.5977 28.8375V27.45H58.5977V28.8375H60.5977ZM59.5977 26.45H58.507V28.45H59.5977V26.45ZM56.3258 26.45H54.1445V28.45H56.3258V26.45ZM51.9633 26.45H49.782V28.45H51.9633V26.45ZM47.6008 26.45H45.4195V28.45H47.6008V26.45ZM43.2383 26.45H42.1477V28.45H43.2383V26.45ZM43.1477 27.45V26.4062H41.1477V27.45H43.1477ZM43.1477 24.3187V22.2313H41.1477V24.3187H43.1477ZM43.1477 20.1437V19.1H41.1477V20.1437H43.1477ZM42.1477 20.1H43.1039V18.1H42.1477V20.1ZM45.0164 20.1H46.9289V18.1H45.0164V20.1ZM48.8414 20.1H50.7539V18.1H48.8414V20.1ZM52.6664 20.1H54.5789V18.1H52.6664V20.1ZM56.4914 20.1H57.4477V18.1H56.4914V20.1ZM58.4477 19.1V17.7125H56.4477V19.1H58.4477ZM58.4477 14.9375V13.55H56.4477V14.9375H58.4477ZM57.4477 12.55H56.4914V14.55H57.4477V12.55ZM54.5789 12.55H52.6664V14.55H54.5789V12.55ZM50.7539 12.55H48.8414V14.55H50.7539V12.55ZM46.9289 12.55H45.0164V14.55H46.9289V12.55ZM43.1039 12.55H42.1477V14.55H43.1039V12.55ZM43.1477 13.55V12.6187H41.1477V13.55H43.1477ZM43.1477 10.7562V8.89375H41.1477V10.7562H43.1477ZM43.1477 7.03125V6.1H41.1477V7.03125H43.1477ZM42.1477 7.1H43.207V5.1H42.1477V7.1ZM45.3258 7.1H47.4445V5.1H45.3258V7.1ZM49.5633 7.1H51.682V5.1H49.5633V7.1ZM53.8008 7.1H55.9195V5.1H53.8008V7.1ZM58.0383 7.1H59.0977V5.1H58.0383V7.1ZM60.0977 6.1V4.7125H58.0977V6.1H60.0977ZM60.0977 1.9375V0.549997H58.0977V1.9375H60.0977ZM59.0977 -0.450003H58.0664V1.55H59.0977V-0.450003ZM56.0039 -0.450003H53.9414V1.55H56.0039V-0.450003ZM51.8789 -0.450003H49.8164V1.55H51.8789V-0.450003ZM47.7539 -0.450003H45.6914V1.55H47.7539V-0.450003ZM43.6289 -0.450003H41.5664V1.55H43.6289V-0.450003ZM39.5039 -0.450003H37.4414V1.55H39.5039V-0.450003ZM35.3789 -0.450003H34.3477V1.55H35.3789V-0.450003ZM65.3652 32.4H64.8652V32.8045L65.2608 32.889L65.3652 32.4ZM65.3652 26.5L65.4766 26.0126L64.8652 25.8728V26.5H65.3652ZM71.1152 27.65L71.0384 28.1442L71.0492 28.1456L71.1152 27.65ZM81.2652 27.2L81.495 27.6443L81.5068 27.6378L81.2652 27.2ZM81.1652 19.55L81.0216 20.0289L81.0258 20.0302L81.1652 19.55ZM69.9152 19.1H69.4152V19.6H69.9152V19.1ZM69.9152 13.55V13.05H69.4152V13.55H69.9152ZM79.6652 13.25L79.7968 13.7324L79.6652 13.25ZM81.1652 12.4L81.5696 12.6941L81.5756 12.6858L81.5813 12.6773L81.1652 12.4ZM80.3652 6.1L80.5575 5.63846V5.63846L80.3652 6.1ZM66.0152 7.05H65.5152V7.68906L66.1355 7.53531L66.0152 7.05ZM66.0152 1.2L65.9226 0.708653L65.5152 0.785453V1.2H66.0152ZM86.5652 1.5L86.3353 1.94404L86.3416 1.94721L86.5652 1.5ZM88.3652 14.15L88.7274 14.4949L88.7352 14.4863L88.3652 14.15ZM85.9652 15.55L85.844 15.0649L85.4652 15.1596V15.55H85.9652ZM85.9652 15.7H85.4652V16.0772L85.8279 16.1808L85.9652 15.7ZM87.1152 31.6L87.3619 32.0349L87.364 32.0337L87.1152 31.6ZM77.2152 33C76.8831 33 76.5539 32.998 76.2276 32.9939L76.2151 33.9938C76.5456 33.9979 76.879 34 77.2152 34V33ZM74.2548 32.943C73.5852 32.9165 72.9288 32.8807 72.2858 32.8357L72.216 33.8333C72.8695 33.879 73.5359 33.9153 74.2152 33.9422L74.2548 32.943ZM70.3232 32.6655C69.6566 32.596 69.0057 32.5157 68.3704 32.4246L68.2285 33.4145C68.877 33.5075 69.5407 33.5893 70.2196 33.6601L70.3232 32.6655ZM66.4319 32.1042C66.1066 32.043 65.7858 31.9786 65.4697 31.911L65.2608 32.889C65.585 32.9582 65.9137 33.0242 66.2467 33.087L66.4319 32.1042ZM65.8652 32.4V30.925H64.8652V32.4H65.8652ZM65.8652 27.975V26.5H64.8652V27.975H65.8652ZM65.2538 26.9874C65.7512 27.1011 66.23 27.2081 66.69 27.3083L66.9028 26.3312C66.4464 26.2318 65.971 26.1256 65.4766 26.0126L65.2538 26.9874ZM69.5796 27.8945C70.1018 27.9908 70.5881 28.074 71.0384 28.1441L71.1921 27.1559C70.7525 27.0876 70.2755 27.006 69.7611 26.911L69.5796 27.8945ZM71.0492 28.1456C71.4533 28.1995 71.8665 28.2462 72.2889 28.2857L72.3821 27.2901C71.9722 27.2517 71.572 27.2065 71.1813 27.1544L71.0492 28.1456ZM74.7733 28.4331C75.18 28.4444 75.594 28.45 76.0152 28.45V27.45C75.6029 27.45 75.1981 27.4445 74.8009 27.4335L74.7733 28.4331ZM76.0152 28.45C76.4937 28.45 76.9459 28.4412 77.3716 28.4235L77.33 27.4243C76.9198 27.4414 76.4816 27.45 76.0152 27.45V28.45ZM80.1098 28.1128C80.6484 27.9946 81.1142 27.841 81.4949 27.6441L81.0355 26.7559C80.7568 26.9001 80.3808 27.0295 79.8954 27.136L80.1098 28.1128ZM81.5068 27.6378C81.7736 27.4906 82.0139 27.32 82.2245 27.1245L81.5442 26.3915C81.3992 26.5261 81.2267 26.6502 81.0237 26.7622L81.5068 27.6378ZM83.1206 25.5694C83.1846 25.2932 83.2152 25.0028 83.2152 24.7H82.2152C82.2152 24.9354 82.1914 25.1494 82.1464 25.3438L83.1206 25.5694ZM83.2152 24.7V23.9125H82.2152V24.7H83.2152ZM83.2152 22.3375V21.55H82.2152V22.3375H83.2152ZM83.2152 21.55C83.2152 21.2626 83.1808 20.9885 83.1066 20.7314L82.1458 21.0089C82.1903 21.1629 82.2152 21.342 82.2152 21.55H83.2152ZM82.0518 19.3854C81.8271 19.2528 81.5766 19.1488 81.3046 19.0698L81.0258 20.0302C81.2304 20.0896 81.4016 20.1629 81.5436 20.2467L82.0518 19.3854ZM81.3089 19.0711C80.9497 18.9633 80.5304 18.8764 80.0549 18.8078L79.9121 19.7975C80.3543 19.8613 80.7228 19.9393 81.0216 20.0289L81.3089 19.0711ZM77.5889 18.617C77.2029 18.6057 76.795 18.6 76.3652 18.6V19.6C76.7863 19.6 77.1843 19.6055 77.5594 19.6166L77.5889 18.617ZM76.3652 18.6H75.559V19.6H76.3652V18.6ZM73.9465 18.6H72.334V19.6H73.9465V18.6ZM70.7215 18.6H69.9152V19.6H70.7215V18.6ZM70.4152 19.1V17.7125H69.4152V19.1H70.4152ZM70.4152 14.9375V13.55H69.4152V14.9375H70.4152ZM69.9152 14.05H70.7215V13.05H69.9152V14.05ZM72.334 14.05H73.9465V13.05H72.334V14.05ZM75.559 14.05H76.3652V13.05H75.559V14.05ZM76.3652 14.05C76.6611 14.05 76.943 14.046 77.2109 14.0379L77.1809 13.0384C76.924 13.0461 76.6521 13.05 76.3652 13.05V14.05ZM78.9209 13.906C79.2449 13.8604 79.5377 13.803 79.7968 13.7324L79.5337 12.7676C79.3248 12.8246 79.0748 12.8745 78.7815 12.9158L78.9209 13.906ZM79.7968 13.7324C79.958 13.6884 80.1111 13.6401 80.2557 13.5871L79.9117 12.6482C79.7966 12.6903 79.6707 12.7302 79.5337 12.7676L79.7968 13.7324ZM81.1637 13.1064C81.3201 12.9854 81.4572 12.8486 81.5696 12.6941L80.7609 12.1059C80.7113 12.1741 80.6434 12.2446 80.5517 12.3156L81.1637 13.1064ZM81.5813 12.6773C81.6823 12.5259 81.7655 12.3604 81.8326 12.1833L80.8976 11.8288C80.8543 11.9429 80.8043 12.04 80.7492 12.1226L81.5813 12.6773ZM82.0456 11.1847C82.0588 11.0292 82.0652 10.8676 82.0652 10.7H81.0652C81.0652 10.8422 81.0598 10.9754 81.0492 11.1L82.0456 11.1847ZM82.0652 10.7V10.0625H81.0652V10.7H82.0652ZM82.0652 8.7875V8.15H81.0652V8.7875H82.0652ZM82.0652 8.15C82.0652 7.89465 82.0435 7.65103 81.9975 7.42088L81.0169 7.61707C81.0482 7.77374 81.0652 7.95081 81.0652 8.15H82.0652ZM81.2327 6.05062C81.0351 5.87941 80.8084 5.74298 80.5575 5.63846L80.1729 6.56153C80.3355 6.62926 80.4687 6.71181 80.5778 6.80631L81.2327 6.05062ZM80.5575 5.63846C80.2357 5.50434 79.8433 5.40102 79.3912 5.32197L79.2189 6.30702C79.6284 6.37862 79.9428 6.46564 80.1729 6.56154L80.5575 5.63846ZM77.1319 5.11743C76.7814 5.10579 76.4091 5.1 76.0152 5.1V6.1C76.3994 6.1 76.7605 6.10565 77.0987 6.11688L77.1319 5.11743ZM76.0152 5.1C75.7339 5.1 75.4471 5.10489 75.1549 5.11466L75.1883 6.11411C75.4698 6.10469 75.7454 6.1 76.0152 6.1V5.1ZM73.4423 5.22198C72.8926 5.2714 72.326 5.33581 71.7426 5.41511L71.8773 6.406C72.4468 6.32859 72.9983 6.26594 73.5319 6.21796L73.4423 5.22198ZM70.056 5.67762C69.5115 5.77254 68.9537 5.87913 68.3825 5.99733L68.5852 6.97658C69.1466 6.86038 69.6942 6.75579 70.2278 6.66276L70.056 5.67762ZM66.7216 6.36499C66.4488 6.42913 66.1733 6.49569 65.8949 6.56468L66.1355 7.53531C66.4101 7.46726 66.6817 7.40164 66.9505 7.33845L66.7216 6.36499ZM66.5152 7.05V5.5875H65.5152V7.05H66.5152ZM66.5152 2.6625V1.2H65.5152V2.6625H66.5152ZM66.1079 1.69134C66.4224 1.63205 66.7353 1.57508 67.0467 1.52042L66.8738 0.535475C66.5582 0.59087 66.2412 0.648597 65.9226 0.708653L66.1079 1.69134ZM68.9295 1.21532C69.566 1.12093 70.1959 1.0366 70.8189 0.962325L70.7006 -0.0306435C70.0678 0.0447893 69.4285 0.130386 68.7828 0.226135L68.9295 1.21532ZM72.7139 0.765571C73.3544 0.709134 73.9875 0.663791 74.6132 0.629526L74.5585 -0.368978C73.9215 -0.334093 73.2774 -0.287952 72.6261 -0.23057L72.7139 0.765571ZM76.5145 0.559054C76.8334 0.553016 77.1504 0.549998 77.4652 0.549998V-0.450002C77.144 -0.450002 76.8207 -0.446922 76.4956 -0.440766L76.5145 0.559054ZM77.4652 0.549998C77.8592 0.549998 78.2425 0.55429 78.6151 0.562859L78.6381 -0.436877C78.2574 -0.445632 77.8664 -0.450002 77.4652 -0.450002V0.549998ZM80.905 0.680124C81.7264 0.748609 82.4787 0.843884 83.1625 0.965349L83.3374 -0.0192404C82.6185 -0.14694 81.8351 -0.245799 80.9881 -0.316419L80.905 0.680124ZM85.3324 1.5157C85.7036 1.64672 86.0375 1.78978 86.3353 1.94399L86.7952 1.056C86.451 0.877769 86.0739 0.716963 85.6652 0.572706L85.3324 1.5157ZM86.3416 1.94721C86.774 2.16338 87.1453 2.41702 87.4593 2.70618L88.1367 1.97053C87.7473 1.61199 87.2967 1.30672 86.7888 1.05278L86.3416 1.94721ZM88.7306 5.01715C88.8195 5.43806 88.8652 5.89846 88.8652 6.4H89.8652C89.8652 5.83805 89.814 5.30767 89.709 4.81051L88.7306 5.01715ZM88.8652 6.4V7.7H89.8652V6.4H88.8652ZM88.8652 10.3V11.6H89.8652V10.3H88.8652ZM88.8652 11.6C88.8652 11.8111 88.8472 12.0137 88.8118 12.2083L89.7956 12.3873C89.8423 12.131 89.8652 11.8684 89.8652 11.6H88.8652ZM88.3709 13.3254C88.2643 13.4923 88.1394 13.6551 87.9953 13.8137L88.7352 14.4863C88.9152 14.2884 89.075 14.0809 89.2137 13.8637L88.3709 13.3254ZM88.0032 13.8052C87.8537 13.9621 87.6976 14.1054 87.535 14.2352L88.1588 15.0167C88.358 14.8577 88.5475 14.6836 88.7273 14.4948L88.0032 13.8052ZM86.4481 14.8696C86.255 14.9473 86.0537 15.0125 85.844 15.0649L86.0865 16.0351C86.3395 15.9718 86.5846 15.8926 86.8215 15.7973L86.4481 14.8696ZM85.4652 15.55V15.5875H86.4652V15.55H85.4652ZM85.4652 15.6625V15.7H86.4652V15.6625H85.4652ZM85.8279 16.1808C86.1171 16.2634 86.3905 16.3527 86.6484 16.4485L86.9967 15.5111C86.7128 15.4056 86.4147 15.3084 86.1026 15.2192L85.8279 16.1808ZM88.1598 17.1954C88.657 17.5233 89.0455 17.8913 89.3351 18.296L90.1484 17.7142C89.778 17.1965 89.2954 16.7464 88.7104 16.3606L88.1598 17.1954ZM89.9444 19.7436C89.9913 19.9976 90.0152 20.2662 90.0152 20.55H91.0152C91.0152 20.2097 90.9865 19.8802 90.9278 19.5623L89.9444 19.7436ZM90.0152 20.55V21.8625H91.0152V20.55H90.0152ZM90.0152 24.4875V25.8H91.0152V24.4875H90.0152ZM90.0152 25.8C90.0152 26.086 90.0003 26.3622 89.9708 26.6287L90.9647 26.7389C90.9985 26.4339 91.0152 26.1208 91.0152 25.8H90.0152ZM89.5823 28.2113C89.3804 28.7141 89.1074 29.1768 88.7622 29.6007L89.5377 30.2321C89.946 29.7306 90.2706 29.1808 90.5103 28.5839L89.5823 28.2113ZM87.5668 30.7158C87.349 30.8732 87.1156 31.0234 86.8665 31.1663L87.364 32.0337C87.6417 31.8744 87.9047 31.7054 88.1524 31.5264L87.5668 30.7158ZM86.8686 31.1651C86.6421 31.2935 86.4031 31.4156 86.1513 31.5313L86.5687 32.44C86.8449 32.3131 87.1094 32.1781 87.3619 32.0349L86.8686 31.1651ZM84.6263 32.1046C84.1288 32.2564 83.5961 32.3894 83.0279 32.5032L83.2243 33.4837C83.8214 33.3641 84.3862 33.2234 84.9182 33.061L84.6263 32.1046ZM81.3887 32.7659C80.8595 32.8315 80.3059 32.8835 79.7277 32.9216L79.7934 33.9194C80.3893 33.8802 80.9622 33.8265 81.5119 33.7583L81.3887 32.7659ZM78.0544 32.9919C77.7794 32.9973 77.4997 33 77.2152 33V34C77.506 34 77.7923 33.9972 78.0741 33.9917L78.0544 32.9919ZM65.3652 32.4H64.3652V33.209L65.1564 33.3779L65.3652 32.4ZM65.3652 26.5L65.5881 25.5251L64.3652 25.2456V26.5H65.3652ZM71.1152 27.65L70.9615 28.6381L70.9723 28.6398L70.9831 28.6412L71.1152 27.65ZM81.2652 27.2L81.7247 28.0882L81.7366 28.0821L81.7483 28.0756L81.2652 27.2ZM81.1652 19.55L80.8779 20.5079L80.8864 20.5103L81.1652 19.55ZM69.9152 19.1H68.9152V20.1H69.9152V19.1ZM69.9152 13.55V12.55H68.9152V13.55H69.9152ZM79.6652 13.25L79.9284 14.2148L79.6652 13.25ZM81.1652 12.4L81.974 12.9882L81.986 12.9717L81.9973 12.9547L81.1652 12.4ZM80.3652 6.1L80.7499 5.17692L80.7498 5.17692L80.3652 6.1ZM66.0152 7.05H65.0152V8.32812L66.2558 8.02063L66.0152 7.05ZM66.0152 1.2L65.83 0.217309L65.0152 0.370907V1.2H66.0152ZM86.5652 1.5L86.1054 2.38799L86.1117 2.39125L86.118 2.39442L86.5652 1.5ZM88.3652 14.15L89.0894 14.8397L89.0974 14.8313L89.1052 14.8227L88.3652 14.15ZM85.9652 15.55L85.7227 14.5799L84.9652 14.7692V15.55H85.9652ZM85.9652 15.7H84.9652V16.4543L85.6905 16.6615L85.9652 15.7ZM87.1152 31.6L87.6086 32.4698L87.6127 32.4675L87.1152 31.6ZM77.2152 32.5C76.8851 32.5 76.558 32.498 76.2339 32.4939L76.2089 34.4938C76.5415 34.4979 76.877 34.5 77.2152 34.5V32.5ZM74.2746 32.4434C73.6098 32.4171 72.9585 32.3816 72.3207 32.3369L72.1811 34.3321C72.8398 34.3782 73.5113 34.4147 74.1955 34.4418L74.2746 32.4434ZM70.3751 32.1682C69.7146 32.0993 69.07 32.0198 68.4413 31.9297L68.1575 33.9095C68.8127 34.0034 69.4827 34.086 70.1677 34.1574L70.3751 32.1682ZM66.5244 31.6129C66.203 31.5523 65.8862 31.4887 65.5741 31.4221L65.1564 33.3779C65.4846 33.4481 65.8172 33.5148 66.1542 33.5783L66.5244 31.6129ZM66.3652 32.4V30.925H64.3652V32.4H66.3652ZM66.3652 27.975V26.5H64.3652V27.975H66.3652ZM65.1424 27.4749C65.6413 27.5889 66.1218 27.6962 66.5836 27.7968L67.0092 25.8426C66.5546 25.7436 66.0809 25.6378 65.5881 25.5251L65.1424 27.4749ZM69.4889 28.3862C70.0149 28.4832 70.5059 28.5672 70.9615 28.6381L71.2689 26.6619C70.8346 26.5943 70.3624 26.5135 69.8518 26.4193L69.4889 28.3862ZM70.9831 28.6412C71.394 28.696 71.8137 28.7434 72.2423 28.7836L72.4287 26.7923C72.025 26.7545 71.6313 26.71 71.2474 26.6588L70.9831 28.6412ZM74.7594 28.9329C75.1709 28.9443 75.5895 28.95 76.0152 28.95V26.95C75.6073 26.95 75.2072 26.9446 74.8148 26.9337L74.7594 28.9329ZM76.0152 28.95C76.4998 28.95 76.959 28.9411 77.3924 28.923L77.3093 26.9248C76.9068 26.9415 76.4755 26.95 76.0152 26.95V28.95ZM80.2169 28.6012C80.7822 28.4771 81.2929 28.3115 81.7247 28.0882L80.8058 26.3118C80.5781 26.4296 80.247 26.5469 79.7882 26.6476L80.2169 28.6012ZM81.7483 28.0756C82.0471 27.9107 82.3212 27.7169 82.5646 27.491L81.2041 26.0251C81.0919 26.1292 80.9532 26.23 80.7822 26.3244L81.7483 28.0756ZM83.6077 25.6823C83.6811 25.3651 83.7152 25.0366 83.7152 24.7H81.7152C81.7152 24.9017 81.6948 25.0775 81.6593 25.2309L83.6077 25.6823ZM83.7152 24.7V23.9125H81.7152V24.7H83.7152ZM83.7152 22.3375V21.55H81.7152V22.3375H83.7152ZM83.7152 21.55C83.7152 21.2229 83.6761 20.9013 83.5869 20.5927L81.6655 21.1476C81.6951 21.2501 81.7152 21.3818 81.7152 21.55H83.7152ZM82.3059 18.9548C82.0398 18.7978 81.7497 18.6784 81.444 18.5897L80.8864 20.5103C81.0573 20.56 81.1889 20.6179 81.2895 20.6773L82.3059 18.9548ZM81.4526 18.5922C81.0632 18.4754 80.6184 18.3839 80.1264 18.3129L79.8407 20.2924C80.2663 20.3538 80.6093 20.4273 80.8779 20.5078L81.4526 18.5922ZM77.6036 18.1173C77.2122 18.1057 76.7993 18.1 76.3652 18.1V20.1C76.7819 20.1 77.175 20.1055 77.5447 20.1164L77.6036 18.1173ZM76.3652 18.1H75.559V20.1H76.3652V18.1ZM73.9465 18.1H72.334V20.1H73.9465V18.1ZM70.7215 18.1H69.9152V20.1H70.7215V18.1ZM70.9152 19.1V17.7125H68.9152V19.1H70.9152ZM70.9152 14.9375V13.55H68.9152V14.9375H70.9152ZM69.9152 14.55H70.7215V12.55H69.9152V14.55ZM72.334 14.55H73.9465V12.55H72.334V14.55ZM75.559 14.55H76.3652V12.55H75.559V14.55ZM76.3652 14.55C76.6655 14.55 76.9525 14.5459 77.226 14.5377L77.1658 12.5386C76.9144 12.5462 76.6476 12.55 76.3652 12.55V14.55ZM78.9906 14.4012C79.3299 14.3534 79.6441 14.2923 79.9284 14.2148L79.4021 12.2852C79.2183 12.3354 78.9898 12.3815 78.7118 12.4207L78.9906 14.4012ZM79.9284 14.2148C80.1017 14.1675 80.2684 14.115 80.4277 14.0566L79.7397 12.1787C79.6393 12.2154 79.5271 12.2512 79.4021 12.2852L79.9284 14.2148ZM81.4698 13.5018C81.6584 13.3558 81.8302 13.1858 81.974 12.9882L80.3565 11.8118C80.3383 11.8369 80.3051 11.8742 80.2457 11.9202L81.4698 13.5018ZM81.9973 12.9547C82.1212 12.7688 82.2211 12.5691 82.3001 12.3605L80.43 11.6515C80.3987 11.7341 80.3653 11.7971 80.3332 11.8453L81.9973 12.9547ZM82.5438 11.227C82.5583 11.0562 82.5652 10.8803 82.5652 10.7H80.5652C80.5652 10.8294 80.5603 10.9485 80.551 11.0577L82.5438 11.227ZM82.5652 10.7V10.0625H80.5652V10.7H82.5652ZM82.5652 8.7875V8.15H80.5652V8.7875H82.5652ZM82.5652 8.15C82.5652 7.86657 82.5412 7.58967 82.4877 7.32277L80.5266 7.71517C80.5506 7.8351 80.5652 7.97889 80.5652 8.15H82.5652ZM81.5602 5.67277C81.3183 5.46321 81.0448 5.29984 80.7499 5.17692L79.9806 7.02307C80.099 7.07241 80.1855 7.12801 80.2503 7.18415L81.5602 5.67277ZM80.7498 5.17692C80.3821 5.02369 79.9507 4.91223 79.4773 4.82944L79.1328 6.79955C79.5209 6.86742 79.7963 6.94629 79.9806 7.02308L80.7498 5.17692ZM77.1485 4.61771C76.7918 4.60586 76.4139 4.6 76.0152 4.6V6.6C76.3946 6.6 76.7501 6.60558 77.0822 6.6166L77.1485 4.61771ZM76.0152 4.6C75.7281 4.6 75.4357 4.605 75.1382 4.61494L75.205 6.61383C75.4812 6.60459 75.7512 6.6 76.0152 6.6V4.6ZM73.3976 4.72399C72.8398 4.77414 72.2657 4.83941 71.6753 4.91967L71.9447 6.90144C72.5071 6.82499 73.0511 6.76321 73.5767 6.71595L73.3976 4.72399ZM69.9702 5.18505C69.4202 5.28092 68.8572 5.3885 68.2812 5.50771L68.6865 7.46621C69.2431 7.35101 69.7855 7.24741 70.3136 7.15534L69.9702 5.18505ZM66.6071 5.87827C66.3324 5.94287 66.0549 6.00991 65.7747 6.07937L66.2558 8.02063C66.5285 7.95305 66.7982 7.8879 67.0649 7.82517L66.6071 5.87827ZM67.0152 7.05V5.5875H65.0152V7.05H67.0152ZM67.0152 2.6625V1.2H65.0152V2.6625H67.0152ZM66.2005 2.18269C66.513 2.12378 66.8238 2.06718 67.1332 2.01289L66.7874 0.043004C66.4697 0.0987663 66.1506 0.156868 65.83 0.217309L66.2005 2.18269ZM69.0029 1.70991C69.6348 1.61621 70.2599 1.53251 70.8781 1.45881L70.6414 -0.527128C70.0038 -0.451118 69.3598 -0.364886 68.7095 -0.268456L69.0029 1.70991ZM72.7578 1.26364C73.393 1.20768 74.0205 1.16273 74.6405 1.12878L74.5312 -0.868229C73.8885 -0.833035 73.2389 -0.786496 72.5823 -0.728641L72.7578 1.26364ZM76.524 1.05896C76.8398 1.05299 77.1535 1.05 77.4652 1.05V-0.950002C77.1408 -0.950002 76.8144 -0.946892 76.4861 -0.940677L76.524 1.05896ZM77.4652 1.05C77.8556 1.05 78.235 1.05425 78.6036 1.06273L78.6496 -0.936745C78.2648 -0.945592 77.87 -0.950002 77.4652 -0.950002V1.05ZM80.8635 1.1784C81.6721 1.24581 82.4088 1.3393 83.0751 1.45764L83.4249 -0.511535C82.6884 -0.642353 81.8895 -0.743003 81.0296 -0.81469L80.8635 1.1784ZM85.166 1.98719C85.5185 2.1116 85.8308 2.24578 86.1054 2.38799L87.0251 0.612002C86.6577 0.421766 86.2591 0.252084 85.8316 0.101212L85.166 1.98719ZM86.118 2.39442C86.5126 2.59171 86.8443 2.81955 87.1206 3.074L88.4753 1.60271C88.0483 1.20947 87.5581 0.878394 87.0125 0.60557L86.118 2.39442ZM88.2414 5.12046C88.3222 5.50326 88.3652 5.92867 88.3652 6.4H90.3652C90.3652 5.80784 90.3113 5.24247 90.1982 4.7072L88.2414 5.12046ZM88.3652 6.4V7.7H90.3652V6.4H88.3652ZM88.3652 10.3V11.6H90.3652V10.3H88.3652ZM88.3652 11.6C88.3652 11.7825 88.3496 11.9551 88.3199 12.1188L90.2876 12.4768C90.3398 12.1897 90.3652 11.897 90.3652 11.6H88.3652ZM87.9495 13.0563C87.859 13.1981 87.7515 13.3385 87.6253 13.4773L89.1052 14.8227C89.3031 14.605 89.4803 14.3751 89.6351 14.1328L87.9495 13.0563ZM87.6411 13.4603C87.5068 13.6014 87.3674 13.7292 87.223 13.8444L88.4707 15.4075C88.6882 15.2339 88.8944 15.0444 89.0894 14.8397L87.6411 13.4603ZM86.2614 14.4058C86.0902 14.4747 85.9108 14.5328 85.7227 14.5799L86.2078 16.5201C86.4824 16.4515 86.7494 16.3653 87.0081 16.2611L86.2614 14.4058ZM84.9652 15.55V15.5875H86.9652V15.55H84.9652ZM84.9652 15.6625V15.7H86.9652V15.6625H84.9652ZM85.6905 16.6615C85.9683 16.7409 86.2294 16.8262 86.4742 16.9172L87.1708 15.0424C86.8739 14.9321 86.5634 14.8309 86.24 14.7385L85.6905 16.6615ZM87.8846 17.6128C88.3378 17.9117 88.6793 18.2386 88.9285 18.587L90.5551 17.4233C90.1443 16.8491 89.6146 16.358 88.9856 15.9432L87.8846 17.6128ZM89.4527 19.8343C89.4937 20.0563 89.5152 20.2944 89.5152 20.55H91.5152C91.5152 20.1815 91.4841 19.8216 91.4195 19.4716L89.4527 19.8343ZM89.5152 20.55V21.8625H91.5152V20.55H89.5152ZM89.5152 24.4875V25.8H91.5152V24.4875H89.5152ZM89.5152 25.8C89.5152 26.0686 89.5012 26.3264 89.4738 26.5736L91.4616 26.794C91.4976 26.4697 91.5152 26.1382 91.5152 25.8H89.5152ZM89.1183 28.0249C88.9353 28.4807 88.6881 28.8998 88.3745 29.285L89.9254 30.5478C90.3653 30.0076 90.7157 29.4142 90.9743 28.7702L89.1183 28.0249ZM87.274 30.3105C87.0711 30.4571 86.8525 30.5979 86.6177 30.7325L87.6127 32.4675C87.9048 32.2999 88.1825 32.1215 88.4453 31.9316L87.274 30.3105ZM86.6219 30.7302C86.4085 30.8512 86.1822 30.9669 85.9426 31.0769L86.7774 32.8944C87.0658 32.7619 87.343 32.6204 87.6086 32.4698L86.6219 30.7302ZM84.4804 31.6263C84.0001 31.7729 83.4835 31.902 82.9297 32.0129L83.3225 33.974C83.9341 33.8515 84.5149 33.7068 85.0641 33.5393L84.4804 31.6263ZM81.3271 32.2697C80.8082 32.3341 80.2642 32.3852 79.6948 32.4227L79.8263 34.4184C80.431 34.3785 81.0135 34.324 81.5735 34.2545L81.3271 32.2697ZM78.0445 32.492C77.7729 32.4973 77.4965 32.5 77.2152 32.5V34.5C77.5092 34.5 77.7988 34.4972 78.084 34.4916L78.0445 32.492ZM98.7309 33H98.2309V33.4115L98.6347 33.4907L98.7309 33ZM98.7309 27.3L98.8467 26.8136L98.2309 26.667V27.3H98.7309ZM100.781 27.75L100.683 28.2403L100.687 28.2412L100.781 27.75ZM105.131 27.3L105.413 27.7127L105.418 27.7096L105.131 27.3ZM106.831 25.2L107.278 25.4236L107.281 25.4174L106.831 25.2ZM107.531 23.75L107.981 23.9674L108.092 23.7371L107.971 23.5121L107.531 23.75ZM94.9809 0.549997V0.0499973H94.1419L94.5411 0.787895L94.9809 0.549997ZM103.131 0.549997L103.578 0.326391L103.44 0.0499973H103.131V0.549997ZM111.281 16.85L110.834 17.0736L110.972 17.35H111.281V16.85ZM111.481 16.85V17.35H111.821L111.946 17.034L111.481 16.85ZM117.931 0.549997V0.0499973H117.591L117.466 0.366025L117.931 0.549997ZM125.781 0.549997L126.237 0.75558L126.555 0.0499973H125.781V0.549997ZM114.031 26.6L113.575 26.3944L113.574 26.3969L114.031 26.6ZM109.981 31.85L109.702 31.4353L109.981 31.85ZM103.081 33C102.75 33 102.396 32.9868 102.021 32.9601L101.95 33.9575C102.346 33.9857 102.723 34 103.081 34V33ZM99.8905 32.7012C99.5483 32.6452 99.1939 32.5813 98.8271 32.5093L98.6347 33.4907C99.0109 33.5644 99.3757 33.6303 99.7289 33.6881L99.8905 32.7012ZM99.2309 33V31.575H98.2309V33H99.2309ZM99.2309 28.725V27.3H98.2309V28.725H99.2309ZM98.6151 27.7864C98.7877 27.8275 98.9594 27.8676 99.1302 27.9067L99.3535 26.932C99.1856 26.8935 99.0166 26.8541 98.8467 26.8136L98.6151 27.7864ZM100.164 28.1339C100.338 28.1705 100.511 28.2059 100.683 28.2403L100.879 27.2597C100.71 27.226 100.541 27.1912 100.37 27.1553L100.164 28.1339ZM100.687 28.2412C100.861 28.2743 101.033 28.3035 101.204 28.3288L101.35 27.3396C101.194 27.3164 101.035 27.2895 100.874 27.2588L100.687 28.2412ZM102.251 28.4356C102.43 28.4452 102.606 28.45 102.781 28.45V27.45C102.625 27.45 102.466 27.4457 102.305 27.4371L102.251 28.4356ZM102.781 28.45C103.012 28.45 103.237 28.4377 103.456 28.4126L103.342 27.4192C103.164 27.4396 102.977 27.45 102.781 27.45V28.45ZM104.794 28.0578C105.012 27.9609 105.219 27.8458 105.413 27.7127L104.849 26.8873C104.705 26.9858 104.551 27.0714 104.388 27.1442L104.794 28.0578ZM105.418 27.7096C105.623 27.5659 105.818 27.4036 106.004 27.2234L105.307 26.506C105.158 26.6509 105.004 26.7788 104.844 26.8904L105.418 27.7096ZM106.925 26.0593C107.049 25.8588 107.166 25.6468 107.278 25.4236L106.384 24.9764C106.285 25.1746 106.181 25.3603 106.074 25.5335L106.925 26.0593ZM107.281 25.4174L107.456 25.0549L106.556 24.6201L106.381 24.9826L107.281 25.4174ZM107.806 24.3299L107.981 23.9674L107.081 23.5326L106.906 23.8951L107.806 24.3299ZM107.971 23.5121L107.522 22.6835L106.643 23.1593L107.091 23.9879L107.971 23.5121ZM106.626 21.0264L105.73 19.3692L104.85 19.845L105.746 21.5022L106.626 21.0264ZM104.833 17.7121L103.937 16.055L103.057 16.5308L103.954 18.1879L104.833 17.7121ZM103.04 14.3978L102.144 12.7407L101.264 13.2165L102.161 14.8736L103.04 14.3978ZM101.247 11.0835L100.351 9.42639L99.4714 9.90218L100.368 11.5593L101.247 11.0835ZM99.4546 7.76924L98.5581 6.1121L97.6786 6.58789L98.575 8.24504L99.4546 7.76924ZM97.6617 4.45496L96.7653 2.79781L95.8857 3.27361L96.7822 4.93075L97.6617 4.45496ZM95.8689 1.14067L95.4206 0.3121L94.5411 0.787895L94.9893 1.61646L95.8689 1.14067ZM94.9809 1.05H95.9996V0.0499973H94.9809V1.05ZM98.0371 1.05H100.075V0.0499973H98.0371V1.05ZM102.112 1.05H103.131V0.0499973H102.112V1.05ZM102.684 0.773604L103.091 1.5886L103.986 1.14139L103.578 0.326391L102.684 0.773604ZM103.906 3.21861L104.721 4.84861L105.616 4.40139L104.801 2.77139L103.906 3.21861ZM105.536 6.47861L106.351 8.10861L107.246 7.66139L106.431 6.03139L105.536 6.47861ZM107.166 9.73861L107.981 11.3686L108.876 10.9214L108.061 9.29139L107.166 9.73861ZM108.796 12.9986L109.611 14.6286L110.506 14.1814L109.691 12.5514L108.796 12.9986ZM110.426 16.2586L110.834 17.0736L111.728 16.6264L111.321 15.8114L110.426 16.2586ZM111.281 17.35H111.331V16.35H111.281V17.35ZM111.431 17.35H111.481V16.35H111.431V17.35ZM111.946 17.034L112.349 16.0152L111.419 15.6473L111.016 16.666L111.946 17.034ZM113.155 13.9777L113.961 11.9402L113.032 11.5723L112.225 13.6098L113.155 13.9777ZM114.768 9.90272L115.574 7.86522L114.644 7.49728L113.838 9.53477L114.768 9.90272ZM116.38 5.82772L117.186 3.79022L116.257 3.42228L115.45 5.45978L116.38 5.82772ZM117.993 1.75272L118.396 0.733971L117.466 0.366025L117.063 1.38478L117.993 1.75272ZM117.931 1.05H118.912V0.0499973H117.931V1.05ZM120.875 1.05H122.837V0.0499973H120.875V1.05ZM124.8 1.05H125.781V0.0499973H124.8V1.05ZM125.325 0.344415L124.905 1.27477L125.817 1.68594L126.237 0.75558L125.325 0.344415ZM124.066 3.13549L123.227 4.9962L124.138 5.40737L124.978 3.54665L124.066 3.13549ZM122.388 6.85692L121.548 8.71763L122.46 9.1288L123.299 7.26808L122.388 6.85692ZM120.709 10.5783L119.87 12.4391L120.781 12.8502L121.621 10.9895L120.709 10.5783ZM119.03 14.2998L118.191 16.1605L119.103 16.5717L119.942 14.7109L119.03 14.2998ZM117.352 18.0212L116.513 19.8819L117.424 20.2931L118.263 18.4324L117.352 18.0212ZM115.673 21.7426L114.834 23.6033L115.746 24.0145L116.585 22.1538L115.673 21.7426ZM113.995 25.4641L113.575 26.3944L114.487 26.8056L114.906 25.8752L113.995 25.4641ZM113.574 26.3969C113.461 26.6513 113.345 26.8978 113.226 27.1365L114.12 27.5833C114.246 27.3307 114.369 27.0706 114.488 26.8031L113.574 26.3969ZM112.425 28.5502C112.122 29.0227 111.802 29.4535 111.468 29.8435L112.227 30.4947C112.593 30.0671 112.94 29.599 113.266 29.091L112.425 28.5502ZM110.335 30.9619C110.128 31.1321 109.917 31.2899 109.702 31.4353L110.26 32.2647C110.504 32.1008 110.741 31.9235 110.971 31.733L110.335 30.9619ZM109.702 31.4353C109.475 31.5876 109.234 31.7292 108.978 31.8601L109.433 32.7506C109.724 32.6023 109.999 32.4404 110.26 32.2647L109.702 31.4353ZM107.394 32.4754C106.873 32.6249 106.309 32.7432 105.702 32.8293L105.842 33.8194C106.49 33.7275 107.099 33.6003 107.67 33.4367L107.394 32.4754ZM103.961 32.9827C103.675 32.9942 103.382 33 103.081 33V34C103.394 34 103.701 33.994 104.001 33.9819L103.961 32.9827ZM98.7309 33H97.7309V33.823L98.5384 33.9813L98.7309 33ZM98.7309 27.3L98.9625 26.3272L97.7309 26.034V27.3H98.7309ZM100.781 27.75L100.585 28.7306L100.594 28.7323L100.781 27.75ZM105.131 27.3L105.696 28.1254L105.704 28.1192L105.131 27.3ZM106.831 25.2L107.725 25.6473L107.731 25.6348L106.831 25.2ZM107.531 23.75L108.431 24.1847L108.654 23.7241L108.41 23.2742L107.531 23.75ZM94.9809 0.549997V-0.450003H93.303L94.1013 1.02579L94.9809 0.549997ZM103.131 0.549997L104.025 0.102784L103.749 -0.450003H103.131V0.549997ZM111.281 16.85L110.386 17.2972L110.663 17.85H111.281V16.85ZM111.481 16.85V17.85H112.161L112.411 17.2179L111.481 16.85ZM117.931 0.549997V-0.450003H117.251L117.001 0.182052L117.931 0.549997ZM125.781 0.549997L126.692 0.961163L127.329 -0.450003H125.781V0.549997ZM114.031 26.6L113.119 26.1888L113.117 26.1939L114.031 26.6ZM109.981 31.85L109.422 31.0206L109.981 31.85ZM103.081 32.5C102.763 32.5 102.422 32.4873 102.057 32.4613L101.915 34.4563C102.321 34.4852 102.71 34.5 103.081 34.5V32.5ZM99.9713 32.2078C99.6347 32.1527 99.2853 32.0897 98.9233 32.0187L98.5384 33.9813C98.9195 34.056 99.2894 34.1228 99.6481 34.1815L99.9713 32.2078ZM99.7309 33V31.575H97.7309V33H99.7309ZM99.7309 28.725V27.3H97.7309V28.725H99.7309ZM98.4992 28.2728C98.6733 28.3142 98.8464 28.3547 99.0185 28.3941L99.4652 26.4446C99.2986 26.4065 99.1311 26.3673 98.9625 26.3272L98.4992 28.2728ZM100.061 28.6232C100.237 28.6601 100.411 28.6959 100.585 28.7306L100.977 26.7694C100.81 26.736 100.642 26.7015 100.472 26.666L100.061 28.6232ZM100.594 28.7323C100.774 28.7667 100.953 28.797 101.13 28.8233L101.424 26.845C101.274 26.8228 101.122 26.797 100.968 26.7677L100.594 28.7323ZM102.224 28.9349C102.412 28.945 102.597 28.95 102.781 28.95V26.95C102.634 26.95 102.484 26.946 102.331 26.9378L102.224 28.9349ZM102.781 28.95C103.03 28.95 103.274 28.9367 103.513 28.9094L103.285 26.9224C103.127 26.9405 102.959 26.95 102.781 26.95V28.95ZM104.998 28.5146C105.243 28.4056 105.475 28.2759 105.696 28.1253L104.566 26.4747C104.448 26.5557 104.321 26.6267 104.184 26.6874L104.998 28.5146ZM105.704 28.1192C105.932 27.9595 106.148 27.78 106.352 27.5821L104.959 26.1473C104.828 26.2745 104.694 26.3852 104.557 26.4808L105.704 28.1192ZM107.35 26.3223C107.483 26.1081 107.607 25.8829 107.725 25.6472L105.936 24.7528C105.844 24.9386 105.748 25.111 105.649 25.2706L107.35 26.3223ZM107.731 25.6348L107.906 25.2723L106.105 24.4028L105.93 24.7653L107.731 25.6348ZM108.256 24.5472L108.431 24.1847L106.63 23.3153L106.455 23.6777L108.256 24.5472ZM108.41 23.2742L107.962 22.4456L106.203 23.3972L106.651 24.2258L108.41 23.2742ZM107.066 20.7885L106.169 19.1313L104.41 20.0829L105.307 21.7401L107.066 20.7885ZM105.273 17.4742L104.376 15.8171L102.617 16.7687L103.514 18.4258L105.273 17.4742ZM103.48 14.1599L102.584 12.5028L100.825 13.4544L101.721 15.1115L103.48 14.1599ZM101.687 10.8456L100.791 9.18849L99.0317 10.1401L99.9281 11.7972L101.687 10.8456ZM99.8943 7.53135L98.9979 5.8742L97.2388 6.82579L98.1352 8.48293L99.8943 7.53135ZM98.1015 4.21706L97.2051 2.55992L95.4459 3.5115L96.3424 5.16865L98.1015 4.21706ZM96.3086 0.902771L95.8604 0.0742035L94.1013 1.02579L94.5495 1.85436L96.3086 0.902771ZM94.9809 1.55H95.9996V-0.450003H94.9809V1.55ZM98.0371 1.55H100.075V-0.450003H98.0371V1.55ZM102.112 1.55H103.131V-0.450003H102.112V1.55ZM102.236 0.997211L102.644 1.81221L104.433 0.917784L104.025 0.102784L102.236 0.997211ZM103.459 3.44221L104.274 5.07221L106.063 4.17779L105.248 2.54778L103.459 3.44221ZM105.089 6.70221L105.904 8.33221L107.693 7.43778L106.878 5.80779L105.089 6.70221ZM106.719 9.96221L107.534 11.5922L109.323 10.6978L108.508 9.06779L106.719 9.96221ZM108.349 13.2222L109.164 14.8522L110.953 13.9578L110.138 12.3278L108.349 13.2222ZM109.979 16.4822L110.386 17.2972L112.175 16.4028L111.768 15.5878L109.979 16.4822ZM111.281 17.85H111.331V15.85H111.281V17.85ZM111.431 17.85H111.481V15.85H111.431V17.85ZM112.411 17.2179L112.814 16.1992L110.954 15.4633L110.551 16.4821L112.411 17.2179ZM113.62 14.1617L114.426 12.1242L112.567 11.3883L111.76 13.4258L113.62 14.1617ZM115.233 10.0867L116.039 8.04919L114.179 7.3133L113.373 9.3508L115.233 10.0867ZM116.845 6.01169L117.651 3.97419L115.792 3.2383L114.985 5.2758L116.845 6.01169ZM118.458 1.93669L118.861 0.917943L117.001 0.182052L116.598 1.2008L118.458 1.93669ZM117.931 1.55H118.912V-0.450003H117.931V1.55ZM120.875 1.55H122.837V-0.450003H120.875V1.55ZM124.8 1.55H125.781V-0.450003H124.8V1.55ZM124.869 0.138833L124.45 1.06919L126.273 1.89152L126.692 0.961163L124.869 0.138833ZM123.61 2.9299L122.771 4.79062L124.594 5.61295L125.433 3.75223L123.61 2.9299ZM121.932 6.65133L121.093 8.51205L122.916 9.33438L123.755 7.47366L121.932 6.65133ZM120.253 10.3728L119.414 12.2335L121.237 13.0558L122.076 11.1951L120.253 10.3728ZM118.575 14.0942L117.735 15.9549L119.558 16.7772L120.398 14.9165L118.575 14.0942ZM116.896 17.8156L116.057 19.6763L117.88 20.4987L118.719 18.638L116.896 17.8156ZM115.218 21.537L114.378 23.3978L116.201 24.2201L117.041 22.3594L115.218 21.537ZM113.539 25.2585L113.119 26.1888L114.942 27.0112L115.362 26.0808L113.539 25.2585ZM113.117 26.1939C113.007 26.4417 112.894 26.6814 112.778 26.913L114.567 27.8068C114.697 27.5472 114.823 27.2803 114.945 27.0061L113.117 26.1939ZM112.005 28.2798C111.712 28.7345 111.407 29.1468 111.088 29.518L112.606 30.8202C112.989 30.3739 113.349 29.8871 113.687 29.3614L112.005 28.2798ZM110.016 30.5763C109.822 30.7365 109.624 30.8845 109.422 31.0206L110.539 32.6794C110.797 32.5062 111.047 32.3191 111.29 32.1185L110.016 30.5763ZM109.422 31.0206C109.213 31.1612 108.99 31.2927 108.751 31.4148L109.661 33.1959C109.968 33.0388 110.261 32.8668 110.539 32.6794L109.422 31.0206ZM107.256 31.9948C106.759 32.1373 106.219 32.251 105.632 32.3342L105.912 34.3144C106.58 34.2197 107.213 34.0879 107.807 33.9173L107.256 31.9948ZM103.94 32.4831C103.662 32.4944 103.375 32.5 103.081 32.5V34.5C103.401 34.5 103.714 34.4939 104.021 34.4815L103.94 32.4831ZM131.301 33.2L131.409 32.7119L131.396 32.709L131.383 32.7068L131.301 33.2ZM130.001 33H129.501V33.4414L129.939 33.4961L130.001 33ZM130.001 26.9L130.068 26.4046L129.501 26.3272V26.9H130.001ZM135.701 25.65L136.061 25.9971L136.067 25.9907L135.701 25.65ZM137.651 19.95L137.156 19.8744L137.156 19.8801L137.651 19.95ZM138.301 0.549997V0.0499973H137.801V0.549997H138.301ZM161.901 0.549997H162.401V0.0499973H161.901V0.549997ZM161.901 33V33.5H162.401V33H161.901ZM154.101 33H153.601V33.5H154.101V33ZM154.101 6.05H154.601V5.55H154.101V6.05ZM145.351 6.05V5.55H144.851V6.05H145.351ZM143.651 24.85L143.177 24.6905L143.176 24.6947L143.651 24.85ZM139.301 31.65L139.029 31.2304L139.025 31.2328L139.301 31.65ZM133.001 32.9C132.871 32.9 132.739 32.8957 132.604 32.8871L132.541 33.8851C132.696 33.895 132.849 33.9 133.001 33.9V32.9ZM131.807 32.7909C131.677 32.7682 131.544 32.7419 131.409 32.7119L131.192 33.6881C131.342 33.7213 131.489 33.7506 131.636 33.7761L131.807 32.7909ZM131.383 32.7068C131.268 32.6877 131.159 32.6697 131.057 32.653L130.896 33.64C130.997 33.6565 131.105 33.6743 131.219 33.6932L131.383 32.7068ZM130.399 32.5503C130.27 32.5312 130.157 32.5157 130.063 32.5039L129.939 33.4961C130.024 33.5068 130.128 33.5212 130.254 33.5396L130.399 32.5503ZM130.501 33V32.2375H129.501V33H130.501ZM130.501 30.7125V29.1875H129.501V30.7125H130.501ZM130.501 27.6625V26.9H129.501V27.6625H130.501ZM129.933 27.3954C130.096 27.4175 130.253 27.4373 130.405 27.4548L130.518 26.4613C130.374 26.4447 130.224 26.4258 130.068 26.4046L129.933 27.3954ZM131.361 27.5368C131.533 27.5455 131.696 27.55 131.851 27.55V26.55C131.715 26.55 131.569 26.5461 131.412 26.5381L131.361 27.5368ZM131.851 27.55C132.24 27.55 132.613 27.5259 132.97 27.4767L132.833 26.4861C132.526 26.5284 132.199 26.55 131.851 26.55V27.55ZM135.143 26.7341C135.48 26.5273 135.787 26.2814 136.061 25.9971L135.341 25.3029C135.126 25.5261 134.886 25.7188 134.62 25.8815L135.143 26.7341ZM136.067 25.9907C136.253 25.7911 136.424 25.5622 136.584 25.3068L135.735 24.7778C135.605 24.9871 135.471 25.1634 135.335 25.3093L136.067 25.9907ZM137.276 23.8325C137.441 23.3765 137.589 22.8707 137.721 22.3164L136.748 22.084C136.623 22.609 136.485 23.0786 136.336 23.4938L137.276 23.8325ZM138.028 20.7867C138.069 20.5387 138.109 20.2831 138.146 20.0199L137.156 19.8801C137.12 20.1353 137.082 20.3825 137.042 20.6216L138.028 20.7867ZM138.145 20.0256C138.197 19.6847 138.246 19.3237 138.292 18.9429L137.299 18.8236C137.254 19.195 137.207 19.5452 137.157 19.8744L138.145 20.0256ZM138.502 16.7779C138.554 16.102 138.6 15.3804 138.638 14.6134L137.639 14.5632C137.601 15.3224 137.556 16.0348 137.505 16.7006L138.502 16.7779ZM138.725 12.4513C138.746 11.7614 138.763 11.0412 138.776 10.2907L137.776 10.2743C137.763 11.0203 137.747 11.7357 137.725 12.4203L138.725 12.4513ZM138.798 8.1298C138.8 7.77571 138.801 7.41578 138.801 7.05H137.801C137.801 7.41419 137.8 7.77249 137.798 8.12488L138.798 8.1298ZM138.801 7.05V6.2375H137.801V7.05H138.801ZM138.801 4.6125V2.9875H137.801V4.6125H138.801ZM138.801 1.3625V0.549997H137.801V1.3625H138.801ZM138.301 1.05H139.284V0.0499973H138.301V1.05ZM141.251 1.05H143.217V0.0499973H141.251V1.05ZM145.184 1.05H147.151V0.0499973H145.184V1.05ZM149.117 1.05H151.084V0.0499973H149.117V1.05ZM153.051 1.05H155.017V0.0499973H153.051V1.05ZM156.984 1.05H158.951V0.0499973H156.984V1.05ZM160.917 1.05H161.901V0.0499973H160.917V1.05ZM161.401 0.549997V1.56406H162.401V0.549997H161.401ZM161.401 3.59219V5.62031H162.401V3.59219H161.401ZM161.401 7.64844V9.67656H162.401V7.64844H161.401ZM161.401 11.7047V13.7328H162.401V11.7047H161.401ZM161.401 15.7609V17.7891H162.401V15.7609H161.401ZM161.401 19.8172V21.8453H162.401V19.8172H161.401ZM161.401 23.8734V25.9016H162.401V23.8734H161.401ZM161.401 27.9297V29.9578H162.401V27.9297H161.401ZM161.401 31.9859V33H162.401V31.9859H161.401ZM161.901 32.5H160.926V33.5H161.901V32.5ZM158.976 32.5H157.026V33.5H158.976V32.5ZM155.076 32.5H154.101V33.5H155.076V32.5ZM154.601 33V32.0375H153.601V33H154.601ZM154.601 30.1125V28.1875H153.601V30.1125H154.601ZM154.601 26.2625V24.3375H153.601V26.2625H154.601ZM154.601 22.4125V20.4875H153.601V22.4125H154.601ZM154.601 18.5625V16.6375H153.601V18.5625H154.601ZM154.601 14.7125V12.7875H153.601V14.7125H154.601ZM154.601 10.8625V8.9375H153.601V10.8625H154.601ZM154.601 7.0125V6.05H153.601V7.0125H154.601ZM154.101 5.55H153.007V6.55H154.101V5.55ZM150.82 5.55H148.632V6.55H150.82V5.55ZM146.445 5.55H145.351V6.55H146.445V5.55ZM144.851 6.05V7.175H145.851V6.05H144.851ZM144.851 9.425V10.55H145.851V9.425H144.851ZM144.851 10.55C144.851 10.8534 144.849 11.1534 144.847 11.45L145.847 11.4593C145.849 11.1596 145.851 10.8565 145.851 10.55H144.851ZM144.812 13.2461C144.793 13.8605 144.769 14.4585 144.737 15.0401L145.736 15.094C145.768 14.5041 145.793 13.898 145.811 13.276L144.812 13.2461ZM144.616 16.8283C144.565 17.4431 144.506 18.037 144.439 18.6101L145.432 18.7264C145.501 18.1413 145.561 17.5361 145.612 16.9107L144.616 16.8283ZM144.195 20.379C144.097 20.991 143.989 21.5747 143.869 22.1302L144.847 22.3405C144.97 21.7662 145.082 21.165 145.183 20.537L144.195 20.379ZM143.439 23.8494C143.355 24.1396 143.268 24.4199 143.177 24.6905L144.125 25.0095C144.221 24.7246 144.312 24.4304 144.4 24.127L143.439 23.8494ZM143.176 24.6947C143.068 25.0232 142.958 25.3406 142.844 25.6468L143.781 25.995C143.9 25.6757 144.015 25.3458 144.126 25.0053L143.176 24.6947ZM142.056 27.4882C141.741 28.1258 141.407 28.6941 141.057 29.1947L141.876 29.7685C142.259 29.2209 142.618 28.608 142.952 27.9314L142.056 27.4882ZM139.783 30.6523C139.538 30.8711 139.286 31.0635 139.029 31.2304L139.573 32.0696C139.876 31.8733 140.167 31.6494 140.449 31.3984L139.783 30.6523ZM139.025 31.2328C138.806 31.3777 138.581 31.5132 138.351 31.6391L138.831 32.5165C139.085 32.3772 139.334 32.2274 139.576 32.0672L139.025 31.2328ZM136.911 32.2788C136.423 32.4498 135.914 32.5858 135.382 32.6865L135.568 33.669C136.147 33.5594 136.705 33.4107 137.242 33.2225L136.911 32.2788ZM133.801 32.8775C133.539 32.8925 133.272 32.9 133.001 32.9V33.9C133.291 33.9 133.577 33.892 133.858 33.8759L133.801 32.8775ZM131.301 33.2L131.518 32.2238L131.492 32.218L131.465 32.2136L131.301 33.2ZM130.001 33H129.001V33.8828L129.877 33.9923L130.001 33ZM130.001 26.9L130.136 25.9092L129.001 25.7544V26.9H130.001ZM135.701 25.65L136.421 26.3441L136.427 26.3378L136.433 26.3314L135.701 25.65ZM137.651 19.95L136.662 19.7988L136.661 19.8102L137.651 19.95ZM138.301 0.549997V-0.450003H137.301V0.549997H138.301ZM161.901 0.549997H162.901V-0.450003H161.901V0.549997ZM161.901 33V34H162.901V33H161.901ZM154.101 33H153.101V34H154.101V33ZM154.101 6.05H155.101V5.05H154.101V6.05ZM145.351 6.05V5.05H144.351V6.05H145.351ZM143.651 24.85L142.703 24.5309L142.7 24.5394L143.651 24.85ZM139.301 31.65L138.757 30.8108L138.75 30.8155L139.301 31.65ZM133.001 32.4C132.882 32.4 132.761 32.3961 132.636 32.3881L132.509 34.3841C132.674 34.3946 132.838 34.4 133.001 34.4V32.4ZM131.893 32.2983C131.77 32.277 131.645 32.2522 131.518 32.2238L131.084 34.1762C131.24 34.211 131.396 34.2418 131.55 34.2687L131.893 32.2983ZM131.465 32.2136C131.35 32.1944 131.24 32.1763 131.137 32.1595L130.816 34.1335C130.916 34.1499 131.023 34.1675 131.136 34.1864L131.465 32.2136ZM130.472 32.0556C130.34 32.0362 130.224 32.0201 130.125 32.0077L129.877 33.9923C129.957 34.0023 130.058 34.0162 130.181 34.0343L130.472 32.0556ZM131.001 33V32.2375H129.001V33H131.001ZM131.001 30.7125V29.1875H129.001V30.7125H131.001ZM131.001 27.6625V26.9H129.001V27.6625H131.001ZM129.866 27.8908C130.031 27.9134 130.192 27.9336 130.348 27.9515L130.575 25.9645C130.435 25.9484 130.288 25.93 130.136 25.9092L129.866 27.8908ZM131.336 28.0361C131.515 28.0453 131.687 28.05 131.851 28.05V26.05C131.725 26.05 131.587 26.0463 131.438 26.0387L131.336 28.0361ZM131.851 28.05C132.261 28.05 132.657 28.0246 133.038 27.972L132.765 25.9908C132.483 26.0297 132.179 26.05 131.851 26.05V28.05ZM135.404 27.1604C135.778 26.9315 136.117 26.659 136.421 26.3441L134.981 24.9559C134.795 25.1485 134.588 25.3146 134.359 25.4553L135.404 27.1604ZM136.433 26.3314C136.643 26.105 136.834 25.8497 137.008 25.5713L135.311 24.5132C135.195 24.6996 135.08 24.8495 134.969 24.9686L136.433 26.3314ZM137.747 24.0019C137.918 23.5254 138.071 23.0015 138.207 22.4327L136.262 21.9677C136.14 22.4782 136.007 22.9296 135.865 23.3244L137.747 24.0019ZM138.521 20.8692C138.563 20.6168 138.603 20.3569 138.641 20.0898L136.661 19.8102C136.625 20.0614 136.588 20.3044 136.548 20.539L138.521 20.8692ZM138.639 20.1012C138.692 19.7544 138.742 19.3881 138.788 19.0026L136.803 18.764C136.759 19.1306 136.712 19.4755 136.662 19.7988L138.639 20.1012ZM139 16.8165C139.053 16.1356 139.099 15.4095 139.138 14.6385L137.14 14.5381C137.102 15.2934 137.058 16.0013 137.006 16.662L139 16.8165ZM139.225 12.4668C139.246 11.7742 139.263 11.0516 139.275 10.2989L137.276 10.266C137.264 11.0099 137.247 11.7228 137.226 12.4048L139.225 12.4668ZM139.298 8.13225C139.3 7.77732 139.301 7.41657 139.301 7.05H137.301C137.301 7.4134 137.3 7.77088 137.298 8.12242L139.298 8.13225ZM139.301 7.05V6.2375H137.301V7.05H139.301ZM139.301 4.6125V2.9875H137.301V4.6125H139.301ZM139.301 1.3625V0.549997H137.301V1.3625H139.301ZM138.301 1.55H139.284V-0.450003H138.301V1.55ZM141.251 1.55H143.217V-0.450003H141.251V1.55ZM145.184 1.55H147.151V-0.450003H145.184V1.55ZM149.117 1.55H151.084V-0.450003H149.117V1.55ZM153.051 1.55H155.017V-0.450003H153.051V1.55ZM156.984 1.55H158.951V-0.450003H156.984V1.55ZM160.917 1.55H161.901V-0.450003H160.917V1.55ZM160.901 0.549997V1.56406H162.901V0.549997H160.901ZM160.901 3.59219V5.62031H162.901V3.59219H160.901ZM160.901 7.64844V9.67656H162.901V7.64844H160.901ZM160.901 11.7047V13.7328H162.901V11.7047H160.901ZM160.901 15.7609V17.7891H162.901V15.7609H160.901ZM160.901 19.8172V21.8453H162.901V19.8172H160.901ZM160.901 23.8734V25.9016H162.901V23.8734H160.901ZM160.901 27.9297V29.9578H162.901V27.9297H160.901ZM160.901 31.9859V33H162.901V31.9859H160.901ZM161.901 32H160.926V34H161.901V32ZM158.976 32H157.026V34H158.976V32ZM155.076 32H154.101V34H155.076V32ZM155.101 33V32.0375H153.101V33H155.101ZM155.101 30.1125V28.1875H153.101V30.1125H155.101ZM155.101 26.2625V24.3375H153.101V26.2625H155.101ZM155.101 22.4125V20.4875H153.101V22.4125H155.101ZM155.101 18.5625V16.6375H153.101V18.5625H155.101ZM155.101 14.7125V12.7875H153.101V14.7125H155.101ZM155.101 10.8625V8.9375H153.101V10.8625H155.101ZM155.101 7.0125V6.05H153.101V7.0125H155.101ZM154.101 5.05H153.007V7.05H154.101V5.05ZM150.82 5.05H148.632V7.05H150.82V5.05ZM146.445 5.05H145.351V7.05H146.445V5.05ZM144.351 6.05V7.175H146.351V6.05H144.351ZM144.351 9.425V10.55H146.351V9.425H144.351ZM144.351 10.55C144.351 10.8519 144.349 11.1504 144.347 11.4453L146.347 11.4639C146.349 11.1626 146.351 10.858 146.351 10.55H144.351ZM144.312 13.2311C144.294 13.8417 144.269 14.4357 144.238 15.0131L146.235 15.121C146.267 14.5268 146.292 13.9168 146.311 13.291L144.312 13.2311ZM144.117 16.7872C144.067 17.3967 144.009 17.9849 143.942 18.5519L145.929 18.7846C145.998 18.1935 146.059 17.5825 146.111 16.9518L144.117 16.7872ZM143.701 20.3C143.605 20.904 143.498 21.4789 143.38 22.025L145.336 22.4456C145.461 21.862 145.575 21.252 145.676 20.616L143.701 20.3ZM142.959 23.7105C142.877 23.9942 142.792 24.2676 142.703 24.531L144.599 25.169C144.697 24.8769 144.791 24.5758 144.88 24.2659L142.959 23.7105ZM142.7 24.5394C142.595 24.862 142.486 25.173 142.375 25.4727L144.25 26.1692C144.371 25.8433 144.488 25.507 144.601 25.1606L142.7 24.5394ZM141.608 27.2666C141.302 27.8847 140.981 28.4307 140.647 28.9078L142.285 30.0554C142.685 29.4843 143.057 28.8491 143.401 28.153L141.608 27.2666ZM139.45 30.2793C139.223 30.4819 138.992 30.6586 138.757 30.8108L139.845 32.4892C140.17 32.2782 140.482 32.0385 140.782 31.7715L139.45 30.2793ZM138.75 30.8155C138.542 30.9529 138.329 31.0812 138.111 31.2005L139.07 32.9551C139.337 32.8092 139.598 32.6523 139.852 32.4845L138.75 30.8155ZM136.746 31.8069C136.282 31.9694 135.797 32.099 135.289 32.1952L135.661 34.1603C136.264 34.0462 136.846 33.8912 137.407 33.6943L136.746 31.8069ZM133.773 32.3783C133.52 32.3927 133.263 32.4 133.001 32.4V34.4C133.3 34.4 133.595 34.3917 133.887 34.3751L133.773 32.3783ZM171.398 0.549997V0.0499973H170.898V0.549997H171.398ZM179.198 0.549997H179.698V0.0499973H179.198V0.549997ZM179.198 12.45H178.698V12.95H179.198V12.45ZM190.698 12.9L190.619 13.3938L190.629 13.3951L190.698 12.9ZM195.148 14.8L194.806 15.1648L194.812 15.1703L194.818 15.1756L195.148 14.8ZM171.398 33H170.898V33.5H171.398V33ZM187.648 26.65L187.903 27.0803L187.915 27.0731L187.648 26.65ZM187.698 18.55L187.504 19.0105L187.698 18.55ZM179.148 18V17.5H178.648V18H179.148ZM179.148 27.45H178.648V27.95H179.148V27.45ZM170.898 0.549997V1.56406H171.898V0.549997H170.898ZM170.898 3.59219V5.62031H171.898V3.59219H170.898ZM170.898 7.64844V9.67656H171.898V7.64844H170.898ZM170.898 11.7047V13.7328H171.898V11.7047H170.898ZM170.898 15.7609V17.7891H171.898V15.7609H170.898ZM170.898 19.8172V21.8453H171.898V19.8172H170.898ZM170.898 23.8734V25.9016H171.898V23.8734H170.898ZM170.898 27.9297V29.9578H171.898V27.9297H170.898ZM170.898 31.9859V33H171.898V31.9859H170.898ZM171.398 33.5H172.423V32.5H171.398V33.5ZM174.473 33.5H176.523V32.5H174.473V33.5ZM178.573 33.5H180.623V32.5H178.573V33.5ZM182.673 33.5H183.698V32.5H182.673V33.5ZM183.698 33.5C184.067 33.5 184.429 33.4955 184.783 33.4864L184.757 32.4867C184.412 32.4956 184.059 32.5 183.698 32.5V33.5ZM186.948 33.3661C187.71 33.2986 188.431 33.2055 189.111 33.0864L188.938 32.1014C188.289 32.2151 187.597 32.3047 186.86 32.37L186.948 33.3661ZM191.249 32.5849C192.005 32.3553 192.695 32.0809 193.316 31.7602L192.857 30.8716C192.297 31.1608 191.665 31.4135 190.958 31.6281L191.249 32.5849ZM195.181 30.4687C195.76 29.929 196.223 29.3156 196.567 28.6295L195.673 28.1815C195.385 28.757 194.995 29.2754 194.499 29.7374L195.181 30.4687ZM197.226 26.4328C197.275 26.0672 197.298 25.6895 197.298 25.3H196.298C196.298 25.6487 196.277 25.9827 196.235 26.3022L197.226 26.4328ZM197.298 25.3V24.5375H196.298V25.3H197.298ZM197.298 23.0125V21.4875H196.298V23.0125H197.298ZM197.298 19.9625V19.2H196.298V19.9625H197.298ZM197.298 19.2C197.298 18.7534 197.271 18.3276 197.216 17.9234L196.225 18.0585C196.274 18.4133 196.298 18.7936 196.298 19.2H197.298ZM196.356 15.4477C196.111 15.0645 195.818 14.723 195.479 14.4244L194.818 15.1756C195.087 15.4119 195.319 15.6818 195.514 15.9867L196.356 15.4477ZM195.49 14.4352C195.171 14.1359 194.819 13.868 194.434 13.6313L193.91 14.4828C194.24 14.6858 194.538 14.9132 194.806 15.1648L195.49 14.4352ZM192.026 12.6475C191.626 12.5472 191.207 12.4664 190.768 12.4049L190.629 13.3951C191.036 13.4522 191.42 13.5265 191.783 13.6175L192.026 12.6475ZM190.778 12.4063C190.473 12.3574 190.153 12.3125 189.815 12.2716L189.695 13.2644C190.021 13.3039 190.329 13.347 190.619 13.3937L190.778 12.4063ZM187.893 12.0931C187.291 12.0517 186.652 12.0194 185.973 11.996L185.939 12.9954C186.607 13.0185 187.236 13.0503 187.824 13.0907L187.893 12.0931ZM184.056 11.9547C183.744 11.9515 183.425 11.95 183.098 11.95V12.95C183.421 12.95 183.737 12.9515 184.046 12.9546L184.056 11.9547ZM183.098 11.95H182.123V12.95H183.098V11.95ZM180.173 11.95H179.198V12.95H180.173V11.95ZM179.698 12.45V11.4583H178.698V12.45H179.698ZM179.698 9.475V7.49166H178.698V9.475H179.698ZM179.698 5.50833V3.525H178.698V5.50833H179.698ZM179.698 1.54166V0.549997H178.698V1.54166H179.698ZM179.198 0.0499973H178.223V1.05H179.198V0.0499973ZM176.273 0.0499973H174.323V1.05H176.273V0.0499973ZM172.373 0.0499973H171.398V1.05H172.373V0.0499973ZM183.348 26.95H182.298V27.95H183.348V26.95ZM180.198 26.95H179.148V27.95H180.198V26.95ZM179.648 27.45V26.2687H178.648V27.45H179.648ZM179.648 23.9062V21.5438H178.648V23.9062H179.648ZM179.648 19.1812V18H178.648V19.1812H179.648ZM179.148 18.5H180.223V17.5H179.148V18.5ZM182.373 18.5H183.448V17.5H182.373V18.5ZM183.448 18.5C183.822 18.5 184.174 18.5067 184.506 18.5201L184.546 17.5209C184.2 17.5069 183.834 17.5 183.448 17.5V18.5ZM186.568 18.7383C186.949 18.8146 187.258 18.9067 187.504 19.0105L187.893 18.0895C187.569 17.9524 187.191 17.8433 186.765 17.7578L186.568 18.7383ZM187.504 19.0105C187.68 19.0852 187.827 19.1734 187.948 19.2723L188.581 18.498C188.378 18.3323 188.147 18.197 187.893 18.0895L187.504 19.0105ZM188.443 20.1043C188.479 20.2647 188.498 20.4459 188.498 20.65H189.498C189.498 20.3826 189.473 20.127 189.419 19.8853L188.443 20.1043ZM188.498 20.65V21.5125H189.498V20.65H188.498ZM188.498 23.2375V24.1H189.498V23.2375H188.498ZM188.498 24.1C188.498 24.3351 188.477 24.5507 188.435 24.7481L189.413 24.9548C189.471 24.6825 189.498 24.3971 189.498 24.1H188.498ZM187.874 25.8302C187.737 25.9736 187.574 26.1062 187.382 26.2269L187.915 27.0731C188.17 26.9125 188.398 26.729 188.597 26.5215L187.874 25.8302ZM187.394 26.2199C187.151 26.3635 186.852 26.4907 186.491 26.597L186.773 27.5563C187.197 27.4318 187.575 27.2746 187.903 27.0801L187.394 26.2199ZM184.423 26.9196C184.087 26.9398 183.729 26.95 183.348 26.95V27.95C183.746 27.95 184.125 27.9393 184.483 27.9178L184.423 26.9196ZM171.398 0.549997V-0.450003H170.398V0.549997H171.398ZM179.198 0.549997H180.198V-0.450003H179.198V0.549997ZM179.198 12.45H178.198V13.45H179.198V12.45ZM190.698 12.9L190.54 13.8873L190.55 13.8889L190.559 13.8903L190.698 12.9ZM195.148 14.8L194.464 15.5295L194.476 15.5405L194.488 15.5512L195.148 14.8ZM171.398 33H170.398V34H171.398V33ZM187.648 26.65L188.158 27.5103L188.17 27.5034L188.181 27.4962L187.648 26.65ZM187.698 18.55L187.309 19.471L187.698 18.55ZM179.148 18V17H178.148V18H179.148ZM179.148 27.45H178.148V28.45H179.148V27.45ZM170.398 0.549997V1.56406H172.398V0.549997H170.398ZM170.398 3.59219V5.62031H172.398V3.59219H170.398ZM170.398 7.64844V9.67656H172.398V7.64844H170.398ZM170.398 11.7047V13.7328H172.398V11.7047H170.398ZM170.398 15.7609V17.7891H172.398V15.7609H170.398ZM170.398 19.8172V21.8453H172.398V19.8172H170.398ZM170.398 23.8734V25.9016H172.398V23.8734H170.398ZM170.398 27.9297V29.9578H172.398V27.9297H170.398ZM170.398 31.9859V33H172.398V31.9859H170.398ZM171.398 34H172.423V32H171.398V34ZM174.473 34H176.523V32H174.473V34ZM178.573 34H180.623V32H178.573V34ZM182.673 34H183.698V32H182.673V34ZM183.698 34C184.072 34 184.437 33.9954 184.796 33.9862L184.745 31.9869C184.404 31.9956 184.055 32 183.698 32V34ZM186.992 33.8641C187.767 33.7956 188.502 33.7007 189.197 33.5789L188.852 31.6089C188.218 31.7199 187.54 31.8078 186.816 31.8719L186.992 33.8641ZM191.394 33.0633C192.175 32.8262 192.893 32.541 193.545 32.2044L192.627 30.4274C192.098 30.7007 191.495 30.9426 190.813 31.1496L191.394 33.0633ZM195.522 30.8344C196.143 30.2558 196.643 29.595 197.014 28.8536L195.226 27.9575C194.965 28.4777 194.612 28.9485 194.158 29.3717L195.522 30.8344ZM197.722 26.4982C197.773 26.1095 197.798 25.7099 197.798 25.3H195.798C195.798 25.6283 195.778 25.9404 195.739 26.2368L197.722 26.4982ZM197.798 25.3V24.5375H195.798V25.3H197.798ZM197.798 23.0125V21.4875H195.798V23.0125H197.798ZM197.798 19.9625V19.2H195.798V19.9625H197.798ZM197.798 19.2C197.798 18.7333 197.77 18.2848 197.712 17.8559L195.73 18.126C195.775 18.4561 195.798 18.8136 195.798 19.2H197.798ZM196.777 15.1782C196.507 14.7559 196.184 14.3786 195.809 14.0488L194.488 15.5512C194.722 15.7563 194.923 15.9905 195.093 16.2562L196.777 15.1782ZM195.832 14.0705C195.488 13.7472 195.108 13.4591 194.696 13.2055L193.648 14.9086C193.95 15.0947 194.222 15.3018 194.464 15.5295L195.832 14.0705ZM192.148 12.1625C191.729 12.0575 191.292 11.9735 190.837 11.9097L190.559 13.8903C190.95 13.9451 191.317 14.0161 191.662 14.1024L192.148 12.1625ZM190.857 11.9127C190.546 11.8626 190.218 11.8169 189.876 11.7753L189.635 13.7607C189.955 13.7995 190.256 13.8418 190.54 13.8873L190.857 11.9127ZM187.927 11.5942C187.319 11.5525 186.674 11.5199 185.99 11.4963L185.922 13.4952C186.585 13.518 187.208 13.5495 187.79 13.5895L187.927 11.5942ZM184.061 11.4547C183.747 11.4516 183.426 11.45 183.098 11.45V13.45C183.42 13.45 183.734 13.4515 184.041 13.4546L184.061 11.4547ZM183.098 11.45H182.123V13.45H183.098V11.45ZM180.173 11.45H179.198V13.45H180.173V11.45ZM180.198 12.45V11.4583H178.198V12.45H180.198ZM180.198 9.475V7.49166H178.198V9.475H180.198ZM180.198 5.50833V3.525H178.198V5.50833H180.198ZM180.198 1.54166V0.549997H178.198V1.54166H180.198ZM179.198 -0.450003H178.223V1.55H179.198V-0.450003ZM176.273 -0.450003H174.323V1.55H176.273V-0.450003ZM172.373 -0.450003H171.398V1.55H172.373V-0.450003ZM183.348 26.45H182.298V28.45H183.348V26.45ZM180.198 26.45H179.148V28.45H180.198V26.45ZM180.148 27.45V26.2687H178.148V27.45H180.148ZM180.148 23.9062V21.5438H178.148V23.9062H180.148ZM180.148 19.1812V18H178.148V19.1812H180.148ZM179.148 19H180.223V17H179.148V19ZM182.373 19H183.448V17H182.373V19ZM183.448 19C183.816 19 184.162 19.0066 184.485 19.0197L184.566 17.0213C184.213 17.007 183.84 17 183.448 17V19ZM186.47 19.2285C186.827 19.3002 187.103 19.3838 187.309 19.471L188.088 17.629C187.725 17.4753 187.312 17.3576 186.863 17.2676L186.47 19.2285ZM187.309 19.471C187.447 19.5294 187.551 19.594 187.631 19.6594L188.897 18.1109C188.653 17.9117 188.381 17.7529 188.088 17.629L187.309 19.471ZM187.955 20.2137C187.982 20.3335 187.998 20.4776 187.998 20.65H189.998C189.998 20.3509 189.97 20.0582 189.907 19.7759L187.955 20.2137ZM187.998 20.65V21.5125H189.998V20.65H187.998ZM187.998 23.2375V24.1H189.998V23.2375H187.998ZM187.998 24.1C187.998 24.304 187.979 24.4847 187.946 24.6448L189.902 25.0582C189.968 24.7485 189.998 24.4282 189.998 24.1H187.998ZM187.513 25.4845C187.406 25.5959 187.276 25.7031 187.116 25.8038L188.181 27.4962C188.468 27.3157 188.729 27.1067 188.958 26.8671L187.513 25.4845ZM187.139 25.7897C186.939 25.9079 186.68 26.0201 186.35 26.1174L186.914 28.036C187.369 27.9023 187.787 27.7301 188.158 27.5103L187.139 25.7897ZM184.393 26.4205C184.068 26.44 183.72 26.45 183.348 26.45V28.45C183.755 28.45 184.144 28.4391 184.513 28.4169L184.393 26.4205ZM212.307 6.1H212.807V5.6H212.307V6.1ZM202.307 6.1H201.807V6.6H202.307V6.1ZM202.307 0.549997V0.0499973H201.807V0.549997H202.307ZM230.057 0.549997H230.557V0.0499973H230.057V0.549997ZM230.057 6.1V6.6H230.557V6.1H230.057ZM220.107 6.1V5.6H219.607V6.1H220.107ZM220.107 33V33.5H220.607V33H220.107ZM212.307 33H211.807V33.5H212.307V33ZM212.307 5.6H211.473V6.6H212.307V5.6ZM209.807 5.6H208.14V6.6H209.807V5.6ZM206.473 5.6H204.807V6.6H206.473V5.6ZM203.14 5.6H202.307V6.6H203.14V5.6ZM202.807 6.1V4.7125H201.807V6.1H202.807ZM202.807 1.9375V0.549997H201.807V1.9375H202.807ZM202.307 1.05H203.298V0.0499973H202.307V1.05ZM205.28 1.05H207.262V0.0499973H205.28V1.05ZM209.244 1.05H211.226V0.0499973H209.244V1.05ZM213.208 1.05H215.191V0.0499973H213.208V1.05ZM217.173 1.05H219.155V0.0499973H217.173V1.05ZM221.137 1.05H223.119V0.0499973H221.137V1.05ZM225.101 1.05H227.083V0.0499973H225.101V1.05ZM229.066 1.05H230.057V0.0499973H229.066V1.05ZM229.557 0.549997V1.9375H230.557V0.549997H229.557ZM229.557 4.7125V6.1H230.557V4.7125H229.557ZM230.057 5.6H228.813V6.6H230.057V5.6ZM226.325 5.6H223.838V6.6H226.325V5.6ZM221.35 5.6H220.107V6.6H221.35V5.6ZM219.607 6.1V7.06071H220.607V6.1H219.607ZM219.607 8.98214V10.9036H220.607V8.98214H219.607ZM219.607 12.825V14.7464H220.607V12.825H219.607ZM219.607 16.6679V18.5893H220.607V16.6679H219.607ZM219.607 20.5107V22.4321H220.607V20.5107H219.607ZM219.607 24.3536V26.275H220.607V24.3536H219.607ZM219.607 28.1964V30.1179H220.607V28.1964H219.607ZM219.607 32.0393V33H220.607V32.0393H219.607ZM220.107 32.5H219.132V33.5H220.107V32.5ZM217.182 32.5H215.232V33.5H217.182V32.5ZM213.282 32.5H212.307V33.5H213.282V32.5ZM212.807 33V32.0393H211.807V33H212.807ZM212.807 30.1179V28.1964H211.807V30.1179H212.807ZM212.807 26.275V24.3536H211.807V26.275H212.807ZM212.807 22.4321V20.5107H211.807V22.4321H212.807ZM212.807 18.5893V16.6679H211.807V18.5893H212.807ZM212.807 14.7464V12.825H211.807V14.7464H212.807ZM212.807 10.9036V8.98214H211.807V10.9036H212.807ZM212.807 7.06071V6.1H211.807V7.06071H212.807ZM212.307 6.1H213.307V5.1H212.307V6.1ZM202.307 6.1H201.307V7.1H202.307V6.1ZM202.307 0.549997V-0.450003H201.307V0.549997H202.307ZM230.057 0.549997H231.057V-0.450003H230.057V0.549997ZM230.057 6.1V7.1H231.057V6.1H230.057ZM220.107 6.1V5.1H219.107V6.1H220.107ZM220.107 33V34H221.107V33H220.107ZM212.307 33H211.307V34H212.307V33ZM212.307 5.1H211.473V7.1H212.307V5.1ZM209.807 5.1H208.14V7.1H209.807V5.1ZM206.473 5.1H204.807V7.1H206.473V5.1ZM203.14 5.1H202.307V7.1H203.14V5.1ZM203.307 6.1V4.7125H201.307V6.1H203.307ZM203.307 1.9375V0.549997H201.307V1.9375H203.307ZM202.307 1.55H203.298V-0.450003H202.307V1.55ZM205.28 1.55H207.262V-0.450003H205.28V1.55ZM209.244 1.55H211.226V-0.450003H209.244V1.55ZM213.208 1.55H215.191V-0.450003H213.208V1.55ZM217.173 1.55H219.155V-0.450003H217.173V1.55ZM221.137 1.55H223.119V-0.450003H221.137V1.55ZM225.101 1.55H227.083V-0.450003H225.101V1.55ZM229.066 1.55H230.057V-0.450003H229.066V1.55ZM229.057 0.549997V1.9375H231.057V0.549997H229.057ZM229.057 4.7125V6.1H231.057V4.7125H229.057ZM230.057 5.1H228.813V7.1H230.057V5.1ZM226.325 5.1H223.838V7.1H226.325V5.1ZM221.35 5.1H220.107V7.1H221.35V5.1ZM219.107 6.1V7.06071H221.107V6.1H219.107ZM219.107 8.98214V10.9036H221.107V8.98214H219.107ZM219.107 12.825V14.7464H221.107V12.825H219.107ZM219.107 16.6679V18.5893H221.107V16.6679H219.107ZM219.107 20.5107V22.4321H221.107V20.5107H219.107ZM219.107 24.3536V26.275H221.107V24.3536H219.107ZM219.107 28.1964V30.1179H221.107V28.1964H219.107ZM219.107 32.0393V33H221.107V32.0393H219.107ZM220.107 32H219.132V34H220.107V32ZM217.182 32H215.232V34H217.182V32ZM213.282 32H212.307V34H213.282V32ZM213.307 33V32.0393H211.307V33H213.307ZM213.307 30.1179V28.1964H211.307V30.1179H213.307ZM213.307 26.275V24.3536H211.307V26.275H213.307ZM213.307 22.4321V20.5107H211.307V22.4321H213.307ZM213.307 18.5893V16.6679H211.307V18.5893H213.307ZM213.307 14.7464V12.825H211.307V14.7464H213.307ZM213.307 10.9036V8.98214H211.307V10.9036H213.307ZM213.307 7.06071V6.1H211.307V7.06071H213.307ZM245.643 0.549997V0.0499973H245.295L245.174 0.376575L245.643 0.549997ZM255.143 0.549997L255.613 0.380407L255.494 0.0499973H255.143V0.549997ZM266.843 33V33.5H267.555L267.313 32.8304L266.843 33ZM258.943 33L258.469 33.1606L258.585 33.5H258.943V33ZM256.043 24.45L256.516 24.2894L256.401 23.95H256.043V24.45ZM244.193 24.45V23.95H243.833L243.719 24.2919L244.193 24.45ZM241.343 33V33.5H241.703L241.817 33.1581L241.343 33ZM233.643 33L233.174 32.8266L232.925 33.5H233.643V33ZM254.343 19.25V19.75H255.038L254.817 19.0907L254.343 19.25ZM250.243 7.05L250.717 6.89072L250.602 6.55H250.243V7.05ZM250.043 7.05V6.55H249.684L249.569 6.89072L250.043 7.05ZM245.943 19.25L245.469 19.0907L245.247 19.75H245.943V19.25ZM245.174 0.376575L244.841 1.27796L245.779 1.62481L246.112 0.723419L245.174 0.376575ZM244.174 3.08074L243.507 4.88352L244.445 5.23036L245.112 3.42759L244.174 3.08074ZM242.841 6.6863L242.174 8.48908L243.112 8.83592L243.779 7.03314L242.841 6.6863ZM241.507 10.2919L240.841 12.0946L241.779 12.4415L242.445 10.6387L241.507 10.2919ZM240.174 13.8974L239.507 15.7002L240.445 16.047L241.112 14.2443L240.174 13.8974ZM238.841 17.503L238.174 19.3057L239.112 19.6526L239.779 17.8498L238.841 17.503ZM237.507 21.1085L236.841 22.9113L237.779 23.2581L238.445 21.4554L237.507 21.1085ZM236.174 24.7141L235.507 26.5169L236.445 26.8637L237.112 25.0609L236.174 24.7141ZM234.841 28.3196L234.174 30.1224L235.112 30.4693L235.779 28.6665L234.841 28.3196ZM233.507 31.9252L233.174 32.8266L234.112 33.1734L234.445 32.272L233.507 31.9252ZM233.643 33.5H234.605V32.5H233.643V33.5ZM236.53 33.5H238.455V32.5H236.53V33.5ZM240.38 33.5H241.343V32.5H240.38V33.5ZM241.817 33.1581L242.174 32.0894L241.225 31.7731L240.869 32.8419L241.817 33.1581ZM242.886 29.9519L243.599 27.8144L242.65 27.4981L241.937 29.6356L242.886 29.9519ZM244.311 25.6769L244.667 24.6081L243.719 24.2919L243.362 25.3606L244.311 25.6769ZM244.193 24.95H245.18V23.95H244.193V24.95ZM247.155 24.95H249.13V23.95H247.155V24.95ZM251.105 24.95H253.08V23.95H251.105V24.95ZM255.055 24.95H256.043V23.95H255.055V24.95ZM255.569 24.6106L255.932 25.6794L256.879 25.3581L256.516 24.2894L255.569 24.6106ZM256.657 27.8169L257.382 29.9544L258.329 29.6331L257.604 27.4956L256.657 27.8169ZM258.107 32.0919L258.469 33.1606L259.416 32.8394L259.054 31.7706L258.107 32.0919ZM258.943 33.5H259.93V32.5H258.943V33.5ZM261.905 33.5H263.88V32.5H261.905V33.5ZM265.855 33.5H266.843V32.5H265.855V33.5ZM267.313 32.8304L266.988 31.929L266.048 32.2682L266.373 33.1696L267.313 32.8304ZM266.338 30.1262L265.688 28.3235L264.748 28.6626L265.398 30.4654L266.338 30.1262ZM265.038 26.5207L264.388 24.7179L263.448 25.0571L264.098 26.8599L265.038 26.5207ZM263.738 22.9151L263.088 21.1124L262.148 21.4515L262.798 23.2543L263.738 22.9151ZM262.438 19.3096L261.788 17.5068L260.848 17.846L261.498 19.6488L262.438 19.3096ZM261.138 15.704L260.488 13.9012L259.548 14.2404L260.198 16.0432L261.138 15.704ZM259.838 12.0985L259.188 10.2957L258.248 10.6349L258.898 12.4376L259.838 12.0985ZM258.538 8.49291L257.888 6.69013L256.948 7.02932L257.598 8.83209L258.538 8.49291ZM257.238 4.88736L256.588 3.08458L255.648 3.42376L256.298 5.22654L257.238 4.88736ZM255.938 1.2818L255.613 0.380407L254.673 0.719588L254.998 1.62098L255.938 1.2818ZM255.143 0.0499973H253.955V1.05H255.143V0.0499973ZM251.58 0.0499973H249.205V1.05H251.58V0.0499973ZM246.83 0.0499973H245.643V1.05H246.83V0.0499973ZM254.343 18.75H253.293V19.75H254.343V18.75ZM251.193 18.75H249.093V19.75H251.193V18.75ZM246.993 18.75H245.943V19.75H246.993V18.75ZM246.417 19.4093L246.759 18.3926L245.811 18.0741L245.469 19.0907L246.417 19.4093ZM247.442 16.3593L248.125 14.3259L247.177 14.0074L246.494 16.0407L247.442 16.3593ZM248.809 12.2926L249.492 10.2593L248.544 9.94072L247.861 11.9741L248.809 12.2926ZM250.175 8.22594L250.517 7.20928L249.569 6.89072L249.227 7.90738L250.175 8.22594ZM250.043 7.55H250.093V6.55H250.043V7.55ZM250.193 7.55H250.243V6.55H250.193V7.55ZM249.769 7.20928L250.111 8.22594L251.059 7.90738L250.717 6.89072L249.769 7.20928ZM250.794 10.2593L251.477 12.2926L252.425 11.9741L251.742 9.94072L250.794 10.2593ZM252.161 14.3259L252.844 16.3593L253.792 16.0407L253.109 14.0074L252.161 14.3259ZM253.527 18.3926L253.869 19.4093L254.817 19.0907L254.475 18.0741L253.527 18.3926ZM245.643 0.549997V-0.450003H244.947L244.705 0.203154L245.643 0.549997ZM255.143 0.549997L256.084 0.210816L255.845 -0.450003H255.143V0.549997ZM266.843 33V34H268.267L267.784 32.6608L266.843 33ZM258.943 33L257.996 33.3212L258.226 34H258.943V33ZM256.043 24.45L256.99 24.1288L256.76 23.45H256.043V24.45ZM244.193 24.45V23.45H243.472L243.244 24.1338L244.193 24.45ZM241.343 33V34H242.064L242.292 33.3162L241.343 33ZM233.643 33L232.705 32.6532L232.207 34H233.643V33ZM254.343 19.25V20.25H255.734L255.291 18.9314L254.343 19.25ZM250.243 7.05L251.191 6.73144L250.962 6.05H250.243V7.05ZM250.043 7.05V6.05H249.324L249.095 6.73144L250.043 7.05ZM245.943 19.25L244.995 18.9314L244.552 20.25H245.943V19.25ZM244.705 0.203154L244.372 1.10454L246.248 1.79823L246.581 0.896841L244.705 0.203154ZM243.705 2.90732L243.038 4.7101L244.914 5.40379L245.581 3.60101L243.705 2.90732ZM242.372 6.51288L241.705 8.31565L243.581 9.00934L244.248 7.20656L242.372 6.51288ZM241.038 10.1184L240.372 11.9212L242.248 12.6149L242.914 10.8121L241.038 10.1184ZM239.705 13.724L239.038 15.5268L240.914 16.2205L241.581 14.4177L239.705 13.724ZM238.372 17.3295L237.705 19.1323L239.581 19.826L240.248 18.0232L238.372 17.3295ZM237.038 20.9351L236.372 22.7379L238.248 23.4316L238.914 21.6288L237.038 20.9351ZM235.705 24.5407L235.038 26.3434L236.914 27.0371L237.581 25.2343L235.705 24.5407ZM234.372 28.1462L233.705 29.949L235.581 30.6427L236.248 28.8399L234.372 28.1462ZM233.038 31.7518L232.705 32.6532L234.581 33.3468L234.914 32.4455L233.038 31.7518ZM233.643 34H234.605V32H233.643V34ZM236.53 34H238.455V32H236.53V34ZM240.38 34H241.343V32H240.38V34ZM242.292 33.3162L242.648 32.2475L240.751 31.615L240.394 32.6838L242.292 33.3162ZM243.36 30.11L244.073 27.9725L242.176 27.34L241.463 29.4775L243.36 30.11ZM244.785 25.835L245.142 24.7662L243.244 24.1338L242.888 25.2025L244.785 25.835ZM244.193 25.45H245.18V23.45H244.193V25.45ZM247.155 25.45H249.13V23.45H247.155V25.45ZM251.105 25.45H253.08V23.45H251.105V25.45ZM255.055 25.45H256.043V23.45H255.055V25.45ZM255.096 24.7712L255.458 25.84L257.352 25.1975L256.99 24.1288L255.096 24.7712ZM256.183 27.9775L256.908 30.115L258.802 29.4725L258.077 27.335L256.183 27.9775ZM257.633 32.2525L257.996 33.3212L259.89 32.6788L259.527 31.61L257.633 32.2525ZM258.943 34H259.93V32H258.943V34ZM261.905 34H263.88V32H261.905V34ZM265.855 34H266.843V32H265.855V34ZM267.784 32.6608L267.459 31.7594L265.577 32.4378L265.902 33.3392L267.784 32.6608ZM266.809 29.9567L266.159 28.1539L264.277 28.8322L264.927 30.635L266.809 29.9567ZM265.509 26.3511L264.859 24.5483L262.977 25.2267L263.627 27.0295L265.509 26.3511ZM264.209 22.7455L263.559 20.9428L261.677 21.6211L262.327 23.4239L264.209 22.7455ZM262.909 19.14L262.259 17.3372L260.377 18.0156L261.027 19.8183L262.909 19.14ZM261.609 15.5344L260.959 13.7317L259.077 14.41L259.727 16.2128L261.609 15.5344ZM260.309 11.9289L259.659 10.1261L257.777 10.8045L258.427 12.6072L260.309 11.9289ZM259.009 8.32332L258.359 6.52054L256.477 7.19891L257.127 9.00168L259.009 8.32332ZM257.709 4.71777L257.059 2.91499L255.177 3.59335L255.827 5.39613L257.709 4.71777ZM256.409 1.11221L256.084 0.210816L254.202 0.889179L254.527 1.79057L256.409 1.11221ZM255.143 -0.450003H253.955V1.55H255.143V-0.450003ZM251.58 -0.450003H249.205V1.55H251.58V-0.450003ZM246.83 -0.450003H245.643V1.55H246.83V-0.450003ZM254.343 18.25H253.293V20.25H254.343V18.25ZM251.193 18.25H249.093V20.25H251.193V18.25ZM246.993 18.25H245.943V20.25H246.993V18.25ZM246.891 19.5686L247.233 18.5519L245.337 17.9148L244.995 18.9314L246.891 19.5686ZM247.916 16.5186L248.599 14.4852L246.703 13.8481L246.02 15.8814L247.916 16.5186ZM249.283 12.4519L249.966 10.4186L248.07 9.78144L247.387 11.8148L249.283 12.4519ZM250.649 8.38522L250.991 7.36856L249.095 6.73144L248.753 7.74811L250.649 8.38522ZM250.043 8.05H250.093V6.05H250.043V8.05ZM250.193 8.05H250.243V6.05H250.193V8.05ZM249.295 7.36856L249.637 8.38522L251.533 7.74811L251.191 6.73144L249.295 7.36856ZM250.32 10.4186L251.003 12.4519L252.899 11.8148L252.216 9.78144L250.32 10.4186ZM251.687 14.4852L252.37 16.5186L254.266 15.8814L253.583 13.8481L251.687 14.4852ZM253.053 18.5519L253.395 19.5686L255.291 18.9314L254.949 17.9148L253.053 18.5519ZM280.441 6.1H280.941V5.6H280.441V6.1ZM270.441 6.1H269.941V6.6H270.441V6.1ZM270.441 0.549997V0.0499973H269.941V0.549997H270.441ZM298.191 0.549997H298.691V0.0499973H298.191V0.549997ZM298.191 6.1V6.6H298.691V6.1H298.191ZM288.241 6.1V5.6H287.741V6.1H288.241ZM288.241 33V33.5H288.741V33H288.241ZM280.441 33H279.941V33.5H280.441V33ZM280.441 5.6H279.608V6.6H280.441V5.6ZM277.941 5.6H276.275V6.6H277.941V5.6ZM274.608 5.6H272.941V6.6H274.608V5.6ZM271.275 5.6H270.441V6.6H271.275V5.6ZM270.941 6.1V4.7125H269.941V6.1H270.941ZM270.941 1.9375V0.549997H269.941V1.9375H270.941ZM270.441 1.05H271.432V0.0499973H270.441V1.05ZM273.415 1.05H275.397V0.0499973H273.415V1.05ZM277.379 1.05H279.361V0.0499973H277.379V1.05ZM281.343 1.05H283.325V0.0499973H281.343V1.05ZM285.307 1.05H287.29V0.0499973H285.307V1.05ZM289.272 1.05H291.254V0.0499973H289.272V1.05ZM293.236 1.05H295.218V0.0499973H293.236V1.05ZM297.2 1.05H298.191V0.0499973H297.2V1.05ZM297.691 0.549997V1.9375H298.691V0.549997H297.691ZM297.691 4.7125V6.1H298.691V4.7125H297.691ZM298.191 5.6H296.948V6.6H298.191V5.6ZM294.46 5.6H291.973V6.6H294.46V5.6ZM289.485 5.6H288.241V6.6H289.485V5.6ZM287.741 6.1V7.06071H288.741V6.1H287.741ZM287.741 8.98214V10.9036H288.741V8.98214H287.741ZM287.741 12.825V14.7464H288.741V12.825H287.741ZM287.741 16.6679V18.5893H288.741V16.6679H287.741ZM287.741 20.5107V22.4321H288.741V20.5107H287.741ZM287.741 24.3536V26.275H288.741V24.3536H287.741ZM287.741 28.1964V30.1179H288.741V28.1964H287.741ZM287.741 32.0393V33H288.741V32.0393H287.741ZM288.241 32.5H287.266V33.5H288.241V32.5ZM285.316 32.5H283.366V33.5H285.316V32.5ZM281.416 32.5H280.441V33.5H281.416V32.5ZM280.941 33V32.0393H279.941V33H280.941ZM280.941 30.1179V28.1964H279.941V30.1179H280.941ZM280.941 26.275V24.3536H279.941V26.275H280.941ZM280.941 22.4321V20.5107H279.941V22.4321H280.941ZM280.941 18.5893V16.6679H279.941V18.5893H280.941ZM280.941 14.7464V12.825H279.941V14.7464H280.941ZM280.941 10.9036V8.98214H279.941V10.9036H280.941ZM280.941 7.06071V6.1H279.941V7.06071H280.941ZM280.441 6.1H281.441V5.1H280.441V6.1ZM270.441 6.1H269.441V7.1H270.441V6.1ZM270.441 0.549997V-0.450003H269.441V0.549997H270.441ZM298.191 0.549997H299.191V-0.450003H298.191V0.549997ZM298.191 6.1V7.1H299.191V6.1H298.191ZM288.241 6.1V5.1H287.241V6.1H288.241ZM288.241 33V34H289.241V33H288.241ZM280.441 33H279.441V34H280.441V33ZM280.441 5.1H279.608V7.1H280.441V5.1ZM277.941 5.1H276.275V7.1H277.941V5.1ZM274.608 5.1H272.941V7.1H274.608V5.1ZM271.275 5.1H270.441V7.1H271.275V5.1ZM271.441 6.1V4.7125H269.441V6.1H271.441ZM271.441 1.9375V0.549997H269.441V1.9375H271.441ZM270.441 1.55H271.432V-0.450003H270.441V1.55ZM273.415 1.55H275.397V-0.450003H273.415V1.55ZM277.379 1.55H279.361V-0.450003H277.379V1.55ZM281.343 1.55H283.325V-0.450003H281.343V1.55ZM285.307 1.55H287.29V-0.450003H285.307V1.55ZM289.272 1.55H291.254V-0.450003H289.272V1.55ZM293.236 1.55H295.218V-0.450003H293.236V1.55ZM297.2 1.55H298.191V-0.450003H297.2V1.55ZM297.191 0.549997V1.9375H299.191V0.549997H297.191ZM297.191 4.7125V6.1H299.191V4.7125H297.191ZM298.191 5.1H296.948V7.1H298.191V5.1ZM294.46 5.1H291.973V7.1H294.46V5.1ZM289.485 5.1H288.241V7.1H289.485V5.1ZM287.241 6.1V7.06071H289.241V6.1H287.241ZM287.241 8.98214V10.9036H289.241V8.98214H287.241ZM287.241 12.825V14.7464H289.241V12.825H287.241ZM287.241 16.6679V18.5893H289.241V16.6679H287.241ZM287.241 20.5107V22.4321H289.241V20.5107H287.241ZM287.241 24.3536V26.275H289.241V24.3536H287.241ZM287.241 28.1964V30.1179H289.241V28.1964H287.241ZM287.241 32.0393V33H289.241V32.0393H287.241ZM288.241 32H287.266V34H288.241V32ZM285.316 32H283.366V34H285.316V32ZM281.416 32H280.441V34H281.416V32ZM281.441 33V32.0393H279.441V33H281.441ZM281.441 30.1179V28.1964H279.441V30.1179H281.441ZM281.441 26.275V24.3536H279.441V26.275H281.441ZM281.441 22.4321V20.5107H279.441V22.4321H281.441ZM281.441 18.5893V16.6679H279.441V18.5893H281.441ZM281.441 14.7464V12.825H279.441V14.7464H281.441ZM281.441 10.9036V8.98214H279.441V10.9036H281.441ZM281.441 7.06071V6.1H279.441V7.06071H281.441Z" fill="#77C2F9" fill-opacity="0.9"/>
</svg>
