<svg width="269" height="31" viewBox="0 0 269 31" fill="none" xmlns="http://www.w3.org/2000/svg">
<path d="M0.15 0.794998V0.294998H-0.35V0.794998H0.15ZM18.6 1.38L18.485 1.86659L18.4869 1.86705L18.6 1.38ZM22.245 3.45L21.8465 3.75193L21.8516 3.7587L21.8569 3.76529L22.245 3.45ZM22.155 17.535L21.7603 17.228L21.755 17.235L22.155 17.535ZM18.24 19.83L18.1187 19.3449L18.1168 19.3454L18.24 19.83ZM7.17 20.505V20.005H6.67V20.505H7.17ZM7.17 30V30.5H7.67V30H7.17ZM0.15 30H-0.35V30.5H0.15V30ZM15.495 15.06L15.7393 15.4963L15.7458 15.4926L15.7522 15.4887L15.495 15.06ZM15.54 6.24L15.3406 6.69859L15.3477 6.70154L15.54 6.24ZM7.17 5.79V5.29H6.67V5.79H7.17ZM7.17 15.69H6.67V16.19H7.17V15.69ZM-0.35 0.794998V1.83803H0.65V0.794998H-0.35ZM-0.35 3.9241V6.01018H0.65V3.9241H-0.35ZM-0.35 8.09625V10.1823H0.65V8.09625H-0.35ZM-0.35 12.2684V14.3545H0.65V12.2684H-0.35ZM-0.35 16.4405V18.5266H0.65V16.4405H-0.35ZM-0.35 20.6127V22.6987H0.65V20.6127H-0.35ZM-0.35 24.7848V26.8709H0.65V24.7848H-0.35ZM-0.35 28.957V30H0.65V28.957H-0.35ZM0.15 30.5H1.0275V29.5H0.15V30.5ZM2.7825 30.5H4.5375V29.5H2.7825V30.5ZM6.2925 30.5H7.17V29.5H6.2925V30.5ZM7.67 30V28.8131H6.67V30H7.67ZM7.67 26.4394V24.0656H6.67V26.4394H7.67ZM7.67 21.6919V20.505H6.67V21.6919H7.67ZM7.17 21.005H8.1375V20.005H7.17V21.005ZM10.0725 21.005H11.04V20.005H10.0725V21.005ZM11.04 21.005C11.3512 21.005 11.656 21.0026 11.9543 20.9979L11.9385 19.9981C11.6457 20.0027 11.3462 20.005 11.04 20.005V21.005ZM13.7848 20.935C14.432 20.8995 15.043 20.8504 15.6176 20.7876L15.5089 19.7935C14.9543 19.8541 14.3614 19.9019 13.73 19.9365L13.7848 20.935ZM17.4501 20.5171C17.7693 20.4556 18.0737 20.3882 18.3632 20.3146L18.1168 19.3454C17.848 19.4137 17.5628 19.477 17.2611 19.5351L17.4501 20.5171ZM18.3613 20.3151C18.7694 20.213 19.1556 20.0948 19.5195 19.96L19.172 19.0223C18.8456 19.1432 18.4947 19.2509 18.1187 19.3449L18.3613 20.3151ZM21.6764 18.7537C22.01 18.4767 22.3034 18.1705 22.555 17.835L21.755 17.235C21.5524 17.5051 21.3138 17.755 21.0375 17.9845L21.6764 18.7537ZM22.5497 17.842C22.8124 17.5042 23.0361 17.1315 23.2217 16.7257L22.3123 16.3099C22.157 16.6494 21.9728 16.9549 21.7603 17.228L22.5497 17.842ZM23.8532 14.2749C23.8946 13.8798 23.915 13.4664 23.915 13.035H22.915C22.915 13.4349 22.8961 13.8135 22.8587 14.1709L23.8532 14.2749ZM23.915 13.035V11.6512H22.915V13.035H23.915ZM23.915 8.88375V7.5H22.915V8.88375H23.915ZM23.915 7.5C23.915 7.10813 23.896 6.73262 23.8576 6.37383L22.8633 6.48042C22.8976 6.80049 22.915 7.14023 22.915 7.5H23.915ZM23.2655 4.14488C23.091 3.7765 22.8805 3.4392 22.6331 3.1347L21.8569 3.76529C22.0511 4.00424 22.2196 4.27287 22.3617 4.57291L23.2655 4.14488ZM22.6435 3.14807C22.407 2.83583 22.1306 2.55223 21.8161 2.29702L21.186 3.0735C21.4412 3.28057 21.6607 3.50679 21.8465 3.75193L22.6435 3.14807ZM19.7931 1.20432C19.4536 1.08489 19.0935 0.981255 18.7131 0.89295L18.4869 1.86705C18.8351 1.94786 19.1597 2.04155 19.4613 2.14765L19.7931 1.20432ZM18.715 0.893406C18.4432 0.829165 18.1571 0.770333 17.8567 0.716791L17.6812 1.70127C17.9651 1.75188 18.233 1.80703 18.485 1.86659L18.715 0.893406ZM16.1377 0.482381C15.5997 0.42817 15.0273 0.385827 14.4205 0.355214L14.3701 1.35394C14.9623 1.38382 15.518 1.425 16.0374 1.47734L16.1377 0.482381ZM12.7062 0.301072C12.4269 0.297021 12.1415 0.294998 11.85 0.294998V1.295C12.1368 1.295 12.4174 1.29699 12.6917 1.30097L12.7062 0.301072ZM11.85 0.294998H10.875V1.295H11.85V0.294998ZM8.925 0.294998H6.975V1.295H8.925V0.294998ZM5.025 0.294998H3.075V1.295H5.025V0.294998ZM1.125 0.294998H0.15V1.295H1.125V0.294998ZM11.625 15.19H10.5113V16.19H11.625V15.19ZM8.28375 15.19H7.17V16.19H8.28375V15.19ZM7.67 15.69V14.4525H6.67V15.69H7.67ZM7.67 11.9775V9.5025H6.67V11.9775H7.67ZM7.67 7.0275V5.79H6.67V7.0275H7.67ZM7.17 6.29H8.26125V5.29H7.17V6.29ZM10.4438 6.29H11.535V5.29H10.4438V6.29ZM11.535 6.29C11.8893 6.29 12.2217 6.29486 12.5323 6.30453L12.5635 5.30502C12.2412 5.29498 11.8983 5.29 11.535 5.29V6.29ZM14.4813 6.47078C14.8665 6.53588 15.1479 6.61472 15.3406 6.69853L15.7394 5.78147C15.4436 5.65286 15.0747 5.55688 14.6479 5.48476L14.4813 6.47078ZM15.3477 6.70154C15.4902 6.76091 15.6058 6.83386 15.6997 6.91759L16.3649 6.17092C16.1803 6.00639 15.9676 5.8765 15.7323 5.77846L15.3477 6.70154ZM16.078 7.64558C16.1052 7.78755 16.12 7.94848 16.12 8.13H17.12C17.12 7.89486 17.1009 7.67021 17.0602 7.45769L16.078 7.64558ZM16.12 8.13V9.3H17.12V8.13H16.12ZM16.12 11.64V12.81H17.12V11.64H16.12ZM16.12 12.81C16.12 13.0177 16.1035 13.2065 16.0722 13.3776L17.056 13.5571C17.0993 13.3198 17.12 13.0704 17.12 12.81H16.12ZM15.6371 14.3084C15.527 14.429 15.3949 14.5369 15.2378 14.6313L15.7522 15.4887C15.9873 15.3477 16.1961 15.1793 16.3757 14.9826L15.6371 14.3084ZM15.2507 14.6237C15.0507 14.7358 14.7868 14.8379 14.4495 14.9235L14.6953 15.8928C15.0914 15.7923 15.4426 15.6624 15.7393 15.4963L15.2507 14.6237ZM12.5893 15.1677C12.2885 15.1825 11.9671 15.19 11.625 15.19V16.19C11.9816 16.19 12.3195 16.1822 12.6386 16.1664L12.5893 15.1677ZM0.15 0.794998V-0.205002H-0.85V0.794998H0.15ZM18.6 1.38L18.37 2.35319L18.3739 2.3541L18.6 1.38ZM22.245 3.45L21.4479 4.05386L21.4582 4.0674L21.4689 4.08059L22.245 3.45ZM22.155 17.535L21.3656 16.9211L21.3603 16.928L21.355 16.935L22.155 17.535ZM18.24 19.83L17.9975 18.8598L17.9936 18.8608L18.24 19.83ZM7.17 20.505V19.505H6.17V20.505H7.17ZM7.17 30V31H8.17V30H7.17ZM0.15 30H-0.85V31H0.15V30ZM15.495 15.06L15.9836 15.9325L15.9967 15.9252L16.0095 15.9175L15.495 15.06ZM15.54 6.24L15.1413 7.15707L15.1483 7.16013L15.1554 7.16308L15.54 6.24ZM7.17 5.79V4.79H6.17V5.79H7.17ZM7.17 15.69H6.17V16.69H7.17V15.69ZM-0.85 0.794998V1.83803H1.15V0.794998H-0.85ZM-0.85 3.9241V6.01018H1.15V3.9241H-0.85ZM-0.85 8.09625V10.1823H1.15V8.09625H-0.85ZM-0.85 12.2684V14.3545H1.15V12.2684H-0.85ZM-0.85 16.4405V18.5266H1.15V16.4405H-0.85ZM-0.85 20.6127V22.6987H1.15V20.6127H-0.85ZM-0.85 24.7848V26.8709H1.15V24.7848H-0.85ZM-0.85 28.957V30H1.15V28.957H-0.85ZM0.15 31H1.0275V29H0.15V31ZM2.7825 31H4.5375V29H2.7825V31ZM6.2925 31H7.17V29H6.2925V31ZM8.17 30V28.8131H6.17V30H8.17ZM8.17 26.4394V24.0656H6.17V26.4394H8.17ZM8.17 21.6919V20.505H6.17V21.6919H8.17ZM7.17 21.505H8.1375V19.505H7.17V21.505ZM10.0725 21.505H11.04V19.505H10.0725V21.505ZM11.04 21.505C11.3537 21.505 11.6611 21.5026 11.9622 21.4979L11.9306 19.4981C11.6405 19.5027 11.3436 19.505 11.04 19.505V21.505ZM13.8122 21.4343C14.4673 21.3983 15.0873 21.3485 15.672 21.2846L15.4546 19.2965C14.91 19.356 14.3261 19.4031 13.7026 19.4373L13.8122 21.4343ZM17.5446 21.0081C17.8725 20.945 18.1866 20.8754 18.4864 20.7992L17.9936 18.8608C17.7352 18.9265 17.4596 18.9877 17.1665 19.0441L17.5446 21.0081ZM18.4825 20.8001C18.9067 20.6941 19.3106 20.5706 19.6933 20.4288L18.9982 18.5535C18.6906 18.6675 18.3574 18.7699 17.9975 18.8599L18.4825 20.8001ZM21.9959 19.1384C22.3581 18.8375 22.6789 18.5032 22.955 18.135L21.355 16.935C21.1769 17.1724 20.9657 17.3942 20.718 17.5999L21.9959 19.1384ZM22.9444 18.1489C23.2322 17.7788 23.4757 17.3726 23.6764 16.9336L21.8575 16.102C21.7175 16.4083 21.553 16.6802 21.3656 16.9211L22.9444 18.1489ZM24.3505 14.327C24.3938 13.9129 24.415 13.4821 24.415 13.035H22.415C22.415 13.4192 22.3968 13.7803 22.3614 14.1188L24.3505 14.327ZM24.415 13.035V11.6512H22.415V13.035H24.415ZM24.415 8.88375V7.5H22.415V8.88375H24.415ZM24.415 7.5C24.415 7.09208 24.3953 6.69869 24.3547 6.32053L22.3661 6.53371C22.3984 6.83442 22.415 7.15628 22.415 7.5H24.415ZM23.7174 3.93086C23.5267 3.52832 23.2952 3.15668 23.0211 2.81941L21.4689 4.08059C21.6364 4.28676 21.7839 4.52105 21.9098 4.78693L23.7174 3.93086ZM23.0421 2.84614C22.7801 2.50035 22.4754 2.18806 22.1312 1.90877L20.8709 3.46174C21.0964 3.64474 21.2876 3.84228 21.4479 4.05386L23.0421 2.84614ZM19.9591 0.732659C19.6006 0.606562 19.2227 0.497952 18.8261 0.405901L18.3739 2.3541C18.7059 2.43116 19.0127 2.51988 19.2953 2.61931L19.9591 0.732659ZM18.83 0.406814C18.5483 0.340235 18.253 0.27956 17.9445 0.224551L17.5935 2.19351C17.8692 2.24265 18.1279 2.29596 18.37 2.35318L18.83 0.406814ZM16.1878 -0.0150995C15.6406 -0.0702457 15.0597 -0.113171 14.4457 -0.144151L14.3449 1.85331C14.9298 1.88282 15.4772 1.92342 15.9872 1.97482L16.1878 -0.0150995ZM12.7135 -0.198875C12.4316 -0.202963 12.1438 -0.205002 11.85 -0.205002V1.795C12.1345 1.795 12.4127 1.79697 12.6844 1.80091L12.7135 -0.198875ZM11.85 -0.205002H10.875V1.795H11.85V-0.205002ZM8.925 -0.205002H6.975V1.795H8.925V-0.205002ZM5.025 -0.205002H3.075V1.795H5.025V-0.205002ZM1.125 -0.205002H0.15V1.795H1.125V-0.205002ZM11.625 14.69H10.5113V16.69H11.625V14.69ZM8.28375 14.69H7.17V16.69H8.28375V14.69ZM8.17 15.69V14.4525H6.17V15.69H8.17ZM8.17 11.9775V9.5025H6.17V11.9775H8.17ZM8.17 7.0275V5.79H6.17V7.0275H8.17ZM7.17 6.79H8.26125V4.79H7.17V6.79ZM10.4438 6.79H11.535V4.79H10.4438V6.79ZM11.535 6.79C11.8848 6.79 12.212 6.7948 12.5168 6.80429L12.579 4.80526C12.2509 4.79505 11.9029 4.79 11.535 4.79V6.79ZM14.398 6.96379C14.7624 7.02538 15 7.09565 15.1413 7.15707L15.9387 5.32293C15.5914 5.17192 15.1788 5.06738 14.7312 4.99175L14.398 6.96379ZM15.1554 7.16308C15.2515 7.20311 15.3185 7.24759 15.3672 7.29093L16.6975 5.79758C16.4675 5.59265 16.2063 5.4343 15.9246 5.31692L15.1554 7.16308ZM15.587 7.73952C15.6074 7.84623 15.62 7.9753 15.62 8.13H17.62C17.62 7.86804 17.5987 7.61154 17.5513 7.36374L15.587 7.73952ZM15.62 8.13V9.3H17.62V8.13H15.62ZM15.62 11.64V12.81H17.62V11.64H15.62ZM15.62 12.81C15.62 12.9913 15.6055 13.1498 15.5804 13.2879L17.5479 13.6469C17.5972 13.3765 17.62 13.0968 17.62 12.81H15.62ZM15.2678 13.9714C15.1924 14.0539 15.0988 14.1316 14.9805 14.2025L16.0095 15.9175C16.2834 15.7531 16.5307 15.5545 16.745 15.3196L15.2678 13.9714ZM15.0064 14.1875C14.8547 14.2724 14.6345 14.3607 14.3265 14.4388L14.8182 16.3774C15.2438 16.2695 15.6386 16.1257 15.9836 15.9325L15.0064 14.1875ZM12.5647 14.6683C12.273 14.6827 11.9599 14.69 11.625 14.69V16.69C11.9888 16.69 12.335 16.682 12.6633 16.6658L12.5647 14.6683ZM30.6129 0.794998V0.294998H30.1129V0.794998H30.6129ZM52.8879 0.794998H53.3879V0.294998H52.8879V0.794998ZM52.8879 5.79V6.29H53.3879V5.79H52.8879ZM37.6329 5.79V5.29H37.1329V5.79H37.6329ZM37.6329 12.495H37.1329V12.995H37.6329V12.495ZM51.4029 12.495H51.9029V11.995H51.4029V12.495ZM51.4029 17.49V17.99H51.9029V17.49H51.4029ZM37.6329 17.49V16.99H37.1329V17.49H37.6329ZM37.6329 25.005H37.1329V25.505H37.6329V25.005ZM53.3379 25.005H53.8379V24.505H53.3379V25.005ZM53.3379 30V30.5H53.8379V30H53.3379ZM30.6129 30H30.1129V30.5H30.6129V30ZM30.1129 0.794998V1.83803H31.1129V0.794998H30.1129ZM30.1129 3.9241V6.01018H31.1129V3.9241H30.1129ZM30.1129 8.09625V10.1823H31.1129V8.09625H30.1129ZM30.1129 12.2684V14.3545H31.1129V12.2684H30.1129ZM30.1129 16.4405V18.5266H31.1129V16.4405H30.1129ZM30.1129 20.6127V22.6987H31.1129V20.6127H30.1129ZM30.1129 24.7848V26.8709H31.1129V24.7848H30.1129ZM30.1129 28.957V30H31.1129V28.957H30.1129ZM30.6129 30.5H31.5598V29.5H30.6129V30.5ZM33.4535 30.5H35.3473V29.5H33.4535V30.5ZM37.241 30.5H39.1348V29.5H37.241V30.5ZM41.0285 30.5H42.9223V29.5H41.0285V30.5ZM44.816 30.5H46.7098V29.5H44.816V30.5ZM48.6035 30.5H50.4973V29.5H48.6035V30.5ZM52.391 30.5H53.3379V29.5H52.391V30.5ZM53.8379 30V28.7513H52.8379V30H53.8379ZM53.8379 26.2537V25.005H52.8379V26.2537H53.8379ZM53.3379 24.505H52.3563V25.505H53.3379V24.505ZM50.3932 24.505H48.4301V25.505H50.3932V24.505ZM46.467 24.505H44.5038V25.505H46.467V24.505ZM42.5407 24.505H40.5776V25.505H42.5407V24.505ZM38.6145 24.505H37.6329V25.505H38.6145V24.505ZM38.1329 25.005V24.0656H37.1329V25.005H38.1329ZM38.1329 22.1869V20.3081H37.1329V22.1869H38.1329ZM38.1329 18.4294V17.49H37.1329V18.4294H38.1329ZM37.6329 17.99H38.7804V16.99H37.6329V17.99ZM41.0754 17.99H43.3704V16.99H41.0754V17.99ZM45.6654 17.99H47.9604V16.99H45.6654V17.99ZM50.2554 17.99H51.4029V16.99H50.2554V17.99ZM51.9029 17.49V16.2412H50.9029V17.49H51.9029ZM51.9029 13.7437V12.495H50.9029V13.7437H51.9029ZM51.4029 11.995H50.2554V12.995H51.4029V11.995ZM47.9604 11.995H45.6654V12.995H47.9604V11.995ZM43.3704 11.995H41.0754V12.995H43.3704V11.995ZM38.7804 11.995H37.6329V12.995H38.7804V11.995ZM38.1329 12.495V11.6569H37.1329V12.495H38.1329ZM38.1329 9.98062V8.30437H37.1329V9.98062H38.1329ZM38.1329 6.62812V5.79H37.1329V6.62812H38.1329ZM37.6329 6.29H38.5863V5.29H37.6329V6.29ZM40.4932 6.29H42.4001V5.29H40.4932V6.29ZM44.307 6.29H46.2138V5.29H44.307V6.29ZM48.1207 6.29H50.0276V5.29H48.1207V6.29ZM51.9345 6.29H52.8879V5.29H51.9345V6.29ZM53.3879 5.79V4.54125H52.3879V5.79H53.3879ZM53.3879 2.04375V0.794998H52.3879V2.04375H53.3879ZM52.8879 0.294998H51.9598V1.295H52.8879V0.294998ZM50.1035 0.294998H48.2473V1.295H50.1035V0.294998ZM46.391 0.294998H44.5348V1.295H46.391V0.294998ZM42.6785 0.294998H40.8223V1.295H42.6785V0.294998ZM38.966 0.294998H37.1098V1.295H38.966V0.294998ZM35.2535 0.294998H33.3973V1.295H35.2535V0.294998ZM31.541 0.294998H30.6129V1.295H31.541V0.294998ZM30.6129 0.794998V-0.205002H29.6129V0.794998H30.6129ZM52.8879 0.794998H53.8879V-0.205002H52.8879V0.794998ZM52.8879 5.79V6.79H53.8879V5.79H52.8879ZM37.6329 5.79V4.79H36.6329V5.79H37.6329ZM37.6329 12.495H36.6329V13.495H37.6329V12.495ZM51.4029 12.495H52.4029V11.495H51.4029V12.495ZM51.4029 17.49V18.49H52.4029V17.49H51.4029ZM37.6329 17.49V16.49H36.6329V17.49H37.6329ZM37.6329 25.005H36.6329V26.005H37.6329V25.005ZM53.3379 25.005H54.3379V24.005H53.3379V25.005ZM53.3379 30V31H54.3379V30H53.3379ZM30.6129 30H29.6129V31H30.6129V30ZM29.6129 0.794998V1.83803H31.6129V0.794998H29.6129ZM29.6129 3.9241V6.01018H31.6129V3.9241H29.6129ZM29.6129 8.09625V10.1823H31.6129V8.09625H29.6129ZM29.6129 12.2684V14.3545H31.6129V12.2684H29.6129ZM29.6129 16.4405V18.5266H31.6129V16.4405H29.6129ZM29.6129 20.6127V22.6987H31.6129V20.6127H29.6129ZM29.6129 24.7848V26.8709H31.6129V24.7848H29.6129ZM29.6129 28.957V30H31.6129V28.957H29.6129ZM30.6129 31H31.5598V29H30.6129V31ZM33.4535 31H35.3473V29H33.4535V31ZM37.241 31H39.1348V29H37.241V31ZM41.0285 31H42.9223V29H41.0285V31ZM44.816 31H46.7098V29H44.816V31ZM48.6035 31H50.4973V29H48.6035V31ZM52.391 31H53.3379V29H52.391V31ZM54.3379 30V28.7513H52.3379V30H54.3379ZM54.3379 26.2537V25.005H52.3379V26.2537H54.3379ZM53.3379 24.005H52.3563V26.005H53.3379V24.005ZM50.3932 24.005H48.4301V26.005H50.3932V24.005ZM46.467 24.005H44.5038V26.005H46.467V24.005ZM42.5407 24.005H40.5776V26.005H42.5407V24.005ZM38.6145 24.005H37.6329V26.005H38.6145V24.005ZM38.6329 25.005V24.0656H36.6329V25.005H38.6329ZM38.6329 22.1869V20.3081H36.6329V22.1869H38.6329ZM38.6329 18.4294V17.49H36.6329V18.4294H38.6329ZM37.6329 18.49H38.7804V16.49H37.6329V18.49ZM41.0754 18.49H43.3704V16.49H41.0754V18.49ZM45.6654 18.49H47.9604V16.49H45.6654V18.49ZM50.2554 18.49H51.4029V16.49H50.2554V18.49ZM52.4029 17.49V16.2412H50.4029V17.49H52.4029ZM52.4029 13.7437V12.495H50.4029V13.7437H52.4029ZM51.4029 11.495H50.2554V13.495H51.4029V11.495ZM47.9604 11.495H45.6654V13.495H47.9604V11.495ZM43.3704 11.495H41.0754V13.495H43.3704V11.495ZM38.7804 11.495H37.6329V13.495H38.7804V11.495ZM38.6329 12.495V11.6569H36.6329V12.495H38.6329ZM38.6329 9.98062V8.30437H36.6329V9.98062H38.6329ZM38.6329 6.62812V5.79H36.6329V6.62812H38.6329ZM37.6329 6.79H38.5863V4.79H37.6329V6.79ZM40.4932 6.79H42.4001V4.79H40.4932V6.79ZM44.307 6.79H46.2138V4.79H44.307V6.79ZM48.1207 6.79H50.0276V4.79H48.1207V6.79ZM51.9345 6.79H52.8879V4.79H51.9345V6.79ZM53.8879 5.79V4.54125H51.8879V5.79H53.8879ZM53.8879 2.04375V0.794998H51.8879V2.04375H53.8879ZM52.8879 -0.205002H51.9598V1.795H52.8879V-0.205002ZM50.1035 -0.205002H48.2473V1.795H50.1035V-0.205002ZM46.391 -0.205002H44.5348V1.795H46.391V-0.205002ZM42.6785 -0.205002H40.8223V1.795H42.6785V-0.205002ZM38.966 -0.205002H37.1098V1.795H38.966V-0.205002ZM35.2535 -0.205002H33.3973V1.795H35.2535V-0.205002ZM31.541 -0.205002H30.6129V1.795H31.541V-0.205002ZM58.5287 29.46H58.0287V29.8645L58.4243 29.949L58.5287 29.46ZM58.5287 24.15L58.6401 23.6626L58.0287 23.5228V24.15H58.5287ZM63.7037 25.185L63.6268 25.6792L63.6376 25.6806L63.7037 25.185ZM72.8387 24.78L73.0685 25.2243L73.0803 25.2178L72.8387 24.78ZM72.7487 17.895L72.605 18.3739L72.6093 18.3752L72.7487 17.895ZM62.6237 17.49H62.1237V17.99H62.6237V17.49ZM62.6237 12.495V11.995H62.1237V12.495H62.6237ZM71.3987 12.225L71.5303 12.7074L71.3987 12.225ZM72.7487 11.46L73.1531 11.7541L73.1591 11.7458L73.1647 11.7373L72.7487 11.46ZM72.0287 5.79L72.221 5.32846L72.221 5.32846L72.0287 5.79ZM59.1137 6.645H58.6137V7.28406L59.234 7.13031L59.1137 6.645ZM59.1137 1.38L59.0211 0.888654L58.6137 0.965453V1.38H59.1137ZM77.6087 1.65L77.3788 2.09404L77.3851 2.09721L77.6087 1.65ZM79.2287 13.035L79.5909 13.3799L79.5987 13.3713L79.2287 13.035ZM77.0687 14.295L76.9474 13.8099L76.5687 13.9046V14.295H77.0687ZM77.0687 14.43H76.5687V14.8071L76.9314 14.9108L77.0687 14.43ZM78.1037 28.74L78.3504 29.1749L78.3525 29.1737L78.1037 28.74ZM69.1937 29.95C68.895 29.95 68.5989 29.9482 68.3055 29.9445L68.293 30.9444C68.5907 30.9481 68.8909 30.95 69.1937 30.95V29.95ZM66.5313 29.8987C65.9291 29.8749 65.3389 29.8427 64.7607 29.8023L64.6909 30.7998C65.2796 30.841 65.8798 30.8737 66.4917 30.8979L66.5313 29.8987ZM62.9961 29.6492C62.3967 29.5867 61.8115 29.5146 61.2404 29.4327L61.0985 30.4226C61.6829 30.5063 62.2808 30.5801 62.8924 30.6438L62.9961 29.6492ZM59.4979 29.1447C59.2055 29.0896 58.9173 29.0317 58.6332 28.971L58.4243 29.949C58.7165 30.0114 59.0127 30.0709 59.3128 30.1274L59.4979 29.1447ZM59.0287 29.46V28.1325H58.0287V29.46H59.0287ZM59.0287 25.4775V24.15H58.0287V25.4775H59.0287ZM58.4173 24.6374C58.8651 24.7398 59.2962 24.8361 59.7104 24.9263L59.9232 23.9492C59.5126 23.8598 59.0849 23.7642 58.6401 23.6626L58.4173 24.6374ZM62.3126 25.4542C62.7829 25.5409 63.2211 25.6159 63.6269 25.6791L63.7806 24.6909C63.3854 24.6295 62.9566 24.5561 62.494 24.4708L62.3126 25.4542ZM63.6376 25.6806C64.002 25.7292 64.3746 25.7713 64.7553 25.8069L64.8485 24.8113C64.4803 24.7768 64.1207 24.7362 63.7698 24.6894L63.6376 25.6806ZM66.9946 25.9398C67.3611 25.9499 67.7341 25.955 68.1137 25.955V24.955C67.743 24.955 67.3792 24.9501 67.0222 24.9402L66.9946 25.9398ZM68.1137 25.955C68.545 25.955 68.9526 25.9471 69.3365 25.9311L69.295 24.932C68.9265 24.9473 68.5328 24.955 68.1137 24.955V25.955ZM71.8095 25.6503C72.2969 25.5434 72.7207 25.404 73.0684 25.2241L72.609 24.3359C72.3632 24.463 72.0294 24.5783 71.5951 24.6736L71.8095 25.6503ZM73.0803 25.2178C73.3236 25.0835 73.5432 24.9277 73.7361 24.7487L73.0558 24.0157C72.9285 24.1338 72.7767 24.2432 72.5972 24.3422L73.0803 25.2178ZM74.5572 23.3238C74.6158 23.0711 74.6437 22.8059 74.6437 22.53H73.6437C73.6437 22.7385 73.6226 22.9273 73.583 23.0981L74.5572 23.3238ZM74.6437 22.53V21.8213H73.6437V22.53H74.6437ZM74.6437 20.4037V19.695H73.6437V20.4037H74.6437ZM74.6437 19.695C74.6437 19.4324 74.6123 19.181 74.5439 18.9444L73.5832 19.2219C73.6217 19.3553 73.6437 19.5118 73.6437 19.695H74.6437ZM73.572 17.7038C73.3656 17.582 73.1363 17.4869 72.8881 17.4148L72.6093 18.3752C72.7901 18.4277 72.9402 18.4921 73.0638 18.5651L73.572 17.7038ZM72.8924 17.4161C72.5661 17.3182 72.1861 17.2395 71.7566 17.1775L71.6137 18.1672C72.0101 18.2244 72.3392 18.2941 72.605 18.3739L72.8924 17.4161ZM69.5315 17.0054C69.1835 16.9951 68.8159 16.99 68.4287 16.99V17.99C68.8072 17.99 69.165 17.995 69.502 18.0049L69.5315 17.0054ZM68.4287 16.99H66.9775V17.99H68.4287V16.99ZM64.075 16.99H62.6237V17.99H64.075V16.99ZM63.1237 17.49V16.2412H62.1237V17.49H63.1237ZM63.1237 13.7437V12.495H62.1237V13.7437H63.1237ZM62.6237 12.995H64.075V11.995H62.6237V12.995ZM66.9775 12.995H68.4287V11.995H66.9775V12.995ZM68.4287 12.995C68.6954 12.995 68.9496 12.9914 69.1913 12.9841L69.1613 11.9846C68.9306 11.9915 68.6865 11.995 68.4287 11.995V12.995ZM70.7358 12.8649C71.0289 12.8237 71.2946 12.7717 71.5303 12.7074L71.2672 11.7426C71.0816 11.7932 70.8589 11.8378 70.5964 11.8747L70.7358 12.8649ZM71.5303 12.7074C71.6766 12.6675 71.8157 12.6236 71.9473 12.5754L71.6033 11.6364C71.5012 11.6738 71.3893 11.7093 71.2672 11.7426L71.5303 12.7074ZM72.778 12.1353C72.9219 12.0239 73.0488 11.8974 73.1531 11.7541L72.3443 11.1659C72.3028 11.223 72.2452 11.2831 72.1659 11.3445L72.778 12.1353ZM73.1647 11.7373C73.2579 11.5976 73.3345 11.4452 73.3961 11.2827L72.4611 10.9282C72.4233 11.0277 72.38 11.1117 72.3327 11.1826L73.1647 11.7373ZM73.5909 10.3704C73.6029 10.229 73.6087 10.0821 73.6087 9.93H72.6087C72.6087 10.0567 72.6038 10.1752 72.5944 10.2858L73.5909 10.3704ZM73.6087 9.93V9.35625H72.6087V9.93H73.6087ZM73.6087 8.20875V7.635H72.6087V8.20875H73.6087ZM73.6087 7.635C73.6087 7.40237 73.5889 7.17979 73.5467 6.96898L72.5662 7.16518C72.5937 7.30251 72.6087 7.45853 72.6087 7.635H73.6087ZM72.8422 5.70777C72.6599 5.54985 72.4512 5.42437 72.221 5.32846L71.8364 6.25154C71.9783 6.31065 72.0935 6.38225 72.1872 6.46346L72.8422 5.70777ZM72.221 5.32846C71.9267 5.20584 71.5697 5.11204 71.1607 5.04052L70.9884 6.02557C71.3548 6.08964 71.6339 6.16714 71.8364 6.25154L72.221 5.32846ZM69.1204 4.85571C68.8043 4.84521 68.4687 4.84 68.1137 4.84V5.84C68.459 5.84 68.7834 5.84508 69.0872 5.85516L69.1204 4.85571ZM68.1137 4.84C67.7367 4.84 67.349 4.84974 66.9507 4.86916L66.9994 5.86797C67.3825 5.8493 67.7539 5.84 68.1137 5.84V4.84ZM64.6436 5.07416C63.9139 5.16554 63.154 5.28357 62.3641 5.42809L62.5441 6.41176C63.3172 6.27031 64.0585 6.15524 64.7679 6.06641L64.6436 5.07416ZM60.1112 5.89332C59.7443 5.97713 59.3717 6.06592 58.9934 6.15968L59.234 7.13031C59.6066 7.03797 59.9732 6.9506 60.3339 6.8682L60.1112 5.89332ZM59.6137 6.645V5.32875H58.6137V6.645H59.6137ZM59.6137 2.69625V1.38H58.6137V2.69625H59.6137ZM59.2063 1.87134C59.4892 1.81802 59.7706 1.76678 60.0507 1.71762L59.8778 0.73268C59.5936 0.782573 59.308 0.834564 59.0211 0.888654L59.2063 1.87134ZM61.7439 1.44325C62.3163 1.35837 62.8827 1.28253 63.443 1.21574L63.3246 0.222772C62.7546 0.29072 62.1788 0.36782 61.5972 0.454062L61.7439 1.44325ZM65.1469 1.03882C65.7228 0.988075 66.2921 0.947306 66.8546 0.916499L66.7999 -0.0820045C66.2261 -0.0505781 65.6458 -0.00901222 65.0591 0.0426798L65.1469 1.03882ZM68.564 0.85314C68.8507 0.847712 69.1356 0.844998 69.4187 0.844998V-0.155002C69.1292 -0.155002 68.838 -0.152227 68.5451 -0.146681L68.564 0.85314ZM69.4187 0.844998C69.7729 0.844998 70.1175 0.848857 70.4524 0.85656L70.4754 -0.143176C70.1324 -0.151065 69.7801 -0.155002 69.4187 -0.155002V0.844998ZM72.5103 0.961939C73.2483 1.02347 73.9238 1.10904 74.5375 1.21804L74.7124 0.233455C74.0636 0.118212 73.357 0.0290604 72.5934 -0.0346041L72.5103 0.961939ZM76.4825 1.71128C76.8147 1.82854 77.1131 1.9564 77.3788 2.094L77.8386 1.206C77.5266 1.04439 77.1851 0.898778 76.8153 0.768286L76.4825 1.71128ZM77.3851 2.09721C77.7704 2.28988 78.1006 2.51558 78.3795 2.77234L79.0569 2.0367C78.7026 1.71054 78.2932 1.43322 77.8323 1.20278L77.3851 2.09721ZM79.5086 4.82576C79.5878 5.20078 79.6287 5.61164 79.6287 6.06H80.6287C80.6287 5.55122 80.5824 5.07038 80.4871 4.61913L79.5086 4.82576ZM79.6287 6.06V7.23H80.6287V6.06H79.6287ZM79.6287 9.57V10.74H80.6287V9.57H79.6287ZM79.6287 10.74C79.6287 10.9272 79.6127 11.1065 79.5814 11.2785L80.5653 11.4575C80.6078 11.2238 80.6287 10.9844 80.6287 10.74H79.6287ZM79.1917 12.2659C79.0973 12.4137 78.9867 12.558 78.8587 12.6987L79.5987 13.3713C79.7625 13.1912 79.908 13.0022 80.0345 12.8042L79.1917 12.2659ZM78.8666 12.6902C78.7336 12.8298 78.5948 12.9572 78.4503 13.0726L79.0741 13.8541C79.2552 13.7096 79.4274 13.5513 79.5908 13.3798L78.8666 12.6902ZM77.4846 13.6363C77.313 13.7053 77.1341 13.7633 76.9474 13.8099L77.19 14.7801C77.4198 14.7226 77.6426 14.6506 77.858 14.5639L77.4846 13.6363ZM76.5687 14.295V14.3287H77.5687V14.295H76.5687ZM76.5687 14.3962V14.43H77.5687V14.3962H76.5687ZM76.9314 14.9108C77.1905 14.9848 77.4354 15.0648 77.6661 15.1505L78.0144 14.2131C77.7576 14.1177 77.4881 14.0298 77.2061 13.9492L76.9314 14.9108ZM79.0163 15.8176C79.4594 16.1098 79.8043 16.4369 80.0609 16.7955L80.8742 16.2137C80.5369 15.7421 80.0978 15.3329 79.5668 14.9828L79.0163 15.8176ZM80.6008 18.0783C80.6424 18.3037 80.6637 18.5424 80.6637 18.795H81.6637C81.6637 18.4859 81.6376 18.1863 81.5842 17.897L80.6008 18.0783ZM80.6637 18.795V19.9762H81.6637V18.795H80.6637ZM80.6637 22.3387V23.52H81.6637V22.3387H80.6637ZM80.6637 23.52C80.6637 23.7757 80.6504 24.0224 80.624 24.2603L81.6179 24.3705C81.6486 24.0941 81.6637 23.8105 81.6637 23.52H80.6637ZM80.2777 25.6715C80.0978 26.1193 79.8548 26.5314 79.5472 26.9091L80.3227 27.5405C80.6933 27.0853 80.988 26.5861 81.2057 26.0442L80.2777 25.6715ZM78.4809 27.9037C78.2863 28.0442 78.0777 28.1785 77.855 28.3063L78.3525 29.1737C78.6039 29.0295 78.842 28.8764 79.0665 28.7142L78.4809 27.9037ZM77.857 28.3051C77.5572 28.4752 77.2324 28.6329 76.8823 28.778L77.265 29.7019C77.65 29.5424 78.0119 29.3669 78.3504 29.1749L77.857 28.3051ZM74.7778 29.4271C74.1018 29.5781 73.3666 29.6969 72.5718 29.7828L72.6793 30.777C73.5061 30.6876 74.2785 30.5632 74.9957 30.4031L74.7778 29.4271ZM70.3246 29.9333C69.9574 29.9444 69.5805 29.95 69.1937 29.95V30.95C69.5901 30.95 69.9772 30.9443 70.355 30.9328L70.3246 29.9333ZM58.5287 29.46H57.5287V30.269L58.3198 30.4379L58.5287 29.46ZM58.5287 24.15L58.7515 23.1751L57.5287 22.8956V24.15H58.5287ZM63.7037 25.185L63.55 26.1731L63.5608 26.1748L63.5715 26.1762L63.7037 25.185ZM72.8387 24.78L73.2981 25.6682L73.31 25.6621L73.3218 25.6556L72.8387 24.78ZM72.7487 17.895L72.4613 18.8529L72.4699 18.8553L72.7487 17.895ZM62.6237 17.49H61.6237V18.49H62.6237V17.49ZM62.6237 12.495V11.495H61.6237V12.495H62.6237ZM71.3987 12.225L71.6618 13.1898L71.3987 12.225ZM72.7487 11.46L73.5574 12.0482L73.5695 12.0317L73.5808 12.0147L72.7487 11.46ZM72.0287 5.79L72.4133 4.86692V4.86692L72.0287 5.79ZM59.1137 6.645H58.1137V7.92312L59.3543 7.61563L59.1137 6.645ZM59.1137 1.38L58.9285 0.397309L58.1137 0.550907V1.38H59.1137ZM77.6087 1.65L77.1489 2.53799L77.1552 2.54125L77.1615 2.54443L77.6087 1.65ZM79.2287 13.035L79.9529 13.7247L79.9608 13.7163L79.9687 13.7077L79.2287 13.035ZM77.0687 14.295L76.8262 13.3249L76.0687 13.5142V14.295H77.0687ZM77.0687 14.43H76.0687V15.1843L76.794 15.3915L77.0687 14.43ZM78.1037 28.74L78.5971 29.6098L78.6012 29.6075L78.1037 28.74ZM69.1937 29.45C68.897 29.45 68.603 29.4482 68.3117 29.4445L68.2867 31.4444C68.5865 31.4481 68.8888 31.45 69.1937 31.45V29.45ZM66.5511 29.3991C65.9537 29.3755 65.3686 29.3436 64.7956 29.3035L64.656 31.2986C65.2499 31.3402 65.8552 31.3731 66.472 31.3976L66.5511 29.3991ZM63.048 29.1519C62.4547 29.0901 61.8759 29.0187 61.3114 28.9377L61.0276 30.9175C61.6185 31.0022 62.2229 31.0767 62.8406 31.1411L63.048 29.1519ZM59.5905 28.6533C59.302 28.599 59.0177 28.5419 58.7376 28.4821L58.3198 30.4379C58.6161 30.5012 58.9162 30.5615 59.2202 30.6188L59.5905 28.6533ZM59.5287 29.46V28.1325H57.5287V29.46H59.5287ZM59.5287 25.4775V24.15H57.5287V25.4775H59.5287ZM58.3059 25.1249C58.7552 25.2276 59.1879 25.3242 59.604 25.4148L60.0296 23.4606C59.6208 23.3716 59.1948 23.2765 58.7515 23.1751L58.3059 25.1249ZM62.2219 25.9459C62.6961 26.0334 63.1389 26.1092 63.55 26.1731L63.8574 24.1969C63.4676 24.1362 63.0435 24.0637 62.5847 23.9791L62.2219 25.9459ZM63.5715 26.1762C63.9427 26.2257 64.3218 26.2685 64.7087 26.3048L64.8951 24.3135C64.5331 24.2796 64.18 24.2397 63.8359 24.1938L63.5715 26.1762ZM66.9807 26.4396C67.352 26.4499 67.7297 26.455 68.1137 26.455V24.455C67.7475 24.455 67.3883 24.4501 67.0361 24.4404L66.9807 26.4396ZM68.1137 26.455C68.551 26.455 68.9657 26.447 69.3573 26.4307L69.2742 24.4324C68.9135 24.4474 68.5268 24.455 68.1137 24.455V26.455ZM71.9167 26.1387C72.4307 26.0259 72.8994 25.8745 73.2981 25.6682L72.3793 23.8918C72.1845 23.9925 71.8956 24.0957 71.4879 24.1852L71.9167 26.1387ZM73.3218 25.6556C73.5971 25.5037 73.8505 25.3246 74.0762 25.1152L72.7157 23.6493C72.6212 23.7369 72.5032 23.823 72.3556 23.9044L73.3218 25.6556ZM75.0443 23.4366C75.1124 23.143 75.1437 22.8396 75.1437 22.53H73.1437C73.1437 22.7048 73.126 22.8554 73.0959 22.9853L75.0443 23.4366ZM75.1437 22.53V21.8213H73.1437V22.53H75.1437ZM75.1437 20.4037V19.695H73.1437V20.4037H75.1437ZM75.1437 19.695C75.1437 19.3927 75.1075 19.0938 75.0243 18.8057L73.1028 19.3606C73.1265 19.4425 73.1437 19.5515 73.1437 19.695H75.1437ZM73.8261 17.2732C73.5784 17.127 73.3094 17.0165 73.0275 16.9347L72.4699 18.8553C72.617 18.898 72.7275 18.9471 72.8097 18.9957L73.8261 17.2732ZM73.0361 16.9372C72.6796 16.8302 72.2742 16.747 71.828 16.6826L71.5423 18.6621C71.9221 18.7169 72.2257 18.7821 72.4614 18.8528L73.0361 16.9372ZM69.5462 16.5056C69.1928 16.4952 68.8203 16.49 68.4287 16.49V18.49C68.8029 18.49 69.1557 18.4949 69.4873 18.5047L69.5462 16.5056ZM68.4287 16.49H66.9775V18.49H68.4287V16.49ZM64.075 16.49H62.6237V18.49H64.075V16.49ZM63.6237 17.49V16.2412H61.6237V17.49H63.6237ZM63.6237 13.7437V12.495H61.6237V13.7437H63.6237ZM62.6237 13.495H64.075V11.495H62.6237V13.495ZM66.9775 13.495H68.4287V11.495H66.9775V13.495ZM68.4287 13.495C68.6999 13.495 68.9592 13.4913 69.2064 13.4839L69.1462 11.4848C68.9211 11.4916 68.682 11.495 68.4287 11.495V13.495ZM70.8055 13.3601C71.1139 13.3166 71.401 13.2609 71.6618 13.1898L71.1356 11.2602C70.9752 11.304 70.7738 11.3448 70.5267 11.3796L70.8055 13.3601ZM71.6618 13.1898C71.8202 13.1466 71.973 13.0984 72.1193 13.0448L71.4313 11.1669C71.3439 11.1989 71.2456 11.2302 71.1356 11.2602L71.6618 13.1898ZM73.084 12.5307C73.2602 12.3943 73.4218 12.2347 73.5574 12.0482L71.94 10.8718C71.9298 10.8858 71.9069 10.9127 71.8599 10.9491L73.084 12.5307ZM73.5808 12.0147C73.6969 11.8405 73.7901 11.654 73.8636 11.4599L71.9935 10.7509C71.9677 10.819 71.941 10.8688 71.9167 10.9053L73.5808 12.0147ZM74.0891 10.4128C74.1024 10.2559 74.1087 10.0948 74.1087 9.93H72.1087C72.1087 10.044 72.1043 10.1483 72.0962 10.2435L74.0891 10.4128ZM74.1087 9.93V9.35625H72.1087V9.93H74.1087ZM74.1087 8.20875V7.635H72.1087V8.20875H74.1087ZM74.1087 7.635C74.1087 7.37429 74.0866 7.11843 74.037 6.87088L72.0759 7.26328C72.096 7.36387 72.1087 7.48661 72.1087 7.635H74.1087ZM73.1696 5.32993C72.9431 5.13365 72.6877 4.98122 72.4133 4.86692L71.6441 6.71307C71.7418 6.75379 71.8103 6.79845 71.8598 6.84131L73.1696 5.32993ZM72.4133 4.86692C72.0732 4.72519 71.6771 4.62325 71.2468 4.54799L70.9023 6.5181C71.2473 6.57843 71.4874 6.64779 71.6441 6.71308L72.4133 4.86692ZM69.137 4.35599C68.8147 4.34529 68.4735 4.34 68.1137 4.34V6.34C68.4541 6.34 68.773 6.34501 69.0706 6.35489L69.137 4.35599ZM68.1137 4.34C67.7281 4.34 67.3323 4.34996 66.9264 4.36975L67.0237 6.36738C67.3992 6.34908 67.7625 6.34 68.1137 6.34V4.34ZM64.5815 4.57804C63.8416 4.67068 63.0724 4.7902 62.2741 4.93626L62.6341 6.9036C63.3988 6.76368 64.1308 6.6501 64.83 6.56254L64.5815 4.57804ZM59.9998 5.40587C59.6299 5.49039 59.2543 5.57989 58.8731 5.67437L59.3543 7.61563C59.724 7.52399 60.0876 7.43733 60.4452 7.35564L59.9998 5.40587ZM60.1137 6.645V5.32875H58.1137V6.645H60.1137ZM60.1137 2.69625V1.38H58.1137V2.69625H60.1137ZM59.299 2.36269C59.5798 2.30975 59.8592 2.25888 60.1371 2.21009L59.7914 0.24021C59.505 0.290468 59.2174 0.342835 58.9285 0.397309L59.299 2.36269ZM61.8172 1.93784C62.3851 1.85364 62.9467 1.77844 63.5022 1.71223L63.2654 -0.273713C62.6906 -0.205188 62.1101 -0.127453 61.5239 -0.0405293L61.8172 1.93784ZM65.1908 1.53689C65.7614 1.48662 66.3251 1.44625 66.882 1.41575L66.7726 -0.581257C66.1931 -0.54952 65.6073 -0.507555 65.0153 -0.45539L65.1908 1.53689ZM68.5735 1.35305C68.8571 1.34768 69.1388 1.345 69.4187 1.345V-0.655002C69.1261 -0.655002 68.8317 -0.652197 68.5356 -0.646591L68.5735 1.35305ZM69.4187 1.345C69.7693 1.345 70.11 1.34882 70.4409 1.35643L70.4869 -0.643044C70.1398 -0.651025 69.7838 -0.655002 69.4187 -0.655002V1.345ZM72.4688 1.46021C73.194 1.52067 73.8539 1.60445 74.4501 1.71034L74.7999 -0.258841C74.1335 -0.3772 73.4114 -0.468143 72.635 -0.532875L72.4688 1.46021ZM76.3161 2.18277C76.6296 2.29341 76.9063 2.4124 77.1489 2.53799L78.0686 0.762003C77.7333 0.588388 77.3702 0.4339 76.9817 0.296791L76.3161 2.18277ZM77.1615 2.54443C77.5091 2.71821 77.7996 2.9181 78.0408 3.14017L79.3955 1.66887C79.0036 1.30801 78.5546 1.00489 78.0559 0.75557L77.1615 2.54443ZM79.0194 4.92908C79.0906 5.26597 79.1287 5.64184 79.1287 6.06H81.1287C81.1287 5.52102 81.0796 5.00519 80.9763 4.51582L79.0194 4.92908ZM79.1287 6.06V7.23H81.1287V6.06H79.1287ZM79.1287 9.57V10.74H81.1287V9.57H79.1287ZM79.1287 10.74C79.1287 10.8985 79.1152 11.0479 79.0895 11.189L81.0572 11.5471C81.1053 11.2824 81.1287 11.0131 81.1287 10.74H79.1287ZM78.7703 11.9968C78.692 12.1194 78.5988 12.2413 78.4888 12.3623L79.9687 13.7077C80.1504 13.5078 80.3134 13.2965 80.4558 13.0734L78.7703 11.9968ZM78.5046 12.3453C78.3867 12.4691 78.2646 12.581 78.1383 12.6818L79.3861 14.2449C79.5854 14.0857 79.7743 13.9121 79.9529 13.7247L78.5046 12.3453ZM77.298 13.1724C77.1483 13.2327 76.9912 13.2836 76.8262 13.3249L77.3112 15.2651C77.5627 15.2023 77.8074 15.1233 78.0447 15.0278L77.298 13.1724ZM76.0687 14.295V14.3287H78.0687V14.295H76.0687ZM76.0687 14.3962V14.43H78.0687V14.3962H76.0687ZM76.794 15.3915C77.0418 15.4623 77.2743 15.5383 77.492 15.6192L78.1885 13.7444C77.9187 13.6442 77.6368 13.5523 77.3434 13.4685L76.794 15.3915ZM78.7411 16.235C79.1402 16.4982 79.4381 16.7842 79.6543 17.0864L81.2809 15.9228C80.9031 15.3947 80.417 14.9445 79.8421 14.5654L78.7411 16.235ZM80.1091 18.169C80.1448 18.3624 80.1637 18.5706 80.1637 18.795H82.1637C82.1637 18.4577 82.1352 18.1277 82.0759 17.8063L80.1091 18.169ZM80.1637 18.795V19.9762H82.1637V18.795H80.1637ZM80.1637 22.3387V23.52H82.1637V22.3387H80.1637ZM80.1637 23.52C80.1637 23.7583 80.1513 23.9866 80.127 24.2052L82.1149 24.4256C82.1476 24.1299 82.1637 23.8279 82.1637 23.52H80.1637ZM79.8137 25.4852C79.6528 25.8859 79.4355 26.2544 79.1595 26.5933L80.7104 27.8562C81.1126 27.3622 81.4331 26.8194 81.6696 26.2305L79.8137 25.4852ZM78.1881 27.4984C78.0084 27.6281 77.8147 27.753 77.6062 27.8725L78.6012 29.6075C78.8669 29.4551 79.1198 29.2925 79.3593 29.1195L78.1881 27.4984ZM77.6104 27.8702C77.3298 28.0293 77.0237 28.1782 76.6909 28.3161L77.4564 30.1638C77.8587 29.9971 78.2393 29.8127 78.5971 29.6098L77.6104 27.8702ZM74.6689 28.9391C74.0134 29.0855 73.2969 29.2015 72.518 29.2857L72.733 31.2741C73.5759 31.183 74.3669 31.0558 75.1046 30.8911L74.6689 28.9391ZM70.3094 29.4335C69.9475 29.4445 69.5756 29.45 69.1937 29.45V31.45C69.5949 31.45 69.987 31.4442 70.3701 31.4326L70.3094 29.4335ZM88.5578 30H88.0578V30.4115L88.4616 30.4907L88.5578 30ZM88.5578 24.87L88.6736 24.3836L88.0578 24.237V24.87H88.5578ZM90.4028 25.275L90.3047 25.7653L90.3092 25.7662L90.4028 25.275ZM94.3178 24.87L94.6001 25.2827L94.6045 25.2796L94.3178 24.87ZM95.8478 22.98L96.295 23.2036L96.298 23.1974L95.8478 22.98ZM96.4778 21.675L96.928 21.8924L97.0392 21.6621L96.9175 21.4371L96.4778 21.675ZM85.1828 0.794998V0.294998H84.3438L84.743 1.0329L85.1828 0.794998ZM92.5178 0.794998L92.965 0.571391L92.8268 0.294998H92.5178V0.794998ZM99.8528 15.465L99.4056 15.6886L99.5438 15.965H99.8528V15.465ZM100.033 15.465V15.965H100.373L100.498 15.649L100.033 15.465ZM105.838 0.794998V0.294998H105.498L105.373 0.611025L105.838 0.794998ZM112.903 0.794998L113.359 1.00058L113.677 0.294998H112.903V0.794998ZM102.328 24.24L101.872 24.0344L101.871 24.0369L102.328 24.24ZM98.6828 28.965L98.4035 28.5503L98.6828 28.965ZM92.4728 29.95C92.1759 29.95 91.8593 29.9382 91.5226 29.9142L91.4516 30.9117C91.8091 30.9371 92.1496 30.95 92.4728 30.95V29.95ZM89.6095 29.6818C89.3021 29.6314 88.9836 29.574 88.654 29.5093L88.4616 30.4907C88.8007 30.5572 89.1295 30.6165 89.4479 30.6686L89.6095 29.6818ZM89.0578 30V28.7175H88.0578V30H89.0578ZM89.0578 26.1525V24.87H88.0578V26.1525H89.0578ZM88.442 25.3564C88.5975 25.3934 88.7522 25.4296 88.906 25.4648L89.1293 24.4901C88.9783 24.4555 88.8264 24.42 88.6736 24.3836L88.442 25.3564ZM89.8374 25.6694C89.9941 25.7024 90.1499 25.7343 90.3047 25.7653L90.5008 24.7847C90.3492 24.7544 90.1966 24.7231 90.043 24.6908L89.8374 25.6694ZM90.3092 25.7662C90.4663 25.7961 90.6219 25.8225 90.7759 25.8453L90.9227 24.8562C90.7825 24.8354 90.6404 24.8113 90.4963 24.7838L90.3092 25.7662ZM91.7234 25.942C91.885 25.9507 92.0448 25.955 92.2028 25.955V24.955C92.0631 24.955 91.9211 24.9512 91.7768 24.9434L91.7234 25.942ZM92.2028 25.955C92.4129 25.955 92.6173 25.9438 92.8158 25.921L92.7018 24.9276C92.5437 24.9457 92.3775 24.955 92.2028 24.955V25.955ZM94.0352 25.5977C94.2339 25.5093 94.4224 25.4043 94.6001 25.2827L94.0354 24.4573C93.9085 24.5442 93.773 24.6198 93.6286 24.6841L94.0352 25.5977ZM94.6045 25.2796C94.7915 25.1487 94.9694 25.0009 95.1383 24.8369L94.4416 24.1195C94.3092 24.2481 94.1723 24.3615 94.031 24.4604L94.6045 25.2796ZM95.9749 23.7797C96.0873 23.5978 96.1939 23.4057 96.295 23.2036L95.4006 22.7564C95.312 22.9336 95.2198 23.0993 95.1243 23.2539L95.9749 23.7797ZM96.298 23.1974L96.4556 22.8711L95.555 22.4364L95.3975 22.7626L96.298 23.1974ZM96.7706 22.2186L96.928 21.8924L96.0275 21.4576L95.87 21.7839L96.7706 22.2186ZM96.9175 21.4371L96.4469 20.5671L95.5674 21.0429L96.038 21.9129L96.9175 21.4371ZM95.5057 18.8271L94.5644 17.0871L93.6849 17.5629L94.6261 19.3029L95.5057 18.8271ZM93.6232 15.3471L92.6819 13.6071L91.8024 14.0829L92.7436 15.8229L93.6232 15.3471ZM91.7407 11.8671L90.7994 10.1271L89.9199 10.6029L90.8611 12.3429L91.7407 11.8671ZM89.8582 8.3871L88.9169 6.6471L88.0374 7.1229L88.9786 8.8629L89.8582 8.3871ZM87.9757 4.9071L87.0344 3.1671L86.1549 3.6429L87.0961 5.3829L87.9757 4.9071ZM86.0932 1.4271L85.6226 0.5571L84.743 1.0329L85.2136 1.9029L86.0932 1.4271ZM85.1828 1.295H86.0996V0.294998H85.1828V1.295ZM87.9334 1.295H89.7672V0.294998H87.9334V1.295ZM91.6009 1.295H92.5178V0.294998H91.6009V1.295ZM92.0706 1.0186L92.529 1.93548L93.4234 1.48827L92.965 0.571391L92.0706 1.0186ZM93.4459 3.76923L94.3627 5.60298L95.2572 5.15577L94.3403 3.32202L93.4459 3.76923ZM95.2796 7.43673L96.1965 9.27048L97.0909 8.82327L96.174 6.98952L95.2796 7.43673ZM97.1134 11.1042L98.0303 12.938L98.9247 12.4908L98.0078 10.657L97.1134 11.1042ZM98.9471 14.7717L99.4056 15.6886L100.3 15.2414L99.8416 14.3245L98.9471 14.7717ZM99.8528 15.965H99.8978V14.965H99.8528V15.965ZM99.9878 15.965H100.033V14.965H99.9878V15.965ZM100.498 15.649L100.861 14.7321L99.9307 14.3642L99.5678 15.281L100.498 15.649ZM101.586 12.8983L102.312 11.0646L101.382 10.6967L100.656 12.5304L101.586 12.8983ZM103.037 9.23085L103.763 7.3971L102.833 7.02915L102.108 8.8629L103.037 9.23085ZM104.489 5.56335L105.214 3.7296L104.284 3.36165L103.559 5.1954L104.489 5.56335ZM105.94 1.89585L106.303 0.978971L105.373 0.611025L105.01 1.5279L105.94 1.89585ZM105.838 1.295H106.721V0.294998H105.838V1.295ZM108.487 1.295H110.253V0.294998H108.487V1.295ZM112.02 1.295H112.903V0.294998H112.02V1.295ZM112.447 0.589416L112.006 1.56629L112.918 1.97746L113.359 1.00058L112.447 0.589416ZM111.125 3.52004L110.244 5.47379L111.155 5.88496L112.037 3.93121L111.125 3.52004ZM109.363 7.42754L108.481 9.38129L109.393 9.79246L110.274 7.83871L109.363 7.42754ZM107.6 11.335L106.719 13.2888L107.63 13.7L108.512 11.7462L107.6 11.335ZM105.838 15.2425L104.956 17.1963L105.868 17.6075L106.749 15.6537L105.838 15.2425ZM104.075 19.15L103.194 21.1038L104.105 21.515L104.987 19.5612L104.075 19.15ZM102.313 23.0575L101.872 24.0344L102.784 24.4456L103.224 23.4687L102.313 23.0575ZM101.871 24.0369C101.769 24.2652 101.665 24.4864 101.558 24.7005L102.453 25.1474C102.567 24.9193 102.677 24.6845 102.785 24.4431L101.871 24.0369ZM100.841 25.9681C100.568 26.3916 100.282 26.7775 99.9829 27.1266L100.742 27.7778C101.074 27.3911 101.387 26.9679 101.682 26.5089L100.841 25.9681ZM98.9694 28.1271C98.785 28.2794 98.5964 28.4204 98.4035 28.5503L98.9621 29.3797C99.1826 29.2312 99.3972 29.0707 99.6061 28.8982L98.9694 28.1271ZM98.4035 28.5503C98.2017 28.6862 97.9865 28.8127 97.7578 28.9295L98.2127 29.8201C98.4757 29.6857 98.7255 29.539 98.9621 29.3797L98.4035 28.5503ZM96.3405 29.4798C95.8741 29.6137 95.3691 29.7196 94.8247 29.7968L94.9651 30.7869C95.5501 30.704 96.1008 30.589 96.6163 30.4411L96.3405 29.4798ZM93.2624 29.9345C93.006 29.9448 92.7427 29.95 92.4728 29.95V30.95C92.7555 30.95 93.0322 30.9446 93.3027 30.9337L93.2624 29.9345ZM88.5578 30H87.5578V30.823L88.3654 30.9813L88.5578 30ZM88.5578 24.87L88.7894 23.8972L87.5578 23.604V24.87H88.5578ZM90.4028 25.275L90.2066 26.2556L90.2157 26.2573L90.4028 25.275ZM94.3178 24.87L94.8825 25.6954L94.8912 25.6892L94.3178 24.87ZM95.8478 22.98L96.7423 23.4273L96.7483 23.4147L95.8478 22.98ZM96.4778 21.675L97.3783 22.1097L97.6007 21.6491L97.3573 21.1992L96.4778 21.675ZM85.1828 0.794998V-0.205002H83.5049L84.3032 1.27079L85.1828 0.794998ZM92.5178 0.794998L93.4122 0.347784L93.1358 -0.205002H92.5178V0.794998ZM99.8528 15.465L98.9583 15.9122L99.2347 16.465H99.8528V15.465ZM100.033 15.465V16.465H100.713L100.963 15.8329L100.033 15.465ZM105.838 0.794998V-0.205002H105.158L104.908 0.427052L105.838 0.794998ZM112.903 0.794998L113.814 1.20616L114.451 -0.205002H112.903V0.794998ZM102.328 24.24L101.416 23.8288L101.414 23.8339L102.328 24.24ZM98.6828 28.965L98.1242 28.1356L98.6828 28.965ZM92.4728 29.45C92.1891 29.45 91.8844 29.4387 91.5582 29.4154L91.4161 31.4104C91.784 31.4366 92.1364 31.45 92.4728 31.45V29.45ZM89.6903 29.1884C89.3885 29.1389 89.0751 29.0824 88.7502 29.0187L88.3654 30.9813C88.7093 31.0487 89.0432 31.109 89.3671 31.1621L89.6903 29.1884ZM89.5578 30V28.7175H87.5578V30H89.5578ZM89.5578 26.1525V24.87H87.5578V26.1525H89.5578ZM88.3262 25.8428C88.4831 25.8802 88.6391 25.9166 88.7943 25.9522L89.241 24.0027C89.0914 23.9684 88.9409 23.9333 88.7894 23.8972L88.3262 25.8428ZM89.7346 26.1588C89.8929 26.192 90.0502 26.2243 90.2067 26.2556L90.5989 24.2944C90.4489 24.2644 90.2978 24.2334 90.1458 24.2015L89.7346 26.1588ZM90.2157 26.2573C90.3792 26.2885 90.5415 26.316 90.7026 26.3399L90.996 24.3616C90.8628 24.3418 90.7274 24.3189 90.5899 24.2927L90.2157 26.2573ZM91.6967 26.4413C91.8669 26.4504 92.0356 26.455 92.2028 26.455V24.455C92.0723 24.455 91.9392 24.4514 91.8035 24.4442L91.6967 26.4413ZM92.2028 26.455C92.4306 26.455 92.6541 26.4429 92.8729 26.4178L92.6447 24.4308C92.507 24.4466 92.3598 24.455 92.2028 24.455V26.455ZM94.2384 26.0545C94.4643 25.954 94.6793 25.8343 94.8825 25.6953L93.7531 24.0447C93.6516 24.1142 93.5426 24.1751 93.4253 24.2273L94.2384 26.0545ZM94.8912 25.6892C95.1011 25.5423 95.2995 25.3773 95.4866 25.1956L94.0932 23.7608C93.979 23.8717 93.8627 23.9679 93.7443 24.0508L94.8912 25.6892ZM96.4002 24.0426C96.521 23.8471 96.6349 23.6418 96.7422 23.4272L94.9533 22.5328C94.871 22.6975 94.7861 22.85 94.699 22.991L96.4002 24.0426ZM96.7483 23.4147L96.9058 23.0885L95.1047 22.219L94.9472 22.5452L96.7483 23.4147ZM97.2208 22.436L97.3783 22.1097L95.5772 21.2402L95.4197 21.5665L97.2208 22.436ZM97.3573 21.1992L96.8867 20.3292L95.1276 21.2808L95.5982 22.1508L97.3573 21.1992ZM95.9455 18.5892L95.0042 16.8492L93.2451 17.8008L94.1863 19.5408L95.9455 18.5892ZM94.063 15.1092L93.1217 13.3692L91.3626 14.3208L92.3038 16.0608L94.063 15.1092ZM92.1805 11.6292L91.2392 9.88921L89.4801 10.8408L90.4213 12.5808L92.1805 11.6292ZM90.298 8.14921L89.3567 6.40921L87.5976 7.36079L88.5388 9.10079L90.298 8.14921ZM88.4155 4.66921L87.4742 2.92921L85.7151 3.8808L86.6563 5.62079L88.4155 4.66921ZM86.533 1.18921L86.0623 0.319203L84.3032 1.27079L84.7738 2.1408L86.533 1.18921ZM85.1828 1.795H86.0996V-0.205002H85.1828V1.795ZM87.9334 1.795H89.7672V-0.205002H87.9334V1.795ZM91.6009 1.795H92.5178V-0.205002H91.6009V1.795ZM91.6233 1.24221L92.0818 2.15909L93.8706 1.26466L93.4122 0.347784L91.6233 1.24221ZM92.9987 3.99284L93.9155 5.82659L95.7044 4.93216L94.7875 3.09841L92.9987 3.99284ZM94.8324 7.66034L95.7493 9.49409L97.5381 8.59966L96.6213 6.76591L94.8324 7.66034ZM96.6662 11.3278L97.583 13.1616L99.3719 12.2672L98.455 10.4334L96.6662 11.3278ZM98.4999 14.9953L98.9583 15.9122L100.747 15.0178L100.289 14.1009L98.4999 14.9953ZM99.8528 16.465H99.8978V14.465H99.8528V16.465ZM99.9878 16.465H100.033V14.465H99.9878V16.465ZM100.963 15.8329L101.325 14.9161L99.4657 14.1802L99.1029 15.0971L100.963 15.8329ZM102.051 13.0823L102.777 11.2486L100.917 10.5127L100.191 12.3464L102.051 13.0823ZM103.502 9.41482L104.228 7.58107L102.368 6.84518L101.643 8.67893L103.502 9.41482ZM104.954 5.74732L105.679 3.91357L103.819 3.17768L103.094 5.01143L104.954 5.74732ZM106.405 2.07982L106.768 1.16294L104.908 0.427052L104.545 1.34393L106.405 2.07982ZM105.838 1.795H106.721V-0.205002H105.838V1.795ZM108.487 1.795H110.253V-0.205002H108.487V1.795ZM112.02 1.795H112.903V-0.205002H112.02V1.795ZM111.991 0.383833L111.551 1.36071L113.374 2.18304L113.814 1.20616L111.991 0.383833ZM110.669 3.31446L109.788 5.26821L111.611 6.09054L112.492 4.13679L110.669 3.31446ZM108.907 7.22196L108.026 9.17571L109.849 9.99804L110.73 8.04429L108.907 7.22196ZM107.144 11.1295L106.263 13.0832L108.086 13.9055L108.967 11.9518L107.144 11.1295ZM105.382 15.037L104.501 16.9907L106.324 17.813L107.205 15.8593L105.382 15.037ZM103.619 18.9445L102.738 20.8982L104.561 21.7205L105.442 19.7668L103.619 18.9445ZM101.857 22.852L101.416 23.8288L103.239 24.6512L103.68 23.6743L101.857 22.852ZM101.414 23.8339C101.315 24.0556 101.214 24.2699 101.111 24.477L102.9 25.3708C103.018 25.1358 103.131 24.8942 103.242 24.6461L101.414 23.8339ZM100.42 25.6977C100.159 26.1034 99.8868 26.4707 99.6034 26.8011L101.121 28.1033C101.469 27.6979 101.796 27.256 102.102 26.7793L100.42 25.6977ZM98.6511 27.7416C98.4789 27.8837 98.3033 28.0149 98.1242 28.1356L99.2414 29.7944C99.4756 29.6367 99.7033 29.4664 99.9244 29.2838L98.6511 27.7416ZM98.1242 28.1356C97.9397 28.2598 97.742 28.3761 97.5303 28.4843L98.4402 30.2653C98.7202 30.1223 98.9875 29.9654 99.2414 29.7944L98.1242 28.1356ZM96.2026 28.9992C95.7608 29.126 95.2786 29.2275 94.7545 29.3018L95.0353 31.282C95.6405 31.1962 96.2141 31.0767 96.7543 30.9217L96.2026 28.9992ZM93.2423 29.4349C92.9929 29.4449 92.7364 29.45 92.4728 29.45V31.45C92.7619 31.45 93.0452 31.4445 93.3228 31.4333L93.2423 29.4349ZM117.871 30.18L117.979 29.6919L117.966 29.689L117.953 29.6868L117.871 30.18ZM116.701 30H116.201V30.4414L116.639 30.4961L116.701 30ZM116.701 24.51L116.768 24.0146L116.201 23.9372V24.51H116.701ZM121.831 23.385L122.191 23.7321L122.197 23.7257L121.831 23.385ZM123.586 18.255L123.091 18.1794L123.091 18.1851L123.586 18.255ZM124.171 0.794998V0.294998H123.671V0.794998H124.171ZM145.411 0.794998H145.911V0.294998H145.411V0.794998ZM145.411 30V30.5H145.911V30H145.411ZM138.391 30H137.891V30.5H138.391V30ZM138.391 5.745H138.891V5.245H138.391V5.745ZM130.516 5.745V5.245H130.016V5.745H130.516ZM128.986 22.665L128.512 22.5055L128.51 22.5097L128.986 22.665ZM125.071 28.785L124.799 28.3654L124.795 28.3678L125.071 28.785ZM119.401 29.86C119.285 29.86 119.167 29.8562 119.047 29.8485L118.983 30.8465C119.124 30.8555 119.263 30.86 119.401 30.86V29.86ZM118.335 29.7626C118.218 29.7422 118.1 29.7187 117.979 29.6919L117.762 30.6681C117.897 30.6981 118.031 30.7247 118.163 30.7477L118.335 29.7626ZM117.953 29.6868C117.85 29.6696 117.752 29.6534 117.659 29.6384L117.498 30.6254C117.59 30.6402 117.686 30.6562 117.789 30.6732L117.953 29.6868ZM117.067 29.5458C116.95 29.5286 116.848 29.5145 116.763 29.5039L116.639 30.4961C116.715 30.5056 116.809 30.5186 116.921 30.5351L117.067 29.5458ZM117.201 30V28.6275H116.201V30H117.201ZM117.201 25.8825V24.51H116.201V25.8825H117.201ZM116.633 25.0054C116.78 25.0254 116.921 25.0432 117.058 25.059L117.172 24.0655C117.043 24.0506 116.908 24.0337 116.768 24.0146L116.633 25.0054ZM117.923 25.133C118.078 25.1409 118.226 25.145 118.366 25.145V24.145C118.245 24.145 118.114 24.1415 117.974 24.1343L117.923 25.133ZM118.366 25.145C118.718 25.145 119.056 25.1231 119.379 25.0786L119.243 24.088C118.969 24.1257 118.677 24.145 118.366 24.145V25.145ZM121.355 24.4033C121.662 24.2149 121.941 23.991 122.191 23.7321L121.471 23.0379C121.28 23.2358 121.067 23.4065 120.832 23.5508L121.355 24.4033ZM122.197 23.7257C122.513 23.3862 122.785 22.9534 123.021 22.4423L122.113 22.0235C121.908 22.4677 121.689 22.803 121.465 23.0443L122.197 23.7257ZM123.848 19.7067C123.934 19.275 124.012 18.8143 124.081 18.3249L123.091 18.1851C123.024 18.6582 122.949 19.1002 122.867 19.5113L123.848 19.7067ZM124.08 18.3306C124.127 18.0232 124.171 17.6978 124.212 17.3546L123.219 17.2353C123.179 17.5691 123.137 17.8837 123.091 18.1794L124.08 18.3306ZM124.402 15.404C124.449 14.7951 124.49 14.1453 124.524 13.4546L123.526 13.4044C123.491 14.0872 123.451 14.728 123.405 15.3267L124.402 15.404ZM124.602 11.5077C124.622 10.8865 124.637 10.2381 124.648 9.56243L123.648 9.54601C123.637 10.2172 123.622 10.8608 123.603 11.4767L124.602 11.5077ZM124.668 7.61706C124.67 7.2983 124.671 6.97428 124.671 6.645H123.671C123.671 6.9727 123.67 7.29508 123.668 7.61215L124.668 7.61706ZM124.671 6.645V5.1825H123.671V6.645H124.671ZM124.671 2.2575V0.794998H123.671V2.2575H124.671ZM124.171 1.295H125.233V0.294998H124.171V1.295ZM127.357 1.295H129.481V0.294998H127.357V1.295ZM131.605 1.295H133.729V0.294998H131.605V1.295ZM135.853 1.295H137.977V0.294998H135.853V1.295ZM140.101 1.295H142.225V0.294998H140.101V1.295ZM144.349 1.295H145.411V0.294998H144.349V1.295ZM144.911 0.794998V1.83803H145.911V0.794998H144.911ZM144.911 3.9241V6.01018H145.911V3.9241H144.911ZM144.911 8.09625V10.1823H145.911V8.09625H144.911ZM144.911 12.2684V14.3545H145.911V12.2684H144.911ZM144.911 16.4405V18.5266H145.911V16.4405H144.911ZM144.911 20.6127V22.6987H145.911V20.6127H144.911ZM144.911 24.7848V26.8709H145.911V24.7848H144.911ZM144.911 28.957V30H145.911V28.957H144.911ZM145.411 29.5H144.533V30.5H145.411V29.5ZM142.778 29.5H141.023V30.5H142.778V29.5ZM139.268 29.5H138.391V30.5H139.268V29.5ZM138.891 30V28.9894H137.891V30H138.891ZM138.891 26.9681V24.9469H137.891V26.9681H138.891ZM138.891 22.9256V20.9044H137.891V22.9256H138.891ZM138.891 18.8831V16.8619H137.891V18.8831H138.891ZM138.891 14.8406V12.8194H137.891V14.8406H138.891ZM138.891 10.7981V8.77688H137.891V10.7981H138.891ZM138.891 6.75563V5.745H137.891V6.75563H138.891ZM138.391 5.245H137.406V6.245H138.391V5.245ZM135.438 5.245H133.469V6.245H135.438V5.245ZM131.5 5.245H130.516V6.245H131.5V5.245ZM130.016 5.745V6.7575H131.016V5.745H130.016ZM130.016 8.7825V9.795H131.016V8.7825H130.016ZM130.016 9.795C130.016 10.1601 130.013 10.5195 130.009 10.8735L131.009 10.886C131.013 10.5278 131.016 10.1641 131.016 9.795H130.016ZM129.952 13.0274C129.921 13.7714 129.879 14.487 129.826 15.1743L130.823 15.2515C130.877 14.5515 130.92 13.8239 130.951 13.0689L129.952 13.0274ZM129.613 17.3095C129.521 18.0546 129.413 18.7589 129.29 19.4227L130.273 19.6053C130.401 18.9196 130.511 18.1952 130.606 17.4322L129.613 17.3095ZM128.819 21.496C128.722 21.848 128.62 22.1845 128.512 22.5055L129.46 22.8245C129.574 22.4845 129.682 22.13 129.783 21.7611L128.819 21.496ZM128.51 22.5097C128.414 22.8048 128.315 23.0898 128.213 23.3647L129.15 23.7129C129.257 23.4249 129.361 23.1273 129.461 22.8203L128.51 22.5097ZM127.506 25.0172C127.223 25.5891 126.924 26.0983 126.61 26.5465L127.429 27.1203C127.776 26.6252 128.1 26.0713 128.402 25.4604L127.506 25.0172ZM125.471 27.8498C125.252 28.0451 125.028 28.2167 124.799 28.3654L125.343 29.2046C125.617 29.0265 125.882 28.8233 126.137 28.5959L125.471 27.8498ZM124.795 28.3678C124.403 28.6269 123.991 28.8522 123.56 29.0437L123.965 29.9577C124.447 29.7438 124.908 29.4919 125.346 29.2022L124.795 28.3678ZM120.831 29.7771C120.372 29.8322 119.895 29.86 119.401 29.86V30.86C119.932 30.86 120.449 30.8301 120.95 30.77L120.831 29.7771ZM117.871 30.18L118.088 29.2038L118.062 29.198L118.035 29.1936L117.871 30.18ZM116.701 30H115.701V30.8828L116.577 30.9923L116.701 30ZM116.701 24.51L116.836 23.5192L115.701 23.3644V24.51H116.701ZM121.831 23.385L122.551 24.0791L122.557 24.0728L122.563 24.0664L121.831 23.385ZM123.586 18.255L122.597 18.1038L122.596 18.1152L123.586 18.255ZM124.171 0.794998V-0.205002H123.171V0.794998H124.171ZM145.411 0.794998H146.411V-0.205002H145.411V0.794998ZM145.411 30V31H146.411V30H145.411ZM138.391 30H137.391V31H138.391V30ZM138.391 5.745H139.391V4.745H138.391V5.745ZM130.516 5.745V4.745H129.516V5.745H130.516ZM128.986 22.665L128.038 22.3459L128.035 22.3544L128.986 22.665ZM125.071 28.785L124.527 27.9458L124.52 27.9505L125.071 28.785ZM119.401 29.36C119.296 29.36 119.189 29.3566 119.079 29.3495L118.951 31.3455C119.103 31.3551 119.252 31.36 119.401 31.36V29.36ZM118.421 29.27C118.312 29.251 118.201 29.229 118.088 29.2038L117.654 31.1562C117.796 31.1878 117.937 31.2159 118.078 31.2403L118.421 29.27ZM118.035 29.1936C117.931 29.1763 117.833 29.16 117.739 29.1449L117.418 31.1189C117.509 31.1336 117.605 31.1494 117.706 31.1664L118.035 29.1936ZM117.139 29.0511C117.02 29.0336 116.915 29.019 116.825 29.0077L116.577 30.9923C116.648 31.0012 116.738 31.0136 116.848 31.0298L117.139 29.0511ZM117.701 30V28.6275H115.701V30H117.701ZM117.701 25.8825V24.51H115.701V25.8825H117.701ZM116.566 25.5008C116.715 25.5212 116.861 25.5395 117.001 25.5557L117.229 23.5687C117.104 23.5543 116.972 23.5378 116.836 23.5192L116.566 25.5008ZM117.897 25.6324C118.06 25.6407 118.216 25.645 118.366 25.645V23.645C118.254 23.645 118.132 23.6418 117.999 23.635L117.897 25.6324ZM118.366 25.645C118.739 25.645 119.1 25.6219 119.448 25.5739L119.174 23.5927C118.926 23.627 118.657 23.645 118.366 23.645V25.645ZM121.616 24.8296C121.959 24.6192 122.271 24.3686 122.551 24.0791L121.111 22.6909C120.95 22.8582 120.77 23.0023 120.571 23.1245L121.616 24.8296ZM122.563 24.0664C122.924 23.6777 123.224 23.1962 123.475 22.6516L121.659 21.8142C121.469 22.2248 121.278 22.5114 121.099 22.7036L122.563 24.0664ZM124.339 19.8044C124.427 19.3624 124.506 18.8923 124.576 18.3948L122.596 18.1152C122.53 18.5802 122.457 19.0128 122.377 19.4136L124.339 19.8044ZM124.574 18.4062C124.622 18.0929 124.667 17.7622 124.709 17.4142L122.723 17.1757C122.683 17.5047 122.642 17.814 122.597 18.1038L124.574 18.4062ZM124.9 15.4426C124.948 14.8287 124.989 14.1743 125.024 13.4797L123.026 13.3792C122.992 14.0582 122.952 14.6944 122.906 15.2881L124.9 15.4426ZM125.102 11.5232C125.122 10.8994 125.137 10.2485 125.148 9.57064L123.148 9.5378C123.137 10.2068 123.122 10.8479 123.103 11.4613L125.102 11.5232ZM125.168 7.61952C125.17 7.29991 125.171 6.97507 125.171 6.645H123.171C123.171 6.9719 123.17 7.29347 123.168 7.60969L125.168 7.61952ZM125.171 6.645V5.1825H123.171V6.645H125.171ZM125.171 2.2575V0.794998H123.171V2.2575H125.171ZM124.171 1.795H125.233V-0.205002H124.171V1.795ZM127.357 1.795H129.481V-0.205002H127.357V1.795ZM131.605 1.795H133.729V-0.205002H131.605V1.795ZM135.853 1.795H137.977V-0.205002H135.853V1.795ZM140.101 1.795H142.225V-0.205002H140.101V1.795ZM144.349 1.795H145.411V-0.205002H144.349V1.795ZM144.411 0.794998V1.83803H146.411V0.794998H144.411ZM144.411 3.9241V6.01018H146.411V3.9241H144.411ZM144.411 8.09625V10.1823H146.411V8.09625H144.411ZM144.411 12.2684V14.3545H146.411V12.2684H144.411ZM144.411 16.4405V18.5266H146.411V16.4405H144.411ZM144.411 20.6127V22.6987H146.411V20.6127H144.411ZM144.411 24.7848V26.8709H146.411V24.7848H144.411ZM144.411 28.957V30H146.411V28.957H144.411ZM145.411 29H144.533V31H145.411V29ZM142.778 29H141.023V31H142.778V29ZM139.268 29H138.391V31H139.268V29ZM139.391 30V28.9894H137.391V30H139.391ZM139.391 26.9681V24.9469H137.391V26.9681H139.391ZM139.391 22.9256V20.9044H137.391V22.9256H139.391ZM139.391 18.8831V16.8619H137.391V18.8831H139.391ZM139.391 14.8406V12.8194H137.391V14.8406H139.391ZM139.391 10.7981V8.77688H137.391V10.7981H139.391ZM139.391 6.75563V5.745H137.391V6.75563H139.391ZM138.391 4.745H137.406V6.745H138.391V4.745ZM135.438 4.745H133.469V6.745H135.438V4.745ZM131.5 4.745H130.516V6.745H131.5V4.745ZM129.516 5.745V6.7575H131.516V5.745H129.516ZM129.516 8.7825V9.795H131.516V8.7825H129.516ZM129.516 9.795C129.516 10.158 129.514 10.5154 129.509 10.8672L131.509 10.8923C131.513 10.5319 131.516 10.1661 131.516 9.795H129.516ZM129.452 13.0066C129.422 13.7452 129.38 14.4548 129.327 15.1357L131.321 15.2901C131.376 14.5837 131.419 13.8502 131.451 13.0896L129.452 13.0066ZM129.117 17.2482C129.026 17.9842 128.92 18.6785 128.798 19.3314L130.765 19.6966C130.894 19 131.006 18.2655 131.102 17.4936L129.117 17.2482ZM128.337 21.3634C128.243 21.707 128.143 22.0345 128.038 22.346L129.933 22.984C130.051 22.6345 130.162 22.271 130.265 21.8937L128.337 21.3634ZM128.035 22.3544C127.941 22.6435 127.844 22.9222 127.744 23.1906L129.619 23.8871C129.728 23.5924 129.834 23.2886 129.936 22.9756L128.035 22.3544ZM127.057 24.7956C126.784 25.348 126.498 25.8349 126.201 26.2596L127.839 27.4072C128.202 26.8886 128.539 26.3124 128.85 25.682L127.057 24.7956ZM125.138 27.4767C124.938 27.6559 124.734 27.8118 124.527 27.9458L125.615 29.6242C125.912 29.4314 126.197 29.2125 126.47 28.9689L125.138 27.4767ZM124.52 27.9505C124.15 28.1944 123.763 28.4064 123.357 28.5867L124.168 30.4146C124.675 30.1896 125.16 29.9244 125.622 29.6195L124.52 27.9505ZM120.771 29.2807C120.333 29.3333 119.876 29.36 119.401 29.36V31.36C119.951 31.36 120.488 31.3291 121.009 31.2665L120.771 29.2807ZM153.959 0.794998V0.294998H153.459V0.794998H153.959ZM160.979 0.794998H161.479V0.294998H160.979V0.794998ZM160.979 11.505H160.479V12.005H160.979V11.505ZM171.329 11.91L171.249 12.4038L171.259 12.4051L171.329 11.91ZM175.334 13.62L174.992 13.9848L174.997 13.9903L175.004 13.9956L175.334 13.62ZM153.959 30H153.459V30.5H153.959V30ZM168.584 24.285L168.839 24.7153L168.85 24.7081L168.584 24.285ZM168.629 16.995L168.434 17.4555V17.4555L168.629 16.995ZM160.934 16.5V16H160.434V16.5H160.934ZM160.934 25.005H160.434V25.505H160.934V25.005ZM153.459 0.794998V1.83803H154.459V0.794998H153.459ZM153.459 3.9241V6.01018H154.459V3.9241H153.459ZM153.459 8.09625V10.1823H154.459V8.09625H153.459ZM153.459 12.2684V14.3545H154.459V12.2684H153.459ZM153.459 16.4405V18.5266H154.459V16.4405H153.459ZM153.459 20.6127V22.6987H154.459V20.6127H153.459ZM153.459 24.7848V26.8709H154.459V24.7848H153.459ZM153.459 28.957V30H154.459V28.957H153.459ZM153.959 30.5H154.881V29.5H153.959V30.5ZM156.726 30.5H158.571V29.5H156.726V30.5ZM160.416 30.5H162.261V29.5H160.416V30.5ZM164.106 30.5H165.029V29.5H164.106V30.5ZM165.029 30.5C165.361 30.5 165.687 30.4959 166.006 30.4877L165.98 29.4881C165.67 29.496 165.353 29.5 165.029 29.5V30.5ZM167.958 30.3793C168.645 30.3185 169.295 30.2345 169.908 30.127L169.736 29.142C169.153 29.2441 168.531 29.3246 167.869 29.3832L167.958 30.3793ZM171.838 29.6743C172.521 29.4668 173.145 29.2188 173.707 28.9286L173.248 28.04C172.747 28.2987 172.181 28.525 171.548 28.7174L171.838 29.6743ZM175.397 27.7584C175.922 27.2688 176.343 26.712 176.655 26.089L175.761 25.6409C175.504 26.1534 175.157 26.6151 174.715 27.0271L175.397 27.7584ZM177.253 24.0961C177.297 23.7647 177.319 23.4226 177.319 23.07H176.319C176.319 23.3818 176.3 23.6802 176.262 23.9654L177.253 24.0961ZM177.319 23.07V21.6975H176.319V23.07H177.319ZM177.319 18.9525V17.58H176.319V18.9525H177.319ZM177.319 17.58C177.319 17.176 177.294 16.7906 177.244 16.4243L176.253 16.5594C176.297 16.8762 176.319 17.2162 176.319 17.58H177.319ZM176.463 14.176C176.24 13.8272 175.973 13.5163 175.664 13.2444L175.004 13.9956C175.242 14.2051 175.447 14.4445 175.62 14.715L176.463 14.176ZM175.676 13.2552C175.386 12.9834 175.066 12.7403 174.717 12.5256L174.193 13.3771C174.487 13.5581 174.753 13.7607 174.992 13.9848L175.676 13.2552ZM172.536 11.6342C172.174 11.5435 171.795 11.4705 171.398 11.4149L171.259 12.4051C171.624 12.4563 171.968 12.5228 172.293 12.6042L172.536 11.6342ZM171.408 11.4163C171.133 11.3722 170.844 11.3317 170.54 11.2948L170.42 12.2876C170.712 12.323 170.989 12.3618 171.249 12.4037L171.408 11.4163ZM168.807 11.1339C168.265 11.0966 167.689 11.0675 167.078 11.0465L167.043 12.0459C167.644 12.0666 168.209 12.0952 168.738 12.1315L168.807 11.1339ZM165.351 11.0092C165.07 11.0064 164.782 11.005 164.489 11.005V12.005C164.779 12.005 165.063 12.0064 165.341 12.0091L165.351 11.0092ZM164.489 11.005H163.611V12.005H164.489V11.005ZM161.856 11.005H160.979V12.005H161.856V11.005ZM161.479 11.505V10.6125H160.479V11.505H161.479ZM161.479 8.8275V7.0425H160.479V8.8275H161.479ZM161.479 5.2575V3.4725H160.479V5.2575H161.479ZM161.479 1.6875V0.794998H160.479V1.6875H161.479ZM160.979 0.294998H160.101V1.295H160.979V0.294998ZM158.346 0.294998H156.591V1.295H158.346V0.294998ZM154.836 0.294998H153.959V1.295H154.836V0.294998ZM164.714 24.505H163.769V25.505H164.714V24.505ZM161.879 24.505H160.934V25.505H161.879V24.505ZM161.434 25.005V23.9419H160.434V25.005H161.434ZM161.434 21.8156V19.6894H160.434V21.8156H161.434ZM161.434 17.5631V16.5H160.434V17.5631H161.434ZM160.934 17H161.901V16H160.934V17ZM163.836 17H164.804V16H163.836V17ZM164.804 17C165.139 17 165.456 17.006 165.753 17.018L165.793 16.0188C165.481 16.0063 165.151 16 164.804 16V17ZM167.602 17.2135C167.942 17.2817 168.217 17.3637 168.434 17.4555L168.823 16.5345C168.528 16.4095 168.184 16.3104 167.798 16.233L167.602 17.2135ZM168.434 17.4555C168.589 17.5211 168.717 17.5981 168.821 17.6838L169.454 16.9095C169.268 16.757 169.056 16.6329 168.823 16.5345L168.434 17.4555ZM169.25 18.4048C169.281 18.5451 169.299 18.7045 169.299 18.885H170.299C170.299 18.6412 170.275 18.4074 170.226 18.1859L169.25 18.4048ZM169.299 18.885V19.6612H170.299V18.885H169.299ZM169.299 21.2137V21.99H170.299V21.2137H169.299ZM169.299 21.99C169.299 22.1985 169.279 22.389 169.242 22.563L170.221 22.7697C170.273 22.5209 170.299 22.2605 170.299 21.99H169.299ZM168.75 23.5126C168.63 23.6385 168.486 23.7553 168.317 23.8619L168.85 24.7081C169.083 24.5616 169.291 24.3939 169.473 24.2039L168.75 23.5126ZM168.329 23.8549C168.115 23.9816 167.85 24.0946 167.528 24.1894L167.81 25.1487C168.194 25.0357 168.539 24.8927 168.839 24.7151L168.329 23.8549ZM165.678 24.4777C165.376 24.4958 165.055 24.505 164.714 24.505V25.505C165.073 25.505 165.414 25.4954 165.738 25.4759L165.678 24.4777ZM153.959 0.794998V-0.205002H152.959V0.794998H153.959ZM160.979 0.794998H161.979V-0.205002H160.979V0.794998ZM160.979 11.505H159.979V12.505H160.979V11.505ZM171.329 11.91L171.17 12.8973L171.18 12.8989L171.19 12.9003L171.329 11.91ZM175.334 13.62L174.65 14.3495L174.661 14.3605L174.673 14.3712L175.334 13.62ZM153.959 30H152.959V31H153.959V30ZM168.584 24.285L169.093 25.1453L169.105 25.1384L169.116 25.1312L168.584 24.285ZM168.629 16.995L168.239 17.916L168.629 16.995ZM160.934 16.5V15.5H159.934V16.5H160.934ZM160.934 25.005H159.934V26.005H160.934V25.005ZM152.959 0.794998V1.83803H154.959V0.794998H152.959ZM152.959 3.9241V6.01018H154.959V3.9241H152.959ZM152.959 8.09625V10.1823H154.959V8.09625H152.959ZM152.959 12.2684V14.3545H154.959V12.2684H152.959ZM152.959 16.4405V18.5266H154.959V16.4405H152.959ZM152.959 20.6127V22.6987H154.959V20.6127H152.959ZM152.959 24.7848V26.8709H154.959V24.7848H152.959ZM152.959 28.957V30H154.959V28.957H152.959ZM153.959 31H154.881V29H153.959V31ZM156.726 31H158.571V29H156.726V31ZM160.416 31H162.261V29H160.416V31ZM164.106 31H165.029V29H164.106V31ZM165.029 31C165.365 31 165.695 30.9959 166.019 30.9876L165.968 28.9882C165.662 28.9961 165.349 29 165.029 29V31ZM168.002 30.8773C168.701 30.8154 169.366 30.7297 169.995 30.6195L169.649 28.6495C169.082 28.7489 168.475 28.8276 167.825 28.8851L168.002 30.8773ZM171.984 30.1527C172.691 29.9377 173.344 29.6789 173.936 29.3728L173.019 27.5958C172.549 27.8386 172.011 28.0541 171.402 28.239L171.984 30.1527ZM175.738 28.1241C176.305 27.5956 176.762 26.9913 177.102 26.313L175.314 25.4169C175.085 25.874 174.774 26.2883 174.374 26.6614L175.738 28.1241ZM177.749 24.1614C177.796 23.807 177.819 23.4429 177.819 23.07H175.819C175.819 23.3614 175.801 23.6379 175.766 23.9001L177.749 24.1614ZM177.819 23.07V21.6975H175.819V23.07H177.819ZM177.819 18.9525V17.58H175.819V18.9525H177.819ZM177.819 17.58C177.819 17.1559 177.793 16.7478 177.74 16.3568L175.758 16.627C175.798 16.919 175.819 17.2363 175.819 17.58H177.819ZM176.884 13.9065C176.636 13.5186 176.339 13.1719 175.994 12.8688L174.673 14.3712C174.876 14.5495 175.051 14.7531 175.199 14.9845L176.884 13.9065ZM176.018 12.8905C175.702 12.5947 175.355 12.3314 174.979 12.0998L173.931 13.8029C174.197 13.967 174.436 14.1494 174.65 14.3495L176.018 12.8905ZM172.658 11.1492C172.277 11.0539 171.88 10.9776 171.468 10.9197L171.19 12.9003C171.538 12.9492 171.865 13.0124 172.171 13.0892L172.658 11.1492ZM171.487 10.9227C171.206 10.8774 170.91 10.836 170.6 10.7985L170.359 12.7839C170.646 12.8187 170.916 12.8566 171.17 12.8973L171.487 10.9227ZM168.841 10.635C168.293 10.5974 167.711 10.568 167.095 10.5468L167.026 12.5456C167.622 12.5661 168.181 12.5944 168.704 12.6303L168.841 10.635ZM165.356 10.5092C165.073 10.5064 164.784 10.505 164.489 10.505V12.505C164.777 12.505 165.06 12.5064 165.336 12.5091L165.356 10.5092ZM164.489 10.505H163.611V12.505H164.489V10.505ZM161.856 10.505H160.979V12.505H161.856V10.505ZM161.979 11.505V10.6125H159.979V11.505H161.979ZM161.979 8.8275V7.0425H159.979V8.8275H161.979ZM161.979 5.2575V3.4725H159.979V5.2575H161.979ZM161.979 1.6875V0.794998H159.979V1.6875H161.979ZM160.979 -0.205002H160.101V1.795H160.979V-0.205002ZM158.346 -0.205002H156.591V1.795H158.346V-0.205002ZM154.836 -0.205002H153.959V1.795H154.836V-0.205002ZM164.714 24.005H163.769V26.005H164.714V24.005ZM161.879 24.005H160.934V26.005H161.879V24.005ZM161.934 25.005V23.9419H159.934V25.005H161.934ZM161.934 21.8156V19.6894H159.934V21.8156H161.934ZM161.934 17.5631V16.5H159.934V17.5631H161.934ZM160.934 17.5H161.901V15.5H160.934V17.5ZM163.836 17.5H164.804V15.5H163.836V17.5ZM164.804 17.5C165.133 17.5 165.443 17.5059 165.733 17.5176L165.814 15.5193C165.494 15.5064 165.157 15.5 164.804 15.5V17.5ZM167.503 17.7037C167.82 17.7673 168.061 17.8409 168.239 17.916L169.018 16.074C168.683 15.9324 168.305 15.8247 167.896 15.7428L167.503 17.7037ZM168.239 17.916C168.355 17.9652 168.441 18.0187 168.505 18.0709L169.771 16.5224C169.543 16.3364 169.289 16.1888 169.018 16.074L168.239 17.916ZM168.762 18.5142C168.784 18.6139 168.799 18.7361 168.799 18.885H170.799C170.799 18.6095 170.772 18.3386 170.713 18.0764L168.762 18.5142ZM168.799 18.885V19.6612H170.799V18.885H168.799ZM168.799 21.2137V21.99H170.799V21.2137H168.799ZM168.799 21.99C168.799 22.1674 168.782 22.3231 168.753 22.4596L170.71 22.873C170.77 22.5868 170.799 22.2916 170.799 21.99H168.799ZM168.389 23.1669C168.299 23.2608 168.188 23.3521 168.051 23.4388L169.116 25.1312C169.381 24.9647 169.622 24.7716 169.834 24.5495L168.389 23.1669ZM168.074 23.4247C167.903 23.526 167.678 23.624 167.387 23.7097L167.951 25.6283C168.366 25.5062 168.751 25.3482 169.093 25.1453L168.074 23.4247ZM165.648 23.9786C165.357 23.9961 165.046 24.005 164.714 24.005V26.005C165.082 26.005 165.433 25.9951 165.768 25.975L165.648 23.9786ZM190.776 5.79H191.276V5.29H190.776V5.79ZM181.776 5.79H181.276V6.29H181.776V5.79ZM181.776 0.794998V0.294998H181.276V0.794998H181.776ZM206.751 0.794998H207.251V0.294998H206.751V0.794998ZM206.751 5.79V6.29H207.251V5.79H206.751ZM197.796 5.79V5.29H197.296V5.79H197.796ZM197.796 30V30.5H198.296V30H197.796ZM190.776 30H190.276V30.5H190.776V30ZM190.776 5.29H189.651V6.29H190.776V5.29ZM187.401 5.29H185.151V6.29H187.401V5.29ZM182.901 5.29H181.776V6.29H182.901V5.29ZM182.276 5.79V4.54125H181.276V5.79H182.276ZM182.276 2.04375V0.794998H181.276V2.04375H182.276ZM181.776 1.295H182.817V0.294998H181.776V1.295ZM184.898 1.295H186.979V0.294998H184.898V1.295ZM189.06 1.295H191.142V0.294998H189.06V1.295ZM193.223 1.295H195.304V0.294998H193.223V1.295ZM197.385 1.295H199.467V0.294998H197.385V1.295ZM201.548 1.295H203.629V0.294998H201.548V1.295ZM205.71 1.295H206.751V0.294998H205.71V1.295ZM206.251 0.794998V2.04375H207.251V0.794998H206.251ZM206.251 4.54125V5.79H207.251V4.54125H206.251ZM206.751 5.29H205.632V6.29H206.751V5.29ZM203.393 5.29H201.154V6.29H203.393V5.29ZM198.915 5.29H197.796V6.29H198.915V5.29ZM197.296 5.79V6.79875H198.296V5.79H197.296ZM197.296 8.81625V10.8337H198.296V8.81625H197.296ZM197.296 12.8512V14.8687H198.296V12.8512H197.296ZM197.296 16.8862V18.9037H198.296V16.8862H197.296ZM197.296 20.9212V22.9387H198.296V20.9212H197.296ZM197.296 24.9562V26.9737H198.296V24.9562H197.296ZM197.296 28.9912V30H198.296V28.9912H197.296ZM197.796 29.5H196.918V30.5H197.796V29.5ZM195.163 29.5H193.408V30.5H195.163V29.5ZM191.653 29.5H190.776V30.5H191.653V29.5ZM191.276 30V28.9912H190.276V30H191.276ZM191.276 26.9738V24.9562H190.276V26.9738H191.276ZM191.276 22.9388V20.9212H190.276V22.9388H191.276ZM191.276 18.9037V16.8862H190.276V18.9037H191.276ZM191.276 14.8687V12.8512H190.276V14.8687H191.276ZM191.276 10.8337V8.81625H190.276V10.8337H191.276ZM191.276 6.79875V5.79H190.276V6.79875H191.276ZM190.776 5.79H191.776V4.79H190.776V5.79ZM181.776 5.79H180.776V6.79H181.776V5.79ZM181.776 0.794998V-0.205002H180.776V0.794998H181.776ZM206.751 0.794998H207.751V-0.205002H206.751V0.794998ZM206.751 5.79V6.79H207.751V5.79H206.751ZM197.796 5.79V4.79H196.796V5.79H197.796ZM197.796 30V31H198.796V30H197.796ZM190.776 30H189.776V31H190.776V30ZM190.776 4.79H189.651V6.79H190.776V4.79ZM187.401 4.79H185.151V6.79H187.401V4.79ZM182.901 4.79H181.776V6.79H182.901V4.79ZM182.776 5.79V4.54125H180.776V5.79H182.776ZM182.776 2.04375V0.794998H180.776V2.04375H182.776ZM181.776 1.795H182.817V-0.205002H181.776V1.795ZM184.898 1.795H186.979V-0.205002H184.898V1.795ZM189.06 1.795H191.142V-0.205002H189.06V1.795ZM193.223 1.795H195.304V-0.205002H193.223V1.795ZM197.385 1.795H199.467V-0.205002H197.385V1.795ZM201.548 1.795H203.629V-0.205002H201.548V1.795ZM205.71 1.795H206.751V-0.205002H205.71V1.795ZM205.751 0.794998V2.04375H207.751V0.794998H205.751ZM205.751 4.54125V5.79H207.751V4.54125H205.751ZM206.751 4.79H205.632V6.79H206.751V4.79ZM203.393 4.79H201.154V6.79H203.393V4.79ZM198.915 4.79H197.796V6.79H198.915V4.79ZM196.796 5.79V6.79875H198.796V5.79H196.796ZM196.796 8.81625V10.8337H198.796V8.81625H196.796ZM196.796 12.8512V14.8687H198.796V12.8512H196.796ZM196.796 16.8862V18.9037H198.796V16.8862H196.796ZM196.796 20.9212V22.9387H198.796V20.9212H196.796ZM196.796 24.9562V26.9737H198.796V24.9562H196.796ZM196.796 28.9912V30H198.796V28.9912H196.796ZM197.796 29H196.918V31H197.796V29ZM195.163 29H193.408V31H195.163V29ZM191.653 29H190.776V31H191.653V29ZM191.776 30V28.9912H189.776V30H191.776ZM191.776 26.9738V24.9562H189.776V26.9738H191.776ZM191.776 22.9388V20.9212H189.776V22.9388H191.776ZM191.776 18.9037V16.8862H189.776V18.9037H191.776ZM191.776 14.8687V12.8512H189.776V14.8687H191.776ZM191.776 10.8337V8.81625H189.776V10.8337H191.776ZM191.776 6.79875V5.79H189.776V6.79875H191.776ZM220.779 0.794998V0.294998H220.43L220.31 0.621576L220.779 0.794998ZM229.329 0.794998L229.799 0.625407L229.68 0.294998H229.329V0.794998ZM239.859 30V30.5H240.57L240.329 29.8304L239.859 30ZM232.749 30L232.275 30.1606L232.39 30.5H232.749V30ZM230.139 22.305L230.612 22.1444L230.497 21.805H230.139V22.305ZM219.474 22.305V21.805H219.113L218.999 22.1469L219.474 22.305ZM216.909 30V30.5H217.269L217.383 30.1581L216.909 30ZM209.979 30L209.51 29.8266L209.261 30.5H209.979V30ZM228.609 17.625V18.125H229.304L229.083 17.4657L228.609 17.625ZM224.919 6.645L225.393 6.48572L225.278 6.145H224.919V6.645ZM224.739 6.645V6.145H224.379L224.265 6.48572L224.739 6.645ZM221.049 17.625L220.575 17.4657L220.353 18.125H221.049V17.625ZM220.31 0.621576L219.972 1.53423L220.91 1.88108L221.248 0.96842L220.31 0.621576ZM219.297 3.35954L218.622 5.18486L219.56 5.5317L220.235 3.70639L219.297 3.35954ZM217.947 7.01017L217.272 8.83548L218.21 9.18233L218.885 7.35701L217.947 7.01017ZM216.597 10.6608L215.922 12.4861L216.86 12.833L217.535 11.0076L216.597 10.6608ZM215.247 14.3114L214.572 16.1367L215.51 16.4836L216.185 14.6583L215.247 14.3114ZM213.897 17.962L213.222 19.7874L214.16 20.1342L214.835 18.3089L213.897 17.962ZM212.547 21.6127L211.872 23.438L212.81 23.7848L213.485 21.9595L212.547 21.6127ZM211.197 25.2633L210.522 27.0886L211.46 27.4354L212.135 25.6101L211.197 25.2633ZM209.847 28.9139L209.51 29.8266L210.448 30.1734L210.785 29.2608L209.847 28.9139ZM209.979 30.5H210.845V29.5H209.979V30.5ZM212.577 30.5H214.31V29.5H212.577V30.5ZM216.042 30.5H216.909V29.5H216.042V30.5ZM217.383 30.1581L217.704 29.1962L216.755 28.88L216.434 29.8419L217.383 30.1581ZM218.345 27.2725L218.986 25.3487L218.037 25.0325L217.396 26.9563L218.345 27.2725ZM219.627 23.425L219.948 22.4631L218.999 22.1469L218.679 23.1088L219.627 23.425ZM219.474 22.805H220.362V21.805H219.474V22.805ZM222.14 22.805H223.917V21.805H222.14V22.805ZM225.695 22.805H227.472V21.805H225.695V22.805ZM229.25 22.805H230.139V21.805H229.25V22.805ZM229.665 22.4656L229.991 23.4275L230.938 23.1063L230.612 22.1444L229.665 22.4656ZM230.644 25.3512L231.296 27.275L232.243 26.9538L231.591 25.03L230.644 25.3512ZM231.949 29.1987L232.275 30.1606L233.222 29.8394L232.896 28.8775L231.949 29.1987ZM232.749 30.5H233.637V29.5H232.749V30.5ZM235.415 30.5H237.192V29.5H235.415V30.5ZM238.97 30.5H239.859V29.5H238.97V30.5ZM240.329 29.8304L240 28.9178L239.059 29.2569L239.388 30.1696L240.329 29.8304ZM239.342 27.0924L238.684 25.2671L237.743 25.6063L238.401 27.4316L239.342 27.0924ZM238.026 23.4418L237.367 21.6165L236.427 21.9557L237.085 23.781L238.026 23.4418ZM236.709 19.7912L236.051 17.9659L235.111 18.3051L235.769 20.1304L236.709 19.7912ZM235.393 16.1406L234.735 14.3153L233.794 14.6544L234.452 16.4797L235.393 16.1406ZM234.077 12.4899L233.419 10.6646L232.478 11.0038L233.136 12.8291L234.077 12.4899ZM232.761 8.83931L232.102 7.014L231.162 7.35318L231.82 9.1785L232.761 8.83931ZM231.444 5.18869L230.786 3.36337L229.846 3.70256L230.504 5.52787L231.444 5.18869ZM230.128 1.53806L229.799 0.625407L228.858 0.964588L229.187 1.87724L230.128 1.53806ZM229.329 0.294998H228.26V1.295H229.329V0.294998ZM226.122 0.294998H223.985V1.295H226.122V0.294998ZM221.847 0.294998H220.779V1.295H221.847V0.294998ZM228.609 17.125H227.664V18.125H228.609V17.125ZM225.774 17.125H223.884V18.125H225.774V17.125ZM221.994 17.125H221.049V18.125H221.994V17.125ZM221.523 17.7843L221.83 16.8693L220.882 16.5507L220.575 17.4657L221.523 17.7843ZM222.445 15.0393L223.06 13.2093L222.112 12.8907L221.497 14.7207L222.445 15.0393ZM223.675 11.3793L224.29 9.54928L223.342 9.23072L222.727 11.0607L223.675 11.3793ZM224.905 7.71928L225.213 6.80428L224.265 6.48572L223.957 7.40072L224.905 7.71928ZM224.739 7.145H224.784V6.145H224.739V7.145ZM224.874 7.145H224.919V6.145H224.874V7.145ZM224.445 6.80428L224.752 7.71928L225.7 7.40072L225.393 6.48572L224.445 6.80428ZM225.367 9.54928L225.982 11.3793L226.93 11.0607L226.315 9.23072L225.367 9.54928ZM226.597 13.2093L227.212 15.0393L228.16 14.7207L227.545 12.8907L226.597 13.2093ZM227.827 16.8693L228.135 17.7843L229.083 17.4657L228.775 16.5507L227.827 16.8693ZM220.779 0.794998V-0.205002H220.082L219.841 0.448154L220.779 0.794998ZM229.329 0.794998L230.269 0.455816L230.031 -0.205002H229.329V0.794998ZM239.859 30V31H241.282L240.799 29.6608L239.859 30ZM232.749 30L231.802 30.3212L232.032 31H232.749V30ZM230.139 22.305L231.086 21.9838L230.855 21.305H230.139V22.305ZM219.474 22.305V21.305H218.753L218.525 21.9888L219.474 22.305ZM216.909 30V31H217.629L217.857 30.3162L216.909 30ZM209.979 30L209.041 29.6532L208.543 31H209.979V30ZM228.609 17.625V18.625H230L229.557 17.3064L228.609 17.625ZM224.919 6.645L225.867 6.32644L225.638 5.645H224.919V6.645ZM224.739 6.645V5.645H224.02L223.791 6.32644L224.739 6.645ZM221.049 17.625L220.101 17.3064L219.658 18.625H221.049V17.625ZM219.841 0.448154L219.503 1.36081L221.379 2.0545L221.717 1.14184L219.841 0.448154ZM218.828 3.18612L218.153 5.01144L220.029 5.70512L220.704 3.87981L218.828 3.18612ZM217.478 6.83675L216.803 8.66206L218.679 9.35575L219.354 7.53044L217.478 6.83675ZM216.128 10.4874L215.453 12.3127L217.329 13.0064L218.004 11.1811L216.128 10.4874ZM214.778 14.138L214.103 15.9633L215.979 16.657L216.654 14.8317L214.778 14.138ZM213.428 17.7886L212.753 19.6139L214.629 20.3076L215.304 18.4823L213.428 17.7886ZM212.078 21.4392L211.403 23.2646L213.279 23.9582L213.954 22.1329L212.078 21.4392ZM210.728 25.0899L210.053 26.9152L211.929 27.6089L212.604 25.7836L210.728 25.0899ZM209.378 28.7405L209.041 29.6532L210.917 30.3468L211.254 29.4342L209.378 28.7405ZM209.979 31H210.845V29H209.979V31ZM212.577 31H214.31V29H212.577V31ZM216.042 31H216.909V29H216.042V31ZM217.857 30.3162L218.178 29.3544L216.281 28.7219L215.96 29.6838L217.857 30.3162ZM218.819 27.4306L219.46 25.5069L217.563 24.8744L216.922 26.7981L218.819 27.4306ZM220.102 23.5831L220.422 22.6212L218.525 21.9888L218.204 22.9506L220.102 23.5831ZM219.474 23.305H220.362V21.305H219.474V23.305ZM222.14 23.305H223.917V21.305H222.14V23.305ZM225.695 23.305H227.472V21.305H225.695V23.305ZM229.25 23.305H230.139V21.305H229.25V23.305ZM229.192 22.6262L229.518 23.5881L231.412 22.9457L231.086 21.9838L229.192 22.6262ZM230.17 25.5118L230.823 27.4356L232.717 26.7932L232.064 24.8694L230.17 25.5118ZM231.475 29.3593L231.802 30.3212L233.696 29.6788L233.369 28.7169L231.475 29.3593ZM232.749 31H233.637V29H232.749V31ZM235.415 31H237.192V29H235.415V31ZM238.97 31H239.859V29H238.97V31ZM240.799 29.6608L240.47 28.7482L238.589 29.4265L238.918 30.3392L240.799 29.6608ZM239.812 26.9228L239.154 25.0975L237.273 25.7759L237.931 27.6012L239.812 26.9228ZM238.496 23.2722L237.838 21.4469L235.956 22.1253L236.615 23.9506L238.496 23.2722ZM237.18 19.6216L236.522 17.7963L234.64 18.4746L235.298 20.3L237.18 19.6216ZM235.863 15.971L235.205 14.1457L233.324 14.824L233.982 16.6493L235.863 15.971ZM234.547 12.3203L233.889 10.495L232.008 11.1734L232.666 12.9987L234.547 12.3203ZM233.231 8.66972L232.573 6.84441L230.691 7.52277L231.35 9.34809L233.231 8.66972ZM231.915 5.0191L231.257 3.19378L229.375 3.87215L230.033 5.69746L231.915 5.0191ZM230.598 1.36847L230.269 0.455816L228.388 1.13418L228.717 2.04683L230.598 1.36847ZM229.329 -0.205002H228.26V1.795H229.329V-0.205002ZM226.122 -0.205002H223.985V1.795H226.122V-0.205002ZM221.847 -0.205002H220.779V1.795H221.847V-0.205002ZM228.609 16.625H227.664V18.625H228.609V16.625ZM225.774 16.625H223.884V18.625H225.774V16.625ZM221.994 16.625H221.049V18.625H221.994V16.625ZM221.997 17.9436L222.304 17.0286L220.408 16.3914L220.101 17.3064L221.997 17.9436ZM222.919 15.1986L223.534 13.3686L221.638 12.7314L221.023 14.5614L222.919 15.1986ZM224.149 11.5386L224.764 9.70856L222.868 9.07144L222.253 10.9014L224.149 11.5386ZM225.379 7.87856L225.687 6.96355L223.791 6.32644L223.483 7.24144L225.379 7.87856ZM224.739 7.645H224.784V5.645H224.739V7.645ZM224.874 7.645H224.919V5.645H224.874V7.645ZM223.971 6.96355L224.278 7.87856L226.174 7.24144L225.867 6.32644L223.971 6.96355ZM224.893 9.70856L225.508 11.5386L227.404 10.9014L226.789 9.07144L224.893 9.70856ZM226.123 13.3686L226.738 15.1986L228.634 14.5614L228.019 12.7314L226.123 13.3686ZM227.353 17.0286L227.661 17.9436L229.557 17.3064L229.249 16.3914L227.353 17.0286ZM252.097 5.79H252.597V5.29H252.097V5.79ZM243.097 5.79H242.597V6.29H243.097V5.79ZM243.097 0.794998V0.294998H242.597V0.794998H243.097ZM268.072 0.794998H268.572V0.294998H268.072V0.794998ZM268.072 5.79V6.29H268.572V5.79H268.072ZM259.117 5.79V5.29H258.617V5.79H259.117ZM259.117 30V30.5H259.617V30H259.117ZM252.097 30H251.597V30.5H252.097V30ZM252.097 5.29H250.972V6.29H252.097V5.29ZM248.722 5.29H246.472V6.29H248.722V5.29ZM244.222 5.29H243.097V6.29H244.222V5.29ZM243.597 5.79V4.54125H242.597V5.79H243.597ZM243.597 2.04375V0.794998H242.597V2.04375H243.597ZM243.097 1.295H244.138V0.294998H243.097V1.295ZM246.219 1.295H248.3V0.294998H246.219V1.295ZM250.382 1.295H252.463V0.294998H250.382V1.295ZM254.544 1.295H256.625V0.294998H254.544V1.295ZM258.707 1.295H260.788V0.294998H258.707V1.295ZM262.869 1.295H264.95V0.294998H262.869V1.295ZM267.032 1.295H268.072V0.294998H267.032V1.295ZM267.572 0.794998V2.04375H268.572V0.794998H267.572ZM267.572 4.54125V5.79H268.572V4.54125H267.572ZM268.072 5.29H266.953V6.29H268.072V5.29ZM264.714 5.29H262.475V6.29H264.714V5.29ZM260.237 5.29H259.117V6.29H260.237V5.29ZM258.617 5.79V6.79875H259.617V5.79H258.617ZM258.617 8.81625V10.8337H259.617V8.81625H258.617ZM258.617 12.8512V14.8687H259.617V12.8512H258.617ZM258.617 16.8862V18.9037H259.617V16.8862H258.617ZM258.617 20.9212V22.9387H259.617V20.9212H258.617ZM258.617 24.9562V26.9737H259.617V24.9562H258.617ZM258.617 28.9912V30H259.617V28.9912H258.617ZM259.117 29.5H258.24V30.5H259.117V29.5ZM256.485 29.5H254.73V30.5H256.485V29.5ZM252.975 29.5H252.097V30.5H252.975V29.5ZM252.597 30V28.9912H251.597V30H252.597ZM252.597 26.9738V24.9562H251.597V26.9738H252.597ZM252.597 22.9388V20.9212H251.597V22.9388H252.597ZM252.597 18.9037V16.8862H251.597V18.9037H252.597ZM252.597 14.8687V12.8512H251.597V14.8687H252.597ZM252.597 10.8337V8.81625H251.597V10.8337H252.597ZM252.597 6.79875V5.79H251.597V6.79875H252.597ZM252.097 5.79H253.097V4.79H252.097V5.79ZM243.097 5.79H242.097V6.79H243.097V5.79ZM243.097 0.794998V-0.205002H242.097V0.794998H243.097ZM268.072 0.794998H269.072V-0.205002H268.072V0.794998ZM268.072 5.79V6.79H269.072V5.79H268.072ZM259.117 5.79V4.79H258.117V5.79H259.117ZM259.117 30V31H260.117V30H259.117ZM252.097 30H251.097V31H252.097V30ZM252.097 4.79H250.972V6.79H252.097V4.79ZM248.722 4.79H246.472V6.79H248.722V4.79ZM244.222 4.79H243.097V6.79H244.222V4.79ZM244.097 5.79V4.54125H242.097V5.79H244.097ZM244.097 2.04375V0.794998H242.097V2.04375H244.097ZM243.097 1.795H244.138V-0.205002H243.097V1.795ZM246.219 1.795H248.3V-0.205002H246.219V1.795ZM250.382 1.795H252.463V-0.205002H250.382V1.795ZM254.544 1.795H256.625V-0.205002H254.544V1.795ZM258.707 1.795H260.788V-0.205002H258.707V1.795ZM262.869 1.795H264.95V-0.205002H262.869V1.795ZM267.032 1.795H268.072V-0.205002H267.032V1.795ZM267.072 0.794998V2.04375H269.072V0.794998H267.072ZM267.072 4.54125V5.79H269.072V4.54125H267.072ZM268.072 4.79H266.953V6.79H268.072V4.79ZM264.714 4.79H262.475V6.79H264.714V4.79ZM260.237 4.79H259.117V6.79H260.237V4.79ZM258.117 5.79V6.79875H260.117V5.79H258.117ZM258.117 8.81625V10.8337H260.117V8.81625H258.117ZM258.117 12.8512V14.8687H260.117V12.8512H258.117ZM258.117 16.8862V18.9037H260.117V16.8862H258.117ZM258.117 20.9212V22.9387H260.117V20.9212H258.117ZM258.117 24.9562V26.9737H260.117V24.9562H258.117ZM258.117 28.9912V30H260.117V28.9912H258.117ZM259.117 29H258.24V31H259.117V29ZM256.485 29H254.73V31H256.485V29ZM252.975 29H252.097V31H252.975V29ZM253.097 30V28.9912H251.097V30H253.097ZM253.097 26.9738V24.9562H251.097V26.9738H253.097ZM253.097 22.9388V20.9212H251.097V22.9388H253.097ZM253.097 18.9037V16.8862H251.097V18.9037H253.097ZM253.097 14.8687V12.8512H251.097V14.8687H253.097ZM253.097 10.8337V8.81625H251.097V10.8337H253.097ZM253.097 6.79875V5.79H251.097V6.79875H253.097Z" fill="#77C2F9" fill-opacity="0.9"/>
</svg>
