<svg width="304" height="44" viewBox="0 0 304 44" fill="none" xmlns="http://www.w3.org/2000/svg">
<path d="M0.71 0.602998V0.102998H0.21V0.602998H0.71ZM23.659 0.602998H24.159V0.102998H23.659V0.602998ZM23.659 6.486V6.986H24.159V6.486H23.659ZM8.978 6.486V5.986H8.478V6.486H8.978ZM8.978 35V35.5H9.478V35H8.978ZM0.71 35H0.21V35.5H0.71V35ZM0.21 0.602998V1.55847H1.21V0.602998H0.21ZM0.21 3.46941V5.38036H1.21V3.46941H0.21ZM0.21 7.2913V9.20225H1.21V7.2913H0.21ZM0.21 11.1132V13.0241H1.21V11.1132H0.21ZM0.21 14.9351V16.846H1.21V14.9351H0.21ZM0.21 18.757V20.6679H1.21V18.757H0.21ZM0.21 22.5789V24.4898H1.21V22.5789H0.21ZM0.21 26.4007V28.3117H1.21V26.4007H0.21ZM0.21 30.2226V32.1336H1.21V30.2226H0.21ZM0.21 34.0445V35H1.21V34.0445H0.21ZM0.71 35.5H1.7435V34.5H0.71V35.5ZM3.8105 35.5H5.8775V34.5H3.8105V35.5ZM7.9445 35.5H8.978V34.5H7.9445V35.5ZM9.478 35V33.9816H8.478V35H9.478ZM9.478 31.9449V29.9082H8.478V31.9449H9.478ZM9.478 27.8715V25.8348H8.478V27.8715H9.478ZM9.478 23.7981V21.7614H8.478V23.7981H9.478ZM9.478 19.7246V17.6879H8.478V19.7246H9.478ZM9.478 15.6512V13.6145H8.478V15.6512H9.478ZM9.478 11.5778V9.54107H8.478V11.5778H9.478ZM9.478 7.50435V6.486H8.478V7.50435H9.478ZM8.978 6.986H9.89556V5.986H8.978V6.986ZM11.7307 6.986H13.5658V5.986H11.7307V6.986ZM15.4009 6.986H17.2361V5.986H15.4009V6.986ZM19.0712 6.986H20.9063V5.986H19.0712V6.986ZM22.7414 6.986H23.659V5.986H22.7414V6.986ZM24.159 6.486V5.01525H23.159V6.486H24.159ZM24.159 2.07375V0.602998H23.159V2.07375H24.159ZM23.659 0.102998H22.7028V1.103H23.659V0.102998ZM20.7904 0.102998H18.878V1.103H20.7904V0.102998ZM16.9655 0.102998H15.0531V1.103H16.9655V0.102998ZM13.1407 0.102998H11.2283V1.103H13.1407V0.102998ZM9.31588 0.102998H7.40346V1.103H9.31588V0.102998ZM5.49104 0.102998H3.57863V1.103H5.49104V0.102998ZM1.66621 0.102998H0.71V1.103H1.66621V0.102998ZM0.71 0.602998V-0.397002H-0.29V0.602998H0.71ZM23.659 0.602998H24.659V-0.397002H23.659V0.602998ZM23.659 6.486V7.486H24.659V6.486H23.659ZM8.978 6.486V5.486H7.978V6.486H8.978ZM8.978 35V36H9.978V35H8.978ZM0.71 35H-0.29V36H0.71V35ZM-0.29 0.602998V1.55847H1.71V0.602998H-0.29ZM-0.29 3.46941V5.38036H1.71V3.46941H-0.29ZM-0.29 7.2913V9.20225H1.71V7.2913H-0.29ZM-0.29 11.1132V13.0241H1.71V11.1132H-0.29ZM-0.29 14.9351V16.846H1.71V14.9351H-0.29ZM-0.29 18.757V20.6679H1.71V18.757H-0.29ZM-0.29 22.5789V24.4898H1.71V22.5789H-0.29ZM-0.29 26.4007V28.3117H1.71V26.4007H-0.29ZM-0.29 30.2226V32.1336H1.71V30.2226H-0.29ZM-0.29 34.0445V35H1.71V34.0445H-0.29ZM0.71 36H1.7435V34H0.71V36ZM3.8105 36H5.8775V34H3.8105V36ZM7.9445 36H8.978V34H7.9445V36ZM9.978 35V33.9816H7.978V35H9.978ZM9.978 31.9449V29.9082H7.978V31.9449H9.978ZM9.978 27.8715V25.8348H7.978V27.8715H9.978ZM9.978 23.7981V21.7614H7.978V23.7981H9.978ZM9.978 19.7246V17.6879H7.978V19.7246H9.978ZM9.978 15.6512V13.6145H7.978V15.6512H9.978ZM9.978 11.5778V9.54107H7.978V11.5778H9.978ZM9.978 7.50435V6.486H7.978V7.50435H9.978ZM8.978 7.486H9.89556V5.486H8.978V7.486ZM11.7307 7.486H13.5658V5.486H11.7307V7.486ZM15.4009 7.486H17.2361V5.486H15.4009V7.486ZM19.0712 7.486H20.9063V5.486H19.0712V7.486ZM22.7414 7.486H23.659V5.486H22.7414V7.486ZM24.659 6.486V5.01525H22.659V6.486H24.659ZM24.659 2.07375V0.602998H22.659V2.07375H24.659ZM23.659 -0.397002H22.7028V1.603H23.659V-0.397002ZM20.7904 -0.397002H18.878V1.603H20.7904V-0.397002ZM16.9655 -0.397002H15.0531V1.603H16.9655V-0.397002ZM13.1407 -0.397002H11.2283V1.603H13.1407V-0.397002ZM9.31588 -0.397002H7.40346V1.603H9.31588V-0.397002ZM5.49104 -0.397002H3.57863V1.603H5.49104V-0.397002ZM1.66621 -0.397002H0.71V1.603H1.66621V-0.397002ZM41.3312 35.159L41.2543 35.6531L41.256 35.6533L41.3312 35.159ZM36.3492 33.887L36.5131 33.4146L36.51 33.4136L36.3492 33.887ZM31.9502 30.813L31.5466 31.1083L31.5502 31.113L31.9502 30.813ZM31.4732 5.956L31.0404 5.70543L31.0356 5.71416L31.4732 5.956ZM34.4412 2.776L34.1736 2.35357L34.1696 2.35621L34.4412 2.776ZM38.3632 1.08L38.5049 1.55951L38.3632 1.08ZM42.7092 0.231999L42.7485 0.730459L42.7519 0.730172L42.7092 0.231999ZM50.8712 0.284998L50.8128 0.781573L50.82 0.782424L50.8272 0.783063L50.8712 0.284998ZM54.8992 1.027L55.0392 0.546815L55.0259 0.543312L54.8992 1.027ZM59.0862 2.829L59.3573 2.40885V2.40885L59.0862 2.829ZM61.8422 5.797L61.4103 6.04894L61.4124 6.05254L61.8422 5.797ZM61.4712 30.495L61.0699 30.1966L61.065 30.2034L61.4712 30.495ZM57.3372 33.622L57.1515 33.1578L57.3372 33.622ZM49.6522 29.541L49.6975 30.0389L49.7072 30.0381L49.7169 30.0368L49.6522 29.541ZM52.1432 29.011L52.0032 28.531L52.1432 29.011ZM54.0512 27.792L53.654 27.4883L53.6512 27.492L54.0512 27.792ZM52.7792 7.016L52.5414 7.45595L52.5508 7.46078L52.7792 7.016ZM40.5892 6.963L40.3608 6.51821L40.5892 6.963ZM39.3172 27.792L38.92 28.0957L38.9245 28.1016L38.9291 28.1073L39.3172 27.792ZM41.3312 29.011L41.4712 28.531L41.466 28.5295L41.3312 29.011ZM43.7692 29.541L43.7016 30.0364L43.7137 30.0381L43.7259 30.0391L43.7692 29.541ZM46.6312 35.03C46.1853 35.03 45.7474 35.0232 45.3177 35.0095L45.2859 36.009C45.7266 36.023 46.1751 36.03 46.6312 36.03V35.03ZM42.7028 34.832C42.2605 34.7847 41.8284 34.7289 41.4064 34.6647L41.256 35.6533C41.6931 35.7198 42.1399 35.7775 42.5963 35.8264L42.7028 34.832ZM41.408 34.6649C40.9997 34.6014 40.5862 34.5259 40.1674 34.4384L39.9629 35.4173C40.3979 35.5082 40.8284 35.5868 41.2543 35.6531L41.408 34.6649ZM37.7186 33.8074C37.321 33.6864 36.9192 33.5555 36.5131 33.4146L36.1853 34.3594C36.6031 34.5043 37.0172 34.6393 37.4275 34.7641L37.7186 33.8074ZM36.51 33.4136C36.086 33.2696 35.6856 33.1054 35.3082 32.9213L34.8698 33.8201C35.2871 34.0236 35.7268 34.2037 36.1884 34.3604L36.51 33.4136ZM33.1988 31.4694C32.8906 31.1751 32.6078 30.8564 32.3502 30.513L31.5502 31.113C31.8406 31.5002 32.16 31.8602 32.5083 32.1927L33.1988 31.4694ZM32.3537 30.5177C32.0952 30.1644 31.8705 29.7924 31.6795 29.4014L30.781 29.8403C30.9981 30.2848 31.2534 30.7075 31.5467 31.1083L32.3537 30.5177ZM30.9433 26.8925C30.8881 26.468 30.8602 26.0259 30.8602 25.566H29.8602C29.8602 26.0663 29.8905 26.5516 29.9516 27.0215L30.9433 26.8925ZM30.8602 25.566V24.6252H29.8602V25.566H30.8602ZM30.8602 22.7438V20.8623H29.8602V22.7438H30.8602ZM30.8602 18.9808V17.0993H29.8602V18.9808H30.8602ZM30.8602 15.2177V13.3362H29.8602V15.2177H30.8602ZM30.8602 11.4547V10.514H29.8602V11.4547H30.8602ZM30.8602 10.514C30.8602 10.1268 30.8804 9.75052 30.9205 9.38497L29.9265 9.2758C29.8822 9.67922 29.8602 10.092 29.8602 10.514H30.8602ZM31.4399 7.2094C31.5736 6.86108 31.7306 6.52395 31.9108 6.19784L31.0356 5.71416C30.833 6.08064 30.6566 6.45961 30.5063 6.85089L31.4399 7.2094ZM31.9059 6.20652C32.0845 5.89799 32.2743 5.606 32.4752 5.33033L31.6671 4.74137C31.4448 5.0464 31.236 5.36784 31.0405 5.70548L31.9059 6.20652ZM33.8821 3.81117C34.1459 3.58856 34.4228 3.38346 34.7128 3.19578L34.1696 2.35621C33.8441 2.56681 33.5333 2.79708 33.2372 3.04695L33.8821 3.81117ZM34.7087 3.19841C34.9866 3.0224 35.2837 2.85321 35.6001 2.69101L35.144 1.80109C34.8025 1.97615 34.4789 2.16026 34.1737 2.35359L34.7087 3.19841ZM37.5092 1.88064C37.828 1.76851 38.1598 1.66145 38.5049 1.55951L38.2215 0.600489C37.8612 0.706957 37.5131 0.81921 37.1774 0.937306L37.5092 1.88064ZM38.5049 1.55951C38.8608 1.45434 39.2107 1.35873 39.5544 1.27264L39.3115 0.302595C38.9536 0.392228 38.5903 0.491541 38.2215 0.600489L38.5049 1.55951ZM41.6783 0.850155C42.0432 0.797836 42.3999 0.757968 42.7485 0.730448L42.6698 -0.26645C42.2991 -0.237181 41.9213 -0.194903 41.5364 -0.139723L41.6783 0.850155ZM42.7519 0.730172C43.0693 0.702964 43.3916 0.679278 43.7188 0.659123L43.6573 -0.338985C43.3224 -0.318352 42.9921 -0.294085 42.6665 -0.266174L42.7519 0.730172ZM45.6591 0.582098C45.979 0.576033 46.303 0.572998 46.6312 0.572998V-0.427002C46.2968 -0.427002 45.9665 -0.42391 45.6401 -0.417723L45.6591 0.582098ZM46.6312 0.572998C46.9926 0.572998 47.3431 0.576524 47.6828 0.583562L47.7035 -0.416224C47.3565 -0.423413 46.9991 -0.427002 46.6312 -0.427002V0.572998ZM49.7758 0.681578C50.1386 0.709571 50.4842 0.742924 50.8128 0.781573L50.9296 -0.211576C50.5866 -0.251926 50.2277 -0.286532 49.8527 -0.315459L49.7758 0.681578ZM50.8272 0.783063C51.1464 0.81122 51.4767 0.849733 51.8182 0.898712L51.9602 -0.0911636C51.6019 -0.142537 51.2535 -0.183208 50.9151 -0.213066L50.8272 0.783063ZM53.7923 1.27005C54.1113 1.3429 54.4381 1.4231 54.7725 1.51068L55.0259 0.543312C54.6818 0.45319 54.3447 0.370454 54.0148 0.295135L53.7923 1.27005ZM54.7592 1.507C55.1298 1.6151 55.4851 1.72814 55.8249 1.84605L56.1527 0.901291C55.796 0.777546 55.4248 0.659469 55.0392 0.546998L54.7592 1.507ZM57.8669 2.70505C58.2075 2.87948 58.5234 3.06092 58.8151 3.24915L59.3573 2.40885C59.0353 2.20112 58.6903 2.00326 58.3228 1.81502L57.8669 2.70505ZM58.8151 3.24915C59.0816 3.42105 59.3371 3.61102 59.5817 3.81919L60.2298 3.05763C59.952 2.82121 59.6611 2.6049 59.3573 2.40885L58.8151 3.24915ZM60.8803 5.23413C61.0658 5.48971 61.2425 5.76124 61.4103 6.04893L62.2741 5.54506C62.0903 5.23003 61.8956 4.93056 61.6898 4.64688L60.8803 5.23413ZM61.4124 6.05254C61.6058 6.37777 61.7738 6.72129 61.9163 7.0835L62.8469 6.71747C62.6851 6.30626 62.4935 5.91413 62.272 5.54146L61.4124 6.05254ZM62.449 9.33822C62.4883 9.71506 62.5082 10.1069 62.5082 10.514H63.5082C63.5082 10.0745 63.4868 9.64787 63.4436 9.23437L62.449 9.33822ZM62.5082 10.514V11.4548H63.5082V10.514H62.5082ZM62.5082 13.3362V15.2177H63.5082V13.3362H62.5082ZM62.5082 17.0993V18.9808H63.5082V17.0993H62.5082ZM62.5082 20.8623V22.7438H63.5082V20.8623H62.5082ZM62.5082 24.6253V25.566H63.5082V24.6253H62.5082ZM62.5082 25.566C62.5082 25.9964 62.4808 26.4105 62.4267 26.8088L63.4175 26.9436C63.4781 26.4981 63.5082 26.0388 63.5082 25.566H62.5082ZM61.7137 29.1539C61.5311 29.5174 61.3166 29.865 61.07 30.1966L61.8724 30.7934C62.1532 30.4158 62.3983 30.0189 62.6073 29.6029L61.7137 29.1539ZM61.065 30.2034C60.8241 30.539 60.5588 30.8532 60.2689 31.1464L60.98 31.8495C61.3068 31.519 61.6059 31.1647 61.8773 30.7866L61.065 30.2034ZM58.2861 32.6253C57.9301 32.82 57.552 32.9976 57.1515 33.1578L57.5229 34.0862C57.9585 33.912 58.3729 33.7176 58.7659 33.5027L58.2861 32.6253ZM57.1515 33.1578C56.8762 33.2679 56.5978 33.3732 56.3164 33.4736L56.6526 34.4154C56.9457 34.3108 57.2358 34.2011 57.5229 34.0862L57.1515 33.1578ZM54.6128 34.0121C54.0445 34.1695 53.4646 34.3087 52.8732 34.4297L53.0736 35.4094C53.6869 35.284 54.2889 35.1395 54.8797 34.9758L54.6128 34.0121ZM51.1076 34.7318C50.5237 34.813 49.9293 34.8776 49.3243 34.9256L49.4035 35.9225C50.0275 35.8729 50.6414 35.8062 51.2452 35.7223L51.1076 34.7318ZM47.5305 35.0187C47.2331 35.0262 46.9333 35.03 46.6312 35.03V36.03C46.9416 36.03 47.2498 36.0261 47.5557 36.0184L47.5305 35.0187ZM46.7372 29.147C46.4833 29.147 46.2381 29.1453 46.0016 29.1419L45.9874 30.1418C46.229 30.1453 46.4789 30.147 46.7372 30.147V29.147ZM44.5375 29.0937C44.2808 29.0796 44.0391 29.0626 43.8125 29.0429L43.7259 30.0391C43.9642 30.0598 44.2164 30.0775 44.4824 30.0922L44.5375 29.0937ZM43.8367 29.0456C43.6408 29.0189 43.4422 28.9875 43.241 28.9513L43.0642 29.9356C43.2789 29.9741 43.4914 30.0077 43.7016 30.0364L43.8367 29.0456ZM42.0577 28.692C41.8644 28.6423 41.6689 28.5887 41.4712 28.531L41.1912 29.491C41.3989 29.5516 41.6048 29.6081 41.8088 29.6605L42.0577 28.692ZM41.466 28.5295C41.283 28.4783 41.1121 28.4202 40.9528 28.3556L40.5772 29.2824C40.7737 29.3621 40.9802 29.432 41.1964 29.4925L41.466 28.5295ZM40.0576 27.8326C39.9261 27.7228 39.8088 27.6042 39.7052 27.4767L38.9291 28.1073C39.0744 28.2861 39.2372 28.4505 39.4168 28.6004L40.0576 27.8326ZM39.7144 27.4883C39.6128 27.3554 39.5247 27.2146 39.4498 27.0654L38.556 27.514C38.659 27.7192 38.7804 27.9132 38.92 28.0957L39.7144 27.4883ZM39.1611 26.0933C39.1393 25.9265 39.1282 25.7508 39.1282 25.566H38.1282C38.1282 25.791 38.1418 26.0099 38.1695 26.2225L39.1611 26.0933ZM39.1282 25.566V24.6219H38.1282V25.566H39.1282ZM39.1282 22.7338V20.8457H38.1282V22.7338H39.1282ZM39.1282 18.9576V17.0694H38.1282V18.9576H39.1282ZM39.1282 15.1813V13.2932H38.1282V15.1813H39.1282ZM39.1282 11.4051V10.461H38.1282V11.4051H39.1282ZM39.1282 10.461C39.1282 10.1135 39.1593 9.79612 39.219 9.50736L38.2397 9.30489C38.1645 9.66835 38.1282 10.0542 38.1282 10.461H39.1282ZM40.0649 7.93182C40.2748 7.73359 40.5245 7.5583 40.8176 7.40778L40.3608 6.51821C39.9917 6.70777 39.6629 6.93602 39.3783 7.20479L40.0649 7.93182ZM40.8176 7.40778C41.0145 7.30667 41.2328 7.21235 41.4733 7.12547L41.1336 6.18494C40.8577 6.2846 40.5998 6.39548 40.3608 6.51821L40.8176 7.40778ZM42.8996 6.74955C43.3539 6.66442 43.8522 6.59735 44.395 6.54894L44.3062 5.55289C43.7364 5.60371 43.2059 5.67476 42.7154 5.76665L42.8996 6.74955ZM45.9178 6.46525C46.1663 6.45909 46.4217 6.456 46.6842 6.456V5.456C46.4139 5.456 46.1502 5.45918 45.893 5.46556L45.9178 6.46525ZM46.6842 6.456C46.947 6.456 47.2028 6.45926 47.4516 6.46577L47.4778 5.46612C47.2198 5.45936 46.9553 5.456 46.6842 5.456V6.456ZM48.9759 6.55418C49.5187 6.60528 50.0168 6.67606 50.4706 6.76584L50.6647 5.78485C50.1729 5.68756 49.6409 5.61236 49.0696 5.55858L48.9759 6.55418ZM51.8914 7.16096C52.1297 7.25174 52.3461 7.35025 52.5414 7.45585L53.0169 6.57615C52.7789 6.44748 52.5221 6.33114 52.2474 6.22648L51.8914 7.16096ZM52.5508 7.46078C52.8419 7.61025 53.09 7.78303 53.299 7.97726L53.9798 7.24486C53.6975 6.98239 53.3722 6.75846 53.0076 6.57122L52.5508 7.46078ZM54.1481 9.52271C54.2087 9.8068 54.2402 10.119 54.2402 10.461H55.2402C55.2402 10.0579 55.203 9.67511 55.1262 9.31435L54.1481 9.52271ZM54.2402 10.461V11.4051H55.2402V10.461H54.2402ZM54.2402 13.2932V15.1813H55.2402V13.2932H54.2402ZM54.2402 17.0694V18.9576H55.2402V17.0694H54.2402ZM54.2402 20.8457V22.7338H55.2402V20.8457H54.2402ZM54.2402 24.6219V25.566H55.2402V24.6219H54.2402ZM54.2402 25.566C54.2402 25.7508 54.229 25.9265 54.2073 26.0933L55.1989 26.2225C55.2266 26.0099 55.2402 25.791 55.2402 25.566H54.2402ZM53.9186 27.0654C53.8437 27.2146 53.7556 27.3554 53.654 27.4883L54.4484 28.0957C54.5879 27.9132 54.7093 27.7192 54.8123 27.514L53.9186 27.0654ZM53.6512 27.492C53.5571 27.6174 53.4499 27.7339 53.329 27.8416L53.994 28.5884C54.1637 28.4373 54.3163 28.2718 54.4512 28.092L53.6512 27.492ZM52.4907 28.3585C52.34 28.4225 52.1777 28.4801 52.0032 28.531L52.2832 29.491C52.4923 29.43 52.6919 29.3595 52.8814 29.279L52.4907 28.3585ZM52.0032 28.531C51.8027 28.5895 51.6035 28.6438 51.4054 28.6941L51.6513 29.6634C51.861 29.6102 52.0717 29.5527 52.2832 29.491L52.0032 28.531ZM50.1969 28.9526C49.9925 28.988 49.7893 29.0189 49.5875 29.0452L49.7169 30.0368C49.9327 30.0086 50.1496 29.9757 50.3675 29.9379L50.1969 28.9526ZM49.6069 29.0431C49.3873 29.063 49.1506 29.0802 48.8967 29.0945L48.9529 30.0929C49.2167 30.078 49.465 30.0601 49.6975 30.0389L49.6069 29.0431ZM47.4596 29.1421C47.2281 29.1454 46.9873 29.147 46.7372 29.147V30.147C46.9916 30.147 47.2371 30.1453 47.4737 30.142L47.4596 29.1421ZM41.3312 35.159L41.1775 36.1471L41.1807 36.1476L41.3312 35.159ZM36.3492 33.887L36.677 32.9422L36.6708 32.9401L36.3492 33.887ZM31.9502 30.813L31.1431 31.4035L31.1502 31.413L31.9502 30.813ZM31.4732 5.956L30.6078 5.45496L30.6028 5.46359L30.5979 5.47231L31.4732 5.956ZM34.4412 2.776L33.9061 1.93114L33.8979 1.93643L34.4412 2.776ZM38.3632 1.08L38.6465 2.03901L38.3632 1.08ZM42.7092 0.231999L42.7879 1.22892L42.7946 1.22835L42.7092 0.231999ZM50.8712 0.284998L50.7543 1.27815L50.7688 1.27985L50.7833 1.28113L50.8712 0.284998ZM54.8992 1.027L55.1792 0.0669985L55.1659 0.0631275L55.1525 0.0596256L54.8992 1.027ZM59.0862 2.829L59.6283 1.9887H59.6283L59.0862 2.829ZM61.8422 5.797L60.9784 6.30089L60.9827 6.30807L61.8422 5.797ZM61.4712 30.495L60.6687 29.8983L60.6637 29.905L60.6589 29.9118L61.4712 30.495ZM57.3372 33.622L56.9658 32.6935L57.3372 33.622ZM49.6522 29.541L49.7427 30.5369L49.7622 30.5351L49.7815 30.5326L49.6522 29.541ZM52.1432 29.011L51.8632 28.051L52.1432 29.011ZM54.0512 27.792L53.2568 27.1845L53.2512 27.192L54.0512 27.792ZM52.7792 7.016L52.3037 7.89571L52.313 7.90074L52.3224 7.90557L52.7792 7.016ZM40.5892 6.963L40.1324 6.07343L40.5892 6.963ZM39.3172 27.792L38.5228 28.3994L38.5318 28.4112L38.5411 28.4226L39.3172 27.792ZM41.3312 29.011L41.6112 28.0509L41.6008 28.048L41.3312 29.011ZM43.7692 29.541L43.6341 30.5318L43.6582 30.5351L43.6826 30.5372L43.7692 29.541ZM46.6312 34.53C46.1904 34.53 45.7578 34.5232 45.3335 34.5098L45.2701 36.5088C45.7162 36.5229 46.17 36.53 46.6312 36.53V34.53ZM42.756 34.3349C42.3208 34.2883 41.896 34.2334 41.4816 34.1704L41.1807 36.1476C41.6255 36.2153 42.0797 36.2739 42.5431 36.3235L42.756 34.3349ZM41.4849 34.1709C41.0853 34.1087 40.6803 34.0348 40.2697 33.949L39.8606 35.9067C40.3038 35.9993 40.7428 36.0795 41.1775 36.1471L41.4849 34.1709ZM37.8642 33.3291C37.4729 33.21 37.0772 33.0811 36.677 32.9422L36.0214 34.8318C36.4451 34.9788 36.8653 35.1157 37.2819 35.2425L37.8642 33.3291ZM36.6708 32.9401C36.2656 32.8025 35.8848 32.6462 35.5274 32.4719L34.6505 34.2694C35.0879 34.4828 35.5472 34.6707 36.0276 34.8339L36.6708 32.9401ZM33.5441 31.1077C33.2559 30.8326 32.9913 30.5345 32.7502 30.213L31.1502 31.413C31.457 31.8221 31.7947 32.2027 32.1631 32.5544L33.5441 31.1077ZM32.7572 30.2225C32.5161 29.8929 32.3068 29.5462 32.1288 29.1819L30.3317 30.0598C30.5619 30.5309 30.8325 30.979 31.1432 31.4035L32.7572 30.2225ZM31.4391 26.8279C31.3868 26.4262 31.3602 26.0058 31.3602 25.566H29.3602C29.3602 26.0865 29.3917 26.5934 29.4558 27.086L31.4391 26.8279ZM31.3602 25.566V24.6252H29.3602V25.566H31.3602ZM31.3602 22.7438V20.8623H29.3602V22.7438H31.3602ZM31.3602 18.9808V17.0993H29.3602V18.9808H31.3602ZM31.3602 15.2177V13.3362H29.3602V15.2177H31.3602ZM31.3602 11.4547V10.514H29.3602V11.4547H31.3602ZM31.3602 10.514C31.3602 10.1442 31.3795 9.78617 31.4175 9.43955L29.4295 9.22121C29.3831 9.64357 29.3602 10.0746 29.3602 10.514H31.3602ZM31.9066 7.38865C32.0321 7.06182 32.1794 6.7456 32.3484 6.43968L30.5979 5.47231C30.3843 5.85899 30.1981 6.25887 30.0396 6.67164L31.9066 7.38865ZM32.3386 6.45704C32.5088 6.16307 32.6891 5.8858 32.8793 5.62481L31.263 4.44688C31.03 4.7666 30.8117 5.10276 30.6078 5.45496L32.3386 6.45704ZM34.2046 4.19329C34.4522 3.98431 34.7121 3.79178 34.9844 3.61557L33.8979 1.93643C33.5548 2.15849 33.2269 2.40134 32.9147 2.66483L34.2046 4.19329ZM34.9762 3.62082C35.2405 3.45347 35.5243 3.29174 35.8282 3.13597L34.916 1.35612C34.5619 1.53761 34.2251 1.72919 33.9061 1.93118L34.9762 3.62082ZM37.6752 2.35231C37.9854 2.24316 38.3092 2.13869 38.6465 2.03901L38.0798 0.12098C37.7118 0.229712 37.3556 0.344562 37.0115 0.46564L37.6752 2.35231ZM38.6465 2.03901C38.9961 1.93574 39.3392 1.84198 39.6759 1.75766L39.19 -0.182425C38.8251 -0.0910225 38.455 0.0101414 38.0798 0.12098L38.6465 2.03901ZM41.7493 1.34509C42.1042 1.29421 42.4504 1.25554 42.7879 1.2289L42.6305 -0.764899C42.2487 -0.734756 41.8603 -0.691274 41.4654 -0.634662L41.7493 1.34509ZM42.7946 1.22835C43.1079 1.20149 43.4263 1.17809 43.7496 1.15818L43.6266 -0.838039C43.2878 -0.817167 42.9535 -0.792608 42.6238 -0.764348L42.7946 1.22835ZM45.6686 1.08201C45.9852 1.076 46.3061 1.073 46.6312 1.073V-0.927002C46.2937 -0.927002 45.9602 -0.923882 45.6306 -0.917633L45.6686 1.08201ZM46.6312 1.073C46.9893 1.073 47.3364 1.07649 47.6724 1.08345L47.7138 -0.916117C47.3632 -0.923382 47.0023 -0.927002 46.6312 -0.927002V1.073ZM49.7374 1.1801C50.0941 1.20762 50.433 1.24035 50.7543 1.27815L50.988 -0.708152C50.6378 -0.749352 50.2722 -0.784584 49.8912 -0.813977L49.7374 1.1801ZM50.7833 1.28113C51.0928 1.30843 51.414 1.34587 51.7473 1.39365L52.0311 -0.586101C51.6645 -0.638672 51.3071 -0.680422 50.9591 -0.711131L50.7833 1.28113ZM53.681 1.75751C53.9946 1.82912 54.3162 1.90805 54.6458 1.99437L55.1525 0.0596256C54.8036 -0.031764 54.4615 -0.115767 54.1261 -0.192322L53.681 1.75751ZM54.6192 1.987C54.9824 2.09292 55.3296 2.20344 55.661 2.31843L56.3166 0.428911C55.9515 0.302249 55.5723 0.181651 55.1792 0.0669985L54.6192 1.987ZM57.639 3.15006C57.966 3.31758 58.2674 3.49082 58.5441 3.66929L59.6283 1.9887C59.2912 1.77122 58.9318 1.56516 58.5508 1.37001L57.639 3.15006ZM58.5441 3.66929C58.7918 3.82914 59.0296 4.00592 59.2577 4.19997L60.5539 2.67685C60.2595 2.42631 59.9509 2.19682 59.6283 1.9887L58.5441 3.66929ZM60.4756 5.52776C60.6509 5.76929 60.8186 6.02684 60.9784 6.30087L62.706 5.29313C62.5142 4.96443 62.3105 4.65099 62.0945 4.35325L60.4756 5.52776ZM60.9827 6.30807C61.1619 6.60959 61.3181 6.92881 61.451 7.26652L63.3122 6.53446C63.1408 6.09874 62.9374 5.68231 62.7017 5.28592L60.9827 6.30807ZM61.9517 9.39014C61.9891 9.74866 62.0082 10.1231 62.0082 10.514H64.0082C64.0082 10.0582 63.986 9.61427 63.9409 9.18245L61.9517 9.39014ZM62.0082 10.514V11.4548H64.0082V10.514H62.0082ZM62.0082 13.3362V15.2177H64.0082V13.3362H62.0082ZM62.0082 17.0993V18.9808H64.0082V17.0993H62.0082ZM62.0082 20.8623V22.7438H64.0082V20.8623H62.0082ZM62.0082 24.6253V25.566H64.0082V24.6253H62.0082ZM62.0082 25.566C62.0082 25.9752 61.9822 26.3668 61.9312 26.7414L63.913 27.011C63.9768 26.5418 64.0082 26.06 64.0082 25.566H62.0082ZM61.267 28.9294C61.0975 29.2667 60.8983 29.5895 60.6687 29.8983L62.2737 31.0917C62.5715 30.6912 62.8318 30.2696 63.054 29.8274L61.267 28.9294ZM60.6589 29.9118C60.4332 30.2261 60.1848 30.5203 59.9134 30.7948L61.3356 32.201C61.6808 31.8519 61.9968 31.4775 62.2835 31.0782L60.6589 29.9118ZM58.0462 32.1866C57.7086 32.3712 57.3487 32.5404 56.9658 32.6935L57.7086 34.5505C58.1617 34.3692 58.5943 34.1664 59.0058 33.9414L58.0462 32.1866ZM56.9658 32.6935C56.6964 32.8013 56.4239 32.9044 56.1484 33.0027L56.8206 34.8863C57.1197 34.7796 57.4156 34.6677 57.7086 34.5505L56.9658 32.6935ZM54.4794 33.5303C53.9223 33.6845 53.3535 33.8211 52.773 33.9398L53.1738 35.8993C53.798 35.7716 54.4111 35.6244 55.0131 35.4577L54.4794 33.5303ZM51.0388 34.2366C50.4649 34.3163 49.8802 34.3799 49.2848 34.4272L49.4431 36.4209C50.0766 36.3706 50.7002 36.3029 51.314 36.2176L51.0388 34.2366ZM47.5179 34.5189C47.2248 34.5263 46.9292 34.53 46.6312 34.53V36.53C46.9458 36.53 47.2582 36.5261 47.5684 36.5182L47.5179 34.5189ZM46.7372 28.647C46.4855 28.647 46.2427 28.6453 46.0088 28.642L45.9802 30.6418C46.2244 30.6453 46.4767 30.647 46.7372 30.647V28.647ZM44.5651 28.5945C44.313 28.5806 44.0766 28.564 43.8558 28.5448L43.6826 30.5372C43.9267 30.5585 44.1842 30.5765 44.4548 30.5914L44.5651 28.5945ZM43.9043 28.5502C43.7155 28.5244 43.5239 28.4941 43.3294 28.4592L42.9759 30.4277C43.1972 30.4674 43.4166 30.5022 43.6341 30.5318L43.9043 28.5502ZM42.1821 28.2077C41.9942 28.1594 41.8039 28.1072 41.6112 28.051L41.0512 29.971C41.2639 30.033 41.475 30.091 41.6844 30.1448L42.1821 28.2077ZM41.6008 28.048C41.4344 28.0014 41.2813 27.9493 41.1406 27.8922L40.3894 29.7458C40.6045 29.833 40.8288 29.9088 41.0616 29.974L41.6008 28.048ZM40.3779 27.4487C40.2705 27.359 40.1761 27.2633 40.0933 27.1614L38.5411 28.4226C38.7072 28.6271 38.8928 28.8143 39.0965 28.9842L40.3779 27.4487ZM40.1115 27.1846C40.0289 27.0765 39.9575 26.9623 39.8966 26.8411L38.1092 27.7383C38.2262 27.9715 38.3643 28.1921 38.5228 28.3994L40.1115 27.1846ZM39.6569 26.0287C39.6381 25.8847 39.6282 25.7307 39.6282 25.566H37.6282C37.6282 25.8111 37.643 26.0517 37.6736 26.2871L39.6569 26.0287ZM39.6282 25.566V24.6219H37.6282V25.566H39.6282ZM39.6282 22.7338V20.8457H37.6282V22.7338H39.6282ZM39.6282 18.9576V17.0694H37.6282V18.9576H39.6282ZM39.6282 15.1813V13.2932H37.6282V15.1813H39.6282ZM39.6282 11.4051V10.461H37.6282V11.4051H39.6282ZM39.6282 10.461C39.6282 10.1431 39.6566 9.86001 39.7086 9.60859L37.75 9.20365C37.6672 9.60446 37.6282 10.0246 37.6282 10.461H39.6282ZM40.4082 8.29534C40.5808 8.13238 40.7909 7.98356 41.046 7.85256L40.1324 6.07343C39.7252 6.2825 39.357 6.53723 39.035 6.84127L40.4082 8.29534ZM41.046 7.85256C41.2218 7.76226 41.4203 7.67623 41.6432 7.59574L40.9638 5.71467C40.6702 5.82072 40.3925 5.93988 40.1324 6.07343L41.046 7.85256ZM42.9917 7.241C43.428 7.15925 43.9101 7.09417 44.4394 7.04696L44.2618 5.05487C43.6784 5.10689 43.1319 5.17993 42.6234 5.2752L42.9917 7.241ZM45.9302 6.9651C46.1744 6.95904 46.4257 6.956 46.6842 6.956V4.956C46.41 4.956 46.1421 4.95922 45.8806 4.96571L45.9302 6.9651ZM46.6842 6.956C46.9429 6.956 47.1943 6.95921 47.4386 6.9656L47.4909 4.96629C47.2283 4.95942 46.9594 4.956 46.6842 4.956V6.956ZM48.929 7.05198C49.4576 7.10174 49.9387 7.1703 50.3736 7.25634L50.7617 5.29435C50.2509 5.19331 49.702 5.1159 49.1164 5.06078L48.929 7.05198ZM51.7134 7.6282C51.9335 7.71204 52.1296 7.80163 52.3037 7.89571L53.2547 6.13629C52.9953 5.9961 52.7183 5.87083 52.4254 5.75924L51.7134 7.6282ZM52.3224 7.90557C52.5767 8.03615 52.7863 8.18334 52.9585 8.34346L54.3203 6.87866C54.0013 6.58207 53.6374 6.33256 53.236 6.12643L52.3224 7.90557ZM53.6591 9.62688C53.7115 9.87264 53.7402 10.1496 53.7402 10.461H55.7402C55.7402 10.0273 55.7002 9.60927 55.6152 9.21017L53.6591 9.62688ZM53.7402 10.461V11.4051H55.7402V10.461H53.7402ZM53.7402 13.2932V15.1813H55.7402V13.2932H53.7402ZM53.7402 17.0694V18.9576H55.7402V17.0694H53.7402ZM53.7402 20.8457V22.7338H55.7402V20.8457H53.7402ZM53.7402 24.6219V25.566H55.7402V24.6219H53.7402ZM53.7402 25.566C53.7402 25.7307 53.7303 25.8847 53.7115 26.0287L55.6947 26.2871C55.7254 26.0517 55.7402 25.8111 55.7402 25.566H53.7402ZM53.4717 26.8411C53.4109 26.9623 53.3394 27.0765 53.2568 27.1845L54.8455 28.3994C55.0041 28.1921 55.1421 27.9715 55.2592 27.7383L53.4717 26.8411ZM53.2512 27.192C53.1775 27.2902 53.093 27.3822 52.9965 27.4682L54.3265 28.9618C54.5206 28.789 54.696 28.599 54.8512 28.392L53.2512 27.192ZM52.2953 27.8983C52.1641 27.954 52.0203 28.0052 51.8632 28.051L52.4232 29.971C52.6496 29.9049 52.8678 29.828 53.0768 29.7393L52.2953 27.8983ZM51.8632 28.051C51.6683 28.1079 51.4747 28.1607 51.2824 28.2094L51.7743 30.148C51.9898 30.0933 52.2061 30.0343 52.4232 29.971L51.8632 28.051ZM50.1116 28.4599C49.9139 28.4942 49.7176 28.524 49.5229 28.5494L49.7815 30.5326C50.0044 30.5035 50.2282 30.4695 50.4529 30.4306L50.1116 28.4599ZM49.5617 28.5451C49.3485 28.5645 49.1176 28.5812 48.8686 28.5953L48.981 30.5921C49.2498 30.577 49.5038 30.5586 49.7427 30.5369L49.5617 28.5451ZM47.4525 28.6421C47.2235 28.6454 46.9851 28.647 46.7372 28.647V30.647C46.9938 30.647 47.2417 30.6453 47.4808 30.6419L47.4525 28.6421ZM72.3118 0.602998V0.102998H71.8118V0.602998H72.3118ZM94.0418 1.292L93.9268 1.77859L93.9287 1.77905L94.0418 1.292ZM98.3348 3.73L97.9362 4.03193L97.9413 4.0387L97.9467 4.04529L98.3348 3.73ZM98.2288 20.319L97.834 20.012L97.8288 20.019L98.2288 20.319ZM93.6178 23.022L93.4965 22.5369L93.4946 22.5374L93.6178 23.022ZM80.5798 23.817V23.317H80.0798V23.817H80.5798ZM80.5798 35V35.5H81.0798V35H80.5798ZM72.3118 35H71.8118V35.5H72.3118V35ZM90.3848 17.404L90.6291 17.8403L90.6356 17.8366L90.642 17.8327L90.3848 17.404ZM90.4378 7.016L90.2384 7.47459L90.2455 7.47754L90.4378 7.016ZM80.5798 6.486V5.986H80.0798V6.486H80.5798ZM80.5798 18.146H80.0798V18.646H80.5798V18.146ZM71.8118 0.602998V1.55847H72.8118V0.602998H71.8118ZM71.8118 3.46941V5.38036H72.8118V3.46941H71.8118ZM71.8118 7.2913V9.20225H72.8118V7.2913H71.8118ZM71.8118 11.1132V13.0241H72.8118V11.1132H71.8118ZM71.8118 14.9351V16.846H72.8118V14.9351H71.8118ZM71.8118 18.757V20.6679H72.8118V18.757H71.8118ZM71.8118 22.5789V24.4898H72.8118V22.5789H71.8118ZM71.8118 26.4007V28.3117H72.8118V26.4007H71.8118ZM71.8118 30.2226V32.1336H72.8118V30.2226H71.8118ZM71.8118 34.0445V35H72.8118V34.0445H71.8118ZM72.3118 35.5H73.3453V34.5H72.3118V35.5ZM75.4123 35.5H77.4793V34.5H75.4123V35.5ZM79.5463 35.5H80.5798V34.5H79.5463V35.5ZM81.0798 35V34.0681H80.0798V35H81.0798ZM81.0798 32.2043V30.3404H80.0798V32.2043H81.0798ZM81.0798 28.4766V26.6127H80.0798V28.4766H81.0798ZM81.0798 24.7489V23.817H80.0798V24.7489H81.0798ZM80.5798 24.317H81.7193V23.317H80.5798V24.317ZM83.9983 24.317H85.1378V23.317H83.9983V24.317ZM85.1378 24.317C85.5038 24.317 85.8623 24.3142 86.2132 24.3087L86.1974 23.3088C85.852 23.3143 85.4988 23.317 85.1378 23.317V24.317ZM88.3657 24.2347C89.1265 24.193 89.8445 24.1353 90.5195 24.0614L90.4108 23.0674C89.7558 23.139 89.0559 23.1953 88.3109 23.2362L88.3657 24.2347ZM92.6706 23.744C93.045 23.6719 93.4018 23.5928 93.741 23.5066L93.4946 22.5374C93.1762 22.6184 92.8386 22.6933 92.4816 22.762L92.6706 23.744ZM93.739 23.5071C94.2169 23.3876 94.6686 23.2493 95.0938 23.0917L94.7463 22.154C94.3586 22.2977 93.9422 22.4255 93.4965 22.5369L93.739 23.5071ZM97.6083 21.686C97.9961 21.3639 98.3368 21.0083 98.6288 20.619L97.8288 20.019C97.5858 20.3429 97.2999 20.6423 96.9694 20.9168L97.6083 21.686ZM98.6234 20.626C98.9284 20.2339 99.1884 19.8009 99.4043 19.3288L98.4948 18.913C98.3093 19.3188 98.0888 19.6846 97.8341 20.012L98.6234 20.626ZM100.14 16.4701C100.189 16.0081 100.213 15.5242 100.213 15.019H99.2128C99.2128 15.4928 99.1903 15.9418 99.1459 16.3661L100.14 16.4701ZM100.213 15.019V14.2041H99.2128V15.019H100.213ZM100.213 12.5744V10.9446H99.2128V12.5744H100.213ZM100.213 9.31487V8.5H99.2128V9.31487H100.213ZM100.213 8.5C100.213 8.04132 100.191 7.60223 100.146 7.18309L99.1513 7.28968C99.1921 7.6701 99.2128 8.07342 99.2128 8.5H100.213ZM99.4563 4.58646C99.2537 4.15867 99.0095 3.76751 98.7228 3.4147L97.9467 4.04529C98.1801 4.33254 98.3823 4.65503 98.5526 5.01449L99.4563 4.58646ZM98.7333 3.42807C98.4592 3.06628 98.1388 2.73737 97.7737 2.44106L97.1435 3.21755C97.4493 3.46571 97.713 3.73725 97.9362 4.03193L98.7333 3.42807ZM95.4175 1.16894C95.021 1.02946 94.6 0.908287 94.1548 0.80495L93.9287 1.77905C94.3416 1.87489 94.7271 1.98612 95.0856 2.11227L95.4175 1.16894ZM94.1568 0.805406C93.8384 0.730161 93.503 0.661197 93.1507 0.598396L92.9753 1.58288C93.3111 1.64274 93.6282 1.70802 93.9268 1.77859L94.1568 0.805406ZM91.1328 0.323245C90.5008 0.259562 89.8281 0.209795 89.1147 0.173805L89.0643 1.17253C89.7632 1.20779 90.4191 1.25639 91.0325 1.3182L91.1328 0.323245ZM87.0989 0.110143C86.7703 0.105377 86.4346 0.102998 86.0918 0.102998V1.103C86.43 1.103 86.7609 1.10534 87.0844 1.11004L87.0989 0.110143ZM86.0918 0.102998H84.9434V1.103H86.0918V0.102998ZM82.6468 0.102998H80.3501V1.103H82.6468V0.102998ZM78.0534 0.102998H75.7568V1.103H78.0534V0.102998ZM73.4601 0.102998H72.3118V1.103H73.4601V0.102998ZM85.8268 17.646H84.515V18.646H85.8268V17.646ZM81.8915 17.646H80.5798V18.646H81.8915V17.646ZM81.0798 18.146V17.1743H80.0798V18.146H81.0798ZM81.0798 15.231V13.2877H80.0798V15.231H81.0798ZM81.0798 11.3443V9.401H80.0798V11.3443H81.0798ZM81.0798 7.45766V6.486H80.0798V7.45766H81.0798ZM80.5798 6.986H81.865V5.986H80.5798V6.986ZM84.4355 6.986H85.7208V5.986H84.4355V6.986ZM85.7208 6.986C86.1388 6.986 86.5313 6.99174 86.8982 7.00316L86.9293 6.00364C86.5508 5.99186 86.1479 5.986 85.7208 5.986V6.986ZM89.2056 7.20016C89.663 7.27745 90.0022 7.37184 90.2384 7.47453L90.6371 6.55746C90.2979 6.40997 89.8712 6.29846 89.3723 6.21414L89.2056 7.20016ZM90.2455 7.47754C90.4215 7.5509 90.5663 7.64188 90.685 7.74768L91.3502 7.00101C91.1408 6.81441 90.8989 6.66649 90.6301 6.55446L90.2455 7.47754ZM91.1588 8.65476C91.192 8.82825 91.2098 9.02345 91.2098 9.242H92.2098C92.2098 8.96982 92.1876 8.7109 92.141 8.46687L91.1588 8.65476ZM91.2098 9.242V10.62H92.2098V9.242H91.2098ZM91.2098 13.376V14.754H92.2098V13.376H91.2098ZM91.2098 14.754C91.2098 15.0033 91.1899 15.231 91.1521 15.4385L92.1358 15.618C92.1857 15.3444 92.2098 15.056 92.2098 14.754H91.2098ZM90.6178 16.5787C90.4819 16.7276 90.3195 16.86 90.1275 16.9753L90.642 17.8327C90.9119 17.6708 91.151 17.4778 91.3564 17.2529L90.6178 16.5787ZM90.1405 16.9677C89.8963 17.1045 89.5777 17.2273 89.1752 17.3294L89.421 18.2987C89.8824 18.1817 90.2883 18.0311 90.6291 17.8403L90.1405 16.9677ZM86.9669 17.6196C86.611 17.6371 86.231 17.646 85.8268 17.646V18.646C86.2454 18.646 86.642 18.6368 87.0162 18.6184L86.9669 17.6196ZM72.3118 0.602998V-0.397002H71.3118V0.602998H72.3118ZM94.0418 1.292L93.8117 2.26519L93.8156 2.2661L94.0418 1.292ZM98.3348 3.73L97.5377 4.33386L97.5479 4.3474L97.5586 4.36059L98.3348 3.73ZM98.2288 20.319L97.4394 19.7051L97.434 19.712L97.4288 19.719L98.2288 20.319ZM93.6178 23.022L93.3752 22.0518L93.3714 22.0528L93.6178 23.022ZM80.5798 23.817V22.817H79.5798V23.817H80.5798ZM80.5798 35V36H81.5798V35H80.5798ZM72.3118 35H71.3118V36H72.3118V35ZM90.3848 17.404L90.8734 18.2765L90.8864 18.2692L90.8993 18.2615L90.3848 17.404ZM90.4378 7.016L90.039 7.93307L90.0461 7.93613L90.0531 7.93908L90.4378 7.016ZM80.5798 6.486V5.486H79.5798V6.486H80.5798ZM80.5798 18.146H79.5798V19.146H80.5798V18.146ZM71.3118 0.602998V1.55847H73.3118V0.602998H71.3118ZM71.3118 3.46941V5.38036H73.3118V3.46941H71.3118ZM71.3118 7.2913V9.20225H73.3118V7.2913H71.3118ZM71.3118 11.1132V13.0241H73.3118V11.1132H71.3118ZM71.3118 14.9351V16.846H73.3118V14.9351H71.3118ZM71.3118 18.757V20.6679H73.3118V18.757H71.3118ZM71.3118 22.5789V24.4898H73.3118V22.5789H71.3118ZM71.3118 26.4007V28.3117H73.3118V26.4007H71.3118ZM71.3118 30.2226V32.1336H73.3118V30.2226H71.3118ZM71.3118 34.0445V35H73.3118V34.0445H71.3118ZM72.3118 36H73.3453V34H72.3118V36ZM75.4123 36H77.4793V34H75.4123V36ZM79.5463 36H80.5798V34H79.5463V36ZM81.5798 35V34.0681H79.5798V35H81.5798ZM81.5798 32.2043V30.3404H79.5798V32.2043H81.5798ZM81.5798 28.4766V26.6127H79.5798V28.4766H81.5798ZM81.5798 24.7489V23.817H79.5798V24.7489H81.5798ZM80.5798 24.817H81.7193V22.817H80.5798V24.817ZM83.9983 24.817H85.1378V22.817H83.9983V24.817ZM85.1378 24.817C85.5063 24.817 85.8675 24.8142 86.2211 24.8086L86.1895 22.8089C85.8469 22.8143 85.4963 22.817 85.1378 22.817V24.817ZM88.3931 24.734C89.1618 24.6918 89.8889 24.6334 90.5739 24.5585L90.3565 22.5703C89.7115 22.6409 89.0206 22.6965 88.2835 22.737L88.3931 24.734ZM92.7652 24.2349C93.1482 24.1612 93.5147 24.08 93.8642 23.9912L93.3714 22.0528C93.0633 22.1311 92.7353 22.204 92.3871 22.271L92.7652 24.2349ZM93.8603 23.9921C94.3542 23.8687 94.8236 23.7251 95.2676 23.5606L94.5725 21.6852C94.2036 21.8219 93.8048 21.9445 93.3752 22.0519L93.8603 23.9921ZM97.9278 22.0706C98.3442 21.7248 98.7122 21.341 99.0288 20.919L97.4288 19.719C97.2103 20.0102 96.9518 20.2814 96.6499 20.5322L97.9278 22.0706ZM99.0181 20.9329C99.3482 20.5085 99.628 20.042 99.859 19.5367L98.0401 18.7051C97.8697 19.0777 97.669 19.4099 97.4394 19.7051L99.0181 20.9329ZM100.638 16.5221C100.688 16.0412 100.713 15.5399 100.713 15.019H98.7128C98.7128 15.4771 98.6911 15.9086 98.6486 16.314L100.638 16.5221ZM100.713 15.019V14.2041H98.7128V15.019H100.713ZM100.713 12.5744V10.9446H98.7128V12.5744H100.713ZM100.713 9.31487V8.5H98.7128V9.31487H100.713ZM100.713 8.5C100.713 8.02527 100.69 7.5683 100.643 7.1298L98.6542 7.34298C98.6929 7.70403 98.7128 8.08946 98.7128 8.5H100.713ZM99.9082 4.37244C99.6894 3.91049 99.4242 3.48499 99.1109 3.09941L97.5586 4.36059C97.7654 4.61506 97.9466 4.90321 98.1007 5.22851L99.9082 4.37244ZM99.1319 3.12614C98.8324 2.7308 98.4835 2.37319 98.0887 2.05282L96.8285 3.60579C97.1046 3.82988 97.3399 4.07273 97.5377 4.33386L99.1319 3.12614ZM95.5834 0.69728C95.168 0.551134 94.7292 0.424984 94.2679 0.317901L93.8156 2.2661C94.2124 2.3582 94.5801 2.46445 94.9197 2.58393L95.5834 0.69728ZM94.2718 0.318813C93.9436 0.24123 93.599 0.170424 93.2385 0.106157L92.8875 2.07512C93.2151 2.13352 93.5231 2.19695 93.8117 2.26518L94.2718 0.318813ZM91.1829 -0.174235C90.5417 -0.238853 89.8606 -0.289202 89.1399 -0.32556L89.0392 1.6719C89.7307 1.70679 90.3783 1.75481 90.9823 1.81569L91.1829 -0.174235ZM87.1061 -0.389805C86.7751 -0.394607 86.437 -0.397002 86.0918 -0.397002V1.603C86.4277 1.603 86.7562 1.60533 87.0771 1.60999L87.1061 -0.389805ZM86.0918 -0.397002H84.9434V1.603H86.0918V-0.397002ZM82.6468 -0.397002H80.3501V1.603H82.6468V-0.397002ZM78.0534 -0.397002H75.7568V1.603H78.0534V-0.397002ZM73.4601 -0.397002H72.3118V1.603H73.4601V-0.397002ZM85.8268 17.146H84.515V19.146H85.8268V17.146ZM81.8915 17.146H80.5798V19.146H81.8915V17.146ZM81.5798 18.146V17.1743H79.5798V18.146H81.5798ZM81.5798 15.231V13.2877H79.5798V15.231H81.5798ZM81.5798 11.3443V9.401H79.5798V11.3443H81.5798ZM81.5798 7.45766V6.486H79.5798V7.45766H81.5798ZM80.5798 7.486H81.865V5.486H80.5798V7.486ZM84.4355 7.486H85.7208V5.486H84.4355V7.486ZM85.7208 7.486C86.1343 7.486 86.5215 7.49168 86.8826 7.50292L86.9448 5.50389C86.5605 5.49192 86.1524 5.486 85.7208 5.486V7.486ZM89.1223 7.69317C89.5589 7.76695 89.8543 7.85277 90.039 7.93307L90.8365 6.09893C90.4457 5.92904 89.9753 5.80896 89.4556 5.72113L89.1223 7.69317ZM90.0531 7.93908C90.1828 7.99311 90.279 8.05562 90.3524 8.12102L91.6828 6.62767C91.428 6.40067 91.1377 6.22429 90.8224 6.09292L90.0531 7.93908ZM90.6677 8.7487C90.6941 8.88692 90.7098 9.05026 90.7098 9.242H92.7098C92.7098 8.94301 92.6855 8.65223 92.632 8.37292L90.6677 8.7487ZM90.7098 9.242V10.62H92.7098V9.242H90.7098ZM90.7098 13.376V14.754H92.7098V13.376H90.7098ZM90.7098 14.754C90.7098 14.9769 90.692 15.1744 90.6602 15.3488L92.6277 15.7077C92.6836 15.4011 92.7098 15.0824 92.7098 14.754H90.7098ZM90.2484 16.2417C90.1474 16.3524 90.0234 16.4546 89.8703 16.5465L90.8993 18.2615C91.2081 18.0762 91.4856 17.853 91.7257 17.59L90.2484 16.2417ZM89.8962 16.5315C89.7003 16.6412 89.4254 16.7501 89.0523 16.8447L89.544 18.7833C90.0347 18.6589 90.4842 18.4944 90.8734 18.2765L89.8962 16.5315ZM86.9422 17.1202C86.5955 17.1373 86.2238 17.146 85.8268 17.146V19.146C86.2526 19.146 86.6575 19.1367 87.0409 19.1177L86.9422 17.1202ZM105.275 29.117V28.617H104.775V29.117H105.275ZM109.515 27.474L109.127 27.1587L109.126 27.1601L109.515 27.474ZM111.635 21.326L111.142 21.2438L111.635 21.326ZM112.377 0.602998V0.102998H111.877V0.602998H112.377ZM137.393 0.602998H137.893V0.102998H137.393V0.602998ZM137.393 29.117H136.893V29.617H137.393V29.117ZM142.428 29.117H142.928V28.617H142.428V29.117ZM142.428 43.003V43.503H142.928V43.003H142.428ZM135.008 43.003H134.508V43.503H135.008V43.003ZM135.008 35H135.508V34.5H135.008V35ZM112.695 35V34.5H112.195V35H112.695ZM112.695 43.003V43.503H113.195V43.003H112.695ZM105.275 43.003H104.775V43.503H105.275V43.003ZM129.125 29.17V29.67H129.625V29.17H129.125ZM129.125 6.433H129.625V5.933H129.125V6.433ZM119.797 6.433V5.933H119.297V6.433H119.797ZM116.352 29.17L115.938 28.8897L115.41 29.67H116.352V29.17ZM104.775 29.117V30.2742H105.775V29.117H104.775ZM104.775 32.5885V34.9028H105.775V32.5885H104.775ZM104.775 37.2172V39.5315H105.775V37.2172H104.775ZM104.775 41.8458V43.003H105.775V41.8458H104.775ZM105.275 43.503H106.203V42.503H105.275V43.503ZM108.058 43.503H109.913V42.503H108.058V43.503ZM111.768 43.503H112.695V42.503H111.768V43.503ZM113.195 43.003V42.0026H112.195V43.003H113.195ZM113.195 40.0019V38.0011H112.195V40.0019H113.195ZM113.195 36.0004V35H112.195V36.0004H113.195ZM112.695 35.5H113.625V34.5H112.695V35.5ZM115.484 35.5H117.344V34.5H115.484V35.5ZM119.203 35.5H121.063V34.5H119.203V35.5ZM122.922 35.5H124.781V34.5H122.922V35.5ZM126.641 35.5H128.5V34.5H126.641V35.5ZM130.36 35.5H132.219V34.5H130.36V35.5ZM134.079 35.5H135.008V34.5H134.079V35.5ZM134.508 35V36.0004H135.508V35H134.508ZM134.508 38.0011V40.0019H135.508V38.0011H134.508ZM134.508 42.0026V43.003H135.508V42.0026H134.508ZM135.008 43.503H135.936V42.503H135.008V43.503ZM137.791 43.503H139.646V42.503H137.791V43.503ZM141.501 43.503H142.428V42.503H141.501V43.503ZM142.928 43.003V41.8458H141.928V43.003H142.928ZM142.928 39.5315V37.2172H141.928V39.5315H142.928ZM142.928 34.9028V32.5885H141.928V34.9028H142.928ZM142.928 30.2742V29.117H141.928V30.2742H142.928ZM142.428 28.617H141.17V29.617H142.428V28.617ZM138.652 28.617H137.393V29.617H138.652V28.617ZM137.893 29.117V28.0986H136.893V29.117H137.893ZM137.893 26.0619V24.0252H136.893V26.0619H137.893ZM137.893 21.9885V19.9518H136.893V21.9885H137.893ZM137.893 17.9151V15.8784H136.893V17.9151H137.893ZM137.893 13.8416V11.8049H136.893V13.8416H137.893ZM137.893 9.76821V7.7315H136.893V9.76821H137.893ZM137.893 5.69478V3.65807H136.893V5.69478H137.893ZM137.893 1.62136V0.602998H136.893V1.62136H137.893ZM137.393 0.102998H136.351V1.103H137.393V0.102998ZM134.266 0.102998H132.182V1.103H134.266V0.102998ZM130.097 0.102998H128.012V1.103H130.097V0.102998ZM125.928 0.102998H123.843V1.103H125.928V0.102998ZM121.758 0.102998H119.674V1.103H121.758V0.102998ZM117.589 0.102998H115.504V1.103H117.589V0.102998ZM113.42 0.102998H112.377V1.103H113.42V0.102998ZM111.877 0.602998V1.61662H112.877V0.602998H111.877ZM111.877 3.64387V5.67112H112.877V3.64387H111.877ZM111.877 7.69837V8.712H112.877V7.69837H111.877ZM111.877 8.712C111.877 9.06778 111.876 9.41821 111.874 9.76329L112.874 9.76943C112.876 9.42224 112.877 9.06976 112.877 8.712H111.877ZM111.847 11.8647C111.832 12.5912 111.812 13.2906 111.786 13.9628L112.786 14.0007C112.811 13.3222 112.832 12.617 112.847 11.885L111.847 11.8647ZM111.684 16.0573C111.64 16.792 111.588 17.4874 111.528 18.1435L112.524 18.2342C112.585 17.5669 112.637 16.8614 112.682 16.1177L111.684 16.0573ZM111.296 20.2174C111.248 20.5754 111.196 20.9175 111.142 21.2438L112.128 21.4082C112.185 21.0711 112.238 20.7189 112.287 20.3517L111.296 20.2174ZM111.142 21.2438C111.096 21.5174 111.049 21.7829 111 22.0401L111.982 22.2277C112.033 21.9624 112.082 21.6892 112.128 21.4082L111.142 21.2438ZM110.652 23.6124C110.508 24.1742 110.353 24.6813 110.188 25.1347L111.127 25.4767C111.305 24.9877 111.469 24.4488 111.62 23.861L110.652 23.6124ZM109.545 26.5459C109.409 26.7804 109.269 26.9841 109.127 27.1587L109.903 27.7893C110.082 27.5689 110.251 27.3215 110.409 27.0488L109.545 26.5459ZM109.126 27.1601C108.929 27.4042 108.719 27.6152 108.497 27.7948L109.125 28.5729C109.406 28.3457 109.666 28.0834 109.904 27.7879L109.126 27.1601ZM106.915 28.5318C106.634 28.5881 106.335 28.617 106.017 28.617V29.617C106.396 29.617 106.761 29.5826 107.111 29.5123L106.915 28.5318ZM106.017 28.617H105.832V29.617H106.017V28.617ZM105.461 28.617H105.275V29.617H105.461V28.617ZM129.125 28.67H128.061V29.67H129.125V28.67ZM125.932 28.67H123.803V29.67H125.932V28.67ZM121.674 28.67H119.546V29.67H121.674V28.67ZM117.417 28.67H116.352V29.67H117.417V28.67ZM116.766 29.4503C116.947 29.1832 117.121 28.9008 117.286 28.6033L116.413 28.1161C116.26 28.3901 116.102 28.6478 115.938 28.8897L116.766 29.4503ZM118.124 26.8206C118.352 26.2454 118.561 25.6296 118.752 24.9739L117.792 24.6943C117.609 25.3233 117.409 25.9092 117.194 26.4524L118.124 26.8206ZM119.226 23.0936C119.357 22.4891 119.477 21.8566 119.584 21.1963L118.596 21.0364C118.492 21.6806 118.376 22.2956 118.249 22.8813L119.226 23.0936ZM119.85 19.2889C119.923 18.6725 119.987 18.035 120.042 17.3764L119.046 17.2929C118.991 17.9407 118.928 18.5668 118.857 19.1711L119.85 19.2889ZM120.174 15.4604C120.208 14.8393 120.235 14.2015 120.255 13.5469L119.256 13.5165C119.236 14.1634 119.209 14.7931 119.176 15.4056L120.174 15.4604ZM120.293 11.6311C120.296 11.3153 120.297 10.9959 120.297 10.673H119.297C119.297 10.9928 119.296 11.3091 119.293 11.6217L120.293 11.6311ZM120.297 10.673V9.613H119.297V10.673H120.297ZM120.297 7.493V6.433H119.297V7.493H120.297ZM119.797 6.933H120.963V5.933H119.797V6.933ZM123.295 6.933H125.627V5.933H123.295V6.933ZM127.959 6.933H129.125V5.933H127.959V6.933ZM128.625 6.433V7.38037H129.625V6.433H128.625ZM128.625 9.27512V11.1699H129.625V9.27512H128.625ZM128.625 13.0646V14.9594H129.625V13.0646H128.625ZM128.625 16.8541V18.7489H129.625V16.8541H128.625ZM128.625 20.6436V22.5384H129.625V20.6436H128.625ZM128.625 24.4331V26.3279H129.625V24.4331H128.625ZM128.625 28.2226V29.17H129.625V28.2226H128.625ZM105.275 29.117V28.117H104.275V29.117H105.275ZM109.515 27.474L108.739 26.8434L108.737 26.8462L109.515 27.474ZM111.635 21.326L110.649 21.1616L111.635 21.326ZM112.377 0.602998V-0.397002H111.377V0.602998H112.377ZM137.393 0.602998H138.393V-0.397002H137.393V0.602998ZM137.393 29.117H136.393V30.117H137.393V29.117ZM142.428 29.117H143.428V28.117H142.428V29.117ZM142.428 43.003V44.003H143.428V43.003H142.428ZM135.008 43.003H134.008V44.003H135.008V43.003ZM135.008 35H136.008V34H135.008V35ZM112.695 35V34H111.695V35H112.695ZM112.695 43.003V44.003H113.695V43.003H112.695ZM105.275 43.003H104.275V44.003H105.275V43.003ZM129.125 29.17V30.17H130.125V29.17H129.125ZM129.125 6.433H130.125V5.433H129.125V6.433ZM119.797 6.433V5.433H118.797V6.433H119.797ZM116.352 29.17L115.524 28.6093L114.468 30.17H116.352V29.17ZM104.275 29.117V30.2742H106.275V29.117H104.275ZM104.275 32.5885V34.9028H106.275V32.5885H104.275ZM104.275 37.2172V39.5315H106.275V37.2172H104.275ZM104.275 41.8458V43.003H106.275V41.8458H104.275ZM105.275 44.003H106.203V42.003H105.275V44.003ZM108.058 44.003H109.913V42.003H108.058V44.003ZM111.768 44.003H112.695V42.003H111.768V44.003ZM113.695 43.003V42.0026H111.695V43.003H113.695ZM113.695 40.0019V38.0011H111.695V40.0019H113.695ZM113.695 36.0004V35H111.695V36.0004H113.695ZM112.695 36H113.625V34H112.695V36ZM115.484 36H117.344V34H115.484V36ZM119.203 36H121.063V34H119.203V36ZM122.922 36H124.781V34H122.922V36ZM126.641 36H128.5V34H126.641V36ZM130.36 36H132.219V34H130.36V36ZM134.079 36H135.008V34H134.079V36ZM134.008 35V36.0004H136.008V35H134.008ZM134.008 38.0011V40.0019H136.008V38.0011H134.008ZM134.008 42.0026V43.003H136.008V42.0026H134.008ZM135.008 44.003H135.936V42.003H135.008V44.003ZM137.791 44.003H139.646V42.003H137.791V44.003ZM141.501 44.003H142.428V42.003H141.501V44.003ZM143.428 43.003V41.8458H141.428V43.003H143.428ZM143.428 39.5315V37.2172H141.428V39.5315H143.428ZM143.428 34.9028V32.5885H141.428V34.9028H143.428ZM143.428 30.2742V29.117H141.428V30.2742H143.428ZM142.428 28.117H141.17V30.117H142.428V28.117ZM138.652 28.117H137.393V30.117H138.652V28.117ZM138.393 29.117V28.0986H136.393V29.117H138.393ZM138.393 26.0619V24.0252H136.393V26.0619H138.393ZM138.393 21.9885V19.9518H136.393V21.9885H138.393ZM138.393 17.9151V15.8784H136.393V17.9151H138.393ZM138.393 13.8416V11.8049H136.393V13.8416H138.393ZM138.393 9.76821V7.7315H136.393V9.76821H138.393ZM138.393 5.69478V3.65807H136.393V5.69478H138.393ZM138.393 1.62136V0.602998H136.393V1.62136H138.393ZM137.393 -0.397002H136.351V1.603H137.393V-0.397002ZM134.266 -0.397002H132.182V1.603H134.266V-0.397002ZM130.097 -0.397002H128.012V1.603H130.097V-0.397002ZM125.928 -0.397002H123.843V1.603H125.928V-0.397002ZM121.758 -0.397002H119.674V1.603H121.758V-0.397002ZM117.589 -0.397002H115.504V1.603H117.589V-0.397002ZM113.42 -0.397002H112.377V1.603H113.42V-0.397002ZM111.377 0.602998V1.61662H113.377V0.602998H111.377ZM111.377 3.64387V5.67112H113.377V3.64387H111.377ZM111.377 7.69837V8.712H113.377V7.69837H111.377ZM111.377 8.712C111.377 9.06678 111.376 9.41619 111.374 9.76021L113.374 9.7725C113.376 9.42426 113.377 9.07075 113.377 8.712H111.377ZM111.347 11.8545C111.332 12.5784 111.312 13.2748 111.287 13.9438L113.285 14.0197C113.311 13.338 113.331 12.6298 113.346 11.8952L111.347 11.8545ZM111.185 16.0271C111.141 16.7573 111.089 17.4476 111.03 18.0982L113.022 18.2795C113.083 17.6067 113.136 16.8961 113.182 16.1479L111.185 16.0271ZM110.801 20.1503C110.753 20.5037 110.702 20.8408 110.649 21.1616L112.622 21.4904C112.679 21.1478 112.732 20.7906 112.783 20.4188L110.801 20.1503ZM110.649 21.1616C110.604 21.4316 110.557 21.6931 110.509 21.9462L112.473 22.3216C112.525 22.0521 112.574 21.7751 112.622 21.4904L110.649 21.1616ZM110.167 23.4881C110.027 24.0369 109.876 24.5281 109.718 24.9637L111.597 25.6477C111.782 25.1409 111.95 24.5862 112.105 23.9853L110.167 23.4881ZM109.113 26.2944C108.988 26.5098 108.862 26.6916 108.739 26.8434L110.291 28.1046C110.489 27.8613 110.672 27.592 110.842 27.3002L109.113 26.2944ZM108.737 26.8462C108.561 27.0646 108.376 27.25 108.183 27.4057L109.439 28.9619C109.75 28.7109 110.035 28.423 110.294 28.1018L108.737 26.8462ZM106.816 28.0416C106.571 28.0909 106.305 28.117 106.017 28.117V30.117C106.426 30.117 106.824 30.0798 107.21 30.0025L106.816 28.0416ZM106.017 28.117H105.832V30.117H106.017V28.117ZM105.461 28.117H105.275V30.117H105.461V28.117ZM129.125 28.17H128.061V30.17H129.125V28.17ZM125.932 28.17H123.803V30.17H125.932V28.17ZM121.674 28.17H119.546V30.17H121.674V28.17ZM117.417 28.17H116.352V30.17H117.417V28.17ZM117.18 29.7307C117.37 29.4509 117.551 29.1561 117.723 28.8469L115.976 27.8726C115.83 28.1347 115.679 28.3802 115.524 28.6093L117.18 29.7307ZM118.589 27.0047C118.823 26.4134 119.037 25.7828 119.232 25.1137L117.312 24.5545C117.132 25.1702 116.938 25.7411 116.729 26.2683L118.589 27.0047ZM119.715 23.1998C119.848 22.5859 119.969 21.9446 120.077 21.2762L118.103 20.9564C118 21.5926 117.886 22.1988 117.76 22.7752L119.715 23.1998ZM120.346 19.3479C120.42 18.7253 120.485 18.0821 120.54 17.4182L118.547 17.2512C118.493 17.8936 118.431 18.5139 118.36 19.1121L120.346 19.3479ZM120.673 15.4878C120.708 14.8624 120.735 14.2205 120.755 13.5622L118.756 13.5013C118.736 14.1443 118.71 14.7699 118.676 15.3782L120.673 15.4878ZM120.793 11.6359C120.796 11.3184 120.797 10.9975 120.797 10.673H118.797C118.797 10.9913 118.796 11.306 118.793 11.617L120.793 11.6359ZM120.797 10.673V9.613H118.797V10.673H120.797ZM120.797 7.493V6.433H118.797V7.493H120.797ZM119.797 7.433H120.963V5.433H119.797V7.433ZM123.295 7.433H125.627V5.433H123.295V7.433ZM127.959 7.433H129.125V5.433H127.959V7.433ZM128.125 6.433V7.38037H130.125V6.433H128.125ZM128.125 9.27512V11.1699H130.125V9.27512H128.125ZM128.125 13.0646V14.9594H130.125V13.0646H128.125ZM128.125 16.8541V18.7489H130.125V16.8541H128.125ZM128.125 20.6436V22.5384H130.125V20.6436H128.125ZM128.125 24.4331V26.3279H130.125V24.4331H128.125ZM128.125 28.2226V29.17H130.125V28.2226H128.125ZM149.969 0.602998V0.102998H149.469V0.602998H149.969ZM158.237 0.602998H158.737V0.102998H158.237V0.602998ZM158.237 24.135H157.737V25.8652L158.66 24.4017L158.237 24.135ZM173.077 0.602998V0.102998H172.801L172.654 0.336287L173.077 0.602998ZM181.345 0.602998H181.845V0.102998H181.345V0.602998ZM181.345 35V35.5H181.845V35H181.345ZM173.077 35H172.577V35.5H173.077V35ZM173.077 11.097H173.577V9.3437L172.652 10.8333L173.077 11.097ZM158.237 35V35.5H158.515L158.662 35.2637L158.237 35ZM149.969 35H149.469V35.5H149.969V35ZM149.469 0.602998V1.55847H150.469V0.602998H149.469ZM149.469 3.46941V5.38036H150.469V3.46941H149.469ZM149.469 7.2913V9.20225H150.469V7.2913H149.469ZM149.469 11.1132V13.0241H150.469V11.1132H149.469ZM149.469 14.9351V16.846H150.469V14.9351H149.469ZM149.469 18.757V20.6679H150.469V18.757H149.469ZM149.469 22.5789V24.4898H150.469V22.5789H149.469ZM149.469 26.4007V28.3117H150.469V26.4007H149.469ZM149.469 30.2226V32.1336H150.469V30.2226H149.469ZM149.469 34.0445V35H150.469V34.0445H149.469ZM149.969 35.5H151.003V34.5H149.969V35.5ZM153.07 35.5H155.137V34.5H153.07V35.5ZM157.204 35.5H158.237V34.5H157.204V35.5ZM158.662 35.2637L159.192 34.41L158.342 33.8826L157.812 34.7363L158.662 35.2637ZM160.252 32.7027L161.312 30.9953L160.462 30.4679L159.402 32.1752L160.252 32.7027ZM162.372 29.288L163.432 27.5806L162.582 27.0532L161.522 28.7605L162.372 29.288ZM164.492 25.8733L165.552 24.1659L164.702 23.6385L163.642 25.3458L164.492 25.8733ZM166.612 22.4585L167.672 20.7512L166.822 20.2237L165.762 21.9311L166.612 22.4585ZM168.732 19.0438L169.792 17.3365L168.942 16.809L167.882 18.5164L168.732 19.0438ZM170.852 15.6291L171.912 13.9218L171.062 13.3943L170.002 15.1017L170.852 15.6291ZM172.972 12.2144L173.502 11.3607L172.652 10.8333L172.122 11.687L172.972 12.2144ZM172.577 11.097V12.093H173.577V11.097H172.577ZM172.577 14.0849V16.0768H173.577V14.0849H172.577ZM172.577 18.0687V20.0606H173.577V18.0687H172.577ZM172.577 22.0525V24.0445H173.577V22.0525H172.577ZM172.577 26.0364V28.0283H173.577V26.0364H172.577ZM172.577 30.0202V32.0121H173.577V30.0202H172.577ZM172.577 34.004V35H173.577V34.004H172.577ZM173.077 35.5H174.111V34.5H173.077V35.5ZM176.178 35.5H178.245V34.5H176.178V35.5ZM180.312 35.5H181.345V34.5H180.312V35.5ZM181.845 35V34.0445H180.845V35H181.845ZM181.845 32.1336V30.2226H180.845V32.1336H181.845ZM181.845 28.3117V26.4007H180.845V28.3117H181.845ZM181.845 24.4898V22.5789H180.845V24.4898H181.845ZM181.845 20.6679V18.757H180.845V20.6679H181.845ZM181.845 16.846V14.9351H180.845V16.846H181.845ZM181.845 13.0241V11.1132H180.845V13.0241H181.845ZM181.845 9.20225V7.29131H180.845V9.20225H181.845ZM181.845 5.38036V3.46942H180.845V5.38036H181.845ZM181.845 1.55847V0.602998H180.845V1.55847H181.845ZM181.345 0.102998H180.312V1.103H181.345V0.102998ZM178.245 0.102998H176.178V1.103H178.245V0.102998ZM174.111 0.102998H173.077V1.103H174.111V0.102998ZM172.654 0.336287L172.124 1.17672L172.97 1.71014L173.5 0.869707L172.654 0.336287ZM171.064 2.85757L170.004 4.53843L170.85 5.07185L171.91 3.39099L171.064 2.85757ZM168.944 6.21929L167.884 7.90014L168.73 8.43357L169.79 6.75271L168.944 6.21929ZM166.824 9.581L165.764 11.2619L166.61 11.7953L167.67 10.1144L166.824 9.581ZM164.704 12.9427L163.644 14.6236L164.49 15.157L165.55 13.4761L164.704 12.9427ZM162.584 16.3044L161.524 17.9853L162.37 18.5187L163.43 16.8378L162.584 16.3044ZM160.464 19.6661L159.404 21.347L160.25 21.8804L161.31 20.1996L160.464 19.6661ZM158.344 23.0279L157.814 23.8683L158.66 24.4017L159.19 23.5613L158.344 23.0279ZM158.737 24.135V23.1545H157.737V24.135H158.737ZM158.737 21.1935V19.2325H157.737V21.1935H158.737ZM158.737 17.2715V15.3105H157.737V17.2715H158.737ZM158.737 13.3495V11.3885H157.737V13.3495H158.737ZM158.737 9.4275V7.4665H157.737V9.4275H158.737ZM158.737 5.5055V3.5445H157.737V5.5055H158.737ZM158.737 1.5835V0.602998H157.737V1.5835H158.737ZM158.237 0.102998H157.204V1.103H158.237V0.102998ZM155.137 0.102998H153.07V1.103H155.137V0.102998ZM151.003 0.102998H149.969V1.103H151.003V0.102998ZM149.969 0.602998V-0.397002H148.969V0.602998H149.969ZM158.237 0.602998H159.237V-0.397002H158.237V0.602998ZM158.237 24.135H157.237V27.5954L159.083 24.6684L158.237 24.135ZM173.077 0.602998V-0.397002H172.526L172.231 0.0695782L173.077 0.602998ZM181.345 0.602998H182.345V-0.397002H181.345V0.602998ZM181.345 35V36H182.345V35H181.345ZM173.077 35H172.077V36H173.077V35ZM173.077 11.097H174.077V7.59039L172.228 10.5695L173.077 11.097ZM158.237 35V36H158.793L159.087 35.5275L158.237 35ZM149.969 35H148.969V36H149.969V35ZM148.969 0.602998V1.55847H150.969V0.602998H148.969ZM148.969 3.46941V5.38036H150.969V3.46941H148.969ZM148.969 7.2913V9.20225H150.969V7.2913H148.969ZM148.969 11.1132V13.0241H150.969V11.1132H148.969ZM148.969 14.9351V16.846H150.969V14.9351H148.969ZM148.969 18.757V20.6679H150.969V18.757H148.969ZM148.969 22.5789V24.4898H150.969V22.5789H148.969ZM148.969 26.4007V28.3117H150.969V26.4007H148.969ZM148.969 30.2226V32.1336H150.969V30.2226H148.969ZM148.969 34.0445V35H150.969V34.0445H148.969ZM149.969 36H151.003V34H149.969V36ZM153.07 36H155.137V34H153.07V36ZM157.204 36H158.237V34H157.204V36ZM159.087 35.5275L159.617 34.6738L157.918 33.6189L157.388 34.4725L159.087 35.5275ZM160.677 32.9664L161.737 31.2591L160.038 30.2042L158.978 31.9115L160.677 32.9664ZM162.797 29.5517L163.857 27.8443L162.158 26.7894L161.098 28.4968L162.797 29.5517ZM164.917 26.137L165.977 24.4296L164.278 23.3747L163.218 25.0821L164.917 26.137ZM167.037 22.7223L168.097 21.0149L166.398 19.96L165.338 21.6674L167.037 22.7223ZM169.157 19.3076L170.217 17.6002L168.518 16.5453L167.458 18.2527L169.157 19.3076ZM171.277 15.8929L172.337 14.1855L170.638 13.1306L169.578 14.8379L171.277 15.8929ZM173.397 12.4781L173.927 11.6245L172.228 10.5695L171.698 11.4232L173.397 12.4781ZM172.077 11.097V12.093H174.077V11.097H172.077ZM172.077 14.0849V16.0768H174.077V14.0849H172.077ZM172.077 18.0687V20.0606H174.077V18.0687H172.077ZM172.077 22.0525V24.0445H174.077V22.0525H172.077ZM172.077 26.0364V28.0283H174.077V26.0364H172.077ZM172.077 30.0202V32.0121H174.077V30.0202H172.077ZM172.077 34.004V35H174.077V34.004H172.077ZM173.077 36H174.111V34H173.077V36ZM176.178 36H178.245V34H176.178V36ZM180.312 36H181.345V34H180.312V36ZM182.345 35V34.0445H180.345V35H182.345ZM182.345 32.1336V30.2226H180.345V32.1336H182.345ZM182.345 28.3117V26.4007H180.345V28.3117H182.345ZM182.345 24.4898V22.5789H180.345V24.4898H182.345ZM182.345 20.6679V18.757H180.345V20.6679H182.345ZM182.345 16.846V14.9351H180.345V16.846H182.345ZM182.345 13.0241V11.1132H180.345V13.0241H182.345ZM182.345 9.20225V7.29131H180.345V9.20225H182.345ZM182.345 5.38036V3.46942H180.345V5.38036H182.345ZM182.345 1.55847V0.602998H180.345V1.55847H182.345ZM181.345 -0.397002H180.312V1.603H181.345V-0.397002ZM178.245 -0.397002H176.178V1.603H178.245V-0.397002ZM174.111 -0.397002H173.077V1.603H174.111V-0.397002ZM172.231 0.0695782L171.701 0.910007L173.393 1.97684L173.923 1.13642L172.231 0.0695782ZM170.641 2.59086L169.581 4.27172L171.273 5.33856L172.333 3.6577L170.641 2.59086ZM168.521 5.95258L167.461 7.63344L169.153 8.70028L170.213 7.01942L168.521 5.95258ZM166.401 9.31429L165.341 10.9951L167.033 12.062L168.093 10.3811L166.401 9.31429ZM164.281 12.676L163.221 14.3569L164.913 15.4237L165.973 13.7428L164.281 12.676ZM162.161 16.0377L161.101 17.7186L162.793 18.7854L163.853 17.1046L162.161 16.0377ZM160.041 19.3994L158.981 21.0803L160.673 22.1471L161.733 20.4663L160.041 19.3994ZM157.921 22.7612L157.391 23.6016L159.083 24.6684L159.613 23.828L157.921 22.7612ZM159.237 24.135V23.1545H157.237V24.135H159.237ZM159.237 21.1935V19.2325H157.237V21.1935H159.237ZM159.237 17.2715V15.3105H157.237V17.2715H159.237ZM159.237 13.3495V11.3885H157.237V13.3495H159.237ZM159.237 9.4275V7.4665H157.237V9.4275H159.237ZM159.237 5.5055V3.5445H157.237V5.5055H159.237ZM159.237 1.5835V0.602998H157.237V1.5835H159.237ZM158.237 -0.397002H157.204V1.603H158.237V-0.397002ZM155.137 -0.397002H153.07V1.603H155.137V-0.397002ZM151.003 -0.397002H149.969V1.603H151.003V-0.397002ZM191.438 0.602998V0.102998H190.938V0.602998H191.438ZM203.204 0.602998L203.676 0.440002L203.56 0.102998H203.204V0.602998ZM211.684 25.195L211.211 25.358L211.687 26.7374L212.157 25.3562L211.684 25.195ZM220.058 0.602998V0.102998H219.7L219.584 0.441827L220.058 0.602998ZM231.135 0.602998H231.635V0.102998H231.135V0.602998ZM231.135 35V35.5H231.635V35H231.135ZM223.662 35H223.162V35.5H223.662V35ZM223.662 9.56H224.162V9.06H223.662V9.56ZM223.503 9.56V9.06H223.145L223.029 9.39834L223.503 9.56ZM214.811 35V35.5H215.168L215.284 35.1617L214.811 35ZM208.186 35L207.714 35.166L207.831 35.5H208.186V35ZM199.229 9.56L199.7 9.39395L199.583 9.06H199.229V9.56ZM199.017 9.56V9.06H198.517V9.56H199.017ZM199.017 35V35.5H199.517V35H199.017ZM191.438 35H190.938V35.5H191.438V35ZM190.938 0.602998V1.55847H191.938V0.602998H190.938ZM190.938 3.46941V5.38036H191.938V3.46941H190.938ZM190.938 7.2913V9.20225H191.938V7.2913H190.938ZM190.938 11.1132V13.0241H191.938V11.1132H190.938ZM190.938 14.9351V16.846H191.938V14.9351H190.938ZM190.938 18.757V20.6679H191.938V18.757H190.938ZM190.938 22.5789V24.4898H191.938V22.5789H190.938ZM190.938 26.4007V28.3117H191.938V26.4007H190.938ZM190.938 30.2226V32.1336H191.938V30.2226H190.938ZM190.938 34.0445V35H191.938V34.0445H190.938ZM191.438 35.5H192.385V34.5H191.438V35.5ZM194.28 35.5H196.174V34.5H194.28V35.5ZM198.069 35.5H199.017V34.5H198.069V35.5ZM199.517 35V33.94H198.517V35H199.517ZM199.517 31.82V29.7H198.517V31.82H199.517ZM199.517 27.58V25.46H198.517V27.58H199.517ZM199.517 23.34V21.22H198.517V23.34H199.517ZM199.517 19.1V16.98H198.517V19.1H199.517ZM199.517 14.86V12.74H198.517V14.86H199.517ZM199.517 10.62V9.56H198.517V10.62H199.517ZM199.017 10.06H199.07V9.06H199.017V10.06ZM199.176 10.06H199.229V9.06H199.176V10.06ZM198.757 9.72605L199.077 10.6346L200.02 10.3025L199.7 9.39395L198.757 9.72605ZM199.717 12.4518L200.356 14.2689L201.3 13.9368L200.66 12.1197L199.717 12.4518ZM200.996 16.0861L201.636 17.9032L202.579 17.5711L201.939 15.7539L200.996 16.0861ZM202.276 19.7203L202.916 21.5375L203.859 21.2054L203.219 19.3882L202.276 19.7203ZM203.555 23.3546L204.195 25.1718L205.138 24.8397L204.499 23.0225L203.555 23.3546ZM204.835 26.9889L205.475 28.8061L206.418 28.4739L205.778 26.6568L204.835 26.9889ZM206.114 30.6232L206.754 32.4403L207.697 32.1082L207.058 30.2911L206.114 30.6232ZM207.394 34.2575L207.714 35.166L208.657 34.834L208.337 33.9254L207.394 34.2575ZM208.186 35.5H209.014V34.5H208.186V35.5ZM210.67 35.5H212.326V34.5H210.67V35.5ZM213.982 35.5H214.811V34.5H213.982V35.5ZM215.284 35.1617L215.594 34.2531L214.648 33.9298L214.337 34.8383L215.284 35.1617ZM216.215 32.4359L216.836 30.6188L215.89 30.2955L215.269 32.1126L216.215 32.4359ZM217.457 28.8017L218.078 26.9845L217.131 26.6612L216.51 28.4783L217.457 28.8017ZM218.698 25.1674L219.319 23.3502L218.373 23.0269L217.752 24.8441L218.698 25.1674ZM219.94 21.5331L220.561 19.7159L219.615 19.3926L218.994 21.2098L219.94 21.5331ZM221.182 17.8988L221.803 16.0817L220.856 15.7583L220.236 17.5755L221.182 17.8988ZM222.424 14.2645L223.044 12.4474L222.098 12.1241L221.477 13.9412L222.424 14.2645ZM223.665 10.6302L223.976 9.72166L223.029 9.39834L222.719 10.3069L223.665 10.6302ZM223.503 10.06H223.542V9.06H223.503V10.06ZM223.622 10.06H223.662V9.06H223.622V10.06ZM223.162 9.56V10.62H224.162V9.56H223.162ZM223.162 12.74V14.86H224.162V12.74H223.162ZM223.162 16.98V19.1H224.162V16.98H223.162ZM223.162 21.22V23.34H224.162V21.22H223.162ZM223.162 25.46V27.58H224.162V25.46H223.162ZM223.162 29.7V31.82H224.162V29.7H223.162ZM223.162 33.94V35H224.162V33.94H223.162ZM223.662 35.5H224.596V34.5H223.662V35.5ZM226.464 35.5H228.332V34.5H226.464V35.5ZM230.2 35.5H231.135V34.5H230.2V35.5ZM231.635 35V34.0445H230.635V35H231.635ZM231.635 32.1336V30.2226H230.635V32.1336H231.635ZM231.635 28.3117V26.4007H230.635V28.3117H231.635ZM231.635 24.4898V22.5789H230.635V24.4898H231.635ZM231.635 20.6679V18.757H230.635V20.6679H231.635ZM231.635 16.846V14.9351H230.635V16.846H231.635ZM231.635 13.0241V11.1132H230.635V13.0241H231.635ZM231.635 9.20225V7.29131H230.635V9.20225H231.635ZM231.635 5.38036V3.46942H230.635V5.38036H231.635ZM231.635 1.55847V0.602998H230.635V1.55847H231.635ZM231.135 0.102998H230.211V1.103H231.135V0.102998ZM228.365 0.102998H226.519V1.103H228.365V0.102998ZM224.673 0.102998H222.827V1.103H224.673V0.102998ZM220.981 0.102998H220.058V1.103H220.981V0.102998ZM219.584 0.441827L219.235 1.46649L220.182 1.78884L220.531 0.764168L219.584 0.441827ZM218.537 3.51583L217.84 5.56516L218.786 5.8875L219.484 3.83817L218.537 3.51583ZM217.142 7.61449L216.444 9.66383L217.391 9.98617L218.088 7.93684L217.142 7.61449ZM215.746 11.7132L215.048 13.7625L215.995 14.0848L216.693 12.0355L215.746 11.7132ZM214.35 15.8118L213.653 17.8612L214.599 18.1835L215.297 16.1342L214.35 15.8118ZM212.955 19.9105L212.257 21.9598L213.204 22.2822L213.901 20.2328L212.955 19.9105ZM211.559 24.0092L211.21 25.0338L212.157 25.3562L212.506 24.3315L211.559 24.0092ZM212.156 25.032L211.853 24.1537L210.908 24.4797L211.211 25.358L212.156 25.032ZM211.248 22.3971L210.642 20.6406L209.697 20.9666L210.302 22.7231L211.248 22.3971ZM210.036 18.884L209.431 17.1274L208.485 17.4534L209.091 19.21L210.036 18.884ZM208.825 15.3709L208.219 13.6143L207.274 13.9403L207.879 15.6969L208.825 15.3709ZM207.613 11.8577L207.008 10.1011L206.062 10.4271L206.668 12.1837L207.613 11.8577ZM206.402 8.34458L205.796 6.58801L204.851 6.914L205.457 8.67057L206.402 8.34458ZM205.191 4.83143L204.585 3.07486L203.639 3.40085L204.245 5.15742L205.191 4.83143ZM203.979 1.31829L203.676 0.440002L202.731 0.765993L203.034 1.64428L203.979 1.31829ZM203.204 0.102998H202.223V1.103H203.204V0.102998ZM200.262 0.102998H198.301V1.103H200.262V0.102998ZM196.34 0.102998H194.379V1.103H196.34V0.102998ZM192.418 0.102998H191.438V1.103H192.418V0.102998ZM191.438 0.602998V-0.397002H190.438V0.602998H191.438ZM203.204 0.602998L204.149 0.277007L203.917 -0.397002H203.204V0.602998ZM211.684 25.195L210.738 25.521L211.689 28.2798L212.63 25.5173L211.684 25.195ZM220.058 0.602998V-0.397002H219.342L219.111 0.280656L220.058 0.602998ZM231.135 0.602998H232.135V-0.397002H231.135V0.602998ZM231.135 35V36H232.135V35H231.135ZM223.662 35H222.662V36H223.662V35ZM223.662 9.56H224.662V8.56H223.662V9.56ZM223.503 9.56V8.56H222.787L222.556 9.23668L223.503 9.56ZM214.811 35V36H215.526L215.757 35.3233L214.811 35ZM208.186 35L207.242 35.3321L207.477 36H208.186V35ZM199.229 9.56L200.172 9.2279L199.937 8.56H199.229V9.56ZM199.017 9.56V8.56H198.017V9.56H199.017ZM199.017 35V36H200.017V35H199.017ZM191.438 35H190.438V36H191.438V35ZM190.438 0.602998V1.55847H192.438V0.602998H190.438ZM190.438 3.46941V5.38036H192.438V3.46941H190.438ZM190.438 7.2913V9.20225H192.438V7.2913H190.438ZM190.438 11.1132V13.0241H192.438V11.1132H190.438ZM190.438 14.9351V16.846H192.438V14.9351H190.438ZM190.438 18.757V20.6679H192.438V18.757H190.438ZM190.438 22.5789V24.4898H192.438V22.5789H190.438ZM190.438 26.4007V28.3117H192.438V26.4007H190.438ZM190.438 30.2226V32.1336H192.438V30.2226H190.438ZM190.438 34.0445V35H192.438V34.0445H190.438ZM191.438 36H192.385V34H191.438V36ZM194.28 36H196.174V34H194.28V36ZM198.069 36H199.017V34H198.069V36ZM200.017 35V33.94H198.017V35H200.017ZM200.017 31.82V29.7H198.017V31.82H200.017ZM200.017 27.58V25.46H198.017V27.58H200.017ZM200.017 23.34V21.22H198.017V23.34H200.017ZM200.017 19.1V16.98H198.017V19.1H200.017ZM200.017 14.86V12.74H198.017V14.86H200.017ZM200.017 10.62V9.56H198.017V10.62H200.017ZM199.017 10.56H199.07V8.56H199.017V10.56ZM199.176 10.56H199.229V8.56H199.176V10.56ZM198.285 9.8921L198.605 10.8007L200.492 10.1365L200.172 9.2279L198.285 9.8921ZM199.245 12.6178L199.885 14.435L201.771 13.7708L201.131 11.9536L199.245 12.6178ZM200.525 16.2521L201.164 18.0692L203.051 17.405L202.411 15.5879L200.525 16.2521ZM201.804 19.8864L202.444 21.7035L204.33 21.0393L203.691 19.2222L201.804 19.8864ZM203.084 23.5207L203.723 25.3378L205.61 24.6736L204.97 22.8565L203.084 23.5207ZM204.363 27.155L205.003 28.9721L206.89 28.3079L206.25 26.4908L204.363 27.155ZM205.643 30.7892L206.283 32.6064L208.169 31.9422L207.529 30.125L205.643 30.7892ZM206.922 34.4235L207.242 35.3321L209.129 34.6679L208.809 33.7593L206.922 34.4235ZM208.186 36H209.014V34H208.186V36ZM210.67 36H212.326V34H210.67V36ZM213.982 36H214.811V34H213.982V36ZM215.757 35.3233L216.067 34.4147L214.175 33.7681L213.864 34.6767L215.757 35.3233ZM216.688 32.5976L217.309 30.7805L215.416 30.1338L214.796 31.951L216.688 32.5976ZM217.93 28.9633L218.551 27.1462L216.658 26.4995L216.037 28.3167L217.93 28.9633ZM219.172 25.329L219.792 23.5119L217.9 22.8653L217.279 24.6824L219.172 25.329ZM220.413 21.6947L221.034 19.8776L219.142 19.231L218.521 21.0481L220.413 21.6947ZM221.655 18.0605L222.276 16.2433L220.383 15.5967L219.762 17.4138L221.655 18.0605ZM222.897 14.4262L223.518 12.609L221.625 11.9624L221.004 13.7795L222.897 14.4262ZM224.138 10.7919L224.449 9.88331L222.556 9.23668L222.246 10.1453L224.138 10.7919ZM223.503 10.56H223.542V8.56H223.503V10.56ZM223.622 10.56H223.662V8.56H223.622V10.56ZM222.662 9.56V10.62H224.662V9.56H222.662ZM222.662 12.74V14.86H224.662V12.74H222.662ZM222.662 16.98V19.1H224.662V16.98H222.662ZM222.662 21.22V23.34H224.662V21.22H222.662ZM222.662 25.46V27.58H224.662V25.46H222.662ZM222.662 29.7V31.82H224.662V29.7H222.662ZM222.662 33.94V35H224.662V33.94H222.662ZM223.662 36H224.596V34H223.662V36ZM226.464 36H228.332V34H226.464V36ZM230.2 36H231.135V34H230.2V36ZM232.135 35V34.0445H230.135V35H232.135ZM232.135 32.1336V30.2226H230.135V32.1336H232.135ZM232.135 28.3117V26.4007H230.135V28.3117H232.135ZM232.135 24.4898V22.5789H230.135V24.4898H232.135ZM232.135 20.6679V18.757H230.135V20.6679H232.135ZM232.135 16.846V14.9351H230.135V16.846H232.135ZM232.135 13.0241V11.1132H230.135V13.0241H232.135ZM232.135 9.20225V7.29131H230.135V9.20225H232.135ZM232.135 5.38036V3.46942H230.135V5.38036H232.135ZM232.135 1.55847V0.602998H230.135V1.55847H232.135ZM231.135 -0.397002H230.211V1.603H231.135V-0.397002ZM228.365 -0.397002H226.519V1.603H228.365V-0.397002ZM224.673 -0.397002H222.827V1.603H224.673V-0.397002ZM220.981 -0.397002H220.058V1.603H220.981V-0.397002ZM219.111 0.280656L218.762 1.30532L220.655 1.95001L221.004 0.925339L219.111 0.280656ZM218.064 3.35466L217.366 5.40399L219.26 6.04867L219.957 3.99934L218.064 3.35466ZM216.669 7.45332L215.971 9.50266L217.864 10.1473L218.562 8.09801L216.669 7.45332ZM215.273 11.552L214.575 13.6013L216.468 14.246L217.166 12.1967L215.273 11.552ZM213.877 15.6507L213.179 17.7L215.073 18.3447L215.77 16.2953L213.877 15.6507ZM212.482 19.7493L211.784 21.7987L213.677 22.4433L214.375 20.394L212.482 19.7493ZM211.086 23.848L210.737 24.8727L212.63 25.5173L212.979 24.4927L211.086 23.848ZM212.629 24.869L212.326 23.9907L210.435 24.6427L210.738 25.521L212.629 24.869ZM211.72 22.2341L211.115 20.4776L209.224 21.1296L209.83 22.8861L211.72 22.2341ZM210.509 18.721L209.903 16.9644L208.012 17.6164L208.618 19.373L210.509 18.721ZM209.297 15.2079L208.692 13.4513L206.801 14.1033L207.407 15.8598L209.297 15.2079ZM208.086 11.6947L207.48 9.93815L205.59 10.5901L206.195 12.3467L208.086 11.6947ZM206.875 8.18158L206.269 6.42501L204.378 7.07699L204.984 8.83356L206.875 8.18158ZM205.663 4.66844L205.057 2.91187L203.167 3.56385L203.772 5.32042L205.663 4.66844ZM204.452 1.15529L204.149 0.277007L202.258 0.928988L202.561 1.80728L204.452 1.15529ZM203.204 -0.397002H202.223V1.603H203.204V-0.397002ZM200.262 -0.397002H198.301V1.603H200.262V-0.397002ZM196.34 -0.397002H194.379V1.603H196.34V-0.397002ZM192.418 -0.397002H191.438V1.603H192.418V-0.397002ZM252.211 35.318L252.153 35.8146L252.154 35.8148L252.211 35.318ZM248.236 34.523L248.366 34.0401L248.362 34.0392L248.236 34.523ZM244.208 32.88L243.931 33.2961L243.941 33.3024L244.208 32.88ZM241.558 29.965L241.992 29.7169L241.987 29.7078L241.558 29.965ZM267.316 1.239H267.816V0.817051L267.4 0.746115L267.316 1.239ZM267.316 7.44L267.199 7.92604L267.816 8.07505V7.44H267.316ZM253.43 6.062L253.383 5.56425L253.38 5.56448L253.43 6.062ZM251.204 6.592L251.365 7.06543L251.375 7.0619L251.204 6.592ZM267.528 28.11H268.028V27.4807L267.415 27.6229L267.528 28.11ZM267.528 34.364L267.629 34.8538L268.028 34.7717V34.364H267.528ZM256.398 35.03C256.044 35.03 255.698 35.0263 255.36 35.0189L255.339 36.0186C255.683 36.0262 256.037 36.03 256.398 36.03V35.03ZM253.294 34.9191C252.94 34.8916 252.598 34.8589 252.268 34.8212L252.154 35.8148C252.497 35.8539 252.851 35.8877 253.216 35.9161L253.294 34.9191ZM252.27 34.8214C251.952 34.7841 251.625 34.7378 251.288 34.6824L251.126 35.6692C251.477 35.7268 251.819 35.7753 252.153 35.8146L252.27 34.8214ZM249.335 34.286C249.019 34.2106 248.696 34.1286 248.366 34.0401L248.107 35.0059C248.445 35.0968 248.778 35.1811 249.104 35.2587L249.335 34.286ZM248.362 34.0392C248.007 33.9464 247.666 33.8478 247.34 33.7435L247.035 34.696C247.38 34.8062 247.738 34.9098 248.11 35.0068L248.362 34.0392ZM245.382 32.9645C245.057 32.8037 244.755 32.6346 244.476 32.4576L243.941 33.3024C244.252 33.4997 244.585 33.6857 244.939 33.8608L245.382 32.9645ZM244.485 32.464C244.229 32.2927 243.983 32.1047 243.748 31.8999L243.091 32.6537C243.358 32.8866 243.638 33.1007 243.931 33.296L244.485 32.464ZM242.5 30.5126C242.322 30.2625 242.153 29.9974 241.992 29.7169L241.124 30.2131C241.3 30.5211 241.487 30.8143 241.685 31.0926L242.5 30.5126ZM241.987 29.7078C241.805 29.4041 241.646 29.0852 241.512 28.7508L240.584 29.1239C240.738 29.5065 240.92 29.8728 241.129 30.2222L241.987 29.7078ZM241.002 26.6586C240.964 26.3078 240.945 25.9437 240.945 25.566H239.945C239.945 25.9776 239.966 26.3779 240.008 26.7666L241.002 26.6586ZM240.945 25.566V24.6219H239.945V25.566H240.945ZM240.945 22.7338V20.8457H239.945V22.7338H240.945ZM240.945 18.9576V17.0694H239.945V18.9576H240.945ZM240.945 15.1813V13.2932H239.945V15.1813H240.945ZM240.945 11.4051V10.461H239.945V11.4051H240.945ZM240.945 10.461C240.945 10.1052 240.96 9.75992 240.989 9.42521L239.992 9.33898C239.961 9.70382 239.945 10.0779 239.945 10.461H240.945ZM241.372 7.4161C241.577 6.75218 241.856 6.13988 242.209 5.57758L241.362 5.04651C240.961 5.68511 240.646 6.37696 240.416 7.12041L241.372 7.4161ZM243.499 4.0253C243.978 3.58177 244.526 3.179 245.147 2.81798L244.644 1.95361C243.965 2.34854 243.356 2.79437 242.819 3.2921L243.499 4.0253ZM247.02 1.93772C247.638 1.70466 248.305 1.50068 249.022 1.32638L248.786 0.354672C248.034 0.537588 247.327 0.753173 246.667 1.00203L247.02 1.93772ZM251.096 0.925879C251.764 0.826655 252.466 0.748211 253.202 0.690731L253.124 -0.306231C252.367 -0.247101 251.642 -0.166177 250.949 -0.0632725L251.096 0.925879ZM255.33 0.585176C255.68 0.577061 256.036 0.572998 256.398 0.572998V-0.427002C256.028 -0.427002 255.665 -0.422856 255.307 -0.414555L255.33 0.585176ZM256.398 0.572998C256.687 0.572998 256.988 0.577467 257.299 0.586435L257.328 -0.41315C257.007 -0.422375 256.698 -0.427002 256.398 -0.427002V0.572998ZM259.107 0.680091C259.681 0.721544 260.284 0.77506 260.916 0.840692L261.019 -0.153962C260.378 -0.220566 259.764 -0.275033 259.179 -0.317309L259.107 0.680091ZM262.724 1.0512C263.305 1.12562 263.906 1.20876 264.529 1.30061L264.675 0.311319C264.046 0.218603 263.438 0.134594 262.851 0.0593052L262.724 1.0512ZM266.332 1.58143C266.628 1.62984 266.928 1.67999 267.232 1.73188L267.4 0.746115C267.094 0.693847 266.791 0.643321 266.493 0.594539L266.332 1.58143ZM266.816 1.239V2.01412H267.816V1.239H266.816ZM266.816 3.56437V5.11462H267.816V3.56437H266.816ZM266.816 6.66487V7.44H267.816V6.66487H266.816ZM267.433 6.95396C267.133 6.8814 266.835 6.81147 266.539 6.74417L266.317 7.71919C266.608 7.78552 266.902 7.85447 267.199 7.92604L267.433 6.95396ZM264.743 6.36102C264.128 6.2391 263.524 6.12946 262.933 6.03212L262.771 7.01883C263.351 7.11434 263.943 7.22203 264.548 7.34194L264.743 6.36102ZM261.111 5.76621C260.485 5.68714 259.873 5.62314 259.276 5.57426L259.195 6.57093C259.776 6.61855 260.373 6.681 260.985 6.75833L261.111 5.76621ZM257.43 5.46996C257.117 5.46066 256.808 5.456 256.504 5.456V6.456C256.798 6.456 257.097 6.4605 257.401 6.46952L257.43 5.46996ZM256.504 5.456C256.234 5.456 255.975 5.4575 255.729 5.4605L255.741 6.46043C255.983 6.45748 256.238 6.456 256.504 6.456V5.456ZM254.171 5.50741C253.883 5.52278 253.62 5.54167 253.383 5.56425L253.478 6.55975C253.698 6.53874 253.947 6.52078 254.224 6.50599L254.171 5.50741ZM253.38 5.56448C253.181 5.58443 252.979 5.61222 252.776 5.64775L252.948 6.63283C253.128 6.60135 253.306 6.57694 253.48 6.55952L253.38 5.56448ZM251.602 5.93165C251.414 5.98913 251.224 6.05263 251.033 6.1221L251.375 7.0619C251.55 6.99811 251.723 6.94013 251.894 6.88791L251.602 5.93165ZM251.043 6.11867C250.59 6.27289 250.183 6.47717 249.828 6.73535L250.415 7.5444C250.68 7.35255 250.994 7.19157 251.365 7.06532L251.043 6.11867ZM248.352 9.03445C248.258 9.44433 248.213 9.8853 248.213 10.355H249.213C249.213 9.94882 249.252 9.58389 249.327 9.25786L248.352 9.03445ZM248.213 10.355V11.2692H249.213V10.355H248.213ZM248.213 13.0977V14.9262H249.213V13.0977H248.213ZM248.213 16.7547V18.5832H249.213V16.7547H248.213ZM248.213 20.4117V22.2402H249.213V20.4117H248.213ZM248.213 24.0687V24.983H249.213V24.0687H248.213ZM248.213 24.983C248.213 25.3311 248.246 25.6661 248.312 25.9871L249.291 25.7838C249.24 25.5354 249.213 25.2688 249.213 24.983H248.213ZM249.214 27.8239C249.631 28.3055 250.167 28.7041 250.81 29.0264L251.259 28.1325C250.711 27.8581 250.287 27.535 249.971 27.1697L249.214 27.8239ZM252.621 29.6755C253.185 29.8161 253.802 29.9243 254.469 30.0015L254.584 29.0081C253.952 28.9351 253.379 28.8337 252.862 28.7051L252.621 29.6755ZM256.321 30.1328C256.621 30.1423 256.93 30.147 257.246 30.147V29.147C256.94 29.147 256.642 29.1424 256.353 29.1333L256.321 30.1328ZM257.246 30.147C257.53 30.147 257.827 30.1402 258.135 30.1268L258.091 29.1277C257.796 29.1406 257.515 29.147 257.246 29.147V30.147ZM259.897 29.9918C260.447 29.9337 261.028 29.8595 261.639 29.7692L261.493 28.7799C260.894 28.8685 260.327 28.9409 259.792 28.9973L259.897 29.9918ZM263.367 29.4853C263.918 29.3866 264.49 29.2768 265.083 29.156L264.884 28.1761C264.298 28.2954 263.734 28.4037 263.191 28.501L263.367 29.4853ZM266.791 28.7908C267.07 28.7284 267.354 28.6638 267.641 28.5971L267.415 27.6229C267.13 27.6891 266.849 27.753 266.573 27.8149L266.791 28.7908ZM267.028 28.11V28.8918H268.028V28.11H267.028ZM267.028 30.4552V32.0187H268.028V30.4552H267.028ZM267.028 33.5822V34.364H268.028V33.5822H267.028ZM267.427 33.8742C267.124 33.9366 266.821 33.9965 266.518 34.0538L266.705 35.0364C267.012 34.9781 267.32 34.9172 267.629 34.8538L267.427 33.8742ZM264.693 34.37C264.08 34.4662 263.469 34.5519 262.859 34.627L262.982 35.6195C263.602 35.543 264.224 35.4558 264.848 35.358L264.693 34.37ZM261.018 34.8226C260.401 34.8776 259.786 34.9216 259.172 34.9547L259.226 35.9533C259.851 35.9195 260.478 35.8747 261.107 35.8187L261.018 34.8226ZM257.323 35.0216C257.014 35.0272 256.706 35.03 256.398 35.03V36.03C256.712 36.03 257.026 36.0271 257.341 36.0214L257.323 35.0216ZM252.211 35.318L252.094 36.3112L252.098 36.3115L252.211 35.318ZM248.236 34.523L248.495 33.5571L248.489 33.5554L248.236 34.523ZM244.208 32.88L243.653 33.7121L243.663 33.7185L243.673 33.7248L244.208 32.88ZM241.558 29.965L242.426 29.4689L242.421 29.4596L242.416 29.4505L241.558 29.965ZM267.316 1.239H268.316V0.395103L267.484 0.253231L267.316 1.239ZM267.316 7.44L267.082 8.41208L268.316 8.7101V7.44H267.316ZM253.43 6.062L253.335 5.06649L253.331 5.06696L253.43 6.062ZM251.204 6.592L251.526 7.53865L251.536 7.53532L251.546 7.53179L251.204 6.592ZM267.528 28.11H268.528V26.8514L267.302 27.1359L267.528 28.11ZM267.528 34.364L267.73 35.3435L268.528 35.1793V34.364H267.528ZM256.398 34.53C256.047 34.53 255.705 34.5263 255.371 34.519L255.328 36.5185C255.676 36.5262 256.033 36.53 256.398 36.53V34.53ZM253.332 34.4206C252.984 34.3935 252.648 34.3614 252.325 34.3245L252.098 36.3115C252.447 36.3514 252.806 36.3857 253.177 36.4146L253.332 34.4206ZM252.328 34.3248C252.018 34.2884 251.699 34.2432 251.369 34.189L251.045 36.1626C251.403 36.2214 251.753 36.271 252.094 36.3111L252.328 34.3248ZM249.451 33.7996C249.14 33.7253 248.821 33.6445 248.495 33.5572L247.977 35.4888C248.32 35.5809 248.657 35.6663 248.988 35.7451L249.451 33.7996ZM248.489 33.5554C248.141 33.4648 247.809 33.3687 247.492 33.2673L246.883 35.1722C247.237 35.2854 247.604 35.3915 247.984 35.4906L248.489 33.5554ZM245.604 32.5163C245.293 32.3627 245.007 32.2021 244.743 32.0352L243.673 33.7248C244.001 33.9322 244.349 34.1267 244.717 34.309L245.604 32.5163ZM244.763 32.048C244.524 31.8887 244.295 31.7138 244.076 31.5229L242.762 33.0306C243.045 33.2775 243.342 33.5047 243.653 33.7121L244.763 32.048ZM242.907 30.2226C242.739 29.9866 242.579 29.7355 242.426 29.4689L240.69 30.4611C240.874 30.7829 241.07 31.0902 241.278 31.3826L242.907 30.2226ZM242.416 29.4505C242.247 29.1698 242.101 28.8746 241.976 28.5642L240.12 29.3104C240.284 29.7172 240.477 30.1071 240.701 30.4795L242.416 29.4505ZM241.5 26.6046C241.464 26.2728 241.445 25.9267 241.445 25.566H239.445C239.445 25.9945 239.467 26.4129 239.511 26.8206L241.5 26.6046ZM241.445 25.566V24.6219H239.445V25.566H241.445ZM241.445 22.7338V20.8457H239.445V22.7338H241.445ZM241.445 18.9576V17.0694H239.445V18.9576H241.445ZM241.445 15.1813V13.2932H239.445V15.1813H241.445ZM241.445 11.4051V10.461H239.445V11.4051H241.445ZM241.445 10.461C241.445 10.1188 241.459 9.78798 241.487 9.46832L239.494 9.29586C239.461 9.67576 239.445 10.0642 239.445 10.461H241.445ZM241.849 7.56394C242.043 6.93979 242.304 6.36727 242.633 5.84311L240.938 4.78097C240.514 5.45773 240.181 6.18935 239.939 6.97256L241.849 7.56394ZM243.839 4.39189C244.288 3.97547 244.807 3.59423 245.398 3.25017L244.392 1.52142C243.684 1.93331 243.045 2.40067 242.479 2.92551L243.839 4.39189ZM247.196 2.40557C247.793 2.18041 248.441 1.98223 249.14 1.81223L248.668 -0.13118C247.898 0.0560408 247.172 0.277427 246.491 0.534177L247.196 2.40557ZM251.17 1.42045C251.825 1.32307 252.516 1.24587 253.241 1.18921L253.085 -0.80471C252.318 -0.744758 251.581 -0.662594 250.876 -0.557847L251.17 1.42045ZM255.342 1.08504C255.687 1.07702 256.039 1.073 256.398 1.073V-0.927002C256.025 -0.927002 255.657 -0.922814 255.295 -0.914419L255.342 1.08504ZM256.398 1.073C256.682 1.073 256.978 1.07739 257.285 1.08623L257.342 -0.912943C257.017 -0.922296 256.703 -0.927002 256.398 -0.927002V1.073ZM259.071 1.17879C259.639 1.21983 260.237 1.27287 260.864 1.33802L261.071 -0.651289C260.425 -0.718379 259.806 -0.773322 259.215 -0.81601L259.071 1.17879ZM262.66 1.54715C263.238 1.62114 263.836 1.70383 264.456 1.79526L264.748 -0.183327C264.116 -0.276472 263.505 -0.360922 262.914 -0.436642L262.66 1.54715ZM266.251 2.07487C266.546 2.12309 266.845 2.17305 267.148 2.22477L267.484 0.253231C267.177 0.200777 266.873 0.150064 266.574 0.101093L266.251 2.07487ZM266.316 1.239V2.01412H268.316V1.239H266.316ZM266.316 3.56437V5.11462H268.316V3.56437H266.316ZM266.316 6.66487V7.44H268.316V6.66487H266.316ZM267.551 6.46792C267.248 6.39487 266.948 6.32445 266.65 6.25666L266.206 8.2067C266.495 8.27254 266.787 8.341 267.082 8.41208L267.551 6.46792ZM264.84 5.87056C264.22 5.74764 263.611 5.63702 263.014 5.53876L262.69 7.51219C263.264 7.60677 263.851 7.71349 264.451 7.8324L264.84 5.87056ZM261.173 5.27015C260.54 5.19022 259.922 5.12544 259.317 5.07593L259.154 7.06926C259.728 7.11625 260.317 7.17792 260.923 7.25439L261.173 5.27015ZM257.445 4.97018C257.127 4.96073 256.814 4.956 256.504 4.956V6.956C256.793 6.956 257.087 6.96042 257.386 6.9693L257.445 4.97018ZM256.504 4.956C256.232 4.956 255.972 4.95751 255.723 4.96054L255.747 6.96039C255.987 6.95747 256.239 6.956 256.504 6.956V4.956ZM254.144 5.00812C253.851 5.02377 253.581 5.04314 253.335 5.0665L253.525 7.0575C253.737 7.03728 253.979 7.01978 254.25 7.00529L254.144 5.00812ZM253.331 5.06696C253.119 5.08817 252.905 5.11765 252.69 5.15521L253.034 7.12537C253.203 7.09591 253.368 7.0732 253.53 7.05704L253.331 5.06696ZM251.455 5.45352C251.259 5.51363 251.061 5.5799 250.862 5.65221L251.546 7.53179C251.714 7.47084 251.878 7.41563 252.04 7.36604L251.455 5.45352ZM250.882 5.64535C250.388 5.81355 249.935 6.03948 249.534 6.33083L250.709 7.94893C250.928 7.79024 251.197 7.65091 251.526 7.53865L250.882 5.64535ZM247.865 8.92274C247.761 9.37454 247.713 9.85354 247.713 10.355H249.713C249.713 9.98057 249.749 9.65368 249.814 9.36956L247.865 8.92274ZM247.713 10.355V11.2692H249.713V10.355H247.713ZM247.713 13.0977V14.9262H249.713V13.0977H247.713ZM247.713 16.7547V18.5832H249.713V16.7547H247.713ZM247.713 20.4117V22.2402H249.713V20.4117H247.713ZM247.713 24.0687V24.983H249.713V24.0687H247.713ZM247.713 24.983C247.713 25.3622 247.749 25.7315 247.823 26.0888L249.781 25.6821C249.737 25.47 249.713 25.2377 249.713 24.983H247.713ZM248.836 28.151C249.303 28.6907 249.896 29.1271 250.586 29.4734L251.483 27.6855C250.983 27.4351 250.614 27.1497 250.349 26.8426L248.836 28.151ZM252.5 30.1607C253.089 30.3072 253.727 30.419 254.411 30.4982L254.641 28.5114C254.027 28.4404 253.475 28.3425 252.983 28.2199L252.5 30.1607ZM256.305 30.6325C256.611 30.6422 256.925 30.647 257.246 30.647V28.647C256.945 28.647 256.652 28.6425 256.369 28.6335L256.305 30.6325ZM257.246 30.647C257.538 30.647 257.842 30.64 258.157 30.6263L258.07 28.6282C257.781 28.6408 257.507 28.647 257.246 28.647V30.647ZM259.949 30.489C260.507 30.4302 261.095 30.355 261.712 30.2638L261.42 28.2853C260.827 28.3729 260.267 28.4444 259.739 28.5L259.949 30.489ZM263.455 29.9775C264.011 29.878 264.587 29.7674 265.183 29.6459L264.784 27.6862C264.202 27.8048 263.641 27.9123 263.103 28.0089L263.455 29.9775ZM266.9 29.2788C267.18 29.216 267.465 29.1511 267.754 29.0841L267.302 27.1359C267.018 27.2017 266.739 27.2654 266.464 27.3269L266.9 29.2788ZM266.528 28.11V28.8918H268.528V28.11H266.528ZM266.528 30.4552V32.0187H268.528V30.4552H266.528ZM266.528 33.5822V34.364H268.528V33.5822H266.528ZM267.327 33.3845C267.026 33.4464 266.725 33.5057 266.425 33.5626L266.798 35.5276C267.108 35.4688 267.419 35.4075 267.73 35.3435L267.327 33.3845ZM264.616 33.8761C264.008 33.9714 263.402 34.0563 262.798 34.1308L263.043 36.1157C263.669 36.0386 264.296 35.9506 264.926 35.8519L264.616 33.8761ZM260.974 34.3246C260.362 34.379 259.753 34.4227 259.145 34.4555L259.253 36.4525C259.884 36.4185 260.517 36.3732 261.151 36.3167L260.974 34.3246ZM257.314 34.5217C257.008 34.5272 256.703 34.53 256.398 34.53V36.53C256.715 36.53 257.033 36.5271 257.35 36.5213L257.314 34.5217ZM281.821 21.644L282.236 21.9236L282.69 21.2503L281.884 21.148L281.821 21.644ZM276.839 19.524L277.198 19.1761L276.839 19.524ZM278.27 2.299L278.506 2.74L278.512 2.73679L278.27 2.299ZM303.445 0.602998H303.945V0.102998H303.445V0.602998ZM303.445 35V35.5H303.945V35H303.445ZM295.177 35H294.677V35.5H295.177V35ZM295.177 22.28H295.677V21.78H295.177V22.28ZM290.301 22.28V21.78H290.026L289.879 22.0125L290.301 22.28ZM282.245 35V35.5H282.52L282.668 35.2675L282.245 35ZM272.811 35L272.397 34.7204L271.871 35.5H272.811V35ZM295.177 16.821V17.321H295.677V16.821H295.177ZM295.177 6.486H295.677V5.986H295.177V6.486ZM284.418 7.228L284.681 7.65316L284.687 7.64983L284.418 7.228ZM284.365 16.079L284.065 16.479L284.072 16.4839L284.078 16.4886L284.365 16.079ZM281.407 21.3644L280.844 22.1991L281.673 22.7584L282.236 21.9236L281.407 21.3644ZM279.717 23.8686L278.591 25.5381L279.42 26.0974L280.546 24.4279L279.717 23.8686ZM277.465 27.2076L276.339 28.8771L277.168 29.4364L278.294 27.7669L277.465 27.2076ZM275.212 30.5466L274.086 32.2161L274.915 32.7754L276.041 31.1059L275.212 30.5466ZM272.96 33.8856L272.397 34.7204L273.226 35.2796L273.789 34.4449L272.96 33.8856ZM272.811 35.5H273.99V34.5H272.811V35.5ZM276.349 35.5H278.707V34.5H276.349V35.5ZM281.066 35.5H282.245V34.5H281.066V35.5ZM282.668 35.2675L283.171 34.4725L282.326 33.9375L281.823 34.7325L282.668 35.2675ZM284.178 32.8825L285.185 31.2925L284.34 30.7575L283.333 32.3475L284.178 32.8825ZM286.192 29.7025L287.199 28.1125L286.354 27.5775L285.347 29.1675L286.192 29.7025ZM288.206 26.5225L289.213 24.9325L288.368 24.3975L287.361 25.9875L288.206 26.5225ZM290.22 23.3425L290.724 22.5475L289.879 22.0125L289.375 22.8075L290.22 23.3425ZM290.301 22.78H291.52V21.78H290.301V22.78ZM293.958 22.78H295.177V21.78H293.958V22.78ZM294.677 22.28V23.34H295.677V22.28H294.677ZM294.677 25.46V27.58H295.677V25.46H294.677ZM294.677 29.7V31.82H295.677V29.7H294.677ZM294.677 33.94V35H295.677V33.94H294.677ZM295.177 35.5H296.211V34.5H295.177V35.5ZM298.278 35.5H300.345V34.5H298.278V35.5ZM302.412 35.5H303.445V34.5H302.412V35.5ZM303.945 35V34.0445H302.945V35H303.945ZM303.945 32.1336V30.2226H302.945V32.1336H303.945ZM303.945 28.3117V26.4007H302.945V28.3117H303.945ZM303.945 24.4898V22.5789H302.945V24.4898H303.945ZM303.945 20.6679V18.757H302.945V20.6679H303.945ZM303.945 16.846V14.9351H302.945V16.846H303.945ZM303.945 13.0241V11.1132H302.945V13.0241H303.945ZM303.945 9.20225V7.29131H302.945V9.20225H303.945ZM303.945 5.38036V3.46942H302.945V5.38036H303.945ZM303.945 1.55847V0.602998H302.945V1.55847H303.945ZM303.445 0.102998H302.494V1.103H303.445V0.102998ZM300.593 0.102998H298.692V1.103H300.593V0.102998ZM296.79 0.102998H294.889V1.103H296.79V0.102998ZM292.988 0.102998H291.086V1.103H292.988V0.102998ZM289.185 0.102998H288.234V1.103H289.185V0.102998ZM288.234 0.102998C287.943 0.102998 287.657 0.105246 287.376 0.109746L287.392 1.10962C287.668 1.10521 287.948 1.103 288.234 1.103V0.102998ZM285.657 0.168639C285.059 0.200978 284.486 0.245311 283.938 0.301735L284.041 1.29646C284.571 1.24185 285.127 1.19873 285.711 1.16718L285.657 0.168639ZM282.222 0.53285C281.613 0.636152 281.044 0.758463 280.514 0.90023L280.772 1.86629C281.269 1.73352 281.807 1.61751 282.389 1.51873L282.222 0.53285ZM278.838 1.46858C278.552 1.59051 278.282 1.72129 278.029 1.86121L278.512 2.73679C278.733 2.61452 278.973 2.49831 279.23 2.38845L278.838 1.46858ZM278.034 1.85803C277.763 2.00322 277.506 2.16169 277.266 2.33368L277.847 3.14728C278.051 3.0017 278.27 2.86584 278.506 2.73996L278.034 1.85803ZM275.956 3.6058C275.593 4.09009 275.31 4.62963 275.105 5.22159L276.049 5.54926C276.223 5.05005 276.459 4.60296 276.756 4.20516L275.956 3.6058ZM274.736 6.97886C274.709 7.26553 274.696 7.56062 274.696 7.864H275.696C275.696 7.58945 275.708 7.32518 275.732 7.07103L274.736 6.97886ZM274.696 7.864V8.71862H275.696V7.864H274.696ZM274.696 10.4279V12.1371H275.696V10.4279H274.696ZM274.696 13.8464V14.701H275.696V13.8464H274.696ZM274.696 14.701C274.696 15.1776 274.724 15.6334 274.779 16.0681L275.771 15.9409C275.721 15.5525 275.696 15.1393 275.696 14.701H274.696ZM275.624 18.7279C275.863 19.1478 276.148 19.5295 276.48 19.8719L277.198 19.1761C276.926 18.8953 276.691 18.5813 276.493 18.2331L275.624 18.7279ZM276.48 19.8719C276.821 20.2243 277.211 20.5367 277.646 20.8098L278.177 19.9628C277.806 19.7297 277.48 19.4673 277.198 19.1761L276.48 19.8719ZM280.349 21.8896C280.794 21.9939 281.264 22.0773 281.758 22.14L281.884 21.148C281.421 21.0892 280.985 21.0117 280.577 20.916L280.349 21.8896ZM295.177 16.321H294.323V17.321H295.177V16.321ZM292.613 16.321H290.904V17.321H292.613V16.321ZM289.195 16.321H288.34V17.321H289.195V16.321ZM288.34 16.321C287.985 16.321 287.653 16.3126 287.344 16.2959L287.29 17.2944C287.619 17.3122 287.97 17.321 288.34 17.321V16.321ZM285.435 16.0161C285.089 15.9156 284.833 15.7964 284.652 15.6694L284.078 16.4886C284.375 16.6964 284.74 16.8554 285.155 16.9763L285.435 16.0161ZM284.665 15.679C284.506 15.5597 284.366 15.4044 284.247 15.2057L283.389 15.7198C283.57 16.0203 283.794 16.2758 284.065 16.479L284.665 15.679ZM283.844 13.8321C283.818 13.5951 283.805 13.3373 283.805 13.058H282.805C282.805 13.3684 282.82 13.6626 282.85 13.94L283.844 13.8321ZM283.805 13.058V12.2497H282.805V13.058H283.805ZM283.805 10.6332V9.825H282.805V10.6332H283.805ZM283.805 9.825C283.805 9.58169 283.82 9.35913 283.848 9.15647L282.858 9.01871C282.822 9.27286 282.805 9.54191 282.805 9.825H283.805ZM284.27 8.0254C284.384 7.87598 284.521 7.75253 284.681 7.65313L284.155 6.80286C283.892 6.96595 283.664 7.17134 283.476 7.41711L284.27 8.0254ZM284.687 7.64983C284.891 7.52004 285.153 7.40281 285.483 7.30433L285.197 6.3461C284.801 6.46426 284.449 6.61555 284.15 6.80617L284.687 7.64983ZM287.36 7.01305C287.666 6.99508 287.992 6.986 288.34 6.986V5.986C287.975 5.986 287.629 5.99553 287.302 6.01477L287.36 7.01305ZM288.34 6.986H289.195V5.986H288.34V6.986ZM290.904 6.986H292.613V5.986H290.904V6.986ZM294.323 6.986H295.177V5.986H294.323V6.986ZM294.677 6.486V7.34725H295.677V6.486H294.677ZM294.677 9.06975V10.7922H295.677V9.06975H294.677ZM294.677 12.5147V14.2372H295.677V12.5147H294.677ZM294.677 15.9597V16.821H295.677V15.9597H294.677ZM281.821 21.644L282.65 22.2032L283.559 20.8566L281.947 20.652L281.821 21.644ZM276.839 19.524L277.557 18.8282L276.839 19.524ZM278.27 2.299L278.742 3.18101L278.753 3.17458L278.27 2.299ZM303.445 0.602998H304.445V-0.397002H303.445V0.602998ZM303.445 35V36H304.445V35H303.445ZM295.177 35H294.177V36H295.177V35ZM295.177 22.28H296.177V21.28H295.177V22.28ZM290.301 22.28V21.28H289.751L289.456 21.7449L290.301 22.28ZM282.245 35V36H282.796L283.09 35.5351L282.245 35ZM272.811 35L271.982 34.4408L270.93 36H272.811V35ZM295.177 16.821V17.821H296.177V16.821H295.177ZM295.177 6.486H296.177V5.486H295.177V6.486ZM284.418 7.228L284.945 8.07833L284.955 8.07166L284.418 7.228ZM284.365 16.079L283.765 16.879L283.778 16.8888L283.792 16.8982L284.365 16.079ZM280.992 21.0848L280.429 21.9195L282.087 23.038L282.65 22.2032L280.992 21.0848ZM279.303 23.589L278.177 25.2585L279.835 26.377L280.961 24.7075L279.303 23.589ZM277.05 26.928L275.924 28.5975L277.582 29.716L278.708 28.0465L277.05 26.928ZM274.798 30.267L273.672 31.9365L275.33 33.055L276.456 31.3855L274.798 30.267ZM272.545 33.606L271.982 34.4408L273.64 35.5592L274.203 34.7245L272.545 33.606ZM272.811 36H273.99V34H272.811V36ZM276.349 36H278.707V34H276.349V36ZM281.066 36H282.245V34H281.066V36ZM283.09 35.5351L283.593 34.7401L281.904 33.6699L281.4 34.4649L283.09 35.5351ZM284.6 33.1501L285.607 31.5601L283.918 30.4899L282.911 32.0799L284.6 33.1501ZM286.614 29.9701L287.621 28.3801L285.932 27.3099L284.925 28.8999L286.614 29.9701ZM288.628 26.7901L289.635 25.2001L287.946 24.1299L286.939 25.7199L288.628 26.7901ZM290.642 23.6101L291.146 22.8151L289.456 21.7449L288.953 22.5399L290.642 23.6101ZM290.301 23.28H291.52V21.28H290.301V23.28ZM293.958 23.28H295.177V21.28H293.958V23.28ZM294.177 22.28V23.34H296.177V22.28H294.177ZM294.177 25.46V27.58H296.177V25.46H294.177ZM294.177 29.7V31.82H296.177V29.7H294.177ZM294.177 33.94V35H296.177V33.94H294.177ZM295.177 36H296.211V34H295.177V36ZM298.278 36H300.345V34H298.278V36ZM302.412 36H303.445V34H302.412V36ZM304.445 35V34.0445H302.445V35H304.445ZM304.445 32.1336V30.2226H302.445V32.1336H304.445ZM304.445 28.3117V26.4007H302.445V28.3117H304.445ZM304.445 24.4898V22.5789H302.445V24.4898H304.445ZM304.445 20.6679V18.757H302.445V20.6679H304.445ZM304.445 16.846V14.9351H302.445V16.846H304.445ZM304.445 13.0241V11.1132H302.445V13.0241H304.445ZM304.445 9.20225V7.29131H302.445V9.20225H304.445ZM304.445 5.38036V3.46942H302.445V5.38036H304.445ZM304.445 1.55847V0.602998H302.445V1.55847H304.445ZM303.445 -0.397002H302.494V1.603H303.445V-0.397002ZM300.593 -0.397002H298.692V1.603H300.593V-0.397002ZM296.79 -0.397002H294.889V1.603H296.79V-0.397002ZM292.988 -0.397002H291.086V1.603H292.988V-0.397002ZM289.185 -0.397002H288.234V1.603H289.185V-0.397002ZM288.234 -0.397002C287.941 -0.397002 287.652 -0.394734 287.368 -0.390189L287.4 1.60955C287.673 1.60519 287.951 1.603 288.234 1.603V-0.397002ZM285.63 -0.330633C285.024 -0.297895 284.443 -0.25296 283.887 -0.195628L284.092 1.79382C284.613 1.74012 285.162 1.6976 285.738 1.66646L285.63 -0.330633ZM282.138 0.0399122C281.516 0.145471 280.932 0.270937 280.385 0.417204L280.901 2.34931C281.381 2.22104 281.905 2.1082 282.473 2.01166L282.138 0.0399122ZM278.642 1.00865C278.342 1.13661 278.057 1.27468 277.787 1.42342L278.753 3.17458C278.959 3.06113 279.183 2.95221 279.426 2.84839L278.642 1.00865ZM277.799 1.41707C277.509 1.57191 277.234 1.74168 276.975 1.92689L278.138 3.55408C278.323 3.4217 278.524 3.29715 278.742 3.18093L277.799 1.41707ZM275.556 3.30613C275.161 3.83365 274.854 4.41943 274.632 5.05776L276.522 5.71309C276.679 5.26025 276.891 4.8594 277.157 4.50483L275.556 3.30613ZM274.238 6.93278C274.21 7.2357 274.196 7.54621 274.196 7.864H276.196C276.196 7.60387 276.207 7.35501 276.229 7.11712L274.238 6.93278ZM274.196 7.864V8.71862H276.196V7.864H274.196ZM274.196 10.4279V12.1371H276.196V10.4279H274.196ZM274.196 13.8464V14.701H276.196V13.8464H274.196ZM274.196 14.701C274.196 15.1967 274.225 15.6739 274.283 16.1316L276.267 15.8774C276.22 15.512 276.196 15.1202 276.196 14.701H274.196ZM275.189 18.9753C275.449 19.4311 275.759 19.8467 276.121 20.2198L277.557 18.8282C277.315 18.5781 277.105 18.2981 276.927 17.9857L275.189 18.9753ZM276.121 20.2198C276.492 20.6028 276.913 20.9402 277.38 21.2333L278.443 19.5393C278.104 19.3262 277.81 19.0888 277.557 18.8282L276.121 20.2198ZM280.235 22.3764C280.698 22.4851 281.185 22.5713 281.695 22.636L281.947 20.652C281.499 20.5951 281.081 20.5205 280.692 20.4292L280.235 22.3764ZM295.177 15.821H294.323V17.821H295.177V15.821ZM292.613 15.821H290.904V17.821H292.613V15.821ZM289.195 15.821H288.34V17.821H289.195V15.821ZM288.34 15.821C287.993 15.821 287.67 15.8127 287.371 15.7966L287.263 17.7937C287.603 17.812 287.962 17.821 288.34 17.821V15.821ZM285.574 15.536C285.264 15.4456 285.062 15.3464 284.939 15.2598L283.792 16.8982C284.146 17.1464 284.565 17.3253 285.016 17.4564L285.574 15.536ZM284.965 15.279C284.862 15.2017 284.765 15.0964 284.676 14.9487L282.961 15.9769C283.171 16.3283 283.438 16.6338 283.765 16.879L284.965 15.279ZM284.341 13.7782C284.318 13.5614 284.305 13.3217 284.305 13.058H282.305C282.305 13.384 282.321 13.6964 282.353 13.9939L284.341 13.7782ZM284.305 13.058V12.2497H282.305V13.058H284.305ZM284.305 10.6332V9.825H282.305V10.6332H284.305ZM284.305 9.825C284.305 9.60158 284.319 9.40226 284.343 9.22535L282.362 8.94983C282.323 9.22973 282.305 9.52202 282.305 9.825H284.305ZM284.667 8.32955C284.744 8.22831 284.835 8.14582 284.945 8.07826L283.892 6.37773C283.577 6.57266 283.305 6.81902 283.079 7.11296L284.667 8.32955ZM284.955 8.07166C285.111 7.97228 285.329 7.87208 285.626 7.78345L285.054 5.86699C284.625 5.99499 284.229 6.16331 283.881 6.38434L284.955 8.07166ZM287.39 7.51219C287.684 7.49486 288.001 7.486 288.34 7.486V5.486C287.967 5.486 287.61 5.49575 287.272 5.51564L287.39 7.51219ZM288.34 7.486H289.195V5.486H288.34V7.486ZM290.904 7.486H292.613V5.486H290.904V7.486ZM294.323 7.486H295.177V5.486H294.323V7.486ZM294.177 6.486V7.34725H296.177V6.486H294.177ZM294.177 9.06975V10.7922H296.177V9.06975H294.177ZM294.177 12.5147V14.2372H296.177V12.5147H294.177ZM294.177 15.9597V16.821H296.177V15.9597H294.177Z" fill="#77C2F9" fill-opacity="0.9"/>
</svg>
