<svg width="161" height="25" viewBox="0 0 161 25" fill="none" xmlns="http://www.w3.org/2000/svg">
<path d="M2.695 24H2.195V24.4115L2.59879 24.4907L2.695 24ZM2.695 20.01L2.81081 19.5236L2.195 19.377V20.01H2.695ZM4.13 20.325L4.03194 20.8153L4.03644 20.8162L4.13 20.325ZM7.175 20.01L7.45736 20.4227L7.46173 20.4196L7.175 20.01ZM8.365 18.54L8.81226 18.7636L8.81528 18.7574L8.365 18.54ZM8.855 17.525L9.30528 17.7424L9.41647 17.5121L9.29478 17.2871L8.855 17.525ZM0.07 1.285V0.784998H-0.768942L-0.369778 1.5229L0.07 1.285ZM5.775 1.285L6.22221 1.06139L6.08402 0.784998H5.775V1.285ZM11.48 12.695L11.0328 12.9186L11.171 13.195H11.48V12.695ZM11.62 12.695V13.195H11.9599L12.0849 12.879L11.62 12.695ZM16.135 1.285V0.784998H15.7951L15.6701 1.10103L16.135 1.285ZM21.63 1.285L22.0858 1.49058L22.404 0.784998H21.63V1.285ZM13.405 19.52L12.9492 19.3144L12.9481 19.3169L13.405 19.52ZM10.57 23.195L10.2907 22.7803L10.57 23.195ZM5.74 23.85C5.6228 23.85 5.50141 23.8476 5.3758 23.8427L5.3372 24.842C5.47488 24.8473 5.60916 24.85 5.74 24.85V23.85ZM4.64046 23.7909C4.40532 23.7676 4.15891 23.7373 3.90114 23.7L3.75786 24.6897C4.02911 24.729 4.29045 24.7611 4.5418 24.786L4.64046 23.7909ZM3.16112 23.5791C3.03992 23.5572 2.91662 23.5339 2.79121 23.5093L2.59879 24.4907C2.72888 24.5162 2.85704 24.5403 2.98327 24.5631L3.16112 23.5791ZM3.195 24V23.5013H2.195V24H3.195ZM3.195 22.5037V21.5063H2.195V22.5037H3.195ZM3.195 20.5088V20.01H2.195V20.5088H3.195ZM2.57919 20.4964C2.70048 20.5253 2.82109 20.5535 2.94102 20.5809L3.16435 19.6062C3.04722 19.5794 2.92938 19.5518 2.81081 19.5236L2.57919 20.4964ZM3.66738 20.7405C3.78964 20.7662 3.91116 20.7911 4.03194 20.8153L4.22806 19.8347C4.11049 19.8112 3.99213 19.7869 3.87298 19.7619L3.66738 20.7405ZM4.03644 20.8162C4.16005 20.8397 4.28255 20.8605 4.40393 20.8785L4.55066 19.8893C4.44318 19.8734 4.33415 19.8549 4.22356 19.8338L4.03644 20.8162ZM5.15121 20.9547C5.2788 20.9616 5.40507 20.965 5.53 20.965V19.965C5.42339 19.965 5.31495 19.9621 5.20464 19.9562L5.15121 20.9547ZM5.53 20.965C5.69736 20.965 5.86062 20.9561 6.0195 20.9379L5.90544 19.9444C5.78703 19.958 5.66197 19.965 5.53 19.965V20.965ZM7.00037 20.6775C7.16098 20.606 7.31347 20.5211 7.45734 20.4227L6.89266 19.5973C6.79958 19.661 6.70012 19.7166 6.59378 19.7639L7.00037 20.6775ZM7.46173 20.4196C7.61226 20.3142 7.75517 20.1955 7.89057 20.064L7.19388 19.3466C7.09494 19.4427 6.99303 19.5271 6.88827 19.6004L7.46173 20.4196ZM8.55836 19.2204C8.64767 19.0759 8.73223 18.9236 8.81221 18.7636L7.91779 18.3164C7.85027 18.4514 7.78021 18.5774 7.70775 18.6946L8.55836 19.2204ZM8.81528 18.7574L8.93778 18.5036L8.03722 18.0689L7.91472 18.3226L8.81528 18.7574ZM9.18278 17.9961L9.30528 17.7424L8.40473 17.3076L8.28222 17.5614L9.18278 17.9961ZM9.29478 17.2871L9.05075 16.836L8.1712 17.3118L8.41522 17.7629L9.29478 17.2871ZM8.5627 15.9338L8.07464 15.0315L7.19508 15.5073L7.68314 16.4096L8.5627 15.9338ZM7.58658 14.1293L7.09853 13.2271L6.21897 13.7029L6.70703 14.6051L7.58658 14.1293ZM6.61047 12.3249L6.12242 11.4227L5.24286 11.8985L5.73092 12.8007L6.61047 12.3249ZM5.63436 10.5204L5.14631 9.61821L4.26675 10.094L4.75481 10.9962L5.63436 10.5204ZM4.65825 8.71599L4.17019 7.81377L3.29064 8.28956L3.77869 9.19179L4.65825 8.71599ZM3.68214 6.91154L3.19408 6.00932L2.31453 6.48512L2.80258 7.38734L3.68214 6.91154ZM2.70603 5.1071L2.21797 4.20488L1.33842 4.68067L1.82647 5.58289L2.70603 5.1071ZM1.72992 3.30265L1.24186 2.40043L0.362303 2.87623L0.850359 3.77845L1.72992 3.30265ZM0.753804 1.49821L0.509778 1.0471L-0.369778 1.5229L-0.125752 1.974L0.753804 1.49821ZM0.07 1.785H0.545417V0.784998H0.07V1.785ZM1.49625 1.785H2.44708V0.784998H1.49625V1.785ZM3.39792 1.785H4.34875V0.784998H3.39792V1.785ZM5.29958 1.785H5.775V0.784998H5.29958V1.785ZM5.32779 1.50861L5.5655 1.98402L6.45992 1.53681L6.22221 1.06139L5.32779 1.50861ZM6.04091 2.93486L6.51633 3.88569L7.41076 3.43847L6.93534 2.48764L6.04091 2.93486ZM6.99174 4.83652L7.46716 5.78736L8.36159 5.34014L7.88617 4.38931L6.99174 4.83652ZM7.94258 6.73819L8.418 7.68902L9.31242 7.24181L8.83701 6.29098L7.94258 6.73819ZM8.89341 8.63986L9.36883 9.59069L10.2633 9.14348L9.78784 8.19264L8.89341 8.63986ZM9.84425 10.5415L10.3197 11.4924L11.2141 11.0451L10.7387 10.0943L9.84425 10.5415ZM10.7951 12.4432L11.0328 12.9186L11.9272 12.4714L11.6895 11.996L10.7951 12.4432ZM11.48 13.195H11.515V12.195H11.48V13.195ZM11.585 13.195H11.62V12.195H11.585V13.195ZM12.0849 12.879L12.273 12.4036L11.3432 12.0356L11.1551 12.511L12.0849 12.879ZM12.6493 11.4527L13.0255 10.5019L12.0957 10.1339L11.7195 11.0848L12.6493 11.4527ZM13.4018 9.55106L13.778 8.60022L12.8482 8.23228L12.472 9.18311L13.4018 9.55106ZM14.1543 7.64939L14.5305 6.69855L13.6007 6.33061L13.2245 7.28144L14.1543 7.64939ZM14.9068 5.74772L15.283 4.79689L14.3532 4.42894L13.977 5.37978L14.9068 5.74772ZM15.6593 3.84605L16.0355 2.89522L15.1057 2.52728L14.7295 3.47811L15.6593 3.84605ZM16.4118 1.94439L16.5999 1.46897L15.6701 1.10103L15.482 1.57644L16.4118 1.94439ZM16.135 1.785H16.5929V0.784998H16.135V1.785ZM17.5088 1.785H18.4246V0.784998H17.5088V1.785ZM19.3404 1.785H20.2563V0.784998H19.3404V1.785ZM21.1721 1.785H21.63V0.784998H21.1721V1.785ZM21.1742 1.07942L20.9686 1.53529L21.8802 1.94646L22.0858 1.49058L21.1742 1.07942ZM20.5573 2.44704L20.1461 3.35879L21.0577 3.76996L21.4689 2.85821L20.5573 2.44704ZM19.7348 4.27054L19.3236 5.18229L20.2352 5.59346L20.6464 4.68171L19.7348 4.27054ZM18.9123 6.09404L18.5011 7.00579L19.4127 7.41696L19.8239 6.50521L18.9123 6.09404ZM18.0898 7.91754L17.6786 8.82929L18.5902 9.24046L19.0014 8.32871L18.0898 7.91754ZM17.2673 9.74104L16.8561 10.6528L17.7677 11.064L18.1789 10.1522L17.2673 9.74104ZM16.4448 11.5645L16.0336 12.4763L16.9452 12.8875L17.3564 11.9757L16.4448 11.5645ZM15.6223 13.388L15.2111 14.2998L16.1227 14.711L16.5339 13.7992L15.6223 13.388ZM14.7998 15.2115L14.3886 16.1233L15.3002 16.5345L15.7114 15.6227L14.7998 15.2115ZM13.9773 17.035L13.5661 17.9468L14.4777 18.358L14.8889 17.4462L13.9773 17.035ZM13.1548 18.8585L12.9492 19.3144L13.8608 19.7256L14.0664 19.2697L13.1548 18.8585ZM12.9481 19.3169C12.8698 19.493 12.7895 19.6635 12.7071 19.8285L13.6017 20.2754C13.691 20.0965 13.7778 19.9123 13.8619 19.7231L12.9481 19.3169ZM12.1549 20.804C11.9457 21.1294 11.7262 21.4254 11.4969 21.6928L12.2558 22.3439C12.5174 22.039 12.7641 21.7057 12.9961 21.3448L12.1549 20.804ZM10.7222 22.4576C10.5815 22.5738 10.4377 22.6813 10.2907 22.7803L10.8493 23.6097C11.0239 23.4922 11.1937 23.3651 11.3589 23.2288L10.7222 22.4576ZM10.2907 22.7803C10.1879 22.8495 10.0804 22.9156 9.96815 22.9785L10.4569 23.8509C10.5923 23.775 10.7232 23.6947 10.8493 23.6097L10.2907 22.7803ZM9.2726 23.3032C9.04001 23.3929 8.79182 23.4721 8.52765 23.5404L8.77795 24.5086C9.07648 24.4314 9.36144 24.3407 9.63245 24.2362L9.2726 23.3032ZM7.75123 23.702C7.49758 23.7431 7.23217 23.7758 6.95487 23.7999L7.04145 24.7962C7.34164 24.7701 7.63167 24.7344 7.91142 24.689L7.75123 23.702ZM6.14687 23.8448C6.01357 23.8482 5.87795 23.85 5.74 23.85V24.85C5.8864 24.85 6.03076 24.8481 6.17305 24.8444L6.14687 23.8448ZM2.695 24H1.695V24.823L2.50259 24.9813L2.695 24ZM2.695 20.01L2.92662 19.0372L1.695 18.7439V20.01H2.695ZM4.13 20.325L3.93388 21.3056L3.94289 21.3073L4.13 20.325ZM7.175 20.01L7.73972 20.8354L7.74846 20.8292L7.175 20.01ZM8.365 18.54L9.25951 18.9873L9.26555 18.9747L8.365 18.54ZM8.855 17.525L9.75555 17.9597L9.97793 17.4991L9.73456 17.0492L8.855 17.525ZM0.07 1.285V0.284998H-1.60789L-0.809556 1.76079L0.07 1.285ZM5.775 1.285L6.66943 0.837785L6.39303 0.284998H5.775V1.285ZM11.48 12.695L10.5856 13.1422L10.862 13.695H11.48V12.695ZM11.62 12.695V13.695H12.2997L12.5498 13.0629L11.62 12.695ZM16.135 1.285V0.284998H15.4553L15.2052 0.917052L16.135 1.285ZM21.63 1.285L22.5416 1.69616L23.1781 0.284998H21.63V1.285ZM13.405 19.52L12.4934 19.1088L12.4912 19.1139L13.405 19.52ZM10.57 23.195L10.0114 22.3656L10.57 23.195ZM5.74 23.35C5.62962 23.35 5.51468 23.3477 5.39511 23.3431L5.31789 25.3416C5.46162 25.3472 5.60234 25.35 5.74 25.35V23.35ZM4.68979 23.2934C4.46276 23.2708 4.22382 23.2415 3.97279 23.2052L3.68622 25.1845C3.96421 25.2248 4.23301 25.2579 4.49247 25.2836L4.68979 23.2934ZM3.25005 23.0871C3.13136 23.0656 3.01049 23.0428 2.88741 23.0187L2.50259 24.9813C2.63501 25.0073 2.7656 25.0319 2.89434 25.0552L3.25005 23.0871ZM3.695 24V23.5013H1.695V24H3.695ZM3.695 22.5037V21.5063H1.695V22.5037H3.695ZM3.695 20.5088V20.01H1.695V20.5088H3.695ZM2.46338 20.9828C2.58603 21.012 2.70802 21.0405 2.82936 21.0683L3.27601 19.1188C3.16029 19.0923 3.04382 19.0651 2.92662 19.0372L2.46338 20.9828ZM3.56459 21.2298C3.6884 21.2559 3.8115 21.2811 3.93388 21.3056L4.32612 19.3444C4.21015 19.3212 4.09337 19.2973 3.97578 19.2726L3.56459 21.2298ZM3.94289 21.3073C4.073 21.3321 4.20223 21.3541 4.33057 21.3731L4.62403 19.3947C4.5235 19.3798 4.4212 19.3625 4.31711 19.3427L3.94289 21.3073ZM5.1245 21.454C5.26073 21.4613 5.39591 21.465 5.53 21.465V19.465C5.43256 19.465 5.33302 19.4623 5.23135 19.4569L5.1245 21.454ZM5.53 21.465C5.71506 21.465 5.89741 21.4552 6.07653 21.4346L5.8484 19.4476C5.75023 19.4589 5.64427 19.465 5.53 19.465V21.465ZM7.20366 21.1343C7.39141 21.0508 7.57041 20.9511 7.73968 20.8353L6.61032 19.1847C6.54264 19.231 6.46968 19.2718 6.39049 19.3071L7.20366 21.1343ZM7.74846 20.8292C7.92188 20.7078 8.08528 20.5719 8.23891 20.4227L6.84554 18.9879C6.76482 19.0663 6.68341 19.1335 6.60154 19.1908L7.74846 20.8292ZM8.98366 19.4833C9.0814 19.3252 9.17321 19.1596 9.25943 18.9872L7.47057 18.0928C7.4093 18.2153 7.34647 18.3281 7.28245 18.4317L8.98366 19.4833ZM9.26555 18.9747L9.38805 18.721L7.58695 17.8515L7.46445 18.1053L9.26555 18.9747ZM9.63305 18.2135L9.75555 17.9597L7.95445 17.0903L7.83195 17.344L9.63305 18.2135ZM9.73456 17.0492L9.49053 16.5981L7.73142 17.5497L7.97544 18.0008L9.73456 17.0492ZM9.00247 15.6959L8.51442 14.7936L6.75531 15.7452L7.24336 16.6475L9.00247 15.6959ZM8.02636 13.8914L7.53831 12.9892L5.77919 13.9408L6.26725 14.843L8.02636 13.8914ZM7.05025 12.087L6.5622 11.1848L4.80308 12.1363L5.29114 13.0386L7.05025 12.087ZM6.07414 10.2825L5.58608 9.38032L3.82697 10.3319L4.31503 11.2341L6.07414 10.2825ZM5.09803 8.47809L4.60997 7.57587L2.85086 8.52746L3.33892 9.42968L5.09803 8.47809ZM4.12192 6.67365L3.63386 5.77143L1.87475 6.72301L2.3628 7.62524L4.12192 6.67365ZM3.14581 4.8692L2.65775 3.96698L0.898637 4.91857L1.38669 5.82079L3.14581 4.8692ZM2.16969 3.06476L1.68164 2.16253L-0.0774748 3.11412L0.410581 4.01635L2.16969 3.06476ZM1.19358 1.26031L0.949556 0.809204L-0.809556 1.76079L-0.565531 2.2119L1.19358 1.26031ZM0.07 2.285H0.545417V0.284998H0.07V2.285ZM1.49625 2.285H2.44708V0.284998H1.49625V2.285ZM3.39792 2.285H4.34875V0.284998H3.39792V2.285ZM5.29958 2.285H5.775V0.284998H5.29958V2.285ZM4.88057 1.73221L5.11828 2.20763L6.90714 1.3132L6.66943 0.837785L4.88057 1.73221ZM5.5937 3.15846L6.06911 4.1093L7.85797 3.21487L7.38255 2.26404L5.5937 3.15846ZM6.54453 5.06013L7.01995 6.01096L8.8088 5.11654L8.33339 4.1657L6.54453 5.06013ZM7.49536 6.9618L7.97078 7.91263L9.75964 7.0182L9.28422 6.06737L7.49536 6.9618ZM8.4462 8.86346L8.92161 9.8143L10.7105 8.91987L10.2351 7.96904L8.4462 8.86346ZM9.39703 10.7651L9.87245 11.716L11.6613 10.8215L11.1859 9.8707L9.39703 10.7651ZM10.3479 12.6668L10.5856 13.1422L12.3744 12.2478L12.1367 11.7724L10.3479 12.6668ZM11.48 13.695H11.515V11.695H11.48V13.695ZM11.585 13.695H11.62V11.695H11.585V13.695ZM12.5498 13.0629L12.738 12.5875L10.8783 11.8516L10.6902 12.3271L12.5498 13.0629ZM13.1142 11.6367L13.4905 10.6859L11.6308 9.94997L11.2545 10.9008L13.1142 11.6367ZM13.8667 9.73503L14.243 8.78419L12.3833 8.0483L12.007 8.99914L13.8667 9.73503ZM14.6192 7.83336L14.9955 6.88253L13.1358 6.14664L12.7595 7.09747L14.6192 7.83336ZM15.3717 5.93169L15.748 4.98086L13.8883 4.24497L13.512 5.1958L15.3717 5.93169ZM16.1242 4.03003L16.5005 3.07919L14.6408 2.3433L14.2645 3.29414L16.1242 4.03003ZM16.8767 2.12836L17.0648 1.65294L15.2052 0.917052L15.017 1.39247L16.8767 2.12836ZM16.135 2.285H16.5929V0.284998H16.135V2.285ZM17.5088 2.285H18.4246V0.284998H17.5088V2.285ZM19.3404 2.285H20.2563V0.284998H19.3404V2.285ZM21.1721 2.285H21.63V0.284998H21.1721V2.285ZM20.7184 0.873834L20.5128 1.32971L22.3359 2.15204L22.5416 1.69616L20.7184 0.873834ZM20.1016 2.24146L19.6903 3.15321L21.5134 3.97554L21.9247 3.06379L20.1016 2.24146ZM19.2791 4.06496L18.8678 4.97671L20.6909 5.79904L21.1022 4.88729L19.2791 4.06496ZM18.4566 5.88846L18.0453 6.80021L19.8684 7.62254L20.2797 6.71079L18.4566 5.88846ZM17.6341 7.71196L17.2228 8.62371L19.0459 9.44604L19.4572 8.53429L17.6341 7.71196ZM16.8116 9.53546L16.4003 10.4472L18.2234 11.2695L18.6347 10.3578L16.8116 9.53546ZM15.9891 11.359L15.5778 12.2707L17.4009 13.093L17.8122 12.1813L15.9891 11.359ZM15.1666 13.1825L14.7553 14.0942L16.5784 14.9165L16.9897 14.0048L15.1666 13.1825ZM14.3441 15.006L13.9328 15.9177L15.7559 16.74L16.1672 15.8283L14.3441 15.006ZM13.5216 16.8295L13.1103 17.7412L14.9334 18.5635L15.3447 17.6518L13.5216 16.8295ZM12.6991 18.653L12.4934 19.1088L14.3166 19.9312L14.5222 19.4753L12.6991 18.653ZM12.4912 19.1139C12.4159 19.2834 12.3387 19.4471 12.2598 19.605L14.049 20.4988C14.1418 20.3129 14.2318 20.122 14.3188 19.9261L12.4912 19.1139ZM11.7344 20.5336C11.5366 20.8413 11.3306 21.1187 11.1174 21.3673L12.6353 22.6695C12.913 22.3458 13.1732 21.9939 13.4167 21.6152L11.7344 20.5336ZM10.4038 22.0721C10.2754 22.1781 10.1446 22.2759 10.0114 22.3656L11.1286 24.0244C11.3169 23.8976 11.4998 23.7608 11.6772 23.6143L10.4038 22.0721ZM10.0114 22.3656C9.92024 22.427 9.82442 22.4859 9.72377 22.5423L10.7013 24.2871C10.8483 24.2048 10.9908 24.1172 11.1286 24.0244L10.0114 22.3656ZM9.09268 22.8367C8.8793 22.919 8.6495 22.9925 8.4025 23.0563L8.90309 24.9927C9.2188 24.911 9.52216 24.8147 9.81238 24.7027L9.09268 22.8367ZM7.67113 23.2084C7.43053 23.2475 7.17744 23.2787 6.91158 23.3018L7.08475 25.2943C7.39637 25.2672 7.69872 25.2301 7.99152 25.1826L7.67113 23.2084ZM6.13378 23.3449C6.00497 23.3483 5.87372 23.35 5.74 23.35V25.35C5.89063 25.35 6.03935 25.3481 6.18615 25.3442L6.13378 23.3449ZM40.2989 15.32H40.7989V14.4651L40.0538 14.8842L40.2989 15.32ZM28.7489 15.425L28.4444 15.8217L28.4523 15.8275L28.7489 15.425ZM26.7889 1.285V0.784998H26.2889V1.285H26.7889ZM32.1789 1.285H32.6789V0.784998H32.1789V1.285ZM32.9839 12.205L32.6867 12.6071L32.6965 12.6143L32.7066 12.621L32.9839 12.205ZM38.0239 12.31L37.8694 11.8345L38.0239 12.31ZM40.2989 11.155L40.6113 11.5454L40.7989 11.3953V11.155H40.2989ZM40.2989 1.285V0.784998H39.7989V1.285H40.2989ZM45.7589 1.285H46.2589V0.784998H45.7589V1.285ZM45.7589 24V24.5H46.2589V24H45.7589ZM40.2989 24H39.7989V24.5H40.2989V24ZM40.0538 14.8842C39.8939 14.9742 39.7312 15.0601 39.5655 15.142L40.009 16.0383C40.1903 15.9486 40.3687 15.8544 40.5441 15.7558L40.0538 14.8842ZM38.5504 15.5808C38.209 15.7083 37.8567 15.821 37.4933 15.9187L37.7531 16.8844C38.1461 16.7787 38.5285 16.6564 38.9003 16.5176L38.5504 15.5808ZM36.406 16.1606C36.0465 16.2248 35.6771 16.2759 35.2979 16.3138L35.3973 17.3088C35.8011 17.2685 36.1959 17.2139 36.5817 17.1451L36.406 16.1606ZM34.1772 16.3863C33.9916 16.3921 33.8039 16.395 33.6139 16.395V17.395C33.814 17.395 34.0122 17.3919 34.2084 17.3858L34.1772 16.3863ZM33.6139 16.395C33.4751 16.395 33.338 16.3923 33.2028 16.3869L33.163 17.3861C33.3118 17.392 33.4621 17.395 33.6139 17.395V16.395ZM32.3879 16.3193C32.1132 16.284 31.8468 16.2365 31.5886 16.1768L31.3636 17.1512C31.6552 17.2185 31.9543 17.2718 32.2605 17.3111L32.3879 16.3193ZM30.8136 15.9532C30.558 15.8638 30.311 15.7608 30.0726 15.6445L29.634 16.5432C29.9082 16.677 30.1914 16.7949 30.4833 16.8971L30.8136 15.9532ZM29.3752 15.2505C29.2633 15.178 29.1534 15.102 29.0455 15.0225L28.4523 15.8275C28.5763 15.9189 28.7027 16.0063 28.8315 16.0897L29.3752 15.2505ZM29.0535 15.0284C28.9432 14.9438 28.8383 14.8537 28.7388 14.7581L28.0462 15.4794C28.1724 15.6006 28.3052 15.7146 28.4444 15.8216L29.0535 15.0284ZM28.2061 14.1208C28.0553 13.8954 27.9221 13.6477 27.8072 13.3764L26.8864 13.7665C27.0244 14.0921 27.187 14.3959 27.375 14.6769L28.2061 14.1208ZM27.5346 12.5574C27.4659 12.2869 27.4112 11.9986 27.371 11.6921L26.3795 11.8221C26.4243 12.1643 26.4861 12.4916 26.5653 12.8035L27.5346 12.5574ZM27.2974 10.8011C27.2918 10.6541 27.2889 10.5037 27.2889 10.35H26.2889C26.2889 10.516 26.292 10.6792 26.2982 10.8394L27.2974 10.8011ZM27.2889 10.35V9.89675H26.2889V10.35H27.2889ZM27.2889 8.99025V8.08375H26.2889V8.99025H27.2889ZM27.2889 7.17725V6.27075H26.2889V7.17725H27.2889ZM27.2889 5.36425V4.45775H26.2889V5.36425H27.2889ZM27.2889 3.55125V2.64475H26.2889V3.55125H27.2889ZM27.2889 1.73825V1.285H26.2889V1.73825H27.2889ZM26.7889 1.785H27.2381V0.784998H26.7889V1.785ZM28.1364 1.785H29.0348V0.784998H28.1364V1.785ZM29.9331 1.785H30.8314V0.784998H29.9331V1.785ZM31.7298 1.785H32.1789V0.784998H31.7298V1.785ZM31.6789 1.285V1.82531H32.6789V1.285H31.6789ZM31.6789 2.90594V3.98656H32.6789V2.90594H31.6789ZM31.6789 5.06719V6.14781H32.6789V5.06719H31.6789ZM31.6789 7.22844V8.30906H32.6789V7.22844H31.6789ZM31.6789 9.38969V9.93H32.6789V9.38969H31.6789ZM31.6789 9.93C31.6789 10.1681 31.6903 10.3946 31.7137 10.6088L32.7077 10.5003C32.6888 10.3267 32.6789 10.1368 32.6789 9.93H31.6789ZM32.1411 12.0017C32.2857 12.2405 32.467 12.4447 32.6867 12.6071L33.2811 11.8029C33.1744 11.724 33.079 11.62 32.9964 11.4837L32.1411 12.0017ZM32.7066 12.621C32.8893 12.7428 33.0851 12.8467 33.2931 12.9332L33.677 12.0098C33.526 11.947 33.3877 11.8733 33.2613 11.789L32.7066 12.621ZM34.5356 13.2347C34.7349 13.255 34.9411 13.265 35.1539 13.265V12.265C34.9722 12.265 34.8 12.2565 34.6371 12.2399L34.5356 13.2347ZM35.1539 13.265C35.4112 13.265 35.6671 13.2551 35.9216 13.2352L35.8438 12.2382C35.6154 12.2561 35.3854 12.265 35.1539 12.265V13.265ZM37.4393 12.9945C37.6874 12.9347 37.9338 12.865 38.1785 12.7855L37.8694 11.8345C37.6491 11.9061 37.4277 11.9687 37.205 12.0224L37.4393 12.9945ZM38.1785 12.7855C38.398 12.7142 38.6093 12.6382 38.8122 12.5574L38.4424 11.6283C38.2608 11.7006 38.0698 11.7693 37.8694 11.8345L38.1785 12.7855ZM40.038 11.9485C40.242 11.8222 40.4333 11.6879 40.6113 11.5454L39.9866 10.7646C39.8419 10.8803 39.6836 10.9917 39.5113 11.0985L40.038 11.9485ZM40.7989 11.155V10.6615H39.7989V11.155H40.7989ZM40.7989 9.6745V8.6875H39.7989V9.6745H40.7989ZM40.7989 7.7005V6.7135H39.7989V7.7005H40.7989ZM40.7989 5.7265V4.7395H39.7989V5.7265H40.7989ZM40.7989 3.7525V2.7655H39.7989V3.7525H40.7989ZM40.7989 1.7785V1.285H39.7989V1.7785H40.7989ZM40.2989 1.785H40.7539V0.784998H40.2989V1.785ZM41.6639 1.785H42.5739V0.784998H41.6639V1.785ZM43.4839 1.785H44.3939V0.784998H43.4839V1.785ZM45.3039 1.785H45.7589V0.784998H45.3039V1.785ZM45.2589 1.285V1.80125H46.2589V1.285H45.2589ZM45.2589 2.83375V3.86625H46.2589V2.83375H45.2589ZM45.2589 4.89875V5.93125H46.2589V4.89875H45.2589ZM45.2589 6.96375V7.99625H46.2589V6.96375H45.2589ZM45.2589 9.02875V10.0613H46.2589V9.02875H45.2589ZM45.2589 11.0938V12.1263H46.2589V11.0938H45.2589ZM45.2589 13.1588V14.1912H46.2589V13.1588H45.2589ZM45.2589 15.2238V16.2563H46.2589V15.2238H45.2589ZM45.2589 17.2888V18.3213H46.2589V17.2888H45.2589ZM45.2589 19.3538V20.3862H46.2589V19.3538H45.2589ZM45.2589 21.4187V22.4512H46.2589V21.4187H45.2589ZM45.2589 23.4837V24H46.2589V23.4837H45.2589ZM45.7589 23.5H45.3039V24.5H45.7589V23.5ZM44.3939 23.5H43.4839V24.5H44.3939V23.5ZM42.5739 23.5H41.6639V24.5H42.5739V23.5ZM40.7539 23.5H40.2989V24.5H40.7539V23.5ZM40.7989 24V23.4575H39.7989V24H40.7989ZM40.7989 22.3725V21.2875H39.7989V22.3725H40.7989ZM40.7989 20.2025V19.1175H39.7989V20.2025H40.7989ZM40.7989 18.0325V16.9475H39.7989V18.0325H40.7989ZM40.7989 15.8625V15.32H39.7989V15.8625H40.7989ZM40.2989 15.32H41.2989V13.6102L39.8087 14.4484L40.2989 15.32ZM28.7489 15.425L28.1399 16.2181L28.1478 16.2242L28.1557 16.2301L28.7489 15.425ZM26.7889 1.285V0.284998H25.7889V1.285H26.7889ZM32.1789 1.285H33.1789V0.284998H32.1789V1.285ZM32.9839 12.205L32.3896 13.0092L32.4091 13.0236L32.4292 13.0371L32.9839 12.205ZM38.0239 12.31L37.7149 11.359L38.0239 12.31ZM40.2989 11.155L40.9236 11.9359L41.2989 11.6356V11.155H40.2989ZM40.2989 1.285V0.284998H39.2989V1.285H40.2989ZM45.7589 1.285H46.7589V0.284998H45.7589V1.285ZM45.7589 24V25H46.7589V24H45.7589ZM40.2989 24H39.2989V25H40.2989V24ZM39.8087 14.4484C39.6565 14.534 39.5016 14.6158 39.3438 14.6939L40.2307 16.4865C40.4199 16.3929 40.6061 16.2946 40.7892 16.1916L39.8087 14.4484ZM38.3754 15.1124C38.0493 15.2342 37.7121 15.3421 37.3635 15.4359L37.8829 17.3672C38.2908 17.2575 38.6883 17.1305 39.0753 16.9859L38.3754 15.1124ZM36.3181 15.6684C35.9717 15.7302 35.6152 15.7796 35.2482 15.8162L35.447 17.8063C35.8631 17.7648 36.2707 17.7085 36.6696 17.6373L36.3181 15.6684ZM34.1617 15.8866C33.9813 15.8922 33.7988 15.895 33.6139 15.895V17.895C33.8191 17.895 34.0225 17.8919 34.224 17.8856L34.1617 15.8866ZM33.6139 15.895C33.4816 15.895 33.3511 15.8924 33.2227 15.8873L33.1431 17.8857C33.2987 17.8919 33.4556 17.895 33.6139 17.895V15.895ZM32.4516 15.8234C32.1927 15.7901 31.9426 15.7454 31.7011 15.6897L31.2511 17.6384C31.5594 17.7096 31.8748 17.7657 32.1968 17.8071L32.4516 15.8234ZM30.9787 15.4813C30.7413 15.3982 30.5124 15.3027 30.2918 15.1951L29.4148 16.9926C29.7069 17.1351 30.0081 17.2605 30.3182 17.369L30.9787 15.4813ZM29.6471 14.8308C29.5436 14.7638 29.442 14.6935 29.3421 14.6199L28.1557 16.2301C28.2878 16.3273 28.4224 16.4204 28.5596 16.5094L29.6471 14.8308ZM29.358 14.6318C29.2622 14.5583 29.1713 14.4802 29.0851 14.3974L27.6999 15.8401C27.8394 15.9741 27.9862 16.1001 28.1399 16.2181L29.358 14.6318ZM28.6217 13.8427C28.4895 13.6452 28.371 13.4254 28.2676 13.1814L26.426 13.9615C26.5755 14.3143 26.7528 14.6462 26.9595 14.955L28.6217 13.8427ZM28.0192 12.4343C27.9557 12.1845 27.9046 11.9158 27.8667 11.6272L25.8837 11.8871C25.9309 12.2472 25.9962 12.5939 26.0807 12.9266L28.0192 12.4343ZM27.7971 10.7819C27.7917 10.6415 27.7889 10.4976 27.7889 10.35H25.7889C25.7889 10.5221 25.7921 10.6917 25.7985 10.8586L27.7971 10.7819ZM27.7889 10.35V9.89675H25.7889V10.35H27.7889ZM27.7889 8.99025V8.08375H25.7889V8.99025H27.7889ZM27.7889 7.17725V6.27075H25.7889V7.17725H27.7889ZM27.7889 5.36425V4.45775H25.7889V5.36425H27.7889ZM27.7889 3.55125V2.64475H25.7889V3.55125H27.7889ZM27.7889 1.73825V1.285H25.7889V1.73825H27.7889ZM26.7889 2.285H27.2381V0.284998H26.7889V2.285ZM28.1364 2.285H29.0348V0.284998H28.1364V2.285ZM29.9331 2.285H30.8314V0.284998H29.9331V2.285ZM31.7298 2.285H32.1789V0.284998H31.7298V2.285ZM31.1789 1.285V1.82531H33.1789V1.285H31.1789ZM31.1789 2.90594V3.98656H33.1789V2.90594H31.1789ZM31.1789 5.06719V6.14781H33.1789V5.06719H31.1789ZM31.1789 7.22844V8.30906H33.1789V7.22844H31.1789ZM31.1789 9.38969V9.93H33.1789V9.38969H31.1789ZM31.1789 9.93C31.1789 10.1838 31.191 10.4285 31.2166 10.663L33.2048 10.446C33.1881 10.2927 33.1789 10.1211 33.1789 9.93H31.1789ZM31.7134 12.2608C31.889 12.5508 32.1134 12.805 32.3896 13.0092L33.5783 11.4008C33.5281 11.3637 33.4757 11.3098 33.4241 11.2247L31.7134 12.2608ZM32.4292 13.0371C32.6401 13.1776 32.8647 13.2966 33.1012 13.3949L33.8689 11.5481C33.7464 11.4972 33.637 11.4385 33.5386 11.3729L32.4292 13.0371ZM34.4848 13.7321C34.7023 13.7543 34.9255 13.765 35.1539 13.765V11.765C34.9878 11.765 34.8326 11.7572 34.6879 11.7424L34.4848 13.7321ZM35.1539 13.765C35.4241 13.765 35.693 13.7546 35.9606 13.7337L35.8048 11.7397C35.5895 11.7566 35.3726 11.765 35.1539 11.765V13.765ZM37.5565 13.4806C37.8173 13.4177 38.0762 13.3445 38.333 13.261L37.7149 11.359C37.5068 11.4266 37.2978 11.4857 37.0878 11.5363L37.5565 13.4806ZM38.333 13.261C38.5621 13.1866 38.7835 13.107 38.997 13.022L38.2575 11.1637C38.0865 11.2318 37.9057 11.2969 37.7149 11.359L38.333 13.261ZM40.3014 12.3736C40.5212 12.2374 40.7289 12.0916 40.9236 11.9359L39.6743 10.3741C39.5462 10.4765 39.4044 10.5765 39.2479 10.6735L40.3014 12.3736ZM41.2989 11.155V10.6615H39.2989V11.155H41.2989ZM41.2989 9.6745V8.6875H39.2989V9.6745H41.2989ZM41.2989 7.7005V6.7135H39.2989V7.7005H41.2989ZM41.2989 5.7265V4.7395H39.2989V5.7265H41.2989ZM41.2989 3.7525V2.7655H39.2989V3.7525H41.2989ZM41.2989 1.7785V1.285H39.2989V1.7785H41.2989ZM40.2989 2.285H40.7539V0.284998H40.2989V2.285ZM41.6639 2.285H42.5739V0.284998H41.6639V2.285ZM43.4839 2.285H44.3939V0.284998H43.4839V2.285ZM45.3039 2.285H45.7589V0.284998H45.3039V2.285ZM44.7589 1.285V1.80125H46.7589V1.285H44.7589ZM44.7589 2.83375V3.86625H46.7589V2.83375H44.7589ZM44.7589 4.89875V5.93125H46.7589V4.89875H44.7589ZM44.7589 6.96375V7.99625H46.7589V6.96375H44.7589ZM44.7589 9.02875V10.0613H46.7589V9.02875H44.7589ZM44.7589 11.0938V12.1263H46.7589V11.0938H44.7589ZM44.7589 13.1588V14.1912H46.7589V13.1588H44.7589ZM44.7589 15.2238V16.2563H46.7589V15.2238H44.7589ZM44.7589 17.2888V18.3213H46.7589V17.2888H44.7589ZM44.7589 19.3538V20.3862H46.7589V19.3538H44.7589ZM44.7589 21.4187V22.4512H46.7589V21.4187H44.7589ZM44.7589 23.4837V24H46.7589V23.4837H44.7589ZM45.7589 23H45.3039V25H45.7589V23ZM44.3939 23H43.4839V25H44.3939V23ZM42.5739 23H41.6639V25H42.5739V23ZM40.7539 23H40.2989V25H40.7539V23ZM41.2989 24V23.4575H39.2989V24H41.2989ZM41.2989 22.3725V21.2875H39.2989V22.3725H41.2989ZM41.2989 20.2025V19.1175H39.2989V20.2025H41.2989ZM41.2989 18.0325V16.9475H39.2989V18.0325H41.2989ZM41.2989 15.8625V15.32H39.2989V15.8625H41.2989ZM54.157 1.285V0.784998H53.657V1.285H54.157ZM59.617 1.285H60.117V0.784998H59.617V1.285ZM59.617 16.825H59.117V18.5552L60.04 17.0917L59.617 16.825ZM69.417 1.285V0.784998H69.1412L68.9941 1.01829L69.417 1.285ZM74.877 1.285H75.377V0.784998H74.877V1.285ZM74.877 24V24.5H75.377V24H74.877ZM69.417 24H68.917V24.5H69.417V24ZM69.417 8.215H69.917V6.4617L68.9922 7.95127L69.417 8.215ZM59.617 24V24.5H59.8951L60.0418 24.2637L59.617 24ZM54.157 24H53.657V24.5H54.157V24ZM53.657 1.285V1.80125H54.657V1.285H53.657ZM53.657 2.83375V3.86625H54.657V2.83375H53.657ZM53.657 4.89875V5.93125H54.657V4.89875H53.657ZM53.657 6.96375V7.99625H54.657V6.96375H53.657ZM53.657 9.02875V10.0613H54.657V9.02875H53.657ZM53.657 11.0938V12.1263H54.657V11.0938H53.657ZM53.657 13.1588V14.1912H54.657V13.1588H53.657ZM53.657 15.2238V16.2563H54.657V15.2238H53.657ZM53.657 17.2888V18.3213H54.657V17.2888H53.657ZM53.657 19.3538V20.3862H54.657V19.3538H53.657ZM53.657 21.4187V22.4512H54.657V21.4187H53.657ZM53.657 23.4837V24H54.657V23.4837H53.657ZM54.157 24.5H54.612V23.5H54.157V24.5ZM55.522 24.5H56.432V23.5H55.522V24.5ZM57.342 24.5H58.252V23.5H57.342V24.5ZM59.162 24.5H59.617V23.5H59.162V24.5ZM60.0418 24.2637L60.314 23.8253L59.4645 23.2978L59.1922 23.7363L60.0418 24.2637ZM60.8585 22.9483L61.4029 22.0714L60.5534 21.5439L60.0089 22.4209L60.8585 22.9483ZM61.9474 21.1944L62.4918 20.3175L61.6422 19.79L61.0978 20.667L61.9474 21.1944ZM63.0363 19.4405L63.5807 18.5636L62.7311 18.0361L62.1867 18.9131L63.0363 19.4405ZM64.1252 17.6866L64.6696 16.8097L63.82 16.2822L63.2756 17.1592L64.1252 17.6866ZM65.214 15.9328L65.7585 15.0558L64.9089 14.5284L64.3645 15.4053L65.214 15.9328ZM66.3029 14.1789L66.8474 13.3019L65.9978 12.7745L65.4534 13.6514L66.3029 14.1789ZM67.3918 12.425L67.9363 11.548L67.0867 11.0206L66.5422 11.8975L67.3918 12.425ZM68.4807 10.6711L69.0252 9.79414L68.1756 9.26668L67.6311 10.1436L68.4807 10.6711ZM69.5696 8.9172L69.8418 8.47873L68.9922 7.95127L68.72 8.38974L69.5696 8.9172ZM68.917 8.215V8.70828H69.917V8.215H68.917ZM68.917 9.69484V10.6814H69.917V9.69484H68.917ZM68.917 11.668V12.6545H69.917V11.668H68.917ZM68.917 13.6411V14.6277H69.917V13.6411H68.917ZM68.917 15.6142V16.6008H69.917V15.6142H68.917ZM68.917 17.5873V18.5739H69.917V17.5873H68.917ZM68.917 19.5605V20.547H69.917V19.5605H68.917ZM68.917 21.5336V22.5202H69.917V21.5336H68.917ZM68.917 23.5067V24H69.917V23.5067H68.917ZM69.417 24.5H69.872V23.5H69.417V24.5ZM70.782 24.5H71.692V23.5H70.782V24.5ZM72.602 24.5H73.512V23.5H72.602V24.5ZM74.422 24.5H74.877V23.5H74.422V24.5ZM75.377 24V23.4837H74.377V24H75.377ZM75.377 22.4513V21.4188H74.377V22.4513H75.377ZM75.377 20.3862V19.3538H74.377V20.3862H75.377ZM75.377 18.3212V17.2887H74.377V18.3212H75.377ZM75.377 16.2562V15.2237H74.377V16.2562H75.377ZM75.377 14.1912V13.1587H74.377V14.1912H75.377ZM75.377 12.1262V11.0937H74.377V12.1262H75.377ZM75.377 10.0612V9.02875H74.377V10.0612H75.377ZM75.377 7.99625V6.96375H74.377V7.99625H75.377ZM75.377 5.93125V4.89875H74.377V5.93125H75.377ZM75.377 3.86625V2.83375H74.377V3.86625H75.377ZM75.377 1.80125V1.285H74.377V1.80125H75.377ZM74.877 0.784998H74.422V1.785H74.877V0.784998ZM73.512 0.784998H72.602V1.785H73.512V0.784998ZM71.692 0.784998H70.782V1.785H71.692V0.784998ZM69.872 0.784998H69.417V1.785H69.872V0.784998ZM68.9941 1.01829L68.7219 1.44995L69.5677 1.98337L69.84 1.55171L68.9941 1.01829ZM68.1774 2.31329L67.633 3.17662L68.4788 3.71004L69.0233 2.84671L68.1774 2.31329ZM67.0886 4.03996L66.5441 4.90329L67.39 5.43671L67.9344 4.57337L67.0886 4.03996ZM65.9997 5.76662L65.4552 6.62996L66.3011 7.16337L66.8455 6.30004L65.9997 5.76662ZM64.9108 7.49329L64.3663 8.35662L65.2122 8.89004L65.7566 8.02671L64.9108 7.49329ZM63.8219 9.21996L63.2774 10.0833L64.1233 10.6167L64.6677 9.75337L63.8219 9.21996ZM62.733 10.9466L62.1886 11.81L63.0344 12.3434L63.5788 11.48L62.733 10.9466ZM61.6441 12.6733L61.0997 13.5366L61.9455 14.07L62.49 13.2067L61.6441 12.6733ZM60.5552 14.4L60.0108 15.2633L60.8566 15.7967L61.4011 14.9334L60.5552 14.4ZM59.4663 16.1266L59.1941 16.5583L60.04 17.0917L60.3122 16.66L59.4663 16.1266ZM60.117 16.825V16.3394H59.117V16.825H60.117ZM60.117 15.3681V14.3969H59.117V15.3681H60.117ZM60.117 13.4256V12.4544H59.117V13.4256H60.117ZM60.117 11.4831V10.5119H59.117V11.4831H60.117ZM60.117 9.54062V8.56937H59.117V9.54062H60.117ZM60.117 7.59812V6.62687H59.117V7.59812H60.117ZM60.117 5.65562V4.68437H59.117V5.65562H60.117ZM60.117 3.71312V2.74187H59.117V3.71312H60.117ZM60.117 1.77062V1.285H59.117V1.77062H60.117ZM59.617 0.784998H59.162V1.785H59.617V0.784998ZM58.252 0.784998H57.342V1.785H58.252V0.784998ZM56.432 0.784998H55.522V1.785H56.432V0.784998ZM54.612 0.784998H54.157V1.785H54.612V0.784998ZM54.157 1.285V0.284998H53.157V1.285H54.157ZM59.617 1.285H60.617V0.284998H59.617V1.285ZM59.617 16.825H58.617V20.2854L60.4629 17.3584L59.617 16.825ZM69.417 1.285V0.284998H68.8654L68.5712 0.751579L69.417 1.285ZM74.877 1.285H75.877V0.284998H74.877V1.285ZM74.877 24V25H75.877V24H74.877ZM69.417 24H68.417V25H69.417V24ZM69.417 8.215H70.417V4.70839L68.5675 7.68754L69.417 8.215ZM59.617 24V25H60.1732L60.4666 24.5275L59.617 24ZM54.157 24H53.157V25H54.157V24ZM53.157 1.285V1.80125H55.157V1.285H53.157ZM53.157 2.83375V3.86625H55.157V2.83375H53.157ZM53.157 4.89875V5.93125H55.157V4.89875H53.157ZM53.157 6.96375V7.99625H55.157V6.96375H53.157ZM53.157 9.02875V10.0613H55.157V9.02875H53.157ZM53.157 11.0938V12.1263H55.157V11.0938H53.157ZM53.157 13.1588V14.1912H55.157V13.1588H53.157ZM53.157 15.2238V16.2563H55.157V15.2238H53.157ZM53.157 17.2888V18.3213H55.157V17.2888H53.157ZM53.157 19.3538V20.3862H55.157V19.3538H53.157ZM53.157 21.4187V22.4512H55.157V21.4187H53.157ZM53.157 23.4837V24H55.157V23.4837H53.157ZM54.157 25H54.612V23H54.157V25ZM55.522 25H56.432V23H55.522V25ZM57.342 25H58.252V23H57.342V25ZM59.162 25H59.617V23H59.162V25ZM60.4666 24.5275L60.7388 24.089L59.0397 23.0341L58.7674 23.4725L60.4666 24.5275ZM61.2833 23.212L61.8277 22.3351L60.1286 21.2802L59.5841 22.1571L61.2833 23.212ZM62.3722 21.4582L62.9166 20.5812L61.2174 19.5263L60.673 20.4032L62.3722 21.4582ZM63.4611 19.7043L64.0055 18.8273L62.3063 17.7724L61.7619 18.6493L63.4611 19.7043ZM64.5499 17.9504L65.0944 17.0734L63.3952 16.0185L62.8508 16.8955L64.5499 17.9504ZM65.6388 16.1965L66.1833 15.3195L64.4841 14.2646L63.9397 15.1416L65.6388 16.1965ZM66.7277 14.4426L67.2722 13.5656L65.573 12.5107L65.0286 13.3877L66.7277 14.4426ZM67.8166 12.6887L68.3611 11.8118L66.6619 10.7568L66.1175 11.6338L67.8166 12.6887ZM68.9055 10.9348L69.45 10.0579L67.7508 9.00296L67.2063 9.8799L68.9055 10.9348ZM69.9944 9.18093L70.2666 8.74245L68.5675 7.68754L68.2952 8.12601L69.9944 9.18093ZM68.417 8.215V8.70828H70.417V8.215H68.417ZM68.417 9.69484V10.6814H70.417V9.69484H68.417ZM68.417 11.668V12.6545H70.417V11.668H68.417ZM68.417 13.6411V14.6277H70.417V13.6411H68.417ZM68.417 15.6142V16.6008H70.417V15.6142H68.417ZM68.417 17.5873V18.5739H70.417V17.5873H68.417ZM68.417 19.5605V20.547H70.417V19.5605H68.417ZM68.417 21.5336V22.5202H70.417V21.5336H68.417ZM68.417 23.5067V24H70.417V23.5067H68.417ZM69.417 25H69.872V23H69.417V25ZM70.782 25H71.692V23H70.782V25ZM72.602 25H73.512V23H72.602V25ZM74.422 25H74.877V23H74.422V25ZM75.877 24V23.4837H73.877V24H75.877ZM75.877 22.4513V21.4188H73.877V22.4513H75.877ZM75.877 20.3862V19.3538H73.877V20.3862H75.877ZM75.877 18.3212V17.2887H73.877V18.3212H75.877ZM75.877 16.2562V15.2237H73.877V16.2562H75.877ZM75.877 14.1912V13.1587H73.877V14.1912H75.877ZM75.877 12.1262V11.0937H73.877V12.1262H75.877ZM75.877 10.0612V9.02875H73.877V10.0612H75.877ZM75.877 7.99625V6.96375H73.877V7.99625H75.877ZM75.877 5.93125V4.89875H73.877V5.93125H75.877ZM75.877 3.86625V2.83375H73.877V3.86625H75.877ZM75.877 1.80125V1.285H73.877V1.80125H75.877ZM74.877 0.284998H74.422V2.285H74.877V0.284998ZM73.512 0.284998H72.602V2.285H73.512V0.284998ZM71.692 0.284998H70.782V2.285H71.692V0.284998ZM69.872 0.284998H69.417V2.285H69.872V0.284998ZM68.5712 0.751579L68.299 1.18325L69.9907 2.25008L70.2629 1.81842L68.5712 0.751579ZM67.7545 2.04658L67.2101 2.90991L68.9018 3.97675L69.4462 3.11342L67.7545 2.04658ZM66.6656 3.77325L66.1212 4.63658L67.8129 5.70342L68.3573 4.84008L66.6656 3.77325ZM65.5767 5.49991L65.0323 6.36325L66.724 7.43008L67.2684 6.56675L65.5767 5.49991ZM64.4878 7.22658L63.9434 8.08991L65.6351 9.15675L66.1796 8.29342L64.4878 7.22658ZM63.399 8.95325L62.8545 9.81658L64.5462 10.8834L65.0907 10.0201L63.399 8.95325ZM62.3101 10.6799L61.7656 11.5432L63.4573 12.6101L64.0018 11.7467L62.3101 10.6799ZM61.2212 12.4066L60.6767 13.2699L62.3684 14.3367L62.9129 13.4734L61.2212 12.4066ZM60.1323 14.1332L59.5878 14.9966L61.2796 16.0634L61.824 15.2001L60.1323 14.1332ZM59.0434 15.8599L58.7712 16.2916L60.4629 17.3584L60.7351 16.9267L59.0434 15.8599ZM60.617 16.825V16.3394H58.617V16.825H60.617ZM60.617 15.3681V14.3969H58.617V15.3681H60.617ZM60.617 13.4256V12.4544H58.617V13.4256H60.617ZM60.617 11.4831V10.5119H58.617V11.4831H60.617ZM60.617 9.54062V8.56937H58.617V9.54062H60.617ZM60.617 7.59812V6.62687H58.617V7.59812H60.617ZM60.617 5.65562V4.68437H58.617V5.65562H60.617ZM60.617 3.71312V2.74187H58.617V3.71312H60.617ZM60.617 1.77062V1.285H58.617V1.77062H60.617ZM59.617 0.284998H59.162V2.285H59.617V0.284998ZM58.252 0.284998H57.342V2.285H58.252V0.284998ZM56.432 0.284998H55.522V2.285H56.432V0.284998ZM54.612 0.284998H54.157V2.285H54.612V0.284998ZM83.2918 1.285V0.784998H82.7918V1.285H83.2918ZM91.0618 1.285L91.5345 1.122L91.4183 0.784998H91.0618V1.285ZM96.6618 17.525L96.1891 17.688L96.6648 19.0674L97.1351 17.6862L96.6618 17.525ZM102.192 1.285V0.784998H101.834L101.718 1.12383L102.192 1.285ZM109.507 1.285H110.007V0.784998H109.507V1.285ZM109.507 24V24.5H110.007V24H109.507ZM104.572 24H104.072V24.5H104.572V24ZM104.572 7.2H105.072V6.7H104.572V7.2ZM104.467 7.2V6.7H104.109L103.994 7.03834L104.467 7.2ZM98.7268 24V24.5H99.0843L99.1999 24.1617L98.7268 24ZM94.3518 24L93.8802 24.166L93.9978 24.5H94.3518V24ZM88.4368 7.2L88.9084 7.03395L88.7908 6.7H88.4368V7.2ZM88.2968 7.2V6.7H87.7968V7.2H88.2968ZM88.2968 24V24.5H88.7968V24H88.2968ZM83.2918 24H82.7918V24.5H83.2918V24ZM82.7918 1.285V1.80125H83.7918V1.285H82.7918ZM82.7918 2.83375V3.86625H83.7918V2.83375H82.7918ZM82.7918 4.89875V5.93125H83.7918V4.89875H82.7918ZM82.7918 6.96375V7.99625H83.7918V6.96375H82.7918ZM82.7918 9.02875V10.0613H83.7918V9.02875H82.7918ZM82.7918 11.0938V12.1263H83.7918V11.0938H82.7918ZM82.7918 13.1588V14.1912H83.7918V13.1588H82.7918ZM82.7918 15.2238V16.2563H83.7918V15.2238H82.7918ZM82.7918 17.2888V18.3213H83.7918V17.2888H82.7918ZM82.7918 19.3538V20.3862H83.7918V19.3538H82.7918ZM82.7918 21.4187V22.4512H83.7918V21.4187H82.7918ZM82.7918 23.4837V24H83.7918V23.4837H82.7918ZM83.2918 24.5H83.7089V23.5H83.2918V24.5ZM84.543 24.5H85.3772V23.5H84.543V24.5ZM86.2114 24.5H87.0455V23.5H86.2114V24.5ZM87.8797 24.5H88.2968V23.5H87.8797V24.5ZM88.7968 24V23.475H87.7968V24H88.7968ZM88.7968 22.425V21.375H87.7968V22.425H88.7968ZM88.7968 20.325V19.275H87.7968V20.325H88.7968ZM88.7968 18.225V17.175H87.7968V18.225H88.7968ZM88.7968 16.125V15.075H87.7968V16.125H88.7968ZM88.7968 14.025V12.975H87.7968V14.025H88.7968ZM88.7968 11.925V10.875H87.7968V11.925H88.7968ZM88.7968 9.825V8.775H87.7968V9.825H88.7968ZM88.7968 7.725V7.2H87.7968V7.725H88.7968ZM88.2968 7.7H88.3318V6.7H88.2968V7.7ZM88.4018 7.7H88.4368V6.7H88.4018V7.7ZM87.9652 7.36605L88.1295 7.83272L89.0727 7.50062L88.9084 7.03395L87.9652 7.36605ZM88.4581 8.76605L88.7867 9.69938L89.7299 9.36728L89.4013 8.43395L88.4581 8.76605ZM89.1153 10.6327L89.4439 11.566L90.3872 11.2339L90.0586 10.3006L89.1153 10.6327ZM89.7725 12.4994L90.1012 13.4327L91.0444 13.1006L90.7158 12.1673L89.7725 12.4994ZM90.4298 14.366L90.7584 15.2994L91.7016 14.9673L91.373 14.0339L90.4298 14.366ZM91.087 16.2327L91.4156 17.166L92.3588 16.834L92.0302 15.9006L91.087 16.2327ZM91.7442 18.0994L92.0728 19.0327L93.0161 18.7006L92.6874 17.7673L91.7442 18.0994ZM92.4014 19.9661L92.73 20.8994L93.6733 20.5673L93.3447 19.634L92.4014 19.9661ZM93.0586 21.8327L93.3873 22.7661L94.3305 22.434L94.0019 21.5006L93.0586 21.8327ZM93.7159 23.6994L93.8802 24.166L94.8234 23.834L94.6591 23.3673L93.7159 23.6994ZM94.3518 24.5H94.8987V23.5H94.3518V24.5ZM95.9924 24.5H97.0862V23.5H95.9924V24.5ZM98.1799 24.5H98.7268V23.5H98.1799V24.5ZM99.1999 24.1617L99.3594 23.695L98.4131 23.3717L98.2537 23.8383L99.1999 24.1617ZM99.6783 22.7617L99.9972 21.8283L99.0509 21.505L98.732 22.4383L99.6783 22.7617ZM100.316 20.895L100.635 19.9617L99.6887 19.6383L99.3698 20.5717L100.316 20.895ZM100.954 19.0283L101.273 18.095L100.326 17.7717L100.008 18.705L100.954 19.0283ZM101.592 17.1617L101.91 16.2283L100.964 15.905L100.645 16.8383L101.592 17.1617ZM102.229 15.295L102.548 14.3617L101.602 14.0383L101.283 14.9717L102.229 15.295ZM102.867 13.4283L103.186 12.495L102.24 12.1717L101.921 13.105L102.867 13.4283ZM103.505 11.5617L103.824 10.6283L102.878 10.305L102.559 11.2383L103.505 11.5617ZM104.143 9.69499L104.462 8.76166L103.515 8.43834L103.196 9.37167L104.143 9.69499ZM104.781 7.82832L104.94 7.36166L103.994 7.03834L103.834 7.505L104.781 7.82832ZM104.467 7.7H104.493V6.7H104.467V7.7ZM104.546 7.7H104.572V6.7H104.546V7.7ZM104.072 7.2V7.725H105.072V7.2H104.072ZM104.072 8.775V9.825H105.072V8.775H104.072ZM104.072 10.875V11.925H105.072V10.875H104.072ZM104.072 12.975V14.025H105.072V12.975H104.072ZM104.072 15.075V16.125H105.072V15.075H104.072ZM104.072 17.175V18.225H105.072V17.175H104.072ZM104.072 19.275V20.325H105.072V19.275H104.072ZM104.072 21.375V22.425H105.072V21.375H104.072ZM104.072 23.475V24H105.072V23.475H104.072ZM104.572 24.5H105.189V23.5H104.572V24.5ZM106.422 24.5H107.656V23.5H106.422V24.5ZM108.89 24.5H109.507V23.5H108.89V24.5ZM110.007 24V23.4837H109.007V24H110.007ZM110.007 22.4513V21.4188H109.007V22.4513H110.007ZM110.007 20.3862V19.3538H109.007V20.3862H110.007ZM110.007 18.3212V17.2887H109.007V18.3212H110.007ZM110.007 16.2562V15.2237H109.007V16.2562H110.007ZM110.007 14.1912V13.1587H109.007V14.1912H110.007ZM110.007 12.1262V11.0937H109.007V12.1262H110.007ZM110.007 10.0612V9.02875H109.007V10.0612H110.007ZM110.007 7.99625V6.96375H109.007V7.99625H110.007ZM110.007 5.93125V4.89875H109.007V5.93125H110.007ZM110.007 3.86625V2.83375H109.007V3.86625H110.007ZM110.007 1.80125V1.285H109.007V1.80125H110.007ZM109.507 0.784998H109.05V1.785H109.507V0.784998ZM108.135 0.784998H107.221V1.785H108.135V0.784998ZM106.306 0.784998H105.392V1.785H106.306V0.784998ZM104.478 0.784998H103.563V1.785H104.478V0.784998ZM102.649 0.784998H102.192V1.785H102.649V0.784998ZM101.718 1.12383L101.565 1.57494L102.511 1.89728L102.665 1.44617L101.718 1.12383ZM101.258 2.47716L100.95 3.37938L101.897 3.70173L102.204 2.7995L101.258 2.47716ZM100.643 4.28161L100.336 5.18383L101.283 5.50617L101.59 4.60395L100.643 4.28161ZM100.029 6.08605L99.7215 6.98827L100.668 7.31061L100.975 6.40839L100.029 6.08605ZM99.4143 7.8905L99.1071 8.79272L100.054 9.11506L100.361 8.21284L99.4143 7.8905ZM98.7999 9.69494L98.4927 10.5972L99.4393 10.9195L99.7465 10.0173L98.7999 9.69494ZM98.1854 11.4994L97.8782 12.4016L98.8248 12.7239L99.132 11.8217L98.1854 11.4994ZM97.571 13.3038L97.2638 14.2061L98.2104 14.5284L98.5176 13.6262L97.571 13.3038ZM96.9565 15.1083L96.6493 16.0105L97.5959 16.3328L97.9032 15.4306L96.9565 15.1083ZM96.3421 16.9127L96.1885 17.3638L97.1351 17.6862L97.2887 17.2351L96.3421 16.9127ZM97.1345 17.362L96.9789 16.9109L96.0336 17.2369L96.1891 17.688L97.1345 17.362ZM96.6678 16.0087L96.3567 15.1064L95.4113 15.4324L95.7224 16.3347L96.6678 16.0087ZM96.0456 14.2042L95.7345 13.302L94.7891 13.628L95.1002 14.5302L96.0456 14.2042ZM95.4234 12.3998L95.1123 11.4976L94.1669 11.8236L94.478 12.7258L95.4234 12.3998ZM94.8011 10.5953L94.49 9.69312L93.5447 10.0191L93.8558 10.9213L94.8011 10.5953ZM94.1789 8.79089L93.8678 7.88867L92.9224 8.21466L93.2336 9.11688L94.1789 8.79089ZM93.5567 6.98645L93.2456 6.08422L92.3002 6.41022L92.6113 7.31244L93.5567 6.98645ZM92.9345 5.182L92.6234 4.27978L91.678 4.60577L91.9891 5.50799L92.9345 5.182ZM92.3123 3.37756L92.0012 2.47533L91.0558 2.80132L91.3669 3.70355L92.3123 3.37756ZM91.69 1.57311L91.5345 1.122L90.5891 1.44799L90.7447 1.8991L91.69 1.57311ZM91.0618 0.784998H90.5762V1.785H91.0618V0.784998ZM89.6049 0.784998H88.6337V1.785H89.6049V0.784998ZM87.6624 0.784998H86.6912V1.785H87.6624V0.784998ZM85.7199 0.784998H84.7487V1.785H85.7199V0.784998ZM83.7774 0.784998H83.2918V1.785H83.7774V0.784998ZM83.2918 1.285V0.284998H82.2918V1.285H83.2918ZM91.0618 1.285L92.0072 0.959007L91.7748 0.284998H91.0618V1.285ZM96.6618 17.525L95.7164 17.851L96.6677 20.6098L97.6084 17.8473L96.6618 17.525ZM102.192 1.285V0.284998H101.476L101.245 0.962657L102.192 1.285ZM109.507 1.285H110.507V0.284998H109.507V1.285ZM109.507 24V25H110.507V24H109.507ZM104.572 24H103.572V25H104.572V24ZM104.572 7.2H105.572V6.2H104.572V7.2ZM104.467 7.2V6.2H103.752L103.521 6.87668L104.467 7.2ZM98.7268 24V25H99.4419L99.6731 24.3233L98.7268 24ZM94.3518 24L93.4086 24.3321L93.6437 25H94.3518V24ZM88.4368 7.2L89.38 6.8679L89.1449 6.2H88.4368V7.2ZM88.2968 7.2V6.2H87.2968V7.2H88.2968ZM88.2968 24V25H89.2968V24H88.2968ZM83.2918 24H82.2918V25H83.2918V24ZM82.2918 1.285V1.80125H84.2918V1.285H82.2918ZM82.2918 2.83375V3.86625H84.2918V2.83375H82.2918ZM82.2918 4.89875V5.93125H84.2918V4.89875H82.2918ZM82.2918 6.96375V7.99625H84.2918V6.96375H82.2918ZM82.2918 9.02875V10.0613H84.2918V9.02875H82.2918ZM82.2918 11.0938V12.1263H84.2918V11.0938H82.2918ZM82.2918 13.1588V14.1912H84.2918V13.1588H82.2918ZM82.2918 15.2238V16.2563H84.2918V15.2238H82.2918ZM82.2918 17.2888V18.3213H84.2918V17.2888H82.2918ZM82.2918 19.3538V20.3862H84.2918V19.3538H82.2918ZM82.2918 21.4187V22.4512H84.2918V21.4187H82.2918ZM82.2918 23.4837V24H84.2918V23.4837H82.2918ZM83.2918 25H83.7089V23H83.2918V25ZM84.543 25H85.3772V23H84.543V25ZM86.2114 25H87.0455V23H86.2114V25ZM87.8797 25H88.2968V23H87.8797V25ZM89.2968 24V23.475H87.2968V24H89.2968ZM89.2968 22.425V21.375H87.2968V22.425H89.2968ZM89.2968 20.325V19.275H87.2968V20.325H89.2968ZM89.2968 18.225V17.175H87.2968V18.225H89.2968ZM89.2968 16.125V15.075H87.2968V16.125H89.2968ZM89.2968 14.025V12.975H87.2968V14.025H89.2968ZM89.2968 11.925V10.875H87.2968V11.925H89.2968ZM89.2968 9.825V8.775H87.2968V9.825H89.2968ZM89.2968 7.725V7.2H87.2968V7.725H89.2968ZM88.2968 8.2H88.3318V6.2H88.2968V8.2ZM88.4018 8.2H88.4368V6.2H88.4018V8.2ZM87.4936 7.5321L87.6579 7.99877L89.5443 7.33457L89.38 6.8679L87.4936 7.5321ZM87.9865 8.9321L88.3151 9.86543L90.2016 9.20123L89.873 8.2679L87.9865 8.9321ZM88.6437 10.7988L88.9723 11.7321L90.8588 11.0679L90.5302 10.1346L88.6437 10.7988ZM89.3009 12.6654L89.6295 13.5988L91.516 12.9346L91.1874 12.0012L89.3009 12.6654ZM89.9581 14.5321L90.2868 15.4654L92.1732 14.8012L91.8446 13.8679L89.9581 14.5321ZM90.6154 16.3988L90.944 17.3321L92.8305 16.6679L92.5018 15.7346L90.6154 16.3988ZM91.2726 18.2654L91.6012 19.1988L93.4877 18.5346L93.1591 17.6012L91.2726 18.2654ZM91.9298 20.1321L92.2584 21.0654L94.1449 20.4012L93.8163 19.4679L91.9298 20.1321ZM92.587 21.9988L92.9156 22.9321L94.8021 22.2679L94.4735 21.3346L92.587 21.9988ZM93.2442 23.8654L93.4086 24.3321L95.295 23.6679L95.1307 23.2012L93.2442 23.8654ZM94.3518 25H94.8987V23H94.3518V25ZM95.9924 25H97.0862V23H95.9924V25ZM98.1799 25H98.7268V23H98.1799V25ZM99.6731 24.3233L99.8325 23.8566L97.9399 23.21L97.7805 23.6767L99.6731 24.3233ZM100.151 22.9233L100.47 21.99L98.5777 21.3434L98.2588 22.2767L100.151 22.9233ZM100.789 21.0566L101.108 20.1233L99.2155 19.4767L98.8966 20.41L100.789 21.0566ZM101.427 19.19L101.746 18.2566L99.8533 17.61L99.5344 18.5434L101.427 19.19ZM102.065 17.3233L102.384 16.39L100.491 15.7433L100.172 16.6767L102.065 17.3233ZM102.703 15.4566L103.021 14.5233L101.129 13.8767L100.81 14.81L102.703 15.4566ZM103.34 13.59L103.659 12.6566L101.767 12.01L101.448 12.9433L103.34 13.59ZM103.978 11.7233L104.297 10.79L102.404 10.1433L102.086 11.0767L103.978 11.7233ZM104.616 9.85665L104.935 8.92331L103.042 8.27668L102.723 9.21001L104.616 9.85665ZM105.254 7.98998L105.413 7.52332L103.521 6.87668L103.361 7.34335L105.254 7.98998ZM104.467 8.2H104.493V6.2H104.467V8.2ZM104.546 8.2H104.572V6.2H104.546V8.2ZM103.572 7.2V7.725H105.572V7.2H103.572ZM103.572 8.775V9.825H105.572V8.775H103.572ZM103.572 10.875V11.925H105.572V10.875H103.572ZM103.572 12.975V14.025H105.572V12.975H103.572ZM103.572 15.075V16.125H105.572V15.075H103.572ZM103.572 17.175V18.225H105.572V17.175H103.572ZM103.572 19.275V20.325H105.572V19.275H103.572ZM103.572 21.375V22.425H105.572V21.375H103.572ZM103.572 23.475V24H105.572V23.475H103.572ZM104.572 25H105.189V23H104.572V25ZM106.422 25H107.656V23H106.422V25ZM108.89 25H109.507V23H108.89V25ZM110.507 24V23.4837H108.507V24H110.507ZM110.507 22.4513V21.4188H108.507V22.4513H110.507ZM110.507 20.3862V19.3538H108.507V20.3862H110.507ZM110.507 18.3212V17.2887H108.507V18.3212H110.507ZM110.507 16.2562V15.2237H108.507V16.2562H110.507ZM110.507 14.1912V13.1587H108.507V14.1912H110.507ZM110.507 12.1262V11.0937H108.507V12.1262H110.507ZM110.507 10.0612V9.02875H108.507V10.0612H110.507ZM110.507 7.99625V6.96375H108.507V7.99625H110.507ZM110.507 5.93125V4.89875H108.507V5.93125H110.507ZM110.507 3.86625V2.83375H108.507V3.86625H110.507ZM110.507 1.80125V1.285H108.507V1.80125H110.507ZM109.507 0.284998H109.05V2.285H109.507V0.284998ZM108.135 0.284998H107.221V2.285H108.135V0.284998ZM106.306 0.284998H105.392V2.285H106.306V0.284998ZM104.478 0.284998H103.563V2.285H104.478V0.284998ZM102.649 0.284998H102.192V2.285H102.649V0.284998ZM101.245 0.962657L101.092 1.41377L102.985 2.05845L103.138 1.60734L101.245 0.962657ZM100.784 2.31599L100.477 3.21821L102.37 3.8629L102.678 2.96067L100.784 2.31599ZM100.17 4.12043L99.8627 5.02266L101.756 5.66734L102.063 4.76512L100.17 4.12043ZM99.5555 5.92488L99.2482 6.8271L101.141 7.47178L101.449 6.56956L99.5555 5.92488ZM98.941 7.72932L98.6338 8.63155L100.527 9.27623L100.834 8.37401L98.941 7.72932ZM98.3266 9.53377L98.0193 10.436L99.9126 11.0807L100.22 10.1785L98.3266 9.53377ZM97.7121 11.3382L97.4049 12.2404L99.2981 12.8851L99.6054 11.9829L97.7121 11.3382ZM97.0977 13.1427L96.7905 14.0449L98.6837 14.6896L98.9909 13.7873L97.0977 13.1427ZM96.4832 14.9471L96.176 15.8493L98.0693 16.494L98.3765 15.5918L96.4832 14.9471ZM95.8688 16.7515L95.7152 17.2027L97.6084 17.8473L97.762 17.3962L95.8688 16.7515ZM97.6072 17.199L97.4516 16.7479L95.5609 17.3999L95.7164 17.851L97.6072 17.199ZM97.1405 15.8457L96.8294 14.9435L94.9386 15.5954L95.2498 16.4977L97.1405 15.8457ZM96.5183 14.0412L96.2072 13.139L94.3164 13.791L94.6275 14.6932L96.5183 14.0412ZM95.8961 12.2368L95.5849 11.3346L93.6942 11.9865L94.0053 12.8888L95.8961 12.2368ZM95.2738 10.4323L94.9627 9.53012L93.072 10.1821L93.3831 11.0843L95.2738 10.4323ZM94.6516 8.6279L94.3405 7.72568L92.4498 8.37766L92.7609 9.27988L94.6516 8.6279ZM94.0294 6.82345L93.7183 5.92123L91.8275 6.57321L92.1386 7.47543L94.0294 6.82345ZM93.4072 5.01901L93.0961 4.11678L91.2053 4.76877L91.5164 5.67099L93.4072 5.01901ZM92.785 3.21456L92.4738 2.31234L90.5831 2.96432L90.8942 3.86654L92.785 3.21456ZM92.1627 1.41012L92.0072 0.959007L90.1164 1.61099L90.272 2.0621L92.1627 1.41012ZM91.0618 0.284998H90.5762V2.285H91.0618V0.284998ZM89.6049 0.284998H88.6337V2.285H89.6049V0.284998ZM87.6624 0.284998H86.6912V2.285H87.6624V0.284998ZM85.7199 0.284998H84.7487V2.285H85.7199V0.284998ZM83.7774 0.284998H83.2918V2.285H83.7774V0.284998ZM125.175 24.21L125.117 24.7066L125.119 24.7068L125.175 24.21ZM122.55 23.685L122.68 23.2021L122.677 23.2012L122.55 23.685ZM119.89 22.6L119.613 23.0161L119.623 23.0224L119.89 22.6ZM118.14 20.675L118.575 20.4269L118.569 20.4178L118.14 20.675ZM135.15 1.705H135.65V1.28305L135.234 1.21212L135.15 1.705ZM135.15 5.8L135.033 6.28604L135.65 6.43505V5.8H135.15ZM125.98 4.89L125.933 4.39225L125.931 4.39248L125.98 4.89ZM124.51 5.24L124.671 5.71343L124.681 5.7099L124.51 5.24ZM135.29 19.45H135.79V18.8207L135.177 18.9629L135.29 19.45ZM135.29 23.58L135.391 24.0698L135.79 23.9877V23.58H135.29ZM127.94 23.85C127.707 23.85 127.48 23.8476 127.259 23.8427L127.237 24.8425C127.466 24.8475 127.7 24.85 127.94 24.85V23.85ZM125.903 23.7773C125.671 23.7592 125.448 23.7379 125.232 23.7132L125.119 24.7068C125.347 24.7329 125.583 24.7554 125.826 24.7743L125.903 23.7773ZM125.234 23.7134C125.027 23.6891 124.813 23.6589 124.593 23.6227L124.431 24.6095C124.665 24.6479 124.894 24.6803 125.117 24.7066L125.234 23.7134ZM123.316 23.3633C123.108 23.3139 122.896 23.2602 122.68 23.2021L122.421 24.1679C122.646 24.2283 122.867 24.2844 123.084 24.336L123.316 23.3633ZM122.677 23.2012C122.444 23.1407 122.222 23.0764 122.01 23.0085L121.705 23.961C121.936 24.0348 122.176 24.104 122.424 24.1688L122.677 23.2012ZM120.741 22.5036C120.531 22.3998 120.337 22.2911 120.158 22.1776L119.623 23.0224C119.834 23.1561 120.059 23.2819 120.298 23.3999L120.741 22.5036ZM120.168 22.184C120.004 22.075 119.848 21.9553 119.698 21.8247L119.041 22.5785C119.223 22.7371 119.413 22.883 119.613 23.016L120.168 22.184ZM118.901 20.9382C118.786 20.7778 118.678 20.6074 118.574 20.4269L117.706 20.9231C117.825 21.1311 117.952 21.3296 118.086 21.5182L118.901 20.9382ZM118.569 20.4178C118.511 20.321 118.457 20.2218 118.406 20.1201L117.511 20.5645C117.573 20.69 117.64 20.8126 117.712 20.9322L118.569 20.4178ZM118.152 19.4883C118.084 19.2751 118.03 19.0519 117.99 18.8183L117.005 18.9872C117.052 19.264 117.117 19.5319 117.199 19.7907L118.152 19.4883ZM117.914 18.1233C117.908 18.0078 117.905 17.89 117.905 17.77H116.905C116.905 17.9067 116.909 18.0418 116.916 18.175L117.914 18.1233ZM117.905 17.77V17.2712H116.905V17.77H117.905ZM117.905 16.2738V15.2762H116.905V16.2738H117.905ZM117.905 14.2787V13.2812H116.905V14.2787H117.905ZM117.905 12.2838V11.2862H116.905V12.2838H117.905ZM117.905 10.2887V9.29125H116.905V10.2887H117.905ZM117.905 8.29375V7.795H116.905V8.29375H117.905ZM117.905 7.795C117.905 7.63162 117.91 7.4719 117.919 7.31579L116.921 7.2555C116.911 7.43242 116.905 7.61226 116.905 7.795H117.905ZM118.041 6.37785C118.105 6.06265 118.192 5.76482 118.302 5.48375L117.37 5.12125C117.239 5.45759 117.136 5.80988 117.061 6.17754L118.041 6.37785ZM118.714 4.66028C118.876 4.40164 119.063 4.1586 119.275 3.93097L118.544 3.24883C118.289 3.5223 118.063 3.81582 117.867 4.12921L118.714 4.66028ZM119.967 3.31073C120.208 3.12863 120.472 2.9588 120.76 2.80164L120.281 1.92406C119.953 2.10307 119.647 2.29907 119.365 2.51249L119.967 3.31073ZM121.627 2.39517C121.915 2.2798 122.221 2.17435 122.544 2.0791L122.262 1.11976C121.91 1.22329 121.575 1.33895 121.255 1.46698L121.627 2.39517ZM123.493 1.84037C123.803 1.77436 124.127 1.71626 124.464 1.66619L124.317 0.67704C123.961 0.729959 123.617 0.791669 123.285 0.862279L123.493 1.84037ZM125.448 1.54665C125.768 1.51581 126.098 1.49132 126.439 1.47323L126.386 0.474636C126.032 0.493444 125.687 0.518968 125.352 0.551256L125.448 1.54665ZM127.438 1.43906C127.603 1.43635 127.771 1.435 127.94 1.435V0.434999C127.765 0.434999 127.593 0.436395 127.422 0.43919L127.438 1.43906ZM127.94 1.435C128.083 1.435 128.231 1.43667 128.382 1.44003L128.405 0.440276C128.246 0.436763 128.091 0.434999 127.94 0.434999V1.435ZM129.271 1.47626C129.556 1.49271 129.854 1.51409 130.163 1.54044L130.248 0.54405C129.93 0.516991 129.624 0.494937 129.329 0.477923L129.271 1.47626ZM131.055 1.6266C131.344 1.65751 131.641 1.69218 131.948 1.73062L132.072 0.738384C131.76 0.69925 131.456 0.663882 131.162 0.632293L131.055 1.6266ZM132.839 1.84942C133.129 1.89022 133.426 1.93404 133.731 1.98089L133.883 0.992518C133.574 0.94505 133.273 0.9006 132.979 0.859175L132.839 1.84942ZM134.621 2.12308C134.768 2.14737 134.916 2.1723 135.066 2.19788L135.234 1.21212C135.083 1.18626 134.933 1.16104 134.784 1.13647L134.621 2.12308ZM134.65 1.705V2.21687H135.65V1.705H134.65ZM134.65 3.24062V4.26437H135.65V3.24062H134.65ZM134.65 5.28812V5.8H135.65V5.28812H134.65ZM135.268 5.31396C135.119 5.27799 134.971 5.24299 134.823 5.20896L134.598 6.18325C134.742 6.21654 134.887 6.25081 135.033 6.28604L135.268 5.31396ZM133.932 5.01221C133.629 4.94866 133.33 4.88945 133.035 4.83461L132.852 5.81773C133.139 5.87114 133.43 5.92887 133.726 5.99092L133.932 5.01221ZM132.133 4.67824C131.826 4.62903 131.523 4.58486 131.225 4.54576L131.095 5.53723C131.383 5.57507 131.676 5.61787 131.975 5.66565L132.133 4.67824ZM130.313 4.44022C130.001 4.40927 129.695 4.38427 129.395 4.36525L129.332 5.36325C129.62 5.38149 129.914 5.4055 130.214 5.43532L130.313 4.44022ZM128.473 4.32526C128.317 4.32176 128.163 4.32 128.01 4.32V5.32C128.155 5.32 128.302 5.32167 128.45 5.32501L128.473 4.32526ZM128.01 4.32C127.831 4.32 127.66 4.32099 127.496 4.32299L127.508 5.32291C127.668 5.32097 127.835 5.32 128.01 5.32V4.32ZM126.46 4.35419C126.268 4.36444 126.092 4.37707 125.933 4.39225L126.028 5.38775C126.171 5.37414 126.332 5.36244 126.514 5.35277L126.46 4.35419ZM125.931 4.39248C125.795 4.40608 125.657 4.42501 125.519 4.44916L125.691 5.43424C125.806 5.41414 125.919 5.3986 126.03 5.38752L125.931 4.39248ZM124.723 4.64154C124.596 4.68039 124.468 4.72326 124.339 4.7701L124.681 5.7099C124.794 5.66874 124.906 5.63139 125.016 5.5978L124.723 4.64154ZM124.349 4.76667C124.198 4.81824 124.053 4.87815 123.915 4.94689L124.363 5.8413C124.457 5.7942 124.56 5.75138 124.671 5.71332L124.349 4.76667ZM123.13 5.52427C122.903 5.76503 122.728 6.04447 122.603 6.35778L123.532 6.72816C123.613 6.52557 123.722 6.35423 123.858 6.20932L123.13 5.52427ZM122.387 7.27326C122.372 7.41965 122.365 7.57031 122.365 7.725H123.365C123.365 7.60114 123.371 7.48396 123.382 7.37323L122.387 7.27326ZM122.365 7.725V8.208H123.365V7.725H122.365ZM122.365 9.174V10.14H123.365V9.174H122.365ZM122.365 11.106V12.072H123.365V11.106H122.365ZM122.365 13.038V14.004H123.365V13.038H122.365ZM122.365 14.97V15.936H123.365V14.97H122.365ZM122.365 16.902V17.385H123.365V16.902H122.365ZM122.365 17.385C122.365 17.5635 122.378 17.7379 122.403 17.9077L123.392 17.7595C123.374 17.642 123.365 17.5173 123.365 17.385H122.365ZM122.752 18.928C122.93 19.2377 123.165 19.5097 123.452 19.7444L124.085 18.9706C123.885 18.8069 123.732 18.6267 123.62 18.4306L122.752 18.928ZM124.325 20.2793C124.607 20.4083 124.915 20.5174 125.248 20.6079L125.511 19.6429C125.222 19.5645 124.966 19.4731 124.742 19.3701L124.325 20.2793ZM126.181 20.8045C126.476 20.8509 126.786 20.887 127.113 20.9131L127.192 19.9163C126.889 19.892 126.604 19.8587 126.337 19.8167L126.181 20.8045ZM128.038 20.9597C128.189 20.9632 128.343 20.965 128.5 20.965V19.965C128.351 19.965 128.204 19.9633 128.061 19.96L128.038 20.9597ZM128.5 20.965C128.691 20.965 128.889 20.9605 129.095 20.9515L129.051 19.9524C128.858 19.9608 128.675 19.965 128.5 19.965V20.965ZM130.268 20.8615C130.635 20.823 131.02 20.7736 131.426 20.7137L131.28 19.7244C130.886 19.7826 130.514 19.8301 130.164 19.8671L130.268 20.8615ZM132.573 20.5254C132.938 20.4599 133.317 20.3871 133.71 20.3071L133.51 19.3273C133.124 19.4058 132.753 19.4771 132.396 19.5411L132.573 20.5254ZM134.84 20.0653C135.025 20.024 135.213 19.9812 135.403 19.9371L135.177 18.9629C134.99 19.0065 134.804 19.0487 134.622 19.0894L134.84 20.0653ZM134.79 19.45V19.9662H135.79V19.45H134.79ZM134.79 20.9988V22.0312H135.79V20.9988H134.79ZM134.79 23.0638V23.58H135.79V23.0638H134.79ZM135.19 23.0902C135.04 23.121 134.891 23.1508 134.742 23.1797L134.932 24.1615C135.085 24.1318 135.238 24.1013 135.391 24.0698L135.19 23.0902ZM133.843 23.3427C133.541 23.3938 133.24 23.4409 132.94 23.4842L133.083 24.474C133.391 24.4295 133.7 24.3811 134.009 24.3287L133.843 23.3427ZM132.035 23.6035C131.732 23.6396 131.43 23.6717 131.128 23.6999L131.221 24.6956C131.531 24.6666 131.842 24.6336 132.154 24.5964L132.035 23.6035ZM130.218 23.7729C129.914 23.7934 129.61 23.8098 129.308 23.8221L129.348 24.8213C129.66 24.8086 129.972 24.7917 130.285 24.7707L130.218 23.7729ZM128.396 23.8469C128.244 23.849 128.092 23.85 127.94 23.85V24.85C128.097 24.85 128.253 24.8489 128.41 24.8468L128.396 23.8469ZM125.175 24.21L125.058 25.2032L125.062 25.2035L125.175 24.21ZM122.55 23.685L122.809 22.7191L122.803 22.7174L122.55 23.685ZM119.89 22.6L119.336 23.432L119.345 23.4385L119.355 23.4448L119.89 22.6ZM118.14 20.675L119.009 20.1789L119.003 20.1696L118.998 20.1605L118.14 20.675ZM135.15 1.705H136.15V0.861104L135.318 0.719232L135.15 1.705ZM135.15 5.8L134.916 6.77208L136.15 7.0701V5.8H135.15ZM125.98 4.89L125.885 3.89449L125.881 3.89496L125.98 4.89ZM124.51 5.24L124.833 6.18665L124.842 6.18332L124.852 6.17979L124.51 5.24ZM135.29 19.45H136.29V18.1914L135.064 18.4759L135.29 19.45ZM135.29 23.58L135.492 24.5595L136.29 24.3953V23.58H135.29ZM127.94 23.35C127.711 23.35 127.487 23.3476 127.27 23.3428L127.226 25.3423C127.459 25.3475 127.697 25.35 127.94 25.35V23.35ZM125.942 23.2788C125.716 23.2612 125.498 23.2404 125.289 23.2165L125.062 25.2035C125.297 25.2304 125.538 25.2534 125.787 25.2728L125.942 23.2788ZM125.292 23.2169C125.093 23.1934 124.887 23.1643 124.674 23.1293L124.35 25.1029C124.591 25.1425 124.827 25.176 125.058 25.2032L125.292 23.2169ZM123.431 22.8769C123.229 22.8286 123.022 22.7761 122.809 22.7192L122.291 24.6508C122.521 24.7124 122.746 24.7696 122.968 24.8224L123.431 22.8769ZM122.803 22.7174C122.579 22.659 122.365 22.5972 122.162 22.5323L121.553 24.4372C121.793 24.5139 122.041 24.5857 122.298 24.6526L122.803 22.7174ZM120.963 22.0554C120.767 21.9588 120.589 21.8586 120.425 21.7552L119.355 23.4448C119.582 23.5886 119.823 23.7229 120.076 23.8481L120.963 22.0554ZM120.445 21.768C120.3 21.671 120.16 21.5644 120.026 21.4478L118.712 22.9555C118.91 23.128 119.118 23.287 119.336 23.432L120.445 21.768ZM119.308 20.6482C119.204 20.5019 119.104 20.3456 119.009 20.1789L117.272 21.1711C117.399 21.393 117.534 21.6055 117.679 21.8082L119.308 20.6482ZM118.998 20.1605C118.947 20.0752 118.899 19.9877 118.854 19.8979L117.063 20.7867C117.131 20.924 117.204 21.0583 117.283 21.1895L118.998 20.1605ZM118.629 19.337C118.568 19.1468 118.519 18.9459 118.483 18.7338L116.512 19.0716C116.563 19.37 116.633 19.6603 116.722 19.9419L118.629 19.337ZM118.414 18.0975C118.408 17.9908 118.405 17.8817 118.405 17.77H116.405C116.405 17.9151 116.409 18.0587 116.416 18.2009L118.414 18.0975ZM118.405 17.77V17.2712H116.405V17.77H118.405ZM118.405 16.2738V15.2762H116.405V16.2738H118.405ZM118.405 14.2787V13.2812H116.405V14.2787H118.405ZM118.405 12.2838V11.2862H116.405V12.2838H118.405ZM118.405 10.2887V9.29125H116.405V10.2887H118.405ZM118.405 8.29375V7.795H116.405V8.29375H118.405ZM118.405 7.795C118.405 7.6413 118.41 7.49164 118.419 7.34594L116.422 7.22536C116.411 7.41268 116.405 7.60258 116.405 7.795H118.405ZM118.53 6.47801C118.59 6.18903 118.669 5.91843 118.768 5.665L116.904 4.94C116.762 5.30397 116.652 5.6835 116.571 6.07738L118.53 6.47801ZM119.138 4.92581C119.283 4.69455 119.45 4.47675 119.641 4.27204L118.179 2.90777C117.902 3.20415 117.657 3.52291 117.443 3.86368L119.138 4.92581ZM120.268 3.70985C120.489 3.54341 120.732 3.38666 121 3.24043L120.041 1.48528C119.693 1.6752 119.367 1.8843 119.063 2.11337L120.268 3.70985ZM121.813 2.85927C122.085 2.75022 122.376 2.64989 122.686 2.55877L122.121 0.640088C121.755 0.747761 121.404 0.868521 121.069 1.00288L121.813 2.85927ZM123.597 2.32941C123.897 2.26571 124.21 2.20942 124.537 2.16077L124.244 0.182465C123.878 0.236807 123.523 0.300323 123.181 0.373235L123.597 2.32941ZM125.496 2.04434C125.808 2.01423 126.131 1.99026 126.466 1.97253L126.36 -0.0246611C125.999 -0.00549507 125.646 0.020546 125.304 0.0535603L125.496 2.04434ZM127.446 1.93899C127.609 1.93633 127.773 1.935 127.94 1.935V-0.0650015C127.763 -0.0650015 127.587 -0.0635843 127.414 -0.0607424L127.446 1.93899ZM127.94 1.935C128.08 1.935 128.223 1.93663 128.371 1.93991L128.416 -0.0596008C128.254 -0.0631924 128.095 -0.0650015 127.94 -0.0650015V1.935ZM129.242 1.97543C129.523 1.9916 129.815 2.01264 130.121 2.03864L130.29 0.0458546C129.968 0.0184393 129.657 -0.00395012 129.358 -0.0212469L129.242 1.97543ZM131.002 2.12375C131.287 2.15432 131.582 2.18864 131.885 2.22673L132.134 0.242269C131.819 0.202785 131.513 0.167068 131.215 0.135141L131.002 2.12375ZM132.769 2.34454C133.057 2.38503 133.352 2.42853 133.655 2.47507L133.959 0.498336C133.648 0.450557 133.345 0.405792 133.048 0.364053L132.769 2.34454ZM134.539 2.61638C134.685 2.64053 134.833 2.66533 134.982 2.69077L135.318 0.719232C135.166 0.693235 135.015 0.667881 134.866 0.643169L134.539 2.61638ZM134.15 1.705V2.21687H136.15V1.705H134.15ZM134.15 3.24062V4.26437H136.15V3.24062H134.15ZM134.15 5.28812V5.8H136.15V5.28812H134.15ZM135.385 4.82792C135.234 4.79158 135.085 4.75621 134.936 4.72182L134.485 6.67039C134.628 6.70332 134.771 6.73722 134.916 6.77208L135.385 4.82792ZM134.034 4.52285C133.728 4.45855 133.425 4.39861 133.127 4.34305L132.761 6.30929C133.044 6.36198 133.331 6.41897 133.624 6.48028L134.034 4.52285ZM132.212 4.18453C131.9 4.1346 131.593 4.08976 131.291 4.05002L131.03 6.03297C131.313 6.07018 131.602 6.1123 131.896 6.15936L132.212 4.18453ZM130.362 3.94267C130.045 3.91115 129.733 3.88566 129.427 3.86625L129.3 5.86225C129.582 5.88009 129.87 5.90361 130.165 5.93287L130.362 3.94267ZM128.484 3.82539C128.325 3.8218 128.167 3.82 128.01 3.82V5.82C128.151 5.82 128.294 5.82162 128.439 5.82488L128.484 3.82539ZM128.01 3.82C127.829 3.82 127.656 3.821 127.49 3.82302L127.514 5.82288C127.671 5.82096 127.837 5.82 128.01 5.82V3.82ZM126.434 3.8549C126.236 3.86543 126.053 3.87854 125.886 3.8945L126.075 5.8855C126.21 5.87268 126.364 5.86144 126.54 5.85206L126.434 3.8549ZM125.881 3.89496C125.732 3.90982 125.583 3.93044 125.433 3.95662L125.777 5.92678C125.881 5.9087 125.982 5.89486 126.08 5.88504L125.881 3.89496ZM124.577 4.16341C124.441 4.20489 124.305 4.25053 124.169 4.30021L124.852 6.17979C124.957 6.14147 125.061 6.10689 125.162 6.07592L124.577 4.16341ZM124.188 4.29335C124.017 4.35167 123.851 4.42013 123.692 4.49968L124.586 6.28851C124.659 6.25222 124.741 6.21795 124.833 6.18665L124.188 4.29335ZM122.765 5.18175C122.494 5.47042 122.286 5.80392 122.139 6.1726L123.996 6.91335C124.055 6.76612 124.131 6.64884 124.222 6.55184L122.765 5.18175ZM121.89 7.22328C121.873 7.3875 121.865 7.55489 121.865 7.725H123.865C123.865 7.61655 123.87 7.51611 123.88 7.42322L121.89 7.22328ZM121.865 7.725V8.208H123.865V7.725H121.865ZM121.865 9.174V10.14H123.865V9.174H121.865ZM121.865 11.106V12.072H123.865V11.106H121.865ZM121.865 13.038V14.004H123.865V13.038H121.865ZM121.865 14.97V15.936H123.865V14.97H121.865ZM121.865 16.902V17.385H123.865V16.902H121.865ZM121.865 17.385C121.865 17.5866 121.879 17.7858 121.909 17.9817L123.887 17.6854C123.873 17.5941 123.865 17.4942 123.865 17.385H121.865ZM122.318 19.1766C122.529 19.5432 122.805 19.861 123.135 20.1313L124.402 18.5837C124.245 18.4556 124.133 18.3212 124.054 18.182L122.318 19.1766ZM124.117 20.7339C124.427 20.8759 124.762 20.9938 125.117 21.0904L125.642 19.1604C125.376 19.0881 125.146 19.0055 124.95 18.9156L124.117 20.7339ZM126.104 21.2984C126.412 21.347 126.735 21.3845 127.073 21.4115L127.232 19.4179C126.94 19.3945 126.668 19.3626 126.415 19.3228L126.104 21.2984ZM128.026 21.4596C128.182 21.4632 128.34 21.465 128.5 21.465V19.465C128.354 19.465 128.212 19.4634 128.073 19.4601L128.026 21.4596ZM128.5 21.465C128.699 21.465 128.904 21.4603 129.116 21.451L129.029 19.4529C128.843 19.461 128.667 19.465 128.5 19.465V21.465ZM130.321 21.3588C130.695 21.3194 131.088 21.2691 131.499 21.2083L131.207 19.2298C130.819 19.287 130.454 19.3336 130.111 19.3698L130.321 21.3588ZM132.661 21.0175C133.03 20.9513 133.413 20.8778 133.809 20.7971L133.41 18.8373C133.028 18.9152 132.661 18.9857 132.308 19.0489L132.661 21.0175ZM134.949 20.5533C135.136 20.5116 135.325 20.4686 135.516 20.4241L135.064 18.4759C134.878 18.5191 134.694 18.561 134.513 18.6014L134.949 20.5533ZM134.29 19.45V19.9662H136.29V19.45H134.29ZM134.29 20.9988V22.0312H136.29V20.9988H134.29ZM134.29 23.0638V23.58H136.29V23.0638H134.29ZM135.089 22.6005C134.941 22.6308 134.794 22.6603 134.647 22.6888L135.027 24.6523C135.182 24.6224 135.337 24.5914 135.492 24.5595L135.089 22.6005ZM133.759 22.8498C133.462 22.9001 133.165 22.9466 132.869 22.9893L133.155 24.9688C133.467 24.9238 133.78 24.8747 134.093 24.8217L133.759 22.8498ZM131.976 23.107C131.677 23.1426 131.379 23.1743 131.081 23.2021L131.267 25.1934C131.582 25.164 131.897 25.1305 132.213 25.0929L131.976 23.107ZM130.185 23.2741C129.885 23.2942 129.586 23.3104 129.287 23.3225L129.369 25.3209C129.685 25.308 130.002 25.2909 130.319 25.2696L130.185 23.2741ZM128.389 23.3469C128.239 23.349 128.09 23.35 127.94 23.35V25.35C128.099 25.35 128.258 25.3489 128.417 25.3467L128.389 23.3469ZM146.479 15.18L146.894 15.4596L147.348 14.7863L146.542 14.684L146.479 15.18ZM143.189 13.78L143.548 13.4321L143.189 13.78ZM144.134 2.405L144.37 2.846L144.376 2.84279L144.134 2.405ZM160.759 1.285H161.259V0.784998H160.759V1.285ZM160.759 24V24.5H161.259V24H160.759ZM155.299 24H154.799V24.5H155.299V24ZM155.299 15.6H155.799V15.1H155.299V15.6ZM152.079 15.6V15.1H151.804L151.657 15.3325L152.079 15.6ZM146.759 24V24.5H147.034L147.182 24.2675L146.759 24ZM140.529 24L140.115 23.7204L139.589 24.5H140.529V24ZM155.299 11.995V12.495H155.799V11.995H155.299ZM155.299 5.17H155.799V4.67H155.299V5.17ZM148.194 5.66L148.457 6.08516L148.463 6.08183L148.194 5.66ZM148.159 11.505L147.859 11.905L147.866 11.9099L147.872 11.9146L148.159 11.505ZM146.065 14.9004L145.767 15.3414L146.596 15.9006L146.894 15.4596L146.065 14.9004ZM145.172 16.2234L144.577 17.1054L145.406 17.6646L146.001 16.7826L145.172 16.2234ZM143.982 17.9874L143.387 18.8694L144.216 19.4286L144.811 18.5466L143.982 17.9874ZM142.792 19.7514L142.197 20.6334L143.026 21.1926L143.621 20.3106L142.792 19.7514ZM141.602 21.5154L141.007 22.3974L141.836 22.9566L142.431 22.0746L141.602 21.5154ZM140.412 23.2794L140.115 23.7204L140.944 24.2796L141.241 23.8386L140.412 23.2794ZM140.529 24.5H141.048V23.5H140.529V24.5ZM142.087 24.5H143.125V23.5H142.087V24.5ZM144.163 24.5H145.202V23.5H144.163V24.5ZM146.24 24.5H146.759V23.5H146.24V24.5ZM147.182 24.2675L147.448 23.8475L146.603 23.3125L146.337 23.7325L147.182 24.2675ZM147.98 23.0075L148.512 22.1675L147.667 21.6325L147.135 22.4725L147.98 23.0075ZM149.044 21.3275L149.576 20.4875L148.731 19.9525L148.199 20.7925L149.044 21.3275ZM150.108 19.6475L150.64 18.8075L149.795 18.2725L149.263 19.1125L150.108 19.6475ZM151.172 17.9675L151.704 17.1275L150.859 16.5925L150.327 17.4325L151.172 17.9675ZM152.236 16.2875L152.502 15.8675L151.657 15.3325L151.391 15.7525L152.236 16.2875ZM152.079 16.1H152.482V15.1H152.079V16.1ZM153.287 16.1H154.092V15.1H153.287V16.1ZM154.897 16.1H155.299V15.1H154.897V16.1ZM154.799 15.6V16.125H155.799V15.6H154.799ZM154.799 17.175V18.225H155.799V17.175H154.799ZM154.799 19.275V20.325H155.799V19.275H154.799ZM154.799 21.375V22.425H155.799V21.375H154.799ZM154.799 23.475V24H155.799V23.475H154.799ZM155.299 24.5H155.754V23.5H155.299V24.5ZM156.664 24.5H157.574V23.5H156.664V24.5ZM158.484 24.5H159.394V23.5H158.484V24.5ZM160.304 24.5H160.759V23.5H160.304V24.5ZM161.259 24V23.4837H160.259V24H161.259ZM161.259 22.4513V21.4188H160.259V22.4513H161.259ZM161.259 20.3862V19.3538H160.259V20.3862H161.259ZM161.259 18.3212V17.2887H160.259V18.3212H161.259ZM161.259 16.2562V15.2237H160.259V16.2562H161.259ZM161.259 14.1912V13.1587H160.259V14.1912H161.259ZM161.259 12.1262V11.0937H160.259V12.1262H161.259ZM161.259 10.0612V9.02875H160.259V10.0612H161.259ZM161.259 7.99625V6.96375H160.259V7.99625H161.259ZM161.259 5.93125V4.89875H160.259V5.93125H161.259ZM161.259 3.86625V2.83375H160.259V3.86625H161.259ZM161.259 1.80125V1.285H160.259V1.80125H161.259ZM160.759 0.784998H160.257V1.785H160.759V0.784998ZM159.252 0.784998H158.248V1.785H159.252V0.784998ZM157.243 0.784998H156.239V1.785H157.243V0.784998ZM155.234 0.784998H154.23V1.785H155.234V0.784998ZM153.225 0.784998H152.221V1.785H153.225V0.784998ZM151.216 0.784998H150.714V1.785H151.216V0.784998ZM150.714 0.784998C150.521 0.784998 150.331 0.786489 150.145 0.789477L150.161 1.78935C150.342 1.78645 150.526 1.785 150.714 1.785V0.784998ZM149.003 0.828593C148.605 0.850085 148.224 0.879566 147.86 0.917135L147.962 1.91186C148.309 1.87611 148.674 1.84783 149.057 1.82714L149.003 0.828593ZM146.715 1.07126C146.309 1.14025 145.928 1.22209 145.572 1.31724L145.83 2.28329C146.152 2.19714 146.503 2.12161 146.883 2.05714L146.715 1.07126ZM144.443 1.70041C144.249 1.78298 144.065 1.87182 143.893 1.96721L144.376 2.84279C144.517 2.76504 144.669 2.69078 144.835 2.62028L144.443 1.70041ZM143.898 1.96403C143.713 2.06319 143.537 2.17168 143.372 2.28975L143.954 3.10334C144.082 3.01169 144.22 2.92581 144.37 2.84596L143.898 1.96403ZM142.47 3.16621C142.219 3.5007 142.024 3.87271 141.883 4.27937L142.828 4.60704C142.937 4.29312 143.085 4.01357 143.27 3.76556L142.47 3.16621ZM141.631 5.47982C141.613 5.67465 141.604 5.87476 141.604 6.08H142.604C142.604 5.90359 142.612 5.73431 142.627 5.57199L141.631 5.47982ZM141.604 6.08V6.64437H142.604V6.08H141.604ZM141.604 7.77312V8.90187H142.604V7.77312H141.604ZM141.604 10.0306V10.595H142.604V10.0306H141.604ZM141.604 10.595C141.604 10.7518 141.609 10.9055 141.617 11.056L142.616 10.9969C142.608 10.867 142.604 10.7331 142.604 10.595H141.604ZM141.738 11.9839C141.806 12.3075 141.9 12.6133 142.022 12.8999L142.943 12.5087C142.848 12.287 142.773 12.0441 142.717 11.7787L141.738 11.9839ZM142.509 13.7511C142.608 13.8836 142.715 14.0092 142.83 14.1279L143.548 13.4321C143.463 13.3441 143.384 13.2509 143.31 13.1525L142.509 13.7511ZM142.83 14.1279C142.949 14.2512 143.077 14.3673 143.213 14.4763L143.839 13.6958C143.734 13.6124 143.638 13.5245 143.548 13.4321L142.83 14.1279ZM144.074 15.0194C144.359 15.1607 144.668 15.2809 144.997 15.3811L145.288 14.4243C145.006 14.3384 144.749 14.2376 144.516 14.1228L144.074 15.0194ZM145.942 15.6044C146.096 15.6316 146.254 15.6555 146.416 15.676L146.542 14.684C146.395 14.6654 146.253 14.6439 146.115 14.6196L145.942 15.6044ZM155.299 11.495H154.735V12.495H155.299V11.495ZM153.606 11.495H152.477V12.495H153.606V11.495ZM151.348 11.495H150.784V12.495H151.348V11.495ZM150.784 11.495C150.552 11.495 150.336 11.4895 150.135 11.4787L150.081 12.4772C150.302 12.4891 150.537 12.495 150.784 12.495V11.495ZM148.913 11.3004C148.696 11.2375 148.546 11.1656 148.446 11.0954L147.872 11.9146C148.088 12.0655 148.347 12.1773 148.634 12.2606L148.913 11.3004ZM148.459 11.105C148.373 11.0405 148.295 10.9549 148.227 10.841L147.369 11.3551C147.498 11.5708 147.661 11.7566 147.859 11.905L148.459 11.105ZM147.984 10.0029C147.968 9.85324 147.959 9.68913 147.959 9.51H146.959C146.959 9.72029 146.969 9.92073 146.99 10.1107L147.984 10.0029ZM147.959 9.51V8.97625H146.959V9.51H147.959ZM147.959 7.90875V7.375H146.959V7.90875H147.959ZM147.959 7.375C147.959 7.22108 147.968 7.082 147.986 6.95691L146.995 6.81915C146.971 6.99573 146.959 7.1813 146.959 7.375H147.959ZM148.231 6.28988C148.294 6.20757 148.369 6.13996 148.457 6.08513L147.931 5.23487C147.739 5.35338 147.574 5.50293 147.437 5.68159L148.231 6.28988ZM148.463 6.08183C148.581 6.00645 148.739 5.93482 148.946 5.87313L148.66 4.9149C148.387 4.99627 148.14 5.10196 147.926 5.23817L148.463 6.08183ZM150.147 5.68757C150.345 5.67592 150.557 5.67 150.784 5.67V4.67C150.54 4.67 150.308 4.67637 150.088 4.68929L150.147 5.68757ZM150.784 5.67H151.348V4.67H150.784V5.67ZM152.477 5.67H153.606V4.67H152.477V5.67ZM154.735 5.67H155.299V4.67H154.735V5.67ZM154.799 5.17V5.73875H155.799V5.17H154.799ZM154.799 6.87625V8.01375H155.799V6.87625H154.799ZM154.799 9.15125V10.2887H155.799V9.15125H154.799ZM154.799 11.4263V11.995H155.799V11.4263H154.799ZM146.479 15.18L147.308 15.7392L148.217 14.3926L146.605 14.188L146.479 15.18ZM143.189 13.78L143.907 13.0842L143.189 13.78ZM144.134 2.405L144.606 3.28701L144.617 3.28058L144.134 2.405ZM160.759 1.285H161.759V0.284998H160.759V1.285ZM160.759 24V25H161.759V24H160.759ZM155.299 24H154.299V25H155.299V24ZM155.299 15.6H156.299V14.6H155.299V15.6ZM152.079 15.6V14.6H151.529L151.234 15.0649L152.079 15.6ZM146.759 24V25H147.309L147.604 24.5351L146.759 24ZM140.529 24L139.7 23.4408L138.648 25H140.529V24ZM155.299 11.995V12.995H156.299V11.995H155.299ZM155.299 5.17H156.299V4.17H155.299V5.17ZM148.194 5.66L148.721 6.51033L148.731 6.50366L148.194 5.66ZM148.159 11.505L147.559 12.305L147.572 12.3148L147.586 12.3242L148.159 11.505ZM145.65 14.6208L145.353 15.0618L147.011 16.1802L147.308 15.7392L145.65 14.6208ZM144.758 15.9438L144.163 16.8258L145.821 17.9442L146.416 17.0622L144.758 15.9438ZM143.568 17.7078L142.973 18.5898L144.631 19.7082L145.226 18.8262L143.568 17.7078ZM142.378 19.4718L141.783 20.3538L143.441 21.4722L144.036 20.5902L142.378 19.4718ZM141.188 21.2358L140.593 22.1178L142.251 23.2362L142.846 22.3542L141.188 21.2358ZM139.998 22.9998L139.7 23.4408L141.358 24.5592L141.656 24.1182L139.998 22.9998ZM140.529 25H141.048V23H140.529V25ZM142.087 25H143.125V23H142.087V25ZM144.163 25H145.202V23H144.163V25ZM146.24 25H146.759V23H146.24V25ZM147.604 24.5351L147.87 24.1151L146.18 23.0449L145.914 23.4649L147.604 24.5351ZM148.402 23.2751L148.934 22.4351L147.244 21.3649L146.712 22.2049L148.402 23.2751ZM149.466 21.5951L149.998 20.7551L148.308 19.6849L147.776 20.5249L149.466 21.5951ZM150.53 19.9151L151.062 19.0751L149.372 18.0049L148.84 18.8449L150.53 19.9151ZM151.594 18.2351L152.126 17.3951L150.436 16.3249L149.904 17.1649L151.594 18.2351ZM152.658 16.5551L152.924 16.1351L151.234 15.0649L150.968 15.4849L152.658 16.5551ZM152.079 16.6H152.482V14.6H152.079V16.6ZM153.287 16.6H154.092V14.6H153.287V16.6ZM154.897 16.6H155.299V14.6H154.897V16.6ZM154.299 15.6V16.125H156.299V15.6H154.299ZM154.299 17.175V18.225H156.299V17.175H154.299ZM154.299 19.275V20.325H156.299V19.275H154.299ZM154.299 21.375V22.425H156.299V21.375H154.299ZM154.299 23.475V24H156.299V23.475H154.299ZM155.299 25H155.754V23H155.299V25ZM156.664 25H157.574V23H156.664V25ZM158.484 25H159.394V23H158.484V25ZM160.304 25H160.759V23H160.304V25ZM161.759 24V23.4837H159.759V24H161.759ZM161.759 22.4513V21.4188H159.759V22.4513H161.759ZM161.759 20.3862V19.3538H159.759V20.3862H161.759ZM161.759 18.3212V17.2887H159.759V18.3212H161.759ZM161.759 16.2562V15.2237H159.759V16.2562H161.759ZM161.759 14.1912V13.1587H159.759V14.1912H161.759ZM161.759 12.1262V11.0937H159.759V12.1262H161.759ZM161.759 10.0612V9.02875H159.759V10.0612H161.759ZM161.759 7.99625V6.96375H159.759V7.99625H161.759ZM161.759 5.93125V4.89875H159.759V5.93125H161.759ZM161.759 3.86625V2.83375H159.759V3.86625H161.759ZM161.759 1.80125V1.285H159.759V1.80125H161.759ZM160.759 0.284998H160.257V2.285H160.759V0.284998ZM159.252 0.284998H158.248V2.285H159.252V0.284998ZM157.243 0.284998H156.239V2.285H157.243V0.284998ZM155.234 0.284998H154.23V2.285H155.234V0.284998ZM153.225 0.284998H152.221V2.285H153.225V0.284998ZM151.216 0.284998H150.714V2.285H151.216V0.284998ZM150.714 0.284998C150.519 0.284998 150.326 0.28651 150.137 0.289541L150.169 2.28928C150.347 2.28643 150.529 2.285 150.714 2.285V0.284998ZM148.976 0.329321C148.571 0.351211 148.182 0.381296 147.809 0.419773L148.014 2.40922C148.352 2.37438 148.708 2.34671 149.084 2.32641L148.976 0.329321ZM146.631 0.578324C146.212 0.649565 145.815 0.734563 145.443 0.83421L145.959 2.76632C146.265 2.68467 146.6 2.61229 146.966 2.55008L146.631 0.578324ZM144.246 1.24047C144.039 1.32908 143.84 1.42521 143.651 1.52942L144.617 3.28058C144.742 3.21165 144.88 3.14468 145.031 3.08021L144.246 1.24047ZM143.663 1.52307C143.459 1.63188 143.265 1.75167 143.081 1.88295L144.244 3.51014C144.354 3.43169 144.474 3.35712 144.605 3.28693L143.663 1.52307ZM142.07 2.86653C141.787 3.24427 141.568 3.6625 141.411 4.11554L143.3 4.77087C143.393 4.50332 143.517 4.27001 143.671 4.06524L142.07 2.86653ZM141.133 5.43374C141.114 5.64482 141.104 5.86035 141.104 6.08H143.104C143.104 5.918 143.111 5.76413 143.125 5.61808L141.133 5.43374ZM141.104 6.08V6.64437H143.104V6.08H141.104ZM141.104 7.77312V8.90187H143.104V7.77312H141.104ZM141.104 10.0306V10.595H143.104V10.0306H141.104ZM141.104 10.595C141.104 10.7612 141.109 10.9247 141.118 11.0855L143.115 10.9674C143.108 10.8478 143.104 10.7237 143.104 10.595H141.104ZM141.249 12.0866C141.323 12.4392 141.426 12.7764 141.562 13.0956L143.403 12.313C143.322 12.1239 143.256 11.9124 143.206 11.676L141.249 12.0866ZM142.108 14.0504C142.22 14.1999 142.341 14.3418 142.471 14.4758L143.907 13.0842C143.837 13.0115 143.771 12.9345 143.711 12.8532L142.108 14.0504ZM142.471 14.4758C142.605 14.6145 142.749 14.7448 142.901 14.8666L144.151 13.3056C144.063 13.235 143.982 13.1612 143.907 13.0842L142.471 14.4758ZM143.852 15.4676C144.165 15.6222 144.499 15.7522 144.851 15.8594L145.433 13.946C145.174 13.8672 144.943 13.7761 144.738 13.6746L143.852 15.4676ZM145.855 16.0968C146.017 16.1255 146.184 16.1505 146.353 16.172L146.605 14.188C146.466 14.1703 146.332 14.15 146.202 14.1272L145.855 16.0968ZM155.299 10.995H154.735V12.995H155.299V10.995ZM153.606 10.995H152.477V12.995H153.606V10.995ZM151.348 10.995H150.784V12.995H151.348V10.995ZM150.784 10.995C150.56 10.995 150.353 10.9897 150.162 10.9794L150.054 12.9765C150.286 12.9889 150.529 12.995 150.784 12.995V10.995ZM149.052 10.8203C148.871 10.7676 148.775 10.7156 148.733 10.6858L147.586 12.3242C147.859 12.5155 148.172 12.6472 148.494 12.7407L149.052 10.8203ZM148.759 10.705C148.729 10.6824 148.693 10.6469 148.656 10.5839L146.94 11.6122C147.1 11.8788 147.305 12.1146 147.559 12.305L148.759 10.705ZM148.481 9.949C148.467 9.8195 148.459 9.67356 148.459 9.51H146.459C146.459 9.73586 146.47 9.95447 146.493 10.1647L148.481 9.949ZM148.459 9.51V8.97625H146.459V9.51H148.459ZM148.459 7.90875V7.375H146.459V7.90875H148.459ZM148.459 7.375C148.459 7.24097 148.467 7.12513 148.481 7.02579L146.5 6.75027C146.472 6.9526 146.459 7.16141 146.459 7.375H148.459ZM148.628 6.59403C148.654 6.55989 148.683 6.53325 148.72 6.51026L147.668 4.80973C147.425 4.96009 147.214 5.1506 147.04 5.37744L148.628 6.59403ZM148.731 6.50366C148.802 6.45869 148.915 6.40409 149.089 6.35224L148.517 4.43578C148.211 4.52699 147.919 4.64972 147.657 4.81634L148.731 6.50366ZM150.176 6.18671C150.364 6.1757 150.566 6.17 150.784 6.17V4.17C150.532 4.17 150.29 4.17659 150.059 4.19016L150.176 6.18671ZM150.784 6.17H151.348V4.17H150.784V6.17ZM152.477 6.17H153.606V4.17H152.477V6.17ZM154.735 6.17H155.299V4.17H154.735V6.17ZM154.299 5.17V5.73875H156.299V5.17H154.299ZM154.299 6.87625V8.01375H156.299V6.87625H154.299ZM154.299 9.15125V10.2887H156.299V9.15125H154.299ZM154.299 11.4263V11.995H156.299V11.4263H154.299Z" fill="#77C2F9" fill-opacity="0.9"/>
</svg>
